<svg xmlns="http://www.w3.org/2000/svg" xmlns:xlink="http://www.w3.org/1999/xlink" contentStyleType="text/css" data-diagram-type="CLASS" height="387px" preserveAspectRatio="none" style="width:2998px;height:387px;background:#FFFFFF;" version="1.1" viewBox="0 0 2998 387" width="2998px" zoomAndPan="magnify"><title>Datenatlas - 2410:D</title><defs/><g><g class="title" data-source-line="1"><text fill="#000000" font-family="sans-serif" font-size="14" font-weight="bold" lengthAdjust="spacing" textLength="157.6846" x="1413.1973" y="22.9951">Datenatlas - 2410:D</text></g><!--class 2410_D--><g class="entity" data-entity="2410_D" data-source-line="2" data-uid="ent0002" id="entity_2410_D"><rect fill="#F1F1F1" height="113.1875" rx="2.5" ry="2.5" style="stroke:#181818;stroke-width:0.5;" width="374.2021" x="1263.98" y="44.2969"/><ellipse cx="1420.1265" cy="60.2969" fill="#ADD1B2" rx="11" ry="11" style="stroke:#181818;stroke-width:1;"/><path d="M1423.0952,65.9375 Q1422.5171,66.2344 1421.8765,66.375 Q1421.2359,66.5313 1420.5327,66.5313 Q1418.0327,66.5313 1416.7046,64.8906 Q1415.3921,63.2344 1415.3921,60.1094 Q1415.3921,56.9844 1416.7046,55.3281 Q1418.0327,53.6719 1420.5327,53.6719 Q1421.2359,53.6719 1421.8765,53.8281 Q1422.5327,53.9844 1423.0952,54.2813 L1423.0952,57 Q1422.4702,56.4219 1421.8765,56.1563 Q1421.2827,55.875 1420.6577,55.875 Q1419.314,55.875 1418.6265,56.9531 Q1417.939,58.0156 1417.939,60.1094 Q1417.939,62.2031 1418.6265,63.2813 Q1419.314,64.3438 1420.6577,64.3438 Q1421.2827,64.3438 1421.8765,64.0781 Q1422.4702,63.7969 1423.0952,63.2188 L1423.0952,65.9375 Z " fill="#000000"/><text fill="#000000" font-family="sans-serif" font-size="14" lengthAdjust="spacing" textLength="53.4092" x="1440.6265" y="65.1436">2410_D</text><line style="stroke:#181818;stroke-width:0.5;" x1="1264.98" x2="1637.1821" y1="76.2969" y2="76.2969"/><text fill="#000000" font-family="sans-serif" font-size="14" lengthAdjust="spacing" textLength="68.2842" x="1283.98" y="93.292">Name: 12</text><text fill="#000000" font-family="sans-serif" font-size="14" lengthAdjust="spacing" textLength="66.6436" x="1283.98" y="109.5889">Prozesse:</text><rect fill="none" height="6" style="stroke:#C82930;stroke-width:1;" width="6" x="1271.98" y="119.5391"/><text fill="#000000" font-family="sans-serif" font-size="14" lengthAdjust="spacing" textLength="317.9668" x="1283.98" y="125.8857">Sperrung und Entsperrung eines Anschlusses</text><line style="stroke:#181818;stroke-width:0.5;" x1="1264.98" x2="1637.1821" y1="133.1875" y2="133.1875"/><rect fill="#F24D5C" height="6" style="stroke:#C82930;stroke-width:1;" width="6" x="1271.98" y="143.8359"/><text fill="#000000" font-family="sans-serif" font-size="14" lengthAdjust="spacing" textLength="348.2021" x="1283.98" y="150.1826">Bestellung einer technischen Konfiguration (MSB)</text></g><!--class 2410_D_msg_1--><g class="entity" data-entity="2410_D_msg_1" data-source-line="8" data-uid="ent0003" id="entity_2410_D_msg_1"><rect fill="#F1F1F1" height="145.7813" rx="2.5" ry="2.5" style="stroke:#181818;stroke-width:0.5;" width="758.1631" x="7" y="234.4869"/><ellipse cx="328.7642" cy="250.4869" fill="#ADD1B2" rx="11" ry="11" style="stroke:#181818;stroke-width:1;"/><path d="M331.7329,256.1275 Q331.1548,256.4244 330.5142,256.565 Q329.8735,256.7213 329.1704,256.7213 Q326.6704,256.7213 325.3423,255.0806 Q324.0298,253.4244 324.0298,250.2994 Q324.0298,247.1744 325.3423,245.5181 Q326.6704,243.8619 329.1704,243.8619 Q329.8735,243.8619 330.5142,244.0181 Q331.1704,244.1744 331.7329,244.4713 L331.7329,247.19 Q331.1079,246.6119 330.5142,246.3463 Q329.9204,246.065 329.2954,246.065 Q327.9517,246.065 327.2642,247.1431 Q326.5767,248.2056 326.5767,250.2994 Q326.5767,252.3931 327.2642,253.4713 Q327.9517,254.5338 329.2954,254.5338 Q329.9204,254.5338 330.5142,254.2681 Q331.1079,253.9869 331.7329,253.4088 L331.7329,256.1275 Z " fill="#000000"/><text fill="#000000" font-family="sans-serif" font-size="14" lengthAdjust="spacing" textLength="106.1348" x="349.2642" y="255.3336">2410_D_msg_1</text><line style="stroke:#181818;stroke-width:0.5;" x1="8" x2="764.1631" y1="266.4869" y2="266.4869"/><text fill="#000000" font-family="sans-serif" font-size="14" lengthAdjust="spacing" textLength="161.793" x="13" y="283.482">Nachricht: ORDRSP 1.4</text><text fill="#000000" font-family="sans-serif" font-size="14" lengthAdjust="spacing" textLength="204.1143" x="13" y="299.7789">Kontext: Nachrichtenstruktur</text><text fill="#000000" font-family="sans-serif" font-size="14" lengthAdjust="spacing" textLength="110.5439" x="13" y="316.0757">Pflichtfeld: Nein</text><text fill="#000000" font-family="sans-serif" font-size="14" lengthAdjust="spacing" textLength="111.6924" x="13" y="332.3726">Codes: 12, MOA</text><text fill="#000000" font-family="sans-serif" font-size="14" lengthAdjust="spacing" textLength="283.9307" x="13" y="348.6695">Quelle: ORDRSP_MIG_1_4_20240619.pdf</text><line style="stroke:#181818;stroke-width:0.5;" x1="8" x2="764.1631" y1="355.9713" y2="355.9713"/><text fill="#000000" font-family="sans-serif" font-size="14" lengthAdjust="spacing" textLength="746.1631" x="13" y="372.9664">Prozesse: Bestellung einer technischen Konfiguration (MSB), Sperrung und Entsperrung eines Anschlusses</text></g><!--class 2410_D_proc_1--><g class="entity" data-entity="2410_D_proc_1" data-source-line="17" data-uid="ent0005" id="entity_2410_D_proc_1"><rect fill="#F1F1F1" height="105.1563" rx="2.5" ry="2.5" style="stroke:#181818;stroke-width:0.5;" width="1301.9961" x="800.08" y="254.7969"/><ellipse cx="1393.2172" cy="274.9297" fill="#ADD1B2" rx="11" ry="11" style="stroke:#181818;stroke-width:1;"/><path d="M1396.186,280.5703 Q1395.6078,280.8672 1394.9672,281.0078 Q1394.3266,281.1641 1393.6235,281.1641 Q1391.1235,281.1641 1389.7953,279.5234 Q1388.4828,277.8672 1388.4828,274.7422 Q1388.4828,271.6172 1389.7953,269.9609 Q1391.1235,268.3047 1393.6235,268.3047 Q1394.3266,268.3047 1394.9672,268.4609 Q1395.6235,268.6172 1396.186,268.9141 L1396.186,271.6328 Q1395.561,271.0547 1394.9672,270.7891 Q1394.3735,270.5078 1393.7485,270.5078 Q1392.4047,270.5078 1391.7172,271.5859 Q1391.0297,272.6484 1391.0297,274.7422 Q1391.0297,276.8359 1391.7172,277.9141 Q1392.4047,278.9766 1393.7485,278.9766 Q1394.3735,278.9766 1394.9672,278.7109 Q1395.561,278.4297 1396.186,277.8516 L1396.186,280.5703 Z " fill="#000000"/><text fill="#000000" font-family="sans-serif" font-size="12" font-style="italic" lengthAdjust="spacing" textLength="61.0605" x="1436.7978" y="270.9355">&#171;process&#187;</text><text fill="#000000" font-family="sans-serif" font-size="14" lengthAdjust="spacing" textLength="107.2217" x="1413.7172" y="286.7607">2410_D_proc_1</text><line style="stroke:#181818;stroke-width:0.5;" x1="801.08" x2="2101.0761" y1="295.0625" y2="295.0625"/><text fill="#000000" font-family="sans-serif" font-size="14" lengthAdjust="spacing" textLength="156.4063" x="806.08" y="312.0576">Gesetze: MsbG, EnWG</text><text fill="#000000" font-family="sans-serif" font-size="14" lengthAdjust="spacing" textLength="1289.9961" x="806.08" y="328.3545">Zusammenfassung: Erl&#228;utere den Prozess zur Bestellung einer spezifischen technischen Konfiguration bei einem Messstellenbetreiber, beispielsweise f&#252;r ein intelligentes Messsystem.</text><line style="stroke:#181818;stroke-width:0.5;" x1="801.08" x2="2101.0761" y1="335.6563" y2="335.6563"/><text fill="#000000" font-family="sans-serif" font-size="14" lengthAdjust="spacing" textLength="348.2021" x="806.08" y="352.6514">Bestellung einer technischen Konfiguration (MSB)</text></g><!--class 2410_D_proc_2--><g class="entity" data-entity="2410_D_proc_2" data-source-line="23" data-uid="ent0007" id="entity_2410_D_proc_2"><rect fill="#F1F1F1" height="105.1563" rx="2.5" ry="2.5" style="stroke:#181818;stroke-width:0.5;" width="853.9893" x="2137.09" y="254.7969"/><ellipse cx="2506.2238" cy="274.9297" fill="#ADD1B2" rx="11" ry="11" style="stroke:#181818;stroke-width:1;"/><path d="M2509.1925,280.5703 Q2508.6144,280.8672 2507.9738,281.0078 Q2507.3332,281.1641 2506.63,281.1641 Q2504.13,281.1641 2502.8019,279.5234 Q2501.4894,277.8672 2501.4894,274.7422 Q2501.4894,271.6172 2502.8019,269.9609 Q2504.13,268.3047 2506.63,268.3047 Q2507.3332,268.3047 2507.9738,268.4609 Q2508.63,268.6172 2509.1925,268.9141 L2509.1925,271.6328 Q2508.5675,271.0547 2507.9738,270.7891 Q2507.38,270.5078 2506.755,270.5078 Q2505.4113,270.5078 2504.7238,271.5859 Q2504.0363,272.6484 2504.0363,274.7422 Q2504.0363,276.8359 2504.7238,277.9141 Q2505.4113,278.9766 2506.755,278.9766 Q2507.38,278.9766 2507.9738,278.7109 Q2508.5675,278.4297 2509.1925,277.8516 L2509.1925,280.5703 Z " fill="#000000"/><text fill="#000000" font-family="sans-serif" font-size="12" font-style="italic" lengthAdjust="spacing" textLength="61.0605" x="2549.8044" y="270.9355">&#171;process&#187;</text><text fill="#000000" font-family="sans-serif" font-size="14" lengthAdjust="spacing" textLength="107.2217" x="2526.7238" y="286.7607">2410_D_proc_2</text><line style="stroke:#181818;stroke-width:0.5;" x1="2138.09" x2="2990.0793" y1="295.0625" y2="295.0625"/><text fill="#000000" font-family="sans-serif" font-size="14" lengthAdjust="spacing" textLength="317.9668" x="2143.09" y="312.0576">Sperrung und Entsperrung eines Anschlusses</text><text fill="#000000" font-family="sans-serif" font-size="14" lengthAdjust="spacing" textLength="138.3252" x="2143.09" y="328.3545">Gesetze: StromGVV</text><text fill="#000000" font-family="sans-serif" font-size="14" lengthAdjust="spacing" textLength="841.9893" x="2143.09" y="344.6514">Zusammenfassung: Beschreibe den End-to-End-Prozess f&#252;r die Sperrung und Wiederherstellung eines Netzanschlusses.</text><line style="stroke:#181818;stroke-width:0.5;" x1="2138.09" x2="2990.0793" y1="351.9531" y2="351.9531"/></g><!--link 2410_D to 2410_D_msg_1--><g class="link" data-entity-1="2410_D" data-entity-2="2410_D_msg_1" data-source-line="16" data-uid="lnk4" id="link_2410_D_2410_D_msg_1"><path codeLine="16" d="M1263.74,137.8569 C1125.5,164.4069 938.6024,200.2855 768.9224,232.8655" fill="none" id="2410_D-to-2410_D_msg_1" style="stroke:#181818;stroke-width:1;"/><polygon fill="#181818" points="763.03,233.9969,772.6228,236.228,767.9403,233.0541,771.1143,228.3716,763.03,233.9969" style="stroke:#181818;stroke-width:1;"/><text fill="#000000" font-family="sans-serif" font-size="13" lengthAdjust="spacing" textLength="85.2363" x="984.08" y="200.5538">verwendet in</text></g><!--link 2410_D to 2410_D_proc_1--><g class="link" data-entity-1="2410_D" data-entity-2="2410_D_proc_1" data-source-line="22" data-uid="lnk6" id="link_2410_D_2410_D_proc_1"><path codeLine="22" d="M1451.08,157.7669 C1451.08,187.9169 1451.08,218.9069 1451.08,248.4269" fill="none" id="2410_D-to-2410_D_proc_1" style="stroke:#181818;stroke-width:1;stroke-dasharray:7,7;"/><polygon fill="#181818" points="1451.08,254.4269,1455.08,245.4269,1451.08,249.4269,1447.08,245.4269,1451.08,254.4269" style="stroke:#181818;stroke-width:1;"/><text fill="#000000" font-family="sans-serif" font-size="13" lengthAdjust="spacing" textLength="91.6221" x="1452.08" y="200.5538">eingebettet in</text></g><!--link 2410_D to 2410_D_proc_2--><g class="link" data-entity-1="2410_D" data-entity-2="2410_D_proc_2" data-source-line="28" data-uid="lnk8" id="link_2410_D_2410_D_proc_2"><path codeLine="28" d="M1638.63,136.3469 C1814.34,168.6269 2073.4687,216.2428 2274.9387,253.2528" fill="none" id="2410_D-to-2410_D_proc_2" style="stroke:#181818;stroke-width:1;stroke-dasharray:7,7;"/><polygon fill="#181818" points="2280.84,254.3369,2272.7108,248.7766,2275.9223,253.4335,2271.2654,256.645,2280.84,254.3369" style="stroke:#181818;stroke-width:1;"/><text fill="#000000" font-family="sans-serif" font-size="13" lengthAdjust="spacing" textLength="91.6221" x="2009.08" y="200.5538">eingebettet in</text></g><!--SRC=[dPB1Qjj048RlVeevjc09IvX2HJ0ajH6bg4bZIA0N8KiZQQcqCZkpJQlIj-bZz9ONowmg9rNT5DpJpevc_fd_Mx7Y1c6TCUgCcup0Wt0PBABrB9SR3PTq3Tzc0E-p5YC8GWclJDSZ4KOIWxHS834sZTKLeD9eW36ljQAyHWtlEbsgofgCLQVXHRAzU3csRVTeZ6koke2DPZhSdGZ1kHQ1nieScdsVx9EsLAN1k5LU6vNN7C7bzVfwUmM1lvIyJ6Ny8jd70jJ4ndvYQvo3id6v4fj2IcIUvDvq1P9pE8VaylntcoSRd9_Y3U235N4yE4YJjt4QfCiqN8JBnQlWjRylIY4mleNdhQOO8lYCvWvrWGnYP09gRxfSIixEN21ULgk1sdyyM8o4tCkI2UtYkLYwZINxqLBMjgXBcIbg4MnCS__3CXg4GhH6XD1RSpnKcFIg7AS-ly4ErT3GGY9IWmRg7R91jKCpTzzfhx2XEmaGolkVnjKB2rUgAfIJVlL-bUxMVsBf-wi_I4MkjKAHv-TmXaSuJthiHv1RDbqRtzpy3QEmaj_M6HmmRdJXSUUvuq1qi5aed0w_LLYWgT5CK9FyujndJsly0q5uXE01]--></g></svg>