<svg xmlns="http://www.w3.org/2000/svg" xmlns:xlink="http://www.w3.org/1999/xlink" contentStyleType="text/css" data-diagram-type="CLASS" height="387px" preserveAspectRatio="none" style="width:2021px;height:387px;background:#FFFFFF;" version="1.1" viewBox="0 0 2021 387" width="2021px" zoomAndPan="magnify"><title>Datenatlas - 457:1004</title><defs/><g><g class="title" data-source-line="1"><text fill="#000000" font-family="sans-serif" font-size="14" font-weight="bold" lengthAdjust="spacing" textLength="175.2871" x="916.3202" y="22.9951">Datenatlas - 457:1004</text></g><!--class 457_1004--><g class="entity" data-entity="457_1004" data-source-line="2" data-uid="ent0002" id="entity_457_1004"><rect fill="#F1F1F1" height="113.1875" rx="2.5" ry="2.5" style="stroke:#181818;stroke-width:0.5;" width="249.2822" x="789.17" y="44.2969"/><ellipse cx="874.8858" cy="60.2969" fill="#ADD1B2" rx="11" ry="11" style="stroke:#181818;stroke-width:1;"/><path d="M877.8546,65.9375 Q877.2764,66.2344 876.6358,66.375 Q875.9952,66.5313 875.2921,66.5313 Q872.7921,66.5313 871.4639,64.8906 Q870.1514,63.2344 870.1514,60.1094 Q870.1514,56.9844 871.4639,55.3281 Q872.7921,53.6719 875.2921,53.6719 Q875.9952,53.6719 876.6358,53.8281 Q877.2921,53.9844 877.8546,54.2813 L877.8546,57 Q877.2296,56.4219 876.6358,56.1563 Q876.0421,55.875 875.4171,55.875 Q874.0733,55.875 873.3858,56.9531 Q872.6983,58.0156 872.6983,60.1094 Q872.6983,62.2031 873.3858,63.2813 Q874.0733,64.3438 875.4171,64.3438 Q876.0421,64.3438 876.6358,64.0781 Q877.2296,63.7969 877.8546,63.2188 L877.8546,65.9375 Z " fill="#000000"/><text fill="#000000" font-family="sans-serif" font-size="14" lengthAdjust="spacing" textLength="69.3506" x="895.3858" y="65.1436">457_1004</text><line style="stroke:#181818;stroke-width:0.5;" x1="790.17" x2="1037.4522" y1="76.2969" y2="76.2969"/><text fill="#000000" font-family="sans-serif" font-size="14" lengthAdjust="spacing" textLength="200.2861" x="809.17" y="93.292">Name: Dokumentennummer</text><text fill="#000000" font-family="sans-serif" font-size="14" lengthAdjust="spacing" textLength="66.6436" x="809.17" y="109.5889">Prozesse:</text><rect fill="none" height="6" style="stroke:#C82930;stroke-width:1;" width="6" x="797.17" y="119.5391"/><text fill="#000000" font-family="sans-serif" font-size="14" lengthAdjust="spacing" textLength="180.3457" x="809.17" y="125.8857">Netznutzungsabrechnung</text><rect fill="none" height="6" style="stroke:#C82930;stroke-width:1;" width="6" x="797.17" y="135.8359"/><text fill="#000000" font-family="sans-serif" font-size="14" lengthAdjust="spacing" textLength="223.2822" x="809.17" y="142.1826">Messstellenbetriebsabrechnung</text><line style="stroke:#181818;stroke-width:0.5;" x1="790.17" x2="1037.4522" y1="149.4844" y2="149.4844"/></g><!--class 457_1004_msg_1--><g class="entity" data-entity="457_1004_msg_1" data-source-line="8" data-uid="ent0003" id="entity_457_1004_msg_1"><rect fill="#F1F1F1" height="145.7813" rx="2.5" ry="2.5" style="stroke:#181818;stroke-width:0.5;" width="495.6221" x="7" y="234.4869"/><ellipse cx="189.5229" cy="250.4869" fill="#ADD1B2" rx="11" ry="11" style="stroke:#181818;stroke-width:1;"/><path d="M192.4917,256.1275 Q191.9136,256.4244 191.2729,256.565 Q190.6323,256.7213 189.9292,256.7213 Q187.4292,256.7213 186.1011,255.0806 Q184.7886,253.4244 184.7886,250.2994 Q184.7886,247.1744 186.1011,245.5181 Q187.4292,243.8619 189.9292,243.8619 Q190.6323,243.8619 191.2729,244.0181 Q191.9292,244.1744 192.4917,244.4713 L192.4917,247.19 Q191.8667,246.6119 191.2729,246.3463 Q190.6792,246.065 190.0542,246.065 Q188.7104,246.065 188.0229,247.1431 Q187.3354,248.2056 187.3354,250.2994 Q187.3354,252.3931 188.0229,253.4713 Q188.7104,254.5338 190.0542,254.5338 Q190.6792,254.5338 191.2729,254.2681 Q191.8667,253.9869 192.4917,253.4088 L192.4917,256.1275 Z " fill="#000000"/><text fill="#000000" font-family="sans-serif" font-size="14" lengthAdjust="spacing" textLength="122.0762" x="210.0229" y="255.3336">457_1004_msg_1</text><line style="stroke:#181818;stroke-width:0.5;" x1="8" x2="501.6221" y1="266.4869" y2="266.4869"/><text fill="#000000" font-family="sans-serif" font-size="14" lengthAdjust="spacing" textLength="165.6484" x="13" y="283.482">Nachricht: INVOIC 2.8d.</text><text fill="#000000" font-family="sans-serif" font-size="14" lengthAdjust="spacing" textLength="269.0693" x="13" y="299.7789">Kontext: 457   Storno einer Belastung.</text><text fill="#000000" font-family="sans-serif" font-size="14" lengthAdjust="spacing" textLength="110.5439" x="13" y="316.0757">Pflichtfeld: Nein</text><text fill="#000000" font-family="sans-serif" font-size="14" lengthAdjust="spacing" textLength="174.6992" x="13" y="332.3726">Codes: 35, 457, EDI, Z25</text><text fill="#000000" font-family="sans-serif" font-size="14" lengthAdjust="spacing" textLength="483.6221" x="13" y="348.6695">Prozesse: Netznutzungsabrechnung, Messstellenbetriebsabrechnung</text><text fill="#000000" font-family="sans-serif" font-size="14" lengthAdjust="spacing" textLength="290.3359" x="13" y="364.9664">Quelle: INVOIC_MIG_2_8d__20240619.pdf</text><line style="stroke:#181818;stroke-width:0.5;" x1="8" x2="501.6221" y1="372.2681" y2="372.2681"/></g><!--class 457_1004_proc_1--><g class="entity" data-entity="457_1004_proc_1" data-source-line="17" data-uid="ent0005" id="entity_457_1004_proc_1"><rect fill="#F1F1F1" height="105.1563" rx="2.5" ry="2.5" style="stroke:#181818;stroke-width:0.5;" width="752.6465" x="537.49" y="254.7969"/><ellipse cx="847.9817" cy="274.9297" fill="#ADD1B2" rx="11" ry="11" style="stroke:#181818;stroke-width:1;"/><path d="M850.9504,280.5703 Q850.3723,280.8672 849.7317,281.0078 Q849.0911,281.1641 848.3879,281.1641 Q845.8879,281.1641 844.5598,279.5234 Q843.2473,277.8672 843.2473,274.7422 Q843.2473,271.6172 844.5598,269.9609 Q845.8879,268.3047 848.3879,268.3047 Q849.0911,268.3047 849.7317,268.4609 Q850.3879,268.6172 850.9504,268.9141 L850.9504,271.6328 Q850.3254,271.0547 849.7317,270.7891 Q849.1379,270.5078 848.5129,270.5078 Q847.1692,270.5078 846.4817,271.5859 Q845.7942,272.6484 845.7942,274.7422 Q845.7942,276.8359 846.4817,277.9141 Q847.1692,278.9766 848.5129,278.9766 Q849.1379,278.9766 849.7317,278.7109 Q850.3254,278.4297 850.9504,277.8516 L850.9504,280.5703 Z " fill="#000000"/><text fill="#000000" font-family="sans-serif" font-size="12" font-style="italic" lengthAdjust="spacing" textLength="61.0605" x="899.533" y="270.9355">&#171;process&#187;</text><text fill="#000000" font-family="sans-serif" font-size="14" lengthAdjust="spacing" textLength="123.1631" x="868.4817" y="286.7607">457_1004_proc_1</text><line style="stroke:#181818;stroke-width:0.5;" x1="538.49" x2="1289.1365" y1="295.0625" y2="295.0625"/><text fill="#000000" font-family="sans-serif" font-size="14" lengthAdjust="spacing" textLength="180.3457" x="543.49" y="312.0576">Netznutzungsabrechnung</text><text fill="#000000" font-family="sans-serif" font-size="14" lengthAdjust="spacing" textLength="218.0938" x="543.49" y="328.3545">Gesetze: StromNEV, StromNZV</text><text fill="#000000" font-family="sans-serif" font-size="14" lengthAdjust="spacing" textLength="740.6465" x="543.49" y="344.6514">Zusammenfassung: Wie funktioniert die Netznutzungsabrechnung zwischen Netzbetreiber und Lieferant?</text><line style="stroke:#181818;stroke-width:0.5;" x1="538.49" x2="1289.1365" y1="351.9531" y2="351.9531"/></g><!--class 457_1004_proc_2--><g class="entity" data-entity="457_1004_proc_2" data-source-line="23" data-uid="ent0007" id="entity_457_1004_proc_2"><rect fill="#F1F1F1" height="105.1563" rx="2.5" ry="2.5" style="stroke:#181818;stroke-width:0.5;" width="690.2275" x="1324.7" y="254.7969"/><ellipse cx="1603.9822" cy="274.9297" fill="#ADD1B2" rx="11" ry="11" style="stroke:#181818;stroke-width:1;"/><path d="M1606.951,280.5703 Q1606.3729,280.8672 1605.7322,281.0078 Q1605.0916,281.1641 1604.3885,281.1641 Q1601.8885,281.1641 1600.5604,279.5234 Q1599.2479,277.8672 1599.2479,274.7422 Q1599.2479,271.6172 1600.5604,269.9609 Q1601.8885,268.3047 1604.3885,268.3047 Q1605.0916,268.3047 1605.7322,268.4609 Q1606.3885,268.6172 1606.951,268.9141 L1606.951,271.6328 Q1606.326,271.0547 1605.7322,270.7891 Q1605.1385,270.5078 1604.5135,270.5078 Q1603.1697,270.5078 1602.4822,271.5859 Q1601.7947,272.6484 1601.7947,274.7422 Q1601.7947,276.8359 1602.4822,277.9141 Q1603.1697,278.9766 1604.5135,278.9766 Q1605.1385,278.9766 1605.7322,278.7109 Q1606.326,278.4297 1606.951,277.8516 L1606.951,280.5703 Z " fill="#000000"/><text fill="#000000" font-family="sans-serif" font-size="12" font-style="italic" lengthAdjust="spacing" textLength="61.0605" x="1655.5335" y="270.9355">&#171;process&#187;</text><text fill="#000000" font-family="sans-serif" font-size="14" lengthAdjust="spacing" textLength="123.1631" x="1624.4822" y="286.7607">457_1004_proc_2</text><line style="stroke:#181818;stroke-width:0.5;" x1="1325.7" x2="2013.9275" y1="295.0625" y2="295.0625"/><text fill="#000000" font-family="sans-serif" font-size="14" lengthAdjust="spacing" textLength="223.2822" x="1330.7" y="312.0576">Messstellenbetriebsabrechnung</text><text fill="#000000" font-family="sans-serif" font-size="14" lengthAdjust="spacing" textLength="105.0957" x="1330.7" y="328.3545">Gesetze: MsbG</text><text fill="#000000" font-family="sans-serif" font-size="14" lengthAdjust="spacing" textLength="678.2275" x="1330.7" y="344.6514">Zusammenfassung: Beschreibe den Prozess der Abrechnung von Messstellenbetriebsleistungen.</text><line style="stroke:#181818;stroke-width:0.5;" x1="1325.7" x2="2013.9275" y1="351.9531" y2="351.9531"/></g><!--link 457_1004 to 457_1004_msg_1--><g class="link" data-entity-1="457_1004" data-entity-2="457_1004_msg_1" data-source-line="16" data-uid="lnk4" id="link_457_1004_457_1004_msg_1"><path codeLine="16" d="M788.7,140.7169 C703.86,167.0369 594.8904,200.8485 493.5504,232.2985" fill="none" id="457_1004-to-457_1004_msg_1" style="stroke:#181818;stroke-width:1;"/><polygon fill="#181818" points="487.82,234.0769,497.6012,235.2296,492.5953,232.5949,495.23,227.589,487.82,234.0769" style="stroke:#181818;stroke-width:1;"/><text fill="#000000" font-family="sans-serif" font-size="13" lengthAdjust="spacing" textLength="85.2363" x="624.81" y="200.5538">verwendet in</text></g><!--link 457_1004 to 457_1004_proc_1--><g class="link" data-entity-1="457_1004" data-entity-2="457_1004_proc_1" data-source-line="22" data-uid="lnk6" id="link_457_1004_457_1004_proc_1"><path codeLine="22" d="M913.81,157.7669 C913.81,187.9169 913.81,218.9069 913.81,248.4269" fill="none" id="457_1004-to-457_1004_proc_1" style="stroke:#181818;stroke-width:1;stroke-dasharray:7,7;"/><polygon fill="#181818" points="913.81,254.4269,917.81,245.4269,913.81,249.4269,909.81,245.4269,913.81,254.4269" style="stroke:#181818;stroke-width:1;"/><text fill="#000000" font-family="sans-serif" font-size="13" lengthAdjust="spacing" textLength="91.6221" x="914.81" y="200.5538">eingebettet in</text></g><!--link 457_1004 to 457_1004_proc_2--><g class="link" data-entity-1="457_1004" data-entity-2="457_1004_proc_2" data-source-line="28" data-uid="lnk8" id="link_457_1004_457_1004_proc_2"><path codeLine="28" d="M1038.65,135.6569 C1157.96,167.9269 1333.7682,215.4802 1471.5882,252.7602" fill="none" id="457_1004-to-457_1004_proc_2" style="stroke:#181818;stroke-width:1;stroke-dasharray:7,7;"/><polygon fill="#181818" points="1477.38,254.3269,1469.7367,248.1156,1472.5535,253.0213,1467.6478,255.8381,1477.38,254.3269" style="stroke:#181818;stroke-width:1;"/><text fill="#000000" font-family="sans-serif" font-size="13" lengthAdjust="spacing" textLength="91.6221" x="1292.81" y="200.5538">eingebettet in</text></g><!--SRC=[XPBRJkD038RlUGe_G1grsNQ14UfgeQYge0M4LAJUH4d6QKSa7ZJZ0EfgtnrFAL3r07Vs-FH_zh3X2c6GCLB6LUQX1TtUiUgqszsZGdmVt3IuyEy8O9BLg61W7viQIMgegMjq4hXrTedUen8RfCa4UKaDBnkQ-ontM2n8p7LmB9cUiQgGScHdCD_C-RyrEAtzFEsinnSBPue5AnXDfZUZ2qZY4nrBvCgAd5TvbogPSS_MaGKqX0xEKVgnj0w9jsKL6fHOQIKg3SdRXTNe5VpgHQ4yWil1A89PqjlaEa0K_G03SDU4s8VWT3mQfabwejCqQIVTzk_EQVoaIu7-t7EhrTzcL_2CxWL98uCetjhFaxE599sT1KFKzFllopfqWY5w2OcaUtQsdbnEexKrcqfqrlXCZagbp91y1Gy6eMpeaOqbWuv1oyF-vh1yCRvO8AtYOHreShb0Gngk3PReCk8_cx1ntDy1KU5kSvHoFioRxF3-T8XFxB7FX_j0pr6qhnI35eJrwSLsyFSByTdIlb4LcjKVGug_vqjs-Du0]--></g></svg>