<svg xmlns="http://www.w3.org/2000/svg" xmlns:xlink="http://www.w3.org/1999/xlink" contentStyleType="text/css" data-diagram-type="CLASS" height="387px" preserveAspectRatio="none" style="width:2552px;height:387px;background:#FFFFFF;" version="1.1" viewBox="0 0 2552 387" width="2552px" zoomAndPan="magnify"><title>Datenatlas - ALC:C552</title><defs/><g><g class="title" data-source-line="1"><text fill="#000000" font-family="sans-serif" font-size="14" font-weight="bold" lengthAdjust="spacing" textLength="176.627" x="1181.1503" y="22.9951">Datenatlas - ALC:C552</text></g><!--class ALC_C552--><g class="entity" data-entity="ALC_C552" data-source-line="2" data-uid="ent0002" id="entity_ALC_C552"><rect fill="#F1F1F1" height="113.1875" rx="2.5" ry="2.5" style="stroke:#181818;stroke-width:0.5;" width="256.7266" x="986.45" y="44.2969"/><ellipse cx="1075.2386" cy="60.2969" fill="#ADD1B2" rx="11" ry="11" style="stroke:#181818;stroke-width:1;"/><path d="M1078.2073,65.9375 Q1077.6292,66.2344 1076.9886,66.375 Q1076.3479,66.5313 1075.6448,66.5313 Q1073.1448,66.5313 1071.8167,64.8906 Q1070.5042,63.2344 1070.5042,60.1094 Q1070.5042,56.9844 1071.8167,55.3281 Q1073.1448,53.6719 1075.6448,53.6719 Q1076.3479,53.6719 1076.9886,53.8281 Q1077.6448,53.9844 1078.2073,54.2813 L1078.2073,57 Q1077.5823,56.4219 1076.9886,56.1563 Q1076.3948,55.875 1075.7698,55.875 Q1074.4261,55.875 1073.7386,56.9531 Q1073.0511,58.0156 1073.0511,60.1094 Q1073.0511,62.2031 1073.7386,63.2813 Q1074.4261,64.3438 1075.7698,64.3438 Q1076.3948,64.3438 1076.9886,64.0781 Q1077.5823,63.7969 1078.2073,63.2188 L1078.2073,65.9375 Z " fill="#000000"/><text fill="#000000" font-family="sans-serif" font-size="14" lengthAdjust="spacing" textLength="70.6494" x="1095.7386" y="65.1436">ALC_C552</text><line style="stroke:#181818;stroke-width:0.5;" x1="987.45" x2="1242.1766" y1="76.2969" y2="76.2969"/><text fill="#000000" font-family="sans-serif" font-size="14" lengthAdjust="spacing" textLength="230.7266" x="1006.45" y="93.292">Name: Zu-/Abschlagsinformation</text><text fill="#000000" font-family="sans-serif" font-size="14" lengthAdjust="spacing" textLength="66.6436" x="1006.45" y="109.5889">Prozesse:</text><rect fill="none" height="6" style="stroke:#C82930;stroke-width:1;" width="6" x="994.45" y="119.5391"/><text fill="#000000" font-family="sans-serif" font-size="14" lengthAdjust="spacing" textLength="180.3457" x="1006.45" y="125.8857">Netznutzungsabrechnung</text><rect fill="none" height="6" style="stroke:#C82930;stroke-width:1;" width="6" x="994.45" y="135.8359"/><text fill="#000000" font-family="sans-serif" font-size="14" lengthAdjust="spacing" textLength="223.2822" x="1006.45" y="142.1826">Messstellenbetriebsabrechnung</text><line style="stroke:#181818;stroke-width:0.5;" x1="987.45" x2="1242.1766" y1="149.4844" y2="149.4844"/></g><!--class ALC_C552_msg_1--><g class="entity" data-entity="ALC_C552_msg_1" data-source-line="8" data-uid="ent0003" id="entity_ALC_C552_msg_1"><rect fill="#F1F1F1" height="145.7813" rx="2.5" ry="2.5" style="stroke:#181818;stroke-width:0.5;" width="495.6221" x="7" y="234.4869"/><ellipse cx="188.8735" cy="250.4869" fill="#ADD1B2" rx="11" ry="11" style="stroke:#181818;stroke-width:1;"/><path d="M191.8423,256.1275 Q191.2642,256.4244 190.6235,256.565 Q189.9829,256.7213 189.2798,256.7213 Q186.7798,256.7213 185.4517,255.0806 Q184.1392,253.4244 184.1392,250.2994 Q184.1392,247.1744 185.4517,245.5181 Q186.7798,243.8619 189.2798,243.8619 Q189.9829,243.8619 190.6235,244.0181 Q191.2798,244.1744 191.8423,244.4713 L191.8423,247.19 Q191.2173,246.6119 190.6235,246.3463 Q190.0298,246.065 189.4048,246.065 Q188.061,246.065 187.3735,247.1431 Q186.686,248.2056 186.686,250.2994 Q186.686,252.3931 187.3735,253.4713 Q188.061,254.5338 189.4048,254.5338 Q190.0298,254.5338 190.6235,254.2681 Q191.2173,253.9869 191.8423,253.4088 L191.8423,256.1275 Z " fill="#000000"/><text fill="#000000" font-family="sans-serif" font-size="14" lengthAdjust="spacing" textLength="123.375" x="209.3735" y="255.3336">ALC_C552_msg_1</text><line style="stroke:#181818;stroke-width:0.5;" x1="8" x2="501.6221" y1="266.4869" y2="266.4869"/><text fill="#000000" font-family="sans-serif" font-size="14" lengthAdjust="spacing" textLength="161.1982" x="13" y="283.482">Nachricht: INVOIC 2.8d</text><text fill="#000000" font-family="sans-serif" font-size="14" lengthAdjust="spacing" textLength="170.3447" x="13" y="299.7789">Kontext: Segmentlayout</text><text fill="#000000" font-family="sans-serif" font-size="14" lengthAdjust="spacing" textLength="91.4033" x="13" y="316.0757">Pflichtfeld: Ja</text><text fill="#000000" font-family="sans-serif" font-size="14" lengthAdjust="spacing" textLength="411.5713" x="13" y="332.3726">Codes: 19, 30, 35, ALC, NNE, OCR, SG, Z02, Z03, Z04, Z05</text><text fill="#000000" font-family="sans-serif" font-size="14" lengthAdjust="spacing" textLength="483.6221" x="13" y="348.6695">Prozesse: Netznutzungsabrechnung, Messstellenbetriebsabrechnung</text><text fill="#000000" font-family="sans-serif" font-size="14" lengthAdjust="spacing" textLength="396.6074" x="13" y="364.9664">Quelle: INVOIC_MIG_2.8d_Fehlerkorrektur_20250131.pdf</text><line style="stroke:#181818;stroke-width:0.5;" x1="8" x2="501.6221" y1="372.2681" y2="372.2681"/></g><!--class ALC_C552_msg_2--><g class="entity" data-entity="ALC_C552_msg_2" data-source-line="17" data-uid="ent0005" id="entity_ALC_C552_msg_2"><rect fill="#F1F1F1" height="145.7813" rx="2.5" ry="2.5" style="stroke:#181818;stroke-width:0.5;" width="495.6221" x="538" y="234.4869"/><ellipse cx="719.8735" cy="250.4869" fill="#ADD1B2" rx="11" ry="11" style="stroke:#181818;stroke-width:1;"/><path d="M722.8423,256.1275 Q722.2642,256.4244 721.6235,256.565 Q720.9829,256.7213 720.2798,256.7213 Q717.7798,256.7213 716.4517,255.0806 Q715.1392,253.4244 715.1392,250.2994 Q715.1392,247.1744 716.4517,245.5181 Q717.7798,243.8619 720.2798,243.8619 Q720.9829,243.8619 721.6235,244.0181 Q722.2798,244.1744 722.8423,244.4713 L722.8423,247.19 Q722.2173,246.6119 721.6235,246.3463 Q721.0298,246.065 720.4048,246.065 Q719.061,246.065 718.3735,247.1431 Q717.686,248.2056 717.686,250.2994 Q717.686,252.3931 718.3735,253.4713 Q719.061,254.5338 720.4048,254.5338 Q721.0298,254.5338 721.6235,254.2681 Q722.2173,253.9869 722.8423,253.4088 L722.8423,256.1275 Z " fill="#000000"/><text fill="#000000" font-family="sans-serif" font-size="14" lengthAdjust="spacing" textLength="123.375" x="740.3735" y="255.3336">ALC_C552_msg_2</text><line style="stroke:#181818;stroke-width:0.5;" x1="539" x2="1032.6221" y1="266.4869" y2="266.4869"/><text fill="#000000" font-family="sans-serif" font-size="14" lengthAdjust="spacing" textLength="165.6484" x="544" y="283.482">Nachricht: INVOIC 2.8d.</text><text fill="#000000" font-family="sans-serif" font-size="14" lengthAdjust="spacing" textLength="167.8701" x="544" y="299.7789">Kontext: 1 - 07 - 4 - 001</text><text fill="#000000" font-family="sans-serif" font-size="14" lengthAdjust="spacing" textLength="91.4033" x="544" y="316.0757">Pflichtfeld: Ja</text><text fill="#000000" font-family="sans-serif" font-size="14" lengthAdjust="spacing" textLength="382.9355" x="544" y="332.3726">Codes: 19, 30, 35, ALC, NNE, OCR, Z02, Z03, Z04, Z05</text><text fill="#000000" font-family="sans-serif" font-size="14" lengthAdjust="spacing" textLength="483.6221" x="544" y="348.6695">Prozesse: Netznutzungsabrechnung, Messstellenbetriebsabrechnung</text><text fill="#000000" font-family="sans-serif" font-size="14" lengthAdjust="spacing" textLength="290.3359" x="544" y="364.9664">Quelle: INVOIC_MIG_2_8d__20240619.pdf</text><line style="stroke:#181818;stroke-width:0.5;" x1="539" x2="1032.6221" y1="372.2681" y2="372.2681"/></g><!--class ALC_C552_proc_1--><g class="entity" data-entity="ALC_C552_proc_1" data-source-line="26" data-uid="ent0007" id="entity_ALC_C552_proc_1"><rect fill="#F1F1F1" height="105.1563" rx="2.5" ry="2.5" style="stroke:#181818;stroke-width:0.5;" width="752.6465" x="1068.49" y="254.7969"/><ellipse cx="1378.3323" cy="274.9297" fill="#ADD1B2" rx="11" ry="11" style="stroke:#181818;stroke-width:1;"/><path d="M1381.301,280.5703 Q1380.7229,280.8672 1380.0823,281.0078 Q1379.4417,281.1641 1378.7385,281.1641 Q1376.2385,281.1641 1374.9104,279.5234 Q1373.5979,277.8672 1373.5979,274.7422 Q1373.5979,271.6172 1374.9104,269.9609 Q1376.2385,268.3047 1378.7385,268.3047 Q1379.4417,268.3047 1380.0823,268.4609 Q1380.7385,268.6172 1381.301,268.9141 L1381.301,271.6328 Q1380.676,271.0547 1380.0823,270.7891 Q1379.4885,270.5078 1378.8635,270.5078 Q1377.5198,270.5078 1376.8323,271.5859 Q1376.1448,272.6484 1376.1448,274.7422 Q1376.1448,276.8359 1376.8323,277.9141 Q1377.5198,278.9766 1378.8635,278.9766 Q1379.4885,278.9766 1380.0823,278.7109 Q1380.676,278.4297 1381.301,277.8516 L1381.301,280.5703 Z " fill="#000000"/><text fill="#000000" font-family="sans-serif" font-size="12" font-style="italic" lengthAdjust="spacing" textLength="61.0605" x="1430.533" y="270.9355">&#171;process&#187;</text><text fill="#000000" font-family="sans-serif" font-size="14" lengthAdjust="spacing" textLength="124.4619" x="1398.8323" y="286.7607">ALC_C552_proc_1</text><line style="stroke:#181818;stroke-width:0.5;" x1="1069.49" x2="1820.1365" y1="295.0625" y2="295.0625"/><text fill="#000000" font-family="sans-serif" font-size="14" lengthAdjust="spacing" textLength="180.3457" x="1074.49" y="312.0576">Netznutzungsabrechnung</text><text fill="#000000" font-family="sans-serif" font-size="14" lengthAdjust="spacing" textLength="218.0938" x="1074.49" y="328.3545">Gesetze: StromNEV, StromNZV</text><text fill="#000000" font-family="sans-serif" font-size="14" lengthAdjust="spacing" textLength="740.6465" x="1074.49" y="344.6514">Zusammenfassung: Wie funktioniert die Netznutzungsabrechnung zwischen Netzbetreiber und Lieferant?</text><line style="stroke:#181818;stroke-width:0.5;" x1="1069.49" x2="1820.1365" y1="351.9531" y2="351.9531"/></g><!--class ALC_C552_proc_2--><g class="entity" data-entity="ALC_C552_proc_2" data-source-line="32" data-uid="ent0009" id="entity_ALC_C552_proc_2"><rect fill="#F1F1F1" height="105.1563" rx="2.5" ry="2.5" style="stroke:#181818;stroke-width:0.5;" width="690.2275" x="1855.7" y="254.7969"/><ellipse cx="2134.3328" cy="274.9297" fill="#ADD1B2" rx="11" ry="11" style="stroke:#181818;stroke-width:1;"/><path d="M2137.3016,280.5703 Q2136.7234,280.8672 2136.0828,281.0078 Q2135.4422,281.1641 2134.7391,281.1641 Q2132.2391,281.1641 2130.9109,279.5234 Q2129.5984,277.8672 2129.5984,274.7422 Q2129.5984,271.6172 2130.9109,269.9609 Q2132.2391,268.3047 2134.7391,268.3047 Q2135.4422,268.3047 2136.0828,268.4609 Q2136.7391,268.6172 2137.3016,268.9141 L2137.3016,271.6328 Q2136.6766,271.0547 2136.0828,270.7891 Q2135.4891,270.5078 2134.8641,270.5078 Q2133.5203,270.5078 2132.8328,271.5859 Q2132.1453,272.6484 2132.1453,274.7422 Q2132.1453,276.8359 2132.8328,277.9141 Q2133.5203,278.9766 2134.8641,278.9766 Q2135.4891,278.9766 2136.0828,278.7109 Q2136.6766,278.4297 2137.3016,277.8516 L2137.3016,280.5703 Z " fill="#000000"/><text fill="#000000" font-family="sans-serif" font-size="12" font-style="italic" lengthAdjust="spacing" textLength="61.0605" x="2186.5335" y="270.9355">&#171;process&#187;</text><text fill="#000000" font-family="sans-serif" font-size="14" lengthAdjust="spacing" textLength="124.4619" x="2154.8328" y="286.7607">ALC_C552_proc_2</text><line style="stroke:#181818;stroke-width:0.5;" x1="1856.7" x2="2544.9275" y1="295.0625" y2="295.0625"/><text fill="#000000" font-family="sans-serif" font-size="14" lengthAdjust="spacing" textLength="223.2822" x="1861.7" y="312.0576">Messstellenbetriebsabrechnung</text><text fill="#000000" font-family="sans-serif" font-size="14" lengthAdjust="spacing" textLength="105.0957" x="1861.7" y="328.3545">Gesetze: MsbG</text><text fill="#000000" font-family="sans-serif" font-size="14" lengthAdjust="spacing" textLength="678.2275" x="1861.7" y="344.6514">Zusammenfassung: Beschreibe den Prozess der Abrechnung von Messstellenbetriebsleistungen.</text><line style="stroke:#181818;stroke-width:0.5;" x1="1856.7" x2="2544.9275" y1="351.9531" y2="351.9531"/></g><!--link ALC_C552 to ALC_C552_msg_1--><g class="link" data-entity-1="ALC_C552" data-entity-2="ALC_C552_msg_1" data-source-line="16" data-uid="lnk4" id="link_ALC_C552_ALC_C552_msg_1"><path codeLine="16" d="M986.1,128.8969 C865.52,154.6069 680.47,195.1169 520.81,234.4869 C514.89,235.9469 514.7186,235.9726 508.6786,237.4926" fill="none" id="ALC_C552-to-ALC_C552_msg_1" style="stroke:#181818;stroke-width:1;"/><polygon fill="#181818" points="502.86,238.9569,512.5641,240.6395,507.7088,237.7366,510.6117,232.8814,502.86,238.9569" style="stroke:#181818;stroke-width:1;"/><text fill="#000000" font-family="sans-serif" font-size="13" lengthAdjust="spacing" textLength="85.2363" x="717.81" y="200.5538">verwendet in</text></g><!--link ALC_C552 to ALC_C552_msg_2--><g class="link" data-entity-1="ALC_C552" data-entity-2="ALC_C552_msg_2" data-source-line="25" data-uid="lnk6" id="link_ALC_C552_ALC_C552_msg_2"><path codeLine="25" d="M1024.91,157.7669 C987.05,181.2969 947.5959,205.8196 907.2759,230.8796" fill="none" id="ALC_C552-to-ALC_C552_msg_2" style="stroke:#181818;stroke-width:1;"/><polygon fill="#181818" points="902.18,234.0469,911.9354,232.6933,906.4266,231.4075,907.7124,225.8987,902.18,234.0469" style="stroke:#181818;stroke-width:1;"/><text fill="#000000" font-family="sans-serif" font-size="13" lengthAdjust="spacing" textLength="85.2363" x="971.81" y="200.5538">verwendet in</text></g><!--link ALC_C552 to ALC_C552_proc_1--><g class="link" data-entity-1="ALC_C552" data-entity-2="ALC_C552_proc_1" data-source-line="31" data-uid="lnk8" id="link_ALC_C552_ALC_C552_proc_1"><path codeLine="31" d="M1204.98,157.7669 C1253.65,187.9169 1308.2295,221.747 1355.8795,251.267" fill="none" id="ALC_C552-to-ALC_C552_proc_1" style="stroke:#181818;stroke-width:1;stroke-dasharray:7,7;"/><polygon fill="#181818" points="1360.98,254.4269,1355.4358,246.2867,1356.7296,251.7937,1351.2226,253.0874,1360.98,254.4269" style="stroke:#181818;stroke-width:1;"/><text fill="#000000" font-family="sans-serif" font-size="13" lengthAdjust="spacing" textLength="91.6221" x="1280.81" y="200.5538">eingebettet in</text></g><!--link ALC_C552 to ALC_C552_proc_2--><g class="link" data-entity-1="ALC_C552" data-entity-2="ALC_C552_proc_2" data-source-line="37" data-uid="lnk10" id="link_ALC_C552_ALC_C552_proc_2"><path codeLine="37" d="M1243.41,124.8469 C1388.25,150.8369 1630.61,194.7469 1838.81,234.4869 C1872.01,240.8269 1901.0125,246.4406 1935.4825,253.2106" fill="none" id="ALC_C552-to-ALC_C552_proc_2" style="stroke:#181818;stroke-width:1;stroke-dasharray:7,7;"/><polygon fill="#181818" points="1941.37,254.3669,1933.3096,248.7074,1936.4637,253.4033,1931.7678,256.5574,1941.37,254.3669" style="stroke:#181818;stroke-width:1;"/><text fill="#000000" font-family="sans-serif" font-size="13" lengthAdjust="spacing" textLength="91.6221" x="1661.81" y="200.5538">eingebettet in</text></g><!--SRC=[lPDHRzCm4CVVzodk0wGXSHjWqLHKmgWAQyQeLAI-H4voIQmczcGx6nJntJblPLHhkqeyy93JsNUn_x-_RIjiY_21MvJSjjp002PNIPn44JihQ6pSC7D3-7a6aF8EOrZrWrUJt1HDosiZPALqnwrGaXg-QBL1Op2c76Yn5Er6zdRJozhmN6FHI4gtnJbr6ejjYp97gmNckps_dWd8EbDduLP6qMXHD3Q6MRgydYN0_BSb5JuhQV4xJI-mxb0IqG_LMwUhQbr_XMqPmoTECuagqSGGddim3EYBFBUJ1sbwwS5ryjM3nTI3LS1S6BemSY7QXJo2vvqW0xZfNUsF-cm-csQE8Fk8JOjwhRJ6jUrrnW8M1U4mz6_BYWnvEel1OFpSbnZkKD-ZBD62a8UyOozuv- -Q5zBP16yeZ5mIXF_ett_qBYFld5cZu7LuVj8iTiAiMwqASlJYmYMaPZn-TExONPwYeH99MbYjklHowMsprPAggzxmZYvZHNjGVmpV14BLoxLxCWArXP8c3YyEctj1xmpbGztPWI973RqiuKfWXPfB-suNrlV7Uo0ne90rqk_sE2_Ruprr44_OSvDF3u6-HzB-e1XAGjWUFUKQ9dyHxvGyj5MBmbYge_HVvcDxVBy1]--></g></svg>