<svg xmlns="http://www.w3.org/2000/svg" xmlns:xlink="http://www.w3.org/1999/xlink" contentStyleType="text/css" data-diagram-type="CLASS" height="387px" preserveAspectRatio="none" style="width:2021px;height:387px;background:#FFFFFF;" version="1.1" viewBox="0 0 2021 387" width="2021px" zoomAndPan="magnify"><title>Datenatlas - ALC:1800</title><defs/><g><g class="title" data-source-line="1"><text fill="#000000" font-family="sans-serif" font-size="14" font-weight="bold" lengthAdjust="spacing" textLength="176.0938" x="915.9169" y="22.9951">Datenatlas - ALC:1800</text></g><!--class ALC_1800--><g class="entity" data-entity="ALC_1800" data-source-line="2" data-uid="ent0002" id="entity_ALC_1800"><rect fill="#F1F1F1" height="113.1875" rx="2.5" ry="2.5" style="stroke:#181818;stroke-width:0.5;" width="286.6475" x="770.49" y="44.2969"/><ellipse cx="874.6731" cy="60.2969" fill="#ADD1B2" rx="11" ry="11" style="stroke:#181818;stroke-width:1;"/><path d="M877.6419,65.9375 Q877.0637,66.2344 876.4231,66.375 Q875.7825,66.5313 875.0794,66.5313 Q872.5794,66.5313 871.2512,64.8906 Q869.9387,63.2344 869.9387,60.1094 Q869.9387,56.9844 871.2512,55.3281 Q872.5794,53.6719 875.0794,53.6719 Q875.7825,53.6719 876.4231,53.8281 Q877.0794,53.9844 877.6419,54.2813 L877.6419,57 Q877.0169,56.4219 876.4231,56.1563 Q875.8294,55.875 875.2044,55.875 Q873.8606,55.875 873.1731,56.9531 Q872.4856,58.0156 872.4856,60.1094 Q872.4856,62.2031 873.1731,63.2813 Q873.8606,64.3438 875.2044,64.3438 Q875.8294,64.3438 876.4231,64.0781 Q877.0169,63.7969 877.6419,63.2188 L877.6419,65.9375 Z " fill="#000000"/><text fill="#000000" font-family="sans-serif" font-size="14" lengthAdjust="spacing" textLength="69.7813" x="895.1731" y="65.1436">ALC_1800</text><line style="stroke:#181818;stroke-width:0.5;" x1="771.49" x2="1056.1375" y1="76.2969" y2="76.2969"/><text fill="#000000" font-family="sans-serif" font-size="14" lengthAdjust="spacing" textLength="260.6475" x="790.49" y="93.292">Name: Prozentangabe des Abschlags</text><text fill="#000000" font-family="sans-serif" font-size="14" lengthAdjust="spacing" textLength="66.6436" x="790.49" y="109.5889">Prozesse:</text><rect fill="none" height="6" style="stroke:#C82930;stroke-width:1;" width="6" x="778.49" y="119.5391"/><text fill="#000000" font-family="sans-serif" font-size="14" lengthAdjust="spacing" textLength="180.3457" x="790.49" y="125.8857">Netznutzungsabrechnung</text><rect fill="none" height="6" style="stroke:#C82930;stroke-width:1;" width="6" x="778.49" y="135.8359"/><text fill="#000000" font-family="sans-serif" font-size="14" lengthAdjust="spacing" textLength="223.2822" x="790.49" y="142.1826">Messstellenbetriebsabrechnung</text><line style="stroke:#181818;stroke-width:0.5;" x1="771.49" x2="1056.1375" y1="149.4844" y2="149.4844"/></g><!--class ALC_1800_msg_1--><g class="entity" data-entity="ALC_1800_msg_1" data-source-line="8" data-uid="ent0003" id="entity_ALC_1800_msg_1"><rect fill="#F1F1F1" height="145.7813" rx="2.5" ry="2.5" style="stroke:#181818;stroke-width:0.5;" width="495.6221" x="7" y="234.4869"/><ellipse cx="189.3076" cy="250.4869" fill="#ADD1B2" rx="11" ry="11" style="stroke:#181818;stroke-width:1;"/><path d="M192.2764,256.1275 Q191.6982,256.4244 191.0576,256.565 Q190.417,256.7213 189.7139,256.7213 Q187.2139,256.7213 185.8857,255.0806 Q184.5732,253.4244 184.5732,250.2994 Q184.5732,247.1744 185.8857,245.5181 Q187.2139,243.8619 189.7139,243.8619 Q190.417,243.8619 191.0576,244.0181 Q191.7139,244.1744 192.2764,244.4713 L192.2764,247.19 Q191.6514,246.6119 191.0576,246.3463 Q190.4639,246.065 189.8389,246.065 Q188.4951,246.065 187.8076,247.1431 Q187.1201,248.2056 187.1201,250.2994 Q187.1201,252.3931 187.8076,253.4713 Q188.4951,254.5338 189.8389,254.5338 Q190.4639,254.5338 191.0576,254.2681 Q191.6514,253.9869 192.2764,253.4088 L192.2764,256.1275 Z " fill="#000000"/><text fill="#000000" font-family="sans-serif" font-size="14" lengthAdjust="spacing" textLength="122.5068" x="209.8076" y="255.3336">ALC_1800_msg_1</text><line style="stroke:#181818;stroke-width:0.5;" x1="8" x2="501.6221" y1="266.4869" y2="266.4869"/><text fill="#000000" font-family="sans-serif" font-size="14" lengthAdjust="spacing" textLength="161.1982" x="13" y="283.482">Nachricht: INVOIC 2.8d</text><text fill="#000000" font-family="sans-serif" font-size="14" lengthAdjust="spacing" textLength="204.1143" x="13" y="299.7789">Kontext: Nachrichtenstruktur</text><text fill="#000000" font-family="sans-serif" font-size="14" lengthAdjust="spacing" textLength="91.4033" x="13" y="316.0757">Pflichtfeld: Ja</text><text fill="#000000" font-family="sans-serif" font-size="14" lengthAdjust="spacing" textLength="79.4541" x="13" y="332.3726">Codes: ALC</text><text fill="#000000" font-family="sans-serif" font-size="14" lengthAdjust="spacing" textLength="483.6221" x="13" y="348.6695">Prozesse: Netznutzungsabrechnung, Messstellenbetriebsabrechnung</text><text fill="#000000" font-family="sans-serif" font-size="14" lengthAdjust="spacing" textLength="396.6074" x="13" y="364.9664">Quelle: INVOIC_MIG_2.8d_Fehlerkorrektur_20250131.pdf</text><line style="stroke:#181818;stroke-width:0.5;" x1="8" x2="501.6221" y1="372.2681" y2="372.2681"/></g><!--class ALC_1800_proc_1--><g class="entity" data-entity="ALC_1800_proc_1" data-source-line="17" data-uid="ent0005" id="entity_ALC_1800_proc_1"><rect fill="#F1F1F1" height="105.1563" rx="2.5" ry="2.5" style="stroke:#181818;stroke-width:0.5;" width="752.6465" x="537.49" y="254.7969"/><ellipse cx="847.7664" cy="274.9297" fill="#ADD1B2" rx="11" ry="11" style="stroke:#181818;stroke-width:1;"/><path d="M850.7351,280.5703 Q850.157,280.8672 849.5164,281.0078 Q848.8757,281.1641 848.1726,281.1641 Q845.6726,281.1641 844.3445,279.5234 Q843.032,277.8672 843.032,274.7422 Q843.032,271.6172 844.3445,269.9609 Q845.6726,268.3047 848.1726,268.3047 Q848.8757,268.3047 849.5164,268.4609 Q850.1726,268.6172 850.7351,268.9141 L850.7351,271.6328 Q850.1101,271.0547 849.5164,270.7891 Q848.9226,270.5078 848.2976,270.5078 Q846.9539,270.5078 846.2664,271.5859 Q845.5789,272.6484 845.5789,274.7422 Q845.5789,276.8359 846.2664,277.9141 Q846.9539,278.9766 848.2976,278.9766 Q848.9226,278.9766 849.5164,278.7109 Q850.1101,278.4297 850.7351,277.8516 L850.7351,280.5703 Z " fill="#000000"/><text fill="#000000" font-family="sans-serif" font-size="12" font-style="italic" lengthAdjust="spacing" textLength="61.0605" x="899.533" y="270.9355">&#171;process&#187;</text><text fill="#000000" font-family="sans-serif" font-size="14" lengthAdjust="spacing" textLength="123.5938" x="868.2664" y="286.7607">ALC_1800_proc_1</text><line style="stroke:#181818;stroke-width:0.5;" x1="538.49" x2="1289.1365" y1="295.0625" y2="295.0625"/><text fill="#000000" font-family="sans-serif" font-size="14" lengthAdjust="spacing" textLength="180.3457" x="543.49" y="312.0576">Netznutzungsabrechnung</text><text fill="#000000" font-family="sans-serif" font-size="14" lengthAdjust="spacing" textLength="218.0938" x="543.49" y="328.3545">Gesetze: StromNEV, StromNZV</text><text fill="#000000" font-family="sans-serif" font-size="14" lengthAdjust="spacing" textLength="740.6465" x="543.49" y="344.6514">Zusammenfassung: Wie funktioniert die Netznutzungsabrechnung zwischen Netzbetreiber und Lieferant?</text><line style="stroke:#181818;stroke-width:0.5;" x1="538.49" x2="1289.1365" y1="351.9531" y2="351.9531"/></g><!--class ALC_1800_proc_2--><g class="entity" data-entity="ALC_1800_proc_2" data-source-line="23" data-uid="ent0007" id="entity_ALC_1800_proc_2"><rect fill="#F1F1F1" height="105.1563" rx="2.5" ry="2.5" style="stroke:#181818;stroke-width:0.5;" width="690.2275" x="1324.7" y="254.7969"/><ellipse cx="1603.7669" cy="274.9297" fill="#ADD1B2" rx="11" ry="11" style="stroke:#181818;stroke-width:1;"/><path d="M1606.7356,280.5703 Q1606.1575,280.8672 1605.5169,281.0078 Q1604.8763,281.1641 1604.1731,281.1641 Q1601.6731,281.1641 1600.345,279.5234 Q1599.0325,277.8672 1599.0325,274.7422 Q1599.0325,271.6172 1600.345,269.9609 Q1601.6731,268.3047 1604.1731,268.3047 Q1604.8763,268.3047 1605.5169,268.4609 Q1606.1731,268.6172 1606.7356,268.9141 L1606.7356,271.6328 Q1606.1106,271.0547 1605.5169,270.7891 Q1604.9231,270.5078 1604.2981,270.5078 Q1602.9544,270.5078 1602.2669,271.5859 Q1601.5794,272.6484 1601.5794,274.7422 Q1601.5794,276.8359 1602.2669,277.9141 Q1602.9544,278.9766 1604.2981,278.9766 Q1604.9231,278.9766 1605.5169,278.7109 Q1606.1106,278.4297 1606.7356,277.8516 L1606.7356,280.5703 Z " fill="#000000"/><text fill="#000000" font-family="sans-serif" font-size="12" font-style="italic" lengthAdjust="spacing" textLength="61.0605" x="1655.5335" y="270.9355">&#171;process&#187;</text><text fill="#000000" font-family="sans-serif" font-size="14" lengthAdjust="spacing" textLength="123.5938" x="1624.2669" y="286.7607">ALC_1800_proc_2</text><line style="stroke:#181818;stroke-width:0.5;" x1="1325.7" x2="2013.9275" y1="295.0625" y2="295.0625"/><text fill="#000000" font-family="sans-serif" font-size="14" lengthAdjust="spacing" textLength="223.2822" x="1330.7" y="312.0576">Messstellenbetriebsabrechnung</text><text fill="#000000" font-family="sans-serif" font-size="14" lengthAdjust="spacing" textLength="105.0957" x="1330.7" y="328.3545">Gesetze: MsbG</text><text fill="#000000" font-family="sans-serif" font-size="14" lengthAdjust="spacing" textLength="678.2275" x="1330.7" y="344.6514">Zusammenfassung: Beschreibe den Prozess der Abrechnung von Messstellenbetriebsleistungen.</text><line style="stroke:#181818;stroke-width:0.5;" x1="1325.7" x2="2013.9275" y1="351.9531" y2="351.9531"/></g><!--link ALC_1800 to ALC_1800_msg_1--><g class="link" data-entity-1="ALC_1800" data-entity-2="ALC_1800_msg_1" data-source-line="16" data-uid="lnk4" id="link_ALC_1800_ALC_1800_msg_1"><path codeLine="16" d="M770.01,146.5169 C687.54,172.1069 587.7604,203.0586 493.7304,232.2386" fill="none" id="ALC_1800-to-ALC_1800_msg_1" style="stroke:#181818;stroke-width:1;"/><polygon fill="#181818" points="488,234.0169,497.7812,235.1697,492.7753,232.535,495.4101,227.5291,488,234.0169" style="stroke:#181818;stroke-width:1;"/><text fill="#000000" font-family="sans-serif" font-size="13" lengthAdjust="spacing" textLength="85.2363" x="624.81" y="200.5538">verwendet in</text></g><!--link ALC_1800 to ALC_1800_proc_1--><g class="link" data-entity-1="ALC_1800" data-entity-2="ALC_1800_proc_1" data-source-line="22" data-uid="lnk6" id="link_ALC_1800_ALC_1800_proc_1"><path codeLine="22" d="M913.81,157.7669 C913.81,187.9169 913.81,218.9069 913.81,248.4269" fill="none" id="ALC_1800-to-ALC_1800_proc_1" style="stroke:#181818;stroke-width:1;stroke-dasharray:7,7;"/><polygon fill="#181818" points="913.81,254.4269,917.81,245.4269,913.81,249.4269,909.81,245.4269,913.81,254.4269" style="stroke:#181818;stroke-width:1;"/><text fill="#000000" font-family="sans-serif" font-size="13" lengthAdjust="spacing" textLength="91.6221" x="914.81" y="200.5538">eingebettet in</text></g><!--link ALC_1800 to ALC_1800_proc_2--><g class="link" data-entity-1="ALC_1800" data-entity-2="ALC_1800_proc_2" data-source-line="28" data-uid="lnk8" id="link_ALC_1800_ALC_1800_proc_2"><path codeLine="28" d="M1057.34,140.7169 C1176.39,172.9169 1340.9382,217.4202 1471.7682,252.8102" fill="none" id="ALC_1800-to-ALC_1800_proc_2" style="stroke:#181818;stroke-width:1;stroke-dasharray:7,7;"/><polygon fill="#181818" points="1477.56,254.3769,1469.9167,248.1656,1472.7335,253.0713,1467.8278,255.888,1477.56,254.3769" style="stroke:#181818;stroke-width:1;"/><text fill="#000000" font-family="sans-serif" font-size="13" lengthAdjust="spacing" textLength="91.6221" x="1292.81" y="200.5538">eingebettet in</text></g><!--SRC=[XPBTQjj048NlynJp0B6mLGf119VKROsJs6q9k90RiPAEfCNIAEoEakBIT- -iunZZd-PkTixHxdT68rOQq1SZO2EDyJIWc_j9CheQ3YzoFVjmJCEH_bmGBKoBX7wuRWqMmvN9G0NKbFcyRapbrRDHlKUYDUbz2yYQUrdtN7cJEUGrQxaLv-hqWgO1Pn1daUrx_XumfAslqj6M9A-TpMj9QBPOVfzDA8wk2XNkEXRyrlRE0VRY-fNqBj2LJUYLQ8g4Rers9fqcIC8R-_1di2_V8IRwsGVjZIgTpwPf84k_eMxWLfrp22XfF8m_3aSVHj5JKMhGtPW7W_5XteIUuLx01OGi7yxaoNMvcgwlGw5mu_7hWCwDVGglaX8-YElQnTVbvRPwNAhws7lJjk1Itr1_GhyigEnv9RPZ2oTKQEFqvRH-iRe7u8qUfWERmL7F1TrRb726vTD-s2WQ7mL929OhwEToFczybFUz_xABFVVPz5JGpr3s3R6kDBzjWjPErtiNyRdZKqyri5vK1qV_pnSVvVi7]--></g></svg>