<svg xmlns="http://www.w3.org/2000/svg" xmlns:xlink="http://www.w3.org/1999/xlink" contentStyleType="text/css" data-diagram-type="CLASS" height="387px" preserveAspectRatio="none" style="width:2552px;height:387px;background:#FFFFFF;" version="1.1" viewBox="0 0 2552 387" width="2552px" zoomAndPan="magnify"><title>Datenatlas - ALC:5463</title><defs/><g><g class="title" data-source-line="1"><text fill="#000000" font-family="sans-serif" font-size="14" font-weight="bold" lengthAdjust="spacing" textLength="176.0938" x="1181.4169" y="22.9951">Datenatlas - ALC:5463</text></g><!--class ALC_5463--><g class="entity" data-entity="ALC_5463" data-source-line="2" data-uid="ent0002" id="entity_ALC_5463"><rect fill="#F1F1F1" height="113.1875" rx="2.5" ry="2.5" style="stroke:#181818;stroke-width:0.5;" width="272.7295" x="978.45" y="44.2969"/><ellipse cx="1075.6741" cy="60.2969" fill="#ADD1B2" rx="11" ry="11" style="stroke:#181818;stroke-width:1;"/><path d="M1078.6429,65.9375 Q1078.0647,66.2344 1077.4241,66.375 Q1076.7835,66.5313 1076.0804,66.5313 Q1073.5804,66.5313 1072.2522,64.8906 Q1070.9397,63.2344 1070.9397,60.1094 Q1070.9397,56.9844 1072.2522,55.3281 Q1073.5804,53.6719 1076.0804,53.6719 Q1076.7835,53.6719 1077.4241,53.8281 Q1078.0804,53.9844 1078.6429,54.2813 L1078.6429,57 Q1078.0179,56.4219 1077.4241,56.1563 Q1076.8304,55.875 1076.2054,55.875 Q1074.8616,55.875 1074.1741,56.9531 Q1073.4866,58.0156 1073.4866,60.1094 Q1073.4866,62.2031 1074.1741,63.2813 Q1074.8616,64.3438 1076.2054,64.3438 Q1076.8304,64.3438 1077.4241,64.0781 Q1078.0179,63.7969 1078.6429,63.2188 L1078.6429,65.9375 Z " fill="#000000"/><text fill="#000000" font-family="sans-serif" font-size="14" lengthAdjust="spacing" textLength="69.7813" x="1096.1741" y="65.1436">ALC_5463</text><line style="stroke:#181818;stroke-width:0.5;" x1="979.45" x2="1250.1795" y1="76.2969" y2="76.2969"/><text fill="#000000" font-family="sans-serif" font-size="14" lengthAdjust="spacing" textLength="246.7295" x="998.45" y="93.292">Name: Zu- oder Abschlag, Qualifier</text><text fill="#000000" font-family="sans-serif" font-size="14" lengthAdjust="spacing" textLength="66.6436" x="998.45" y="109.5889">Prozesse:</text><rect fill="none" height="6" style="stroke:#C82930;stroke-width:1;" width="6" x="986.45" y="119.5391"/><text fill="#000000" font-family="sans-serif" font-size="14" lengthAdjust="spacing" textLength="180.3457" x="998.45" y="125.8857">Netznutzungsabrechnung</text><rect fill="none" height="6" style="stroke:#C82930;stroke-width:1;" width="6" x="986.45" y="135.8359"/><text fill="#000000" font-family="sans-serif" font-size="14" lengthAdjust="spacing" textLength="223.2822" x="998.45" y="142.1826">Messstellenbetriebsabrechnung</text><line style="stroke:#181818;stroke-width:0.5;" x1="979.45" x2="1250.1795" y1="149.4844" y2="149.4844"/></g><!--class ALC_5463_msg_1--><g class="entity" data-entity="ALC_5463_msg_1" data-source-line="8" data-uid="ent0003" id="entity_ALC_5463_msg_1"><rect fill="#F1F1F1" height="145.7813" rx="2.5" ry="2.5" style="stroke:#181818;stroke-width:0.5;" width="495.6221" x="7" y="234.4869"/><ellipse cx="189.3076" cy="250.4869" fill="#ADD1B2" rx="11" ry="11" style="stroke:#181818;stroke-width:1;"/><path d="M192.2764,256.1275 Q191.6982,256.4244 191.0576,256.565 Q190.417,256.7213 189.7139,256.7213 Q187.2139,256.7213 185.8857,255.0806 Q184.5732,253.4244 184.5732,250.2994 Q184.5732,247.1744 185.8857,245.5181 Q187.2139,243.8619 189.7139,243.8619 Q190.417,243.8619 191.0576,244.0181 Q191.7139,244.1744 192.2764,244.4713 L192.2764,247.19 Q191.6514,246.6119 191.0576,246.3463 Q190.4639,246.065 189.8389,246.065 Q188.4951,246.065 187.8076,247.1431 Q187.1201,248.2056 187.1201,250.2994 Q187.1201,252.3931 187.8076,253.4713 Q188.4951,254.5338 189.8389,254.5338 Q190.4639,254.5338 191.0576,254.2681 Q191.6514,253.9869 192.2764,253.4088 L192.2764,256.1275 Z " fill="#000000"/><text fill="#000000" font-family="sans-serif" font-size="14" lengthAdjust="spacing" textLength="122.5068" x="209.8076" y="255.3336">ALC_5463_msg_1</text><line style="stroke:#181818;stroke-width:0.5;" x1="8" x2="501.6221" y1="266.4869" y2="266.4869"/><text fill="#000000" font-family="sans-serif" font-size="14" lengthAdjust="spacing" textLength="161.1982" x="13" y="283.482">Nachricht: INVOIC 2.8d</text><text fill="#000000" font-family="sans-serif" font-size="14" lengthAdjust="spacing" textLength="170.3447" x="13" y="299.7789">Kontext: Segmentlayout</text><text fill="#000000" font-family="sans-serif" font-size="14" lengthAdjust="spacing" textLength="91.4033" x="13" y="316.0757">Pflichtfeld: Ja</text><text fill="#000000" font-family="sans-serif" font-size="14" lengthAdjust="spacing" textLength="411.5713" x="13" y="332.3726">Codes: 19, 30, 35, ALC, NNE, OCR, SG, Z02, Z03, Z04, Z05</text><text fill="#000000" font-family="sans-serif" font-size="14" lengthAdjust="spacing" textLength="483.6221" x="13" y="348.6695">Prozesse: Netznutzungsabrechnung, Messstellenbetriebsabrechnung</text><text fill="#000000" font-family="sans-serif" font-size="14" lengthAdjust="spacing" textLength="396.6074" x="13" y="364.9664">Quelle: INVOIC_MIG_2.8d_Fehlerkorrektur_20250131.pdf</text><line style="stroke:#181818;stroke-width:0.5;" x1="8" x2="501.6221" y1="372.2681" y2="372.2681"/></g><!--class ALC_5463_msg_2--><g class="entity" data-entity="ALC_5463_msg_2" data-source-line="17" data-uid="ent0005" id="entity_ALC_5463_msg_2"><rect fill="#F1F1F1" height="145.7813" rx="2.5" ry="2.5" style="stroke:#181818;stroke-width:0.5;" width="495.6221" x="538" y="234.4869"/><ellipse cx="720.3076" cy="250.4869" fill="#ADD1B2" rx="11" ry="11" style="stroke:#181818;stroke-width:1;"/><path d="M723.2764,256.1275 Q722.6982,256.4244 722.0576,256.565 Q721.417,256.7213 720.7139,256.7213 Q718.2139,256.7213 716.8857,255.0806 Q715.5732,253.4244 715.5732,250.2994 Q715.5732,247.1744 716.8857,245.5181 Q718.2139,243.8619 720.7139,243.8619 Q721.417,243.8619 722.0576,244.0181 Q722.7139,244.1744 723.2764,244.4713 L723.2764,247.19 Q722.6514,246.6119 722.0576,246.3463 Q721.4639,246.065 720.8389,246.065 Q719.4951,246.065 718.8076,247.1431 Q718.1201,248.2056 718.1201,250.2994 Q718.1201,252.3931 718.8076,253.4713 Q719.4951,254.5338 720.8389,254.5338 Q721.4639,254.5338 722.0576,254.2681 Q722.6514,253.9869 723.2764,253.4088 L723.2764,256.1275 Z " fill="#000000"/><text fill="#000000" font-family="sans-serif" font-size="14" lengthAdjust="spacing" textLength="122.5068" x="740.8076" y="255.3336">ALC_5463_msg_2</text><line style="stroke:#181818;stroke-width:0.5;" x1="539" x2="1032.6221" y1="266.4869" y2="266.4869"/><text fill="#000000" font-family="sans-serif" font-size="14" lengthAdjust="spacing" textLength="165.6484" x="544" y="283.482">Nachricht: INVOIC 2.8d.</text><text fill="#000000" font-family="sans-serif" font-size="14" lengthAdjust="spacing" textLength="167.8701" x="544" y="299.7789">Kontext: 1 - 07 - 4 - 001</text><text fill="#000000" font-family="sans-serif" font-size="14" lengthAdjust="spacing" textLength="91.4033" x="544" y="316.0757">Pflichtfeld: Ja</text><text fill="#000000" font-family="sans-serif" font-size="14" lengthAdjust="spacing" textLength="382.9355" x="544" y="332.3726">Codes: 19, 30, 35, ALC, NNE, OCR, Z02, Z03, Z04, Z05</text><text fill="#000000" font-family="sans-serif" font-size="14" lengthAdjust="spacing" textLength="483.6221" x="544" y="348.6695">Prozesse: Netznutzungsabrechnung, Messstellenbetriebsabrechnung</text><text fill="#000000" font-family="sans-serif" font-size="14" lengthAdjust="spacing" textLength="290.3359" x="544" y="364.9664">Quelle: INVOIC_MIG_2_8d__20240619.pdf</text><line style="stroke:#181818;stroke-width:0.5;" x1="539" x2="1032.6221" y1="372.2681" y2="372.2681"/></g><!--class ALC_5463_proc_1--><g class="entity" data-entity="ALC_5463_proc_1" data-source-line="26" data-uid="ent0007" id="entity_ALC_5463_proc_1"><rect fill="#F1F1F1" height="105.1563" rx="2.5" ry="2.5" style="stroke:#181818;stroke-width:0.5;" width="752.6465" x="1068.49" y="254.7969"/><ellipse cx="1378.7664" cy="274.9297" fill="#ADD1B2" rx="11" ry="11" style="stroke:#181818;stroke-width:1;"/><path d="M1381.7351,280.5703 Q1381.157,280.8672 1380.5164,281.0078 Q1379.8757,281.1641 1379.1726,281.1641 Q1376.6726,281.1641 1375.3445,279.5234 Q1374.032,277.8672 1374.032,274.7422 Q1374.032,271.6172 1375.3445,269.9609 Q1376.6726,268.3047 1379.1726,268.3047 Q1379.8757,268.3047 1380.5164,268.4609 Q1381.1726,268.6172 1381.7351,268.9141 L1381.7351,271.6328 Q1381.1101,271.0547 1380.5164,270.7891 Q1379.9226,270.5078 1379.2976,270.5078 Q1377.9539,270.5078 1377.2664,271.5859 Q1376.5789,272.6484 1376.5789,274.7422 Q1376.5789,276.8359 1377.2664,277.9141 Q1377.9539,278.9766 1379.2976,278.9766 Q1379.9226,278.9766 1380.5164,278.7109 Q1381.1101,278.4297 1381.7351,277.8516 L1381.7351,280.5703 Z " fill="#000000"/><text fill="#000000" font-family="sans-serif" font-size="12" font-style="italic" lengthAdjust="spacing" textLength="61.0605" x="1430.533" y="270.9355">&#171;process&#187;</text><text fill="#000000" font-family="sans-serif" font-size="14" lengthAdjust="spacing" textLength="123.5938" x="1399.2664" y="286.7607">ALC_5463_proc_1</text><line style="stroke:#181818;stroke-width:0.5;" x1="1069.49" x2="1820.1365" y1="295.0625" y2="295.0625"/><text fill="#000000" font-family="sans-serif" font-size="14" lengthAdjust="spacing" textLength="180.3457" x="1074.49" y="312.0576">Netznutzungsabrechnung</text><text fill="#000000" font-family="sans-serif" font-size="14" lengthAdjust="spacing" textLength="218.0938" x="1074.49" y="328.3545">Gesetze: StromNEV, StromNZV</text><text fill="#000000" font-family="sans-serif" font-size="14" lengthAdjust="spacing" textLength="740.6465" x="1074.49" y="344.6514">Zusammenfassung: Wie funktioniert die Netznutzungsabrechnung zwischen Netzbetreiber und Lieferant?</text><line style="stroke:#181818;stroke-width:0.5;" x1="1069.49" x2="1820.1365" y1="351.9531" y2="351.9531"/></g><!--class ALC_5463_proc_2--><g class="entity" data-entity="ALC_5463_proc_2" data-source-line="32" data-uid="ent0009" id="entity_ALC_5463_proc_2"><rect fill="#F1F1F1" height="105.1563" rx="2.5" ry="2.5" style="stroke:#181818;stroke-width:0.5;" width="690.2275" x="1855.7" y="254.7969"/><ellipse cx="2134.7669" cy="274.9297" fill="#ADD1B2" rx="11" ry="11" style="stroke:#181818;stroke-width:1;"/><path d="M2137.7356,280.5703 Q2137.1575,280.8672 2136.5169,281.0078 Q2135.8763,281.1641 2135.1731,281.1641 Q2132.6731,281.1641 2131.345,279.5234 Q2130.0325,277.8672 2130.0325,274.7422 Q2130.0325,271.6172 2131.345,269.9609 Q2132.6731,268.3047 2135.1731,268.3047 Q2135.8763,268.3047 2136.5169,268.4609 Q2137.1731,268.6172 2137.7356,268.9141 L2137.7356,271.6328 Q2137.1106,271.0547 2136.5169,270.7891 Q2135.9231,270.5078 2135.2981,270.5078 Q2133.9544,270.5078 2133.2669,271.5859 Q2132.5794,272.6484 2132.5794,274.7422 Q2132.5794,276.8359 2133.2669,277.9141 Q2133.9544,278.9766 2135.2981,278.9766 Q2135.9231,278.9766 2136.5169,278.7109 Q2137.1106,278.4297 2137.7356,277.8516 L2137.7356,280.5703 Z " fill="#000000"/><text fill="#000000" font-family="sans-serif" font-size="12" font-style="italic" lengthAdjust="spacing" textLength="61.0605" x="2186.5335" y="270.9355">&#171;process&#187;</text><text fill="#000000" font-family="sans-serif" font-size="14" lengthAdjust="spacing" textLength="123.5938" x="2155.2669" y="286.7607">ALC_5463_proc_2</text><line style="stroke:#181818;stroke-width:0.5;" x1="1856.7" x2="2544.9275" y1="295.0625" y2="295.0625"/><text fill="#000000" font-family="sans-serif" font-size="14" lengthAdjust="spacing" textLength="223.2822" x="1861.7" y="312.0576">Messstellenbetriebsabrechnung</text><text fill="#000000" font-family="sans-serif" font-size="14" lengthAdjust="spacing" textLength="105.0957" x="1861.7" y="328.3545">Gesetze: MsbG</text><text fill="#000000" font-family="sans-serif" font-size="14" lengthAdjust="spacing" textLength="678.2275" x="1861.7" y="344.6514">Zusammenfassung: Beschreibe den Prozess der Abrechnung von Messstellenbetriebsleistungen.</text><line style="stroke:#181818;stroke-width:0.5;" x1="1856.7" x2="2544.9275" y1="351.9531" y2="351.9531"/></g><!--link ALC_5463 to ALC_5463_msg_1--><g class="link" data-entity-1="ALC_5463" data-entity-2="ALC_5463_msg_1" data-source-line="16" data-uid="lnk4" id="link_ALC_5463_ALC_5463_msg_1"><path codeLine="16" d="M978.16,130.5969 C857.51,156.3669 677,195.9669 520.81,234.4869 C514.89,235.9469 514.7186,235.9726 508.6786,237.4926" fill="none" id="ALC_5463-to-ALC_5463_msg_1" style="stroke:#181818;stroke-width:1;"/><polygon fill="#181818" points="502.86,238.9569,512.5641,240.6395,507.7088,237.7366,510.6117,232.8814,502.86,238.9569" style="stroke:#181818;stroke-width:1;"/><text fill="#000000" font-family="sans-serif" font-size="13" lengthAdjust="spacing" textLength="85.2363" x="717.81" y="200.5538">verwendet in</text></g><!--link ALC_5463 to ALC_5463_msg_2--><g class="link" data-entity-1="ALC_5463" data-entity-2="ALC_5463_msg_2" data-source-line="25" data-uid="lnk6" id="link_ALC_5463_ALC_5463_msg_2"><path codeLine="25" d="M1024.91,157.7669 C987.05,181.2969 947.5959,205.8196 907.2759,230.8796" fill="none" id="ALC_5463-to-ALC_5463_msg_2" style="stroke:#181818;stroke-width:1;"/><polygon fill="#181818" points="902.18,234.0469,911.9354,232.6933,906.4266,231.4075,907.7124,225.8987,902.18,234.0469" style="stroke:#181818;stroke-width:1;"/><text fill="#000000" font-family="sans-serif" font-size="13" lengthAdjust="spacing" textLength="85.2363" x="971.81" y="200.5538">verwendet in</text></g><!--link ALC_5463 to ALC_5463_proc_1--><g class="link" data-entity-1="ALC_5463" data-entity-2="ALC_5463_proc_1" data-source-line="31" data-uid="lnk8" id="link_ALC_5463_ALC_5463_proc_1"><path codeLine="31" d="M1204.98,157.7669 C1253.65,187.9169 1308.2295,221.747 1355.8795,251.267" fill="none" id="ALC_5463-to-ALC_5463_proc_1" style="stroke:#181818;stroke-width:1;stroke-dasharray:7,7;"/><polygon fill="#181818" points="1360.98,254.4269,1355.4358,246.2867,1356.7296,251.7937,1351.2226,253.0874,1360.98,254.4269" style="stroke:#181818;stroke-width:1;"/><text fill="#000000" font-family="sans-serif" font-size="13" lengthAdjust="spacing" textLength="91.6221" x="1280.81" y="200.5538">eingebettet in</text></g><!--link ALC_5463 to ALC_5463_proc_2--><g class="link" data-entity-1="ALC_5463" data-entity-2="ALC_5463_proc_2" data-source-line="37" data-uid="lnk10" id="link_ALC_5463_ALC_5463_proc_2"><path codeLine="37" d="M1251.37,126.2769 C1397.01,152.4269 1634.37,195.4669 1838.81,234.4869 C1872.01,240.8269 1901.0125,246.4406 1935.4825,253.2106" fill="none" id="ALC_5463-to-ALC_5463_proc_2" style="stroke:#181818;stroke-width:1;stroke-dasharray:7,7;"/><polygon fill="#181818" points="1941.37,254.3669,1933.3096,248.7074,1936.4637,253.4033,1931.7678,256.5574,1941.37,254.3669" style="stroke:#181818;stroke-width:1;"/><text fill="#000000" font-family="sans-serif" font-size="13" lengthAdjust="spacing" textLength="91.6221" x="1661.81" y="200.5538">eingebettet in</text></g><!--SRC=[lPHHRvim4CVV-odk0n049EbML6NgiYxArj2jaJ8fByZ00LQCgUoZtJBjk-_Sfb7K98sqXprmEliE-__x6qEI5C8dGQW5AM6X1rStutWuEE-VvJosRfYw8Vm-0qX4Wp4iknwq1HguocnUAr5vyBqJIfOI3JTzC-qQhSMOS-054wIrxcZTwSgAp61UQqutnHbtMaAbK6T8HcAss_FdbOYqiLKQRgJajP5vJJ5CayNjT0oH_xxWmjTM4_xawJbM3Mgc-jLsv7ILolMNg8eOlWYU6JE5ZI6yyA0Vy3Fqt4uU9Ccr1xVZEm_c4m-MGUH2tuM12yDTo2DutWaoOCjSxKLzEfjEKaUGViPQeLcrnk2AEfD6GJGCmdxetnSb6x8zZrvlzDgN61xGFA8ka43gGzv5RtZdxveNyja4xpWCN1A4_-ZVV_GkPU-SMOFWFBmuQLPqmgnxq-RiwEMbIrZDQFJitB5lUOAMIonfJgPjakk5jycM2wukEoiQ_XXBteFxO_WX4SfEhqYsccyDGS4JXnU7zQFaQuRwgUxiG9dnvUjq0JSIIpH2quTTMDyVxO74W59NoA_JSTveZ_VKGMonPpQR70BzYApzIJ4KZB0vUdZ-UsmH7rfzQ2k5qXBNKVjlyqLxV7y1]--></g></svg>