<svg xmlns="http://www.w3.org/2000/svg" xmlns:xlink="http://www.w3.org/1999/xlink" contentStyleType="text/css" data-diagram-type="CLASS" height="403px" preserveAspectRatio="none" style="width:3955px;height:403px;background:#FFFFFF;" version="1.1" viewBox="0 0 3955 403" width="3955px" zoomAndPan="magnify"><title>Datenatlas - BGM:Z29</title><defs/><g><g class="title" data-source-line="1"><text fill="#000000" font-family="sans-serif" font-size="14" font-weight="bold" lengthAdjust="spacing" textLength="172.8262" x="1884.1715" y="22.9951">Datenatlas - BGM:Z29</text></g><!--class BGM_Z29--><g class="entity" data-entity="BGM_Z29" data-source-line="2" data-uid="ent0002" id="entity_BGM_Z29"><rect fill="#F1F1F1" height="129.4844" rx="2.5" ry="2.5" style="stroke:#181818;stroke-width:0.5;" width="477.4316" x="1653.46" y="44.2969"/><ellipse cx="1854.4571" cy="60.2969" fill="#ADD1B2" rx="11" ry="11" style="stroke:#181818;stroke-width:1;"/><path d="M1857.4258,65.9375 Q1856.8477,66.2344 1856.2071,66.375 Q1855.5664,66.5313 1854.8633,66.5313 Q1852.3633,66.5313 1851.0352,64.8906 Q1849.7227,63.2344 1849.7227,60.1094 Q1849.7227,56.9844 1851.0352,55.3281 Q1852.3633,53.6719 1854.8633,53.6719 Q1855.5664,53.6719 1856.2071,53.8281 Q1856.8633,53.9844 1857.4258,54.2813 L1857.4258,57 Q1856.8008,56.4219 1856.2071,56.1563 Q1855.6133,55.875 1854.9883,55.875 Q1853.6446,55.875 1852.9571,56.9531 Q1852.2696,58.0156 1852.2696,60.1094 Q1852.2696,62.2031 1852.9571,63.2813 Q1853.6446,64.3438 1854.9883,64.3438 Q1855.6133,64.3438 1856.2071,64.0781 Q1856.8008,63.7969 1857.4258,63.2188 L1857.4258,65.9375 Z " fill="#000000"/><text fill="#000000" font-family="sans-serif" font-size="14" lengthAdjust="spacing" textLength="66.9375" x="1874.9571" y="65.1436">BGM_Z29</text><line style="stroke:#181818;stroke-width:0.5;" x1="1654.46" x2="2129.8916" y1="76.2969" y2="76.2969"/><text fill="#000000" font-family="sans-serif" font-size="14" lengthAdjust="spacing" textLength="451.4316" x="1673.46" y="93.292">Name: Abrechnung des Messstellenbetriebs vom MSB an den LF</text><text fill="#000000" font-family="sans-serif" font-size="14" lengthAdjust="spacing" textLength="66.6436" x="1673.46" y="109.5889">Prozesse:</text><rect fill="none" height="6" style="stroke:#C82930;stroke-width:1;" width="6" x="1661.46" y="119.5391"/><text fill="#000000" font-family="sans-serif" font-size="14" lengthAdjust="spacing" textLength="223.2822" x="1673.46" y="125.8857">Messstellenbetriebsabrechnung</text><rect fill="none" height="6" style="stroke:#C82930;stroke-width:1;" width="6" x="1661.46" y="135.8359"/><text fill="#000000" font-family="sans-serif" font-size="14" lengthAdjust="spacing" textLength="317.9668" x="1673.46" y="142.1826">Sperrung und Entsperrung eines Anschlusses</text><line style="stroke:#181818;stroke-width:0.5;" x1="1654.46" x2="2129.8916" y1="149.4844" y2="149.4844"/><rect fill="#F24D5C" height="6" style="stroke:#C82930;stroke-width:1;" width="6" x="1661.46" y="160.1328"/><text fill="#000000" font-family="sans-serif" font-size="14" lengthAdjust="spacing" textLength="348.2021" x="1673.46" y="166.4795">Bestellung einer technischen Konfiguration (MSB)</text></g><!--class BGM_Z29_msg_1--><g class="entity" data-entity="BGM_Z29_msg_1" data-source-line="9" data-uid="ent0003" id="entity_BGM_Z29_msg_1"><rect fill="#F1F1F1" height="145.7813" rx="2.5" ry="2.5" style="stroke:#181818;stroke-width:0.5;" width="990.3457" x="7" y="250.7869"/><ellipse cx="438.0913" cy="266.7869" fill="#ADD1B2" rx="11" ry="11" style="stroke:#181818;stroke-width:1;"/><path d="M441.0601,272.4275 Q440.4819,272.7244 439.8413,272.865 Q439.2007,273.0213 438.4976,273.0213 Q435.9976,273.0213 434.6694,271.3806 Q433.3569,269.7244 433.3569,266.5994 Q433.3569,263.4744 434.6694,261.8181 Q435.9976,260.1619 438.4976,260.1619 Q439.2007,260.1619 439.8413,260.3181 Q440.4976,260.4744 441.0601,260.7713 L441.0601,263.49 Q440.4351,262.9119 439.8413,262.6463 Q439.2476,262.365 438.6226,262.365 Q437.2788,262.365 436.5913,263.4431 Q435.9038,264.5056 435.9038,266.5994 Q435.9038,268.6931 436.5913,269.7713 Q437.2788,270.8338 438.6226,270.8338 Q439.2476,270.8338 439.8413,270.5681 Q440.4351,270.2869 441.0601,269.7088 L441.0601,272.4275 Z " fill="#000000"/><text fill="#000000" font-family="sans-serif" font-size="14" lengthAdjust="spacing" textLength="119.6631" x="458.5913" y="271.6336">BGM_Z29_msg_1</text><line style="stroke:#181818;stroke-width:0.5;" x1="8" x2="996.3457" y1="282.7869" y2="282.7869"/><text fill="#000000" font-family="sans-serif" font-size="14" lengthAdjust="spacing" textLength="170.3584" x="13" y="299.782">Nachricht: QUOTES 1.3a</text><text fill="#000000" font-family="sans-serif" font-size="14" lengthAdjust="spacing" textLength="170.3447" x="13" y="316.0789">Kontext: Segmentlayout</text><text fill="#000000" font-family="sans-serif" font-size="14" lengthAdjust="spacing" textLength="91.4033" x="13" y="332.3757">Pflichtfeld: Ja</text><text fill="#000000" font-family="sans-serif" font-size="14" lengthAdjust="spacing" textLength="389.1768" x="13" y="348.6726">Codes: 310, 70, BGM, EDI, ESA, LF, MSB, Z29, Z57, Z74</text><text fill="#000000" font-family="sans-serif" font-size="14" lengthAdjust="spacing" textLength="292.4961" x="13" y="364.9695">Quelle: QUOTES_MIG_1_3a_20240619.pdf</text><line style="stroke:#181818;stroke-width:0.5;" x1="8" x2="996.3457" y1="372.2713" y2="372.2713"/><text fill="#000000" font-family="sans-serif" font-size="14" lengthAdjust="spacing" textLength="978.3457" x="13" y="389.2664">Prozesse: Messstellenbetriebsabrechnung, Bestellung einer technischen Konfiguration (MSB), Sperrung und Entsperrung eines Anschlusses</text></g><!--class BGM_Z29_proc_1--><g class="entity" data-entity="BGM_Z29_proc_1" data-source-line="18" data-uid="ent0005" id="entity_BGM_Z29_proc_1"><rect fill="#F1F1F1" height="105.1563" rx="2.5" ry="2.5" style="stroke:#181818;stroke-width:0.5;" width="690.2275" x="1032.06" y="271.0969"/><ellipse cx="1312.5488" cy="291.2297" fill="#ADD1B2" rx="11" ry="11" style="stroke:#181818;stroke-width:1;"/><path d="M1315.5175,296.8703 Q1314.9394,297.1672 1314.2988,297.3078 Q1313.6581,297.4641 1312.955,297.4641 Q1310.455,297.4641 1309.1269,295.8234 Q1307.8144,294.1672 1307.8144,291.0422 Q1307.8144,287.9172 1309.1269,286.2609 Q1310.455,284.6047 1312.955,284.6047 Q1313.6581,284.6047 1314.2988,284.7609 Q1314.955,284.9172 1315.5175,285.2141 L1315.5175,287.9328 Q1314.8925,287.3547 1314.2988,287.0891 Q1313.705,286.8078 1313.08,286.8078 Q1311.7363,286.8078 1311.0488,287.8859 Q1310.3613,288.9484 1310.3613,291.0422 Q1310.3613,293.1359 1311.0488,294.2141 Q1311.7363,295.2766 1313.08,295.2766 Q1313.705,295.2766 1314.2988,295.0109 Q1314.8925,294.7297 1315.5175,294.1516 L1315.5175,296.8703 Z " fill="#000000"/><text fill="#000000" font-family="sans-serif" font-size="12" font-style="italic" lengthAdjust="spacing" textLength="61.0605" x="1362.8935" y="287.2355">&#171;process&#187;</text><text fill="#000000" font-family="sans-serif" font-size="14" lengthAdjust="spacing" textLength="120.75" x="1333.0488" y="303.0607">BGM_Z29_proc_1</text><line style="stroke:#181818;stroke-width:0.5;" x1="1033.06" x2="1721.2875" y1="311.3625" y2="311.3625"/><text fill="#000000" font-family="sans-serif" font-size="14" lengthAdjust="spacing" textLength="223.2822" x="1038.06" y="328.3576">Messstellenbetriebsabrechnung</text><text fill="#000000" font-family="sans-serif" font-size="14" lengthAdjust="spacing" textLength="105.0957" x="1038.06" y="344.6545">Gesetze: MsbG</text><text fill="#000000" font-family="sans-serif" font-size="14" lengthAdjust="spacing" textLength="678.2275" x="1038.06" y="360.9514">Zusammenfassung: Beschreibe den Prozess der Abrechnung von Messstellenbetriebsleistungen.</text><line style="stroke:#181818;stroke-width:0.5;" x1="1033.06" x2="1721.2875" y1="368.2531" y2="368.2531"/></g><!--class BGM_Z29_proc_2--><g class="entity" data-entity="BGM_Z29_proc_2" data-source-line="24" data-uid="ent0007" id="entity_BGM_Z29_proc_2"><rect fill="#F1F1F1" height="105.1563" rx="2.5" ry="2.5" style="stroke:#181818;stroke-width:0.5;" width="1301.9961" x="1757.17" y="271.0969"/><ellipse cx="2343.543" cy="291.2297" fill="#ADD1B2" rx="11" ry="11" style="stroke:#181818;stroke-width:1;"/><path d="M2346.5118,296.8703 Q2345.9337,297.1672 2345.293,297.3078 Q2344.6524,297.4641 2343.9493,297.4641 Q2341.4493,297.4641 2340.1212,295.8234 Q2338.8087,294.1672 2338.8087,291.0422 Q2338.8087,287.9172 2340.1212,286.2609 Q2341.4493,284.6047 2343.9493,284.6047 Q2344.6524,284.6047 2345.293,284.7609 Q2345.9493,284.9172 2346.5118,285.2141 L2346.5118,287.9328 Q2345.8868,287.3547 2345.293,287.0891 Q2344.6993,286.8078 2344.0743,286.8078 Q2342.7305,286.8078 2342.043,287.8859 Q2341.3555,288.9484 2341.3555,291.0422 Q2341.3555,293.1359 2342.043,294.2141 Q2342.7305,295.2766 2344.0743,295.2766 Q2344.6993,295.2766 2345.293,295.0109 Q2345.8868,294.7297 2346.5118,294.1516 L2346.5118,296.8703 Z " fill="#000000"/><text fill="#000000" font-family="sans-serif" font-size="12" font-style="italic" lengthAdjust="spacing" textLength="61.0605" x="2393.8878" y="287.2355">&#171;process&#187;</text><text fill="#000000" font-family="sans-serif" font-size="14" lengthAdjust="spacing" textLength="120.75" x="2364.043" y="303.0607">BGM_Z29_proc_2</text><line style="stroke:#181818;stroke-width:0.5;" x1="1758.17" x2="3058.1661" y1="311.3625" y2="311.3625"/><text fill="#000000" font-family="sans-serif" font-size="14" lengthAdjust="spacing" textLength="156.4063" x="1763.17" y="328.3576">Gesetze: MsbG, EnWG</text><text fill="#000000" font-family="sans-serif" font-size="14" lengthAdjust="spacing" textLength="1289.9961" x="1763.17" y="344.6545">Zusammenfassung: Erl&#228;utere den Prozess zur Bestellung einer spezifischen technischen Konfiguration bei einem Messstellenbetreiber, beispielsweise f&#252;r ein intelligentes Messsystem.</text><line style="stroke:#181818;stroke-width:0.5;" x1="1758.17" x2="3058.1661" y1="351.9562" y2="351.9562"/><text fill="#000000" font-family="sans-serif" font-size="14" lengthAdjust="spacing" textLength="348.2021" x="1763.17" y="368.9514">Bestellung einer technischen Konfiguration (MSB)</text></g><!--class BGM_Z29_proc_3--><g class="entity" data-entity="BGM_Z29_proc_3" data-source-line="30" data-uid="ent0009" id="entity_BGM_Z29_proc_3"><rect fill="#F1F1F1" height="105.1563" rx="2.5" ry="2.5" style="stroke:#181818;stroke-width:0.5;" width="853.9893" x="3094.18" y="271.0969"/><ellipse cx="3456.5496" cy="291.2297" fill="#ADD1B2" rx="11" ry="11" style="stroke:#181818;stroke-width:1;"/><path d="M3459.5184,296.8703 Q3458.9403,297.1672 3458.2996,297.3078 Q3457.659,297.4641 3456.9559,297.4641 Q3454.4559,297.4641 3453.1278,295.8234 Q3451.8153,294.1672 3451.8153,291.0422 Q3451.8153,287.9172 3453.1278,286.2609 Q3454.4559,284.6047 3456.9559,284.6047 Q3457.659,284.6047 3458.2996,284.7609 Q3458.9559,284.9172 3459.5184,285.2141 L3459.5184,287.9328 Q3458.8934,287.3547 3458.2996,287.0891 Q3457.7059,286.8078 3457.0809,286.8078 Q3455.7371,286.8078 3455.0496,287.8859 Q3454.3621,288.9484 3454.3621,291.0422 Q3454.3621,293.1359 3455.0496,294.2141 Q3455.7371,295.2766 3457.0809,295.2766 Q3457.7059,295.2766 3458.2996,295.0109 Q3458.8934,294.7297 3459.5184,294.1516 L3459.5184,296.8703 Z " fill="#000000"/><text fill="#000000" font-family="sans-serif" font-size="12" font-style="italic" lengthAdjust="spacing" textLength="61.0605" x="3506.8944" y="287.2355">&#171;process&#187;</text><text fill="#000000" font-family="sans-serif" font-size="14" lengthAdjust="spacing" textLength="120.75" x="3477.0496" y="303.0607">BGM_Z29_proc_3</text><line style="stroke:#181818;stroke-width:0.5;" x1="3095.18" x2="3947.1693" y1="311.3625" y2="311.3625"/><text fill="#000000" font-family="sans-serif" font-size="14" lengthAdjust="spacing" textLength="317.9668" x="3100.18" y="328.3576">Sperrung und Entsperrung eines Anschlusses</text><text fill="#000000" font-family="sans-serif" font-size="14" lengthAdjust="spacing" textLength="138.3252" x="3100.18" y="344.6545">Gesetze: StromGVV</text><text fill="#000000" font-family="sans-serif" font-size="14" lengthAdjust="spacing" textLength="841.9893" x="3100.18" y="360.9514">Zusammenfassung: Beschreibe den End-to-End-Prozess f&#252;r die Sperrung und Wiederherstellung eines Netzanschlusses.</text><line style="stroke:#181818;stroke-width:0.5;" x1="3095.18" x2="3947.1693" y1="368.2531" y2="368.2531"/></g><!--link BGM_Z29 to BGM_Z29_msg_1--><g class="link" data-entity-1="BGM_Z29" data-entity-2="BGM_Z29_msg_1" data-source-line="17" data-uid="lnk4" id="link_BGM_Z29_BGM_Z29_msg_1"><path codeLine="17" d="M1653.22,146.5969 C1467.32,175.0369 1209.401,214.4895 981.211,249.3995" fill="none" id="BGM_Z29-to-BGM_Z29_msg_1" style="stroke:#181818;stroke-width:1;"/><polygon fill="#181818" points="975.28,250.3069,984.7814,252.8998,980.2225,249.5507,983.5716,244.9918,975.28,250.3069" style="stroke:#181818;stroke-width:1;"/><text fill="#000000" font-family="sans-serif" font-size="13" lengthAdjust="spacing" textLength="85.2363" x="1240.17" y="216.8538">verwendet in</text></g><!--link BGM_Z29 to BGM_Z29_proc_1--><g class="link" data-entity-1="BGM_Z29" data-entity-2="BGM_Z29_proc_1" data-source-line="23" data-uid="lnk6" id="link_BGM_Z29_BGM_Z29_proc_1"><path codeLine="23" d="M1736.61,174.2769 C1661.84,205.1469 1578.9457,239.3666 1508.5057,268.4566" fill="none" id="BGM_Z29-to-BGM_Z29_proc_1" style="stroke:#181818;stroke-width:1;stroke-dasharray:7,7;"/><polygon fill="#181818" points="1502.96,270.7469,1512.8054,271.0087,1507.5814,268.8383,1509.7517,263.6144,1502.96,270.7469" style="stroke:#181818;stroke-width:1;"/><text fill="#000000" font-family="sans-serif" font-size="13" lengthAdjust="spacing" textLength="91.6221" x="1651.17" y="216.8538">eingebettet in</text></g><!--link BGM_Z29 to BGM_Z29_proc_2--><g class="link" data-entity-1="BGM_Z29" data-entity-2="BGM_Z29_proc_2" data-source-line="29" data-uid="lnk8" id="link_BGM_Z29_BGM_Z29_proc_2"><path codeLine="29" d="M2048.04,174.2769 C2122.95,205.1469 2206.0227,239.3705 2276.6027,268.4605" fill="none" id="BGM_Z29-to-BGM_Z29_proc_2" style="stroke:#181818;stroke-width:1;stroke-dasharray:7,7;"/><polygon fill="#181818" points="2282.15,270.7469,2275.3533,263.6191,2277.5272,268.8416,2272.3048,271.0155,2282.15,270.7469" style="stroke:#181818;stroke-width:1;"/><text fill="#000000" font-family="sans-serif" font-size="13" lengthAdjust="spacing" textLength="91.6221" x="2151.17" y="216.8538">eingebettet in</text></g><!--link BGM_Z29 to BGM_Z29_proc_3--><g class="link" data-entity-1="BGM_Z29" data-entity-2="BGM_Z29_proc_3" data-source-line="35" data-uid="lnk10" id="link_BGM_Z29_BGM_Z29_proc_3"><path codeLine="35" d="M2131.23,135.4869 C2370.65,161.6669 2749.46,204.9969 3076.17,250.7869 C3119.38,256.8369 3158.9417,262.742 3203.6817,269.722" fill="none" id="BGM_Z29-to-BGM_Z29_proc_3" style="stroke:#181818;stroke-width:1;stroke-dasharray:7,7;"/><polygon fill="#181818" points="3209.61,270.6469,3201.3342,265.3074,3204.6698,269.8761,3200.101,273.2117,3209.61,270.6469" style="stroke:#181818;stroke-width:1;"/><text fill="#000000" font-family="sans-serif" font-size="13" lengthAdjust="spacing" textLength="91.6221" x="2851.17" y="216.8538">eingebettet in</text></g><!--SRC=[dPJTRjf048NlUOgvR2M3-4cBOaL8q52KjgIDd2PIRgorFOQLx3NQNPE6gc_Jn-XTNYndBKZv2mszODbXP-Ri-NQ4bJPZEXUMbR2PC5IdmMZitxLFQp52uw8G4Vsi4LsAd7tgHvhZgIhLX18sD6PZZEKiOnMnrP8ZG_CYft4m8A6GekZBHnH_qyK2gUnZJv3PKoUUEozp1bnbE2cMYZLPTovDF4NNpuLAvQJKmif2qHlelLsM1JFMsXMLAg6XicOLkoQ6-WeDiX9tCRLVcpR3t4p2rj9iFDKodbgVhhv_lHu6r6fq10wWQ_a7VWvuahC2jOUYjCvXchdybBF4fqykzKC1GZvrMasFklX0nQFX-GMMeE-1Y-SmUGHbBE-wMBedwwmEK_AE1kGTmuRegdJAAm3X-68KjiAE2DlDzadpVUkqCKjI85pDIBtUsmBfqvprFQk4BKcrnNgcYnWvPsTk0v-zNWN-NuCnOiDsuTYOQ8JuhZGYnqEaw8qCtq71qx6Ck9g-9KpizVhipi5aZrJ6qbYSisgiEMiqUjlNzXsn2QFElcYklMFkFoPwmoycHztkTJtKsUFlqhBUTBqezQue7dqXqwNgopU8M5O5-JOenrPxxjpC96Vc7XkczF6FTlc0uL8b6DhL7yG3glE3HDkl8jhP8NhKG3-p3Amkyj7DpIlcPwYIkYtgxci5jNAQIDuKlvMC6Pkotg1jw1AIukyr3bBex51u0W00]--></g></svg>