<svg xmlns="http://www.w3.org/2000/svg" xmlns:xlink="http://www.w3.org/1999/xlink" contentStyleType="text/css" data-diagram-type="CLASS" height="322px" preserveAspectRatio="none" style="width:779px;height:322px;background:#FFFFFF;" version="1.1" viewBox="0 0 779 322" width="779px" zoomAndPan="magnify"><title>Datenatlas - BGM:7663</title><defs/><g><g class="title" data-source-line="1"><text fill="#000000" font-family="sans-serif" font-size="14" font-weight="bold" lengthAdjust="spacing" textLength="182.1572" x="291.5191" y="22.9951">Datenatlas - BGM:7663</text></g><!--class BGM_7663--><g class="entity" data-entity="BGM_7663" data-source-line="2" data-uid="ent0002" id="entity_BGM_7663"><rect fill="#F1F1F1" height="64.2969" rx="2.5" ry="2.5" style="stroke:#181818;stroke-width:0.5;" width="336.8711" x="253.75" y="44.2969"/><ellipse cx="380.355" cy="60.2969" fill="#ADD1B2" rx="11" ry="11" style="stroke:#181818;stroke-width:1;"/><path d="M383.3237,65.9375 Q382.7456,66.2344 382.105,66.375 Q381.4644,66.5313 380.7612,66.5313 Q378.2612,66.5313 376.9331,64.8906 Q375.6206,63.2344 375.6206,60.1094 Q375.6206,56.9844 376.9331,55.3281 Q378.2612,53.6719 380.7612,53.6719 Q381.4644,53.6719 382.105,53.8281 Q382.7612,53.9844 383.3237,54.2813 L383.3237,57 Q382.6987,56.4219 382.105,56.1563 Q381.5112,55.875 380.8862,55.875 Q379.5425,55.875 378.855,56.9531 Q378.1675,58.0156 378.1675,60.1094 Q378.1675,62.2031 378.855,63.2813 Q379.5425,64.3438 380.8862,64.3438 Q381.5112,64.3438 382.105,64.0781 Q382.6987,63.7969 383.3237,63.2188 L383.3237,65.9375 Z " fill="#000000"/><text fill="#000000" font-family="sans-serif" font-size="14" lengthAdjust="spacing" textLength="75.1611" x="400.855" y="65.1436">BGM_7663</text><line style="stroke:#181818;stroke-width:0.5;" x1="254.75" x2="589.6211" y1="76.2969" y2="76.2969"/><text fill="#000000" font-family="sans-serif" font-size="14" lengthAdjust="spacing" textLength="324.8711" x="259.75" y="93.292">Name: Funktion des Dokuments/der Nachricht</text><line style="stroke:#181818;stroke-width:0.5;" x1="254.75" x2="589.6211" y1="100.5938" y2="100.5938"/></g><!--class BGM_7663_msg_1--><g class="entity" data-entity="BGM_7663_msg_1" data-source-line="5" data-uid="ent0003" id="entity_BGM_7663_msg_1"><rect fill="#F1F1F1" height="129.4844" rx="2.5" ry="2.5" style="stroke:#181818;stroke-width:0.5;" width="430.3662" x="7" y="185.5969"/><ellipse cx="153.9897" cy="201.5969" fill="#ADD1B2" rx="11" ry="11" style="stroke:#181818;stroke-width:1;"/><path d="M156.9585,207.2375 Q156.3804,207.5344 155.7397,207.675 Q155.0991,207.8312 154.396,207.8312 Q151.896,207.8312 150.5679,206.1906 Q149.2554,204.5344 149.2554,201.4094 Q149.2554,198.2844 150.5679,196.6281 Q151.896,194.9719 154.396,194.9719 Q155.0991,194.9719 155.7397,195.1281 Q156.396,195.2844 156.9585,195.5812 L156.9585,198.3 Q156.3335,197.7219 155.7397,197.4562 Q155.146,197.175 154.521,197.175 Q153.1772,197.175 152.4897,198.2531 Q151.8022,199.3156 151.8022,201.4094 Q151.8022,203.5031 152.4897,204.5812 Q153.1772,205.6437 154.521,205.6437 Q155.146,205.6437 155.7397,205.3781 Q156.3335,205.0969 156.9585,204.5187 L156.9585,207.2375 Z " fill="#000000"/><text fill="#000000" font-family="sans-serif" font-size="14" lengthAdjust="spacing" textLength="127.8867" x="174.4897" y="206.4436">BGM_7663_msg_1</text><line style="stroke:#181818;stroke-width:0.5;" x1="8" x2="436.3662" y1="217.5969" y2="217.5969"/><text fill="#000000" font-family="sans-serif" font-size="14" lengthAdjust="spacing" textLength="169.4424" x="13" y="234.592">Nachricht: CONTRL 2.0b</text><text fill="#000000" font-family="sans-serif" font-size="14" lengthAdjust="spacing" textLength="289.0918" x="13" y="250.8889">Kontext: ein Gruppendatenelement fehlt.</text><text fill="#000000" font-family="sans-serif" font-size="14" lengthAdjust="spacing" textLength="91.4033" x="13" y="267.1857">Pflichtfeld: Ja</text><text fill="#000000" font-family="sans-serif" font-size="14" lengthAdjust="spacing" textLength="123.5459" x="13" y="283.4826">Codes: 07, 17, 26</text><text fill="#000000" font-family="sans-serif" font-size="14" lengthAdjust="spacing" textLength="418.3662" x="13" y="299.7795">Quelle: CONTRL_MIG_2_0b_au&#223;erordentliche_20240726.pdf</text><line style="stroke:#181818;stroke-width:0.5;" x1="8" x2="436.3662" y1="307.0812" y2="307.0812"/></g><!--class BGM_7663_msg_2--><g class="entity" data-entity="BGM_7663_msg_2" data-source-line="13" data-uid="ent0005" id="entity_BGM_7663_msg_2"><rect fill="#F1F1F1" height="129.4844" rx="2.5" ry="2.5" style="stroke:#181818;stroke-width:0.5;" width="300.0254" x="472.17" y="185.5969"/><ellipse cx="553.9893" cy="201.5969" fill="#ADD1B2" rx="11" ry="11" style="stroke:#181818;stroke-width:1;"/><path d="M556.9581,207.2375 Q556.38,207.5344 555.7393,207.675 Q555.0987,207.8312 554.3956,207.8312 Q551.8956,207.8312 550.5675,206.1906 Q549.255,204.5344 549.255,201.4094 Q549.255,198.2844 550.5675,196.6281 Q551.8956,194.9719 554.3956,194.9719 Q555.0987,194.9719 555.7393,195.1281 Q556.3956,195.2844 556.9581,195.5812 L556.9581,198.3 Q556.3331,197.7219 555.7393,197.4562 Q555.1456,197.175 554.5206,197.175 Q553.1768,197.175 552.4893,198.2531 Q551.8018,199.3156 551.8018,201.4094 Q551.8018,203.5031 552.4893,204.5812 Q553.1768,205.6437 554.5206,205.6437 Q555.1456,205.6437 555.7393,205.3781 Q556.3331,205.0969 556.9581,204.5187 L556.9581,207.2375 Z " fill="#000000"/><text fill="#000000" font-family="sans-serif" font-size="14" lengthAdjust="spacing" textLength="127.8867" x="574.4893" y="206.4436">BGM_7663_msg_2</text><line style="stroke:#181818;stroke-width:0.5;" x1="473.17" x2="771.1954" y1="217.5969" y2="217.5969"/><text fill="#000000" font-family="sans-serif" font-size="14" lengthAdjust="spacing" textLength="165.8877" x="478.17" y="234.592">Nachricht: ORDCHG 1.1</text><text fill="#000000" font-family="sans-serif" font-size="14" lengthAdjust="spacing" textLength="123.0605" x="478.17" y="250.8889">Kontext: Beispiel:</text><text fill="#000000" font-family="sans-serif" font-size="14" lengthAdjust="spacing" textLength="91.4033" x="478.17" y="267.1857">Pflichtfeld: Ja</text><text fill="#000000" font-family="sans-serif" font-size="14" lengthAdjust="spacing" textLength="123.5459" x="478.17" y="283.4826">Codes: 03, 18, 31</text><text fill="#000000" font-family="sans-serif" font-size="14" lengthAdjust="spacing" textLength="288.0254" x="478.17" y="299.7795">Quelle: ORDCHG_MIG_1_1_20230331.pdf</text><line style="stroke:#181818;stroke-width:0.5;" x1="473.17" x2="771.1954" y1="307.0812" y2="307.0812"/></g><!--link BGM_7663 to BGM_7663_msg_1--><g class="link" data-entity-1="BGM_7663" data-entity-2="BGM_7663_msg_1" data-source-line="12" data-uid="lnk4" id="link_BGM_7663_BGM_7663_msg_1"><path codeLine="12" d="M385.5,108.9669 C360.69,130.2969 331.6003,155.2961 301.2903,181.3461" fill="none" id="BGM_7663-to-BGM_7663_msg_1" style="stroke:#181818;stroke-width:1;"/><polygon fill="#181818" points="296.74,185.2569,306.1727,182.4242,300.532,181.9979,300.9583,176.3571,296.74,185.2569" style="stroke:#181818;stroke-width:1;"/><text fill="#000000" font-family="sans-serif" font-size="13" lengthAdjust="spacing" textLength="85.2363" x="347.18" y="151.6638">verwendet in</text></g><!--link BGM_7663 to BGM_7663_msg_2--><g class="link" data-entity-1="BGM_7663" data-entity-2="BGM_7663_msg_2" data-source-line="20" data-uid="lnk6" id="link_BGM_7663_BGM_7663_msg_2"><path codeLine="20" d="M458.87,108.9669 C483.68,130.2969 512.7703,155.2953 543.0703,181.3453" fill="none" id="BGM_7663-to-BGM_7663_msg_2" style="stroke:#181818;stroke-width:1;"/><polygon fill="#181818" points="547.62,185.2569,543.4031,176.3564,543.8286,181.9973,538.1877,182.4227,547.62,185.2569" style="stroke:#181818;stroke-width:1;"/><text fill="#000000" font-family="sans-serif" font-size="13" lengthAdjust="spacing" textLength="85.2363" x="511.18" y="151.6638">verwendet in</text></g><!--SRC=[XOzDJiCm44RtFSKSe0csWnBa1Oic8lorXOgzbIOJOjLneiG19CHPE0mNOq8BgY84ihoOyVYRzvns1Y797DhCcQm73nRfKaPX6CnoglknL6C9hpE0LLQZX8l1xfnkB1JOGzBiXXgjwqyAx6WWhpgTLsxsDlclwlvHyKFAOKX2l5uzR6v1-6nB3pUDTVX2RTGMqcveMxJ5o8O6nnrGOcMSJvDtfHa3IZI5XEkCEd53D19OD0TELuJKkn_G6FpUefPNgHAARLKsVBnZrtG5POuvg0GJfomIeTyM9Q7_I7lU-TH0mXDspmI63hJzpL9CBTUR9BvCWVlyM7A1kcyr6lcdJq0-PtC8-97FFk_BXzCX-8050VyNNapWFm40]--></g></svg>