<svg xmlns="http://www.w3.org/2000/svg" xmlns:xlink="http://www.w3.org/1999/xlink" contentStyleType="text/css" data-diagram-type="CLASS" height="370px" preserveAspectRatio="none" style="width:1330px;height:370px;background:#FFFFFF;" version="1.1" viewBox="0 0 1330 370" width="1330px" zoomAndPan="magnify"><title>Datenatlas - BGM:MSI5422</title><defs/><g><g class="title" data-source-line="1"><text fill="#000000" font-family="sans-serif" font-size="14" font-weight="bold" lengthAdjust="spacing" textLength="211.3809" x="552.7578" y="22.9951">Datenatlas - BGM:MSI5422</text></g><!--class BGM_MSI5422--><g class="entity" data-entity="BGM_MSI5422" data-source-line="2" data-uid="ent0002" id="entity_BGM_MSI5422"><rect fill="#F1F1F1" height="96.8906" rx="2.5" ry="2.5" style="stroke:#181818;stroke-width:0.5;" width="206.3457" x="506.4" y="44.2969"/><ellipse cx="555.1949" cy="60.2969" fill="#ADD1B2" rx="11" ry="11" style="stroke:#181818;stroke-width:1;"/><path d="M558.1637,65.9375 Q557.5855,66.2344 556.9449,66.375 Q556.3043,66.5313 555.6012,66.5313 Q553.1012,66.5313 551.773,64.8906 Q550.4605,63.2344 550.4605,60.1094 Q550.4605,56.9844 551.773,55.3281 Q553.1012,53.6719 555.6012,53.6719 Q556.3043,53.6719 556.9449,53.8281 Q557.6012,53.9844 558.1637,54.2813 L558.1637,57 Q557.5387,56.4219 556.9449,56.1563 Q556.3512,55.875 555.7262,55.875 Q554.3824,55.875 553.6949,56.9531 Q553.0074,58.0156 553.0074,60.1094 Q553.0074,62.2031 553.6949,63.2813 Q554.3824,64.3438 555.7262,64.3438 Q556.3512,64.3438 556.9449,64.0781 Q557.5387,63.7969 558.1637,63.2188 L558.1637,65.9375 Z " fill="#000000"/><text fill="#000000" font-family="sans-serif" font-size="14" lengthAdjust="spacing" textLength="100.2559" x="575.6949" y="65.1436">BGM_MSI5422</text><line style="stroke:#181818;stroke-width:0.5;" x1="507.4" x2="711.7457" y1="76.2969" y2="76.2969"/><text fill="#000000" font-family="sans-serif" font-size="14" lengthAdjust="spacing" textLength="149.4678" x="526.4" y="93.292">Name: Belegnummer</text><text fill="#000000" font-family="sans-serif" font-size="14" lengthAdjust="spacing" textLength="66.6436" x="526.4" y="109.5889">Prozesse:</text><rect fill="none" height="6" style="stroke:#C82930;stroke-width:1;" width="6" x="514.4" y="119.5391"/><text fill="#000000" font-family="sans-serif" font-size="14" lengthAdjust="spacing" textLength="180.3457" x="526.4" y="125.8857">Netznutzungsabrechnung</text><line style="stroke:#181818;stroke-width:0.5;" x1="507.4" x2="711.7457" y1="133.1875" y2="133.1875"/></g><!--class BGM_MSI5422_msg_1--><g class="entity" data-entity="BGM_MSI5422_msg_1" data-source-line="7" data-uid="ent0003" id="entity_BGM_MSI5422_msg_1"><rect fill="#F1F1F1" height="145.7813" rx="2.5" ry="2.5" style="stroke:#181818;stroke-width:0.5;" width="529.1387" x="7" y="218.1869"/><ellipse cx="190.8286" cy="234.1869" fill="#ADD1B2" rx="11" ry="11" style="stroke:#181818;stroke-width:1;"/><path d="M193.7974,239.8275 Q193.2192,240.1244 192.5786,240.265 Q191.938,240.4213 191.2349,240.4213 Q188.7349,240.4213 187.4067,238.7806 Q186.0942,237.1244 186.0942,233.9994 Q186.0942,230.8744 187.4067,229.2181 Q188.7349,227.5619 191.2349,227.5619 Q191.938,227.5619 192.5786,227.7181 Q193.2349,227.8744 193.7974,228.1713 L193.7974,230.89 Q193.1724,230.3119 192.5786,230.0463 Q191.9849,229.765 191.3599,229.765 Q190.0161,229.765 189.3286,230.8431 Q188.6411,231.9056 188.6411,233.9994 Q188.6411,236.0931 189.3286,237.1713 Q190.0161,238.2338 191.3599,238.2338 Q191.9849,238.2338 192.5786,237.9681 Q193.1724,237.6869 193.7974,237.1088 L193.7974,239.8275 Z " fill="#000000"/><text fill="#000000" font-family="sans-serif" font-size="14" lengthAdjust="spacing" textLength="152.9814" x="211.3286" y="239.0336">BGM_MSI5422_msg_1</text><line style="stroke:#181818;stroke-width:0.5;" x1="8" x2="535.1387" y1="250.1869" y2="250.1869"/><text fill="#000000" font-family="sans-serif" font-size="14" lengthAdjust="spacing" textLength="171.4932" x="13" y="267.182">Nachricht: REMADV 2.9c</text><text fill="#000000" font-family="sans-serif" font-size="14" lengthAdjust="spacing" textLength="517.1387" x="13" y="283.4789">Kontext: Codewertes 481. Das Dokument hat die Belegnummer MSI5422.</text><text fill="#000000" font-family="sans-serif" font-size="14" lengthAdjust="spacing" textLength="91.4033" x="13" y="299.7757">Pflichtfeld: Ja</text><text fill="#000000" font-family="sans-serif" font-size="14" lengthAdjust="spacing" textLength="200.6006" x="13" y="316.0726">Codes: 10, 24, 33, 481, BGM</text><text fill="#000000" font-family="sans-serif" font-size="14" lengthAdjust="spacing" textLength="251.4395" x="13" y="332.3695">Prozesse: Netznutzungsabrechnung</text><text fill="#000000" font-family="sans-serif" font-size="14" lengthAdjust="spacing" textLength="291.0811" x="13" y="348.6664">Quelle: REMADV_MIG_2.9c_20231024.pdf</text><line style="stroke:#181818;stroke-width:0.5;" x1="8" x2="535.1387" y1="355.9681" y2="355.9681"/></g><!--class BGM_MSI5422_proc_1--><g class="entity" data-entity="BGM_MSI5422_proc_1" data-source-line="16" data-uid="ent0005" id="entity_BGM_MSI5422_proc_1"><rect fill="#F1F1F1" height="105.1563" rx="2.5" ry="2.5" style="stroke:#181818;stroke-width:0.5;" width="752.6465" x="571.25" y="238.4969"/><ellipse cx="866.2891" cy="258.6297" fill="#ADD1B2" rx="11" ry="11" style="stroke:#181818;stroke-width:1;"/><path d="M869.2578,264.2703 Q868.6797,264.5672 868.0391,264.7078 Q867.3984,264.8641 866.6953,264.8641 Q864.1953,264.8641 862.8672,263.2234 Q861.5547,261.5672 861.5547,258.4422 Q861.5547,255.3172 862.8672,253.6609 Q864.1953,252.0047 866.6953,252.0047 Q867.3984,252.0047 868.0391,252.1609 Q868.6953,252.3172 869.2578,252.6141 L869.2578,255.3328 Q868.6328,254.7547 868.0391,254.4891 Q867.4453,254.2078 866.8203,254.2078 Q865.4766,254.2078 864.7891,255.2859 Q864.1016,256.3484 864.1016,258.4422 Q864.1016,260.5359 864.7891,261.6141 Q865.4766,262.6766 866.8203,262.6766 Q867.4453,262.6766 868.0391,262.4109 Q868.6328,262.1297 869.2578,261.5516 L869.2578,264.2703 Z " fill="#000000"/><text fill="#000000" font-family="sans-serif" font-size="12" font-style="italic" lengthAdjust="spacing" textLength="61.0605" x="933.293" y="254.6355">&#171;process&#187;</text><text fill="#000000" font-family="sans-serif" font-size="14" lengthAdjust="spacing" textLength="154.0684" x="886.7891" y="270.4607">BGM_MSI5422_proc_1</text><line style="stroke:#181818;stroke-width:0.5;" x1="572.25" x2="1322.8965" y1="278.7625" y2="278.7625"/><text fill="#000000" font-family="sans-serif" font-size="14" lengthAdjust="spacing" textLength="180.3457" x="577.25" y="295.7576">Netznutzungsabrechnung</text><text fill="#000000" font-family="sans-serif" font-size="14" lengthAdjust="spacing" textLength="218.0938" x="577.25" y="312.0545">Gesetze: StromNEV, StromNZV</text><text fill="#000000" font-family="sans-serif" font-size="14" lengthAdjust="spacing" textLength="740.6465" x="577.25" y="328.3514">Zusammenfassung: Wie funktioniert die Netznutzungsabrechnung zwischen Netzbetreiber und Lieferant?</text><line style="stroke:#181818;stroke-width:0.5;" x1="572.25" x2="1322.8965" y1="335.6531" y2="335.6531"/></g><!--link BGM_MSI5422 to BGM_MSI5422_msg_1--><g class="link" data-entity-1="BGM_MSI5422" data-entity-2="BGM_MSI5422_msg_1" data-source-line="15" data-uid="lnk4" id="link_BGM_MSI5422_BGM_MSI5422_msg_1"><path codeLine="15" d="M527.32,141.5169 C487.85,164.4469 444.8984,189.3935 401.0784,214.8435" fill="none" id="BGM_MSI5422-to-BGM_MSI5422_msg_1" style="stroke:#181818;stroke-width:1;"/><polygon fill="#181818" points="395.89,217.8569,405.6815,216.7958,400.2137,215.3457,401.6637,209.8779,395.89,217.8569" style="stroke:#181818;stroke-width:1;"/><text fill="#000000" font-family="sans-serif" font-size="13" lengthAdjust="spacing" textLength="85.2363" x="472.57" y="184.2538">verwendet in</text></g><!--link BGM_MSI5422 to BGM_MSI5422_proc_1--><g class="link" data-entity-1="BGM_MSI5422" data-entity-2="BGM_MSI5422_proc_1" data-source-line="21" data-uid="lnk6" id="link_BGM_MSI5422_BGM_MSI5422_proc_1"><path codeLine="21" d="M691.82,141.5169 C742.14,170.7469 801.3419,205.133 852.9319,235.103" fill="none" id="BGM_MSI5422-to-BGM_MSI5422_proc_1" style="stroke:#181818;stroke-width:1;stroke-dasharray:7,7;"/><polygon fill="#181818" points="858.12,238.1169,852.3471,230.1373,853.7966,235.6053,848.3286,237.0548,858.12,238.1169" style="stroke:#181818;stroke-width:1;"/><text fill="#000000" font-family="sans-serif" font-size="13" lengthAdjust="spacing" textLength="91.6221" x="769.57" y="184.2538">eingebettet in</text></g><!--SRC=[TP3HQi9044NV_OhvW1Wqfj0kabAhY6sLje85NyAQJCnYif7TIIqf_VVEsXIarRVXpd3dt4kA2eIn9DII2ccX2wFfNCoNiwim23e9IzOfSQl0PmTW8KiKCC82jxekIpIiFPkgGMjHy0piia1gT4rDhRTMRWmckUQny_NVCYxjDkwtnabkL9AJWDV9_6wyWi2_INZnM6d23vRlgnGFQ0WjXDTzdyajZAjTNQ8co2L1gl2K3DedlaFC2kUTOP4AU92iE3SheD_p80Wz60myv-evkjD8by80lDHO5FXB6yzdqzWHnq4l6FHxGUZlqumpdnROxKPdqWjuHtD0dIA1qcTAsfiguRlXq0rC5KK_ZLqYcwBb5QCjoLJbOhBoscczukswjfBhqHc_uNi1RrnRLkiTgKehxlVOutbpQ0xA9Zdgutw3P51jkEbQf_2aC4CZDTt-IUtxqRau0b3fBR897OD_0m00]--></g></svg>