<svg xmlns="http://www.w3.org/2000/svg" xmlns:xlink="http://www.w3.org/1999/xlink" contentStyleType="text/css" data-diagram-type="CLASS" height="387px" preserveAspectRatio="none" style="width:1970px;height:387px;background:#FFFFFF;" version="1.1" viewBox="0 0 1970 387" width="1970px" zoomAndPan="magnify"><title>Datenatlas - BGM:987</title><defs/><g><g class="title" data-source-line="1"><text fill="#000000" font-family="sans-serif" font-size="14" font-weight="bold" lengthAdjust="spacing" textLength="172.416" x="891.8152" y="22.9951">Datenatlas - BGM:987</text></g><!--class BGM_987--><g class="entity" data-entity="BGM_987" data-source-line="2" data-uid="ent0002" id="entity_BGM_987"><rect fill="#F1F1F1" height="113.1875" rx="2.5" ry="2.5" style="stroke:#181818;stroke-width:0.5;" width="360.3525" x="618.55" y="44.2969"/><ellipse cx="761.3493" cy="60.2969" fill="#ADD1B2" rx="11" ry="11" style="stroke:#181818;stroke-width:1;"/><path d="M764.3181,65.9375 Q763.7399,66.2344 763.0993,66.375 Q762.4587,66.5313 761.7556,66.5313 Q759.2556,66.5313 757.9274,64.8906 Q756.6149,63.2344 756.6149,60.1094 Q756.6149,56.9844 757.9274,55.3281 Q759.2556,53.6719 761.7556,53.6719 Q762.4587,53.6719 763.0993,53.8281 Q763.7556,53.9844 764.3181,54.2813 L764.3181,57 Q763.6931,56.4219 763.0993,56.1563 Q762.5056,55.875 761.8806,55.875 Q760.5368,55.875 759.8493,56.9531 Q759.1618,58.0156 759.1618,60.1094 Q759.1618,62.2031 759.8493,63.2813 Q760.5368,64.3438 761.8806,64.3438 Q762.5056,64.3438 763.0993,64.0781 Q763.6931,63.7969 764.3181,63.2188 L764.3181,65.9375 Z " fill="#000000"/><text fill="#000000" font-family="sans-serif" font-size="14" lengthAdjust="spacing" textLength="66.2539" x="781.8493" y="65.1436">BGM_987</text><line style="stroke:#181818;stroke-width:0.5;" x1="619.55" x2="977.9025" y1="76.2969" y2="76.2969"/><text fill="#000000" font-family="sans-serif" font-size="14" lengthAdjust="spacing" textLength="111.1934" x="638.55" y="93.292">Name: Funktion</text><text fill="#000000" font-family="sans-serif" font-size="14" lengthAdjust="spacing" textLength="66.6436" x="638.55" y="109.5889">Prozesse:</text><rect fill="none" height="6" style="stroke:#C82930;stroke-width:1;" width="6" x="626.55" y="119.5391"/><text fill="#000000" font-family="sans-serif" font-size="14" lengthAdjust="spacing" textLength="334.3525" x="638.55" y="125.8857">Anforderung und &#220;bermittlung von Messwerten</text><rect fill="none" height="6" style="stroke:#C82930;stroke-width:1;" width="6" x="626.55" y="135.8359"/><text fill="#000000" font-family="sans-serif" font-size="14" lengthAdjust="spacing" textLength="180.3457" x="638.55" y="142.1826">Netznutzungsabrechnung</text><line style="stroke:#181818;stroke-width:0.5;" x1="619.55" x2="977.9025" y1="149.4844" y2="149.4844"/></g><!--class BGM_987_msg_1--><g class="entity" data-entity="BGM_987_msg_1" data-source-line="8" data-uid="ent0003" id="entity_BGM_987_msg_1"><rect fill="#F1F1F1" height="145.7813" rx="2.5" ry="2.5" style="stroke:#181818;stroke-width:0.5;" width="417.4463" x="7" y="234.4869"/><ellipse cx="151.9834" cy="250.4869" fill="#ADD1B2" rx="11" ry="11" style="stroke:#181818;stroke-width:1;"/><path d="M154.9521,256.1275 Q154.374,256.4244 153.7334,256.565 Q153.0928,256.7213 152.3896,256.7213 Q149.8896,256.7213 148.5615,255.0806 Q147.249,253.4244 147.249,250.2994 Q147.249,247.1744 148.5615,245.5181 Q149.8896,243.8619 152.3896,243.8619 Q153.0928,243.8619 153.7334,244.0181 Q154.3896,244.1744 154.9521,244.4713 L154.9521,247.19 Q154.3271,246.6119 153.7334,246.3463 Q153.1396,246.065 152.5146,246.065 Q151.1709,246.065 150.4834,247.1431 Q149.7959,248.2056 149.7959,250.2994 Q149.7959,252.3931 150.4834,253.4713 Q151.1709,254.5338 152.5146,254.5338 Q153.1396,254.5338 153.7334,254.2681 Q154.3271,253.9869 154.9521,253.4088 L154.9521,256.1275 Z " fill="#000000"/><text fill="#000000" font-family="sans-serif" font-size="14" lengthAdjust="spacing" textLength="118.9795" x="172.4834" y="255.3336">BGM_987_msg_1</text><line style="stroke:#181818;stroke-width:0.5;" x1="8" x2="423.4463" y1="266.4869" y2="266.4869"/><text fill="#000000" font-family="sans-serif" font-size="14" lengthAdjust="spacing" textLength="172.0264" x="13" y="283.482">Nachricht: MSCONS 2.4c</text><text fill="#000000" font-family="sans-serif" font-size="14" lengthAdjust="spacing" textLength="204.1143" x="13" y="299.7789">Kontext: Nachrichtenstruktur</text><text fill="#000000" font-family="sans-serif" font-size="14" lengthAdjust="spacing" textLength="91.4033" x="13" y="316.0757">Pflichtfeld: Ja</text><text fill="#000000" font-family="sans-serif" font-size="14" lengthAdjust="spacing" textLength="153.166" x="13" y="332.3726">Codes: 10, 24, 52, UN</text><text fill="#000000" font-family="sans-serif" font-size="14" lengthAdjust="spacing" textLength="405.4463" x="13" y="348.6695">Prozesse: Anforderung und &#220;bermittlung von Messwerten</text><text fill="#000000" font-family="sans-serif" font-size="14" lengthAdjust="spacing" textLength="294.1641" x="13" y="364.9664">Quelle: MSCONS_MIG_2_4c_20231024.pdf</text><line style="stroke:#181818;stroke-width:0.5;" x1="8" x2="423.4463" y1="372.2681" y2="372.2681"/></g><!--class BGM_987_msg_2--><g class="entity" data-entity="BGM_987_msg_2" data-source-line="17" data-uid="ent0005" id="entity_BGM_987_msg_2"><rect fill="#F1F1F1" height="145.7813" rx="2.5" ry="2.5" style="stroke:#181818;stroke-width:0.5;" width="303.0811" x="459.18" y="234.4869"/><ellipse cx="546.9808" cy="250.4869" fill="#ADD1B2" rx="11" ry="11" style="stroke:#181818;stroke-width:1;"/><path d="M549.9495,256.1275 Q549.3714,256.4244 548.7308,256.565 Q548.0902,256.7213 547.387,256.7213 Q544.887,256.7213 543.5589,255.0806 Q542.2464,253.4244 542.2464,250.2994 Q542.2464,247.1744 543.5589,245.5181 Q544.887,243.8619 547.387,243.8619 Q548.0902,243.8619 548.7308,244.0181 Q549.387,244.1744 549.9495,244.4713 L549.9495,247.19 Q549.3245,246.6119 548.7308,246.3463 Q548.137,246.065 547.512,246.065 Q546.1683,246.065 545.4808,247.1431 Q544.7933,248.2056 544.7933,250.2994 Q544.7933,252.3931 545.4808,253.4713 Q546.1683,254.5338 547.512,254.5338 Q548.137,254.5338 548.7308,254.2681 Q549.3245,253.9869 549.9495,253.4088 L549.9495,256.1275 Z " fill="#000000"/><text fill="#000000" font-family="sans-serif" font-size="14" lengthAdjust="spacing" textLength="118.9795" x="567.4808" y="255.3336">BGM_987_msg_2</text><line style="stroke:#181818;stroke-width:0.5;" x1="460.18" x2="761.2611" y1="266.4869" y2="266.4869"/><text fill="#000000" font-family="sans-serif" font-size="14" lengthAdjust="spacing" textLength="171.4932" x="465.18" y="283.482">Nachricht: REMADV 2.9c</text><text fill="#000000" font-family="sans-serif" font-size="14" lengthAdjust="spacing" textLength="204.1143" x="465.18" y="299.7789">Kontext: Nachrichtenstruktur</text><text fill="#000000" font-family="sans-serif" font-size="14" lengthAdjust="spacing" textLength="91.4033" x="465.18" y="316.0757">Pflichtfeld: Ja</text><text fill="#000000" font-family="sans-serif" font-size="14" lengthAdjust="spacing" textLength="227.6572" x="465.18" y="332.3726">Codes: 10, 24, 33, ABC, UN, XYZ</text><text fill="#000000" font-family="sans-serif" font-size="14" lengthAdjust="spacing" textLength="251.4395" x="465.18" y="348.6695">Prozesse: Netznutzungsabrechnung</text><text fill="#000000" font-family="sans-serif" font-size="14" lengthAdjust="spacing" textLength="291.0811" x="465.18" y="364.9664">Quelle: REMADV_MIG_2.9c_20231024.pdf</text><line style="stroke:#181818;stroke-width:0.5;" x1="460.18" x2="761.2611" y1="372.2681" y2="372.2681"/></g><!--class BGM_987_proc_1--><g class="entity" data-entity="BGM_987_proc_1" data-source-line="26" data-uid="ent0007" id="entity_BGM_987_proc_1"><rect fill="#F1F1F1" height="105.1563" rx="2.5" ry="2.5" style="stroke:#181818;stroke-width:0.5;" width="378.2285" x="797.61" y="254.7969"/><ellipse cx="922.4411" cy="274.9297" fill="#ADD1B2" rx="11" ry="11" style="stroke:#181818;stroke-width:1;"/><path d="M925.4098,280.5703 Q924.8317,280.8672 924.1911,281.0078 Q923.5504,281.1641 922.8473,281.1641 Q920.3473,281.1641 919.0192,279.5234 Q917.7067,277.8672 917.7067,274.7422 Q917.7067,271.6172 919.0192,269.9609 Q920.3473,268.3047 922.8473,268.3047 Q923.5504,268.3047 924.1911,268.4609 Q924.8473,268.6172 925.4098,268.9141 L925.4098,271.6328 Q924.7848,271.0547 924.1911,270.7891 Q923.5973,270.5078 922.9723,270.5078 Q921.6286,270.5078 920.9411,271.5859 Q920.2536,272.6484 920.2536,274.7422 Q920.2536,276.8359 920.9411,277.9141 Q921.6286,278.9766 922.9723,278.9766 Q923.5973,278.9766 924.1911,278.7109 Q924.7848,278.4297 925.4098,277.8516 L925.4098,280.5703 Z " fill="#000000"/><text fill="#000000" font-family="sans-serif" font-size="12" font-style="italic" lengthAdjust="spacing" textLength="61.0605" x="972.444" y="270.9355">&#171;process&#187;</text><text fill="#000000" font-family="sans-serif" font-size="14" lengthAdjust="spacing" textLength="120.0664" x="942.9411" y="286.7607">BGM_987_proc_1</text><line style="stroke:#181818;stroke-width:0.5;" x1="798.61" x2="1174.8385" y1="295.0625" y2="295.0625"/><text fill="#000000" font-family="sans-serif" font-size="14" lengthAdjust="spacing" textLength="334.3525" x="803.61" y="312.0576">Anforderung und &#220;bermittlung von Messwerten</text><text fill="#000000" font-family="sans-serif" font-size="14" lengthAdjust="spacing" textLength="105.0957" x="803.61" y="328.3545">Gesetze: MsbG</text><line style="stroke:#181818;stroke-width:0.5;" x1="798.61" x2="1174.8385" y1="335.6563" y2="335.6563"/><text fill="#000000" font-family="sans-serif" font-size="14" lengthAdjust="spacing" textLength="366.2285" x="803.61" y="352.6514">Zusammenfassung: Wie kann ein Marktpartner (z.B.</text></g><!--class BGM_987_proc_2--><g class="entity" data-entity="BGM_987_proc_2" data-source-line="32" data-uid="ent0009" id="entity_BGM_987_proc_2"><rect fill="#F1F1F1" height="105.1563" rx="2.5" ry="2.5" style="stroke:#181818;stroke-width:0.5;" width="752.6465" x="1210.4" y="254.7969"/><ellipse cx="1522.44" cy="274.9297" fill="#ADD1B2" rx="11" ry="11" style="stroke:#181818;stroke-width:1;"/><path d="M1525.4088,280.5703 Q1524.8307,280.8672 1524.19,281.0078 Q1523.5494,281.1641 1522.8463,281.1641 Q1520.3463,281.1641 1519.0182,279.5234 Q1517.7057,277.8672 1517.7057,274.7422 Q1517.7057,271.6172 1519.0182,269.9609 Q1520.3463,268.3047 1522.8463,268.3047 Q1523.5494,268.3047 1524.19,268.4609 Q1524.8463,268.6172 1525.4088,268.9141 L1525.4088,271.6328 Q1524.7838,271.0547 1524.19,270.7891 Q1523.5963,270.5078 1522.9713,270.5078 Q1521.6275,270.5078 1520.94,271.5859 Q1520.2525,272.6484 1520.2525,274.7422 Q1520.2525,276.8359 1520.94,277.9141 Q1521.6275,278.9766 1522.9713,278.9766 Q1523.5963,278.9766 1524.19,278.7109 Q1524.7838,278.4297 1525.4088,277.8516 L1525.4088,280.5703 Z " fill="#000000"/><text fill="#000000" font-family="sans-serif" font-size="12" font-style="italic" lengthAdjust="spacing" textLength="61.0605" x="1572.443" y="270.9355">&#171;process&#187;</text><text fill="#000000" font-family="sans-serif" font-size="14" lengthAdjust="spacing" textLength="120.0664" x="1542.94" y="286.7607">BGM_987_proc_2</text><line style="stroke:#181818;stroke-width:0.5;" x1="1211.4" x2="1962.0465" y1="295.0625" y2="295.0625"/><text fill="#000000" font-family="sans-serif" font-size="14" lengthAdjust="spacing" textLength="180.3457" x="1216.4" y="312.0576">Netznutzungsabrechnung</text><text fill="#000000" font-family="sans-serif" font-size="14" lengthAdjust="spacing" textLength="218.0938" x="1216.4" y="328.3545">Gesetze: StromNEV, StromNZV</text><text fill="#000000" font-family="sans-serif" font-size="14" lengthAdjust="spacing" textLength="740.6465" x="1216.4" y="344.6514">Zusammenfassung: Wie funktioniert die Netznutzungsabrechnung zwischen Netzbetreiber und Lieferant?</text><line style="stroke:#181818;stroke-width:0.5;" x1="1211.4" x2="1962.0465" y1="351.9531" y2="351.9531"/></g><!--link BGM_987 to BGM_987_msg_1--><g class="link" data-entity-1="BGM_987" data-entity-2="BGM_987_msg_1" data-source-line="16" data-uid="lnk4" id="link_BGM_987_BGM_987_msg_1"><path codeLine="16" d="M639.03,157.9069 C572.03,181.4069 498.9219,207.0511 427.6119,232.0611" fill="none" id="BGM_987-to-BGM_987_msg_1" style="stroke:#181818;stroke-width:1;"/><polygon fill="#181818" points="421.95,234.0469,431.7666,234.8428,426.6682,232.3921,429.119,227.2937,421.95,234.0469" style="stroke:#181818;stroke-width:1;"/><text fill="#000000" font-family="sans-serif" font-size="13" lengthAdjust="spacing" textLength="85.2363" x="543.72" y="200.5538">verwendet in</text></g><!--link BGM_987 to BGM_987_msg_2--><g class="link" data-entity-1="BGM_987" data-entity-2="BGM_987_msg_2" data-source-line="25" data-uid="lnk6" id="link_BGM_987_BGM_987_msg_2"><path codeLine="25" d="M747.35,157.7669 C725.72,181.2969 704.3209,204.57 681.2809,229.63" fill="none" id="BGM_987-to-BGM_987_msg_2" style="stroke:#181818;stroke-width:1;"/><polygon fill="#181818" points="677.22,234.0469,686.2559,230.1288,680.6041,230.3661,680.3667,224.7142,677.22,234.0469" style="stroke:#181818;stroke-width:1;"/><text fill="#000000" font-family="sans-serif" font-size="13" lengthAdjust="spacing" textLength="85.2363" x="717.72" y="200.5538">verwendet in</text></g><!--link BGM_987 to BGM_987_proc_1--><g class="link" data-entity-1="BGM_987" data-entity-2="BGM_987_proc_1" data-source-line="31" data-uid="lnk8" id="link_BGM_987_BGM_987_proc_1"><path codeLine="31" d="M850.09,157.7669 C877.82,187.9169 907.7592,220.4899 934.8992,250.0099" fill="none" id="BGM_987-to-BGM_987_proc_1" style="stroke:#181818;stroke-width:1;stroke-dasharray:7,7;"/><polygon fill="#181818" points="938.96,254.4269,935.8134,245.0942,935.576,250.7461,929.9241,250.5087,938.96,254.4269" style="stroke:#181818;stroke-width:1;"/><text fill="#000000" font-family="sans-serif" font-size="13" lengthAdjust="spacing" textLength="91.6221" x="893.72" y="200.5538">eingebettet in</text></g><!--link BGM_987 to BGM_987_proc_2--><g class="link" data-entity-1="BGM_987" data-entity-2="BGM_987_proc_2" data-source-line="37" data-uid="lnk10" id="link_BGM_987_BGM_987_proc_2"><path codeLine="37" d="M979.01,148.6769 C1100.43,180.1869 1254.8623,220.26 1380.3123,252.81" fill="none" id="BGM_987-to-BGM_987_proc_2" style="stroke:#181818;stroke-width:1;stroke-dasharray:7,7;"/><polygon fill="#181818" points="1386.12,254.3169,1378.4131,248.1847,1381.2803,253.0611,1376.4039,255.9283,1386.12,254.3169" style="stroke:#181818;stroke-width:1;"/><text fill="#000000" font-family="sans-serif" font-size="13" lengthAdjust="spacing" textLength="91.6221" x="1193.72" y="200.5538">eingebettet in</text></g><!--SRC=[hPFTRjfG3CVlUGfVxY94S63Q6bLCG3kqZsGVQ6pZ9Zea3XoHEEWSfrIPzYPxcxtO74gxbfPgbNPd-zZn__UtmePpX3FDI9fpxQ0DeqaOdBnyqKeaTKqMImO_MW2HBZ20rnMjsPGaXO-shD4v32G66HrILjeKRKLBg2Y5txyMQ0l3d3ULYv8WbFOjMbct7ucGQwgubWQd5nQJ5KdO-dbtVLouPTpTYqXMrYGh3Y2SZZz4Kr1-Fv67ToKnNahvfWF9iQtMNDb6QvOtjGppD82tMYhZCaKNGBVZWUfxy5nvy2MwJVLKdayLvZbUwuh3DvDOnVqaLXtLwtPKtz-acP1TMzfk3mxu0hX0kqLAaS7G0nQeGmi-duV3ivbOSF8_BEZrF1YEneqF7dpxFhzZnf5B_SM-qdA5BNh-5LizZhsnPIBMd9usWIWP37OUFF4q4tGYlxcDMqmadrTE5mLI9gja882l1c6jYG2DZ6gxvessJ6ZXMUsF_5lwVNzmA2veffQuGEQZ2EeUmb53RyHEsPP5T3xpzj5yTanwjlyfZG13AeM7FmxrrhXaXRHx5xqMZVYsS_2zmGoj9dxr6Aow1_i7]--></g></svg>