<svg xmlns="http://www.w3.org/2000/svg" xmlns:xlink="http://www.w3.org/1999/xlink" contentStyleType="text/css" data-diagram-type="CLASS" height="370px" preserveAspectRatio="none" style="width:1788px;height:370px;background:#FFFFFF;" version="1.1" viewBox="0 0 1788 370" width="1788px" zoomAndPan="magnify"><title>Datenatlas - BGM:1229</title><defs/><g><g class="title" data-source-line="1"><text fill="#000000" font-family="sans-serif" font-size="14" font-weight="bold" lengthAdjust="spacing" textLength="182.1572" x="796.0706" y="22.9951">Datenatlas - BGM:1229</text></g><!--class BGM_1229--><g class="entity" data-entity="BGM_1229" data-source-line="2" data-uid="ent0002" id="entity_BGM_1229"><rect fill="#F1F1F1" height="96.8906" rx="2.5" ry="2.5" style="stroke:#181818;stroke-width:0.5;" width="360.3525" x="741.01" y="44.2969"/><ellipse cx="879.3557" cy="60.2969" fill="#ADD1B2" rx="11" ry="11" style="stroke:#181818;stroke-width:1;"/><path d="M882.3245,65.9375 Q881.7463,66.2344 881.1057,66.375 Q880.4651,66.5313 879.762,66.5313 Q877.262,66.5313 875.9338,64.8906 Q874.6213,63.2344 874.6213,60.1094 Q874.6213,56.9844 875.9338,55.3281 Q877.262,53.6719 879.762,53.6719 Q880.4651,53.6719 881.1057,53.8281 Q881.762,53.9844 882.3245,54.2813 L882.3245,57 Q881.6995,56.4219 881.1057,56.1563 Q880.512,55.875 879.887,55.875 Q878.5432,55.875 877.8557,56.9531 Q877.1682,58.0156 877.1682,60.1094 Q877.1682,62.2031 877.8557,63.2813 Q878.5432,64.3438 879.887,64.3438 Q880.512,64.3438 881.1057,64.0781 Q881.6995,63.7969 882.3245,63.2188 L882.3245,65.9375 Z " fill="#000000"/><text fill="#000000" font-family="sans-serif" font-size="14" lengthAdjust="spacing" textLength="75.1611" x="899.8557" y="65.1436">BGM_1229</text><line style="stroke:#181818;stroke-width:0.5;" x1="742.01" x2="1100.3625" y1="76.2969" y2="76.2969"/><text fill="#000000" font-family="sans-serif" font-size="14" lengthAdjust="spacing" textLength="194.0449" x="761.01" y="93.292">Name: Antwortkennzeichen</text><text fill="#000000" font-family="sans-serif" font-size="14" lengthAdjust="spacing" textLength="66.6436" x="761.01" y="109.5889">Prozesse:</text><rect fill="none" height="6" style="stroke:#C82930;stroke-width:1;" width="6" x="749.01" y="119.5391"/><text fill="#000000" font-family="sans-serif" font-size="14" lengthAdjust="spacing" textLength="334.3525" x="761.01" y="125.8857">Anforderung und &#220;bermittlung von Messwerten</text><line style="stroke:#181818;stroke-width:0.5;" x1="742.01" x2="1100.3625" y1="133.1875" y2="133.1875"/></g><!--class BGM_1229_msg_1--><g class="entity" data-entity="BGM_1229_msg_1" data-source-line="7" data-uid="ent0003" id="entity_BGM_1229_msg_1"><rect fill="#F1F1F1" height="129.4844" rx="2.5" ry="2.5" style="stroke:#181818;stroke-width:0.5;" width="430.3662" x="7" y="226.3369"/><ellipse cx="153.9897" cy="242.3369" fill="#ADD1B2" rx="11" ry="11" style="stroke:#181818;stroke-width:1;"/><path d="M156.9585,247.9775 Q156.3804,248.2744 155.7397,248.415 Q155.0991,248.5713 154.396,248.5713 Q151.896,248.5713 150.5679,246.9306 Q149.2554,245.2744 149.2554,242.1494 Q149.2554,239.0244 150.5679,237.3681 Q151.896,235.7119 154.396,235.7119 Q155.0991,235.7119 155.7397,235.8681 Q156.396,236.0244 156.9585,236.3213 L156.9585,239.04 Q156.3335,238.4619 155.7397,238.1963 Q155.146,237.915 154.521,237.915 Q153.1772,237.915 152.4897,238.9931 Q151.8022,240.0556 151.8022,242.1494 Q151.8022,244.2431 152.4897,245.3213 Q153.1772,246.3838 154.521,246.3838 Q155.146,246.3838 155.7397,246.1181 Q156.3335,245.8369 156.9585,245.2588 L156.9585,247.9775 Z " fill="#000000"/><text fill="#000000" font-family="sans-serif" font-size="14" lengthAdjust="spacing" textLength="127.8867" x="174.4897" y="247.1836">BGM_1229_msg_1</text><line style="stroke:#181818;stroke-width:0.5;" x1="8" x2="436.3662" y1="258.3369" y2="258.3369"/><text fill="#000000" font-family="sans-serif" font-size="14" lengthAdjust="spacing" textLength="169.4424" x="13" y="275.332">Nachricht: CONTRL 2.0b</text><text fill="#000000" font-family="sans-serif" font-size="14" lengthAdjust="spacing" textLength="289.0918" x="13" y="291.6289">Kontext: ein Gruppendatenelement fehlt.</text><text fill="#000000" font-family="sans-serif" font-size="14" lengthAdjust="spacing" textLength="91.4033" x="13" y="307.9257">Pflichtfeld: Ja</text><text fill="#000000" font-family="sans-serif" font-size="14" lengthAdjust="spacing" textLength="123.5459" x="13" y="324.2226">Codes: 07, 17, 26</text><text fill="#000000" font-family="sans-serif" font-size="14" lengthAdjust="spacing" textLength="418.3662" x="13" y="340.5195">Quelle: CONTRL_MIG_2_0b_au&#223;erordentliche_20240726.pdf</text><line style="stroke:#181818;stroke-width:0.5;" x1="8" x2="436.3662" y1="347.8213" y2="347.8213"/></g><!--class BGM_1229_msg_2--><g class="entity" data-entity="BGM_1229_msg_2" data-source-line="15" data-uid="ent0005" id="entity_BGM_1229_msg_2"><rect fill="#F1F1F1" height="145.7813" rx="2.5" ry="2.5" style="stroke:#181818;stroke-width:0.5;" width="432.9502" x="472.71" y="218.1869"/><ellipse cx="620.9917" cy="234.1869" fill="#ADD1B2" rx="11" ry="11" style="stroke:#181818;stroke-width:1;"/><path d="M623.9605,239.8275 Q623.3824,240.1244 622.7417,240.265 Q622.1011,240.4213 621.398,240.4213 Q618.898,240.4213 617.5699,238.7806 Q616.2574,237.1244 616.2574,233.9994 Q616.2574,230.8744 617.5699,229.2181 Q618.898,227.5619 621.398,227.5619 Q622.1011,227.5619 622.7417,227.7181 Q623.398,227.8744 623.9605,228.1713 L623.9605,230.89 Q623.3355,230.3119 622.7417,230.0463 Q622.148,229.765 621.523,229.765 Q620.1792,229.765 619.4917,230.8431 Q618.8042,231.9056 618.8042,233.9994 Q618.8042,236.0931 619.4917,237.1713 Q620.1792,238.2338 621.523,238.2338 Q622.148,238.2338 622.7417,237.9681 Q623.3355,237.6869 623.9605,237.1088 L623.9605,239.8275 Z " fill="#000000"/><text fill="#000000" font-family="sans-serif" font-size="14" lengthAdjust="spacing" textLength="127.8867" x="641.4917" y="239.0336">BGM_1229_msg_2</text><line style="stroke:#181818;stroke-width:0.5;" x1="473.71" x2="904.6602" y1="250.1869" y2="250.1869"/><text fill="#000000" font-family="sans-serif" font-size="14" lengthAdjust="spacing" textLength="172.0264" x="478.71" y="267.182">Nachricht: MSCONS 2.4c</text><text fill="#000000" font-family="sans-serif" font-size="14" lengthAdjust="spacing" textLength="149.3447" x="478.71" y="283.4789">Kontext: Bemerkung:</text><text fill="#000000" font-family="sans-serif" font-size="14" lengthAdjust="spacing" textLength="91.4033" x="478.71" y="299.7757">Pflichtfeld: Ja</text><text fill="#000000" font-family="sans-serif" font-size="14" lengthAdjust="spacing" textLength="83.5488" x="478.71" y="316.0726">Codes: UNH</text><text fill="#000000" font-family="sans-serif" font-size="14" lengthAdjust="spacing" textLength="405.4463" x="478.71" y="332.3695">Prozesse: Anforderung und &#220;bermittlung von Messwerten</text><text fill="#000000" font-family="sans-serif" font-size="14" lengthAdjust="spacing" textLength="420.9502" x="478.71" y="348.6664">Quelle: MSCONS_MIG_2_4c_au&#223;erordentliche_20240726.pdf</text><line style="stroke:#181818;stroke-width:0.5;" x1="473.71" x2="904.6602" y1="355.9681" y2="355.9681"/></g><!--class BGM_1229_msg_3--><g class="entity" data-entity="BGM_1229_msg_3" data-source-line="24" data-uid="ent0007" id="entity_BGM_1229_msg_3"><rect fill="#F1F1F1" height="129.4844" rx="2.5" ry="2.5" style="stroke:#181818;stroke-width:0.5;" width="426.8115" x="940.78" y="226.3369"/><ellipse cx="1085.9924" cy="242.3369" fill="#ADD1B2" rx="11" ry="11" style="stroke:#181818;stroke-width:1;"/><path d="M1088.9612,247.9775 Q1088.383,248.2744 1087.7424,248.415 Q1087.1018,248.5713 1086.3987,248.5713 Q1083.8987,248.5713 1082.5705,246.9306 Q1081.258,245.2744 1081.258,242.1494 Q1081.258,239.0244 1082.5705,237.3681 Q1083.8987,235.7119 1086.3987,235.7119 Q1087.1018,235.7119 1087.7424,235.8681 Q1088.3987,236.0244 1088.9612,236.3213 L1088.9612,239.04 Q1088.3362,238.4619 1087.7424,238.1963 Q1087.1487,237.915 1086.5237,237.915 Q1085.1799,237.915 1084.4924,238.9931 Q1083.8049,240.0556 1083.8049,242.1494 Q1083.8049,244.2431 1084.4924,245.3213 Q1085.1799,246.3838 1086.5237,246.3838 Q1087.1487,246.3838 1087.7424,246.1181 Q1088.3362,245.8369 1088.9612,245.2588 L1088.9612,247.9775 Z " fill="#000000"/><text fill="#000000" font-family="sans-serif" font-size="14" lengthAdjust="spacing" textLength="127.8867" x="1106.4924" y="247.1836">BGM_1229_msg_3</text><line style="stroke:#181818;stroke-width:0.5;" x1="941.78" x2="1366.5915" y1="258.3369" y2="258.3369"/><text fill="#000000" font-family="sans-serif" font-size="14" lengthAdjust="spacing" textLength="165.8877" x="946.78" y="275.332">Nachricht: ORDCHG 1.1</text><text fill="#000000" font-family="sans-serif" font-size="14" lengthAdjust="spacing" textLength="123.0605" x="946.78" y="291.6289">Kontext: Beispiel:</text><text fill="#000000" font-family="sans-serif" font-size="14" lengthAdjust="spacing" textLength="91.4033" x="946.78" y="307.9257">Pflichtfeld: Ja</text><text fill="#000000" font-family="sans-serif" font-size="14" lengthAdjust="spacing" textLength="123.5459" x="946.78" y="324.2226">Codes: 07, 18, 26</text><text fill="#000000" font-family="sans-serif" font-size="14" lengthAdjust="spacing" textLength="414.8115" x="946.78" y="340.5195">Quelle: ORDCHG_MIG_1_1_au&#223;erordentliche_20240726.pdf</text><line style="stroke:#181818;stroke-width:0.5;" x1="941.78" x2="1366.5915" y1="347.8213" y2="347.8213"/></g><!--class BGM_1229_proc_1--><g class="entity" data-entity="BGM_1229_proc_1" data-source-line="32" data-uid="ent0009" id="entity_BGM_1229_proc_1"><rect fill="#F1F1F1" height="105.1563" rx="2.5" ry="2.5" style="stroke:#181818;stroke-width:0.5;" width="378.2285" x="1403.07" y="238.4969"/><ellipse cx="1523.4474" cy="258.6297" fill="#ADD1B2" rx="11" ry="11" style="stroke:#181818;stroke-width:1;"/><path d="M1526.4162,264.2703 Q1525.8381,264.5672 1525.1974,264.7078 Q1524.5568,264.8641 1523.8537,264.8641 Q1521.3537,264.8641 1520.0256,263.2234 Q1518.7131,261.5672 1518.7131,258.4422 Q1518.7131,255.3172 1520.0256,253.6609 Q1521.3537,252.0047 1523.8537,252.0047 Q1524.5568,252.0047 1525.1974,252.1609 Q1525.8537,252.3172 1526.4162,252.6141 L1526.4162,255.3328 Q1525.7912,254.7547 1525.1974,254.4891 Q1524.6037,254.2078 1523.9787,254.2078 Q1522.6349,254.2078 1521.9474,255.2859 Q1521.2599,256.3484 1521.2599,258.4422 Q1521.2599,260.5359 1521.9474,261.6141 Q1522.6349,262.6766 1523.9787,262.6766 Q1524.6037,262.6766 1525.1974,262.4109 Q1525.7912,262.1297 1526.4162,261.5516 L1526.4162,264.2703 Z " fill="#000000"/><text fill="#000000" font-family="sans-serif" font-size="12" font-style="italic" lengthAdjust="spacing" textLength="61.0605" x="1577.904" y="254.6355">&#171;process&#187;</text><text fill="#000000" font-family="sans-serif" font-size="14" lengthAdjust="spacing" textLength="128.9736" x="1543.9474" y="270.4607">BGM_1229_proc_1</text><line style="stroke:#181818;stroke-width:0.5;" x1="1404.07" x2="1780.2985" y1="278.7625" y2="278.7625"/><text fill="#000000" font-family="sans-serif" font-size="14" lengthAdjust="spacing" textLength="334.3525" x="1409.07" y="295.7576">Anforderung und &#220;bermittlung von Messwerten</text><text fill="#000000" font-family="sans-serif" font-size="14" lengthAdjust="spacing" textLength="105.0957" x="1409.07" y="312.0545">Gesetze: MsbG</text><line style="stroke:#181818;stroke-width:0.5;" x1="1404.07" x2="1780.2985" y1="319.3563" y2="319.3563"/><text fill="#000000" font-family="sans-serif" font-size="14" lengthAdjust="spacing" textLength="366.2285" x="1409.07" y="336.3514">Zusammenfassung: Wie kann ein Marktpartner (z.B.</text></g><!--link BGM_1229 to BGM_1229_msg_1--><g class="link" data-entity-1="BGM_1229" data-entity-2="BGM_1229_msg_1" data-source-line="14" data-uid="lnk4" id="link_BGM_1229_BGM_1229_msg_1"><path codeLine="14" d="M740.66,140.2269 C654.09,162.9569 549.04,191.1869 455.18,218.1869 C446.54,220.6769 443.4758,221.5525 434.5758,224.1725" fill="none" id="BGM_1229-to-BGM_1229_msg_1" style="stroke:#181818;stroke-width:1;"/><polygon fill="#181818" points="428.82,225.8669,438.5833,227.1625,433.6165,224.4549,436.3241,219.4881,428.82,225.8669" style="stroke:#181818;stroke-width:1;"/><text fill="#000000" font-family="sans-serif" font-size="13" lengthAdjust="spacing" textLength="85.2363" x="623.18" y="184.2538">verwendet in</text></g><!--link BGM_1229 to BGM_1229_msg_2--><g class="link" data-entity-1="BGM_1229" data-entity-2="BGM_1229_msg_2" data-source-line="23" data-uid="lnk6" id="link_BGM_1229_BGM_1229_msg_2"><path codeLine="23" d="M864.73,141.5169 C837.63,164.4469 809.1699,188.5307 779.0999,213.9807" fill="none" id="BGM_1229-to-BGM_1229_msg_2" style="stroke:#181818;stroke-width:1;"/><polygon fill="#181818" points="774.52,217.8569,783.9739,215.0958,778.3365,214.6267,778.8057,208.9893,774.52,217.8569" style="stroke:#181818;stroke-width:1;"/><text fill="#000000" font-family="sans-serif" font-size="13" lengthAdjust="spacing" textLength="85.2363" x="827.18" y="184.2538">verwendet in</text></g><!--link BGM_1229 to BGM_1229_msg_3--><g class="link" data-entity-1="BGM_1229" data-entity-2="BGM_1229_msg_3" data-source-line="31" data-uid="lnk8" id="link_BGM_1229_BGM_1229_msg_3"><path codeLine="31" d="M977.88,141.5169 C1008.06,166.9469 1040.9817,194.6907 1073.6417,222.2107" fill="none" id="BGM_1229-to-BGM_1229_msg_3" style="stroke:#181818;stroke-width:1;"/><polygon fill="#181818" points="1078.23,226.0769,1073.925,217.2187,1074.4064,222.855,1068.7701,223.3364,1078.23,226.0769" style="stroke:#181818;stroke-width:1;"/><text fill="#000000" font-family="sans-serif" font-size="13" lengthAdjust="spacing" textLength="85.2363" x="1032.18" y="184.2538">verwendet in</text></g><!--link BGM_1229 to BGM_1229_proc_1--><g class="link" data-entity-1="BGM_1229" data-entity-2="BGM_1229_proc_1" data-source-line="37" data-uid="lnk10" id="link_BGM_1229_BGM_1229_proc_1"><path codeLine="37" d="M1101.63,138.8969 C1187.87,161.3069 1292.31,189.6469 1385.18,218.1869 C1405.18,224.3369 1420.4534,229.2429 1441.0434,236.1729" fill="none" id="BGM_1229-to-BGM_1229_proc_1" style="stroke:#181818;stroke-width:1;stroke-dasharray:7,7;"/><polygon fill="#181818" points="1446.73,238.0869,1439.4761,231.4249,1441.9912,236.4919,1436.9242,239.007,1446.73,238.0869" style="stroke:#181818;stroke-width:1;"/><text fill="#000000" font-family="sans-serif" font-size="13" lengthAdjust="spacing" textLength="91.6221" x="1273.18" y="184.2538">eingebettet in</text></g><!--SRC=[fPFTQjj048Nl_HHpsOjOI1kJj4imn0ue_P7J9Yc5t8YLDBA5LoknEugBIz-aq8V9YsLMIHDNBKr348ATMJ4ptpaZgaWZd2X2eqWh1sEOnOcCX7WpoZbsFanz2Dz600jLeuHZGvl6qXgDsMALhz3mrKVRRD4vb7m6BdDioiOMQ3kpXCuKSFCZGrjNHDfdhXi32N- -GSkjHzy7pTBQBTFelcM-ijo49CpF5fVd7q04OSONxnj3-9NJM1c8RTUsQ0eFWXfhD0GbhZG5VhHI-m8bwaB2EyMPULEWan0Uxa74hpZWtASEjSPVNTBaRPoADCnIrTtyHEjP3Fawc8fGJC93SH2qHScZFoWq7a-711AkqMvuC2IepDyenP0okU09BfXoakzIpXZAhbax-I-YpulJNI-UvyAZ1dSpt6imoL-YWVWF3VQ76foTdynFOuY2w7S9AjTMgEMJdhuUU7fNh-U9-7a1pluJEArjSlRzwCWVMDhfj6TxfWynEgIjDy9bCSTNdLCrBtN9lVmAm9SAOQsCwPS_KNPDhR9aqCAhRJ0BTX62OFh7UFrFiyGCYNgAMm00]--></g></svg>