<svg xmlns="http://www.w3.org/2000/svg" xmlns:xlink="http://www.w3.org/1999/xlink" contentStyleType="text/css" data-diagram-type="CLASS" height="387px" preserveAspectRatio="none" style="width:2021px;height:387px;background:#FFFFFF;" version="1.1" viewBox="0 0 2021 387" width="2021px" zoomAndPan="magnify"><title>Datenatlas - BGM:457</title><defs/><g><g class="title" data-source-line="1"><text fill="#000000" font-family="sans-serif" font-size="14" font-weight="bold" lengthAdjust="spacing" textLength="172.416" x="917.7558" y="22.9951">Datenatlas - BGM:457</text></g><!--class BGM_457--><g class="entity" data-entity="BGM_457" data-source-line="2" data-uid="ent0002" id="entity_BGM_457"><rect fill="#F1F1F1" height="113.1875" rx="2.5" ry="2.5" style="stroke:#181818;stroke-width:0.5;" width="249.2822" x="789.17" y="44.2969"/><ellipse cx="876.4342" cy="60.2969" fill="#ADD1B2" rx="11" ry="11" style="stroke:#181818;stroke-width:1;"/><path d="M879.4029,65.9375 Q878.8248,66.2344 878.1842,66.375 Q877.5435,66.5313 876.8404,66.5313 Q874.3404,66.5313 873.0123,64.8906 Q871.6998,63.2344 871.6998,60.1094 Q871.6998,56.9844 873.0123,55.3281 Q874.3404,53.6719 876.8404,53.6719 Q877.5435,53.6719 878.1842,53.8281 Q878.8404,53.9844 879.4029,54.2813 L879.4029,57 Q878.7779,56.4219 878.1842,56.1563 Q877.5904,55.875 876.9654,55.875 Q875.6217,55.875 874.9342,56.9531 Q874.2467,58.0156 874.2467,60.1094 Q874.2467,62.2031 874.9342,63.2813 Q875.6217,64.3438 876.9654,64.3438 Q877.5904,64.3438 878.1842,64.0781 Q878.7779,63.7969 879.4029,63.2188 L879.4029,65.9375 Z " fill="#000000"/><text fill="#000000" font-family="sans-serif" font-size="14" lengthAdjust="spacing" textLength="66.2539" x="896.9342" y="65.1436">BGM_457</text><line style="stroke:#181818;stroke-width:0.5;" x1="790.17" x2="1037.4522" y1="76.2969" y2="76.2969"/><text fill="#000000" font-family="sans-serif" font-size="14" lengthAdjust="spacing" textLength="211.3535" x="809.17" y="93.292">Name: Storno einer Belastung</text><text fill="#000000" font-family="sans-serif" font-size="14" lengthAdjust="spacing" textLength="66.6436" x="809.17" y="109.5889">Prozesse:</text><rect fill="none" height="6" style="stroke:#C82930;stroke-width:1;" width="6" x="797.17" y="119.5391"/><text fill="#000000" font-family="sans-serif" font-size="14" lengthAdjust="spacing" textLength="180.3457" x="809.17" y="125.8857">Netznutzungsabrechnung</text><rect fill="none" height="6" style="stroke:#C82930;stroke-width:1;" width="6" x="797.17" y="135.8359"/><text fill="#000000" font-family="sans-serif" font-size="14" lengthAdjust="spacing" textLength="223.2822" x="809.17" y="142.1826">Messstellenbetriebsabrechnung</text><line style="stroke:#181818;stroke-width:0.5;" x1="790.17" x2="1037.4522" y1="149.4844" y2="149.4844"/></g><!--class BGM_457_msg_1--><g class="entity" data-entity="BGM_457_msg_1" data-source-line="8" data-uid="ent0003" id="entity_BGM_457_msg_1"><rect fill="#F1F1F1" height="145.7813" rx="2.5" ry="2.5" style="stroke:#181818;stroke-width:0.5;" width="495.6221" x="7" y="234.4869"/><ellipse cx="191.0713" cy="250.4869" fill="#ADD1B2" rx="11" ry="11" style="stroke:#181818;stroke-width:1;"/><path d="M194.04,256.1275 Q193.4619,256.4244 192.8213,256.565 Q192.1807,256.7213 191.4775,256.7213 Q188.9775,256.7213 187.6494,255.0806 Q186.3369,253.4244 186.3369,250.2994 Q186.3369,247.1744 187.6494,245.5181 Q188.9775,243.8619 191.4775,243.8619 Q192.1807,243.8619 192.8213,244.0181 Q193.4775,244.1744 194.04,244.4713 L194.04,247.19 Q193.415,246.6119 192.8213,246.3463 Q192.2275,246.065 191.6025,246.065 Q190.2588,246.065 189.5713,247.1431 Q188.8838,248.2056 188.8838,250.2994 Q188.8838,252.3931 189.5713,253.4713 Q190.2588,254.5338 191.6025,254.5338 Q192.2275,254.5338 192.8213,254.2681 Q193.415,253.9869 194.04,253.4088 L194.04,256.1275 Z " fill="#000000"/><text fill="#000000" font-family="sans-serif" font-size="14" lengthAdjust="spacing" textLength="118.9795" x="211.5713" y="255.3336">BGM_457_msg_1</text><line style="stroke:#181818;stroke-width:0.5;" x1="8" x2="501.6221" y1="266.4869" y2="266.4869"/><text fill="#000000" font-family="sans-serif" font-size="14" lengthAdjust="spacing" textLength="165.6484" x="13" y="283.482">Nachricht: INVOIC 2.8d.</text><text fill="#000000" font-family="sans-serif" font-size="14" lengthAdjust="spacing" textLength="358.8936" x="13" y="299.7789">Kontext: ausgestellte Rechnung   -   zu verwenden.</text><text fill="#000000" font-family="sans-serif" font-size="14" lengthAdjust="spacing" textLength="91.4033" x="13" y="316.0757">Pflichtfeld: Ja</text><text fill="#000000" font-family="sans-serif" font-size="14" lengthAdjust="spacing" textLength="115.3291" x="13" y="332.3726">Codes: 457, Z25</text><text fill="#000000" font-family="sans-serif" font-size="14" lengthAdjust="spacing" textLength="483.6221" x="13" y="348.6695">Prozesse: Netznutzungsabrechnung, Messstellenbetriebsabrechnung</text><text fill="#000000" font-family="sans-serif" font-size="14" lengthAdjust="spacing" textLength="290.3359" x="13" y="364.9664">Quelle: INVOIC_MIG_2_8d__20240619.pdf</text><line style="stroke:#181818;stroke-width:0.5;" x1="8" x2="501.6221" y1="372.2681" y2="372.2681"/></g><!--class BGM_457_proc_1--><g class="entity" data-entity="BGM_457_proc_1" data-source-line="17" data-uid="ent0005" id="entity_BGM_457_proc_1"><rect fill="#F1F1F1" height="105.1563" rx="2.5" ry="2.5" style="stroke:#181818;stroke-width:0.5;" width="752.6465" x="537.49" y="254.7969"/><ellipse cx="849.53" cy="274.9297" fill="#ADD1B2" rx="11" ry="11" style="stroke:#181818;stroke-width:1;"/><path d="M852.4988,280.5703 Q851.9207,280.8672 851.28,281.0078 Q850.6394,281.1641 849.9363,281.1641 Q847.4363,281.1641 846.1082,279.5234 Q844.7957,277.8672 844.7957,274.7422 Q844.7957,271.6172 846.1082,269.9609 Q847.4363,268.3047 849.9363,268.3047 Q850.6394,268.3047 851.28,268.4609 Q851.9363,268.6172 852.4988,268.9141 L852.4988,271.6328 Q851.8738,271.0547 851.28,270.7891 Q850.6863,270.5078 850.0613,270.5078 Q848.7175,270.5078 848.03,271.5859 Q847.3425,272.6484 847.3425,274.7422 Q847.3425,276.8359 848.03,277.9141 Q848.7175,278.9766 850.0613,278.9766 Q850.6863,278.9766 851.28,278.7109 Q851.8738,278.4297 852.4988,277.8516 L852.4988,280.5703 Z " fill="#000000"/><text fill="#000000" font-family="sans-serif" font-size="12" font-style="italic" lengthAdjust="spacing" textLength="61.0605" x="899.533" y="270.9355">&#171;process&#187;</text><text fill="#000000" font-family="sans-serif" font-size="14" lengthAdjust="spacing" textLength="120.0664" x="870.03" y="286.7607">BGM_457_proc_1</text><line style="stroke:#181818;stroke-width:0.5;" x1="538.49" x2="1289.1365" y1="295.0625" y2="295.0625"/><text fill="#000000" font-family="sans-serif" font-size="14" lengthAdjust="spacing" textLength="180.3457" x="543.49" y="312.0576">Netznutzungsabrechnung</text><text fill="#000000" font-family="sans-serif" font-size="14" lengthAdjust="spacing" textLength="218.0938" x="543.49" y="328.3545">Gesetze: StromNEV, StromNZV</text><text fill="#000000" font-family="sans-serif" font-size="14" lengthAdjust="spacing" textLength="740.6465" x="543.49" y="344.6514">Zusammenfassung: Wie funktioniert die Netznutzungsabrechnung zwischen Netzbetreiber und Lieferant?</text><line style="stroke:#181818;stroke-width:0.5;" x1="538.49" x2="1289.1365" y1="351.9531" y2="351.9531"/></g><!--class BGM_457_proc_2--><g class="entity" data-entity="BGM_457_proc_2" data-source-line="23" data-uid="ent0007" id="entity_BGM_457_proc_2"><rect fill="#F1F1F1" height="105.1563" rx="2.5" ry="2.5" style="stroke:#181818;stroke-width:0.5;" width="690.2275" x="1324.7" y="254.7969"/><ellipse cx="1605.5306" cy="274.9297" fill="#ADD1B2" rx="11" ry="11" style="stroke:#181818;stroke-width:1;"/><path d="M1608.4993,280.5703 Q1607.9212,280.8672 1607.2806,281.0078 Q1606.6399,281.1641 1605.9368,281.1641 Q1603.4368,281.1641 1602.1087,279.5234 Q1600.7962,277.8672 1600.7962,274.7422 Q1600.7962,271.6172 1602.1087,269.9609 Q1603.4368,268.3047 1605.9368,268.3047 Q1606.6399,268.3047 1607.2806,268.4609 Q1607.9368,268.6172 1608.4993,268.9141 L1608.4993,271.6328 Q1607.8743,271.0547 1607.2806,270.7891 Q1606.6868,270.5078 1606.0618,270.5078 Q1604.7181,270.5078 1604.0306,271.5859 Q1603.3431,272.6484 1603.3431,274.7422 Q1603.3431,276.8359 1604.0306,277.9141 Q1604.7181,278.9766 1606.0618,278.9766 Q1606.6868,278.9766 1607.2806,278.7109 Q1607.8743,278.4297 1608.4993,277.8516 L1608.4993,280.5703 Z " fill="#000000"/><text fill="#000000" font-family="sans-serif" font-size="12" font-style="italic" lengthAdjust="spacing" textLength="61.0605" x="1655.5335" y="270.9355">&#171;process&#187;</text><text fill="#000000" font-family="sans-serif" font-size="14" lengthAdjust="spacing" textLength="120.0664" x="1626.0306" y="286.7607">BGM_457_proc_2</text><line style="stroke:#181818;stroke-width:0.5;" x1="1325.7" x2="2013.9275" y1="295.0625" y2="295.0625"/><text fill="#000000" font-family="sans-serif" font-size="14" lengthAdjust="spacing" textLength="223.2822" x="1330.7" y="312.0576">Messstellenbetriebsabrechnung</text><text fill="#000000" font-family="sans-serif" font-size="14" lengthAdjust="spacing" textLength="105.0957" x="1330.7" y="328.3545">Gesetze: MsbG</text><text fill="#000000" font-family="sans-serif" font-size="14" lengthAdjust="spacing" textLength="678.2275" x="1330.7" y="344.6514">Zusammenfassung: Beschreibe den Prozess der Abrechnung von Messstellenbetriebsleistungen.</text><line style="stroke:#181818;stroke-width:0.5;" x1="1325.7" x2="2013.9275" y1="351.9531" y2="351.9531"/></g><!--link BGM_457 to BGM_457_msg_1--><g class="link" data-entity-1="BGM_457" data-entity-2="BGM_457_msg_1" data-source-line="16" data-uid="lnk4" id="link_BGM_457_BGM_457_msg_1"><path codeLine="16" d="M788.7,140.7169 C703.86,167.0369 594.8904,200.8485 493.5504,232.2985" fill="none" id="BGM_457-to-BGM_457_msg_1" style="stroke:#181818;stroke-width:1;"/><polygon fill="#181818" points="487.82,234.0769,497.6012,235.2296,492.5953,232.5949,495.23,227.589,487.82,234.0769" style="stroke:#181818;stroke-width:1;"/><text fill="#000000" font-family="sans-serif" font-size="13" lengthAdjust="spacing" textLength="85.2363" x="624.81" y="200.5538">verwendet in</text></g><!--link BGM_457 to BGM_457_proc_1--><g class="link" data-entity-1="BGM_457" data-entity-2="BGM_457_proc_1" data-source-line="22" data-uid="lnk6" id="link_BGM_457_BGM_457_proc_1"><path codeLine="22" d="M913.81,157.7669 C913.81,187.9169 913.81,218.9069 913.81,248.4269" fill="none" id="BGM_457-to-BGM_457_proc_1" style="stroke:#181818;stroke-width:1;stroke-dasharray:7,7;"/><polygon fill="#181818" points="913.81,254.4269,917.81,245.4269,913.81,249.4269,909.81,245.4269,913.81,254.4269" style="stroke:#181818;stroke-width:1;"/><text fill="#000000" font-family="sans-serif" font-size="13" lengthAdjust="spacing" textLength="91.6221" x="914.81" y="200.5538">eingebettet in</text></g><!--link BGM_457 to BGM_457_proc_2--><g class="link" data-entity-1="BGM_457" data-entity-2="BGM_457_proc_2" data-source-line="28" data-uid="lnk8" id="link_BGM_457_BGM_457_proc_2"><path codeLine="28" d="M1038.65,135.6569 C1157.96,167.9269 1333.7682,215.4802 1471.5882,252.7602" fill="none" id="BGM_457-to-BGM_457_proc_2" style="stroke:#181818;stroke-width:1;stroke-dasharray:7,7;"/><polygon fill="#181818" points="1477.38,254.3269,1469.7367,248.1156,1472.5535,253.0213,1467.6478,255.8381,1477.38,254.3269" style="stroke:#181818;stroke-width:1;"/><text fill="#000000" font-family="sans-serif" font-size="13" lengthAdjust="spacing" textLength="91.6221" x="1292.81" y="200.5538">eingebettet in</text></g><!--SRC=[XPDjJ-Cm3CVVyody0ROAAfukGZinGDE0xSQTj9FsfafRTuje7PIuSEg9xuvJDXXZWtTs_exjd-EmuHBXKZEIvb9xw49_C5A7HoTxcRW-U8buy7yFOAmhLF27hICBQ0WTz56YkAQvo1Dd6_GUbTWWYSR83TNSYEfrwZ1Rq6jW44SIwHdB4Yb5TWRJzPZdZzMJoi-JWsKFsSAPRC4AXkFfh-45nD5f7eboOudndvphsi-npSq8lvSfsw80JGsFw9wGSgHmQLAK8Lc1PQxWMil9XStHAv2g7PZ5H-jSEuWwty00tDL1MtMSZ8Q394vEyoI9z-F3_UE37z53NWZqQjZTRcy3NRsrpM1eOpeFpcOIStOM36cbrtiTrQxv3z2Br3wbizNuQjfPMhEfgBFQwwf2AgI4n2luQn2AckxPM3Be678vs9uScYVZimLIguTPe4bbJMhAuTPWWKuJ_rmZZQBU9eOAgpL7kSmxOUDFiDyzmHlpoAU3RPHzbCRRTa5sO_NeOZiuV-TxjBIjL8cc_GLXgRw0Yp_1lG00]--></g></svg>