<svg xmlns="http://www.w3.org/2000/svg" xmlns:xlink="http://www.w3.org/1999/xlink" contentStyleType="text/css" data-diagram-type="CLASS" height="370px" preserveAspectRatio="none" style="width:1214px;height:370px;background:#FFFFFF;" version="1.1" viewBox="0 0 1214 370" width="1214px" zoomAndPan="magnify"><title>Datenatlas - BGM:ZJ9</title><defs/><g><g class="title" data-source-line="1"><text fill="#000000" font-family="sans-serif" font-size="14" font-weight="bold" lengthAdjust="spacing" textLength="168.2939" x="516.2873" y="22.9951">Datenatlas - BGM:ZJ9</text></g><!--class BGM_ZJ9--><g class="entity" data-entity="BGM_ZJ9" data-source-line="2" data-uid="ent0002" id="entity_BGM_ZJ9"><rect fill="#F1F1F1" height="96.8906" rx="2.5" ry="2.5" style="stroke:#181818;stroke-width:0.5;" width="422.4365" x="498.54" y="44.2969"/><ellipse cx="674.4287" cy="60.2969" fill="#ADD1B2" rx="11" ry="11" style="stroke:#181818;stroke-width:1;"/><path d="M677.3974,65.9375 Q676.8193,66.2344 676.1787,66.375 Q675.538,66.5313 674.8349,66.5313 Q672.3349,66.5313 671.0068,64.8906 Q669.6943,63.2344 669.6943,60.1094 Q669.6943,56.9844 671.0068,55.3281 Q672.3349,53.6719 674.8349,53.6719 Q675.538,53.6719 676.1787,53.8281 Q676.8349,53.9844 677.3974,54.2813 L677.3974,57 Q676.7724,56.4219 676.1787,56.1563 Q675.5849,55.875 674.9599,55.875 Q673.6162,55.875 672.9287,56.9531 Q672.2412,58.0156 672.2412,60.1094 Q672.2412,62.2031 672.9287,63.2813 Q673.6162,64.3438 674.9599,64.3438 Q675.5849,64.3438 676.1787,64.0781 Q676.7724,63.7969 677.3974,63.2188 L677.3974,65.9375 Z " fill="#000000"/><text fill="#000000" font-family="sans-serif" font-size="14" lengthAdjust="spacing" textLength="62.1592" x="694.9287" y="65.1436">BGM_ZJ9</text><line style="stroke:#181818;stroke-width:0.5;" x1="499.54" x2="919.9765" y1="76.2969" y2="76.2969"/><text fill="#000000" font-family="sans-serif" font-size="14" lengthAdjust="spacing" textLength="396.4365" x="518.54" y="93.292">Name: Energiemenge aus dem ungepairten Zeitintervall</text><text fill="#000000" font-family="sans-serif" font-size="14" lengthAdjust="spacing" textLength="66.6436" x="518.54" y="109.5889">Prozesse:</text><rect fill="none" height="6" style="stroke:#C82930;stroke-width:1;" width="6" x="506.54" y="119.5391"/><text fill="#000000" font-family="sans-serif" font-size="14" lengthAdjust="spacing" textLength="334.3525" x="518.54" y="125.8857">Anforderung und &#220;bermittlung von Messwerten</text><line style="stroke:#181818;stroke-width:0.5;" x1="499.54" x2="919.9765" y1="133.1875" y2="133.1875"/></g><!--class BGM_ZJ9_msg_1--><g class="entity" data-entity="BGM_ZJ9_msg_1" data-source-line="7" data-uid="ent0003" id="entity_BGM_ZJ9_msg_1"><rect fill="#F1F1F1" height="145.7813" rx="2.5" ry="2.5" style="stroke:#181818;stroke-width:0.5;" width="787.5166" x="7" y="218.1869"/><ellipse cx="339.0659" cy="234.1869" fill="#ADD1B2" rx="11" ry="11" style="stroke:#181818;stroke-width:1;"/><path d="M342.0347,239.8275 Q341.4565,240.1244 340.8159,240.265 Q340.1753,240.4213 339.4722,240.4213 Q336.9722,240.4213 335.644,238.7806 Q334.3315,237.1244 334.3315,233.9994 Q334.3315,230.8744 335.644,229.2181 Q336.9722,227.5619 339.4722,227.5619 Q340.1753,227.5619 340.8159,227.7181 Q341.4722,227.8744 342.0347,228.1713 L342.0347,230.89 Q341.4097,230.3119 340.8159,230.0463 Q340.2222,229.765 339.5972,229.765 Q338.2534,229.765 337.5659,230.8431 Q336.8784,231.9056 336.8784,233.9994 Q336.8784,236.0931 337.5659,237.1713 Q338.2534,238.2338 339.5972,238.2338 Q340.2222,238.2338 340.8159,237.9681 Q341.4097,237.6869 342.0347,237.1088 L342.0347,239.8275 Z " fill="#000000"/><text fill="#000000" font-family="sans-serif" font-size="14" lengthAdjust="spacing" textLength="114.8848" x="359.5659" y="239.0336">BGM_ZJ9_msg_1</text><line style="stroke:#181818;stroke-width:0.5;" x1="8" x2="793.5166" y1="250.1869" y2="250.1869"/><text fill="#000000" font-family="sans-serif" font-size="14" lengthAdjust="spacing" textLength="172.0264" x="13" y="267.182">Nachricht: MSCONS 2.4c</text><text fill="#000000" font-family="sans-serif" font-size="14" lengthAdjust="spacing" textLength="112.3418" x="13" y="283.4789">Kontext: anf&#228;llt.</text><text fill="#000000" font-family="sans-serif" font-size="14" lengthAdjust="spacing" textLength="91.4033" x="13" y="299.7757">Pflichtfeld: Ja</text><text fill="#000000" font-family="sans-serif" font-size="14" lengthAdjust="spacing" textLength="775.5166" x="13" y="316.0726">Codes: OCR, ZA0, ZA1, ZA3, ZA4, ZA5, ZA6, ZA7, ZA8, ZA9, ZB0, ZB9, ZC2, ZC4, ZJ8, ZJ9, ZR1, ZR2, ZR3, ZR4</text><text fill="#000000" font-family="sans-serif" font-size="14" lengthAdjust="spacing" textLength="405.4463" x="13" y="332.3695">Prozesse: Anforderung und &#220;bermittlung von Messwerten</text><text fill="#000000" font-family="sans-serif" font-size="14" lengthAdjust="spacing" textLength="294.1641" x="13" y="348.6664">Quelle: MSCONS_MIG_2_4c_20231024.pdf</text><line style="stroke:#181818;stroke-width:0.5;" x1="8" x2="793.5166" y1="355.9681" y2="355.9681"/></g><!--class BGM_ZJ9_proc_1--><g class="entity" data-entity="BGM_ZJ9_proc_1" data-source-line="16" data-uid="ent0005" id="entity_BGM_ZJ9_proc_1"><rect fill="#F1F1F1" height="105.1563" rx="2.5" ry="2.5" style="stroke:#181818;stroke-width:0.5;" width="378.2285" x="829.64" y="238.4969"/><ellipse cx="956.5184" cy="258.6297" fill="#ADD1B2" rx="11" ry="11" style="stroke:#181818;stroke-width:1;"/><path d="M959.4872,264.2703 Q958.909,264.5672 958.2684,264.7078 Q957.6278,264.8641 956.9247,264.8641 Q954.4247,264.8641 953.0965,263.2234 Q951.784,261.5672 951.784,258.4422 Q951.784,255.3172 953.0965,253.6609 Q954.4247,252.0047 956.9247,252.0047 Q957.6278,252.0047 958.2684,252.1609 Q958.9247,252.3172 959.4872,252.6141 L959.4872,255.3328 Q958.8622,254.7547 958.2684,254.4891 Q957.6747,254.2078 957.0497,254.2078 Q955.7059,254.2078 955.0184,255.2859 Q954.3309,256.3484 954.3309,258.4422 Q954.3309,260.5359 955.0184,261.6141 Q955.7059,262.6766 957.0497,262.6766 Q957.6747,262.6766 958.2684,262.4109 Q958.8622,262.1297 959.4872,261.5516 L959.4872,264.2703 Z " fill="#000000"/><text fill="#000000" font-family="sans-serif" font-size="12" font-style="italic" lengthAdjust="spacing" textLength="61.0605" x="1004.474" y="254.6355">&#171;process&#187;</text><text fill="#000000" font-family="sans-serif" font-size="14" lengthAdjust="spacing" textLength="115.9717" x="977.0184" y="270.4607">BGM_ZJ9_proc_1</text><line style="stroke:#181818;stroke-width:0.5;" x1="830.64" x2="1206.8685" y1="278.7625" y2="278.7625"/><text fill="#000000" font-family="sans-serif" font-size="14" lengthAdjust="spacing" textLength="334.3525" x="835.64" y="295.7576">Anforderung und &#220;bermittlung von Messwerten</text><text fill="#000000" font-family="sans-serif" font-size="14" lengthAdjust="spacing" textLength="105.0957" x="835.64" y="312.0545">Gesetze: MsbG</text><line style="stroke:#181818;stroke-width:0.5;" x1="830.64" x2="1206.8685" y1="319.3563" y2="319.3563"/><text fill="#000000" font-family="sans-serif" font-size="14" lengthAdjust="spacing" textLength="366.2285" x="835.64" y="336.3514">Zusammenfassung: Wie kann ein Marktpartner (z.B.</text></g><!--link BGM_ZJ9 to BGM_ZJ9_msg_1--><g class="link" data-entity-1="BGM_ZJ9" data-entity-2="BGM_ZJ9_msg_1" data-source-line="15" data-uid="lnk4" id="link_BGM_ZJ9_BGM_ZJ9_msg_1"><path codeLine="15" d="M634.56,141.5169 C598.48,164.4469 559.5344,189.1895 519.4744,214.6395" fill="none" id="BGM_ZJ9-to-BGM_ZJ9_msg_1" style="stroke:#181818;stroke-width:1;"/><polygon fill="#181818" points="514.41,217.8569,524.1516,216.407,518.6303,215.1757,519.8617,209.6545,514.41,217.8569" style="stroke:#181818;stroke-width:1;"/><text fill="#000000" font-family="sans-serif" font-size="13" lengthAdjust="spacing" textLength="85.2363" x="584.76" y="184.2538">verwendet in</text></g><!--link BGM_ZJ9 to BGM_ZJ9_proc_1--><g class="link" data-entity-1="BGM_ZJ9" data-entity-2="BGM_ZJ9_proc_1" data-source-line="21" data-uid="lnk6" id="link_BGM_ZJ9_BGM_ZJ9_proc_1"><path codeLine="21" d="M784.95,141.5169 C830.95,170.7469 884.756,204.9287 931.916,234.8987" fill="none" id="BGM_ZJ9-to-BGM_ZJ9_proc_1" style="stroke:#181818;stroke-width:1;stroke-dasharray:7,7;"/><polygon fill="#181818" points="936.98,238.1169,931.5295,229.9137,932.76,235.4351,927.2386,236.6657,936.98,238.1169" style="stroke:#181818;stroke-width:1;"/><text fill="#000000" font-family="sans-serif" font-size="13" lengthAdjust="spacing" textLength="91.6221" x="856.76" y="184.2538">eingebettet in</text></g><!--SRC=[bL9BRi8m4DrpYbbsKI88wGSB8G6jKAcWRLXKoYOooGGi70VP1YggtgJBteIBTGOLYR9ZypI_D_DcRA-yHdYG7etqMZgeGtyu5iceNSl8TUobvC5d3M0YInJmQD3E5PPevWXoxI374jRahAIor0SIL5uPZtOZjIRQgwrsw1mAie46z4nHsHmjSOYNm_vxXhPKtckER2e3OohV8ZUhVVtNaPPkdZR_r6GBgxA55p2U3bucKmY3AAF4SqN3FoWiJR7_qTe7BABGN5kWpWMC94K6LOvEmCiWleQars1eChGO8eORXbk6EuPxXZP1dulxR0r21YuUSNR4iPYxn9o8kLKSdPxWikK1tjQeDHutJCTFmpHCeomD6s6hsGYZO9KNTAFZAzNhtRDB2TYWtQB9qOCoPyTSsIgZcaw73HhRxHukUw768JhqEnRfPaFoaxMJ9NsFWaOHGS2xGbXAOm0LKQLT-fMqdhuHNEs2Vd2YFmYwv-84i-OuG-yFA_m2]--></g></svg>