<svg xmlns="http://www.w3.org/2000/svg" xmlns:xlink="http://www.w3.org/1999/xlink" contentStyleType="text/css" data-diagram-type="CLASS" height="387px" preserveAspectRatio="none" style="width:2998px;height:387px;background:#FFFFFF;" version="1.1" viewBox="0 0 2998 387" width="2998px" zoomAndPan="magnify"><title>Datenatlas - CAV:00037</title><defs/><g><g class="title" data-source-line="1"><text fill="#000000" font-family="sans-serif" font-size="14" font-weight="bold" lengthAdjust="spacing" textLength="187.749" x="1398.1651" y="22.9951">Datenatlas - CAV:00037</text></g><!--class CAV_00037--><g class="entity" data-entity="CAV_00037" data-source-line="2" data-uid="ent0002" id="entity_CAV_00037"><rect fill="#F1F1F1" height="113.1875" rx="2.5" ry="2.5" style="stroke:#181818;stroke-width:0.5;" width="374.2021" x="1263.98" y="44.2969"/><ellipse cx="1406.5982" cy="60.2969" fill="#ADD1B2" rx="11" ry="11" style="stroke:#181818;stroke-width:1;"/><path d="M1409.5669,65.9375 Q1408.9888,66.2344 1408.3482,66.375 Q1407.7075,66.5313 1407.0044,66.5313 Q1404.5044,66.5313 1403.1763,64.8906 Q1401.8638,63.2344 1401.8638,60.1094 Q1401.8638,56.9844 1403.1763,55.3281 Q1404.5044,53.6719 1407.0044,53.6719 Q1407.7075,53.6719 1408.3482,53.8281 Q1409.0044,53.9844 1409.5669,54.2813 L1409.5669,57 Q1408.9419,56.4219 1408.3482,56.1563 Q1407.7544,55.875 1407.1294,55.875 Q1405.7857,55.875 1405.0982,56.9531 Q1404.4107,58.0156 1404.4107,60.1094 Q1404.4107,62.2031 1405.0982,63.2813 Q1405.7857,64.3438 1407.1294,64.3438 Q1407.7544,64.3438 1408.3482,64.0781 Q1408.9419,63.7969 1409.5669,63.2188 L1409.5669,65.9375 Z " fill="#000000"/><text fill="#000000" font-family="sans-serif" font-size="14" lengthAdjust="spacing" textLength="80.4658" x="1427.0982" y="65.1436">CAV_00037</text><line style="stroke:#181818;stroke-width:0.5;" x1="1264.98" x2="1637.1821" y1="76.2969" y2="76.2969"/><text fill="#000000" font-family="sans-serif" font-size="14" lengthAdjust="spacing" textLength="247.6387" x="1283.98" y="93.292">Name: Kommunikationseinrichtung</text><text fill="#000000" font-family="sans-serif" font-size="14" lengthAdjust="spacing" textLength="66.6436" x="1283.98" y="109.5889">Prozesse:</text><rect fill="none" height="6" style="stroke:#C82930;stroke-width:1;" width="6" x="1271.98" y="119.5391"/><text fill="#000000" font-family="sans-serif" font-size="14" lengthAdjust="spacing" textLength="317.9668" x="1283.98" y="125.8857">Sperrung und Entsperrung eines Anschlusses</text><line style="stroke:#181818;stroke-width:0.5;" x1="1264.98" x2="1637.1821" y1="133.1875" y2="133.1875"/><rect fill="#F24D5C" height="6" style="stroke:#C82930;stroke-width:1;" width="6" x="1271.98" y="143.8359"/><text fill="#000000" font-family="sans-serif" font-size="14" lengthAdjust="spacing" textLength="348.2021" x="1283.98" y="150.1826">Bestellung einer technischen Konfiguration (MSB)</text></g><!--class CAV_00037_msg_1--><g class="entity" data-entity="CAV_00037_msg_1" data-source-line="8" data-uid="ent0003" id="entity_CAV_00037_msg_1"><rect fill="#F1F1F1" height="145.7813" rx="2.5" ry="2.5" style="stroke:#181818;stroke-width:0.5;" width="758.1631" x="7" y="234.4869"/><ellipse cx="315.2358" cy="250.4869" fill="#ADD1B2" rx="11" ry="11" style="stroke:#181818;stroke-width:1;"/><path d="M318.2046,256.1275 Q317.6265,256.4244 316.9858,256.565 Q316.3452,256.7213 315.6421,256.7213 Q313.1421,256.7213 311.814,255.0806 Q310.5015,253.4244 310.5015,250.2994 Q310.5015,247.1744 311.814,245.5181 Q313.1421,243.8619 315.6421,243.8619 Q316.3452,243.8619 316.9858,244.0181 Q317.6421,244.1744 318.2046,244.4713 L318.2046,247.19 Q317.5796,246.6119 316.9858,246.3463 Q316.3921,246.065 315.7671,246.065 Q314.4233,246.065 313.7358,247.1431 Q313.0483,248.2056 313.0483,250.2994 Q313.0483,252.3931 313.7358,253.4713 Q314.4233,254.5338 315.7671,254.5338 Q316.3921,254.5338 316.9858,254.2681 Q317.5796,253.9869 318.2046,253.4088 L318.2046,256.1275 Z " fill="#000000"/><text fill="#000000" font-family="sans-serif" font-size="14" lengthAdjust="spacing" textLength="133.1914" x="335.7358" y="255.3336">CAV_00037_msg_1</text><line style="stroke:#181818;stroke-width:0.5;" x1="8" x2="764.1631" y1="266.4869" y2="266.4869"/><text fill="#000000" font-family="sans-serif" font-size="14" lengthAdjust="spacing" textLength="170.3584" x="13" y="283.482">Nachricht: QUOTES 1.3a</text><text fill="#000000" font-family="sans-serif" font-size="14" lengthAdjust="spacing" textLength="204.1143" x="13" y="299.7789">Kontext: Nachrichtenstruktur</text><text fill="#000000" font-family="sans-serif" font-size="14" lengthAdjust="spacing" textLength="110.5439" x="13" y="316.0757">Pflichtfeld: Nein</text><text fill="#000000" font-family="sans-serif" font-size="14" lengthAdjust="spacing" textLength="143.5684" x="13" y="332.3726">Codes: 10, 999, CAV</text><text fill="#000000" font-family="sans-serif" font-size="14" lengthAdjust="spacing" textLength="292.4961" x="13" y="348.6695">Quelle: QUOTES_MIG_1_3a_20240619.pdf</text><line style="stroke:#181818;stroke-width:0.5;" x1="8" x2="764.1631" y1="355.9713" y2="355.9713"/><text fill="#000000" font-family="sans-serif" font-size="14" lengthAdjust="spacing" textLength="746.1631" x="13" y="372.9664">Prozesse: Bestellung einer technischen Konfiguration (MSB), Sperrung und Entsperrung eines Anschlusses</text></g><!--class CAV_00037_proc_1--><g class="entity" data-entity="CAV_00037_proc_1" data-source-line="17" data-uid="ent0005" id="entity_CAV_00037_proc_1"><rect fill="#F1F1F1" height="105.1563" rx="2.5" ry="2.5" style="stroke:#181818;stroke-width:0.5;" width="1301.9961" x="800.08" y="254.7969"/><ellipse cx="1379.6889" cy="274.9297" fill="#ADD1B2" rx="11" ry="11" style="stroke:#181818;stroke-width:1;"/><path d="M1382.6576,280.5703 Q1382.0795,280.8672 1381.4389,281.0078 Q1380.7983,281.1641 1380.0951,281.1641 Q1377.5951,281.1641 1376.267,279.5234 Q1374.9545,277.8672 1374.9545,274.7422 Q1374.9545,271.6172 1376.267,269.9609 Q1377.5951,268.3047 1380.0951,268.3047 Q1380.7983,268.3047 1381.4389,268.4609 Q1382.0951,268.6172 1382.6576,268.9141 L1382.6576,271.6328 Q1382.0326,271.0547 1381.4389,270.7891 Q1380.8451,270.5078 1380.2201,270.5078 Q1378.8764,270.5078 1378.1889,271.5859 Q1377.5014,272.6484 1377.5014,274.7422 Q1377.5014,276.8359 1378.1889,277.9141 Q1378.8764,278.9766 1380.2201,278.9766 Q1380.8451,278.9766 1381.4389,278.7109 Q1382.0326,278.4297 1382.6576,277.8516 L1382.6576,280.5703 Z " fill="#000000"/><text fill="#000000" font-family="sans-serif" font-size="12" font-style="italic" lengthAdjust="spacing" textLength="61.0605" x="1436.7978" y="270.9355">&#171;process&#187;</text><text fill="#000000" font-family="sans-serif" font-size="14" lengthAdjust="spacing" textLength="134.2783" x="1400.1889" y="286.7607">CAV_00037_proc_1</text><line style="stroke:#181818;stroke-width:0.5;" x1="801.08" x2="2101.0761" y1="295.0625" y2="295.0625"/><text fill="#000000" font-family="sans-serif" font-size="14" lengthAdjust="spacing" textLength="156.4063" x="806.08" y="312.0576">Gesetze: MsbG, EnWG</text><text fill="#000000" font-family="sans-serif" font-size="14" lengthAdjust="spacing" textLength="1289.9961" x="806.08" y="328.3545">Zusammenfassung: Erl&#228;utere den Prozess zur Bestellung einer spezifischen technischen Konfiguration bei einem Messstellenbetreiber, beispielsweise f&#252;r ein intelligentes Messsystem.</text><line style="stroke:#181818;stroke-width:0.5;" x1="801.08" x2="2101.0761" y1="335.6563" y2="335.6563"/><text fill="#000000" font-family="sans-serif" font-size="14" lengthAdjust="spacing" textLength="348.2021" x="806.08" y="352.6514">Bestellung einer technischen Konfiguration (MSB)</text></g><!--class CAV_00037_proc_2--><g class="entity" data-entity="CAV_00037_proc_2" data-source-line="23" data-uid="ent0007" id="entity_CAV_00037_proc_2"><rect fill="#F1F1F1" height="105.1563" rx="2.5" ry="2.5" style="stroke:#181818;stroke-width:0.5;" width="853.9893" x="2137.09" y="254.7969"/><ellipse cx="2492.6955" cy="274.9297" fill="#ADD1B2" rx="11" ry="11" style="stroke:#181818;stroke-width:1;"/><path d="M2495.6642,280.5703 Q2495.0861,280.8672 2494.4455,281.0078 Q2493.8048,281.1641 2493.1017,281.1641 Q2490.6017,281.1641 2489.2736,279.5234 Q2487.9611,277.8672 2487.9611,274.7422 Q2487.9611,271.6172 2489.2736,269.9609 Q2490.6017,268.3047 2493.1017,268.3047 Q2493.8048,268.3047 2494.4455,268.4609 Q2495.1017,268.6172 2495.6642,268.9141 L2495.6642,271.6328 Q2495.0392,271.0547 2494.4455,270.7891 Q2493.8517,270.5078 2493.2267,270.5078 Q2491.883,270.5078 2491.1955,271.5859 Q2490.508,272.6484 2490.508,274.7422 Q2490.508,276.8359 2491.1955,277.9141 Q2491.883,278.9766 2493.2267,278.9766 Q2493.8517,278.9766 2494.4455,278.7109 Q2495.0392,278.4297 2495.6642,277.8516 L2495.6642,280.5703 Z " fill="#000000"/><text fill="#000000" font-family="sans-serif" font-size="12" font-style="italic" lengthAdjust="spacing" textLength="61.0605" x="2549.8044" y="270.9355">&#171;process&#187;</text><text fill="#000000" font-family="sans-serif" font-size="14" lengthAdjust="spacing" textLength="134.2783" x="2513.1955" y="286.7607">CAV_00037_proc_2</text><line style="stroke:#181818;stroke-width:0.5;" x1="2138.09" x2="2990.0793" y1="295.0625" y2="295.0625"/><text fill="#000000" font-family="sans-serif" font-size="14" lengthAdjust="spacing" textLength="317.9668" x="2143.09" y="312.0576">Sperrung und Entsperrung eines Anschlusses</text><text fill="#000000" font-family="sans-serif" font-size="14" lengthAdjust="spacing" textLength="138.3252" x="2143.09" y="328.3545">Gesetze: StromGVV</text><text fill="#000000" font-family="sans-serif" font-size="14" lengthAdjust="spacing" textLength="841.9893" x="2143.09" y="344.6514">Zusammenfassung: Beschreibe den End-to-End-Prozess f&#252;r die Sperrung und Wiederherstellung eines Netzanschlusses.</text><line style="stroke:#181818;stroke-width:0.5;" x1="2138.09" x2="2990.0793" y1="351.9531" y2="351.9531"/></g><!--link CAV_00037 to CAV_00037_msg_1--><g class="link" data-entity-1="CAV_00037" data-entity-2="CAV_00037_msg_1" data-source-line="16" data-uid="lnk4" id="link_CAV_00037_CAV_00037_msg_1"><path codeLine="16" d="M1263.74,137.8569 C1125.5,164.4069 938.6024,200.2855 768.9224,232.8655" fill="none" id="CAV_00037-to-CAV_00037_msg_1" style="stroke:#181818;stroke-width:1;"/><polygon fill="#181818" points="763.03,233.9969,772.6228,236.228,767.9403,233.0541,771.1143,228.3716,763.03,233.9969" style="stroke:#181818;stroke-width:1;"/><text fill="#000000" font-family="sans-serif" font-size="13" lengthAdjust="spacing" textLength="85.2363" x="984.08" y="200.5538">verwendet in</text></g><!--link CAV_00037 to CAV_00037_proc_1--><g class="link" data-entity-1="CAV_00037" data-entity-2="CAV_00037_proc_1" data-source-line="22" data-uid="lnk6" id="link_CAV_00037_CAV_00037_proc_1"><path codeLine="22" d="M1451.08,157.7669 C1451.08,187.9169 1451.08,218.9069 1451.08,248.4269" fill="none" id="CAV_00037-to-CAV_00037_proc_1" style="stroke:#181818;stroke-width:1;stroke-dasharray:7,7;"/><polygon fill="#181818" points="1451.08,254.4269,1455.08,245.4269,1451.08,249.4269,1447.08,245.4269,1451.08,254.4269" style="stroke:#181818;stroke-width:1;"/><text fill="#000000" font-family="sans-serif" font-size="13" lengthAdjust="spacing" textLength="91.6221" x="1452.08" y="200.5538">eingebettet in</text></g><!--link CAV_00037 to CAV_00037_proc_2--><g class="link" data-entity-1="CAV_00037" data-entity-2="CAV_00037_proc_2" data-source-line="28" data-uid="lnk8" id="link_CAV_00037_CAV_00037_proc_2"><path codeLine="28" d="M1638.63,136.3469 C1814.34,168.6269 2073.4687,216.2428 2274.9387,253.2528" fill="none" id="CAV_00037-to-CAV_00037_proc_2" style="stroke:#181818;stroke-width:1;stroke-dasharray:7,7;"/><polygon fill="#181818" points="2280.84,254.3369,2272.7108,248.7766,2275.9223,253.4335,2271.2654,256.645,2280.84,254.3369" style="stroke:#181818;stroke-width:1;"/><text fill="#000000" font-family="sans-serif" font-size="13" lengthAdjust="spacing" textLength="91.6221" x="2009.08" y="200.5538">eingebettet in</text></g><!--SRC=[dPBFRjD04CRlUOevWcH7Te90iQf8ROaiX09KeQd4nNBiiRsglOvsPYaOzMru36vzCMRTf2KrVnHEkpixyyrylrrMN2EyJXbrodLAuCFvwJeAWc3wQfH9WDmvwS_mRGJmBcqmWhTjqrYjhbDMhIPKsgYiOgjBoVXWsWw9C98zYDuP4cDTooL88XfWp2gjAAjGYv0kL6bDBmJFbgkpvxkorHQDSKLMvx3GJFkp4o4urI9GM-b3ezkdaoODbKcucpUh-k4YkBXy_t6nWd0yJUL2EZD-aV131cfYOw_P6kUYg5sim3gN5EafiVCsHueW33oOpMQUw_UhtwETUiUO1BYm8evx7ydoJPo4oJHD9i7aHV0od8stUI4i7j_Bz-S39X5yHdE3EaS6CVKKtDQqcMITdBYDk9hFUuh_yOOn4d8duovf4tjYxYgMw2TBQTEWBgIjg4MmCFNTTyje47BHsi64pffXKw7JgMBNzSyJR53r1GqiHQhNGBr1DgWsQ3ntJrk5DTt81g6u-s5Slk1mgQf4MUc-zgjKD-C3gEFnVCWhSW8bIXF-2zV9WEjHx_z0TCMcRUBr-dSy1PfyP-UqvxdGkS-jxvOzsjvlhl2m-PN274s5ve0voTVdBdqSuvyi9WCMFm40]--></g></svg>