<svg xmlns="http://www.w3.org/2000/svg" xmlns:xlink="http://www.w3.org/1999/xlink" contentStyleType="text/css" data-diagram-type="CLASS" height="387px" preserveAspectRatio="none" style="width:2998px;height:387px;background:#FFFFFF;" version="1.1" viewBox="0 0 2998 387" width="2998px" zoomAndPan="magnify"><title>Datenatlas - CAV:1230</title><defs/><g><g class="title" data-source-line="1"><text fill="#000000" font-family="sans-serif" font-size="14" font-weight="bold" lengthAdjust="spacing" textLength="178.0078" x="1403.0357" y="22.9951">Datenatlas - CAV:1230</text></g><!--class CAV_1230--><g class="entity" data-entity="CAV_1230" data-source-line="2" data-uid="ent0002" id="entity_CAV_1230"><rect fill="#F1F1F1" height="113.1875" rx="2.5" ry="2.5" style="stroke:#181818;stroke-width:0.5;" width="374.2021" x="1263.98" y="44.2969"/><ellipse cx="1411.0518" cy="60.2969" fill="#ADD1B2" rx="11" ry="11" style="stroke:#181818;stroke-width:1;"/><path d="M1414.0205,65.9375 Q1413.4424,66.2344 1412.8018,66.375 Q1412.1612,66.5313 1411.458,66.5313 Q1408.958,66.5313 1407.6299,64.8906 Q1406.3174,63.2344 1406.3174,60.1094 Q1406.3174,56.9844 1407.6299,55.3281 Q1408.958,53.6719 1411.458,53.6719 Q1412.1612,53.6719 1412.8018,53.8281 Q1413.458,53.9844 1414.0205,54.2813 L1414.0205,57 Q1413.3955,56.4219 1412.8018,56.1563 Q1412.208,55.875 1411.583,55.875 Q1410.2393,55.875 1409.5518,56.9531 Q1408.8643,58.0156 1408.8643,60.1094 Q1408.8643,62.2031 1409.5518,63.2813 Q1410.2393,64.3438 1411.583,64.3438 Q1412.208,64.3438 1412.8018,64.0781 Q1413.3955,63.7969 1414.0205,63.2188 L1414.0205,65.9375 Z " fill="#000000"/><text fill="#000000" font-family="sans-serif" font-size="14" lengthAdjust="spacing" textLength="71.5586" x="1431.5518" y="65.1436">CAV_1230</text><line style="stroke:#181818;stroke-width:0.5;" x1="1264.98" x2="1637.1821" y1="76.2969" y2="76.2969"/><text fill="#000000" font-family="sans-serif" font-size="14" lengthAdjust="spacing" textLength="174.5967" x="1283.98" y="93.292">Name: Mengenumwerter</text><text fill="#000000" font-family="sans-serif" font-size="14" lengthAdjust="spacing" textLength="66.6436" x="1283.98" y="109.5889">Prozesse:</text><rect fill="none" height="6" style="stroke:#C82930;stroke-width:1;" width="6" x="1271.98" y="119.5391"/><text fill="#000000" font-family="sans-serif" font-size="14" lengthAdjust="spacing" textLength="317.9668" x="1283.98" y="125.8857">Sperrung und Entsperrung eines Anschlusses</text><line style="stroke:#181818;stroke-width:0.5;" x1="1264.98" x2="1637.1821" y1="133.1875" y2="133.1875"/><rect fill="#F24D5C" height="6" style="stroke:#C82930;stroke-width:1;" width="6" x="1271.98" y="143.8359"/><text fill="#000000" font-family="sans-serif" font-size="14" lengthAdjust="spacing" textLength="348.2021" x="1283.98" y="150.1826">Bestellung einer technischen Konfiguration (MSB)</text></g><!--class CAV_1230_msg_1--><g class="entity" data-entity="CAV_1230_msg_1" data-source-line="8" data-uid="ent0003" id="entity_CAV_1230_msg_1"><rect fill="#F1F1F1" height="145.7813" rx="2.5" ry="2.5" style="stroke:#181818;stroke-width:0.5;" width="758.1631" x="7" y="234.4869"/><ellipse cx="319.6895" cy="250.4869" fill="#ADD1B2" rx="11" ry="11" style="stroke:#181818;stroke-width:1;"/><path d="M322.6582,256.1275 Q322.0801,256.4244 321.4395,256.565 Q320.7988,256.7213 320.0957,256.7213 Q317.5957,256.7213 316.2676,255.0806 Q314.9551,253.4244 314.9551,250.2994 Q314.9551,247.1744 316.2676,245.5181 Q317.5957,243.8619 320.0957,243.8619 Q320.7988,243.8619 321.4395,244.0181 Q322.0957,244.1744 322.6582,244.4713 L322.6582,247.19 Q322.0332,246.6119 321.4395,246.3463 Q320.8457,246.065 320.2207,246.065 Q318.877,246.065 318.1895,247.1431 Q317.502,248.2056 317.502,250.2994 Q317.502,252.3931 318.1895,253.4713 Q318.877,254.5338 320.2207,254.5338 Q320.8457,254.5338 321.4395,254.2681 Q322.0332,253.9869 322.6582,253.4088 L322.6582,256.1275 Z " fill="#000000"/><text fill="#000000" font-family="sans-serif" font-size="14" lengthAdjust="spacing" textLength="124.2842" x="340.1895" y="255.3336">CAV_1230_msg_1</text><line style="stroke:#181818;stroke-width:0.5;" x1="8" x2="764.1631" y1="266.4869" y2="266.4869"/><text fill="#000000" font-family="sans-serif" font-size="14" lengthAdjust="spacing" textLength="170.3584" x="13" y="283.482">Nachricht: QUOTES 1.3a</text><text fill="#000000" font-family="sans-serif" font-size="14" lengthAdjust="spacing" textLength="204.1143" x="13" y="299.7789">Kontext: Nachrichtenstruktur</text><text fill="#000000" font-family="sans-serif" font-size="14" lengthAdjust="spacing" textLength="110.5439" x="13" y="316.0757">Pflichtfeld: Nein</text><text fill="#000000" font-family="sans-serif" font-size="14" lengthAdjust="spacing" textLength="143.5684" x="13" y="332.3726">Codes: 10, 999, CAV</text><text fill="#000000" font-family="sans-serif" font-size="14" lengthAdjust="spacing" textLength="408.3174" x="13" y="348.6695">Quelle: QUOTES_MIG_1_3a_Fehlerkorrektur_20241213.pdf</text><line style="stroke:#181818;stroke-width:0.5;" x1="8" x2="764.1631" y1="355.9713" y2="355.9713"/><text fill="#000000" font-family="sans-serif" font-size="14" lengthAdjust="spacing" textLength="746.1631" x="13" y="372.9664">Prozesse: Bestellung einer technischen Konfiguration (MSB), Sperrung und Entsperrung eines Anschlusses</text></g><!--class CAV_1230_proc_1--><g class="entity" data-entity="CAV_1230_proc_1" data-source-line="17" data-uid="ent0005" id="entity_CAV_1230_proc_1"><rect fill="#F1F1F1" height="105.1563" rx="2.5" ry="2.5" style="stroke:#181818;stroke-width:0.5;" width="1301.9961" x="800.08" y="254.7969"/><ellipse cx="1384.1425" cy="274.9297" fill="#ADD1B2" rx="11" ry="11" style="stroke:#181818;stroke-width:1;"/><path d="M1387.1113,280.5703 Q1386.5331,280.8672 1385.8925,281.0078 Q1385.2519,281.1641 1384.5488,281.1641 Q1382.0488,281.1641 1380.7206,279.5234 Q1379.4081,277.8672 1379.4081,274.7422 Q1379.4081,271.6172 1380.7206,269.9609 Q1382.0488,268.3047 1384.5488,268.3047 Q1385.2519,268.3047 1385.8925,268.4609 Q1386.5488,268.6172 1387.1113,268.9141 L1387.1113,271.6328 Q1386.4863,271.0547 1385.8925,270.7891 Q1385.2988,270.5078 1384.6738,270.5078 Q1383.33,270.5078 1382.6425,271.5859 Q1381.955,272.6484 1381.955,274.7422 Q1381.955,276.8359 1382.6425,277.9141 Q1383.33,278.9766 1384.6738,278.9766 Q1385.2988,278.9766 1385.8925,278.7109 Q1386.4863,278.4297 1387.1113,277.8516 L1387.1113,280.5703 Z " fill="#000000"/><text fill="#000000" font-family="sans-serif" font-size="12" font-style="italic" lengthAdjust="spacing" textLength="61.0605" x="1436.7978" y="270.9355">&#171;process&#187;</text><text fill="#000000" font-family="sans-serif" font-size="14" lengthAdjust="spacing" textLength="125.3711" x="1404.6425" y="286.7607">CAV_1230_proc_1</text><line style="stroke:#181818;stroke-width:0.5;" x1="801.08" x2="2101.0761" y1="295.0625" y2="295.0625"/><text fill="#000000" font-family="sans-serif" font-size="14" lengthAdjust="spacing" textLength="156.4063" x="806.08" y="312.0576">Gesetze: MsbG, EnWG</text><text fill="#000000" font-family="sans-serif" font-size="14" lengthAdjust="spacing" textLength="1289.9961" x="806.08" y="328.3545">Zusammenfassung: Erl&#228;utere den Prozess zur Bestellung einer spezifischen technischen Konfiguration bei einem Messstellenbetreiber, beispielsweise f&#252;r ein intelligentes Messsystem.</text><line style="stroke:#181818;stroke-width:0.5;" x1="801.08" x2="2101.0761" y1="335.6563" y2="335.6563"/><text fill="#000000" font-family="sans-serif" font-size="14" lengthAdjust="spacing" textLength="348.2021" x="806.08" y="352.6514">Bestellung einer technischen Konfiguration (MSB)</text></g><!--class CAV_1230_proc_2--><g class="entity" data-entity="CAV_1230_proc_2" data-source-line="23" data-uid="ent0007" id="entity_CAV_1230_proc_2"><rect fill="#F1F1F1" height="105.1563" rx="2.5" ry="2.5" style="stroke:#181818;stroke-width:0.5;" width="853.9893" x="2137.09" y="254.7969"/><ellipse cx="2497.1491" cy="274.9297" fill="#ADD1B2" rx="11" ry="11" style="stroke:#181818;stroke-width:1;"/><path d="M2500.1178,280.5703 Q2499.5397,280.8672 2498.8991,281.0078 Q2498.2585,281.1641 2497.5553,281.1641 Q2495.0553,281.1641 2493.7272,279.5234 Q2492.4147,277.8672 2492.4147,274.7422 Q2492.4147,271.6172 2493.7272,269.9609 Q2495.0553,268.3047 2497.5553,268.3047 Q2498.2585,268.3047 2498.8991,268.4609 Q2499.5553,268.6172 2500.1178,268.9141 L2500.1178,271.6328 Q2499.4928,271.0547 2498.8991,270.7891 Q2498.3053,270.5078 2497.6803,270.5078 Q2496.3366,270.5078 2495.6491,271.5859 Q2494.9616,272.6484 2494.9616,274.7422 Q2494.9616,276.8359 2495.6491,277.9141 Q2496.3366,278.9766 2497.6803,278.9766 Q2498.3053,278.9766 2498.8991,278.7109 Q2499.4928,278.4297 2500.1178,277.8516 L2500.1178,280.5703 Z " fill="#000000"/><text fill="#000000" font-family="sans-serif" font-size="12" font-style="italic" lengthAdjust="spacing" textLength="61.0605" x="2549.8044" y="270.9355">&#171;process&#187;</text><text fill="#000000" font-family="sans-serif" font-size="14" lengthAdjust="spacing" textLength="125.3711" x="2517.6491" y="286.7607">CAV_1230_proc_2</text><line style="stroke:#181818;stroke-width:0.5;" x1="2138.09" x2="2990.0793" y1="295.0625" y2="295.0625"/><text fill="#000000" font-family="sans-serif" font-size="14" lengthAdjust="spacing" textLength="317.9668" x="2143.09" y="312.0576">Sperrung und Entsperrung eines Anschlusses</text><text fill="#000000" font-family="sans-serif" font-size="14" lengthAdjust="spacing" textLength="138.3252" x="2143.09" y="328.3545">Gesetze: StromGVV</text><text fill="#000000" font-family="sans-serif" font-size="14" lengthAdjust="spacing" textLength="841.9893" x="2143.09" y="344.6514">Zusammenfassung: Beschreibe den End-to-End-Prozess f&#252;r die Sperrung und Wiederherstellung eines Netzanschlusses.</text><line style="stroke:#181818;stroke-width:0.5;" x1="2138.09" x2="2990.0793" y1="351.9531" y2="351.9531"/></g><!--link CAV_1230 to CAV_1230_msg_1--><g class="link" data-entity-1="CAV_1230" data-entity-2="CAV_1230_msg_1" data-source-line="16" data-uid="lnk4" id="link_CAV_1230_CAV_1230_msg_1"><path codeLine="16" d="M1263.74,137.8569 C1125.5,164.4069 938.6024,200.2855 768.9224,232.8655" fill="none" id="CAV_1230-to-CAV_1230_msg_1" style="stroke:#181818;stroke-width:1;"/><polygon fill="#181818" points="763.03,233.9969,772.6228,236.228,767.9403,233.0541,771.1143,228.3716,763.03,233.9969" style="stroke:#181818;stroke-width:1;"/><text fill="#000000" font-family="sans-serif" font-size="13" lengthAdjust="spacing" textLength="85.2363" x="984.08" y="200.5538">verwendet in</text></g><!--link CAV_1230 to CAV_1230_proc_1--><g class="link" data-entity-1="CAV_1230" data-entity-2="CAV_1230_proc_1" data-source-line="22" data-uid="lnk6" id="link_CAV_1230_CAV_1230_proc_1"><path codeLine="22" d="M1451.08,157.7669 C1451.08,187.9169 1451.08,218.9069 1451.08,248.4269" fill="none" id="CAV_1230-to-CAV_1230_proc_1" style="stroke:#181818;stroke-width:1;stroke-dasharray:7,7;"/><polygon fill="#181818" points="1451.08,254.4269,1455.08,245.4269,1451.08,249.4269,1447.08,245.4269,1451.08,254.4269" style="stroke:#181818;stroke-width:1;"/><text fill="#000000" font-family="sans-serif" font-size="13" lengthAdjust="spacing" textLength="91.6221" x="1452.08" y="200.5538">eingebettet in</text></g><!--link CAV_1230 to CAV_1230_proc_2--><g class="link" data-entity-1="CAV_1230" data-entity-2="CAV_1230_proc_2" data-source-line="28" data-uid="lnk8" id="link_CAV_1230_CAV_1230_proc_2"><path codeLine="28" d="M1638.63,136.3469 C1814.34,168.6269 2073.4687,216.2428 2274.9387,253.2528" fill="none" id="CAV_1230-to-CAV_1230_proc_2" style="stroke:#181818;stroke-width:1;stroke-dasharray:7,7;"/><polygon fill="#181818" points="2280.84,254.3369,2272.7108,248.7766,2275.9223,253.4335,2271.2654,256.645,2280.84,254.3369" style="stroke:#181818;stroke-width:1;"/><text fill="#000000" font-family="sans-serif" font-size="13" lengthAdjust="spacing" textLength="91.6221" x="2009.08" y="200.5538">eingebettet in</text></g><!--SRC=[dPF1RjD048RlUOevWfH4iSCbLXMfBS52A40LI2KkbcF_jbUrrz7iBe4WtgQFmQqlngoLX3QXGk6KtV7C_FD_Ex7Arg3NgOLERPqQ6j3rvJ8Aml6ebydT-6lYh_IZH_G-RH3H7Bg4Tiq6RC4I_iZj5iOWaZD9YoiOYxfskYGe3IQBhDBAP1KqlMjreKh7gLMjfXVpnTNBNTbY3MPVv7HECstD_kwR6BhKqg1secDwFu-cInfJ9i5kngnYbLKseflF7pxD5XGCnwby466BRn8-P40Ro-xEkiv4KVjOWJgN596Ks7MRmqGKZFeqcKpwNkwntREDzi_nI7JZf3dsFfBvspW9ad6Ql45LW-zQPlZXat0KlWh2O3nSvuMWEJpPO30z9XJHL_06EeSbiNX4SSrj9aaN5_uW5gVJ3kb_l6SC0xlros9MSL-StiOI_U9CsZJGXQXAjuXcN3_SEzaYK2wzTcHfw_XKL51jLR5JVNw25LHNqCYU6jFrW5x1CjGAtFVVpLgXDXivW8g7N-ppXOPFLRBPLXwYg_qkrStmCT7XS7f2A_Bb9KJ2FWyrF85wrYOSS2uijqsyNFuDfX2JnVOsEvWpdGziE_0_UwwTsLpXgVYjGWwkm4-06_aJs6twPun_W0XFGFm6]--></g></svg>