<svg xmlns="http://www.w3.org/2000/svg" xmlns:xlink="http://www.w3.org/1999/xlink" contentStyleType="text/css" data-diagram-type="CLASS" height="370px" preserveAspectRatio="none" style="width:1782px;height:370px;background:#FFFFFF;" version="1.1" viewBox="0 0 1782 370" width="1782px" zoomAndPan="magnify"><title>Datenatlas - CCI:1170</title><defs/><g><g class="title" data-source-line="1"><text fill="#000000" font-family="sans-serif" font-size="14" font-weight="bold" lengthAdjust="spacing" textLength="171.8213" x="798.4124" y="22.9951">Datenatlas - CCI:1170</text></g><!--class CCI_1170--><g class="entity" data-entity="CCI_1170" data-source-line="2" data-uid="ent0002" id="entity_CCI_1170"><rect fill="#F1F1F1" height="96.8906" rx="2.5" ry="2.5" style="stroke:#181818;stroke-width:0.5;" width="374.2021" x="486.55" y="44.2969"/><ellipse cx="636.2468" cy="60.2969" fill="#ADD1B2" rx="11" ry="11" style="stroke:#181818;stroke-width:1;"/><path d="M639.2155,65.9375 Q638.6374,66.2344 637.9968,66.375 Q637.3562,66.5313 636.653,66.5313 Q634.153,66.5313 632.8249,64.8906 Q631.5124,63.2344 631.5124,60.1094 Q631.5124,56.9844 632.8249,55.3281 Q634.153,53.6719 636.653,53.6719 Q637.3562,53.6719 637.9968,53.8281 Q638.653,53.9844 639.2155,54.2813 L639.2155,57 Q638.5905,56.4219 637.9968,56.1563 Q637.403,55.875 636.778,55.875 Q635.4343,55.875 634.7468,56.9531 Q634.0593,58.0156 634.0593,60.1094 Q634.0593,62.2031 634.7468,63.2813 Q635.4343,64.3438 636.778,64.3438 Q637.403,64.3438 637.9968,64.0781 Q638.5905,63.7969 639.2155,63.2188 L639.2155,65.9375 Z " fill="#000000"/><text fill="#000000" font-family="sans-serif" font-size="14" lengthAdjust="spacing" textLength="66.3086" x="656.7468" y="65.1436">CCI_1170</text><line style="stroke:#181818;stroke-width:0.5;" x1="487.55" x2="859.7521" y1="76.2969" y2="76.2969"/><text fill="#000000" font-family="sans-serif" font-size="14" lengthAdjust="spacing" textLength="143.6914" x="492.55" y="93.292">Name: Schwellwerte</text><text fill="#000000" font-family="sans-serif" font-size="14" lengthAdjust="spacing" textLength="66.6436" x="492.55" y="109.5889">Prozesse:</text><line style="stroke:#181818;stroke-width:0.5;" x1="487.55" x2="859.7521" y1="116.8906" y2="116.8906"/><rect fill="#F24D5C" height="6" style="stroke:#C82930;stroke-width:1;" width="6" x="494.55" y="127.5391"/><text fill="#000000" font-family="sans-serif" font-size="14" lengthAdjust="spacing" textLength="348.2021" x="506.55" y="133.8857">Bestellung einer technischen Konfiguration (MSB)</text></g><!--class CCI_1170_msg_1--><g class="entity" data-entity="CCI_1170_msg_1" data-source-line="7" data-uid="ent0003" id="entity_CCI_1170_msg_1"><rect fill="#F1F1F1" height="145.7813" rx="2.5" ry="2.5" style="stroke:#181818;stroke-width:0.5;" width="431.2959" x="7" y="218.1869"/><ellipse cx="158.8809" cy="234.1869" fill="#ADD1B2" rx="11" ry="11" style="stroke:#181818;stroke-width:1;"/><path d="M161.8496,239.8275 Q161.2715,240.1244 160.6309,240.265 Q159.9902,240.4213 159.2871,240.4213 Q156.7871,240.4213 155.459,238.7806 Q154.1465,237.1244 154.1465,233.9994 Q154.1465,230.8744 155.459,229.2181 Q156.7871,227.5619 159.2871,227.5619 Q159.9902,227.5619 160.6309,227.7181 Q161.2871,227.8744 161.8496,228.1713 L161.8496,230.89 Q161.2246,230.3119 160.6309,230.0463 Q160.0371,229.765 159.4121,229.765 Q158.0684,229.765 157.3809,230.8431 Q156.6934,231.9056 156.6934,233.9994 Q156.6934,236.0931 157.3809,237.1713 Q158.0684,238.2338 159.4121,238.2338 Q160.0371,238.2338 160.6309,237.9681 Q161.2246,237.6869 161.8496,237.1088 L161.8496,239.8275 Z " fill="#000000"/><text fill="#000000" font-family="sans-serif" font-size="14" lengthAdjust="spacing" textLength="119.0342" x="179.3809" y="239.0336">CCI_1170_msg_1</text><line style="stroke:#181818;stroke-width:0.5;" x1="8" x2="437.2959" y1="250.1869" y2="250.1869"/><text fill="#000000" font-family="sans-serif" font-size="14" lengthAdjust="spacing" textLength="170.1055" x="13" y="267.182">Nachricht: REQOTE 1.3b</text><text fill="#000000" font-family="sans-serif" font-size="14" lengthAdjust="spacing" textLength="204.1143" x="13" y="283.4789">Kontext: Nachrichtenstruktur</text><text fill="#000000" font-family="sans-serif" font-size="14" lengthAdjust="spacing" textLength="91.4033" x="13" y="299.7757">Pflichtfeld: Ja</text><text fill="#000000" font-family="sans-serif" font-size="14" lengthAdjust="spacing" textLength="111.6035" x="13" y="316.0726">Codes: 999, CCI</text><text fill="#000000" font-family="sans-serif" font-size="14" lengthAdjust="spacing" textLength="292.2432" x="13" y="332.3695">Quelle: REQOTE_MIG_1_3b_20241001.pdf</text><line style="stroke:#181818;stroke-width:0.5;" x1="8" x2="437.2959" y1="339.6713" y2="339.6713"/><text fill="#000000" font-family="sans-serif" font-size="14" lengthAdjust="spacing" textLength="419.2959" x="13" y="356.6664">Prozesse: Bestellung einer technischen Konfiguration (MSB)</text></g><!--class CCI_1170_proc_1--><g class="entity" data-entity="CCI_1170_proc_1" data-source-line="16" data-uid="ent0005" id="entity_CCI_1170_proc_1"><rect fill="#F1F1F1" height="105.1563" rx="2.5" ry="2.5" style="stroke:#181818;stroke-width:0.5;" width="1301.9961" x="473.65" y="238.4969"/><ellipse cx="1060.3375" cy="258.6297" fill="#ADD1B2" rx="11" ry="11" style="stroke:#181818;stroke-width:1;"/><path d="M1063.3063,264.2703 Q1062.7281,264.5672 1062.0875,264.7078 Q1061.4469,264.8641 1060.7438,264.8641 Q1058.2438,264.8641 1056.9156,263.2234 Q1055.6031,261.5672 1055.6031,258.4422 Q1055.6031,255.3172 1056.9156,253.6609 Q1058.2438,252.0047 1060.7438,252.0047 Q1061.4469,252.0047 1062.0875,252.1609 Q1062.7438,252.3172 1063.3063,252.6141 L1063.3063,255.3328 Q1062.6813,254.7547 1062.0875,254.4891 Q1061.4938,254.2078 1060.8688,254.2078 Q1059.525,254.2078 1058.8375,255.2859 Q1058.15,256.3484 1058.15,258.4422 Q1058.15,260.5359 1058.8375,261.6141 Q1059.525,262.6766 1060.8688,262.6766 Q1061.4938,262.6766 1062.0875,262.4109 Q1062.6813,262.1297 1063.3063,261.5516 L1063.3063,264.2703 Z " fill="#000000"/><text fill="#000000" font-family="sans-serif" font-size="12" font-style="italic" lengthAdjust="spacing" textLength="61.0605" x="1110.3678" y="254.6355">&#171;process&#187;</text><text fill="#000000" font-family="sans-serif" font-size="14" lengthAdjust="spacing" textLength="120.1211" x="1080.8375" y="270.4607">CCI_1170_proc_1</text><line style="stroke:#181818;stroke-width:0.5;" x1="474.65" x2="1774.6461" y1="278.7625" y2="278.7625"/><text fill="#000000" font-family="sans-serif" font-size="14" lengthAdjust="spacing" textLength="156.4063" x="479.65" y="295.7576">Gesetze: MsbG, EnWG</text><text fill="#000000" font-family="sans-serif" font-size="14" lengthAdjust="spacing" textLength="1289.9961" x="479.65" y="312.0545">Zusammenfassung: Erl&#228;utere den Prozess zur Bestellung einer spezifischen technischen Konfiguration bei einem Messstellenbetreiber, beispielsweise f&#252;r ein intelligentes Messsystem.</text><line style="stroke:#181818;stroke-width:0.5;" x1="474.65" x2="1774.6461" y1="319.3563" y2="319.3563"/><text fill="#000000" font-family="sans-serif" font-size="14" lengthAdjust="spacing" textLength="348.2021" x="479.65" y="336.3514">Bestellung einer technischen Konfiguration (MSB)</text></g><!--link CCI_1170 to CCI_1170_msg_1--><g class="link" data-entity-1="CCI_1170" data-entity-2="CCI_1170_msg_1" data-source-line="15" data-uid="lnk4" id="link_CCI_1170_CCI_1170_msg_1"><path codeLine="15" d="M563.61,141.6469 C511.07,164.5169 452.5712,189.9816 394.2812,215.3616" fill="none" id="CCI_1170-to-CCI_1170_msg_1" style="stroke:#181818;stroke-width:1;"/><polygon fill="#181818" points="388.78,217.7569,398.6286,217.8314,393.3643,215.7608,395.4349,210.4966,388.78,217.7569" style="stroke:#181818;stroke-width:1;"/><text fill="#000000" font-family="sans-serif" font-size="13" lengthAdjust="spacing" textLength="85.2363" x="489.65" y="184.2538">verwendet in</text></g><!--link CCI_1170 to CCI_1170_proc_1--><g class="link" data-entity-1="CCI_1170" data-entity-2="CCI_1170_proc_1" data-source-line="21" data-uid="lnk6" id="link_CCI_1170_CCI_1170_proc_1"><path codeLine="21" d="M783.69,141.6469 C850.7,170.8169 930.8486,205.7122 999.5386,235.6122" fill="none" id="CCI_1170-to-CCI_1170_proc_1" style="stroke:#181818;stroke-width:1;stroke-dasharray:7,7;"/><polygon fill="#181818" points="1005.04,238.0069,998.3844,230.7472,1000.4555,236.0113,995.1914,238.0824,1005.04,238.0069" style="stroke:#181818;stroke-width:1;"/><text fill="#000000" font-family="sans-serif" font-size="13" lengthAdjust="spacing" textLength="91.6221" x="886.65" y="184.2538">eingebettet in</text></g><!--SRC=[dL3BIWD14BpdA_gea2nP5II3v60CGIM-8WXUbdtKxWxkpeQPNgCH_yRFyEQFsHEZICI3dgQxkhkgfbXp1JgA6IRcAdRKez7eM8NXVh-JIkzy6_cMdZf4Pt4DHREqNA2g5h0C0IziiuHpK5AJ41p2iOnRKn2qWIL6MXhjqXA6JXkJwwArCUl6qDPqThZTUTwGYcfNHE5QC2sjJajMT3M-FByUKnZi9Z8G7iQ3m5yRC8vjUyUjzPxoocCvgapHIIp8gCdW50q6WwuN-kxxxuw9BbivmAUhQ7eyYS9eDubs-ZjxORyV1lCibuzzfTVh3JV_f-WUTW6JWKcRpGpcjabbwU305s9pE5m5yW-h4pZmKhnENJBfqjZSJ0IzRLrSrp2vg0gReh6jtbvQXWLbmhLEXvQj_IdgvbZgVAtwkuC4UdLGqrIeLXmm2TX29x1TFtTpZSejf03bRw_MxqiQVbKNaDTzt3xATHryJpG8XZ_IKlwyW4ZmAjHt]--></g></svg>