<svg xmlns="http://www.w3.org/2000/svg" xmlns:xlink="http://www.w3.org/1999/xlink" contentStyleType="text/css" data-diagram-type="CLASS" height="419px" preserveAspectRatio="none" style="width:5351px;height:419px;background:#FFFFFF;" version="1.1" viewBox="0 0 5351 419" width="5351px" zoomAndPan="magnify"><title>Datenatlas - CCI:7037</title><defs/><g><g class="title" data-source-line="1"><text fill="#000000" font-family="sans-serif" font-size="14" font-weight="bold" lengthAdjust="spacing" textLength="171.8213" x="2582.824" y="22.9951">Datenatlas - CCI:7037</text></g><!--class CCI_7037--><g class="entity" data-entity="CCI_7037" data-source-line="2" data-uid="ent0002" id="entity_CCI_7037"><rect fill="#F1F1F1" height="145.7813" rx="2.5" ry="2.5" style="stroke:#181818;stroke-width:0.5;" width="374.2021" x="1849.37" y="44.2969"/><ellipse cx="1999.0668" cy="60.2969" fill="#ADD1B2" rx="11" ry="11" style="stroke:#181818;stroke-width:1;"/><path d="M2002.0355,65.9375 Q2001.4574,66.2344 2000.8168,66.375 Q2000.1762,66.5313 1999.473,66.5313 Q1996.973,66.5313 1995.6449,64.8906 Q1994.3324,63.2344 1994.3324,60.1094 Q1994.3324,56.9844 1995.6449,55.3281 Q1996.973,53.6719 1999.473,53.6719 Q2000.1762,53.6719 2000.8168,53.8281 Q2001.473,53.9844 2002.0355,54.2813 L2002.0355,57 Q2001.4105,56.4219 2000.8168,56.1563 Q2000.223,55.875 1999.598,55.875 Q1998.2543,55.875 1997.5668,56.9531 Q1996.8793,58.0156 1996.8793,60.1094 Q1996.8793,62.2031 1997.5668,63.2813 Q1998.2543,64.3438 1999.598,64.3438 Q2000.223,64.3438 2000.8168,64.0781 Q2001.4105,63.7969 2002.0355,63.2188 L2002.0355,65.9375 Z " fill="#000000"/><text fill="#000000" font-family="sans-serif" font-size="14" lengthAdjust="spacing" textLength="66.3086" x="2019.5668" y="65.1436">CCI_7037</text><line style="stroke:#181818;stroke-width:0.5;" x1="1850.37" x2="2222.5721" y1="76.2969" y2="76.2969"/><text fill="#000000" font-family="sans-serif" font-size="14" lengthAdjust="spacing" textLength="155.873" x="1869.37" y="93.292">Name: Merkmal, Code</text><text fill="#000000" font-family="sans-serif" font-size="14" lengthAdjust="spacing" textLength="66.6436" x="1869.37" y="109.5889">Prozesse:</text><rect fill="none" height="6" style="stroke:#C82930;stroke-width:1;" width="6" x="1857.37" y="119.5391"/><text fill="#000000" font-family="sans-serif" font-size="14" lengthAdjust="spacing" textLength="334.3525" x="1869.37" y="125.8857">Anforderung und &#220;bermittlung von Messwerten</text><rect fill="none" height="6" style="stroke:#C82930;stroke-width:1;" width="6" x="1857.37" y="135.8359"/><text fill="#000000" font-family="sans-serif" font-size="14" lengthAdjust="spacing" textLength="158.0127" x="1869.37" y="142.1826">Stammdaten&#228;nderung</text><rect fill="none" height="6" style="stroke:#C82930;stroke-width:1;" width="6" x="1857.37" y="152.1328"/><text fill="#000000" font-family="sans-serif" font-size="14" lengthAdjust="spacing" textLength="317.9668" x="1869.37" y="158.4795">Sperrung und Entsperrung eines Anschlusses</text><line style="stroke:#181818;stroke-width:0.5;" x1="1850.37" x2="2222.5721" y1="165.7813" y2="165.7813"/><rect fill="#F24D5C" height="6" style="stroke:#C82930;stroke-width:1;" width="6" x="1857.37" y="176.4297"/><text fill="#000000" font-family="sans-serif" font-size="14" lengthAdjust="spacing" textLength="348.2021" x="1869.37" y="182.7764">Bestellung einer technischen Konfiguration (MSB)</text></g><!--class CCI_7037_msg_1--><g class="entity" data-entity="CCI_7037_msg_1" data-source-line="10" data-uid="ent0003" id="entity_CCI_7037_msg_1"><rect fill="#F1F1F1" height="145.7813" rx="2.5" ry="2.5" style="stroke:#181818;stroke-width:0.5;" width="432.9502" x="7" y="267.0769"/><ellipse cx="159.708" cy="283.0769" fill="#ADD1B2" rx="11" ry="11" style="stroke:#181818;stroke-width:1;"/><path d="M162.6768,288.7175 Q162.0986,289.0144 161.458,289.155 Q160.8174,289.3113 160.1143,289.3113 Q157.6143,289.3113 156.2861,287.6706 Q154.9736,286.0144 154.9736,282.8894 Q154.9736,279.7644 156.2861,278.1081 Q157.6143,276.4519 160.1143,276.4519 Q160.8174,276.4519 161.458,276.6081 Q162.1143,276.7644 162.6768,277.0613 L162.6768,279.78 Q162.0518,279.2019 161.458,278.9363 Q160.8643,278.655 160.2393,278.655 Q158.8955,278.655 158.208,279.7331 Q157.5205,280.7956 157.5205,282.8894 Q157.5205,284.9831 158.208,286.0613 Q158.8955,287.1238 160.2393,287.1238 Q160.8643,287.1238 161.458,286.8581 Q162.0518,286.5769 162.6768,285.9988 L162.6768,288.7175 Z " fill="#000000"/><text fill="#000000" font-family="sans-serif" font-size="14" lengthAdjust="spacing" textLength="119.0342" x="180.208" y="287.9236">CCI_7037_msg_1</text><line style="stroke:#181818;stroke-width:0.5;" x1="8" x2="438.9502" y1="299.0769" y2="299.0769"/><text fill="#000000" font-family="sans-serif" font-size="14" lengthAdjust="spacing" textLength="172.0264" x="13" y="316.072">Nachricht: MSCONS 2.4c</text><text fill="#000000" font-family="sans-serif" font-size="14" lengthAdjust="spacing" textLength="170.3447" x="13" y="332.3689">Kontext: Segmentlayout</text><text fill="#000000" font-family="sans-serif" font-size="14" lengthAdjust="spacing" textLength="91.4033" x="13" y="348.6657">Pflichtfeld: Ja</text><text fill="#000000" font-family="sans-serif" font-size="14" lengthAdjust="spacing" textLength="308.1777" x="13" y="364.9626">Codes: 15, 17, 99, CCI, OCR, SG5, SG6, SG8</text><text fill="#000000" font-family="sans-serif" font-size="14" lengthAdjust="spacing" textLength="405.4463" x="13" y="381.2595">Prozesse: Anforderung und &#220;bermittlung von Messwerten</text><text fill="#000000" font-family="sans-serif" font-size="14" lengthAdjust="spacing" textLength="420.9502" x="13" y="397.5564">Quelle: MSCONS_MIG_2_4c_au&#223;erordentliche_20240726.pdf</text><line style="stroke:#181818;stroke-width:0.5;" x1="8" x2="438.9502" y1="404.8581" y2="404.8581"/></g><!--class CCI_7037_msg_2--><g class="entity" data-entity="CCI_7037_msg_2" data-source-line="19" data-uid="ent0005" id="entity_CCI_7037_msg_2"><rect fill="#F1F1F1" height="145.7813" rx="2.5" ry="2.5" style="stroke:#181818;stroke-width:0.5;" width="296.8604" x="475.04" y="267.0769"/><ellipse cx="559.7031" cy="283.0769" fill="#ADD1B2" rx="11" ry="11" style="stroke:#181818;stroke-width:1;"/><path d="M562.6718,288.7175 Q562.0937,289.0144 561.4531,289.155 Q560.8125,289.3113 560.1093,289.3113 Q557.6093,289.3113 556.2812,287.6706 Q554.9687,286.0144 554.9687,282.8894 Q554.9687,279.7644 556.2812,278.1081 Q557.6093,276.4519 560.1093,276.4519 Q560.8125,276.4519 561.4531,276.6081 Q562.1093,276.7644 562.6718,277.0613 L562.6718,279.78 Q562.0468,279.2019 561.4531,278.9363 Q560.8593,278.655 560.2343,278.655 Q558.8906,278.655 558.2031,279.7331 Q557.5156,280.7956 557.5156,282.8894 Q557.5156,284.9831 558.2031,286.0613 Q558.8906,287.1238 560.2343,287.1238 Q560.8593,287.1238 561.4531,286.8581 Q562.0468,286.5769 562.6718,285.9988 L562.6718,288.7175 Z " fill="#000000"/><text fill="#000000" font-family="sans-serif" font-size="14" lengthAdjust="spacing" textLength="119.0342" x="580.2031" y="287.9236">CCI_7037_msg_2</text><line style="stroke:#181818;stroke-width:0.5;" x1="476.04" x2="770.9004" y1="299.0769" y2="299.0769"/><text fill="#000000" font-family="sans-serif" font-size="14" lengthAdjust="spacing" textLength="162.7227" x="481.04" y="316.072">Nachricht: PARTIN 1.0e</text><text fill="#000000" font-family="sans-serif" font-size="14" lengthAdjust="spacing" textLength="170.3447" x="481.04" y="332.3689">Kontext: Segmentlayout</text><text fill="#000000" font-family="sans-serif" font-size="14" lengthAdjust="spacing" textLength="91.4033" x="481.04" y="348.6657">Pflichtfeld: Ja</text><text fill="#000000" font-family="sans-serif" font-size="14" lengthAdjust="spacing" textLength="251.5898" x="481.04" y="364.9626">Codes: 17, 999, CCI, OCR, SG4, Z19</text><text fill="#000000" font-family="sans-serif" font-size="14" lengthAdjust="spacing" textLength="229.1064" x="481.04" y="381.2595">Prozesse: Stammdaten&#228;nderung</text><text fill="#000000" font-family="sans-serif" font-size="14" lengthAdjust="spacing" textLength="284.8604" x="481.04" y="397.5564">Quelle: PARTIN_MIG_1_0e_20241001.pdf</text><line style="stroke:#181818;stroke-width:0.5;" x1="476.04" x2="770.9004" y1="404.8581" y2="404.8581"/></g><!--class CCI_7037_msg_3--><g class="entity" data-entity="CCI_7037_msg_3" data-source-line="28" data-uid="ent0007" id="entity_CCI_7037_msg_3"><rect fill="#F1F1F1" height="145.7813" rx="2.5" ry="2.5" style="stroke:#181818;stroke-width:0.5;" width="758.1631" x="807.39" y="267.0769"/><ellipse cx="1122.7045" cy="283.0769" fill="#ADD1B2" rx="11" ry="11" style="stroke:#181818;stroke-width:1;"/><path d="M1125.6732,288.7175 Q1125.0951,289.0144 1124.4545,289.155 Q1123.8138,289.3113 1123.1107,289.3113 Q1120.6107,289.3113 1119.2826,287.6706 Q1117.9701,286.0144 1117.9701,282.8894 Q1117.9701,279.7644 1119.2826,278.1081 Q1120.6107,276.4519 1123.1107,276.4519 Q1123.8138,276.4519 1124.4545,276.6081 Q1125.1107,276.7644 1125.6732,277.0613 L1125.6732,279.78 Q1125.0482,279.2019 1124.4545,278.9363 Q1123.8607,278.655 1123.2357,278.655 Q1121.892,278.655 1121.2045,279.7331 Q1120.517,280.7956 1120.517,282.8894 Q1120.517,284.9831 1121.2045,286.0613 Q1121.892,287.1238 1123.2357,287.1238 Q1123.8607,287.1238 1124.4545,286.8581 Q1125.0482,286.5769 1125.6732,285.9988 L1125.6732,288.7175 Z " fill="#000000"/><text fill="#000000" font-family="sans-serif" font-size="14" lengthAdjust="spacing" textLength="119.0342" x="1143.2045" y="287.9236">CCI_7037_msg_3</text><line style="stroke:#181818;stroke-width:0.5;" x1="808.39" x2="1564.5531" y1="299.0769" y2="299.0769"/><text fill="#000000" font-family="sans-serif" font-size="14" lengthAdjust="spacing" textLength="170.3584" x="813.39" y="316.072">Nachricht: QUOTES 1.3a</text><text fill="#000000" font-family="sans-serif" font-size="14" lengthAdjust="spacing" textLength="170.3447" x="813.39" y="332.3689">Kontext: Segmentlayout</text><text fill="#000000" font-family="sans-serif" font-size="14" lengthAdjust="spacing" textLength="91.4033" x="813.39" y="348.6657">Pflichtfeld: Ja</text><text fill="#000000" font-family="sans-serif" font-size="14" lengthAdjust="spacing" textLength="174.624" x="813.39" y="364.9626">Codes: 17, 999, CCI, Z76</text><text fill="#000000" font-family="sans-serif" font-size="14" lengthAdjust="spacing" textLength="292.4961" x="813.39" y="381.2595">Quelle: QUOTES_MIG_1_3a_20240619.pdf</text><line style="stroke:#181818;stroke-width:0.5;" x1="808.39" x2="1564.5531" y1="388.5613" y2="388.5613"/><text fill="#000000" font-family="sans-serif" font-size="14" lengthAdjust="spacing" textLength="746.1631" x="813.39" y="405.5564">Prozesse: Bestellung einer technischen Konfiguration (MSB), Sperrung und Entsperrung eines Anschlusses</text></g><!--class CCI_7037_msg_4--><g class="entity" data-entity="CCI_7037_msg_4" data-source-line="37" data-uid="ent0009" id="entity_CCI_7037_msg_4"><rect fill="#F1F1F1" height="145.7813" rx="2.5" ry="2.5" style="stroke:#181818;stroke-width:0.5;" width="431.2959" x="1600.83" y="267.0769"/><ellipse cx="1752.7109" cy="283.0769" fill="#ADD1B2" rx="11" ry="11" style="stroke:#181818;stroke-width:1;"/><path d="M1755.6796,288.7175 Q1755.1015,289.0144 1754.4609,289.155 Q1753.8202,289.3113 1753.1171,289.3113 Q1750.6171,289.3113 1749.289,287.6706 Q1747.9765,286.0144 1747.9765,282.8894 Q1747.9765,279.7644 1749.289,278.1081 Q1750.6171,276.4519 1753.1171,276.4519 Q1753.8202,276.4519 1754.4609,276.6081 Q1755.1171,276.7644 1755.6796,277.0613 L1755.6796,279.78 Q1755.0546,279.2019 1754.4609,278.9363 Q1753.8671,278.655 1753.2421,278.655 Q1751.8984,278.655 1751.2109,279.7331 Q1750.5234,280.7956 1750.5234,282.8894 Q1750.5234,284.9831 1751.2109,286.0613 Q1751.8984,287.1238 1753.2421,287.1238 Q1753.8671,287.1238 1754.4609,286.8581 Q1755.0546,286.5769 1755.6796,285.9988 L1755.6796,288.7175 Z " fill="#000000"/><text fill="#000000" font-family="sans-serif" font-size="14" lengthAdjust="spacing" textLength="119.0342" x="1773.2109" y="287.9236">CCI_7037_msg_4</text><line style="stroke:#181818;stroke-width:0.5;" x1="1601.83" x2="2031.1259" y1="299.0769" y2="299.0769"/><text fill="#000000" font-family="sans-serif" font-size="14" lengthAdjust="spacing" textLength="170.1055" x="1606.83" y="316.072">Nachricht: REQOTE 1.3b</text><text fill="#000000" font-family="sans-serif" font-size="14" lengthAdjust="spacing" textLength="170.3447" x="1606.83" y="332.3689">Kontext: Segmentlayout</text><text fill="#000000" font-family="sans-serif" font-size="14" lengthAdjust="spacing" textLength="91.4033" x="1606.83" y="348.6657">Pflichtfeld: Ja</text><text fill="#000000" font-family="sans-serif" font-size="14" lengthAdjust="spacing" textLength="285.291" x="1606.83" y="364.9626">Codes: 000, 17, 200, 999, CCI, OCR, Z52</text><text fill="#000000" font-family="sans-serif" font-size="14" lengthAdjust="spacing" textLength="292.2432" x="1606.83" y="381.2595">Quelle: REQOTE_MIG_1_3b_20241001.pdf</text><line style="stroke:#181818;stroke-width:0.5;" x1="1601.83" x2="2031.1259" y1="388.5613" y2="388.5613"/><text fill="#000000" font-family="sans-serif" font-size="14" lengthAdjust="spacing" textLength="419.2959" x="1606.83" y="405.5564">Prozesse: Bestellung einer technischen Konfiguration (MSB)</text></g><!--class CCI_7037_proc_1--><g class="entity" data-entity="CCI_7037_proc_1" data-source-line="46" data-uid="ent0011" id="entity_CCI_7037_proc_1"><rect fill="#F1F1F1" height="105.1563" rx="2.5" ry="2.5" style="stroke:#181818;stroke-width:0.5;" width="378.2285" x="2067.36" y="287.3869"/><ellipse cx="2192.1637" cy="307.5197" fill="#ADD1B2" rx="11" ry="11" style="stroke:#181818;stroke-width:1;"/><path d="M2195.1325,313.1603 Q2194.5543,313.4572 2193.9137,313.5978 Q2193.2731,313.7541 2192.57,313.7541 Q2190.07,313.7541 2188.7418,312.1134 Q2187.4293,310.4572 2187.4293,307.3322 Q2187.4293,304.2072 2188.7418,302.5509 Q2190.07,300.8947 2192.57,300.8947 Q2193.2731,300.8947 2193.9137,301.0509 Q2194.57,301.2072 2195.1325,301.5041 L2195.1325,304.2228 Q2194.5075,303.6447 2193.9137,303.3791 Q2193.32,303.0978 2192.695,303.0978 Q2191.3512,303.0978 2190.6637,304.1759 Q2189.9762,305.2384 2189.9762,307.3322 Q2189.9762,309.4259 2190.6637,310.5041 Q2191.3512,311.5666 2192.695,311.5666 Q2193.32,311.5666 2193.9137,311.3009 Q2194.5075,311.0197 2195.1325,310.4416 L2195.1325,313.1603 Z " fill="#000000"/><text fill="#000000" font-family="sans-serif" font-size="12" font-style="italic" lengthAdjust="spacing" textLength="61.0605" x="2242.194" y="303.5255">&#171;process&#187;</text><text fill="#000000" font-family="sans-serif" font-size="14" lengthAdjust="spacing" textLength="120.1211" x="2212.6637" y="319.3507">CCI_7037_proc_1</text><line style="stroke:#181818;stroke-width:0.5;" x1="2068.36" x2="2444.5885" y1="327.6525" y2="327.6525"/><text fill="#000000" font-family="sans-serif" font-size="14" lengthAdjust="spacing" textLength="334.3525" x="2073.36" y="344.6476">Anforderung und &#220;bermittlung von Messwerten</text><text fill="#000000" font-family="sans-serif" font-size="14" lengthAdjust="spacing" textLength="105.0957" x="2073.36" y="360.9445">Gesetze: MsbG</text><line style="stroke:#181818;stroke-width:0.5;" x1="2068.36" x2="2444.5885" y1="368.2463" y2="368.2463"/><text fill="#000000" font-family="sans-serif" font-size="14" lengthAdjust="spacing" textLength="366.2285" x="2073.36" y="385.2414">Zusammenfassung: Wie kann ein Marktpartner (z.B.</text></g><!--class CCI_7037_proc_2--><g class="entity" data-entity="CCI_7037_proc_2" data-source-line="52" data-uid="ent0013" id="entity_CCI_7037_proc_2"><rect fill="#F1F1F1" height="88.8594" rx="2.5" ry="2.5" style="stroke:#181818;stroke-width:0.5;" width="638.3496" x="2480.3" y="295.5369"/><ellipse cx="2735.1643" cy="315.6697" fill="#ADD1B2" rx="11" ry="11" style="stroke:#181818;stroke-width:1;"/><path d="M2738.133,321.3103 Q2737.5549,321.6072 2736.9143,321.7478 Q2736.2736,321.9041 2735.5705,321.9041 Q2733.0705,321.9041 2731.7424,320.2634 Q2730.4299,318.6072 2730.4299,315.4822 Q2730.4299,312.3572 2731.7424,310.7009 Q2733.0705,309.0447 2735.5705,309.0447 Q2736.2736,309.0447 2736.9143,309.2009 Q2737.5705,309.3572 2738.133,309.6541 L2738.133,312.3728 Q2737.508,311.7947 2736.9143,311.5291 Q2736.3205,311.2478 2735.6955,311.2478 Q2734.3518,311.2478 2733.6643,312.3259 Q2732.9768,313.3884 2732.9768,315.4822 Q2732.9768,317.5759 2733.6643,318.6541 Q2734.3518,319.7166 2735.6955,319.7166 Q2736.3205,319.7166 2736.9143,319.4509 Q2737.508,319.1697 2738.133,318.5916 L2738.133,321.3103 Z " fill="#000000"/><text fill="#000000" font-family="sans-serif" font-size="12" font-style="italic" lengthAdjust="spacing" textLength="61.0605" x="2785.1945" y="311.6755">&#171;process&#187;</text><text fill="#000000" font-family="sans-serif" font-size="14" lengthAdjust="spacing" textLength="120.1211" x="2755.6643" y="327.5007">CCI_7037_proc_2</text><line style="stroke:#181818;stroke-width:0.5;" x1="2481.3" x2="3117.6496" y1="335.8025" y2="335.8025"/><text fill="#000000" font-family="sans-serif" font-size="14" lengthAdjust="spacing" textLength="158.0127" x="2486.3" y="352.7976">Stammdaten&#228;nderung</text><text fill="#000000" font-family="sans-serif" font-size="14" lengthAdjust="spacing" textLength="626.3496" x="2486.3" y="369.0945">Zusammenfassung: Wie wird eine Stammdaten&#228;nderung an einer Marktlokation, wie z.B.</text><line style="stroke:#181818;stroke-width:0.5;" x1="2481.3" x2="3117.6496" y1="376.3963" y2="376.3963"/></g><!--class CCI_7037_proc_3--><g class="entity" data-entity="CCI_7037_proc_3" data-source-line="57" data-uid="ent0015" id="entity_CCI_7037_proc_3"><rect fill="#F1F1F1" height="105.1563" rx="2.5" ry="2.5" style="stroke:#181818;stroke-width:0.5;" width="1301.9961" x="3153.48" y="287.3869"/><ellipse cx="3740.1675" cy="307.5197" fill="#ADD1B2" rx="11" ry="11" style="stroke:#181818;stroke-width:1;"/><path d="M3743.1363,313.1603 Q3742.5581,313.4572 3741.9175,313.5978 Q3741.2769,313.7541 3740.5738,313.7541 Q3738.0738,313.7541 3736.7456,312.1134 Q3735.4331,310.4572 3735.4331,307.3322 Q3735.4331,304.2072 3736.7456,302.5509 Q3738.0738,300.8947 3740.5738,300.8947 Q3741.2769,300.8947 3741.9175,301.0509 Q3742.5738,301.2072 3743.1363,301.5041 L3743.1363,304.2228 Q3742.5113,303.6447 3741.9175,303.3791 Q3741.3238,303.0978 3740.6988,303.0978 Q3739.355,303.0978 3738.6675,304.1759 Q3737.98,305.2384 3737.98,307.3322 Q3737.98,309.4259 3738.6675,310.5041 Q3739.355,311.5666 3740.6988,311.5666 Q3741.3238,311.5666 3741.9175,311.3009 Q3742.5113,311.0197 3743.1363,310.4416 L3743.1363,313.1603 Z " fill="#000000"/><text fill="#000000" font-family="sans-serif" font-size="12" font-style="italic" lengthAdjust="spacing" textLength="61.0605" x="3790.1978" y="303.5255">&#171;process&#187;</text><text fill="#000000" font-family="sans-serif" font-size="14" lengthAdjust="spacing" textLength="120.1211" x="3760.6675" y="319.3507">CCI_7037_proc_3</text><line style="stroke:#181818;stroke-width:0.5;" x1="3154.48" x2="4454.4761" y1="327.6525" y2="327.6525"/><text fill="#000000" font-family="sans-serif" font-size="14" lengthAdjust="spacing" textLength="156.4063" x="3159.48" y="344.6476">Gesetze: MsbG, EnWG</text><text fill="#000000" font-family="sans-serif" font-size="14" lengthAdjust="spacing" textLength="1289.9961" x="3159.48" y="360.9445">Zusammenfassung: Erl&#228;utere den Prozess zur Bestellung einer spezifischen technischen Konfiguration bei einem Messstellenbetreiber, beispielsweise f&#252;r ein intelligentes Messsystem.</text><line style="stroke:#181818;stroke-width:0.5;" x1="3154.48" x2="4454.4761" y1="368.2463" y2="368.2463"/><text fill="#000000" font-family="sans-serif" font-size="14" lengthAdjust="spacing" textLength="348.2021" x="3159.48" y="385.2414">Bestellung einer technischen Konfiguration (MSB)</text></g><!--class CCI_7037_proc_4--><g class="entity" data-entity="CCI_7037_proc_4" data-source-line="63" data-uid="ent0017" id="entity_CCI_7037_proc_4"><rect fill="#F1F1F1" height="105.1563" rx="2.5" ry="2.5" style="stroke:#181818;stroke-width:0.5;" width="853.9893" x="4490.48" y="287.3869"/><ellipse cx="4853.1641" cy="307.5197" fill="#ADD1B2" rx="11" ry="11" style="stroke:#181818;stroke-width:1;"/><path d="M4856.1328,313.1603 Q4855.5547,313.4572 4854.9141,313.5978 Q4854.2735,313.7541 4853.5703,313.7541 Q4851.0703,313.7541 4849.7422,312.1134 Q4848.4297,310.4572 4848.4297,307.3322 Q4848.4297,304.2072 4849.7422,302.5509 Q4851.0703,300.8947 4853.5703,300.8947 Q4854.2735,300.8947 4854.9141,301.0509 Q4855.5703,301.2072 4856.1328,301.5041 L4856.1328,304.2228 Q4855.5078,303.6447 4854.9141,303.3791 Q4854.3203,303.0978 4853.6953,303.0978 Q4852.3516,303.0978 4851.6641,304.1759 Q4850.9766,305.2384 4850.9766,307.3322 Q4850.9766,309.4259 4851.6641,310.5041 Q4852.3516,311.5666 4853.6953,311.5666 Q4854.3203,311.5666 4854.9141,311.3009 Q4855.5078,311.0197 4856.1328,310.4416 L4856.1328,313.1603 Z " fill="#000000"/><text fill="#000000" font-family="sans-serif" font-size="12" font-style="italic" lengthAdjust="spacing" textLength="61.0605" x="4903.1944" y="303.5255">&#171;process&#187;</text><text fill="#000000" font-family="sans-serif" font-size="14" lengthAdjust="spacing" textLength="120.1211" x="4873.6641" y="319.3507">CCI_7037_proc_4</text><line style="stroke:#181818;stroke-width:0.5;" x1="4491.48" x2="5343.4693" y1="327.6525" y2="327.6525"/><text fill="#000000" font-family="sans-serif" font-size="14" lengthAdjust="spacing" textLength="317.9668" x="4496.48" y="344.6476">Sperrung und Entsperrung eines Anschlusses</text><text fill="#000000" font-family="sans-serif" font-size="14" lengthAdjust="spacing" textLength="138.3252" x="4496.48" y="360.9445">Gesetze: StromGVV</text><text fill="#000000" font-family="sans-serif" font-size="14" lengthAdjust="spacing" textLength="841.9893" x="4496.48" y="377.2414">Zusammenfassung: Beschreibe den End-to-End-Prozess f&#252;r die Sperrung und Wiederherstellung eines Netzanschlusses.</text><line style="stroke:#181818;stroke-width:0.5;" x1="4491.48" x2="5343.4693" y1="384.5431" y2="384.5431"/></g><!--link CCI_7037 to CCI_7037_msg_1--><g class="link" data-entity-1="CCI_7037" data-entity-2="CCI_7037_msg_1" data-source-line="18" data-uid="lnk4" id="link_CCI_7037_CCI_7037_msg_1"><path codeLine="18" d="M1848.95,121.5869 C1550.97,130.1769 952.41,160.4369 457.48,267.0769 C451.76,268.3069 451.8298,268.2398 446.0198,269.6098" fill="none" id="CCI_7037-to-CCI_7037_msg_1" style="stroke:#181818;stroke-width:1;"/><polygon fill="#181818" points="440.18,270.9869,449.8578,272.8145,445.0465,269.8393,448.0217,265.0281,440.18,270.9869" style="stroke:#181818;stroke-width:1;"/><text fill="#000000" font-family="sans-serif" font-size="13" lengthAdjust="spacing" textLength="85.2363" x="670.48" y="233.1438">verwendet in</text></g><!--link CCI_7037 to CCI_7037_msg_2--><g class="link" data-entity-1="CCI_7037" data-entity-2="CCI_7037_msg_2" data-source-line="27" data-uid="lnk6" id="link_CCI_7037_CCI_7037_msg_2"><path codeLine="27" d="M1848.94,123.7069 C1602.11,134.7869 1156.52,167.9569 789.48,267.0769 C783.71,268.6269 783.609,268.5421 777.779,270.3921" fill="none" id="CCI_7037-to-CCI_7037_msg_2" style="stroke:#181818;stroke-width:1;"/><polygon fill="#181818" points="772.06,272.2069,781.8483,273.2974,776.8258,270.6946,779.4286,265.6721,772.06,272.2069" style="stroke:#181818;stroke-width:1;"/><text fill="#000000" font-family="sans-serif" font-size="13" lengthAdjust="spacing" textLength="85.2363" x="990.48" y="233.1438">verwendet in</text></g><!--link CCI_7037 to CCI_7037_msg_3--><g class="link" data-entity-1="CCI_7037" data-entity-2="CCI_7037_msg_3" data-source-line="36" data-uid="lnk8" id="link_CCI_7037_CCI_7037_msg_3"><path codeLine="36" d="M1848.89,166.9069 C1736.2,196.1769 1596.5273,232.4587 1470.6173,265.1587" fill="none" id="CCI_7037-to-CCI_7037_msg_3" style="stroke:#181818;stroke-width:1;"/><polygon fill="#181818" points="1464.81,266.6669,1474.5265,268.2761,1469.6495,265.41,1472.5155,260.533,1464.81,266.6669" style="stroke:#181818;stroke-width:1;"/><text fill="#000000" font-family="sans-serif" font-size="13" lengthAdjust="spacing" textLength="85.2363" x="1638.48" y="233.1438">verwendet in</text></g><!--link CCI_7037 to CCI_7037_msg_4--><g class="link" data-entity-1="CCI_7037" data-entity-2="CCI_7037_msg_4" data-source-line="45" data-uid="lnk10" id="link_CCI_7037_CCI_7037_msg_4"><path codeLine="45" d="M1964.44,190.4769 C1940,214.9969 1916.9557,238.1373 1892.5357,262.6373" fill="none" id="CCI_7037-to-CCI_7037_msg_4" style="stroke:#181818;stroke-width:1;"/><polygon fill="#181818" points="1888.3,266.8869,1897.4866,263.3363,1891.8297,263.3456,1891.8205,257.6887,1888.3,266.8869" style="stroke:#181818;stroke-width:1;"/><text fill="#000000" font-family="sans-serif" font-size="13" lengthAdjust="spacing" textLength="85.2363" x="1934.48" y="233.1438">verwendet in</text></g><!--link CCI_7037 to CCI_7037_proc_1--><g class="link" data-entity-1="CCI_7037" data-entity-2="CCI_7037_proc_1" data-source-line="51" data-uid="lnk12" id="link_CCI_7037_CCI_7037_proc_1"><path codeLine="51" d="M2108.51,190.4769 C2139.97,222.0469 2171.9047,254.0969 2200.6147,282.9069" fill="none" id="CCI_7037-to-CCI_7037_proc_1" style="stroke:#181818;stroke-width:1;stroke-dasharray:7,7;"/><polygon fill="#181818" points="2204.85,287.1569,2201.3305,277.9584,2201.3206,283.6152,2195.6638,283.6054,2204.85,287.1569" style="stroke:#181818;stroke-width:1;"/><text fill="#000000" font-family="sans-serif" font-size="13" lengthAdjust="spacing" textLength="91.6221" x="2154.48" y="233.1438">eingebettet in</text></g><!--link CCI_7037 to CCI_7037_proc_2--><g class="link" data-entity-1="CCI_7037" data-entity-2="CCI_7037_proc_2" data-source-line="56" data-uid="lnk14" id="link_CCI_7037_CCI_7037_proc_2"><path codeLine="56" d="M2223.61,172.3369 C2354.1,210.0969 2520.2265,258.159 2642.1365,293.439" fill="none" id="CCI_7037-to-CCI_7037_proc_2" style="stroke:#181818;stroke-width:1;stroke-dasharray:7,7;"/><polygon fill="#181818" points="2647.9,295.1069,2640.3667,288.7627,2643.0971,293.7169,2638.1428,296.4473,2647.9,295.1069" style="stroke:#181818;stroke-width:1;"/><text fill="#000000" font-family="sans-serif" font-size="13" lengthAdjust="spacing" textLength="91.6221" x="2442.48" y="233.1438">eingebettet in</text></g><!--link CCI_7037 to CCI_7037_proc_3--><g class="link" data-entity-1="CCI_7037" data-entity-2="CCI_7037_proc_3" data-source-line="62" data-uid="lnk16" id="link_CCI_7037_CCI_7037_proc_3"><path codeLine="62" d="M2224.01,141.6069 C2499.17,175.9669 3013.5662,240.2034 3381.9262,286.2034" fill="none" id="CCI_7037-to-CCI_7037_proc_3" style="stroke:#181818;stroke-width:1;stroke-dasharray:7,7;"/><polygon fill="#181818" points="3387.88,286.9469,3379.445,281.8625,3382.9185,286.3273,3378.4537,289.8008,3387.88,286.9469" style="stroke:#181818;stroke-width:1;"/><text fill="#000000" font-family="sans-serif" font-size="13" lengthAdjust="spacing" textLength="91.6221" x="2975.48" y="233.1438">eingebettet in</text></g><!--link CCI_7037 to CCI_7037_proc_4--><g class="link" data-entity-1="CCI_7037" data-entity-2="CCI_7037_proc_4" data-source-line="68" data-uid="lnk18" id="link_CCI_7037_CCI_7037_proc_4"><path codeLine="68" d="M2223.82,123.3069 C2633,135.8769 3636.82,174.2669 4472.48,267.0769 C4520.7,272.4269 4565.7376,278.5089 4615.2876,286.0089" fill="none" id="CCI_7037-to-CCI_7037_proc_4" style="stroke:#181818;stroke-width:1;stroke-dasharray:7,7;"/><polygon fill="#181818" points="4621.22,286.9069,4612.92,281.605,4616.2763,286.1586,4611.7227,289.5149,4621.22,286.9069" style="stroke:#181818;stroke-width:1;"/><text fill="#000000" font-family="sans-serif" font-size="13" lengthAdjust="spacing" textLength="91.6221" x="4143.48" y="233.1438">eingebettet in</text></g><!--SRC=[hPJDRjf04CVlUOevff91jd6WM15IGX5AAyW7QI9niHPx32liDTfTDmrLtwHIBtcCtdYnpXf8maS4fBqOxvgP-Vz_ExEQwmJX4zCec4wOWX8qcnT-pQxKZa9QAxCCp19-705qMOe-T52EKvPOqCmYfDqhcKrHAVJf7IZ3cOWp6Q7CnH1o4S7irm1bohLEpCwtJ506fHvGKjL5I4-pD8sCZDcJc8SklfoZqfWKaSW5Ij0OZWHNuGW5VCb4p8UvP9fJrkDEx_p3Ck44vRE0bj1gkJP954ca14bEejNHppMdGQg6WRFm6uua3qUQJFUQbzqUk6Klf0zKMEDtskxXC4L1w1wpN1iMSMB-7sCI-V2PqOw1f7nmJYnmQXRKwvQfPC5byyQ2Nll4FAhcyV4roaCXNkS42PSoWyv5Et03BmnOFlkDqcGYaQGC0zTsFRlcLikJA2Rlp-TRAZNM4VZm3UK3qe5eu68R9dSTqzNPpUr55vooZU_3L21QO-HPq7VgAtYsDyoImbn5GS49xBbdnxQTdPxTFJnNrZrVVxsyRVN8SuNz1y_zMdN5wQ43O1tI-o_8vYOMo2fitYPLfxuJMMKFPDuwiflMDPKpo0RlGcRRzdoSNFEorZ3z4_UV2BwYCjUvf3BOlv6y7LGcCWjfmavFpGl9R3GAH0TEVHiLwgaPUpLeqxgVAneB537LeW0VxZd2c0bXZ4E7oR6UCAaDW-Df-RpysaAvtDYGvvku8GvGwxTTk1ikjW_dLd4FN4R5gMmB0YOM9rP8Jx9nSKeMHI7irk_kfx-oeVyT3RDo4XPDtVtMysZ9PFQKQvG8T2ClUnIckTmiIcCxvV6YwjiA1iYBWBHeZI872d8iaLFlMEQxcd1Cg6kuGeXdVsJH3LoOl_8XpHjT2aNi8qMdEw1MzeFgRJR58RVICywUbbdQlhlR1fE8qOLYR1OmMo8gwQnaVfPS2xCHDSjASUexwgyHoXNW2hfKaht8s072sm3n5m00]--></g></svg>