<svg xmlns="http://www.w3.org/2000/svg" xmlns:xlink="http://www.w3.org/1999/xlink" contentStyleType="text/css" data-diagram-type="CLASS" height="370px" preserveAspectRatio="none" style="width:984px;height:370px;background:#FFFFFF;" version="1.1" viewBox="0 0 984 370" width="984px" zoomAndPan="magnify"><title>Datenatlas - CCI:0500</title><defs/><g><g class="title" data-source-line="1"><text fill="#000000" font-family="sans-serif" font-size="14" font-weight="bold" lengthAdjust="spacing" textLength="171.8213" x="399.3942" y="22.9951">Datenatlas - CCI:0500</text></g><!--class CCI_0500--><g class="entity" data-entity="CCI_0500" data-source-line="2" data-uid="ent0002" id="entity_CCI_0500"><rect fill="#F1F1F1" height="96.8906" rx="2.5" ry="2.5" style="stroke:#181818;stroke-width:0.5;" width="278.335" x="267.26" y="44.2969"/><ellipse cx="369.0232" cy="60.2969" fill="#ADD1B2" rx="11" ry="11" style="stroke:#181818;stroke-width:1;"/><path d="M371.9919,65.9375 Q371.4138,66.2344 370.7732,66.375 Q370.1326,66.5313 369.4294,66.5313 Q366.9294,66.5313 365.6013,64.8906 Q364.2888,63.2344 364.2888,60.1094 Q364.2888,56.9844 365.6013,55.3281 Q366.9294,53.6719 369.4294,53.6719 Q370.1326,53.6719 370.7732,53.8281 Q371.4294,53.9844 371.9919,54.2813 L371.9919,57 Q371.3669,56.4219 370.7732,56.1563 Q370.1794,55.875 369.5544,55.875 Q368.2107,55.875 367.5232,56.9531 Q366.8357,58.0156 366.8357,60.1094 Q366.8357,62.2031 367.5232,63.2813 Q368.2107,64.3438 369.5544,64.3438 Q370.1794,64.3438 370.7732,64.0781 Q371.3669,63.7969 371.9919,63.2188 L371.9919,65.9375 Z " fill="#000000"/><text fill="#000000" font-family="sans-serif" font-size="14" lengthAdjust="spacing" textLength="66.3086" x="389.5232" y="65.1436">CCI_0500</text><line style="stroke:#181818;stroke-width:0.5;" x1="268.26" x2="544.595" y1="76.2969" y2="76.2969"/><text fill="#000000" font-family="sans-serif" font-size="14" lengthAdjust="spacing" textLength="252.335" x="287.26" y="93.292">Name: Erreichbarkeit an Werktagen</text><text fill="#000000" font-family="sans-serif" font-size="14" lengthAdjust="spacing" textLength="66.6436" x="287.26" y="109.5889">Prozesse:</text><rect fill="none" height="6" style="stroke:#C82930;stroke-width:1;" width="6" x="275.26" y="119.5391"/><text fill="#000000" font-family="sans-serif" font-size="14" lengthAdjust="spacing" textLength="158.0127" x="287.26" y="125.8857">Stammdaten&#228;nderung</text><line style="stroke:#181818;stroke-width:0.5;" x1="268.26" x2="544.595" y1="133.1875" y2="133.1875"/></g><!--class CCI_0500_msg_1--><g class="entity" data-entity="CCI_0500_msg_1" data-source-line="7" data-uid="ent0003" id="entity_CCI_0500_msg_1"><rect fill="#F1F1F1" height="145.7813" rx="2.5" ry="2.5" style="stroke:#181818;stroke-width:0.5;" width="296.8604" x="7" y="218.1869"/><ellipse cx="91.6631" cy="234.1869" fill="#ADD1B2" rx="11" ry="11" style="stroke:#181818;stroke-width:1;"/><path d="M94.6318,239.8275 Q94.0537,240.1244 93.4131,240.265 Q92.7725,240.4213 92.0693,240.4213 Q89.5693,240.4213 88.2412,238.7806 Q86.9287,237.1244 86.9287,233.9994 Q86.9287,230.8744 88.2412,229.2181 Q89.5693,227.5619 92.0693,227.5619 Q92.7725,227.5619 93.4131,227.7181 Q94.0693,227.8744 94.6318,228.1713 L94.6318,230.89 Q94.0068,230.3119 93.4131,230.0463 Q92.8193,229.765 92.1943,229.765 Q90.8506,229.765 90.1631,230.8431 Q89.4756,231.9056 89.4756,233.9994 Q89.4756,236.0931 90.1631,237.1713 Q90.8506,238.2338 92.1943,238.2338 Q92.8193,238.2338 93.4131,237.9681 Q94.0068,237.6869 94.6318,237.1088 L94.6318,239.8275 Z " fill="#000000"/><text fill="#000000" font-family="sans-serif" font-size="14" lengthAdjust="spacing" textLength="119.0342" x="112.1631" y="239.0336">CCI_0500_msg_1</text><line style="stroke:#181818;stroke-width:0.5;" x1="8" x2="302.8604" y1="250.1869" y2="250.1869"/><text fill="#000000" font-family="sans-serif" font-size="14" lengthAdjust="spacing" textLength="162.7227" x="13" y="267.182">Nachricht: PARTIN 1.0e</text><text fill="#000000" font-family="sans-serif" font-size="14" lengthAdjust="spacing" textLength="204.1143" x="13" y="283.4789">Kontext: Nachrichtenstruktur</text><text fill="#000000" font-family="sans-serif" font-size="14" lengthAdjust="spacing" textLength="91.4033" x="13" y="299.7757">Pflichtfeld: Ja</text><text fill="#000000" font-family="sans-serif" font-size="14" lengthAdjust="spacing" textLength="75.9814" x="13" y="316.0726">Codes: CCI</text><text fill="#000000" font-family="sans-serif" font-size="14" lengthAdjust="spacing" textLength="229.1064" x="13" y="332.3695">Prozesse: Stammdaten&#228;nderung</text><text fill="#000000" font-family="sans-serif" font-size="14" lengthAdjust="spacing" textLength="284.8604" x="13" y="348.6664">Quelle: PARTIN_MIG_1_0e_20241001.pdf</text><line style="stroke:#181818;stroke-width:0.5;" x1="8" x2="302.8604" y1="355.9681" y2="355.9681"/></g><!--class CCI_0500_proc_1--><g class="entity" data-entity="CCI_0500_proc_1" data-source-line="16" data-uid="ent0005" id="entity_CCI_0500_proc_1"><rect fill="#F1F1F1" height="88.8594" rx="2.5" ry="2.5" style="stroke:#181818;stroke-width:0.5;" width="638.3496" x="339.26" y="246.6469"/><ellipse cx="594.1243" cy="266.7797" fill="#ADD1B2" rx="11" ry="11" style="stroke:#181818;stroke-width:1;"/><path d="M597.093,272.4203 Q596.5149,272.7172 595.8743,272.8578 Q595.2336,273.0141 594.5305,273.0141 Q592.0305,273.0141 590.7024,271.3734 Q589.3899,269.7172 589.3899,266.5922 Q589.3899,263.4672 590.7024,261.8109 Q592.0305,260.1547 594.5305,260.1547 Q595.2336,260.1547 595.8743,260.3109 Q596.5305,260.4672 597.093,260.7641 L597.093,263.4828 Q596.468,262.9047 595.8743,262.6391 Q595.2805,262.3578 594.6555,262.3578 Q593.3118,262.3578 592.6243,263.4359 Q591.9368,264.4984 591.9368,266.5922 Q591.9368,268.6859 592.6243,269.7641 Q593.3118,270.8266 594.6555,270.8266 Q595.2805,270.8266 595.8743,270.5609 Q596.468,270.2797 597.093,269.7016 L597.093,272.4203 Z " fill="#000000"/><text fill="#000000" font-family="sans-serif" font-size="12" font-style="italic" lengthAdjust="spacing" textLength="61.0605" x="644.1545" y="262.7855">&#171;process&#187;</text><text fill="#000000" font-family="sans-serif" font-size="14" lengthAdjust="spacing" textLength="120.1211" x="614.6243" y="278.6107">CCI_0500_proc_1</text><line style="stroke:#181818;stroke-width:0.5;" x1="340.26" x2="976.6096" y1="286.9125" y2="286.9125"/><text fill="#000000" font-family="sans-serif" font-size="14" lengthAdjust="spacing" textLength="158.0127" x="345.26" y="303.9076">Stammdaten&#228;nderung</text><text fill="#000000" font-family="sans-serif" font-size="14" lengthAdjust="spacing" textLength="626.3496" x="345.26" y="320.2045">Zusammenfassung: Wie wird eine Stammdaten&#228;nderung an einer Marktlokation, wie z.B.</text><line style="stroke:#181818;stroke-width:0.5;" x1="340.26" x2="976.6096" y1="327.5063" y2="327.5063"/></g><!--link CCI_0500 to CCI_0500_msg_1--><g class="link" data-entity-1="CCI_0500" data-entity-2="CCI_0500_msg_1" data-source-line="15" data-uid="lnk4" id="link_CCI_0500_CCI_0500_msg_1"><path codeLine="15" d="M345.35,141.5169 C316.04,164.4469 285.0162,188.7105 252.4762,214.1605" fill="none" id="CCI_0500-to-CCI_0500_msg_1" style="stroke:#181818;stroke-width:1;"/><polygon fill="#181818" points="247.75,217.8569,257.3035,215.4631,251.6885,214.7765,252.375,209.1615,247.75,217.8569" style="stroke:#181818;stroke-width:1;"/><text fill="#000000" font-family="sans-serif" font-size="13" lengthAdjust="spacing" textLength="85.2363" x="304.43" y="184.2538">verwendet in</text></g><!--link CCI_0500 to CCI_0500_proc_1--><g class="link" data-entity-1="CCI_0500" data-entity-2="CCI_0500_proc_1" data-source-line="20" data-uid="lnk6" id="link_CCI_0500_CCI_0500_proc_1"><path codeLine="20" d="M467.75,141.5169 C508.84,173.5269 557.777,211.6593 597.707,242.7693" fill="none" id="CCI_0500-to-CCI_0500_proc_1" style="stroke:#181818;stroke-width:1;stroke-dasharray:7,7;"/><polygon fill="#181818" points="602.44,246.4569,597.7988,237.7701,598.4958,243.3839,592.882,244.0809,602.44,246.4569" style="stroke:#181818;stroke-width:1;"/><text fill="#000000" font-family="sans-serif" font-size="13" lengthAdjust="spacing" textLength="91.6221" x="526.43" y="184.2538">eingebettet in</text></g><!--SRC=[RP5DQiCm48NtFiKSe35oQ3SY6DgqbBGaf3yGw4OezjWHbkKWZPkIqjlq9hrOHo4D8SrEysRclKyI6R88jvhGQR8wm036uuaKLq8a1TSXbYgMy9a0p7IB4kwyHrEibjetQ0YqWmNwXdIDZcVcljjY22Zv3EptGhfjovZmy-rAzBshawyJSzM6McNxY6BbsPqapA-VNoSpo5A1t7Zi7E47ouS9T85ytr3lOsnberQXBIKyQ5R6NOb1nenZghCy04yzMej_cMewkLUP4gY6OdYP2P6bwx9YxCDh30RvARs4T_GRP4y2uqvlkFPTmKEZKJmmIPxlhdkUvgqFBAEhs88L2Gk3i36-13GEpot5NuWz3rF-5h9TeybqxeAt4BRfJNeCdwRvFp0PrsjS8j6E_nS0]--></g></svg>