<svg xmlns="http://www.w3.org/2000/svg" xmlns:xlink="http://www.w3.org/1999/xlink" contentStyleType="text/css" data-diagram-type="CLASS" height="370px" preserveAspectRatio="none" style="width:984px;height:370px;background:#FFFFFF;" version="1.1" viewBox="0 0 984 370" width="984px" zoomAndPan="magnify"><title>Datenatlas - COM:0130</title><defs/><g><g class="title" data-source-line="1"><text fill="#000000" font-family="sans-serif" font-size="14" font-weight="bold" lengthAdjust="spacing" textLength="182.1709" x="394.2194" y="22.9951">Datenatlas - COM:0130</text></g><!--class COM_0130--><g class="entity" data-entity="COM_0130" data-source-line="2" data-uid="ent0002" id="entity_COM_0130"><rect fill="#F1F1F1" height="96.8906" rx="2.5" ry="2.5" style="stroke:#181818;stroke-width:0.5;" width="273.748" x="269.56" y="44.2969"/><ellipse cx="364.4326" cy="60.2969" fill="#ADD1B2" rx="11" ry="11" style="stroke:#181818;stroke-width:1;"/><path d="M367.4013,65.9375 Q366.8232,66.2344 366.1826,66.375 Q365.5419,66.5313 364.8388,66.5313 Q362.3388,66.5313 361.0107,64.8906 Q359.6982,63.2344 359.6982,60.1094 Q359.6982,56.9844 361.0107,55.3281 Q362.3388,53.6719 364.8388,53.6719 Q365.5419,53.6719 366.1826,53.8281 Q366.8388,53.9844 367.4013,54.2813 L367.4013,57 Q366.7763,56.4219 366.1826,56.1563 Q365.5888,55.875 364.9638,55.875 Q363.6201,55.875 362.9326,56.9531 Q362.2451,58.0156 362.2451,60.1094 Q362.2451,62.2031 362.9326,63.2813 Q363.6201,64.3438 364.9638,64.3438 Q365.5888,64.3438 366.1826,64.0781 Q366.7763,63.7969 367.4013,63.2188 L367.4013,65.9375 Z " fill="#000000"/><text fill="#000000" font-family="sans-serif" font-size="14" lengthAdjust="spacing" textLength="75.5029" x="384.9326" y="65.1436">COM_0130</text><line style="stroke:#181818;stroke-width:0.5;" x1="270.56" x2="542.308" y1="76.2969" y2="76.2969"/><text fill="#000000" font-family="sans-serif" font-size="14" lengthAdjust="spacing" textLength="247.748" x="289.56" y="93.292">Name: Kommunikationsverbindung</text><text fill="#000000" font-family="sans-serif" font-size="14" lengthAdjust="spacing" textLength="66.6436" x="289.56" y="109.5889">Prozesse:</text><rect fill="none" height="6" style="stroke:#C82930;stroke-width:1;" width="6" x="277.56" y="119.5391"/><text fill="#000000" font-family="sans-serif" font-size="14" lengthAdjust="spacing" textLength="158.0127" x="289.56" y="125.8857">Stammdaten&#228;nderung</text><line style="stroke:#181818;stroke-width:0.5;" x1="270.56" x2="542.308" y1="133.1875" y2="133.1875"/></g><!--class COM_0130_msg_1--><g class="entity" data-entity="COM_0130_msg_1" data-source-line="7" data-uid="ent0003" id="entity_COM_0130_msg_1"><rect fill="#F1F1F1" height="145.7813" rx="2.5" ry="2.5" style="stroke:#181818;stroke-width:0.5;" width="296.8604" x="7" y="218.1869"/><ellipse cx="87.0659" cy="234.1869" fill="#ADD1B2" rx="11" ry="11" style="stroke:#181818;stroke-width:1;"/><path d="M90.0347,239.8275 Q89.4565,240.1244 88.8159,240.265 Q88.1753,240.4213 87.4722,240.4213 Q84.9722,240.4213 83.644,238.7806 Q82.3315,237.1244 82.3315,233.9994 Q82.3315,230.8744 83.644,229.2181 Q84.9722,227.5619 87.4722,227.5619 Q88.1753,227.5619 88.8159,227.7181 Q89.4722,227.8744 90.0347,228.1713 L90.0347,230.89 Q89.4097,230.3119 88.8159,230.0463 Q88.2222,229.765 87.5972,229.765 Q86.2534,229.765 85.5659,230.8431 Q84.8784,231.9056 84.8784,233.9994 Q84.8784,236.0931 85.5659,237.1713 Q86.2534,238.2338 87.5972,238.2338 Q88.2222,238.2338 88.8159,237.9681 Q89.4097,237.6869 90.0347,237.1088 L90.0347,239.8275 Z " fill="#000000"/><text fill="#000000" font-family="sans-serif" font-size="14" lengthAdjust="spacing" textLength="128.2285" x="107.5659" y="239.0336">COM_0130_msg_1</text><line style="stroke:#181818;stroke-width:0.5;" x1="8" x2="302.8604" y1="250.1869" y2="250.1869"/><text fill="#000000" font-family="sans-serif" font-size="14" lengthAdjust="spacing" textLength="162.7227" x="13" y="267.182">Nachricht: PARTIN 1.0e</text><text fill="#000000" font-family="sans-serif" font-size="14" lengthAdjust="spacing" textLength="204.1143" x="13" y="283.4789">Kontext: Nachrichtenstruktur</text><text fill="#000000" font-family="sans-serif" font-size="14" lengthAdjust="spacing" textLength="110.5439" x="13" y="299.7757">Pflichtfeld: Nein</text><text fill="#000000" font-family="sans-serif" font-size="14" lengthAdjust="spacing" textLength="175.9502" x="13" y="316.0726">Codes: COM, ID, MP, SG2</text><text fill="#000000" font-family="sans-serif" font-size="14" lengthAdjust="spacing" textLength="229.1064" x="13" y="332.3695">Prozesse: Stammdaten&#228;nderung</text><text fill="#000000" font-family="sans-serif" font-size="14" lengthAdjust="spacing" textLength="284.8604" x="13" y="348.6664">Quelle: PARTIN_MIG_1_0e_20241001.pdf</text><line style="stroke:#181818;stroke-width:0.5;" x1="8" x2="302.8604" y1="355.9681" y2="355.9681"/></g><!--class COM_0130_proc_1--><g class="entity" data-entity="COM_0130_proc_1" data-source-line="16" data-uid="ent0005" id="entity_COM_0130_proc_1"><rect fill="#F1F1F1" height="88.8594" rx="2.5" ry="2.5" style="stroke:#181818;stroke-width:0.5;" width="638.3496" x="339.26" y="246.6469"/><ellipse cx="589.5271" cy="266.7797" fill="#ADD1B2" rx="11" ry="11" style="stroke:#181818;stroke-width:1;"/><path d="M592.4958,272.4203 Q591.9177,272.7172 591.2771,272.8578 Q590.6365,273.0141 589.9333,273.0141 Q587.4333,273.0141 586.1052,271.3734 Q584.7927,269.7172 584.7927,266.5922 Q584.7927,263.4672 586.1052,261.8109 Q587.4333,260.1547 589.9333,260.1547 Q590.6365,260.1547 591.2771,260.3109 Q591.9333,260.4672 592.4958,260.7641 L592.4958,263.4828 Q591.8708,262.9047 591.2771,262.6391 Q590.6833,262.3578 590.0583,262.3578 Q588.7146,262.3578 588.0271,263.4359 Q587.3396,264.4984 587.3396,266.5922 Q587.3396,268.6859 588.0271,269.7641 Q588.7146,270.8266 590.0583,270.8266 Q590.6833,270.8266 591.2771,270.5609 Q591.8708,270.2797 592.4958,269.7016 L592.4958,272.4203 Z " fill="#000000"/><text fill="#000000" font-family="sans-serif" font-size="12" font-style="italic" lengthAdjust="spacing" textLength="61.0605" x="644.1545" y="262.7855">&#171;process&#187;</text><text fill="#000000" font-family="sans-serif" font-size="14" lengthAdjust="spacing" textLength="129.3154" x="610.0271" y="278.6107">COM_0130_proc_1</text><line style="stroke:#181818;stroke-width:0.5;" x1="340.26" x2="976.6096" y1="286.9125" y2="286.9125"/><text fill="#000000" font-family="sans-serif" font-size="14" lengthAdjust="spacing" textLength="158.0127" x="345.26" y="303.9076">Stammdaten&#228;nderung</text><text fill="#000000" font-family="sans-serif" font-size="14" lengthAdjust="spacing" textLength="626.3496" x="345.26" y="320.2045">Zusammenfassung: Wie wird eine Stammdaten&#228;nderung an einer Marktlokation, wie z.B.</text><line style="stroke:#181818;stroke-width:0.5;" x1="340.26" x2="976.6096" y1="327.5063" y2="327.5063"/></g><!--link COM_0130 to COM_0130_msg_1--><g class="link" data-entity-1="COM_0130" data-entity-2="COM_0130_msg_1" data-source-line="15" data-uid="lnk4" id="link_COM_0130_COM_0130_msg_1"><path codeLine="15" d="M345.35,141.5169 C316.04,164.4469 285.0162,188.7105 252.4762,214.1605" fill="none" id="COM_0130-to-COM_0130_msg_1" style="stroke:#181818;stroke-width:1;"/><polygon fill="#181818" points="247.75,217.8569,257.3035,215.4631,251.6885,214.7765,252.375,209.1615,247.75,217.8569" style="stroke:#181818;stroke-width:1;"/><text fill="#000000" font-family="sans-serif" font-size="13" lengthAdjust="spacing" textLength="85.2363" x="304.43" y="184.2538">verwendet in</text></g><!--link COM_0130 to COM_0130_proc_1--><g class="link" data-entity-1="COM_0130" data-entity-2="COM_0130_proc_1" data-source-line="20" data-uid="lnk6" id="link_COM_0130_COM_0130_proc_1"><path codeLine="20" d="M467.75,141.5169 C508.84,173.5269 557.777,211.6593 597.707,242.7693" fill="none" id="COM_0130-to-COM_0130_proc_1" style="stroke:#181818;stroke-width:1;stroke-dasharray:7,7;"/><polygon fill="#181818" points="602.44,246.4569,597.7988,237.7701,598.4958,243.3839,592.882,244.0809,602.44,246.4569" style="stroke:#181818;stroke-width:1;"/><text fill="#000000" font-family="sans-serif" font-size="13" lengthAdjust="spacing" textLength="91.6221" x="526.43" y="184.2538">eingebettet in</text></g><!--SRC=[RL5HJW8n4Ftt57E0PTD5lngoYK9225b4CJ7nfodRMMZejgJjYi5u6s_YnPoY4eByTTwyUVFUDEfe44OoefNHo00z6DvNd1NNxAgcEgHIf1BUhm1ciaKEKzUsdTKR6RMpuHNzKblLsHKHvjxjCGJaz0OIMqJPjYh9VtrQXJwnFiwKHHjMelZLhzTUr-l8ONxx-3IPGP4pfCRKsOXl11yPQ4FqtIPsFgrjJC8QD8eeg2rXGwSmyBGbWyaeWsgUmMBSFpLvqHx0GuV6u9y5KKt6eX0CHP_rRmh6Ydoh6afnl4olLvw7uK1dsI5fHY0tPu6ttjL46WpIWvoKvI7zPJSlNI0ORKCIX71urWWxxHLGJhmq1D8UUXugwJVHk9-VocWAOP_VvQVcyxpyPuodyHKkCSQ3_sy0]--></g></svg>