<svg xmlns="http://www.w3.org/2000/svg" xmlns:xlink="http://www.w3.org/1999/xlink" contentStyleType="text/css" data-diagram-type="CLASS" height="370px" preserveAspectRatio="none" style="width:984px;height:370px;background:#FFFFFF;" version="1.1" viewBox="0 0 984 370" width="984px" zoomAndPan="magnify"><title>Datenatlas - COM:00052</title><defs/><g><g class="title" data-source-line="1"><text fill="#000000" font-family="sans-serif" font-size="14" font-weight="bold" lengthAdjust="spacing" textLength="191.9121" x="389.3488" y="22.9951">Datenatlas - COM:00052</text></g><!--class COM_00052--><g class="entity" data-entity="COM_00052" data-source-line="2" data-uid="ent0002" id="entity_COM_00052"><rect fill="#F1F1F1" height="96.8906" rx="2.5" ry="2.5" style="stroke:#181818;stroke-width:0.5;" width="273.748" x="269.56" y="44.2969"/><ellipse cx="359.9789" cy="60.2969" fill="#ADD1B2" rx="11" ry="11" style="stroke:#181818;stroke-width:1;"/><path d="M362.9477,65.9375 Q362.3696,66.2344 361.7289,66.375 Q361.0883,66.5313 360.3852,66.5313 Q357.8852,66.5313 356.5571,64.8906 Q355.2446,63.2344 355.2446,60.1094 Q355.2446,56.9844 356.5571,55.3281 Q357.8852,53.6719 360.3852,53.6719 Q361.0883,53.6719 361.7289,53.8281 Q362.3852,53.9844 362.9477,54.2813 L362.9477,57 Q362.3227,56.4219 361.7289,56.1563 Q361.1352,55.875 360.5102,55.875 Q359.1664,55.875 358.4789,56.9531 Q357.7914,58.0156 357.7914,60.1094 Q357.7914,62.2031 358.4789,63.2813 Q359.1664,64.3438 360.5102,64.3438 Q361.1352,64.3438 361.7289,64.0781 Q362.3227,63.7969 362.9477,63.2188 L362.9477,65.9375 Z " fill="#000000"/><text fill="#000000" font-family="sans-serif" font-size="14" lengthAdjust="spacing" textLength="84.4102" x="380.4789" y="65.1436">COM_00052</text><line style="stroke:#181818;stroke-width:0.5;" x1="270.56" x2="542.308" y1="76.2969" y2="76.2969"/><text fill="#000000" font-family="sans-serif" font-size="14" lengthAdjust="spacing" textLength="247.748" x="289.56" y="93.292">Name: Kommunikationsverbindung</text><text fill="#000000" font-family="sans-serif" font-size="14" lengthAdjust="spacing" textLength="66.6436" x="289.56" y="109.5889">Prozesse:</text><rect fill="none" height="6" style="stroke:#C82930;stroke-width:1;" width="6" x="277.56" y="119.5391"/><text fill="#000000" font-family="sans-serif" font-size="14" lengthAdjust="spacing" textLength="158.0127" x="289.56" y="125.8857">Stammdaten&#228;nderung</text><line style="stroke:#181818;stroke-width:0.5;" x1="270.56" x2="542.308" y1="133.1875" y2="133.1875"/></g><!--class COM_00052_msg_1--><g class="entity" data-entity="COM_00052_msg_1" data-source-line="7" data-uid="ent0003" id="entity_COM_00052_msg_1"><rect fill="#F1F1F1" height="145.7813" rx="2.5" ry="2.5" style="stroke:#181818;stroke-width:0.5;" width="296.8604" x="7" y="218.1869"/><ellipse cx="82.6123" cy="234.1869" fill="#ADD1B2" rx="11" ry="11" style="stroke:#181818;stroke-width:1;"/><path d="M85.5811,239.8275 Q85.0029,240.1244 84.3623,240.265 Q83.7217,240.4213 83.0186,240.4213 Q80.5186,240.4213 79.1904,238.7806 Q77.8779,237.1244 77.8779,233.9994 Q77.8779,230.8744 79.1904,229.2181 Q80.5186,227.5619 83.0186,227.5619 Q83.7217,227.5619 84.3623,227.7181 Q85.0186,227.8744 85.5811,228.1713 L85.5811,230.89 Q84.9561,230.3119 84.3623,230.0463 Q83.7686,229.765 83.1436,229.765 Q81.7998,229.765 81.1123,230.8431 Q80.4248,231.9056 80.4248,233.9994 Q80.4248,236.0931 81.1123,237.1713 Q81.7998,238.2338 83.1436,238.2338 Q83.7686,238.2338 84.3623,237.9681 Q84.9561,237.6869 85.5811,237.1088 L85.5811,239.8275 Z " fill="#000000"/><text fill="#000000" font-family="sans-serif" font-size="14" lengthAdjust="spacing" textLength="137.1357" x="103.1123" y="239.0336">COM_00052_msg_1</text><line style="stroke:#181818;stroke-width:0.5;" x1="8" x2="302.8604" y1="250.1869" y2="250.1869"/><text fill="#000000" font-family="sans-serif" font-size="14" lengthAdjust="spacing" textLength="162.7227" x="13" y="267.182">Nachricht: PARTIN 1.0e</text><text fill="#000000" font-family="sans-serif" font-size="14" lengthAdjust="spacing" textLength="204.1143" x="13" y="283.4789">Kontext: Nachrichtenstruktur</text><text fill="#000000" font-family="sans-serif" font-size="14" lengthAdjust="spacing" textLength="110.5439" x="13" y="299.7757">Pflichtfeld: Nein</text><text fill="#000000" font-family="sans-serif" font-size="14" lengthAdjust="spacing" textLength="122.7188" x="13" y="316.0726">Codes: COM, SG4</text><text fill="#000000" font-family="sans-serif" font-size="14" lengthAdjust="spacing" textLength="229.1064" x="13" y="332.3695">Prozesse: Stammdaten&#228;nderung</text><text fill="#000000" font-family="sans-serif" font-size="14" lengthAdjust="spacing" textLength="284.8604" x="13" y="348.6664">Quelle: PARTIN_MIG_1_0e_20241001.pdf</text><line style="stroke:#181818;stroke-width:0.5;" x1="8" x2="302.8604" y1="355.9681" y2="355.9681"/></g><!--class COM_00052_proc_1--><g class="entity" data-entity="COM_00052_proc_1" data-source-line="16" data-uid="ent0005" id="entity_COM_00052_proc_1"><rect fill="#F1F1F1" height="88.8594" rx="2.5" ry="2.5" style="stroke:#181818;stroke-width:0.5;" width="638.3496" x="339.26" y="246.6469"/><ellipse cx="585.0735" cy="266.7797" fill="#ADD1B2" rx="11" ry="11" style="stroke:#181818;stroke-width:1;"/><path d="M588.0422,272.4203 Q587.4641,272.7172 586.8235,272.8578 Q586.1829,273.0141 585.4797,273.0141 Q582.9797,273.0141 581.6516,271.3734 Q580.3391,269.7172 580.3391,266.5922 Q580.3391,263.4672 581.6516,261.8109 Q582.9797,260.1547 585.4797,260.1547 Q586.1829,260.1547 586.8235,260.3109 Q587.4797,260.4672 588.0422,260.7641 L588.0422,263.4828 Q587.4172,262.9047 586.8235,262.6391 Q586.2297,262.3578 585.6047,262.3578 Q584.261,262.3578 583.5735,263.4359 Q582.886,264.4984 582.886,266.5922 Q582.886,268.6859 583.5735,269.7641 Q584.261,270.8266 585.6047,270.8266 Q586.2297,270.8266 586.8235,270.5609 Q587.4172,270.2797 588.0422,269.7016 L588.0422,272.4203 Z " fill="#000000"/><text fill="#000000" font-family="sans-serif" font-size="12" font-style="italic" lengthAdjust="spacing" textLength="61.0605" x="644.1545" y="262.7855">&#171;process&#187;</text><text fill="#000000" font-family="sans-serif" font-size="14" lengthAdjust="spacing" textLength="138.2227" x="605.5735" y="278.6107">COM_00052_proc_1</text><line style="stroke:#181818;stroke-width:0.5;" x1="340.26" x2="976.6096" y1="286.9125" y2="286.9125"/><text fill="#000000" font-family="sans-serif" font-size="14" lengthAdjust="spacing" textLength="158.0127" x="345.26" y="303.9076">Stammdaten&#228;nderung</text><text fill="#000000" font-family="sans-serif" font-size="14" lengthAdjust="spacing" textLength="626.3496" x="345.26" y="320.2045">Zusammenfassung: Wie wird eine Stammdaten&#228;nderung an einer Marktlokation, wie z.B.</text><line style="stroke:#181818;stroke-width:0.5;" x1="340.26" x2="976.6096" y1="327.5063" y2="327.5063"/></g><!--link COM_00052 to COM_00052_msg_1--><g class="link" data-entity-1="COM_00052" data-entity-2="COM_00052_msg_1" data-source-line="15" data-uid="lnk4" id="link_COM_00052_COM_00052_msg_1"><path codeLine="15" d="M345.35,141.5169 C316.04,164.4469 285.0162,188.7105 252.4762,214.1605" fill="none" id="COM_00052-to-COM_00052_msg_1" style="stroke:#181818;stroke-width:1;"/><polygon fill="#181818" points="247.75,217.8569,257.3035,215.4631,251.6885,214.7765,252.375,209.1615,247.75,217.8569" style="stroke:#181818;stroke-width:1;"/><text fill="#000000" font-family="sans-serif" font-size="13" lengthAdjust="spacing" textLength="85.2363" x="304.43" y="184.2538">verwendet in</text></g><!--link COM_00052 to COM_00052_proc_1--><g class="link" data-entity-1="COM_00052" data-entity-2="COM_00052_proc_1" data-source-line="20" data-uid="lnk6" id="link_COM_00052_COM_00052_proc_1"><path codeLine="20" d="M467.75,141.5169 C508.84,173.5269 557.777,211.6593 597.707,242.7693" fill="none" id="COM_00052-to-COM_00052_proc_1" style="stroke:#181818;stroke-width:1;stroke-dasharray:7,7;"/><polygon fill="#181818" points="602.44,246.4569,597.7988,237.7701,598.4958,243.3839,592.882,244.0809,602.44,246.4569" style="stroke:#181818;stroke-width:1;"/><text fill="#000000" font-family="sans-serif" font-size="13" lengthAdjust="spacing" textLength="91.6221" x="526.43" y="184.2538">eingebettet in</text></g><!--SRC=[RL5RQW8n5Frt5NS1EcJ4_WGPQ2s8YDRMGg4_8KxkQ32JI9AfnTBTT2VTM6-cR_Klz-JSyqYYZWRXMaQqCXePe0UZcnbdZ5tqEoK18SsYdU6b0p2NDNAOkhfkhDxAg9qDJ-XNsgh6hecmyEw08I2dCv3SCigwLidW_Sqgz8drUYmjwh0M-PT1kV6wt4GEYykx-yaSyemXNKoTZVXCy0y3ROY-sSR69z_A9An2euY2sX8sSWe3JpPTM8u7VzETpGLmsw0n-6qjPfEno0L3qMVzGSvOdkrKHV5_twJNAqvgSA0NsIEfHg0SnrrttfN46WxJWS8KHLlyVA379X2CjY8DGZWyQ8IzzWge8fvR0cdREmypwRVHkCzVwj8MmY6xolxbpxBYD1fF0cjSOOnjXGy0]--></g></svg>