<svg xmlns="http://www.w3.org/2000/svg" xmlns:xlink="http://www.w3.org/1999/xlink" contentStyleType="text/css" data-diagram-type="CLASS" height="403px" preserveAspectRatio="none" style="width:4003px;height:403px;background:#FFFFFF;" version="1.1" viewBox="0 0 4003 403" width="4003px" zoomAndPan="magnify"><title>Datenatlas - COM:0530</title><defs/><g><g class="title" data-source-line="1"><text fill="#000000" font-family="sans-serif" font-size="14" font-weight="bold" lengthAdjust="spacing" textLength="182.1709" x="1903.6292" y="22.9951">Datenatlas - COM:0530</text></g><!--class COM_0530--><g class="entity" data-entity="COM_0530" data-source-line="2" data-uid="ent0002" id="entity_COM_0530"><rect fill="#F1F1F1" height="129.4844" rx="2.5" ry="2.5" style="stroke:#181818;stroke-width:0.5;" width="374.2021" x="1264.33" y="44.2969"/><ellipse cx="1409.4296" cy="60.2969" fill="#ADD1B2" rx="11" ry="11" style="stroke:#181818;stroke-width:1;"/><path d="M1412.3984,65.9375 Q1411.8202,66.2344 1411.1796,66.375 Q1410.539,66.5313 1409.8359,66.5313 Q1407.3359,66.5313 1406.0077,64.8906 Q1404.6952,63.2344 1404.6952,60.1094 Q1404.6952,56.9844 1406.0077,55.3281 Q1407.3359,53.6719 1409.8359,53.6719 Q1410.539,53.6719 1411.1796,53.8281 Q1411.8359,53.9844 1412.3984,54.2813 L1412.3984,57 Q1411.7734,56.4219 1411.1796,56.1563 Q1410.5859,55.875 1409.9609,55.875 Q1408.6171,55.875 1407.9296,56.9531 Q1407.2421,58.0156 1407.2421,60.1094 Q1407.2421,62.2031 1407.9296,63.2813 Q1408.6171,64.3438 1409.9609,64.3438 Q1410.5859,64.3438 1411.1796,64.0781 Q1411.7734,63.7969 1412.3984,63.2188 L1412.3984,65.9375 Z " fill="#000000"/><text fill="#000000" font-family="sans-serif" font-size="14" lengthAdjust="spacing" textLength="75.5029" x="1429.9296" y="65.1436">COM_0530</text><line style="stroke:#181818;stroke-width:0.5;" x1="1265.33" x2="1637.5321" y1="76.2969" y2="76.2969"/><text fill="#000000" font-family="sans-serif" font-size="14" lengthAdjust="spacing" textLength="189.3828" x="1284.33" y="93.292">Name: Verwendungszweck</text><text fill="#000000" font-family="sans-serif" font-size="14" lengthAdjust="spacing" textLength="66.6436" x="1284.33" y="109.5889">Prozesse:</text><rect fill="none" height="6" style="stroke:#C82930;stroke-width:1;" width="6" x="1272.33" y="119.5391"/><text fill="#000000" font-family="sans-serif" font-size="14" lengthAdjust="spacing" textLength="158.0127" x="1284.33" y="125.8857">Stammdaten&#228;nderung</text><rect fill="none" height="6" style="stroke:#C82930;stroke-width:1;" width="6" x="1272.33" y="135.8359"/><text fill="#000000" font-family="sans-serif" font-size="14" lengthAdjust="spacing" textLength="317.9668" x="1284.33" y="142.1826">Sperrung und Entsperrung eines Anschlusses</text><line style="stroke:#181818;stroke-width:0.5;" x1="1265.33" x2="1637.5321" y1="149.4844" y2="149.4844"/><rect fill="#F24D5C" height="6" style="stroke:#C82930;stroke-width:1;" width="6" x="1272.33" y="160.1328"/><text fill="#000000" font-family="sans-serif" font-size="14" lengthAdjust="spacing" textLength="348.2021" x="1284.33" y="166.4795">Bestellung einer technischen Konfiguration (MSB)</text></g><!--class COM_0530_msg_1--><g class="entity" data-entity="COM_0530_msg_1" data-source-line="9" data-uid="ent0003" id="entity_COM_0530_msg_1"><rect fill="#F1F1F1" height="145.7813" rx="2.5" ry="2.5" style="stroke:#181818;stroke-width:0.5;" width="296.8604" x="7" y="250.7869"/><ellipse cx="87.0659" cy="266.7869" fill="#ADD1B2" rx="11" ry="11" style="stroke:#181818;stroke-width:1;"/><path d="M90.0347,272.4275 Q89.4565,272.7244 88.8159,272.865 Q88.1753,273.0213 87.4722,273.0213 Q84.9722,273.0213 83.644,271.3806 Q82.3315,269.7244 82.3315,266.5994 Q82.3315,263.4744 83.644,261.8181 Q84.9722,260.1619 87.4722,260.1619 Q88.1753,260.1619 88.8159,260.3181 Q89.4722,260.4744 90.0347,260.7713 L90.0347,263.49 Q89.4097,262.9119 88.8159,262.6463 Q88.2222,262.365 87.5972,262.365 Q86.2534,262.365 85.5659,263.4431 Q84.8784,264.5056 84.8784,266.5994 Q84.8784,268.6931 85.5659,269.7713 Q86.2534,270.8338 87.5972,270.8338 Q88.2222,270.8338 88.8159,270.5681 Q89.4097,270.2869 90.0347,269.7088 L90.0347,272.4275 Z " fill="#000000"/><text fill="#000000" font-family="sans-serif" font-size="14" lengthAdjust="spacing" textLength="128.2285" x="107.5659" y="271.6336">COM_0530_msg_1</text><line style="stroke:#181818;stroke-width:0.5;" x1="8" x2="302.8604" y1="282.7869" y2="282.7869"/><text fill="#000000" font-family="sans-serif" font-size="14" lengthAdjust="spacing" textLength="162.7227" x="13" y="299.782">Nachricht: PARTIN 1.0e</text><text fill="#000000" font-family="sans-serif" font-size="14" lengthAdjust="spacing" textLength="204.1143" x="13" y="316.0789">Kontext: Nachrichtenstruktur</text><text fill="#000000" font-family="sans-serif" font-size="14" lengthAdjust="spacing" textLength="91.4033" x="13" y="332.3757">Pflichtfeld: Ja</text><text fill="#000000" font-family="sans-serif" font-size="14" lengthAdjust="spacing" textLength="118.7744" x="13" y="348.6726">Codes: CAV, SG4</text><text fill="#000000" font-family="sans-serif" font-size="14" lengthAdjust="spacing" textLength="229.1064" x="13" y="364.9695">Prozesse: Stammdaten&#228;nderung</text><text fill="#000000" font-family="sans-serif" font-size="14" lengthAdjust="spacing" textLength="284.8604" x="13" y="381.2664">Quelle: PARTIN_MIG_1_0e_20241001.pdf</text><line style="stroke:#181818;stroke-width:0.5;" x1="8" x2="302.8604" y1="388.5681" y2="388.5681"/></g><!--class COM_0530_msg_2--><g class="entity" data-entity="COM_0530_msg_2" data-source-line="18" data-uid="ent0005" id="entity_COM_0530_msg_2"><rect fill="#F1F1F1" height="145.7813" rx="2.5" ry="2.5" style="stroke:#181818;stroke-width:0.5;" width="758.1631" x="339.35" y="250.7869"/><ellipse cx="650.0673" cy="266.7869" fill="#ADD1B2" rx="11" ry="11" style="stroke:#181818;stroke-width:1;"/><path d="M653.036,272.4275 Q652.4579,272.7244 651.8173,272.865 Q651.1767,273.0213 650.4735,273.0213 Q647.9735,273.0213 646.6454,271.3806 Q645.3329,269.7244 645.3329,266.5994 Q645.3329,263.4744 646.6454,261.8181 Q647.9735,260.1619 650.4735,260.1619 Q651.1767,260.1619 651.8173,260.3181 Q652.4735,260.4744 653.036,260.7713 L653.036,263.49 Q652.411,262.9119 651.8173,262.6463 Q651.2235,262.365 650.5985,262.365 Q649.2548,262.365 648.5673,263.4431 Q647.8798,264.5056 647.8798,266.5994 Q647.8798,268.6931 648.5673,269.7713 Q649.2548,270.8338 650.5985,270.8338 Q651.2235,270.8338 651.8173,270.5681 Q652.411,270.2869 653.036,269.7088 L653.036,272.4275 Z " fill="#000000"/><text fill="#000000" font-family="sans-serif" font-size="14" lengthAdjust="spacing" textLength="128.2285" x="670.5673" y="271.6336">COM_0530_msg_2</text><line style="stroke:#181818;stroke-width:0.5;" x1="340.35" x2="1096.5131" y1="282.7869" y2="282.7869"/><text fill="#000000" font-family="sans-serif" font-size="14" lengthAdjust="spacing" textLength="170.3584" x="345.35" y="299.782">Nachricht: QUOTES 1.3a</text><text fill="#000000" font-family="sans-serif" font-size="14" lengthAdjust="spacing" textLength="204.1143" x="345.35" y="316.0789">Kontext: Nachrichtenstruktur</text><text fill="#000000" font-family="sans-serif" font-size="14" lengthAdjust="spacing" textLength="110.5439" x="345.35" y="332.3757">Pflichtfeld: Nein</text><text fill="#000000" font-family="sans-serif" font-size="14" lengthAdjust="spacing" textLength="226.4131" x="345.35" y="348.6726">Codes: 99, COM, EDI, ID, MP, SG</text><text fill="#000000" font-family="sans-serif" font-size="14" lengthAdjust="spacing" textLength="292.4961" x="345.35" y="364.9695">Quelle: QUOTES_MIG_1_3a_20240619.pdf</text><line style="stroke:#181818;stroke-width:0.5;" x1="340.35" x2="1096.5131" y1="372.2713" y2="372.2713"/><text fill="#000000" font-family="sans-serif" font-size="14" lengthAdjust="spacing" textLength="746.1631" x="345.35" y="389.2664">Prozesse: Bestellung einer technischen Konfiguration (MSB), Sperrung und Entsperrung eines Anschlusses</text></g><!--class COM_0530_proc_1--><g class="entity" data-entity="COM_0530_proc_1" data-source-line="27" data-uid="ent0007" id="entity_COM_0530_proc_1"><rect fill="#F1F1F1" height="88.8594" rx="2.5" ry="2.5" style="stroke:#181818;stroke-width:0.5;" width="638.3496" x="1132.26" y="279.2469"/><ellipse cx="1382.5271" cy="299.3797" fill="#ADD1B2" rx="11" ry="11" style="stroke:#181818;stroke-width:1;"/><path d="M1385.4958,305.0203 Q1384.9177,305.3172 1384.2771,305.4578 Q1383.6365,305.6141 1382.9333,305.6141 Q1380.4333,305.6141 1379.1052,303.9734 Q1377.7927,302.3172 1377.7927,299.1922 Q1377.7927,296.0672 1379.1052,294.4109 Q1380.4333,292.7547 1382.9333,292.7547 Q1383.6365,292.7547 1384.2771,292.9109 Q1384.9333,293.0672 1385.4958,293.3641 L1385.4958,296.0828 Q1384.8708,295.5047 1384.2771,295.2391 Q1383.6833,294.9578 1383.0583,294.9578 Q1381.7146,294.9578 1381.0271,296.0359 Q1380.3396,297.0984 1380.3396,299.1922 Q1380.3396,301.2859 1381.0271,302.3641 Q1381.7146,303.4266 1383.0583,303.4266 Q1383.6833,303.4266 1384.2771,303.1609 Q1384.8708,302.8797 1385.4958,302.3016 L1385.4958,305.0203 Z " fill="#000000"/><text fill="#000000" font-family="sans-serif" font-size="12" font-style="italic" lengthAdjust="spacing" textLength="61.0605" x="1437.1545" y="295.3855">&#171;process&#187;</text><text fill="#000000" font-family="sans-serif" font-size="14" lengthAdjust="spacing" textLength="129.3154" x="1403.0271" y="311.2107">COM_0530_proc_1</text><line style="stroke:#181818;stroke-width:0.5;" x1="1133.26" x2="1769.6096" y1="319.5125" y2="319.5125"/><text fill="#000000" font-family="sans-serif" font-size="14" lengthAdjust="spacing" textLength="158.0127" x="1138.26" y="336.5076">Stammdaten&#228;nderung</text><text fill="#000000" font-family="sans-serif" font-size="14" lengthAdjust="spacing" textLength="626.3496" x="1138.26" y="352.8045">Zusammenfassung: Wie wird eine Stammdaten&#228;nderung an einer Marktlokation, wie z.B.</text><line style="stroke:#181818;stroke-width:0.5;" x1="1133.26" x2="1769.6096" y1="360.1063" y2="360.1063"/></g><!--class COM_0530_proc_2--><g class="entity" data-entity="COM_0530_proc_2" data-source-line="32" data-uid="ent0009" id="entity_COM_0530_proc_2"><rect fill="#F1F1F1" height="105.1563" rx="2.5" ry="2.5" style="stroke:#181818;stroke-width:0.5;" width="1301.9961" x="1805.43" y="271.0969"/><ellipse cx="2387.5203" cy="291.2297" fill="#ADD1B2" rx="11" ry="11" style="stroke:#181818;stroke-width:1;"/><path d="M2390.4891,296.8703 Q2389.911,297.1672 2389.2703,297.3078 Q2388.6297,297.4641 2387.9266,297.4641 Q2385.4266,297.4641 2384.0985,295.8234 Q2382.786,294.1672 2382.786,291.0422 Q2382.786,287.9172 2384.0985,286.2609 Q2385.4266,284.6047 2387.9266,284.6047 Q2388.6297,284.6047 2389.2703,284.7609 Q2389.9266,284.9172 2390.4891,285.2141 L2390.4891,287.9328 Q2389.8641,287.3547 2389.2703,287.0891 Q2388.6766,286.8078 2388.0516,286.8078 Q2386.7078,286.8078 2386.0203,287.8859 Q2385.3328,288.9484 2385.3328,291.0422 Q2385.3328,293.1359 2386.0203,294.2141 Q2386.7078,295.2766 2388.0516,295.2766 Q2388.6766,295.2766 2389.2703,295.0109 Q2389.8641,294.7297 2390.4891,294.1516 L2390.4891,296.8703 Z " fill="#000000"/><text fill="#000000" font-family="sans-serif" font-size="12" font-style="italic" lengthAdjust="spacing" textLength="61.0605" x="2442.1478" y="287.2355">&#171;process&#187;</text><text fill="#000000" font-family="sans-serif" font-size="14" lengthAdjust="spacing" textLength="129.3154" x="2408.0203" y="303.0607">COM_0530_proc_2</text><line style="stroke:#181818;stroke-width:0.5;" x1="1806.43" x2="3106.4261" y1="311.3625" y2="311.3625"/><text fill="#000000" font-family="sans-serif" font-size="14" lengthAdjust="spacing" textLength="156.4063" x="1811.43" y="328.3576">Gesetze: MsbG, EnWG</text><text fill="#000000" font-family="sans-serif" font-size="14" lengthAdjust="spacing" textLength="1289.9961" x="1811.43" y="344.6545">Zusammenfassung: Erl&#228;utere den Prozess zur Bestellung einer spezifischen technischen Konfiguration bei einem Messstellenbetreiber, beispielsweise f&#252;r ein intelligentes Messsystem.</text><line style="stroke:#181818;stroke-width:0.5;" x1="1806.43" x2="3106.4261" y1="351.9562" y2="351.9562"/><text fill="#000000" font-family="sans-serif" font-size="14" lengthAdjust="spacing" textLength="348.2021" x="1811.43" y="368.9514">Bestellung einer technischen Konfiguration (MSB)</text></g><!--class COM_0530_proc_3--><g class="entity" data-entity="COM_0530_proc_3" data-source-line="38" data-uid="ent0011" id="entity_COM_0530_proc_3"><rect fill="#F1F1F1" height="105.1563" rx="2.5" ry="2.5" style="stroke:#181818;stroke-width:0.5;" width="853.9893" x="3142.44" y="271.0969"/><ellipse cx="3500.5269" cy="291.2297" fill="#ADD1B2" rx="11" ry="11" style="stroke:#181818;stroke-width:1;"/><path d="M3503.4957,296.8703 Q3502.9175,297.1672 3502.2769,297.3078 Q3501.6363,297.4641 3500.9332,297.4641 Q3498.4332,297.4641 3497.105,295.8234 Q3495.7925,294.1672 3495.7925,291.0422 Q3495.7925,287.9172 3497.105,286.2609 Q3498.4332,284.6047 3500.9332,284.6047 Q3501.6363,284.6047 3502.2769,284.7609 Q3502.9332,284.9172 3503.4957,285.2141 L3503.4957,287.9328 Q3502.8707,287.3547 3502.2769,287.0891 Q3501.6832,286.8078 3501.0582,286.8078 Q3499.7144,286.8078 3499.0269,287.8859 Q3498.3394,288.9484 3498.3394,291.0422 Q3498.3394,293.1359 3499.0269,294.2141 Q3499.7144,295.2766 3501.0582,295.2766 Q3501.6832,295.2766 3502.2769,295.0109 Q3502.8707,294.7297 3503.4957,294.1516 L3503.4957,296.8703 Z " fill="#000000"/><text fill="#000000" font-family="sans-serif" font-size="12" font-style="italic" lengthAdjust="spacing" textLength="61.0605" x="3555.1544" y="287.2355">&#171;process&#187;</text><text fill="#000000" font-family="sans-serif" font-size="14" lengthAdjust="spacing" textLength="129.3154" x="3521.0269" y="303.0607">COM_0530_proc_3</text><line style="stroke:#181818;stroke-width:0.5;" x1="3143.44" x2="3995.4293" y1="311.3625" y2="311.3625"/><text fill="#000000" font-family="sans-serif" font-size="14" lengthAdjust="spacing" textLength="317.9668" x="3148.44" y="328.3576">Sperrung und Entsperrung eines Anschlusses</text><text fill="#000000" font-family="sans-serif" font-size="14" lengthAdjust="spacing" textLength="138.3252" x="3148.44" y="344.6545">Gesetze: StromGVV</text><text fill="#000000" font-family="sans-serif" font-size="14" lengthAdjust="spacing" textLength="841.9893" x="3148.44" y="360.9514">Zusammenfassung: Beschreibe den End-to-End-Prozess f&#252;r die Sperrung und Wiederherstellung eines Netzanschlusses.</text><line style="stroke:#181818;stroke-width:0.5;" x1="3143.44" x2="3995.4293" y1="368.2531" y2="368.2531"/></g><!--link COM_0530 to COM_0530_msg_1--><g class="link" data-entity-1="COM_0530" data-entity-2="COM_0530_msg_1" data-source-line="17" data-uid="lnk4" id="link_COM_0530_COM_0530_msg_1"><path codeLine="17" d="M1264.06,117.0869 C1037.3,129.3169 645.55,162.3769 321.43,250.7869 C315.67,252.3569 315.5742,252.2572 309.7342,254.1272" fill="none" id="COM_0530-to-COM_0530_msg_1" style="stroke:#181818;stroke-width:1;"/><polygon fill="#181818" points="304.02,255.9569,313.8111,257.0218,308.7818,254.4321,311.3715,249.4028,304.02,255.9569" style="stroke:#181818;stroke-width:1;"/><text fill="#000000" font-family="sans-serif" font-size="13" lengthAdjust="spacing" textLength="85.2363" x="504.43" y="216.8538">verwendet in</text></g><!--link COM_0530 to COM_0530_msg_2--><g class="link" data-entity-1="COM_0530" data-entity-2="COM_0530_msg_2" data-source-line="26" data-uid="lnk6" id="link_COM_0530_COM_0530_msg_2"><path codeLine="26" d="M1264.09,164.3869 C1174.06,190.5069 1070.6623,220.4949 973.7123,248.6249" fill="none" id="COM_0530-to-COM_0530_msg_2" style="stroke:#181818;stroke-width:1;"/><polygon fill="#181818" points="967.95,250.2969,977.7081,251.6305,972.752,248.9036,975.4789,243.9474,967.95,250.2969" style="stroke:#181818;stroke-width:1;"/><text fill="#000000" font-family="sans-serif" font-size="13" lengthAdjust="spacing" textLength="85.2363" x="1108.43" y="216.8538">verwendet in</text></g><!--link COM_0530 to COM_0530_proc_1--><g class="link" data-entity-1="COM_0530" data-entity-2="COM_0530_proc_1" data-source-line="31" data-uid="lnk8" id="link_COM_0530_COM_0530_proc_1"><path codeLine="31" d="M1451.43,174.1269 C1451.43,207.9969 1451.43,242.6969 1451.43,272.9269" fill="none" id="COM_0530-to-COM_0530_proc_1" style="stroke:#181818;stroke-width:1;stroke-dasharray:7,7;"/><polygon fill="#181818" points="1451.43,278.9269,1455.43,269.9269,1451.43,273.9269,1447.43,269.9269,1451.43,278.9269" style="stroke:#181818;stroke-width:1;"/><text fill="#000000" font-family="sans-serif" font-size="13" lengthAdjust="spacing" textLength="91.6221" x="1452.43" y="216.8538">eingebettet in</text></g><!--link COM_0530 to COM_0530_proc_2--><g class="link" data-entity-1="COM_0530" data-entity-2="COM_0530_proc_2" data-source-line="37" data-uid="lnk10" id="link_COM_0530_COM_0530_proc_2"><path codeLine="37" d="M1638.99,149.7269 C1800.31,183.8569 2028.2999,232.0949 2204.5999,269.3949" fill="none" id="COM_0530-to-COM_0530_proc_2" style="stroke:#181818;stroke-width:1;stroke-dasharray:7,7;"/><polygon fill="#181818" points="2210.47,270.6369,2202.4929,264.8606,2205.5783,269.6019,2200.837,272.6873,2210.47,270.6369" style="stroke:#181818;stroke-width:1;"/><text fill="#000000" font-family="sans-serif" font-size="13" lengthAdjust="spacing" textLength="91.6221" x="1955.43" y="216.8538">eingebettet in</text></g><!--link COM_0530 to COM_0530_proc_3--><g class="link" data-entity-1="COM_0530" data-entity-2="COM_0530_proc_3" data-source-line="43" data-uid="lnk12" id="link_COM_0530_COM_0530_proc_3"><path codeLine="43" d="M1638.83,121.1269 C1948.7,140.5169 2587.04,184.8669 3124.43,250.7869 C3170.55,256.4469 3213.2888,262.4411 3260.8288,269.7011" fill="none" id="COM_0530-to-COM_0530_proc_3" style="stroke:#181818;stroke-width:1;stroke-dasharray:7,7;"/><polygon fill="#181818" points="3266.76,270.6069,3258.467,265.294,3261.8173,269.8521,3257.2593,273.2024,3266.76,270.6069" style="stroke:#181818;stroke-width:1;"/><text fill="#000000" font-family="sans-serif" font-size="13" lengthAdjust="spacing" textLength="91.6221" x="2853.43" y="216.8538">eingebettet in</text></g><!--SRC=[dPFRZjem48RlUOgvRAKGXR2jHBH2ugI8Lc5tovQLUXE5P08MYODifxIf-ZRx6BtZnJeE0PQJABsAFVRC_F_dYM8gGUW72dcWaa127NeFdcDzQ5graFPIRtszXLyrW56GeWCJ52laKSvdibXXkA23Hv4LA2Kwj0OgCbP1caQwxFgLHoZeRdNIHQamIIW0o3WAK1ZEEPFX73bypdZCPha85CiulFF6tVVRWaiKkWhaF881LtAxrqKaT3WLI79I86k_ZvJxgPpvZKf_E1Sid2i77ZjVdeSZQ9WMqW4rLlY3mhiRoAKI-KBbGjkB4nsBCOaS-1HGf9T5A1teTIO6ZDsxjmWkc7_AoJPk6_lUqFKRleM-RTbt3SjgcCie9kqxtlLw-zY20zytw541u-TisiSsdxu-F0_6PBCPt6XpH6JtHbijGtSoOD0V6Z3i6-0zQkS7nczzM-EMPzqJt7Yg23Q3ag3riT6wIj2-Gd0fif0mtz_h1LbgjqkSvz_pMoufZ3oc4XHnu8KXh9Y8IktdaY3W5HSl40kLP8kIXK5P28NPDT-ADytsYJ17fyzmYafTrc-VwF-FNyv5YQeWrfwSklJe_CKzPtaWalLhhb0WH5IhcWGeSd7Qb9wsO77LzRA2AR8o8GMFIfKra9DZWMoAmj3dSiamaIjQ8CJhFqBV9nhwAfiXVUKczoTbfrUWsly6jNaw5BTCxWxdM8aiTIUJSp296FsKscO9Sy2Zkihg-hFbMfgDQ5WEcjFSqNpDKHm0b_G3goBOoxW2eda2uYy0]--></g></svg>