<svg xmlns="http://www.w3.org/2000/svg" xmlns:xlink="http://www.w3.org/1999/xlink" contentStyleType="text/css" data-diagram-type="CLASS" height="370px" preserveAspectRatio="none" style="width:1111px;height:370px;background:#FFFFFF;" version="1.1" viewBox="0 0 1111 370" width="1111px" zoomAndPan="magnify"><title>Datenatlas - COMDIS:NR</title><defs/><g><g class="title" data-source-line="1"><text fill="#000000" font-family="sans-serif" font-size="14" font-weight="bold" lengthAdjust="spacing" textLength="192.6162" x="452.2601" y="22.9951">Datenatlas - COMDIS:NR</text></g><!--class COMDIS_NR--><g class="entity" data-entity="COMDIS_NR" data-source-line="2" data-uid="ent0002" id="entity_COMDIS_NR"><rect fill="#F1F1F1" height="96.8906" rx="2.5" ry="2.5" style="stroke:#181818;stroke-width:0.5;" width="206.3457" x="341.64" y="44.2969"/><ellipse cx="398.6278" cy="60.2969" fill="#ADD1B2" rx="11" ry="11" style="stroke:#181818;stroke-width:1;"/><path d="M401.5965,65.9375 Q401.0184,66.2344 400.3778,66.375 Q399.7372,66.5313 399.034,66.5313 Q396.534,66.5313 395.2059,64.8906 Q393.8934,63.2344 393.8934,60.1094 Q393.8934,56.9844 395.2059,55.3281 Q396.534,53.6719 399.034,53.6719 Q399.7372,53.6719 400.3778,53.8281 Q401.034,53.9844 401.5965,54.2813 L401.5965,57 Q400.9715,56.4219 400.3778,56.1563 Q399.784,55.875 399.159,55.875 Q397.8153,55.875 397.1278,56.9531 Q396.4403,58.0156 396.4403,60.1094 Q396.4403,62.2031 397.1278,63.2813 Q397.8153,64.3438 399.159,64.3438 Q399.784,64.3438 400.3778,64.0781 Q400.9715,63.7969 401.5965,63.2188 L401.5965,65.9375 Z " fill="#000000"/><text fill="#000000" font-family="sans-serif" font-size="14" lengthAdjust="spacing" textLength="83.8701" x="419.1278" y="65.1436">COMDIS_NR</text><line style="stroke:#181818;stroke-width:0.5;" x1="342.64" x2="546.9857" y1="76.2969" y2="76.2969"/><text fill="#000000" font-family="sans-serif" font-size="14" lengthAdjust="spacing" textLength="76.0361" x="361.64" y="93.292">Name: Bez</text><text fill="#000000" font-family="sans-serif" font-size="14" lengthAdjust="spacing" textLength="66.6436" x="361.64" y="109.5889">Prozesse:</text><rect fill="none" height="6" style="stroke:#C82930;stroke-width:1;" width="6" x="349.64" y="119.5391"/><text fill="#000000" font-family="sans-serif" font-size="14" lengthAdjust="spacing" textLength="180.3457" x="361.64" y="125.8857">Netznutzungsabrechnung</text><line style="stroke:#181818;stroke-width:0.5;" x1="342.64" x2="546.9857" y1="133.1875" y2="133.1875"/></g><!--class COMDIS_NR_msg_1--><g class="entity" data-entity="COMDIS_NR_msg_1" data-source-line="7" data-uid="ent0003" id="entity_COMDIS_NR_msg_1"><rect fill="#F1F1F1" height="145.7813" rx="2.5" ry="2.5" style="stroke:#181818;stroke-width:0.5;" width="309.6299" x="7" y="218.1869"/><ellipse cx="89.2671" cy="234.1869" fill="#ADD1B2" rx="11" ry="11" style="stroke:#181818;stroke-width:1;"/><path d="M92.2358,239.8275 Q91.6577,240.1244 91.0171,240.265 Q90.3765,240.4213 89.6733,240.4213 Q87.1733,240.4213 85.8452,238.7806 Q84.5327,237.1244 84.5327,233.9994 Q84.5327,230.8744 85.8452,229.2181 Q87.1733,227.5619 89.6733,227.5619 Q90.3765,227.5619 91.0171,227.7181 Q91.6733,227.8744 92.2358,228.1713 L92.2358,230.89 Q91.6108,230.3119 91.0171,230.0463 Q90.4233,229.765 89.7983,229.765 Q88.4546,229.765 87.7671,230.8431 Q87.0796,231.9056 87.0796,233.9994 Q87.0796,236.0931 87.7671,237.1713 Q88.4546,238.2338 89.7983,238.2338 Q90.4233,238.2338 91.0171,237.9681 Q91.6108,237.6869 92.2358,237.1088 L92.2358,239.8275 Z " fill="#000000"/><text fill="#000000" font-family="sans-serif" font-size="14" lengthAdjust="spacing" textLength="136.5957" x="109.7671" y="239.0336">COMDIS_NR_msg_1</text><line style="stroke:#181818;stroke-width:0.5;" x1="8" x2="315.6299" y1="250.1869" y2="250.1869"/><text fill="#000000" font-family="sans-serif" font-size="14" lengthAdjust="spacing" textLength="172.9424" x="13" y="267.182">Nachricht: COMDIS 1.0e.</text><text fill="#000000" font-family="sans-serif" font-size="14" lengthAdjust="spacing" textLength="170.3447" x="13" y="283.4789">Kontext: Segmentlayout</text><text fill="#000000" font-family="sans-serif" font-size="14" lengthAdjust="spacing" textLength="91.4033" x="13" y="299.7757">Pflichtfeld: Ja</text><text fill="#000000" font-family="sans-serif" font-size="14" lengthAdjust="spacing" textLength="79.3584" x="13" y="316.0726">Codes: MIG</text><text fill="#000000" font-family="sans-serif" font-size="14" lengthAdjust="spacing" textLength="251.4395" x="13" y="332.3695">Prozesse: Netznutzungsabrechnung</text><text fill="#000000" font-family="sans-serif" font-size="14" lengthAdjust="spacing" textLength="297.6299" x="13" y="348.6664">Quelle: COMDIS_MIG_1_0e__20240619.pdf</text><line style="stroke:#181818;stroke-width:0.5;" x1="8" x2="315.6299" y1="355.9681" y2="355.9681"/></g><!--class COMDIS_NR_proc_1--><g class="entity" data-entity="COMDIS_NR_proc_1" data-source-line="16" data-uid="ent0005" id="entity_COMDIS_NR_proc_1"><rect fill="#F1F1F1" height="105.1563" rx="2.5" ry="2.5" style="stroke:#181818;stroke-width:0.5;" width="752.6465" x="351.49" y="238.4969"/><ellipse cx="654.7219" cy="258.6297" fill="#ADD1B2" rx="11" ry="11" style="stroke:#181818;stroke-width:1;"/><path d="M657.6907,264.2703 Q657.1126,264.5672 656.4719,264.7078 Q655.8313,264.8641 655.1282,264.8641 Q652.6282,264.8641 651.3001,263.2234 Q649.9876,261.5672 649.9876,258.4422 Q649.9876,255.3172 651.3001,253.6609 Q652.6282,252.0047 655.1282,252.0047 Q655.8313,252.0047 656.4719,252.1609 Q657.1282,252.3172 657.6907,252.6141 L657.6907,255.3328 Q657.0657,254.7547 656.4719,254.4891 Q655.8782,254.2078 655.2532,254.2078 Q653.9094,254.2078 653.2219,255.2859 Q652.5344,256.3484 652.5344,258.4422 Q652.5344,260.5359 653.2219,261.6141 Q653.9094,262.6766 655.2532,262.6766 Q655.8782,262.6766 656.4719,262.4109 Q657.0657,262.1297 657.6907,261.5516 L657.6907,264.2703 Z " fill="#000000"/><text fill="#000000" font-family="sans-serif" font-size="12" font-style="italic" lengthAdjust="spacing" textLength="61.0605" x="713.533" y="254.6355">&#171;process&#187;</text><text fill="#000000" font-family="sans-serif" font-size="14" lengthAdjust="spacing" textLength="137.6826" x="675.2219" y="270.4607">COMDIS_NR_proc_1</text><line style="stroke:#181818;stroke-width:0.5;" x1="352.49" x2="1103.1365" y1="278.7625" y2="278.7625"/><text fill="#000000" font-family="sans-serif" font-size="14" lengthAdjust="spacing" textLength="180.3457" x="357.49" y="295.7576">Netznutzungsabrechnung</text><text fill="#000000" font-family="sans-serif" font-size="14" lengthAdjust="spacing" textLength="218.0938" x="357.49" y="312.0545">Gesetze: StromNEV, StromNZV</text><text fill="#000000" font-family="sans-serif" font-size="14" lengthAdjust="spacing" textLength="740.6465" x="357.49" y="328.3514">Zusammenfassung: Wie funktioniert die Netznutzungsabrechnung zwischen Netzbetreiber und Lieferant?</text><line style="stroke:#181818;stroke-width:0.5;" x1="352.49" x2="1103.1365" y1="335.6531" y2="335.6531"/></g><!--link COMDIS_NR to COMDIS_NR_msg_1--><g class="link" data-entity-1="COMDIS_NR" data-entity-2="COMDIS_NR_msg_1" data-source-line="15" data-uid="lnk4" id="link_COMDIS_NR_COMDIS_NR_msg_1"><path codeLine="15" d="M375.95,141.5169 C342.9,164.4469 307.5301,188.9871 270.8401,214.4371" fill="none" id="COMDIS_NR-to-COMDIS_NR_msg_1" style="stroke:#181818;stroke-width:1;"/><polygon fill="#181818" points="265.91,217.8569,275.5849,216.014,270.0184,215.0071,271.0253,209.4406,265.91,217.8569" style="stroke:#181818;stroke-width:1;"/><text fill="#000000" font-family="sans-serif" font-size="13" lengthAdjust="spacing" textLength="85.2363" x="329.81" y="184.2538">verwendet in</text></g><!--link COMDIS_NR to COMDIS_NR_proc_1--><g class="link" data-entity-1="COMDIS_NR" data-entity-2="COMDIS_NR_proc_1" data-source-line="21" data-uid="lnk6" id="link_COMDIS_NR_COMDIS_NR_proc_1"><path codeLine="21" d="M513.68,141.5169 C555.81,170.7469 604.8005,204.7263 647.9905,234.6963" fill="none" id="COMDIS_NR-to-COMDIS_NR_proc_1" style="stroke:#181818;stroke-width:1;stroke-dasharray:7,7;"/><polygon fill="#181818" points="652.92,238.1169,647.8062,229.6997,648.8121,235.2664,643.2454,236.2723,652.92,238.1169" style="stroke:#181818;stroke-width:1;"/><text fill="#000000" font-family="sans-serif" font-size="13" lengthAdjust="spacing" textLength="91.6221" x="579.81" y="184.2538">eingebettet in</text></g><!--SRC=[TL1TJy9047pdL-mFaAObniGBgObW22fL8S64bylHRjkBxHsvsuhM-DzTiCOFv6rkPdTsvaXJXJ1MX4PHfJpqONGt6qyN8fdtKYPyzvR97Dvw08cgKS0bjepldMtHUnICWJSJfDOqr3Qcy6hjC2qDmzxxNoDP-q96dLrQEfsM93ePeY34W9KRQmXVc5zWKQFXSA-seTtLlDejv5Xb0guLCoEReHSmcqv-XZeM1-2XmQh2hukIzsGaGvHo40vEmxFeFDXaESV-RjxlnmVn1JoZswB9a42RWuuRPrEU6WvtW0F5yMVXOw4cw5dYL0jojawkbYSTMYrPNJLUrVmDEH_XUG6F6Y5lp1DfQpGwWeo9_ysXtMgVbcZs-Xh9eLwZWyPaSAinHwSCNVpg6mJnOHK1g4s1R43xoXy0]--></g></svg>