<svg xmlns="http://www.w3.org/2000/svg" xmlns:xlink="http://www.w3.org/1999/xlink" contentStyleType="text/css" data-diagram-type="CLASS" height="403px" preserveAspectRatio="none" style="width:444px;height:403px;background:#FFFFFF;" version="1.1" viewBox="0 0 444 403" width="444px" zoomAndPan="magnify"><title>Datenatlas - CONTRL:21</title><defs/><g><g class="title" data-source-line="1"><text fill="#000000" font-family="sans-serif" font-size="14" font-weight="bold" lengthAdjust="spacing" textLength="189.7246" x="120.3208" y="22.9951">Datenatlas - CONTRL:21</text></g><!--class CONTRL_21--><g class="entity" data-entity="CONTRL_21" data-source-line="2" data-uid="ent0002" id="entity_CONTRL_21"><rect fill="#F1F1F1" height="145.7813" rx="2.5" ry="2.5" style="stroke:#181818;stroke-width:0.5;" width="350.9668" x="46.7" y="44.2969"/><ellipse cx="176.8528" cy="60.2969" fill="#ADD1B2" rx="11" ry="11" style="stroke:#181818;stroke-width:1;"/><path d="M179.8216,65.9375 Q179.2435,66.2344 178.6028,66.375 Q177.9622,66.5313 177.2591,66.5313 Q174.7591,66.5313 173.431,64.8906 Q172.1185,63.2344 172.1185,60.1094 Q172.1185,56.9844 173.431,55.3281 Q174.7591,53.6719 177.2591,53.6719 Q177.9622,53.6719 178.6028,53.8281 Q179.2591,53.9844 179.8216,54.2813 L179.8216,57 Q179.1966,56.4219 178.6028,56.1563 Q178.0091,55.875 177.3841,55.875 Q176.0403,55.875 175.3528,56.9531 Q174.6653,58.0156 174.6653,60.1094 Q174.6653,62.2031 175.3528,63.2813 Q176.0403,64.3438 177.3841,64.3438 Q178.0091,64.3438 178.6028,64.0781 Q179.1966,63.7969 179.8216,63.2188 L179.8216,65.9375 Z " fill="#000000"/><text fill="#000000" font-family="sans-serif" font-size="14" lengthAdjust="spacing" textLength="82.1611" x="197.3528" y="65.1436">CONTRL_21</text><line style="stroke:#181818;stroke-width:0.5;" x1="47.7" x2="396.6668" y1="76.2969" y2="76.2969"/><text fill="#000000" font-family="sans-serif" font-size="14" lengthAdjust="spacing" textLength="282.2559" x="52.7" y="93.292">Mitteilung, dass ein oder mehrere in der</text><text fill="#000000" font-family="sans-serif" font-size="14" lengthAdjust="spacing" textLength="318.3154" x="52.7" y="109.5889">&#220;bertragungsdatei verwendete Zeichen nach</text><text fill="#000000" font-family="sans-serif" font-size="14" lengthAdjust="spacing" textLength="338.9668" x="52.7" y="125.8857">der definierten Syntax - Ebene im Segment UNB</text><text fill="#000000" font-family="sans-serif" font-size="14" lengthAdjust="spacing" textLength="336.1572" x="52.7" y="142.1826">ung&#252;ltig sind. Das ung&#252;ltige Zeichen ist Teil der</text><text fill="#000000" font-family="sans-serif" font-size="14" lengthAdjust="spacing" textLength="288.7158" x="52.7" y="158.4795">Bezugsebene oder folgt unmittelbar dem</text><line style="stroke:#181818;stroke-width:0.5;" x1="47.7" x2="396.6668" y1="165.7813" y2="165.7813"/><text fill="#000000" font-family="sans-serif" font-size="14" lengthAdjust="spacing" textLength="196.9365" x="52.7" y="182.7764">Name: Ung&#252;ltige(s) Zeichen</text></g><!--class CONTRL_21_msg_1--><g class="entity" data-entity="CONTRL_21_msg_1" data-source-line="10" data-uid="ent0003" id="entity_CONTRL_21_msg_1"><rect fill="#F1F1F1" height="129.4844" rx="2.5" ry="2.5" style="stroke:#181818;stroke-width:0.5;" width="430.3662" x="7" y="267.0869"/><ellipse cx="150.4897" cy="283.0869" fill="#ADD1B2" rx="11" ry="11" style="stroke:#181818;stroke-width:1;"/><path d="M153.4585,288.7275 Q152.8804,289.0244 152.2397,289.165 Q151.5991,289.3212 150.896,289.3212 Q148.396,289.3212 147.0679,287.6806 Q145.7554,286.0244 145.7554,282.8994 Q145.7554,279.7744 147.0679,278.1181 Q148.396,276.4619 150.896,276.4619 Q151.5991,276.4619 152.2397,276.6181 Q152.896,276.7744 153.4585,277.0712 L153.4585,279.79 Q152.8335,279.2119 152.2397,278.9462 Q151.646,278.665 151.021,278.665 Q149.6772,278.665 148.9897,279.7431 Q148.3022,280.8056 148.3022,282.8994 Q148.3022,284.9931 148.9897,286.0712 Q149.6772,287.1337 151.021,287.1337 Q151.646,287.1337 152.2397,286.8681 Q152.8335,286.5869 153.4585,286.0087 L153.4585,288.7275 Z " fill="#000000"/><text fill="#000000" font-family="sans-serif" font-size="14" lengthAdjust="spacing" textLength="134.8867" x="170.9897" y="287.9336">CONTRL_21_msg_1</text><line style="stroke:#181818;stroke-width:0.5;" x1="8" x2="436.3662" y1="299.0869" y2="299.0869"/><text fill="#000000" font-family="sans-serif" font-size="14" lengthAdjust="spacing" textLength="169.4424" x="13" y="316.082">Nachricht: CONTRL 2.0b</text><text fill="#000000" font-family="sans-serif" font-size="14" lengthAdjust="spacing" textLength="366.9053" x="13" y="332.3789">Kontext: Zeichen als   Service - Zeichen ung&#252;ltig ist.</text><text fill="#000000" font-family="sans-serif" font-size="14" lengthAdjust="spacing" textLength="91.4033" x="13" y="348.6757">Pflichtfeld: Ja</text><text fill="#000000" font-family="sans-serif" font-size="14" lengthAdjust="spacing" textLength="211.21" x="13" y="364.9726">Codes: 20, 21, MIG, UNA, UNB</text><text fill="#000000" font-family="sans-serif" font-size="14" lengthAdjust="spacing" textLength="418.3662" x="13" y="381.2695">Quelle: CONTRL_MIG_2_0b_au&#223;erordentliche_20240726.pdf</text><line style="stroke:#181818;stroke-width:0.5;" x1="8" x2="436.3662" y1="388.5712" y2="388.5712"/></g><!--link CONTRL_21 to CONTRL_21_msg_1--><g class="link" data-entity-1="CONTRL_21" data-entity-2="CONTRL_21_msg_1" data-source-line="17" data-uid="lnk4" id="link_CONTRL_21_CONTRL_21_msg_1"><path codeLine="17" d="M222.18,190.4769 C222.18,215.2769 222.18,236.8369 222.18,260.9269" fill="none" id="CONTRL_21-to-CONTRL_21_msg_1" style="stroke:#181818;stroke-width:1;"/><polygon fill="#181818" points="222.18,266.9269,226.18,257.9269,222.18,261.9269,218.18,257.9269,222.18,266.9269" style="stroke:#181818;stroke-width:1;"/><text fill="#000000" font-family="sans-serif" font-size="13" lengthAdjust="spacing" textLength="85.2363" x="223.18" y="233.1538">verwendet in</text></g><!--SRC=[PP5DJiCm48NtESKiGKghr48WPO542qByjFoqtR2nd7ZYM78SP3kbWBW94XTXruinYHeYmNBUU9w_DnDqC0Zd8g0LmGWF8vZTBLQFjocRH3a9VbzpDe7t260XAanXRTNksmIjyC0VmXFgl4GRpNK8g4rZLGoo7KLjePReeCBIeKEWcifezvcX2queUkebVQvXW-u5hSI0lHrOaPTHEosnq5RJ18dBLnl4bZ0lChHaMC4ILOKsm7enZPgU2xosSap1FFngWxFs0LP4si5CyQrH7Zkx3hQeZGeqLhLnJ2PQW2hw-BiENdd5-wNafIFhaExRmCP9HesRsWRSajp_B8m786ItqJbIYbuVm8bjJ9FtXMaD2pGoXMj1oepWV0eiYO5DOfXVNSQK-IpkWWCyD6WCzW2Ssfpn9EEYsNsXgvsa7RMMo5d2Zf8JTZn-bWN56kux6ft-YvSEbw7h_G00]--></g></svg>