<svg xmlns="http://www.w3.org/2000/svg" xmlns:xlink="http://www.w3.org/1999/xlink" contentStyleType="text/css" data-diagram-type="CLASS" height="387px" preserveAspectRatio="none" style="width:2021px;height:387px;background:#FFFFFF;" version="1.1" viewBox="0 0 2021 387" width="2021px" zoomAndPan="magnify"><title>Datenatlas - CTA:0340</title><defs/><g><g class="title" data-source-line="1"><text fill="#000000" font-family="sans-serif" font-size="14" font-weight="bold" lengthAdjust="spacing" textLength="176.7227" x="915.6024" y="22.9951">Datenatlas - CTA:0340</text></g><!--class CTA_0340--><g class="entity" data-entity="CTA_0340" data-source-line="2" data-uid="ent0002" id="entity_CTA_0340"><rect fill="#F1F1F1" height="113.1875" rx="2.5" ry="2.5" style="stroke:#181818;stroke-width:0.5;" width="249.2822" x="789.17" y="44.2969"/><ellipse cx="874.2945" cy="60.2969" fill="#ADD1B2" rx="11" ry="11" style="stroke:#181818;stroke-width:1;"/><path d="M877.2633,65.9375 Q876.6851,66.2344 876.0445,66.375 Q875.4039,66.5313 874.7008,66.5313 Q872.2008,66.5313 870.8726,64.8906 Q869.5601,63.2344 869.5601,60.1094 Q869.5601,56.9844 870.8726,55.3281 Q872.2008,53.6719 874.7008,53.6719 Q875.4039,53.6719 876.0445,53.8281 Q876.7008,53.9844 877.2633,54.2813 L877.2633,57 Q876.6383,56.4219 876.0445,56.1563 Q875.4508,55.875 874.8258,55.875 Q873.482,55.875 872.7945,56.9531 Q872.107,58.0156 872.107,60.1094 Q872.107,62.2031 872.7945,63.2813 Q873.482,64.3438 874.8258,64.3438 Q875.4508,64.3438 876.0445,64.0781 Q876.6383,63.7969 877.2633,63.2188 L877.2633,65.9375 Z " fill="#000000"/><text fill="#000000" font-family="sans-serif" font-size="14" lengthAdjust="spacing" textLength="70.5332" x="894.7945" y="65.1436">CTA_0340</text><line style="stroke:#181818;stroke-width:0.5;" x1="790.17" x2="1037.4522" y1="76.2969" y2="76.2969"/><text fill="#000000" font-family="sans-serif" font-size="14" lengthAdjust="spacing" textLength="167.9932" x="809.17" y="93.292">Name: Ansprechpartner</text><text fill="#000000" font-family="sans-serif" font-size="14" lengthAdjust="spacing" textLength="66.6436" x="809.17" y="109.5889">Prozesse:</text><rect fill="none" height="6" style="stroke:#C82930;stroke-width:1;" width="6" x="797.17" y="119.5391"/><text fill="#000000" font-family="sans-serif" font-size="14" lengthAdjust="spacing" textLength="180.3457" x="809.17" y="125.8857">Netznutzungsabrechnung</text><rect fill="none" height="6" style="stroke:#C82930;stroke-width:1;" width="6" x="797.17" y="135.8359"/><text fill="#000000" font-family="sans-serif" font-size="14" lengthAdjust="spacing" textLength="223.2822" x="809.17" y="142.1826">Messstellenbetriebsabrechnung</text><line style="stroke:#181818;stroke-width:0.5;" x1="790.17" x2="1037.4522" y1="149.4844" y2="149.4844"/></g><!--class CTA_0340_msg_1--><g class="entity" data-entity="CTA_0340_msg_1" data-source-line="8" data-uid="ent0003" id="entity_CTA_0340_msg_1"><rect fill="#F1F1F1" height="145.7813" rx="2.5" ry="2.5" style="stroke:#181818;stroke-width:0.5;" width="495.6221" x="7" y="234.4869"/><ellipse cx="188.9316" cy="250.4869" fill="#ADD1B2" rx="11" ry="11" style="stroke:#181818;stroke-width:1;"/><path d="M191.9004,256.1275 Q191.3223,256.4244 190.6816,256.565 Q190.041,256.7213 189.3379,256.7213 Q186.8379,256.7213 185.5098,255.0806 Q184.1973,253.4244 184.1973,250.2994 Q184.1973,247.1744 185.5098,245.5181 Q186.8379,243.8619 189.3379,243.8619 Q190.041,243.8619 190.6816,244.0181 Q191.3379,244.1744 191.9004,244.4713 L191.9004,247.19 Q191.2754,246.6119 190.6816,246.3463 Q190.0879,246.065 189.4629,246.065 Q188.1191,246.065 187.4316,247.1431 Q186.7441,248.2056 186.7441,250.2994 Q186.7441,252.3931 187.4316,253.4713 Q188.1191,254.5338 189.4629,254.5338 Q190.0879,254.5338 190.6816,254.2681 Q191.2754,253.9869 191.9004,253.4088 L191.9004,256.1275 Z " fill="#000000"/><text fill="#000000" font-family="sans-serif" font-size="14" lengthAdjust="spacing" textLength="123.2588" x="209.4316" y="255.3336">CTA_0340_msg_1</text><line style="stroke:#181818;stroke-width:0.5;" x1="8" x2="501.6221" y1="266.4869" y2="266.4869"/><text fill="#000000" font-family="sans-serif" font-size="14" lengthAdjust="spacing" textLength="165.6484" x="13" y="283.482">Nachricht: INVOIC 2.8d.</text><text fill="#000000" font-family="sans-serif" font-size="14" lengthAdjust="spacing" textLength="204.1143" x="13" y="299.7789">Kontext: Nachrichtenstruktur</text><text fill="#000000" font-family="sans-serif" font-size="14" lengthAdjust="spacing" textLength="91.4033" x="13" y="316.0757">Pflichtfeld: Ja</text><text fill="#000000" font-family="sans-serif" font-size="14" lengthAdjust="spacing" textLength="80.2061" x="13" y="332.3726">Codes: CTA</text><text fill="#000000" font-family="sans-serif" font-size="14" lengthAdjust="spacing" textLength="483.6221" x="13" y="348.6695">Prozesse: Netznutzungsabrechnung, Messstellenbetriebsabrechnung</text><text fill="#000000" font-family="sans-serif" font-size="14" lengthAdjust="spacing" textLength="290.3359" x="13" y="364.9664">Quelle: INVOIC_MIG_2_8d__20240619.pdf</text><line style="stroke:#181818;stroke-width:0.5;" x1="8" x2="501.6221" y1="372.2681" y2="372.2681"/></g><!--class CTA_0340_proc_1--><g class="entity" data-entity="CTA_0340_proc_1" data-source-line="17" data-uid="ent0005" id="entity_CTA_0340_proc_1"><rect fill="#F1F1F1" height="105.1563" rx="2.5" ry="2.5" style="stroke:#181818;stroke-width:0.5;" width="752.6465" x="537.49" y="254.7969"/><ellipse cx="847.3904" cy="274.9297" fill="#ADD1B2" rx="11" ry="11" style="stroke:#181818;stroke-width:1;"/><path d="M850.3591,280.5703 Q849.781,280.8672 849.1404,281.0078 Q848.4998,281.1641 847.7966,281.1641 Q845.2966,281.1641 843.9685,279.5234 Q842.656,277.8672 842.656,274.7422 Q842.656,271.6172 843.9685,269.9609 Q845.2966,268.3047 847.7966,268.3047 Q848.4998,268.3047 849.1404,268.4609 Q849.7966,268.6172 850.3591,268.9141 L850.3591,271.6328 Q849.7341,271.0547 849.1404,270.7891 Q848.5466,270.5078 847.9216,270.5078 Q846.5779,270.5078 845.8904,271.5859 Q845.2029,272.6484 845.2029,274.7422 Q845.2029,276.8359 845.8904,277.9141 Q846.5779,278.9766 847.9216,278.9766 Q848.5466,278.9766 849.1404,278.7109 Q849.7341,278.4297 850.3591,277.8516 L850.3591,280.5703 Z " fill="#000000"/><text fill="#000000" font-family="sans-serif" font-size="12" font-style="italic" lengthAdjust="spacing" textLength="61.0605" x="899.533" y="270.9355">&#171;process&#187;</text><text fill="#000000" font-family="sans-serif" font-size="14" lengthAdjust="spacing" textLength="124.3457" x="867.8904" y="286.7607">CTA_0340_proc_1</text><line style="stroke:#181818;stroke-width:0.5;" x1="538.49" x2="1289.1365" y1="295.0625" y2="295.0625"/><text fill="#000000" font-family="sans-serif" font-size="14" lengthAdjust="spacing" textLength="180.3457" x="543.49" y="312.0576">Netznutzungsabrechnung</text><text fill="#000000" font-family="sans-serif" font-size="14" lengthAdjust="spacing" textLength="218.0938" x="543.49" y="328.3545">Gesetze: StromNEV, StromNZV</text><text fill="#000000" font-family="sans-serif" font-size="14" lengthAdjust="spacing" textLength="740.6465" x="543.49" y="344.6514">Zusammenfassung: Wie funktioniert die Netznutzungsabrechnung zwischen Netzbetreiber und Lieferant?</text><line style="stroke:#181818;stroke-width:0.5;" x1="538.49" x2="1289.1365" y1="351.9531" y2="351.9531"/></g><!--class CTA_0340_proc_2--><g class="entity" data-entity="CTA_0340_proc_2" data-source-line="23" data-uid="ent0007" id="entity_CTA_0340_proc_2"><rect fill="#F1F1F1" height="105.1563" rx="2.5" ry="2.5" style="stroke:#181818;stroke-width:0.5;" width="690.2275" x="1324.7" y="254.7969"/><ellipse cx="1603.3909" cy="274.9297" fill="#ADD1B2" rx="11" ry="11" style="stroke:#181818;stroke-width:1;"/><path d="M1606.3597,280.5703 Q1605.7815,280.8672 1605.1409,281.0078 Q1604.5003,281.1641 1603.7972,281.1641 Q1601.2972,281.1641 1599.969,279.5234 Q1598.6565,277.8672 1598.6565,274.7422 Q1598.6565,271.6172 1599.969,269.9609 Q1601.2972,268.3047 1603.7972,268.3047 Q1604.5003,268.3047 1605.1409,268.4609 Q1605.7972,268.6172 1606.3597,268.9141 L1606.3597,271.6328 Q1605.7347,271.0547 1605.1409,270.7891 Q1604.5472,270.5078 1603.9222,270.5078 Q1602.5784,270.5078 1601.8909,271.5859 Q1601.2034,272.6484 1601.2034,274.7422 Q1601.2034,276.8359 1601.8909,277.9141 Q1602.5784,278.9766 1603.9222,278.9766 Q1604.5472,278.9766 1605.1409,278.7109 Q1605.7347,278.4297 1606.3597,277.8516 L1606.3597,280.5703 Z " fill="#000000"/><text fill="#000000" font-family="sans-serif" font-size="12" font-style="italic" lengthAdjust="spacing" textLength="61.0605" x="1655.5335" y="270.9355">&#171;process&#187;</text><text fill="#000000" font-family="sans-serif" font-size="14" lengthAdjust="spacing" textLength="124.3457" x="1623.8909" y="286.7607">CTA_0340_proc_2</text><line style="stroke:#181818;stroke-width:0.5;" x1="1325.7" x2="2013.9275" y1="295.0625" y2="295.0625"/><text fill="#000000" font-family="sans-serif" font-size="14" lengthAdjust="spacing" textLength="223.2822" x="1330.7" y="312.0576">Messstellenbetriebsabrechnung</text><text fill="#000000" font-family="sans-serif" font-size="14" lengthAdjust="spacing" textLength="105.0957" x="1330.7" y="328.3545">Gesetze: MsbG</text><text fill="#000000" font-family="sans-serif" font-size="14" lengthAdjust="spacing" textLength="678.2275" x="1330.7" y="344.6514">Zusammenfassung: Beschreibe den Prozess der Abrechnung von Messstellenbetriebsleistungen.</text><line style="stroke:#181818;stroke-width:0.5;" x1="1325.7" x2="2013.9275" y1="351.9531" y2="351.9531"/></g><!--link CTA_0340 to CTA_0340_msg_1--><g class="link" data-entity-1="CTA_0340" data-entity-2="CTA_0340_msg_1" data-source-line="16" data-uid="lnk4" id="link_CTA_0340_CTA_0340_msg_1"><path codeLine="16" d="M788.7,140.7169 C703.86,167.0369 594.8904,200.8485 493.5504,232.2985" fill="none" id="CTA_0340-to-CTA_0340_msg_1" style="stroke:#181818;stroke-width:1;"/><polygon fill="#181818" points="487.82,234.0769,497.6012,235.2296,492.5953,232.5949,495.23,227.589,487.82,234.0769" style="stroke:#181818;stroke-width:1;"/><text fill="#000000" font-family="sans-serif" font-size="13" lengthAdjust="spacing" textLength="85.2363" x="624.81" y="200.5538">verwendet in</text></g><!--link CTA_0340 to CTA_0340_proc_1--><g class="link" data-entity-1="CTA_0340" data-entity-2="CTA_0340_proc_1" data-source-line="22" data-uid="lnk6" id="link_CTA_0340_CTA_0340_proc_1"><path codeLine="22" d="M913.81,157.7669 C913.81,187.9169 913.81,218.9069 913.81,248.4269" fill="none" id="CTA_0340-to-CTA_0340_proc_1" style="stroke:#181818;stroke-width:1;stroke-dasharray:7,7;"/><polygon fill="#181818" points="913.81,254.4269,917.81,245.4269,913.81,249.4269,909.81,245.4269,913.81,254.4269" style="stroke:#181818;stroke-width:1;"/><text fill="#000000" font-family="sans-serif" font-size="13" lengthAdjust="spacing" textLength="91.6221" x="914.81" y="200.5538">eingebettet in</text></g><!--link CTA_0340 to CTA_0340_proc_2--><g class="link" data-entity-1="CTA_0340" data-entity-2="CTA_0340_proc_2" data-source-line="28" data-uid="lnk8" id="link_CTA_0340_CTA_0340_proc_2"><path codeLine="28" d="M1038.65,135.6569 C1157.96,167.9269 1333.7682,215.4802 1471.5882,252.7602" fill="none" id="CTA_0340-to-CTA_0340_proc_2" style="stroke:#181818;stroke-width:1;stroke-dasharray:7,7;"/><polygon fill="#181818" points="1477.38,254.3269,1469.7367,248.1156,1472.5535,253.0213,1467.6478,255.8381,1477.38,254.3269" style="stroke:#181818;stroke-width:1;"/><text fill="#000000" font-family="sans-serif" font-size="13" lengthAdjust="spacing" textLength="91.6221" x="1292.81" y="200.5538">eingebettet in</text></g><!--SRC=[XP7TRjD048Nl-nJp08sLcWgLLPKg11G5I021WjGRQ-qzJbQrnz7kk4L1l3lZ4D8eF_HkTixPdVFDYfSAzCuAs4fb8_Lez7re-g-k-nU5dcDtpBeZ_ReWcjaQXeOSLm75ScM3C8BsluHcZHXXj2PzOmPPSolhbXVHvfsNjToAKtL6GLM1SqZmoFSzlm_cPdLSP5VRwSKo-68fXYQp-UV9YDBanYMgV6nOy5FxEmiuIcWVfDt4AwkkLw9oXZvOxOmQXsYw8Vlfp-I-V24oqTUsq_x5ogQJSPPcDoxBqdvwtNzzzIPPkLBHTilizGQ7X8OU4Px03aAU3xUm2asXfjlRhj0qWy7VbPnRz1XH9OtqJK9JpzxFBxVL_LpL-pRQkWQNEaFzXdvuKDdoW_Y6FOAGqyRfnsdzv6En16_qRXtmEGArxEYJHubWMUxsOPDaS0HY29uNqEjodZSzudtf8tROqvYFJu6-XMRV92Qd2DklrphGy1dniU5JeohuAAg3a__pfKTyVm00]--></g></svg>