<svg xmlns="http://www.w3.org/2000/svg" xmlns:xlink="http://www.w3.org/1999/xlink" contentStyleType="text/css" data-diagram-type="CLASS" height="370px" preserveAspectRatio="none" style="width:1688px;height:370px;background:#FFFFFF;" version="1.1" viewBox="0 0 1688 370" width="1688px" zoomAndPan="magnify"><title>Datenatlas - DOC:1001</title><defs/><g><g class="title" data-source-line="1"><text fill="#000000" font-family="sans-serif" font-size="14" font-weight="bold" lengthAdjust="spacing" textLength="179.8604" x="747.4631" y="22.9951">Datenatlas - DOC:1001</text></g><!--class DOC_1001--><g class="entity" data-entity="DOC_1001" data-source-line="2" data-uid="ent0002" id="entity_DOC_1001"><rect fill="#F1F1F1" height="96.8906" rx="2.5" ry="2.5" style="stroke:#181818;stroke-width:0.5;" width="251.3398" x="553.79" y="44.2969"/><ellipse cx="638.1079" cy="60.2969" fill="#ADD1B2" rx="11" ry="11" style="stroke:#181818;stroke-width:1;"/><path d="M641.0766,65.9375 Q640.4985,66.2344 639.8579,66.375 Q639.2172,66.5313 638.5141,66.5313 Q636.0141,66.5313 634.686,64.8906 Q633.3735,63.2344 633.3735,60.1094 Q633.3735,56.9844 634.686,55.3281 Q636.0141,53.6719 638.5141,53.6719 Q639.2172,53.6719 639.8579,53.8281 Q640.5141,53.9844 641.0766,54.2813 L641.0766,57 Q640.4516,56.4219 639.8579,56.1563 Q639.2641,55.875 638.6391,55.875 Q637.2954,55.875 636.6079,56.9531 Q635.9204,58.0156 635.9204,60.1094 Q635.9204,62.2031 636.6079,63.2813 Q637.2954,64.3438 638.6391,64.3438 Q639.2641,64.3438 639.8579,64.0781 Q640.4516,63.7969 641.0766,63.2188 L641.0766,65.9375 Z " fill="#000000"/><text fill="#000000" font-family="sans-serif" font-size="14" lengthAdjust="spacing" textLength="74.2041" x="658.6079" y="65.1436">DOC_1001</text><line style="stroke:#181818;stroke-width:0.5;" x1="554.79" x2="804.1298" y1="76.2969" y2="76.2969"/><text fill="#000000" font-family="sans-serif" font-size="14" lengthAdjust="spacing" textLength="225.3398" x="573.79" y="93.292">Name: Dokumentenname, Code</text><text fill="#000000" font-family="sans-serif" font-size="14" lengthAdjust="spacing" textLength="66.6436" x="573.79" y="109.5889">Prozesse:</text><rect fill="none" height="6" style="stroke:#C82930;stroke-width:1;" width="6" x="561.79" y="119.5391"/><text fill="#000000" font-family="sans-serif" font-size="14" lengthAdjust="spacing" textLength="180.3457" x="573.79" y="125.8857">Netznutzungsabrechnung</text><line style="stroke:#181818;stroke-width:0.5;" x1="554.79" x2="804.1298" y1="133.1875" y2="133.1875"/></g><!--class DOC_1001_msg_1--><g class="entity" data-entity="DOC_1001_msg_1" data-source-line="7" data-uid="ent0003" id="entity_DOC_1001_msg_1"><rect fill="#F1F1F1" height="145.7813" rx="2.5" ry="2.5" style="stroke:#181818;stroke-width:0.5;" width="422.9219" x="7" y="218.1869"/><ellipse cx="150.7461" cy="234.1869" fill="#ADD1B2" rx="11" ry="11" style="stroke:#181818;stroke-width:1;"/><path d="M153.7148,239.8275 Q153.1367,240.1244 152.4961,240.265 Q151.8555,240.4213 151.1523,240.4213 Q148.6523,240.4213 147.3242,238.7806 Q146.0117,237.1244 146.0117,233.9994 Q146.0117,230.8744 147.3242,229.2181 Q148.6523,227.5619 151.1523,227.5619 Q151.8555,227.5619 152.4961,227.7181 Q153.1523,227.8744 153.7148,228.1713 L153.7148,230.89 Q153.0898,230.3119 152.4961,230.0463 Q151.9023,229.765 151.2773,229.765 Q149.9336,229.765 149.2461,230.8431 Q148.5586,231.9056 148.5586,233.9994 Q148.5586,236.0931 149.2461,237.1713 Q149.9336,238.2338 151.2773,238.2338 Q151.9023,238.2338 152.4961,237.9681 Q153.0898,237.6869 153.7148,237.1088 L153.7148,239.8275 Z " fill="#000000"/><text fill="#000000" font-family="sans-serif" font-size="14" lengthAdjust="spacing" textLength="126.9297" x="171.2461" y="239.0336">DOC_1001_msg_1</text><line style="stroke:#181818;stroke-width:0.5;" x1="8" x2="428.9219" y1="250.1869" y2="250.1869"/><text fill="#000000" font-family="sans-serif" font-size="14" lengthAdjust="spacing" textLength="161.998" x="13" y="267.182">Nachricht: INSRPT 1.1a</text><text fill="#000000" font-family="sans-serif" font-size="14" lengthAdjust="spacing" textLength="170.3447" x="13" y="283.4789">Kontext: Segmentlayout</text><text fill="#000000" font-family="sans-serif" font-size="14" lengthAdjust="spacing" textLength="91.4033" x="13" y="299.7757">Pflichtfeld: Ja</text><text fill="#000000" font-family="sans-serif" font-size="14" lengthAdjust="spacing" textLength="330.0391" x="13" y="316.0726">Codes: 21, 22, 23, 293, 70, 99, DOC, OCR, SG3</text><text fill="#000000" font-family="sans-serif" font-size="14" lengthAdjust="spacing" textLength="251.4395" x="13" y="332.3695">Prozesse: Netznutzungsabrechnung</text><text fill="#000000" font-family="sans-serif" font-size="14" lengthAdjust="spacing" textLength="410.9219" x="13" y="348.6664">Quelle: INSRPT_MIG_1_1a_au&#223;erordentliche_20240726.pdf</text><line style="stroke:#181818;stroke-width:0.5;" x1="8" x2="428.9219" y1="355.9681" y2="355.9681"/></g><!--class DOC_1001_msg_2--><g class="entity" data-entity="DOC_1001_msg_2" data-source-line="16" data-uid="ent0005" id="entity_DOC_1001_msg_2"><rect fill="#F1F1F1" height="145.7813" rx="2.5" ry="2.5" style="stroke:#181818;stroke-width:0.5;" width="429.8672" x="464.53" y="218.1869"/><ellipse cx="611.7488" cy="234.1869" fill="#ADD1B2" rx="11" ry="11" style="stroke:#181818;stroke-width:1;"/><path d="M614.7175,239.8275 Q614.1394,240.1244 613.4988,240.265 Q612.8581,240.4213 612.155,240.4213 Q609.655,240.4213 608.3269,238.7806 Q607.0144,237.1244 607.0144,233.9994 Q607.0144,230.8744 608.3269,229.2181 Q609.655,227.5619 612.155,227.5619 Q612.8581,227.5619 613.4988,227.7181 Q614.155,227.8744 614.7175,228.1713 L614.7175,230.89 Q614.0925,230.3119 613.4988,230.0463 Q612.905,229.765 612.28,229.765 Q610.9363,229.765 610.2488,230.8431 Q609.5613,231.9056 609.5613,233.9994 Q609.5613,236.0931 610.2488,237.1713 Q610.9363,238.2338 612.28,238.2338 Q612.905,238.2338 613.4988,237.9681 Q614.0925,237.6869 614.7175,237.1088 L614.7175,239.8275 Z " fill="#000000"/><text fill="#000000" font-family="sans-serif" font-size="14" lengthAdjust="spacing" textLength="126.9297" x="632.2488" y="239.0336">DOC_1001_msg_2</text><line style="stroke:#181818;stroke-width:0.5;" x1="465.53" x2="893.3972" y1="250.1869" y2="250.1869"/><text fill="#000000" font-family="sans-serif" font-size="14" lengthAdjust="spacing" textLength="171.4932" x="470.53" y="267.182">Nachricht: REMADV 2.9c</text><text fill="#000000" font-family="sans-serif" font-size="14" lengthAdjust="spacing" textLength="123.0605" x="470.53" y="283.4789">Kontext: Beispiel:</text><text fill="#000000" font-family="sans-serif" font-size="14" lengthAdjust="spacing" textLength="91.4033" x="470.53" y="299.7757">Pflichtfeld: Ja</text><text fill="#000000" font-family="sans-serif" font-size="14" lengthAdjust="spacing" textLength="330.0459" x="470.53" y="316.0726">Codes: 225, 35, 380, 389, 457, DOC, OCR, SG5</text><text fill="#000000" font-family="sans-serif" font-size="14" lengthAdjust="spacing" textLength="251.4395" x="470.53" y="332.3695">Prozesse: Netznutzungsabrechnung</text><text fill="#000000" font-family="sans-serif" font-size="14" lengthAdjust="spacing" textLength="417.8672" x="470.53" y="348.6664">Quelle: REMADV_MIG_2.9c_au&#223;erordentliche_20240726.pdf</text><line style="stroke:#181818;stroke-width:0.5;" x1="465.53" x2="893.3972" y1="355.9681" y2="355.9681"/></g><!--class DOC_1001_proc_1--><g class="entity" data-entity="DOC_1001_proc_1" data-source-line="25" data-uid="ent0007" id="entity_DOC_1001_proc_1"><rect fill="#F1F1F1" height="105.1563" rx="2.5" ry="2.5" style="stroke:#181818;stroke-width:0.5;" width="752.6465" x="929.14" y="238.4969"/><ellipse cx="1237.2049" cy="258.6297" fill="#ADD1B2" rx="11" ry="11" style="stroke:#181818;stroke-width:1;"/><path d="M1240.1737,264.2703 Q1239.5956,264.5672 1238.9549,264.7078 Q1238.3143,264.8641 1237.6112,264.8641 Q1235.1112,264.8641 1233.7831,263.2234 Q1232.4706,261.5672 1232.4706,258.4422 Q1232.4706,255.3172 1233.7831,253.6609 Q1235.1112,252.0047 1237.6112,252.0047 Q1238.3143,252.0047 1238.9549,252.1609 Q1239.6112,252.3172 1240.1737,252.6141 L1240.1737,255.3328 Q1239.5487,254.7547 1238.9549,254.4891 Q1238.3612,254.2078 1237.7362,254.2078 Q1236.3924,254.2078 1235.7049,255.2859 Q1235.0174,256.3484 1235.0174,258.4422 Q1235.0174,260.5359 1235.7049,261.6141 Q1236.3924,262.6766 1237.7362,262.6766 Q1238.3612,262.6766 1238.9549,262.4109 Q1239.5487,262.1297 1240.1737,261.5516 L1240.1737,264.2703 Z " fill="#000000"/><text fill="#000000" font-family="sans-serif" font-size="12" font-style="italic" lengthAdjust="spacing" textLength="61.0605" x="1291.183" y="254.6355">&#171;process&#187;</text><text fill="#000000" font-family="sans-serif" font-size="14" lengthAdjust="spacing" textLength="128.0166" x="1257.7049" y="270.4607">DOC_1001_proc_1</text><line style="stroke:#181818;stroke-width:0.5;" x1="930.14" x2="1680.7865" y1="278.7625" y2="278.7625"/><text fill="#000000" font-family="sans-serif" font-size="14" lengthAdjust="spacing" textLength="180.3457" x="935.14" y="295.7576">Netznutzungsabrechnung</text><text fill="#000000" font-family="sans-serif" font-size="14" lengthAdjust="spacing" textLength="218.0938" x="935.14" y="312.0545">Gesetze: StromNEV, StromNZV</text><text fill="#000000" font-family="sans-serif" font-size="14" lengthAdjust="spacing" textLength="740.6465" x="935.14" y="328.3514">Zusammenfassung: Wie funktioniert die Netznutzungsabrechnung zwischen Netzbetreiber und Lieferant?</text><line style="stroke:#181818;stroke-width:0.5;" x1="930.14" x2="1680.7865" y1="335.6531" y2="335.6531"/></g><!--link DOC_1001 to DOC_1001_msg_1--><g class="link" data-entity-1="DOC_1001" data-entity-2="DOC_1001_msg_1" data-source-line="15" data-uid="lnk4" id="link_DOC_1001_DOC_1001_msg_1"><path codeLine="15" d="M566.98,141.6469 C513.27,164.5169 453.3802,190.0258 393.7902,215.4058" fill="none" id="DOC_1001-to-DOC_1001_msg_1" style="stroke:#181818;stroke-width:1;"/><polygon fill="#181818" points="388.27,217.7569,398.1177,217.9103,392.8701,215.7976,394.9829,210.5501,388.27,217.7569" style="stroke:#181818;stroke-width:1;"/><text fill="#000000" font-family="sans-serif" font-size="13" lengthAdjust="spacing" textLength="85.2363" x="491.46" y="184.2538">verwendet in</text></g><!--link DOC_1001 to DOC_1001_msg_2--><g class="link" data-entity-1="DOC_1001" data-entity-2="DOC_1001_msg_2" data-source-line="24" data-uid="lnk6" id="link_DOC_1001_DOC_1001_msg_2"><path codeLine="24" d="M679.46,141.5169 C679.46,164.4469 679.46,186.4069 679.46,211.8569" fill="none" id="DOC_1001-to-DOC_1001_msg_2" style="stroke:#181818;stroke-width:1;"/><polygon fill="#181818" points="679.46,217.8569,683.46,208.8569,679.46,212.8569,675.46,208.8569,679.46,217.8569" style="stroke:#181818;stroke-width:1;"/><text fill="#000000" font-family="sans-serif" font-size="13" lengthAdjust="spacing" textLength="85.2363" x="680.46" y="184.2538">verwendet in</text></g><!--link DOC_1001 to DOC_1001_proc_1--><g class="link" data-entity-1="DOC_1001" data-entity-2="DOC_1001_proc_1" data-source-line="30" data-uid="lnk8" id="link_DOC_1001_DOC_1001_proc_1"><path codeLine="30" d="M805.39,133.2369 C901.52,163.3869 1029.1149,203.4014 1133.9249,236.2714" fill="none" id="DOC_1001-to-DOC_1001_proc_1" style="stroke:#181818;stroke-width:1;stroke-dasharray:7,7;"/><polygon fill="#181818" points="1139.65,238.0669,1132.2594,231.557,1134.8791,236.5707,1129.8654,239.1904,1139.65,238.0669" style="stroke:#181818;stroke-width:1;"/><text fill="#000000" font-family="sans-serif" font-size="13" lengthAdjust="spacing" textLength="91.6221" x="975.46" y="184.2538">eingebettet in</text></g><!--SRC=[fP9TRXen4CVVESKSO5djcb2A5H6b4A6q3KcW8b9ULcPt5gpisiWVJKEKi_GmlLZ6K292lbJrOQmPptZcFp_PILSX38H39LmbB3HXSDxdQPAaZPnY6y8iX73V01Y96ZaCz8slKT4RHN44VLqW9I-CNg6roCa7QZH2jrBUhRoQMp4pc2yKkOs7lSPPRUVPjds-C39VE0wdeyduuWUaSIeeyKtJj5zqFS5vc5o9E-rTc5bMeRx4gk3mDPG6CPO3IoDWZAn5rgMZaqJGxKPXR0Jd_N44as5hL_LRUW4kFLOLRZLbPwV3BCrIaGd_vpSQROgWY6HWnX9sa7JOftXPbBJe4xjcixU_BuUVQ6vH5UX0gjUOi7qcuvEpuy4KMDpDTvbyGMcN4Yl-BW_MZg0Lx7CI3Y9nqEuynz7-DnmREMiSGTB_u60Vu5WQdHEpmyFWaBnURyFcBOb3j9GYZHDdT3qwcKP_lUifPQ-z5JLzev9cK3s7AubGUdNZf5OIZOE2Bbvl3gjRQMatjSxFq1cKCpJWLG7V9PPeX797kyl6SU_58XnGgZdISxVUzn40]--></g></svg>