<svg xmlns="http://www.w3.org/2000/svg" xmlns:xlink="http://www.w3.org/1999/xlink" contentStyleType="text/css" data-diagram-type="CLASS" height="403px" preserveAspectRatio="none" style="width:4447px;height:403px;background:#FFFFFF;" version="1.1" viewBox="0 0 4447 403" width="4447px" zoomAndPan="magnify"><title>Datenatlas - DTM:303</title><defs/><g><g class="title" data-source-line="1"><text fill="#000000" font-family="sans-serif" font-size="14" font-weight="bold" lengthAdjust="spacing" textLength="171.4248" x="2131.0958" y="22.9951">Datenatlas - DTM:303</text></g><!--class DTM_303--><g class="entity" data-entity="DTM_303" data-source-line="2" data-uid="ent0002" id="entity_DTM_303"><rect fill="#F1F1F1" height="129.4844" rx="2.5" ry="2.5" style="stroke:#181818;stroke-width:0.5;" width="374.2021" x="1509.19" y="44.2969"/><ellipse cx="1659.4747" cy="60.2969" fill="#ADD1B2" rx="11" ry="11" style="stroke:#181818;stroke-width:1;"/><path d="M1662.4434,65.9375 Q1661.8653,66.2344 1661.2247,66.375 Q1660.584,66.5313 1659.8809,66.5313 Q1657.3809,66.5313 1656.0528,64.8906 Q1654.7403,63.2344 1654.7403,60.1094 Q1654.7403,56.9844 1656.0528,55.3281 Q1657.3809,53.6719 1659.8809,53.6719 Q1660.584,53.6719 1661.2247,53.8281 Q1661.8809,53.9844 1662.4434,54.2813 L1662.4434,57 Q1661.8184,56.4219 1661.2247,56.1563 Q1660.6309,55.875 1660.0059,55.875 Q1658.6622,55.875 1657.9747,56.9531 Q1657.2872,58.0156 1657.2872,60.1094 Q1657.2872,62.2031 1657.9747,63.2813 Q1658.6622,64.3438 1660.0059,64.3438 Q1660.6309,64.3438 1661.2247,64.0781 Q1661.8184,63.7969 1662.4434,63.2188 L1662.4434,65.9375 Z " fill="#000000"/><text fill="#000000" font-family="sans-serif" font-size="14" lengthAdjust="spacing" textLength="65.1328" x="1679.9747" y="65.1436">DTM_303</text><line style="stroke:#181818;stroke-width:0.5;" x1="1510.19" x2="1882.3921" y1="76.2969" y2="76.2969"/><text fill="#000000" font-family="sans-serif" font-size="14" lengthAdjust="spacing" textLength="214.8672" x="1529.19" y="93.292">Name: Zeitzonenverschiebung</text><text fill="#000000" font-family="sans-serif" font-size="14" lengthAdjust="spacing" textLength="66.6436" x="1529.19" y="109.5889">Prozesse:</text><rect fill="none" height="6" style="stroke:#C82930;stroke-width:1;" width="6" x="1517.19" y="119.5391"/><text fill="#000000" font-family="sans-serif" font-size="14" lengthAdjust="spacing" textLength="317.9668" x="1529.19" y="125.8857">Sperrung und Entsperrung eines Anschlusses</text><rect fill="none" height="6" style="stroke:#C82930;stroke-width:1;" width="6" x="1517.19" y="135.8359"/><text fill="#000000" font-family="sans-serif" font-size="14" lengthAdjust="spacing" textLength="180.3457" x="1529.19" y="142.1826">Netznutzungsabrechnung</text><line style="stroke:#181818;stroke-width:0.5;" x1="1510.19" x2="1882.3921" y1="149.4844" y2="149.4844"/><rect fill="#F24D5C" height="6" style="stroke:#C82930;stroke-width:1;" width="6" x="1517.19" y="160.1328"/><text fill="#000000" font-family="sans-serif" font-size="14" lengthAdjust="spacing" textLength="348.2021" x="1529.19" y="166.4795">Bestellung einer technischen Konfiguration (MSB)</text></g><!--class DTM_303_msg_1--><g class="entity" data-entity="DTM_303_msg_1" data-source-line="9" data-uid="ent0003" id="entity_DTM_303_msg_1"><rect fill="#F1F1F1" height="129.4844" rx="2.5" ry="2.5" style="stroke:#181818;stroke-width:0.5;" width="296.5869" x="7" y="258.9369"/><ellipse cx="92.1143" cy="274.9369" fill="#ADD1B2" rx="11" ry="11" style="stroke:#181818;stroke-width:1;"/><path d="M95.083,280.5775 Q94.5049,280.8744 93.8643,281.015 Q93.2236,281.1713 92.5205,281.1713 Q90.0205,281.1713 88.6924,279.5306 Q87.3799,277.8744 87.3799,274.7494 Q87.3799,271.6244 88.6924,269.9681 Q90.0205,268.3119 92.5205,268.3119 Q93.2236,268.3119 93.8643,268.4681 Q94.5205,268.6244 95.083,268.9213 L95.083,271.64 Q94.458,271.0619 93.8643,270.7963 Q93.2705,270.515 92.6455,270.515 Q91.3018,270.515 90.6143,271.5931 Q89.9268,272.6556 89.9268,274.7494 Q89.9268,276.8431 90.6143,277.9213 Q91.3018,278.9838 92.6455,278.9838 Q93.2705,278.9838 93.8643,278.7181 Q94.458,278.4369 95.083,277.8588 L95.083,280.5775 Z " fill="#000000"/><text fill="#000000" font-family="sans-serif" font-size="14" lengthAdjust="spacing" textLength="117.8584" x="112.6143" y="279.7836">DTM_303_msg_1</text><line style="stroke:#181818;stroke-width:0.5;" x1="8" x2="302.5869" y1="290.9369" y2="290.9369"/><text fill="#000000" font-family="sans-serif" font-size="14" lengthAdjust="spacing" textLength="162.4492" x="13" y="307.932">Nachricht: APERAK 2.1i</text><text fill="#000000" font-family="sans-serif" font-size="14" lengthAdjust="spacing" textLength="123.0605" x="13" y="324.2289">Kontext: Beispiel:</text><text fill="#000000" font-family="sans-serif" font-size="14" lengthAdjust="spacing" textLength="91.4033" x="13" y="340.5257">Pflichtfeld: Ja</text><text fill="#000000" font-family="sans-serif" font-size="14" lengthAdjust="spacing" textLength="261.8164" x="13" y="356.8226">Codes: 00, 06, 137, 19, 303, 31, DTM</text><text fill="#000000" font-family="sans-serif" font-size="14" lengthAdjust="spacing" textLength="284.5869" x="13" y="373.1195">Quelle: APERAK_MIG_2_1i_20240619.pdf</text><line style="stroke:#181818;stroke-width:0.5;" x1="8" x2="302.5869" y1="380.4213" y2="380.4213"/></g><!--class DTM_303_msg_2--><g class="entity" data-entity="DTM_303_msg_2" data-source-line="17" data-uid="ent0005" id="entity_DTM_303_msg_2"><rect fill="#F1F1F1" height="145.7813" rx="2.5" ry="2.5" style="stroke:#181818;stroke-width:0.5;" width="758.1631" x="338.21" y="250.7869"/><ellipse cx="654.1123" cy="266.7869" fill="#ADD1B2" rx="11" ry="11" style="stroke:#181818;stroke-width:1;"/><path d="M657.0811,272.4275 Q656.503,272.7244 655.8623,272.865 Q655.2217,273.0213 654.5186,273.0213 Q652.0186,273.0213 650.6905,271.3806 Q649.378,269.7244 649.378,266.5994 Q649.378,263.4744 650.6905,261.8181 Q652.0186,260.1619 654.5186,260.1619 Q655.2217,260.1619 655.8623,260.3181 Q656.5186,260.4744 657.0811,260.7713 L657.0811,263.49 Q656.4561,262.9119 655.8623,262.6463 Q655.2686,262.365 654.6436,262.365 Q653.2998,262.365 652.6123,263.4431 Q651.9248,264.5056 651.9248,266.5994 Q651.9248,268.6931 652.6123,269.7713 Q653.2998,270.8338 654.6436,270.8338 Q655.2686,270.8338 655.8623,270.5681 Q656.4561,270.2869 657.0811,269.7088 L657.0811,272.4275 Z " fill="#000000"/><text fill="#000000" font-family="sans-serif" font-size="14" lengthAdjust="spacing" textLength="117.8584" x="674.6123" y="271.6336">DTM_303_msg_2</text><line style="stroke:#181818;stroke-width:0.5;" x1="339.21" x2="1095.3731" y1="282.7869" y2="282.7869"/><text fill="#000000" font-family="sans-serif" font-size="14" lengthAdjust="spacing" textLength="161.793" x="344.21" y="299.782">Nachricht: ORDRSP 1.4</text><text fill="#000000" font-family="sans-serif" font-size="14" lengthAdjust="spacing" textLength="123.0605" x="344.21" y="316.0789">Kontext: Beispiel:</text><text fill="#000000" font-family="sans-serif" font-size="14" lengthAdjust="spacing" textLength="91.4033" x="344.21" y="332.3757">Pflichtfeld: Ja</text><text fill="#000000" font-family="sans-serif" font-size="14" lengthAdjust="spacing" textLength="261.8164" x="344.21" y="348.6726">Codes: 00, 06, 19, 203, 303, 42, DTM</text><text fill="#000000" font-family="sans-serif" font-size="14" lengthAdjust="spacing" textLength="283.9307" x="344.21" y="364.9695">Quelle: ORDRSP_MIG_1_4_20240619.pdf</text><line style="stroke:#181818;stroke-width:0.5;" x1="339.21" x2="1095.3731" y1="372.2713" y2="372.2713"/><text fill="#000000" font-family="sans-serif" font-size="14" lengthAdjust="spacing" textLength="746.1631" x="344.21" y="389.2664">Prozesse: Bestellung einer technischen Konfiguration (MSB), Sperrung und Entsperrung eines Anschlusses</text></g><!--class DTM_303_msg_3--><g class="entity" data-entity="DTM_303_msg_3" data-source-line="26" data-uid="ent0007" id="entity_DTM_303_msg_3"><rect fill="#F1F1F1" height="145.7813" rx="2.5" ry="2.5" style="stroke:#181818;stroke-width:0.5;" width="296.4365" x="1131.08" y="250.7869"/><ellipse cx="1216.1191" cy="266.7869" fill="#ADD1B2" rx="11" ry="11" style="stroke:#181818;stroke-width:1;"/><path d="M1219.0878,272.4275 Q1218.5097,272.7244 1217.8691,272.865 Q1217.2284,273.0213 1216.5253,273.0213 Q1214.0253,273.0213 1212.6972,271.3806 Q1211.3847,269.7244 1211.3847,266.5994 Q1211.3847,263.4744 1212.6972,261.8181 Q1214.0253,260.1619 1216.5253,260.1619 Q1217.2284,260.1619 1217.8691,260.3181 Q1218.5253,260.4744 1219.0878,260.7713 L1219.0878,263.49 Q1218.4628,262.9119 1217.8691,262.6463 Q1217.2753,262.365 1216.6503,262.365 Q1215.3066,262.365 1214.6191,263.4431 Q1213.9316,264.5056 1213.9316,266.5994 Q1213.9316,268.6931 1214.6191,269.7713 Q1215.3066,270.8338 1216.6503,270.8338 Q1217.2753,270.8338 1217.8691,270.5681 Q1218.4628,270.2869 1219.0878,269.7088 L1219.0878,272.4275 Z " fill="#000000"/><text fill="#000000" font-family="sans-serif" font-size="14" lengthAdjust="spacing" textLength="117.8584" x="1236.6191" y="271.6336">DTM_303_msg_3</text><line style="stroke:#181818;stroke-width:0.5;" x1="1132.08" x2="1426.5165" y1="282.7869" y2="282.7869"/><text fill="#000000" font-family="sans-serif" font-size="14" lengthAdjust="spacing" textLength="162.2988" x="1137.08" y="299.782">Nachricht: PRICAT 2.0d</text><text fill="#000000" font-family="sans-serif" font-size="14" lengthAdjust="spacing" textLength="123.0605" x="1137.08" y="316.0789">Kontext: Beispiel:</text><text fill="#000000" font-family="sans-serif" font-size="14" lengthAdjust="spacing" textLength="91.4033" x="1137.08" y="332.3757">Pflichtfeld: Ja</text><text fill="#000000" font-family="sans-serif" font-size="14" lengthAdjust="spacing" textLength="261.8164" x="1137.08" y="348.6726">Codes: 00, 06, 157, 19, 303, 35, DTM</text><text fill="#000000" font-family="sans-serif" font-size="14" lengthAdjust="spacing" textLength="251.4395" x="1137.08" y="364.9695">Prozesse: Netznutzungsabrechnung</text><text fill="#000000" font-family="sans-serif" font-size="14" lengthAdjust="spacing" textLength="284.4365" x="1137.08" y="381.2664">Quelle: PRICAT_MIG_2_0d_20240619.pdf</text><line style="stroke:#181818;stroke-width:0.5;" x1="1132.08" x2="1426.5165" y1="388.5681" y2="388.5681"/></g><!--class DTM_303_proc_1--><g class="entity" data-entity="DTM_303_proc_1" data-source-line="35" data-uid="ent0009" id="entity_DTM_303_proc_1"><rect fill="#F1F1F1" height="105.1563" rx="2.5" ry="2.5" style="stroke:#181818;stroke-width:0.5;" width="1301.9961" x="1462.3" y="271.0969"/><ellipse cx="2049.5754" cy="291.2297" fill="#ADD1B2" rx="11" ry="11" style="stroke:#181818;stroke-width:1;"/><path d="M2052.5441,296.8703 Q2051.966,297.1672 2051.3254,297.3078 Q2050.6848,297.4641 2049.9816,297.4641 Q2047.4816,297.4641 2046.1535,295.8234 Q2044.841,294.1672 2044.841,291.0422 Q2044.841,287.9172 2046.1535,286.2609 Q2047.4816,284.6047 2049.9816,284.6047 Q2050.6848,284.6047 2051.3254,284.7609 Q2051.9816,284.9172 2052.5441,285.2141 L2052.5441,287.9328 Q2051.9191,287.3547 2051.3254,287.0891 Q2050.7316,286.8078 2050.1066,286.8078 Q2048.7629,286.8078 2048.0754,287.8859 Q2047.3879,288.9484 2047.3879,291.0422 Q2047.3879,293.1359 2048.0754,294.2141 Q2048.7629,295.2766 2050.1066,295.2766 Q2050.7316,295.2766 2051.3254,295.0109 Q2051.9191,294.7297 2052.5441,294.1516 L2052.5441,296.8703 Z " fill="#000000"/><text fill="#000000" font-family="sans-serif" font-size="12" font-style="italic" lengthAdjust="spacing" textLength="61.0605" x="2099.0178" y="287.2355">&#171;process&#187;</text><text fill="#000000" font-family="sans-serif" font-size="14" lengthAdjust="spacing" textLength="118.9453" x="2070.0754" y="303.0607">DTM_303_proc_1</text><line style="stroke:#181818;stroke-width:0.5;" x1="1463.3" x2="2763.2961" y1="311.3625" y2="311.3625"/><text fill="#000000" font-family="sans-serif" font-size="14" lengthAdjust="spacing" textLength="156.4063" x="1468.3" y="328.3576">Gesetze: MsbG, EnWG</text><text fill="#000000" font-family="sans-serif" font-size="14" lengthAdjust="spacing" textLength="1289.9961" x="1468.3" y="344.6545">Zusammenfassung: Erl&#228;utere den Prozess zur Bestellung einer spezifischen technischen Konfiguration bei einem Messstellenbetreiber, beispielsweise f&#252;r ein intelligentes Messsystem.</text><line style="stroke:#181818;stroke-width:0.5;" x1="1463.3" x2="2763.2961" y1="351.9562" y2="351.9562"/><text fill="#000000" font-family="sans-serif" font-size="14" lengthAdjust="spacing" textLength="348.2021" x="1468.3" y="368.9514">Bestellung einer technischen Konfiguration (MSB)</text></g><!--class DTM_303_proc_2--><g class="entity" data-entity="DTM_303_proc_2" data-source-line="41" data-uid="ent0011" id="entity_DTM_303_proc_2"><rect fill="#F1F1F1" height="105.1563" rx="2.5" ry="2.5" style="stroke:#181818;stroke-width:0.5;" width="853.9893" x="2799.3" y="271.0969"/><ellipse cx="3162.572" cy="291.2297" fill="#ADD1B2" rx="11" ry="11" style="stroke:#181818;stroke-width:1;"/><path d="M3165.5407,296.8703 Q3164.9626,297.1672 3164.322,297.3078 Q3163.6813,297.4641 3162.9782,297.4641 Q3160.4782,297.4641 3159.1501,295.8234 Q3157.8376,294.1672 3157.8376,291.0422 Q3157.8376,287.9172 3159.1501,286.2609 Q3160.4782,284.6047 3162.9782,284.6047 Q3163.6813,284.6047 3164.322,284.7609 Q3164.9782,284.9172 3165.5407,285.2141 L3165.5407,287.9328 Q3164.9157,287.3547 3164.322,287.0891 Q3163.7282,286.8078 3163.1032,286.8078 Q3161.7595,286.8078 3161.072,287.8859 Q3160.3845,288.9484 3160.3845,291.0422 Q3160.3845,293.1359 3161.072,294.2141 Q3161.7595,295.2766 3163.1032,295.2766 Q3163.7282,295.2766 3164.322,295.0109 Q3164.9157,294.7297 3165.5407,294.1516 L3165.5407,296.8703 Z " fill="#000000"/><text fill="#000000" font-family="sans-serif" font-size="12" font-style="italic" lengthAdjust="spacing" textLength="61.0605" x="3212.0144" y="287.2355">&#171;process&#187;</text><text fill="#000000" font-family="sans-serif" font-size="14" lengthAdjust="spacing" textLength="118.9453" x="3183.072" y="303.0607">DTM_303_proc_2</text><line style="stroke:#181818;stroke-width:0.5;" x1="2800.3" x2="3652.2893" y1="311.3625" y2="311.3625"/><text fill="#000000" font-family="sans-serif" font-size="14" lengthAdjust="spacing" textLength="317.9668" x="2805.3" y="328.3576">Sperrung und Entsperrung eines Anschlusses</text><text fill="#000000" font-family="sans-serif" font-size="14" lengthAdjust="spacing" textLength="138.3252" x="2805.3" y="344.6545">Gesetze: StromGVV</text><text fill="#000000" font-family="sans-serif" font-size="14" lengthAdjust="spacing" textLength="841.9893" x="2805.3" y="360.9514">Zusammenfassung: Beschreibe den End-to-End-Prozess f&#252;r die Sperrung und Wiederherstellung eines Netzanschlusses.</text><line style="stroke:#181818;stroke-width:0.5;" x1="2800.3" x2="3652.2893" y1="368.2531" y2="368.2531"/></g><!--class DTM_303_proc_3--><g class="entity" data-entity="DTM_303_proc_3" data-source-line="47" data-uid="ent0013" id="entity_DTM_303_proc_3"><rect fill="#F1F1F1" height="105.1563" rx="2.5" ry="2.5" style="stroke:#181818;stroke-width:0.5;" width="752.6465" x="3687.97" y="271.0969"/><ellipse cx="4000.5706" cy="291.2297" fill="#ADD1B2" rx="11" ry="11" style="stroke:#181818;stroke-width:1;"/><path d="M4003.5393,296.8703 Q4002.9612,297.1672 4002.3206,297.3078 Q4001.68,297.4641 4000.9768,297.4641 Q3998.4768,297.4641 3997.1487,295.8234 Q3995.8362,294.1672 3995.8362,291.0422 Q3995.8362,287.9172 3997.1487,286.2609 Q3998.4768,284.6047 4000.9768,284.6047 Q4001.68,284.6047 4002.3206,284.7609 Q4002.9768,284.9172 4003.5393,285.2141 L4003.5393,287.9328 Q4002.9143,287.3547 4002.3206,287.0891 Q4001.7268,286.8078 4001.1018,286.8078 Q3999.7581,286.8078 3999.0706,287.8859 Q3998.3831,288.9484 3998.3831,291.0422 Q3998.3831,293.1359 3999.0706,294.2141 Q3999.7581,295.2766 4001.1018,295.2766 Q4001.7268,295.2766 4002.3206,295.0109 Q4002.9143,294.7297 4003.5393,294.1516 L4003.5393,296.8703 Z " fill="#000000"/><text fill="#000000" font-family="sans-serif" font-size="12" font-style="italic" lengthAdjust="spacing" textLength="61.0605" x="4050.013" y="287.2355">&#171;process&#187;</text><text fill="#000000" font-family="sans-serif" font-size="14" lengthAdjust="spacing" textLength="118.9453" x="4021.0706" y="303.0607">DTM_303_proc_3</text><line style="stroke:#181818;stroke-width:0.5;" x1="3688.97" x2="4439.6165" y1="311.3625" y2="311.3625"/><text fill="#000000" font-family="sans-serif" font-size="14" lengthAdjust="spacing" textLength="180.3457" x="3693.97" y="328.3576">Netznutzungsabrechnung</text><text fill="#000000" font-family="sans-serif" font-size="14" lengthAdjust="spacing" textLength="218.0938" x="3693.97" y="344.6545">Gesetze: StromNEV, StromNZV</text><text fill="#000000" font-family="sans-serif" font-size="14" lengthAdjust="spacing" textLength="740.6465" x="3693.97" y="360.9514">Zusammenfassung: Wie funktioniert die Netznutzungsabrechnung zwischen Netzbetreiber und Lieferant?</text><line style="stroke:#181818;stroke-width:0.5;" x1="3688.97" x2="4439.6165" y1="368.2531" y2="368.2531"/></g><!--link DTM_303 to DTM_303_msg_1--><g class="link" data-entity-1="DTM_303" data-entity-2="DTM_303_msg_1" data-source-line="16" data-uid="lnk4" id="link_DTM_303_DTM_303_msg_1"><path codeLine="16" d="M1508.89,111.0269 C1241.03,116.5069 735.21,141.9969 320.29,250.7869 C311.83,253.0069 308.9321,253.6995 300.3521,256.5595" fill="none" id="DTM_303-to-DTM_303_msg_1" style="stroke:#181818;stroke-width:1;"/><polygon fill="#181818" points="294.66,258.4569,304.4631,259.4056,299.4034,256.8757,301.9332,251.8161,294.66,258.4569" style="stroke:#181818;stroke-width:1;"/><text fill="#000000" font-family="sans-serif" font-size="13" lengthAdjust="spacing" textLength="85.2363" x="505.29" y="216.8538">verwendet in</text></g><!--link DTM_303 to DTM_303_msg_2--><g class="link" data-entity-1="DTM_303" data-entity-2="DTM_303_msg_2" data-source-line="25" data-uid="lnk6" id="link_DTM_303_DTM_303_msg_2"><path codeLine="25" d="M1508.98,150.7269 C1379.36,178.8769 1209.1733,215.8433 1056.0033,249.1133" fill="none" id="DTM_303-to-DTM_303_msg_2" style="stroke:#181818;stroke-width:1;"/><polygon fill="#181818" points="1050.14,250.3869,1059.784,252.3854,1055.0261,249.3256,1058.0859,244.5677,1050.14,250.3869" style="stroke:#181818;stroke-width:1;"/><text fill="#000000" font-family="sans-serif" font-size="13" lengthAdjust="spacing" textLength="85.2363" x="1237.29" y="216.8538">verwendet in</text></g><!--link DTM_303 to DTM_303_msg_3--><g class="link" data-entity-1="DTM_303" data-entity-2="DTM_303_msg_3" data-source-line="34" data-uid="lnk8" id="link_DTM_303_DTM_303_msg_3"><path codeLine="34" d="M1570.33,174.2769 C1523.22,198.2969 1474.7452,223.0113 1426.3052,247.7113" fill="none" id="DTM_303-to-DTM_303_msg_3" style="stroke:#181818;stroke-width:1;"/><polygon fill="#181818" points="1420.96,250.4369,1430.7949,249.912,1425.4143,248.1656,1427.1608,242.785,1420.96,250.4369" style="stroke:#181818;stroke-width:1;"/><text fill="#000000" font-family="sans-serif" font-size="13" lengthAdjust="spacing" textLength="85.2363" x="1502.29" y="216.8538">verwendet in</text></g><!--link DTM_303 to DTM_303_proc_1--><g class="link" data-entity-1="DTM_303" data-entity-2="DTM_303_proc_1" data-source-line="40" data-uid="lnk10" id="link_DTM_303_DTM_303_proc_1"><path codeLine="40" d="M1822.26,174.2769 C1882.8,205.1469 1949.065,238.9309 2006.105,268.0209" fill="none" id="DTM_303-to-DTM_303_proc_1" style="stroke:#181818;stroke-width:1;stroke-dasharray:7,7;"/><polygon fill="#181818" points="2011.45,270.7469,2005.2497,263.0946,2006.9958,268.4753,2001.6152,270.2213,2011.45,270.7469" style="stroke:#181818;stroke-width:1;"/><text fill="#000000" font-family="sans-serif" font-size="13" lengthAdjust="spacing" textLength="91.6221" x="1906.29" y="216.8538">eingebettet in</text></g><!--link DTM_303 to DTM_303_proc_2--><g class="link" data-entity-1="DTM_303" data-entity-2="DTM_303_proc_2" data-source-line="46" data-uid="lnk12" id="link_DTM_303_DTM_303_proc_2"><path codeLine="46" d="M1883.74,132.5569 C2100.21,158.9769 2466.92,205.0169 2781.29,250.7869 C2823.6,256.9469 2862.1827,262.8155 2906.0327,269.7055" fill="none" id="DTM_303-to-DTM_303_proc_2" style="stroke:#181818;stroke-width:1;stroke-dasharray:7,7;"/><polygon fill="#181818" points="2911.96,270.6369,2903.69,265.2884,2907.0206,269.8608,2902.4482,273.1914,2911.96,270.6369" style="stroke:#181818;stroke-width:1;"/><text fill="#000000" font-family="sans-serif" font-size="13" lengthAdjust="spacing" textLength="91.6221" x="2545.29" y="216.8538">eingebettet in</text></g><!--link DTM_303 to DTM_303_proc_3--><g class="link" data-entity-1="DTM_303" data-entity-2="DTM_303_proc_3" data-source-line="52" data-uid="lnk14" id="link_DTM_303_DTM_303_proc_3"><path codeLine="52" d="M1883.74,116.5769 C2235.24,130.3469 3016.9,168.1369 3670.29,250.7869 C3712.89,256.1769 3751.9459,262.135 3795.6659,269.615" fill="none" id="DTM_303-to-DTM_303_proc_3" style="stroke:#181818;stroke-width:1;stroke-dasharray:7,7;"/><polygon fill="#181818" points="3801.58,270.6269,3793.3835,265.1664,3796.6516,269.7837,3792.0343,273.0518,3801.58,270.6269" style="stroke:#181818;stroke-width:1;"/><text fill="#000000" font-family="sans-serif" font-size="13" lengthAdjust="spacing" textLength="91.6221" x="3404.29" y="216.8538">eingebettet in</text></g><!--SRC=[dPJBRjf058RtUOgpR2M3V26fOaLK411AKoY5Y4XiB8EFOLHxZ6R6fNNLj-bZT9SNwnbZat0ji1dFxLp-RtvGJ4K8BLyXzrNaIwX0wwdhEgPpDQMbr2kFLl3h2g3dn-Z269dA4exyEmevdJESf7n6ftsHP2WbkZG7ojD4gJ2Aw12GSHIWS3hdZ4AGmsF2GpPBXQzOmk5TTzXyNuGD5oY43afv06skPBdMIIGqE2M8KgeZYu0UgeodAgCxqfy8NKGtz7jJW1VBcMSLCgPpmQPpvKAZtnuq7i6kMemEg2c5FsYxYKmk64PQIZ-CzDqGey25Jpxjt2S1IXTCqm3pnW3B-K33hG5KXGRBq2NfsjUKr6DPm-i-T3pRivXdctRDlB5kguiWf2vBm9LAVQjN5uZm4dc02XZV8yVUblDbq1eC-s1LQvUh8I5sBaGFDRjKitxTiz_LEEz9IsmhBJasowkTIit-FpLdcrf_y73VU28JcC7bsAutJ72zY-s0JLy5hzeeV686fofsZYjUY6HANhgxqnFgf5xFvL_mu-oW90dKQ5TEEWQzutE7TiUfzECOUKX5APiBRH6z_4aL2eI0SXK084l5Rb4oGiR2ekhX3YR8ye0OkfGgpu5yWaeWcw0mz7d-Kd994uJmvQ_Gzmc6lifcI5-vYlr9qN7r3SvgjRxDojN1CwG2wY1HUuVeMIPVinmgaSITqMWVIS957jKQSv9j7bHKKj6V4cgkD62uMVoPOO1YJl_ERsdBt87-Qnj7ATWdKN1sA1nq-QRYNdja5BFnNksa0SAKVzFlpr2eNEN-v90j2zVeyxKjSXIV6OOeVAu-7XFhx8Zz1m00]--></g></svg>