<svg xmlns="http://www.w3.org/2000/svg" xmlns:xlink="http://www.w3.org/1999/xlink" contentStyleType="text/css" data-diagram-type="CLASS" height="370px" preserveAspectRatio="none" style="width:1484px;height:370px;background:#FFFFFF;" version="1.1" viewBox="0 0 1484 370" width="1484px" zoomAndPan="magnify"><title>Datenatlas - DTM:00018</title><defs/><g><g class="title" data-source-line="1"><text fill="#000000" font-family="sans-serif" font-size="14" font-weight="bold" lengthAdjust="spacing" textLength="190.9072" x="639.8046" y="22.9951">Datenatlas - DTM:00018</text></g><!--class DTM_00018--><g class="entity" data-entity="DTM_00018" data-source-line="2" data-uid="ent0002" id="entity_DTM_00018"><rect fill="#F1F1F1" height="96.8906" rx="2.5" ry="2.5" style="stroke:#181818;stroke-width:0.5;" width="251.8457" x="598.27" y="44.2969"/><ellipse cx="678.4692" cy="60.2969" fill="#ADD1B2" rx="11" ry="11" style="stroke:#181818;stroke-width:1;"/><path d="M681.438,65.9375 Q680.8598,66.2344 680.2192,66.375 Q679.5786,66.5313 678.8755,66.5313 Q676.3755,66.5313 675.0473,64.8906 Q673.7348,63.2344 673.7348,60.1094 Q673.7348,56.9844 675.0473,55.3281 Q676.3755,53.6719 678.8755,53.6719 Q679.5786,53.6719 680.2192,53.8281 Q680.8755,53.9844 681.438,54.2813 L681.438,57 Q680.813,56.4219 680.2192,56.1563 Q679.6255,55.875 679.0005,55.875 Q677.6567,55.875 676.9692,56.9531 Q676.2817,58.0156 676.2817,60.1094 Q676.2817,62.2031 676.9692,63.2813 Q677.6567,64.3438 679.0005,64.3438 Q679.6255,64.3438 680.2192,64.0781 Q680.813,63.7969 681.438,63.2188 L681.438,65.9375 Z " fill="#000000"/><text fill="#000000" font-family="sans-serif" font-size="14" lengthAdjust="spacing" textLength="82.9473" x="698.9692" y="65.1436">DTM_00018</text><line style="stroke:#181818;stroke-width:0.5;" x1="599.27" x2="849.1157" y1="76.2969" y2="76.2969"/><text fill="#000000" font-family="sans-serif" font-size="14" lengthAdjust="spacing" textLength="225.8457" x="618.27" y="93.292">Name: Ende des Ger&#228;te - Status</text><text fill="#000000" font-family="sans-serif" font-size="14" lengthAdjust="spacing" textLength="66.6436" x="618.27" y="109.5889">Prozesse:</text><rect fill="none" height="6" style="stroke:#C82930;stroke-width:1;" width="6" x="606.27" y="119.5391"/><text fill="#000000" font-family="sans-serif" font-size="14" lengthAdjust="spacing" textLength="180.3457" x="618.27" y="125.8857">Netznutzungsabrechnung</text><line style="stroke:#181818;stroke-width:0.5;" x1="599.27" x2="849.1157" y1="133.1875" y2="133.1875"/></g><!--class DTM_00018_msg_1--><g class="entity" data-entity="DTM_00018_msg_1" data-source-line="7" data-uid="ent0003" id="entity_DTM_00018_msg_1"><rect fill="#F1F1F1" height="145.7813" rx="2.5" ry="2.5" style="stroke:#181818;stroke-width:0.5;" width="682.3936" x="7" y="218.1869"/><ellipse cx="276.1104" cy="234.1869" fill="#ADD1B2" rx="11" ry="11" style="stroke:#181818;stroke-width:1;"/><path d="M279.0791,239.8275 Q278.501,240.1244 277.8604,240.265 Q277.2197,240.4213 276.5166,240.4213 Q274.0166,240.4213 272.6885,238.7806 Q271.376,237.1244 271.376,233.9994 Q271.376,230.8744 272.6885,229.2181 Q274.0166,227.5619 276.5166,227.5619 Q277.2197,227.5619 277.8604,227.7181 Q278.5166,227.8744 279.0791,228.1713 L279.0791,230.89 Q278.4541,230.3119 277.8604,230.0463 Q277.2666,229.765 276.6416,229.765 Q275.2979,229.765 274.6104,230.8431 Q273.9229,231.9056 273.9229,233.9994 Q273.9229,236.0931 274.6104,237.1713 Q275.2979,238.2338 276.6416,238.2338 Q277.2666,238.2338 277.8604,237.9681 Q278.4541,237.6869 279.0791,237.1088 L279.0791,239.8275 Z " fill="#000000"/><text fill="#000000" font-family="sans-serif" font-size="14" lengthAdjust="spacing" textLength="135.6729" x="296.6104" y="239.0336">DTM_00018_msg_1</text><line style="stroke:#181818;stroke-width:0.5;" x1="8" x2="688.3936" y1="250.1869" y2="250.1869"/><text fill="#000000" font-family="sans-serif" font-size="14" lengthAdjust="spacing" textLength="161.998" x="13" y="267.182">Nachricht: INSRPT 1.1a</text><text fill="#000000" font-family="sans-serif" font-size="14" lengthAdjust="spacing" textLength="670.3936" x="13" y="283.4789">Kontext: 0200   SG7   C   R   999   999   2   LIN - DTM - DTM - DTM - DTM - STS - STS - FTX - SG8</text><text fill="#000000" font-family="sans-serif" font-size="14" lengthAdjust="spacing" textLength="110.5439" x="13" y="299.7757">Pflichtfeld: Nein</text><text fill="#000000" font-family="sans-serif" font-size="14" lengthAdjust="spacing" textLength="110.4277" x="13" y="316.0726">Codes: 99, DTM</text><text fill="#000000" font-family="sans-serif" font-size="14" lengthAdjust="spacing" textLength="251.4395" x="13" y="332.3695">Prozesse: Netznutzungsabrechnung</text><text fill="#000000" font-family="sans-serif" font-size="14" lengthAdjust="spacing" textLength="410.9219" x="13" y="348.6664">Quelle: INSRPT_MIG_1_1a_au&#223;erordentliche_20240726.pdf</text><line style="stroke:#181818;stroke-width:0.5;" x1="8" x2="688.3936" y1="355.9681" y2="355.9681"/></g><!--class DTM_00018_proc_1--><g class="entity" data-entity="DTM_00018_proc_1" data-source-line="16" data-uid="ent0005" id="entity_DTM_00018_proc_1"><rect fill="#F1F1F1" height="105.1563" rx="2.5" ry="2.5" style="stroke:#181818;stroke-width:0.5;" width="752.6465" x="724.87" y="238.4969"/><ellipse cx="1028.5634" cy="258.6297" fill="#ADD1B2" rx="11" ry="11" style="stroke:#181818;stroke-width:1;"/><path d="M1031.5321,264.2703 Q1030.954,264.5672 1030.3134,264.7078 Q1029.6727,264.8641 1028.9696,264.8641 Q1026.4696,264.8641 1025.1415,263.2234 Q1023.829,261.5672 1023.829,258.4422 Q1023.829,255.3172 1025.1415,253.6609 Q1026.4696,252.0047 1028.9696,252.0047 Q1029.6727,252.0047 1030.3134,252.1609 Q1030.9696,252.3172 1031.5321,252.6141 L1031.5321,255.3328 Q1030.9071,254.7547 1030.3134,254.4891 Q1029.7196,254.2078 1029.0946,254.2078 Q1027.7509,254.2078 1027.0634,255.2859 Q1026.3759,256.3484 1026.3759,258.4422 Q1026.3759,260.5359 1027.0634,261.6141 Q1027.7509,262.6766 1029.0946,262.6766 Q1029.7196,262.6766 1030.3134,262.4109 Q1030.9071,262.1297 1031.5321,261.5516 L1031.5321,264.2703 Z " fill="#000000"/><text fill="#000000" font-family="sans-serif" font-size="12" font-style="italic" lengthAdjust="spacing" textLength="61.0605" x="1086.913" y="254.6355">&#171;process&#187;</text><text fill="#000000" font-family="sans-serif" font-size="14" lengthAdjust="spacing" textLength="136.7598" x="1049.0634" y="270.4607">DTM_00018_proc_1</text><line style="stroke:#181818;stroke-width:0.5;" x1="725.87" x2="1476.5165" y1="278.7625" y2="278.7625"/><text fill="#000000" font-family="sans-serif" font-size="14" lengthAdjust="spacing" textLength="180.3457" x="730.87" y="295.7576">Netznutzungsabrechnung</text><text fill="#000000" font-family="sans-serif" font-size="14" lengthAdjust="spacing" textLength="218.0938" x="730.87" y="312.0545">Gesetze: StromNEV, StromNZV</text><text fill="#000000" font-family="sans-serif" font-size="14" lengthAdjust="spacing" textLength="740.6465" x="730.87" y="328.3514">Zusammenfassung: Wie funktioniert die Netznutzungsabrechnung zwischen Netzbetreiber und Lieferant?</text><line style="stroke:#181818;stroke-width:0.5;" x1="725.87" x2="1476.5165" y1="335.6531" y2="335.6531"/></g><!--link DTM_00018 to DTM_00018_msg_1--><g class="link" data-entity-1="DTM_00018" data-entity-2="DTM_00018_msg_1" data-source-line="15" data-uid="lnk4" id="link_DTM_00018_DTM_00018_msg_1"><path codeLine="15" d="M632.7,141.5169 C588.79,164.4469 540.5586,189.6297 491.8186,215.0797" fill="none" id="DTM_00018-to-DTM_00018_msg_1" style="stroke:#181818;stroke-width:1;"/><polygon fill="#181818" points="486.5,217.8569,496.3293,217.2369,490.9322,215.5426,492.6265,210.1454,486.5,217.8569" style="stroke:#181818;stroke-width:1;"/><text fill="#000000" font-family="sans-serif" font-size="13" lengthAdjust="spacing" textLength="85.2363" x="571.2" y="184.2538">verwendet in</text></g><!--link DTM_00018 to DTM_00018_proc_1--><g class="link" data-entity-1="DTM_00018" data-entity-2="DTM_00018_proc_1" data-source-line="21" data-uid="lnk6" id="link_DTM_00018_DTM_00018_proc_1"><path codeLine="21" d="M815.94,141.5169 C872.06,170.7469 938.5688,205.3748 996.0988,235.3448" fill="none" id="DTM_00018-to-DTM_00018_proc_1" style="stroke:#181818;stroke-width:1;stroke-dasharray:7,7;"/><polygon fill="#181818" points="1001.42,238.1169,995.2862,230.4113,996.9856,235.8068,991.5901,237.5063,1001.42,238.1169" style="stroke:#181818;stroke-width:1;"/><text fill="#000000" font-family="sans-serif" font-size="13" lengthAdjust="spacing" textLength="91.6221" x="903.2" y="184.2538">eingebettet in</text></g><!--SRC=[TL5BJiCm4Dtt57C06YKH0cgXiA0bgYWHa0eG6yjD9gr5ubJs150HPs73JNen9kNVps96p_DzRqoQIeI-8ZIAIkMW2_tnXV1zFpZgP1nmxLkktl3I0KXKXG869aV8qK6CTlbEo6qfAMeSLrpQUe7EeM0Cd4YG5gQXHMEcJaqiPZF3iFEwFbvMRYg3hoNPpEfiHWA6INfzEOR02nGdpcj3-CnXF_Hzdfx6X-nFsQxPUhtUZm_PHiFaKyzMduxJ7tyslcjnVDJoByfsTO5bBfYyDXmxhLciuD5xRVDVaRla0LmrM9RuhK1U36CPo419rIpVqDOsHqFj9fIX7-xxX-61DyyBlillmRlTQEC-0XxHFY5_005pMp_YtDOPLnqVju0PHj7dHNUnZD5nYcccPEig6TpiVQ7x6yxUDqvL5Pg2bt2zW5kDK3JcWNHjD5g2d0FRXyFYIJkMPrRv2P95FK4BZSbXfB50gmoT_DFhUT6c507y1rFa0RII_040]--></g></svg>