<svg xmlns="http://www.w3.org/2000/svg" xmlns:xlink="http://www.w3.org/1999/xlink" contentStyleType="text/css" data-diagram-type="CLASS" height="370px" preserveAspectRatio="none" style="width:1098px;height:370px;background:#FFFFFF;" version="1.1" viewBox="0 0 1098 370" width="1098px" zoomAndPan="magnify"><title>Datenatlas - DTM:157</title><defs/><g><g class="title" data-source-line="1"><text fill="#000000" font-family="sans-serif" font-size="14" font-weight="bold" lengthAdjust="spacing" textLength="171.4248" x="456.5608" y="22.9951">Datenatlas - DTM:157</text></g><!--class DTM_157--><g class="entity" data-entity="DTM_157" data-source-line="2" data-uid="ent0002" id="entity_DTM_157"><rect fill="#F1F1F1" height="96.8906" rx="2.5" ry="2.5" style="stroke:#181818;stroke-width:0.5;" width="247.9082" x="311.26" y="44.2969"/><ellipse cx="398.3977" cy="60.2969" fill="#ADD1B2" rx="11" ry="11" style="stroke:#181818;stroke-width:1;"/><path d="M401.3664,65.9375 Q400.7883,66.2344 400.1477,66.375 Q399.5071,66.5313 398.8039,66.5313 Q396.3039,66.5313 394.9758,64.8906 Q393.6633,63.2344 393.6633,60.1094 Q393.6633,56.9844 394.9758,55.3281 Q396.3039,53.6719 398.8039,53.6719 Q399.5071,53.6719 400.1477,53.8281 Q400.8039,53.9844 401.3664,54.2813 L401.3664,57 Q400.7414,56.4219 400.1477,56.1563 Q399.5539,55.875 398.9289,55.875 Q397.5852,55.875 396.8977,56.9531 Q396.2102,58.0156 396.2102,60.1094 Q396.2102,62.2031 396.8977,63.2813 Q397.5852,64.3438 398.9289,64.3438 Q399.5539,64.3438 400.1477,64.0781 Q400.7414,63.7969 401.3664,63.2188 L401.3664,65.9375 Z " fill="#000000"/><text fill="#000000" font-family="sans-serif" font-size="14" lengthAdjust="spacing" textLength="65.1328" x="418.8977" y="65.1436">DTM_157</text><line style="stroke:#181818;stroke-width:0.5;" x1="312.26" x2="558.1682" y1="76.2969" y2="76.2969"/><text fill="#000000" font-family="sans-serif" font-size="14" lengthAdjust="spacing" textLength="221.9082" x="331.26" y="93.292">Name: Datum/Uhrzeit/Zeitraum</text><text fill="#000000" font-family="sans-serif" font-size="14" lengthAdjust="spacing" textLength="66.6436" x="331.26" y="109.5889">Prozesse:</text><rect fill="none" height="6" style="stroke:#C82930;stroke-width:1;" width="6" x="319.26" y="119.5391"/><text fill="#000000" font-family="sans-serif" font-size="14" lengthAdjust="spacing" textLength="180.3457" x="331.26" y="125.8857">Netznutzungsabrechnung</text><line style="stroke:#181818;stroke-width:0.5;" x1="312.26" x2="558.1682" y1="133.1875" y2="133.1875"/></g><!--class DTM_157_msg_1--><g class="entity" data-entity="DTM_157_msg_1" data-source-line="7" data-uid="ent0003" id="entity_DTM_157_msg_1"><rect fill="#F1F1F1" height="145.7813" rx="2.5" ry="2.5" style="stroke:#181818;stroke-width:0.5;" width="296.4365" x="7" y="218.1869"/><ellipse cx="92.0391" cy="234.1869" fill="#ADD1B2" rx="11" ry="11" style="stroke:#181818;stroke-width:1;"/><path d="M95.0078,239.8275 Q94.4297,240.1244 93.7891,240.265 Q93.1484,240.4213 92.4453,240.4213 Q89.9453,240.4213 88.6172,238.7806 Q87.3047,237.1244 87.3047,233.9994 Q87.3047,230.8744 88.6172,229.2181 Q89.9453,227.5619 92.4453,227.5619 Q93.1484,227.5619 93.7891,227.7181 Q94.4453,227.8744 95.0078,228.1713 L95.0078,230.89 Q94.3828,230.3119 93.7891,230.0463 Q93.1953,229.765 92.5703,229.765 Q91.2266,229.765 90.5391,230.8431 Q89.8516,231.9056 89.8516,233.9994 Q89.8516,236.0931 90.5391,237.1713 Q91.2266,238.2338 92.5703,238.2338 Q93.1953,238.2338 93.7891,237.9681 Q94.3828,237.6869 95.0078,237.1088 L95.0078,239.8275 Z " fill="#000000"/><text fill="#000000" font-family="sans-serif" font-size="14" lengthAdjust="spacing" textLength="117.8584" x="112.5391" y="239.0336">DTM_157_msg_1</text><line style="stroke:#181818;stroke-width:0.5;" x1="8" x2="302.4365" y1="250.1869" y2="250.1869"/><text fill="#000000" font-family="sans-serif" font-size="14" lengthAdjust="spacing" textLength="162.2988" x="13" y="267.182">Nachricht: PRICAT 2.0d</text><text fill="#000000" font-family="sans-serif" font-size="14" lengthAdjust="spacing" textLength="123.0605" x="13" y="283.4789">Kontext: Beispiel:</text><text fill="#000000" font-family="sans-serif" font-size="14" lengthAdjust="spacing" textLength="91.4033" x="13" y="299.7757">Pflichtfeld: Ja</text><text fill="#000000" font-family="sans-serif" font-size="14" lengthAdjust="spacing" textLength="261.8164" x="13" y="316.0726">Codes: 00, 06, 157, 19, 303, 35, DTM</text><text fill="#000000" font-family="sans-serif" font-size="14" lengthAdjust="spacing" textLength="251.4395" x="13" y="332.3695">Prozesse: Netznutzungsabrechnung</text><text fill="#000000" font-family="sans-serif" font-size="14" lengthAdjust="spacing" textLength="284.4365" x="13" y="348.6664">Quelle: PRICAT_MIG_2_0d_20240619.pdf</text><line style="stroke:#181818;stroke-width:0.5;" x1="8" x2="302.4365" y1="355.9681" y2="355.9681"/></g><!--class DTM_157_proc_1--><g class="entity" data-entity="DTM_157_proc_1" data-source-line="16" data-uid="ent0005" id="entity_DTM_157_proc_1"><rect fill="#F1F1F1" height="105.1563" rx="2.5" ry="2.5" style="stroke:#181818;stroke-width:0.5;" width="752.6465" x="338.9" y="238.4969"/><ellipse cx="651.5006" cy="258.6297" fill="#ADD1B2" rx="11" ry="11" style="stroke:#181818;stroke-width:1;"/><path d="M654.4693,264.2703 Q653.8912,264.5672 653.2506,264.7078 Q652.61,264.8641 651.9068,264.8641 Q649.4068,264.8641 648.0787,263.2234 Q646.7662,261.5672 646.7662,258.4422 Q646.7662,255.3172 648.0787,253.6609 Q649.4068,252.0047 651.9068,252.0047 Q652.61,252.0047 653.2506,252.1609 Q653.9068,252.3172 654.4693,252.6141 L654.4693,255.3328 Q653.8443,254.7547 653.2506,254.4891 Q652.6568,254.2078 652.0318,254.2078 Q650.6881,254.2078 650.0006,255.2859 Q649.3131,256.3484 649.3131,258.4422 Q649.3131,260.5359 650.0006,261.6141 Q650.6881,262.6766 652.0318,262.6766 Q652.6568,262.6766 653.2506,262.4109 Q653.8443,262.1297 654.4693,261.5516 L654.4693,264.2703 Z " fill="#000000"/><text fill="#000000" font-family="sans-serif" font-size="12" font-style="italic" lengthAdjust="spacing" textLength="61.0605" x="700.943" y="254.6355">&#171;process&#187;</text><text fill="#000000" font-family="sans-serif" font-size="14" lengthAdjust="spacing" textLength="118.9453" x="672.0006" y="270.4607">DTM_157_proc_1</text><line style="stroke:#181818;stroke-width:0.5;" x1="339.9" x2="1090.5465" y1="278.7625" y2="278.7625"/><text fill="#000000" font-family="sans-serif" font-size="14" lengthAdjust="spacing" textLength="180.3457" x="344.9" y="295.7576">Netznutzungsabrechnung</text><text fill="#000000" font-family="sans-serif" font-size="14" lengthAdjust="spacing" textLength="218.0938" x="344.9" y="312.0545">Gesetze: StromNEV, StromNZV</text><text fill="#000000" font-family="sans-serif" font-size="14" lengthAdjust="spacing" textLength="740.6465" x="344.9" y="328.3514">Zusammenfassung: Wie funktioniert die Netznutzungsabrechnung zwischen Netzbetreiber und Lieferant?</text><line style="stroke:#181818;stroke-width:0.5;" x1="339.9" x2="1090.5465" y1="335.6531" y2="335.6531"/></g><!--link DTM_157 to DTM_157_msg_1--><g class="link" data-entity-1="DTM_157" data-entity-2="DTM_157_msg_1" data-source-line="15" data-uid="lnk4" id="link_DTM_157_DTM_157_msg_1"><path codeLine="15" d="M367.08,141.5169 C334.38,164.4469 299.4228,188.9625 263.1228,214.4125" fill="none" id="DTM_157-to-DTM_157_msg_1" style="stroke:#181818;stroke-width:1;"/><polygon fill="#181818" points="258.21,217.8569,267.8755,215.9655,262.304,214.9865,263.283,209.415,258.21,217.8569" style="stroke:#181818;stroke-width:1;"/><text fill="#000000" font-family="sans-serif" font-size="13" lengthAdjust="spacing" textLength="85.2363" x="322.22" y="184.2538">verwendet in</text></g><!--link DTM_157 to DTM_157_proc_1--><g class="link" data-entity-1="DTM_157" data-entity-2="DTM_157_proc_1" data-source-line="21" data-uid="lnk6" id="link_DTM_157_DTM_157_proc_1"><path codeLine="21" d="M503.36,141.5169 C545.12,170.8069 593.6774,204.8522 636.4474,234.8422" fill="none" id="DTM_157-to-DTM_157_proc_1" style="stroke:#181818;stroke-width:1;stroke-dasharray:7,7;"/><polygon fill="#181818" points="641.36,238.2869,636.2875,229.8447,637.2661,235.4163,631.6946,236.3949,641.36,238.2869" style="stroke:#181818;stroke-width:1;"/><text fill="#000000" font-family="sans-serif" font-size="13" lengthAdjust="spacing" textLength="91.6221" x="568.22" y="184.2538">eingebettet in</text></g><!--SRC=[TL1TJy9047pdL-mFAEKeWl52QXGCGOMW8YQyD4UxfHVRAxaFCJN-TxS82H9vsSpkxCtEd9KsHnWAYqhON1Xemd0-uUtkPIEcrjHTH1ryDG2cea1UBxkYzPhf2gLjBQbeuGgYPxgiq1ZaX864fcWhvMpbrDg8bSOuKmGRtt-LeyAie_PUFywqZ3FBOVOy7jpC8V1PGiH3gIn-qlWMfTb8pEiJipIlTrFC4mxtWYQ3Ca73WJ4FMCy34gTovK67TQXqlVhaiSzp3W6U7EOv7cn4a_4e2YAMH04BBbYlVULlafI273wdsGnFud3uGBr5bQ05gKuIRtGPqqw_NmDo4eQ_yS-v6Q4XYkoyM5qMqxk5jqVB1R5BPqHHe4hf1ErpU9C8gLFlLfPAehQGqE1_SQYsqiGPgXs_GgjHhb23KmayIanH2sMlZvBwVdWQWmDAjKPwR7TXVm00]--></g></svg>