<svg xmlns="http://www.w3.org/2000/svg" xmlns:xlink="http://www.w3.org/1999/xlink" contentStyleType="text/css" data-diagram-type="CLASS" height="370px" preserveAspectRatio="none" style="width:1098px;height:370px;background:#FFFFFF;" version="1.1" viewBox="0 0 1098 370" width="1098px" zoomAndPan="magnify"><title>Datenatlas - DTM:201105</title><defs/><g><g class="title" data-source-line="1"><text fill="#000000" font-family="sans-serif" font-size="14" font-weight="bold" lengthAdjust="spacing" textLength="200.6484" x="441.949" y="22.9951">Datenatlas - DTM:201105</text></g><!--class DTM_201105--><g class="entity" data-entity="DTM_201105" data-source-line="2" data-uid="ent0002" id="entity_DTM_201105"><rect fill="#F1F1F1" height="96.8906" rx="2.5" ry="2.5" style="stroke:#181818;stroke-width:0.5;" width="206.3457" x="332.05" y="44.2969"/><ellipse cx="385.0456" cy="60.2969" fill="#ADD1B2" rx="11" ry="11" style="stroke:#181818;stroke-width:1;"/><path d="M388.0144,65.9375 Q387.4362,66.2344 386.7956,66.375 Q386.155,66.5313 385.4519,66.5313 Q382.9519,66.5313 381.6237,64.8906 Q380.3112,63.2344 380.3112,60.1094 Q380.3112,56.9844 381.6237,55.3281 Q382.9519,53.6719 385.4519,53.6719 Q386.155,53.6719 386.7956,53.8281 Q387.4519,53.9844 388.0144,54.2813 L388.0144,57 Q387.3894,56.4219 386.7956,56.1563 Q386.2019,55.875 385.5769,55.875 Q384.2331,55.875 383.5456,56.9531 Q382.8581,58.0156 382.8581,60.1094 Q382.8581,62.2031 383.5456,63.2813 Q384.2331,64.3438 385.5769,64.3438 Q386.2019,64.3438 386.7956,64.0781 Q387.3894,63.7969 388.0144,63.2188 L388.0144,65.9375 Z " fill="#000000"/><text fill="#000000" font-family="sans-serif" font-size="14" lengthAdjust="spacing" textLength="91.8545" x="405.5456" y="65.1436">DTM_201105</text><line style="stroke:#181818;stroke-width:0.5;" x1="333.05" x2="537.3957" y1="76.2969" y2="76.2969"/><text fill="#000000" font-family="sans-serif" font-size="14" lengthAdjust="spacing" textLength="158.0059" x="352.05" y="93.292">Name: Kalendermonat</text><text fill="#000000" font-family="sans-serif" font-size="14" lengthAdjust="spacing" textLength="66.6436" x="352.05" y="109.5889">Prozesse:</text><rect fill="none" height="6" style="stroke:#C82930;stroke-width:1;" width="6" x="340.05" y="119.5391"/><text fill="#000000" font-family="sans-serif" font-size="14" lengthAdjust="spacing" textLength="180.3457" x="352.05" y="125.8857">Netznutzungsabrechnung</text><line style="stroke:#181818;stroke-width:0.5;" x1="333.05" x2="537.3957" y1="133.1875" y2="133.1875"/></g><!--class DTM_201105_msg_1--><g class="entity" data-entity="DTM_201105_msg_1" data-source-line="7" data-uid="ent0003" id="entity_DTM_201105_msg_1"><rect fill="#F1F1F1" height="145.7813" rx="2.5" ry="2.5" style="stroke:#181818;stroke-width:0.5;" width="296.4365" x="7" y="218.1869"/><ellipse cx="78.6782" cy="234.1869" fill="#ADD1B2" rx="11" ry="11" style="stroke:#181818;stroke-width:1;"/><path d="M81.647,239.8275 Q81.0688,240.1244 80.4282,240.265 Q79.7876,240.4213 79.0845,240.4213 Q76.5845,240.4213 75.2563,238.7806 Q73.9438,237.1244 73.9438,233.9994 Q73.9438,230.8744 75.2563,229.2181 Q76.5845,227.5619 79.0845,227.5619 Q79.7876,227.5619 80.4282,227.7181 Q81.0845,227.8744 81.647,228.1713 L81.647,230.89 Q81.022,230.3119 80.4282,230.0463 Q79.8345,229.765 79.2095,229.765 Q77.8657,229.765 77.1782,230.8431 Q76.4907,231.9056 76.4907,233.9994 Q76.4907,236.0931 77.1782,237.1713 Q77.8657,238.2338 79.2095,238.2338 Q79.8345,238.2338 80.4282,237.9681 Q81.022,237.6869 81.647,237.1088 L81.647,239.8275 Z " fill="#000000"/><text fill="#000000" font-family="sans-serif" font-size="14" lengthAdjust="spacing" textLength="144.5801" x="99.1782" y="239.0336">DTM_201105_msg_1</text><line style="stroke:#181818;stroke-width:0.5;" x1="8" x2="302.4365" y1="250.1869" y2="250.1869"/><text fill="#000000" font-family="sans-serif" font-size="14" lengthAdjust="spacing" textLength="162.2988" x="13" y="267.182">Nachricht: PRICAT 2.0d</text><text fill="#000000" font-family="sans-serif" font-size="14" lengthAdjust="spacing" textLength="123.0605" x="13" y="283.4789">Kontext: Beispiel:</text><text fill="#000000" font-family="sans-serif" font-size="14" lengthAdjust="spacing" textLength="91.4033" x="13" y="299.7757">Pflichtfeld: Ja</text><text fill="#000000" font-family="sans-serif" font-size="14" lengthAdjust="spacing" textLength="235.1016" x="13" y="316.0726">Codes: 06, 19, 35, 492, 610, DTM</text><text fill="#000000" font-family="sans-serif" font-size="14" lengthAdjust="spacing" textLength="251.4395" x="13" y="332.3695">Prozesse: Netznutzungsabrechnung</text><text fill="#000000" font-family="sans-serif" font-size="14" lengthAdjust="spacing" textLength="284.4365" x="13" y="348.6664">Quelle: PRICAT_MIG_2_0d_20240619.pdf</text><line style="stroke:#181818;stroke-width:0.5;" x1="8" x2="302.4365" y1="355.9681" y2="355.9681"/></g><!--class DTM_201105_proc_1--><g class="entity" data-entity="DTM_201105_proc_1" data-source-line="16" data-uid="ent0005" id="entity_DTM_201105_proc_1"><rect fill="#F1F1F1" height="105.1563" rx="2.5" ry="2.5" style="stroke:#181818;stroke-width:0.5;" width="752.6465" x="338.9" y="238.4969"/><ellipse cx="638.1397" cy="258.6297" fill="#ADD1B2" rx="11" ry="11" style="stroke:#181818;stroke-width:1;"/><path d="M641.1085,264.2703 Q640.5304,264.5672 639.8897,264.7078 Q639.2491,264.8641 638.546,264.8641 Q636.046,264.8641 634.7179,263.2234 Q633.4054,261.5672 633.4054,258.4422 Q633.4054,255.3172 634.7179,253.6609 Q636.046,252.0047 638.546,252.0047 Q639.2491,252.0047 639.8897,252.1609 Q640.546,252.3172 641.1085,252.6141 L641.1085,255.3328 Q640.4835,254.7547 639.8897,254.4891 Q639.296,254.2078 638.671,254.2078 Q637.3272,254.2078 636.6397,255.2859 Q635.9522,256.3484 635.9522,258.4422 Q635.9522,260.5359 636.6397,261.6141 Q637.3272,262.6766 638.671,262.6766 Q639.296,262.6766 639.8897,262.4109 Q640.4835,262.1297 641.1085,261.5516 L641.1085,264.2703 Z " fill="#000000"/><text fill="#000000" font-family="sans-serif" font-size="12" font-style="italic" lengthAdjust="spacing" textLength="61.0605" x="700.943" y="254.6355">&#171;process&#187;</text><text fill="#000000" font-family="sans-serif" font-size="14" lengthAdjust="spacing" textLength="145.667" x="658.6397" y="270.4607">DTM_201105_proc_1</text><line style="stroke:#181818;stroke-width:0.5;" x1="339.9" x2="1090.5465" y1="278.7625" y2="278.7625"/><text fill="#000000" font-family="sans-serif" font-size="14" lengthAdjust="spacing" textLength="180.3457" x="344.9" y="295.7576">Netznutzungsabrechnung</text><text fill="#000000" font-family="sans-serif" font-size="14" lengthAdjust="spacing" textLength="218.0938" x="344.9" y="312.0545">Gesetze: StromNEV, StromNZV</text><text fill="#000000" font-family="sans-serif" font-size="14" lengthAdjust="spacing" textLength="740.6465" x="344.9" y="328.3514">Zusammenfassung: Wie funktioniert die Netznutzungsabrechnung zwischen Netzbetreiber und Lieferant?</text><line style="stroke:#181818;stroke-width:0.5;" x1="339.9" x2="1090.5465" y1="335.6531" y2="335.6531"/></g><!--link DTM_201105 to DTM_201105_msg_1--><g class="link" data-entity-1="DTM_201105" data-entity-2="DTM_201105_msg_1" data-source-line="15" data-uid="lnk4" id="link_DTM_201105_DTM_201105_msg_1"><path codeLine="15" d="M367.08,141.5169 C334.38,164.4469 299.4228,188.9625 263.1228,214.4125" fill="none" id="DTM_201105-to-DTM_201105_msg_1" style="stroke:#181818;stroke-width:1;"/><polygon fill="#181818" points="258.21,217.8569,267.8755,215.9655,262.304,214.9865,263.283,209.415,258.21,217.8569" style="stroke:#181818;stroke-width:1;"/><text fill="#000000" font-family="sans-serif" font-size="13" lengthAdjust="spacing" textLength="85.2363" x="322.22" y="184.2538">verwendet in</text></g><!--link DTM_201105 to DTM_201105_proc_1--><g class="link" data-entity-1="DTM_201105" data-entity-2="DTM_201105_proc_1" data-source-line="21" data-uid="lnk6" id="link_DTM_201105_DTM_201105_proc_1"><path codeLine="21" d="M503.36,141.5169 C545.12,170.8069 593.6774,204.8522 636.4474,234.8422" fill="none" id="DTM_201105-to-DTM_201105_proc_1" style="stroke:#181818;stroke-width:1;stroke-dasharray:7,7;"/><polygon fill="#181818" points="641.36,238.2869,636.2875,229.8447,637.2661,235.4163,631.6946,236.3949,641.36,238.2869" style="stroke:#181818;stroke-width:1;"/><text fill="#000000" font-family="sans-serif" font-size="13" lengthAdjust="spacing" textLength="91.6221" x="568.22" y="184.2538">eingebettet in</text></g><!--SRC=[TL3HQi9047ptA_O3OaXI5JmafTKYrYgs5Gk-X3EtCKSl5xcxr9BIV-z6BLYiRyFCxkpCEkaKmeWxrDmfRg4De-MCHK4O1jrMIenjYEH8m5SBOCuBP33b2hL0KvIqIEp2b3LQYummaCiSNQqhLrTwQ_d6O9fhWgtl2y-aiDiaF3cdkP5fxXWiNYR3koL4VY18c9RQuIVHzoZjJg9ghYmorSncg0I3HqxCi1He6GGz3yA-1pTT3phzo8DU67ZDnVEOrm82F5Ue5Fv6I6QJSH8bWQ2uKIVeXNr_9pBgSVQLTZk-BCJW0ys- -P43gIzhxqoPqjXWq02A5CV77roBDKPB4kLwTQOivWyhxuJMArBNbUL5WJgZApJFu4qYP9L-TxBK4eq3GSJ_vb3lfKrpr0TzWywWtA21IWjuafYXuThT_gti-_4_PHYWr5ia2tTe_GC0]--></g></svg>