<svg xmlns="http://www.w3.org/2000/svg" xmlns:xlink="http://www.w3.org/1999/xlink" contentStyleType="text/css" data-diagram-type="CLASS" height="370px" preserveAspectRatio="none" style="width:860px;height:370px;background:#FFFFFF;" version="1.1" viewBox="0 0 860 370" width="860px" zoomAndPan="magnify"><title>Datenatlas - DTM:00031</title><defs/><g><g class="title" data-source-line="1"><text fill="#000000" font-family="sans-serif" font-size="14" font-weight="bold" lengthAdjust="spacing" textLength="190.9072" x="327.8406" y="22.9951">Datenatlas - DTM:00031</text></g><!--class DTM_00031--><g class="entity" data-entity="DTM_00031" data-source-line="2" data-uid="ent0002" id="entity_DTM_00031"><rect fill="#F1F1F1" height="96.8906" rx="2.5" ry="2.5" style="stroke:#181818;stroke-width:0.5;" width="360.3525" x="263.3" y="44.2969"/><ellipse cx="397.7526" cy="60.2969" fill="#ADD1B2" rx="11" ry="11" style="stroke:#181818;stroke-width:1;"/><path d="M400.7214,65.9375 Q400.1433,66.2344 399.5026,66.375 Q398.862,66.5313 398.1589,66.5313 Q395.6589,66.5313 394.3308,64.8906 Q393.0183,63.2344 393.0183,60.1094 Q393.0183,56.9844 394.3308,55.3281 Q395.6589,53.6719 398.1589,53.6719 Q398.862,53.6719 399.5026,53.8281 Q400.1589,53.9844 400.7214,54.2813 L400.7214,57 Q400.0964,56.4219 399.5026,56.1563 Q398.9089,55.875 398.2839,55.875 Q396.9401,55.875 396.2526,56.9531 Q395.5651,58.0156 395.5651,60.1094 Q395.5651,62.2031 396.2526,63.2813 Q396.9401,64.3438 398.2839,64.3438 Q398.9089,64.3438 399.5026,64.0781 Q400.0964,63.7969 400.7214,63.2188 L400.7214,65.9375 Z " fill="#000000"/><text fill="#000000" font-family="sans-serif" font-size="14" lengthAdjust="spacing" textLength="82.9473" x="418.2526" y="65.1436">DTM_00031</text><line style="stroke:#181818;stroke-width:0.5;" x1="264.3" x2="622.6525" y1="76.2969" y2="76.2969"/><text fill="#000000" font-family="sans-serif" font-size="14" lengthAdjust="spacing" textLength="142.8096" x="283.3" y="93.292">Name: Ablesedatum</text><text fill="#000000" font-family="sans-serif" font-size="14" lengthAdjust="spacing" textLength="66.6436" x="283.3" y="109.5889">Prozesse:</text><rect fill="none" height="6" style="stroke:#C82930;stroke-width:1;" width="6" x="271.3" y="119.5391"/><text fill="#000000" font-family="sans-serif" font-size="14" lengthAdjust="spacing" textLength="334.3525" x="283.3" y="125.8857">Anforderung und &#220;bermittlung von Messwerten</text><line style="stroke:#181818;stroke-width:0.5;" x1="264.3" x2="622.6525" y1="133.1875" y2="133.1875"/></g><!--class DTM_00031_msg_1--><g class="entity" data-entity="DTM_00031_msg_1" data-source-line="7" data-uid="ent0003" id="entity_DTM_00031_msg_1"><rect fill="#F1F1F1" height="145.7813" rx="2.5" ry="2.5" style="stroke:#181818;stroke-width:0.5;" width="432.9502" x="7" y="218.1869"/><ellipse cx="151.3887" cy="234.1869" fill="#ADD1B2" rx="11" ry="11" style="stroke:#181818;stroke-width:1;"/><path d="M154.3574,239.8275 Q153.7793,240.1244 153.1387,240.265 Q152.498,240.4213 151.7949,240.4213 Q149.2949,240.4213 147.9668,238.7806 Q146.6543,237.1244 146.6543,233.9994 Q146.6543,230.8744 147.9668,229.2181 Q149.2949,227.5619 151.7949,227.5619 Q152.498,227.5619 153.1387,227.7181 Q153.7949,227.8744 154.3574,228.1713 L154.3574,230.89 Q153.7324,230.3119 153.1387,230.0463 Q152.5449,229.765 151.9199,229.765 Q150.5762,229.765 149.8887,230.8431 Q149.2012,231.9056 149.2012,233.9994 Q149.2012,236.0931 149.8887,237.1713 Q150.5762,238.2338 151.9199,238.2338 Q152.5449,238.2338 153.1387,237.9681 Q153.7324,237.6869 154.3574,237.1088 L154.3574,239.8275 Z " fill="#000000"/><text fill="#000000" font-family="sans-serif" font-size="14" lengthAdjust="spacing" textLength="135.6729" x="171.8887" y="239.0336">DTM_00031_msg_1</text><line style="stroke:#181818;stroke-width:0.5;" x1="8" x2="438.9502" y1="250.1869" y2="250.1869"/><text fill="#000000" font-family="sans-serif" font-size="14" lengthAdjust="spacing" textLength="172.0264" x="13" y="267.182">Nachricht: MSCONS 2.4c</text><text fill="#000000" font-family="sans-serif" font-size="14" lengthAdjust="spacing" textLength="204.1143" x="13" y="283.4789">Kontext: Nachrichtenstruktur</text><text fill="#000000" font-family="sans-serif" font-size="14" lengthAdjust="spacing" textLength="110.5439" x="13" y="299.7757">Pflichtfeld: Nein</text><text fill="#000000" font-family="sans-serif" font-size="14" lengthAdjust="spacing" textLength="83.7129" x="13" y="316.0726">Codes: DTM</text><text fill="#000000" font-family="sans-serif" font-size="14" lengthAdjust="spacing" textLength="405.4463" x="13" y="332.3695">Prozesse: Anforderung und &#220;bermittlung von Messwerten</text><text fill="#000000" font-family="sans-serif" font-size="14" lengthAdjust="spacing" textLength="420.9502" x="13" y="348.6664">Quelle: MSCONS_MIG_2_4c_au&#223;erordentliche_20240726.pdf</text><line style="stroke:#181818;stroke-width:0.5;" x1="8" x2="438.9502" y1="355.9681" y2="355.9681"/></g><!--class DTM_00031_proc_1--><g class="entity" data-entity="DTM_00031_proc_1" data-source-line="16" data-uid="ent0005" id="entity_DTM_00031_proc_1"><rect fill="#F1F1F1" height="105.1563" rx="2.5" ry="2.5" style="stroke:#181818;stroke-width:0.5;" width="378.2285" x="475.36" y="238.4969"/><ellipse cx="591.8444" cy="258.6297" fill="#ADD1B2" rx="11" ry="11" style="stroke:#181818;stroke-width:1;"/><path d="M594.8131,264.2703 Q594.235,264.5672 593.5944,264.7078 Q592.9538,264.8641 592.2506,264.8641 Q589.7506,264.8641 588.4225,263.2234 Q587.11,261.5672 587.11,258.4422 Q587.11,255.3172 588.4225,253.6609 Q589.7506,252.0047 592.2506,252.0047 Q592.9538,252.0047 593.5944,252.1609 Q594.2506,252.3172 594.8131,252.6141 L594.8131,255.3328 Q594.1881,254.7547 593.5944,254.4891 Q593.0006,254.2078 592.3756,254.2078 Q591.0319,254.2078 590.3444,255.2859 Q589.6569,256.3484 589.6569,258.4422 Q589.6569,260.5359 590.3444,261.6141 Q591.0319,262.6766 592.3756,262.6766 Q593.0006,262.6766 593.5944,262.4109 Q594.1881,262.1297 594.8131,261.5516 L594.8131,264.2703 Z " fill="#000000"/><text fill="#000000" font-family="sans-serif" font-size="12" font-style="italic" lengthAdjust="spacing" textLength="61.0605" x="650.194" y="254.6355">&#171;process&#187;</text><text fill="#000000" font-family="sans-serif" font-size="14" lengthAdjust="spacing" textLength="136.7598" x="612.3444" y="270.4607">DTM_00031_proc_1</text><line style="stroke:#181818;stroke-width:0.5;" x1="476.36" x2="852.5885" y1="278.7625" y2="278.7625"/><text fill="#000000" font-family="sans-serif" font-size="14" lengthAdjust="spacing" textLength="334.3525" x="481.36" y="295.7576">Anforderung und &#220;bermittlung von Messwerten</text><text fill="#000000" font-family="sans-serif" font-size="14" lengthAdjust="spacing" textLength="105.0957" x="481.36" y="312.0545">Gesetze: MsbG</text><line style="stroke:#181818;stroke-width:0.5;" x1="476.36" x2="852.5885" y1="319.3563" y2="319.3563"/><text fill="#000000" font-family="sans-serif" font-size="14" lengthAdjust="spacing" textLength="366.2285" x="481.36" y="336.3514">Zusammenfassung: Wie kann ein Marktpartner (z.B.</text></g><!--link DTM_00031 to DTM_00031_msg_1--><g class="link" data-entity-1="DTM_00031" data-entity-2="DTM_00031_msg_1" data-source-line="15" data-uid="lnk4" id="link_DTM_00031_DTM_00031_msg_1"><path codeLine="15" d="M389.94,141.5169 C364.25,164.4469 337.3967,188.412 308.8767,213.862" fill="none" id="DTM_00031-to-DTM_00031_msg_1" style="stroke:#181818;stroke-width:1;"/><polygon fill="#181818" points="304.4,217.8569,313.7783,214.8491,308.1306,214.5278,308.4519,208.8801,304.4,217.8569" style="stroke:#181818;stroke-width:1;"/><text fill="#000000" font-family="sans-serif" font-size="13" lengthAdjust="spacing" textLength="85.2363" x="354.48" y="184.2538">verwendet in</text></g><!--link DTM_00031 to DTM_00031_proc_1--><g class="link" data-entity-1="DTM_00031" data-entity-2="DTM_00031_proc_1" data-source-line="21" data-uid="lnk6" id="link_DTM_00031_DTM_00031_proc_1"><path codeLine="21" d="M497.26,141.5169 C530.22,170.8069 567.9343,204.3121 601.6943,234.3021" fill="none" id="DTM_00031-to-DTM_00031_proc_1" style="stroke:#181818;stroke-width:1;stroke-dasharray:7,7;"/><polygon fill="#181818" points="606.18,238.2869,602.108,229.3192,602.4419,234.9662,596.7949,235.3002,606.18,238.2869" style="stroke:#181818;stroke-width:1;"/><text fill="#000000" font-family="sans-serif" font-size="13" lengthAdjust="spacing" textLength="91.6221" x="547.48" y="184.2538">eingebettet in</text></g><!--SRC=[bP7FQiCm3CRlVGeTTsd8ihA1AO6kXJ96keqE1hiO9r7QKCSfjjoEZht9O0_J5viSwFwqfzwapvA-dsIgIIDC5A5Hf9M3FaoUCn77yTLbhs31XLnsERpt06QgGG6ZNAF3Kf5lM7kqxGwTGy4ny8IHgLfRelLc0TwKiF_CqJOraGxAfZMGSVaMBRlsFevjPECMyc1MB6rTB4b0DXy_pEQGH8E27-vRG_Z6yay56aVMhyZR05Jfe5MeIox1sh0sRajq8jZy9JwF5U39ezPum97PtLGcSb18vVTVQCCaGy4RPH8dW_WckOxMPSLB_bwntqzFbXMmGRj5Ko81qnvVP6tRWgk6mn0mJffsvpcJVSfVHhi0x_8fvw_UgQP1Kx4PDmXugH5MoXZWYq6cx8hMof912nUxw3RwjqKKfQU08dGkC4UYRf5l]--></g></svg>