<svg xmlns="http://www.w3.org/2000/svg" xmlns:xlink="http://www.w3.org/1999/xlink" contentStyleType="text/css" data-diagram-type="CLASS" height="419px" preserveAspectRatio="none" style="width:6038px;height:419px;background:#FFFFFF;" version="1.1" viewBox="0 0 6038 419" width="6038px" zoomAndPan="magnify"><title>Datenatlas - DTM:0005</title><defs/><g><g class="title" data-source-line="1"><text fill="#000000" font-family="sans-serif" font-size="14" font-weight="bold" lengthAdjust="spacing" textLength="181.166" x="2921.8216" y="22.9951">Datenatlas - DTM:0005</text></g><!--class DTM_0005--><g class="entity" data-entity="DTM_0005" data-source-line="2" data-uid="ent0002" id="entity_DTM_0005"><rect fill="#F1F1F1" height="145.7813" rx="2.5" ry="2.5" style="stroke:#181818;stroke-width:0.5;" width="374.2021" x="2203.71" y="44.2969"/><ellipse cx="2349.5411" cy="60.2969" fill="#ADD1B2" rx="11" ry="11" style="stroke:#181818;stroke-width:1;"/><path d="M2352.5098,65.9375 Q2351.9317,66.2344 2351.2911,66.375 Q2350.6504,66.5313 2349.9473,66.5313 Q2347.4473,66.5313 2346.1192,64.8906 Q2344.8067,63.2344 2344.8067,60.1094 Q2344.8067,56.9844 2346.1192,55.3281 Q2347.4473,53.6719 2349.9473,53.6719 Q2350.6504,53.6719 2351.2911,53.8281 Q2351.9473,53.9844 2352.5098,54.2813 L2352.5098,57 Q2351.8848,56.4219 2351.2911,56.1563 Q2350.6973,55.875 2350.0723,55.875 Q2348.7286,55.875 2348.0411,56.9531 Q2347.3536,58.0156 2347.3536,60.1094 Q2347.3536,62.2031 2348.0411,63.2813 Q2348.7286,64.3438 2350.0723,64.3438 Q2350.6973,64.3438 2351.2911,64.0781 Q2351.8848,63.7969 2352.5098,63.2188 L2352.5098,65.9375 Z " fill="#000000"/><text fill="#000000" font-family="sans-serif" font-size="14" lengthAdjust="spacing" textLength="74.04" x="2370.0411" y="65.1436">DTM_0005</text><line style="stroke:#181818;stroke-width:0.5;" x1="2204.71" x2="2576.9121" y1="76.2969" y2="76.2969"/><text fill="#000000" font-family="sans-serif" font-size="14" lengthAdjust="spacing" textLength="180.749" x="2223.71" y="93.292">Name: Nachrichtendatum</text><text fill="#000000" font-family="sans-serif" font-size="14" lengthAdjust="spacing" textLength="66.6436" x="2223.71" y="109.5889">Prozesse:</text><rect fill="none" height="6" style="stroke:#C82930;stroke-width:1;" width="6" x="2211.71" y="119.5391"/><text fill="#000000" font-family="sans-serif" font-size="14" lengthAdjust="spacing" textLength="180.3457" x="2223.71" y="125.8857">Netznutzungsabrechnung</text><rect fill="none" height="6" style="stroke:#C82930;stroke-width:1;" width="6" x="2211.71" y="135.8359"/><text fill="#000000" font-family="sans-serif" font-size="14" lengthAdjust="spacing" textLength="223.2822" x="2223.71" y="142.1826">Messstellenbetriebsabrechnung</text><rect fill="none" height="6" style="stroke:#C82930;stroke-width:1;" width="6" x="2211.71" y="152.1328"/><text fill="#000000" font-family="sans-serif" font-size="14" lengthAdjust="spacing" textLength="317.9668" x="2223.71" y="158.4795">Sperrung und Entsperrung eines Anschlusses</text><line style="stroke:#181818;stroke-width:0.5;" x1="2204.71" x2="2576.9121" y1="165.7813" y2="165.7813"/><rect fill="#F24D5C" height="6" style="stroke:#C82930;stroke-width:1;" width="6" x="2211.71" y="176.4297"/><text fill="#000000" font-family="sans-serif" font-size="14" lengthAdjust="spacing" textLength="348.2021" x="2223.71" y="182.7764">Bestellung einer technischen Konfiguration (MSB)</text></g><!--class DTM_0005_msg_1--><g class="entity" data-entity="DTM_0005_msg_1" data-source-line="10" data-uid="ent0003" id="entity_DTM_0005_msg_1"><rect fill="#F1F1F1" height="145.7813" rx="2.5" ry="2.5" style="stroke:#181818;stroke-width:0.5;" width="495.6221" x="7" y="267.0769"/><ellipse cx="187.1782" cy="283.0769" fill="#ADD1B2" rx="11" ry="11" style="stroke:#181818;stroke-width:1;"/><path d="M190.147,288.7175 Q189.5688,289.0144 188.9282,289.155 Q188.2876,289.3113 187.5845,289.3113 Q185.0845,289.3113 183.7563,287.6706 Q182.4438,286.0144 182.4438,282.8894 Q182.4438,279.7644 183.7563,278.1081 Q185.0845,276.4519 187.5845,276.4519 Q188.2876,276.4519 188.9282,276.6081 Q189.5845,276.7644 190.147,277.0613 L190.147,279.78 Q189.522,279.2019 188.9282,278.9363 Q188.3345,278.655 187.7095,278.655 Q186.3657,278.655 185.6782,279.7331 Q184.9907,280.7956 184.9907,282.8894 Q184.9907,284.9831 185.6782,286.0613 Q186.3657,287.1238 187.7095,287.1238 Q188.3345,287.1238 188.9282,286.8581 Q189.522,286.5769 190.147,285.9988 L190.147,288.7175 Z " fill="#000000"/><text fill="#000000" font-family="sans-serif" font-size="14" lengthAdjust="spacing" textLength="126.7656" x="207.6782" y="287.9236">DTM_0005_msg_1</text><line style="stroke:#181818;stroke-width:0.5;" x1="8" x2="501.6221" y1="299.0769" y2="299.0769"/><text fill="#000000" font-family="sans-serif" font-size="14" lengthAdjust="spacing" textLength="161.1982" x="13" y="316.072">Nachricht: INVOIC 2.8d</text><text fill="#000000" font-family="sans-serif" font-size="14" lengthAdjust="spacing" textLength="204.1143" x="13" y="332.3689">Kontext: Nachrichtenstruktur</text><text fill="#000000" font-family="sans-serif" font-size="14" lengthAdjust="spacing" textLength="91.4033" x="13" y="348.6657">Pflichtfeld: Ja</text><text fill="#000000" font-family="sans-serif" font-size="14" lengthAdjust="spacing" textLength="110.4277" x="13" y="364.9626">Codes: 35, DTM</text><text fill="#000000" font-family="sans-serif" font-size="14" lengthAdjust="spacing" textLength="483.6221" x="13" y="381.2595">Prozesse: Netznutzungsabrechnung, Messstellenbetriebsabrechnung</text><text fill="#000000" font-family="sans-serif" font-size="14" lengthAdjust="spacing" textLength="396.6074" x="13" y="397.5564">Quelle: INVOIC_MIG_2.8d_Fehlerkorrektur_20250131.pdf</text><line style="stroke:#181818;stroke-width:0.5;" x1="8" x2="501.6221" y1="404.8581" y2="404.8581"/></g><!--class DTM_0005_msg_2--><g class="entity" data-entity="DTM_0005_msg_2" data-source-line="19" data-uid="ent0005" id="entity_DTM_0005_msg_2"><rect fill="#F1F1F1" height="145.7813" rx="2.5" ry="2.5" style="stroke:#181818;stroke-width:0.5;" width="495.6221" x="538" y="267.0769"/><ellipse cx="718.1782" cy="283.0769" fill="#ADD1B2" rx="11" ry="11" style="stroke:#181818;stroke-width:1;"/><path d="M721.147,288.7175 Q720.5688,289.0144 719.9282,289.155 Q719.2876,289.3113 718.5845,289.3113 Q716.0845,289.3113 714.7563,287.6706 Q713.4438,286.0144 713.4438,282.8894 Q713.4438,279.7644 714.7563,278.1081 Q716.0845,276.4519 718.5845,276.4519 Q719.2876,276.4519 719.9282,276.6081 Q720.5845,276.7644 721.147,277.0613 L721.147,279.78 Q720.522,279.2019 719.9282,278.9363 Q719.3345,278.655 718.7095,278.655 Q717.3657,278.655 716.6782,279.7331 Q715.9907,280.7956 715.9907,282.8894 Q715.9907,284.9831 716.6782,286.0613 Q717.3657,287.1238 718.7095,287.1238 Q719.3345,287.1238 719.9282,286.8581 Q720.522,286.5769 721.147,285.9988 L721.147,288.7175 Z " fill="#000000"/><text fill="#000000" font-family="sans-serif" font-size="14" lengthAdjust="spacing" textLength="126.7656" x="738.6782" y="287.9236">DTM_0005_msg_2</text><line style="stroke:#181818;stroke-width:0.5;" x1="539" x2="1032.6221" y1="299.0769" y2="299.0769"/><text fill="#000000" font-family="sans-serif" font-size="14" lengthAdjust="spacing" textLength="165.6484" x="544" y="316.072">Nachricht: INVOIC 2.8d.</text><text fill="#000000" font-family="sans-serif" font-size="14" lengthAdjust="spacing" textLength="204.1143" x="544" y="332.3689">Kontext: Nachrichtenstruktur</text><text fill="#000000" font-family="sans-serif" font-size="14" lengthAdjust="spacing" textLength="91.4033" x="544" y="348.6657">Pflichtfeld: Ja</text><text fill="#000000" font-family="sans-serif" font-size="14" lengthAdjust="spacing" textLength="110.4277" x="544" y="364.9626">Codes: 35, DTM</text><text fill="#000000" font-family="sans-serif" font-size="14" lengthAdjust="spacing" textLength="483.6221" x="544" y="381.2595">Prozesse: Netznutzungsabrechnung, Messstellenbetriebsabrechnung</text><text fill="#000000" font-family="sans-serif" font-size="14" lengthAdjust="spacing" textLength="290.3359" x="544" y="397.5564">Quelle: INVOIC_MIG_2_8d__20240619.pdf</text><line style="stroke:#181818;stroke-width:0.5;" x1="539" x2="1032.6221" y1="404.8581" y2="404.8581"/></g><!--class DTM_0005_msg_3--><g class="entity" data-entity="DTM_0005_msg_3" data-source-line="28" data-uid="ent0007" id="entity_DTM_0005_msg_3"><rect fill="#F1F1F1" height="145.7813" rx="2.5" ry="2.5" style="stroke:#181818;stroke-width:0.5;" width="758.1631" x="1068.73" y="267.0769"/><ellipse cx="1380.1787" cy="283.0769" fill="#ADD1B2" rx="11" ry="11" style="stroke:#181818;stroke-width:1;"/><path d="M1383.1475,288.7175 Q1382.5694,289.0144 1381.9287,289.155 Q1381.2881,289.3113 1380.585,289.3113 Q1378.085,289.3113 1376.7569,287.6706 Q1375.4444,286.0144 1375.4444,282.8894 Q1375.4444,279.7644 1376.7569,278.1081 Q1378.085,276.4519 1380.585,276.4519 Q1381.2881,276.4519 1381.9287,276.6081 Q1382.585,276.7644 1383.1475,277.0613 L1383.1475,279.78 Q1382.5225,279.2019 1381.9287,278.9363 Q1381.335,278.655 1380.71,278.655 Q1379.3662,278.655 1378.6787,279.7331 Q1377.9912,280.7956 1377.9912,282.8894 Q1377.9912,284.9831 1378.6787,286.0613 Q1379.3662,287.1238 1380.71,287.1238 Q1381.335,287.1238 1381.9287,286.8581 Q1382.5225,286.5769 1383.1475,285.9988 L1383.1475,288.7175 Z " fill="#000000"/><text fill="#000000" font-family="sans-serif" font-size="14" lengthAdjust="spacing" textLength="126.7656" x="1400.6787" y="287.9236">DTM_0005_msg_3</text><line style="stroke:#181818;stroke-width:0.5;" x1="1069.73" x2="1825.8931" y1="299.0769" y2="299.0769"/><text fill="#000000" font-family="sans-serif" font-size="14" lengthAdjust="spacing" textLength="170.3584" x="1074.73" y="316.072">Nachricht: QUOTES 1.3a</text><text fill="#000000" font-family="sans-serif" font-size="14" lengthAdjust="spacing" textLength="204.1143" x="1074.73" y="332.3689">Kontext: Nachrichtenstruktur</text><text fill="#000000" font-family="sans-serif" font-size="14" lengthAdjust="spacing" textLength="91.4033" x="1074.73" y="348.6657">Pflichtfeld: Ja</text><text fill="#000000" font-family="sans-serif" font-size="14" lengthAdjust="spacing" textLength="110.4277" x="1074.73" y="364.9626">Codes: 35, DTM</text><text fill="#000000" font-family="sans-serif" font-size="14" lengthAdjust="spacing" textLength="408.3174" x="1074.73" y="381.2595">Quelle: QUOTES_MIG_1_3a_Fehlerkorrektur_20241213.pdf</text><line style="stroke:#181818;stroke-width:0.5;" x1="1069.73" x2="1825.8931" y1="388.5613" y2="388.5613"/><text fill="#000000" font-family="sans-serif" font-size="14" lengthAdjust="spacing" textLength="746.1631" x="1074.73" y="405.5564">Prozesse: Bestellung einer technischen Konfiguration (MSB), Sperrung und Entsperrung eines Anschlusses</text></g><!--class DTM_0005_msg_4--><g class="entity" data-entity="DTM_0005_msg_4" data-source-line="37" data-uid="ent0009" id="entity_DTM_0005_msg_4"><rect fill="#F1F1F1" height="145.7813" rx="2.5" ry="2.5" style="stroke:#181818;stroke-width:0.5;" width="431.2959" x="1862.16" y="267.0769"/><ellipse cx="2010.1751" cy="283.0769" fill="#ADD1B2" rx="11" ry="11" style="stroke:#181818;stroke-width:1;"/><path d="M2013.1439,288.7175 Q2012.5658,289.0144 2011.9251,289.155 Q2011.2845,289.3113 2010.5814,289.3113 Q2008.0814,289.3113 2006.7533,287.6706 Q2005.4408,286.0144 2005.4408,282.8894 Q2005.4408,279.7644 2006.7533,278.1081 Q2008.0814,276.4519 2010.5814,276.4519 Q2011.2845,276.4519 2011.9251,276.6081 Q2012.5814,276.7644 2013.1439,277.0613 L2013.1439,279.78 Q2012.5189,279.2019 2011.9251,278.9363 Q2011.3314,278.655 2010.7064,278.655 Q2009.3626,278.655 2008.6751,279.7331 Q2007.9876,280.7956 2007.9876,282.8894 Q2007.9876,284.9831 2008.6751,286.0613 Q2009.3626,287.1238 2010.7064,287.1238 Q2011.3314,287.1238 2011.9251,286.8581 Q2012.5189,286.5769 2013.1439,285.9988 L2013.1439,288.7175 Z " fill="#000000"/><text fill="#000000" font-family="sans-serif" font-size="14" lengthAdjust="spacing" textLength="126.7656" x="2030.6751" y="287.9236">DTM_0005_msg_4</text><line style="stroke:#181818;stroke-width:0.5;" x1="1863.16" x2="2292.4559" y1="299.0769" y2="299.0769"/><text fill="#000000" font-family="sans-serif" font-size="14" lengthAdjust="spacing" textLength="170.1055" x="1868.16" y="316.072">Nachricht: REQOTE 1.3b</text><text fill="#000000" font-family="sans-serif" font-size="14" lengthAdjust="spacing" textLength="204.1143" x="1868.16" y="332.3689">Kontext: Nachrichtenstruktur</text><text fill="#000000" font-family="sans-serif" font-size="14" lengthAdjust="spacing" textLength="91.4033" x="1868.16" y="348.6657">Pflichtfeld: Ja</text><text fill="#000000" font-family="sans-serif" font-size="14" lengthAdjust="spacing" textLength="110.4277" x="1868.16" y="364.9626">Codes: 35, DTM</text><text fill="#000000" font-family="sans-serif" font-size="14" lengthAdjust="spacing" textLength="292.2432" x="1868.16" y="381.2595">Quelle: REQOTE_MIG_1_3b_20241001.pdf</text><line style="stroke:#181818;stroke-width:0.5;" x1="1863.16" x2="2292.4559" y1="388.5613" y2="388.5613"/><text fill="#000000" font-family="sans-serif" font-size="14" lengthAdjust="spacing" textLength="419.2959" x="1868.16" y="405.5564">Prozesse: Bestellung einer technischen Konfiguration (MSB)</text></g><!--class DTM_0005_proc_1--><g class="entity" data-entity="DTM_0005_proc_1" data-source-line="46" data-uid="ent0011" id="entity_DTM_0005_proc_1"><rect fill="#F1F1F1" height="105.1563" rx="2.5" ry="2.5" style="stroke:#181818;stroke-width:0.5;" width="752.6465" x="2328.49" y="287.3869"/><ellipse cx="2636.637" cy="307.5197" fill="#ADD1B2" rx="11" ry="11" style="stroke:#181818;stroke-width:1;"/><path d="M2639.6057,313.1603 Q2639.0276,313.4572 2638.387,313.5978 Q2637.7463,313.7541 2637.0432,313.7541 Q2634.5432,313.7541 2633.2151,312.1134 Q2631.9026,310.4572 2631.9026,307.3322 Q2631.9026,304.2072 2633.2151,302.5509 Q2634.5432,300.8947 2637.0432,300.8947 Q2637.7463,300.8947 2638.387,301.0509 Q2639.0432,301.2072 2639.6057,301.5041 L2639.6057,304.2228 Q2638.9807,303.6447 2638.387,303.3791 Q2637.7932,303.0978 2637.1682,303.0978 Q2635.8245,303.0978 2635.137,304.1759 Q2634.4495,305.2384 2634.4495,307.3322 Q2634.4495,309.4259 2635.137,310.5041 Q2635.8245,311.5666 2637.1682,311.5666 Q2637.7932,311.5666 2638.387,311.3009 Q2638.9807,311.0197 2639.6057,310.4416 L2639.6057,313.1603 Z " fill="#000000"/><text fill="#000000" font-family="sans-serif" font-size="12" font-style="italic" lengthAdjust="spacing" textLength="61.0605" x="2690.533" y="303.5255">&#171;process&#187;</text><text fill="#000000" font-family="sans-serif" font-size="14" lengthAdjust="spacing" textLength="127.8525" x="2657.137" y="319.3507">DTM_0005_proc_1</text><line style="stroke:#181818;stroke-width:0.5;" x1="2329.49" x2="3080.1365" y1="327.6525" y2="327.6525"/><text fill="#000000" font-family="sans-serif" font-size="14" lengthAdjust="spacing" textLength="180.3457" x="2334.49" y="344.6476">Netznutzungsabrechnung</text><text fill="#000000" font-family="sans-serif" font-size="14" lengthAdjust="spacing" textLength="218.0938" x="2334.49" y="360.9445">Gesetze: StromNEV, StromNZV</text><text fill="#000000" font-family="sans-serif" font-size="14" lengthAdjust="spacing" textLength="740.6465" x="2334.49" y="377.2414">Zusammenfassung: Wie funktioniert die Netznutzungsabrechnung zwischen Netzbetreiber und Lieferant?</text><line style="stroke:#181818;stroke-width:0.5;" x1="2329.49" x2="3080.1365" y1="384.5431" y2="384.5431"/></g><!--class DTM_0005_proc_2--><g class="entity" data-entity="DTM_0005_proc_2" data-source-line="52" data-uid="ent0013" id="entity_DTM_0005_proc_2"><rect fill="#F1F1F1" height="105.1563" rx="2.5" ry="2.5" style="stroke:#181818;stroke-width:0.5;" width="690.2275" x="3115.7" y="287.3869"/><ellipse cx="3392.6375" cy="307.5197" fill="#ADD1B2" rx="11" ry="11" style="stroke:#181818;stroke-width:1;"/><path d="M3395.6063,313.1603 Q3395.0281,313.4572 3394.3875,313.5978 Q3393.7469,313.7541 3393.0438,313.7541 Q3390.5438,313.7541 3389.2156,312.1134 Q3387.9031,310.4572 3387.9031,307.3322 Q3387.9031,304.2072 3389.2156,302.5509 Q3390.5438,300.8947 3393.0438,300.8947 Q3393.7469,300.8947 3394.3875,301.0509 Q3395.0438,301.2072 3395.6063,301.5041 L3395.6063,304.2228 Q3394.9813,303.6447 3394.3875,303.3791 Q3393.7938,303.0978 3393.1688,303.0978 Q3391.825,303.0978 3391.1375,304.1759 Q3390.45,305.2384 3390.45,307.3322 Q3390.45,309.4259 3391.1375,310.5041 Q3391.825,311.5666 3393.1688,311.5666 Q3393.7938,311.5666 3394.3875,311.3009 Q3394.9813,311.0197 3395.6063,310.4416 L3395.6063,313.1603 Z " fill="#000000"/><text fill="#000000" font-family="sans-serif" font-size="12" font-style="italic" lengthAdjust="spacing" textLength="61.0605" x="3446.5335" y="303.5255">&#171;process&#187;</text><text fill="#000000" font-family="sans-serif" font-size="14" lengthAdjust="spacing" textLength="127.8525" x="3413.1375" y="319.3507">DTM_0005_proc_2</text><line style="stroke:#181818;stroke-width:0.5;" x1="3116.7" x2="3804.9275" y1="327.6525" y2="327.6525"/><text fill="#000000" font-family="sans-serif" font-size="14" lengthAdjust="spacing" textLength="223.2822" x="3121.7" y="344.6476">Messstellenbetriebsabrechnung</text><text fill="#000000" font-family="sans-serif" font-size="14" lengthAdjust="spacing" textLength="105.0957" x="3121.7" y="360.9445">Gesetze: MsbG</text><text fill="#000000" font-family="sans-serif" font-size="14" lengthAdjust="spacing" textLength="678.2275" x="3121.7" y="377.2414">Zusammenfassung: Beschreibe den Prozess der Abrechnung von Messstellenbetriebsleistungen.</text><line style="stroke:#181818;stroke-width:0.5;" x1="3116.7" x2="3804.9275" y1="384.5431" y2="384.5431"/></g><!--class DTM_0005_proc_3--><g class="entity" data-entity="DTM_0005_proc_3" data-source-line="58" data-uid="ent0015" id="entity_DTM_0005_proc_3"><rect fill="#F1F1F1" height="105.1563" rx="2.5" ry="2.5" style="stroke:#181818;stroke-width:0.5;" width="1301.9961" x="3840.81" y="287.3869"/><ellipse cx="4423.6318" cy="307.5197" fill="#ADD1B2" rx="11" ry="11" style="stroke:#181818;stroke-width:1;"/><path d="M4426.6005,313.1603 Q4426.0224,313.4572 4425.3818,313.5978 Q4424.7412,313.7541 4424.038,313.7541 Q4421.538,313.7541 4420.2099,312.1134 Q4418.8974,310.4572 4418.8974,307.3322 Q4418.8974,304.2072 4420.2099,302.5509 Q4421.538,300.8947 4424.038,300.8947 Q4424.7412,300.8947 4425.3818,301.0509 Q4426.038,301.2072 4426.6005,301.5041 L4426.6005,304.2228 Q4425.9755,303.6447 4425.3818,303.3791 Q4424.788,303.0978 4424.163,303.0978 Q4422.8193,303.0978 4422.1318,304.1759 Q4421.4443,305.2384 4421.4443,307.3322 Q4421.4443,309.4259 4422.1318,310.5041 Q4422.8193,311.5666 4424.163,311.5666 Q4424.788,311.5666 4425.3818,311.3009 Q4425.9755,311.0197 4426.6005,310.4416 L4426.6005,313.1603 Z " fill="#000000"/><text fill="#000000" font-family="sans-serif" font-size="12" font-style="italic" lengthAdjust="spacing" textLength="61.0605" x="4477.5278" y="303.5255">&#171;process&#187;</text><text fill="#000000" font-family="sans-serif" font-size="14" lengthAdjust="spacing" textLength="127.8525" x="4444.1318" y="319.3507">DTM_0005_proc_3</text><line style="stroke:#181818;stroke-width:0.5;" x1="3841.81" x2="5141.8061" y1="327.6525" y2="327.6525"/><text fill="#000000" font-family="sans-serif" font-size="14" lengthAdjust="spacing" textLength="156.4063" x="3846.81" y="344.6476">Gesetze: MsbG, EnWG</text><text fill="#000000" font-family="sans-serif" font-size="14" lengthAdjust="spacing" textLength="1289.9961" x="3846.81" y="360.9445">Zusammenfassung: Erl&#228;utere den Prozess zur Bestellung einer spezifischen technischen Konfiguration bei einem Messstellenbetreiber, beispielsweise f&#252;r ein intelligentes Messsystem.</text><line style="stroke:#181818;stroke-width:0.5;" x1="3841.81" x2="5141.8061" y1="368.2463" y2="368.2463"/><text fill="#000000" font-family="sans-serif" font-size="14" lengthAdjust="spacing" textLength="348.2021" x="3846.81" y="385.2414">Bestellung einer technischen Konfiguration (MSB)</text></g><!--class DTM_0005_proc_4--><g class="entity" data-entity="DTM_0005_proc_4" data-source-line="64" data-uid="ent0017" id="entity_DTM_0005_proc_4"><rect fill="#F1F1F1" height="105.1563" rx="2.5" ry="2.5" style="stroke:#181818;stroke-width:0.5;" width="853.9893" x="5177.82" y="287.3869"/><ellipse cx="5536.6384" cy="307.5197" fill="#ADD1B2" rx="11" ry="11" style="stroke:#181818;stroke-width:1;"/><path d="M5539.6071,313.1603 Q5539.029,313.4572 5538.3884,313.5978 Q5537.7477,313.7541 5537.0446,313.7541 Q5534.5446,313.7541 5533.2165,312.1134 Q5531.904,310.4572 5531.904,307.3322 Q5531.904,304.2072 5533.2165,302.5509 Q5534.5446,300.8947 5537.0446,300.8947 Q5537.7477,300.8947 5538.3884,301.0509 Q5539.0446,301.2072 5539.6071,301.5041 L5539.6071,304.2228 Q5538.9821,303.6447 5538.3884,303.3791 Q5537.7946,303.0978 5537.1696,303.0978 Q5535.8259,303.0978 5535.1384,304.1759 Q5534.4509,305.2384 5534.4509,307.3322 Q5534.4509,309.4259 5535.1384,310.5041 Q5535.8259,311.5666 5537.1696,311.5666 Q5537.7946,311.5666 5538.3884,311.3009 Q5538.9821,311.0197 5539.6071,310.4416 L5539.6071,313.1603 Z " fill="#000000"/><text fill="#000000" font-family="sans-serif" font-size="12" font-style="italic" lengthAdjust="spacing" textLength="61.0605" x="5590.5344" y="303.5255">&#171;process&#187;</text><text fill="#000000" font-family="sans-serif" font-size="14" lengthAdjust="spacing" textLength="127.8525" x="5557.1384" y="319.3507">DTM_0005_proc_4</text><line style="stroke:#181818;stroke-width:0.5;" x1="5178.82" x2="6030.8093" y1="327.6525" y2="327.6525"/><text fill="#000000" font-family="sans-serif" font-size="14" lengthAdjust="spacing" textLength="317.9668" x="5183.82" y="344.6476">Sperrung und Entsperrung eines Anschlusses</text><text fill="#000000" font-family="sans-serif" font-size="14" lengthAdjust="spacing" textLength="138.3252" x="5183.82" y="360.9445">Gesetze: StromGVV</text><text fill="#000000" font-family="sans-serif" font-size="14" lengthAdjust="spacing" textLength="841.9893" x="5183.82" y="377.2414">Zusammenfassung: Beschreibe den End-to-End-Prozess f&#252;r die Sperrung und Wiederherstellung eines Netzanschlusses.</text><line style="stroke:#181818;stroke-width:0.5;" x1="5178.82" x2="6030.8093" y1="384.5431" y2="384.5431"/></g><!--link DTM_0005 to DTM_0005_msg_1--><g class="link" data-entity-1="DTM_0005" data-entity-2="DTM_0005_msg_1" data-source-line="18" data-uid="lnk4" id="link_DTM_0005_DTM_0005_msg_1"><path codeLine="18" d="M2203.26,121.6969 C1864.78,130.5669 1130.3,161.3769 520.81,267.0769 C514.92,268.0969 514.8606,268.0461 508.8706,269.2061" fill="none" id="DTM_0005-to-DTM_0005_msg_1" style="stroke:#181818;stroke-width:1;"/><polygon fill="#181818" points="502.98,270.3469,512.5763,272.5628,507.8888,269.3963,511.0553,264.7087,502.98,270.3469" style="stroke:#181818;stroke-width:1;"/><text fill="#000000" font-family="sans-serif" font-size="13" lengthAdjust="spacing" textLength="85.2363" x="825.81" y="233.1438">verwendet in</text></g><!--link DTM_0005 to DTM_0005_msg_2--><g class="link" data-entity-1="DTM_0005" data-entity-2="DTM_0005_msg_2" data-source-line="27" data-uid="lnk6" id="link_DTM_0005_DTM_0005_msg_2"><path codeLine="27" d="M2203.3,129.8569 C1942.94,148.1369 1457.98,189.7069 1050.81,267.0769 C1045.19,268.1469 1045.3963,268.0546 1039.6763,269.2346" fill="none" id="DTM_0005-to-DTM_0005_msg_2" style="stroke:#181818;stroke-width:1;"/><polygon fill="#181818" points="1033.8,270.4469,1043.4226,272.546,1038.6969,269.4367,1041.8062,264.711,1033.8,270.4469" style="stroke:#181818;stroke-width:1;"/><text fill="#000000" font-family="sans-serif" font-size="13" lengthAdjust="spacing" textLength="85.2363" x="1306.81" y="233.1438">verwendet in</text></g><!--link DTM_0005 to DTM_0005_msg_3--><g class="link" data-entity-1="DTM_0005" data-entity-2="DTM_0005_msg_3" data-source-line="36" data-uid="lnk8" id="link_DTM_0005_DTM_0005_msg_3"><path codeLine="36" d="M2203.38,162.0669 C2075.94,191.9069 1910.2221,230.7095 1762.7821,265.2195" fill="none" id="DTM_0005-to-DTM_0005_msg_3" style="stroke:#181818;stroke-width:1;"/><polygon fill="#181818" points="1756.94,266.5869,1766.6148,268.4305,1761.8084,265.4474,1764.7915,260.641,1756.94,266.5869" style="stroke:#181818;stroke-width:1;"/><text fill="#000000" font-family="sans-serif" font-size="13" lengthAdjust="spacing" textLength="85.2363" x="1948.81" y="233.1438">verwendet in</text></g><!--link DTM_0005 to DTM_0005_msg_4--><g class="link" data-entity-1="DTM_0005" data-entity-2="DTM_0005_msg_4" data-source-line="45" data-uid="lnk10" id="link_DTM_0005_DTM_0005_msg_4"><path codeLine="45" d="M2288.32,190.4769 C2253.65,214.9369 2219.8438,238.7896 2185.1638,263.2396" fill="none" id="DTM_0005-to-DTM_0005_msg_4" style="stroke:#181818;stroke-width:1;"/><polygon fill="#181818" points="2180.26,266.6969,2189.9206,264.7802,2184.3465,263.8158,2185.3109,258.2418,2180.26,266.6969" style="stroke:#181818;stroke-width:1;"/><text fill="#000000" font-family="sans-serif" font-size="13" lengthAdjust="spacing" textLength="85.2363" x="2244.81" y="233.1438">verwendet in</text></g><!--link DTM_0005 to DTM_0005_proc_1--><g class="link" data-entity-1="DTM_0005" data-entity-2="DTM_0005_proc_1" data-source-line="51" data-uid="lnk12" id="link_DTM_0005_DTM_0005_proc_1"><path codeLine="51" d="M2493.63,190.4769 C2538.52,222.0469 2585.242,254.8956 2626.212,283.7056" fill="none" id="DTM_0005-to-DTM_0005_proc_1" style="stroke:#181818;stroke-width:1;stroke-dasharray:7,7;"/><polygon fill="#181818" points="2631.12,287.1569,2626.0589,278.7079,2627.03,284.2808,2621.4571,285.2519,2631.12,287.1569" style="stroke:#181818;stroke-width:1;"/><text fill="#000000" font-family="sans-serif" font-size="13" lengthAdjust="spacing" textLength="91.6221" x="2558.81" y="233.1438">eingebettet in</text></g><!--link DTM_0005 to DTM_0005_proc_2--><g class="link" data-entity-1="DTM_0005" data-entity-2="DTM_0005_proc_2" data-source-line="57" data-uid="lnk14" id="link_DTM_0005_DTM_0005_proc_2"><path codeLine="57" d="M2578.11,156.8269 C2753.08,192.9369 3009.7038,245.8844 3202.9838,285.7644" fill="none" id="DTM_0005-to-DTM_0005_proc_2" style="stroke:#181818;stroke-width:1;stroke-dasharray:7,7;"/><polygon fill="#181818" points="3208.86,286.9769,3200.854,281.2407,3203.9632,285.9665,3199.2374,289.0757,3208.86,286.9769" style="stroke:#181818;stroke-width:1;"/><text fill="#000000" font-family="sans-serif" font-size="13" lengthAdjust="spacing" textLength="91.6221" x="2959.81" y="233.1438">eingebettet in</text></g><!--link DTM_0005 to DTM_0005_proc_3--><g class="link" data-entity-1="DTM_0005" data-entity-2="DTM_0005_proc_3" data-source-line="63" data-uid="lnk16" id="link_DTM_0005_DTM_0005_proc_3"><path codeLine="63" d="M2578.33,137.4469 C2852.08,165.6169 3377.17,219.8369 3823.81,267.0769 C3884.13,273.4569 3941.5341,279.5685 4004.2441,286.2785" fill="none" id="DTM_0005-to-DTM_0005_proc_3" style="stroke:#181818;stroke-width:1;stroke-dasharray:7,7;"/><polygon fill="#181818" points="4010.21,286.9169,4001.6867,281.982,4005.2384,286.3849,4000.8355,289.9366,4010.21,286.9169" style="stroke:#181818;stroke-width:1;"/><text fill="#000000" font-family="sans-serif" font-size="13" lengthAdjust="spacing" textLength="91.6221" x="3511.81" y="233.1438">eingebettet in</text></g><!--link DTM_0005 to DTM_0005_proc_4--><g class="link" data-entity-1="DTM_0005" data-entity-2="DTM_0005_proc_4" data-source-line="69" data-uid="lnk18" id="link_DTM_0005_DTM_0005_proc_4"><path codeLine="69" d="M2578.14,121.3869 C3025.69,130.5169 4191.99,163.1769 5159.81,267.0769 C5208.74,272.3269 5254.5374,278.4401 5304.7474,286.0301" fill="none" id="DTM_0005-to-DTM_0005_proc_4" style="stroke:#181818;stroke-width:1;stroke-dasharray:7,7;"/><polygon fill="#181818" points="5310.68,286.9269,5302.379,281.6266,5305.7362,286.1795,5301.1832,289.5367,5310.68,286.9269" style="stroke:#181818;stroke-width:1;"/><text fill="#000000" font-family="sans-serif" font-size="13" lengthAdjust="spacing" textLength="91.6221" x="4785.81" y="233.1438">eingebettet in</text></g><!--SRC=[pPJRRjD048Rl-nHp2L9Y-P0YiAgW7a9K82ab9PLwOwtZSRAglOvsroq4yJOy1dTzCMOTfpaugLE413V9xCxEplpVpbXpdI2SCOs2wOGfQCBPLS-tRVlmO4HhPPQ1MSBt0u0-Iz6dtz54yj64WYAcyvGSdsGsGwNG9nleaZxgcSZrB1TZnKA9euaWitJswAJIc2GeGjIIOrWzSuB52Te0v08bQEFdQZH10Hyo4VDnBfdccO0NlS79op9iC4KfJL0k8kW8hHPhSuc2Oq4N93aLgWv-R0WCKZKEd59cAT27y_xmulmKNEjrH0vAhF6hNaEWjCnlTIuDXJWnUp4caG_l6UsSPX4g7xp3Xicp2ce7eaOjdSlS-1QL1RtpRc2g2zxX945vcqc9ffp0jTr3s_4SQnh59FRn7PlDzgPc7-vGtjDheWOkjd5nd-1Y_STW0W9ZIBJiLywRMXBk7YIyJHANNowkEWDmB8_zPH3FdO76Szf_oMikeE3b11xRraWjntMyMdpU7lXQc_W-TouflS4N_cDyAqZcHIsGX7C4jbq_IwqQ15EPZMZWZewCGMMsstCUkpwNNLJaeee6McPflpDibDRDaBmtkM9fYYAc77JUXskE4EVYreZYA3L4jB7zSfZTboYCtmmKyf0WcSxvo356oOH-kohMijeL8Rv1EqOArxlrkXMzTQFyABkdmkuseVIsr1-cOeX8GldeP4iuNagyewVTaYf1hZJvKLXFwtFtq-TLzFr1wwr9Rj3mNcyLtf79myzSermNFijbDIbD_up7PTRT5OJ8Yu1qarNH40tZLrEEYRedW_hhuPSqvuc6ESe9ewPlIn7xZQBJ6gZUVb1R5QZF-hYj3qvtEDoZYpeYQkgiQVuMN0knPeZMajEOKQTDKAu1LyKaiMKPDI1Q5H2_0G00]--></g></svg>