<svg xmlns="http://www.w3.org/2000/svg" xmlns:xlink="http://www.w3.org/1999/xlink" contentStyleType="text/css" data-diagram-type="CLASS" height="387px" preserveAspectRatio="none" style="width:1978px;height:387px;background:#FFFFFF;" version="1.1" viewBox="0 0 1978 387" width="1978px" zoomAndPan="magnify"><title>Datenatlas - DTM:00005</title><defs/><g><g class="title" data-source-line="1"><text fill="#000000" font-family="sans-serif" font-size="14" font-weight="bold" lengthAdjust="spacing" textLength="190.9072" x="886.9446" y="22.9951">Datenatlas - DTM:00005</text></g><!--class DTM_00005--><g class="entity" data-entity="DTM_00005" data-source-line="2" data-uid="ent0002" id="entity_DTM_00005"><rect fill="#F1F1F1" height="113.1875" rx="2.5" ry="2.5" style="stroke:#181818;stroke-width:0.5;" width="360.3525" x="629.3" y="44.2969"/><ellipse cx="763.7526" cy="60.2969" fill="#ADD1B2" rx="11" ry="11" style="stroke:#181818;stroke-width:1;"/><path d="M766.7214,65.9375 Q766.1433,66.2344 765.5026,66.375 Q764.862,66.5313 764.1589,66.5313 Q761.6589,66.5313 760.3308,64.8906 Q759.0183,63.2344 759.0183,60.1094 Q759.0183,56.9844 760.3308,55.3281 Q761.6589,53.6719 764.1589,53.6719 Q764.862,53.6719 765.5026,53.8281 Q766.1589,53.9844 766.7214,54.2813 L766.7214,57 Q766.0964,56.4219 765.5026,56.1563 Q764.9089,55.875 764.2839,55.875 Q762.9401,55.875 762.2526,56.9531 Q761.5651,58.0156 761.5651,60.1094 Q761.5651,62.2031 762.2526,63.2813 Q762.9401,64.3438 764.2839,64.3438 Q764.9089,64.3438 765.5026,64.0781 Q766.0964,63.7969 766.7214,63.2188 L766.7214,65.9375 Z " fill="#000000"/><text fill="#000000" font-family="sans-serif" font-size="14" lengthAdjust="spacing" textLength="82.9473" x="784.2526" y="65.1436">DTM_00005</text><line style="stroke:#181818;stroke-width:0.5;" x1="630.3" x2="988.6525" y1="76.2969" y2="76.2969"/><text fill="#000000" font-family="sans-serif" font-size="14" lengthAdjust="spacing" textLength="180.749" x="649.3" y="93.292">Name: Nachrichtendatum</text><text fill="#000000" font-family="sans-serif" font-size="14" lengthAdjust="spacing" textLength="66.6436" x="649.3" y="109.5889">Prozesse:</text><rect fill="none" height="6" style="stroke:#C82930;stroke-width:1;" width="6" x="637.3" y="119.5391"/><text fill="#000000" font-family="sans-serif" font-size="14" lengthAdjust="spacing" textLength="334.3525" x="649.3" y="125.8857">Anforderung und &#220;bermittlung von Messwerten</text><rect fill="none" height="6" style="stroke:#C82930;stroke-width:1;" width="6" x="637.3" y="135.8359"/><text fill="#000000" font-family="sans-serif" font-size="14" lengthAdjust="spacing" textLength="180.3457" x="649.3" y="142.1826">Netznutzungsabrechnung</text><line style="stroke:#181818;stroke-width:0.5;" x1="630.3" x2="988.6525" y1="149.4844" y2="149.4844"/></g><!--class DTM_00005_msg_1--><g class="entity" data-entity="DTM_00005_msg_1" data-source-line="8" data-uid="ent0003" id="entity_DTM_00005_msg_1"><rect fill="#F1F1F1" height="145.7813" rx="2.5" ry="2.5" style="stroke:#181818;stroke-width:0.5;" width="432.9502" x="7" y="234.4869"/><ellipse cx="151.3887" cy="250.4869" fill="#ADD1B2" rx="11" ry="11" style="stroke:#181818;stroke-width:1;"/><path d="M154.3574,256.1275 Q153.7793,256.4244 153.1387,256.565 Q152.498,256.7213 151.7949,256.7213 Q149.2949,256.7213 147.9668,255.0806 Q146.6543,253.4244 146.6543,250.2994 Q146.6543,247.1744 147.9668,245.5181 Q149.2949,243.8619 151.7949,243.8619 Q152.498,243.8619 153.1387,244.0181 Q153.7949,244.1744 154.3574,244.4713 L154.3574,247.19 Q153.7324,246.6119 153.1387,246.3463 Q152.5449,246.065 151.9199,246.065 Q150.5762,246.065 149.8887,247.1431 Q149.2012,248.2056 149.2012,250.2994 Q149.2012,252.3931 149.8887,253.4713 Q150.5762,254.5338 151.9199,254.5338 Q152.5449,254.5338 153.1387,254.2681 Q153.7324,253.9869 154.3574,253.4088 L154.3574,256.1275 Z " fill="#000000"/><text fill="#000000" font-family="sans-serif" font-size="14" lengthAdjust="spacing" textLength="135.6729" x="171.8887" y="255.3336">DTM_00005_msg_1</text><line style="stroke:#181818;stroke-width:0.5;" x1="8" x2="438.9502" y1="266.4869" y2="266.4869"/><text fill="#000000" font-family="sans-serif" font-size="14" lengthAdjust="spacing" textLength="172.0264" x="13" y="283.482">Nachricht: MSCONS 2.4c</text><text fill="#000000" font-family="sans-serif" font-size="14" lengthAdjust="spacing" textLength="204.1143" x="13" y="299.7789">Kontext: Nachrichtenstruktur</text><text fill="#000000" font-family="sans-serif" font-size="14" lengthAdjust="spacing" textLength="91.4033" x="13" y="316.0757">Pflichtfeld: Ja</text><text fill="#000000" font-family="sans-serif" font-size="14" lengthAdjust="spacing" textLength="121.2559" x="13" y="332.3726">Codes: DTM, SG1</text><text fill="#000000" font-family="sans-serif" font-size="14" lengthAdjust="spacing" textLength="405.4463" x="13" y="348.6695">Prozesse: Anforderung und &#220;bermittlung von Messwerten</text><text fill="#000000" font-family="sans-serif" font-size="14" lengthAdjust="spacing" textLength="420.9502" x="13" y="364.9664">Quelle: MSCONS_MIG_2_4c_au&#223;erordentliche_20240726.pdf</text><line style="stroke:#181818;stroke-width:0.5;" x1="8" x2="438.9502" y1="372.2681" y2="372.2681"/></g><!--class DTM_00005_msg_2--><g class="entity" data-entity="DTM_00005_msg_2" data-source-line="17" data-uid="ent0005" id="entity_DTM_00005_msg_2"><rect fill="#F1F1F1" height="145.7813" rx="2.5" ry="2.5" style="stroke:#181818;stroke-width:0.5;" width="296.4365" x="475.26" y="234.4869"/><ellipse cx="551.3918" cy="250.4869" fill="#ADD1B2" rx="11" ry="11" style="stroke:#181818;stroke-width:1;"/><path d="M554.3606,256.1275 Q553.7825,256.4244 553.1418,256.565 Q552.5012,256.7213 551.7981,256.7213 Q549.2981,256.7213 547.97,255.0806 Q546.6575,253.4244 546.6575,250.2994 Q546.6575,247.1744 547.97,245.5181 Q549.2981,243.8619 551.7981,243.8619 Q552.5012,243.8619 553.1418,244.0181 Q553.7981,244.1744 554.3606,244.4713 L554.3606,247.19 Q553.7356,246.6119 553.1418,246.3463 Q552.5481,246.065 551.9231,246.065 Q550.5793,246.065 549.8918,247.1431 Q549.2043,248.2056 549.2043,250.2994 Q549.2043,252.3931 549.8918,253.4713 Q550.5793,254.5338 551.9231,254.5338 Q552.5481,254.5338 553.1418,254.2681 Q553.7356,253.9869 554.3606,253.4088 L554.3606,256.1275 Z " fill="#000000"/><text fill="#000000" font-family="sans-serif" font-size="14" lengthAdjust="spacing" textLength="135.6729" x="571.8918" y="255.3336">DTM_00005_msg_2</text><line style="stroke:#181818;stroke-width:0.5;" x1="476.26" x2="770.6965" y1="266.4869" y2="266.4869"/><text fill="#000000" font-family="sans-serif" font-size="14" lengthAdjust="spacing" textLength="162.2988" x="481.26" y="283.482">Nachricht: PRICAT 2.0d</text><text fill="#000000" font-family="sans-serif" font-size="14" lengthAdjust="spacing" textLength="204.1143" x="481.26" y="299.7789">Kontext: Nachrichtenstruktur</text><text fill="#000000" font-family="sans-serif" font-size="14" lengthAdjust="spacing" textLength="91.4033" x="481.26" y="316.0757">Pflichtfeld: Ja</text><text fill="#000000" font-family="sans-serif" font-size="14" lengthAdjust="spacing" textLength="210.3076" x="481.26" y="332.3726">Codes: 005, 35, 99, DTM, SG1</text><text fill="#000000" font-family="sans-serif" font-size="14" lengthAdjust="spacing" textLength="251.4395" x="481.26" y="348.6695">Prozesse: Netznutzungsabrechnung</text><text fill="#000000" font-family="sans-serif" font-size="14" lengthAdjust="spacing" textLength="284.4365" x="481.26" y="364.9664">Quelle: PRICAT_MIG_2_0d_20240619.pdf</text><line style="stroke:#181818;stroke-width:0.5;" x1="476.26" x2="770.6965" y1="372.2681" y2="372.2681"/></g><!--class DTM_00005_proc_1--><g class="entity" data-entity="DTM_00005_proc_1" data-source-line="26" data-uid="ent0007" id="entity_DTM_00005_proc_1"><rect fill="#F1F1F1" height="105.1563" rx="2.5" ry="2.5" style="stroke:#181818;stroke-width:0.5;" width="378.2285" x="806.36" y="254.7969"/><ellipse cx="922.8444" cy="274.9297" fill="#ADD1B2" rx="11" ry="11" style="stroke:#181818;stroke-width:1;"/><path d="M925.8131,280.5703 Q925.235,280.8672 924.5944,281.0078 Q923.9538,281.1641 923.2506,281.1641 Q920.7506,281.1641 919.4225,279.5234 Q918.11,277.8672 918.11,274.7422 Q918.11,271.6172 919.4225,269.9609 Q920.7506,268.3047 923.2506,268.3047 Q923.9538,268.3047 924.5944,268.4609 Q925.2506,268.6172 925.8131,268.9141 L925.8131,271.6328 Q925.1881,271.0547 924.5944,270.7891 Q924.0006,270.5078 923.3756,270.5078 Q922.0319,270.5078 921.3444,271.5859 Q920.6569,272.6484 920.6569,274.7422 Q920.6569,276.8359 921.3444,277.9141 Q922.0319,278.9766 923.3756,278.9766 Q924.0006,278.9766 924.5944,278.7109 Q925.1881,278.4297 925.8131,277.8516 L925.8131,280.5703 Z " fill="#000000"/><text fill="#000000" font-family="sans-serif" font-size="12" font-style="italic" lengthAdjust="spacing" textLength="61.0605" x="981.194" y="270.9355">&#171;process&#187;</text><text fill="#000000" font-family="sans-serif" font-size="14" lengthAdjust="spacing" textLength="136.7598" x="943.3444" y="286.7607">DTM_00005_proc_1</text><line style="stroke:#181818;stroke-width:0.5;" x1="807.36" x2="1183.5885" y1="295.0625" y2="295.0625"/><text fill="#000000" font-family="sans-serif" font-size="14" lengthAdjust="spacing" textLength="334.3525" x="812.36" y="312.0576">Anforderung und &#220;bermittlung von Messwerten</text><text fill="#000000" font-family="sans-serif" font-size="14" lengthAdjust="spacing" textLength="105.0957" x="812.36" y="328.3545">Gesetze: MsbG</text><line style="stroke:#181818;stroke-width:0.5;" x1="807.36" x2="1183.5885" y1="335.6563" y2="335.6563"/><text fill="#000000" font-family="sans-serif" font-size="14" lengthAdjust="spacing" textLength="366.2285" x="812.36" y="352.6514">Zusammenfassung: Wie kann ein Marktpartner (z.B.</text></g><!--class DTM_00005_proc_2--><g class="entity" data-entity="DTM_00005_proc_2" data-source-line="32" data-uid="ent0009" id="entity_DTM_00005_proc_2"><rect fill="#F1F1F1" height="105.1563" rx="2.5" ry="2.5" style="stroke:#181818;stroke-width:0.5;" width="752.6465" x="1219.15" y="254.7969"/><ellipse cx="1522.8434" cy="274.9297" fill="#ADD1B2" rx="11" ry="11" style="stroke:#181818;stroke-width:1;"/><path d="M1525.8121,280.5703 Q1525.234,280.8672 1524.5934,281.0078 Q1523.9527,281.1641 1523.2496,281.1641 Q1520.7496,281.1641 1519.4215,279.5234 Q1518.109,277.8672 1518.109,274.7422 Q1518.109,271.6172 1519.4215,269.9609 Q1520.7496,268.3047 1523.2496,268.3047 Q1523.9527,268.3047 1524.5934,268.4609 Q1525.2496,268.6172 1525.8121,268.9141 L1525.8121,271.6328 Q1525.1871,271.0547 1524.5934,270.7891 Q1523.9996,270.5078 1523.3746,270.5078 Q1522.0309,270.5078 1521.3434,271.5859 Q1520.6559,272.6484 1520.6559,274.7422 Q1520.6559,276.8359 1521.3434,277.9141 Q1522.0309,278.9766 1523.3746,278.9766 Q1523.9996,278.9766 1524.5934,278.7109 Q1525.1871,278.4297 1525.8121,277.8516 L1525.8121,280.5703 Z " fill="#000000"/><text fill="#000000" font-family="sans-serif" font-size="12" font-style="italic" lengthAdjust="spacing" textLength="61.0605" x="1581.193" y="270.9355">&#171;process&#187;</text><text fill="#000000" font-family="sans-serif" font-size="14" lengthAdjust="spacing" textLength="136.7598" x="1543.3434" y="286.7607">DTM_00005_proc_2</text><line style="stroke:#181818;stroke-width:0.5;" x1="1220.15" x2="1970.7965" y1="295.0625" y2="295.0625"/><text fill="#000000" font-family="sans-serif" font-size="14" lengthAdjust="spacing" textLength="180.3457" x="1225.15" y="312.0576">Netznutzungsabrechnung</text><text fill="#000000" font-family="sans-serif" font-size="14" lengthAdjust="spacing" textLength="218.0938" x="1225.15" y="328.3545">Gesetze: StromNEV, StromNZV</text><text fill="#000000" font-family="sans-serif" font-size="14" lengthAdjust="spacing" textLength="740.6465" x="1225.15" y="344.6514">Zusammenfassung: Wie funktioniert die Netznutzungsabrechnung zwischen Netzbetreiber und Lieferant?</text><line style="stroke:#181818;stroke-width:0.5;" x1="1220.15" x2="1970.7965" y1="351.9531" y2="351.9531"/></g><!--link DTM_00005 to DTM_00005_msg_1--><g class="link" data-entity-1="DTM_00005" data-entity-2="DTM_00005_msg_1" data-source-line="16" data-uid="lnk4" id="link_DTM_00005_DTM_00005_msg_1"><path codeLine="16" d="M648.96,157.9069 C581.61,181.4069 508.105,207.06 436.435,232.07" fill="none" id="DTM_00005-to-DTM_00005_msg_1" style="stroke:#181818;stroke-width:1;"/><polygon fill="#181818" points="430.77,234.0469,440.5854,234.8582,435.4908,232.3995,437.9496,227.3049,430.77,234.0469" style="stroke:#181818;stroke-width:1;"/><text fill="#000000" font-family="sans-serif" font-size="13" lengthAdjust="spacing" textLength="85.2363" x="553.48" y="200.5538">verwendet in</text></g><!--link DTM_00005 to DTM_00005_msg_2--><g class="link" data-entity-1="DTM_00005" data-entity-2="DTM_00005_msg_2" data-source-line="25" data-uid="lnk6" id="link_DTM_00005_DTM_00005_msg_2"><path codeLine="25" d="M758.65,157.7669 C737.25,181.2969 716.0978,204.5488 693.2978,229.6088" fill="none" id="DTM_00005-to-DTM_00005_msg_2" style="stroke:#181818;stroke-width:1;"/><polygon fill="#181818" points="689.26,234.0469,698.2754,230.0817,692.6248,230.3485,692.358,224.698,689.26,234.0469" style="stroke:#181818;stroke-width:1;"/><text fill="#000000" font-family="sans-serif" font-size="13" lengthAdjust="spacing" textLength="85.2363" x="729.48" y="200.5538">verwendet in</text></g><!--link DTM_00005 to DTM_00005_proc_1--><g class="link" data-entity-1="DTM_00005" data-entity-2="DTM_00005_proc_1" data-source-line="31" data-uid="lnk8" id="link_DTM_00005_DTM_00005_proc_1"><path codeLine="31" d="M860.3,157.7669 C887.73,187.9169 917.3328,220.4683 944.1828,249.9883" fill="none" id="DTM_00005-to-DTM_00005_proc_1" style="stroke:#181818;stroke-width:1;stroke-dasharray:7,7;"/><polygon fill="#181818" points="948.22,254.4269,945.1233,245.0775,944.8557,250.728,939.2052,250.4604,948.22,254.4269" style="stroke:#181818;stroke-width:1;"/><text fill="#000000" font-family="sans-serif" font-size="13" lengthAdjust="spacing" textLength="91.6221" x="903.48" y="200.5538">eingebettet in</text></g><!--link DTM_00005 to DTM_00005_proc_2--><g class="link" data-entity-1="DTM_00005" data-entity-2="DTM_00005_proc_2" data-source-line="37" data-uid="lnk10" id="link_DTM_00005_DTM_00005_proc_2"><path codeLine="37" d="M989.8,148.8069 C1110.93,180.3169 1264.8133,220.3562 1389.8133,252.8762" fill="none" id="DTM_00005-to-DTM_00005_proc_2" style="stroke:#181818;stroke-width:1;stroke-dasharray:7,7;"/><polygon fill="#181818" points="1395.62,254.3869,1387.9171,248.2497,1390.7811,253.128,1385.9028,255.992,1395.62,254.3869" style="stroke:#181818;stroke-width:1;"/><text fill="#000000" font-family="sans-serif" font-size="13" lengthAdjust="spacing" textLength="91.6221" x="1203.48" y="200.5538">eingebettet in</text></g><!--SRC=[fP9lRzem4CRVyodkvLv053pM2QkYQkc4kWtMZQgJ-YOooGKi4WVPvp9bsZUPj0_JBxOppTQrGFzeaHATpxwxv_SufAb0E5M4Hb6X77JWz68iOtxUj59EkB1EDclutWAOg18bVzE5rUc2op95lkIDSrlLw1nAZe7R79kyiXbQR-RWJGOtFsTeIqrKXCnrPM3CnzTekKTJCa6gZQUQ3pWrivWk38Uj7m-59AMR9zr6JYD4mdWw_3IPWeXwAMzyg0pXDxedrP7rI_8sgCsBaCkno2IyLvmPLXaw6OQqOJhg_alqKfRF7ei2_oXAncUZH2IzD57-vXVQqCbG68-9Y4KlVYiEebMMC-UTrPtEO8jNmZNQDJkE1DhiD4KyDENyozdm-89DYRF_C8NRj-4rl_r-UxT3UwxkpejR8OqNSNPBVj3jFuDSF4M-ibNA_XmUXe3r30OR6rvuQoDq316kpSr6lBxoJfKbcfo7SO64hnfXgOm1r5ogx99Mof912w_gw2IwHn55Wss1CbJESOP4Zu28BP2zvlwLF2LRbPDtb-qckhhS1v1xioHT6StOa75YTtEerzhn7ses-wpOecRtDZv-r9YZLOQEda8MMyY_0G00]--></g></svg>