<svg xmlns="http://www.w3.org/2000/svg" xmlns:xlink="http://www.w3.org/1999/xlink" contentStyleType="text/css" data-diagram-type="CLASS" height="370px" preserveAspectRatio="none" style="width:1116px;height:370px;background:#FFFFFF;" version="1.1" viewBox="0 0 1116 370" width="1116px" zoomAndPan="magnify"><title>Datenatlas - EBD:E_0267</title><defs/><g><g class="title" data-source-line="1"><text fill="#000000" font-family="sans-serif" font-size="14" font-weight="bold" lengthAdjust="spacing" textLength="194.4824" x="454.112" y="22.9951">Datenatlas - EBD:E_0267</text></g><!--class EBD_E_0267--><g class="entity" data-entity="EBD_E_0267" data-source-line="2" data-uid="ent0002" id="entity_EBD_E_0267"><rect fill="#F1F1F1" height="96.8906" rx="2.5" ry="2.5" style="stroke:#181818;stroke-width:0.5;" width="888.7705" x="7" y="44.2969"/><ellipse cx="403.2827" cy="60.2969" fill="#ADD1B2" rx="11" ry="11" style="stroke:#181818;stroke-width:1;"/><path d="M406.2515,65.9375 Q405.6733,66.2344 405.0327,66.375 Q404.3921,66.5313 403.689,66.5313 Q401.189,66.5313 399.8608,64.8906 Q398.5483,63.2344 398.5483,60.1094 Q398.5483,56.9844 399.8608,55.3281 Q401.189,53.6719 403.689,53.6719 Q404.3921,53.6719 405.0327,53.8281 Q405.689,53.9844 406.2515,54.2813 L406.2515,57 Q405.6265,56.4219 405.0327,56.1563 Q404.439,55.875 403.814,55.875 Q402.4702,55.875 401.7827,56.9531 Q401.0952,58.0156 401.0952,60.1094 Q401.0952,62.2031 401.7827,63.2813 Q402.4702,64.3438 403.814,64.3438 Q404.439,64.3438 405.0327,64.0781 Q405.6265,63.7969 406.2515,63.2188 L406.2515,65.9375 Z " fill="#000000"/><text fill="#000000" font-family="sans-serif" font-size="14" lengthAdjust="spacing" textLength="87.7051" x="423.7827" y="65.1436">EBD_E_0267</text><line style="stroke:#181818;stroke-width:0.5;" x1="8" x2="894.7705" y1="76.2969" y2="76.2969"/><text fill="#000000" font-family="sans-serif" font-size="14" lengthAdjust="spacing" textLength="66.6436" x="27" y="93.292">Prozesse:</text><rect fill="none" height="6" style="stroke:#C82930;stroke-width:1;" width="6" x="15" y="103.2422"/><text fill="#000000" font-family="sans-serif" font-size="14" lengthAdjust="spacing" textLength="180.3457" x="27" y="109.5889">Netznutzungsabrechnung</text><line style="stroke:#181818;stroke-width:0.5;" x1="8" x2="894.7705" y1="116.8906" y2="116.8906"/><text fill="#000000" font-family="sans-serif" font-size="14" lengthAdjust="spacing" textLength="876.7705" x="13" y="133.8857">Name: EBD Nr. E_0267 zur Pr&#252;fung f&#252;r die Antwort auf eine Stornierung (Abrechnung einer f&#252;r den ESA erbrachten Leistung)</text></g><!--class EBD_E_0267_msg_1--><g class="entity" data-entity="EBD_E_0267_msg_1" data-source-line="7" data-uid="ent0003" id="entity_EBD_E_0267_msg_1"><rect fill="#F1F1F1" height="145.7813" rx="2.5" ry="2.5" style="stroke:#181818;stroke-width:0.5;" width="303.0811" x="18.84" y="218.1869"/><ellipse cx="95.9152" cy="234.1869" fill="#ADD1B2" rx="11" ry="11" style="stroke:#181818;stroke-width:1;"/><path d="M98.8839,239.8275 Q98.3058,240.1244 97.6652,240.265 Q97.0246,240.4213 96.3214,240.4213 Q93.8214,240.4213 92.4933,238.7806 Q91.1808,237.1244 91.1808,233.9994 Q91.1808,230.8744 92.4933,229.2181 Q93.8214,227.5619 96.3214,227.5619 Q97.0246,227.5619 97.6652,227.7181 Q98.3214,227.8744 98.8839,228.1713 L98.8839,230.89 Q98.2589,230.3119 97.6652,230.0463 Q97.0714,229.765 96.4464,229.765 Q95.1027,229.765 94.4152,230.8431 Q93.7277,231.9056 93.7277,233.9994 Q93.7277,236.0931 94.4152,237.1713 Q95.1027,238.2338 96.4464,238.2338 Q97.0714,238.2338 97.6652,237.9681 Q98.2589,237.6869 98.8839,237.1088 L98.8839,239.8275 Z " fill="#000000"/><text fill="#000000" font-family="sans-serif" font-size="14" lengthAdjust="spacing" textLength="140.4307" x="116.4152" y="239.0336">EBD_E_0267_msg_1</text><line style="stroke:#181818;stroke-width:0.5;" x1="19.84" x2="320.9211" y1="250.1869" y2="250.1869"/><text fill="#000000" font-family="sans-serif" font-size="14" lengthAdjust="spacing" textLength="171.4932" x="24.84" y="267.182">Nachricht: REMADV 2.9c</text><text fill="#000000" font-family="sans-serif" font-size="14" lengthAdjust="spacing" textLength="170.3447" x="24.84" y="283.4789">Kontext: Segmentlayout</text><text fill="#000000" font-family="sans-serif" font-size="14" lengthAdjust="spacing" textLength="110.5439" x="24.84" y="299.7757">Pflichtfeld: Nein</text><text fill="#000000" font-family="sans-serif" font-size="14" lengthAdjust="spacing" textLength="282.1943" x="24.84" y="316.0726">Codes: EBD, ESA, LF, MGV, MSB, NB, NN</text><text fill="#000000" font-family="sans-serif" font-size="14" lengthAdjust="spacing" textLength="251.4395" x="24.84" y="332.3695">Prozesse: Netznutzungsabrechnung</text><text fill="#000000" font-family="sans-serif" font-size="14" lengthAdjust="spacing" textLength="291.0811" x="24.84" y="348.6664">Quelle: REMADV_MIG_2.9c_20231024.pdf</text><line style="stroke:#181818;stroke-width:0.5;" x1="19.84" x2="320.9211" y1="355.9681" y2="355.9681"/></g><!--class EBD_E_0267_proc_1--><g class="entity" data-entity="EBD_E_0267_proc_1" data-source-line="16" data-uid="ent0005" id="entity_EBD_E_0267_proc_1"><rect fill="#F1F1F1" height="105.1563" rx="2.5" ry="2.5" style="stroke:#181818;stroke-width:0.5;" width="752.6465" x="357.06" y="238.4969"/><ellipse cx="658.3745" cy="258.6297" fill="#ADD1B2" rx="11" ry="11" style="stroke:#181818;stroke-width:1;"/><path d="M661.3432,264.2703 Q660.7651,264.5672 660.1245,264.7078 Q659.4838,264.8641 658.7807,264.8641 Q656.2807,264.8641 654.9526,263.2234 Q653.6401,261.5672 653.6401,258.4422 Q653.6401,255.3172 654.9526,253.6609 Q656.2807,252.0047 658.7807,252.0047 Q659.4838,252.0047 660.1245,252.1609 Q660.7807,252.3172 661.3432,252.6141 L661.3432,255.3328 Q660.7182,254.7547 660.1245,254.4891 Q659.5307,254.2078 658.9057,254.2078 Q657.562,254.2078 656.8745,255.2859 Q656.187,256.3484 656.187,258.4422 Q656.187,260.5359 656.8745,261.6141 Q657.562,262.6766 658.9057,262.6766 Q659.5307,262.6766 660.1245,262.4109 Q660.7182,262.1297 661.3432,261.5516 L661.3432,264.2703 Z " fill="#000000"/><text fill="#000000" font-family="sans-serif" font-size="12" font-style="italic" lengthAdjust="spacing" textLength="61.0605" x="719.103" y="254.6355">&#171;process&#187;</text><text fill="#000000" font-family="sans-serif" font-size="14" lengthAdjust="spacing" textLength="141.5176" x="678.8745" y="270.4607">EBD_E_0267_proc_1</text><line style="stroke:#181818;stroke-width:0.5;" x1="358.06" x2="1108.7065" y1="278.7625" y2="278.7625"/><text fill="#000000" font-family="sans-serif" font-size="14" lengthAdjust="spacing" textLength="180.3457" x="363.06" y="295.7576">Netznutzungsabrechnung</text><text fill="#000000" font-family="sans-serif" font-size="14" lengthAdjust="spacing" textLength="218.0938" x="363.06" y="312.0545">Gesetze: StromNEV, StromNZV</text><text fill="#000000" font-family="sans-serif" font-size="14" lengthAdjust="spacing" textLength="740.6465" x="363.06" y="328.3514">Zusammenfassung: Wie funktioniert die Netznutzungsabrechnung zwischen Netzbetreiber und Lieferant?</text><line style="stroke:#181818;stroke-width:0.5;" x1="358.06" x2="1108.7065" y1="335.6531" y2="335.6531"/></g><!--link EBD_E_0267 to EBD_E_0267_msg_1--><g class="link" data-entity-1="EBD_E_0267" data-entity-2="EBD_E_0267_msg_1" data-source-line="15" data-uid="lnk4" id="link_EBD_E_0267_EBD_E_0267_msg_1"><path codeLine="15" d="M383,141.5169 C350.19,164.4469 315.0886,188.9707 278.6586,214.4207" fill="none" id="EBD_E_0267-to-EBD_E_0267_msg_1" style="stroke:#181818;stroke-width:1;"/><polygon fill="#181818" points="273.74,217.8569,283.4087,215.9817,277.8389,214.9934,278.8272,209.4236,273.74,217.8569" style="stroke:#181818;stroke-width:1;"/><text fill="#000000" font-family="sans-serif" font-size="13" lengthAdjust="spacing" textLength="85.2363" x="337.39" y="184.2538">verwendet in</text></g><!--link EBD_E_0267 to EBD_E_0267_proc_1--><g class="link" data-entity-1="EBD_E_0267" data-entity-2="EBD_E_0267_proc_1" data-source-line="21" data-uid="lnk6" id="link_EBD_E_0267_EBD_E_0267_proc_1"><path codeLine="21" d="M520.01,141.5169 C561.99,170.7469 610.7965,204.7177 653.8265,234.6877" fill="none" id="EBD_E_0267-to-EBD_E_0267_proc_1" style="stroke:#181818;stroke-width:1;stroke-dasharray:7,7;"/><polygon fill="#181818" points="658.75,238.1169,653.6509,229.6908,654.6471,235.2592,649.0786,236.2555,658.75,238.1169" style="stroke:#181818;stroke-width:1;"/><text fill="#000000" font-family="sans-serif" font-size="13" lengthAdjust="spacing" textLength="91.6221" x="585.39" y="184.2538">eingebettet in</text></g><!--SRC=[TLB1Rjf04Btp5NDi9R30gLhLYeX8SL1Li6Wj4OcBjTXZMCNUZMR7fNNKF-EM7-iia8W8Sl1gzDvuvhsPOSqLmbWn6iMLSj23-7OSnLa__FobamlYF90T07Zg02IgniY3a500Hw9j2ERql2iRiuRoUKTGQ8IHuQqb1jMKWDeWf6p9Q2IVzM6q8imtniUUfED_Q21EHu2q8fLlH1XCKJkMj8_IVKwsHUSmaXX4ROBScePRePrwBTZvTwOzgzqw6nmTv1lIKZk2N_5iD5v067pDXVXX3UCVWLDSrsXa87zjmxvhMVdy4giYafRQ2FRD5kZsW-XwmLsOtdLXDbd8azvs8V5VSghuFQq0FnkiAdnHays-JpAlA0lxuTMW7tuA7ejIB9qiejSRddkBu3VI5as132BnR0AFP7D9kxxsWKWQ3W_ZU4_M19rGeYjbidKIYxL3j5m8ksoSgcLAfNIH_0ZkPUEo_mVMrk-OzoTmkJYqM-toZUpMyojaGhsI2sXC0LED9P8oVFFMSX0CBvY9_EsiKKhmtlL_]--></g></svg>