<svg xmlns="http://www.w3.org/2000/svg" xmlns:xlink="http://www.w3.org/1999/xlink" contentStyleType="text/css" data-diagram-type="CLASS" height="370px" preserveAspectRatio="none" style="width:1038px;height:370px;background:#FFFFFF;" version="1.1" viewBox="0 0 1038 370" width="1038px" zoomAndPan="magnify"><title>Datenatlas - FII:3432</title><defs/><g><g class="title" data-source-line="1"><text fill="#000000" font-family="sans-serif" font-size="14" font-weight="bold" lengthAdjust="spacing" textLength="166.0449" x="429.3773" y="22.9951">Datenatlas - FII:3432</text></g><!--class FII_3432--><g class="entity" data-entity="FII_3432" data-source-line="2" data-uid="ent0002" id="entity_FII_3432"><rect fill="#F1F1F1" height="96.8906" rx="2.5" ry="2.5" style="stroke:#181818;stroke-width:0.5;" width="249.8633" x="322.69" y="44.2969"/><ellipse cx="413.9019" cy="60.2969" fill="#ADD1B2" rx="11" ry="11" style="stroke:#181818;stroke-width:1;"/><path d="M416.8707,65.9375 Q416.2925,66.2344 415.6519,66.375 Q415.0113,66.5313 414.3082,66.5313 Q411.8082,66.5313 410.48,64.8906 Q409.1675,63.2344 409.1675,60.1094 Q409.1675,56.9844 410.48,55.3281 Q411.8082,53.6719 414.3082,53.6719 Q415.0113,53.6719 415.6519,53.8281 Q416.3082,53.9844 416.8707,54.2813 L416.8707,57 Q416.2457,56.4219 415.6519,56.1563 Q415.0582,55.875 414.4332,55.875 Q413.0894,55.875 412.4019,56.9531 Q411.7144,58.0156 411.7144,60.1094 Q411.7144,62.2031 412.4019,63.2813 Q413.0894,64.3438 414.4332,64.3438 Q415.0582,64.3438 415.6519,64.0781 Q416.2457,63.7969 416.8707,63.2188 L416.8707,65.9375 Z " fill="#000000"/><text fill="#000000" font-family="sans-serif" font-size="14" lengthAdjust="spacing" textLength="58.9395" x="434.4019" y="65.1436">FII_3432</text><line style="stroke:#181818;stroke-width:0.5;" x1="323.69" x2="571.5533" y1="76.2969" y2="76.2969"/><text fill="#000000" font-family="sans-serif" font-size="14" lengthAdjust="spacing" textLength="223.8633" x="342.69" y="93.292">Name: Name des Kreditinstituts</text><text fill="#000000" font-family="sans-serif" font-size="14" lengthAdjust="spacing" textLength="66.6436" x="342.69" y="109.5889">Prozesse:</text><rect fill="none" height="6" style="stroke:#C82930;stroke-width:1;" width="6" x="330.69" y="119.5391"/><text fill="#000000" font-family="sans-serif" font-size="14" lengthAdjust="spacing" textLength="158.0127" x="342.69" y="125.8857">Stammdaten&#228;nderung</text><line style="stroke:#181818;stroke-width:0.5;" x1="323.69" x2="571.5533" y1="133.1875" y2="133.1875"/></g><!--class FII_3432_msg_1--><g class="entity" data-entity="FII_3432_msg_1" data-source-line="7" data-uid="ent0003" id="entity_FII_3432_msg_1"><rect fill="#F1F1F1" height="145.7813" rx="2.5" ry="2.5" style="stroke:#181818;stroke-width:0.5;" width="351.2471" x="7" y="218.1869"/><ellipse cx="122.541" cy="234.1869" fill="#ADD1B2" rx="11" ry="11" style="stroke:#181818;stroke-width:1;"/><path d="M125.5098,239.8275 Q124.9316,240.1244 124.291,240.265 Q123.6504,240.4213 122.9473,240.4213 Q120.4473,240.4213 119.1191,238.7806 Q117.8066,237.1244 117.8066,233.9994 Q117.8066,230.8744 119.1191,229.2181 Q120.4473,227.5619 122.9473,227.5619 Q123.6504,227.5619 124.291,227.7181 Q124.9473,227.8744 125.5098,228.1713 L125.5098,230.89 Q124.8848,230.3119 124.291,230.0463 Q123.6973,229.765 123.0723,229.765 Q121.7285,229.765 121.041,230.8431 Q120.3535,231.9056 120.3535,233.9994 Q120.3535,236.0931 121.041,237.1713 Q121.7285,238.2338 123.0723,238.2338 Q123.6973,238.2338 124.291,237.9681 Q124.8848,237.6869 125.5098,237.1088 L125.5098,239.8275 Z " fill="#000000"/><text fill="#000000" font-family="sans-serif" font-size="14" lengthAdjust="spacing" textLength="111.665" x="143.041" y="239.0336">FII_3432_msg_1</text><line style="stroke:#181818;stroke-width:0.5;" x1="8" x2="357.2471" y1="250.1869" y2="250.1869"/><text fill="#000000" font-family="sans-serif" font-size="14" lengthAdjust="spacing" textLength="162.7227" x="13" y="267.182">Nachricht: PARTIN 1.0e</text><text fill="#000000" font-family="sans-serif" font-size="14" lengthAdjust="spacing" textLength="123.0605" x="13" y="283.4789">Kontext: Beispiel:</text><text fill="#000000" font-family="sans-serif" font-size="14" lengthAdjust="spacing" textLength="110.5439" x="13" y="299.7757">Pflichtfeld: Nein</text><text fill="#000000" font-family="sans-serif" font-size="14" lengthAdjust="spacing" textLength="339.2471" x="13" y="316.0726">Codes: 10, 11, 17, 35, 70, BIC, BK, FII, OCR, SG4</text><text fill="#000000" font-family="sans-serif" font-size="14" lengthAdjust="spacing" textLength="229.1064" x="13" y="332.3695">Prozesse: Stammdaten&#228;nderung</text><text fill="#000000" font-family="sans-serif" font-size="14" lengthAdjust="spacing" textLength="284.8604" x="13" y="348.6664">Quelle: PARTIN_MIG_1_0e_20241001.pdf</text><line style="stroke:#181818;stroke-width:0.5;" x1="8" x2="357.2471" y1="355.9681" y2="355.9681"/></g><!--class FII_3432_proc_1--><g class="entity" data-entity="FII_3432_proc_1" data-source-line="16" data-uid="ent0005" id="entity_FII_3432_proc_1"><rect fill="#F1F1F1" height="88.8594" rx="2.5" ry="2.5" style="stroke:#181818;stroke-width:0.5;" width="638.3496" x="393.45" y="246.6469"/><ellipse cx="651.9988" cy="266.7797" fill="#ADD1B2" rx="11" ry="11" style="stroke:#181818;stroke-width:1;"/><path d="M654.9676,272.4203 Q654.3895,272.7172 653.7488,272.8578 Q653.1082,273.0141 652.4051,273.0141 Q649.9051,273.0141 648.577,271.3734 Q647.2645,269.7172 647.2645,266.5922 Q647.2645,263.4672 648.577,261.8109 Q649.9051,260.1547 652.4051,260.1547 Q653.1082,260.1547 653.7488,260.3109 Q654.4051,260.4672 654.9676,260.7641 L654.9676,263.4828 Q654.3426,262.9047 653.7488,262.6391 Q653.1551,262.3578 652.5301,262.3578 Q651.1863,262.3578 650.4988,263.4359 Q649.8113,264.4984 649.8113,266.5922 Q649.8113,268.6859 650.4988,269.7641 Q651.1863,270.8266 652.5301,270.8266 Q653.1551,270.8266 653.7488,270.5609 Q654.3426,270.2797 654.9676,269.7016 L654.9676,272.4203 Z " fill="#000000"/><text fill="#000000" font-family="sans-serif" font-size="12" font-style="italic" lengthAdjust="spacing" textLength="61.0605" x="698.3445" y="262.7855">&#171;process&#187;</text><text fill="#000000" font-family="sans-serif" font-size="14" lengthAdjust="spacing" textLength="112.752" x="672.4988" y="278.6107">FII_3432_proc_1</text><line style="stroke:#181818;stroke-width:0.5;" x1="394.45" x2="1030.7996" y1="286.9125" y2="286.9125"/><text fill="#000000" font-family="sans-serif" font-size="14" lengthAdjust="spacing" textLength="158.0127" x="399.45" y="303.9076">Stammdaten&#228;nderung</text><text fill="#000000" font-family="sans-serif" font-size="14" lengthAdjust="spacing" textLength="626.3496" x="399.45" y="320.2045">Zusammenfassung: Wie wird eine Stammdaten&#228;nderung an einer Marktlokation, wie z.B.</text><line style="stroke:#181818;stroke-width:0.5;" x1="394.45" x2="1030.7996" y1="327.5063" y2="327.5063"/></g><!--link FII_3432 to FII_3432_msg_1--><g class="link" data-entity-1="FII_3432" data-entity-2="FII_3432_msg_1" data-source-line="15" data-uid="lnk4" id="link_FII_3432_FII_3432_msg_1"><path codeLine="15" d="M383.14,141.5169 C352.19,164.4469 319.271,188.835 284.921,214.285" fill="none" id="FII_3432-to-FII_3432_msg_1" style="stroke:#181818;stroke-width:1;"/><polygon fill="#181818" points="280.1,217.8569,289.7127,215.7131,284.1175,214.8803,284.9502,209.2851,280.1,217.8569" style="stroke:#181818;stroke-width:1;"/><text fill="#000000" font-family="sans-serif" font-size="13" lengthAdjust="spacing" textLength="85.2363" x="340.62" y="184.2538">verwendet in</text></g><!--link FII_3432 to FII_3432_proc_1--><g class="link" data-entity-1="FII_3432" data-entity-2="FII_3432_proc_1" data-source-line="20" data-uid="lnk6" id="link_FII_3432_FII_3432_proc_1"><path codeLine="20" d="M512.11,141.5169 C555.31,173.5269 606.929,211.775 648.919,242.885" fill="none" id="FII_3432-to-FII_3432_proc_1" style="stroke:#181818;stroke-width:1;stroke-dasharray:7,7;"/><polygon fill="#181818" points="653.74,246.4569,648.8897,237.8851,649.7225,243.4803,644.1273,244.3131,653.74,246.4569" style="stroke:#181818;stroke-width:1;"/><text fill="#000000" font-family="sans-serif" font-size="13" lengthAdjust="spacing" textLength="91.6221" x="573.62" y="184.2538">eingebettet in</text></g><!--SRC=[RP1TQi904CVVFSKS88QiMeH5X6gf1D5QMoZq9MoJYIvkDh8xgSNIs_GclLXdGrl4-h33pjT_VZEaoI3SA4Aho2WFNRXDKzaVz7kTd7qVt2ouyDu1MAeAPMkXG0zpXuKcRJrfQiXpmShLH_GU9V-1nHv8LLKHvBy-RO6kiPlEnvboLlbD9dxqywtJ-POahAxNZ-aIH9mW9-Qr9NpZy0IrtsiqOS2gDA6sH5Cm56hBiMdDO1944e4G_8OHzAyY6B8_IQTivb4O7C7TT1t1msnm2dqH5-2-GMFm5obRfBDCP0bclQGt44aYudrHybP_b-fsn-VBINX5Tq3M963EimFiNPrpqMWKFamo7hVNk4ppt7WEeorPWYCIdZJ2GRi2-09ugGcKRNCE5ihjoDGxHRgs4NSX7ED9V0eVn-D_O3AqR_05YLh-Rm00]--></g></svg>