<svg xmlns="http://www.w3.org/2000/svg" xmlns:xlink="http://www.w3.org/1999/xlink" contentStyleType="text/css" data-diagram-type="CLASS" height="370px" preserveAspectRatio="none" style="width:1038px;height:370px;background:#FFFFFF;" version="1.1" viewBox="0 0 1038 370" width="1038px" zoomAndPan="magnify"><title>Datenatlas - FII:C078</title><defs/><g><g class="title" data-source-line="1"><text fill="#000000" font-family="sans-serif" font-size="14" font-weight="bold" lengthAdjust="spacing" textLength="166.5781" x="429.1107" y="22.9951">Datenatlas - FII:C078</text></g><!--class FII_C078--><g class="entity" data-entity="FII_C078" data-source-line="2" data-uid="ent0002" id="entity_FII_C078"><rect fill="#F1F1F1" height="96.8906" rx="2.5" ry="2.5" style="stroke:#181818;stroke-width:0.5;" width="303.8057" x="295.72" y="44.2969"/><ellipse cx="413.469" cy="60.2969" fill="#ADD1B2" rx="11" ry="11" style="stroke:#181818;stroke-width:1;"/><path d="M416.4378,65.9375 Q415.8596,66.2344 415.219,66.375 Q414.5784,66.5313 413.8753,66.5313 Q411.3753,66.5313 410.0471,64.8906 Q408.7346,63.2344 408.7346,60.1094 Q408.7346,56.9844 410.0471,55.3281 Q411.3753,53.6719 413.8753,53.6719 Q414.5784,53.6719 415.219,53.8281 Q415.8753,53.9844 416.4378,54.2813 L416.4378,57 Q415.8128,56.4219 415.219,56.1563 Q414.6253,55.875 414.0003,55.875 Q412.6565,55.875 411.969,56.9531 Q411.2815,58.0156 411.2815,60.1094 Q411.2815,62.2031 411.969,63.2813 Q412.6565,64.3438 414.0003,64.3438 Q414.6253,64.3438 415.219,64.0781 Q415.8128,63.7969 416.4378,63.2188 L416.4378,65.9375 Z " fill="#000000"/><text fill="#000000" font-family="sans-serif" font-size="14" lengthAdjust="spacing" textLength="59.8076" x="433.969" y="65.1436">FII_C078</text><line style="stroke:#181818;stroke-width:0.5;" x1="296.72" x2="598.5257" y1="76.2969" y2="76.2969"/><text fill="#000000" font-family="sans-serif" font-size="14" lengthAdjust="spacing" textLength="277.8057" x="315.72" y="93.292">Name: Identifikation des Kontoinhabers</text><text fill="#000000" font-family="sans-serif" font-size="14" lengthAdjust="spacing" textLength="66.6436" x="315.72" y="109.5889">Prozesse:</text><rect fill="none" height="6" style="stroke:#C82930;stroke-width:1;" width="6" x="303.72" y="119.5391"/><text fill="#000000" font-family="sans-serif" font-size="14" lengthAdjust="spacing" textLength="158.0127" x="315.72" y="125.8857">Stammdaten&#228;nderung</text><line style="stroke:#181818;stroke-width:0.5;" x1="296.72" x2="598.5257" y1="133.1875" y2="133.1875"/></g><!--class FII_C078_msg_1--><g class="entity" data-entity="FII_C078_msg_1" data-source-line="7" data-uid="ent0003" id="entity_FII_C078_msg_1"><rect fill="#F1F1F1" height="145.7813" rx="2.5" ry="2.5" style="stroke:#181818;stroke-width:0.5;" width="351.2471" x="7" y="218.1869"/><ellipse cx="122.1069" cy="234.1869" fill="#ADD1B2" rx="11" ry="11" style="stroke:#181818;stroke-width:1;"/><path d="M125.0757,239.8275 Q124.4976,240.1244 123.8569,240.265 Q123.2163,240.4213 122.5132,240.4213 Q120.0132,240.4213 118.6851,238.7806 Q117.3726,237.1244 117.3726,233.9994 Q117.3726,230.8744 118.6851,229.2181 Q120.0132,227.5619 122.5132,227.5619 Q123.2163,227.5619 123.8569,227.7181 Q124.5132,227.8744 125.0757,228.1713 L125.0757,230.89 Q124.4507,230.3119 123.8569,230.0463 Q123.2632,229.765 122.6382,229.765 Q121.2944,229.765 120.6069,230.8431 Q119.9194,231.9056 119.9194,233.9994 Q119.9194,236.0931 120.6069,237.1713 Q121.2944,238.2338 122.6382,238.2338 Q123.2632,238.2338 123.8569,237.9681 Q124.4507,237.6869 125.0757,237.1088 L125.0757,239.8275 Z " fill="#000000"/><text fill="#000000" font-family="sans-serif" font-size="14" lengthAdjust="spacing" textLength="112.5332" x="142.6069" y="239.0336">FII_C078_msg_1</text><line style="stroke:#181818;stroke-width:0.5;" x1="8" x2="357.2471" y1="250.1869" y2="250.1869"/><text fill="#000000" font-family="sans-serif" font-size="14" lengthAdjust="spacing" textLength="162.7227" x="13" y="267.182">Nachricht: PARTIN 1.0e</text><text fill="#000000" font-family="sans-serif" font-size="14" lengthAdjust="spacing" textLength="123.0605" x="13" y="283.4789">Kontext: Beispiel:</text><text fill="#000000" font-family="sans-serif" font-size="14" lengthAdjust="spacing" textLength="110.5439" x="13" y="299.7757">Pflichtfeld: Nein</text><text fill="#000000" font-family="sans-serif" font-size="14" lengthAdjust="spacing" textLength="339.2471" x="13" y="316.0726">Codes: 10, 11, 17, 35, 70, BIC, BK, FII, OCR, SG4</text><text fill="#000000" font-family="sans-serif" font-size="14" lengthAdjust="spacing" textLength="229.1064" x="13" y="332.3695">Prozesse: Stammdaten&#228;nderung</text><text fill="#000000" font-family="sans-serif" font-size="14" lengthAdjust="spacing" textLength="284.8604" x="13" y="348.6664">Quelle: PARTIN_MIG_1_0e_20241001.pdf</text><line style="stroke:#181818;stroke-width:0.5;" x1="8" x2="357.2471" y1="355.9681" y2="355.9681"/></g><!--class FII_C078_proc_1--><g class="entity" data-entity="FII_C078_proc_1" data-source-line="16" data-uid="ent0005" id="entity_FII_C078_proc_1"><rect fill="#F1F1F1" height="88.8594" rx="2.5" ry="2.5" style="stroke:#181818;stroke-width:0.5;" width="638.3496" x="393.45" y="246.6469"/><ellipse cx="651.5647" cy="266.7797" fill="#ADD1B2" rx="11" ry="11" style="stroke:#181818;stroke-width:1;"/><path d="M654.5335,272.4203 Q653.9554,272.7172 653.3147,272.8578 Q652.6741,273.0141 651.971,273.0141 Q649.471,273.0141 648.1429,271.3734 Q646.8304,269.7172 646.8304,266.5922 Q646.8304,263.4672 648.1429,261.8109 Q649.471,260.1547 651.971,260.1547 Q652.6741,260.1547 653.3147,260.3109 Q653.971,260.4672 654.5335,260.7641 L654.5335,263.4828 Q653.9085,262.9047 653.3147,262.6391 Q652.721,262.3578 652.096,262.3578 Q650.7522,262.3578 650.0647,263.4359 Q649.3772,264.4984 649.3772,266.5922 Q649.3772,268.6859 650.0647,269.7641 Q650.7522,270.8266 652.096,270.8266 Q652.721,270.8266 653.3147,270.5609 Q653.9085,270.2797 654.5335,269.7016 L654.5335,272.4203 Z " fill="#000000"/><text fill="#000000" font-family="sans-serif" font-size="12" font-style="italic" lengthAdjust="spacing" textLength="61.0605" x="698.3445" y="262.7855">&#171;process&#187;</text><text fill="#000000" font-family="sans-serif" font-size="14" lengthAdjust="spacing" textLength="113.6201" x="672.0647" y="278.6107">FII_C078_proc_1</text><line style="stroke:#181818;stroke-width:0.5;" x1="394.45" x2="1030.7996" y1="286.9125" y2="286.9125"/><text fill="#000000" font-family="sans-serif" font-size="14" lengthAdjust="spacing" textLength="158.0127" x="399.45" y="303.9076">Stammdaten&#228;nderung</text><text fill="#000000" font-family="sans-serif" font-size="14" lengthAdjust="spacing" textLength="626.3496" x="399.45" y="320.2045">Zusammenfassung: Wie wird eine Stammdaten&#228;nderung an einer Marktlokation, wie z.B.</text><line style="stroke:#181818;stroke-width:0.5;" x1="394.45" x2="1030.7996" y1="327.5063" y2="327.5063"/></g><!--link FII_C078 to FII_C078_msg_1--><g class="link" data-entity-1="FII_C078" data-entity-2="FII_C078_msg_1" data-source-line="15" data-uid="lnk4" id="link_FII_C078_FII_C078_msg_1"><path codeLine="15" d="M383.14,141.5169 C352.19,164.4469 319.271,188.835 284.921,214.285" fill="none" id="FII_C078-to-FII_C078_msg_1" style="stroke:#181818;stroke-width:1;"/><polygon fill="#181818" points="280.1,217.8569,289.7127,215.7131,284.1175,214.8803,284.9502,209.2851,280.1,217.8569" style="stroke:#181818;stroke-width:1;"/><text fill="#000000" font-family="sans-serif" font-size="13" lengthAdjust="spacing" textLength="85.2363" x="340.62" y="184.2538">verwendet in</text></g><!--link FII_C078 to FII_C078_proc_1--><g class="link" data-entity-1="FII_C078" data-entity-2="FII_C078_proc_1" data-source-line="20" data-uid="lnk6" id="link_FII_C078_FII_C078_proc_1"><path codeLine="20" d="M512.11,141.5169 C555.31,173.5269 606.929,211.775 648.919,242.885" fill="none" id="FII_C078-to-FII_C078_proc_1" style="stroke:#181818;stroke-width:1;stroke-dasharray:7,7;"/><polygon fill="#181818" points="653.74,246.4569,648.8897,237.8851,649.7225,243.4803,644.1273,244.3131,653.74,246.4569" style="stroke:#181818;stroke-width:1;"/><text fill="#000000" font-family="sans-serif" font-size="13" lengthAdjust="spacing" textLength="91.6221" x="573.62" y="184.2538">eingebettet in</text></g><!--SRC=[RP5TQW8n4CVVFSKSO5qsrc89ib2tL1RHMXKAVGbnTrQ3sQmaiHPBRzERz6ATs0_4-f2G-Vp_PkALrmXtqgEHNai7RRZFSvublPjMGROBfWWclBK09h963dc9ngjARQHNZO4I7OmQunjbrdA9rb7Yr3O7T0uvlO6QphsiwpB8V7wO4ktEh5hlPmgYTYl1VdIAjLN5sdEOtiuM-GHOd205WWw-adk0ocqLwY0mhNJ8hL2N72Qe3FcoXh0ui2G2nkZq8hYwZg17zY3Fw1f5GJY2XsmMmNpOFOM-Y0lmk4EjyHT9ZFEXO291qKawNPOaBDwM5Ktrjx5sEpqVZiCBsZrIJm_4URQ0hMqAIkhtmuD8qlIuZSiqppj7RZGLjI0FXoU5i5Us1De0NYe2QOun2sDfDruttnyOKHN28Hx4f_1ndFu3uw5yXKlq_iZ_1G00]--></g></svg>