<svg xmlns="http://www.w3.org/2000/svg" xmlns:xlink="http://www.w3.org/1999/xlink" contentStyleType="text/css" data-diagram-type="CLASS" height="322px" preserveAspectRatio="none" style="width:310px;height:322px;background:#FFFFFF;" version="1.1" viewBox="0 0 310 322" width="310px" zoomAndPan="magnify"><title>Datenatlas - FTX:00019</title><defs/><g><g class="title" data-source-line="1"><text fill="#000000" font-family="sans-serif" font-size="14" font-weight="bold" lengthAdjust="spacing" textLength="185.7119" x="55.4375" y="22.9951">Datenatlas - FTX:00019</text></g><!--class FTX_00019--><g class="entity" data-entity="FTX_00019" data-source-line="2" data-uid="ent0002" id="entity_FTX_00019"><rect fill="#F1F1F1" height="64.2969" rx="2.5" ry="2.5" style="stroke:#181818;stroke-width:0.5;" width="201.4102" x="54.59" y="44.2969"/><ellipse cx="112.1794" cy="60.2969" fill="#ADD1B2" rx="11" ry="11" style="stroke:#181818;stroke-width:1;"/><path d="M115.1481,65.9375 Q114.57,66.2344 113.9294,66.375 Q113.2887,66.5313 112.5856,66.5313 Q110.0856,66.5313 108.7575,64.8906 Q107.445,63.2344 107.445,60.1094 Q107.445,56.9844 108.7575,55.3281 Q110.0856,53.6719 112.5856,53.6719 Q113.2887,53.6719 113.9294,53.8281 Q114.5856,53.9844 115.1481,54.2813 L115.1481,57 Q114.5231,56.4219 113.9294,56.1563 Q113.3356,55.875 112.7106,55.875 Q111.3669,55.875 110.6794,56.9531 Q109.9919,58.0156 109.9919,60.1094 Q109.9919,62.2031 110.6794,63.2813 Q111.3669,64.3438 112.7106,64.3438 Q113.3356,64.3438 113.9294,64.0781 Q114.5231,63.7969 115.1481,63.2188 L115.1481,65.9375 Z " fill="#000000"/><text fill="#000000" font-family="sans-serif" font-size="14" lengthAdjust="spacing" textLength="77.7314" x="132.6794" y="65.1436">FTX_00019</text><line style="stroke:#181818;stroke-width:0.5;" x1="55.59" x2="255.0002" y1="76.2969" y2="76.2969"/><text fill="#000000" font-family="sans-serif" font-size="14" lengthAdjust="spacing" textLength="189.4102" x="60.59" y="93.292">Name: Fehlerbeschreibung</text><line style="stroke:#181818;stroke-width:0.5;" x1="55.59" x2="255.0002" y1="100.5938" y2="100.5938"/></g><!--class FTX_00019_msg_1--><g class="entity" data-entity="FTX_00019_msg_1" data-source-line="5" data-uid="ent0003" id="entity_FTX_00019_msg_1"><rect fill="#F1F1F1" height="129.4844" rx="2.5" ry="2.5" style="stroke:#181818;stroke-width:0.5;" width="296.5869" x="7" y="185.5969"/><ellipse cx="85.8149" cy="201.5969" fill="#ADD1B2" rx="11" ry="11" style="stroke:#181818;stroke-width:1;"/><path d="M88.7837,207.2375 Q88.2056,207.5344 87.5649,207.675 Q86.9243,207.8312 86.2212,207.8312 Q83.7212,207.8312 82.3931,206.1906 Q81.0806,204.5344 81.0806,201.4094 Q81.0806,198.2844 82.3931,196.6281 Q83.7212,194.9719 86.2212,194.9719 Q86.9243,194.9719 87.5649,195.1281 Q88.2212,195.2844 88.7837,195.5812 L88.7837,198.3 Q88.1587,197.7219 87.5649,197.4562 Q86.9712,197.175 86.3462,197.175 Q85.0024,197.175 84.3149,198.2531 Q83.6274,199.3156 83.6274,201.4094 Q83.6274,203.5031 84.3149,204.5812 Q85.0024,205.6437 86.3462,205.6437 Q86.9712,205.6437 87.5649,205.3781 Q88.1587,205.0969 88.7837,204.5187 L88.7837,207.2375 Z " fill="#000000"/><text fill="#000000" font-family="sans-serif" font-size="14" lengthAdjust="spacing" textLength="130.457" x="106.3149" y="206.4436">FTX_00019_msg_1</text><line style="stroke:#181818;stroke-width:0.5;" x1="8" x2="302.5869" y1="217.5969" y2="217.5969"/><text fill="#000000" font-family="sans-serif" font-size="14" lengthAdjust="spacing" textLength="162.4492" x="13" y="234.592">Nachricht: APERAK 2.1i</text><text fill="#000000" font-family="sans-serif" font-size="14" lengthAdjust="spacing" textLength="204.1143" x="13" y="250.8889">Kontext: Nachrichtenstruktur</text><text fill="#000000" font-family="sans-serif" font-size="14" lengthAdjust="spacing" textLength="110.5439" x="13" y="267.1857">Pflichtfeld: Nein</text><text fill="#000000" font-family="sans-serif" font-size="14" lengthAdjust="spacing" textLength="78.4971" x="13" y="283.4826">Codes: FTX</text><text fill="#000000" font-family="sans-serif" font-size="14" lengthAdjust="spacing" textLength="284.5869" x="13" y="299.7795">Quelle: APERAK_MIG_2_1i_20240619.pdf</text><line style="stroke:#181818;stroke-width:0.5;" x1="8" x2="302.5869" y1="307.0812" y2="307.0812"/></g><!--link FTX_00019 to FTX_00019_msg_1--><g class="link" data-entity-1="FTX_00019" data-entity-2="FTX_00019_msg_1" data-source-line="12" data-uid="lnk4" id="link_FTX_00019_FTX_00019_msg_1"><path codeLine="12" d="M155.29,108.9669 C155.29,130.2969 155.29,153.2069 155.29,179.2569" fill="none" id="FTX_00019-to-FTX_00019_msg_1" style="stroke:#181818;stroke-width:1;"/><polygon fill="#181818" points="155.29,185.2569,159.29,176.2569,155.29,180.2569,151.29,176.2569,155.29,185.2569" style="stroke:#181818;stroke-width:1;"/><text fill="#000000" font-family="sans-serif" font-size="13" lengthAdjust="spacing" textLength="85.2363" x="156.29" y="151.6638">verwendet in</text></g><!--SRC=[POz1Qy9048Nl-HNp1oAxeGZkeI1LYuYYfGTlIqnUpEAwokwa5Kh_UoVILj3ZU- -RcJVis8Cc9IEKxCj4EStUjqOffKTP9KRgjRrg-ig8LkKHXcPeFU8EgMeZtAuB- -px7hV7jBVwTqWuLxLiQBoUleqNL0oqas1n2eoBsFy4GkBO7RYB4gyRttiDV2q8N13lvLGZcVwCY4q7x_6trIxdhxQmsjb25Kzgg4U3Szr8iziBUVxyqD3G1-8dGWqc5tu0]--></g></svg>