<svg xmlns="http://www.w3.org/2000/svg" xmlns:xlink="http://www.w3.org/1999/xlink" contentStyleType="text/css" data-diagram-type="CLASS" height="370px" preserveAspectRatio="none" style="width:1782px;height:370px;background:#FFFFFF;" version="1.1" viewBox="0 0 1782 370" width="1782px" zoomAndPan="magnify"><title>Datenatlas - FTX:00008</title><defs/><g><g class="title" data-source-line="1"><text fill="#000000" font-family="sans-serif" font-size="14" font-weight="bold" lengthAdjust="spacing" textLength="185.7119" x="791.4671" y="22.9951">Datenatlas - FTX:00008</text></g><!--class FTX_00008--><g class="entity" data-entity="FTX_00008" data-source-line="2" data-uid="ent0002" id="entity_FTX_00008"><rect fill="#F1F1F1" height="96.8906" rx="2.5" ry="2.5" style="stroke:#181818;stroke-width:0.5;" width="459.0498" x="444.12" y="44.2969"/><ellipse cx="630.5292" cy="60.2969" fill="#ADD1B2" rx="11" ry="11" style="stroke:#181818;stroke-width:1;"/><path d="M633.4979,65.9375 Q632.9198,66.2344 632.2792,66.375 Q631.6386,66.5313 630.9354,66.5313 Q628.4354,66.5313 627.1073,64.8906 Q625.7948,63.2344 625.7948,60.1094 Q625.7948,56.9844 627.1073,55.3281 Q628.4354,53.6719 630.9354,53.6719 Q631.6386,53.6719 632.2792,53.8281 Q632.9354,53.9844 633.4979,54.2813 L633.4979,57 Q632.8729,56.4219 632.2792,56.1563 Q631.6854,55.875 631.0604,55.875 Q629.7167,55.875 629.0292,56.9531 Q628.3417,58.0156 628.3417,60.1094 Q628.3417,62.2031 629.0292,63.2813 Q629.7167,64.3438 631.0604,64.3438 Q631.6854,64.3438 632.2792,64.0781 Q632.8729,63.7969 633.4979,63.2188 L633.4979,65.9375 Z " fill="#000000"/><text fill="#000000" font-family="sans-serif" font-size="14" lengthAdjust="spacing" textLength="77.7314" x="651.0292" y="65.1436">FTX_00008</text><line style="stroke:#181818;stroke-width:0.5;" x1="445.12" x2="902.1698" y1="76.2969" y2="76.2969"/><text fill="#000000" font-family="sans-serif" font-size="14" lengthAdjust="spacing" textLength="66.6436" x="450.12" y="93.292">Prozesse:</text><line style="stroke:#181818;stroke-width:0.5;" x1="445.12" x2="902.1698" y1="100.5938" y2="100.5938"/><text fill="#000000" font-family="sans-serif" font-size="14" lengthAdjust="spacing" textLength="433.0498" x="464.12" y="117.5889">Name: Allgemeine Information (Feld f&#252;r allgemeine Hinweise)</text><rect fill="#F24D5C" height="6" style="stroke:#C82930;stroke-width:1;" width="6" x="452.12" y="127.5391"/><text fill="#000000" font-family="sans-serif" font-size="14" lengthAdjust="spacing" textLength="348.2021" x="464.12" y="133.8857">Bestellung einer technischen Konfiguration (MSB)</text></g><!--class FTX_00008_msg_1--><g class="entity" data-entity="FTX_00008_msg_1" data-source-line="7" data-uid="ent0003" id="entity_FTX_00008_msg_1"><rect fill="#F1F1F1" height="145.7813" rx="2.5" ry="2.5" style="stroke:#181818;stroke-width:0.5;" width="431.2959" x="7" y="218.1869"/><ellipse cx="153.1694" cy="234.1869" fill="#ADD1B2" rx="11" ry="11" style="stroke:#181818;stroke-width:1;"/><path d="M156.1382,239.8275 Q155.5601,240.1244 154.9194,240.265 Q154.2788,240.4213 153.5757,240.4213 Q151.0757,240.4213 149.7476,238.7806 Q148.4351,237.1244 148.4351,233.9994 Q148.4351,230.8744 149.7476,229.2181 Q151.0757,227.5619 153.5757,227.5619 Q154.2788,227.5619 154.9194,227.7181 Q155.5757,227.8744 156.1382,228.1713 L156.1382,230.89 Q155.5132,230.3119 154.9194,230.0463 Q154.3257,229.765 153.7007,229.765 Q152.3569,229.765 151.6694,230.8431 Q150.9819,231.9056 150.9819,233.9994 Q150.9819,236.0931 151.6694,237.1713 Q152.3569,238.2338 153.7007,238.2338 Q154.3257,238.2338 154.9194,237.9681 Q155.5132,237.6869 156.1382,237.1088 L156.1382,239.8275 Z " fill="#000000"/><text fill="#000000" font-family="sans-serif" font-size="14" lengthAdjust="spacing" textLength="130.457" x="173.6694" y="239.0336">FTX_00008_msg_1</text><line style="stroke:#181818;stroke-width:0.5;" x1="8" x2="437.2959" y1="250.1869" y2="250.1869"/><text fill="#000000" font-family="sans-serif" font-size="14" lengthAdjust="spacing" textLength="170.1055" x="13" y="267.182">Nachricht: REQOTE 1.3b</text><text fill="#000000" font-family="sans-serif" font-size="14" lengthAdjust="spacing" textLength="204.1143" x="13" y="283.4789">Kontext: Nachrichtenstruktur</text><text fill="#000000" font-family="sans-serif" font-size="14" lengthAdjust="spacing" textLength="110.5439" x="13" y="299.7757">Pflichtfeld: Nein</text><text fill="#000000" font-family="sans-serif" font-size="14" lengthAdjust="spacing" textLength="142.7549" x="13" y="316.0726">Codes: 99, FTX, SG1</text><text fill="#000000" font-family="sans-serif" font-size="14" lengthAdjust="spacing" textLength="292.2432" x="13" y="332.3695">Quelle: REQOTE_MIG_1_3b_20241001.pdf</text><line style="stroke:#181818;stroke-width:0.5;" x1="8" x2="437.2959" y1="339.6713" y2="339.6713"/><text fill="#000000" font-family="sans-serif" font-size="14" lengthAdjust="spacing" textLength="419.2959" x="13" y="356.6664">Prozesse: Bestellung einer technischen Konfiguration (MSB)</text></g><!--class FTX_00008_proc_1--><g class="entity" data-entity="FTX_00008_proc_1" data-source-line="16" data-uid="ent0005" id="entity_FTX_00008_proc_1"><rect fill="#F1F1F1" height="105.1563" rx="2.5" ry="2.5" style="stroke:#181818;stroke-width:0.5;" width="1301.9961" x="473.65" y="238.4969"/><ellipse cx="1054.6261" cy="258.6297" fill="#ADD1B2" rx="11" ry="11" style="stroke:#181818;stroke-width:1;"/><path d="M1057.5948,264.2703 Q1057.0167,264.5672 1056.3761,264.7078 Q1055.7354,264.8641 1055.0323,264.8641 Q1052.5323,264.8641 1051.2042,263.2234 Q1049.8917,261.5672 1049.8917,258.4422 Q1049.8917,255.3172 1051.2042,253.6609 Q1052.5323,252.0047 1055.0323,252.0047 Q1055.7354,252.0047 1056.3761,252.1609 Q1057.0323,252.3172 1057.5948,252.6141 L1057.5948,255.3328 Q1056.9698,254.7547 1056.3761,254.4891 Q1055.7823,254.2078 1055.1573,254.2078 Q1053.8136,254.2078 1053.1261,255.2859 Q1052.4386,256.3484 1052.4386,258.4422 Q1052.4386,260.5359 1053.1261,261.6141 Q1053.8136,262.6766 1055.1573,262.6766 Q1055.7823,262.6766 1056.3761,262.4109 Q1056.9698,262.1297 1057.5948,261.5516 L1057.5948,264.2703 Z " fill="#000000"/><text fill="#000000" font-family="sans-serif" font-size="12" font-style="italic" lengthAdjust="spacing" textLength="61.0605" x="1110.3678" y="254.6355">&#171;process&#187;</text><text fill="#000000" font-family="sans-serif" font-size="14" lengthAdjust="spacing" textLength="131.5439" x="1075.1261" y="270.4607">FTX_00008_proc_1</text><line style="stroke:#181818;stroke-width:0.5;" x1="474.65" x2="1774.6461" y1="278.7625" y2="278.7625"/><text fill="#000000" font-family="sans-serif" font-size="14" lengthAdjust="spacing" textLength="156.4063" x="479.65" y="295.7576">Gesetze: MsbG, EnWG</text><text fill="#000000" font-family="sans-serif" font-size="14" lengthAdjust="spacing" textLength="1289.9961" x="479.65" y="312.0545">Zusammenfassung: Erl&#228;utere den Prozess zur Bestellung einer spezifischen technischen Konfiguration bei einem Messstellenbetreiber, beispielsweise f&#252;r ein intelligentes Messsystem.</text><line style="stroke:#181818;stroke-width:0.5;" x1="474.65" x2="1774.6461" y1="319.3563" y2="319.3563"/><text fill="#000000" font-family="sans-serif" font-size="14" lengthAdjust="spacing" textLength="348.2021" x="479.65" y="336.3514">Bestellung einer technischen Konfiguration (MSB)</text></g><!--link FTX_00008 to FTX_00008_msg_1--><g class="link" data-entity-1="FTX_00008" data-entity-2="FTX_00008_msg_1" data-source-line="15" data-uid="lnk4" id="link_FTX_00008_FTX_00008_msg_1"><path codeLine="15" d="M563.61,141.6469 C511.07,164.5169 452.5712,189.9816 394.2812,215.3616" fill="none" id="FTX_00008-to-FTX_00008_msg_1" style="stroke:#181818;stroke-width:1;"/><polygon fill="#181818" points="388.78,217.7569,398.6286,217.8314,393.3643,215.7608,395.4349,210.4966,388.78,217.7569" style="stroke:#181818;stroke-width:1;"/><text fill="#000000" font-family="sans-serif" font-size="13" lengthAdjust="spacing" textLength="85.2363" x="489.65" y="184.2538">verwendet in</text></g><!--link FTX_00008 to FTX_00008_proc_1--><g class="link" data-entity-1="FTX_00008" data-entity-2="FTX_00008_proc_1" data-source-line="21" data-uid="lnk6" id="link_FTX_00008_FTX_00008_proc_1"><path codeLine="21" d="M783.69,141.6469 C850.7,170.8169 930.8486,205.7122 999.5386,235.6122" fill="none" id="FTX_00008-to-FTX_00008_proc_1" style="stroke:#181818;stroke-width:1;stroke-dasharray:7,7;"/><polygon fill="#181818" points="1005.04,238.0069,998.3844,230.7472,1000.4555,236.0113,995.1914,238.0824,1005.04,238.0069" style="stroke:#181818;stroke-width:1;"/><text fill="#000000" font-family="sans-serif" font-size="13" lengthAdjust="spacing" textLength="91.6221" x="886.65" y="184.2538">eingebettet in</text></g><!--SRC=[dPBDJjj058NtUOgxB59YsT05iL0aVeA9ghIb855rO_dds1an7aTpnz06yJOyHdUy67TC2eM81NZZcJlddllDqJZbDEWeSp2PqndJY8xFVyQXVBk3GWhizsc_fvi1qTUiGKpxMjTee0nePghMDfbJhQ5Fnz0bLVT_BMNFYXDbhg4OMzB-tROhC2EMDScm0x23rfsfoMijEHGBexXOmD2NrbIgxkpQV7vsi3MuVKsLDbodqPgjM5XLB5nCFwQdtywd50KxkHo8aSDlAJyfODZPxj9rraDLsjSgWHU9S4Zji2t1COt7GpzgI6T9z3_- -y69JZjfm3-sT3vBqYZToTFjSFjp58PHi2mhkTzptgFHPEEUCLt1NiEKS2IWhyDOshOGrTwUNmZfPD8dym7Q10ot4jmvvycGfkOYaUglZhEcWQbahBZ5DBNw_gvpiA1IlDO1qQgpcqDvYPMgrbFV9iYX-eQ6vcBLUy3aS1OgXntwSrugQEvVrUDp4xt4uQMgXlpviVUFT3V1Yr23OBAPL-mDQiWGr-Vw0000]--></g></svg>