<svg xmlns="http://www.w3.org/2000/svg" xmlns:xlink="http://www.w3.org/1999/xlink" contentStyleType="text/css" data-diagram-type="CLASS" height="370px" preserveAspectRatio="none" style="width:984px;height:370px;background:#FFFFFF;" version="1.1" viewBox="0 0 984 370" width="984px" zoomAndPan="magnify"><title>Datenatlas - FTX:0260</title><defs/><g><g class="title" data-source-line="1"><text fill="#000000" font-family="sans-serif" font-size="14" font-weight="bold" lengthAdjust="spacing" textLength="175.9707" x="397.3195" y="22.9951">Datenatlas - FTX:0260</text></g><!--class FTX_0260--><g class="entity" data-entity="FTX_0260" data-source-line="2" data-uid="ent0002" id="entity_FTX_0260"><rect fill="#F1F1F1" height="96.8906" rx="2.5" ry="2.5" style="stroke:#181818;stroke-width:0.5;" width="347.6172" x="232.62" y="44.2969"/><ellipse cx="367.7665" cy="60.2969" fill="#ADD1B2" rx="11" ry="11" style="stroke:#181818;stroke-width:1;"/><path d="M370.7352,65.9375 Q370.1571,66.2344 369.5165,66.375 Q368.8759,66.5313 368.1727,66.5313 Q365.6727,66.5313 364.3446,64.8906 Q363.0321,63.2344 363.0321,60.1094 Q363.0321,56.9844 364.3446,55.3281 Q365.6727,53.6719 368.1727,53.6719 Q368.8759,53.6719 369.5165,53.8281 Q370.1727,53.9844 370.7352,54.2813 L370.7352,57 Q370.1102,56.4219 369.5165,56.1563 Q368.9227,55.875 368.2977,55.875 Q366.954,55.875 366.2665,56.9531 Q365.579,58.0156 365.579,60.1094 Q365.579,62.2031 366.2665,63.2813 Q366.954,64.3438 368.2977,64.3438 Q368.9227,64.3438 369.5165,64.0781 Q370.1102,63.7969 370.7352,63.2188 L370.7352,65.9375 Z " fill="#000000"/><text fill="#000000" font-family="sans-serif" font-size="14" lengthAdjust="spacing" textLength="68.8242" x="388.2665" y="65.1436">FTX_0260</text><line style="stroke:#181818;stroke-width:0.5;" x1="233.62" x2="579.2372" y1="76.2969" y2="76.2969"/><text fill="#000000" font-family="sans-serif" font-size="14" lengthAdjust="spacing" textLength="321.6172" x="252.62" y="93.292">Name: Steuernummer, Umsatzsteuernummer</text><text fill="#000000" font-family="sans-serif" font-size="14" lengthAdjust="spacing" textLength="66.6436" x="252.62" y="109.5889">Prozesse:</text><rect fill="none" height="6" style="stroke:#C82930;stroke-width:1;" width="6" x="240.62" y="119.5391"/><text fill="#000000" font-family="sans-serif" font-size="14" lengthAdjust="spacing" textLength="158.0127" x="252.62" y="125.8857">Stammdaten&#228;nderung</text><line style="stroke:#181818;stroke-width:0.5;" x1="233.62" x2="579.2372" y1="133.1875" y2="133.1875"/></g><!--class FTX_0260_msg_1--><g class="entity" data-entity="FTX_0260_msg_1" data-source-line="7" data-uid="ent0003" id="entity_FTX_0260_msg_1"><rect fill="#F1F1F1" height="145.7813" rx="2.5" ry="2.5" style="stroke:#181818;stroke-width:0.5;" width="296.8604" x="7" y="218.1869"/><ellipse cx="90.4053" cy="234.1869" fill="#ADD1B2" rx="11" ry="11" style="stroke:#181818;stroke-width:1;"/><path d="M93.374,239.8275 Q92.7959,240.1244 92.1553,240.265 Q91.5146,240.4213 90.8115,240.4213 Q88.3115,240.4213 86.9834,238.7806 Q85.6709,237.1244 85.6709,233.9994 Q85.6709,230.8744 86.9834,229.2181 Q88.3115,227.5619 90.8115,227.5619 Q91.5146,227.5619 92.1553,227.7181 Q92.8115,227.8744 93.374,228.1713 L93.374,230.89 Q92.749,230.3119 92.1553,230.0463 Q91.5615,229.765 90.9365,229.765 Q89.5928,229.765 88.9053,230.8431 Q88.2178,231.9056 88.2178,233.9994 Q88.2178,236.0931 88.9053,237.1713 Q89.5928,238.2338 90.9365,238.2338 Q91.5615,238.2338 92.1553,237.9681 Q92.749,237.6869 93.374,237.1088 L93.374,239.8275 Z " fill="#000000"/><text fill="#000000" font-family="sans-serif" font-size="14" lengthAdjust="spacing" textLength="121.5498" x="110.9053" y="239.0336">FTX_0260_msg_1</text><line style="stroke:#181818;stroke-width:0.5;" x1="8" x2="302.8604" y1="250.1869" y2="250.1869"/><text fill="#000000" font-family="sans-serif" font-size="14" lengthAdjust="spacing" textLength="162.7227" x="13" y="267.182">Nachricht: PARTIN 1.0e</text><text fill="#000000" font-family="sans-serif" font-size="14" lengthAdjust="spacing" textLength="204.1143" x="13" y="283.4789">Kontext: Nachrichtenstruktur</text><text fill="#000000" font-family="sans-serif" font-size="14" lengthAdjust="spacing" textLength="110.5439" x="13" y="299.7757">Pflichtfeld: Nein</text><text fill="#000000" font-family="sans-serif" font-size="14" lengthAdjust="spacing" textLength="142.7549" x="13" y="316.0726">Codes: 15, FTX, SG6</text><text fill="#000000" font-family="sans-serif" font-size="14" lengthAdjust="spacing" textLength="229.1064" x="13" y="332.3695">Prozesse: Stammdaten&#228;nderung</text><text fill="#000000" font-family="sans-serif" font-size="14" lengthAdjust="spacing" textLength="284.8604" x="13" y="348.6664">Quelle: PARTIN_MIG_1_0e_20241001.pdf</text><line style="stroke:#181818;stroke-width:0.5;" x1="8" x2="302.8604" y1="355.9681" y2="355.9681"/></g><!--class FTX_0260_proc_1--><g class="entity" data-entity="FTX_0260_proc_1" data-source-line="16" data-uid="ent0005" id="entity_FTX_0260_proc_1"><rect fill="#F1F1F1" height="88.8594" rx="2.5" ry="2.5" style="stroke:#181818;stroke-width:0.5;" width="638.3496" x="339.26" y="246.6469"/><ellipse cx="592.8664" cy="266.7797" fill="#ADD1B2" rx="11" ry="11" style="stroke:#181818;stroke-width:1;"/><path d="M595.8352,272.4203 Q595.2571,272.7172 594.6164,272.8578 Q593.9758,273.0141 593.2727,273.0141 Q590.7727,273.0141 589.4446,271.3734 Q588.1321,269.7172 588.1321,266.5922 Q588.1321,263.4672 589.4446,261.8109 Q590.7727,260.1547 593.2727,260.1547 Q593.9758,260.1547 594.6164,260.3109 Q595.2727,260.4672 595.8352,260.7641 L595.8352,263.4828 Q595.2102,262.9047 594.6164,262.6391 Q594.0227,262.3578 593.3977,262.3578 Q592.0539,262.3578 591.3664,263.4359 Q590.6789,264.4984 590.6789,266.5922 Q590.6789,268.6859 591.3664,269.7641 Q592.0539,270.8266 593.3977,270.8266 Q594.0227,270.8266 594.6164,270.5609 Q595.2102,270.2797 595.8352,269.7016 L595.8352,272.4203 Z " fill="#000000"/><text fill="#000000" font-family="sans-serif" font-size="12" font-style="italic" lengthAdjust="spacing" textLength="61.0605" x="644.1545" y="262.7855">&#171;process&#187;</text><text fill="#000000" font-family="sans-serif" font-size="14" lengthAdjust="spacing" textLength="122.6367" x="613.3664" y="278.6107">FTX_0260_proc_1</text><line style="stroke:#181818;stroke-width:0.5;" x1="340.26" x2="976.6096" y1="286.9125" y2="286.9125"/><text fill="#000000" font-family="sans-serif" font-size="14" lengthAdjust="spacing" textLength="158.0127" x="345.26" y="303.9076">Stammdaten&#228;nderung</text><text fill="#000000" font-family="sans-serif" font-size="14" lengthAdjust="spacing" textLength="626.3496" x="345.26" y="320.2045">Zusammenfassung: Wie wird eine Stammdaten&#228;nderung an einer Marktlokation, wie z.B.</text><line style="stroke:#181818;stroke-width:0.5;" x1="340.26" x2="976.6096" y1="327.5063" y2="327.5063"/></g><!--link FTX_0260 to FTX_0260_msg_1--><g class="link" data-entity-1="FTX_0260" data-entity-2="FTX_0260_msg_1" data-source-line="15" data-uid="lnk4" id="link_FTX_0260_FTX_0260_msg_1"><path codeLine="15" d="M345.35,141.5169 C316.04,164.4469 285.0162,188.7105 252.4762,214.1605" fill="none" id="FTX_0260-to-FTX_0260_msg_1" style="stroke:#181818;stroke-width:1;"/><polygon fill="#181818" points="247.75,217.8569,257.3035,215.4631,251.6885,214.7765,252.375,209.1615,247.75,217.8569" style="stroke:#181818;stroke-width:1;"/><text fill="#000000" font-family="sans-serif" font-size="13" lengthAdjust="spacing" textLength="85.2363" x="304.43" y="184.2538">verwendet in</text></g><!--link FTX_0260 to FTX_0260_proc_1--><g class="link" data-entity-1="FTX_0260" data-entity-2="FTX_0260_proc_1" data-source-line="20" data-uid="lnk6" id="link_FTX_0260_FTX_0260_proc_1"><path codeLine="20" d="M467.75,141.5169 C508.84,173.5269 557.777,211.6593 597.707,242.7693" fill="none" id="FTX_0260-to-FTX_0260_proc_1" style="stroke:#181818;stroke-width:1;stroke-dasharray:7,7;"/><polygon fill="#181818" points="602.44,246.4569,597.7988,237.7701,598.4958,243.3839,592.882,244.0809,602.44,246.4569" style="stroke:#181818;stroke-width:1;"/><text fill="#000000" font-family="sans-serif" font-size="13" lengthAdjust="spacing" textLength="91.6221" x="526.43" y="184.2538">eingebettet in</text></g><!--SRC=[RP3TIWCn48Nl-nJp0DibMxGNeIpuWwL8IxMAuas8kxFjqYHRabah5T_6D_75d2nQIkrTvipF-Kwe9eDmhGcT9gC3zE7cuLcAmL3q2gv3B5KiuQC7CDCM9Im8M_IkjHPz0eysQDg50uq7vxxPOGWe-GryT47QsZBQV7-v4dthbhtF8mTbmr9blpx5ojV5YYJCB-uV9ZF8Ke7Sk6qSuJlB-mbqWNoxfhQphKpKAZGbZs3jMBjgIWmIilCaEYMm60yF0K-Y0TorQ0p-sQlfPAmo9L0DnE0i4o9BDsN52VQ_q-_dnq4alA7V8jyaO9AZi1lV53mq6iK7a-Hvb_mqpKiRM4PNyGbM93pL2DlQby0PyTGIQDVrF4orNvDfrfhgnYMyXR1BBzD3-3JD_u79kBx4LoJg-7y0]--></g></svg>