<svg xmlns="http://www.w3.org/2000/svg" xmlns:xlink="http://www.w3.org/1999/xlink" contentStyleType="text/css" data-diagram-type="CLASS" height="436px" preserveAspectRatio="none" style="width:8877px;height:436px;background:#FFFFFF;" version="1.1" viewBox="0 0 8877 436" width="8877px" zoomAndPan="magnify"><title>Datenatlas - FTX:4453</title><defs/><g><g class="title" data-source-line="1"><text fill="#000000" font-family="sans-serif" font-size="14" font-weight="bold" lengthAdjust="spacing" textLength="175.9707" x="4343.9695" y="22.9951">Datenatlas - FTX:4453</text></g><!--class FTX_4453--><g class="entity" data-entity="FTX_4453" data-source-line="2" data-uid="ent0002" id="entity_FTX_4453"><rect fill="#F1F1F1" height="162.0781" rx="2.5" ry="2.5" style="stroke:#181818;stroke-width:0.5;" width="374.2021" x="3590.63" y="44.2969"/><ellipse cx="3739.069" cy="60.2969" fill="#ADD1B2" rx="11" ry="11" style="stroke:#181818;stroke-width:1;"/><path d="M3742.0377,65.9375 Q3741.4596,66.2344 3740.819,66.375 Q3740.1783,66.5313 3739.4752,66.5313 Q3736.9752,66.5313 3735.6471,64.8906 Q3734.3346,63.2344 3734.3346,60.1094 Q3734.3346,56.9844 3735.6471,55.3281 Q3736.9752,53.6719 3739.4752,53.6719 Q3740.1783,53.6719 3740.819,53.8281 Q3741.4752,53.9844 3742.0377,54.2813 L3742.0377,57 Q3741.4127,56.4219 3740.819,56.1563 Q3740.2252,55.875 3739.6002,55.875 Q3738.2565,55.875 3737.569,56.9531 Q3736.8815,58.0156 3736.8815,60.1094 Q3736.8815,62.2031 3737.569,63.2813 Q3738.2565,64.3438 3739.6002,64.3438 Q3740.2252,64.3438 3740.819,64.0781 Q3741.4127,63.7969 3742.0377,63.2188 L3742.0377,65.9375 Z " fill="#000000"/><text fill="#000000" font-family="sans-serif" font-size="14" lengthAdjust="spacing" textLength="68.8242" x="3759.569" y="65.1436">FTX_4453</text><line style="stroke:#181818;stroke-width:0.5;" x1="3591.63" x2="3963.8321" y1="76.2969" y2="76.2969"/><text fill="#000000" font-family="sans-serif" font-size="14" lengthAdjust="spacing" textLength="183.75" x="3610.63" y="93.292">Name: Textfunktion, Code</text><text fill="#000000" font-family="sans-serif" font-size="14" lengthAdjust="spacing" textLength="66.6436" x="3610.63" y="109.5889">Prozesse:</text><rect fill="none" height="6" style="stroke:#C82930;stroke-width:1;" width="6" x="3598.63" y="119.5391"/><text fill="#000000" font-family="sans-serif" font-size="14" lengthAdjust="spacing" textLength="180.3457" x="3610.63" y="125.8857">Netznutzungsabrechnung</text><rect fill="none" height="6" style="stroke:#C82930;stroke-width:1;" width="6" x="3598.63" y="135.8359"/><text fill="#000000" font-family="sans-serif" font-size="14" lengthAdjust="spacing" textLength="223.2822" x="3610.63" y="142.1826">Messstellenbetriebsabrechnung</text><rect fill="none" height="6" style="stroke:#C82930;stroke-width:1;" width="6" x="3598.63" y="152.1328"/><text fill="#000000" font-family="sans-serif" font-size="14" lengthAdjust="spacing" textLength="317.9668" x="3610.63" y="158.4795">Sperrung und Entsperrung eines Anschlusses</text><rect fill="none" height="6" style="stroke:#C82930;stroke-width:1;" width="6" x="3598.63" y="168.4297"/><text fill="#000000" font-family="sans-serif" font-size="14" lengthAdjust="spacing" textLength="158.0127" x="3610.63" y="174.7764">Stammdaten&#228;nderung</text><line style="stroke:#181818;stroke-width:0.5;" x1="3591.63" x2="3963.8321" y1="182.0781" y2="182.0781"/><rect fill="#F24D5C" height="6" style="stroke:#C82930;stroke-width:1;" width="6" x="3598.63" y="192.7266"/><text fill="#000000" font-family="sans-serif" font-size="14" lengthAdjust="spacing" textLength="348.2021" x="3610.63" y="199.0732">Bestellung einer technischen Konfiguration (MSB)</text></g><!--class FTX_4453_msg_1--><g class="entity" data-entity="FTX_4453_msg_1" data-source-line="11" data-uid="ent0003" id="entity_FTX_4453_msg_1"><rect fill="#F1F1F1" height="145.7813" rx="2.5" ry="2.5" style="stroke:#181818;stroke-width:0.5;" width="539.4609" x="7" y="283.3769"/><ellipse cx="211.7056" cy="299.3769" fill="#ADD1B2" rx="11" ry="11" style="stroke:#181818;stroke-width:1;"/><path d="M214.6743,305.0175 Q214.0962,305.3144 213.4556,305.455 Q212.8149,305.6113 212.1118,305.6113 Q209.6118,305.6113 208.2837,303.9706 Q206.9712,302.3144 206.9712,299.1894 Q206.9712,296.0644 208.2837,294.4081 Q209.6118,292.7519 212.1118,292.7519 Q212.8149,292.7519 213.4556,292.9081 Q214.1118,293.0644 214.6743,293.3613 L214.6743,296.08 Q214.0493,295.5019 213.4556,295.2363 Q212.8618,294.955 212.2368,294.955 Q210.8931,294.955 210.2056,296.0331 Q209.5181,297.0956 209.5181,299.1894 Q209.5181,301.2831 210.2056,302.3613 Q210.8931,303.4238 212.2368,303.4238 Q212.8618,303.4238 213.4556,303.1581 Q214.0493,302.8769 214.6743,302.2988 L214.6743,305.0175 Z " fill="#000000"/><text fill="#000000" font-family="sans-serif" font-size="14" lengthAdjust="spacing" textLength="121.5498" x="232.2056" y="304.2236">FTX_4453_msg_1</text><line style="stroke:#181818;stroke-width:0.5;" x1="8" x2="545.4609" y1="315.3769" y2="315.3769"/><text fill="#000000" font-family="sans-serif" font-size="14" lengthAdjust="spacing" textLength="161.998" x="13" y="332.372">Nachricht: INSRPT 1.1a</text><text fill="#000000" font-family="sans-serif" font-size="14" lengthAdjust="spacing" textLength="123.0605" x="13" y="348.6689">Kontext: Beispiel:</text><text fill="#000000" font-family="sans-serif" font-size="14" lengthAdjust="spacing" textLength="110.5439" x="13" y="364.9657">Pflichtfeld: Nein</text><text fill="#000000" font-family="sans-serif" font-size="14" lengthAdjust="spacing" textLength="527.4609" x="13" y="381.2626">Codes: 17, 22, 512, 99, 999, AAO, ACD, DTM, FTX, LIN, SG3, SG7, SG8, STS</text><text fill="#000000" font-family="sans-serif" font-size="14" lengthAdjust="spacing" textLength="251.4395" x="13" y="397.5595">Prozesse: Netznutzungsabrechnung</text><text fill="#000000" font-family="sans-serif" font-size="14" lengthAdjust="spacing" textLength="284.1357" x="13" y="413.8564">Quelle: INSRPT_MIG_1_1a_20211001.pdf</text><line style="stroke:#181818;stroke-width:0.5;" x1="8" x2="545.4609" y1="421.1581" y2="421.1581"/></g><!--class FTX_4453_msg_2--><g class="entity" data-entity="FTX_4453_msg_2" data-source-line="20" data-uid="ent0005" id="entity_FTX_4453_msg_2"><rect fill="#F1F1F1" height="145.7813" rx="2.5" ry="2.5" style="stroke:#181818;stroke-width:0.5;" width="495.6221" x="581.92" y="283.3769"/><ellipse cx="764.7061" cy="299.3769" fill="#ADD1B2" rx="11" ry="11" style="stroke:#181818;stroke-width:1;"/><path d="M767.6749,305.0175 Q767.0968,305.3144 766.4561,305.455 Q765.8155,305.6113 765.1124,305.6113 Q762.6124,305.6113 761.2843,303.9706 Q759.9718,302.3144 759.9718,299.1894 Q759.9718,296.0644 761.2843,294.4081 Q762.6124,292.7519 765.1124,292.7519 Q765.8155,292.7519 766.4561,292.9081 Q767.1124,293.0644 767.6749,293.3613 L767.6749,296.08 Q767.0499,295.5019 766.4561,295.2363 Q765.8624,294.955 765.2374,294.955 Q763.8936,294.955 763.2061,296.0331 Q762.5186,297.0956 762.5186,299.1894 Q762.5186,301.2831 763.2061,302.3613 Q763.8936,303.4238 765.2374,303.4238 Q765.8624,303.4238 766.4561,303.1581 Q767.0499,302.8769 767.6749,302.2988 L767.6749,305.0175 Z " fill="#000000"/><text fill="#000000" font-family="sans-serif" font-size="14" lengthAdjust="spacing" textLength="121.5498" x="785.2061" y="304.2236">FTX_4453_msg_2</text><line style="stroke:#181818;stroke-width:0.5;" x1="582.92" x2="1076.5421" y1="315.3769" y2="315.3769"/><text fill="#000000" font-family="sans-serif" font-size="14" lengthAdjust="spacing" textLength="161.1982" x="587.92" y="332.372">Nachricht: INVOIC 2.8d</text><text fill="#000000" font-family="sans-serif" font-size="14" lengthAdjust="spacing" textLength="123.0605" x="587.92" y="348.6689">Kontext: Beispiel:</text><text fill="#000000" font-family="sans-serif" font-size="14" lengthAdjust="spacing" textLength="110.5439" x="587.92" y="364.9657">Pflichtfeld: Nein</text><text fill="#000000" font-family="sans-serif" font-size="14" lengthAdjust="spacing" textLength="248.6025" x="587.92" y="381.2626">Codes: 17, 99, FTX, OCR, RCH, REG</text><text fill="#000000" font-family="sans-serif" font-size="14" lengthAdjust="spacing" textLength="483.6221" x="587.92" y="397.5595">Prozesse: Netznutzungsabrechnung, Messstellenbetriebsabrechnung</text><text fill="#000000" font-family="sans-serif" font-size="14" lengthAdjust="spacing" textLength="396.6074" x="587.92" y="413.8564">Quelle: INVOIC_MIG_2.8d_Fehlerkorrektur_20250131.pdf</text><line style="stroke:#181818;stroke-width:0.5;" x1="582.92" x2="1076.5421" y1="421.1581" y2="421.1581"/></g><!--class FTX_4453_msg_3--><g class="entity" data-entity="FTX_4453_msg_3" data-source-line="29" data-uid="ent0007" id="entity_FTX_4453_msg_3"><rect fill="#F1F1F1" height="145.7813" rx="2.5" ry="2.5" style="stroke:#181818;stroke-width:0.5;" width="495.6221" x="1112.92" y="283.3769"/><ellipse cx="1295.7061" cy="299.3769" fill="#ADD1B2" rx="11" ry="11" style="stroke:#181818;stroke-width:1;"/><path d="M1298.6749,305.0175 Q1298.0968,305.3144 1297.4561,305.455 Q1296.8155,305.6113 1296.1124,305.6113 Q1293.6124,305.6113 1292.2843,303.9706 Q1290.9718,302.3144 1290.9718,299.1894 Q1290.9718,296.0644 1292.2843,294.4081 Q1293.6124,292.7519 1296.1124,292.7519 Q1296.8155,292.7519 1297.4561,292.9081 Q1298.1124,293.0644 1298.6749,293.3613 L1298.6749,296.08 Q1298.0499,295.5019 1297.4561,295.2363 Q1296.8624,294.955 1296.2374,294.955 Q1294.8936,294.955 1294.2061,296.0331 Q1293.5186,297.0956 1293.5186,299.1894 Q1293.5186,301.2831 1294.2061,302.3613 Q1294.8936,303.4238 1296.2374,303.4238 Q1296.8624,303.4238 1297.4561,303.1581 Q1298.0499,302.8769 1298.6749,302.2988 L1298.6749,305.0175 Z " fill="#000000"/><text fill="#000000" font-family="sans-serif" font-size="14" lengthAdjust="spacing" textLength="121.5498" x="1316.2061" y="304.2236">FTX_4453_msg_3</text><line style="stroke:#181818;stroke-width:0.5;" x1="1113.92" x2="1607.5421" y1="315.3769" y2="315.3769"/><text fill="#000000" font-family="sans-serif" font-size="14" lengthAdjust="spacing" textLength="165.6484" x="1118.92" y="332.372">Nachricht: INVOIC 2.8d.</text><text fill="#000000" font-family="sans-serif" font-size="14" lengthAdjust="spacing" textLength="170.3447" x="1118.92" y="348.6689">Kontext: Segmentlayout</text><text fill="#000000" font-family="sans-serif" font-size="14" lengthAdjust="spacing" textLength="110.5439" x="1118.92" y="364.9657">Pflichtfeld: Nein</text><text fill="#000000" font-family="sans-serif" font-size="14" lengthAdjust="spacing" textLength="248.6025" x="1118.92" y="381.2626">Codes: 17, 99, FTX, OCR, RCH, REG</text><text fill="#000000" font-family="sans-serif" font-size="14" lengthAdjust="spacing" textLength="483.6221" x="1118.92" y="397.5595">Prozesse: Netznutzungsabrechnung, Messstellenbetriebsabrechnung</text><text fill="#000000" font-family="sans-serif" font-size="14" lengthAdjust="spacing" textLength="290.3359" x="1118.92" y="413.8564">Quelle: INVOIC_MIG_2_8d__20240619.pdf</text><line style="stroke:#181818;stroke-width:0.5;" x1="1113.92" x2="1607.5421" y1="421.1581" y2="421.1581"/></g><!--class FTX_4453_msg_4--><g class="entity" data-entity="FTX_4453_msg_4" data-source-line="38" data-uid="ent0009" id="entity_FTX_4453_msg_4"><rect fill="#F1F1F1" height="145.7813" rx="2.5" ry="2.5" style="stroke:#181818;stroke-width:0.5;" width="758.1631" x="1643.65" y="283.3769"/><ellipse cx="1957.7066" cy="299.3769" fill="#ADD1B2" rx="11" ry="11" style="stroke:#181818;stroke-width:1;"/><path d="M1960.6754,305.0175 Q1960.0973,305.3144 1959.4566,305.455 Q1958.816,305.6113 1958.1129,305.6113 Q1955.6129,305.6113 1954.2848,303.9706 Q1952.9723,302.3144 1952.9723,299.1894 Q1952.9723,296.0644 1954.2848,294.4081 Q1955.6129,292.7519 1958.1129,292.7519 Q1958.816,292.7519 1959.4566,292.9081 Q1960.1129,293.0644 1960.6754,293.3613 L1960.6754,296.08 Q1960.0504,295.5019 1959.4566,295.2363 Q1958.8629,294.955 1958.2379,294.955 Q1956.8941,294.955 1956.2066,296.0331 Q1955.5191,297.0956 1955.5191,299.1894 Q1955.5191,301.2831 1956.2066,302.3613 Q1956.8941,303.4238 1958.2379,303.4238 Q1958.8629,303.4238 1959.4566,303.1581 Q1960.0504,302.8769 1960.6754,302.2988 L1960.6754,305.0175 Z " fill="#000000"/><text fill="#000000" font-family="sans-serif" font-size="14" lengthAdjust="spacing" textLength="121.5498" x="1978.2066" y="304.2236">FTX_4453_msg_4</text><line style="stroke:#181818;stroke-width:0.5;" x1="1644.65" x2="2400.8131" y1="315.3769" y2="315.3769"/><text fill="#000000" font-family="sans-serif" font-size="14" lengthAdjust="spacing" textLength="161.793" x="1649.65" y="332.372">Nachricht: ORDRSP 1.4</text><text fill="#000000" font-family="sans-serif" font-size="14" lengthAdjust="spacing" textLength="123.0605" x="1649.65" y="348.6689">Kontext: Beispiel:</text><text fill="#000000" font-family="sans-serif" font-size="14" lengthAdjust="spacing" textLength="110.5439" x="1649.65" y="364.9657">Pflichtfeld: Nein</text><text fill="#000000" font-family="sans-serif" font-size="14" lengthAdjust="spacing" textLength="225.3262" x="1649.65" y="381.2626">Codes: 17, 512, 99, FTX, IP, Z28</text><text fill="#000000" font-family="sans-serif" font-size="14" lengthAdjust="spacing" textLength="283.9307" x="1649.65" y="397.5595">Quelle: ORDRSP_MIG_1_4_20240619.pdf</text><line style="stroke:#181818;stroke-width:0.5;" x1="1644.65" x2="2400.8131" y1="404.8613" y2="404.8613"/><text fill="#000000" font-family="sans-serif" font-size="14" lengthAdjust="spacing" textLength="746.1631" x="1649.65" y="421.8564">Prozesse: Bestellung einer technischen Konfiguration (MSB), Sperrung und Entsperrung eines Anschlusses</text></g><!--class FTX_4453_msg_5--><g class="entity" data-entity="FTX_4453_msg_5" data-source-line="47" data-uid="ent0011" id="entity_FTX_4453_msg_5"><rect fill="#F1F1F1" height="145.7813" rx="2.5" ry="2.5" style="stroke:#181818;stroke-width:0.5;" width="296.8604" x="2437.3" y="283.3769"/><ellipse cx="2520.7053" cy="299.3769" fill="#ADD1B2" rx="11" ry="11" style="stroke:#181818;stroke-width:1;"/><path d="M2523.674,305.0175 Q2523.0959,305.3144 2522.4553,305.455 Q2521.8146,305.6113 2521.1115,305.6113 Q2518.6115,305.6113 2517.2834,303.9706 Q2515.9709,302.3144 2515.9709,299.1894 Q2515.9709,296.0644 2517.2834,294.4081 Q2518.6115,292.7519 2521.1115,292.7519 Q2521.8146,292.7519 2522.4553,292.9081 Q2523.1115,293.0644 2523.674,293.3613 L2523.674,296.08 Q2523.049,295.5019 2522.4553,295.2363 Q2521.8615,294.955 2521.2365,294.955 Q2519.8928,294.955 2519.2053,296.0331 Q2518.5178,297.0956 2518.5178,299.1894 Q2518.5178,301.2831 2519.2053,302.3613 Q2519.8928,303.4238 2521.2365,303.4238 Q2521.8615,303.4238 2522.4553,303.1581 Q2523.049,302.8769 2523.674,302.2988 L2523.674,305.0175 Z " fill="#000000"/><text fill="#000000" font-family="sans-serif" font-size="14" lengthAdjust="spacing" textLength="121.5498" x="2541.2053" y="304.2236">FTX_4453_msg_5</text><line style="stroke:#181818;stroke-width:0.5;" x1="2438.3" x2="2733.1604" y1="315.3769" y2="315.3769"/><text fill="#000000" font-family="sans-serif" font-size="14" lengthAdjust="spacing" textLength="162.7227" x="2443.3" y="332.372">Nachricht: PARTIN 1.0e</text><text fill="#000000" font-family="sans-serif" font-size="14" lengthAdjust="spacing" textLength="123.0605" x="2443.3" y="348.6689">Kontext: Beispiel:</text><text fill="#000000" font-family="sans-serif" font-size="14" lengthAdjust="spacing" textLength="110.5439" x="2443.3" y="364.9657">Pflichtfeld: Nein</text><text fill="#000000" font-family="sans-serif" font-size="14" lengthAdjust="spacing" textLength="251.3574" x="2443.3" y="381.2626">Codes: 17, 512, FTX, SG4, URL, Z13</text><text fill="#000000" font-family="sans-serif" font-size="14" lengthAdjust="spacing" textLength="229.1064" x="2443.3" y="397.5595">Prozesse: Stammdaten&#228;nderung</text><text fill="#000000" font-family="sans-serif" font-size="14" lengthAdjust="spacing" textLength="284.8604" x="2443.3" y="413.8564">Quelle: PARTIN_MIG_1_0e_20241001.pdf</text><line style="stroke:#181818;stroke-width:0.5;" x1="2438.3" x2="2733.1604" y1="421.1581" y2="421.1581"/></g><!--class FTX_4453_msg_6--><g class="entity" data-entity="FTX_4453_msg_6" data-source-line="56" data-uid="ent0013" id="entity_FTX_4453_msg_6"><rect fill="#F1F1F1" height="145.7813" rx="2.5" ry="2.5" style="stroke:#181818;stroke-width:0.5;" width="758.1631" x="2769.65" y="283.3769"/><ellipse cx="3083.7066" cy="299.3769" fill="#ADD1B2" rx="11" ry="11" style="stroke:#181818;stroke-width:1;"/><path d="M3086.6754,305.0175 Q3086.0973,305.3144 3085.4566,305.455 Q3084.816,305.6113 3084.1129,305.6113 Q3081.6129,305.6113 3080.2848,303.9706 Q3078.9723,302.3144 3078.9723,299.1894 Q3078.9723,296.0644 3080.2848,294.4081 Q3081.6129,292.7519 3084.1129,292.7519 Q3084.816,292.7519 3085.4566,292.9081 Q3086.1129,293.0644 3086.6754,293.3613 L3086.6754,296.08 Q3086.0504,295.5019 3085.4566,295.2363 Q3084.8629,294.955 3084.2379,294.955 Q3082.8941,294.955 3082.2066,296.0331 Q3081.5191,297.0956 3081.5191,299.1894 Q3081.5191,301.2831 3082.2066,302.3613 Q3082.8941,303.4238 3084.2379,303.4238 Q3084.8629,303.4238 3085.4566,303.1581 Q3086.0504,302.8769 3086.6754,302.2988 L3086.6754,305.0175 Z " fill="#000000"/><text fill="#000000" font-family="sans-serif" font-size="14" lengthAdjust="spacing" textLength="121.5498" x="3104.2066" y="304.2236">FTX_4453_msg_6</text><line style="stroke:#181818;stroke-width:0.5;" x1="2770.65" x2="3526.8131" y1="315.3769" y2="315.3769"/><text fill="#000000" font-family="sans-serif" font-size="14" lengthAdjust="spacing" textLength="170.3584" x="2775.65" y="332.372">Nachricht: QUOTES 1.3a</text><text fill="#000000" font-family="sans-serif" font-size="14" lengthAdjust="spacing" textLength="170.3447" x="2775.65" y="348.6689">Kontext: Segmentlayout</text><text fill="#000000" font-family="sans-serif" font-size="14" lengthAdjust="spacing" textLength="110.5439" x="2775.65" y="364.9657">Pflichtfeld: Nein</text><text fill="#000000" font-family="sans-serif" font-size="14" lengthAdjust="spacing" textLength="205.4063" x="2775.65" y="381.2626">Codes: 17, 512, 99, ACB, FTX</text><text fill="#000000" font-family="sans-serif" font-size="14" lengthAdjust="spacing" textLength="408.3174" x="2775.65" y="397.5595">Quelle: QUOTES_MIG_1_3a_Fehlerkorrektur_20241213.pdf</text><line style="stroke:#181818;stroke-width:0.5;" x1="2770.65" x2="3526.8131" y1="404.8613" y2="404.8613"/><text fill="#000000" font-family="sans-serif" font-size="14" lengthAdjust="spacing" textLength="746.1631" x="2775.65" y="421.8564">Prozesse: Bestellung einer technischen Konfiguration (MSB), Sperrung und Entsperrung eines Anschlusses</text></g><!--class FTX_4453_msg_7--><g class="entity" data-entity="FTX_4453_msg_7" data-source-line="65" data-uid="ent0015" id="entity_FTX_4453_msg_7"><rect fill="#F1F1F1" height="145.7813" rx="2.5" ry="2.5" style="stroke:#181818;stroke-width:0.5;" width="429.8672" x="3562.8" y="283.3769"/><ellipse cx="3712.7087" cy="299.3769" fill="#ADD1B2" rx="11" ry="11" style="stroke:#181818;stroke-width:1;"/><path d="M3715.6774,305.0175 Q3715.0993,305.3144 3714.4587,305.455 Q3713.8181,305.6113 3713.1149,305.6113 Q3710.6149,305.6113 3709.2868,303.9706 Q3707.9743,302.3144 3707.9743,299.1894 Q3707.9743,296.0644 3709.2868,294.4081 Q3710.6149,292.7519 3713.1149,292.7519 Q3713.8181,292.7519 3714.4587,292.9081 Q3715.1149,293.0644 3715.6774,293.3613 L3715.6774,296.08 Q3715.0524,295.5019 3714.4587,295.2363 Q3713.8649,294.955 3713.2399,294.955 Q3711.8962,294.955 3711.2087,296.0331 Q3710.5212,297.0956 3710.5212,299.1894 Q3710.5212,301.2831 3711.2087,302.3613 Q3711.8962,303.4238 3713.2399,303.4238 Q3713.8649,303.4238 3714.4587,303.1581 Q3715.0524,302.8769 3715.6774,302.2988 L3715.6774,305.0175 Z " fill="#000000"/><text fill="#000000" font-family="sans-serif" font-size="14" lengthAdjust="spacing" textLength="121.5498" x="3733.2087" y="304.2236">FTX_4453_msg_7</text><line style="stroke:#181818;stroke-width:0.5;" x1="3563.8" x2="3991.6672" y1="315.3769" y2="315.3769"/><text fill="#000000" font-family="sans-serif" font-size="14" lengthAdjust="spacing" textLength="171.4932" x="3568.8" y="332.372">Nachricht: REMADV 2.9c</text><text fill="#000000" font-family="sans-serif" font-size="14" lengthAdjust="spacing" textLength="123.0605" x="3568.8" y="348.6689">Kontext: Beispiel:</text><text fill="#000000" font-family="sans-serif" font-size="14" lengthAdjust="spacing" textLength="110.5439" x="3568.8" y="364.9657">Pflichtfeld: Nein</text><text fill="#000000" font-family="sans-serif" font-size="14" lengthAdjust="spacing" textLength="244.1934" x="3568.8" y="381.2626">Codes: 10, 17, 512, ABO, FTX, SG5</text><text fill="#000000" font-family="sans-serif" font-size="14" lengthAdjust="spacing" textLength="251.4395" x="3568.8" y="397.5595">Prozesse: Netznutzungsabrechnung</text><text fill="#000000" font-family="sans-serif" font-size="14" lengthAdjust="spacing" textLength="417.8672" x="3568.8" y="413.8564">Quelle: REMADV_MIG_2.9c_au&#223;erordentliche_20240726.pdf</text><line style="stroke:#181818;stroke-width:0.5;" x1="3563.8" x2="3991.6672" y1="421.1581" y2="421.1581"/></g><!--class FTX_4453_msg_8--><g class="entity" data-entity="FTX_4453_msg_8" data-source-line="74" data-uid="ent0017" id="entity_FTX_4453_msg_8"><rect fill="#F1F1F1" height="145.7813" rx="2.5" ry="2.5" style="stroke:#181818;stroke-width:0.5;" width="431.2959" x="4028.08" y="283.3769"/><ellipse cx="4178.703" cy="299.3769" fill="#ADD1B2" rx="11" ry="11" style="stroke:#181818;stroke-width:1;"/><path d="M4181.6718,305.0175 Q4181.0937,305.3144 4180.453,305.455 Q4179.8124,305.6113 4179.1093,305.6113 Q4176.6093,305.6113 4175.2812,303.9706 Q4173.9687,302.3144 4173.9687,299.1894 Q4173.9687,296.0644 4175.2812,294.4081 Q4176.6093,292.7519 4179.1093,292.7519 Q4179.8124,292.7519 4180.453,292.9081 Q4181.1093,293.0644 4181.6718,293.3613 L4181.6718,296.08 Q4181.0468,295.5019 4180.453,295.2363 Q4179.8593,294.955 4179.2343,294.955 Q4177.8905,294.955 4177.203,296.0331 Q4176.5155,297.0956 4176.5155,299.1894 Q4176.5155,301.2831 4177.203,302.3613 Q4177.8905,303.4238 4179.2343,303.4238 Q4179.8593,303.4238 4180.453,303.1581 Q4181.0468,302.8769 4181.6718,302.2988 L4181.6718,305.0175 Z " fill="#000000"/><text fill="#000000" font-family="sans-serif" font-size="14" lengthAdjust="spacing" textLength="121.5498" x="4199.203" y="304.2236">FTX_4453_msg_8</text><line style="stroke:#181818;stroke-width:0.5;" x1="4029.08" x2="4458.3759" y1="315.3769" y2="315.3769"/><text fill="#000000" font-family="sans-serif" font-size="14" lengthAdjust="spacing" textLength="170.1055" x="4034.08" y="332.372">Nachricht: REQOTE 1.3b</text><text fill="#000000" font-family="sans-serif" font-size="14" lengthAdjust="spacing" textLength="123.0605" x="4034.08" y="348.6689">Kontext: Beispiel:</text><text fill="#000000" font-family="sans-serif" font-size="14" lengthAdjust="spacing" textLength="110.5439" x="4034.08" y="364.9657">Pflichtfeld: Nein</text><text fill="#000000" font-family="sans-serif" font-size="14" lengthAdjust="spacing" textLength="244.8291" x="4034.08" y="381.2626">Codes: 17, 512, 99, ACB, FTX, OCR</text><text fill="#000000" font-family="sans-serif" font-size="14" lengthAdjust="spacing" textLength="292.2432" x="4034.08" y="397.5595">Quelle: REQOTE_MIG_1_3b_20241001.pdf</text><line style="stroke:#181818;stroke-width:0.5;" x1="4029.08" x2="4458.3759" y1="404.8613" y2="404.8613"/><text fill="#000000" font-family="sans-serif" font-size="14" lengthAdjust="spacing" textLength="419.2959" x="4034.08" y="421.8564">Prozesse: Bestellung einer technischen Konfiguration (MSB)</text></g><!--class FTX_4453_proc_1--><g class="entity" data-entity="FTX_4453_proc_1" data-source-line="83" data-uid="ent0019" id="entity_FTX_4453_proc_1"><rect fill="#F1F1F1" height="105.1563" rx="2.5" ry="2.5" style="stroke:#181818;stroke-width:0.5;" width="752.6465" x="4494.41" y="303.6869"/><ellipse cx="4805.1649" cy="323.8197" fill="#ADD1B2" rx="11" ry="11" style="stroke:#181818;stroke-width:1;"/><path d="M4808.1336,329.4603 Q4807.5555,329.7572 4806.9149,329.8978 Q4806.2743,330.0541 4805.5711,330.0541 Q4803.0711,330.0541 4801.743,328.4134 Q4800.4305,326.7572 4800.4305,323.6322 Q4800.4305,320.5072 4801.743,318.8509 Q4803.0711,317.1947 4805.5711,317.1947 Q4806.2743,317.1947 4806.9149,317.3509 Q4807.5711,317.5072 4808.1336,317.8041 L4808.1336,320.5228 Q4807.5086,319.9447 4806.9149,319.6791 Q4806.3211,319.3978 4805.6961,319.3978 Q4804.3524,319.3978 4803.6649,320.4759 Q4802.9774,321.5384 4802.9774,323.6322 Q4802.9774,325.7259 4803.6649,326.8041 Q4804.3524,327.8666 4805.6961,327.8666 Q4806.3211,327.8666 4806.9149,327.6009 Q4807.5086,327.3197 4808.1336,326.7416 L4808.1336,329.4603 Z " fill="#000000"/><text fill="#000000" font-family="sans-serif" font-size="12" font-style="italic" lengthAdjust="spacing" textLength="61.0605" x="4856.453" y="319.8255">&#171;process&#187;</text><text fill="#000000" font-family="sans-serif" font-size="14" lengthAdjust="spacing" textLength="122.6367" x="4825.6649" y="335.6507">FTX_4453_proc_1</text><line style="stroke:#181818;stroke-width:0.5;" x1="4495.41" x2="5246.0565" y1="343.9525" y2="343.9525"/><text fill="#000000" font-family="sans-serif" font-size="14" lengthAdjust="spacing" textLength="180.3457" x="4500.41" y="360.9476">Netznutzungsabrechnung</text><text fill="#000000" font-family="sans-serif" font-size="14" lengthAdjust="spacing" textLength="218.0938" x="4500.41" y="377.2445">Gesetze: StromNEV, StromNZV</text><text fill="#000000" font-family="sans-serif" font-size="14" lengthAdjust="spacing" textLength="740.6465" x="4500.41" y="393.5414">Zusammenfassung: Wie funktioniert die Netznutzungsabrechnung zwischen Netzbetreiber und Lieferant?</text><line style="stroke:#181818;stroke-width:0.5;" x1="4495.41" x2="5246.0565" y1="400.8431" y2="400.8431"/></g><!--class FTX_4453_proc_2--><g class="entity" data-entity="FTX_4453_proc_2" data-source-line="89" data-uid="ent0021" id="entity_FTX_4453_proc_2"><rect fill="#F1F1F1" height="105.1563" rx="2.5" ry="2.5" style="stroke:#181818;stroke-width:0.5;" width="690.2275" x="5281.62" y="303.6869"/><ellipse cx="5561.1654" cy="323.8197" fill="#ADD1B2" rx="11" ry="11" style="stroke:#181818;stroke-width:1;"/><path d="M5564.1342,329.4603 Q5563.556,329.7572 5562.9154,329.8978 Q5562.2748,330.0541 5561.5717,330.0541 Q5559.0717,330.0541 5557.7435,328.4134 Q5556.431,326.7572 5556.431,323.6322 Q5556.431,320.5072 5557.7435,318.8509 Q5559.0717,317.1947 5561.5717,317.1947 Q5562.2748,317.1947 5562.9154,317.3509 Q5563.5717,317.5072 5564.1342,317.8041 L5564.1342,320.5228 Q5563.5092,319.9447 5562.9154,319.6791 Q5562.3217,319.3978 5561.6967,319.3978 Q5560.3529,319.3978 5559.6654,320.4759 Q5558.9779,321.5384 5558.9779,323.6322 Q5558.9779,325.7259 5559.6654,326.8041 Q5560.3529,327.8666 5561.6967,327.8666 Q5562.3217,327.8666 5562.9154,327.6009 Q5563.5092,327.3197 5564.1342,326.7416 L5564.1342,329.4603 Z " fill="#000000"/><text fill="#000000" font-family="sans-serif" font-size="12" font-style="italic" lengthAdjust="spacing" textLength="61.0605" x="5612.4535" y="319.8255">&#171;process&#187;</text><text fill="#000000" font-family="sans-serif" font-size="14" lengthAdjust="spacing" textLength="122.6367" x="5581.6654" y="335.6507">FTX_4453_proc_2</text><line style="stroke:#181818;stroke-width:0.5;" x1="5282.62" x2="5970.8475" y1="343.9525" y2="343.9525"/><text fill="#000000" font-family="sans-serif" font-size="14" lengthAdjust="spacing" textLength="223.2822" x="5287.62" y="360.9476">Messstellenbetriebsabrechnung</text><text fill="#000000" font-family="sans-serif" font-size="14" lengthAdjust="spacing" textLength="105.0957" x="5287.62" y="377.2445">Gesetze: MsbG</text><text fill="#000000" font-family="sans-serif" font-size="14" lengthAdjust="spacing" textLength="678.2275" x="5287.62" y="393.5414">Zusammenfassung: Beschreibe den Prozess der Abrechnung von Messstellenbetriebsleistungen.</text><line style="stroke:#181818;stroke-width:0.5;" x1="5282.62" x2="5970.8475" y1="400.8431" y2="400.8431"/></g><!--class FTX_4453_proc_3--><g class="entity" data-entity="FTX_4453_proc_3" data-source-line="95" data-uid="ent0023" id="entity_FTX_4453_proc_3"><rect fill="#F1F1F1" height="105.1563" rx="2.5" ry="2.5" style="stroke:#181818;stroke-width:0.5;" width="1301.9961" x="6006.73" y="303.6869"/><ellipse cx="6592.1597" cy="323.8197" fill="#ADD1B2" rx="11" ry="11" style="stroke:#181818;stroke-width:1;"/><path d="M6595.1284,329.4603 Q6594.5503,329.7572 6593.9097,329.8978 Q6593.2691,330.0541 6592.5659,330.0541 Q6590.0659,330.0541 6588.7378,328.4134 Q6587.4253,326.7572 6587.4253,323.6322 Q6587.4253,320.5072 6588.7378,318.8509 Q6590.0659,317.1947 6592.5659,317.1947 Q6593.2691,317.1947 6593.9097,317.3509 Q6594.5659,317.5072 6595.1284,317.8041 L6595.1284,320.5228 Q6594.5034,319.9447 6593.9097,319.6791 Q6593.3159,319.3978 6592.6909,319.3978 Q6591.3472,319.3978 6590.6597,320.4759 Q6589.9722,321.5384 6589.9722,323.6322 Q6589.9722,325.7259 6590.6597,326.8041 Q6591.3472,327.8666 6592.6909,327.8666 Q6593.3159,327.8666 6593.9097,327.6009 Q6594.5034,327.3197 6595.1284,326.7416 L6595.1284,329.4603 Z " fill="#000000"/><text fill="#000000" font-family="sans-serif" font-size="12" font-style="italic" lengthAdjust="spacing" textLength="61.0605" x="6643.4478" y="319.8255">&#171;process&#187;</text><text fill="#000000" font-family="sans-serif" font-size="14" lengthAdjust="spacing" textLength="122.6367" x="6612.6597" y="335.6507">FTX_4453_proc_3</text><line style="stroke:#181818;stroke-width:0.5;" x1="6007.73" x2="7307.7261" y1="343.9525" y2="343.9525"/><text fill="#000000" font-family="sans-serif" font-size="14" lengthAdjust="spacing" textLength="156.4063" x="6012.73" y="360.9476">Gesetze: MsbG, EnWG</text><text fill="#000000" font-family="sans-serif" font-size="14" lengthAdjust="spacing" textLength="1289.9961" x="6012.73" y="377.2445">Zusammenfassung: Erl&#228;utere den Prozess zur Bestellung einer spezifischen technischen Konfiguration bei einem Messstellenbetreiber, beispielsweise f&#252;r ein intelligentes Messsystem.</text><line style="stroke:#181818;stroke-width:0.5;" x1="6007.73" x2="7307.7261" y1="384.5463" y2="384.5463"/><text fill="#000000" font-family="sans-serif" font-size="14" lengthAdjust="spacing" textLength="348.2021" x="6012.73" y="401.5414">Bestellung einer technischen Konfiguration (MSB)</text></g><!--class FTX_4453_proc_4--><g class="entity" data-entity="FTX_4453_proc_4" data-source-line="101" data-uid="ent0025" id="entity_FTX_4453_proc_4"><rect fill="#F1F1F1" height="105.1563" rx="2.5" ry="2.5" style="stroke:#181818;stroke-width:0.5;" width="853.9893" x="7343.74" y="303.6869"/><ellipse cx="7705.1663" cy="323.8197" fill="#ADD1B2" rx="11" ry="11" style="stroke:#181818;stroke-width:1;"/><path d="M7708.135,329.4603 Q7707.5569,329.7572 7706.9163,329.8978 Q7706.2756,330.0541 7705.5725,330.0541 Q7703.0725,330.0541 7701.7444,328.4134 Q7700.4319,326.7572 7700.4319,323.6322 Q7700.4319,320.5072 7701.7444,318.8509 Q7703.0725,317.1947 7705.5725,317.1947 Q7706.2756,317.1947 7706.9163,317.3509 Q7707.5725,317.5072 7708.135,317.8041 L7708.135,320.5228 Q7707.51,319.9447 7706.9163,319.6791 Q7706.3225,319.3978 7705.6975,319.3978 Q7704.3538,319.3978 7703.6663,320.4759 Q7702.9788,321.5384 7702.9788,323.6322 Q7702.9788,325.7259 7703.6663,326.8041 Q7704.3538,327.8666 7705.6975,327.8666 Q7706.3225,327.8666 7706.9163,327.6009 Q7707.51,327.3197 7708.135,326.7416 L7708.135,329.4603 Z " fill="#000000"/><text fill="#000000" font-family="sans-serif" font-size="12" font-style="italic" lengthAdjust="spacing" textLength="61.0605" x="7756.4544" y="319.8255">&#171;process&#187;</text><text fill="#000000" font-family="sans-serif" font-size="14" lengthAdjust="spacing" textLength="122.6367" x="7725.6663" y="335.6507">FTX_4453_proc_4</text><line style="stroke:#181818;stroke-width:0.5;" x1="7344.74" x2="8196.7293" y1="343.9525" y2="343.9525"/><text fill="#000000" font-family="sans-serif" font-size="14" lengthAdjust="spacing" textLength="317.9668" x="7349.74" y="360.9476">Sperrung und Entsperrung eines Anschlusses</text><text fill="#000000" font-family="sans-serif" font-size="14" lengthAdjust="spacing" textLength="138.3252" x="7349.74" y="377.2445">Gesetze: StromGVV</text><text fill="#000000" font-family="sans-serif" font-size="14" lengthAdjust="spacing" textLength="841.9893" x="7349.74" y="393.5414">Zusammenfassung: Beschreibe den End-to-End-Prozess f&#252;r die Sperrung und Wiederherstellung eines Netzanschlusses.</text><line style="stroke:#181818;stroke-width:0.5;" x1="7344.74" x2="8196.7293" y1="400.8431" y2="400.8431"/></g><!--class FTX_4453_proc_5--><g class="entity" data-entity="FTX_4453_proc_5" data-source-line="107" data-uid="ent0027" id="entity_FTX_4453_proc_5"><rect fill="#F1F1F1" height="88.8594" rx="2.5" ry="2.5" style="stroke:#181818;stroke-width:0.5;" width="638.3496" x="8232.56" y="311.8369"/><ellipse cx="8486.1664" cy="331.9697" fill="#ADD1B2" rx="11" ry="11" style="stroke:#181818;stroke-width:1;"/><path d="M8489.1352,337.6103 Q8488.5571,337.9072 8487.9164,338.0478 Q8487.2758,338.2041 8486.5727,338.2041 Q8484.0727,338.2041 8482.7446,336.5634 Q8481.4321,334.9072 8481.4321,331.7822 Q8481.4321,328.6572 8482.7446,327.0009 Q8484.0727,325.3447 8486.5727,325.3447 Q8487.2758,325.3447 8487.9164,325.5009 Q8488.5727,325.6572 8489.1352,325.9541 L8489.1352,328.6728 Q8488.5102,328.0947 8487.9164,327.8291 Q8487.3227,327.5478 8486.6977,327.5478 Q8485.3539,327.5478 8484.6664,328.6259 Q8483.9789,329.6884 8483.9789,331.7822 Q8483.9789,333.8759 8484.6664,334.9541 Q8485.3539,336.0166 8486.6977,336.0166 Q8487.3227,336.0166 8487.9164,335.7509 Q8488.5102,335.4697 8489.1352,334.8916 L8489.1352,337.6103 Z " fill="#000000"/><text fill="#000000" font-family="sans-serif" font-size="12" font-style="italic" lengthAdjust="spacing" textLength="61.0605" x="8537.4545" y="327.9755">&#171;process&#187;</text><text fill="#000000" font-family="sans-serif" font-size="14" lengthAdjust="spacing" textLength="122.6367" x="8506.6664" y="343.8007">FTX_4453_proc_5</text><line style="stroke:#181818;stroke-width:0.5;" x1="8233.56" x2="8869.9096" y1="352.1025" y2="352.1025"/><text fill="#000000" font-family="sans-serif" font-size="14" lengthAdjust="spacing" textLength="158.0127" x="8238.56" y="369.0976">Stammdaten&#228;nderung</text><text fill="#000000" font-family="sans-serif" font-size="14" lengthAdjust="spacing" textLength="626.3496" x="8238.56" y="385.3945">Zusammenfassung: Wie wird eine Stammdaten&#228;nderung an einer Marktlokation, wie z.B.</text><line style="stroke:#181818;stroke-width:0.5;" x1="8233.56" x2="8869.9096" y1="392.6963" y2="392.6963"/></g><!--link FTX_4453 to FTX_4453_msg_1--><g class="link" data-entity-1="FTX_4453" data-entity-2="FTX_4453_msg_1" data-source-line="19" data-uid="lnk4" id="link_FTX_4453_FTX_4453_msg_1"><path codeLine="19" d="M3590.41,132.8069 C3170.21,147.6969 2120.45,186.9069 1242.73,236.3769 C941.15,253.3669 863.08,236.1769 564.73,283.3769 C558.75,284.3169 558.6208,284.3064 552.5408,285.3664" fill="none" id="FTX_4453-to-FTX_4453_msg_1" style="stroke:#181818;stroke-width:1;"/><polygon fill="#181818" points="546.63,286.3969,556.1833,288.7917,551.5557,285.5381,554.8093,280.9106,546.63,286.3969" style="stroke:#181818;stroke-width:1;"/><text fill="#000000" font-family="sans-serif" font-size="13" lengthAdjust="spacing" textLength="85.2363" x="1243.73" y="249.4438">verwendet in</text></g><!--link FTX_4453 to FTX_4453_msg_2--><g class="link" data-entity-1="FTX_4453" data-entity-2="FTX_4453_msg_2" data-source-line="28" data-uid="lnk6" id="link_FTX_4453_FTX_4453_msg_2"><path codeLine="28" d="M3590.16,135.5869 C3233.92,153.3769 2434.96,194.3369 1762.73,236.3769 C1466.13,254.9269 1388.77,233.9369 1095.73,283.3769 C1089.83,284.3669 1089.7742,284.3151 1083.7842,285.4551" fill="none" id="FTX_4453-to-FTX_4453_msg_2" style="stroke:#181818;stroke-width:1;"/><polygon fill="#181818" points="1077.89,286.5769,1087.4792,288.8237,1082.8018,285.6421,1085.9835,280.9648,1077.89,286.5769" style="stroke:#181818;stroke-width:1;"/><text fill="#000000" font-family="sans-serif" font-size="13" lengthAdjust="spacing" textLength="85.2363" x="1763.73" y="249.4438">verwendet in</text></g><!--link FTX_4453 to FTX_4453_msg_3--><g class="link" data-entity-1="FTX_4453" data-entity-2="FTX_4453_msg_3" data-source-line="37" data-uid="lnk8" id="link_FTX_4453_FTX_4453_msg_3"><path codeLine="37" d="M3590.25,127.9469 C3214.73,133.8369 2344.66,160.7969 1625.73,283.3769 C1620.21,284.3169 1620.5357,284.2129 1614.9257,285.2729" fill="none" id="FTX_4453-to-FTX_4453_msg_3" style="stroke:#181818;stroke-width:1;"/><polygon fill="#181818" points="1609.03,286.3869,1618.6162,288.6464,1613.9431,285.4586,1617.1309,280.7855,1609.03,286.3869" style="stroke:#181818;stroke-width:1;"/><text fill="#000000" font-family="sans-serif" font-size="13" lengthAdjust="spacing" textLength="85.2363" x="1916.73" y="249.4438">verwendet in</text></g><!--link FTX_4453 to FTX_4453_msg_4--><g class="link" data-entity-1="FTX_4453" data-entity-2="FTX_4453_msg_4" data-source-line="46" data-uid="lnk10" id="link_FTX_4453_FTX_4453_msg_4"><path codeLine="46" d="M3590.15,143.6069 C3327.61,168.7769 2835.99,219.5769 2419.73,283.3769 C2413.93,284.2669 2414.0163,284.2295 2408.1363,285.1595" fill="none" id="FTX_4453-to-FTX_4453_msg_4" style="stroke:#181818;stroke-width:1;"/><polygon fill="#181818" points="2402.21,286.0969,2411.7244,288.6418,2407.1486,285.3158,2410.4746,280.74,2402.21,286.0969" style="stroke:#181818;stroke-width:1;"/><text fill="#000000" font-family="sans-serif" font-size="13" lengthAdjust="spacing" textLength="85.2363" x="2755.73" y="249.4438">verwendet in</text></g><!--link FTX_4453 to FTX_4453_msg_5--><g class="link" data-entity-1="FTX_4453" data-entity-2="FTX_4453_msg_5" data-source-line="55" data-uid="lnk12" id="link_FTX_4453_FTX_4453_msg_5"><path codeLine="55" d="M3590.23,140.4969 C3382.13,159.5369 3037.89,200.9969 2751.73,283.3769 C2746,285.0269 2745.8979,284.9471 2740.0779,286.8671" fill="none" id="FTX_4453-to-FTX_4453_msg_5" style="stroke:#181818;stroke-width:1;"/><polygon fill="#181818" points="2734.38,288.7469,2744.1801,289.7259,2739.1283,287.1804,2741.6738,282.1286,2734.38,288.7469" style="stroke:#181818;stroke-width:1;"/><text fill="#000000" font-family="sans-serif" font-size="13" lengthAdjust="spacing" textLength="85.2363" x="2917.73" y="249.4438">verwendet in</text></g><!--link FTX_4453 to FTX_4453_msg_6--><g class="link" data-entity-1="FTX_4453" data-entity-2="FTX_4453_msg_6" data-source-line="64" data-uid="lnk14" id="link_FTX_4453_FTX_4453_msg_6"><path codeLine="64" d="M3590.29,194.5569 C3513.71,222.4269 3430.6881,252.6446 3352.9981,280.9246" fill="none" id="FTX_4453-to-FTX_4453_msg_6" style="stroke:#181818;stroke-width:1;"/><polygon fill="#181818" points="3347.36,282.9769,3357.1853,283.6571,3352.0584,281.2666,3354.4489,276.1397,3347.36,282.9769" style="stroke:#181818;stroke-width:1;"/><text fill="#000000" font-family="sans-serif" font-size="13" lengthAdjust="spacing" textLength="85.2363" x="3464.73" y="249.4438">verwendet in</text></g><!--link FTX_4453 to FTX_4453_msg_7--><g class="link" data-entity-1="FTX_4453" data-entity-2="FTX_4453_msg_7" data-source-line="73" data-uid="lnk16" id="link_FTX_4453_FTX_4453_msg_7"><path codeLine="73" d="M3777.73,206.7269 C3777.73,231.5969 3777.73,252.8169 3777.73,277.0869" fill="none" id="FTX_4453-to-FTX_4453_msg_7" style="stroke:#181818;stroke-width:1;"/><polygon fill="#181818" points="3777.73,283.0869,3781.73,274.0869,3777.73,278.0869,3773.73,274.0869,3777.73,283.0869" style="stroke:#181818;stroke-width:1;"/><text fill="#000000" font-family="sans-serif" font-size="13" lengthAdjust="spacing" textLength="85.2363" x="3778.73" y="249.4438">verwendet in</text></g><!--link FTX_4453 to FTX_4453_msg_8--><g class="link" data-entity-1="FTX_4453" data-entity-2="FTX_4453_msg_8" data-source-line="82" data-uid="lnk18" id="link_FTX_4453_FTX_4453_msg_8"><path codeLine="82" d="M3941.37,206.7269 C3991.85,231.5269 4041.735,256.0308 4091.045,280.2608" fill="none" id="FTX_4453-to-FTX_4453_msg_8" style="stroke:#181818;stroke-width:1;"/><polygon fill="#181818" points="4096.43,282.9069,4090.1166,275.3477,4091.9425,280.7018,4086.5884,282.5277,4096.43,282.9069" style="stroke:#181818;stroke-width:1;"/><text fill="#000000" font-family="sans-serif" font-size="13" lengthAdjust="spacing" textLength="85.2363" x="4025.73" y="249.4438">verwendet in</text></g><!--link FTX_4453 to FTX_4453_proc_1--><g class="link" data-entity-1="FTX_4453" data-entity-2="FTX_4453_proc_1" data-source-line="88" data-uid="lnk20" id="link_FTX_4453_FTX_4453_proc_1"><path codeLine="88" d="M3965.31,165.6269 C4146.7,203.6169 4416.7774,260.1869 4616.3474,301.9869" fill="none" id="FTX_4453-to-FTX_4453_proc_1" style="stroke:#181818;stroke-width:1;stroke-dasharray:7,7;"/><polygon fill="#181818" points="4622.22,303.2169,4614.2312,297.4568,4617.3262,302.1919,4612.5911,305.2869,4622.22,303.2169" style="stroke:#181818;stroke-width:1;"/><text fill="#000000" font-family="sans-serif" font-size="13" lengthAdjust="spacing" textLength="91.6221" x="4358.73" y="249.4438">eingebettet in</text></g><!--link FTX_4453 to FTX_4453_proc_2--><g class="link" data-entity-1="FTX_4453" data-entity-2="FTX_4453_proc_2" data-source-line="94" data-uid="lnk22" id="link_FTX_4453_FTX_4453_proc_2"><path codeLine="94" d="M3965.05,140.6269 C4247.67,163.4269 4799.54,212.7669 5264.73,283.3769 C5302.26,289.0769 5335.923,294.8799 5374.543,302.1299" fill="none" id="FTX_4453-to-FTX_4453_proc_2" style="stroke:#181818;stroke-width:1;stroke-dasharray:7,7;"/><polygon fill="#181818" points="5380.44,303.2369,5372.3325,297.645,5375.5258,302.3144,5370.8565,305.5077,5380.44,303.2369" style="stroke:#181818;stroke-width:1;"/><text fill="#000000" font-family="sans-serif" font-size="13" lengthAdjust="spacing" textLength="91.6221" x="5023.73" y="249.4438">eingebettet in</text></g><!--link FTX_4453 to FTX_4453_proc_3--><g class="link" data-entity-1="FTX_4453" data-entity-2="FTX_4453_proc_3" data-source-line="100" data-uid="lnk24" id="link_FTX_4453_FTX_4453_proc_3"><path codeLine="100" d="M3965.08,137.3369 C4346.51,160.2269 5240.53,216.4869 5989.73,283.3769 C6055.95,289.2869 6119.8316,295.5116 6188.4116,302.5816" fill="none" id="FTX_4453-to-FTX_4453_proc_3" style="stroke:#181818;stroke-width:1;stroke-dasharray:7,7;"/><polygon fill="#181818" points="6194.38,303.1969,6185.8376,298.295,6189.4064,302.6841,6185.0173,306.2529,6194.38,303.1969" style="stroke:#181818;stroke-width:1;"/><text fill="#000000" font-family="sans-serif" font-size="13" lengthAdjust="spacing" textLength="91.6221" x="5629.73" y="249.4438">eingebettet in</text></g><!--link FTX_4453 to FTX_4453_proc_4--><g class="link" data-entity-1="FTX_4453" data-entity-2="FTX_4453_proc_4" data-source-line="106" data-uid="lnk26" id="link_FTX_4453_FTX_4453_proc_4"><path codeLine="106" d="M3964.86,126.9869 C4493.93,130.4869 6045.35,152.0669 7325.73,283.3769 C7375.55,288.4869 7422.3469,294.6433 7473.4069,302.3333" fill="none" id="FTX_4453-to-FTX_4453_proc_4" style="stroke:#181818;stroke-width:1;stroke-dasharray:7,7;"/><polygon fill="#181818" points="7479.34,303.2269,7471.0361,297.9311,7474.3958,302.4822,7469.8447,305.8419,7479.34,303.2269" style="stroke:#181818;stroke-width:1;"/><text fill="#000000" font-family="sans-serif" font-size="13" lengthAdjust="spacing" textLength="91.6221" x="6943.73" y="249.4438">eingebettet in</text></g><!--link FTX_4453 to FTX_4453_proc_5--><g class="link" data-entity-1="FTX_4453" data-entity-2="FTX_4453_proc_5" data-source-line="111" data-uid="lnk28" id="link_FTX_4453_FTX_4453_proc_5"><path codeLine="111" d="M3965.07,132.2269 C4465.04,148.0369 5872.63,193.1469 7043.73,236.3769 C7564.24,255.5869 7697.94,218.3669 8214.73,283.3769 C8266.81,289.9269 8316.924,299.1759 8368.004,310.1559" fill="none" id="FTX_4453-to-FTX_4453_proc_5" style="stroke:#181818;stroke-width:1;stroke-dasharray:7,7;"/><polygon fill="#181818" points="8373.87,311.4169,8365.9116,305.6148,8368.9817,310.3661,8364.2304,313.4361,8373.87,311.4169" style="stroke:#181818;stroke-width:1;"/><text fill="#000000" font-family="sans-serif" font-size="13" lengthAdjust="spacing" textLength="91.6221" x="7899.73" y="249.4438">eingebettet in</text></g><!--SRC=[pPVBSjf858RtVefUPge4fHi6L2bFSGj3nLoC29doHYNG0ReGBLUh5IPCvLcooMDavnVBQI7083cIxSNCWgQbxbQV_-l_786WmWVITWKmL_XkI4ham-HlopGhnjKShqDvwSXBykyL8GDt0nQPm3zY4R6re05JI2lm08T6FDX168A5VOAF6O3OiKZi8hOCtHc7-OfXDndiuynGWEy3cu7W56RfEKs8P-0D0fG19qAEqt2-0aO-1cn1bn5tPGpaNTzk_f4iin-0SxaeOXxfC14UhkL3Gj9W-00_ma33mmBXRZQU9F3uWtaWvrvzkn3lRCAbeoK8vYjEvojXaTx07eycH2jhBWvWI0B1M1Wu3Hye-9B4QE7BkGlmFGkHK8Rt9B3G8bfL8Rgka8g6JRqkFzWq6aDiMcs5j2TzHGQWaDlUG25srv1DLJOrR2RsK-ZFuxwB9EP3i4w_rtKqHtCTNTKrJLMryeEtGBt7OowLRYvbM-GBy2qW745GGGOQFOrcEkorY5wkUQz48s74weUjiKB6hR-mwNGBQ5PotNL28eECaSX0dG-mye6l0yvXBI8k4LLKpSX7f1T0PFm6KVaf8nkM6s2OZ5-3IFplE3d8IO8nrMkjdWl6A036l0Gp7BV7zWZJodobTOuP5NFfZHHohzVEYBoqjYWlAoi7S7ibISwPnR6P1R1LBh6D6kD9Ru3OL7WBjvYPtJKLycbyY-GquunSLhKy2Tx7a0XM8LPSgCXK2YY-lbHyzsauwTYes73Va417jpHQpLZ-V-6KlPG4dE5cbI9JqpKZ5-Hr0P3LIv3ZJh_Hdc8fgizVOnrLEO5iD8T73rLUzeRQHv6Ku_hSSQF7xy03xid3nCttTbAh-dKkXMe12hKqXJiy16cdsLiBpy5ASLL-av_E-CZu3XwP5K-kMWwD1nxCyJN__htiO9WtDtiqpnrO5q8SYei13pQ3pbH9UlTJ7BsFGYmHm1Qu1ywto6SAvF1paG8NnCCRsGydkss2GexBbnBG6KAIgNHBOG7SPUBFfsBBvPkK44kYNG8k5y_hrLDwyrw7HzdzSDRD4efdYsQI4HFqxE7GiSz9uoJn2nvjnbO-sapWEB3ox_NfnVGPANsliDwPP0MhsUTCuHtkF_w81F1puRk8fpV5ShYZYsJNvoEO0OqNR2vPnOPGv7YSbU4ME-YlnvzSpaSQSYf5Z0ABRRpsAwxUv40rYa4rKr1VLEtF4wSxdHPmKOTv9H6KvDU1QonM9j7PvfXcwBGLy3FWOPn9xYcC711cCH2LD8ZC7mQPnM1BkHS7bxM8k2nnIj_bQ-47QtV_FtEBAtVbPaxybLJylm00]--></g></svg>