<svg xmlns="http://www.w3.org/2000/svg" xmlns:xlink="http://www.w3.org/1999/xlink" contentStyleType="text/css" data-diagram-type="CLASS" height="419px" preserveAspectRatio="none" style="width:7090px;height:419px;background:#FFFFFF;" version="1.1" viewBox="0 0 7090 419" width="7090px" zoomAndPan="magnify"><title>Datenatlas - FTX:4440</title><defs/><g><g class="title" data-source-line="1"><text fill="#000000" font-family="sans-serif" font-size="14" font-weight="bold" lengthAdjust="spacing" textLength="175.9707" x="3450.4695" y="22.9951">Datenatlas - FTX:4440</text></g><!--class FTX_4440--><g class="entity" data-entity="FTX_4440" data-source-line="2" data-uid="ent0002" id="entity_FTX_4440"><rect fill="#F1F1F1" height="145.7813" rx="2.5" ry="2.5" style="stroke:#181818;stroke-width:0.5;" width="374.2021" x="2761.63" y="44.2969"/><ellipse cx="2910.069" cy="60.2969" fill="#ADD1B2" rx="11" ry="11" style="stroke:#181818;stroke-width:1;"/><path d="M2913.0377,65.9375 Q2912.4596,66.2344 2911.819,66.375 Q2911.1783,66.5313 2910.4752,66.5313 Q2907.9752,66.5313 2906.6471,64.8906 Q2905.3346,63.2344 2905.3346,60.1094 Q2905.3346,56.9844 2906.6471,55.3281 Q2907.9752,53.6719 2910.4752,53.6719 Q2911.1783,53.6719 2911.819,53.8281 Q2912.4752,53.9844 2913.0377,54.2813 L2913.0377,57 Q2912.4127,56.4219 2911.819,56.1563 Q2911.2252,55.875 2910.6002,55.875 Q2909.2565,55.875 2908.569,56.9531 Q2907.8815,58.0156 2907.8815,60.1094 Q2907.8815,62.2031 2908.569,63.2813 Q2909.2565,64.3438 2910.6002,64.3438 Q2911.2252,64.3438 2911.819,64.0781 Q2912.4127,63.7969 2913.0377,63.2188 L2913.0377,65.9375 Z " fill="#000000"/><text fill="#000000" font-family="sans-serif" font-size="14" lengthAdjust="spacing" textLength="68.8242" x="2930.569" y="65.1436">FTX_4440</text><line style="stroke:#181818;stroke-width:0.5;" x1="2762.63" x2="3134.8321" y1="76.2969" y2="76.2969"/><text fill="#000000" font-family="sans-serif" font-size="14" lengthAdjust="spacing" textLength="126.54" x="2781.63" y="93.292">Name: Freier Text</text><text fill="#000000" font-family="sans-serif" font-size="14" lengthAdjust="spacing" textLength="66.6436" x="2781.63" y="109.5889">Prozesse:</text><rect fill="none" height="6" style="stroke:#C82930;stroke-width:1;" width="6" x="2769.63" y="119.5391"/><text fill="#000000" font-family="sans-serif" font-size="14" lengthAdjust="spacing" textLength="180.3457" x="2781.63" y="125.8857">Netznutzungsabrechnung</text><rect fill="none" height="6" style="stroke:#C82930;stroke-width:1;" width="6" x="2769.63" y="135.8359"/><text fill="#000000" font-family="sans-serif" font-size="14" lengthAdjust="spacing" textLength="317.9668" x="2781.63" y="142.1826">Sperrung und Entsperrung eines Anschlusses</text><rect fill="none" height="6" style="stroke:#C82930;stroke-width:1;" width="6" x="2769.63" y="152.1328"/><text fill="#000000" font-family="sans-serif" font-size="14" lengthAdjust="spacing" textLength="158.0127" x="2781.63" y="158.4795">Stammdaten&#228;nderung</text><line style="stroke:#181818;stroke-width:0.5;" x1="2762.63" x2="3134.8321" y1="165.7813" y2="165.7813"/><rect fill="#F24D5C" height="6" style="stroke:#C82930;stroke-width:1;" width="6" x="2769.63" y="176.4297"/><text fill="#000000" font-family="sans-serif" font-size="14" lengthAdjust="spacing" textLength="348.2021" x="2781.63" y="182.7764">Bestellung einer technischen Konfiguration (MSB)</text></g><!--class FTX_4440_msg_1--><g class="entity" data-entity="FTX_4440_msg_1" data-source-line="10" data-uid="ent0003" id="entity_FTX_4440_msg_1"><rect fill="#F1F1F1" height="145.7813" rx="2.5" ry="2.5" style="stroke:#181818;stroke-width:0.5;" width="539.4609" x="7" y="267.0769"/><ellipse cx="211.7056" cy="283.0769" fill="#ADD1B2" rx="11" ry="11" style="stroke:#181818;stroke-width:1;"/><path d="M214.6743,288.7175 Q214.0962,289.0144 213.4556,289.155 Q212.8149,289.3113 212.1118,289.3113 Q209.6118,289.3113 208.2837,287.6706 Q206.9712,286.0144 206.9712,282.8894 Q206.9712,279.7644 208.2837,278.1081 Q209.6118,276.4519 212.1118,276.4519 Q212.8149,276.4519 213.4556,276.6081 Q214.1118,276.7644 214.6743,277.0613 L214.6743,279.78 Q214.0493,279.2019 213.4556,278.9363 Q212.8618,278.655 212.2368,278.655 Q210.8931,278.655 210.2056,279.7331 Q209.5181,280.7956 209.5181,282.8894 Q209.5181,284.9831 210.2056,286.0613 Q210.8931,287.1238 212.2368,287.1238 Q212.8618,287.1238 213.4556,286.8581 Q214.0493,286.5769 214.6743,285.9988 L214.6743,288.7175 Z " fill="#000000"/><text fill="#000000" font-family="sans-serif" font-size="14" lengthAdjust="spacing" textLength="121.5498" x="232.2056" y="287.9236">FTX_4440_msg_1</text><line style="stroke:#181818;stroke-width:0.5;" x1="8" x2="545.4609" y1="299.0769" y2="299.0769"/><text fill="#000000" font-family="sans-serif" font-size="14" lengthAdjust="spacing" textLength="161.998" x="13" y="316.072">Nachricht: INSRPT 1.1a</text><text fill="#000000" font-family="sans-serif" font-size="14" lengthAdjust="spacing" textLength="123.0605" x="13" y="332.3689">Kontext: Beispiel:</text><text fill="#000000" font-family="sans-serif" font-size="14" lengthAdjust="spacing" textLength="110.5439" x="13" y="348.6657">Pflichtfeld: Nein</text><text fill="#000000" font-family="sans-serif" font-size="14" lengthAdjust="spacing" textLength="527.4609" x="13" y="364.9626">Codes: 17, 22, 512, 99, 999, AAO, ACD, DTM, FTX, LIN, SG3, SG7, SG8, STS</text><text fill="#000000" font-family="sans-serif" font-size="14" lengthAdjust="spacing" textLength="251.4395" x="13" y="381.2595">Prozesse: Netznutzungsabrechnung</text><text fill="#000000" font-family="sans-serif" font-size="14" lengthAdjust="spacing" textLength="284.1357" x="13" y="397.5564">Quelle: INSRPT_MIG_1_1a_20211001.pdf</text><line style="stroke:#181818;stroke-width:0.5;" x1="8" x2="545.4609" y1="404.8581" y2="404.8581"/></g><!--class FTX_4440_msg_2--><g class="entity" data-entity="FTX_4440_msg_2" data-source-line="19" data-uid="ent0005" id="entity_FTX_4440_msg_2"><rect fill="#F1F1F1" height="145.7813" rx="2.5" ry="2.5" style="stroke:#181818;stroke-width:0.5;" width="758.1631" x="581.65" y="267.0769"/><ellipse cx="895.7066" cy="283.0769" fill="#ADD1B2" rx="11" ry="11" style="stroke:#181818;stroke-width:1;"/><path d="M898.6754,288.7175 Q898.0973,289.0144 897.4566,289.155 Q896.816,289.3113 896.1129,289.3113 Q893.6129,289.3113 892.2848,287.6706 Q890.9723,286.0144 890.9723,282.8894 Q890.9723,279.7644 892.2848,278.1081 Q893.6129,276.4519 896.1129,276.4519 Q896.816,276.4519 897.4566,276.6081 Q898.1129,276.7644 898.6754,277.0613 L898.6754,279.78 Q898.0504,279.2019 897.4566,278.9363 Q896.8629,278.655 896.2379,278.655 Q894.8941,278.655 894.2066,279.7331 Q893.5191,280.7956 893.5191,282.8894 Q893.5191,284.9831 894.2066,286.0613 Q894.8941,287.1238 896.2379,287.1238 Q896.8629,287.1238 897.4566,286.8581 Q898.0504,286.5769 898.6754,285.9988 L898.6754,288.7175 Z " fill="#000000"/><text fill="#000000" font-family="sans-serif" font-size="14" lengthAdjust="spacing" textLength="121.5498" x="916.2066" y="287.9236">FTX_4440_msg_2</text><line style="stroke:#181818;stroke-width:0.5;" x1="582.65" x2="1338.8131" y1="299.0769" y2="299.0769"/><text fill="#000000" font-family="sans-serif" font-size="14" lengthAdjust="spacing" textLength="161.793" x="587.65" y="316.072">Nachricht: ORDRSP 1.4</text><text fill="#000000" font-family="sans-serif" font-size="14" lengthAdjust="spacing" textLength="123.0605" x="587.65" y="332.3689">Kontext: Beispiel:</text><text fill="#000000" font-family="sans-serif" font-size="14" lengthAdjust="spacing" textLength="110.5439" x="587.65" y="348.6657">Pflichtfeld: Nein</text><text fill="#000000" font-family="sans-serif" font-size="14" lengthAdjust="spacing" textLength="225.3262" x="587.65" y="364.9626">Codes: 17, 512, 99, FTX, IP, Z28</text><text fill="#000000" font-family="sans-serif" font-size="14" lengthAdjust="spacing" textLength="283.9307" x="587.65" y="381.2595">Quelle: ORDRSP_MIG_1_4_20240619.pdf</text><line style="stroke:#181818;stroke-width:0.5;" x1="582.65" x2="1338.8131" y1="388.5613" y2="388.5613"/><text fill="#000000" font-family="sans-serif" font-size="14" lengthAdjust="spacing" textLength="746.1631" x="587.65" y="405.5564">Prozesse: Bestellung einer technischen Konfiguration (MSB), Sperrung und Entsperrung eines Anschlusses</text></g><!--class FTX_4440_msg_3--><g class="entity" data-entity="FTX_4440_msg_3" data-source-line="28" data-uid="ent0007" id="entity_FTX_4440_msg_3"><rect fill="#F1F1F1" height="145.7813" rx="2.5" ry="2.5" style="stroke:#181818;stroke-width:0.5;" width="296.8604" x="1375.3" y="267.0769"/><ellipse cx="1458.7053" cy="283.0769" fill="#ADD1B2" rx="11" ry="11" style="stroke:#181818;stroke-width:1;"/><path d="M1461.674,288.7175 Q1461.0959,289.0144 1460.4553,289.155 Q1459.8146,289.3113 1459.1115,289.3113 Q1456.6115,289.3113 1455.2834,287.6706 Q1453.9709,286.0144 1453.9709,282.8894 Q1453.9709,279.7644 1455.2834,278.1081 Q1456.6115,276.4519 1459.1115,276.4519 Q1459.8146,276.4519 1460.4553,276.6081 Q1461.1115,276.7644 1461.674,277.0613 L1461.674,279.78 Q1461.049,279.2019 1460.4553,278.9363 Q1459.8615,278.655 1459.2365,278.655 Q1457.8928,278.655 1457.2053,279.7331 Q1456.5178,280.7956 1456.5178,282.8894 Q1456.5178,284.9831 1457.2053,286.0613 Q1457.8928,287.1238 1459.2365,287.1238 Q1459.8615,287.1238 1460.4553,286.8581 Q1461.049,286.5769 1461.674,285.9988 L1461.674,288.7175 Z " fill="#000000"/><text fill="#000000" font-family="sans-serif" font-size="14" lengthAdjust="spacing" textLength="121.5498" x="1479.2053" y="287.9236">FTX_4440_msg_3</text><line style="stroke:#181818;stroke-width:0.5;" x1="1376.3" x2="1671.1604" y1="299.0769" y2="299.0769"/><text fill="#000000" font-family="sans-serif" font-size="14" lengthAdjust="spacing" textLength="162.7227" x="1381.3" y="316.072">Nachricht: PARTIN 1.0e</text><text fill="#000000" font-family="sans-serif" font-size="14" lengthAdjust="spacing" textLength="123.0605" x="1381.3" y="332.3689">Kontext: Beispiel:</text><text fill="#000000" font-family="sans-serif" font-size="14" lengthAdjust="spacing" textLength="110.5439" x="1381.3" y="348.6657">Pflichtfeld: Nein</text><text fill="#000000" font-family="sans-serif" font-size="14" lengthAdjust="spacing" textLength="251.3574" x="1381.3" y="364.9626">Codes: 17, 512, FTX, SG4, URL, Z13</text><text fill="#000000" font-family="sans-serif" font-size="14" lengthAdjust="spacing" textLength="229.1064" x="1381.3" y="381.2595">Prozesse: Stammdaten&#228;nderung</text><text fill="#000000" font-family="sans-serif" font-size="14" lengthAdjust="spacing" textLength="284.8604" x="1381.3" y="397.5564">Quelle: PARTIN_MIG_1_0e_20241001.pdf</text><line style="stroke:#181818;stroke-width:0.5;" x1="1376.3" x2="1671.1604" y1="404.8581" y2="404.8581"/></g><!--class FTX_4440_msg_4--><g class="entity" data-entity="FTX_4440_msg_4" data-source-line="37" data-uid="ent0009" id="entity_FTX_4440_msg_4"><rect fill="#F1F1F1" height="145.7813" rx="2.5" ry="2.5" style="stroke:#181818;stroke-width:0.5;" width="758.1631" x="1707.65" y="267.0769"/><ellipse cx="2021.7066" cy="283.0769" fill="#ADD1B2" rx="11" ry="11" style="stroke:#181818;stroke-width:1;"/><path d="M2024.6754,288.7175 Q2024.0973,289.0144 2023.4566,289.155 Q2022.816,289.3113 2022.1129,289.3113 Q2019.6129,289.3113 2018.2848,287.6706 Q2016.9723,286.0144 2016.9723,282.8894 Q2016.9723,279.7644 2018.2848,278.1081 Q2019.6129,276.4519 2022.1129,276.4519 Q2022.816,276.4519 2023.4566,276.6081 Q2024.1129,276.7644 2024.6754,277.0613 L2024.6754,279.78 Q2024.0504,279.2019 2023.4566,278.9363 Q2022.8629,278.655 2022.2379,278.655 Q2020.8941,278.655 2020.2066,279.7331 Q2019.5191,280.7956 2019.5191,282.8894 Q2019.5191,284.9831 2020.2066,286.0613 Q2020.8941,287.1238 2022.2379,287.1238 Q2022.8629,287.1238 2023.4566,286.8581 Q2024.0504,286.5769 2024.6754,285.9988 L2024.6754,288.7175 Z " fill="#000000"/><text fill="#000000" font-family="sans-serif" font-size="14" lengthAdjust="spacing" textLength="121.5498" x="2042.2066" y="287.9236">FTX_4440_msg_4</text><line style="stroke:#181818;stroke-width:0.5;" x1="1708.65" x2="2464.8131" y1="299.0769" y2="299.0769"/><text fill="#000000" font-family="sans-serif" font-size="14" lengthAdjust="spacing" textLength="170.3584" x="1713.65" y="316.072">Nachricht: QUOTES 1.3a</text><text fill="#000000" font-family="sans-serif" font-size="14" lengthAdjust="spacing" textLength="170.3447" x="1713.65" y="332.3689">Kontext: Segmentlayout</text><text fill="#000000" font-family="sans-serif" font-size="14" lengthAdjust="spacing" textLength="110.5439" x="1713.65" y="348.6657">Pflichtfeld: Nein</text><text fill="#000000" font-family="sans-serif" font-size="14" lengthAdjust="spacing" textLength="205.4063" x="1713.65" y="364.9626">Codes: 17, 512, 99, ACB, FTX</text><text fill="#000000" font-family="sans-serif" font-size="14" lengthAdjust="spacing" textLength="408.3174" x="1713.65" y="381.2595">Quelle: QUOTES_MIG_1_3a_Fehlerkorrektur_20241213.pdf</text><line style="stroke:#181818;stroke-width:0.5;" x1="1708.65" x2="2464.8131" y1="388.5613" y2="388.5613"/><text fill="#000000" font-family="sans-serif" font-size="14" lengthAdjust="spacing" textLength="746.1631" x="1713.65" y="405.5564">Prozesse: Bestellung einer technischen Konfiguration (MSB), Sperrung und Entsperrung eines Anschlusses</text></g><!--class FTX_4440_msg_5--><g class="entity" data-entity="FTX_4440_msg_5" data-source-line="46" data-uid="ent0011" id="entity_FTX_4440_msg_5"><rect fill="#F1F1F1" height="145.7813" rx="2.5" ry="2.5" style="stroke:#181818;stroke-width:0.5;" width="429.8672" x="2500.8" y="267.0769"/><ellipse cx="2650.7087" cy="283.0769" fill="#ADD1B2" rx="11" ry="11" style="stroke:#181818;stroke-width:1;"/><path d="M2653.6774,288.7175 Q2653.0993,289.0144 2652.4587,289.155 Q2651.8181,289.3113 2651.1149,289.3113 Q2648.6149,289.3113 2647.2868,287.6706 Q2645.9743,286.0144 2645.9743,282.8894 Q2645.9743,279.7644 2647.2868,278.1081 Q2648.6149,276.4519 2651.1149,276.4519 Q2651.8181,276.4519 2652.4587,276.6081 Q2653.1149,276.7644 2653.6774,277.0613 L2653.6774,279.78 Q2653.0524,279.2019 2652.4587,278.9363 Q2651.8649,278.655 2651.2399,278.655 Q2649.8962,278.655 2649.2087,279.7331 Q2648.5212,280.7956 2648.5212,282.8894 Q2648.5212,284.9831 2649.2087,286.0613 Q2649.8962,287.1238 2651.2399,287.1238 Q2651.8649,287.1238 2652.4587,286.8581 Q2653.0524,286.5769 2653.6774,285.9988 L2653.6774,288.7175 Z " fill="#000000"/><text fill="#000000" font-family="sans-serif" font-size="14" lengthAdjust="spacing" textLength="121.5498" x="2671.2087" y="287.9236">FTX_4440_msg_5</text><line style="stroke:#181818;stroke-width:0.5;" x1="2501.8" x2="2929.6672" y1="299.0769" y2="299.0769"/><text fill="#000000" font-family="sans-serif" font-size="14" lengthAdjust="spacing" textLength="171.4932" x="2506.8" y="316.072">Nachricht: REMADV 2.9c</text><text fill="#000000" font-family="sans-serif" font-size="14" lengthAdjust="spacing" textLength="123.0605" x="2506.8" y="332.3689">Kontext: Beispiel:</text><text fill="#000000" font-family="sans-serif" font-size="14" lengthAdjust="spacing" textLength="110.5439" x="2506.8" y="348.6657">Pflichtfeld: Nein</text><text fill="#000000" font-family="sans-serif" font-size="14" lengthAdjust="spacing" textLength="244.1934" x="2506.8" y="364.9626">Codes: 10, 17, 512, ABO, FTX, SG5</text><text fill="#000000" font-family="sans-serif" font-size="14" lengthAdjust="spacing" textLength="251.4395" x="2506.8" y="381.2595">Prozesse: Netznutzungsabrechnung</text><text fill="#000000" font-family="sans-serif" font-size="14" lengthAdjust="spacing" textLength="417.8672" x="2506.8" y="397.5564">Quelle: REMADV_MIG_2.9c_au&#223;erordentliche_20240726.pdf</text><line style="stroke:#181818;stroke-width:0.5;" x1="2501.8" x2="2929.6672" y1="404.8581" y2="404.8581"/></g><!--class FTX_4440_msg_6--><g class="entity" data-entity="FTX_4440_msg_6" data-source-line="55" data-uid="ent0013" id="entity_FTX_4440_msg_6"><rect fill="#F1F1F1" height="145.7813" rx="2.5" ry="2.5" style="stroke:#181818;stroke-width:0.5;" width="431.2959" x="2966.08" y="267.0769"/><ellipse cx="3116.703" cy="283.0769" fill="#ADD1B2" rx="11" ry="11" style="stroke:#181818;stroke-width:1;"/><path d="M3119.6718,288.7175 Q3119.0937,289.0144 3118.453,289.155 Q3117.8124,289.3113 3117.1093,289.3113 Q3114.6093,289.3113 3113.2812,287.6706 Q3111.9687,286.0144 3111.9687,282.8894 Q3111.9687,279.7644 3113.2812,278.1081 Q3114.6093,276.4519 3117.1093,276.4519 Q3117.8124,276.4519 3118.453,276.6081 Q3119.1093,276.7644 3119.6718,277.0613 L3119.6718,279.78 Q3119.0468,279.2019 3118.453,278.9363 Q3117.8593,278.655 3117.2343,278.655 Q3115.8905,278.655 3115.203,279.7331 Q3114.5155,280.7956 3114.5155,282.8894 Q3114.5155,284.9831 3115.203,286.0613 Q3115.8905,287.1238 3117.2343,287.1238 Q3117.8593,287.1238 3118.453,286.8581 Q3119.0468,286.5769 3119.6718,285.9988 L3119.6718,288.7175 Z " fill="#000000"/><text fill="#000000" font-family="sans-serif" font-size="14" lengthAdjust="spacing" textLength="121.5498" x="3137.203" y="287.9236">FTX_4440_msg_6</text><line style="stroke:#181818;stroke-width:0.5;" x1="2967.08" x2="3396.3759" y1="299.0769" y2="299.0769"/><text fill="#000000" font-family="sans-serif" font-size="14" lengthAdjust="spacing" textLength="170.1055" x="2972.08" y="316.072">Nachricht: REQOTE 1.3b</text><text fill="#000000" font-family="sans-serif" font-size="14" lengthAdjust="spacing" textLength="123.0605" x="2972.08" y="332.3689">Kontext: Beispiel:</text><text fill="#000000" font-family="sans-serif" font-size="14" lengthAdjust="spacing" textLength="110.5439" x="2972.08" y="348.6657">Pflichtfeld: Nein</text><text fill="#000000" font-family="sans-serif" font-size="14" lengthAdjust="spacing" textLength="244.8291" x="2972.08" y="364.9626">Codes: 17, 512, 99, ACB, FTX, OCR</text><text fill="#000000" font-family="sans-serif" font-size="14" lengthAdjust="spacing" textLength="292.2432" x="2972.08" y="381.2595">Quelle: REQOTE_MIG_1_3b_20241001.pdf</text><line style="stroke:#181818;stroke-width:0.5;" x1="2967.08" x2="3396.3759" y1="388.5613" y2="388.5613"/><text fill="#000000" font-family="sans-serif" font-size="14" lengthAdjust="spacing" textLength="419.2959" x="2972.08" y="405.5564">Prozesse: Bestellung einer technischen Konfiguration (MSB)</text></g><!--class FTX_4440_proc_1--><g class="entity" data-entity="FTX_4440_proc_1" data-source-line="64" data-uid="ent0015" id="entity_FTX_4440_proc_1"><rect fill="#F1F1F1" height="105.1563" rx="2.5" ry="2.5" style="stroke:#181818;stroke-width:0.5;" width="752.6465" x="3432.41" y="287.3869"/><ellipse cx="3743.1649" cy="307.5197" fill="#ADD1B2" rx="11" ry="11" style="stroke:#181818;stroke-width:1;"/><path d="M3746.1336,313.1603 Q3745.5555,313.4572 3744.9149,313.5978 Q3744.2743,313.7541 3743.5711,313.7541 Q3741.0711,313.7541 3739.743,312.1134 Q3738.4305,310.4572 3738.4305,307.3322 Q3738.4305,304.2072 3739.743,302.5509 Q3741.0711,300.8947 3743.5711,300.8947 Q3744.2743,300.8947 3744.9149,301.0509 Q3745.5711,301.2072 3746.1336,301.5041 L3746.1336,304.2228 Q3745.5086,303.6447 3744.9149,303.3791 Q3744.3211,303.0978 3743.6961,303.0978 Q3742.3524,303.0978 3741.6649,304.1759 Q3740.9774,305.2384 3740.9774,307.3322 Q3740.9774,309.4259 3741.6649,310.5041 Q3742.3524,311.5666 3743.6961,311.5666 Q3744.3211,311.5666 3744.9149,311.3009 Q3745.5086,311.0197 3746.1336,310.4416 L3746.1336,313.1603 Z " fill="#000000"/><text fill="#000000" font-family="sans-serif" font-size="12" font-style="italic" lengthAdjust="spacing" textLength="61.0605" x="3794.453" y="303.5255">&#171;process&#187;</text><text fill="#000000" font-family="sans-serif" font-size="14" lengthAdjust="spacing" textLength="122.6367" x="3763.6649" y="319.3507">FTX_4440_proc_1</text><line style="stroke:#181818;stroke-width:0.5;" x1="3433.41" x2="4184.0565" y1="327.6525" y2="327.6525"/><text fill="#000000" font-family="sans-serif" font-size="14" lengthAdjust="spacing" textLength="180.3457" x="3438.41" y="344.6476">Netznutzungsabrechnung</text><text fill="#000000" font-family="sans-serif" font-size="14" lengthAdjust="spacing" textLength="218.0938" x="3438.41" y="360.9445">Gesetze: StromNEV, StromNZV</text><text fill="#000000" font-family="sans-serif" font-size="14" lengthAdjust="spacing" textLength="740.6465" x="3438.41" y="377.2414">Zusammenfassung: Wie funktioniert die Netznutzungsabrechnung zwischen Netzbetreiber und Lieferant?</text><line style="stroke:#181818;stroke-width:0.5;" x1="3433.41" x2="4184.0565" y1="384.5431" y2="384.5431"/></g><!--class FTX_4440_proc_2--><g class="entity" data-entity="FTX_4440_proc_2" data-source-line="70" data-uid="ent0017" id="entity_FTX_4440_proc_2"><rect fill="#F1F1F1" height="105.1563" rx="2.5" ry="2.5" style="stroke:#181818;stroke-width:0.5;" width="1301.9961" x="4219.73" y="287.3869"/><ellipse cx="4805.1597" cy="307.5197" fill="#ADD1B2" rx="11" ry="11" style="stroke:#181818;stroke-width:1;"/><path d="M4808.1284,313.1603 Q4807.5503,313.4572 4806.9097,313.5978 Q4806.2691,313.7541 4805.5659,313.7541 Q4803.0659,313.7541 4801.7378,312.1134 Q4800.4253,310.4572 4800.4253,307.3322 Q4800.4253,304.2072 4801.7378,302.5509 Q4803.0659,300.8947 4805.5659,300.8947 Q4806.2691,300.8947 4806.9097,301.0509 Q4807.5659,301.2072 4808.1284,301.5041 L4808.1284,304.2228 Q4807.5034,303.6447 4806.9097,303.3791 Q4806.3159,303.0978 4805.6909,303.0978 Q4804.3472,303.0978 4803.6597,304.1759 Q4802.9722,305.2384 4802.9722,307.3322 Q4802.9722,309.4259 4803.6597,310.5041 Q4804.3472,311.5666 4805.6909,311.5666 Q4806.3159,311.5666 4806.9097,311.3009 Q4807.5034,311.0197 4808.1284,310.4416 L4808.1284,313.1603 Z " fill="#000000"/><text fill="#000000" font-family="sans-serif" font-size="12" font-style="italic" lengthAdjust="spacing" textLength="61.0605" x="4856.4478" y="303.5255">&#171;process&#187;</text><text fill="#000000" font-family="sans-serif" font-size="14" lengthAdjust="spacing" textLength="122.6367" x="4825.6597" y="319.3507">FTX_4440_proc_2</text><line style="stroke:#181818;stroke-width:0.5;" x1="4220.73" x2="5520.7261" y1="327.6525" y2="327.6525"/><text fill="#000000" font-family="sans-serif" font-size="14" lengthAdjust="spacing" textLength="156.4063" x="4225.73" y="344.6476">Gesetze: MsbG, EnWG</text><text fill="#000000" font-family="sans-serif" font-size="14" lengthAdjust="spacing" textLength="1289.9961" x="4225.73" y="360.9445">Zusammenfassung: Erl&#228;utere den Prozess zur Bestellung einer spezifischen technischen Konfiguration bei einem Messstellenbetreiber, beispielsweise f&#252;r ein intelligentes Messsystem.</text><line style="stroke:#181818;stroke-width:0.5;" x1="4220.73" x2="5520.7261" y1="368.2463" y2="368.2463"/><text fill="#000000" font-family="sans-serif" font-size="14" lengthAdjust="spacing" textLength="348.2021" x="4225.73" y="385.2414">Bestellung einer technischen Konfiguration (MSB)</text></g><!--class FTX_4440_proc_3--><g class="entity" data-entity="FTX_4440_proc_3" data-source-line="76" data-uid="ent0019" id="entity_FTX_4440_proc_3"><rect fill="#F1F1F1" height="105.1563" rx="2.5" ry="2.5" style="stroke:#181818;stroke-width:0.5;" width="853.9893" x="5556.74" y="287.3869"/><ellipse cx="5918.1663" cy="307.5197" fill="#ADD1B2" rx="11" ry="11" style="stroke:#181818;stroke-width:1;"/><path d="M5921.135,313.1603 Q5920.5569,313.4572 5919.9163,313.5978 Q5919.2756,313.7541 5918.5725,313.7541 Q5916.0725,313.7541 5914.7444,312.1134 Q5913.4319,310.4572 5913.4319,307.3322 Q5913.4319,304.2072 5914.7444,302.5509 Q5916.0725,300.8947 5918.5725,300.8947 Q5919.2756,300.8947 5919.9163,301.0509 Q5920.5725,301.2072 5921.135,301.5041 L5921.135,304.2228 Q5920.51,303.6447 5919.9163,303.3791 Q5919.3225,303.0978 5918.6975,303.0978 Q5917.3538,303.0978 5916.6663,304.1759 Q5915.9788,305.2384 5915.9788,307.3322 Q5915.9788,309.4259 5916.6663,310.5041 Q5917.3538,311.5666 5918.6975,311.5666 Q5919.3225,311.5666 5919.9163,311.3009 Q5920.51,311.0197 5921.135,310.4416 L5921.135,313.1603 Z " fill="#000000"/><text fill="#000000" font-family="sans-serif" font-size="12" font-style="italic" lengthAdjust="spacing" textLength="61.0605" x="5969.4544" y="303.5255">&#171;process&#187;</text><text fill="#000000" font-family="sans-serif" font-size="14" lengthAdjust="spacing" textLength="122.6367" x="5938.6663" y="319.3507">FTX_4440_proc_3</text><line style="stroke:#181818;stroke-width:0.5;" x1="5557.74" x2="6409.7293" y1="327.6525" y2="327.6525"/><text fill="#000000" font-family="sans-serif" font-size="14" lengthAdjust="spacing" textLength="317.9668" x="5562.74" y="344.6476">Sperrung und Entsperrung eines Anschlusses</text><text fill="#000000" font-family="sans-serif" font-size="14" lengthAdjust="spacing" textLength="138.3252" x="5562.74" y="360.9445">Gesetze: StromGVV</text><text fill="#000000" font-family="sans-serif" font-size="14" lengthAdjust="spacing" textLength="841.9893" x="5562.74" y="377.2414">Zusammenfassung: Beschreibe den End-to-End-Prozess f&#252;r die Sperrung und Wiederherstellung eines Netzanschlusses.</text><line style="stroke:#181818;stroke-width:0.5;" x1="5557.74" x2="6409.7293" y1="384.5431" y2="384.5431"/></g><!--class FTX_4440_proc_4--><g class="entity" data-entity="FTX_4440_proc_4" data-source-line="82" data-uid="ent0021" id="entity_FTX_4440_proc_4"><rect fill="#F1F1F1" height="88.8594" rx="2.5" ry="2.5" style="stroke:#181818;stroke-width:0.5;" width="638.3496" x="6445.56" y="295.5369"/><ellipse cx="6699.1664" cy="315.6697" fill="#ADD1B2" rx="11" ry="11" style="stroke:#181818;stroke-width:1;"/><path d="M6702.1352,321.3103 Q6701.5571,321.6072 6700.9164,321.7478 Q6700.2758,321.9041 6699.5727,321.9041 Q6697.0727,321.9041 6695.7446,320.2634 Q6694.4321,318.6072 6694.4321,315.4822 Q6694.4321,312.3572 6695.7446,310.7009 Q6697.0727,309.0447 6699.5727,309.0447 Q6700.2758,309.0447 6700.9164,309.2009 Q6701.5727,309.3572 6702.1352,309.6541 L6702.1352,312.3728 Q6701.5102,311.7947 6700.9164,311.5291 Q6700.3227,311.2478 6699.6977,311.2478 Q6698.3539,311.2478 6697.6664,312.3259 Q6696.9789,313.3884 6696.9789,315.4822 Q6696.9789,317.5759 6697.6664,318.6541 Q6698.3539,319.7166 6699.6977,319.7166 Q6700.3227,319.7166 6700.9164,319.4509 Q6701.5102,319.1697 6702.1352,318.5916 L6702.1352,321.3103 Z " fill="#000000"/><text fill="#000000" font-family="sans-serif" font-size="12" font-style="italic" lengthAdjust="spacing" textLength="61.0605" x="6750.4545" y="311.6755">&#171;process&#187;</text><text fill="#000000" font-family="sans-serif" font-size="14" lengthAdjust="spacing" textLength="122.6367" x="6719.6664" y="327.5007">FTX_4440_proc_4</text><line style="stroke:#181818;stroke-width:0.5;" x1="6446.56" x2="7082.9096" y1="335.8025" y2="335.8025"/><text fill="#000000" font-family="sans-serif" font-size="14" lengthAdjust="spacing" textLength="158.0127" x="6451.56" y="352.7976">Stammdaten&#228;nderung</text><text fill="#000000" font-family="sans-serif" font-size="14" lengthAdjust="spacing" textLength="626.3496" x="6451.56" y="369.0945">Zusammenfassung: Wie wird eine Stammdaten&#228;nderung an einer Marktlokation, wie z.B.</text><line style="stroke:#181818;stroke-width:0.5;" x1="6446.56" x2="7082.9096" y1="376.3963" y2="376.3963"/></g><!--link FTX_4440 to FTX_4440_msg_1--><g class="link" data-entity-1="FTX_4440" data-entity-2="FTX_4440_msg_1" data-source-line="18" data-uid="lnk4" id="link_FTX_4440_FTX_4440_msg_1"><path codeLine="18" d="M2761.17,118.2669 C2357.03,120.9769 1374.95,141.2369 563.73,267.0769 C558.15,267.9369 558.4223,267.845 552.7523,268.825" fill="none" id="FTX_4440-to-FTX_4440_msg_1" style="stroke:#181818;stroke-width:1;"/><polygon fill="#181818" points="546.84,269.8469,556.3898,272.2556,551.7669,268.9953,555.0273,264.3725,546.84,269.8469" style="stroke:#181818;stroke-width:1;"/><text fill="#000000" font-family="sans-serif" font-size="13" lengthAdjust="spacing" textLength="85.2363" x="886.73" y="233.1438">verwendet in</text></g><!--link FTX_4440 to FTX_4440_msg_2--><g class="link" data-entity-1="FTX_4440" data-entity-2="FTX_4440_msg_2" data-source-line="27" data-uid="lnk6" id="link_FTX_4440_FTX_4440_msg_2"><path codeLine="27" d="M2761.39,128.4969 C2463.03,146.5469 1862.09,189.5169 1357.73,267.0769 C1351.93,267.9669 1352.0163,267.9395 1346.1363,268.8695" fill="none" id="FTX_4440-to-FTX_4440_msg_2" style="stroke:#181818;stroke-width:1;"/><polygon fill="#181818" points="1340.21,269.8069,1349.7244,272.3518,1345.1486,269.0258,1348.4746,264.45,1340.21,269.8069" style="stroke:#181818;stroke-width:1;"/><text fill="#000000" font-family="sans-serif" font-size="13" lengthAdjust="spacing" textLength="85.2363" x="1705.73" y="233.1438">verwendet in</text></g><!--link FTX_4440 to FTX_4440_msg_3--><g class="link" data-entity-1="FTX_4440" data-entity-2="FTX_4440_msg_3" data-source-line="36" data-uid="lnk8" id="link_FTX_4440_FTX_4440_msg_3"><path codeLine="36" d="M2761.26,123.4069 C2512.44,134.1569 2061.24,166.9669 1689.73,267.0769 C1683.97,268.6269 1683.8699,268.5349 1678.0299,270.3849" fill="none" id="FTX_4440-to-FTX_4440_msg_3" style="stroke:#181818;stroke-width:1;"/><polygon fill="#181818" points="1672.31,272.1969,1682.0978,273.2922,1677.0766,270.6869,1679.6818,265.6657,1672.31,272.1969" style="stroke:#181818;stroke-width:1;"/><text fill="#000000" font-family="sans-serif" font-size="13" lengthAdjust="spacing" textLength="85.2363" x="1892.73" y="233.1438">verwendet in</text></g><!--link FTX_4440 to FTX_4440_msg_4--><g class="link" data-entity-1="FTX_4440" data-entity-2="FTX_4440_msg_4" data-source-line="45" data-uid="lnk10" id="link_FTX_4440_FTX_4440_msg_4"><path codeLine="45" d="M2761.16,166.2269 C2646.5,195.5969 2503.4624,232.2281 2374.7824,265.1881" fill="none" id="FTX_4440-to-FTX_4440_msg_4" style="stroke:#181818;stroke-width:1;"/><polygon fill="#181818" points="2368.97,266.6769,2378.6811,268.3186,2373.8136,265.4362,2376.696,260.5688,2368.97,266.6769" style="stroke:#181818;stroke-width:1;"/><text fill="#000000" font-family="sans-serif" font-size="13" lengthAdjust="spacing" textLength="85.2363" x="2544.73" y="233.1438">verwendet in</text></g><!--link FTX_4440 to FTX_4440_msg_5--><g class="link" data-entity-1="FTX_4440" data-entity-2="FTX_4440_msg_5" data-source-line="54" data-uid="lnk12" id="link_FTX_4440_FTX_4440_msg_5"><path codeLine="54" d="M2872.44,190.4769 C2846.56,214.9969 2822.0156,238.2603 2796.1556,262.7603" fill="none" id="FTX_4440-to-FTX_4440_msg_5" style="stroke:#181818;stroke-width:1;"/><polygon fill="#181818" points="2791.8,266.8869,2801.0845,263.6008,2795.4297,263.4481,2795.5824,257.7933,2791.8,266.8869" style="stroke:#181818;stroke-width:1;"/><text fill="#000000" font-family="sans-serif" font-size="13" lengthAdjust="spacing" textLength="85.2363" x="2840.73" y="233.1438">verwendet in</text></g><!--link FTX_4440 to FTX_4440_msg_6--><g class="link" data-entity-1="FTX_4440" data-entity-2="FTX_4440_msg_6" data-source-line="63" data-uid="lnk14" id="link_FTX_4440_FTX_4440_msg_6"><path codeLine="63" d="M3025.02,190.4769 C3050.9,214.9969 3075.4444,238.2603 3101.3044,262.7603" fill="none" id="FTX_4440-to-FTX_4440_msg_6" style="stroke:#181818;stroke-width:1;"/><polygon fill="#181818" points="3105.66,266.8869,3101.8776,257.7933,3102.0303,263.4481,3096.3755,263.6008,3105.66,266.8869" style="stroke:#181818;stroke-width:1;"/><text fill="#000000" font-family="sans-serif" font-size="13" lengthAdjust="spacing" textLength="85.2363" x="3073.73" y="233.1438">verwendet in</text></g><!--link FTX_4440 to FTX_4440_proc_1--><g class="link" data-entity-1="FTX_4440" data-entity-2="FTX_4440_proc_1" data-source-line="69" data-uid="lnk16" id="link_FTX_4440_FTX_4440_proc_1"><path codeLine="69" d="M3136.13,166.2969 C3274.87,201.9169 3457.8784,248.8951 3600.1484,285.4151" fill="none" id="FTX_4440-to-FTX_4440_proc_1" style="stroke:#181818;stroke-width:1;stroke-dasharray:7,7;"/><polygon fill="#181818" points="3605.96,286.9069,3598.2372,280.7948,3601.117,285.6637,3596.2481,288.5436,3605.96,286.9069" style="stroke:#181818;stroke-width:1;"/><text fill="#000000" font-family="sans-serif" font-size="13" lengthAdjust="spacing" textLength="91.6221" x="3405.73" y="233.1438">eingebettet in</text></g><!--link FTX_4440 to FTX_4440_proc_2--><g class="link" data-entity-1="FTX_4440" data-entity-2="FTX_4440_proc_2" data-source-line="75" data-uid="lnk18" id="link_FTX_4440_FTX_4440_proc_2"><path codeLine="75" d="M3136.08,139.7069 C3430.48,173.5269 4003.8892,239.3922 4411.8292,286.2522" fill="none" id="FTX_4440-to-FTX_4440_proc_2" style="stroke:#181818;stroke-width:1;stroke-dasharray:7,7;"/><polygon fill="#181818" points="4417.79,286.9369,4409.3053,281.9359,4412.8227,286.3663,4408.3923,289.8837,4417.79,286.9369" style="stroke:#181818;stroke-width:1;"/><text fill="#000000" font-family="sans-serif" font-size="13" lengthAdjust="spacing" textLength="91.6221" x="3968.73" y="233.1438">eingebettet in</text></g><!--link FTX_4440 to FTX_4440_proc_3--><g class="link" data-entity-1="FTX_4440" data-entity-2="FTX_4440_proc_3" data-source-line="81" data-uid="lnk20" id="link_FTX_4440_FTX_4440_proc_3"><path codeLine="81" d="M3136.16,122.3569 C3563.46,133.3169 4642.15,169.1469 5538.73,267.0769 C5587.26,272.3769 5632.6175,278.4594 5682.4575,285.9994" fill="none" id="FTX_4440-to-FTX_4440_proc_3" style="stroke:#181818;stroke-width:1;stroke-dasharray:7,7;"/><polygon fill="#181818" points="5688.39,286.8969,5680.0896,281.5956,5683.4463,286.149,5678.8929,289.5056,5688.39,286.8969" style="stroke:#181818;stroke-width:1;"/><text fill="#000000" font-family="sans-serif" font-size="13" lengthAdjust="spacing" textLength="91.6221" x="5188.73" y="233.1438">eingebettet in</text></g><!--link FTX_4440 to FTX_4440_proc_4--><g class="link" data-entity-1="FTX_4440" data-entity-2="FTX_4440_proc_4" data-source-line="86" data-uid="lnk22" id="link_FTX_4440_FTX_4440_proc_4"><path codeLine="86" d="M3136.33,122.0669 C3763.25,135.6969 5782.38,185.0169 6427.73,267.0769 C6479.66,273.6769 6529.5937,282.9075 6580.5537,293.8475" fill="none" id="FTX_4440-to-FTX_4440_proc_4" style="stroke:#181818;stroke-width:1;stroke-dasharray:7,7;"/><polygon fill="#181818" points="6586.42,295.1069,6578.4601,289.3069,6581.5314,294.0574,6576.7809,297.1287,6586.42,295.1069" style="stroke:#181818;stroke-width:1;"/><text fill="#000000" font-family="sans-serif" font-size="13" lengthAdjust="spacing" textLength="91.6221" x="6076.73" y="233.1438">eingebettet in</text></g><!--SRC=[nPRBSjem58RtUOgpR6SCurjkdWmT28HX6Yx1X7IoyHXy00z6paXoQUZqMRh9OtIN5-kHCIHSKY1PT155jdIayt_wTOmCPOHGzYKoNqQ-W1nSTRuvjcthHtrw5khHKu_mymYWuK_GWIkE8NBeu0z9xreydg4Gw50VABw1SiOIEKlOKFWzZlqHesusM48XCOhe1M38Q16fnaFH7o63hp4RXCE4-pAC6NogkwNFMPZxW9ohe8G5K65IB9xL8WAAZ1Q84af2B0AaFva4IjRp4mjGpJtwjQR8cuYXPsIw-YCUzaVIWLh3RRSwOEGDdmOe9Kao7Key50yXHafbQn2fkGEC0eVaXepUNSO12WUCKmrCKuDZWvhpS_L7JR7OfEQoh46vKzTK0XfSrneQk5LBDQUgEQEcuxu6-ZRAcuGWuY9PhrwhUePd-9wfcuQXwqR-8HYGtkNPvNA5TTaEV4S-HO8ZWHHiGMEkescsosstHMZiTv9PKaa9r5eQt9jdAueFzOTsc3KMtEPACcwsmcRh9yRvJcpc7jYiTMojOhjJQn0s7J_2BMNcLcqDRjlNHCwmLiXjS_oBu7aEcM0TKyLx6SNQGx6zhlZcjjcfkAJOMhb3BWudoAZCFCQ9FC0jnSjIAlz_E6Kk9GDd-TuLZYBauvXp7Ck4pq6QXhKJfBq7oEDraErAlLZkWfa_xx_7Ehhs0h9OQYuzT7nObPbdaJ9GcNX-ylmRUSm3TPYq-TnE-gbvifF2yHuKJZOftD0XA3lrFbfu5bRIe7dP_f2VLlYe_1OUwUr_kKvsq7ZWSPzAzSM5wb2QXS8SpLi7LaL1GsanuF6aKUbgMU- -IwFtYQ0IWMn0Uz1y1-v2X472naeKVT0b1FHY- -8mcsOer7WF9Vq4w14aTPMkGnmWzvdyybfiFb_O4E8ej4EaSFcsNdD3xpkEPacYBdfLZMxxNNKRWGgFdfyIYHo1pBnm0ymIlhafbOjPECXsVJk37ePfm0Jgj5Iw1h8bC4sDfwuLK-eG_-S_NCqd6cfgEAGxHSKeZNsaw4d-tr3D_Q1Q6r0FgeQhngfsjzg9YD6LLJ9Jc1KMv6ISK_yMN5EnocGhcvCDwNirGhu2NAHEyr_Is072sW-4lGbYwuTpwsMPXZn8aziM13xBd5Bt-LX6yJWrX4PH2BDyQKV-zaR-Vm40]--></g></svg>