<svg xmlns="http://www.w3.org/2000/svg" xmlns:xlink="http://www.w3.org/1999/xlink" contentStyleType="text/css" data-diagram-type="CLASS" height="387px" preserveAspectRatio="none" style="width:2998px;height:387px;background:#FFFFFF;" version="1.1" viewBox="0 0 2998 387" width="2998px" zoomAndPan="magnify"><title>Datenatlas - FTX:00024</title><defs/><g><g class="title" data-source-line="1"><text fill="#000000" font-family="sans-serif" font-size="14" font-weight="bold" lengthAdjust="spacing" textLength="185.7119" x="1399.1837" y="22.9951">Datenatlas - FTX:00024</text></g><!--class FTX_00024--><g class="entity" data-entity="FTX_00024" data-source-line="2" data-uid="ent0002" id="entity_FTX_00024"><rect fill="#F1F1F1" height="113.1875" rx="2.5" ry="2.5" style="stroke:#181818;stroke-width:0.5;" width="374.2021" x="1263.98" y="44.2969"/><ellipse cx="1407.9654" cy="60.2969" fill="#ADD1B2" rx="11" ry="11" style="stroke:#181818;stroke-width:1;"/><path d="M1410.9341,65.9375 Q1410.356,66.2344 1409.7154,66.375 Q1409.0747,66.5313 1408.3716,66.5313 Q1405.8716,66.5313 1404.5435,64.8906 Q1403.231,63.2344 1403.231,60.1094 Q1403.231,56.9844 1404.5435,55.3281 Q1405.8716,53.6719 1408.3716,53.6719 Q1409.0747,53.6719 1409.7154,53.8281 Q1410.3716,53.9844 1410.9341,54.2813 L1410.9341,57 Q1410.3091,56.4219 1409.7154,56.1563 Q1409.1216,55.875 1408.4966,55.875 Q1407.1529,55.875 1406.4654,56.9531 Q1405.7779,58.0156 1405.7779,60.1094 Q1405.7779,62.2031 1406.4654,63.2813 Q1407.1529,64.3438 1408.4966,64.3438 Q1409.1216,64.3438 1409.7154,64.0781 Q1410.3091,63.7969 1410.9341,63.2188 L1410.9341,65.9375 Z " fill="#000000"/><text fill="#000000" font-family="sans-serif" font-size="14" lengthAdjust="spacing" textLength="77.7314" x="1428.4654" y="65.1436">FTX_00024</text><line style="stroke:#181818;stroke-width:0.5;" x1="1264.98" x2="1637.1821" y1="76.2969" y2="76.2969"/><text fill="#000000" font-family="sans-serif" font-size="14" lengthAdjust="spacing" textLength="240.5156" x="1283.98" y="93.292">Name: IP - Adresse des Absenders</text><text fill="#000000" font-family="sans-serif" font-size="14" lengthAdjust="spacing" textLength="66.6436" x="1283.98" y="109.5889">Prozesse:</text><rect fill="none" height="6" style="stroke:#C82930;stroke-width:1;" width="6" x="1271.98" y="119.5391"/><text fill="#000000" font-family="sans-serif" font-size="14" lengthAdjust="spacing" textLength="317.9668" x="1283.98" y="125.8857">Sperrung und Entsperrung eines Anschlusses</text><line style="stroke:#181818;stroke-width:0.5;" x1="1264.98" x2="1637.1821" y1="133.1875" y2="133.1875"/><rect fill="#F24D5C" height="6" style="stroke:#C82930;stroke-width:1;" width="6" x="1271.98" y="143.8359"/><text fill="#000000" font-family="sans-serif" font-size="14" lengthAdjust="spacing" textLength="348.2021" x="1283.98" y="150.1826">Bestellung einer technischen Konfiguration (MSB)</text></g><!--class FTX_00024_msg_1--><g class="entity" data-entity="FTX_00024_msg_1" data-source-line="8" data-uid="ent0003" id="entity_FTX_00024_msg_1"><rect fill="#F1F1F1" height="145.7813" rx="2.5" ry="2.5" style="stroke:#181818;stroke-width:0.5;" width="758.1631" x="7" y="234.4869"/><ellipse cx="316.603" cy="250.4869" fill="#ADD1B2" rx="11" ry="11" style="stroke:#181818;stroke-width:1;"/><path d="M319.5718,256.1275 Q318.9937,256.4244 318.353,256.565 Q317.7124,256.7213 317.0093,256.7213 Q314.5093,256.7213 313.1812,255.0806 Q311.8687,253.4244 311.8687,250.2994 Q311.8687,247.1744 313.1812,245.5181 Q314.5093,243.8619 317.0093,243.8619 Q317.7124,243.8619 318.353,244.0181 Q319.0093,244.1744 319.5718,244.4713 L319.5718,247.19 Q318.9468,246.6119 318.353,246.3463 Q317.7593,246.065 317.1343,246.065 Q315.7905,246.065 315.103,247.1431 Q314.4155,248.2056 314.4155,250.2994 Q314.4155,252.3931 315.103,253.4713 Q315.7905,254.5338 317.1343,254.5338 Q317.7593,254.5338 318.353,254.2681 Q318.9468,253.9869 319.5718,253.4088 L319.5718,256.1275 Z " fill="#000000"/><text fill="#000000" font-family="sans-serif" font-size="14" lengthAdjust="spacing" textLength="130.457" x="337.103" y="255.3336">FTX_00024_msg_1</text><line style="stroke:#181818;stroke-width:0.5;" x1="8" x2="764.1631" y1="266.4869" y2="266.4869"/><text fill="#000000" font-family="sans-serif" font-size="14" lengthAdjust="spacing" textLength="161.793" x="13" y="283.482">Nachricht: ORDRSP 1.4</text><text fill="#000000" font-family="sans-serif" font-size="14" lengthAdjust="spacing" textLength="204.1143" x="13" y="299.7789">Kontext: Nachrichtenstruktur</text><text fill="#000000" font-family="sans-serif" font-size="14" lengthAdjust="spacing" textLength="110.5439" x="13" y="316.0757">Pflichtfeld: Nein</text><text fill="#000000" font-family="sans-serif" font-size="14" lengthAdjust="spacing" textLength="126.6836" x="13" y="332.3726">Codes: 99, FTX, IP</text><text fill="#000000" font-family="sans-serif" font-size="14" lengthAdjust="spacing" textLength="283.9307" x="13" y="348.6695">Quelle: ORDRSP_MIG_1_4_20240619.pdf</text><line style="stroke:#181818;stroke-width:0.5;" x1="8" x2="764.1631" y1="355.9713" y2="355.9713"/><text fill="#000000" font-family="sans-serif" font-size="14" lengthAdjust="spacing" textLength="746.1631" x="13" y="372.9664">Prozesse: Bestellung einer technischen Konfiguration (MSB), Sperrung und Entsperrung eines Anschlusses</text></g><!--class FTX_00024_proc_1--><g class="entity" data-entity="FTX_00024_proc_1" data-source-line="17" data-uid="ent0005" id="entity_FTX_00024_proc_1"><rect fill="#F1F1F1" height="105.1563" rx="2.5" ry="2.5" style="stroke:#181818;stroke-width:0.5;" width="1301.9961" x="800.08" y="254.7969"/><ellipse cx="1381.0561" cy="274.9297" fill="#ADD1B2" rx="11" ry="11" style="stroke:#181818;stroke-width:1;"/><path d="M1384.0248,280.5703 Q1383.4467,280.8672 1382.8061,281.0078 Q1382.1654,281.1641 1381.4623,281.1641 Q1378.9623,281.1641 1377.6342,279.5234 Q1376.3217,277.8672 1376.3217,274.7422 Q1376.3217,271.6172 1377.6342,269.9609 Q1378.9623,268.3047 1381.4623,268.3047 Q1382.1654,268.3047 1382.8061,268.4609 Q1383.4623,268.6172 1384.0248,268.9141 L1384.0248,271.6328 Q1383.3998,271.0547 1382.8061,270.7891 Q1382.2123,270.5078 1381.5873,270.5078 Q1380.2436,270.5078 1379.5561,271.5859 Q1378.8686,272.6484 1378.8686,274.7422 Q1378.8686,276.8359 1379.5561,277.9141 Q1380.2436,278.9766 1381.5873,278.9766 Q1382.2123,278.9766 1382.8061,278.7109 Q1383.3998,278.4297 1384.0248,277.8516 L1384.0248,280.5703 Z " fill="#000000"/><text fill="#000000" font-family="sans-serif" font-size="12" font-style="italic" lengthAdjust="spacing" textLength="61.0605" x="1436.7978" y="270.9355">&#171;process&#187;</text><text fill="#000000" font-family="sans-serif" font-size="14" lengthAdjust="spacing" textLength="131.5439" x="1401.5561" y="286.7607">FTX_00024_proc_1</text><line style="stroke:#181818;stroke-width:0.5;" x1="801.08" x2="2101.0761" y1="295.0625" y2="295.0625"/><text fill="#000000" font-family="sans-serif" font-size="14" lengthAdjust="spacing" textLength="156.4063" x="806.08" y="312.0576">Gesetze: MsbG, EnWG</text><text fill="#000000" font-family="sans-serif" font-size="14" lengthAdjust="spacing" textLength="1289.9961" x="806.08" y="328.3545">Zusammenfassung: Erl&#228;utere den Prozess zur Bestellung einer spezifischen technischen Konfiguration bei einem Messstellenbetreiber, beispielsweise f&#252;r ein intelligentes Messsystem.</text><line style="stroke:#181818;stroke-width:0.5;" x1="801.08" x2="2101.0761" y1="335.6563" y2="335.6563"/><text fill="#000000" font-family="sans-serif" font-size="14" lengthAdjust="spacing" textLength="348.2021" x="806.08" y="352.6514">Bestellung einer technischen Konfiguration (MSB)</text></g><!--class FTX_00024_proc_2--><g class="entity" data-entity="FTX_00024_proc_2" data-source-line="23" data-uid="ent0007" id="entity_FTX_00024_proc_2"><rect fill="#F1F1F1" height="105.1563" rx="2.5" ry="2.5" style="stroke:#181818;stroke-width:0.5;" width="853.9893" x="2137.09" y="254.7969"/><ellipse cx="2494.0627" cy="274.9297" fill="#ADD1B2" rx="11" ry="11" style="stroke:#181818;stroke-width:1;"/><path d="M2497.0314,280.5703 Q2496.4533,280.8672 2495.8127,281.0078 Q2495.172,281.1641 2494.4689,281.1641 Q2491.9689,281.1641 2490.6408,279.5234 Q2489.3283,277.8672 2489.3283,274.7422 Q2489.3283,271.6172 2490.6408,269.9609 Q2491.9689,268.3047 2494.4689,268.3047 Q2495.172,268.3047 2495.8127,268.4609 Q2496.4689,268.6172 2497.0314,268.9141 L2497.0314,271.6328 Q2496.4064,271.0547 2495.8127,270.7891 Q2495.2189,270.5078 2494.5939,270.5078 Q2493.2502,270.5078 2492.5627,271.5859 Q2491.8752,272.6484 2491.8752,274.7422 Q2491.8752,276.8359 2492.5627,277.9141 Q2493.2502,278.9766 2494.5939,278.9766 Q2495.2189,278.9766 2495.8127,278.7109 Q2496.4064,278.4297 2497.0314,277.8516 L2497.0314,280.5703 Z " fill="#000000"/><text fill="#000000" font-family="sans-serif" font-size="12" font-style="italic" lengthAdjust="spacing" textLength="61.0605" x="2549.8044" y="270.9355">&#171;process&#187;</text><text fill="#000000" font-family="sans-serif" font-size="14" lengthAdjust="spacing" textLength="131.5439" x="2514.5627" y="286.7607">FTX_00024_proc_2</text><line style="stroke:#181818;stroke-width:0.5;" x1="2138.09" x2="2990.0793" y1="295.0625" y2="295.0625"/><text fill="#000000" font-family="sans-serif" font-size="14" lengthAdjust="spacing" textLength="317.9668" x="2143.09" y="312.0576">Sperrung und Entsperrung eines Anschlusses</text><text fill="#000000" font-family="sans-serif" font-size="14" lengthAdjust="spacing" textLength="138.3252" x="2143.09" y="328.3545">Gesetze: StromGVV</text><text fill="#000000" font-family="sans-serif" font-size="14" lengthAdjust="spacing" textLength="841.9893" x="2143.09" y="344.6514">Zusammenfassung: Beschreibe den End-to-End-Prozess f&#252;r die Sperrung und Wiederherstellung eines Netzanschlusses.</text><line style="stroke:#181818;stroke-width:0.5;" x1="2138.09" x2="2990.0793" y1="351.9531" y2="351.9531"/></g><!--link FTX_00024 to FTX_00024_msg_1--><g class="link" data-entity-1="FTX_00024" data-entity-2="FTX_00024_msg_1" data-source-line="16" data-uid="lnk4" id="link_FTX_00024_FTX_00024_msg_1"><path codeLine="16" d="M1263.74,137.8569 C1125.5,164.4069 938.6024,200.2855 768.9224,232.8655" fill="none" id="FTX_00024-to-FTX_00024_msg_1" style="stroke:#181818;stroke-width:1;"/><polygon fill="#181818" points="763.03,233.9969,772.6228,236.228,767.9403,233.0541,771.1143,228.3716,763.03,233.9969" style="stroke:#181818;stroke-width:1;"/><text fill="#000000" font-family="sans-serif" font-size="13" lengthAdjust="spacing" textLength="85.2363" x="984.08" y="200.5538">verwendet in</text></g><!--link FTX_00024 to FTX_00024_proc_1--><g class="link" data-entity-1="FTX_00024" data-entity-2="FTX_00024_proc_1" data-source-line="22" data-uid="lnk6" id="link_FTX_00024_FTX_00024_proc_1"><path codeLine="22" d="M1451.08,157.7669 C1451.08,187.9169 1451.08,218.9069 1451.08,248.4269" fill="none" id="FTX_00024-to-FTX_00024_proc_1" style="stroke:#181818;stroke-width:1;stroke-dasharray:7,7;"/><polygon fill="#181818" points="1451.08,254.4269,1455.08,245.4269,1451.08,249.4269,1447.08,245.4269,1451.08,254.4269" style="stroke:#181818;stroke-width:1;"/><text fill="#000000" font-family="sans-serif" font-size="13" lengthAdjust="spacing" textLength="91.6221" x="1452.08" y="200.5538">eingebettet in</text></g><!--link FTX_00024 to FTX_00024_proc_2--><g class="link" data-entity-1="FTX_00024" data-entity-2="FTX_00024_proc_2" data-source-line="28" data-uid="lnk8" id="link_FTX_00024_FTX_00024_proc_2"><path codeLine="28" d="M1638.63,136.3469 C1814.34,168.6269 2073.4687,216.2428 2274.9387,253.2528" fill="none" id="FTX_00024-to-FTX_00024_proc_2" style="stroke:#181818;stroke-width:1;stroke-dasharray:7,7;"/><polygon fill="#181818" points="2280.84,254.3369,2272.7108,248.7766,2275.9223,253.4335,2271.2654,256.645,2280.84,254.3369" style="stroke:#181818;stroke-width:1;"/><text fill="#000000" font-family="sans-serif" font-size="13" lengthAdjust="spacing" textLength="91.6221" x="2009.08" y="200.5538">eingebettet in</text></g><!--SRC=[dPFRQjj048Rl_HHpsO8aR6CA5i6GDAu8nQqRboJqHkWmafPAAxCpsxGgUPi-Hk_oOfrLx9pK0-wLTcTdvf__snKhhX5E4qQTS9qG-F3curKu7e-dir4c0NBxkD_3zn70kwJ14CxMadYS6oH2o97WE2NKEHgIbBLfEtSGoXeaxmI9iQwjBW6LHWECMQKLPHLgUDlgGfNM9AnQ3IzMcvENkxBD5ernHLRdiDHC-xrh8efQ6jHMT6XqytpKkA4odkm6pYgZief3U7z-UhvPmoIOILo46RzAz3u1DR6ndzaQPwAeNQp0EfSKaPJOwrQiXZ2VUqx94mgFtHxiqpl48i07Ayrnxo9UdKNn99x5Kx4xVZMP1zky410Fj-NxYm6G4BwWkNOtnI2MdbFRcZQJhACZjn1JYqMFy3ykC492xcJQ5QMH9zuk8ub-ifGq3Uf2PALR24jJt_wmZCQz8hrd2PqrGr61qwbYf_hd2L9KVK43AsdLzq2T8XjKAHhFdTDMOKtNia0eRdyQboyuNAegKRvqL_jDgflW2TGWM0nvXQv1YIB2V-4w7N0zwFhlYMxOj4rqSV4xdW9D7hDpslDSwjpdrdUVFThURwxmgVYbGlbvA_b_7pCdUVZS9GzZ_9F5TC3Y5m00]--></g></svg>