<svg xmlns="http://www.w3.org/2000/svg" xmlns:xlink="http://www.w3.org/1999/xlink" contentStyleType="text/css" data-diagram-type="CLASS" height="387px" preserveAspectRatio="none" style="width:2630px;height:387px;background:#FFFFFF;" version="1.1" viewBox="0 0 2630 387" width="2630px" zoomAndPan="magnify"><title>Datenatlas - GEI:C012</title><defs/><g><g class="title" data-source-line="1"><text fill="#000000" font-family="sans-serif" font-size="14" font-weight="bold" lengthAdjust="spacing" textLength="172.8604" x="1221.7386" y="22.9951">Datenatlas - GEI:C012</text></g><!--class GEI_C012--><g class="entity" data-entity="GEI_C012" data-source-line="2" data-uid="ent0002" id="entity_GEI_C012"><rect fill="#F1F1F1" height="113.1875" rx="2.5" ry="2.5" style="stroke:#181818;stroke-width:0.5;" width="249.2822" x="1057.58" y="44.2969"/><ellipse cx="1144.311" cy="60.2969" fill="#ADD1B2" rx="11" ry="11" style="stroke:#181818;stroke-width:1;"/><path d="M1147.2797,65.9375 Q1146.7016,66.2344 1146.061,66.375 Q1145.4203,66.5313 1144.7172,66.5313 Q1142.2172,66.5313 1140.8891,64.8906 Q1139.5766,63.2344 1139.5766,60.1094 Q1139.5766,56.9844 1140.8891,55.3281 Q1142.2172,53.6719 1144.7172,53.6719 Q1145.4203,53.6719 1146.061,53.8281 Q1146.7172,53.9844 1147.2797,54.2813 L1147.2797,57 Q1146.6547,56.4219 1146.061,56.1563 Q1145.4672,55.875 1144.8422,55.875 Q1143.4985,55.875 1142.811,56.9531 Q1142.1235,58.0156 1142.1235,60.1094 Q1142.1235,62.2031 1142.811,63.2813 Q1143.4985,64.3438 1144.8422,64.3438 Q1145.4672,64.3438 1146.061,64.0781 Q1146.6547,63.7969 1147.2797,63.2188 L1147.2797,65.9375 Z " fill="#000000"/><text fill="#000000" font-family="sans-serif" font-size="14" lengthAdjust="spacing" textLength="67.3203" x="1164.811" y="65.1436">GEI_C012</text><line style="stroke:#181818;stroke-width:0.5;" x1="1058.58" x2="1305.8622" y1="76.2969" y2="76.2969"/><text fill="#000000" font-family="sans-serif" font-size="14" lengthAdjust="spacing" textLength="211.5928" x="1077.58" y="93.292">Name: Verarbeitungsindikator</text><text fill="#000000" font-family="sans-serif" font-size="14" lengthAdjust="spacing" textLength="66.6436" x="1077.58" y="109.5889">Prozesse:</text><rect fill="none" height="6" style="stroke:#C82930;stroke-width:1;" width="6" x="1065.58" y="119.5391"/><text fill="#000000" font-family="sans-serif" font-size="14" lengthAdjust="spacing" textLength="180.3457" x="1077.58" y="125.8857">Netznutzungsabrechnung</text><rect fill="none" height="6" style="stroke:#C82930;stroke-width:1;" width="6" x="1065.58" y="135.8359"/><text fill="#000000" font-family="sans-serif" font-size="14" lengthAdjust="spacing" textLength="223.2822" x="1077.58" y="142.1826">Messstellenbetriebsabrechnung</text><line style="stroke:#181818;stroke-width:0.5;" x1="1058.58" x2="1305.8622" y1="149.4844" y2="149.4844"/></g><!--class GEI_C012_msg_1--><g class="entity" data-entity="GEI_C012_msg_1" data-source-line="8" data-uid="ent0003" id="entity_GEI_C012_msg_1"><rect fill="#F1F1F1" height="145.7813" rx="2.5" ry="2.5" style="stroke:#181818;stroke-width:0.5;" width="534.4434" x="7" y="234.4869"/><ellipse cx="209.9487" cy="250.4869" fill="#ADD1B2" rx="11" ry="11" style="stroke:#181818;stroke-width:1;"/><path d="M212.9175,256.1275 Q212.3394,256.4244 211.6987,256.565 Q211.0581,256.7213 210.355,256.7213 Q207.855,256.7213 206.5269,255.0806 Q205.2144,253.4244 205.2144,250.2994 Q205.2144,247.1744 206.5269,245.5181 Q207.855,243.8619 210.355,243.8619 Q211.0581,243.8619 211.6987,244.0181 Q212.355,244.1744 212.9175,244.4713 L212.9175,247.19 Q212.2925,246.6119 211.6987,246.3463 Q211.105,246.065 210.48,246.065 Q209.1362,246.065 208.4487,247.1431 Q207.7612,248.2056 207.7612,250.2994 Q207.7612,252.3931 208.4487,253.4713 Q209.1362,254.5338 210.48,254.5338 Q211.105,254.5338 211.6987,254.2681 Q212.2925,253.9869 212.9175,253.4088 L212.9175,256.1275 Z " fill="#000000"/><text fill="#000000" font-family="sans-serif" font-size="14" lengthAdjust="spacing" textLength="120.0459" x="230.4487" y="255.3336">GEI_C012_msg_1</text><line style="stroke:#181818;stroke-width:0.5;" x1="8" x2="540.4434" y1="266.4869" y2="266.4869"/><text fill="#000000" font-family="sans-serif" font-size="14" lengthAdjust="spacing" textLength="161.1982" x="13" y="283.482">Nachricht: INVOIC 2.8d</text><text fill="#000000" font-family="sans-serif" font-size="14" lengthAdjust="spacing" textLength="123.0605" x="13" y="299.7789">Kontext: Beispiel:</text><text fill="#000000" font-family="sans-serif" font-size="14" lengthAdjust="spacing" textLength="110.5439" x="13" y="316.0757">Pflichtfeld: Nein</text><text fill="#000000" font-family="sans-serif" font-size="14" lengthAdjust="spacing" textLength="522.4434" x="13" y="332.3726">Codes: 10, 18, 19, GEI, OCR, Z01, Z02, Z03, Z04, Z05, Z06, Z07, Z08, Z09</text><text fill="#000000" font-family="sans-serif" font-size="14" lengthAdjust="spacing" textLength="483.6221" x="13" y="348.6695">Prozesse: Netznutzungsabrechnung, Messstellenbetriebsabrechnung</text><text fill="#000000" font-family="sans-serif" font-size="14" lengthAdjust="spacing" textLength="396.6074" x="13" y="364.9664">Quelle: INVOIC_MIG_2.8d_Fehlerkorrektur_20250131.pdf</text><line style="stroke:#181818;stroke-width:0.5;" x1="8" x2="540.4434" y1="372.2681" y2="372.2681"/></g><!--class GEI_C012_msg_2--><g class="entity" data-entity="GEI_C012_msg_2" data-source-line="17" data-uid="ent0005" id="entity_GEI_C012_msg_2"><rect fill="#F1F1F1" height="145.7813" rx="2.5" ry="2.5" style="stroke:#181818;stroke-width:0.5;" width="534.4434" x="576" y="234.4869"/><ellipse cx="778.9487" cy="250.4869" fill="#ADD1B2" rx="11" ry="11" style="stroke:#181818;stroke-width:1;"/><path d="M781.9175,256.1275 Q781.3394,256.4244 780.6987,256.565 Q780.0581,256.7213 779.355,256.7213 Q776.855,256.7213 775.5269,255.0806 Q774.2144,253.4244 774.2144,250.2994 Q774.2144,247.1744 775.5269,245.5181 Q776.855,243.8619 779.355,243.8619 Q780.0581,243.8619 780.6987,244.0181 Q781.355,244.1744 781.9175,244.4713 L781.9175,247.19 Q781.2925,246.6119 780.6987,246.3463 Q780.105,246.065 779.48,246.065 Q778.1362,246.065 777.4487,247.1431 Q776.7612,248.2056 776.7612,250.2994 Q776.7612,252.3931 777.4487,253.4713 Q778.1362,254.5338 779.48,254.5338 Q780.105,254.5338 780.6987,254.2681 Q781.2925,253.9869 781.9175,253.4088 L781.9175,256.1275 Z " fill="#000000"/><text fill="#000000" font-family="sans-serif" font-size="14" lengthAdjust="spacing" textLength="120.0459" x="799.4487" y="255.3336">GEI_C012_msg_2</text><line style="stroke:#181818;stroke-width:0.5;" x1="577" x2="1109.4434" y1="266.4869" y2="266.4869"/><text fill="#000000" font-family="sans-serif" font-size="14" lengthAdjust="spacing" textLength="165.6484" x="582" y="283.482">Nachricht: INVOIC 2.8d.</text><text fill="#000000" font-family="sans-serif" font-size="14" lengthAdjust="spacing" textLength="123.0605" x="582" y="299.7789">Kontext: Beispiel:</text><text fill="#000000" font-family="sans-serif" font-size="14" lengthAdjust="spacing" textLength="110.5439" x="582" y="316.0757">Pflichtfeld: Nein</text><text fill="#000000" font-family="sans-serif" font-size="14" lengthAdjust="spacing" textLength="522.4434" x="582" y="332.3726">Codes: 10, 18, 19, GEI, OCR, Z01, Z02, Z03, Z04, Z05, Z06, Z07, Z08, Z09</text><text fill="#000000" font-family="sans-serif" font-size="14" lengthAdjust="spacing" textLength="483.6221" x="582" y="348.6695">Prozesse: Netznutzungsabrechnung, Messstellenbetriebsabrechnung</text><text fill="#000000" font-family="sans-serif" font-size="14" lengthAdjust="spacing" textLength="290.3359" x="582" y="364.9664">Quelle: INVOIC_MIG_2_8d__20240619.pdf</text><line style="stroke:#181818;stroke-width:0.5;" x1="577" x2="1109.4434" y1="372.2681" y2="372.2681"/></g><!--class GEI_C012_proc_1--><g class="entity" data-entity="GEI_C012_proc_1" data-source-line="26" data-uid="ent0007" id="entity_GEI_C012_proc_1"><rect fill="#F1F1F1" height="105.1563" rx="2.5" ry="2.5" style="stroke:#181818;stroke-width:0.5;" width="752.6465" x="1145.9" y="254.7969"/><ellipse cx="1457.4068" cy="274.9297" fill="#ADD1B2" rx="11" ry="11" style="stroke:#181818;stroke-width:1;"/><path d="M1460.3756,280.5703 Q1459.7975,280.8672 1459.1568,281.0078 Q1458.5162,281.1641 1457.8131,281.1641 Q1455.3131,281.1641 1453.985,279.5234 Q1452.6725,277.8672 1452.6725,274.7422 Q1452.6725,271.6172 1453.985,269.9609 Q1455.3131,268.3047 1457.8131,268.3047 Q1458.5162,268.3047 1459.1568,268.4609 Q1459.8131,268.6172 1460.3756,268.9141 L1460.3756,271.6328 Q1459.7506,271.0547 1459.1568,270.7891 Q1458.5631,270.5078 1457.9381,270.5078 Q1456.5943,270.5078 1455.9068,271.5859 Q1455.2193,272.6484 1455.2193,274.7422 Q1455.2193,276.8359 1455.9068,277.9141 Q1456.5943,278.9766 1457.9381,278.9766 Q1458.5631,278.9766 1459.1568,278.7109 Q1459.7506,278.4297 1460.3756,277.8516 L1460.3756,280.5703 Z " fill="#000000"/><text fill="#000000" font-family="sans-serif" font-size="12" font-style="italic" lengthAdjust="spacing" textLength="61.0605" x="1507.943" y="270.9355">&#171;process&#187;</text><text fill="#000000" font-family="sans-serif" font-size="14" lengthAdjust="spacing" textLength="121.1328" x="1477.9068" y="286.7607">GEI_C012_proc_1</text><line style="stroke:#181818;stroke-width:0.5;" x1="1146.9" x2="1897.5465" y1="295.0625" y2="295.0625"/><text fill="#000000" font-family="sans-serif" font-size="14" lengthAdjust="spacing" textLength="180.3457" x="1151.9" y="312.0576">Netznutzungsabrechnung</text><text fill="#000000" font-family="sans-serif" font-size="14" lengthAdjust="spacing" textLength="218.0938" x="1151.9" y="328.3545">Gesetze: StromNEV, StromNZV</text><text fill="#000000" font-family="sans-serif" font-size="14" lengthAdjust="spacing" textLength="740.6465" x="1151.9" y="344.6514">Zusammenfassung: Wie funktioniert die Netznutzungsabrechnung zwischen Netzbetreiber und Lieferant?</text><line style="stroke:#181818;stroke-width:0.5;" x1="1146.9" x2="1897.5465" y1="351.9531" y2="351.9531"/></g><!--class GEI_C012_proc_2--><g class="entity" data-entity="GEI_C012_proc_2" data-source-line="32" data-uid="ent0009" id="entity_GEI_C012_proc_2"><rect fill="#F1F1F1" height="105.1563" rx="2.5" ry="2.5" style="stroke:#181818;stroke-width:0.5;" width="690.2275" x="1933.11" y="254.7969"/><ellipse cx="2213.4074" cy="274.9297" fill="#ADD1B2" rx="11" ry="11" style="stroke:#181818;stroke-width:1;"/><path d="M2216.3761,280.5703 Q2215.798,280.8672 2215.1574,281.0078 Q2214.5167,281.1641 2213.8136,281.1641 Q2211.3136,281.1641 2209.9855,279.5234 Q2208.673,277.8672 2208.673,274.7422 Q2208.673,271.6172 2209.9855,269.9609 Q2211.3136,268.3047 2213.8136,268.3047 Q2214.5167,268.3047 2215.1574,268.4609 Q2215.8136,268.6172 2216.3761,268.9141 L2216.3761,271.6328 Q2215.7511,271.0547 2215.1574,270.7891 Q2214.5636,270.5078 2213.9386,270.5078 Q2212.5949,270.5078 2211.9074,271.5859 Q2211.2199,272.6484 2211.2199,274.7422 Q2211.2199,276.8359 2211.9074,277.9141 Q2212.5949,278.9766 2213.9386,278.9766 Q2214.5636,278.9766 2215.1574,278.7109 Q2215.7511,278.4297 2216.3761,277.8516 L2216.3761,280.5703 Z " fill="#000000"/><text fill="#000000" font-family="sans-serif" font-size="12" font-style="italic" lengthAdjust="spacing" textLength="61.0605" x="2263.9435" y="270.9355">&#171;process&#187;</text><text fill="#000000" font-family="sans-serif" font-size="14" lengthAdjust="spacing" textLength="121.1328" x="2233.9074" y="286.7607">GEI_C012_proc_2</text><line style="stroke:#181818;stroke-width:0.5;" x1="1934.11" x2="2622.3375" y1="295.0625" y2="295.0625"/><text fill="#000000" font-family="sans-serif" font-size="14" lengthAdjust="spacing" textLength="223.2822" x="1939.11" y="312.0576">Messstellenbetriebsabrechnung</text><text fill="#000000" font-family="sans-serif" font-size="14" lengthAdjust="spacing" textLength="105.0957" x="1939.11" y="328.3545">Gesetze: MsbG</text><text fill="#000000" font-family="sans-serif" font-size="14" lengthAdjust="spacing" textLength="678.2275" x="1939.11" y="344.6514">Zusammenfassung: Beschreibe den Prozess der Abrechnung von Messstellenbetriebsleistungen.</text><line style="stroke:#181818;stroke-width:0.5;" x1="1934.11" x2="2622.3375" y1="351.9531" y2="351.9531"/></g><!--link GEI_C012 to GEI_C012_msg_1--><g class="link" data-entity-1="GEI_C012" data-entity-2="GEI_C012_msg_1" data-source-line="16" data-uid="lnk4" id="link_GEI_C012_GEI_C012_msg_1"><path codeLine="16" d="M1057.3,126.9569 C931.1,152.6369 730.68,194.3469 558.22,234.4869 C552.77,235.7569 553.1095,235.6685 547.5595,236.9785" fill="none" id="GEI_C012-to-GEI_C012_msg_1" style="stroke:#181818;stroke-width:1;"/><polygon fill="#181818" points="541.72,238.3569,551.3982,240.1824,546.5863,237.2083,549.5604,232.3963,541.72,238.3569" style="stroke:#181818;stroke-width:1;"/><text fill="#000000" font-family="sans-serif" font-size="13" lengthAdjust="spacing" textLength="85.2363" x="765.22" y="200.5538">verwendet in</text></g><!--link GEI_C012 to GEI_C012_msg_2--><g class="link" data-entity-1="GEI_C012" data-entity-2="GEI_C012_msg_2" data-source-line="25" data-uid="lnk6" id="link_GEI_C012_GEI_C012_msg_2"><path codeLine="25" d="M1089.59,157.7669 C1050.58,181.2969 1009.8075,205.8875 968.2675,230.9475" fill="none" id="GEI_C012-to-GEI_C012_msg_2" style="stroke:#181818;stroke-width:1;"/><polygon fill="#181818" points="963.13,234.0469,972.9025,232.8229,967.4113,231.4641,968.7701,225.9729,963.13,234.0469" style="stroke:#181818;stroke-width:1;"/><text fill="#000000" font-family="sans-serif" font-size="13" lengthAdjust="spacing" textLength="85.2363" x="1034.22" y="200.5538">verwendet in</text></g><!--link GEI_C012 to GEI_C012_proc_1--><g class="link" data-entity-1="GEI_C012" data-entity-2="GEI_C012_proc_1" data-source-line="31" data-uid="lnk8" id="link_GEI_C012_GEI_C012_proc_1"><path codeLine="31" d="M1275.13,157.7669 C1325.27,187.9169 1381.6078,221.8153 1430.7078,251.3353" fill="none" id="GEI_C012-to-GEI_C012_proc_1" style="stroke:#181818;stroke-width:1;stroke-dasharray:7,7;"/><polygon fill="#181818" points="1435.85,254.4269,1430.1978,246.3614,1431.5648,251.8505,1426.0757,253.2176,1435.85,254.4269" style="stroke:#181818;stroke-width:1;"/><text fill="#000000" font-family="sans-serif" font-size="13" lengthAdjust="spacing" textLength="91.6221" x="1353.22" y="200.5538">eingebettet in</text></g><!--link GEI_C012 to GEI_C012_proc_2--><g class="link" data-entity-1="GEI_C012" data-entity-2="GEI_C012_proc_2" data-source-line="37" data-uid="lnk10" id="link_GEI_C012_GEI_C012_proc_2"><path codeLine="37" d="M1307.35,123.8169 C1453.54,149.5869 1702.64,193.9869 1916.22,234.4869 C1949.59,240.8069 1978.7621,246.4424 2013.3921,253.2324" fill="none" id="GEI_C012-to-GEI_C012_proc_2" style="stroke:#181818;stroke-width:1;stroke-dasharray:7,7;"/><polygon fill="#181818" points="2019.28,254.3869,2011.2178,248.7299,2014.3734,253.4248,2009.6785,256.5805,2019.28,254.3869" style="stroke:#181818;stroke-width:1;"/><text fill="#000000" font-family="sans-serif" font-size="13" lengthAdjust="spacing" textLength="91.6221" x="1757.22" y="200.5538">eingebettet in</text></g><!--SRC=[tPJVRzf03CVV-rVu3mXHaluOH1NJoZg4DcYtIKpY9Kfo3ZcHtA4xfvsezh_FxbY72fJtFSJodPspFrzVGfeQX8yveScfoJtqO7mxIKTHd9oLlFQop6G9JsS0ixp55EReSbUWfiuilJPAhtAoZiFtpcxGUqpP1pvgXhGn7MqaBoySbhLXTnkSSgOdR1eq1PBJMEpc_7fLFclzCektJPIrqsLDAKncyxl929AmhpZmsHh2dxnzWzglDJRInttLI6w5ZKgv8MruRsGL-XJYA82upyyWa3e1t8s-1R28OZ69c7Cn5s8knLo9UIUcBsQmYtm4DZZ12V2razXVbcmw6MV2att2ka6tiixXYZgN9L5o6SNdSRXM5SlpCfTUR_XQfHGUq3sYKKZ0m0UKJDvGClolfCnOIj7k8hgA1oUrIqvejtQsP86lhyNXReR3Fq8Uk-XZz1pYbhwJi-tiTXvilSMSeulEvssBfk8Qd9_23urGTMP5sXgDZa3nnk73OVEeVLcZUOwB7AWBTD0P1LyqLloD6dg_2nk6mpsG57YCI-JNwJXliiTxQX0ls5DVZ0-1tY3t_jmnA4ROZfvz1n_-8JvOSwXKmtTI_ZremhVvaZs-tm00]--></g></svg>