<svg xmlns="http://www.w3.org/2000/svg" xmlns:xlink="http://www.w3.org/1999/xlink" contentStyleType="text/css" data-diagram-type="CLASS" height="387px" preserveAspectRatio="none" style="width:2998px;height:387px;background:#FFFFFF;" version="1.1" viewBox="0 0 2998 387" width="2998px" zoomAndPan="magnify"><title>Datenatlas - GIN:C208</title><defs/><g><g class="title" data-source-line="1"><text fill="#000000" font-family="sans-serif" font-size="14" font-weight="bold" lengthAdjust="spacing" textLength="175.0137" x="1404.5328" y="22.9951">Datenatlas - GIN:C208</text></g><!--class GIN_C208--><g class="entity" data-entity="GIN_C208" data-source-line="2" data-uid="ent0002" id="entity_GIN_C208"><rect fill="#F1F1F1" height="113.1875" rx="2.5" ry="2.5" style="stroke:#181818;stroke-width:0.5;" width="374.2021" x="1263.98" y="44.2969"/><ellipse cx="1412.3574" cy="60.2969" fill="#ADD1B2" rx="11" ry="11" style="stroke:#181818;stroke-width:1;"/><path d="M1415.3262,65.9375 Q1414.7481,66.2344 1414.1074,66.375 Q1413.4668,66.5313 1412.7637,66.5313 Q1410.2637,66.5313 1408.9356,64.8906 Q1407.6231,63.2344 1407.6231,60.1094 Q1407.6231,56.9844 1408.9356,55.3281 Q1410.2637,53.6719 1412.7637,53.6719 Q1413.4668,53.6719 1414.1074,53.8281 Q1414.7637,53.9844 1415.3262,54.2813 L1415.3262,57 Q1414.7012,56.4219 1414.1074,56.1563 Q1413.5137,55.875 1412.8887,55.875 Q1411.5449,55.875 1410.8574,56.9531 Q1410.1699,58.0156 1410.1699,60.1094 Q1410.1699,62.2031 1410.8574,63.2813 Q1411.5449,64.3438 1412.8887,64.3438 Q1413.5137,64.3438 1414.1074,64.0781 Q1414.7012,63.7969 1415.3262,63.2188 L1415.3262,65.9375 Z " fill="#000000"/><text fill="#000000" font-family="sans-serif" font-size="14" lengthAdjust="spacing" textLength="68.9473" x="1432.8574" y="65.1436">GIN_C208</text><line style="stroke:#181818;stroke-width:0.5;" x1="1264.98" x2="1637.1821" y1="76.2969" y2="76.2969"/><text fill="#000000" font-family="sans-serif" font-size="14" lengthAdjust="spacing" textLength="276.3291" x="1283.98" y="93.292">Name: Identifikationsnummern-Bereich</text><text fill="#000000" font-family="sans-serif" font-size="14" lengthAdjust="spacing" textLength="66.6436" x="1283.98" y="109.5889">Prozesse:</text><rect fill="none" height="6" style="stroke:#C82930;stroke-width:1;" width="6" x="1271.98" y="119.5391"/><text fill="#000000" font-family="sans-serif" font-size="14" lengthAdjust="spacing" textLength="317.9668" x="1283.98" y="125.8857">Sperrung und Entsperrung eines Anschlusses</text><line style="stroke:#181818;stroke-width:0.5;" x1="1264.98" x2="1637.1821" y1="133.1875" y2="133.1875"/><rect fill="#F24D5C" height="6" style="stroke:#C82930;stroke-width:1;" width="6" x="1271.98" y="143.8359"/><text fill="#000000" font-family="sans-serif" font-size="14" lengthAdjust="spacing" textLength="348.2021" x="1283.98" y="150.1826">Bestellung einer technischen Konfiguration (MSB)</text></g><!--class GIN_C208_msg_1--><g class="entity" data-entity="GIN_C208_msg_1" data-source-line="8" data-uid="ent0003" id="entity_GIN_C208_msg_1"><rect fill="#F1F1F1" height="145.7813" rx="2.5" ry="2.5" style="stroke:#181818;stroke-width:0.5;" width="758.1631" x="7" y="234.4869"/><ellipse cx="320.9951" cy="250.4869" fill="#ADD1B2" rx="11" ry="11" style="stroke:#181818;stroke-width:1;"/><path d="M323.9639,256.1275 Q323.3857,256.4244 322.7451,256.565 Q322.1045,256.7213 321.4014,256.7213 Q318.9014,256.7213 317.5732,255.0806 Q316.2607,253.4244 316.2607,250.2994 Q316.2607,247.1744 317.5732,245.5181 Q318.9014,243.8619 321.4014,243.8619 Q322.1045,243.8619 322.7451,244.0181 Q323.4014,244.1744 323.9639,244.4713 L323.9639,247.19 Q323.3389,246.6119 322.7451,246.3463 Q322.1514,246.065 321.5264,246.065 Q320.1826,246.065 319.4951,247.1431 Q318.8076,248.2056 318.8076,250.2994 Q318.8076,252.3931 319.4951,253.4713 Q320.1826,254.5338 321.5264,254.5338 Q322.1514,254.5338 322.7451,254.2681 Q323.3389,253.9869 323.9639,253.4088 L323.9639,256.1275 Z " fill="#000000"/><text fill="#000000" font-family="sans-serif" font-size="14" lengthAdjust="spacing" textLength="121.6729" x="341.4951" y="255.3336">GIN_C208_msg_1</text><line style="stroke:#181818;stroke-width:0.5;" x1="8" x2="764.1631" y1="266.4869" y2="266.4869"/><text fill="#000000" font-family="sans-serif" font-size="14" lengthAdjust="spacing" textLength="170.3584" x="13" y="283.482">Nachricht: QUOTES 1.3a</text><text fill="#000000" font-family="sans-serif" font-size="14" lengthAdjust="spacing" textLength="123.0605" x="13" y="299.7789">Kontext: Beispiel:</text><text fill="#000000" font-family="sans-serif" font-size="14" lengthAdjust="spacing" textLength="110.5439" x="13" y="316.0757">Pflichtfeld: Nein</text><text fill="#000000" font-family="sans-serif" font-size="14" lengthAdjust="spacing" textLength="244.1113" x="13" y="332.3726">Codes: 000, 200, 35, BN, GIN, OCR</text><text fill="#000000" font-family="sans-serif" font-size="14" lengthAdjust="spacing" textLength="408.3174" x="13" y="348.6695">Quelle: QUOTES_MIG_1_3a_Fehlerkorrektur_20241213.pdf</text><line style="stroke:#181818;stroke-width:0.5;" x1="8" x2="764.1631" y1="355.9713" y2="355.9713"/><text fill="#000000" font-family="sans-serif" font-size="14" lengthAdjust="spacing" textLength="746.1631" x="13" y="372.9664">Prozesse: Bestellung einer technischen Konfiguration (MSB), Sperrung und Entsperrung eines Anschlusses</text></g><!--class GIN_C208_proc_1--><g class="entity" data-entity="GIN_C208_proc_1" data-source-line="17" data-uid="ent0005" id="entity_GIN_C208_proc_1"><rect fill="#F1F1F1" height="105.1563" rx="2.5" ry="2.5" style="stroke:#181818;stroke-width:0.5;" width="1301.9961" x="800.08" y="254.7969"/><ellipse cx="1385.4482" cy="274.9297" fill="#ADD1B2" rx="11" ry="11" style="stroke:#181818;stroke-width:1;"/><path d="M1388.4169,280.5703 Q1387.8388,280.8672 1387.1982,281.0078 Q1386.5575,281.1641 1385.8544,281.1641 Q1383.3544,281.1641 1382.0263,279.5234 Q1380.7138,277.8672 1380.7138,274.7422 Q1380.7138,271.6172 1382.0263,269.9609 Q1383.3544,268.3047 1385.8544,268.3047 Q1386.5575,268.3047 1387.1982,268.4609 Q1387.8544,268.6172 1388.4169,268.9141 L1388.4169,271.6328 Q1387.7919,271.0547 1387.1982,270.7891 Q1386.6044,270.5078 1385.9794,270.5078 Q1384.6357,270.5078 1383.9482,271.5859 Q1383.2607,272.6484 1383.2607,274.7422 Q1383.2607,276.8359 1383.9482,277.9141 Q1384.6357,278.9766 1385.9794,278.9766 Q1386.6044,278.9766 1387.1982,278.7109 Q1387.7919,278.4297 1388.4169,277.8516 L1388.4169,280.5703 Z " fill="#000000"/><text fill="#000000" font-family="sans-serif" font-size="12" font-style="italic" lengthAdjust="spacing" textLength="61.0605" x="1436.7978" y="270.9355">&#171;process&#187;</text><text fill="#000000" font-family="sans-serif" font-size="14" lengthAdjust="spacing" textLength="122.7598" x="1405.9482" y="286.7607">GIN_C208_proc_1</text><line style="stroke:#181818;stroke-width:0.5;" x1="801.08" x2="2101.0761" y1="295.0625" y2="295.0625"/><text fill="#000000" font-family="sans-serif" font-size="14" lengthAdjust="spacing" textLength="156.4063" x="806.08" y="312.0576">Gesetze: MsbG, EnWG</text><text fill="#000000" font-family="sans-serif" font-size="14" lengthAdjust="spacing" textLength="1289.9961" x="806.08" y="328.3545">Zusammenfassung: Erl&#228;utere den Prozess zur Bestellung einer spezifischen technischen Konfiguration bei einem Messstellenbetreiber, beispielsweise f&#252;r ein intelligentes Messsystem.</text><line style="stroke:#181818;stroke-width:0.5;" x1="801.08" x2="2101.0761" y1="335.6563" y2="335.6563"/><text fill="#000000" font-family="sans-serif" font-size="14" lengthAdjust="spacing" textLength="348.2021" x="806.08" y="352.6514">Bestellung einer technischen Konfiguration (MSB)</text></g><!--class GIN_C208_proc_2--><g class="entity" data-entity="GIN_C208_proc_2" data-source-line="23" data-uid="ent0007" id="entity_GIN_C208_proc_2"><rect fill="#F1F1F1" height="105.1563" rx="2.5" ry="2.5" style="stroke:#181818;stroke-width:0.5;" width="853.9893" x="2137.09" y="254.7969"/><ellipse cx="2498.4547" cy="274.9297" fill="#ADD1B2" rx="11" ry="11" style="stroke:#181818;stroke-width:1;"/><path d="M2501.4235,280.5703 Q2500.8454,280.8672 2500.2047,281.0078 Q2499.5641,281.1641 2498.861,281.1641 Q2496.361,281.1641 2495.0329,279.5234 Q2493.7204,277.8672 2493.7204,274.7422 Q2493.7204,271.6172 2495.0329,269.9609 Q2496.361,268.3047 2498.861,268.3047 Q2499.5641,268.3047 2500.2047,268.4609 Q2500.861,268.6172 2501.4235,268.9141 L2501.4235,271.6328 Q2500.7985,271.0547 2500.2047,270.7891 Q2499.611,270.5078 2498.986,270.5078 Q2497.6422,270.5078 2496.9547,271.5859 Q2496.2672,272.6484 2496.2672,274.7422 Q2496.2672,276.8359 2496.9547,277.9141 Q2497.6422,278.9766 2498.986,278.9766 Q2499.611,278.9766 2500.2047,278.7109 Q2500.7985,278.4297 2501.4235,277.8516 L2501.4235,280.5703 Z " fill="#000000"/><text fill="#000000" font-family="sans-serif" font-size="12" font-style="italic" lengthAdjust="spacing" textLength="61.0605" x="2549.8044" y="270.9355">&#171;process&#187;</text><text fill="#000000" font-family="sans-serif" font-size="14" lengthAdjust="spacing" textLength="122.7598" x="2518.9547" y="286.7607">GIN_C208_proc_2</text><line style="stroke:#181818;stroke-width:0.5;" x1="2138.09" x2="2990.0793" y1="295.0625" y2="295.0625"/><text fill="#000000" font-family="sans-serif" font-size="14" lengthAdjust="spacing" textLength="317.9668" x="2143.09" y="312.0576">Sperrung und Entsperrung eines Anschlusses</text><text fill="#000000" font-family="sans-serif" font-size="14" lengthAdjust="spacing" textLength="138.3252" x="2143.09" y="328.3545">Gesetze: StromGVV</text><text fill="#000000" font-family="sans-serif" font-size="14" lengthAdjust="spacing" textLength="841.9893" x="2143.09" y="344.6514">Zusammenfassung: Beschreibe den End-to-End-Prozess f&#252;r die Sperrung und Wiederherstellung eines Netzanschlusses.</text><line style="stroke:#181818;stroke-width:0.5;" x1="2138.09" x2="2990.0793" y1="351.9531" y2="351.9531"/></g><!--link GIN_C208 to GIN_C208_msg_1--><g class="link" data-entity-1="GIN_C208" data-entity-2="GIN_C208_msg_1" data-source-line="16" data-uid="lnk4" id="link_GIN_C208_GIN_C208_msg_1"><path codeLine="16" d="M1263.74,137.8569 C1125.5,164.4069 938.6024,200.2855 768.9224,232.8655" fill="none" id="GIN_C208-to-GIN_C208_msg_1" style="stroke:#181818;stroke-width:1;"/><polygon fill="#181818" points="763.03,233.9969,772.6228,236.228,767.9403,233.0541,771.1143,228.3716,763.03,233.9969" style="stroke:#181818;stroke-width:1;"/><text fill="#000000" font-family="sans-serif" font-size="13" lengthAdjust="spacing" textLength="85.2363" x="984.08" y="200.5538">verwendet in</text></g><!--link GIN_C208 to GIN_C208_proc_1--><g class="link" data-entity-1="GIN_C208" data-entity-2="GIN_C208_proc_1" data-source-line="22" data-uid="lnk6" id="link_GIN_C208_GIN_C208_proc_1"><path codeLine="22" d="M1451.08,157.7669 C1451.08,187.9169 1451.08,218.9069 1451.08,248.4269" fill="none" id="GIN_C208-to-GIN_C208_proc_1" style="stroke:#181818;stroke-width:1;stroke-dasharray:7,7;"/><polygon fill="#181818" points="1451.08,254.4269,1455.08,245.4269,1451.08,249.4269,1447.08,245.4269,1451.08,254.4269" style="stroke:#181818;stroke-width:1;"/><text fill="#000000" font-family="sans-serif" font-size="13" lengthAdjust="spacing" textLength="91.6221" x="1452.08" y="200.5538">eingebettet in</text></g><!--link GIN_C208 to GIN_C208_proc_2--><g class="link" data-entity-1="GIN_C208" data-entity-2="GIN_C208_proc_2" data-source-line="28" data-uid="lnk8" id="link_GIN_C208_GIN_C208_proc_2"><path codeLine="28" d="M1638.63,136.3469 C1814.34,168.6269 2073.4687,216.2428 2274.9387,253.2528" fill="none" id="GIN_C208-to-GIN_C208_proc_2" style="stroke:#181818;stroke-width:1;stroke-dasharray:7,7;"/><polygon fill="#181818" points="2280.84,254.3369,2272.7108,248.7766,2275.9223,253.4335,2271.2654,256.645,2280.84,254.3369" style="stroke:#181818;stroke-width:1;"/><text fill="#000000" font-family="sans-serif" font-size="13" lengthAdjust="spacing" textLength="91.6221" x="2009.08" y="200.5538">eingebettet in</text></g><!--SRC=[dPF1RjD048RlUOevWcHRiGCIigf8E0GhGabR0gt4nNBiiRtAUXtDxb8mucru36vzCMPDKzg42eMBlRkUcN_-RyT668dm9ZUeSYDp3JwaYrKyYyQlHWNljTjcRWlVHW2hlCKO5YKg8ognpOteb5QsRP6Kdo2XA1eEkw2kHwqnvZLmoGIrGIcjgW65GWA3HQE4BXfKyAvJbQWj3SNWsNATFBzBM- -Go2LPLS9S6RtVko8QNYik82thwD7tWswpLjTPUDTpqH3tPMAu_7Z-ORw6C9Za_8653NxXumI5tWcKhjsBIhhO2cKPmug5-6pMbQXZ68_77aJkCNdfGRBod9e7vxFt3osVRDOxnIV0fUNYkFUIBHTf5cQJF7kBZKJQTaIuDPQoQ1oz2ADm4kpAYl7SNwFlJmyfnV0PwGPLYGROy0797NK51vsTkGLRd4u7hFznfobgD3ttljIRr6EdrocVVh8wvm5I5QjojHZc96z_MCFJ13neUxBGMpeMPLGzJ-9lrQSxsA0O4bfOSgcX1geD6XxO3PBdlWyJe6zuWL3T_YGNppHSgAXvtlaYXjoldDq63ua6mVI8LkpIQsG9ypJKw0ZgIPDmZtDjg6lJgwk_mMHYFFxEvW1phahVTBvxxRaEPak1ZyMl1PP83T8Zu9f_2TFdVzhu1uZe2CGl]--></g></svg>