<svg xmlns="http://www.w3.org/2000/svg" xmlns:xlink="http://www.w3.org/1999/xlink" contentStyleType="text/css" data-diagram-type="CLASS" height="370px" preserveAspectRatio="none" style="width:1269px;height:370px;background:#FFFFFF;" version="1.1" viewBox="0 0 1269 370" width="1269px" zoomAndPan="magnify"><title>Datenatlas - IDE:G_0080</title><defs/><g><g class="title" data-source-line="1"><text fill="#000000" font-family="sans-serif" font-size="14" font-weight="bold" lengthAdjust="spacing" textLength="190.9482" x="532.0791" y="22.9951">Datenatlas - IDE:G_0080</text></g><!--class IDE_G_0080--><g class="entity" data-entity="IDE_G_0080" data-source-line="2" data-uid="ent0002" id="entity_IDE_G_0080"><rect fill="#F1F1F1" height="96.8906" rx="2.5" ry="2.5" style="stroke:#181818;stroke-width:0.5;" width="1193.5713" x="7" y="44.2969"/><ellipse cx="557.4194" cy="60.2969" fill="#ADD1B2" rx="11" ry="11" style="stroke:#181818;stroke-width:1;"/><path d="M560.3882,65.9375 Q559.8101,66.2344 559.1694,66.375 Q558.5288,66.5313 557.8257,66.5313 Q555.3257,66.5313 553.9976,64.8906 Q552.6851,63.2344 552.6851,60.1094 Q552.6851,56.9844 553.9976,55.3281 Q555.3257,53.6719 557.8257,53.6719 Q558.5288,53.6719 559.1694,53.8281 Q559.8257,53.9844 560.3882,54.2813 L560.3882,57 Q559.7632,56.4219 559.1694,56.1563 Q558.5757,55.875 557.9507,55.875 Q556.6069,55.875 555.9194,56.9531 Q555.2319,58.0156 555.2319,60.1094 Q555.2319,62.2031 555.9194,63.2813 Q556.6069,64.3438 557.9507,64.3438 Q558.5757,64.3438 559.1694,64.0781 Q559.7632,63.7969 560.3882,63.2188 L560.3882,65.9375 Z " fill="#000000"/><text fill="#000000" font-family="sans-serif" font-size="14" lengthAdjust="spacing" textLength="84.2324" x="577.9194" y="65.1436">IDE_G_0080</text><line style="stroke:#181818;stroke-width:0.5;" x1="8" x2="1199.5713" y1="76.2969" y2="76.2969"/><text fill="#000000" font-family="sans-serif" font-size="14" lengthAdjust="spacing" textLength="66.6436" x="27" y="93.292">Prozesse:</text><rect fill="none" height="6" style="stroke:#C82930;stroke-width:1;" width="6" x="15" y="103.2422"/><text fill="#000000" font-family="sans-serif" font-size="14" lengthAdjust="spacing" textLength="180.3457" x="27" y="109.5889">Netznutzungsabrechnung</text><line style="stroke:#181818;stroke-width:0.5;" x1="8" x2="1199.5713" y1="116.8906" y2="116.8906"/><text fill="#000000" font-family="sans-serif" font-size="14" lengthAdjust="spacing" textLength="1181.5713" x="13" y="133.8857">Name: Codeliste Gas Nr. G_0080 Codeliste f&#252;r die Pr&#252;fung der aggregierten Menge und des Abrechnungszeitraums zwischen NB und MGV (entspricht dem EBD E_0802)</text></g><!--class IDE_G_0080_msg_1--><g class="entity" data-entity="IDE_G_0080_msg_1" data-source-line="7" data-uid="ent0003" id="entity_IDE_G_0080_msg_1"><rect fill="#F1F1F1" height="145.7813" rx="2.5" ry="2.5" style="stroke:#181818;stroke-width:0.5;" width="303.0811" x="171.25" y="218.1869"/><ellipse cx="250.0615" cy="234.1869" fill="#ADD1B2" rx="11" ry="11" style="stroke:#181818;stroke-width:1;"/><path d="M253.0303,239.8275 Q252.4521,240.1244 251.8115,240.265 Q251.1709,240.4213 250.4678,240.4213 Q247.9678,240.4213 246.6396,238.7806 Q245.3271,237.1244 245.3271,233.9994 Q245.3271,230.8744 246.6396,229.2181 Q247.9678,227.5619 250.4678,227.5619 Q251.1709,227.5619 251.8115,227.7181 Q252.4678,227.8744 253.0303,228.1713 L253.0303,230.89 Q252.4053,230.3119 251.8115,230.0463 Q251.2178,229.765 250.5928,229.765 Q249.249,229.765 248.5615,230.8431 Q247.874,231.9056 247.874,233.9994 Q247.874,236.0931 248.5615,237.1713 Q249.249,238.2338 250.5928,238.2338 Q251.2178,238.2338 251.8115,237.9681 Q252.4053,237.6869 253.0303,237.1088 L253.0303,239.8275 Z " fill="#000000"/><text fill="#000000" font-family="sans-serif" font-size="14" lengthAdjust="spacing" textLength="136.958" x="270.5615" y="239.0336">IDE_G_0080_msg_1</text><line style="stroke:#181818;stroke-width:0.5;" x1="172.25" x2="473.3311" y1="250.1869" y2="250.1869"/><text fill="#000000" font-family="sans-serif" font-size="14" lengthAdjust="spacing" textLength="171.4932" x="177.25" y="267.182">Nachricht: REMADV 2.9c</text><text fill="#000000" font-family="sans-serif" font-size="14" lengthAdjust="spacing" textLength="170.3447" x="177.25" y="283.4789">Kontext: Segmentlayout</text><text fill="#000000" font-family="sans-serif" font-size="14" lengthAdjust="spacing" textLength="91.4033" x="177.25" y="299.7757">Pflichtfeld: Ja</text><text fill="#000000" font-family="sans-serif" font-size="14" lengthAdjust="spacing" textLength="282.1943" x="177.25" y="316.0726">Codes: EBD, ESA, LF, MGV, MSB, NB, NN</text><text fill="#000000" font-family="sans-serif" font-size="14" lengthAdjust="spacing" textLength="251.4395" x="177.25" y="332.3695">Prozesse: Netznutzungsabrechnung</text><text fill="#000000" font-family="sans-serif" font-size="14" lengthAdjust="spacing" textLength="291.0811" x="177.25" y="348.6664">Quelle: REMADV_MIG_2.9c_20231024.pdf</text><line style="stroke:#181818;stroke-width:0.5;" x1="172.25" x2="473.3311" y1="355.9681" y2="355.9681"/></g><!--class IDE_G_0080_proc_1--><g class="entity" data-entity="IDE_G_0080_proc_1" data-source-line="16" data-uid="ent0005" id="entity_IDE_G_0080_proc_1"><rect fill="#F1F1F1" height="105.1563" rx="2.5" ry="2.5" style="stroke:#181818;stroke-width:0.5;" width="752.6465" x="509.46" y="238.4969"/><ellipse cx="812.5108" cy="258.6297" fill="#ADD1B2" rx="11" ry="11" style="stroke:#181818;stroke-width:1;"/><path d="M815.4795,264.2703 Q814.9014,264.5672 814.2608,264.7078 Q813.6202,264.8641 812.917,264.8641 Q810.417,264.8641 809.0889,263.2234 Q807.7764,261.5672 807.7764,258.4422 Q807.7764,255.3172 809.0889,253.6609 Q810.417,252.0047 812.917,252.0047 Q813.6202,252.0047 814.2608,252.1609 Q814.917,252.3172 815.4795,252.6141 L815.4795,255.3328 Q814.8545,254.7547 814.2608,254.4891 Q813.667,254.2078 813.042,254.2078 Q811.6983,254.2078 811.0108,255.2859 Q810.3233,256.3484 810.3233,258.4422 Q810.3233,260.5359 811.0108,261.6141 Q811.6983,262.6766 813.042,262.6766 Q813.667,262.6766 814.2608,262.4109 Q814.8545,262.1297 815.4795,261.5516 L815.4795,264.2703 Z " fill="#000000"/><text fill="#000000" font-family="sans-serif" font-size="12" font-style="italic" lengthAdjust="spacing" textLength="61.0605" x="871.503" y="254.6355">&#171;process&#187;</text><text fill="#000000" font-family="sans-serif" font-size="14" lengthAdjust="spacing" textLength="138.0449" x="833.0108" y="270.4607">IDE_G_0080_proc_1</text><line style="stroke:#181818;stroke-width:0.5;" x1="510.46" x2="1261.1065" y1="278.7625" y2="278.7625"/><text fill="#000000" font-family="sans-serif" font-size="14" lengthAdjust="spacing" textLength="180.3457" x="515.46" y="295.7576">Netznutzungsabrechnung</text><text fill="#000000" font-family="sans-serif" font-size="14" lengthAdjust="spacing" textLength="218.0938" x="515.46" y="312.0545">Gesetze: StromNEV, StromNZV</text><text fill="#000000" font-family="sans-serif" font-size="14" lengthAdjust="spacing" textLength="740.6465" x="515.46" y="328.3514">Zusammenfassung: Wie funktioniert die Netznutzungsabrechnung zwischen Netzbetreiber und Lieferant?</text><line style="stroke:#181818;stroke-width:0.5;" x1="510.46" x2="1261.1065" y1="335.6531" y2="335.6531"/></g><!--link IDE_G_0080 to IDE_G_0080_msg_1--><g class="link" data-entity-1="IDE_G_0080" data-entity-2="IDE_G_0080_msg_1" data-source-line="15" data-uid="lnk4" id="link_IDE_G_0080_IDE_G_0080_msg_1"><path codeLine="15" d="M535.4,141.5169 C502.59,164.4469 467.4886,188.9707 431.0586,214.4207" fill="none" id="IDE_G_0080-to-IDE_G_0080_msg_1" style="stroke:#181818;stroke-width:1;"/><polygon fill="#181818" points="426.14,217.8569,435.8087,215.9817,430.2389,214.9934,431.2272,209.4236,426.14,217.8569" style="stroke:#181818;stroke-width:1;"/><text fill="#000000" font-family="sans-serif" font-size="13" lengthAdjust="spacing" textLength="85.2363" x="489.79" y="184.2538">verwendet in</text></g><!--link IDE_G_0080 to IDE_G_0080_proc_1--><g class="link" data-entity-1="IDE_G_0080" data-entity-2="IDE_G_0080_proc_1" data-source-line="21" data-uid="lnk6" id="link_IDE_G_0080_IDE_G_0080_proc_1"><path codeLine="21" d="M672.41,141.5169 C714.39,170.7469 763.1965,204.7177 806.2265,234.6877" fill="none" id="IDE_G_0080-to-IDE_G_0080_proc_1" style="stroke:#181818;stroke-width:1;stroke-dasharray:7,7;"/><polygon fill="#181818" points="811.15,238.1169,806.0509,229.6908,807.0471,235.2592,801.4786,236.2555,811.15,238.1169" style="stroke:#181818;stroke-width:1;"/><text fill="#000000" font-family="sans-serif" font-size="13" lengthAdjust="spacing" textLength="91.6221" x="737.79" y="184.2538">eingebettet in</text></g><!--SRC=[TLB1RjD04BtdA-O8KcAvXWDOLL12Z5Leh4AaLEh5sjXZPuMzZdR755pnPxtrntYRj12Kzc1hDU_jp7kpJxGqJ0ibR9Gqoj64BXP9dEPX-2uS5QWuNyWF1ReR4MMgvPW-TYKtsWbJYbkP3UYHyW-e7kujbPhfoZxSLxsfgMHBggujrvejHjAIJStKcnAGezd6Sh4rOBg1jLZLjuw6M-sABRZPV4zSfcjwnKRSpkfYAxZOKZ9VK99ZUlGQ0gziDx1p7EDCC9In3AQNmVTLVqUCVf_OorjNvsUF9eljldzCtvBbRB6cA7XV0FZI6U6VAA-uRY6ZKR-wNlpKgl7yYfiofiyA5Ry95tjnOqfMip5TVXfx-VYjvcFumPSTwtr9AT7Ndfk6dxJaouiqzthoA8pUd8NHss1NLZ1qz5AJoVJKMKm_sDwoALb8crF_EziLe9sV-mCaJQU7PRmaAsK72BfMOhisIs3jSBfP0xtfdMgnemfJm8_f6bb03hwBxemFm3uSppS_UdRW6nRBUeFq-0HSQgxOAYCV_hSS1DDdpCJ46Y532zcx_WC0]--></g></svg>