<svg xmlns="http://www.w3.org/2000/svg" xmlns:xlink="http://www.w3.org/1999/xlink" contentStyleType="text/css" data-diagram-type="CLASS" height="370px" preserveAspectRatio="none" style="width:1136px;height:370px;background:#FFFFFF;" version="1.1" viewBox="0 0 1136 370" width="1136px" zoomAndPan="magnify"><title>Datenatlas - IDE:E_0522</title><defs/><g><g class="title" data-source-line="1"><text fill="#000000" font-family="sans-serif" font-size="14" font-weight="bold" lengthAdjust="spacing" textLength="189.0205" x="466.523" y="22.9951">Datenatlas - IDE:E_0522</text></g><!--class IDE_E_0522--><g class="entity" data-entity="IDE_E_0522" data-source-line="2" data-uid="ent0002" id="entity_IDE_E_0522"><rect fill="#F1F1F1" height="96.8906" rx="2.5" ry="2.5" style="stroke:#181818;stroke-width:0.5;" width="927.4893" x="7" y="44.2969"/><ellipse cx="425.3799" cy="60.2969" fill="#ADD1B2" rx="11" ry="11" style="stroke:#181818;stroke-width:1;"/><path d="M428.3486,65.9375 Q427.7705,66.2344 427.1299,66.375 Q426.4893,66.5313 425.7861,66.5313 Q423.2861,66.5313 421.958,64.8906 Q420.6455,63.2344 420.6455,60.1094 Q420.6455,56.9844 421.958,55.3281 Q423.2861,53.6719 425.7861,53.6719 Q426.4893,53.6719 427.1299,53.8281 Q427.7861,53.9844 428.3486,54.2813 L428.3486,57 Q427.7236,56.4219 427.1299,56.1563 Q426.5361,55.875 425.9111,55.875 Q424.5674,55.875 423.8799,56.9531 Q423.1924,58.0156 423.1924,60.1094 Q423.1924,62.2031 423.8799,63.2813 Q424.5674,64.3438 425.9111,64.3438 Q426.5361,64.3438 427.1299,64.0781 Q427.7236,63.7969 428.3486,63.2188 L428.3486,65.9375 Z " fill="#000000"/><text fill="#000000" font-family="sans-serif" font-size="14" lengthAdjust="spacing" textLength="82.2295" x="445.8799" y="65.1436">IDE_E_0522</text><line style="stroke:#181818;stroke-width:0.5;" x1="8" x2="933.4893" y1="76.2969" y2="76.2969"/><text fill="#000000" font-family="sans-serif" font-size="14" lengthAdjust="spacing" textLength="66.6436" x="27" y="93.292">Prozesse:</text><rect fill="none" height="6" style="stroke:#C82930;stroke-width:1;" width="6" x="15" y="103.2422"/><text fill="#000000" font-family="sans-serif" font-size="14" lengthAdjust="spacing" textLength="180.3457" x="27" y="109.5889">Netznutzungsabrechnung</text><line style="stroke:#181818;stroke-width:0.5;" x1="8" x2="933.4893" y1="116.8906" y2="116.8906"/><text fill="#000000" font-family="sans-serif" font-size="14" lengthAdjust="spacing" textLength="915.4893" x="13" y="133.8857">Name: EBD Nr. E_0522 zur Pr&#252;fung f&#252;r die Antwort auf eine Stornierung (Abrechnung Preisblatts A des MSB zwischen MSB und LF)</text></g><!--class IDE_E_0522_msg_1--><g class="entity" data-entity="IDE_E_0522_msg_1" data-source-line="7" data-uid="ent0003" id="entity_IDE_E_0522_msg_1"><rect fill="#F1F1F1" height="145.7813" rx="2.5" ry="2.5" style="stroke:#181818;stroke-width:0.5;" width="303.0811" x="38.2" y="218.1869"/><ellipse cx="118.013" cy="234.1869" fill="#ADD1B2" rx="11" ry="11" style="stroke:#181818;stroke-width:1;"/><path d="M120.9817,239.8275 Q120.4036,240.1244 119.763,240.265 Q119.1224,240.4213 118.4192,240.4213 Q115.9192,240.4213 114.5911,238.7806 Q113.2786,237.1244 113.2786,233.9994 Q113.2786,230.8744 114.5911,229.2181 Q115.9192,227.5619 118.4192,227.5619 Q119.1224,227.5619 119.763,227.7181 Q120.4192,227.8744 120.9817,228.1713 L120.9817,230.89 Q120.3567,230.3119 119.763,230.0463 Q119.1692,229.765 118.5442,229.765 Q117.2005,229.765 116.513,230.8431 Q115.8255,231.9056 115.8255,233.9994 Q115.8255,236.0931 116.513,237.1713 Q117.2005,238.2338 118.5442,238.2338 Q119.1692,238.2338 119.763,237.9681 Q120.3567,237.6869 120.9817,237.1088 L120.9817,239.8275 Z " fill="#000000"/><text fill="#000000" font-family="sans-serif" font-size="14" lengthAdjust="spacing" textLength="134.9551" x="138.513" y="239.0336">IDE_E_0522_msg_1</text><line style="stroke:#181818;stroke-width:0.5;" x1="39.2" x2="340.2811" y1="250.1869" y2="250.1869"/><text fill="#000000" font-family="sans-serif" font-size="14" lengthAdjust="spacing" textLength="171.4932" x="44.2" y="267.182">Nachricht: REMADV 2.9c</text><text fill="#000000" font-family="sans-serif" font-size="14" lengthAdjust="spacing" textLength="170.3447" x="44.2" y="283.4789">Kontext: Segmentlayout</text><text fill="#000000" font-family="sans-serif" font-size="14" lengthAdjust="spacing" textLength="91.4033" x="44.2" y="299.7757">Pflichtfeld: Ja</text><text fill="#000000" font-family="sans-serif" font-size="14" lengthAdjust="spacing" textLength="282.1943" x="44.2" y="316.0726">Codes: EBD, ESA, LF, MGV, MSB, NB, NN</text><text fill="#000000" font-family="sans-serif" font-size="14" lengthAdjust="spacing" textLength="251.4395" x="44.2" y="332.3695">Prozesse: Netznutzungsabrechnung</text><text fill="#000000" font-family="sans-serif" font-size="14" lengthAdjust="spacing" textLength="291.0811" x="44.2" y="348.6664">Quelle: REMADV_MIG_2.9c_20231024.pdf</text><line style="stroke:#181818;stroke-width:0.5;" x1="39.2" x2="340.2811" y1="355.9681" y2="355.9681"/></g><!--class IDE_E_0522_proc_1--><g class="entity" data-entity="IDE_E_0522_proc_1" data-source-line="16" data-uid="ent0005" id="entity_IDE_E_0522_proc_1"><rect fill="#F1F1F1" height="105.1563" rx="2.5" ry="2.5" style="stroke:#181818;stroke-width:0.5;" width="752.6465" x="376.42" y="238.4969"/><ellipse cx="680.4722" cy="258.6297" fill="#ADD1B2" rx="11" ry="11" style="stroke:#181818;stroke-width:1;"/><path d="M683.441,264.2703 Q682.8629,264.5672 682.2222,264.7078 Q681.5816,264.8641 680.8785,264.8641 Q678.3785,264.8641 677.0504,263.2234 Q675.7379,261.5672 675.7379,258.4422 Q675.7379,255.3172 677.0504,253.6609 Q678.3785,252.0047 680.8785,252.0047 Q681.5816,252.0047 682.2222,252.1609 Q682.8785,252.3172 683.441,252.6141 L683.441,255.3328 Q682.816,254.7547 682.2222,254.4891 Q681.6285,254.2078 681.0035,254.2078 Q679.6597,254.2078 678.9722,255.2859 Q678.2847,256.3484 678.2847,258.4422 Q678.2847,260.5359 678.9722,261.6141 Q679.6597,262.6766 681.0035,262.6766 Q681.6285,262.6766 682.2222,262.4109 Q682.816,262.1297 683.441,261.5516 L683.441,264.2703 Z " fill="#000000"/><text fill="#000000" font-family="sans-serif" font-size="12" font-style="italic" lengthAdjust="spacing" textLength="61.0605" x="738.463" y="254.6355">&#171;process&#187;</text><text fill="#000000" font-family="sans-serif" font-size="14" lengthAdjust="spacing" textLength="136.042" x="700.9722" y="270.4607">IDE_E_0522_proc_1</text><line style="stroke:#181818;stroke-width:0.5;" x1="377.42" x2="1128.0665" y1="278.7625" y2="278.7625"/><text fill="#000000" font-family="sans-serif" font-size="14" lengthAdjust="spacing" textLength="180.3457" x="382.42" y="295.7576">Netznutzungsabrechnung</text><text fill="#000000" font-family="sans-serif" font-size="14" lengthAdjust="spacing" textLength="218.0938" x="382.42" y="312.0545">Gesetze: StromNEV, StromNZV</text><text fill="#000000" font-family="sans-serif" font-size="14" lengthAdjust="spacing" textLength="740.6465" x="382.42" y="328.3514">Zusammenfassung: Wie funktioniert die Netznutzungsabrechnung zwischen Netzbetreiber und Lieferant?</text><line style="stroke:#181818;stroke-width:0.5;" x1="377.42" x2="1128.0665" y1="335.6531" y2="335.6531"/></g><!--link IDE_E_0522 to IDE_E_0522_msg_1--><g class="link" data-entity-1="IDE_E_0522" data-entity-2="IDE_E_0522_msg_1" data-source-line="15" data-uid="lnk4" id="link_IDE_E_0522_IDE_E_0522_msg_1"><path codeLine="15" d="M402.36,141.5169 C369.55,164.4469 334.4486,188.9707 298.0186,214.4207" fill="none" id="IDE_E_0522-to-IDE_E_0522_msg_1" style="stroke:#181818;stroke-width:1;"/><polygon fill="#181818" points="293.1,217.8569,302.7687,215.9817,297.1989,214.9934,298.1872,209.4236,293.1,217.8569" style="stroke:#181818;stroke-width:1;"/><text fill="#000000" font-family="sans-serif" font-size="13" lengthAdjust="spacing" textLength="85.2363" x="356.74" y="184.2538">verwendet in</text></g><!--link IDE_E_0522 to IDE_E_0522_proc_1--><g class="link" data-entity-1="IDE_E_0522" data-entity-2="IDE_E_0522_proc_1" data-source-line="21" data-uid="lnk6" id="link_IDE_E_0522_IDE_E_0522_proc_1"><path codeLine="21" d="M539.37,141.5169 C581.35,170.7469 630.1461,204.7182 673.1861,234.6882" fill="none" id="IDE_E_0522-to-IDE_E_0522_proc_1" style="stroke:#181818;stroke-width:1;stroke-dasharray:7,7;"/><polygon fill="#181818" points="678.11,238.1169,673.01,229.6913,674.0068,235.2597,668.4384,236.2565,678.11,238.1169" style="stroke:#181818;stroke-width:1;"/><text fill="#000000" font-family="sans-serif" font-size="13" lengthAdjust="spacing" textLength="91.6221" x="604.74" y="184.2538">eingebettet in</text></g><!--SRC=[TP9DIyD048Rl_HLpL4X36_LWa4gqiVZHK0rKy1AsoQHTJ7PbTs8ruZ_pvXzpjlMJraDWyium-xmpGv8gXA4WL88gOQ4BvyCuZBFUGH1qSbQi4xAr02yTW4JK649yCeJ4-F2PQ1i34_F-LZPg3kNxcu528aIAbjeGYAO4b0eX9MsKHEEgTgAPmNoXN3mnAEsi4aGM8YZGmZWzWNOfRRv0jVffL05NPxiCC36wHMinv1WOE45gLKCjDxBYksVdTGC_g-qywt-Qo1T6vWiAuIOUHyCf1FvXpebBhGYVM4vnNgFYcJphXjohPUNgIwoA42u4AwUQGLUJy21E8u_nF1YFffxZzI1nN_ARzpzIWEi6gmg_MBBn-IXpF5dG2_RwlM3VVoXADlHh4ztkODDP28zebgWA991gq_-3qJcN7HsvW946W_Km_iCQeUKKSwLaT9t4R6qTtKqvUzTOKVECIdw5wqEuvPNp0ToJr6x9jBg1xSr_TkloCoG-W1cQzPObbcY4ekE_bdr_iCLCw2vhZjo2Lgu_0000]--></g></svg>