<svg xmlns="http://www.w3.org/2000/svg" xmlns:xlink="http://www.w3.org/1999/xlink" contentStyleType="text/css" data-diagram-type="CLASS" height="387px" preserveAspectRatio="none" style="width:2280px;height:387px;background:#FFFFFF;" version="1.1" viewBox="0 0 2280 387" width="2280px" zoomAndPan="magnify"><title>Datenatlas - IDE:E_0503</title><defs/><g><g class="title" data-source-line="1"><text fill="#000000" font-family="sans-serif" font-size="14" font-weight="bold" lengthAdjust="spacing" textLength="189.0205" x="1038.728" y="22.9951">Datenatlas - IDE:E_0503</text></g><!--class IDE_E_0503--><g class="entity" data-entity="IDE_E_0503" data-source-line="2" data-uid="ent0002" id="entity_IDE_E_0503"><rect fill="#F1F1F1" height="113.1875" rx="2.5" ry="2.5" style="stroke:#181818;stroke-width:0.5;" width="1603.3037" x="257.5" y="44.2969"/><ellipse cx="1013.7871" cy="60.2969" fill="#ADD1B2" rx="11" ry="11" style="stroke:#181818;stroke-width:1;"/><path d="M1016.7559,65.9375 Q1016.1777,66.2344 1015.5371,66.375 Q1014.8965,66.5313 1014.1934,66.5313 Q1011.6934,66.5313 1010.3652,64.8906 Q1009.0527,63.2344 1009.0527,60.1094 Q1009.0527,56.9844 1010.3652,55.3281 Q1011.6934,53.6719 1014.1934,53.6719 Q1014.8965,53.6719 1015.5371,53.8281 Q1016.1934,53.9844 1016.7559,54.2813 L1016.7559,57 Q1016.1309,56.4219 1015.5371,56.1563 Q1014.9434,55.875 1014.3184,55.875 Q1012.9746,55.875 1012.2871,56.9531 Q1011.5996,58.0156 1011.5996,60.1094 Q1011.5996,62.2031 1012.2871,63.2813 Q1012.9746,64.3438 1014.3184,64.3438 Q1014.9434,64.3438 1015.5371,64.0781 Q1016.1309,63.7969 1016.7559,63.2188 L1016.7559,65.9375 Z " fill="#000000"/><text fill="#000000" font-family="sans-serif" font-size="14" lengthAdjust="spacing" textLength="82.2295" x="1034.2871" y="65.1436">IDE_E_0503</text><line style="stroke:#181818;stroke-width:0.5;" x1="258.5" x2="1859.8037" y1="76.2969" y2="76.2969"/><text fill="#000000" font-family="sans-serif" font-size="14" lengthAdjust="spacing" textLength="66.6436" x="277.5" y="93.292">Prozesse:</text><rect fill="none" height="6" style="stroke:#C82930;stroke-width:1;" width="6" x="265.5" y="103.2422"/><text fill="#000000" font-family="sans-serif" font-size="14" lengthAdjust="spacing" textLength="317.9668" x="277.5" y="109.5889">Sperrung und Entsperrung eines Anschlusses</text><rect fill="none" height="6" style="stroke:#C82930;stroke-width:1;" width="6" x="265.5" y="119.5391"/><text fill="#000000" font-family="sans-serif" font-size="14" lengthAdjust="spacing" textLength="180.3457" x="277.5" y="125.8857">Netznutzungsabrechnung</text><line style="stroke:#181818;stroke-width:0.5;" x1="258.5" x2="1859.8037" y1="133.1875" y2="133.1875"/><text fill="#000000" font-family="sans-serif" font-size="14" lengthAdjust="spacing" textLength="1591.3037" x="263.5" y="150.1826">Name: EBD Nr. E_0503 EBD zur Pr&#252;fung der Abrechnung einer sonstigen Leistung. Dies kann die Rechnung zur Beauftragung der Unterbrechung der Anschlussnutzung (Sperren) oder die Rechnung zu Verzugskosten beinhalten</text></g><!--class IDE_E_0503_msg_1--><g class="entity" data-entity="IDE_E_0503_msg_1" data-source-line="8" data-uid="ent0003" id="entity_IDE_E_0503_msg_1"><rect fill="#F1F1F1" height="145.7813" rx="2.5" ry="2.5" style="stroke:#181818;stroke-width:0.5;" width="590.3066" x="7" y="234.4869"/><ellipse cx="230.4258" cy="250.4869" fill="#ADD1B2" rx="11" ry="11" style="stroke:#181818;stroke-width:1;"/><path d="M233.3945,256.1275 Q232.8164,256.4244 232.1758,256.565 Q231.5352,256.7213 230.832,256.7213 Q228.332,256.7213 227.0039,255.0806 Q225.6914,253.4244 225.6914,250.2994 Q225.6914,247.1744 227.0039,245.5181 Q228.332,243.8619 230.832,243.8619 Q231.5352,243.8619 232.1758,244.0181 Q232.832,244.1744 233.3945,244.4713 L233.3945,247.19 Q232.7695,246.6119 232.1758,246.3463 Q231.582,246.065 230.957,246.065 Q229.6133,246.065 228.9258,247.1431 Q228.2383,248.2056 228.2383,250.2994 Q228.2383,252.3931 228.9258,253.4713 Q229.6133,254.5338 230.957,254.5338 Q231.582,254.5338 232.1758,254.2681 Q232.7695,253.9869 233.3945,253.4088 L233.3945,256.1275 Z " fill="#000000"/><text fill="#000000" font-family="sans-serif" font-size="14" lengthAdjust="spacing" textLength="134.9551" x="250.9258" y="255.3336">IDE_E_0503_msg_1</text><line style="stroke:#181818;stroke-width:0.5;" x1="8" x2="596.3066" y1="266.4869" y2="266.4869"/><text fill="#000000" font-family="sans-serif" font-size="14" lengthAdjust="spacing" textLength="171.4932" x="13" y="283.482">Nachricht: REMADV 2.9c</text><text fill="#000000" font-family="sans-serif" font-size="14" lengthAdjust="spacing" textLength="170.3447" x="13" y="299.7789">Kontext: Segmentlayout</text><text fill="#000000" font-family="sans-serif" font-size="14" lengthAdjust="spacing" textLength="91.4033" x="13" y="316.0757">Pflichtfeld: Ja</text><text fill="#000000" font-family="sans-serif" font-size="14" lengthAdjust="spacing" textLength="282.1943" x="13" y="332.3726">Codes: EBD, ESA, LF, MGV, MSB, NB, NN</text><text fill="#000000" font-family="sans-serif" font-size="14" lengthAdjust="spacing" textLength="578.3066" x="13" y="348.6695">Prozesse: Sperrung und Entsperrung eines Anschlusses, Netznutzungsabrechnung</text><text fill="#000000" font-family="sans-serif" font-size="14" lengthAdjust="spacing" textLength="291.0811" x="13" y="364.9664">Quelle: REMADV_MIG_2.9c_20231024.pdf</text><line style="stroke:#181818;stroke-width:0.5;" x1="8" x2="596.3066" y1="372.2681" y2="372.2681"/></g><!--class IDE_E_0503_proc_1--><g class="entity" data-entity="IDE_E_0503_proc_1" data-source-line="17" data-uid="ent0005" id="entity_IDE_E_0503_proc_1"><rect fill="#F1F1F1" height="105.1563" rx="2.5" ry="2.5" style="stroke:#181818;stroke-width:0.5;" width="853.9893" x="632.16" y="254.7969"/><ellipse cx="986.8836" cy="274.9297" fill="#ADD1B2" rx="11" ry="11" style="stroke:#181818;stroke-width:1;"/><path d="M989.8524,280.5703 Q989.2743,280.8672 988.6336,281.0078 Q987.993,281.1641 987.2899,281.1641 Q984.7899,281.1641 983.4618,279.5234 Q982.1493,277.8672 982.1493,274.7422 Q982.1493,271.6172 983.4618,269.9609 Q984.7899,268.3047 987.2899,268.3047 Q987.993,268.3047 988.6336,268.4609 Q989.2899,268.6172 989.8524,268.9141 L989.8524,271.6328 Q989.2274,271.0547 988.6336,270.7891 Q988.0399,270.5078 987.4149,270.5078 Q986.0711,270.5078 985.3836,271.5859 Q984.6961,272.6484 984.6961,274.7422 Q984.6961,276.8359 985.3836,277.9141 Q986.0711,278.9766 987.4149,278.9766 Q988.0399,278.9766 988.6336,278.7109 Q989.2274,278.4297 989.8524,277.8516 L989.8524,280.5703 Z " fill="#000000"/><text fill="#000000" font-family="sans-serif" font-size="12" font-style="italic" lengthAdjust="spacing" textLength="61.0605" x="1044.8744" y="270.9355">&#171;process&#187;</text><text fill="#000000" font-family="sans-serif" font-size="14" lengthAdjust="spacing" textLength="136.042" x="1007.3836" y="286.7607">IDE_E_0503_proc_1</text><line style="stroke:#181818;stroke-width:0.5;" x1="633.16" x2="1485.1493" y1="295.0625" y2="295.0625"/><text fill="#000000" font-family="sans-serif" font-size="14" lengthAdjust="spacing" textLength="317.9668" x="638.16" y="312.0576">Sperrung und Entsperrung eines Anschlusses</text><text fill="#000000" font-family="sans-serif" font-size="14" lengthAdjust="spacing" textLength="138.3252" x="638.16" y="328.3545">Gesetze: StromGVV</text><text fill="#000000" font-family="sans-serif" font-size="14" lengthAdjust="spacing" textLength="841.9893" x="638.16" y="344.6514">Zusammenfassung: Beschreibe den End-to-End-Prozess f&#252;r die Sperrung und Wiederherstellung eines Netzanschlusses.</text><line style="stroke:#181818;stroke-width:0.5;" x1="633.16" x2="1485.1493" y1="351.9531" y2="351.9531"/></g><!--class IDE_E_0503_proc_2--><g class="entity" data-entity="IDE_E_0503_proc_2" data-source-line="23" data-uid="ent0007" id="entity_IDE_E_0503_proc_2"><rect fill="#F1F1F1" height="105.1563" rx="2.5" ry="2.5" style="stroke:#181818;stroke-width:0.5;" width="752.6465" x="1520.83" y="254.7969"/><ellipse cx="1824.8822" cy="274.9297" fill="#ADD1B2" rx="11" ry="11" style="stroke:#181818;stroke-width:1;"/><path d="M1827.851,280.5703 Q1827.2729,280.8672 1826.6322,281.0078 Q1825.9916,281.1641 1825.2885,281.1641 Q1822.7885,281.1641 1821.4604,279.5234 Q1820.1479,277.8672 1820.1479,274.7422 Q1820.1479,271.6172 1821.4604,269.9609 Q1822.7885,268.3047 1825.2885,268.3047 Q1825.9916,268.3047 1826.6322,268.4609 Q1827.2885,268.6172 1827.851,268.9141 L1827.851,271.6328 Q1827.226,271.0547 1826.6322,270.7891 Q1826.0385,270.5078 1825.4135,270.5078 Q1824.0697,270.5078 1823.3822,271.5859 Q1822.6947,272.6484 1822.6947,274.7422 Q1822.6947,276.8359 1823.3822,277.9141 Q1824.0697,278.9766 1825.4135,278.9766 Q1826.0385,278.9766 1826.6322,278.7109 Q1827.226,278.4297 1827.851,277.8516 L1827.851,280.5703 Z " fill="#000000"/><text fill="#000000" font-family="sans-serif" font-size="12" font-style="italic" lengthAdjust="spacing" textLength="61.0605" x="1882.873" y="270.9355">&#171;process&#187;</text><text fill="#000000" font-family="sans-serif" font-size="14" lengthAdjust="spacing" textLength="136.042" x="1845.3822" y="286.7607">IDE_E_0503_proc_2</text><line style="stroke:#181818;stroke-width:0.5;" x1="1521.83" x2="2272.4765" y1="295.0625" y2="295.0625"/><text fill="#000000" font-family="sans-serif" font-size="14" lengthAdjust="spacing" textLength="180.3457" x="1526.83" y="312.0576">Netznutzungsabrechnung</text><text fill="#000000" font-family="sans-serif" font-size="14" lengthAdjust="spacing" textLength="218.0938" x="1526.83" y="328.3545">Gesetze: StromNEV, StromNZV</text><text fill="#000000" font-family="sans-serif" font-size="14" lengthAdjust="spacing" textLength="740.6465" x="1526.83" y="344.6514">Zusammenfassung: Wie funktioniert die Netznutzungsabrechnung zwischen Netzbetreiber und Lieferant?</text><line style="stroke:#181818;stroke-width:0.5;" x1="1521.83" x2="2272.4765" y1="351.9531" y2="351.9531"/></g><!--link IDE_E_0503 to IDE_E_0503_msg_1--><g class="link" data-entity-1="IDE_E_0503" data-entity-2="IDE_E_0503_msg_1" data-source-line="16" data-uid="lnk4" id="link_IDE_E_0503_IDE_E_0503_msg_1"><path codeLine="16" d="M851.55,157.9669 C764.66,181.4369 668.3623,207.4518 575.9123,232.4318" fill="none" id="IDE_E_0503-to-IDE_E_0503_msg_1" style="stroke:#181818;stroke-width:1;"/><polygon fill="#181818" points="570.12,233.9969,579.8518,235.5108,574.9469,232.6926,577.765,227.7877,570.12,233.9969" style="stroke:#181818;stroke-width:1;"/><text fill="#000000" font-family="sans-serif" font-size="13" lengthAdjust="spacing" textLength="85.2363" x="727.15" y="200.5538">verwendet in</text></g><!--link IDE_E_0503 to IDE_E_0503_proc_1--><g class="link" data-entity-1="IDE_E_0503" data-entity-2="IDE_E_0503_proc_1" data-source-line="22" data-uid="lnk6" id="link_IDE_E_0503_IDE_E_0503_proc_1"><path codeLine="22" d="M1059.15,157.7669 C1059.15,187.9169 1059.15,218.9069 1059.15,248.4269" fill="none" id="IDE_E_0503-to-IDE_E_0503_proc_1" style="stroke:#181818;stroke-width:1;stroke-dasharray:7,7;"/><polygon fill="#181818" points="1059.15,254.4269,1063.15,245.4269,1059.15,249.4269,1055.15,245.4269,1059.15,254.4269" style="stroke:#181818;stroke-width:1;"/><text fill="#000000" font-family="sans-serif" font-size="13" lengthAdjust="spacing" textLength="91.6221" x="1060.15" y="200.5538">eingebettet in</text></g><!--link IDE_E_0503 to IDE_E_0503_proc_2--><g class="link" data-entity-1="IDE_E_0503" data-entity-2="IDE_E_0503_proc_2" data-source-line="28" data-uid="lnk8" id="link_IDE_E_0503_IDE_E_0503_proc_2"><path codeLine="28" d="M1288.97,157.9669 C1412.29,188.0669 1557.451,223.4845 1678.141,252.9345" fill="none" id="IDE_E_0503-to-IDE_E_0503_proc_2" style="stroke:#181818;stroke-width:1;stroke-dasharray:7,7;"/><polygon fill="#181818" points="1683.97,254.3569,1676.1748,248.3374,1679.1125,253.1716,1674.2783,256.1093,1683.97,254.3569" style="stroke:#181818;stroke-width:1;"/><text fill="#000000" font-family="sans-serif" font-size="13" lengthAdjust="spacing" textLength="91.6221" x="1479.15" y="200.5538">eingebettet in</text></g><!--SRC=[bPF1Rjf048RlFCKSMmaiuhI7MX4L51Ub1IiDAfLoiHPxRAymQxGpRbfNVRFSycATDH12ILhbOBmxuvdzlty7rbmYZ1MZKLmgWXvSZiCWZFjl- -UTH2Ba0l4s0Byw095QOm3XQ0oHzM2NSDkcjd1bx- -oskIGeeNXqc9I6BT5RIH0bI7MEHgOeYQMX0TZZGGhPGoa6k5wN-2QZL3L6LkLxnj-DOosRVfmXA6aA6iYKtFZWg_c6xGMpMkeNFwldh10szGvhIeIObYAh4ALiXIkArirI8I1h45yQ1kvijga41gc_TwnqE5af5r1XDpiP91wGE_yFh4nNbCUd-tCJ0ghau83k0vdm_42VEzT8edFbR3-aF0SypKQkPkVLSrEPbQwxpCiqm0-AOby459gRwGBuNpOXUd7Bimc2_cPZxeGkITw3FW2jEvpL01VQYnBtEkEPvUJs6cF_Rv_VjRtttYRD1FuHzFJwmrENGZWEzfRD2aoQ7FgrSPMYNnsSU4M8dymQ8rxqUrCa8J2WREjrfF5Gc8tDQcrE9l9UL8NoBH9YKMzH9ai8ptJ7bSzzzeP1zdztNQYZWx_fb4chK0h8rMM1mdEE7MGuHrxuNc39oW3LvlZ4fd_POT_OiUpjtIC7eKo5TlLpPCc20p8_tV5kZ8QBRUuJpU7vbOBdLZbyYAvzSwsdamrPcYLuVV_f_PFgFy0]--></g></svg>