<svg xmlns="http://www.w3.org/2000/svg" xmlns:xlink="http://www.w3.org/1999/xlink" contentStyleType="text/css" data-diagram-type="CLASS" height="436px" preserveAspectRatio="none" style="width:8911px;height:436px;background:#FFFFFF;" version="1.1" viewBox="0 0 8911 436" width="8911px" zoomAndPan="magnify"><title>Datenatlas - IMD:7081</title><defs/><g><g class="title" data-source-line="1"><text fill="#000000" font-family="sans-serif" font-size="14" font-weight="bold" lengthAdjust="spacing" textLength="176.8252" x="4360.257" y="22.9951">Datenatlas - IMD:7081</text></g><!--class IMD_7081--><g class="entity" data-entity="IMD_7081" data-source-line="2" data-uid="ent0002" id="entity_IMD_7081"><rect fill="#F1F1F1" height="162.0781" rx="2.5" ry="2.5" style="stroke:#181818;stroke-width:0.5;" width="374.2021" x="4199.24" y="44.2969"/><ellipse cx="4347.2825" cy="60.2969" fill="#ADD1B2" rx="11" ry="11" style="stroke:#181818;stroke-width:1;"/><path d="M4350.2512,65.9375 Q4349.6731,66.2344 4349.0325,66.375 Q4348.3919,66.5313 4347.6887,66.5313 Q4345.1887,66.5313 4343.8606,64.8906 Q4342.5481,63.2344 4342.5481,60.1094 Q4342.5481,56.9844 4343.8606,55.3281 Q4345.1887,53.6719 4347.6887,53.6719 Q4348.3919,53.6719 4349.0325,53.8281 Q4349.6887,53.9844 4350.2512,54.2813 L4350.2512,57 Q4349.6262,56.4219 4349.0325,56.1563 Q4348.4387,55.875 4347.8137,55.875 Q4346.47,55.875 4345.7825,56.9531 Q4345.095,58.0156 4345.095,60.1094 Q4345.095,62.2031 4345.7825,63.2813 Q4346.47,64.3438 4347.8137,64.3438 Q4348.4387,64.3438 4349.0325,64.0781 Q4349.6262,63.7969 4350.2512,63.2188 L4350.2512,65.9375 Z " fill="#000000"/><text fill="#000000" font-family="sans-serif" font-size="14" lengthAdjust="spacing" textLength="69.6172" x="4367.7825" y="65.1436">IMD_7081</text><line style="stroke:#181818;stroke-width:0.5;" x1="4200.24" x2="4572.4421" y1="76.2969" y2="76.2969"/><text fill="#000000" font-family="sans-serif" font-size="14" lengthAdjust="spacing" textLength="213.7666" x="4219.24" y="93.292">Name: Produkt/Leistung, Code</text><text fill="#000000" font-family="sans-serif" font-size="14" lengthAdjust="spacing" textLength="66.6436" x="4219.24" y="109.5889">Prozesse:</text><rect fill="none" height="6" style="stroke:#C82930;stroke-width:1;" width="6" x="4207.24" y="119.5391"/><text fill="#000000" font-family="sans-serif" font-size="14" lengthAdjust="spacing" textLength="180.3457" x="4219.24" y="125.8857">Netznutzungsabrechnung</text><rect fill="none" height="6" style="stroke:#C82930;stroke-width:1;" width="6" x="4207.24" y="135.8359"/><text fill="#000000" font-family="sans-serif" font-size="14" lengthAdjust="spacing" textLength="223.2822" x="4219.24" y="142.1826">Messstellenbetriebsabrechnung</text><rect fill="none" height="6" style="stroke:#C82930;stroke-width:1;" width="6" x="4207.24" y="152.1328"/><text fill="#000000" font-family="sans-serif" font-size="14" lengthAdjust="spacing" textLength="317.9668" x="4219.24" y="158.4795">Sperrung und Entsperrung eines Anschlusses</text><line style="stroke:#181818;stroke-width:0.5;" x1="4200.24" x2="4572.4421" y1="165.7813" y2="165.7813"/><rect fill="#F24D5C" height="6" style="stroke:#C82930;stroke-width:1;" width="6" x="4207.24" y="176.4297"/><text fill="#000000" font-family="sans-serif" font-size="14" lengthAdjust="spacing" textLength="311.0557" x="4219.24" y="182.7764">Z&#228;hlerwechsel und Ger&#228;te&#252;bernahme (WiM)</text><rect fill="#F24D5C" height="6" style="stroke:#C82930;stroke-width:1;" width="6" x="4207.24" y="192.7266"/><text fill="#000000" font-family="sans-serif" font-size="14" lengthAdjust="spacing" textLength="348.2021" x="4219.24" y="199.0732">Bestellung einer technischen Konfiguration (MSB)</text></g><!--class IMD_7081_msg_1--><g class="entity" data-entity="IMD_7081_msg_1" data-source-line="11" data-uid="ent0003" id="entity_IMD_7081_msg_1"><rect fill="#F1F1F1" height="145.7813" rx="2.5" ry="2.5" style="stroke:#181818;stroke-width:0.5;" width="1172.6807" x="7" y="283.3769"/><ellipse cx="527.9189" cy="299.3769" fill="#ADD1B2" rx="11" ry="11" style="stroke:#181818;stroke-width:1;"/><path d="M530.8877,305.0175 Q530.3096,305.3144 529.6689,305.455 Q529.0283,305.6113 528.3252,305.6113 Q525.8252,305.6113 524.4971,303.9706 Q523.1846,302.3144 523.1846,299.1894 Q523.1846,296.0644 524.4971,294.4081 Q525.8252,292.7519 528.3252,292.7519 Q529.0283,292.7519 529.6689,292.9081 Q530.3252,293.0644 530.8877,293.3613 L530.8877,296.08 Q530.2627,295.5019 529.6689,295.2363 Q529.0752,294.955 528.4502,294.955 Q527.1064,294.955 526.4189,296.0331 Q525.7314,297.0956 525.7314,299.1894 Q525.7314,301.2831 526.4189,302.3613 Q527.1064,303.4238 528.4502,303.4238 Q529.0752,303.4238 529.6689,303.1581 Q530.2627,302.8769 530.8877,302.2988 L530.8877,305.0175 Z " fill="#000000"/><text fill="#000000" font-family="sans-serif" font-size="14" lengthAdjust="spacing" textLength="122.3428" x="548.4189" y="304.2236">IMD_7081_msg_1</text><line style="stroke:#181818;stroke-width:0.5;" x1="8" x2="1178.6807" y1="315.3769" y2="315.3769"/><text fill="#000000" font-family="sans-serif" font-size="14" lengthAdjust="spacing" textLength="161.1982" x="13" y="332.372">Nachricht: INVOIC 2.8d</text><text fill="#000000" font-family="sans-serif" font-size="14" lengthAdjust="spacing" textLength="170.3447" x="13" y="348.6689">Kontext: Segmentlayout</text><text fill="#000000" font-family="sans-serif" font-size="14" lengthAdjust="spacing" textLength="110.5439" x="13" y="364.9657">Pflichtfeld: Nein</text><text fill="#000000" font-family="sans-serif" font-size="14" lengthAdjust="spacing" textLength="777.9229" x="13" y="381.2626">Codes: 13, 17, ABR, ABS, IMD, JVR, KON, MMM, MSB, MVR, NAP, OCR, SOR, WIM, Z06, Z07, Z43, Z44, Z45, ZVR</text><text fill="#000000" font-family="sans-serif" font-size="14" lengthAdjust="spacing" textLength="396.6074" x="13" y="397.5595">Quelle: INVOIC_MIG_2.8d_Fehlerkorrektur_20250131.pdf</text><line style="stroke:#181818;stroke-width:0.5;" x1="8" x2="1178.6807" y1="404.8613" y2="404.8613"/><text fill="#000000" font-family="sans-serif" font-size="14" lengthAdjust="spacing" textLength="1160.6807" x="13" y="421.8564">Prozesse: Z&#228;hlerwechsel und Ger&#228;te&#252;bernahme (WiM), Netznutzungsabrechnung, Messstellenbetriebsabrechnung, Bestellung einer technischen Konfiguration (MSB)</text></g><!--class IMD_7081_msg_2--><g class="entity" data-entity="IMD_7081_msg_2" data-source-line="20" data-uid="ent0005" id="entity_IMD_7081_msg_2"><rect fill="#F1F1F1" height="145.7813" rx="2.5" ry="2.5" style="stroke:#181818;stroke-width:0.5;" width="495.6221" x="1214.53" y="283.3769"/><ellipse cx="1396.9196" cy="299.3769" fill="#ADD1B2" rx="11" ry="11" style="stroke:#181818;stroke-width:1;"/><path d="M1399.8884,305.0175 Q1399.3103,305.3144 1398.6696,305.455 Q1398.029,305.6113 1397.3259,305.6113 Q1394.8259,305.6113 1393.4978,303.9706 Q1392.1853,302.3144 1392.1853,299.1894 Q1392.1853,296.0644 1393.4978,294.4081 Q1394.8259,292.7519 1397.3259,292.7519 Q1398.029,292.7519 1398.6696,292.9081 Q1399.3259,293.0644 1399.8884,293.3613 L1399.8884,296.08 Q1399.2634,295.5019 1398.6696,295.2363 Q1398.0759,294.955 1397.4509,294.955 Q1396.1071,294.955 1395.4196,296.0331 Q1394.7321,297.0956 1394.7321,299.1894 Q1394.7321,301.2831 1395.4196,302.3613 Q1396.1071,303.4238 1397.4509,303.4238 Q1398.0759,303.4238 1398.6696,303.1581 Q1399.2634,302.8769 1399.8884,302.2988 L1399.8884,305.0175 Z " fill="#000000"/><text fill="#000000" font-family="sans-serif" font-size="14" lengthAdjust="spacing" textLength="122.3428" x="1417.4196" y="304.2236">IMD_7081_msg_2</text><line style="stroke:#181818;stroke-width:0.5;" x1="1215.53" x2="1709.1521" y1="315.3769" y2="315.3769"/><text fill="#000000" font-family="sans-serif" font-size="14" lengthAdjust="spacing" textLength="165.6484" x="1220.53" y="332.372">Nachricht: INVOIC 2.8d.</text><text fill="#000000" font-family="sans-serif" font-size="14" lengthAdjust="spacing" textLength="156.9941" x="1220.53" y="348.6689">Kontext: abgerechnet.</text><text fill="#000000" font-family="sans-serif" font-size="14" lengthAdjust="spacing" textLength="91.4033" x="1220.53" y="364.9657">Pflichtfeld: Ja</text><text fill="#000000" font-family="sans-serif" font-size="14" lengthAdjust="spacing" textLength="322.5811" x="1220.53" y="381.2626">Codes: ESA, IMD, JVR, KON, LF, MMM, NB, Z06</text><text fill="#000000" font-family="sans-serif" font-size="14" lengthAdjust="spacing" textLength="483.6221" x="1220.53" y="397.5595">Prozesse: Netznutzungsabrechnung, Messstellenbetriebsabrechnung</text><text fill="#000000" font-family="sans-serif" font-size="14" lengthAdjust="spacing" textLength="290.3359" x="1220.53" y="413.8564">Quelle: INVOIC_MIG_2_8d__20240619.pdf</text><line style="stroke:#181818;stroke-width:0.5;" x1="1215.53" x2="1709.1521" y1="421.1581" y2="421.1581"/></g><!--class IMD_7081_msg_3--><g class="entity" data-entity="IMD_7081_msg_3" data-source-line="29" data-uid="ent0007" id="entity_IMD_7081_msg_3"><rect fill="#F1F1F1" height="145.7813" rx="2.5" ry="2.5" style="stroke:#181818;stroke-width:0.5;" width="758.1631" x="1745.26" y="283.3769"/><ellipse cx="2058.9202" cy="299.3769" fill="#ADD1B2" rx="11" ry="11" style="stroke:#181818;stroke-width:1;"/><path d="M2061.8889,305.0175 Q2061.3108,305.3144 2060.6702,305.455 Q2060.0295,305.6113 2059.3264,305.6113 Q2056.8264,305.6113 2055.4983,303.9706 Q2054.1858,302.3144 2054.1858,299.1894 Q2054.1858,296.0644 2055.4983,294.4081 Q2056.8264,292.7519 2059.3264,292.7519 Q2060.0295,292.7519 2060.6702,292.9081 Q2061.3264,293.0644 2061.8889,293.3613 L2061.8889,296.08 Q2061.2639,295.5019 2060.6702,295.2363 Q2060.0764,294.955 2059.4514,294.955 Q2058.1077,294.955 2057.4202,296.0331 Q2056.7327,297.0956 2056.7327,299.1894 Q2056.7327,301.2831 2057.4202,302.3613 Q2058.1077,303.4238 2059.4514,303.4238 Q2060.0764,303.4238 2060.6702,303.1581 Q2061.2639,302.8769 2061.8889,302.2988 L2061.8889,305.0175 Z " fill="#000000"/><text fill="#000000" font-family="sans-serif" font-size="14" lengthAdjust="spacing" textLength="122.3428" x="2079.4202" y="304.2236">IMD_7081_msg_3</text><line style="stroke:#181818;stroke-width:0.5;" x1="1746.26" x2="2502.4231" y1="315.3769" y2="315.3769"/><text fill="#000000" font-family="sans-serif" font-size="14" lengthAdjust="spacing" textLength="161.793" x="1751.26" y="332.372">Nachricht: ORDRSP 1.4</text><text fill="#000000" font-family="sans-serif" font-size="14" lengthAdjust="spacing" textLength="170.3447" x="1751.26" y="348.6689">Kontext: Segmentlayout</text><text fill="#000000" font-family="sans-serif" font-size="14" lengthAdjust="spacing" textLength="110.5439" x="1751.26" y="364.9657">Pflichtfeld: Nein</text><text fill="#000000" font-family="sans-serif" font-size="14" lengthAdjust="spacing" textLength="329.0957" x="1751.26" y="381.2626">Codes: 999, EDI, IMD, Z10, Z11, Z12, Z13, Z35</text><text fill="#000000" font-family="sans-serif" font-size="14" lengthAdjust="spacing" textLength="283.9307" x="1751.26" y="397.5595">Quelle: ORDRSP_MIG_1_4_20240619.pdf</text><line style="stroke:#181818;stroke-width:0.5;" x1="1746.26" x2="2502.4231" y1="404.8613" y2="404.8613"/><text fill="#000000" font-family="sans-serif" font-size="14" lengthAdjust="spacing" textLength="746.1631" x="1751.26" y="421.8564">Prozesse: Bestellung einer technischen Konfiguration (MSB), Sperrung und Entsperrung eines Anschlusses</text></g><!--class IMD_7081_msg_4--><g class="entity" data-entity="IMD_7081_msg_4" data-source-line="38" data-uid="ent0009" id="entity_IMD_7081_msg_4"><rect fill="#F1F1F1" height="145.7813" rx="2.5" ry="2.5" style="stroke:#181818;stroke-width:0.5;" width="803.0205" x="2538.83" y="283.3769"/><ellipse cx="2874.9189" cy="299.3769" fill="#ADD1B2" rx="11" ry="11" style="stroke:#181818;stroke-width:1;"/><path d="M2877.8876,305.0175 Q2877.3095,305.3144 2876.6689,305.455 Q2876.0282,305.6113 2875.3251,305.6113 Q2872.8251,305.6113 2871.497,303.9706 Q2870.1845,302.3144 2870.1845,299.1894 Q2870.1845,296.0644 2871.497,294.4081 Q2872.8251,292.7519 2875.3251,292.7519 Q2876.0282,292.7519 2876.6689,292.9081 Q2877.3251,293.0644 2877.8876,293.3613 L2877.8876,296.08 Q2877.2626,295.5019 2876.6689,295.2363 Q2876.0751,294.955 2875.4501,294.955 Q2874.1064,294.955 2873.4189,296.0331 Q2872.7314,297.0956 2872.7314,299.1894 Q2872.7314,301.2831 2873.4189,302.3613 Q2874.1064,303.4238 2875.4501,303.4238 Q2876.0751,303.4238 2876.6689,303.1581 Q2877.2626,302.8769 2877.8876,302.2988 L2877.8876,305.0175 Z " fill="#000000"/><text fill="#000000" font-family="sans-serif" font-size="14" lengthAdjust="spacing" textLength="122.3428" x="2895.4189" y="304.2236">IMD_7081_msg_4</text><line style="stroke:#181818;stroke-width:0.5;" x1="2539.83" x2="3340.8505" y1="315.3769" y2="315.3769"/><text fill="#000000" font-family="sans-serif" font-size="14" lengthAdjust="spacing" textLength="162.2988" x="2544.83" y="332.372">Nachricht: PRICAT 2.0d</text><text fill="#000000" font-family="sans-serif" font-size="14" lengthAdjust="spacing" textLength="516.5371" x="2544.83" y="348.6689">Kontext: 1310   SG36   C   999999   R   999999   2   LIN - PIA - IMD - SG40</text><text fill="#000000" font-family="sans-serif" font-size="14" lengthAdjust="spacing" textLength="110.5439" x="2544.83" y="364.9657">Pflichtfeld: Nein</text><text fill="#000000" font-family="sans-serif" font-size="14" lengthAdjust="spacing" textLength="791.0205" x="2544.83" y="381.2626">Codes: 000, 10, 100, 130, 170, 20, 200, 31, 50, 999, IMD, LIN, OCR, PGI, PIA, POG, Z15, Z16, Z17, Z18, Z19, Z20</text><text fill="#000000" font-family="sans-serif" font-size="14" lengthAdjust="spacing" textLength="251.4395" x="2544.83" y="397.5595">Prozesse: Netznutzungsabrechnung</text><text fill="#000000" font-family="sans-serif" font-size="14" lengthAdjust="spacing" textLength="284.4365" x="2544.83" y="413.8564">Quelle: PRICAT_MIG_2_0d_20240619.pdf</text><line style="stroke:#181818;stroke-width:0.5;" x1="2539.83" x2="3340.8505" y1="421.1581" y2="421.1581"/></g><!--class IMD_7081_msg_5--><g class="entity" data-entity="IMD_7081_msg_5" data-source-line="47" data-uid="ent0011" id="entity_IMD_7081_msg_5"><rect fill="#F1F1F1" height="145.7813" rx="2.5" ry="2.5" style="stroke:#181818;stroke-width:0.5;" width="758.1631" x="3377.26" y="283.3769"/><ellipse cx="3690.9202" cy="299.3769" fill="#ADD1B2" rx="11" ry="11" style="stroke:#181818;stroke-width:1;"/><path d="M3693.8889,305.0175 Q3693.3108,305.3144 3692.6702,305.455 Q3692.0295,305.6113 3691.3264,305.6113 Q3688.8264,305.6113 3687.4983,303.9706 Q3686.1858,302.3144 3686.1858,299.1894 Q3686.1858,296.0644 3687.4983,294.4081 Q3688.8264,292.7519 3691.3264,292.7519 Q3692.0295,292.7519 3692.6702,292.9081 Q3693.3264,293.0644 3693.8889,293.3613 L3693.8889,296.08 Q3693.2639,295.5019 3692.6702,295.2363 Q3692.0764,294.955 3691.4514,294.955 Q3690.1077,294.955 3689.4202,296.0331 Q3688.7327,297.0956 3688.7327,299.1894 Q3688.7327,301.2831 3689.4202,302.3613 Q3690.1077,303.4238 3691.4514,303.4238 Q3692.0764,303.4238 3692.6702,303.1581 Q3693.2639,302.8769 3693.8889,302.2988 L3693.8889,305.0175 Z " fill="#000000"/><text fill="#000000" font-family="sans-serif" font-size="14" lengthAdjust="spacing" textLength="122.3428" x="3711.4202" y="304.2236">IMD_7081_msg_5</text><line style="stroke:#181818;stroke-width:0.5;" x1="3378.26" x2="4134.4231" y1="315.3769" y2="315.3769"/><text fill="#000000" font-family="sans-serif" font-size="14" lengthAdjust="spacing" textLength="170.3584" x="3383.26" y="332.372">Nachricht: QUOTES 1.3a</text><text fill="#000000" font-family="sans-serif" font-size="14" lengthAdjust="spacing" textLength="123.0605" x="3383.26" y="348.6689">Kontext: Beispiel:</text><text fill="#000000" font-family="sans-serif" font-size="14" lengthAdjust="spacing" textLength="110.5439" x="3383.26" y="364.9657">Pflichtfeld: Nein</text><text fill="#000000" font-family="sans-serif" font-size="14" lengthAdjust="spacing" textLength="372.1689" x="3383.26" y="381.2626">Codes: 999, IMD, OCR, Z07, Z08, Z33, Z34, Z55, Z64</text><text fill="#000000" font-family="sans-serif" font-size="14" lengthAdjust="spacing" textLength="292.4961" x="3383.26" y="397.5595">Quelle: QUOTES_MIG_1_3a_20240619.pdf</text><line style="stroke:#181818;stroke-width:0.5;" x1="3378.26" x2="4134.4231" y1="404.8613" y2="404.8613"/><text fill="#000000" font-family="sans-serif" font-size="14" lengthAdjust="spacing" textLength="746.1631" x="3383.26" y="421.8564">Prozesse: Bestellung einer technischen Konfiguration (MSB), Sperrung und Entsperrung eines Anschlusses</text></g><!--class IMD_7081_msg_6--><g class="entity" data-entity="IMD_7081_msg_6" data-source-line="56" data-uid="ent0013" id="entity_IMD_7081_msg_6"><rect fill="#F1F1F1" height="145.7813" rx="2.5" ry="2.5" style="stroke:#181818;stroke-width:0.5;" width="431.2959" x="4170.69" y="283.3769"/><ellipse cx="4320.9166" cy="299.3769" fill="#ADD1B2" rx="11" ry="11" style="stroke:#181818;stroke-width:1;"/><path d="M4323.8853,305.0175 Q4323.3072,305.3144 4322.6666,305.455 Q4322.0259,305.6113 4321.3228,305.6113 Q4318.8228,305.6113 4317.4947,303.9706 Q4316.1822,302.3144 4316.1822,299.1894 Q4316.1822,296.0644 4317.4947,294.4081 Q4318.8228,292.7519 4321.3228,292.7519 Q4322.0259,292.7519 4322.6666,292.9081 Q4323.3228,293.0644 4323.8853,293.3613 L4323.8853,296.08 Q4323.2603,295.5019 4322.6666,295.2363 Q4322.0728,294.955 4321.4478,294.955 Q4320.1041,294.955 4319.4166,296.0331 Q4318.7291,297.0956 4318.7291,299.1894 Q4318.7291,301.2831 4319.4166,302.3613 Q4320.1041,303.4238 4321.4478,303.4238 Q4322.0728,303.4238 4322.6666,303.1581 Q4323.2603,302.8769 4323.8853,302.2988 L4323.8853,305.0175 Z " fill="#000000"/><text fill="#000000" font-family="sans-serif" font-size="14" lengthAdjust="spacing" textLength="122.3428" x="4341.4166" y="304.2236">IMD_7081_msg_6</text><line style="stroke:#181818;stroke-width:0.5;" x1="4171.69" x2="4600.9859" y1="315.3769" y2="315.3769"/><text fill="#000000" font-family="sans-serif" font-size="14" lengthAdjust="spacing" textLength="170.1055" x="4176.69" y="332.372">Nachricht: REQOTE 1.3b</text><text fill="#000000" font-family="sans-serif" font-size="14" lengthAdjust="spacing" textLength="170.3447" x="4176.69" y="348.6689">Kontext: Segmentlayout</text><text fill="#000000" font-family="sans-serif" font-size="14" lengthAdjust="spacing" textLength="110.5439" x="4176.69" y="364.9657">Pflichtfeld: Nein</text><text fill="#000000" font-family="sans-serif" font-size="14" lengthAdjust="spacing" textLength="259.6016" x="4176.69" y="381.2626">Codes: 999, EDI, IMD, OCR, Z55, Z64</text><text fill="#000000" font-family="sans-serif" font-size="14" lengthAdjust="spacing" textLength="292.2432" x="4176.69" y="397.5595">Quelle: REQOTE_MIG_1_3b_20241001.pdf</text><line style="stroke:#181818;stroke-width:0.5;" x1="4171.69" x2="4600.9859" y1="404.8613" y2="404.8613"/><text fill="#000000" font-family="sans-serif" font-size="14" lengthAdjust="spacing" textLength="419.2959" x="4176.69" y="421.8564">Prozesse: Bestellung einer technischen Konfiguration (MSB)</text></g><!--class IMD_7081_proc_1--><g class="entity" data-entity="IMD_7081_proc_1" data-source-line="65" data-uid="ent0015" id="entity_IMD_7081_proc_1"><rect fill="#F1F1F1" height="105.1563" rx="2.5" ry="2.5" style="stroke:#181818;stroke-width:0.5;" width="528.5234" x="4637.08" y="303.6869"/><ellipse cx="4835.3769" cy="323.8197" fill="#ADD1B2" rx="11" ry="11" style="stroke:#181818;stroke-width:1;"/><path d="M4838.3456,329.4603 Q4837.7675,329.7572 4837.1269,329.8978 Q4836.4863,330.0541 4835.7831,330.0541 Q4833.2831,330.0541 4831.955,328.4134 Q4830.6425,326.7572 4830.6425,323.6322 Q4830.6425,320.5072 4831.955,318.8509 Q4833.2831,317.1947 4835.7831,317.1947 Q4836.4863,317.1947 4837.1269,317.3509 Q4837.7831,317.5072 4838.3456,317.8041 L4838.3456,320.5228 Q4837.7206,319.9447 4837.1269,319.6791 Q4836.5331,319.3978 4835.9081,319.3978 Q4834.5644,319.3978 4833.8769,320.4759 Q4833.1894,321.5384 4833.1894,323.6322 Q4833.1894,325.7259 4833.8769,326.8041 Q4834.5644,327.8666 4835.9081,327.8666 Q4836.5331,327.8666 4837.1269,327.6009 Q4837.7206,327.3197 4838.3456,326.7416 L4838.3456,329.4603 Z " fill="#000000"/><text fill="#000000" font-family="sans-serif" font-size="12" font-style="italic" lengthAdjust="spacing" textLength="61.0605" x="4887.0614" y="319.8255">&#171;process&#187;</text><text fill="#000000" font-family="sans-serif" font-size="14" lengthAdjust="spacing" textLength="123.4297" x="4855.8769" y="335.6507">IMD_7081_proc_1</text><line style="stroke:#181818;stroke-width:0.5;" x1="4638.08" x2="5164.6034" y1="343.9525" y2="343.9525"/><text fill="#000000" font-family="sans-serif" font-size="14" lengthAdjust="spacing" textLength="105.0957" x="4643.08" y="360.9476">Gesetze: MsbG</text><text fill="#000000" font-family="sans-serif" font-size="14" lengthAdjust="spacing" textLength="516.5234" x="4643.08" y="377.2445">Zusammenfassung: Erl&#228;utere den Gesch&#228;ftsprozess 'Z&#228;hlerwechsel' bzw.</text><line style="stroke:#181818;stroke-width:0.5;" x1="4638.08" x2="5164.6034" y1="384.5463" y2="384.5463"/><text fill="#000000" font-family="sans-serif" font-size="14" lengthAdjust="spacing" textLength="311.0557" x="4643.08" y="401.5414">Z&#228;hlerwechsel und Ger&#228;te&#252;bernahme (WiM)</text></g><!--class IMD_7081_proc_2--><g class="entity" data-entity="IMD_7081_proc_2" data-source-line="71" data-uid="ent0017" id="entity_IMD_7081_proc_2"><rect fill="#F1F1F1" height="105.1563" rx="2.5" ry="2.5" style="stroke:#181818;stroke-width:0.5;" width="752.6465" x="5201.02" y="303.6869"/><ellipse cx="5511.3784" cy="323.8197" fill="#ADD1B2" rx="11" ry="11" style="stroke:#181818;stroke-width:1;"/><path d="M5514.3471,329.4603 Q5513.769,329.7572 5513.1284,329.8978 Q5512.4878,330.0541 5511.7846,330.0541 Q5509.2846,330.0541 5507.9565,328.4134 Q5506.644,326.7572 5506.644,323.6322 Q5506.644,320.5072 5507.9565,318.8509 Q5509.2846,317.1947 5511.7846,317.1947 Q5512.4878,317.1947 5513.1284,317.3509 Q5513.7846,317.5072 5514.3471,317.8041 L5514.3471,320.5228 Q5513.7221,319.9447 5513.1284,319.6791 Q5512.5346,319.3978 5511.9096,319.3978 Q5510.5659,319.3978 5509.8784,320.4759 Q5509.1909,321.5384 5509.1909,323.6322 Q5509.1909,325.7259 5509.8784,326.8041 Q5510.5659,327.8666 5511.9096,327.8666 Q5512.5346,327.8666 5513.1284,327.6009 Q5513.7221,327.3197 5514.3471,326.7416 L5514.3471,329.4603 Z " fill="#000000"/><text fill="#000000" font-family="sans-serif" font-size="12" font-style="italic" lengthAdjust="spacing" textLength="61.0605" x="5563.063" y="319.8255">&#171;process&#187;</text><text fill="#000000" font-family="sans-serif" font-size="14" lengthAdjust="spacing" textLength="123.4297" x="5531.8784" y="335.6507">IMD_7081_proc_2</text><line style="stroke:#181818;stroke-width:0.5;" x1="5202.02" x2="5952.6665" y1="343.9525" y2="343.9525"/><text fill="#000000" font-family="sans-serif" font-size="14" lengthAdjust="spacing" textLength="180.3457" x="5207.02" y="360.9476">Netznutzungsabrechnung</text><text fill="#000000" font-family="sans-serif" font-size="14" lengthAdjust="spacing" textLength="218.0938" x="5207.02" y="377.2445">Gesetze: StromNEV, StromNZV</text><text fill="#000000" font-family="sans-serif" font-size="14" lengthAdjust="spacing" textLength="740.6465" x="5207.02" y="393.5414">Zusammenfassung: Wie funktioniert die Netznutzungsabrechnung zwischen Netzbetreiber und Lieferant?</text><line style="stroke:#181818;stroke-width:0.5;" x1="5202.02" x2="5952.6665" y1="400.8431" y2="400.8431"/></g><!--class IMD_7081_proc_3--><g class="entity" data-entity="IMD_7081_proc_3" data-source-line="77" data-uid="ent0019" id="entity_IMD_7081_proc_3"><rect fill="#F1F1F1" height="105.1563" rx="2.5" ry="2.5" style="stroke:#181818;stroke-width:0.5;" width="690.2275" x="5988.23" y="303.6869"/><ellipse cx="6267.3789" cy="323.8197" fill="#ADD1B2" rx="11" ry="11" style="stroke:#181818;stroke-width:1;"/><path d="M6270.3477,329.4603 Q6269.7696,329.7572 6269.1289,329.8978 Q6268.4883,330.0541 6267.7852,330.0541 Q6265.2852,330.0541 6263.9571,328.4134 Q6262.6446,326.7572 6262.6446,323.6322 Q6262.6446,320.5072 6263.9571,318.8509 Q6265.2852,317.1947 6267.7852,317.1947 Q6268.4883,317.1947 6269.1289,317.3509 Q6269.7852,317.5072 6270.3477,317.8041 L6270.3477,320.5228 Q6269.7227,319.9447 6269.1289,319.6791 Q6268.5352,319.3978 6267.9102,319.3978 Q6266.5664,319.3978 6265.8789,320.4759 Q6265.1914,321.5384 6265.1914,323.6322 Q6265.1914,325.7259 6265.8789,326.8041 Q6266.5664,327.8666 6267.9102,327.8666 Q6268.5352,327.8666 6269.1289,327.6009 Q6269.7227,327.3197 6270.3477,326.7416 L6270.3477,329.4603 Z " fill="#000000"/><text fill="#000000" font-family="sans-serif" font-size="12" font-style="italic" lengthAdjust="spacing" textLength="61.0605" x="6319.0635" y="319.8255">&#171;process&#187;</text><text fill="#000000" font-family="sans-serif" font-size="14" lengthAdjust="spacing" textLength="123.4297" x="6287.8789" y="335.6507">IMD_7081_proc_3</text><line style="stroke:#181818;stroke-width:0.5;" x1="5989.23" x2="6677.4575" y1="343.9525" y2="343.9525"/><text fill="#000000" font-family="sans-serif" font-size="14" lengthAdjust="spacing" textLength="223.2822" x="5994.23" y="360.9476">Messstellenbetriebsabrechnung</text><text fill="#000000" font-family="sans-serif" font-size="14" lengthAdjust="spacing" textLength="105.0957" x="5994.23" y="377.2445">Gesetze: MsbG</text><text fill="#000000" font-family="sans-serif" font-size="14" lengthAdjust="spacing" textLength="678.2275" x="5994.23" y="393.5414">Zusammenfassung: Beschreibe den Prozess der Abrechnung von Messstellenbetriebsleistungen.</text><line style="stroke:#181818;stroke-width:0.5;" x1="5989.23" x2="6677.4575" y1="400.8431" y2="400.8431"/></g><!--class IMD_7081_proc_4--><g class="entity" data-entity="IMD_7081_proc_4" data-source-line="83" data-uid="ent0021" id="entity_IMD_7081_proc_4"><rect fill="#F1F1F1" height="105.1563" rx="2.5" ry="2.5" style="stroke:#181818;stroke-width:0.5;" width="1301.9961" x="6713.34" y="303.6869"/><ellipse cx="7298.3732" cy="323.8197" fill="#ADD1B2" rx="11" ry="11" style="stroke:#181818;stroke-width:1;"/><path d="M7301.342,329.4603 Q7300.7638,329.7572 7300.1232,329.8978 Q7299.4826,330.0541 7298.7795,330.0541 Q7296.2795,330.0541 7294.9513,328.4134 Q7293.6388,326.7572 7293.6388,323.6322 Q7293.6388,320.5072 7294.9513,318.8509 Q7296.2795,317.1947 7298.7795,317.1947 Q7299.4826,317.1947 7300.1232,317.3509 Q7300.7795,317.5072 7301.342,317.8041 L7301.342,320.5228 Q7300.717,319.9447 7300.1232,319.6791 Q7299.5295,319.3978 7298.9045,319.3978 Q7297.5607,319.3978 7296.8732,320.4759 Q7296.1857,321.5384 7296.1857,323.6322 Q7296.1857,325.7259 7296.8732,326.8041 Q7297.5607,327.8666 7298.9045,327.8666 Q7299.5295,327.8666 7300.1232,327.6009 Q7300.717,327.3197 7301.342,326.7416 L7301.342,329.4603 Z " fill="#000000"/><text fill="#000000" font-family="sans-serif" font-size="12" font-style="italic" lengthAdjust="spacing" textLength="61.0605" x="7350.0578" y="319.8255">&#171;process&#187;</text><text fill="#000000" font-family="sans-serif" font-size="14" lengthAdjust="spacing" textLength="123.4297" x="7318.8732" y="335.6507">IMD_7081_proc_4</text><line style="stroke:#181818;stroke-width:0.5;" x1="6714.34" x2="8014.3361" y1="343.9525" y2="343.9525"/><text fill="#000000" font-family="sans-serif" font-size="14" lengthAdjust="spacing" textLength="156.4063" x="6719.34" y="360.9476">Gesetze: MsbG, EnWG</text><text fill="#000000" font-family="sans-serif" font-size="14" lengthAdjust="spacing" textLength="1289.9961" x="6719.34" y="377.2445">Zusammenfassung: Erl&#228;utere den Prozess zur Bestellung einer spezifischen technischen Konfiguration bei einem Messstellenbetreiber, beispielsweise f&#252;r ein intelligentes Messsystem.</text><line style="stroke:#181818;stroke-width:0.5;" x1="6714.34" x2="8014.3361" y1="384.5463" y2="384.5463"/><text fill="#000000" font-family="sans-serif" font-size="14" lengthAdjust="spacing" textLength="348.2021" x="6719.34" y="401.5414">Bestellung einer technischen Konfiguration (MSB)</text></g><!--class IMD_7081_proc_5--><g class="entity" data-entity="IMD_7081_proc_5" data-source-line="89" data-uid="ent0023" id="entity_IMD_7081_proc_5"><rect fill="#F1F1F1" height="105.1563" rx="2.5" ry="2.5" style="stroke:#181818;stroke-width:0.5;" width="853.9893" x="8050.35" y="303.6869"/><ellipse cx="8411.3798" cy="323.8197" fill="#ADD1B2" rx="11" ry="11" style="stroke:#181818;stroke-width:1;"/><path d="M8414.3485,329.4603 Q8413.7704,329.7572 8413.1298,329.8978 Q8412.4892,330.0541 8411.786,330.0541 Q8409.286,330.0541 8407.9579,328.4134 Q8406.6454,326.7572 8406.6454,323.6322 Q8406.6454,320.5072 8407.9579,318.8509 Q8409.286,317.1947 8411.786,317.1947 Q8412.4892,317.1947 8413.1298,317.3509 Q8413.786,317.5072 8414.3485,317.8041 L8414.3485,320.5228 Q8413.7235,319.9447 8413.1298,319.6791 Q8412.536,319.3978 8411.911,319.3978 Q8410.5673,319.3978 8409.8798,320.4759 Q8409.1923,321.5384 8409.1923,323.6322 Q8409.1923,325.7259 8409.8798,326.8041 Q8410.5673,327.8666 8411.911,327.8666 Q8412.536,327.8666 8413.1298,327.6009 Q8413.7235,327.3197 8414.3485,326.7416 L8414.3485,329.4603 Z " fill="#000000"/><text fill="#000000" font-family="sans-serif" font-size="12" font-style="italic" lengthAdjust="spacing" textLength="61.0605" x="8463.0644" y="319.8255">&#171;process&#187;</text><text fill="#000000" font-family="sans-serif" font-size="14" lengthAdjust="spacing" textLength="123.4297" x="8431.8798" y="335.6507">IMD_7081_proc_5</text><line style="stroke:#181818;stroke-width:0.5;" x1="8051.35" x2="8903.3393" y1="343.9525" y2="343.9525"/><text fill="#000000" font-family="sans-serif" font-size="14" lengthAdjust="spacing" textLength="317.9668" x="8056.35" y="360.9476">Sperrung und Entsperrung eines Anschlusses</text><text fill="#000000" font-family="sans-serif" font-size="14" lengthAdjust="spacing" textLength="138.3252" x="8056.35" y="377.2445">Gesetze: StromGVV</text><text fill="#000000" font-family="sans-serif" font-size="14" lengthAdjust="spacing" textLength="841.9893" x="8056.35" y="393.5414">Zusammenfassung: Beschreibe den End-to-End-Prozess f&#252;r die Sperrung und Wiederherstellung eines Netzanschlusses.</text><line style="stroke:#181818;stroke-width:0.5;" x1="8051.35" x2="8903.3393" y1="400.8431" y2="400.8431"/></g><!--link IMD_7081 to IMD_7081_msg_1--><g class="link" data-entity-1="IMD_7081" data-entity-2="IMD_7081_msg_1" data-source-line="19" data-uid="lnk4" id="link_IMD_7081_IMD_7081_msg_1"><path codeLine="19" d="M4199.03,129.8869 C3706.43,140.4569 2334.34,177.8269 1197.34,283.3769 C1191.56,283.9169 1191.7126,283.8842 1185.8726,284.4442" fill="none" id="IMD_7081-to-IMD_7081_msg_1" style="stroke:#181818;stroke-width:1;"/><polygon fill="#181818" points="1179.9,285.0169,1189.2407,288.1395,1184.8772,284.5396,1188.4771,280.1761,1179.9,285.0169" style="stroke:#181818;stroke-width:1;"/><text fill="#000000" font-family="sans-serif" font-size="13" lengthAdjust="spacing" textLength="85.2363" x="1719.34" y="249.4438">verwendet in</text></g><!--link IMD_7081 to IMD_7081_msg_2--><g class="link" data-entity-1="IMD_7081" data-entity-2="IMD_7081_msg_2" data-source-line="28" data-uid="lnk6" id="link_IMD_7081_IMD_7081_msg_2"><path codeLine="28" d="M4199.07,132.3769 C3675.61,150.0569 2204.41,205.4369 1727.34,283.3769 C1721.81,284.2769 1722.1295,284.1532 1716.5195,285.1932" fill="none" id="IMD_7081-to-IMD_7081_msg_2" style="stroke:#181818;stroke-width:1;"/><polygon fill="#181818" points="1710.62,286.2869,1720.1983,288.5794,1715.5362,285.3755,1718.7401,280.7134,1710.62,286.2869" style="stroke:#181818;stroke-width:1;"/><text fill="#000000" font-family="sans-serif" font-size="13" lengthAdjust="spacing" textLength="85.2363" x="2109.34" y="249.4438">verwendet in</text></g><!--link IMD_7081 to IMD_7081_msg_3--><g class="link" data-entity-1="IMD_7081" data-entity-2="IMD_7081_msg_3" data-source-line="37" data-uid="lnk8" id="link_IMD_7081_IMD_7081_msg_3"><path codeLine="37" d="M4198.75,136.2069 C3861.84,155.2669 3132.37,202.5169 2521.34,283.3769 C2515.52,284.1469 2515.6027,284.1095 2509.7127,284.9295" fill="none" id="IMD_7081-to-IMD_7081_msg_3" style="stroke:#181818;stroke-width:1;"/><polygon fill="#181818" points="2503.77,285.7569,2513.2356,288.4777,2508.7222,285.0674,2512.1325,280.5541,2503.77,285.7569" style="stroke:#181818;stroke-width:1;"/><text fill="#000000" font-family="sans-serif" font-size="13" lengthAdjust="spacing" textLength="85.2363" x="2878.34" y="249.4438">verwendet in</text></g><!--link IMD_7081 to IMD_7081_msg_4--><g class="link" data-entity-1="IMD_7081" data-entity-2="IMD_7081_msg_4" data-source-line="46" data-uid="lnk10" id="link_IMD_7081_IMD_7081_msg_4"><path codeLine="46" d="M4198.78,153.9669 C3992.76,184.5669 3652.22,235.8569 3359.34,283.3769 C3353.69,284.2869 3353.9309,284.2456 3348.2009,285.1856" fill="none" id="IMD_7081-to-IMD_7081_msg_4" style="stroke:#181818;stroke-width:1;"/><polygon fill="#181818" points="3342.28,286.1569,3351.8088,288.6471,3347.214,285.3474,3350.5137,280.7527,3342.28,286.1569" style="stroke:#181818;stroke-width:1;"/><text fill="#000000" font-family="sans-serif" font-size="13" lengthAdjust="spacing" textLength="85.2363" x="3642.34" y="249.4438">verwendet in</text></g><!--link IMD_7081 to IMD_7081_msg_5--><g class="link" data-entity-1="IMD_7081" data-entity-2="IMD_7081_msg_5" data-source-line="55" data-uid="lnk12" id="link_IMD_7081_IMD_7081_msg_5"><path codeLine="55" d="M4199.03,194.4069 C4122.31,222.2769 4039.0794,252.5282 3961.1794,280.8282" fill="none" id="IMD_7081-to-IMD_7081_msg_5" style="stroke:#181818;stroke-width:1;"/><polygon fill="#181818" points="3955.54,282.8769,3965.3649,283.5634,3960.2395,281.1696,3962.6333,276.0442,3955.54,282.8769" style="stroke:#181818;stroke-width:1;"/><text fill="#000000" font-family="sans-serif" font-size="13" lengthAdjust="spacing" textLength="85.2363" x="4072.34" y="249.4438">verwendet in</text></g><!--link IMD_7081 to IMD_7081_msg_6--><g class="link" data-entity-1="IMD_7081" data-entity-2="IMD_7081_msg_6" data-source-line="64" data-uid="lnk14" id="link_IMD_7081_IMD_7081_msg_6"><path codeLine="64" d="M4386.34,206.7269 C4386.34,231.5969 4386.34,252.8169 4386.34,277.0869" fill="none" id="IMD_7081-to-IMD_7081_msg_6" style="stroke:#181818;stroke-width:1;"/><polygon fill="#181818" points="4386.34,283.0869,4390.34,274.0869,4386.34,278.0869,4382.34,274.0869,4386.34,283.0869" style="stroke:#181818;stroke-width:1;"/><text fill="#000000" font-family="sans-serif" font-size="13" lengthAdjust="spacing" textLength="85.2363" x="4387.34" y="249.4438">verwendet in</text></g><!--link IMD_7081 to IMD_7081_proc_1--><g class="link" data-entity-1="IMD_7081" data-entity-2="IMD_7081_proc_1" data-source-line="70" data-uid="lnk16" id="link_IMD_7081_IMD_7081_proc_1"><path codeLine="70" d="M4567.19,206.7269 C4639.35,238.8069 4714.8773,272.3796 4779.0573,300.9096" fill="none" id="IMD_7081-to-IMD_7081_proc_1" style="stroke:#181818;stroke-width:1;stroke-dasharray:7,7;"/><polygon fill="#181818" points="4784.54,303.3469,4777.9408,296.0359,4779.9711,301.3159,4774.6911,303.3462,4784.54,303.3469" style="stroke:#181818;stroke-width:1;"/><text fill="#000000" font-family="sans-serif" font-size="13" lengthAdjust="spacing" textLength="91.6221" x="4660.34" y="249.4438">eingebettet in</text></g><!--link IMD_7081 to IMD_7081_proc_2--><g class="link" data-entity-1="IMD_7081" data-entity-2="IMD_7081_proc_2" data-source-line="76" data-uid="lnk18" id="link_IMD_7081_IMD_7081_proc_2"><path codeLine="76" d="M4573.74,162.3569 C4770.84,200.2469 5076.9679,259.0843 5300.7779,302.1043" fill="none" id="IMD_7081-to-IMD_7081_proc_2" style="stroke:#181818;stroke-width:1;stroke-dasharray:7,7;"/><polygon fill="#181818" points="5306.67,303.2369,5298.5868,297.6099,5301.7599,302.2931,5297.0767,305.4661,5306.67,303.2369" style="stroke:#181818;stroke-width:1;"/><text fill="#000000" font-family="sans-serif" font-size="13" lengthAdjust="spacing" textLength="91.6221" x="5019.34" y="249.4438">eingebettet in</text></g><!--link IMD_7081 to IMD_7081_proc_3--><g class="link" data-entity-1="IMD_7081" data-entity-2="IMD_7081_proc_3" data-source-line="82" data-uid="lnk20" id="link_IMD_7081_IMD_7081_proc_3"><path codeLine="82" d="M4573.73,138.9669 C4871.06,160.3469 5468.74,208.7569 5971.34,283.3769 C6009.21,288.9969 6043.2225,294.8128 6082.1625,302.1028" fill="none" id="IMD_7081-to-IMD_7081_proc_3" style="stroke:#181818;stroke-width:1;stroke-dasharray:7,7;"/><polygon fill="#181818" points="6088.06,303.2069,6079.9497,297.6191,6083.1454,302.2868,6078.4776,305.4824,6088.06,303.2069" style="stroke:#181818;stroke-width:1;"/><text fill="#000000" font-family="sans-serif" font-size="13" lengthAdjust="spacing" textLength="91.6221" x="5714.34" y="249.4438">eingebettet in</text></g><!--link IMD_7081 to IMD_7081_proc_4--><g class="link" data-entity-1="IMD_7081" data-entity-2="IMD_7081_proc_4" data-source-line="88" data-uid="lnk22" id="link_IMD_7081_IMD_7081_proc_4"><path codeLine="88" d="M4573.67,136.5669 C4967.19,158.6069 5908.5,214.2269 6696.34,283.3769 C6763.15,289.2369 6827.6815,295.4833 6896.8415,302.5933" fill="none" id="IMD_7081-to-IMD_7081_proc_4" style="stroke:#181818;stroke-width:1;stroke-dasharray:7,7;"/><polygon fill="#181818" points="6902.81,303.2069,6894.2663,298.3075,6897.8362,302.6955,6893.4481,306.2655,6902.81,303.2069" style="stroke:#181818;stroke-width:1;"/><text fill="#000000" font-family="sans-serif" font-size="13" lengthAdjust="spacing" textLength="91.6221" x="6320.34" y="249.4438">eingebettet in</text></g><!--link IMD_7081 to IMD_7081_proc_5--><g class="link" data-entity-1="IMD_7081" data-entity-2="IMD_7081_proc_5" data-source-line="94" data-uid="lnk24" id="link_IMD_7081_IMD_7081_proc_5"><path codeLine="94" d="M4573.78,126.6769 C5112.77,129.3169 6712.64,148.8169 8032.34,283.3769 C8082.26,288.4669 8129.167,294.6226 8180.317,302.3326" fill="none" id="IMD_7081-to-IMD_7081_proc_5" style="stroke:#181818;stroke-width:1;stroke-dasharray:7,7;"/><polygon fill="#181818" points="8186.25,303.2269,8177.9467,297.9301,8181.3059,302.4816,8176.7543,305.8407,8186.25,303.2269" style="stroke:#181818;stroke-width:1;"/><text fill="#000000" font-family="sans-serif" font-size="13" lengthAdjust="spacing" textLength="91.6221" x="7639.34" y="249.4438">eingebettet in</text></g><!--SRC=[nPPRRzfA4CVVyodshJsIeRv10gfo18GYqd09xY4IByZ60rWnIxIxRbggVfjyZBxnnJgpc8PB22QgT90ytlLUv_UVdKL5AWPsvIlWlefzoNAisRegdviNrja8wvAgGwgo7sUCjVqPb5bNpCFaNdsuWKYgX4yCLfk7WCtOi00feOnbXbCDba_J6CGZZAOIOfRma3L0B9yKB7y58BW_dG5xVnUr_aa7j44jUA8MEAdq0u7ZE1RJnXPEBHN4CV00b8WWsEzJ1Tq3Fp28E0Ycg3sIeobmzddEnz4a4RwAvfozRtdLzRhU0mX1WsYBTQxakawJI5RXE46Se6VoxESEb-5CJePhEgEfY4PJLMRDTh_Jh34xVn5Y0owiu1j-zc0o0uwWlyyJHS36CVKVGnoMqVc8upTYASlCSWncdHkiKksHyGnQqM3NVQn-xhGDrcgrq7XLDFIjNUaQh5F3ajT1SzV4re5P98Ep35o7Z4kcWARVsvJh1A6C0nePhyjZl4MPsuHcMyCSjfgD8G4TVWBQxFrS2BXNYHZQfbqmBSVAFuHZrETFnEPobxiobTbNSfE7e1ZIVa5A-nKfyvjQ-i44j7kWyhjINllFGjQzofvsDvzI_TfLhTAM66y2V03N474H7zSiMgMZVEmCV9nTFftULS_hCYlllZ7IIwMImUfNpPJIm3B9M6HiCXIvJc4BqQd1P9nomfz9hbpJ9AsXcvsZau6ZkyknsslMAbympiojb85nRMAEyXfE4LyrV4hwXuNUPiN6vwRPncJMRLPMQPmIMyCrNwTlceZRqWyPXymv6bi_Q1nKee1lBPDM29T9KqstWQhXUcWw3TAASej5IOTIry2w88F31hQP8SGtoAzWf35iXjdHkndG5tRHt_xN-LBtC8GTVnDz5U-tXmZYSeRurM0qarM-DSbrHuSk9Tq2WIcw_qSGhvnBWzZniwCiP41Pt4NPgz_YSeGo-3lfOCNqR_3ROBBQvPf9e9bW_1-_GOf7c3o8-GYlcOyVgO3RlBpKW4xw8zG0YSS3TzcIGOC69zAV8RqnheJEueqYukLJel3sOI6wYlr7q-NJ6CDXnOQzsrxl7GiMZ_bDl_BvoxqzbudY1F1gKOTTi_TSEtYK_xZXAJ6VjUjz8oqD-YyvTHS16oVydlIAG2WMueUN9sUBnrHbQgUx42AagB7UH306uNFrx-l-sjdyTVRyFNOB7rMlIdBf7MlrqdZ6ic2LPnU_OjI-i5IS_kK6VaHF9vj_xfv_RpXLMoxZsULtMS9sxVWY4VkBOcPRHEDqrSCx223I0sQxh7H06DIkCxXyn0B6r_ANeFv8Wxf6Y55XtjHZl-FesH6eRZQeXJse9oNkxOFJwFSpH56TXparpz5hpLKxIuTeQt4yPXXfKn1RmAK-IVxpDew0AEo1-0q0]--></g></svg>