<svg xmlns="http://www.w3.org/2000/svg" xmlns:xlink="http://www.w3.org/1999/xlink" contentStyleType="text/css" data-diagram-type="CLASS" height="387px" preserveAspectRatio="none" style="width:2998px;height:387px;background:#FFFFFF;" version="1.1" viewBox="0 0 2998 387" width="2998px" zoomAndPan="magnify"><title>Datenatlas - IMD:00022</title><defs/><g><g class="title" data-source-line="1"><text fill="#000000" font-family="sans-serif" font-size="14" font-weight="bold" lengthAdjust="spacing" textLength="186.5664" x="1398.7564" y="22.9951">Datenatlas - IMD:00022</text></g><!--class IMD_00022--><g class="entity" data-entity="IMD_00022" data-source-line="2" data-uid="ent0002" id="entity_IMD_00022"><rect fill="#F1F1F1" height="113.1875" rx="2.5" ry="2.5" style="stroke:#181818;stroke-width:0.5;" width="374.2021" x="1263.98" y="44.2969"/><ellipse cx="1407.5689" cy="60.2969" fill="#ADD1B2" rx="11" ry="11" style="stroke:#181818;stroke-width:1;"/><path d="M1410.5376,65.9375 Q1409.9595,66.2344 1409.3189,66.375 Q1408.6782,66.5313 1407.9751,66.5313 Q1405.4751,66.5313 1404.147,64.8906 Q1402.8345,63.2344 1402.8345,60.1094 Q1402.8345,56.9844 1404.147,55.3281 Q1405.4751,53.6719 1407.9751,53.6719 Q1408.6782,53.6719 1409.3189,53.8281 Q1409.9751,53.9844 1410.5376,54.2813 L1410.5376,57 Q1409.9126,56.4219 1409.3189,56.1563 Q1408.7251,55.875 1408.1001,55.875 Q1406.7564,55.875 1406.0689,56.9531 Q1405.3814,58.0156 1405.3814,60.1094 Q1405.3814,62.2031 1406.0689,63.2813 Q1406.7564,64.3438 1408.1001,64.3438 Q1408.7251,64.3438 1409.3189,64.0781 Q1409.9126,63.7969 1410.5376,63.2188 L1410.5376,65.9375 Z " fill="#000000"/><text fill="#000000" font-family="sans-serif" font-size="14" lengthAdjust="spacing" textLength="78.5244" x="1428.0689" y="65.1436">IMD_00022</text><line style="stroke:#181818;stroke-width:0.5;" x1="1264.98" x2="1637.1821" y1="76.2969" y2="76.2969"/><text fill="#000000" font-family="sans-serif" font-size="14" lengthAdjust="spacing" textLength="285.4141" x="1283.98" y="93.292">Name: Produkt - /Leistungsbeschreibung</text><text fill="#000000" font-family="sans-serif" font-size="14" lengthAdjust="spacing" textLength="66.6436" x="1283.98" y="109.5889">Prozesse:</text><rect fill="none" height="6" style="stroke:#C82930;stroke-width:1;" width="6" x="1271.98" y="119.5391"/><text fill="#000000" font-family="sans-serif" font-size="14" lengthAdjust="spacing" textLength="317.9668" x="1283.98" y="125.8857">Sperrung und Entsperrung eines Anschlusses</text><line style="stroke:#181818;stroke-width:0.5;" x1="1264.98" x2="1637.1821" y1="133.1875" y2="133.1875"/><rect fill="#F24D5C" height="6" style="stroke:#C82930;stroke-width:1;" width="6" x="1271.98" y="143.8359"/><text fill="#000000" font-family="sans-serif" font-size="14" lengthAdjust="spacing" textLength="348.2021" x="1283.98" y="150.1826">Bestellung einer technischen Konfiguration (MSB)</text></g><!--class IMD_00022_msg_1--><g class="entity" data-entity="IMD_00022_msg_1" data-source-line="8" data-uid="ent0003" id="entity_IMD_00022_msg_1"><rect fill="#F1F1F1" height="145.7813" rx="2.5" ry="2.5" style="stroke:#181818;stroke-width:0.5;" width="758.1631" x="7" y="234.4869"/><ellipse cx="316.2065" cy="250.4869" fill="#ADD1B2" rx="11" ry="11" style="stroke:#181818;stroke-width:1;"/><path d="M319.1753,256.1275 Q318.5972,256.4244 317.9565,256.565 Q317.3159,256.7213 316.6128,256.7213 Q314.1128,256.7213 312.7847,255.0806 Q311.4722,253.4244 311.4722,250.2994 Q311.4722,247.1744 312.7847,245.5181 Q314.1128,243.8619 316.6128,243.8619 Q317.3159,243.8619 317.9565,244.0181 Q318.6128,244.1744 319.1753,244.4713 L319.1753,247.19 Q318.5503,246.6119 317.9565,246.3463 Q317.3628,246.065 316.7378,246.065 Q315.394,246.065 314.7065,247.1431 Q314.019,248.2056 314.019,250.2994 Q314.019,252.3931 314.7065,253.4713 Q315.394,254.5338 316.7378,254.5338 Q317.3628,254.5338 317.9565,254.2681 Q318.5503,253.9869 319.1753,253.4088 L319.1753,256.1275 Z " fill="#000000"/><text fill="#000000" font-family="sans-serif" font-size="14" lengthAdjust="spacing" textLength="131.25" x="336.7065" y="255.3336">IMD_00022_msg_1</text><line style="stroke:#181818;stroke-width:0.5;" x1="8" x2="764.1631" y1="266.4869" y2="266.4869"/><text fill="#000000" font-family="sans-serif" font-size="14" lengthAdjust="spacing" textLength="170.3584" x="13" y="283.482">Nachricht: QUOTES 1.3a</text><text fill="#000000" font-family="sans-serif" font-size="14" lengthAdjust="spacing" textLength="204.1143" x="13" y="299.7789">Kontext: Nachrichtenstruktur</text><text fill="#000000" font-family="sans-serif" font-size="14" lengthAdjust="spacing" textLength="110.5439" x="13" y="316.0757">Pflichtfeld: Nein</text><text fill="#000000" font-family="sans-serif" font-size="14" lengthAdjust="spacing" textLength="106.0049" x="13" y="332.3726">Codes: 99, IMD</text><text fill="#000000" font-family="sans-serif" font-size="14" lengthAdjust="spacing" textLength="408.3174" x="13" y="348.6695">Quelle: QUOTES_MIG_1_3a_Fehlerkorrektur_20241213.pdf</text><line style="stroke:#181818;stroke-width:0.5;" x1="8" x2="764.1631" y1="355.9713" y2="355.9713"/><text fill="#000000" font-family="sans-serif" font-size="14" lengthAdjust="spacing" textLength="746.1631" x="13" y="372.9664">Prozesse: Bestellung einer technischen Konfiguration (MSB), Sperrung und Entsperrung eines Anschlusses</text></g><!--class IMD_00022_proc_1--><g class="entity" data-entity="IMD_00022_proc_1" data-source-line="17" data-uid="ent0005" id="entity_IMD_00022_proc_1"><rect fill="#F1F1F1" height="105.1563" rx="2.5" ry="2.5" style="stroke:#181818;stroke-width:0.5;" width="1301.9961" x="800.08" y="254.7969"/><ellipse cx="1380.6596" cy="274.9297" fill="#ADD1B2" rx="11" ry="11" style="stroke:#181818;stroke-width:1;"/><path d="M1383.6283,280.5703 Q1383.0502,280.8672 1382.4096,281.0078 Q1381.769,281.1641 1381.0658,281.1641 Q1378.5658,281.1641 1377.2377,279.5234 Q1375.9252,277.8672 1375.9252,274.7422 Q1375.9252,271.6172 1377.2377,269.9609 Q1378.5658,268.3047 1381.0658,268.3047 Q1381.769,268.3047 1382.4096,268.4609 Q1383.0658,268.6172 1383.6283,268.9141 L1383.6283,271.6328 Q1383.0033,271.0547 1382.4096,270.7891 Q1381.8158,270.5078 1381.1908,270.5078 Q1379.8471,270.5078 1379.1596,271.5859 Q1378.4721,272.6484 1378.4721,274.7422 Q1378.4721,276.8359 1379.1596,277.9141 Q1379.8471,278.9766 1381.1908,278.9766 Q1381.8158,278.9766 1382.4096,278.7109 Q1383.0033,278.4297 1383.6283,277.8516 L1383.6283,280.5703 Z " fill="#000000"/><text fill="#000000" font-family="sans-serif" font-size="12" font-style="italic" lengthAdjust="spacing" textLength="61.0605" x="1436.7978" y="270.9355">&#171;process&#187;</text><text fill="#000000" font-family="sans-serif" font-size="14" lengthAdjust="spacing" textLength="132.3369" x="1401.1596" y="286.7607">IMD_00022_proc_1</text><line style="stroke:#181818;stroke-width:0.5;" x1="801.08" x2="2101.0761" y1="295.0625" y2="295.0625"/><text fill="#000000" font-family="sans-serif" font-size="14" lengthAdjust="spacing" textLength="156.4063" x="806.08" y="312.0576">Gesetze: MsbG, EnWG</text><text fill="#000000" font-family="sans-serif" font-size="14" lengthAdjust="spacing" textLength="1289.9961" x="806.08" y="328.3545">Zusammenfassung: Erl&#228;utere den Prozess zur Bestellung einer spezifischen technischen Konfiguration bei einem Messstellenbetreiber, beispielsweise f&#252;r ein intelligentes Messsystem.</text><line style="stroke:#181818;stroke-width:0.5;" x1="801.08" x2="2101.0761" y1="335.6563" y2="335.6563"/><text fill="#000000" font-family="sans-serif" font-size="14" lengthAdjust="spacing" textLength="348.2021" x="806.08" y="352.6514">Bestellung einer technischen Konfiguration (MSB)</text></g><!--class IMD_00022_proc_2--><g class="entity" data-entity="IMD_00022_proc_2" data-source-line="23" data-uid="ent0007" id="entity_IMD_00022_proc_2"><rect fill="#F1F1F1" height="105.1563" rx="2.5" ry="2.5" style="stroke:#181818;stroke-width:0.5;" width="853.9893" x="2137.09" y="254.7969"/><ellipse cx="2493.6662" cy="274.9297" fill="#ADD1B2" rx="11" ry="11" style="stroke:#181818;stroke-width:1;"/><path d="M2496.6349,280.5703 Q2496.0568,280.8672 2495.4162,281.0078 Q2494.7755,281.1641 2494.0724,281.1641 Q2491.5724,281.1641 2490.2443,279.5234 Q2488.9318,277.8672 2488.9318,274.7422 Q2488.9318,271.6172 2490.2443,269.9609 Q2491.5724,268.3047 2494.0724,268.3047 Q2494.7755,268.3047 2495.4162,268.4609 Q2496.0724,268.6172 2496.6349,268.9141 L2496.6349,271.6328 Q2496.0099,271.0547 2495.4162,270.7891 Q2494.8224,270.5078 2494.1974,270.5078 Q2492.8537,270.5078 2492.1662,271.5859 Q2491.4787,272.6484 2491.4787,274.7422 Q2491.4787,276.8359 2492.1662,277.9141 Q2492.8537,278.9766 2494.1974,278.9766 Q2494.8224,278.9766 2495.4162,278.7109 Q2496.0099,278.4297 2496.6349,277.8516 L2496.6349,280.5703 Z " fill="#000000"/><text fill="#000000" font-family="sans-serif" font-size="12" font-style="italic" lengthAdjust="spacing" textLength="61.0605" x="2549.8044" y="270.9355">&#171;process&#187;</text><text fill="#000000" font-family="sans-serif" font-size="14" lengthAdjust="spacing" textLength="132.3369" x="2514.1662" y="286.7607">IMD_00022_proc_2</text><line style="stroke:#181818;stroke-width:0.5;" x1="2138.09" x2="2990.0793" y1="295.0625" y2="295.0625"/><text fill="#000000" font-family="sans-serif" font-size="14" lengthAdjust="spacing" textLength="317.9668" x="2143.09" y="312.0576">Sperrung und Entsperrung eines Anschlusses</text><text fill="#000000" font-family="sans-serif" font-size="14" lengthAdjust="spacing" textLength="138.3252" x="2143.09" y="328.3545">Gesetze: StromGVV</text><text fill="#000000" font-family="sans-serif" font-size="14" lengthAdjust="spacing" textLength="841.9893" x="2143.09" y="344.6514">Zusammenfassung: Beschreibe den End-to-End-Prozess f&#252;r die Sperrung und Wiederherstellung eines Netzanschlusses.</text><line style="stroke:#181818;stroke-width:0.5;" x1="2138.09" x2="2990.0793" y1="351.9531" y2="351.9531"/></g><!--link IMD_00022 to IMD_00022_msg_1--><g class="link" data-entity-1="IMD_00022" data-entity-2="IMD_00022_msg_1" data-source-line="16" data-uid="lnk4" id="link_IMD_00022_IMD_00022_msg_1"><path codeLine="16" d="M1263.74,137.8569 C1125.5,164.4069 938.6024,200.2855 768.9224,232.8655" fill="none" id="IMD_00022-to-IMD_00022_msg_1" style="stroke:#181818;stroke-width:1;"/><polygon fill="#181818" points="763.03,233.9969,772.6228,236.228,767.9403,233.0541,771.1143,228.3716,763.03,233.9969" style="stroke:#181818;stroke-width:1;"/><text fill="#000000" font-family="sans-serif" font-size="13" lengthAdjust="spacing" textLength="85.2363" x="984.08" y="200.5538">verwendet in</text></g><!--link IMD_00022 to IMD_00022_proc_1--><g class="link" data-entity-1="IMD_00022" data-entity-2="IMD_00022_proc_1" data-source-line="22" data-uid="lnk6" id="link_IMD_00022_IMD_00022_proc_1"><path codeLine="22" d="M1451.08,157.7669 C1451.08,187.9169 1451.08,218.9069 1451.08,248.4269" fill="none" id="IMD_00022-to-IMD_00022_proc_1" style="stroke:#181818;stroke-width:1;stroke-dasharray:7,7;"/><polygon fill="#181818" points="1451.08,254.4269,1455.08,245.4269,1451.08,249.4269,1447.08,245.4269,1451.08,254.4269" style="stroke:#181818;stroke-width:1;"/><text fill="#000000" font-family="sans-serif" font-size="13" lengthAdjust="spacing" textLength="91.6221" x="1452.08" y="200.5538">eingebettet in</text></g><!--link IMD_00022 to IMD_00022_proc_2--><g class="link" data-entity-1="IMD_00022" data-entity-2="IMD_00022_proc_2" data-source-line="28" data-uid="lnk8" id="link_IMD_00022_IMD_00022_proc_2"><path codeLine="28" d="M1638.63,136.3469 C1814.34,168.6269 2073.4687,216.2428 2274.9387,253.2528" fill="none" id="IMD_00022-to-IMD_00022_proc_2" style="stroke:#181818;stroke-width:1;stroke-dasharray:7,7;"/><polygon fill="#181818" points="2280.84,254.3369,2272.7108,248.7766,2275.9223,253.4335,2271.2654,256.645,2280.84,254.3369" style="stroke:#181818;stroke-width:1;"/><text fill="#000000" font-family="sans-serif" font-size="13" lengthAdjust="spacing" textLength="91.6221" x="2009.08" y="200.5538">eingebettet in</text></g><!--SRC=[dPFTRjf048NlUOgvR2MWO7eJAq8g3KLHIzk8_4YziGm-XbNiDPePDorHtwQFqRkyM6S992NqH_JAkxCpS-PykrQd1UWaLVXKYrIeHQVZaxZJwKHHOsO12VjalQVR1j7xj4HC7xdAwckrx1Vlu4HhFvSfPBPWkAbjBD5ILX11R6kon054KHHsI70UJ8hPmZkhWQUtbS_TlEPKNUNfsNWoUBufcop178fgdz7GgspteOdGAsyDYjfqfF7jwS19AVEakndRPdEpXSPqTl7XV3YXRhkNse4fAxvO-243NfJDNCt1HLw4M8uYinJJjDZhAeF4T7JK35A_MZtOPFCGVqHdjJN7ra8oFXqbtQIN9c-mAC3N5JF2t4dKYLvseswllSnom_9uWwrMVmzFJ9_1D_0PbCpVKuPBhcQMTNmS5kQotry3_O_h746WAnj_BDDHqynUZIpwgPQqBE5paxLkCGsvkFjUAnYKMQyDN5hLl2zgj5OktwZ-UO8ftBgWfB6rMlU0dqB3QmKtmxai7GgviGKel_l18TzmX5GtXttbllQhLPVj7QZjTd-VLnmQp64Y-XUkqHxNWzx30z69SbMEBYz_ntEm_I_lUGvzrjAg5JvRj6k_cSEk-9L31bw0TvYB_GMwIX_7-2UBQ8_5Jm00]--></g></svg>