<svg xmlns="http://www.w3.org/2000/svg" xmlns:xlink="http://www.w3.org/1999/xlink" contentStyleType="text/css" data-diagram-type="CLASS" height="419px" preserveAspectRatio="none" style="width:5808px;height:419px;background:#FFFFFF;" version="1.1" viewBox="0 0 5808 419" width="5808px" zoomAndPan="magnify"><title>Datenatlas - IMD:C273</title><defs/><g><g class="title" data-source-line="1"><text fill="#000000" font-family="sans-serif" font-size="14" font-weight="bold" lengthAdjust="spacing" textLength="177.3584" x="2808.4888" y="22.9951">Datenatlas - IMD:C273</text></g><!--class IMD_C273--><g class="entity" data-entity="IMD_C273" data-source-line="2" data-uid="ent0002" id="entity_IMD_C273"><rect fill="#F1F1F1" height="145.7813" rx="2.5" ry="2.5" style="stroke:#181818;stroke-width:0.5;" width="374.2021" x="2838.24" y="44.2969"/><ellipse cx="2985.8484" cy="60.2969" fill="#ADD1B2" rx="11" ry="11" style="stroke:#181818;stroke-width:1;"/><path d="M2988.8171,65.9375 Q2988.239,66.2344 2987.5984,66.375 Q2986.9578,66.5313 2986.2546,66.5313 Q2983.7546,66.5313 2982.4265,64.8906 Q2981.114,63.2344 2981.114,60.1094 Q2981.114,56.9844 2982.4265,55.3281 Q2983.7546,53.6719 2986.2546,53.6719 Q2986.9578,53.6719 2987.5984,53.8281 Q2988.2546,53.9844 2988.8171,54.2813 L2988.8171,57 Q2988.1921,56.4219 2987.5984,56.1563 Q2987.0046,55.875 2986.3796,55.875 Q2985.0359,55.875 2984.3484,56.9531 Q2983.6609,58.0156 2983.6609,60.1094 Q2983.6609,62.2031 2984.3484,63.2813 Q2985.0359,64.3438 2986.3796,64.3438 Q2987.0046,64.3438 2987.5984,64.0781 Q2988.1921,63.7969 2988.8171,63.2188 L2988.8171,65.9375 Z " fill="#000000"/><text fill="#000000" font-family="sans-serif" font-size="14" lengthAdjust="spacing" textLength="70.4854" x="3006.3484" y="65.1436">IMD_C273</text><line style="stroke:#181818;stroke-width:0.5;" x1="2839.24" x2="3211.4421" y1="76.2969" y2="76.2969"/><text fill="#000000" font-family="sans-serif" font-size="14" lengthAdjust="spacing" textLength="276.5137" x="2858.24" y="93.292">Name: Produkt-/Leistungsbeschreibung</text><text fill="#000000" font-family="sans-serif" font-size="14" lengthAdjust="spacing" textLength="66.6436" x="2858.24" y="109.5889">Prozesse:</text><rect fill="none" height="6" style="stroke:#C82930;stroke-width:1;" width="6" x="2846.24" y="119.5391"/><text fill="#000000" font-family="sans-serif" font-size="14" lengthAdjust="spacing" textLength="180.3457" x="2858.24" y="125.8857">Netznutzungsabrechnung</text><rect fill="none" height="6" style="stroke:#C82930;stroke-width:1;" width="6" x="2846.24" y="135.8359"/><text fill="#000000" font-family="sans-serif" font-size="14" lengthAdjust="spacing" textLength="223.2822" x="2858.24" y="142.1826">Messstellenbetriebsabrechnung</text><line style="stroke:#181818;stroke-width:0.5;" x1="2839.24" x2="3211.4421" y1="149.4844" y2="149.4844"/><rect fill="#F24D5C" height="6" style="stroke:#C82930;stroke-width:1;" width="6" x="2846.24" y="160.1328"/><text fill="#000000" font-family="sans-serif" font-size="14" lengthAdjust="spacing" textLength="311.0557" x="2858.24" y="166.4795">Z&#228;hlerwechsel und Ger&#228;te&#252;bernahme (WiM)</text><rect fill="#F24D5C" height="6" style="stroke:#C82930;stroke-width:1;" width="6" x="2846.24" y="176.4297"/><text fill="#000000" font-family="sans-serif" font-size="14" lengthAdjust="spacing" textLength="348.2021" x="2858.24" y="182.7764">Bestellung einer technischen Konfiguration (MSB)</text></g><!--class IMD_C273_msg_1--><g class="entity" data-entity="IMD_C273_msg_1" data-source-line="10" data-uid="ent0003" id="entity_IMD_C273_msg_1"><rect fill="#F1F1F1" height="145.7813" rx="2.5" ry="2.5" style="stroke:#181818;stroke-width:0.5;" width="1172.6807" x="7" y="267.0769"/><ellipse cx="527.4849" cy="283.0769" fill="#ADD1B2" rx="11" ry="11" style="stroke:#181818;stroke-width:1;"/><path d="M530.4536,288.7175 Q529.8755,289.0144 529.2349,289.155 Q528.5942,289.3113 527.8911,289.3113 Q525.3911,289.3113 524.063,287.6706 Q522.7505,286.0144 522.7505,282.8894 Q522.7505,279.7644 524.063,278.1081 Q525.3911,276.4519 527.8911,276.4519 Q528.5942,276.4519 529.2349,276.6081 Q529.8911,276.7644 530.4536,277.0613 L530.4536,279.78 Q529.8286,279.2019 529.2349,278.9363 Q528.6411,278.655 528.0161,278.655 Q526.6724,278.655 525.9849,279.7331 Q525.2974,280.7956 525.2974,282.8894 Q525.2974,284.9831 525.9849,286.0613 Q526.6724,287.1238 528.0161,287.1238 Q528.6411,287.1238 529.2349,286.8581 Q529.8286,286.5769 530.4536,285.9988 L530.4536,288.7175 Z " fill="#000000"/><text fill="#000000" font-family="sans-serif" font-size="14" lengthAdjust="spacing" textLength="123.2109" x="547.9849" y="287.9236">IMD_C273_msg_1</text><line style="stroke:#181818;stroke-width:0.5;" x1="8" x2="1178.6807" y1="299.0769" y2="299.0769"/><text fill="#000000" font-family="sans-serif" font-size="14" lengthAdjust="spacing" textLength="161.1982" x="13" y="316.072">Nachricht: INVOIC 2.8d</text><text fill="#000000" font-family="sans-serif" font-size="14" lengthAdjust="spacing" textLength="170.3447" x="13" y="332.3689">Kontext: Segmentlayout</text><text fill="#000000" font-family="sans-serif" font-size="14" lengthAdjust="spacing" textLength="110.5439" x="13" y="348.6657">Pflichtfeld: Nein</text><text fill="#000000" font-family="sans-serif" font-size="14" lengthAdjust="spacing" textLength="777.9229" x="13" y="364.9626">Codes: 13, 17, ABR, ABS, IMD, JVR, KON, MMM, MSB, MVR, NAP, OCR, SOR, WIM, Z06, Z07, Z43, Z44, Z45, ZVR</text><text fill="#000000" font-family="sans-serif" font-size="14" lengthAdjust="spacing" textLength="396.6074" x="13" y="381.2595">Quelle: INVOIC_MIG_2.8d_Fehlerkorrektur_20250131.pdf</text><line style="stroke:#181818;stroke-width:0.5;" x1="8" x2="1178.6807" y1="388.5613" y2="388.5613"/><text fill="#000000" font-family="sans-serif" font-size="14" lengthAdjust="spacing" textLength="1160.6807" x="13" y="405.5564">Prozesse: Z&#228;hlerwechsel und Ger&#228;te&#252;bernahme (WiM), Netznutzungsabrechnung, Messstellenbetriebsabrechnung, Bestellung einer technischen Konfiguration (MSB)</text></g><!--class IMD_C273_msg_2--><g class="entity" data-entity="IMD_C273_msg_2" data-source-line="19" data-uid="ent0005" id="entity_IMD_C273_msg_2"><rect fill="#F1F1F1" height="145.7813" rx="2.5" ry="2.5" style="stroke:#181818;stroke-width:0.5;" width="1172.6807" x="1215" y="267.0769"/><ellipse cx="1735.4849" cy="283.0769" fill="#ADD1B2" rx="11" ry="11" style="stroke:#181818;stroke-width:1;"/><path d="M1738.4536,288.7175 Q1737.8755,289.0144 1737.2349,289.155 Q1736.5942,289.3113 1735.8911,289.3113 Q1733.3911,289.3113 1732.063,287.6706 Q1730.7505,286.0144 1730.7505,282.8894 Q1730.7505,279.7644 1732.063,278.1081 Q1733.3911,276.4519 1735.8911,276.4519 Q1736.5942,276.4519 1737.2349,276.6081 Q1737.8911,276.7644 1738.4536,277.0613 L1738.4536,279.78 Q1737.8286,279.2019 1737.2349,278.9363 Q1736.6411,278.655 1736.0161,278.655 Q1734.6724,278.655 1733.9849,279.7331 Q1733.2974,280.7956 1733.2974,282.8894 Q1733.2974,284.9831 1733.9849,286.0613 Q1734.6724,287.1238 1736.0161,287.1238 Q1736.6411,287.1238 1737.2349,286.8581 Q1737.8286,286.5769 1738.4536,285.9988 L1738.4536,288.7175 Z " fill="#000000"/><text fill="#000000" font-family="sans-serif" font-size="14" lengthAdjust="spacing" textLength="123.2109" x="1755.9849" y="287.9236">IMD_C273_msg_2</text><line style="stroke:#181818;stroke-width:0.5;" x1="1216" x2="2386.6807" y1="299.0769" y2="299.0769"/><text fill="#000000" font-family="sans-serif" font-size="14" lengthAdjust="spacing" textLength="165.6484" x="1221" y="316.072">Nachricht: INVOIC 2.8d.</text><text fill="#000000" font-family="sans-serif" font-size="14" lengthAdjust="spacing" textLength="170.3447" x="1221" y="332.3689">Kontext: Segmentlayout</text><text fill="#000000" font-family="sans-serif" font-size="14" lengthAdjust="spacing" textLength="110.5439" x="1221" y="348.6657">Pflichtfeld: Nein</text><text fill="#000000" font-family="sans-serif" font-size="14" lengthAdjust="spacing" textLength="810.5781" x="1221" y="364.9626">Codes: 13, 17, ABR, ABS, EDI, IMD, JVR, KON, MMM, MSB, MVR, NAP, OCR, SOR, WIM, Z06, Z07, Z43, Z44, Z45, ZVR</text><text fill="#000000" font-family="sans-serif" font-size="14" lengthAdjust="spacing" textLength="290.3359" x="1221" y="381.2595">Quelle: INVOIC_MIG_2_8d__20240619.pdf</text><line style="stroke:#181818;stroke-width:0.5;" x1="1216" x2="2386.6807" y1="388.5613" y2="388.5613"/><text fill="#000000" font-family="sans-serif" font-size="14" lengthAdjust="spacing" textLength="1160.6807" x="1221" y="405.5564">Prozesse: Z&#228;hlerwechsel und Ger&#228;te&#252;bernahme (WiM), Netznutzungsabrechnung, Messstellenbetriebsabrechnung, Bestellung einer technischen Konfiguration (MSB)</text></g><!--class IMD_C273_proc_1--><g class="entity" data-entity="IMD_C273_proc_1" data-source-line="28" data-uid="ent0007" id="entity_IMD_C273_proc_1"><rect fill="#F1F1F1" height="105.1563" rx="2.5" ry="2.5" style="stroke:#181818;stroke-width:0.5;" width="528.5234" x="2423.08" y="287.3869"/><ellipse cx="2620.9428" cy="307.5197" fill="#ADD1B2" rx="11" ry="11" style="stroke:#181818;stroke-width:1;"/><path d="M2623.9115,313.1603 Q2623.3334,313.4572 2622.6928,313.5978 Q2622.0522,313.7541 2621.349,313.7541 Q2618.849,313.7541 2617.5209,312.1134 Q2616.2084,310.4572 2616.2084,307.3322 Q2616.2084,304.2072 2617.5209,302.5509 Q2618.849,300.8947 2621.349,300.8947 Q2622.0522,300.8947 2622.6928,301.0509 Q2623.349,301.2072 2623.9115,301.5041 L2623.9115,304.2228 Q2623.2865,303.6447 2622.6928,303.3791 Q2622.099,303.0978 2621.474,303.0978 Q2620.1303,303.0978 2619.4428,304.1759 Q2618.7553,305.2384 2618.7553,307.3322 Q2618.7553,309.4259 2619.4428,310.5041 Q2620.1303,311.5666 2621.474,311.5666 Q2622.099,311.5666 2622.6928,311.3009 Q2623.2865,311.0197 2623.9115,310.4416 L2623.9115,313.1603 Z " fill="#000000"/><text fill="#000000" font-family="sans-serif" font-size="12" font-style="italic" lengthAdjust="spacing" textLength="61.0605" x="2673.0614" y="303.5255">&#171;process&#187;</text><text fill="#000000" font-family="sans-serif" font-size="14" lengthAdjust="spacing" textLength="124.2979" x="2641.4428" y="319.3507">IMD_C273_proc_1</text><line style="stroke:#181818;stroke-width:0.5;" x1="2424.08" x2="2950.6034" y1="327.6525" y2="327.6525"/><text fill="#000000" font-family="sans-serif" font-size="14" lengthAdjust="spacing" textLength="105.0957" x="2429.08" y="344.6476">Gesetze: MsbG</text><text fill="#000000" font-family="sans-serif" font-size="14" lengthAdjust="spacing" textLength="516.5234" x="2429.08" y="360.9445">Zusammenfassung: Erl&#228;utere den Gesch&#228;ftsprozess 'Z&#228;hlerwechsel' bzw.</text><line style="stroke:#181818;stroke-width:0.5;" x1="2424.08" x2="2950.6034" y1="368.2463" y2="368.2463"/><text fill="#000000" font-family="sans-serif" font-size="14" lengthAdjust="spacing" textLength="311.0557" x="2429.08" y="385.2414">Z&#228;hlerwechsel und Ger&#228;te&#252;bernahme (WiM)</text></g><!--class IMD_C273_proc_2--><g class="entity" data-entity="IMD_C273_proc_2" data-source-line="34" data-uid="ent0009" id="entity_IMD_C273_proc_2"><rect fill="#F1F1F1" height="105.1563" rx="2.5" ry="2.5" style="stroke:#181818;stroke-width:0.5;" width="752.6465" x="2987.02" y="287.3869"/><ellipse cx="3296.9443" cy="307.5197" fill="#ADD1B2" rx="11" ry="11" style="stroke:#181818;stroke-width:1;"/><path d="M3299.9131,313.1603 Q3299.3349,313.4572 3298.6943,313.5978 Q3298.0537,313.7541 3297.3506,313.7541 Q3294.8506,313.7541 3293.5224,312.1134 Q3292.2099,310.4572 3292.2099,307.3322 Q3292.2099,304.2072 3293.5224,302.5509 Q3294.8506,300.8947 3297.3506,300.8947 Q3298.0537,300.8947 3298.6943,301.0509 Q3299.3506,301.2072 3299.9131,301.5041 L3299.9131,304.2228 Q3299.2881,303.6447 3298.6943,303.3791 Q3298.1006,303.0978 3297.4756,303.0978 Q3296.1318,303.0978 3295.4443,304.1759 Q3294.7568,305.2384 3294.7568,307.3322 Q3294.7568,309.4259 3295.4443,310.5041 Q3296.1318,311.5666 3297.4756,311.5666 Q3298.1006,311.5666 3298.6943,311.3009 Q3299.2881,311.0197 3299.9131,310.4416 L3299.9131,313.1603 Z " fill="#000000"/><text fill="#000000" font-family="sans-serif" font-size="12" font-style="italic" lengthAdjust="spacing" textLength="61.0605" x="3349.063" y="303.5255">&#171;process&#187;</text><text fill="#000000" font-family="sans-serif" font-size="14" lengthAdjust="spacing" textLength="124.2979" x="3317.4443" y="319.3507">IMD_C273_proc_2</text><line style="stroke:#181818;stroke-width:0.5;" x1="2988.02" x2="3738.6665" y1="327.6525" y2="327.6525"/><text fill="#000000" font-family="sans-serif" font-size="14" lengthAdjust="spacing" textLength="180.3457" x="2993.02" y="344.6476">Netznutzungsabrechnung</text><text fill="#000000" font-family="sans-serif" font-size="14" lengthAdjust="spacing" textLength="218.0938" x="2993.02" y="360.9445">Gesetze: StromNEV, StromNZV</text><text fill="#000000" font-family="sans-serif" font-size="14" lengthAdjust="spacing" textLength="740.6465" x="2993.02" y="377.2414">Zusammenfassung: Wie funktioniert die Netznutzungsabrechnung zwischen Netzbetreiber und Lieferant?</text><line style="stroke:#181818;stroke-width:0.5;" x1="2988.02" x2="3738.6665" y1="384.5431" y2="384.5431"/></g><!--class IMD_C273_proc_3--><g class="entity" data-entity="IMD_C273_proc_3" data-source-line="40" data-uid="ent0011" id="entity_IMD_C273_proc_3"><rect fill="#F1F1F1" height="105.1563" rx="2.5" ry="2.5" style="stroke:#181818;stroke-width:0.5;" width="690.2275" x="3774.23" y="287.3869"/><ellipse cx="4052.9448" cy="307.5197" fill="#ADD1B2" rx="11" ry="11" style="stroke:#181818;stroke-width:1;"/><path d="M4055.9136,313.1603 Q4055.3355,313.4572 4054.6948,313.5978 Q4054.0542,313.7541 4053.3511,313.7541 Q4050.8511,313.7541 4049.523,312.1134 Q4048.2105,310.4572 4048.2105,307.3322 Q4048.2105,304.2072 4049.523,302.5509 Q4050.8511,300.8947 4053.3511,300.8947 Q4054.0542,300.8947 4054.6948,301.0509 Q4055.3511,301.2072 4055.9136,301.5041 L4055.9136,304.2228 Q4055.2886,303.6447 4054.6948,303.3791 Q4054.1011,303.0978 4053.4761,303.0978 Q4052.1323,303.0978 4051.4448,304.1759 Q4050.7573,305.2384 4050.7573,307.3322 Q4050.7573,309.4259 4051.4448,310.5041 Q4052.1323,311.5666 4053.4761,311.5666 Q4054.1011,311.5666 4054.6948,311.3009 Q4055.2886,311.0197 4055.9136,310.4416 L4055.9136,313.1603 Z " fill="#000000"/><text fill="#000000" font-family="sans-serif" font-size="12" font-style="italic" lengthAdjust="spacing" textLength="61.0605" x="4105.0635" y="303.5255">&#171;process&#187;</text><text fill="#000000" font-family="sans-serif" font-size="14" lengthAdjust="spacing" textLength="124.2979" x="4073.4448" y="319.3507">IMD_C273_proc_3</text><line style="stroke:#181818;stroke-width:0.5;" x1="3775.23" x2="4463.4575" y1="327.6525" y2="327.6525"/><text fill="#000000" font-family="sans-serif" font-size="14" lengthAdjust="spacing" textLength="223.2822" x="3780.23" y="344.6476">Messstellenbetriebsabrechnung</text><text fill="#000000" font-family="sans-serif" font-size="14" lengthAdjust="spacing" textLength="105.0957" x="3780.23" y="360.9445">Gesetze: MsbG</text><text fill="#000000" font-family="sans-serif" font-size="14" lengthAdjust="spacing" textLength="678.2275" x="3780.23" y="377.2414">Zusammenfassung: Beschreibe den Prozess der Abrechnung von Messstellenbetriebsleistungen.</text><line style="stroke:#181818;stroke-width:0.5;" x1="3775.23" x2="4463.4575" y1="384.5431" y2="384.5431"/></g><!--class IMD_C273_proc_4--><g class="entity" data-entity="IMD_C273_proc_4" data-source-line="46" data-uid="ent0013" id="entity_IMD_C273_proc_4"><rect fill="#F1F1F1" height="105.1563" rx="2.5" ry="2.5" style="stroke:#181818;stroke-width:0.5;" width="1301.9961" x="4499.34" y="287.3869"/><ellipse cx="5083.9391" cy="307.5197" fill="#ADD1B2" rx="11" ry="11" style="stroke:#181818;stroke-width:1;"/><path d="M5086.9079,313.1603 Q5086.3297,313.4572 5085.6891,313.5978 Q5085.0485,313.7541 5084.3454,313.7541 Q5081.8454,313.7541 5080.5172,312.1134 Q5079.2047,310.4572 5079.2047,307.3322 Q5079.2047,304.2072 5080.5172,302.5509 Q5081.8454,300.8947 5084.3454,300.8947 Q5085.0485,300.8947 5085.6891,301.0509 Q5086.3454,301.2072 5086.9079,301.5041 L5086.9079,304.2228 Q5086.2829,303.6447 5085.6891,303.3791 Q5085.0954,303.0978 5084.4704,303.0978 Q5083.1266,303.0978 5082.4391,304.1759 Q5081.7516,305.2384 5081.7516,307.3322 Q5081.7516,309.4259 5082.4391,310.5041 Q5083.1266,311.5666 5084.4704,311.5666 Q5085.0954,311.5666 5085.6891,311.3009 Q5086.2829,311.0197 5086.9079,310.4416 L5086.9079,313.1603 Z " fill="#000000"/><text fill="#000000" font-family="sans-serif" font-size="12" font-style="italic" lengthAdjust="spacing" textLength="61.0605" x="5136.0578" y="303.5255">&#171;process&#187;</text><text fill="#000000" font-family="sans-serif" font-size="14" lengthAdjust="spacing" textLength="124.2979" x="5104.4391" y="319.3507">IMD_C273_proc_4</text><line style="stroke:#181818;stroke-width:0.5;" x1="4500.34" x2="5800.3361" y1="327.6525" y2="327.6525"/><text fill="#000000" font-family="sans-serif" font-size="14" lengthAdjust="spacing" textLength="156.4063" x="4505.34" y="344.6476">Gesetze: MsbG, EnWG</text><text fill="#000000" font-family="sans-serif" font-size="14" lengthAdjust="spacing" textLength="1289.9961" x="4505.34" y="360.9445">Zusammenfassung: Erl&#228;utere den Prozess zur Bestellung einer spezifischen technischen Konfiguration bei einem Messstellenbetreiber, beispielsweise f&#252;r ein intelligentes Messsystem.</text><line style="stroke:#181818;stroke-width:0.5;" x1="4500.34" x2="5800.3361" y1="368.2463" y2="368.2463"/><text fill="#000000" font-family="sans-serif" font-size="14" lengthAdjust="spacing" textLength="348.2021" x="4505.34" y="385.2414">Bestellung einer technischen Konfiguration (MSB)</text></g><!--link IMD_C273 to IMD_C273_msg_1--><g class="link" data-entity-1="IMD_C273" data-entity-2="IMD_C273_msg_1" data-source-line="18" data-uid="lnk4" id="link_IMD_C273_IMD_C273_msg_1"><path codeLine="18" d="M2837.96,131.1369 C2506.67,154.5469 1795.94,207.0969 1197.34,267.0769 C1191.56,267.6569 1191.7195,267.6428 1185.8895,268.2328" fill="none" id="IMD_C273-to-IMD_C273_msg_1" style="stroke:#181818;stroke-width:1;"/><polygon fill="#181818" points="1179.92,268.8369,1189.277,271.9104,1184.8946,268.3334,1188.4715,263.951,1179.92,268.8369" style="stroke:#181818;stroke-width:1;"/><text fill="#000000" font-family="sans-serif" font-size="13" lengthAdjust="spacing" textLength="85.2363" x="1700.34" y="233.1438">verwendet in</text></g><!--link IMD_C273 to IMD_C273_msg_2--><g class="link" data-entity-1="IMD_C273" data-entity-2="IMD_C273_msg_2" data-source-line="27" data-uid="lnk6" id="link_IMD_C273_IMD_C273_msg_2"><path codeLine="27" d="M2837.78,152.0169 C2669.29,182.4069 2422.1547,226.9817 2208.2847,265.5617" fill="none" id="IMD_C273-to-IMD_C273_msg_2" style="stroke:#181818;stroke-width:1;"/><polygon fill="#181818" points="2202.38,266.6269,2211.9471,268.9656,2207.3006,265.7393,2210.5269,261.0927,2202.38,266.6269" style="stroke:#181818;stroke-width:1;"/><text fill="#000000" font-family="sans-serif" font-size="13" lengthAdjust="spacing" textLength="85.2363" x="2451.34" y="233.1438">verwendet in</text></g><!--link IMD_C273 to IMD_C273_proc_1--><g class="link" data-entity-1="IMD_C273" data-entity-2="IMD_C273_proc_1" data-source-line="33" data-uid="lnk8" id="link_IMD_C273_IMD_C273_proc_1"><path codeLine="33" d="M2914.67,190.4769 C2866.44,221.9769 2816.0131,254.9154 2771.9431,283.7054" fill="none" id="IMD_C273-to-IMD_C273_proc_1" style="stroke:#181818;stroke-width:1;stroke-dasharray:7,7;"/><polygon fill="#181818" points="2766.92,286.9869,2776.6424,285.4134,2771.1059,284.2523,2772.267,278.7159,2766.92,286.9869" style="stroke:#181818;stroke-width:1;"/><text fill="#000000" font-family="sans-serif" font-size="13" lengthAdjust="spacing" textLength="91.6221" x="2868.34" y="233.1438">eingebettet in</text></g><!--link IMD_C273 to IMD_C273_proc_2--><g class="link" data-entity-1="IMD_C273" data-entity-2="IMD_C273_proc_2" data-source-line="39" data-uid="lnk10" id="link_IMD_C273_IMD_C273_proc_2"><path codeLine="39" d="M3136.01,190.4769 C3184.24,221.9769 3234.6669,254.9154 3278.7369,283.7054" fill="none" id="IMD_C273-to-IMD_C273_proc_2" style="stroke:#181818;stroke-width:1;stroke-dasharray:7,7;"/><polygon fill="#181818" points="3283.76,286.9869,3278.413,278.7159,3279.5741,284.2523,3274.0376,285.4134,3283.76,286.9869" style="stroke:#181818;stroke-width:1;"/><text fill="#000000" font-family="sans-serif" font-size="13" lengthAdjust="spacing" textLength="91.6221" x="3206.34" y="233.1438">eingebettet in</text></g><!--link IMD_C273 to IMD_C273_proc_3--><g class="link" data-entity-1="IMD_C273" data-entity-2="IMD_C273_proc_3" data-source-line="45" data-uid="lnk12" id="link_IMD_C273_IMD_C273_proc_3"><path codeLine="45" d="M3212.78,156.0169 C3391.54,192.0869 3656.3786,245.5298 3855.4486,285.7098" fill="none" id="IMD_C273-to-IMD_C273_proc_3" style="stroke:#181818;stroke-width:1;stroke-dasharray:7,7;"/><polygon fill="#181818" points="3861.33,286.8969,3853.2993,281.1953,3856.4288,285.9076,3851.7165,289.0372,3861.33,286.8969" style="stroke:#181818;stroke-width:1;"/><text fill="#000000" font-family="sans-serif" font-size="13" lengthAdjust="spacing" textLength="91.6221" x="3606.34" y="233.1438">eingebettet in</text></g><!--link IMD_C273 to IMD_C273_proc_4--><g class="link" data-entity-1="IMD_C273" data-entity-2="IMD_C273_proc_4" data-source-line="51" data-uid="lnk14" id="link_IMD_C273_IMD_C273_proc_4"><path codeLine="51" d="M3212.82,137.0169 C3490.27,164.9669 4026.52,219.2569 4482.34,267.0769 C4542.95,273.4369 4600.6838,279.5605 4663.6838,286.2805" fill="none" id="IMD_C273-to-IMD_C273_proc_4" style="stroke:#181818;stroke-width:1;stroke-dasharray:7,7;"/><polygon fill="#181818" points="4669.65,286.9169,4661.125,281.9849,4664.6782,286.3866,4660.2765,289.9397,4669.65,286.9169" style="stroke:#181818;stroke-width:1;"/><text fill="#000000" font-family="sans-serif" font-size="13" lengthAdjust="spacing" textLength="91.6221" x="4164.34" y="233.1438">eingebettet in</text></g><!--SRC=[xLNDRjf04BxdAUQMH38K34bQAw8A94KaCQH10ecBPUCnhB3NQ7ST6gg-3O-H6o_M6I1f4Y0aLO-zZ6PtVdQ_xnklZJ0nmhblKFeczZNaeE6UEpNxfBJNfxNcfSTB-Ba7qFGJTE16fM4sChbFroYqoUH01wZxGuKYe0MbKS8KjKQ7VA2MlVbi6AEQO7-eCOPCXb17DPyPd3y4gAG_J10Eki8zN1KqqKnbPgRSsmyKrSbbPmwwr5eRZ6EK0HebC5ZFgU8YWpO0XKG5XkE2ReaIhb8PYK6cV2DI2GTkktguz-iLN2_H0w-u0atOH7ze76WqEwr63Upyvv02rCVW3zfkuo11IVpTfvbX_57C-H76eKDOXAIzMXgYTg1Oig1uOi5PzPPDs-8JBRZiqFAgrRJ0TLqoxIePtckUtLZGgf7NRf7fDYZQAnopeIwzSebDcSqHcSxjS_O_mBkrXNBhRRQjZnCDy3tZRezaUcwZxZ6XtZVaouvIfN1aCkNP1VkeK2mLy-Cm8dsU1Z6NgxoMoO4xXYb3D41iRv3IVaFA_3_JykAyyL_GXQ0U2SeAbWl7nIyx5RHtA3XMQPzaFZrbX-vVgIpa_D2xKaTDZD0rNHtKkJZJVa9IHtGIeNNWGiNpMMPG8OI4jSvlsdmM6JrUyW_xBy_RXs0woJ_7bSzNrkxiC8q39AhDTcZs6hIjB-0JZBPHQTAyw5WhhzVP1Aeh4A9CZbWmWSf0I1kRcyDqifAPupmRzA3J032jrm8ZLBuqNz_6QxyFRsaDxwv7VQTwrSTVq5AzrJT3leApFn3lQ6mt71MlVcGeT-XPUX- -yXg-l_YiNa2cjqLstpEsZy2dcLe_L8znAgBLgTjl4A1O52IlkLeCXCLnFHOOwmavD5_p1yNvn0Qd2gBHe5xMtbDrieFKyXgflm40]--></g></svg>