<svg xmlns="http://www.w3.org/2000/svg" xmlns:xlink="http://www.w3.org/1999/xlink" contentStyleType="text/css" data-diagram-type="CLASS" height="387px" preserveAspectRatio="none" style="width:2552px;height:387px;background:#FFFFFF;" version="1.1" viewBox="0 0 2552 387" width="2552px" zoomAndPan="magnify"><title>Datenatlas - IMD:00014</title><defs/><g><g class="title" data-source-line="1"><text fill="#000000" font-family="sans-serif" font-size="14" font-weight="bold" lengthAdjust="spacing" textLength="186.5664" x="1176.1806" y="22.9951">Datenatlas - IMD:00014</text></g><!--class IMD_00014--><g class="entity" data-entity="IMD_00014" data-source-line="2" data-uid="ent0002" id="entity_IMD_00014"><rect fill="#F1F1F1" height="113.1875" rx="2.5" ry="2.5" style="stroke:#181818;stroke-width:0.5;" width="249.2822" x="990.17" y="44.2969"/><ellipse cx="1071.2989" cy="60.2969" fill="#ADD1B2" rx="11" ry="11" style="stroke:#181818;stroke-width:1;"/><path d="M1074.2677,65.9375 Q1073.6895,66.2344 1073.0489,66.375 Q1072.4083,66.5313 1071.7052,66.5313 Q1069.2052,66.5313 1067.877,64.8906 Q1066.5645,63.2344 1066.5645,60.1094 Q1066.5645,56.9844 1067.877,55.3281 Q1069.2052,53.6719 1071.7052,53.6719 Q1072.4083,53.6719 1073.0489,53.8281 Q1073.7052,53.9844 1074.2677,54.2813 L1074.2677,57 Q1073.6427,56.4219 1073.0489,56.1563 Q1072.4552,55.875 1071.8302,55.875 Q1070.4864,55.875 1069.7989,56.9531 Q1069.1114,58.0156 1069.1114,60.1094 Q1069.1114,62.2031 1069.7989,63.2813 Q1070.4864,64.3438 1071.8302,64.3438 Q1072.4552,64.3438 1073.0489,64.0781 Q1073.6427,63.7969 1074.2677,63.2188 L1074.2677,65.9375 Z " fill="#000000"/><text fill="#000000" font-family="sans-serif" font-size="14" lengthAdjust="spacing" textLength="78.5244" x="1091.7989" y="65.1436">IMD_00014</text><line style="stroke:#181818;stroke-width:0.5;" x1="991.17" x2="1238.4522" y1="76.2969" y2="76.2969"/><text fill="#000000" font-family="sans-serif" font-size="14" lengthAdjust="spacing" textLength="150.8418" x="1010.17" y="93.292">Name: Rechnungstyp</text><text fill="#000000" font-family="sans-serif" font-size="14" lengthAdjust="spacing" textLength="66.6436" x="1010.17" y="109.5889">Prozesse:</text><rect fill="none" height="6" style="stroke:#C82930;stroke-width:1;" width="6" x="998.17" y="119.5391"/><text fill="#000000" font-family="sans-serif" font-size="14" lengthAdjust="spacing" textLength="180.3457" x="1010.17" y="125.8857">Netznutzungsabrechnung</text><rect fill="none" height="6" style="stroke:#C82930;stroke-width:1;" width="6" x="998.17" y="135.8359"/><text fill="#000000" font-family="sans-serif" font-size="14" lengthAdjust="spacing" textLength="223.2822" x="1010.17" y="142.1826">Messstellenbetriebsabrechnung</text><line style="stroke:#181818;stroke-width:0.5;" x1="991.17" x2="1238.4522" y1="149.4844" y2="149.4844"/></g><!--class IMD_00014_msg_1--><g class="entity" data-entity="IMD_00014_msg_1" data-source-line="8" data-uid="ent0003" id="entity_IMD_00014_msg_1"><rect fill="#F1F1F1" height="145.7813" rx="2.5" ry="2.5" style="stroke:#181818;stroke-width:0.5;" width="495.6221" x="7" y="234.4869"/><ellipse cx="184.936" cy="250.4869" fill="#ADD1B2" rx="11" ry="11" style="stroke:#181818;stroke-width:1;"/><path d="M187.9048,256.1275 Q187.3267,256.4244 186.686,256.565 Q186.0454,256.7213 185.3423,256.7213 Q182.8423,256.7213 181.5142,255.0806 Q180.2017,253.4244 180.2017,250.2994 Q180.2017,247.1744 181.5142,245.5181 Q182.8423,243.8619 185.3423,243.8619 Q186.0454,243.8619 186.686,244.0181 Q187.3423,244.1744 187.9048,244.4713 L187.9048,247.19 Q187.2798,246.6119 186.686,246.3463 Q186.0923,246.065 185.4673,246.065 Q184.1235,246.065 183.436,247.1431 Q182.7485,248.2056 182.7485,250.2994 Q182.7485,252.3931 183.436,253.4713 Q184.1235,254.5338 185.4673,254.5338 Q186.0923,254.5338 186.686,254.2681 Q187.2798,253.9869 187.9048,253.4088 L187.9048,256.1275 Z " fill="#000000"/><text fill="#000000" font-family="sans-serif" font-size="14" lengthAdjust="spacing" textLength="131.25" x="205.436" y="255.3336">IMD_00014_msg_1</text><line style="stroke:#181818;stroke-width:0.5;" x1="8" x2="501.6221" y1="266.4869" y2="266.4869"/><text fill="#000000" font-family="sans-serif" font-size="14" lengthAdjust="spacing" textLength="161.1982" x="13" y="283.482">Nachricht: INVOIC 2.8d</text><text fill="#000000" font-family="sans-serif" font-size="14" lengthAdjust="spacing" textLength="204.1143" x="13" y="299.7789">Kontext: Nachrichtenstruktur</text><text fill="#000000" font-family="sans-serif" font-size="14" lengthAdjust="spacing" textLength="110.5439" x="13" y="316.0757">Pflichtfeld: Nein</text><text fill="#000000" font-family="sans-serif" font-size="14" lengthAdjust="spacing" textLength="79.29" x="13" y="332.3726">Codes: IMD</text><text fill="#000000" font-family="sans-serif" font-size="14" lengthAdjust="spacing" textLength="483.6221" x="13" y="348.6695">Prozesse: Netznutzungsabrechnung, Messstellenbetriebsabrechnung</text><text fill="#000000" font-family="sans-serif" font-size="14" lengthAdjust="spacing" textLength="396.6074" x="13" y="364.9664">Quelle: INVOIC_MIG_2.8d_Fehlerkorrektur_20250131.pdf</text><line style="stroke:#181818;stroke-width:0.5;" x1="8" x2="501.6221" y1="372.2681" y2="372.2681"/></g><!--class IMD_00014_msg_2--><g class="entity" data-entity="IMD_00014_msg_2" data-source-line="17" data-uid="ent0005" id="entity_IMD_00014_msg_2"><rect fill="#F1F1F1" height="145.7813" rx="2.5" ry="2.5" style="stroke:#181818;stroke-width:0.5;" width="495.6221" x="538" y="234.4869"/><ellipse cx="715.936" cy="250.4869" fill="#ADD1B2" rx="11" ry="11" style="stroke:#181818;stroke-width:1;"/><path d="M718.9048,256.1275 Q718.3267,256.4244 717.686,256.565 Q717.0454,256.7213 716.3423,256.7213 Q713.8423,256.7213 712.5142,255.0806 Q711.2017,253.4244 711.2017,250.2994 Q711.2017,247.1744 712.5142,245.5181 Q713.8423,243.8619 716.3423,243.8619 Q717.0454,243.8619 717.686,244.0181 Q718.3423,244.1744 718.9048,244.4713 L718.9048,247.19 Q718.2798,246.6119 717.686,246.3463 Q717.0923,246.065 716.4673,246.065 Q715.1235,246.065 714.436,247.1431 Q713.7485,248.2056 713.7485,250.2994 Q713.7485,252.3931 714.436,253.4713 Q715.1235,254.5338 716.4673,254.5338 Q717.0923,254.5338 717.686,254.2681 Q718.2798,253.9869 718.9048,253.4088 L718.9048,256.1275 Z " fill="#000000"/><text fill="#000000" font-family="sans-serif" font-size="14" lengthAdjust="spacing" textLength="131.25" x="736.436" y="255.3336">IMD_00014_msg_2</text><line style="stroke:#181818;stroke-width:0.5;" x1="539" x2="1032.6221" y1="266.4869" y2="266.4869"/><text fill="#000000" font-family="sans-serif" font-size="14" lengthAdjust="spacing" textLength="165.6484" x="544" y="283.482">Nachricht: INVOIC 2.8d.</text><text fill="#000000" font-family="sans-serif" font-size="14" lengthAdjust="spacing" textLength="204.1143" x="544" y="299.7789">Kontext: Nachrichtenstruktur</text><text fill="#000000" font-family="sans-serif" font-size="14" lengthAdjust="spacing" textLength="110.5439" x="544" y="316.0757">Pflichtfeld: Nein</text><text fill="#000000" font-family="sans-serif" font-size="14" lengthAdjust="spacing" textLength="79.29" x="544" y="332.3726">Codes: IMD</text><text fill="#000000" font-family="sans-serif" font-size="14" lengthAdjust="spacing" textLength="483.6221" x="544" y="348.6695">Prozesse: Netznutzungsabrechnung, Messstellenbetriebsabrechnung</text><text fill="#000000" font-family="sans-serif" font-size="14" lengthAdjust="spacing" textLength="290.3359" x="544" y="364.9664">Quelle: INVOIC_MIG_2_8d__20240619.pdf</text><line style="stroke:#181818;stroke-width:0.5;" x1="539" x2="1032.6221" y1="372.2681" y2="372.2681"/></g><!--class IMD_00014_proc_1--><g class="entity" data-entity="IMD_00014_proc_1" data-source-line="26" data-uid="ent0007" id="entity_IMD_00014_proc_1"><rect fill="#F1F1F1" height="105.1563" rx="2.5" ry="2.5" style="stroke:#181818;stroke-width:0.5;" width="752.6465" x="1068.49" y="254.7969"/><ellipse cx="1374.3948" cy="274.9297" fill="#ADD1B2" rx="11" ry="11" style="stroke:#181818;stroke-width:1;"/><path d="M1377.3635,280.5703 Q1376.7854,280.8672 1376.1448,281.0078 Q1375.5042,281.1641 1374.801,281.1641 Q1372.301,281.1641 1370.9729,279.5234 Q1369.6604,277.8672 1369.6604,274.7422 Q1369.6604,271.6172 1370.9729,269.9609 Q1372.301,268.3047 1374.801,268.3047 Q1375.5042,268.3047 1376.1448,268.4609 Q1376.801,268.6172 1377.3635,268.9141 L1377.3635,271.6328 Q1376.7385,271.0547 1376.1448,270.7891 Q1375.551,270.5078 1374.926,270.5078 Q1373.5823,270.5078 1372.8948,271.5859 Q1372.2073,272.6484 1372.2073,274.7422 Q1372.2073,276.8359 1372.8948,277.9141 Q1373.5823,278.9766 1374.926,278.9766 Q1375.551,278.9766 1376.1448,278.7109 Q1376.7385,278.4297 1377.3635,277.8516 L1377.3635,280.5703 Z " fill="#000000"/><text fill="#000000" font-family="sans-serif" font-size="12" font-style="italic" lengthAdjust="spacing" textLength="61.0605" x="1430.533" y="270.9355">&#171;process&#187;</text><text fill="#000000" font-family="sans-serif" font-size="14" lengthAdjust="spacing" textLength="132.3369" x="1394.8948" y="286.7607">IMD_00014_proc_1</text><line style="stroke:#181818;stroke-width:0.5;" x1="1069.49" x2="1820.1365" y1="295.0625" y2="295.0625"/><text fill="#000000" font-family="sans-serif" font-size="14" lengthAdjust="spacing" textLength="180.3457" x="1074.49" y="312.0576">Netznutzungsabrechnung</text><text fill="#000000" font-family="sans-serif" font-size="14" lengthAdjust="spacing" textLength="218.0938" x="1074.49" y="328.3545">Gesetze: StromNEV, StromNZV</text><text fill="#000000" font-family="sans-serif" font-size="14" lengthAdjust="spacing" textLength="740.6465" x="1074.49" y="344.6514">Zusammenfassung: Wie funktioniert die Netznutzungsabrechnung zwischen Netzbetreiber und Lieferant?</text><line style="stroke:#181818;stroke-width:0.5;" x1="1069.49" x2="1820.1365" y1="351.9531" y2="351.9531"/></g><!--class IMD_00014_proc_2--><g class="entity" data-entity="IMD_00014_proc_2" data-source-line="32" data-uid="ent0009" id="entity_IMD_00014_proc_2"><rect fill="#F1F1F1" height="105.1563" rx="2.5" ry="2.5" style="stroke:#181818;stroke-width:0.5;" width="690.2275" x="1855.7" y="254.7969"/><ellipse cx="2130.3953" cy="274.9297" fill="#ADD1B2" rx="11" ry="11" style="stroke:#181818;stroke-width:1;"/><path d="M2133.3641,280.5703 Q2132.7859,280.8672 2132.1453,281.0078 Q2131.5047,281.1641 2130.8016,281.1641 Q2128.3016,281.1641 2126.9734,279.5234 Q2125.6609,277.8672 2125.6609,274.7422 Q2125.6609,271.6172 2126.9734,269.9609 Q2128.3016,268.3047 2130.8016,268.3047 Q2131.5047,268.3047 2132.1453,268.4609 Q2132.8016,268.6172 2133.3641,268.9141 L2133.3641,271.6328 Q2132.7391,271.0547 2132.1453,270.7891 Q2131.5516,270.5078 2130.9266,270.5078 Q2129.5828,270.5078 2128.8953,271.5859 Q2128.2078,272.6484 2128.2078,274.7422 Q2128.2078,276.8359 2128.8953,277.9141 Q2129.5828,278.9766 2130.9266,278.9766 Q2131.5516,278.9766 2132.1453,278.7109 Q2132.7391,278.4297 2133.3641,277.8516 L2133.3641,280.5703 Z " fill="#000000"/><text fill="#000000" font-family="sans-serif" font-size="12" font-style="italic" lengthAdjust="spacing" textLength="61.0605" x="2186.5335" y="270.9355">&#171;process&#187;</text><text fill="#000000" font-family="sans-serif" font-size="14" lengthAdjust="spacing" textLength="132.3369" x="2150.8953" y="286.7607">IMD_00014_proc_2</text><line style="stroke:#181818;stroke-width:0.5;" x1="1856.7" x2="2544.9275" y1="295.0625" y2="295.0625"/><text fill="#000000" font-family="sans-serif" font-size="14" lengthAdjust="spacing" textLength="223.2822" x="1861.7" y="312.0576">Messstellenbetriebsabrechnung</text><text fill="#000000" font-family="sans-serif" font-size="14" lengthAdjust="spacing" textLength="105.0957" x="1861.7" y="328.3545">Gesetze: MsbG</text><text fill="#000000" font-family="sans-serif" font-size="14" lengthAdjust="spacing" textLength="678.2275" x="1861.7" y="344.6514">Zusammenfassung: Beschreibe den Prozess der Abrechnung von Messstellenbetriebsleistungen.</text><line style="stroke:#181818;stroke-width:0.5;" x1="1856.7" x2="2544.9275" y1="351.9531" y2="351.9531"/></g><!--link IMD_00014 to IMD_00014_msg_1--><g class="link" data-entity-1="IMD_00014" data-entity-2="IMD_00014_msg_1" data-source-line="16" data-uid="lnk4" id="link_IMD_00014_IMD_00014_msg_1"><path codeLine="16" d="M989.86,128.0969 C869.39,153.7669 682.13,194.6969 520.81,234.4869 C514.89,235.9469 514.7186,235.9726 508.6786,237.4926" fill="none" id="IMD_00014-to-IMD_00014_msg_1" style="stroke:#181818;stroke-width:1;"/><polygon fill="#181818" points="502.86,238.9569,512.5641,240.6395,507.7088,237.7366,510.6117,232.8814,502.86,238.9569" style="stroke:#181818;stroke-width:1;"/><text fill="#000000" font-family="sans-serif" font-size="13" lengthAdjust="spacing" textLength="85.2363" x="717.81" y="200.5538">verwendet in</text></g><!--link IMD_00014 to IMD_00014_msg_2--><g class="link" data-entity-1="IMD_00014" data-entity-2="IMD_00014_msg_2" data-source-line="25" data-uid="lnk6" id="link_IMD_00014_IMD_00014_msg_2"><path codeLine="25" d="M1024.91,157.7669 C987.05,181.2969 947.5959,205.8196 907.2759,230.8796" fill="none" id="IMD_00014-to-IMD_00014_msg_2" style="stroke:#181818;stroke-width:1;"/><polygon fill="#181818" points="902.18,234.0469,911.9354,232.6933,906.4266,231.4075,907.7124,225.8987,902.18,234.0469" style="stroke:#181818;stroke-width:1;"/><text fill="#000000" font-family="sans-serif" font-size="13" lengthAdjust="spacing" textLength="85.2363" x="971.81" y="200.5538">verwendet in</text></g><!--link IMD_00014 to IMD_00014_proc_1--><g class="link" data-entity-1="IMD_00014" data-entity-2="IMD_00014_proc_1" data-source-line="31" data-uid="lnk8" id="link_IMD_00014_IMD_00014_proc_1"><path codeLine="31" d="M1204.98,157.7669 C1253.65,187.9169 1308.2295,221.747 1355.8795,251.267" fill="none" id="IMD_00014-to-IMD_00014_proc_1" style="stroke:#181818;stroke-width:1;stroke-dasharray:7,7;"/><polygon fill="#181818" points="1360.98,254.4269,1355.4358,246.2867,1356.7296,251.7937,1351.2226,253.0874,1360.98,254.4269" style="stroke:#181818;stroke-width:1;"/><text fill="#000000" font-family="sans-serif" font-size="13" lengthAdjust="spacing" textLength="91.6221" x="1280.81" y="200.5538">eingebettet in</text></g><!--link IMD_00014 to IMD_00014_proc_2--><g class="link" data-entity-1="IMD_00014" data-entity-2="IMD_00014_proc_2" data-source-line="37" data-uid="lnk10" id="link_IMD_00014_IMD_00014_proc_2"><path codeLine="37" d="M1239.83,124.2069 C1384.23,150.1069 1628.88,194.4169 1838.81,234.4869 C1872.01,240.8269 1901.0125,246.4406 1935.4825,253.2106" fill="none" id="IMD_00014-to-IMD_00014_proc_2" style="stroke:#181818;stroke-width:1;stroke-dasharray:7,7;"/><polygon fill="#181818" points="1941.37,254.3669,1933.3096,248.7074,1936.4637,253.4033,1931.7678,256.5574,1941.37,254.3669" style="stroke:#181818;stroke-width:1;"/><text fill="#000000" font-family="sans-serif" font-size="13" lengthAdjust="spacing" textLength="91.6221" x="1661.81" y="200.5538">eingebettet in</text></g><!--SRC=[pL9TRzD047plhzWVq5YsAGYiAWXQY298W285gI-MFyRnAVOwkbkta8h_pbvgsaBIXaVUzcP6jpDp9qOQq7acu4oQpD68fhFp90p3wEIeKC3vSxezqyqHqJnhaT05YffxNZhviLRmi-qsS0w9pgHNp24RxcNZ5Lbk1_50pbJf14q3pY7M87-e-VdtrhHropGQTXUrDKKj2KtdYq_JCug3bwKI7peMV5VuJW5sOlkLzDRRgngFLMXAbS2mOcTT2PVuDG_zF-By-81feY-zvtxxIcVJIUgzfUzHDx2hpbfuCsaSni_3w5aKhCjAizvtEngDTp8dT0Lx3IuXfARt5HC_KKpmtpQJQZE-YfFmHVJg7wg83rMnjbsXXPsU-a4DZSUtlJps3oTmIgchhsAxTlvkSJnCbmjbBtkNjIsuqYMgJ-YR0LKzhyHqR625IWNsNqwRQ-EA6hpbVICmEIprND97WmesOtdzHzuW6Ez6IKXVOmczG9w87Ez4FlGSTybdBf_io_eMQdzhcafDCNm0dIszkKzvrV6-LGsC4-N1mQ68yKx4Nm00]--></g></svg>