<svg xmlns="http://www.w3.org/2000/svg" xmlns:xlink="http://www.w3.org/1999/xlink" contentStyleType="text/css" data-diagram-type="CLASS" height="370px" preserveAspectRatio="none" style="width:1224px;height:370px;background:#FFFFFF;" version="1.1" viewBox="0 0 1224 370" width="1224px" zoomAndPan="magnify"><title>Datenatlas - INSRPT:0070</title><defs/><g><g class="title" data-source-line="1"><text fill="#000000" font-family="sans-serif" font-size="14" font-weight="bold" lengthAdjust="spacing" textLength="203.6631" x="503.5617" y="22.9951">Datenatlas - INSRPT:0070</text></g><!--class INSRPT_0070--><g class="entity" data-entity="INSRPT_0070" data-source-line="2" data-uid="ent0002" id="entity_INSRPT_0070"><rect fill="#F1F1F1" height="96.8906" rx="2.5" ry="2.5" style="stroke:#181818;stroke-width:0.5;" width="206.3457" x="426.29" y="44.2969"/><ellipse cx="478.7934" cy="60.2969" fill="#ADD1B2" rx="11" ry="11" style="stroke:#181818;stroke-width:1;"/><path d="M481.7622,65.9375 Q481.184,66.2344 480.5434,66.375 Q479.9028,66.5313 479.1997,66.5313 Q476.6997,66.5313 475.3715,64.8906 Q474.059,63.2344 474.059,60.1094 Q474.059,56.9844 475.3715,55.3281 Q476.6997,53.6719 479.1997,53.6719 Q479.9028,53.6719 480.5434,53.8281 Q481.1997,53.9844 481.7622,54.2813 L481.7622,57 Q481.1372,56.4219 480.5434,56.1563 Q479.9497,55.875 479.3247,55.875 Q477.9809,55.875 477.2934,56.9531 Q476.6059,58.0156 476.6059,60.1094 Q476.6059,62.2031 477.2934,63.2813 Q477.9809,64.3438 479.3247,64.3438 Q479.9497,64.3438 480.5434,64.0781 Q481.1372,63.7969 481.7622,63.2188 L481.7622,65.9375 Z " fill="#000000"/><text fill="#000000" font-family="sans-serif" font-size="14" lengthAdjust="spacing" textLength="92.8389" x="499.2934" y="65.1436">INSRPT_0070</text><line style="stroke:#181818;stroke-width:0.5;" x1="427.29" x2="631.6357" y1="76.2969" y2="76.2969"/><text fill="#000000" font-family="sans-serif" font-size="14" lengthAdjust="spacing" textLength="170.8027" x="446.29" y="93.292">Name: MP - ID Absender</text><text fill="#000000" font-family="sans-serif" font-size="14" lengthAdjust="spacing" textLength="66.6436" x="446.29" y="109.5889">Prozesse:</text><rect fill="none" height="6" style="stroke:#C82930;stroke-width:1;" width="6" x="434.29" y="119.5391"/><text fill="#000000" font-family="sans-serif" font-size="14" lengthAdjust="spacing" textLength="180.3457" x="446.29" y="125.8857">Netznutzungsabrechnung</text><line style="stroke:#181818;stroke-width:0.5;" x1="427.29" x2="631.6357" y1="133.1875" y2="133.1875"/></g><!--class INSRPT_0070_msg_1--><g class="entity" data-entity="INSRPT_0070_msg_1" data-source-line="7" data-uid="ent0003" id="entity_INSRPT_0070_msg_1"><rect fill="#F1F1F1" height="145.7813" rx="2.5" ry="2.5" style="stroke:#181818;stroke-width:0.5;" width="422.9219" x="7" y="218.1869"/><ellipse cx="141.4287" cy="234.1869" fill="#ADD1B2" rx="11" ry="11" style="stroke:#181818;stroke-width:1;"/><path d="M144.3975,239.8275 Q143.8193,240.1244 143.1787,240.265 Q142.5381,240.4213 141.835,240.4213 Q139.335,240.4213 138.0068,238.7806 Q136.6943,237.1244 136.6943,233.9994 Q136.6943,230.8744 138.0068,229.2181 Q139.335,227.5619 141.835,227.5619 Q142.5381,227.5619 143.1787,227.7181 Q143.835,227.8744 144.3975,228.1713 L144.3975,230.89 Q143.7725,230.3119 143.1787,230.0463 Q142.585,229.765 141.96,229.765 Q140.6162,229.765 139.9287,230.8431 Q139.2412,231.9056 139.2412,233.9994 Q139.2412,236.0931 139.9287,237.1713 Q140.6162,238.2338 141.96,238.2338 Q142.585,238.2338 143.1787,237.9681 Q143.7725,237.6869 144.3975,237.1088 L144.3975,239.8275 Z " fill="#000000"/><text fill="#000000" font-family="sans-serif" font-size="14" lengthAdjust="spacing" textLength="145.5645" x="161.9287" y="239.0336">INSRPT_0070_msg_1</text><line style="stroke:#181818;stroke-width:0.5;" x1="8" x2="428.9219" y1="250.1869" y2="250.1869"/><text fill="#000000" font-family="sans-serif" font-size="14" lengthAdjust="spacing" textLength="161.998" x="13" y="267.182">Nachricht: INSRPT 1.1a</text><text fill="#000000" font-family="sans-serif" font-size="14" lengthAdjust="spacing" textLength="170.3447" x="13" y="283.4789">Kontext: Segmentlayout</text><text fill="#000000" font-family="sans-serif" font-size="14" lengthAdjust="spacing" textLength="91.4033" x="13" y="299.7757">Pflichtfeld: Ja</text><text fill="#000000" font-family="sans-serif" font-size="14" lengthAdjust="spacing" textLength="196.8477" x="13" y="316.0726">Codes: 99, ID, MIG, MP, SG2</text><text fill="#000000" font-family="sans-serif" font-size="14" lengthAdjust="spacing" textLength="251.4395" x="13" y="332.3695">Prozesse: Netznutzungsabrechnung</text><text fill="#000000" font-family="sans-serif" font-size="14" lengthAdjust="spacing" textLength="410.9219" x="13" y="348.6664">Quelle: INSRPT_MIG_1_1a_au&#223;erordentliche_20240726.pdf</text><line style="stroke:#181818;stroke-width:0.5;" x1="8" x2="428.9219" y1="355.9681" y2="355.9681"/></g><!--class INSRPT_0070_proc_1--><g class="entity" data-entity="INSRPT_0070_proc_1" data-source-line="16" data-uid="ent0005" id="entity_INSRPT_0070_proc_1"><rect fill="#F1F1F1" height="105.1563" rx="2.5" ry="2.5" style="stroke:#181818;stroke-width:0.5;" width="752.6465" x="465.14" y="238.4969"/><ellipse cx="763.8876" cy="258.6297" fill="#ADD1B2" rx="11" ry="11" style="stroke:#181818;stroke-width:1;"/><path d="M766.8563,264.2703 Q766.2782,264.5672 765.6376,264.7078 Q764.9969,264.8641 764.2938,264.8641 Q761.7938,264.8641 760.4657,263.2234 Q759.1532,261.5672 759.1532,258.4422 Q759.1532,255.3172 760.4657,253.6609 Q761.7938,252.0047 764.2938,252.0047 Q764.9969,252.0047 765.6376,252.1609 Q766.2938,252.3172 766.8563,252.6141 L766.8563,255.3328 Q766.2313,254.7547 765.6376,254.4891 Q765.0438,254.2078 764.4188,254.2078 Q763.0751,254.2078 762.3876,255.2859 Q761.7001,256.3484 761.7001,258.4422 Q761.7001,260.5359 762.3876,261.6141 Q763.0751,262.6766 764.4188,262.6766 Q765.0438,262.6766 765.6376,262.4109 Q766.2313,262.1297 766.8563,261.5516 L766.8563,264.2703 Z " fill="#000000"/><text fill="#000000" font-family="sans-serif" font-size="12" font-style="italic" lengthAdjust="spacing" textLength="61.0605" x="827.183" y="254.6355">&#171;process&#187;</text><text fill="#000000" font-family="sans-serif" font-size="14" lengthAdjust="spacing" textLength="146.6514" x="784.3876" y="270.4607">INSRPT_0070_proc_1</text><line style="stroke:#181818;stroke-width:0.5;" x1="466.14" x2="1216.7865" y1="278.7625" y2="278.7625"/><text fill="#000000" font-family="sans-serif" font-size="14" lengthAdjust="spacing" textLength="180.3457" x="471.14" y="295.7576">Netznutzungsabrechnung</text><text fill="#000000" font-family="sans-serif" font-size="14" lengthAdjust="spacing" textLength="218.0938" x="471.14" y="312.0545">Gesetze: StromNEV, StromNZV</text><text fill="#000000" font-family="sans-serif" font-size="14" lengthAdjust="spacing" textLength="740.6465" x="471.14" y="328.3514">Zusammenfassung: Wie funktioniert die Netznutzungsabrechnung zwischen Netzbetreiber und Lieferant?</text><line style="stroke:#181818;stroke-width:0.5;" x1="466.14" x2="1216.7865" y1="335.6531" y2="335.6531"/></g><!--link INSRPT_0070 to INSRPT_0070_msg_1--><g class="link" data-entity-1="INSRPT_0070" data-entity-2="INSRPT_0070_msg_1" data-source-line="15" data-uid="lnk4" id="link_INSRPT_0070_INSRPT_0070_msg_1"><path codeLine="15" d="M453.78,141.5169 C417.46,164.4469 378.2438,189.2043 337.9238,214.6543" fill="none" id="INSRPT_0070-to-INSRPT_0070_msg_1" style="stroke:#181818;stroke-width:1;"/><polygon fill="#181818" points="332.85,217.8569,342.5958,216.4355,337.0782,215.1881,338.3256,209.6705,332.85,217.8569" style="stroke:#181818;stroke-width:1;"/><text fill="#000000" font-family="sans-serif" font-size="13" lengthAdjust="spacing" textLength="85.2363" x="403.46" y="184.2538">verwendet in</text></g><!--link INSRPT_0070 to INSRPT_0070_proc_1--><g class="link" data-entity-1="INSRPT_0070" data-entity-2="INSRPT_0070_proc_1" data-source-line="21" data-uid="lnk6" id="link_INSRPT_0070_INSRPT_0070_proc_1"><path codeLine="21" d="M605.39,141.5169 C651.83,170.7469 706.192,204.951 753.812,234.921" fill="none" id="INSRPT_0070-to-INSRPT_0070_proc_1" style="stroke:#181818;stroke-width:1;stroke-dasharray:7,7;"/><polygon fill="#181818" points="758.89,238.1169,753.4036,229.9377,754.6583,235.4536,749.1424,236.7084,758.89,238.1169" style="stroke:#181818;stroke-width:1;"/><text fill="#000000" font-family="sans-serif" font-size="13" lengthAdjust="spacing" textLength="91.6221" x="677.46" y="184.2538">eingebettet in</text></g><!--SRC=[TL3HIiD047plL-m7f249OkbH8cAbL6s8HYhq9LoIJNgONChTnMh4R_5Z_34tDKBHz6LPTeRPcJ72b0XpRb1oKt8DOrW6qKFuo1nduenIEkd-4dSNU1y11Bn21gkm8y_XCj4eCrG4XAfkKMjaj0EX0PfMDgPjPA5veZ3TIbf77_zruqeNiTkhfribqgrXFG5Ss-K4tDRIu2kT8omgb6JthMvCzpOlEtwEPSRWfgDUrHbg1jEfHGujM2qND48BeeLtRFEKGO3x1iiIVnt4912xiSjZtdnzegfLrlsdfnXxZdVcJBnpUvVbbEoug_7O7yZ8u0NLlglCW903LUnKdH9lDkiMykdxFxsSyhf0JH2PZOogg-1wRVNRPatefj6yehfoUaDy1ay28M_ain6r5AWCP7GO5eTsBpI5b0SyGQDG9AYWaHdS2SnHSMak_gIsRNye3WCKia0ICOVWtm00]--></g></svg>