<svg xmlns="http://www.w3.org/2000/svg" xmlns:xlink="http://www.w3.org/1999/xlink" contentStyleType="text/css" data-diagram-type="CLASS" height="370px" preserveAspectRatio="none" style="width:860px;height:370px;background:#FFFFFF;" version="1.1" viewBox="0 0 860 370" width="860px" zoomAndPan="magnify"><title>Datenatlas - KEIN SEGMENT:ZQ9</title><defs/><g><g class="title" data-source-line="1"><text fill="#000000" font-family="sans-serif" font-size="14" font-weight="bold" lengthAdjust="spacing" textLength="257.0039" x="294.7923" y="22.9951">Datenatlas - KEIN SEGMENT:ZQ9</text></g><!--class KEIN_SEGMENT_ZQ9--><g class="entity" data-entity="KEIN_SEGMENT_ZQ9" data-source-line="2" data-uid="ent0002" id="entity_KEIN_SEGMENT_ZQ9"><rect fill="#F1F1F1" height="96.8906" rx="2.5" ry="2.5" style="stroke:#181818;stroke-width:0.5;" width="440.4834" x="223.23" y="44.2969"/><ellipse cx="366.8838" cy="60.2969" fill="#ADD1B2" rx="11" ry="11" style="stroke:#181818;stroke-width:1;"/><path d="M369.8526,65.9375 Q369.2744,66.2344 368.6338,66.375 Q367.9932,66.5313 367.2901,66.5313 Q364.7901,66.5313 363.4619,64.8906 Q362.1494,63.2344 362.1494,60.1094 Q362.1494,56.9844 363.4619,55.3281 Q364.7901,53.6719 367.2901,53.6719 Q367.9932,53.6719 368.6338,53.8281 Q369.2901,53.9844 369.8526,54.2813 L369.8526,57 Q369.2276,56.4219 368.6338,56.1563 Q368.0401,55.875 367.4151,55.875 Q366.0713,55.875 365.3838,56.9531 Q364.6963,58.0156 364.6963,60.1094 Q364.6963,62.2031 365.3838,63.2813 Q366.0713,64.3438 367.4151,64.3438 Q368.0401,64.3438 368.6338,64.0781 Q369.2276,63.7969 369.8526,63.2188 L369.8526,65.9375 Z " fill="#000000"/><text fill="#000000" font-family="sans-serif" font-size="14" lengthAdjust="spacing" textLength="144.6758" x="387.3838" y="65.1436">KEIN_SEGMENT_ZQ9</text><line style="stroke:#181818;stroke-width:0.5;" x1="224.23" x2="662.7134" y1="76.2969" y2="76.2969"/><text fill="#000000" font-family="sans-serif" font-size="14" lengthAdjust="spacing" textLength="414.4834" x="243.23" y="93.292">Name: Verwendung von Werten des St&#246;rmengenz&#228;hlwerks</text><text fill="#000000" font-family="sans-serif" font-size="14" lengthAdjust="spacing" textLength="66.6436" x="243.23" y="109.5889">Prozesse:</text><rect fill="none" height="6" style="stroke:#C82930;stroke-width:1;" width="6" x="231.23" y="119.5391"/><text fill="#000000" font-family="sans-serif" font-size="14" lengthAdjust="spacing" textLength="334.3525" x="243.23" y="125.8857">Anforderung und &#220;bermittlung von Messwerten</text><line style="stroke:#181818;stroke-width:0.5;" x1="224.23" x2="662.7134" y1="133.1875" y2="133.1875"/></g><!--class KEIN_SEGMENT_ZQ9_msg_1--><g class="entity" data-entity="KEIN_SEGMENT_ZQ9_msg_1" data-source-line="7" data-uid="ent0003" id="entity_KEIN_SEGMENT_ZQ9_msg_1"><rect fill="#F1F1F1" height="145.7813" rx="2.5" ry="2.5" style="stroke:#181818;stroke-width:0.5;" width="432.9502" x="7" y="218.1869"/><ellipse cx="120.5244" cy="234.1869" fill="#ADD1B2" rx="11" ry="11" style="stroke:#181818;stroke-width:1;"/><path d="M123.4932,239.8275 Q122.915,240.1244 122.2744,240.265 Q121.6338,240.4213 120.9307,240.4213 Q118.4307,240.4213 117.1025,238.7806 Q115.79,237.1244 115.79,233.9994 Q115.79,230.8744 117.1025,229.2181 Q118.4307,227.5619 120.9307,227.5619 Q121.6338,227.5619 122.2744,227.7181 Q122.9307,227.8744 123.4932,228.1713 L123.4932,230.89 Q122.8682,230.3119 122.2744,230.0463 Q121.6807,229.765 121.0557,229.765 Q119.7119,229.765 119.0244,230.8431 Q118.3369,231.9056 118.3369,233.9994 Q118.3369,236.0931 119.0244,237.1713 Q119.7119,238.2338 121.0557,238.2338 Q121.6807,238.2338 122.2744,237.9681 Q122.8682,237.6869 123.4932,237.1088 L123.4932,239.8275 Z " fill="#000000"/><text fill="#000000" font-family="sans-serif" font-size="14" lengthAdjust="spacing" textLength="197.4014" x="141.0244" y="239.0336">KEIN_SEGMENT_ZQ9_msg_1</text><line style="stroke:#181818;stroke-width:0.5;" x1="8" x2="438.9502" y1="250.1869" y2="250.1869"/><text fill="#000000" font-family="sans-serif" font-size="14" lengthAdjust="spacing" textLength="172.0264" x="13" y="267.182">Nachricht: MSCONS 2.4c</text><text fill="#000000" font-family="sans-serif" font-size="14" lengthAdjust="spacing" textLength="272.0703" x="13" y="283.4789">Kontext: mittels Interpolation gebildet.</text><text fill="#000000" font-family="sans-serif" font-size="14" lengthAdjust="spacing" textLength="110.5439" x="13" y="299.7757">Pflichtfeld: Nein</text><text fill="#000000" font-family="sans-serif" font-size="14" lengthAdjust="spacing" textLength="193.6484" x="13" y="316.0726">Codes: ZQ8, ZQ9, ZR0, ZS0</text><text fill="#000000" font-family="sans-serif" font-size="14" lengthAdjust="spacing" textLength="405.4463" x="13" y="332.3695">Prozesse: Anforderung und &#220;bermittlung von Messwerten</text><text fill="#000000" font-family="sans-serif" font-size="14" lengthAdjust="spacing" textLength="420.9502" x="13" y="348.6664">Quelle: MSCONS_MIG_2_4c_au&#223;erordentliche_20240726.pdf</text><line style="stroke:#181818;stroke-width:0.5;" x1="8" x2="438.9502" y1="355.9681" y2="355.9681"/></g><!--class KEIN_SEGMENT_ZQ9_proc_1--><g class="entity" data-entity="KEIN_SEGMENT_ZQ9_proc_1" data-source-line="16" data-uid="ent0005" id="entity_KEIN_SEGMENT_ZQ9_proc_1"><rect fill="#F1F1F1" height="105.1563" rx="2.5" ry="2.5" style="stroke:#181818;stroke-width:0.5;" width="378.2285" x="475.36" y="238.4969"/><ellipse cx="560.9801" cy="258.6297" fill="#ADD1B2" rx="11" ry="11" style="stroke:#181818;stroke-width:1;"/><path d="M563.9489,264.2703 Q563.3707,264.5672 562.7301,264.7078 Q562.0895,264.8641 561.3864,264.8641 Q558.8864,264.8641 557.5582,263.2234 Q556.2457,261.5672 556.2457,258.4422 Q556.2457,255.3172 557.5582,253.6609 Q558.8864,252.0047 561.3864,252.0047 Q562.0895,252.0047 562.7301,252.1609 Q563.3864,252.3172 563.9489,252.6141 L563.9489,255.3328 Q563.3239,254.7547 562.7301,254.4891 Q562.1364,254.2078 561.5114,254.2078 Q560.1676,254.2078 559.4801,255.2859 Q558.7926,256.3484 558.7926,258.4422 Q558.7926,260.5359 559.4801,261.6141 Q560.1676,262.6766 561.5114,262.6766 Q562.1364,262.6766 562.7301,262.4109 Q563.3239,262.1297 563.9489,261.5516 L563.9489,264.2703 Z " fill="#000000"/><text fill="#000000" font-family="sans-serif" font-size="12" font-style="italic" lengthAdjust="spacing" textLength="61.0605" x="650.194" y="254.6355">&#171;process&#187;</text><text fill="#000000" font-family="sans-serif" font-size="14" lengthAdjust="spacing" textLength="198.4883" x="581.4801" y="270.4607">KEIN_SEGMENT_ZQ9_proc_1</text><line style="stroke:#181818;stroke-width:0.5;" x1="476.36" x2="852.5885" y1="278.7625" y2="278.7625"/><text fill="#000000" font-family="sans-serif" font-size="14" lengthAdjust="spacing" textLength="334.3525" x="481.36" y="295.7576">Anforderung und &#220;bermittlung von Messwerten</text><text fill="#000000" font-family="sans-serif" font-size="14" lengthAdjust="spacing" textLength="105.0957" x="481.36" y="312.0545">Gesetze: MsbG</text><line style="stroke:#181818;stroke-width:0.5;" x1="476.36" x2="852.5885" y1="319.3563" y2="319.3563"/><text fill="#000000" font-family="sans-serif" font-size="14" lengthAdjust="spacing" textLength="366.2285" x="481.36" y="336.3514">Zusammenfassung: Wie kann ein Marktpartner (z.B.</text></g><!--link KEIN_SEGMENT_ZQ9 to KEIN_SEGMENT_ZQ9_msg_1--><g class="link" data-entity-1="KEIN_SEGMENT_ZQ9" data-entity-2="KEIN_SEGMENT_ZQ9_msg_1" data-source-line="15" data-uid="lnk4" id="link_KEIN_SEGMENT_ZQ9_KEIN_SEGMENT_ZQ9_msg_1"><path codeLine="15" d="M389.94,141.5169 C364.25,164.4469 337.3967,188.412 308.8767,213.862" fill="none" id="KEIN_SEGMENT_ZQ9-to-KEIN_SEGMENT_ZQ9_msg_1" style="stroke:#181818;stroke-width:1;"/><polygon fill="#181818" points="304.4,217.8569,313.7783,214.8491,308.1306,214.5278,308.4519,208.8801,304.4,217.8569" style="stroke:#181818;stroke-width:1;"/><text fill="#000000" font-family="sans-serif" font-size="13" lengthAdjust="spacing" textLength="85.2363" x="354.48" y="184.2538">verwendet in</text></g><!--link KEIN_SEGMENT_ZQ9 to KEIN_SEGMENT_ZQ9_proc_1--><g class="link" data-entity-1="KEIN_SEGMENT_ZQ9" data-entity-2="KEIN_SEGMENT_ZQ9_proc_1" data-source-line="21" data-uid="lnk6" id="link_KEIN_SEGMENT_ZQ9_KEIN_SEGMENT_ZQ9_proc_1"><path codeLine="21" d="M497.26,141.5169 C530.22,170.8069 567.9343,204.3121 601.6943,234.3021" fill="none" id="KEIN_SEGMENT_ZQ9-to-KEIN_SEGMENT_ZQ9_proc_1" style="stroke:#181818;stroke-width:1;stroke-dasharray:7,7;"/><polygon fill="#181818" points="606.18,238.2869,602.108,229.3192,602.4419,234.9662,596.7949,235.3002,606.18,238.2869" style="stroke:#181818;stroke-width:1;"/><text fill="#000000" font-family="sans-serif" font-size="13" lengthAdjust="spacing" textLength="91.6221" x="547.48" y="184.2538">eingebettet in</text></g><!--SRC=[bLBHQi8m57ttA-xZ7cPnHROPHDYS595sSnqJV0cnlQt5D9KarU7Odmpsic_O3_XZkt4AWyq7Nox9INBkEUV65bOYt0cBIbWf33HXD1X640-2S10ziUcuqqW8DpkOxs5ECBms029H8eDdr6jKQQroM5KA9gY93b8q4DljbovHvQWssy-vNADU67hteAiD6eECra0zRrHMwHIrewXL2jlt6Ugoi5OUI4EwljuHDzwEAEAboVd5NbSorqKojmp2k7yVnU1xxOGEHfMo-4Am8qTfO4XxlQoai0LroN5Mo1IjvpHcqZ5aA5C64HQAi7v5hXXCnzVdL3fK7bjKujPlJwUv0HZNA2KUbF9m672VjnCkwkq7QiUah9E2t6_vxTQLV-ajqunY-3EIPhDtB1K6gvyfeGMoSYJ1fQuIkjpjkWLfxFLsSPveA423TkCScLb0-sbjH4c_8AEUz831f41O2AM0KeLGw8LT2cqLQZZRUBVUVzOyhtTKBdCyD3gaaJfttm00]--></g></svg>