<svg xmlns="http://www.w3.org/2000/svg" xmlns:xlink="http://www.w3.org/1999/xlink" contentStyleType="text/css" data-diagram-type="CLASS" height="370px" preserveAspectRatio="none" style="width:1231px;height:370px;background:#FFFFFF;" version="1.1" viewBox="0 0 1231 370" width="1231px" zoomAndPan="magnify"><title>Datenatlas - LF:E_1010</title><defs/><g><g class="title" data-source-line="1"><text fill="#000000" font-family="sans-serif" font-size="14" font-weight="bold" lengthAdjust="spacing" textLength="181.1113" x="518.0726" y="22.9951">Datenatlas - LF:E_1010</text></g><!--class LF_E_1010--><g class="entity" data-entity="LF_E_1010" data-source-line="2" data-uid="ent0002" id="entity_LF_E_1010"><rect fill="#F1F1F1" height="96.8906" rx="2.5" ry="2.5" style="stroke:#181818;stroke-width:0.5;" width="818.709" x="125.58" y="44.2969"/><ellipse cx="493.5209" cy="60.2969" fill="#ADD1B2" rx="11" ry="11" style="stroke:#181818;stroke-width:1;"/><path d="M496.4897,65.9375 Q495.9115,66.2344 495.2709,66.375 Q494.6303,66.5313 493.9272,66.5313 Q491.4272,66.5313 490.099,64.8906 Q488.7865,63.2344 488.7865,60.1094 Q488.7865,56.9844 490.099,55.3281 Q491.4272,53.6719 493.9272,53.6719 Q494.6303,53.6719 495.2709,53.8281 Q495.9272,53.9844 496.4897,54.2813 L496.4897,57 Q495.8647,56.4219 495.2709,56.1563 Q494.6772,55.875 494.0522,55.875 Q492.7084,55.875 492.0209,56.9531 Q491.3334,58.0156 491.3334,60.1094 Q491.3334,62.2031 492.0209,63.2813 Q492.7084,64.3438 494.0522,64.3438 Q494.6772,64.3438 495.2709,64.0781 Q495.8647,63.7969 496.4897,63.2188 L496.4897,65.9375 Z " fill="#000000"/><text fill="#000000" font-family="sans-serif" font-size="14" lengthAdjust="spacing" textLength="74.3271" x="514.0209" y="65.1436">LF_E_1010</text><line style="stroke:#181818;stroke-width:0.5;" x1="126.58" x2="943.289" y1="76.2969" y2="76.2969"/><text fill="#000000" font-family="sans-serif" font-size="14" lengthAdjust="spacing" textLength="66.6436" x="145.58" y="93.292">Prozesse:</text><rect fill="none" height="6" style="stroke:#C82930;stroke-width:1;" width="6" x="133.58" y="103.2422"/><text fill="#000000" font-family="sans-serif" font-size="14" lengthAdjust="spacing" textLength="180.3457" x="145.58" y="109.5889">Netznutzungsabrechnung</text><line style="stroke:#181818;stroke-width:0.5;" x1="126.58" x2="943.289" y1="116.8906" y2="116.8906"/><text fill="#000000" font-family="sans-serif" font-size="14" lengthAdjust="spacing" textLength="806.709" x="131.58" y="133.8857">Name: EBD Nr. E_1010_Pr&#252;fen, ob Antwort auf Stornierung erforderlich (Abrechnung einer sonstigen Leistung Gas)</text></g><!--class LF_E_1010_msg_1--><g class="entity" data-entity="LF_E_1010_msg_1" data-source-line="7" data-uid="ent0003" id="entity_LF_E_1010_msg_1"><rect fill="#F1F1F1" height="145.7813" rx="2.5" ry="2.5" style="stroke:#181818;stroke-width:0.5;" width="429.8672" x="7" y="218.1869"/><ellipse cx="154.1572" cy="234.1869" fill="#ADD1B2" rx="11" ry="11" style="stroke:#181818;stroke-width:1;"/><path d="M157.126,239.8275 Q156.5479,240.1244 155.9072,240.265 Q155.2666,240.4213 154.5635,240.4213 Q152.0635,240.4213 150.7354,238.7806 Q149.4229,237.1244 149.4229,233.9994 Q149.4229,230.8744 150.7354,229.2181 Q152.0635,227.5619 154.5635,227.5619 Q155.2666,227.5619 155.9072,227.7181 Q156.5635,227.8744 157.126,228.1713 L157.126,230.89 Q156.501,230.3119 155.9072,230.0463 Q155.3135,229.765 154.6885,229.765 Q153.3447,229.765 152.6572,230.8431 Q151.9697,231.9056 151.9697,233.9994 Q151.9697,236.0931 152.6572,237.1713 Q153.3447,238.2338 154.6885,238.2338 Q155.3135,238.2338 155.9072,237.9681 Q156.501,237.6869 157.126,237.1088 L157.126,239.8275 Z " fill="#000000"/><text fill="#000000" font-family="sans-serif" font-size="14" lengthAdjust="spacing" textLength="127.0527" x="174.6572" y="239.0336">LF_E_1010_msg_1</text><line style="stroke:#181818;stroke-width:0.5;" x1="8" x2="435.8672" y1="250.1869" y2="250.1869"/><text fill="#000000" font-family="sans-serif" font-size="14" lengthAdjust="spacing" textLength="171.4932" x="13" y="267.182">Nachricht: REMADV 2.9c</text><text fill="#000000" font-family="sans-serif" font-size="14" lengthAdjust="spacing" textLength="170.3447" x="13" y="283.4789">Kontext: Segmentlayout</text><text fill="#000000" font-family="sans-serif" font-size="14" lengthAdjust="spacing" textLength="91.4033" x="13" y="299.7757">Pflichtfeld: Ja</text><text fill="#000000" font-family="sans-serif" font-size="14" lengthAdjust="spacing" textLength="345.4268" x="13" y="316.0726">Codes: EBD, ESA, ID, LF, MGV, MSB, NB, NN, OCR</text><text fill="#000000" font-family="sans-serif" font-size="14" lengthAdjust="spacing" textLength="251.4395" x="13" y="332.3695">Prozesse: Netznutzungsabrechnung</text><text fill="#000000" font-family="sans-serif" font-size="14" lengthAdjust="spacing" textLength="417.8672" x="13" y="348.6664">Quelle: REMADV_MIG_2.9c_au&#223;erordentliche_20240726.pdf</text><line style="stroke:#181818;stroke-width:0.5;" x1="8" x2="435.8672" y1="355.9681" y2="355.9681"/></g><!--class LF_E_1010_proc_1--><g class="entity" data-entity="LF_E_1010_proc_1" data-source-line="16" data-uid="ent0005" id="entity_LF_E_1010_proc_1"><rect fill="#F1F1F1" height="105.1563" rx="2.5" ry="2.5" style="stroke:#181818;stroke-width:0.5;" width="752.6465" x="471.61" y="238.4969"/><ellipse cx="779.6134" cy="258.6297" fill="#ADD1B2" rx="11" ry="11" style="stroke:#181818;stroke-width:1;"/><path d="M782.5822,264.2703 Q782.004,264.5672 781.3634,264.7078 Q780.7228,264.8641 780.0197,264.8641 Q777.5197,264.8641 776.1915,263.2234 Q774.879,261.5672 774.879,258.4422 Q774.879,255.3172 776.1915,253.6609 Q777.5197,252.0047 780.0197,252.0047 Q780.7228,252.0047 781.3634,252.1609 Q782.0197,252.3172 782.5822,252.6141 L782.5822,255.3328 Q781.9572,254.7547 781.3634,254.4891 Q780.7697,254.2078 780.1447,254.2078 Q778.8009,254.2078 778.1134,255.2859 Q777.4259,256.3484 777.4259,258.4422 Q777.4259,260.5359 778.1134,261.6141 Q778.8009,262.6766 780.1447,262.6766 Q780.7697,262.6766 781.3634,262.4109 Q781.9572,262.1297 782.5822,261.5516 L782.5822,264.2703 Z " fill="#000000"/><text fill="#000000" font-family="sans-serif" font-size="12" font-style="italic" lengthAdjust="spacing" textLength="61.0605" x="833.653" y="254.6355">&#171;process&#187;</text><text fill="#000000" font-family="sans-serif" font-size="14" lengthAdjust="spacing" textLength="128.1396" x="800.1134" y="270.4607">LF_E_1010_proc_1</text><line style="stroke:#181818;stroke-width:0.5;" x1="472.61" x2="1223.2565" y1="278.7625" y2="278.7625"/><text fill="#000000" font-family="sans-serif" font-size="14" lengthAdjust="spacing" textLength="180.3457" x="477.61" y="295.7576">Netznutzungsabrechnung</text><text fill="#000000" font-family="sans-serif" font-size="14" lengthAdjust="spacing" textLength="218.0938" x="477.61" y="312.0545">Gesetze: StromNEV, StromNZV</text><text fill="#000000" font-family="sans-serif" font-size="14" lengthAdjust="spacing" textLength="740.6465" x="477.61" y="328.3514">Zusammenfassung: Wie funktioniert die Netznutzungsabrechnung zwischen Netzbetreiber und Lieferant?</text><line style="stroke:#181818;stroke-width:0.5;" x1="472.61" x2="1223.2565" y1="335.6531" y2="335.6531"/></g><!--link LF_E_1010 to LF_E_1010_msg_1--><g class="link" data-entity-1="LF_E_1010" data-entity-2="LF_E_1010_msg_1" data-source-line="15" data-uid="lnk4" id="link_LF_E_1010_LF_E_1010_msg_1"><path codeLine="15" d="M458.77,141.5169 C422.21,164.4469 382.7231,189.219 342.1431,214.669" fill="none" id="LF_E_1010-to-LF_E_1010_msg_1" style="stroke:#181818;stroke-width:1;"/><polygon fill="#181818" points="337.06,217.8569,346.8098,216.4638,341.2959,215.2003,342.5593,209.6864,337.06,217.8569" style="stroke:#181818;stroke-width:1;"/><text fill="#000000" font-family="sans-serif" font-size="13" lengthAdjust="spacing" textLength="85.2363" x="407.93" y="184.2538">verwendet in</text></g><!--link LF_E_1010 to LF_E_1010_proc_1--><g class="link" data-entity-1="LF_E_1010" data-entity-2="LF_E_1010_proc_1" data-source-line="21" data-uid="lnk6" id="link_LF_E_1010_LF_E_1010_proc_1"><path codeLine="21" d="M611.1,141.5169 C657.7,170.7469 712.2475,204.9582 760.0175,234.9282" fill="none" id="LF_E_1010-to-LF_E_1010_proc_1" style="stroke:#181818;stroke-width:1;stroke-dasharray:7,7;"/><polygon fill="#181818" points="765.1,238.1169,759.602,229.9455,760.8645,235.4596,755.3504,236.7222,765.1,238.1169" style="stroke:#181818;stroke-width:1;"/><text fill="#000000" font-family="sans-serif" font-size="13" lengthAdjust="spacing" textLength="91.6221" x="683.93" y="184.2538">eingebettet in</text></g><!--SRC=[TPBFRjim3CRlUGeUDy0nac3OCAF8a3Pkq2tnkXh8W5u4nQOSOJPLIFIofTYpx4LswukDIlO_wy46nOyWVnybjjmYp3KZQMvrW24iBxDSZKVZqQ2IH92pEfxXVW1Gw0upoC_dKFWKZeAwzW_V3582RWCpuftp3BetKBBpPD7tr01wutoDlhNL5fxCDXwhBHq4I-WXE0fi6oHOeWqSXOKEJsNYjNTx304pYK7u2kGzzRoNag1_jHby-HTNTQ5Hun_GrTRBNCxW9b_DvckOf2yh4TuuOlmawHAR3aasyDdr78UQoCa6spg3rreo5wx6S72UG5xE4hYIO7cPm6gnbbzvda0HloA1jnStVt8_HWpmhiUsnPzGQdMrK15CwVxXA_guBa4I3bIJqUJPwCNaUNfN6x7w-qw6m-c9vGm-ejyXrSXWwMGlTzvLKdLs5WCXd4wFItgCSe519C4isRkkoCNkCRfTYthR1zt9xemCaVeCtbi4qzC7jYxUFKCjYVytX_tE1h571ts3xD5kv37qLCFIea6lYL_zvJTDfwTMilY86fG6VB3y7G00]--></g></svg>