<svg xmlns="http://www.w3.org/2000/svg" xmlns:xlink="http://www.w3.org/1999/xlink" contentStyleType="text/css" data-diagram-type="CLASS" height="370px" preserveAspectRatio="none" style="width:1300px;height:370px;background:#FFFFFF;" version="1.1" viewBox="0 0 1300 370" width="1300px" zoomAndPan="magnify"><title>Datenatlas - LF:G_0080</title><defs/><g><g class="title" data-source-line="1"><text fill="#000000" font-family="sans-serif" font-size="14" font-weight="bold" lengthAdjust="spacing" textLength="183.0391" x="551.5337" y="22.9951">Datenatlas - LF:G_0080</text></g><!--class LF_G_0080--><g class="entity" data-entity="LF_G_0080" data-source-line="2" data-uid="ent0002" id="entity_LF_G_0080"><rect fill="#F1F1F1" height="96.8906" rx="2.5" ry="2.5" style="stroke:#181818;stroke-width:0.5;" width="1193.5713" x="7" y="44.2969"/><ellipse cx="561.3706" cy="60.2969" fill="#ADD1B2" rx="11" ry="11" style="stroke:#181818;stroke-width:1;"/><path d="M564.3394,65.9375 Q563.7612,66.2344 563.1206,66.375 Q562.48,66.5313 561.7769,66.5313 Q559.2769,66.5313 557.9487,64.8906 Q556.6362,63.2344 556.6362,60.1094 Q556.6362,56.9844 557.9487,55.3281 Q559.2769,53.6719 561.7769,53.6719 Q562.48,53.6719 563.1206,53.8281 Q563.7769,53.9844 564.3394,54.2813 L564.3394,57 Q563.7144,56.4219 563.1206,56.1563 Q562.5269,55.875 561.9019,55.875 Q560.5581,55.875 559.8706,56.9531 Q559.1831,58.0156 559.1831,60.1094 Q559.1831,62.2031 559.8706,63.2813 Q560.5581,64.3438 561.9019,64.3438 Q562.5269,64.3438 563.1206,64.0781 Q563.7144,63.7969 564.3394,63.2188 L564.3394,65.9375 Z " fill="#000000"/><text fill="#000000" font-family="sans-serif" font-size="14" lengthAdjust="spacing" textLength="76.3301" x="581.8706" y="65.1436">LF_G_0080</text><line style="stroke:#181818;stroke-width:0.5;" x1="8" x2="1199.5713" y1="76.2969" y2="76.2969"/><text fill="#000000" font-family="sans-serif" font-size="14" lengthAdjust="spacing" textLength="66.6436" x="27" y="93.292">Prozesse:</text><rect fill="none" height="6" style="stroke:#C82930;stroke-width:1;" width="6" x="15" y="103.2422"/><text fill="#000000" font-family="sans-serif" font-size="14" lengthAdjust="spacing" textLength="180.3457" x="27" y="109.5889">Netznutzungsabrechnung</text><line style="stroke:#181818;stroke-width:0.5;" x1="8" x2="1199.5713" y1="116.8906" y2="116.8906"/><text fill="#000000" font-family="sans-serif" font-size="14" lengthAdjust="spacing" textLength="1181.5713" x="13" y="133.8857">Name: Codeliste Gas Nr. G_0080 Codeliste f&#252;r die Pr&#252;fung der aggregierten Menge und des Abrechnungszeitraums zwischen NB und MGV (entspricht dem EBD E_0802)</text></g><!--class LF_G_0080_msg_1--><g class="entity" data-entity="LF_G_0080_msg_1" data-source-line="7" data-uid="ent0003" id="entity_LF_G_0080_msg_1"><rect fill="#F1F1F1" height="145.7813" rx="2.5" ry="2.5" style="stroke:#181818;stroke-width:0.5;" width="429.8672" x="75.85" y="218.1869"/><ellipse cx="222.0058" cy="234.1869" fill="#ADD1B2" rx="11" ry="11" style="stroke:#181818;stroke-width:1;"/><path d="M224.9745,239.8275 Q224.3964,240.1244 223.7558,240.265 Q223.1151,240.4213 222.412,240.4213 Q219.912,240.4213 218.5839,238.7806 Q217.2714,237.1244 217.2714,233.9994 Q217.2714,230.8744 218.5839,229.2181 Q219.912,227.5619 222.412,227.5619 Q223.1151,227.5619 223.7558,227.7181 Q224.412,227.8744 224.9745,228.1713 L224.9745,230.89 Q224.3495,230.3119 223.7558,230.0463 Q223.162,229.765 222.537,229.765 Q221.1933,229.765 220.5058,230.8431 Q219.8183,231.9056 219.8183,233.9994 Q219.8183,236.0931 220.5058,237.1713 Q221.1933,238.2338 222.537,238.2338 Q223.162,238.2338 223.7558,237.9681 Q224.3495,237.6869 224.9745,237.1088 L224.9745,239.8275 Z " fill="#000000"/><text fill="#000000" font-family="sans-serif" font-size="14" lengthAdjust="spacing" textLength="129.0557" x="242.5058" y="239.0336">LF_G_0080_msg_1</text><line style="stroke:#181818;stroke-width:0.5;" x1="76.85" x2="504.7172" y1="250.1869" y2="250.1869"/><text fill="#000000" font-family="sans-serif" font-size="14" lengthAdjust="spacing" textLength="171.4932" x="81.85" y="267.182">Nachricht: REMADV 2.9c</text><text fill="#000000" font-family="sans-serif" font-size="14" lengthAdjust="spacing" textLength="170.3447" x="81.85" y="283.4789">Kontext: Segmentlayout</text><text fill="#000000" font-family="sans-serif" font-size="14" lengthAdjust="spacing" textLength="91.4033" x="81.85" y="299.7757">Pflichtfeld: Ja</text><text fill="#000000" font-family="sans-serif" font-size="14" lengthAdjust="spacing" textLength="345.4268" x="81.85" y="316.0726">Codes: EBD, ESA, ID, LF, MGV, MSB, NB, NN, OCR</text><text fill="#000000" font-family="sans-serif" font-size="14" lengthAdjust="spacing" textLength="251.4395" x="81.85" y="332.3695">Prozesse: Netznutzungsabrechnung</text><text fill="#000000" font-family="sans-serif" font-size="14" lengthAdjust="spacing" textLength="417.8672" x="81.85" y="348.6664">Quelle: REMADV_MIG_2.9c_au&#223;erordentliche_20240726.pdf</text><line style="stroke:#181818;stroke-width:0.5;" x1="76.85" x2="504.7172" y1="355.9681" y2="355.9681"/></g><!--class LF_G_0080_proc_1--><g class="entity" data-entity="LF_G_0080_proc_1" data-source-line="16" data-uid="ent0005" id="entity_LF_G_0080_proc_1"><rect fill="#F1F1F1" height="105.1563" rx="2.5" ry="2.5" style="stroke:#181818;stroke-width:0.5;" width="752.6465" x="540.46" y="238.4969"/><ellipse cx="847.462" cy="258.6297" fill="#ADD1B2" rx="11" ry="11" style="stroke:#181818;stroke-width:1;"/><path d="M850.4307,264.2703 Q849.8526,264.5672 849.212,264.7078 Q848.5713,264.8641 847.8682,264.8641 Q845.3682,264.8641 844.0401,263.2234 Q842.7276,261.5672 842.7276,258.4422 Q842.7276,255.3172 844.0401,253.6609 Q845.3682,252.0047 847.8682,252.0047 Q848.5713,252.0047 849.212,252.1609 Q849.8682,252.3172 850.4307,252.6141 L850.4307,255.3328 Q849.8057,254.7547 849.212,254.4891 Q848.6182,254.2078 847.9932,254.2078 Q846.6495,254.2078 845.962,255.2859 Q845.2745,256.3484 845.2745,258.4422 Q845.2745,260.5359 845.962,261.6141 Q846.6495,262.6766 847.9932,262.6766 Q848.6182,262.6766 849.212,262.4109 Q849.8057,262.1297 850.4307,261.5516 L850.4307,264.2703 Z " fill="#000000"/><text fill="#000000" font-family="sans-serif" font-size="12" font-style="italic" lengthAdjust="spacing" textLength="61.0605" x="902.503" y="254.6355">&#171;process&#187;</text><text fill="#000000" font-family="sans-serif" font-size="14" lengthAdjust="spacing" textLength="130.1426" x="867.962" y="270.4607">LF_G_0080_proc_1</text><line style="stroke:#181818;stroke-width:0.5;" x1="541.46" x2="1292.1065" y1="278.7625" y2="278.7625"/><text fill="#000000" font-family="sans-serif" font-size="14" lengthAdjust="spacing" textLength="180.3457" x="546.46" y="295.7576">Netznutzungsabrechnung</text><text fill="#000000" font-family="sans-serif" font-size="14" lengthAdjust="spacing" textLength="218.0938" x="546.46" y="312.0545">Gesetze: StromNEV, StromNZV</text><text fill="#000000" font-family="sans-serif" font-size="14" lengthAdjust="spacing" textLength="740.6465" x="546.46" y="328.3514">Zusammenfassung: Wie funktioniert die Netznutzungsabrechnung zwischen Netzbetreiber und Lieferant?</text><line style="stroke:#181818;stroke-width:0.5;" x1="541.46" x2="1292.1065" y1="335.6531" y2="335.6531"/></g><!--link LF_G_0080 to LF_G_0080_msg_1--><g class="link" data-entity-1="LF_G_0080" data-entity-2="LF_G_0080_msg_1" data-source-line="15" data-uid="lnk4" id="link_LF_G_0080_LF_G_0080_msg_1"><path codeLine="15" d="M527.62,141.5169 C491.06,164.4469 451.5731,189.219 410.9931,214.669" fill="none" id="LF_G_0080-to-LF_G_0080_msg_1" style="stroke:#181818;stroke-width:1;"/><polygon fill="#181818" points="405.91,217.8569,415.6598,216.4638,410.1459,215.2003,411.4093,209.6864,405.91,217.8569" style="stroke:#181818;stroke-width:1;"/><text fill="#000000" font-family="sans-serif" font-size="13" lengthAdjust="spacing" textLength="85.2363" x="476.79" y="184.2538">verwendet in</text></g><!--link LF_G_0080 to LF_G_0080_proc_1--><g class="link" data-entity-1="LF_G_0080" data-entity-2="LF_G_0080_proc_1" data-source-line="21" data-uid="lnk6" id="link_LF_G_0080_LF_G_0080_proc_1"><path codeLine="21" d="M679.95,141.5169 C726.55,170.7469 781.0975,204.9582 828.8675,234.9282" fill="none" id="LF_G_0080-to-LF_G_0080_proc_1" style="stroke:#181818;stroke-width:1;stroke-dasharray:7,7;"/><polygon fill="#181818" points="833.95,238.1169,828.452,229.9455,829.7145,235.4596,824.2004,236.7222,833.95,238.1169" style="stroke:#181818;stroke-width:1;"/><text fill="#000000" font-family="sans-serif" font-size="13" lengthAdjust="spacing" textLength="91.6221" x="752.79" y="184.2538">eingebettet in</text></g><!--SRC=[TLBBRjim4BpxA_RO0BAW24KVGk32ZXKXhQqcCU02kGYqj9A9IfH1KasZ8D_I7ydDFvQXdJPftHn4B7U7kpEhiTBMJ5DXMGbR2qD3cfr5IHO47u91ZeJ1FTlVwMv0b8g68pfj2wwbiKm9tgJQfoV8Sw7SFcWg9DE5tZwKdQgeO4sYgZHNaZK6qfnLnTIf0YL3uvNcVAs0D3rBgqNN6EflfCdNmAQJ7N2UBEaDAsisMkPhYuSDnPCfnHccXqSWUA7RdetX2351JigsLvtjNL_nPyJW_bzrMMEgxFX9OxxUjO_eAfwFfqiA_Oyv2bzQPVadqWkk6h2enMtRMJUqh1s-vBg8wBD0nYt2H8wRH_5YxD4vWjcPvnJWM4myICANUlJrzEebxzSO4rrsNDVycrGsFqyoHomJtVONwrONZX9uS1O6uTlWVVZEtnGbf3x_mk5mT20veX-iRrWLR4cgWxriT9i3TNBY0Z0SZVPBUerbmWObq5nOtJPf3Bdxw7g9wdLdH8FTbHW2V4JVO17OuxkLhNA-s7dc_yrVk07r5LlDSWLJEMFC99UiXRAV_jBh-wD3AH6nXFFGmEuaFm80]--></g></svg>