<svg xmlns="http://www.w3.org/2000/svg" xmlns:xlink="http://www.w3.org/1999/xlink" contentStyleType="text/css" data-diagram-type="CLASS" height="419px" preserveAspectRatio="none" style="width:5902px;height:419px;background:#FFFFFF;" version="1.1" viewBox="0 0 5902 419" width="5902px" zoomAndPan="magnify"><title>Datenatlas - LIN:C212</title><defs/><g><g class="title" data-source-line="1"><text fill="#000000" font-family="sans-serif" font-size="14" font-weight="bold" lengthAdjust="spacing" textLength="172.4434" x="2858.1829" y="22.9951">Datenatlas - LIN:C212</text></g><!--class LIN_C212--><g class="entity" data-entity="LIN_C212" data-source-line="2" data-uid="ent0002" id="entity_LIN_C212"><rect fill="#F1F1F1" height="145.7813" rx="2.5" ry="2.5" style="stroke:#181818;stroke-width:0.5;" width="374.2021" x="1986.71" y="44.2969"/><ellipse cx="2136.6119" cy="60.2969" fill="#ADD1B2" rx="11" ry="11" style="stroke:#181818;stroke-width:1;"/><path d="M2139.5806,65.9375 Q2139.0025,66.2344 2138.3619,66.375 Q2137.7212,66.5313 2137.0181,66.5313 Q2134.5181,66.5313 2133.19,64.8906 Q2131.8775,63.2344 2131.8775,60.1094 Q2131.8775,56.9844 2133.19,55.3281 Q2134.5181,53.6719 2137.0181,53.6719 Q2137.7212,53.6719 2138.3619,53.8281 Q2139.0181,53.9844 2139.5806,54.2813 L2139.5806,57 Q2138.9556,56.4219 2138.3619,56.1563 Q2137.7681,55.875 2137.1431,55.875 Q2135.7994,55.875 2135.1119,56.9531 Q2134.4244,58.0156 2134.4244,60.1094 Q2134.4244,62.2031 2135.1119,63.2813 Q2135.7994,64.3438 2137.1431,64.3438 Q2137.7681,64.3438 2138.3619,64.0781 Q2138.9556,63.7969 2139.5806,63.2188 L2139.5806,65.9375 Z " fill="#000000"/><text fill="#000000" font-family="sans-serif" font-size="14" lengthAdjust="spacing" textLength="65.8984" x="2157.1119" y="65.1436">LIN_C212</text><line style="stroke:#181818;stroke-width:0.5;" x1="1987.71" x2="2359.9121" y1="76.2969" y2="76.2969"/><text fill="#000000" font-family="sans-serif" font-size="14" lengthAdjust="spacing" textLength="333.4092" x="2006.71" y="93.292">Name: Waren-/Leistungsnummer, Identifikation</text><text fill="#000000" font-family="sans-serif" font-size="14" lengthAdjust="spacing" textLength="66.6436" x="2006.71" y="109.5889">Prozesse:</text><rect fill="none" height="6" style="stroke:#C82930;stroke-width:1;" width="6" x="1994.71" y="119.5391"/><text fill="#000000" font-family="sans-serif" font-size="14" lengthAdjust="spacing" textLength="180.3457" x="2006.71" y="125.8857">Netznutzungsabrechnung</text><rect fill="none" height="6" style="stroke:#C82930;stroke-width:1;" width="6" x="1994.71" y="135.8359"/><text fill="#000000" font-family="sans-serif" font-size="14" lengthAdjust="spacing" textLength="223.2822" x="2006.71" y="142.1826">Messstellenbetriebsabrechnung</text><rect fill="none" height="6" style="stroke:#C82930;stroke-width:1;" width="6" x="1994.71" y="152.1328"/><text fill="#000000" font-family="sans-serif" font-size="14" lengthAdjust="spacing" textLength="317.9668" x="2006.71" y="158.4795">Sperrung und Entsperrung eines Anschlusses</text><line style="stroke:#181818;stroke-width:0.5;" x1="1987.71" x2="2359.9121" y1="165.7813" y2="165.7813"/><rect fill="#F24D5C" height="6" style="stroke:#C82930;stroke-width:1;" width="6" x="1994.71" y="176.4297"/><text fill="#000000" font-family="sans-serif" font-size="14" lengthAdjust="spacing" textLength="348.2021" x="2006.71" y="182.7764">Bestellung einer technischen Konfiguration (MSB)</text></g><!--class LIN_C212_msg_1--><g class="entity" data-entity="LIN_C212_msg_1" data-source-line="10" data-uid="ent0003" id="entity_LIN_C212_msg_1"><rect fill="#F1F1F1" height="145.7813" rx="2.5" ry="2.5" style="stroke:#181818;stroke-width:0.5;" width="495.6221" x="7" y="267.0769"/><ellipse cx="191.249" cy="283.0769" fill="#ADD1B2" rx="11" ry="11" style="stroke:#181818;stroke-width:1;"/><path d="M194.2178,288.7175 Q193.6396,289.0144 192.999,289.155 Q192.3584,289.3113 191.6553,289.3113 Q189.1553,289.3113 187.8271,287.6706 Q186.5146,286.0144 186.5146,282.8894 Q186.5146,279.7644 187.8271,278.1081 Q189.1553,276.4519 191.6553,276.4519 Q192.3584,276.4519 192.999,276.6081 Q193.6553,276.7644 194.2178,277.0613 L194.2178,279.78 Q193.5928,279.2019 192.999,278.9363 Q192.4053,278.655 191.7803,278.655 Q190.4365,278.655 189.749,279.7331 Q189.0615,280.7956 189.0615,282.8894 Q189.0615,284.9831 189.749,286.0613 Q190.4365,287.1238 191.7803,287.1238 Q192.4053,287.1238 192.999,286.8581 Q193.5928,286.5769 194.2178,285.9988 L194.2178,288.7175 Z " fill="#000000"/><text fill="#000000" font-family="sans-serif" font-size="14" lengthAdjust="spacing" textLength="118.624" x="211.749" y="287.9236">LIN_C212_msg_1</text><line style="stroke:#181818;stroke-width:0.5;" x1="8" x2="501.6221" y1="299.0769" y2="299.0769"/><text fill="#000000" font-family="sans-serif" font-size="14" lengthAdjust="spacing" textLength="161.1982" x="13" y="316.072">Nachricht: INVOIC 2.8d</text><text fill="#000000" font-family="sans-serif" font-size="14" lengthAdjust="spacing" textLength="123.0605" x="13" y="332.3689">Kontext: Beispiel:</text><text fill="#000000" font-family="sans-serif" font-size="14" lengthAdjust="spacing" textLength="91.4033" x="13" y="348.6657">Pflichtfeld: Ja</text><text fill="#000000" font-family="sans-serif" font-size="14" lengthAdjust="spacing" textLength="237.2617" x="13" y="364.9626">Codes: 35, ID, LIN, OCR, Z01, Z09</text><text fill="#000000" font-family="sans-serif" font-size="14" lengthAdjust="spacing" textLength="483.6221" x="13" y="381.2595">Prozesse: Netznutzungsabrechnung, Messstellenbetriebsabrechnung</text><text fill="#000000" font-family="sans-serif" font-size="14" lengthAdjust="spacing" textLength="396.6074" x="13" y="397.5564">Quelle: INVOIC_MIG_2.8d_Fehlerkorrektur_20250131.pdf</text><line style="stroke:#181818;stroke-width:0.5;" x1="8" x2="501.6221" y1="404.8581" y2="404.8581"/></g><!--class LIN_C212_msg_2--><g class="entity" data-entity="LIN_C212_msg_2" data-source-line="19" data-uid="ent0005" id="entity_LIN_C212_msg_2"><rect fill="#F1F1F1" height="145.7813" rx="2.5" ry="2.5" style="stroke:#181818;stroke-width:0.5;" width="495.6221" x="538" y="267.0769"/><ellipse cx="722.249" cy="283.0769" fill="#ADD1B2" rx="11" ry="11" style="stroke:#181818;stroke-width:1;"/><path d="M725.2178,288.7175 Q724.6396,289.0144 723.999,289.155 Q723.3584,289.3113 722.6553,289.3113 Q720.1553,289.3113 718.8271,287.6706 Q717.5146,286.0144 717.5146,282.8894 Q717.5146,279.7644 718.8271,278.1081 Q720.1553,276.4519 722.6553,276.4519 Q723.3584,276.4519 723.999,276.6081 Q724.6553,276.7644 725.2178,277.0613 L725.2178,279.78 Q724.5928,279.2019 723.999,278.9363 Q723.4053,278.655 722.7803,278.655 Q721.4365,278.655 720.749,279.7331 Q720.0615,280.7956 720.0615,282.8894 Q720.0615,284.9831 720.749,286.0613 Q721.4365,287.1238 722.7803,287.1238 Q723.4053,287.1238 723.999,286.8581 Q724.5928,286.5769 725.2178,285.9988 L725.2178,288.7175 Z " fill="#000000"/><text fill="#000000" font-family="sans-serif" font-size="14" lengthAdjust="spacing" textLength="118.624" x="742.749" y="287.9236">LIN_C212_msg_2</text><line style="stroke:#181818;stroke-width:0.5;" x1="539" x2="1032.6221" y1="299.0769" y2="299.0769"/><text fill="#000000" font-family="sans-serif" font-size="14" lengthAdjust="spacing" textLength="165.6484" x="544" y="316.072">Nachricht: INVOIC 2.8d.</text><text fill="#000000" font-family="sans-serif" font-size="14" lengthAdjust="spacing" textLength="170.3447" x="544" y="332.3689">Kontext: Segmentlayout</text><text fill="#000000" font-family="sans-serif" font-size="14" lengthAdjust="spacing" textLength="91.4033" x="544" y="348.6657">Pflichtfeld: Ja</text><text fill="#000000" font-family="sans-serif" font-size="14" lengthAdjust="spacing" textLength="197.8389" x="544" y="364.9626">Codes: 35, ID, LIN, Z01, Z09</text><text fill="#000000" font-family="sans-serif" font-size="14" lengthAdjust="spacing" textLength="483.6221" x="544" y="381.2595">Prozesse: Netznutzungsabrechnung, Messstellenbetriebsabrechnung</text><text fill="#000000" font-family="sans-serif" font-size="14" lengthAdjust="spacing" textLength="290.3359" x="544" y="397.5564">Quelle: INVOIC_MIG_2_8d__20240619.pdf</text><line style="stroke:#181818;stroke-width:0.5;" x1="539" x2="1032.6221" y1="404.8581" y2="404.8581"/></g><!--class LIN_C212_msg_3--><g class="entity" data-entity="LIN_C212_msg_3" data-source-line="28" data-uid="ent0007" id="entity_LIN_C212_msg_3"><rect fill="#F1F1F1" height="145.7813" rx="2.5" ry="2.5" style="stroke:#181818;stroke-width:0.5;" width="296.4365" x="1068.59" y="267.0769"/><ellipse cx="1153.2463" cy="283.0769" fill="#ADD1B2" rx="11" ry="11" style="stroke:#181818;stroke-width:1;"/><path d="M1156.215,288.7175 Q1155.6369,289.0144 1154.9963,289.155 Q1154.3556,289.3113 1153.6525,289.3113 Q1151.1525,289.3113 1149.8244,287.6706 Q1148.5119,286.0144 1148.5119,282.8894 Q1148.5119,279.7644 1149.8244,278.1081 Q1151.1525,276.4519 1153.6525,276.4519 Q1154.3556,276.4519 1154.9963,276.6081 Q1155.6525,276.7644 1156.215,277.0613 L1156.215,279.78 Q1155.59,279.2019 1154.9963,278.9363 Q1154.4025,278.655 1153.7775,278.655 Q1152.4338,278.655 1151.7463,279.7331 Q1151.0588,280.7956 1151.0588,282.8894 Q1151.0588,284.9831 1151.7463,286.0613 Q1152.4338,287.1238 1153.7775,287.1238 Q1154.4025,287.1238 1154.9963,286.8581 Q1155.59,286.5769 1156.215,285.9988 L1156.215,288.7175 Z " fill="#000000"/><text fill="#000000" font-family="sans-serif" font-size="14" lengthAdjust="spacing" textLength="118.624" x="1173.7463" y="287.9236">LIN_C212_msg_3</text><line style="stroke:#181818;stroke-width:0.5;" x1="1069.59" x2="1364.0265" y1="299.0769" y2="299.0769"/><text fill="#000000" font-family="sans-serif" font-size="14" lengthAdjust="spacing" textLength="162.2988" x="1074.59" y="316.072">Nachricht: PRICAT 2.0d</text><text fill="#000000" font-family="sans-serif" font-size="14" lengthAdjust="spacing" textLength="149.3447" x="1074.59" y="332.3689">Kontext: Bemerkung:</text><text fill="#000000" font-family="sans-serif" font-size="14" lengthAdjust="spacing" textLength="91.4033" x="1074.59" y="348.6657">Pflichtfeld: Ja</text><text fill="#000000" font-family="sans-serif" font-size="14" lengthAdjust="spacing" textLength="200.9561" x="1074.59" y="364.9626">Codes: 35, ID, LIN, OCR, Z09</text><text fill="#000000" font-family="sans-serif" font-size="14" lengthAdjust="spacing" textLength="251.4395" x="1074.59" y="381.2595">Prozesse: Netznutzungsabrechnung</text><text fill="#000000" font-family="sans-serif" font-size="14" lengthAdjust="spacing" textLength="284.4365" x="1074.59" y="397.5564">Quelle: PRICAT_MIG_2_0d_20240619.pdf</text><line style="stroke:#181818;stroke-width:0.5;" x1="1069.59" x2="1364.0265" y1="404.8581" y2="404.8581"/></g><!--class LIN_C212_msg_4--><g class="entity" data-entity="LIN_C212_msg_4" data-source-line="37" data-uid="ent0009" id="entity_LIN_C212_msg_4"><rect fill="#F1F1F1" height="145.7813" rx="2.5" ry="2.5" style="stroke:#181818;stroke-width:0.5;" width="758.1631" x="1399.73" y="267.0769"/><ellipse cx="1715.2495" cy="283.0769" fill="#ADD1B2" rx="11" ry="11" style="stroke:#181818;stroke-width:1;"/><path d="M1718.2183,288.7175 Q1717.6402,289.0144 1716.9995,289.155 Q1716.3589,289.3113 1715.6558,289.3113 Q1713.1558,289.3113 1711.8277,287.6706 Q1710.5152,286.0144 1710.5152,282.8894 Q1710.5152,279.7644 1711.8277,278.1081 Q1713.1558,276.4519 1715.6558,276.4519 Q1716.3589,276.4519 1716.9995,276.6081 Q1717.6558,276.7644 1718.2183,277.0613 L1718.2183,279.78 Q1717.5933,279.2019 1716.9995,278.9363 Q1716.4058,278.655 1715.7808,278.655 Q1714.437,278.655 1713.7495,279.7331 Q1713.062,280.7956 1713.062,282.8894 Q1713.062,284.9831 1713.7495,286.0613 Q1714.437,287.1238 1715.7808,287.1238 Q1716.4058,287.1238 1716.9995,286.8581 Q1717.5933,286.5769 1718.2183,285.9988 L1718.2183,288.7175 Z " fill="#000000"/><text fill="#000000" font-family="sans-serif" font-size="14" lengthAdjust="spacing" textLength="118.624" x="1735.7495" y="287.9236">LIN_C212_msg_4</text><line style="stroke:#181818;stroke-width:0.5;" x1="1400.73" x2="2156.8931" y1="299.0769" y2="299.0769"/><text fill="#000000" font-family="sans-serif" font-size="14" lengthAdjust="spacing" textLength="170.3584" x="1405.73" y="316.072">Nachricht: QUOTES 1.3a</text><text fill="#000000" font-family="sans-serif" font-size="14" lengthAdjust="spacing" textLength="170.3447" x="1405.73" y="332.3689">Kontext: Segmentlayout</text><text fill="#000000" font-family="sans-serif" font-size="14" lengthAdjust="spacing" textLength="91.4033" x="1405.73" y="348.6657">Pflichtfeld: Ja</text><text fill="#000000" font-family="sans-serif" font-size="14" lengthAdjust="spacing" textLength="341.1611" x="1405.73" y="364.9626">Codes: 000, 200, 35, EDI, ID, LIN, OCR, Z01, Z09</text><text fill="#000000" font-family="sans-serif" font-size="14" lengthAdjust="spacing" textLength="292.4961" x="1405.73" y="381.2595">Quelle: QUOTES_MIG_1_3a_20240619.pdf</text><line style="stroke:#181818;stroke-width:0.5;" x1="1400.73" x2="2156.8931" y1="388.5613" y2="388.5613"/><text fill="#000000" font-family="sans-serif" font-size="14" lengthAdjust="spacing" textLength="746.1631" x="1405.73" y="405.5564">Prozesse: Bestellung einer technischen Konfiguration (MSB), Sperrung und Entsperrung eines Anschlusses</text></g><!--class LIN_C212_proc_1--><g class="entity" data-entity="LIN_C212_proc_1" data-source-line="46" data-uid="ent0011" id="entity_LIN_C212_proc_1"><rect fill="#F1F1F1" height="105.1563" rx="2.5" ry="2.5" style="stroke:#181818;stroke-width:0.5;" width="752.6465" x="2192.49" y="287.3869"/><ellipse cx="2504.7078" cy="307.5197" fill="#ADD1B2" rx="11" ry="11" style="stroke:#181818;stroke-width:1;"/><path d="M2507.6765,313.1603 Q2507.0984,313.4572 2506.4578,313.5978 Q2505.8171,313.7541 2505.114,313.7541 Q2502.614,313.7541 2501.2859,312.1134 Q2499.9734,310.4572 2499.9734,307.3322 Q2499.9734,304.2072 2501.2859,302.5509 Q2502.614,300.8947 2505.114,300.8947 Q2505.8171,300.8947 2506.4578,301.0509 Q2507.114,301.2072 2507.6765,301.5041 L2507.6765,304.2228 Q2507.0515,303.6447 2506.4578,303.3791 Q2505.864,303.0978 2505.239,303.0978 Q2503.8953,303.0978 2503.2078,304.1759 Q2502.5203,305.2384 2502.5203,307.3322 Q2502.5203,309.4259 2503.2078,310.5041 Q2503.8953,311.5666 2505.239,311.5666 Q2505.864,311.5666 2506.4578,311.3009 Q2507.0515,311.0197 2507.6765,310.4416 L2507.6765,313.1603 Z " fill="#000000"/><text fill="#000000" font-family="sans-serif" font-size="12" font-style="italic" lengthAdjust="spacing" textLength="61.0605" x="2554.533" y="303.5255">&#171;process&#187;</text><text fill="#000000" font-family="sans-serif" font-size="14" lengthAdjust="spacing" textLength="119.7109" x="2525.2078" y="319.3507">LIN_C212_proc_1</text><line style="stroke:#181818;stroke-width:0.5;" x1="2193.49" x2="2944.1365" y1="327.6525" y2="327.6525"/><text fill="#000000" font-family="sans-serif" font-size="14" lengthAdjust="spacing" textLength="180.3457" x="2198.49" y="344.6476">Netznutzungsabrechnung</text><text fill="#000000" font-family="sans-serif" font-size="14" lengthAdjust="spacing" textLength="218.0938" x="2198.49" y="360.9445">Gesetze: StromNEV, StromNZV</text><text fill="#000000" font-family="sans-serif" font-size="14" lengthAdjust="spacing" textLength="740.6465" x="2198.49" y="377.2414">Zusammenfassung: Wie funktioniert die Netznutzungsabrechnung zwischen Netzbetreiber und Lieferant?</text><line style="stroke:#181818;stroke-width:0.5;" x1="2193.49" x2="2944.1365" y1="384.5431" y2="384.5431"/></g><!--class LIN_C212_proc_2--><g class="entity" data-entity="LIN_C212_proc_2" data-source-line="52" data-uid="ent0013" id="entity_LIN_C212_proc_2"><rect fill="#F1F1F1" height="105.1563" rx="2.5" ry="2.5" style="stroke:#181818;stroke-width:0.5;" width="690.2275" x="2979.7" y="287.3869"/><ellipse cx="3260.7083" cy="307.5197" fill="#ADD1B2" rx="11" ry="11" style="stroke:#181818;stroke-width:1;"/><path d="M3263.6771,313.1603 Q3263.0989,313.4572 3262.4583,313.5978 Q3261.8177,313.7541 3261.1146,313.7541 Q3258.6146,313.7541 3257.2864,312.1134 Q3255.9739,310.4572 3255.9739,307.3322 Q3255.9739,304.2072 3257.2864,302.5509 Q3258.6146,300.8947 3261.1146,300.8947 Q3261.8177,300.8947 3262.4583,301.0509 Q3263.1146,301.2072 3263.6771,301.5041 L3263.6771,304.2228 Q3263.0521,303.6447 3262.4583,303.3791 Q3261.8646,303.0978 3261.2396,303.0978 Q3259.8958,303.0978 3259.2083,304.1759 Q3258.5208,305.2384 3258.5208,307.3322 Q3258.5208,309.4259 3259.2083,310.5041 Q3259.8958,311.5666 3261.2396,311.5666 Q3261.8646,311.5666 3262.4583,311.3009 Q3263.0521,311.0197 3263.6771,310.4416 L3263.6771,313.1603 Z " fill="#000000"/><text fill="#000000" font-family="sans-serif" font-size="12" font-style="italic" lengthAdjust="spacing" textLength="61.0605" x="3310.5335" y="303.5255">&#171;process&#187;</text><text fill="#000000" font-family="sans-serif" font-size="14" lengthAdjust="spacing" textLength="119.7109" x="3281.2083" y="319.3507">LIN_C212_proc_2</text><line style="stroke:#181818;stroke-width:0.5;" x1="2980.7" x2="3668.9275" y1="327.6525" y2="327.6525"/><text fill="#000000" font-family="sans-serif" font-size="14" lengthAdjust="spacing" textLength="223.2822" x="2985.7" y="344.6476">Messstellenbetriebsabrechnung</text><text fill="#000000" font-family="sans-serif" font-size="14" lengthAdjust="spacing" textLength="105.0957" x="2985.7" y="360.9445">Gesetze: MsbG</text><text fill="#000000" font-family="sans-serif" font-size="14" lengthAdjust="spacing" textLength="678.2275" x="2985.7" y="377.2414">Zusammenfassung: Beschreibe den Prozess der Abrechnung von Messstellenbetriebsleistungen.</text><line style="stroke:#181818;stroke-width:0.5;" x1="2980.7" x2="3668.9275" y1="384.5431" y2="384.5431"/></g><!--class LIN_C212_proc_3--><g class="entity" data-entity="LIN_C212_proc_3" data-source-line="58" data-uid="ent0015" id="entity_LIN_C212_proc_3"><rect fill="#F1F1F1" height="105.1563" rx="2.5" ry="2.5" style="stroke:#181818;stroke-width:0.5;" width="1301.9961" x="3704.81" y="287.3869"/><ellipse cx="4291.7026" cy="307.5197" fill="#ADD1B2" rx="11" ry="11" style="stroke:#181818;stroke-width:1;"/><path d="M4294.6713,313.1603 Q4294.0932,313.4572 4293.4526,313.5978 Q4292.812,313.7541 4292.1088,313.7541 Q4289.6088,313.7541 4288.2807,312.1134 Q4286.9682,310.4572 4286.9682,307.3322 Q4286.9682,304.2072 4288.2807,302.5509 Q4289.6088,300.8947 4292.1088,300.8947 Q4292.812,300.8947 4293.4526,301.0509 Q4294.1088,301.2072 4294.6713,301.5041 L4294.6713,304.2228 Q4294.0463,303.6447 4293.4526,303.3791 Q4292.8588,303.0978 4292.2338,303.0978 Q4290.8901,303.0978 4290.2026,304.1759 Q4289.5151,305.2384 4289.5151,307.3322 Q4289.5151,309.4259 4290.2026,310.5041 Q4290.8901,311.5666 4292.2338,311.5666 Q4292.8588,311.5666 4293.4526,311.3009 Q4294.0463,311.0197 4294.6713,310.4416 L4294.6713,313.1603 Z " fill="#000000"/><text fill="#000000" font-family="sans-serif" font-size="12" font-style="italic" lengthAdjust="spacing" textLength="61.0605" x="4341.5278" y="303.5255">&#171;process&#187;</text><text fill="#000000" font-family="sans-serif" font-size="14" lengthAdjust="spacing" textLength="119.7109" x="4312.2026" y="319.3507">LIN_C212_proc_3</text><line style="stroke:#181818;stroke-width:0.5;" x1="3705.81" x2="5005.8061" y1="327.6525" y2="327.6525"/><text fill="#000000" font-family="sans-serif" font-size="14" lengthAdjust="spacing" textLength="156.4063" x="3710.81" y="344.6476">Gesetze: MsbG, EnWG</text><text fill="#000000" font-family="sans-serif" font-size="14" lengthAdjust="spacing" textLength="1289.9961" x="3710.81" y="360.9445">Zusammenfassung: Erl&#228;utere den Prozess zur Bestellung einer spezifischen technischen Konfiguration bei einem Messstellenbetreiber, beispielsweise f&#252;r ein intelligentes Messsystem.</text><line style="stroke:#181818;stroke-width:0.5;" x1="3705.81" x2="5005.8061" y1="368.2463" y2="368.2463"/><text fill="#000000" font-family="sans-serif" font-size="14" lengthAdjust="spacing" textLength="348.2021" x="3710.81" y="385.2414">Bestellung einer technischen Konfiguration (MSB)</text></g><!--class LIN_C212_proc_4--><g class="entity" data-entity="LIN_C212_proc_4" data-source-line="64" data-uid="ent0017" id="entity_LIN_C212_proc_4"><rect fill="#F1F1F1" height="105.1563" rx="2.5" ry="2.5" style="stroke:#181818;stroke-width:0.5;" width="853.9893" x="5041.82" y="287.3869"/><ellipse cx="5404.7092" cy="307.5197" fill="#ADD1B2" rx="11" ry="11" style="stroke:#181818;stroke-width:1;"/><path d="M5407.6779,313.1603 Q5407.0998,313.4572 5406.4592,313.5978 Q5405.8185,313.7541 5405.1154,313.7541 Q5402.6154,313.7541 5401.2873,312.1134 Q5399.9748,310.4572 5399.9748,307.3322 Q5399.9748,304.2072 5401.2873,302.5509 Q5402.6154,300.8947 5405.1154,300.8947 Q5405.8185,300.8947 5406.4592,301.0509 Q5407.1154,301.2072 5407.6779,301.5041 L5407.6779,304.2228 Q5407.0529,303.6447 5406.4592,303.3791 Q5405.8654,303.0978 5405.2404,303.0978 Q5403.8967,303.0978 5403.2092,304.1759 Q5402.5217,305.2384 5402.5217,307.3322 Q5402.5217,309.4259 5403.2092,310.5041 Q5403.8967,311.5666 5405.2404,311.5666 Q5405.8654,311.5666 5406.4592,311.3009 Q5407.0529,311.0197 5407.6779,310.4416 L5407.6779,313.1603 Z " fill="#000000"/><text fill="#000000" font-family="sans-serif" font-size="12" font-style="italic" lengthAdjust="spacing" textLength="61.0605" x="5454.5344" y="303.5255">&#171;process&#187;</text><text fill="#000000" font-family="sans-serif" font-size="14" lengthAdjust="spacing" textLength="119.7109" x="5425.2092" y="319.3507">LIN_C212_proc_4</text><line style="stroke:#181818;stroke-width:0.5;" x1="5042.82" x2="5894.8093" y1="327.6525" y2="327.6525"/><text fill="#000000" font-family="sans-serif" font-size="14" lengthAdjust="spacing" textLength="317.9668" x="5047.82" y="344.6476">Sperrung und Entsperrung eines Anschlusses</text><text fill="#000000" font-family="sans-serif" font-size="14" lengthAdjust="spacing" textLength="138.3252" x="5047.82" y="360.9445">Gesetze: StromGVV</text><text fill="#000000" font-family="sans-serif" font-size="14" lengthAdjust="spacing" textLength="841.9893" x="5047.82" y="377.2414">Zusammenfassung: Beschreibe den End-to-End-Prozess f&#252;r die Sperrung und Wiederherstellung eines Netzanschlusses.</text><line style="stroke:#181818;stroke-width:0.5;" x1="5042.82" x2="5894.8093" y1="384.5431" y2="384.5431"/></g><!--link LIN_C212 to LIN_C212_msg_1--><g class="link" data-entity-1="LIN_C212" data-entity-2="LIN_C212_msg_1" data-source-line="18" data-uid="lnk4" id="link_LIN_C212_LIN_C212_msg_1"><path codeLine="18" d="M1986.48,124.4369 C1678.53,137.0969 1046.97,173.0169 520.81,267.0769 C514.92,268.1269 514.8669,268.0872 508.8769,269.2672" fill="none" id="LIN_C212-to-LIN_C212_msg_1" style="stroke:#181818;stroke-width:1;"/><polygon fill="#181818" points="502.99,270.4269,512.5934,272.6119,507.8957,269.4605,511.0472,264.7628,502.99,270.4269" style="stroke:#181818;stroke-width:1;"/><text fill="#000000" font-family="sans-serif" font-size="13" lengthAdjust="spacing" textLength="85.2363" x="790.81" y="233.1438">verwendet in</text></g><!--link LIN_C212 to LIN_C212_msg_2--><g class="link" data-entity-1="LIN_C212" data-entity-2="LIN_C212_msg_2" data-source-line="27" data-uid="lnk6" id="link_LIN_C212_LIN_C212_msg_2"><path codeLine="27" d="M1986.27,135.3369 C1762.27,157.6069 1376.91,201.5269 1050.81,267.0769 C1045.2,268.2069 1045.4076,268.1332 1039.6976,269.3532" fill="none" id="LIN_C212-to-LIN_C212_msg_2" style="stroke:#181818;stroke-width:1;"/><polygon fill="#181818" points="1033.83,270.6069,1043.4671,272.6381,1038.7196,269.5622,1041.7956,264.8147,1033.83,270.6069" style="stroke:#181818;stroke-width:1;"/><text fill="#000000" font-family="sans-serif" font-size="13" lengthAdjust="spacing" textLength="85.2363" x="1296.81" y="233.1438">verwendet in</text></g><!--link LIN_C212 to LIN_C212_msg_3--><g class="link" data-entity-1="LIN_C212" data-entity-2="LIN_C212_msg_3" data-source-line="36" data-uid="lnk8" id="link_LIN_C212_LIN_C212_msg_3"><path codeLine="36" d="M1986.51,141.2669 C1824.19,164.1269 1584.24,204.8169 1381.81,267.0769 C1376.29,268.7769 1376.3747,268.6581 1370.7547,270.5881" fill="none" id="LIN_C212-to-LIN_C212_msg_3" style="stroke:#181818;stroke-width:1;"/><polygon fill="#181818" points="1365.08,272.5369,1374.8912,273.3968,1369.8089,270.9129,1372.2929,265.8306,1365.08,272.5369" style="stroke:#181818;stroke-width:1;"/><text fill="#000000" font-family="sans-serif" font-size="13" lengthAdjust="spacing" textLength="85.2363" x="1553.81" y="233.1438">verwendet in</text></g><!--link LIN_C212 to LIN_C212_msg_4--><g class="link" data-entity-1="LIN_C212" data-entity-2="LIN_C212_msg_4" data-source-line="45" data-uid="lnk10" id="link_LIN_C212_LIN_C212_msg_4"><path codeLine="45" d="M2044.47,190.4769 C2000.71,214.9369 1957.0979,239.3203 1913.3379,263.7703" fill="none" id="LIN_C212-to-LIN_C212_msg_4" style="stroke:#181818;stroke-width:1;"/><polygon fill="#181818" points="1908.1,266.6969,1917.9078,265.799,1912.4649,264.2581,1914.0058,258.8151,1908.1,266.6969" style="stroke:#181818;stroke-width:1;"/><text fill="#000000" font-family="sans-serif" font-size="13" lengthAdjust="spacing" textLength="85.2363" x="1989.81" y="233.1438">verwendet in</text></g><!--link LIN_C212 to LIN_C212_proc_1--><g class="link" data-entity-1="LIN_C212" data-entity-2="LIN_C212_proc_1" data-source-line="51" data-uid="lnk12" id="link_LIN_C212_LIN_C212_proc_1"><path codeLine="51" d="M2303.15,190.4769 C2359.51,221.9769 2419.0728,255.2691 2470.5728,284.0591" fill="none" id="LIN_C212-to-LIN_C212_proc_1" style="stroke:#181818;stroke-width:1;stroke-dasharray:7,7;"/><polygon fill="#181818" points="2475.81,286.9869,2469.906,279.1038,2471.4457,284.5471,2466.0024,286.0867,2475.81,286.9869" style="stroke:#181818;stroke-width:1;"/><text fill="#000000" font-family="sans-serif" font-size="13" lengthAdjust="spacing" textLength="91.6221" x="2384.81" y="233.1438">eingebettet in</text></g><!--link LIN_C212 to LIN_C212_proc_2--><g class="link" data-entity-1="LIN_C212" data-entity-2="LIN_C212_proc_2" data-source-line="57" data-uid="lnk14" id="link_LIN_C212_LIN_C212_proc_2"><path codeLine="57" d="M2361.22,153.0269 C2521.15,182.8869 2757.19,227.2569 2962.81,267.0769 C2995.68,273.4369 3024.3232,279.0468 3058.4732,285.7768" fill="none" id="LIN_C212-to-LIN_C212_proc_2" style="stroke:#181818;stroke-width:1;stroke-dasharray:7,7;"/><polygon fill="#181818" points="3064.36,286.9369,3056.3032,281.2722,3059.4544,285.9701,3054.7564,289.1212,3064.36,286.9369" style="stroke:#181818;stroke-width:1;"/><text fill="#000000" font-family="sans-serif" font-size="13" lengthAdjust="spacing" textLength="91.6221" x="2791.81" y="233.1438">eingebettet in</text></g><!--link LIN_C212 to LIN_C212_proc_3--><g class="link" data-entity-1="LIN_C212" data-entity-2="LIN_C212_proc_3" data-source-line="63" data-uid="lnk16" id="link_LIN_C212_LIN_C212_proc_3"><path codeLine="63" d="M2361.21,136.0569 C2647.31,163.4669 3210.14,217.8869 3687.81,267.0769 C3749.02,273.3769 3807.3936,279.5026 3870.9836,286.2626" fill="none" id="LIN_C212-to-LIN_C212_proc_3" style="stroke:#181818;stroke-width:1;stroke-dasharray:7,7;"/><polygon fill="#181818" points="3876.95,286.8969,3868.4233,281.9679,3871.978,286.3683,3867.5776,289.9231,3876.95,286.8969" style="stroke:#181818;stroke-width:1;"/><text fill="#000000" font-family="sans-serif" font-size="13" lengthAdjust="spacing" textLength="91.6221" x="3357.81" y="233.1438">eingebettet in</text></g><!--link LIN_C212 to LIN_C212_proc_4--><g class="link" data-entity-1="LIN_C212" data-entity-2="LIN_C212_proc_4" data-source-line="69" data-uid="lnk18" id="link_LIN_C212_LIN_C212_proc_4"><path codeLine="69" d="M2361.1,120.9769 C2817.62,129.3169 4023.68,160.4769 5023.81,267.0769 C5072.84,272.2969 5118.7473,278.4107 5169.0573,286.0107" fill="none" id="LIN_C212-to-LIN_C212_proc_4" style="stroke:#181818;stroke-width:1;stroke-dasharray:7,7;"/><polygon fill="#181818" points="5174.99,286.9069,5166.6884,281.6074,5170.0461,286.16,5165.4935,289.5177,5174.99,286.9069" style="stroke:#181818;stroke-width:1;"/><text fill="#000000" font-family="sans-serif" font-size="13" lengthAdjust="spacing" textLength="91.6221" x="4716.81" y="233.1438">eingebettet in</text></g><!--SRC=[jPNRRjf048RlynHpsKg6-a2gnege4a8HRI07KYBbnZ9u32liDTfTvq3Lj-bZz2ulrbbZ4i0GJAJUsBixEplpVvxnAgOYX3DV8VTLv4kem7cxwpPiopuOqbpggQUdyEi0eEl7wCAjBv1NFfqZaohb8ydJE4PXG3j0hbZ89hvY2QVjboAPePJeqXZew2wg6K_LJ3lv0u73CQTXRkpGJgamYf0FK0c6W-AUKynsq08WuoX0QJkJmp5o-97ma8rIaKM73vtUwSVShJT58RHJoWDeSYKNSts8X1DE1qGf9IeFVg_9zc8vygnS_70is72iN6Xt-nVj1jZLBm4PAB32Hre-9I9JXf7MUnb6Uc-8KU32TvzM6ac0qWNda4YT6Jg20HUDQmFkJ4i_ZfQ9RM5bxCHqbMhR8aMlqsvvEatl6uuZ59D429oeL7YsQH-QbcDLfq58gby-SwLINnVlmZsA1-G1Ac1y4o3x3K3LPK8z7CLK997_bAIgDAN_3iWZG9f8pVni7UqaOfSWugmJkRnkDqvkY8YvLZBKEXFARE-QAKDZIUuyVYxN3CghTKgehQshlVfvSTFiWLLr_7TzVjCq3R3rGqjldhLBzSo-lmTZdp_3Aygvk0obvJb-UPIr7IYd8XbIlnqVwm59gjVdNBTzsnPACb56FIMIkDli6_deha_MkrJwz6Fc8SNG1GQt325C-KG3O2WK1BIm-N2OFUJOj5tt4R810TMOpXc6A7oklYwBhLRh1I6knZX2SbVRzTe5lRiw-4LsHmvQcuHI7L0bweo1hgH5WT1OmCchn7igWmsXelnQGrvzMvzTJfzJqFUEMsn5CZK4lzqel2cYvp-fGh4gV9QAOb0gzHbTrlEespCO8CiSudLMMK4OsfxTUVA11bHVpt-5tayqz5P661KrKkRxHDxn3gXEEQYr0jIzEdcrSLhzVeagQlAWefAAVYsuPc9r4wq4fpQZIXkZM04kiqxoNzFO0Q9M0F4F]--></g></svg>