<svg xmlns="http://www.w3.org/2000/svg" xmlns:xlink="http://www.w3.org/1999/xlink" contentStyleType="text/css" data-diagram-type="CLASS" height="370px" preserveAspectRatio="none" style="width:860px;height:370px;background:#FFFFFF;" version="1.1" viewBox="0 0 860 370" width="860px" zoomAndPan="magnify"><title>Datenatlas - LIN:00026</title><defs/><g><g class="title" data-source-line="1"><text fill="#000000" font-family="sans-serif" font-size="14" font-weight="bold" lengthAdjust="spacing" textLength="181.6514" x="332.4686" y="22.9951">Datenatlas - LIN:00026</text></g><!--class LIN_00026--><g class="entity" data-entity="LIN_00026" data-source-line="2" data-uid="ent0002" id="entity_LIN_00026"><rect fill="#F1F1F1" height="96.8906" rx="2.5" ry="2.5" style="stroke:#181818;stroke-width:0.5;" width="360.3525" x="263.3" y="44.2969"/><ellipse cx="402.2575" cy="60.2969" fill="#ADD1B2" rx="11" ry="11" style="stroke:#181818;stroke-width:1;"/><path d="M405.2263,65.9375 Q404.6481,66.2344 404.0075,66.375 Q403.3669,66.5313 402.6638,66.5313 Q400.1638,66.5313 398.8356,64.8906 Q397.5231,63.2344 397.5231,60.1094 Q397.5231,56.9844 398.8356,55.3281 Q400.1638,53.6719 402.6638,53.6719 Q403.3669,53.6719 404.0075,53.8281 Q404.6638,53.9844 405.2263,54.2813 L405.2263,57 Q404.6013,56.4219 404.0075,56.1563 Q403.4138,55.875 402.7888,55.875 Q401.445,55.875 400.7575,56.9531 Q400.07,58.0156 400.07,60.1094 Q400.07,62.2031 400.7575,63.2813 Q401.445,64.3438 402.7888,64.3438 Q403.4138,64.3438 404.0075,64.0781 Q404.6013,63.7969 405.2263,63.2188 L405.2263,65.9375 Z " fill="#000000"/><text fill="#000000" font-family="sans-serif" font-size="14" lengthAdjust="spacing" textLength="73.9375" x="422.7575" y="65.1436">LIN_00026</text><line style="stroke:#181818;stroke-width:0.5;" x1="264.3" x2="622.6525" y1="76.2969" y2="76.2969"/><text fill="#000000" font-family="sans-serif" font-size="14" lengthAdjust="spacing" textLength="132.084" x="283.3" y="93.292">Name: lfd. Position</text><text fill="#000000" font-family="sans-serif" font-size="14" lengthAdjust="spacing" textLength="66.6436" x="283.3" y="109.5889">Prozesse:</text><rect fill="none" height="6" style="stroke:#C82930;stroke-width:1;" width="6" x="271.3" y="119.5391"/><text fill="#000000" font-family="sans-serif" font-size="14" lengthAdjust="spacing" textLength="334.3525" x="283.3" y="125.8857">Anforderung und &#220;bermittlung von Messwerten</text><line style="stroke:#181818;stroke-width:0.5;" x1="264.3" x2="622.6525" y1="133.1875" y2="133.1875"/></g><!--class LIN_00026_msg_1--><g class="entity" data-entity="LIN_00026_msg_1" data-source-line="7" data-uid="ent0003" id="entity_LIN_00026_msg_1"><rect fill="#F1F1F1" height="145.7813" rx="2.5" ry="2.5" style="stroke:#181818;stroke-width:0.5;" width="432.9502" x="7" y="218.1869"/><ellipse cx="155.8936" cy="234.1869" fill="#ADD1B2" rx="11" ry="11" style="stroke:#181818;stroke-width:1;"/><path d="M158.8623,239.8275 Q158.2842,240.1244 157.6436,240.265 Q157.0029,240.4213 156.2998,240.4213 Q153.7998,240.4213 152.4717,238.7806 Q151.1592,237.1244 151.1592,233.9994 Q151.1592,230.8744 152.4717,229.2181 Q153.7998,227.5619 156.2998,227.5619 Q157.0029,227.5619 157.6436,227.7181 Q158.2998,227.8744 158.8623,228.1713 L158.8623,230.89 Q158.2373,230.3119 157.6436,230.0463 Q157.0498,229.765 156.4248,229.765 Q155.0811,229.765 154.3936,230.8431 Q153.7061,231.9056 153.7061,233.9994 Q153.7061,236.0931 154.3936,237.1713 Q155.0811,238.2338 156.4248,238.2338 Q157.0498,238.2338 157.6436,237.9681 Q158.2373,237.6869 158.8623,237.1088 L158.8623,239.8275 Z " fill="#000000"/><text fill="#000000" font-family="sans-serif" font-size="14" lengthAdjust="spacing" textLength="126.6631" x="176.3936" y="239.0336">LIN_00026_msg_1</text><line style="stroke:#181818;stroke-width:0.5;" x1="8" x2="438.9502" y1="250.1869" y2="250.1869"/><text fill="#000000" font-family="sans-serif" font-size="14" lengthAdjust="spacing" textLength="172.0264" x="13" y="267.182">Nachricht: MSCONS 2.4c</text><text fill="#000000" font-family="sans-serif" font-size="14" lengthAdjust="spacing" textLength="204.1143" x="13" y="283.4789">Kontext: Nachrichtenstruktur</text><text fill="#000000" font-family="sans-serif" font-size="14" lengthAdjust="spacing" textLength="91.4033" x="13" y="299.7757">Pflichtfeld: Ja</text><text fill="#000000" font-family="sans-serif" font-size="14" lengthAdjust="spacing" textLength="184.4678" x="13" y="316.0726">Codes: 07, 26, 53, LIN, UN</text><text fill="#000000" font-family="sans-serif" font-size="14" lengthAdjust="spacing" textLength="405.4463" x="13" y="332.3695">Prozesse: Anforderung und &#220;bermittlung von Messwerten</text><text fill="#000000" font-family="sans-serif" font-size="14" lengthAdjust="spacing" textLength="420.9502" x="13" y="348.6664">Quelle: MSCONS_MIG_2_4c_au&#223;erordentliche_20240726.pdf</text><line style="stroke:#181818;stroke-width:0.5;" x1="8" x2="438.9502" y1="355.9681" y2="355.9681"/></g><!--class LIN_00026_proc_1--><g class="entity" data-entity="LIN_00026_proc_1" data-source-line="16" data-uid="ent0005" id="entity_LIN_00026_proc_1"><rect fill="#F1F1F1" height="105.1563" rx="2.5" ry="2.5" style="stroke:#181818;stroke-width:0.5;" width="378.2285" x="475.36" y="238.4969"/><ellipse cx="596.3493" cy="258.6297" fill="#ADD1B2" rx="11" ry="11" style="stroke:#181818;stroke-width:1;"/><path d="M599.318,264.2703 Q598.7399,264.5672 598.0993,264.7078 Q597.4586,264.8641 596.7555,264.8641 Q594.2555,264.8641 592.9274,263.2234 Q591.6149,261.5672 591.6149,258.4422 Q591.6149,255.3172 592.9274,253.6609 Q594.2555,252.0047 596.7555,252.0047 Q597.4586,252.0047 598.0993,252.1609 Q598.7555,252.3172 599.318,252.6141 L599.318,255.3328 Q598.693,254.7547 598.0993,254.4891 Q597.5055,254.2078 596.8805,254.2078 Q595.5368,254.2078 594.8493,255.2859 Q594.1618,256.3484 594.1618,258.4422 Q594.1618,260.5359 594.8493,261.6141 Q595.5368,262.6766 596.8805,262.6766 Q597.5055,262.6766 598.0993,262.4109 Q598.693,262.1297 599.318,261.5516 L599.318,264.2703 Z " fill="#000000"/><text fill="#000000" font-family="sans-serif" font-size="12" font-style="italic" lengthAdjust="spacing" textLength="61.0605" x="650.194" y="254.6355">&#171;process&#187;</text><text fill="#000000" font-family="sans-serif" font-size="14" lengthAdjust="spacing" textLength="127.75" x="616.8493" y="270.4607">LIN_00026_proc_1</text><line style="stroke:#181818;stroke-width:0.5;" x1="476.36" x2="852.5885" y1="278.7625" y2="278.7625"/><text fill="#000000" font-family="sans-serif" font-size="14" lengthAdjust="spacing" textLength="334.3525" x="481.36" y="295.7576">Anforderung und &#220;bermittlung von Messwerten</text><text fill="#000000" font-family="sans-serif" font-size="14" lengthAdjust="spacing" textLength="105.0957" x="481.36" y="312.0545">Gesetze: MsbG</text><line style="stroke:#181818;stroke-width:0.5;" x1="476.36" x2="852.5885" y1="319.3563" y2="319.3563"/><text fill="#000000" font-family="sans-serif" font-size="14" lengthAdjust="spacing" textLength="366.2285" x="481.36" y="336.3514">Zusammenfassung: Wie kann ein Marktpartner (z.B.</text></g><!--link LIN_00026 to LIN_00026_msg_1--><g class="link" data-entity-1="LIN_00026" data-entity-2="LIN_00026_msg_1" data-source-line="15" data-uid="lnk4" id="link_LIN_00026_LIN_00026_msg_1"><path codeLine="15" d="M389.94,141.5169 C364.25,164.4469 337.3967,188.412 308.8767,213.862" fill="none" id="LIN_00026-to-LIN_00026_msg_1" style="stroke:#181818;stroke-width:1;"/><polygon fill="#181818" points="304.4,217.8569,313.7783,214.8491,308.1306,214.5278,308.4519,208.8801,304.4,217.8569" style="stroke:#181818;stroke-width:1;"/><text fill="#000000" font-family="sans-serif" font-size="13" lengthAdjust="spacing" textLength="85.2363" x="354.48" y="184.2538">verwendet in</text></g><!--link LIN_00026 to LIN_00026_proc_1--><g class="link" data-entity-1="LIN_00026" data-entity-2="LIN_00026_proc_1" data-source-line="21" data-uid="lnk6" id="link_LIN_00026_LIN_00026_proc_1"><path codeLine="21" d="M497.26,141.5169 C530.22,170.8069 567.9343,204.3121 601.6943,234.3021" fill="none" id="LIN_00026-to-LIN_00026_proc_1" style="stroke:#181818;stroke-width:1;stroke-dasharray:7,7;"/><polygon fill="#181818" points="606.18,238.2869,602.108,229.3192,602.4419,234.9662,596.7949,235.3002,606.18,238.2869" style="stroke:#181818;stroke-width:1;"/><text fill="#000000" font-family="sans-serif" font-size="13" lengthAdjust="spacing" textLength="91.6221" x="547.48" y="184.2538">eingebettet in</text></g><!--SRC=[bP3FQW8n4CRlFiKSUrYNxTOg15beBOXjtLga57e9SNTMWzb4abajbhv9eG_ZYpMH_lVaRURBJBxVDoH98Lm9GYr82GTjk1tbB4cIjDiglE12p_SzlBG0Sb4Z0rMLCKoCaoIDzkh4cYqwXypNuF-uq9Mn9Tf6pw7H9UpUPcXhIQI2iZOQndvyWzRxjbx_6_7QpVdffrsniB9O48FnT72NJo6DEuL_k36QyDdBtnEe7TbcIOqDG9KAMeMgP70jl38m9Je6II-2j1l1-LaK32Duo7_p7qSESD-WKlW5nyUZ8Kzvf-2YsRsZ3Jzf2YJ8qoJj9Bsq6w_AoaV-kMgxdHr4Px16kq5T8e7K1_TPMLFugNu_51udo_R7Ef9zY0vf6-3TREZxfyQ9kaPTUJE_mE1H8Yo5re3Ihmgxf9MmfD72oJQ-ZF-aYEFi4925pJdEa6WVv0C0]--></g></svg>