<svg xmlns="http://www.w3.org/2000/svg" xmlns:xlink="http://www.w3.org/1999/xlink" contentStyleType="text/css" data-diagram-type="CLASS" height="387px" preserveAspectRatio="none" style="width:2552px;height:387px;background:#FFFFFF;" version="1.1" viewBox="0 0 2552 387" width="2552px" zoomAndPan="magnify"><title>Datenatlas - LIN:1100</title><defs/><g><g class="title" data-source-line="1"><text fill="#000000" font-family="sans-serif" font-size="14" font-weight="bold" lengthAdjust="spacing" textLength="171.9102" x="1183.5087" y="22.9951">Datenatlas - LIN:1100</text></g><!--class LIN_1100--><g class="entity" data-entity="LIN_1100" data-source-line="2" data-uid="ent0002" id="entity_LIN_1100"><rect fill="#F1F1F1" height="113.1875" rx="2.5" ry="2.5" style="stroke:#181818;stroke-width:0.5;" width="249.2822" x="990.17" y="44.2969"/><ellipse cx="1078.046" cy="60.2969" fill="#ADD1B2" rx="11" ry="11" style="stroke:#181818;stroke-width:1;"/><path d="M1081.0147,65.9375 Q1080.4366,66.2344 1079.796,66.375 Q1079.1554,66.5313 1078.4522,66.5313 Q1075.9522,66.5313 1074.6241,64.8906 Q1073.3116,63.2344 1073.3116,60.1094 Q1073.3116,56.9844 1074.6241,55.3281 Q1075.9522,53.6719 1078.4522,53.6719 Q1079.1554,53.6719 1079.796,53.8281 Q1080.4522,53.9844 1081.0147,54.2813 L1081.0147,57 Q1080.3897,56.4219 1079.796,56.1563 Q1079.2022,55.875 1078.5772,55.875 Q1077.2335,55.875 1076.546,56.9531 Q1075.8585,58.0156 1075.8585,60.1094 Q1075.8585,62.2031 1076.546,63.2813 Q1077.2335,64.3438 1078.5772,64.3438 Q1079.2022,64.3438 1079.796,64.0781 Q1080.3897,63.7969 1081.0147,63.2188 L1081.0147,65.9375 Z " fill="#000000"/><text fill="#000000" font-family="sans-serif" font-size="14" lengthAdjust="spacing" textLength="65.0303" x="1098.546" y="65.1436">LIN_1100</text><line style="stroke:#181818;stroke-width:0.5;" x1="991.17" x2="1238.4522" y1="76.2969" y2="76.2969"/><text fill="#000000" font-family="sans-serif" font-size="14" lengthAdjust="spacing" textLength="153.2139" x="1010.17" y="93.292">Name: Positionsdaten</text><text fill="#000000" font-family="sans-serif" font-size="14" lengthAdjust="spacing" textLength="66.6436" x="1010.17" y="109.5889">Prozesse:</text><rect fill="none" height="6" style="stroke:#C82930;stroke-width:1;" width="6" x="998.17" y="119.5391"/><text fill="#000000" font-family="sans-serif" font-size="14" lengthAdjust="spacing" textLength="180.3457" x="1010.17" y="125.8857">Netznutzungsabrechnung</text><rect fill="none" height="6" style="stroke:#C82930;stroke-width:1;" width="6" x="998.17" y="135.8359"/><text fill="#000000" font-family="sans-serif" font-size="14" lengthAdjust="spacing" textLength="223.2822" x="1010.17" y="142.1826">Messstellenbetriebsabrechnung</text><line style="stroke:#181818;stroke-width:0.5;" x1="991.17" x2="1238.4522" y1="149.4844" y2="149.4844"/></g><!--class LIN_1100_msg_1--><g class="entity" data-entity="LIN_1100_msg_1" data-source-line="8" data-uid="ent0003" id="entity_LIN_1100_msg_1"><rect fill="#F1F1F1" height="145.7813" rx="2.5" ry="2.5" style="stroke:#181818;stroke-width:0.5;" width="495.6221" x="7" y="234.4869"/><ellipse cx="191.6831" cy="250.4869" fill="#ADD1B2" rx="11" ry="11" style="stroke:#181818;stroke-width:1;"/><path d="M194.6519,256.1275 Q194.0737,256.4244 193.4331,256.565 Q192.7925,256.7213 192.0894,256.7213 Q189.5894,256.7213 188.2612,255.0806 Q186.9487,253.4244 186.9487,250.2994 Q186.9487,247.1744 188.2612,245.5181 Q189.5894,243.8619 192.0894,243.8619 Q192.7925,243.8619 193.4331,244.0181 Q194.0894,244.1744 194.6519,244.4713 L194.6519,247.19 Q194.0269,246.6119 193.4331,246.3463 Q192.8394,246.065 192.2144,246.065 Q190.8706,246.065 190.1831,247.1431 Q189.4956,248.2056 189.4956,250.2994 Q189.4956,252.3931 190.1831,253.4713 Q190.8706,254.5338 192.2144,254.5338 Q192.8394,254.5338 193.4331,254.2681 Q194.0269,253.9869 194.6519,253.4088 L194.6519,256.1275 Z " fill="#000000"/><text fill="#000000" font-family="sans-serif" font-size="14" lengthAdjust="spacing" textLength="117.7559" x="212.1831" y="255.3336">LIN_1100_msg_1</text><line style="stroke:#181818;stroke-width:0.5;" x1="8" x2="501.6221" y1="266.4869" y2="266.4869"/><text fill="#000000" font-family="sans-serif" font-size="14" lengthAdjust="spacing" textLength="161.1982" x="13" y="283.482">Nachricht: INVOIC 2.8d</text><text fill="#000000" font-family="sans-serif" font-size="14" lengthAdjust="spacing" textLength="204.1143" x="13" y="299.7789">Kontext: Nachrichtenstruktur</text><text fill="#000000" font-family="sans-serif" font-size="14" lengthAdjust="spacing" textLength="91.4033" x="13" y="316.0757">Pflichtfeld: Ja</text><text fill="#000000" font-family="sans-serif" font-size="14" lengthAdjust="spacing" textLength="74.7031" x="13" y="332.3726">Codes: LIN</text><text fill="#000000" font-family="sans-serif" font-size="14" lengthAdjust="spacing" textLength="483.6221" x="13" y="348.6695">Prozesse: Netznutzungsabrechnung, Messstellenbetriebsabrechnung</text><text fill="#000000" font-family="sans-serif" font-size="14" lengthAdjust="spacing" textLength="396.6074" x="13" y="364.9664">Quelle: INVOIC_MIG_2.8d_Fehlerkorrektur_20250131.pdf</text><line style="stroke:#181818;stroke-width:0.5;" x1="8" x2="501.6221" y1="372.2681" y2="372.2681"/></g><!--class LIN_1100_msg_2--><g class="entity" data-entity="LIN_1100_msg_2" data-source-line="17" data-uid="ent0005" id="entity_LIN_1100_msg_2"><rect fill="#F1F1F1" height="145.7813" rx="2.5" ry="2.5" style="stroke:#181818;stroke-width:0.5;" width="495.6221" x="538" y="234.4869"/><ellipse cx="722.6831" cy="250.4869" fill="#ADD1B2" rx="11" ry="11" style="stroke:#181818;stroke-width:1;"/><path d="M725.6519,256.1275 Q725.0737,256.4244 724.4331,256.565 Q723.7925,256.7213 723.0894,256.7213 Q720.5894,256.7213 719.2612,255.0806 Q717.9487,253.4244 717.9487,250.2994 Q717.9487,247.1744 719.2612,245.5181 Q720.5894,243.8619 723.0894,243.8619 Q723.7925,243.8619 724.4331,244.0181 Q725.0894,244.1744 725.6519,244.4713 L725.6519,247.19 Q725.0269,246.6119 724.4331,246.3463 Q723.8394,246.065 723.2144,246.065 Q721.8706,246.065 721.1831,247.1431 Q720.4956,248.2056 720.4956,250.2994 Q720.4956,252.3931 721.1831,253.4713 Q721.8706,254.5338 723.2144,254.5338 Q723.8394,254.5338 724.4331,254.2681 Q725.0269,253.9869 725.6519,253.4088 L725.6519,256.1275 Z " fill="#000000"/><text fill="#000000" font-family="sans-serif" font-size="14" lengthAdjust="spacing" textLength="117.7559" x="743.1831" y="255.3336">LIN_1100_msg_2</text><line style="stroke:#181818;stroke-width:0.5;" x1="539" x2="1032.6221" y1="266.4869" y2="266.4869"/><text fill="#000000" font-family="sans-serif" font-size="14" lengthAdjust="spacing" textLength="165.6484" x="544" y="283.482">Nachricht: INVOIC 2.8d.</text><text fill="#000000" font-family="sans-serif" font-size="14" lengthAdjust="spacing" textLength="204.1143" x="544" y="299.7789">Kontext: Nachrichtenstruktur</text><text fill="#000000" font-family="sans-serif" font-size="14" lengthAdjust="spacing" textLength="91.4033" x="544" y="316.0757">Pflichtfeld: Ja</text><text fill="#000000" font-family="sans-serif" font-size="14" lengthAdjust="spacing" textLength="74.7031" x="544" y="332.3726">Codes: LIN</text><text fill="#000000" font-family="sans-serif" font-size="14" lengthAdjust="spacing" textLength="483.6221" x="544" y="348.6695">Prozesse: Netznutzungsabrechnung, Messstellenbetriebsabrechnung</text><text fill="#000000" font-family="sans-serif" font-size="14" lengthAdjust="spacing" textLength="290.3359" x="544" y="364.9664">Quelle: INVOIC_MIG_2_8d__20240619.pdf</text><line style="stroke:#181818;stroke-width:0.5;" x1="539" x2="1032.6221" y1="372.2681" y2="372.2681"/></g><!--class LIN_1100_proc_1--><g class="entity" data-entity="LIN_1100_proc_1" data-source-line="26" data-uid="ent0007" id="entity_LIN_1100_proc_1"><rect fill="#F1F1F1" height="105.1563" rx="2.5" ry="2.5" style="stroke:#181818;stroke-width:0.5;" width="752.6465" x="1068.49" y="254.7969"/><ellipse cx="1381.1419" cy="274.9297" fill="#ADD1B2" rx="11" ry="11" style="stroke:#181818;stroke-width:1;"/><path d="M1384.1106,280.5703 Q1383.5325,280.8672 1382.8919,281.0078 Q1382.2512,281.1641 1381.5481,281.1641 Q1379.0481,281.1641 1377.72,279.5234 Q1376.4075,277.8672 1376.4075,274.7422 Q1376.4075,271.6172 1377.72,269.9609 Q1379.0481,268.3047 1381.5481,268.3047 Q1382.2512,268.3047 1382.8919,268.4609 Q1383.5481,268.6172 1384.1106,268.9141 L1384.1106,271.6328 Q1383.4856,271.0547 1382.8919,270.7891 Q1382.2981,270.5078 1381.6731,270.5078 Q1380.3294,270.5078 1379.6419,271.5859 Q1378.9544,272.6484 1378.9544,274.7422 Q1378.9544,276.8359 1379.6419,277.9141 Q1380.3294,278.9766 1381.6731,278.9766 Q1382.2981,278.9766 1382.8919,278.7109 Q1383.4856,278.4297 1384.1106,277.8516 L1384.1106,280.5703 Z " fill="#000000"/><text fill="#000000" font-family="sans-serif" font-size="12" font-style="italic" lengthAdjust="spacing" textLength="61.0605" x="1430.533" y="270.9355">&#171;process&#187;</text><text fill="#000000" font-family="sans-serif" font-size="14" lengthAdjust="spacing" textLength="118.8428" x="1401.6419" y="286.7607">LIN_1100_proc_1</text><line style="stroke:#181818;stroke-width:0.5;" x1="1069.49" x2="1820.1365" y1="295.0625" y2="295.0625"/><text fill="#000000" font-family="sans-serif" font-size="14" lengthAdjust="spacing" textLength="180.3457" x="1074.49" y="312.0576">Netznutzungsabrechnung</text><text fill="#000000" font-family="sans-serif" font-size="14" lengthAdjust="spacing" textLength="218.0938" x="1074.49" y="328.3545">Gesetze: StromNEV, StromNZV</text><text fill="#000000" font-family="sans-serif" font-size="14" lengthAdjust="spacing" textLength="740.6465" x="1074.49" y="344.6514">Zusammenfassung: Wie funktioniert die Netznutzungsabrechnung zwischen Netzbetreiber und Lieferant?</text><line style="stroke:#181818;stroke-width:0.5;" x1="1069.49" x2="1820.1365" y1="351.9531" y2="351.9531"/></g><!--class LIN_1100_proc_2--><g class="entity" data-entity="LIN_1100_proc_2" data-source-line="32" data-uid="ent0009" id="entity_LIN_1100_proc_2"><rect fill="#F1F1F1" height="105.1563" rx="2.5" ry="2.5" style="stroke:#181818;stroke-width:0.5;" width="690.2275" x="1855.7" y="254.7969"/><ellipse cx="2137.1424" cy="274.9297" fill="#ADD1B2" rx="11" ry="11" style="stroke:#181818;stroke-width:1;"/><path d="M2140.1111,280.5703 Q2139.533,280.8672 2138.8924,281.0078 Q2138.2518,281.1641 2137.5486,281.1641 Q2135.0486,281.1641 2133.7205,279.5234 Q2132.408,277.8672 2132.408,274.7422 Q2132.408,271.6172 2133.7205,269.9609 Q2135.0486,268.3047 2137.5486,268.3047 Q2138.2518,268.3047 2138.8924,268.4609 Q2139.5486,268.6172 2140.1111,268.9141 L2140.1111,271.6328 Q2139.4861,271.0547 2138.8924,270.7891 Q2138.2986,270.5078 2137.6736,270.5078 Q2136.3299,270.5078 2135.6424,271.5859 Q2134.9549,272.6484 2134.9549,274.7422 Q2134.9549,276.8359 2135.6424,277.9141 Q2136.3299,278.9766 2137.6736,278.9766 Q2138.2986,278.9766 2138.8924,278.7109 Q2139.4861,278.4297 2140.1111,277.8516 L2140.1111,280.5703 Z " fill="#000000"/><text fill="#000000" font-family="sans-serif" font-size="12" font-style="italic" lengthAdjust="spacing" textLength="61.0605" x="2186.5335" y="270.9355">&#171;process&#187;</text><text fill="#000000" font-family="sans-serif" font-size="14" lengthAdjust="spacing" textLength="118.8428" x="2157.6424" y="286.7607">LIN_1100_proc_2</text><line style="stroke:#181818;stroke-width:0.5;" x1="1856.7" x2="2544.9275" y1="295.0625" y2="295.0625"/><text fill="#000000" font-family="sans-serif" font-size="14" lengthAdjust="spacing" textLength="223.2822" x="1861.7" y="312.0576">Messstellenbetriebsabrechnung</text><text fill="#000000" font-family="sans-serif" font-size="14" lengthAdjust="spacing" textLength="105.0957" x="1861.7" y="328.3545">Gesetze: MsbG</text><text fill="#000000" font-family="sans-serif" font-size="14" lengthAdjust="spacing" textLength="678.2275" x="1861.7" y="344.6514">Zusammenfassung: Beschreibe den Prozess der Abrechnung von Messstellenbetriebsleistungen.</text><line style="stroke:#181818;stroke-width:0.5;" x1="1856.7" x2="2544.9275" y1="351.9531" y2="351.9531"/></g><!--link LIN_1100 to LIN_1100_msg_1--><g class="link" data-entity-1="LIN_1100" data-entity-2="LIN_1100_msg_1" data-source-line="16" data-uid="lnk4" id="link_LIN_1100_LIN_1100_msg_1"><path codeLine="16" d="M989.86,128.0969 C869.39,153.7669 682.13,194.6969 520.81,234.4869 C514.89,235.9469 514.7186,235.9726 508.6786,237.4926" fill="none" id="LIN_1100-to-LIN_1100_msg_1" style="stroke:#181818;stroke-width:1;"/><polygon fill="#181818" points="502.86,238.9569,512.5641,240.6395,507.7088,237.7366,510.6117,232.8814,502.86,238.9569" style="stroke:#181818;stroke-width:1;"/><text fill="#000000" font-family="sans-serif" font-size="13" lengthAdjust="spacing" textLength="85.2363" x="717.81" y="200.5538">verwendet in</text></g><!--link LIN_1100 to LIN_1100_msg_2--><g class="link" data-entity-1="LIN_1100" data-entity-2="LIN_1100_msg_2" data-source-line="25" data-uid="lnk6" id="link_LIN_1100_LIN_1100_msg_2"><path codeLine="25" d="M1024.91,157.7669 C987.05,181.2969 947.5959,205.8196 907.2759,230.8796" fill="none" id="LIN_1100-to-LIN_1100_msg_2" style="stroke:#181818;stroke-width:1;"/><polygon fill="#181818" points="902.18,234.0469,911.9354,232.6933,906.4266,231.4075,907.7124,225.8987,902.18,234.0469" style="stroke:#181818;stroke-width:1;"/><text fill="#000000" font-family="sans-serif" font-size="13" lengthAdjust="spacing" textLength="85.2363" x="971.81" y="200.5538">verwendet in</text></g><!--link LIN_1100 to LIN_1100_proc_1--><g class="link" data-entity-1="LIN_1100" data-entity-2="LIN_1100_proc_1" data-source-line="31" data-uid="lnk8" id="link_LIN_1100_LIN_1100_proc_1"><path codeLine="31" d="M1204.98,157.7669 C1253.65,187.9169 1308.2295,221.747 1355.8795,251.267" fill="none" id="LIN_1100-to-LIN_1100_proc_1" style="stroke:#181818;stroke-width:1;stroke-dasharray:7,7;"/><polygon fill="#181818" points="1360.98,254.4269,1355.4358,246.2867,1356.7296,251.7937,1351.2226,253.0874,1360.98,254.4269" style="stroke:#181818;stroke-width:1;"/><text fill="#000000" font-family="sans-serif" font-size="13" lengthAdjust="spacing" textLength="91.6221" x="1280.81" y="200.5538">eingebettet in</text></g><!--link LIN_1100 to LIN_1100_proc_2--><g class="link" data-entity-1="LIN_1100" data-entity-2="LIN_1100_proc_2" data-source-line="37" data-uid="lnk10" id="link_LIN_1100_LIN_1100_proc_2"><path codeLine="37" d="M1239.83,124.2069 C1384.23,150.1069 1628.88,194.4169 1838.81,234.4869 C1872.01,240.8269 1901.0125,246.4406 1935.4825,253.2106" fill="none" id="LIN_1100-to-LIN_1100_proc_2" style="stroke:#181818;stroke-width:1;stroke-dasharray:7,7;"/><polygon fill="#181818" points="1941.37,254.3669,1933.3096,248.7074,1936.4637,253.4033,1931.7678,256.5574,1941.37,254.3669" style="stroke:#181818;stroke-width:1;"/><text fill="#000000" font-family="sans-serif" font-size="13" lengthAdjust="spacing" textLength="91.6221" x="1661.81" y="200.5538">eingebettet in</text></g><!--SRC=[pL9VJzim47_dKzm7e54IDZIigXDZe-gWWMbI9_4I9V6biPgSaNq1LBJllZDqNKLR-hgtk_kT_VjZi-4MuMl1I0MtXOS1N4yobIHnV5H9xqERXnQUZm2oeaC5jzORDfQy3kTaVEli4hr79JN85HdoadfUzZJtHUcmQaZA5JYLJS_OjaWbiZDORkxyVaERTtwU9ologd6cQbZ199lTJ2uWZJvf0QuiCJx9UBs1vDdr2-vTK5UtOLPZgnLyBsHoOJLw5JWsnU-HVNn0CS2FFc1_LUNJoJWFol9BR5fq2-iS1Ybv6gSVu-GaYUvrBKRNoGu6exT-5JoWUqJIo61eLoRfEvb4_saekOGIKlWGdoPd1rD83wHmxsmbKGs7eH0rez5h9Fi-tnYzG2Bf9plRPTzcnwlgRYReNU-BhaEgXKFs5Vmo27LFY_3J3Je6BOFTbyFoqVYgGNh1GnneIdJGauPhWpMwWlZpfjae6cqPKO26vYZ7UR_VTClleOTOsvxwShpBw1SKxI-AGOk5rTDBxU3ydyK7IxkeMZIU1KUAtlUNRldx0m00]--></g></svg>