<svg xmlns="http://www.w3.org/2000/svg" xmlns:xlink="http://www.w3.org/1999/xlink" contentStyleType="text/css" data-diagram-type="CLASS" height="370px" preserveAspectRatio="none" style="width:860px;height:370px;background:#FFFFFF;" version="1.1" viewBox="0 0 860 370" width="860px" zoomAndPan="magnify"><title>Datenatlas - LIN:0290</title><defs/><g><g class="title" data-source-line="1"><text fill="#000000" font-family="sans-serif" font-size="14" font-weight="bold" lengthAdjust="spacing" textLength="171.9102" x="337.3392" y="22.9951">Datenatlas - LIN:0290</text></g><!--class LIN_0290--><g class="entity" data-entity="LIN_0290" data-source-line="2" data-uid="ent0002" id="entity_LIN_0290"><rect fill="#F1F1F1" height="96.8906" rx="2.5" ry="2.5" style="stroke:#181818;stroke-width:0.5;" width="360.3525" x="263.3" y="44.2969"/><ellipse cx="406.7111" cy="60.2969" fill="#ADD1B2" rx="11" ry="11" style="stroke:#181818;stroke-width:1;"/><path d="M409.6799,65.9375 Q409.1018,66.2344 408.4611,66.375 Q407.8205,66.5313 407.1174,66.5313 Q404.6174,66.5313 403.2893,64.8906 Q401.9768,63.2344 401.9768,60.1094 Q401.9768,56.9844 403.2893,55.3281 Q404.6174,53.6719 407.1174,53.6719 Q407.8205,53.6719 408.4611,53.8281 Q409.1174,53.9844 409.6799,54.2813 L409.6799,57 Q409.0549,56.4219 408.4611,56.1563 Q407.8674,55.875 407.2424,55.875 Q405.8986,55.875 405.2111,56.9531 Q404.5236,58.0156 404.5236,60.1094 Q404.5236,62.2031 405.2111,63.2813 Q405.8986,64.3438 407.2424,64.3438 Q407.8674,64.3438 408.4611,64.0781 Q409.0549,63.7969 409.6799,63.2188 L409.6799,65.9375 Z " fill="#000000"/><text fill="#000000" font-family="sans-serif" font-size="14" lengthAdjust="spacing" textLength="65.0303" x="427.2111" y="65.1436">LIN_0290</text><line style="stroke:#181818;stroke-width:0.5;" x1="264.3" x2="622.6525" y1="76.2969" y2="76.2969"/><text fill="#000000" font-family="sans-serif" font-size="14" lengthAdjust="spacing" textLength="132.084" x="283.3" y="93.292">Name: lfd. Position</text><text fill="#000000" font-family="sans-serif" font-size="14" lengthAdjust="spacing" textLength="66.6436" x="283.3" y="109.5889">Prozesse:</text><rect fill="none" height="6" style="stroke:#C82930;stroke-width:1;" width="6" x="271.3" y="119.5391"/><text fill="#000000" font-family="sans-serif" font-size="14" lengthAdjust="spacing" textLength="334.3525" x="283.3" y="125.8857">Anforderung und &#220;bermittlung von Messwerten</text><line style="stroke:#181818;stroke-width:0.5;" x1="264.3" x2="622.6525" y1="133.1875" y2="133.1875"/></g><!--class LIN_0290_msg_1--><g class="entity" data-entity="LIN_0290_msg_1" data-source-line="7" data-uid="ent0003" id="entity_LIN_0290_msg_1"><rect fill="#F1F1F1" height="145.7813" rx="2.5" ry="2.5" style="stroke:#181818;stroke-width:0.5;" width="432.9502" x="7" y="218.1869"/><ellipse cx="160.3472" cy="234.1869" fill="#ADD1B2" rx="11" ry="11" style="stroke:#181818;stroke-width:1;"/><path d="M163.3159,239.8275 Q162.7378,240.1244 162.0972,240.265 Q161.4565,240.4213 160.7534,240.4213 Q158.2534,240.4213 156.9253,238.7806 Q155.6128,237.1244 155.6128,233.9994 Q155.6128,230.8744 156.9253,229.2181 Q158.2534,227.5619 160.7534,227.5619 Q161.4565,227.5619 162.0972,227.7181 Q162.7534,227.8744 163.3159,228.1713 L163.3159,230.89 Q162.6909,230.3119 162.0972,230.0463 Q161.5034,229.765 160.8784,229.765 Q159.5347,229.765 158.8472,230.8431 Q158.1597,231.9056 158.1597,233.9994 Q158.1597,236.0931 158.8472,237.1713 Q159.5347,238.2338 160.8784,238.2338 Q161.5034,238.2338 162.0972,237.9681 Q162.6909,237.6869 163.3159,237.1088 L163.3159,239.8275 Z " fill="#000000"/><text fill="#000000" font-family="sans-serif" font-size="14" lengthAdjust="spacing" textLength="117.7559" x="180.8472" y="239.0336">LIN_0290_msg_1</text><line style="stroke:#181818;stroke-width:0.5;" x1="8" x2="438.9502" y1="250.1869" y2="250.1869"/><text fill="#000000" font-family="sans-serif" font-size="14" lengthAdjust="spacing" textLength="172.0264" x="13" y="267.182">Nachricht: MSCONS 2.4c</text><text fill="#000000" font-family="sans-serif" font-size="14" lengthAdjust="spacing" textLength="204.1143" x="13" y="283.4789">Kontext: Nachrichtenstruktur</text><text fill="#000000" font-family="sans-serif" font-size="14" lengthAdjust="spacing" textLength="91.4033" x="13" y="299.7757">Pflichtfeld: Ja</text><text fill="#000000" font-family="sans-serif" font-size="14" lengthAdjust="spacing" textLength="184.4678" x="13" y="316.0726">Codes: 07, 26, 53, LIN, UN</text><text fill="#000000" font-family="sans-serif" font-size="14" lengthAdjust="spacing" textLength="405.4463" x="13" y="332.3695">Prozesse: Anforderung und &#220;bermittlung von Messwerten</text><text fill="#000000" font-family="sans-serif" font-size="14" lengthAdjust="spacing" textLength="420.9502" x="13" y="348.6664">Quelle: MSCONS_MIG_2_4c_au&#223;erordentliche_20240726.pdf</text><line style="stroke:#181818;stroke-width:0.5;" x1="8" x2="438.9502" y1="355.9681" y2="355.9681"/></g><!--class LIN_0290_proc_1--><g class="entity" data-entity="LIN_0290_proc_1" data-source-line="16" data-uid="ent0005" id="entity_LIN_0290_proc_1"><rect fill="#F1F1F1" height="105.1563" rx="2.5" ry="2.5" style="stroke:#181818;stroke-width:0.5;" width="378.2285" x="475.36" y="238.4969"/><ellipse cx="600.8029" cy="258.6297" fill="#ADD1B2" rx="11" ry="11" style="stroke:#181818;stroke-width:1;"/><path d="M603.7716,264.2703 Q603.1935,264.5672 602.5529,264.7078 Q601.9122,264.8641 601.2091,264.8641 Q598.7091,264.8641 597.381,263.2234 Q596.0685,261.5672 596.0685,258.4422 Q596.0685,255.3172 597.381,253.6609 Q598.7091,252.0047 601.2091,252.0047 Q601.9122,252.0047 602.5529,252.1609 Q603.2091,252.3172 603.7716,252.6141 L603.7716,255.3328 Q603.1466,254.7547 602.5529,254.4891 Q601.9591,254.2078 601.3341,254.2078 Q599.9904,254.2078 599.3029,255.2859 Q598.6154,256.3484 598.6154,258.4422 Q598.6154,260.5359 599.3029,261.6141 Q599.9904,262.6766 601.3341,262.6766 Q601.9591,262.6766 602.5529,262.4109 Q603.1466,262.1297 603.7716,261.5516 L603.7716,264.2703 Z " fill="#000000"/><text fill="#000000" font-family="sans-serif" font-size="12" font-style="italic" lengthAdjust="spacing" textLength="61.0605" x="650.194" y="254.6355">&#171;process&#187;</text><text fill="#000000" font-family="sans-serif" font-size="14" lengthAdjust="spacing" textLength="118.8428" x="621.3029" y="270.4607">LIN_0290_proc_1</text><line style="stroke:#181818;stroke-width:0.5;" x1="476.36" x2="852.5885" y1="278.7625" y2="278.7625"/><text fill="#000000" font-family="sans-serif" font-size="14" lengthAdjust="spacing" textLength="334.3525" x="481.36" y="295.7576">Anforderung und &#220;bermittlung von Messwerten</text><text fill="#000000" font-family="sans-serif" font-size="14" lengthAdjust="spacing" textLength="105.0957" x="481.36" y="312.0545">Gesetze: MsbG</text><line style="stroke:#181818;stroke-width:0.5;" x1="476.36" x2="852.5885" y1="319.3563" y2="319.3563"/><text fill="#000000" font-family="sans-serif" font-size="14" lengthAdjust="spacing" textLength="366.2285" x="481.36" y="336.3514">Zusammenfassung: Wie kann ein Marktpartner (z.B.</text></g><!--link LIN_0290 to LIN_0290_msg_1--><g class="link" data-entity-1="LIN_0290" data-entity-2="LIN_0290_msg_1" data-source-line="15" data-uid="lnk4" id="link_LIN_0290_LIN_0290_msg_1"><path codeLine="15" d="M389.94,141.5169 C364.25,164.4469 337.3967,188.412 308.8767,213.862" fill="none" id="LIN_0290-to-LIN_0290_msg_1" style="stroke:#181818;stroke-width:1;"/><polygon fill="#181818" points="304.4,217.8569,313.7783,214.8491,308.1306,214.5278,308.4519,208.8801,304.4,217.8569" style="stroke:#181818;stroke-width:1;"/><text fill="#000000" font-family="sans-serif" font-size="13" lengthAdjust="spacing" textLength="85.2363" x="354.48" y="184.2538">verwendet in</text></g><!--link LIN_0290 to LIN_0290_proc_1--><g class="link" data-entity-1="LIN_0290" data-entity-2="LIN_0290_proc_1" data-source-line="21" data-uid="lnk6" id="link_LIN_0290_LIN_0290_proc_1"><path codeLine="21" d="M497.26,141.5169 C530.22,170.8069 567.9343,204.3121 601.6943,234.3021" fill="none" id="LIN_0290-to-LIN_0290_proc_1" style="stroke:#181818;stroke-width:1;stroke-dasharray:7,7;"/><polygon fill="#181818" points="606.18,238.2869,602.108,229.3192,602.4419,234.9662,596.7949,235.3002,606.18,238.2869" style="stroke:#181818;stroke-width:1;"/><text fill="#000000" font-family="sans-serif" font-size="13" lengthAdjust="spacing" textLength="91.6221" x="547.48" y="184.2538">eingebettet in</text></g><!--SRC=[bP31JW8n48RlFCKSFIoRTKM83Tb4CI6eh1fYJBmqPNSM6hejQMV1O7mJ4n-65xCbIWYUkCt_TwR_DqEI5CAj8DI2b73GXeTHpfBqAcaLNhiWUP3mqGB8HOqCL5N6y6IS96cqTv-isQ1po7mD_eThNHbRectq31fTmlPhYhQMH2euAwDXxDlNQ7rgw_CeXzTkniz_qugvbSMS68mdWyTy0cdSAVp3lT64xzxUTw1sP9i5DJRmL2fu5QgImPtmpi2Kw1WalGZIRWIN5r78Y-0bFyG_3HpWkK6by0-EZqT3dl9EmKMp_KORVj8KI92dITf9UcatNfQLttX_qtOxErwSmGhj6dM9158V7sTfJU6R-lrGU9OisrtgHF0XEgHD87VJeTTlZHDrZRhoMNw0mQj4M0Yj0QKV5NP1Is59euMpJNmJ7wuGnza_F1RcPZX5ejqMFm00]--></g></svg>