<svg xmlns="http://www.w3.org/2000/svg" xmlns:xlink="http://www.w3.org/1999/xlink" contentStyleType="text/css" data-diagram-type="CLASS" height="370px" preserveAspectRatio="none" style="width:860px;height:370px;background:#FFFFFF;" version="1.1" viewBox="0 0 860 370" width="860px" zoomAndPan="magnify"><title>Datenatlas - LOC:3223</title><defs/><g><g class="title" data-source-line="1"><text fill="#000000" font-family="sans-serif" font-size="14" font-weight="bold" lengthAdjust="spacing" textLength="177.1602" x="334.7142" y="22.9951">Datenatlas - LOC:3223</text></g><!--class LOC_3223--><g class="entity" data-entity="LOC_3223" data-source-line="2" data-uid="ent0002" id="entity_LOC_3223"><rect fill="#F1F1F1" height="96.8906" rx="2.5" ry="2.5" style="stroke:#181818;stroke-width:0.5;" width="360.3525" x="263.3" y="44.2969"/><ellipse cx="403.6145" cy="60.2969" fill="#ADD1B2" rx="11" ry="11" style="stroke:#181818;stroke-width:1;"/><path d="M406.5832,65.9375 Q406.0051,66.2344 405.3645,66.375 Q404.7238,66.5313 404.0207,66.5313 Q401.5207,66.5313 400.1926,64.8906 Q398.8801,63.2344 398.8801,60.1094 Q398.8801,56.9844 400.1926,55.3281 Q401.5207,53.6719 404.0207,53.6719 Q404.7238,53.6719 405.3645,53.8281 Q406.0207,53.9844 406.5832,54.2813 L406.5832,57 Q405.9582,56.4219 405.3645,56.1563 Q404.7707,55.875 404.1457,55.875 Q402.802,55.875 402.1145,56.9531 Q401.427,58.0156 401.427,60.1094 Q401.427,62.2031 402.1145,63.2813 Q402.802,64.3438 404.1457,64.3438 Q404.7707,64.3438 405.3645,64.0781 Q405.9582,63.7969 406.5832,63.2188 L406.5832,65.9375 Z " fill="#000000"/><text fill="#000000" font-family="sans-serif" font-size="14" lengthAdjust="spacing" textLength="71.2236" x="424.1145" y="65.1436">LOC_3223</text><line style="stroke:#181818;stroke-width:0.5;" x1="264.3" x2="622.6525" y1="76.2969" y2="76.2969"/><text fill="#000000" font-family="sans-serif" font-size="14" lengthAdjust="spacing" textLength="290.6572" x="283.3" y="93.292">Name: Erster zugeh&#246;riger Platz/Ort, Code</text><text fill="#000000" font-family="sans-serif" font-size="14" lengthAdjust="spacing" textLength="66.6436" x="283.3" y="109.5889">Prozesse:</text><rect fill="none" height="6" style="stroke:#C82930;stroke-width:1;" width="6" x="271.3" y="119.5391"/><text fill="#000000" font-family="sans-serif" font-size="14" lengthAdjust="spacing" textLength="334.3525" x="283.3" y="125.8857">Anforderung und &#220;bermittlung von Messwerten</text><line style="stroke:#181818;stroke-width:0.5;" x1="264.3" x2="622.6525" y1="133.1875" y2="133.1875"/></g><!--class LOC_3223_msg_1--><g class="entity" data-entity="LOC_3223_msg_1" data-source-line="7" data-uid="ent0003" id="entity_LOC_3223_msg_1"><rect fill="#F1F1F1" height="145.7813" rx="2.5" ry="2.5" style="stroke:#181818;stroke-width:0.5;" width="432.9502" x="7" y="218.1869"/><ellipse cx="157.2505" cy="234.1869" fill="#ADD1B2" rx="11" ry="11" style="stroke:#181818;stroke-width:1;"/><path d="M160.2192,239.8275 Q159.6411,240.1244 159.0005,240.265 Q158.3599,240.4213 157.6567,240.4213 Q155.1567,240.4213 153.8286,238.7806 Q152.5161,237.1244 152.5161,233.9994 Q152.5161,230.8744 153.8286,229.2181 Q155.1567,227.5619 157.6567,227.5619 Q158.3599,227.5619 159.0005,227.7181 Q159.6567,227.8744 160.2192,228.1713 L160.2192,230.89 Q159.5942,230.3119 159.0005,230.0463 Q158.4067,229.765 157.7817,229.765 Q156.438,229.765 155.7505,230.8431 Q155.063,231.9056 155.063,233.9994 Q155.063,236.0931 155.7505,237.1713 Q156.438,238.2338 157.7817,238.2338 Q158.4067,238.2338 159.0005,237.9681 Q159.5942,237.6869 160.2192,237.1088 L160.2192,239.8275 Z " fill="#000000"/><text fill="#000000" font-family="sans-serif" font-size="14" lengthAdjust="spacing" textLength="123.9492" x="177.7505" y="239.0336">LOC_3223_msg_1</text><line style="stroke:#181818;stroke-width:0.5;" x1="8" x2="438.9502" y1="250.1869" y2="250.1869"/><text fill="#000000" font-family="sans-serif" font-size="14" lengthAdjust="spacing" textLength="172.0264" x="13" y="267.182">Nachricht: MSCONS 2.4c</text><text fill="#000000" font-family="sans-serif" font-size="14" lengthAdjust="spacing" textLength="170.3447" x="13" y="283.4789">Kontext: Segmentlayout</text><text fill="#000000" font-family="sans-serif" font-size="14" lengthAdjust="spacing" textLength="91.4033" x="13" y="299.7757">Pflichtfeld: Ja</text><text fill="#000000" font-family="sans-serif" font-size="14" lengthAdjust="spacing" textLength="284.457" x="13" y="316.0726">Codes: 237, 25, 35, LOC, OCR, SG5, SG6</text><text fill="#000000" font-family="sans-serif" font-size="14" lengthAdjust="spacing" textLength="405.4463" x="13" y="332.3695">Prozesse: Anforderung und &#220;bermittlung von Messwerten</text><text fill="#000000" font-family="sans-serif" font-size="14" lengthAdjust="spacing" textLength="420.9502" x="13" y="348.6664">Quelle: MSCONS_MIG_2_4c_au&#223;erordentliche_20240726.pdf</text><line style="stroke:#181818;stroke-width:0.5;" x1="8" x2="438.9502" y1="355.9681" y2="355.9681"/></g><!--class LOC_3223_proc_1--><g class="entity" data-entity="LOC_3223_proc_1" data-source-line="16" data-uid="ent0005" id="entity_LOC_3223_proc_1"><rect fill="#F1F1F1" height="105.1563" rx="2.5" ry="2.5" style="stroke:#181818;stroke-width:0.5;" width="378.2285" x="475.36" y="238.4969"/><ellipse cx="597.7062" cy="258.6297" fill="#ADD1B2" rx="11" ry="11" style="stroke:#181818;stroke-width:1;"/><path d="M600.6749,264.2703 Q600.0968,264.5672 599.4562,264.7078 Q598.8156,264.8641 598.1124,264.8641 Q595.6124,264.8641 594.2843,263.2234 Q592.9718,261.5672 592.9718,258.4422 Q592.9718,255.3172 594.2843,253.6609 Q595.6124,252.0047 598.1124,252.0047 Q598.8156,252.0047 599.4562,252.1609 Q600.1124,252.3172 600.6749,252.6141 L600.6749,255.3328 Q600.0499,254.7547 599.4562,254.4891 Q598.8624,254.2078 598.2374,254.2078 Q596.8937,254.2078 596.2062,255.2859 Q595.5187,256.3484 595.5187,258.4422 Q595.5187,260.5359 596.2062,261.6141 Q596.8937,262.6766 598.2374,262.6766 Q598.8624,262.6766 599.4562,262.4109 Q600.0499,262.1297 600.6749,261.5516 L600.6749,264.2703 Z " fill="#000000"/><text fill="#000000" font-family="sans-serif" font-size="12" font-style="italic" lengthAdjust="spacing" textLength="61.0605" x="650.194" y="254.6355">&#171;process&#187;</text><text fill="#000000" font-family="sans-serif" font-size="14" lengthAdjust="spacing" textLength="125.0361" x="618.2062" y="270.4607">LOC_3223_proc_1</text><line style="stroke:#181818;stroke-width:0.5;" x1="476.36" x2="852.5885" y1="278.7625" y2="278.7625"/><text fill="#000000" font-family="sans-serif" font-size="14" lengthAdjust="spacing" textLength="334.3525" x="481.36" y="295.7576">Anforderung und &#220;bermittlung von Messwerten</text><text fill="#000000" font-family="sans-serif" font-size="14" lengthAdjust="spacing" textLength="105.0957" x="481.36" y="312.0545">Gesetze: MsbG</text><line style="stroke:#181818;stroke-width:0.5;" x1="476.36" x2="852.5885" y1="319.3563" y2="319.3563"/><text fill="#000000" font-family="sans-serif" font-size="14" lengthAdjust="spacing" textLength="366.2285" x="481.36" y="336.3514">Zusammenfassung: Wie kann ein Marktpartner (z.B.</text></g><!--link LOC_3223 to LOC_3223_msg_1--><g class="link" data-entity-1="LOC_3223" data-entity-2="LOC_3223_msg_1" data-source-line="15" data-uid="lnk4" id="link_LOC_3223_LOC_3223_msg_1"><path codeLine="15" d="M389.94,141.5169 C364.25,164.4469 337.3967,188.412 308.8767,213.862" fill="none" id="LOC_3223-to-LOC_3223_msg_1" style="stroke:#181818;stroke-width:1;"/><polygon fill="#181818" points="304.4,217.8569,313.7783,214.8491,308.1306,214.5278,308.4519,208.8801,304.4,217.8569" style="stroke:#181818;stroke-width:1;"/><text fill="#000000" font-family="sans-serif" font-size="13" lengthAdjust="spacing" textLength="85.2363" x="354.48" y="184.2538">verwendet in</text></g><!--link LOC_3223 to LOC_3223_proc_1--><g class="link" data-entity-1="LOC_3223" data-entity-2="LOC_3223_proc_1" data-source-line="21" data-uid="lnk6" id="link_LOC_3223_LOC_3223_proc_1"><path codeLine="21" d="M497.26,141.5169 C530.22,170.8069 567.9343,204.3121 601.6943,234.3021" fill="none" id="LOC_3223-to-LOC_3223_proc_1" style="stroke:#181818;stroke-width:1;stroke-dasharray:7,7;"/><polygon fill="#181818" points="606.18,238.2869,602.108,229.3192,602.4419,234.9662,596.7949,235.3002,606.18,238.2869" style="stroke:#181818;stroke-width:1;"/><text fill="#000000" font-family="sans-serif" font-size="13" lengthAdjust="spacing" textLength="91.6221" x="547.48" y="184.2538">eingebettet in</text></g><!--SRC=[bP9BJiCm48RtFSKiMQIXk0yagwe41LKy-e0iaDX4RZ99eoPEPKzQ2E8cIDo22_HYZ2j0LLbrOSl_UCRp_IDJHZd2bIBKYd9beGdtqw5i2z5kHAojaw6JyDO0cAW29LmRIsYWhb9SRBzCbhAOvOhgqwaX3uPbZ9mxCsMDrgBaC_2x5pefJOocqYbKEeRjnnnDaH7bBh8kDOmvVOE6MHhl1zt3mgRXsGz3j31Pj209us0udGGW_4x45tUb9dpXS81fWPhjl9OLEP8aT_a9vh64MyKHXsWbYFQv1wBhGPiNj_9WEdpq81XrtTRRDt4SFi13XNcEluZX-6OKYh0JXQhQVg9nBp4WKs4eMgBJEXSzVnKdxFjltitcuD2-X3MQ3UeO2J9zEAALAIDEwlVTWLa6WzsyZWGVeKMg7RcTZrW_LrOLFCw4Ut61XASCOQcq1iouL9abhPGXpN_WfFOl_NqBlZ_uXoTTNOfp9Dgv-0O0]--></g></svg>