<svg xmlns="http://www.w3.org/2000/svg" xmlns:xlink="http://www.w3.org/1999/xlink" contentStyleType="text/css" data-diagram-type="CLASS" height="387px" preserveAspectRatio="none" style="width:2552px;height:387px;background:#FFFFFF;" version="1.1" viewBox="0 0 2552 387" width="2552px" zoomAndPan="magnify"><title>Datenatlas - LOC:00029</title><defs/><g><g class="title" data-source-line="1"><text fill="#000000" font-family="sans-serif" font-size="14" font-weight="bold" lengthAdjust="spacing" textLength="186.9014" x="1176.0131" y="22.9951">Datenatlas - LOC:00029</text></g><!--class LOC_00029--><g class="entity" data-entity="LOC_00029" data-source-line="2" data-uid="ent0002" id="entity_LOC_00029"><rect fill="#F1F1F1" height="113.1875" rx="2.5" ry="2.5" style="stroke:#181818;stroke-width:0.5;" width="249.2822" x="990.17" y="44.2969"/><ellipse cx="1070.4957" cy="60.2969" fill="#ADD1B2" rx="11" ry="11" style="stroke:#181818;stroke-width:1;"/><path d="M1073.4644,65.9375 Q1072.8863,66.2344 1072.2457,66.375 Q1071.6051,66.5313 1070.9019,66.5313 Q1068.4019,66.5313 1067.0738,64.8906 Q1065.7613,63.2344 1065.7613,60.1094 Q1065.7613,56.9844 1067.0738,55.3281 Q1068.4019,53.6719 1070.9019,53.6719 Q1071.6051,53.6719 1072.2457,53.8281 Q1072.9019,53.9844 1073.4644,54.2813 L1073.4644,57 Q1072.8394,56.4219 1072.2457,56.1563 Q1071.6519,55.875 1071.0269,55.875 Q1069.6832,55.875 1068.9957,56.9531 Q1068.3082,58.0156 1068.3082,60.1094 Q1068.3082,62.2031 1068.9957,63.2813 Q1069.6832,64.3438 1071.0269,64.3438 Q1071.6519,64.3438 1072.2457,64.0781 Q1072.8394,63.7969 1073.4644,63.2188 L1073.4644,65.9375 Z " fill="#000000"/><text fill="#000000" font-family="sans-serif" font-size="14" lengthAdjust="spacing" textLength="80.1309" x="1090.9957" y="65.1436">LOC_00029</text><line style="stroke:#181818;stroke-width:0.5;" x1="991.17" x2="1238.4522" y1="76.2969" y2="76.2969"/><text fill="#000000" font-family="sans-serif" font-size="14" lengthAdjust="spacing" textLength="132.7813" x="1010.17" y="93.292">Name: Meldepunkt</text><text fill="#000000" font-family="sans-serif" font-size="14" lengthAdjust="spacing" textLength="66.6436" x="1010.17" y="109.5889">Prozesse:</text><rect fill="none" height="6" style="stroke:#C82930;stroke-width:1;" width="6" x="998.17" y="119.5391"/><text fill="#000000" font-family="sans-serif" font-size="14" lengthAdjust="spacing" textLength="180.3457" x="1010.17" y="125.8857">Netznutzungsabrechnung</text><rect fill="none" height="6" style="stroke:#C82930;stroke-width:1;" width="6" x="998.17" y="135.8359"/><text fill="#000000" font-family="sans-serif" font-size="14" lengthAdjust="spacing" textLength="223.2822" x="1010.17" y="142.1826">Messstellenbetriebsabrechnung</text><line style="stroke:#181818;stroke-width:0.5;" x1="991.17" x2="1238.4522" y1="149.4844" y2="149.4844"/></g><!--class LOC_00029_msg_1--><g class="entity" data-entity="LOC_00029_msg_1" data-source-line="8" data-uid="ent0003" id="entity_LOC_00029_msg_1"><rect fill="#F1F1F1" height="145.7813" rx="2.5" ry="2.5" style="stroke:#181818;stroke-width:0.5;" width="495.6221" x="7" y="234.4869"/><ellipse cx="184.1328" cy="250.4869" fill="#ADD1B2" rx="11" ry="11" style="stroke:#181818;stroke-width:1;"/><path d="M187.1016,256.1275 Q186.5234,256.4244 185.8828,256.565 Q185.2422,256.7213 184.5391,256.7213 Q182.0391,256.7213 180.7109,255.0806 Q179.3984,253.4244 179.3984,250.2994 Q179.3984,247.1744 180.7109,245.5181 Q182.0391,243.8619 184.5391,243.8619 Q185.2422,243.8619 185.8828,244.0181 Q186.5391,244.1744 187.1016,244.4713 L187.1016,247.19 Q186.4766,246.6119 185.8828,246.3463 Q185.2891,246.065 184.6641,246.065 Q183.3203,246.065 182.6328,247.1431 Q181.9453,248.2056 181.9453,250.2994 Q181.9453,252.3931 182.6328,253.4713 Q183.3203,254.5338 184.6641,254.5338 Q185.2891,254.5338 185.8828,254.2681 Q186.4766,253.9869 187.1016,253.4088 L187.1016,256.1275 Z " fill="#000000"/><text fill="#000000" font-family="sans-serif" font-size="14" lengthAdjust="spacing" textLength="132.8564" x="204.6328" y="255.3336">LOC_00029_msg_1</text><line style="stroke:#181818;stroke-width:0.5;" x1="8" x2="501.6221" y1="266.4869" y2="266.4869"/><text fill="#000000" font-family="sans-serif" font-size="14" lengthAdjust="spacing" textLength="161.1982" x="13" y="283.482">Nachricht: INVOIC 2.8d</text><text fill="#000000" font-family="sans-serif" font-size="14" lengthAdjust="spacing" textLength="204.1143" x="13" y="299.7789">Kontext: Nachrichtenstruktur</text><text fill="#000000" font-family="sans-serif" font-size="14" lengthAdjust="spacing" textLength="110.5439" x="13" y="316.0757">Pflichtfeld: Nein</text><text fill="#000000" font-family="sans-serif" font-size="14" lengthAdjust="spacing" textLength="171.8691" x="13" y="332.3726">Codes: 25, 99, LOC, SG2</text><text fill="#000000" font-family="sans-serif" font-size="14" lengthAdjust="spacing" textLength="483.6221" x="13" y="348.6695">Prozesse: Netznutzungsabrechnung, Messstellenbetriebsabrechnung</text><text fill="#000000" font-family="sans-serif" font-size="14" lengthAdjust="spacing" textLength="396.6074" x="13" y="364.9664">Quelle: INVOIC_MIG_2.8d_Fehlerkorrektur_20250131.pdf</text><line style="stroke:#181818;stroke-width:0.5;" x1="8" x2="501.6221" y1="372.2681" y2="372.2681"/></g><!--class LOC_00029_msg_2--><g class="entity" data-entity="LOC_00029_msg_2" data-source-line="17" data-uid="ent0005" id="entity_LOC_00029_msg_2"><rect fill="#F1F1F1" height="145.7813" rx="2.5" ry="2.5" style="stroke:#181818;stroke-width:0.5;" width="495.6221" x="538" y="234.4869"/><ellipse cx="715.1328" cy="250.4869" fill="#ADD1B2" rx="11" ry="11" style="stroke:#181818;stroke-width:1;"/><path d="M718.1016,256.1275 Q717.5234,256.4244 716.8828,256.565 Q716.2422,256.7213 715.5391,256.7213 Q713.0391,256.7213 711.7109,255.0806 Q710.3984,253.4244 710.3984,250.2994 Q710.3984,247.1744 711.7109,245.5181 Q713.0391,243.8619 715.5391,243.8619 Q716.2422,243.8619 716.8828,244.0181 Q717.5391,244.1744 718.1016,244.4713 L718.1016,247.19 Q717.4766,246.6119 716.8828,246.3463 Q716.2891,246.065 715.6641,246.065 Q714.3203,246.065 713.6328,247.1431 Q712.9453,248.2056 712.9453,250.2994 Q712.9453,252.3931 713.6328,253.4713 Q714.3203,254.5338 715.6641,254.5338 Q716.2891,254.5338 716.8828,254.2681 Q717.4766,253.9869 718.1016,253.4088 L718.1016,256.1275 Z " fill="#000000"/><text fill="#000000" font-family="sans-serif" font-size="14" lengthAdjust="spacing" textLength="132.8564" x="735.6328" y="255.3336">LOC_00029_msg_2</text><line style="stroke:#181818;stroke-width:0.5;" x1="539" x2="1032.6221" y1="266.4869" y2="266.4869"/><text fill="#000000" font-family="sans-serif" font-size="14" lengthAdjust="spacing" textLength="165.6484" x="544" y="283.482">Nachricht: INVOIC 2.8d.</text><text fill="#000000" font-family="sans-serif" font-size="14" lengthAdjust="spacing" textLength="204.1143" x="544" y="299.7789">Kontext: Nachrichtenstruktur</text><text fill="#000000" font-family="sans-serif" font-size="14" lengthAdjust="spacing" textLength="110.5439" x="544" y="316.0757">Pflichtfeld: Nein</text><text fill="#000000" font-family="sans-serif" font-size="14" lengthAdjust="spacing" textLength="171.8691" x="544" y="332.3726">Codes: 25, 99, LOC, SG2</text><text fill="#000000" font-family="sans-serif" font-size="14" lengthAdjust="spacing" textLength="483.6221" x="544" y="348.6695">Prozesse: Netznutzungsabrechnung, Messstellenbetriebsabrechnung</text><text fill="#000000" font-family="sans-serif" font-size="14" lengthAdjust="spacing" textLength="290.3359" x="544" y="364.9664">Quelle: INVOIC_MIG_2_8d__20240619.pdf</text><line style="stroke:#181818;stroke-width:0.5;" x1="539" x2="1032.6221" y1="372.2681" y2="372.2681"/></g><!--class LOC_00029_proc_1--><g class="entity" data-entity="LOC_00029_proc_1" data-source-line="26" data-uid="ent0007" id="entity_LOC_00029_proc_1"><rect fill="#F1F1F1" height="105.1563" rx="2.5" ry="2.5" style="stroke:#181818;stroke-width:0.5;" width="752.6465" x="1068.49" y="254.7969"/><ellipse cx="1373.5916" cy="274.9297" fill="#ADD1B2" rx="11" ry="11" style="stroke:#181818;stroke-width:1;"/><path d="M1376.5603,280.5703 Q1375.9822,280.8672 1375.3416,281.0078 Q1374.7009,281.1641 1373.9978,281.1641 Q1371.4978,281.1641 1370.1697,279.5234 Q1368.8572,277.8672 1368.8572,274.7422 Q1368.8572,271.6172 1370.1697,269.9609 Q1371.4978,268.3047 1373.9978,268.3047 Q1374.7009,268.3047 1375.3416,268.4609 Q1375.9978,268.6172 1376.5603,268.9141 L1376.5603,271.6328 Q1375.9353,271.0547 1375.3416,270.7891 Q1374.7478,270.5078 1374.1228,270.5078 Q1372.7791,270.5078 1372.0916,271.5859 Q1371.4041,272.6484 1371.4041,274.7422 Q1371.4041,276.8359 1372.0916,277.9141 Q1372.7791,278.9766 1374.1228,278.9766 Q1374.7478,278.9766 1375.3416,278.7109 Q1375.9353,278.4297 1376.5603,277.8516 L1376.5603,280.5703 Z " fill="#000000"/><text fill="#000000" font-family="sans-serif" font-size="12" font-style="italic" lengthAdjust="spacing" textLength="61.0605" x="1430.533" y="270.9355">&#171;process&#187;</text><text fill="#000000" font-family="sans-serif" font-size="14" lengthAdjust="spacing" textLength="133.9434" x="1394.0916" y="286.7607">LOC_00029_proc_1</text><line style="stroke:#181818;stroke-width:0.5;" x1="1069.49" x2="1820.1365" y1="295.0625" y2="295.0625"/><text fill="#000000" font-family="sans-serif" font-size="14" lengthAdjust="spacing" textLength="180.3457" x="1074.49" y="312.0576">Netznutzungsabrechnung</text><text fill="#000000" font-family="sans-serif" font-size="14" lengthAdjust="spacing" textLength="218.0938" x="1074.49" y="328.3545">Gesetze: StromNEV, StromNZV</text><text fill="#000000" font-family="sans-serif" font-size="14" lengthAdjust="spacing" textLength="740.6465" x="1074.49" y="344.6514">Zusammenfassung: Wie funktioniert die Netznutzungsabrechnung zwischen Netzbetreiber und Lieferant?</text><line style="stroke:#181818;stroke-width:0.5;" x1="1069.49" x2="1820.1365" y1="351.9531" y2="351.9531"/></g><!--class LOC_00029_proc_2--><g class="entity" data-entity="LOC_00029_proc_2" data-source-line="32" data-uid="ent0009" id="entity_LOC_00029_proc_2"><rect fill="#F1F1F1" height="105.1563" rx="2.5" ry="2.5" style="stroke:#181818;stroke-width:0.5;" width="690.2275" x="1855.7" y="254.7969"/><ellipse cx="2129.5921" cy="274.9297" fill="#ADD1B2" rx="11" ry="11" style="stroke:#181818;stroke-width:1;"/><path d="M2132.5608,280.5703 Q2131.9827,280.8672 2131.3421,281.0078 Q2130.7015,281.1641 2129.9983,281.1641 Q2127.4983,281.1641 2126.1702,279.5234 Q2124.8577,277.8672 2124.8577,274.7422 Q2124.8577,271.6172 2126.1702,269.9609 Q2127.4983,268.3047 2129.9983,268.3047 Q2130.7015,268.3047 2131.3421,268.4609 Q2131.9983,268.6172 2132.5608,268.9141 L2132.5608,271.6328 Q2131.9358,271.0547 2131.3421,270.7891 Q2130.7483,270.5078 2130.1233,270.5078 Q2128.7796,270.5078 2128.0921,271.5859 Q2127.4046,272.6484 2127.4046,274.7422 Q2127.4046,276.8359 2128.0921,277.9141 Q2128.7796,278.9766 2130.1233,278.9766 Q2130.7483,278.9766 2131.3421,278.7109 Q2131.9358,278.4297 2132.5608,277.8516 L2132.5608,280.5703 Z " fill="#000000"/><text fill="#000000" font-family="sans-serif" font-size="12" font-style="italic" lengthAdjust="spacing" textLength="61.0605" x="2186.5335" y="270.9355">&#171;process&#187;</text><text fill="#000000" font-family="sans-serif" font-size="14" lengthAdjust="spacing" textLength="133.9434" x="2150.0921" y="286.7607">LOC_00029_proc_2</text><line style="stroke:#181818;stroke-width:0.5;" x1="1856.7" x2="2544.9275" y1="295.0625" y2="295.0625"/><text fill="#000000" font-family="sans-serif" font-size="14" lengthAdjust="spacing" textLength="223.2822" x="1861.7" y="312.0576">Messstellenbetriebsabrechnung</text><text fill="#000000" font-family="sans-serif" font-size="14" lengthAdjust="spacing" textLength="105.0957" x="1861.7" y="328.3545">Gesetze: MsbG</text><text fill="#000000" font-family="sans-serif" font-size="14" lengthAdjust="spacing" textLength="678.2275" x="1861.7" y="344.6514">Zusammenfassung: Beschreibe den Prozess der Abrechnung von Messstellenbetriebsleistungen.</text><line style="stroke:#181818;stroke-width:0.5;" x1="1856.7" x2="2544.9275" y1="351.9531" y2="351.9531"/></g><!--link LOC_00029 to LOC_00029_msg_1--><g class="link" data-entity-1="LOC_00029" data-entity-2="LOC_00029_msg_1" data-source-line="16" data-uid="lnk4" id="link_LOC_00029_LOC_00029_msg_1"><path codeLine="16" d="M989.86,128.0969 C869.39,153.7669 682.13,194.6969 520.81,234.4869 C514.89,235.9469 514.7186,235.9726 508.6786,237.4926" fill="none" id="LOC_00029-to-LOC_00029_msg_1" style="stroke:#181818;stroke-width:1;"/><polygon fill="#181818" points="502.86,238.9569,512.5641,240.6395,507.7088,237.7366,510.6117,232.8814,502.86,238.9569" style="stroke:#181818;stroke-width:1;"/><text fill="#000000" font-family="sans-serif" font-size="13" lengthAdjust="spacing" textLength="85.2363" x="717.81" y="200.5538">verwendet in</text></g><!--link LOC_00029 to LOC_00029_msg_2--><g class="link" data-entity-1="LOC_00029" data-entity-2="LOC_00029_msg_2" data-source-line="25" data-uid="lnk6" id="link_LOC_00029_LOC_00029_msg_2"><path codeLine="25" d="M1024.91,157.7669 C987.05,181.2969 947.5959,205.8196 907.2759,230.8796" fill="none" id="LOC_00029-to-LOC_00029_msg_2" style="stroke:#181818;stroke-width:1;"/><polygon fill="#181818" points="902.18,234.0469,911.9354,232.6933,906.4266,231.4075,907.7124,225.8987,902.18,234.0469" style="stroke:#181818;stroke-width:1;"/><text fill="#000000" font-family="sans-serif" font-size="13" lengthAdjust="spacing" textLength="85.2363" x="971.81" y="200.5538">verwendet in</text></g><!--link LOC_00029 to LOC_00029_proc_1--><g class="link" data-entity-1="LOC_00029" data-entity-2="LOC_00029_proc_1" data-source-line="31" data-uid="lnk8" id="link_LOC_00029_LOC_00029_proc_1"><path codeLine="31" d="M1204.98,157.7669 C1253.65,187.9169 1308.2295,221.747 1355.8795,251.267" fill="none" id="LOC_00029-to-LOC_00029_proc_1" style="stroke:#181818;stroke-width:1;stroke-dasharray:7,7;"/><polygon fill="#181818" points="1360.98,254.4269,1355.4358,246.2867,1356.7296,251.7937,1351.2226,253.0874,1360.98,254.4269" style="stroke:#181818;stroke-width:1;"/><text fill="#000000" font-family="sans-serif" font-size="13" lengthAdjust="spacing" textLength="91.6221" x="1280.81" y="200.5538">eingebettet in</text></g><!--link LOC_00029 to LOC_00029_proc_2--><g class="link" data-entity-1="LOC_00029" data-entity-2="LOC_00029_proc_2" data-source-line="37" data-uid="lnk10" id="link_LOC_00029_LOC_00029_proc_2"><path codeLine="37" d="M1239.83,124.2069 C1384.23,150.1069 1628.88,194.4169 1838.81,234.4869 C1872.01,240.8269 1901.0125,246.4406 1935.4825,253.2106" fill="none" id="LOC_00029-to-LOC_00029_proc_2" style="stroke:#181818;stroke-width:1;stroke-dasharray:7,7;"/><polygon fill="#181818" points="1941.37,254.3669,1933.3096,248.7074,1936.4637,253.4033,1931.7678,256.5574,1941.37,254.3669" style="stroke:#181818;stroke-width:1;"/><text fill="#000000" font-family="sans-serif" font-size="13" lengthAdjust="spacing" textLength="91.6221" x="1661.81" y="200.5538">eingebettet in</text></g><!--SRC=[rPFTRjf048NlynJp0COocoOgLaJLqXQX198g4fLoO_dd6A-mrsXtd5HKVVVCKfe_ICXjxsRdZ7RETzPcpJNeQyemATUfenvTN8xYA8hKu2YNXlFdP7EctqT4ixH1J5FK1LQTMRAqhcoxXdE8fIQvO0PUcuxNdLcuDBF8AoFbLfpAf6FKDKm6jXhPqva_BtScZLia_UtclB8whpYcoMn-EHcH2ZyM8fotXl5BsWyJC8vjj-JEUdjbxNkbM9OHQ2EzKLl0nQHE0XeC0hykeEknUWhp2aPmW83eH-UrVoQJwMISUAF9TrGrxBAr5jvPeY9r4lMF- -6gA0NyCUPURxWJG4oti7Sm1PY4O5zAwesKmlyZfaHYyhbyY4xxWtVaeWxbih9jBkcTdVb230s7VqDwxGiTmuaahgxPjitisppOLZTpKMywbpODJ2bBP3wcdnfK-hz0jqR3CXNIs7yvhU-qookOZUuJWSvWgJC5NMYKiAdXJyzumt2uYnAJFCq2SW6_WQnsa0yznmFvr6NZVQnV8FOtfgaGYkq78BMbpu-KjwtPjwg6TYmwJ7W8KUqWtWC0]--></g></svg>