<svg xmlns="http://www.w3.org/2000/svg" xmlns:xlink="http://www.w3.org/1999/xlink" contentStyleType="text/css" data-diagram-type="CLASS" height="387px" preserveAspectRatio="none" style="width:2021px;height:387px;background:#FFFFFF;" version="1.1" viewBox="0 0 2021 387" width="2021px" zoomAndPan="magnify"><title>Datenatlas - MOA:1840</title><defs/><g><g class="title" data-source-line="1"><text fill="#000000" font-family="sans-serif" font-size="14" font-weight="bold" lengthAdjust="spacing" textLength="182.7314" x="912.598" y="22.9951">Datenatlas - MOA:1840</text></g><!--class MOA_1840--><g class="entity" data-entity="MOA_1840" data-source-line="2" data-uid="ent0002" id="entity_MOA_1840"><rect fill="#F1F1F1" height="113.1875" rx="2.5" ry="2.5" style="stroke:#181818;stroke-width:0.5;" width="392.4404" x="717.59" y="44.2969"/><ellipse cx="871.9079" cy="60.2969" fill="#ADD1B2" rx="11" ry="11" style="stroke:#181818;stroke-width:1;"/><path d="M874.8766,65.9375 Q874.2985,66.2344 873.6579,66.375 Q873.0172,66.5313 872.3141,66.5313 Q869.8141,66.5313 868.486,64.8906 Q867.1735,63.2344 867.1735,60.1094 Q867.1735,56.9844 868.486,55.3281 Q869.8141,53.6719 872.3141,53.6719 Q873.0172,53.6719 873.6579,53.8281 Q874.3141,53.9844 874.8766,54.2813 L874.8766,57 Q874.2516,56.4219 873.6579,56.1563 Q873.0641,55.875 872.4391,55.875 Q871.0954,55.875 870.4079,56.9531 Q869.7204,58.0156 869.7204,60.1094 Q869.7204,62.2031 870.4079,63.2813 Q871.0954,64.3438 872.4391,64.3438 Q873.0641,64.3438 873.6579,64.0781 Q874.2516,63.7969 874.8766,63.2188 L874.8766,65.9375 Z " fill="#000000"/><text fill="#000000" font-family="sans-serif" font-size="14" lengthAdjust="spacing" textLength="75.3047" x="892.4079" y="65.1436">MOA_1840</text><line style="stroke:#181818;stroke-width:0.5;" x1="718.59" x2="1109.0304" y1="76.2969" y2="76.2969"/><text fill="#000000" font-family="sans-serif" font-size="14" lengthAdjust="spacing" textLength="366.4404" x="737.59" y="93.292">Name: Bemessungsgrundlage des Gemeinderabatts</text><text fill="#000000" font-family="sans-serif" font-size="14" lengthAdjust="spacing" textLength="66.6436" x="737.59" y="109.5889">Prozesse:</text><rect fill="none" height="6" style="stroke:#C82930;stroke-width:1;" width="6" x="725.59" y="119.5391"/><text fill="#000000" font-family="sans-serif" font-size="14" lengthAdjust="spacing" textLength="180.3457" x="737.59" y="125.8857">Netznutzungsabrechnung</text><rect fill="none" height="6" style="stroke:#C82930;stroke-width:1;" width="6" x="725.59" y="135.8359"/><text fill="#000000" font-family="sans-serif" font-size="14" lengthAdjust="spacing" textLength="223.2822" x="737.59" y="142.1826">Messstellenbetriebsabrechnung</text><line style="stroke:#181818;stroke-width:0.5;" x1="718.59" x2="1109.0304" y1="149.4844" y2="149.4844"/></g><!--class MOA_1840_msg_1--><g class="entity" data-entity="MOA_1840_msg_1" data-source-line="8" data-uid="ent0003" id="entity_MOA_1840_msg_1"><rect fill="#F1F1F1" height="145.7813" rx="2.5" ry="2.5" style="stroke:#181818;stroke-width:0.5;" width="495.6221" x="7" y="234.4869"/><ellipse cx="186.5459" cy="250.4869" fill="#ADD1B2" rx="11" ry="11" style="stroke:#181818;stroke-width:1;"/><path d="M189.5146,256.1275 Q188.9365,256.4244 188.2959,256.565 Q187.6553,256.7213 186.9521,256.7213 Q184.4521,256.7213 183.124,255.0806 Q181.8115,253.4244 181.8115,250.2994 Q181.8115,247.1744 183.124,245.5181 Q184.4521,243.8619 186.9521,243.8619 Q187.6553,243.8619 188.2959,244.0181 Q188.9521,244.1744 189.5146,244.4713 L189.5146,247.19 Q188.8896,246.6119 188.2959,246.3463 Q187.7021,246.065 187.0771,246.065 Q185.7334,246.065 185.0459,247.1431 Q184.3584,248.2056 184.3584,250.2994 Q184.3584,252.3931 185.0459,253.4713 Q185.7334,254.5338 187.0771,254.5338 Q187.7021,254.5338 188.2959,254.2681 Q188.8896,253.9869 189.5146,253.4088 L189.5146,256.1275 Z " fill="#000000"/><text fill="#000000" font-family="sans-serif" font-size="14" lengthAdjust="spacing" textLength="128.0303" x="207.0459" y="255.3336">MOA_1840_msg_1</text><line style="stroke:#181818;stroke-width:0.5;" x1="8" x2="501.6221" y1="266.4869" y2="266.4869"/><text fill="#000000" font-family="sans-serif" font-size="14" lengthAdjust="spacing" textLength="165.6484" x="13" y="283.482">Nachricht: INVOIC 2.8d.</text><text fill="#000000" font-family="sans-serif" font-size="14" lengthAdjust="spacing" textLength="204.1143" x="13" y="299.7789">Kontext: Nachrichtenstruktur</text><text fill="#000000" font-family="sans-serif" font-size="14" lengthAdjust="spacing" textLength="91.4033" x="13" y="316.0757">Pflichtfeld: Ja</text><text fill="#000000" font-family="sans-serif" font-size="14" lengthAdjust="spacing" textLength="112.0205" x="13" y="332.3726">Codes: MOA, XY</text><text fill="#000000" font-family="sans-serif" font-size="14" lengthAdjust="spacing" textLength="483.6221" x="13" y="348.6695">Prozesse: Netznutzungsabrechnung, Messstellenbetriebsabrechnung</text><text fill="#000000" font-family="sans-serif" font-size="14" lengthAdjust="spacing" textLength="290.3359" x="13" y="364.9664">Quelle: INVOIC_MIG_2_8d__20240619.pdf</text><line style="stroke:#181818;stroke-width:0.5;" x1="8" x2="501.6221" y1="372.2681" y2="372.2681"/></g><!--class MOA_1840_proc_1--><g class="entity" data-entity="MOA_1840_proc_1" data-source-line="17" data-uid="ent0005" id="entity_MOA_1840_proc_1"><rect fill="#F1F1F1" height="105.1563" rx="2.5" ry="2.5" style="stroke:#181818;stroke-width:0.5;" width="752.6465" x="537.49" y="254.7969"/><ellipse cx="845.0046" cy="274.9297" fill="#ADD1B2" rx="11" ry="11" style="stroke:#181818;stroke-width:1;"/><path d="M847.9734,280.5703 Q847.3953,280.8672 846.7546,281.0078 Q846.114,281.1641 845.4109,281.1641 Q842.9109,281.1641 841.5828,279.5234 Q840.2703,277.8672 840.2703,274.7422 Q840.2703,271.6172 841.5828,269.9609 Q842.9109,268.3047 845.4109,268.3047 Q846.114,268.3047 846.7546,268.4609 Q847.4109,268.6172 847.9734,268.9141 L847.9734,271.6328 Q847.3484,271.0547 846.7546,270.7891 Q846.1609,270.5078 845.5359,270.5078 Q844.1921,270.5078 843.5046,271.5859 Q842.8171,272.6484 842.8171,274.7422 Q842.8171,276.8359 843.5046,277.9141 Q844.1921,278.9766 845.5359,278.9766 Q846.1609,278.9766 846.7546,278.7109 Q847.3484,278.4297 847.9734,277.8516 L847.9734,280.5703 Z " fill="#000000"/><text fill="#000000" font-family="sans-serif" font-size="12" font-style="italic" lengthAdjust="spacing" textLength="61.0605" x="899.533" y="270.9355">&#171;process&#187;</text><text fill="#000000" font-family="sans-serif" font-size="14" lengthAdjust="spacing" textLength="129.1172" x="865.5046" y="286.7607">MOA_1840_proc_1</text><line style="stroke:#181818;stroke-width:0.5;" x1="538.49" x2="1289.1365" y1="295.0625" y2="295.0625"/><text fill="#000000" font-family="sans-serif" font-size="14" lengthAdjust="spacing" textLength="180.3457" x="543.49" y="312.0576">Netznutzungsabrechnung</text><text fill="#000000" font-family="sans-serif" font-size="14" lengthAdjust="spacing" textLength="218.0938" x="543.49" y="328.3545">Gesetze: StromNEV, StromNZV</text><text fill="#000000" font-family="sans-serif" font-size="14" lengthAdjust="spacing" textLength="740.6465" x="543.49" y="344.6514">Zusammenfassung: Wie funktioniert die Netznutzungsabrechnung zwischen Netzbetreiber und Lieferant?</text><line style="stroke:#181818;stroke-width:0.5;" x1="538.49" x2="1289.1365" y1="351.9531" y2="351.9531"/></g><!--class MOA_1840_proc_2--><g class="entity" data-entity="MOA_1840_proc_2" data-source-line="23" data-uid="ent0007" id="entity_MOA_1840_proc_2"><rect fill="#F1F1F1" height="105.1563" rx="2.5" ry="2.5" style="stroke:#181818;stroke-width:0.5;" width="690.2275" x="1324.7" y="254.7969"/><ellipse cx="1601.0052" cy="274.9297" fill="#ADD1B2" rx="11" ry="11" style="stroke:#181818;stroke-width:1;"/><path d="M1603.9739,280.5703 Q1603.3958,280.8672 1602.7552,281.0078 Q1602.1146,281.1641 1601.4114,281.1641 Q1598.9114,281.1641 1597.5833,279.5234 Q1596.2708,277.8672 1596.2708,274.7422 Q1596.2708,271.6172 1597.5833,269.9609 Q1598.9114,268.3047 1601.4114,268.3047 Q1602.1146,268.3047 1602.7552,268.4609 Q1603.4114,268.6172 1603.9739,268.9141 L1603.9739,271.6328 Q1603.3489,271.0547 1602.7552,270.7891 Q1602.1614,270.5078 1601.5364,270.5078 Q1600.1927,270.5078 1599.5052,271.5859 Q1598.8177,272.6484 1598.8177,274.7422 Q1598.8177,276.8359 1599.5052,277.9141 Q1600.1927,278.9766 1601.5364,278.9766 Q1602.1614,278.9766 1602.7552,278.7109 Q1603.3489,278.4297 1603.9739,277.8516 L1603.9739,280.5703 Z " fill="#000000"/><text fill="#000000" font-family="sans-serif" font-size="12" font-style="italic" lengthAdjust="spacing" textLength="61.0605" x="1655.5335" y="270.9355">&#171;process&#187;</text><text fill="#000000" font-family="sans-serif" font-size="14" lengthAdjust="spacing" textLength="129.1172" x="1621.5052" y="286.7607">MOA_1840_proc_2</text><line style="stroke:#181818;stroke-width:0.5;" x1="1325.7" x2="2013.9275" y1="295.0625" y2="295.0625"/><text fill="#000000" font-family="sans-serif" font-size="14" lengthAdjust="spacing" textLength="223.2822" x="1330.7" y="312.0576">Messstellenbetriebsabrechnung</text><text fill="#000000" font-family="sans-serif" font-size="14" lengthAdjust="spacing" textLength="105.0957" x="1330.7" y="328.3545">Gesetze: MsbG</text><text fill="#000000" font-family="sans-serif" font-size="14" lengthAdjust="spacing" textLength="678.2275" x="1330.7" y="344.6514">Zusammenfassung: Beschreibe den Prozess der Abrechnung von Messstellenbetriebsleistungen.</text><line style="stroke:#181818;stroke-width:0.5;" x1="1325.7" x2="2013.9275" y1="351.9531" y2="351.9531"/></g><!--link MOA_1840 to MOA_1840_msg_1--><g class="link" data-entity-1="MOA_1840" data-entity-2="MOA_1840_msg_1" data-source-line="16" data-uid="lnk4" id="link_MOA_1840_MOA_1840_msg_1"><path codeLine="16" d="M733.3,157.9069 C657.56,181.4069 574.2605,207.2589 493.6505,232.2689" fill="none" id="MOA_1840-to-MOA_1840_msg_1" style="stroke:#181818;stroke-width:1;"/><polygon fill="#181818" points="487.92,234.0469,497.7011,235.2003,492.6954,232.5653,495.3305,227.5596,487.92,234.0469" style="stroke:#181818;stroke-width:1;"/><text fill="#000000" font-family="sans-serif" font-size="13" lengthAdjust="spacing" textLength="85.2363" x="624.81" y="200.5538">verwendet in</text></g><!--link MOA_1840 to MOA_1840_proc_1--><g class="link" data-entity-1="MOA_1840" data-entity-2="MOA_1840_proc_1" data-source-line="22" data-uid="lnk6" id="link_MOA_1840_MOA_1840_proc_1"><path codeLine="22" d="M913.81,157.7669 C913.81,187.9169 913.81,218.9069 913.81,248.4269" fill="none" id="MOA_1840-to-MOA_1840_proc_1" style="stroke:#181818;stroke-width:1;stroke-dasharray:7,7;"/><polygon fill="#181818" points="913.81,254.4269,917.81,245.4269,913.81,249.4269,909.81,245.4269,913.81,254.4269" style="stroke:#181818;stroke-width:1;"/><text fill="#000000" font-family="sans-serif" font-size="13" lengthAdjust="spacing" textLength="91.6221" x="914.81" y="200.5538">eingebettet in</text></g><!--link MOA_1840 to MOA_1840_proc_2--><g class="link" data-entity-1="MOA_1840" data-entity-2="MOA_1840_proc_2" data-source-line="28" data-uid="lnk8" id="link_MOA_1840_MOA_1840_proc_2"><path codeLine="28" d="M1110.47,155.0869 C1223.56,185.6769 1359.2482,222.37 1471.6182,252.77" fill="none" id="MOA_1840-to-MOA_1840_proc_2" style="stroke:#181818;stroke-width:1;stroke-dasharray:7,7;"/><polygon fill="#181818" points="1477.41,254.3369,1469.7669,248.1254,1472.5835,253.0311,1467.6777,255.8477,1477.41,254.3369" style="stroke:#181818;stroke-width:1;"/><text fill="#000000" font-family="sans-serif" font-size="13" lengthAdjust="spacing" textLength="91.6221" x="1292.81" y="200.5538">eingebettet in</text></g><!--SRC=[XP9lJy903CRV-odw0M21nHYy68oY8QYWnWILDyjjwyR5hJDtdHgCtzqU0XB-wBksJ-_k-VNAXWk42yr8cWlje0d3spFLxXos3XB9dKyZdyBd0S18bwZW74jqhgRSvRQcjD0vGeeE-b8tbABLiMPsqdzdgvcqef8OvEuHyengdlcpEhQOJ4d2XJYKJiTO54WniZKOh_TyRVY9IfT7xOMhP6fDCcK5Wz7uTj23CEYaWIZN5J5-I7tLWkJOrYzSMsylAtmjmo9LSAMbqgi4HFb76l3ql4wmntlZ7zi0zxNNbjQYuQ0VXL4dZQAm5HwsZjh7mMkQ2TvgqCrcTvDImHlQTvJPCXZQdCIhhH9fEZdnWRZfTd_6ic_OVNGYYQK7jbKvkXmt5j5aBEgaTheiaJ8z_sC5ZmOXg-c5JKK6BKCgXTsNm-pTk6IADDVzED34Q46s16uCPh8QnAVhi47GtG9H86kKenpd_RpX5kz_7x727hgulmlq7CNxtB6iCos_Nc8BPx-8RnNjUgf0urXqfE1lld2Bxni0]--></g></svg>