<svg xmlns="http://www.w3.org/2000/svg" xmlns:xlink="http://www.w3.org/1999/xlink" contentStyleType="text/css" data-diagram-type="CLASS" height="370px" preserveAspectRatio="none" style="width:1111px;height:370px;background:#FFFFFF;" version="1.1" viewBox="0 0 1111 370" width="1111px" zoomAndPan="magnify"><title>Datenatlas - MOA:00011</title><defs/><g><g class="title" data-source-line="1"><text fill="#000000" font-family="sans-serif" font-size="14" font-weight="bold" lengthAdjust="spacing" textLength="192.4727" x="452.3319" y="22.9951">Datenatlas - MOA:00011</text></g><!--class MOA_00011--><g class="entity" data-entity="MOA_00011" data-source-line="2" data-uid="ent0002" id="entity_MOA_00011"><rect fill="#F1F1F1" height="96.8906" rx="2.5" ry="2.5" style="stroke:#181818;stroke-width:0.5;" width="225.165" x="332.23" y="44.2969"/><ellipse cx="398.4566" cy="60.2969" fill="#ADD1B2" rx="11" ry="11" style="stroke:#181818;stroke-width:1;"/><path d="M401.4253,65.9375 Q400.8472,66.2344 400.2066,66.375 Q399.5659,66.5313 398.8628,66.5313 Q396.3628,66.5313 395.0347,64.8906 Q393.7222,63.2344 393.7222,60.1094 Q393.7222,56.9844 395.0347,55.3281 Q396.3628,53.6719 398.8628,53.6719 Q399.5659,53.6719 400.2066,53.8281 Q400.8628,53.9844 401.4253,54.2813 L401.4253,57 Q400.8003,56.4219 400.2066,56.1563 Q399.6128,55.875 398.9878,55.875 Q397.6441,55.875 396.9566,56.9531 Q396.2691,58.0156 396.2691,60.1094 Q396.2691,62.2031 396.9566,63.2813 Q397.6441,64.3438 398.9878,64.3438 Q399.6128,64.3438 400.2066,64.0781 Q400.8003,63.7969 401.4253,63.2188 L401.4253,65.9375 Z " fill="#000000"/><text fill="#000000" font-family="sans-serif" font-size="14" lengthAdjust="spacing" textLength="84.2119" x="418.9566" y="65.1436">MOA_00011</text><line style="stroke:#181818;stroke-width:0.5;" x1="333.23" x2="556.395" y1="76.2969" y2="76.2969"/><text fill="#000000" font-family="sans-serif" font-size="14" lengthAdjust="spacing" textLength="199.165" x="352.23" y="93.292">Name: angeforderter Betrag</text><text fill="#000000" font-family="sans-serif" font-size="14" lengthAdjust="spacing" textLength="66.6436" x="352.23" y="109.5889">Prozesse:</text><rect fill="none" height="6" style="stroke:#C82930;stroke-width:1;" width="6" x="340.23" y="119.5391"/><text fill="#000000" font-family="sans-serif" font-size="14" lengthAdjust="spacing" textLength="180.3457" x="352.23" y="125.8857">Netznutzungsabrechnung</text><line style="stroke:#181818;stroke-width:0.5;" x1="333.23" x2="556.395" y1="133.1875" y2="133.1875"/></g><!--class MOA_00011_msg_1--><g class="entity" data-entity="MOA_00011_msg_1" data-source-line="7" data-uid="ent0003" id="entity_MOA_00011_msg_1"><rect fill="#F1F1F1" height="145.7813" rx="2.5" ry="2.5" style="stroke:#181818;stroke-width:0.5;" width="309.6299" x="7" y="218.1869"/><ellipse cx="89.0962" cy="234.1869" fill="#ADD1B2" rx="11" ry="11" style="stroke:#181818;stroke-width:1;"/><path d="M92.0649,239.8275 Q91.4868,240.1244 90.8462,240.265 Q90.2056,240.4213 89.5024,240.4213 Q87.0024,240.4213 85.6743,238.7806 Q84.3618,237.1244 84.3618,233.9994 Q84.3618,230.8744 85.6743,229.2181 Q87.0024,227.5619 89.5024,227.5619 Q90.2056,227.5619 90.8462,227.7181 Q91.5024,227.8744 92.0649,228.1713 L92.0649,230.89 Q91.4399,230.3119 90.8462,230.0463 Q90.2524,229.765 89.6274,229.765 Q88.2837,229.765 87.5962,230.8431 Q86.9087,231.9056 86.9087,233.9994 Q86.9087,236.0931 87.5962,237.1713 Q88.2837,238.2338 89.6274,238.2338 Q90.2524,238.2338 90.8462,237.9681 Q91.4399,237.6869 92.0649,237.1088 L92.0649,239.8275 Z " fill="#000000"/><text fill="#000000" font-family="sans-serif" font-size="14" lengthAdjust="spacing" textLength="136.9375" x="109.5962" y="239.0336">MOA_00011_msg_1</text><line style="stroke:#181818;stroke-width:0.5;" x1="8" x2="315.6299" y1="250.1869" y2="250.1869"/><text fill="#000000" font-family="sans-serif" font-size="14" lengthAdjust="spacing" textLength="172.9424" x="13" y="267.182">Nachricht: COMDIS 1.0e.</text><text fill="#000000" font-family="sans-serif" font-size="14" lengthAdjust="spacing" textLength="204.1143" x="13" y="283.4789">Kontext: Nachrichtenstruktur</text><text fill="#000000" font-family="sans-serif" font-size="14" lengthAdjust="spacing" textLength="110.5439" x="13" y="299.7757">Pflichtfeld: Nein</text><text fill="#000000" font-family="sans-serif" font-size="14" lengthAdjust="spacing" textLength="122.5205" x="13" y="316.0726">Codes: MOA, SG3</text><text fill="#000000" font-family="sans-serif" font-size="14" lengthAdjust="spacing" textLength="251.4395" x="13" y="332.3695">Prozesse: Netznutzungsabrechnung</text><text fill="#000000" font-family="sans-serif" font-size="14" lengthAdjust="spacing" textLength="297.6299" x="13" y="348.6664">Quelle: COMDIS_MIG_1_0e__20240619.pdf</text><line style="stroke:#181818;stroke-width:0.5;" x1="8" x2="315.6299" y1="355.9681" y2="355.9681"/></g><!--class MOA_00011_proc_1--><g class="entity" data-entity="MOA_00011_proc_1" data-source-line="16" data-uid="ent0005" id="entity_MOA_00011_proc_1"><rect fill="#F1F1F1" height="105.1563" rx="2.5" ry="2.5" style="stroke:#181818;stroke-width:0.5;" width="752.6465" x="351.49" y="238.4969"/><ellipse cx="654.551" cy="258.6297" fill="#ADD1B2" rx="11" ry="11" style="stroke:#181818;stroke-width:1;"/><path d="M657.5198,264.2703 Q656.9417,264.5672 656.301,264.7078 Q655.6604,264.8641 654.9573,264.8641 Q652.4573,264.8641 651.1292,263.2234 Q649.8167,261.5672 649.8167,258.4422 Q649.8167,255.3172 651.1292,253.6609 Q652.4573,252.0047 654.9573,252.0047 Q655.6604,252.0047 656.301,252.1609 Q656.9573,252.3172 657.5198,252.6141 L657.5198,255.3328 Q656.8948,254.7547 656.301,254.4891 Q655.7073,254.2078 655.0823,254.2078 Q653.7385,254.2078 653.051,255.2859 Q652.3635,256.3484 652.3635,258.4422 Q652.3635,260.5359 653.051,261.6141 Q653.7385,262.6766 655.0823,262.6766 Q655.7073,262.6766 656.301,262.4109 Q656.8948,262.1297 657.5198,261.5516 L657.5198,264.2703 Z " fill="#000000"/><text fill="#000000" font-family="sans-serif" font-size="12" font-style="italic" lengthAdjust="spacing" textLength="61.0605" x="713.533" y="254.6355">&#171;process&#187;</text><text fill="#000000" font-family="sans-serif" font-size="14" lengthAdjust="spacing" textLength="138.0244" x="675.051" y="270.4607">MOA_00011_proc_1</text><line style="stroke:#181818;stroke-width:0.5;" x1="352.49" x2="1103.1365" y1="278.7625" y2="278.7625"/><text fill="#000000" font-family="sans-serif" font-size="14" lengthAdjust="spacing" textLength="180.3457" x="357.49" y="295.7576">Netznutzungsabrechnung</text><text fill="#000000" font-family="sans-serif" font-size="14" lengthAdjust="spacing" textLength="218.0938" x="357.49" y="312.0545">Gesetze: StromNEV, StromNZV</text><text fill="#000000" font-family="sans-serif" font-size="14" lengthAdjust="spacing" textLength="740.6465" x="357.49" y="328.3514">Zusammenfassung: Wie funktioniert die Netznutzungsabrechnung zwischen Netzbetreiber und Lieferant?</text><line style="stroke:#181818;stroke-width:0.5;" x1="352.49" x2="1103.1365" y1="335.6531" y2="335.6531"/></g><!--link MOA_00011 to MOA_00011_msg_1--><g class="link" data-entity-1="MOA_00011" data-entity-2="MOA_00011_msg_1" data-source-line="15" data-uid="lnk4" id="link_MOA_00011_MOA_00011_msg_1"><path codeLine="15" d="M375.95,141.5169 C342.9,164.4469 307.5301,188.9871 270.8401,214.4371" fill="none" id="MOA_00011-to-MOA_00011_msg_1" style="stroke:#181818;stroke-width:1;"/><polygon fill="#181818" points="265.91,217.8569,275.5849,216.014,270.0184,215.0071,271.0253,209.4406,265.91,217.8569" style="stroke:#181818;stroke-width:1;"/><text fill="#000000" font-family="sans-serif" font-size="13" lengthAdjust="spacing" textLength="85.2363" x="329.81" y="184.2538">verwendet in</text></g><!--link MOA_00011 to MOA_00011_proc_1--><g class="link" data-entity-1="MOA_00011" data-entity-2="MOA_00011_proc_1" data-source-line="21" data-uid="lnk6" id="link_MOA_00011_MOA_00011_proc_1"><path codeLine="21" d="M513.68,141.5169 C555.81,170.7469 604.8005,204.7263 647.9905,234.6963" fill="none" id="MOA_00011-to-MOA_00011_proc_1" style="stroke:#181818;stroke-width:1;stroke-dasharray:7,7;"/><polygon fill="#181818" points="652.92,238.1169,647.8062,229.6997,648.8121,235.2664,643.2454,236.2723,652.92,238.1169" style="stroke:#181818;stroke-width:1;"/><text fill="#000000" font-family="sans-serif" font-size="13" lengthAdjust="spacing" textLength="91.6221" x="579.81" y="184.2538">eingebettet in</text></g><!--SRC=[TL5TJy9047pdL-mFaAP5O-A5r2WOGXJGa632o-Lej-s5zahkziJK-D_TelW1yhOxivcTsILD9S9G4Hf5fNBGXSdiHeHX64MTX07NzdBNmri7OAeg5A1CZbbjKxI45cwHhCgPVBHrWywXu1fOQehK64-DDxbJAuj9ORZil1ygoyhbSg-V55Od1GaOp2R3yHoY8CI0cVlQ4Buo_Zs2nf7rQ_AstPsLBPPXcV88QiFOe4xHYNRF6Sn7vxyTdl86yEInB76_Nax68nd94ANiXRsBy3Aw2ZPfnXb-xjBjnaTP1BoWtQ99aO2z70RUs3hXgNw_BTXG77-cFsLgX8ufTZKdMrVJkyNPLxLSCBlqJbKLceoNyBo0PusGURCcNHlDJuAKWV_5eTbgbnHeTloANubwnK_r9eK7ZHbQPUZwJzuWY8-Z2E2RvyW2j8ly0G00]--></g></svg>