<svg xmlns="http://www.w3.org/2000/svg" xmlns:xlink="http://www.w3.org/1999/xlink" contentStyleType="text/css" data-diagram-type="CLASS" height="370px" preserveAspectRatio="none" style="width:984px;height:370px;background:#FFFFFF;" version="1.1" viewBox="0 0 984 370" width="984px" zoomAndPan="magnify"><title>Datenatlas - NAD:MP</title><defs/><g><g class="title" data-source-line="1"><text fill="#000000" font-family="sans-serif" font-size="14" font-weight="bold" lengthAdjust="spacing" textLength="165.4639" x="402.5729" y="22.9951">Datenatlas - NAD:MP</text></g><!--class NAD_MP--><g class="entity" data-entity="NAD_MP" data-source-line="2" data-uid="ent0002" id="entity_NAD_MP"><rect fill="#F1F1F1" height="96.8906" rx="2.5" ry="2.5" style="stroke:#181818;stroke-width:0.5;" width="184.0127" x="314.42" y="44.2969"/><ellipse cx="373.0006" cy="60.2969" fill="#ADD1B2" rx="11" ry="11" style="stroke:#181818;stroke-width:1;"/><path d="M375.9693,65.9375 Q375.3912,66.2344 374.7506,66.375 Q374.1099,66.5313 373.4068,66.5313 Q370.9068,66.5313 369.5787,64.8906 Q368.2662,63.2344 368.2662,60.1094 Q368.2662,56.9844 369.5787,55.3281 Q370.9068,53.6719 373.4068,53.6719 Q374.1099,53.6719 374.7506,53.8281 Q375.4068,53.9844 375.9693,54.2813 L375.9693,57 Q375.3443,56.4219 374.7506,56.1563 Q374.1568,55.875 373.5318,55.875 Q372.1881,55.875 371.5006,56.9531 Q370.8131,58.0156 370.8131,60.1094 Q370.8131,62.2031 371.5006,63.2813 Q372.1881,64.3438 373.5318,64.3438 Q374.1568,64.3438 374.7506,64.0781 Q375.3443,63.7969 375.9693,63.2188 L375.9693,65.9375 Z " fill="#000000"/><text fill="#000000" font-family="sans-serif" font-size="14" lengthAdjust="spacing" textLength="58.3516" x="393.5006" y="65.1436">NAD_MP</text><line style="stroke:#181818;stroke-width:0.5;" x1="315.42" x2="497.4327" y1="76.2969" y2="76.2969"/><text fill="#000000" font-family="sans-serif" font-size="14" lengthAdjust="spacing" textLength="146.8359" x="334.42" y="93.292">Name: ID Empf&#228;nger</text><text fill="#000000" font-family="sans-serif" font-size="14" lengthAdjust="spacing" textLength="66.6436" x="334.42" y="109.5889">Prozesse:</text><rect fill="none" height="6" style="stroke:#C82930;stroke-width:1;" width="6" x="322.42" y="119.5391"/><text fill="#000000" font-family="sans-serif" font-size="14" lengthAdjust="spacing" textLength="158.0127" x="334.42" y="125.8857">Stammdaten&#228;nderung</text><line style="stroke:#181818;stroke-width:0.5;" x1="315.42" x2="497.4327" y1="133.1875" y2="133.1875"/></g><!--class NAD_MP_msg_1--><g class="entity" data-entity="NAD_MP_msg_1" data-source-line="7" data-uid="ent0003" id="entity_NAD_MP_msg_1"><rect fill="#F1F1F1" height="145.7813" rx="2.5" ry="2.5" style="stroke:#181818;stroke-width:0.5;" width="296.8604" x="7" y="218.1869"/><ellipse cx="95.6416" cy="234.1869" fill="#ADD1B2" rx="11" ry="11" style="stroke:#181818;stroke-width:1;"/><path d="M98.6104,239.8275 Q98.0322,240.1244 97.3916,240.265 Q96.751,240.4213 96.0479,240.4213 Q93.5479,240.4213 92.2197,238.7806 Q90.9072,237.1244 90.9072,233.9994 Q90.9072,230.8744 92.2197,229.2181 Q93.5479,227.5619 96.0479,227.5619 Q96.751,227.5619 97.3916,227.7181 Q98.0479,227.8744 98.6104,228.1713 L98.6104,230.89 Q97.9854,230.3119 97.3916,230.0463 Q96.7979,229.765 96.1729,229.765 Q94.8291,229.765 94.1416,230.8431 Q93.4541,231.9056 93.4541,233.9994 Q93.4541,236.0931 94.1416,237.1713 Q94.8291,238.2338 96.1729,238.2338 Q96.7979,238.2338 97.3916,237.9681 Q97.9854,237.6869 98.6104,237.1088 L98.6104,239.8275 Z " fill="#000000"/><text fill="#000000" font-family="sans-serif" font-size="14" lengthAdjust="spacing" textLength="111.0771" x="116.1416" y="239.0336">NAD_MP_msg_1</text><line style="stroke:#181818;stroke-width:0.5;" x1="8" x2="302.8604" y1="250.1869" y2="250.1869"/><text fill="#000000" font-family="sans-serif" font-size="14" lengthAdjust="spacing" textLength="162.7227" x="13" y="267.182">Nachricht: PARTIN 1.0e</text><text fill="#000000" font-family="sans-serif" font-size="14" lengthAdjust="spacing" textLength="204.1143" x="13" y="283.4789">Kontext: Nachrichtenstruktur</text><text fill="#000000" font-family="sans-serif" font-size="14" lengthAdjust="spacing" textLength="91.4033" x="13" y="299.7757">Pflichtfeld: Ja</text><text fill="#000000" font-family="sans-serif" font-size="14" lengthAdjust="spacing" textLength="136.3633" x="13" y="316.0726">Codes: ID, MP, NAD</text><text fill="#000000" font-family="sans-serif" font-size="14" lengthAdjust="spacing" textLength="229.1064" x="13" y="332.3695">Prozesse: Stammdaten&#228;nderung</text><text fill="#000000" font-family="sans-serif" font-size="14" lengthAdjust="spacing" textLength="284.8604" x="13" y="348.6664">Quelle: PARTIN_MIG_1_0e_20241001.pdf</text><line style="stroke:#181818;stroke-width:0.5;" x1="8" x2="302.8604" y1="355.9681" y2="355.9681"/></g><!--class NAD_MP_proc_1--><g class="entity" data-entity="NAD_MP_proc_1" data-source-line="16" data-uid="ent0005" id="entity_NAD_MP_proc_1"><rect fill="#F1F1F1" height="88.8594" rx="2.5" ry="2.5" style="stroke:#181818;stroke-width:0.5;" width="638.3496" x="339.26" y="246.6469"/><ellipse cx="598.1028" cy="266.7797" fill="#ADD1B2" rx="11" ry="11" style="stroke:#181818;stroke-width:1;"/><path d="M601.0715,272.4203 Q600.4934,272.7172 599.8528,272.8578 Q599.2121,273.0141 598.509,273.0141 Q596.009,273.0141 594.6809,271.3734 Q593.3684,269.7172 593.3684,266.5922 Q593.3684,263.4672 594.6809,261.8109 Q596.009,260.1547 598.509,260.1547 Q599.2121,260.1547 599.8528,260.3109 Q600.509,260.4672 601.0715,260.7641 L601.0715,263.4828 Q600.4465,262.9047 599.8528,262.6391 Q599.259,262.3578 598.634,262.3578 Q597.2903,262.3578 596.6028,263.4359 Q595.9153,264.4984 595.9153,266.5922 Q595.9153,268.6859 596.6028,269.7641 Q597.2903,270.8266 598.634,270.8266 Q599.259,270.8266 599.8528,270.5609 Q600.4465,270.2797 601.0715,269.7016 L601.0715,272.4203 Z " fill="#000000"/><text fill="#000000" font-family="sans-serif" font-size="12" font-style="italic" lengthAdjust="spacing" textLength="61.0605" x="644.1545" y="262.7855">&#171;process&#187;</text><text fill="#000000" font-family="sans-serif" font-size="14" lengthAdjust="spacing" textLength="112.1641" x="618.6028" y="278.6107">NAD_MP_proc_1</text><line style="stroke:#181818;stroke-width:0.5;" x1="340.26" x2="976.6096" y1="286.9125" y2="286.9125"/><text fill="#000000" font-family="sans-serif" font-size="14" lengthAdjust="spacing" textLength="158.0127" x="345.26" y="303.9076">Stammdaten&#228;nderung</text><text fill="#000000" font-family="sans-serif" font-size="14" lengthAdjust="spacing" textLength="626.3496" x="345.26" y="320.2045">Zusammenfassung: Wie wird eine Stammdaten&#228;nderung an einer Marktlokation, wie z.B.</text><line style="stroke:#181818;stroke-width:0.5;" x1="340.26" x2="976.6096" y1="327.5063" y2="327.5063"/></g><!--link NAD_MP to NAD_MP_msg_1--><g class="link" data-entity-1="NAD_MP" data-entity-2="NAD_MP_msg_1" data-source-line="15" data-uid="lnk4" id="link_NAD_MP_NAD_MP_msg_1"><path codeLine="15" d="M345.35,141.5169 C316.04,164.4469 285.0162,188.7105 252.4762,214.1605" fill="none" id="NAD_MP-to-NAD_MP_msg_1" style="stroke:#181818;stroke-width:1;"/><polygon fill="#181818" points="247.75,217.8569,257.3035,215.4631,251.6885,214.7765,252.375,209.1615,247.75,217.8569" style="stroke:#181818;stroke-width:1;"/><text fill="#000000" font-family="sans-serif" font-size="13" lengthAdjust="spacing" textLength="85.2363" x="304.43" y="184.2538">verwendet in</text></g><!--link NAD_MP to NAD_MP_proc_1--><g class="link" data-entity-1="NAD_MP" data-entity-2="NAD_MP_proc_1" data-source-line="20" data-uid="lnk6" id="link_NAD_MP_NAD_MP_proc_1"><path codeLine="20" d="M467.75,141.5169 C508.84,173.5269 557.777,211.6593 597.707,242.7693" fill="none" id="NAD_MP-to-NAD_MP_proc_1" style="stroke:#181818;stroke-width:1;stroke-dasharray:7,7;"/><polygon fill="#181818" points="602.44,246.4569,597.7988,237.7701,598.4958,243.3839,592.882,244.0809,602.44,246.4569" style="stroke:#181818;stroke-width:1;"/><text fill="#000000" font-family="sans-serif" font-size="13" lengthAdjust="spacing" textLength="91.6221" x="526.43" y="184.2538">eingebettet in</text></g><!--SRC=[RP1DQiCm48NtESKS835sw4e4GzgKaXO7zmSAtGZL7Zl2icoaSLDIUflUf1VhoAG_ATbftinxyur8aq5OAKAho2WFCzWiLoBB9mLNFXGoo-5j0h1HBGfOh-2oxQlF3rkZOpLttHwzHy5lOFSzgROjGnwFbEW6Mq_UZy9awskP72ABhTF5bWJaoxk7zGQIA4Pkt7IMy9NbdmcqdjpGq30khKpGAZIbW6l5oaLNeWzqKyZoQTZqb-qa5S3jWCRWzswPhQza8cEKytX-biHn4lLbnV27FvZDqkCB1BoWso7d4MXxV6Flke975elmO8Oq7Gy-pV4qU9RHLXp0Ye17ZR3JhWJK5a-PGDcnvo1JhY7JDOfqPwViGjX7vz4lTXIb_w14iDRuZ4GZ-HS0]--></g></svg>