<svg xmlns="http://www.w3.org/2000/svg" xmlns:xlink="http://www.w3.org/1999/xlink" contentStyleType="text/css" data-diagram-type="CLASS" height="387px" preserveAspectRatio="none" style="width:984px;height:387px;background:#FFFFFF;" version="1.1" viewBox="0 0 984 387" width="984px" zoomAndPan="magnify"><title>Datenatlas - NAD:00035</title><defs/><g><g class="title" data-source-line="1"><text fill="#000000" font-family="sans-serif" font-size="14" font-weight="bold" lengthAdjust="spacing" textLength="189.9775" x="390.316" y="22.9951">Datenatlas - NAD:00035</text></g><!--class NAD_00035--><g class="entity" data-entity="NAD_00035" data-source-line="2" data-uid="ent0002" id="entity_NAD_00035"><rect fill="#F1F1F1" height="113.1875" rx="2.5" ry="2.5" style="stroke:#181818;stroke-width:0.5;" width="193.9932" x="309.43" y="44.2969"/><ellipse cx="360.9935" cy="60.2969" fill="#ADD1B2" rx="11" ry="11" style="stroke:#181818;stroke-width:1;"/><path d="M363.9622,65.9375 Q363.3841,66.2344 362.7435,66.375 Q362.1029,66.5313 361.3997,66.5313 Q358.8997,66.5313 357.5716,64.8906 Q356.2591,63.2344 356.2591,60.1094 Q356.2591,56.9844 357.5716,55.3281 Q358.8997,53.6719 361.3997,53.6719 Q362.1029,53.6719 362.7435,53.8281 Q363.3997,53.9844 363.9622,54.2813 L363.9622,57 Q363.3372,56.4219 362.7435,56.1563 Q362.1497,55.875 361.5247,55.875 Q360.181,55.875 359.4935,56.9531 Q358.806,58.0156 358.806,60.1094 Q358.806,62.2031 359.4935,63.2813 Q360.181,64.3438 361.5247,64.3438 Q362.1497,64.3438 362.7435,64.0781 Q363.3372,63.7969 363.9622,63.2188 L363.9622,65.9375 Z " fill="#000000"/><text fill="#000000" font-family="sans-serif" font-size="14" lengthAdjust="spacing" textLength="82.3662" x="381.4935" y="65.1436">NAD_00035</text><line style="stroke:#181818;stroke-width:0.5;" x1="310.43" x2="502.4232" y1="76.2969" y2="76.2969"/><text fill="#000000" font-family="sans-serif" font-size="14" lengthAdjust="spacing" textLength="167.9932" x="329.43" y="93.292">Name: Ansprechpartner</text><text fill="#000000" font-family="sans-serif" font-size="14" lengthAdjust="spacing" textLength="153.043" x="329.43" y="109.5889">Stammdatenprozesse</text><text fill="#000000" font-family="sans-serif" font-size="14" lengthAdjust="spacing" textLength="66.6436" x="329.43" y="125.8857">Prozesse:</text><rect fill="none" height="6" style="stroke:#C82930;stroke-width:1;" width="6" x="317.43" y="135.8359"/><text fill="#000000" font-family="sans-serif" font-size="14" lengthAdjust="spacing" textLength="158.0127" x="329.43" y="142.1826">Stammdaten&#228;nderung</text><line style="stroke:#181818;stroke-width:0.5;" x1="310.43" x2="502.4232" y1="149.4844" y2="149.4844"/></g><!--class NAD_00035_msg_1--><g class="entity" data-entity="NAD_00035_msg_1" data-source-line="8" data-uid="ent0003" id="entity_NAD_00035_msg_1"><rect fill="#F1F1F1" height="145.7813" rx="2.5" ry="2.5" style="stroke:#181818;stroke-width:0.5;" width="296.8604" x="7" y="234.4869"/><ellipse cx="83.6343" cy="250.4869" fill="#ADD1B2" rx="11" ry="11" style="stroke:#181818;stroke-width:1;"/><path d="M86.603,256.1275 Q86.0249,256.4244 85.3843,256.565 Q84.7437,256.7213 84.0405,256.7213 Q81.5405,256.7213 80.2124,255.0806 Q78.8999,253.4244 78.8999,250.2994 Q78.8999,247.1744 80.2124,245.5181 Q81.5405,243.8619 84.0405,243.8619 Q84.7437,243.8619 85.3843,244.0181 Q86.0405,244.1744 86.603,244.4713 L86.603,247.19 Q85.978,246.6119 85.3843,246.3463 Q84.7905,246.065 84.1655,246.065 Q82.8218,246.065 82.1343,247.1431 Q81.4468,248.2056 81.4468,250.2994 Q81.4468,252.3931 82.1343,253.4713 Q82.8218,254.5338 84.1655,254.5338 Q84.7905,254.5338 85.3843,254.2681 Q85.978,253.9869 86.603,253.4088 L86.603,256.1275 Z " fill="#000000"/><text fill="#000000" font-family="sans-serif" font-size="14" lengthAdjust="spacing" textLength="135.0918" x="104.1343" y="255.3336">NAD_00035_msg_1</text><line style="stroke:#181818;stroke-width:0.5;" x1="8" x2="302.8604" y1="266.4869" y2="266.4869"/><text fill="#000000" font-family="sans-serif" font-size="14" lengthAdjust="spacing" textLength="162.7227" x="13" y="283.482">Nachricht: PARTIN 1.0e</text><text fill="#000000" font-family="sans-serif" font-size="14" lengthAdjust="spacing" textLength="204.1143" x="13" y="299.7789">Kontext: Nachrichtenstruktur</text><text fill="#000000" font-family="sans-serif" font-size="14" lengthAdjust="spacing" textLength="91.4033" x="13" y="316.0757">Pflichtfeld: Ja</text><text fill="#000000" font-family="sans-serif" font-size="14" lengthAdjust="spacing" textLength="120.6748" x="13" y="332.3726">Codes: NAD, SG7</text><text fill="#000000" font-family="sans-serif" font-size="14" lengthAdjust="spacing" textLength="229.1064" x="13" y="348.6695">Prozesse: Stammdaten&#228;nderung</text><text fill="#000000" font-family="sans-serif" font-size="14" lengthAdjust="spacing" textLength="284.8604" x="13" y="364.9664">Quelle: PARTIN_MIG_1_0e_20241001.pdf</text><line style="stroke:#181818;stroke-width:0.5;" x1="8" x2="302.8604" y1="372.2681" y2="372.2681"/></g><!--class NAD_00035_proc_1--><g class="entity" data-entity="NAD_00035_proc_1" data-source-line="17" data-uid="ent0005" id="entity_NAD_00035_proc_1"><rect fill="#F1F1F1" height="88.8594" rx="2.5" ry="2.5" style="stroke:#181818;stroke-width:0.5;" width="638.3496" x="339.26" y="262.9469"/><ellipse cx="586.0954" cy="283.0797" fill="#ADD1B2" rx="11" ry="11" style="stroke:#181818;stroke-width:1;"/><path d="M589.0642,288.7203 Q588.4861,289.0172 587.8454,289.1578 Q587.2048,289.3141 586.5017,289.3141 Q584.0017,289.3141 582.6736,287.6734 Q581.3611,286.0172 581.3611,282.8922 Q581.3611,279.7672 582.6736,278.1109 Q584.0017,276.4547 586.5017,276.4547 Q587.2048,276.4547 587.8454,276.6109 Q588.5017,276.7672 589.0642,277.0641 L589.0642,279.7828 Q588.4392,279.2047 587.8454,278.9391 Q587.2517,278.6578 586.6267,278.6578 Q585.2829,278.6578 584.5954,279.7359 Q583.9079,280.7984 583.9079,282.8922 Q583.9079,284.9859 584.5954,286.0641 Q585.2829,287.1266 586.6267,287.1266 Q587.2517,287.1266 587.8454,286.8609 Q588.4392,286.5797 589.0642,286.0016 L589.0642,288.7203 Z " fill="#000000"/><text fill="#000000" font-family="sans-serif" font-size="12" font-style="italic" lengthAdjust="spacing" textLength="61.0605" x="644.1545" y="279.0855">&#171;process&#187;</text><text fill="#000000" font-family="sans-serif" font-size="14" lengthAdjust="spacing" textLength="136.1787" x="606.5954" y="294.9107">NAD_00035_proc_1</text><line style="stroke:#181818;stroke-width:0.5;" x1="340.26" x2="976.6096" y1="303.2125" y2="303.2125"/><text fill="#000000" font-family="sans-serif" font-size="14" lengthAdjust="spacing" textLength="158.0127" x="345.26" y="320.2076">Stammdaten&#228;nderung</text><text fill="#000000" font-family="sans-serif" font-size="14" lengthAdjust="spacing" textLength="626.3496" x="345.26" y="336.5045">Zusammenfassung: Wie wird eine Stammdaten&#228;nderung an einer Marktlokation, wie z.B.</text><line style="stroke:#181818;stroke-width:0.5;" x1="340.26" x2="976.6096" y1="343.8063" y2="343.8063"/></g><!--link NAD_00035 to NAD_00035_msg_1--><g class="link" data-entity-1="NAD_00035" data-entity-2="NAD_00035_msg_1" data-source-line="16" data-uid="lnk4" id="link_NAD_00035_NAD_00035_msg_1"><path codeLine="16" d="M337.84,157.7669 C308.96,181.2969 279.6217,205.1972 248.8617,230.2572" fill="none" id="NAD_00035-to-NAD_00035_msg_1" style="stroke:#181818;stroke-width:1;"/><polygon fill="#181818" points="244.21,234.0469,253.714,231.4634,248.0864,230.8888,248.6611,225.2612,244.21,234.0469" style="stroke:#181818;stroke-width:1;"/><text fill="#000000" font-family="sans-serif" font-size="13" lengthAdjust="spacing" textLength="85.2363" x="297.43" y="200.5538">verwendet in</text></g><!--link NAD_00035 to NAD_00035_proc_1--><g class="link" data-entity-1="NAD_00035" data-entity-2="NAD_00035_proc_1" data-source-line="21" data-uid="lnk6" id="link_NAD_00035_NAD_00035_proc_1"><path codeLine="21" d="M475.29,157.7669 C515.95,190.7569 562.0208,228.1464 599.7708,258.7764" fill="none" id="NAD_00035-to-NAD_00035_proc_1" style="stroke:#181818;stroke-width:1;stroke-dasharray:7,7;"/><polygon fill="#181818" points="604.43,262.5569,599.9615,253.7801,600.5473,259.4065,594.9209,259.9924,604.43,262.5569" style="stroke:#181818;stroke-width:1;"/><text fill="#000000" font-family="sans-serif" font-size="13" lengthAdjust="spacing" textLength="91.6221" x="533.43" y="200.5538">eingebettet in</text></g><!--SRC=[RL1TIiD047xFAUO0RTXKHLXAe5eeLLgg5GHVbZMPj4kJJTYTMAbu6s_YnPmDrQhjsyotttu_GuPAXB4cj9fAxQ4Fyz5O2Y7EBgAC0HzsrUtm5W7CTOKIHjOt3hDrenrPTD6IT5NbGQLnzGwzHwOkzgFa6LZuGFhyi3cwrgwYz_ycgl8hbUojihKpsPeaB4Rt3zCv9B48mhUr9Nnb-8U1rfDhDzIwu5kK0Ikmp2NSQ4Qkwnoz32OzM4ukVsSxcGhWhiMon6zZDPjELA84ge4Od2T2976J5np-S9j-Fpqg8U45tHPPbS3OewPygenPms4OE4oQThLF1tfgFSDe2zPWHCAZGTWQbmCQYwS-WRRTcuEPTXigwuqcKziU_qBOnLVnd_nnd1v7aq5WXSz8r5Nu0W00]--></g></svg>