<svg xmlns="http://www.w3.org/2000/svg" xmlns:xlink="http://www.w3.org/1999/xlink" contentStyleType="text/css" data-diagram-type="CLASS" height="387px" preserveAspectRatio="none" style="width:3459px;height:387px;background:#FFFFFF;" version="1.1" viewBox="0 0 3459 387" width="3459px" zoomAndPan="magnify"><title>Datenatlas - NAD:0250</title><defs/><g><g class="title" data-source-line="1"><text fill="#000000" font-family="sans-serif" font-size="14" font-weight="bold" lengthAdjust="spacing" textLength="180.2363" x="1632.5815" y="22.9951">Datenatlas - NAD:0250</text></g><!--class NAD_0250--><g class="entity" data-entity="NAD_0250" data-source-line="2" data-uid="ent0002" id="entity_NAD_0250"><rect fill="#F1F1F1" height="113.1875" rx="2.5" ry="2.5" style="stroke:#181818;stroke-width:0.5;" width="374.2021" x="1192.3" y="44.2969"/><ellipse cx="1338.4216" cy="60.2969" fill="#ADD1B2" rx="11" ry="11" style="stroke:#181818;stroke-width:1;"/><path d="M1341.3903,65.9375 Q1340.8122,66.2344 1340.1716,66.375 Q1339.531,66.5313 1338.8278,66.5313 Q1336.3278,66.5313 1334.9997,64.8906 Q1333.6872,63.2344 1333.6872,60.1094 Q1333.6872,56.9844 1334.9997,55.3281 Q1336.3278,53.6719 1338.8278,53.6719 Q1339.531,53.6719 1340.1716,53.8281 Q1340.8278,53.9844 1341.3903,54.2813 L1341.3903,57 Q1340.7653,56.4219 1340.1716,56.1563 Q1339.5778,55.875 1338.9528,55.875 Q1337.6091,55.875 1336.9216,56.9531 Q1336.2341,58.0156 1336.2341,60.1094 Q1336.2341,62.2031 1336.9216,63.2813 Q1337.6091,64.3438 1338.9528,64.3438 Q1339.5778,64.3438 1340.1716,64.0781 Q1340.7653,63.7969 1341.3903,63.2188 L1341.3903,65.9375 Z " fill="#000000"/><text fill="#000000" font-family="sans-serif" font-size="14" lengthAdjust="spacing" textLength="73.459" x="1358.9216" y="65.1436">NAD_0250</text><line style="stroke:#181818;stroke-width:0.5;" x1="1193.3" x2="1565.5021" y1="76.2969" y2="76.2969"/><text fill="#000000" font-family="sans-serif" font-size="14" lengthAdjust="spacing" textLength="203.2871" x="1212.3" y="93.292">Name: Kontaktinformationen</text><text fill="#000000" font-family="sans-serif" font-size="14" lengthAdjust="spacing" textLength="66.6436" x="1212.3" y="109.5889">Prozesse:</text><rect fill="none" height="6" style="stroke:#C82930;stroke-width:1;" width="6" x="1200.3" y="119.5391"/><text fill="#000000" font-family="sans-serif" font-size="14" lengthAdjust="spacing" textLength="317.9668" x="1212.3" y="125.8857">Sperrung und Entsperrung eines Anschlusses</text><line style="stroke:#181818;stroke-width:0.5;" x1="1193.3" x2="1565.5021" y1="133.1875" y2="133.1875"/><rect fill="#F24D5C" height="6" style="stroke:#C82930;stroke-width:1;" width="6" x="1200.3" y="143.8359"/><text fill="#000000" font-family="sans-serif" font-size="14" lengthAdjust="spacing" textLength="348.2021" x="1212.3" y="150.1826">Bestellung einer technischen Konfiguration (MSB)</text></g><!--class NAD_0250_msg_1--><g class="entity" data-entity="NAD_0250_msg_1" data-source-line="8" data-uid="ent0003" id="entity_NAD_0250_msg_1"><rect fill="#F1F1F1" height="129.4844" rx="2.5" ry="2.5" style="stroke:#181818;stroke-width:0.5;" width="426.8115" x="7" y="242.6369"/><ellipse cx="153.0635" cy="258.6369" fill="#ADD1B2" rx="11" ry="11" style="stroke:#181818;stroke-width:1;"/><path d="M156.0322,264.2775 Q155.4541,264.5744 154.8135,264.715 Q154.1729,264.8713 153.4697,264.8713 Q150.9697,264.8713 149.6416,263.2306 Q148.3291,261.5744 148.3291,258.4494 Q148.3291,255.3244 149.6416,253.6681 Q150.9697,252.0119 153.4697,252.0119 Q154.1729,252.0119 154.8135,252.1681 Q155.4697,252.3244 156.0322,252.6213 L156.0322,255.34 Q155.4072,254.7619 154.8135,254.4963 Q154.2197,254.215 153.5947,254.215 Q152.251,254.215 151.5635,255.2931 Q150.876,256.3556 150.876,258.4494 Q150.876,260.5431 151.5635,261.6213 Q152.251,262.6838 153.5947,262.6838 Q154.2197,262.6838 154.8135,262.4181 Q155.4072,262.1369 156.0322,261.5588 L156.0322,264.2775 Z " fill="#000000"/><text fill="#000000" font-family="sans-serif" font-size="14" lengthAdjust="spacing" textLength="126.1846" x="173.5635" y="263.4836">NAD_0250_msg_1</text><line style="stroke:#181818;stroke-width:0.5;" x1="8" x2="432.8115" y1="274.6369" y2="274.6369"/><text fill="#000000" font-family="sans-serif" font-size="14" lengthAdjust="spacing" textLength="165.8877" x="13" y="291.632">Nachricht: ORDCHG 1.1</text><text fill="#000000" font-family="sans-serif" font-size="14" lengthAdjust="spacing" textLength="204.1143" x="13" y="307.9289">Kontext: Nachrichtenstruktur</text><text fill="#000000" font-family="sans-serif" font-size="14" lengthAdjust="spacing" textLength="91.4033" x="13" y="324.2257">Pflichtfeld: Ja</text><text fill="#000000" font-family="sans-serif" font-size="14" lengthAdjust="spacing" textLength="173.9063" x="13" y="340.5226">Codes: ID, MP, NAD, SG6</text><text fill="#000000" font-family="sans-serif" font-size="14" lengthAdjust="spacing" textLength="414.8115" x="13" y="356.8195">Quelle: ORDCHG_MIG_1_1_au&#223;erordentliche_20240726.pdf</text><line style="stroke:#181818;stroke-width:0.5;" x1="8" x2="432.8115" y1="364.1213" y2="364.1213"/></g><!--class NAD_0250_msg_2--><g class="entity" data-entity="NAD_0250_msg_2" data-source-line="16" data-uid="ent0005" id="entity_NAD_0250_msg_2"><rect fill="#F1F1F1" height="145.7813" rx="2.5" ry="2.5" style="stroke:#181818;stroke-width:0.5;" width="758.1631" x="468.32" y="234.4869"/><ellipse cx="780.0593" cy="250.4869" fill="#ADD1B2" rx="11" ry="11" style="stroke:#181818;stroke-width:1;"/><path d="M783.028,256.1275 Q782.4499,256.4244 781.8093,256.565 Q781.1686,256.7213 780.4655,256.7213 Q777.9655,256.7213 776.6374,255.0806 Q775.3249,253.4244 775.3249,250.2994 Q775.3249,247.1744 776.6374,245.5181 Q777.9655,243.8619 780.4655,243.8619 Q781.1686,243.8619 781.8093,244.0181 Q782.4655,244.1744 783.028,244.4713 L783.028,247.19 Q782.403,246.6119 781.8093,246.3463 Q781.2155,246.065 780.5905,246.065 Q779.2468,246.065 778.5593,247.1431 Q777.8718,248.2056 777.8718,250.2994 Q777.8718,252.3931 778.5593,253.4713 Q779.2468,254.5338 780.5905,254.5338 Q781.2155,254.5338 781.8093,254.2681 Q782.403,253.9869 783.028,253.4088 L783.028,256.1275 Z " fill="#000000"/><text fill="#000000" font-family="sans-serif" font-size="14" lengthAdjust="spacing" textLength="126.1846" x="800.5593" y="255.3336">NAD_0250_msg_2</text><line style="stroke:#181818;stroke-width:0.5;" x1="469.32" x2="1225.4831" y1="266.4869" y2="266.4869"/><text fill="#000000" font-family="sans-serif" font-size="14" lengthAdjust="spacing" textLength="161.793" x="474.32" y="283.482">Nachricht: ORDRSP 1.4</text><text fill="#000000" font-family="sans-serif" font-size="14" lengthAdjust="spacing" textLength="204.1143" x="474.32" y="299.7789">Kontext: Nachrichtenstruktur</text><text fill="#000000" font-family="sans-serif" font-size="14" lengthAdjust="spacing" textLength="91.4033" x="474.32" y="316.0757">Pflichtfeld: Ja</text><text fill="#000000" font-family="sans-serif" font-size="14" lengthAdjust="spacing" textLength="211.4492" x="474.32" y="332.3726">Codes: ID, MP, NAD, SG1, SG6</text><text fill="#000000" font-family="sans-serif" font-size="14" lengthAdjust="spacing" textLength="283.9307" x="474.32" y="348.6695">Quelle: ORDRSP_MIG_1_4_20240619.pdf</text><line style="stroke:#181818;stroke-width:0.5;" x1="469.32" x2="1225.4831" y1="355.9713" y2="355.9713"/><text fill="#000000" font-family="sans-serif" font-size="14" lengthAdjust="spacing" textLength="746.1631" x="474.32" y="372.9664">Prozesse: Bestellung einer technischen Konfiguration (MSB), Sperrung und Entsperrung eines Anschlusses</text></g><!--class NAD_0250_proc_1--><g class="entity" data-entity="NAD_0250_proc_1" data-source-line="25" data-uid="ent0007" id="entity_NAD_0250_proc_1"><rect fill="#F1F1F1" height="105.1563" rx="2.5" ry="2.5" style="stroke:#181818;stroke-width:0.5;" width="1301.9961" x="1261.41" y="254.7969"/><ellipse cx="1844.5223" cy="274.9297" fill="#ADD1B2" rx="11" ry="11" style="stroke:#181818;stroke-width:1;"/><path d="M1847.4911,280.5703 Q1846.9129,280.8672 1846.2723,281.0078 Q1845.6317,281.1641 1844.9286,281.1641 Q1842.4286,281.1641 1841.1004,279.5234 Q1839.7879,277.8672 1839.7879,274.7422 Q1839.7879,271.6172 1841.1004,269.9609 Q1842.4286,268.3047 1844.9286,268.3047 Q1845.6317,268.3047 1846.2723,268.4609 Q1846.9286,268.6172 1847.4911,268.9141 L1847.4911,271.6328 Q1846.8661,271.0547 1846.2723,270.7891 Q1845.6786,270.5078 1845.0536,270.5078 Q1843.7098,270.5078 1843.0223,271.5859 Q1842.3348,272.6484 1842.3348,274.7422 Q1842.3348,276.8359 1843.0223,277.9141 Q1843.7098,278.9766 1845.0536,278.9766 Q1845.6786,278.9766 1846.2723,278.7109 Q1846.8661,278.4297 1847.4911,277.8516 L1847.4911,280.5703 Z " fill="#000000"/><text fill="#000000" font-family="sans-serif" font-size="12" font-style="italic" lengthAdjust="spacing" textLength="61.0605" x="1898.1278" y="270.9355">&#171;process&#187;</text><text fill="#000000" font-family="sans-serif" font-size="14" lengthAdjust="spacing" textLength="127.2715" x="1865.0223" y="286.7607">NAD_0250_proc_1</text><line style="stroke:#181818;stroke-width:0.5;" x1="1262.41" x2="2562.4061" y1="295.0625" y2="295.0625"/><text fill="#000000" font-family="sans-serif" font-size="14" lengthAdjust="spacing" textLength="156.4063" x="1267.41" y="312.0576">Gesetze: MsbG, EnWG</text><text fill="#000000" font-family="sans-serif" font-size="14" lengthAdjust="spacing" textLength="1289.9961" x="1267.41" y="328.3545">Zusammenfassung: Erl&#228;utere den Prozess zur Bestellung einer spezifischen technischen Konfiguration bei einem Messstellenbetreiber, beispielsweise f&#252;r ein intelligentes Messsystem.</text><line style="stroke:#181818;stroke-width:0.5;" x1="1262.41" x2="2562.4061" y1="335.6563" y2="335.6563"/><text fill="#000000" font-family="sans-serif" font-size="14" lengthAdjust="spacing" textLength="348.2021" x="1267.41" y="352.6514">Bestellung einer technischen Konfiguration (MSB)</text></g><!--class NAD_0250_proc_2--><g class="entity" data-entity="NAD_0250_proc_2" data-source-line="31" data-uid="ent0009" id="entity_NAD_0250_proc_2"><rect fill="#F1F1F1" height="105.1563" rx="2.5" ry="2.5" style="stroke:#181818;stroke-width:0.5;" width="853.9893" x="2598.41" y="254.7969"/><ellipse cx="2957.5189" cy="274.9297" fill="#ADD1B2" rx="11" ry="11" style="stroke:#181818;stroke-width:1;"/><path d="M2960.4876,280.5703 Q2959.9095,280.8672 2959.2689,281.0078 Q2958.6283,281.1641 2957.9251,281.1641 Q2955.4251,281.1641 2954.097,279.5234 Q2952.7845,277.8672 2952.7845,274.7422 Q2952.7845,271.6172 2954.097,269.9609 Q2955.4251,268.3047 2957.9251,268.3047 Q2958.6283,268.3047 2959.2689,268.4609 Q2959.9251,268.6172 2960.4876,268.9141 L2960.4876,271.6328 Q2959.8626,271.0547 2959.2689,270.7891 Q2958.6751,270.5078 2958.0501,270.5078 Q2956.7064,270.5078 2956.0189,271.5859 Q2955.3314,272.6484 2955.3314,274.7422 Q2955.3314,276.8359 2956.0189,277.9141 Q2956.7064,278.9766 2958.0501,278.9766 Q2958.6751,278.9766 2959.2689,278.7109 Q2959.8626,278.4297 2960.4876,277.8516 L2960.4876,280.5703 Z " fill="#000000"/><text fill="#000000" font-family="sans-serif" font-size="12" font-style="italic" lengthAdjust="spacing" textLength="61.0605" x="3011.1244" y="270.9355">&#171;process&#187;</text><text fill="#000000" font-family="sans-serif" font-size="14" lengthAdjust="spacing" textLength="127.2715" x="2978.0189" y="286.7607">NAD_0250_proc_2</text><line style="stroke:#181818;stroke-width:0.5;" x1="2599.41" x2="3451.3993" y1="295.0625" y2="295.0625"/><text fill="#000000" font-family="sans-serif" font-size="14" lengthAdjust="spacing" textLength="317.9668" x="2604.41" y="312.0576">Sperrung und Entsperrung eines Anschlusses</text><text fill="#000000" font-family="sans-serif" font-size="14" lengthAdjust="spacing" textLength="138.3252" x="2604.41" y="328.3545">Gesetze: StromGVV</text><text fill="#000000" font-family="sans-serif" font-size="14" lengthAdjust="spacing" textLength="841.9893" x="2604.41" y="344.6514">Zusammenfassung: Beschreibe den End-to-End-Prozess f&#252;r die Sperrung und Wiederherstellung eines Netzanschlusses.</text><line style="stroke:#181818;stroke-width:0.5;" x1="2599.41" x2="3451.3993" y1="351.9531" y2="351.9531"/></g><!--link NAD_0250 to NAD_0250_msg_1--><g class="link" data-entity-1="NAD_0250" data-entity-2="NAD_0250_msg_1" data-source-line="15" data-uid="lnk4" id="link_NAD_0250_NAD_0250_msg_1"><path codeLine="15" d="M1191.84,119.6869 C1003.05,139.6969 704.26,177.0869 450.41,234.4869 C440,236.8369 435.1978,237.9305 424.5178,240.7005" fill="none" id="NAD_0250-to-NAD_0250_msg_1" style="stroke:#181818;stroke-width:1;"/><polygon fill="#181818" points="418.71,242.2069,428.426,243.8193,423.5499,240.9516,426.4175,236.0755,418.71,242.2069" style="stroke:#181818;stroke-width:1;"/><text fill="#000000" font-family="sans-serif" font-size="13" lengthAdjust="spacing" textLength="85.2363" x="679.41" y="200.5538">verwendet in</text></g><!--link NAD_0250 to NAD_0250_msg_2--><g class="link" data-entity-1="NAD_0250" data-entity-2="NAD_0250_msg_2" data-source-line="24" data-uid="lnk6" id="link_NAD_0250_NAD_0250_msg_2"><path codeLine="24" d="M1233.68,157.9069 C1172.47,181.4369 1106.0804,206.9437 1040.9504,231.9837" fill="none" id="NAD_0250-to-NAD_0250_msg_2" style="stroke:#181818;stroke-width:1;"/><polygon fill="#181818" points="1035.35,234.1369,1045.186,234.6408,1040.017,232.3426,1042.3151,227.1736,1035.35,234.1369" style="stroke:#181818;stroke-width:1;"/><text fill="#000000" font-family="sans-serif" font-size="13" lengthAdjust="spacing" textLength="85.2363" x="1146.41" y="200.5538">verwendet in</text></g><!--link NAD_0250 to NAD_0250_proc_1--><g class="link" data-entity-1="NAD_0250" data-entity-2="NAD_0250_proc_1" data-source-line="30" data-uid="lnk8" id="link_NAD_0250_NAD_0250_proc_1"><path codeLine="30" d="M1525.4,157.9069 C1603.84,187.9969 1694.3183,222.7074 1771.1183,252.1774" fill="none" id="NAD_0250-to-NAD_0250_proc_1" style="stroke:#181818;stroke-width:1;stroke-dasharray:7,7;"/><polygon fill="#181818" points="1776.72,254.3269,1769.7504,247.3681,1772.0519,252.5356,1766.8844,254.8371,1776.72,254.3269" style="stroke:#181818;stroke-width:1;"/><text fill="#000000" font-family="sans-serif" font-size="13" lengthAdjust="spacing" textLength="91.6221" x="1647.41" y="200.5538">eingebettet in</text></g><!--link NAD_0250 to NAD_0250_proc_2--><g class="link" data-entity-1="NAD_0250" data-entity-2="NAD_0250_proc_2" data-source-line="36" data-uid="lnk10" id="link_NAD_0250_NAD_0250_proc_2"><path codeLine="36" d="M1566.99,119.6569 C1803.63,142.7469 2222.88,185.8969 2580.41,234.4869 C2624.32,240.4569 2664.6408,246.3779 2710.0608,253.4179" fill="none" id="NAD_0250-to-NAD_0250_proc_2" style="stroke:#181818;stroke-width:1;stroke-dasharray:7,7;"/><polygon fill="#181818" points="2715.99,254.3369,2707.7089,249.0056,2711.049,253.571,2706.4835,256.9112,2715.99,254.3369" style="stroke:#181818;stroke-width:1;"/><text fill="#000000" font-family="sans-serif" font-size="13" lengthAdjust="spacing" textLength="91.6221" x="2319.41" y="200.5538">eingebettet in</text></g><!--SRC=[hPB1Rjf048RlFCKSMyaWR56gMX5I4f2RLgGqI8dKYsNiCQnYhz7iRDCIzLbwwMFqnejrriMq1294LVdWdTcTV-R_TbbnWJ1C67N2HMAW3TVdmx0RlEgsKecD2sCNmcCBu3efCOJtbURadfNEAoeJLfL6BPiJgbPe38Qo1X6wGCDO55RF0PL60iPqePL95wYTHgxcbkfoU36UNhpSb4sNIEIAhCvWfDaqiHCnSAv5eB3InxI-FPanBiqyzZUJfWjIwO93-70pl7mRWT_n9Uzcno-ItHv0RPZiFLjo7lB2vN8iiX3U9PAvh38q8LmDFHXFFDVAWsdKbvsFLjnXen-FhwBObo-nw-z85MMesObX77I3NlTrqEyiirnctX9jjmTFHm_XCz83wWmPb3vaBpXWxsOw4Nkz_sVFRpnkx_Jas_HEkSWTcE9c0xFt6rtVVtCKNN04tPAgLFYUdRc5E1eCQex_y4OZDCWh6NLiPf4dnkuYoNwo9YbBrBbq5RKGHbIiVrX6Gf2Nq824bQNzfa9cfV9Dr-SdcA6g2qeOYrIjWNg6JAXcI9xRDqk5XNcG1KA-_adklD1mHzLS7gHmhsk_IdNP-PjefpFOenMwyZbA2tuUQh07zQIBt-ASCbLbT7jx2AOGa-ViRDOmHpfhSzLsluPhRJPJkDlyJc66j43Q0IuEf6NoPumZ888z4By0]--></g></svg>