<svg xmlns="http://www.w3.org/2000/svg" xmlns:xlink="http://www.w3.org/1999/xlink" contentStyleType="text/css" data-diagram-type="CLASS" height="370px" preserveAspectRatio="none" style="width:984px;height:370px;background:#FFFFFF;" version="1.1" viewBox="0 0 984 370" width="984px" zoomAndPan="magnify"><title>Datenatlas - NAD:M</title><defs/><g><g class="title" data-source-line="1"><text fill="#000000" font-family="sans-serif" font-size="14" font-weight="bold" lengthAdjust="spacing" textLength="155.2031" x="407.7032" y="22.9951">Datenatlas - NAD:M</text></g><!--class NAD_M--><g class="entity" data-entity="NAD_M" data-source-line="2" data-uid="ent0002" id="entity_NAD_M"><rect fill="#F1F1F1" height="96.8906" rx="2.5" ry="2.5" style="stroke:#181818;stroke-width:0.5;" width="184.0127" x="314.42" y="44.2969"/><ellipse cx="377.2218" cy="60.2969" fill="#ADD1B2" rx="11" ry="11" style="stroke:#181818;stroke-width:1;"/><path d="M380.1905,65.9375 Q379.6124,66.2344 378.9718,66.375 Q378.3311,66.5313 377.628,66.5313 Q375.128,66.5313 373.7999,64.8906 Q372.4874,63.2344 372.4874,60.1094 Q372.4874,56.9844 373.7999,55.3281 Q375.128,53.6719 377.628,53.6719 Q378.3311,53.6719 378.9718,53.8281 Q379.628,53.9844 380.1905,54.2813 L380.1905,57 Q379.5655,56.4219 378.9718,56.1563 Q378.378,55.875 377.753,55.875 Q376.4093,55.875 375.7218,56.9531 Q375.0343,58.0156 375.0343,60.1094 Q375.0343,62.2031 375.7218,63.2813 Q376.4093,64.3438 377.753,64.3438 Q378.378,64.3438 378.9718,64.0781 Q379.5655,63.7969 380.1905,63.2188 L380.1905,65.9375 Z " fill="#000000"/><text fill="#000000" font-family="sans-serif" font-size="14" lengthAdjust="spacing" textLength="49.9092" x="397.7218" y="65.1436">NAD_M</text><line style="stroke:#181818;stroke-width:0.5;" x1="315.42" x2="497.4327" y1="76.2969" y2="76.2969"/><text fill="#000000" font-family="sans-serif" font-size="14" lengthAdjust="spacing" textLength="59.377" x="334.42" y="93.292">Name: 1</text><text fill="#000000" font-family="sans-serif" font-size="14" lengthAdjust="spacing" textLength="66.6436" x="334.42" y="109.5889">Prozesse:</text><rect fill="none" height="6" style="stroke:#C82930;stroke-width:1;" width="6" x="322.42" y="119.5391"/><text fill="#000000" font-family="sans-serif" font-size="14" lengthAdjust="spacing" textLength="158.0127" x="334.42" y="125.8857">Stammdaten&#228;nderung</text><line style="stroke:#181818;stroke-width:0.5;" x1="315.42" x2="497.4327" y1="133.1875" y2="133.1875"/></g><!--class NAD_M_msg_1--><g class="entity" data-entity="NAD_M_msg_1" data-source-line="7" data-uid="ent0003" id="entity_NAD_M_msg_1"><rect fill="#F1F1F1" height="145.7813" rx="2.5" ry="2.5" style="stroke:#181818;stroke-width:0.5;" width="296.8604" x="7" y="218.1869"/><ellipse cx="99.8628" cy="234.1869" fill="#ADD1B2" rx="11" ry="11" style="stroke:#181818;stroke-width:1;"/><path d="M102.8315,239.8275 Q102.2534,240.1244 101.6128,240.265 Q100.9722,240.4213 100.269,240.4213 Q97.769,240.4213 96.4409,238.7806 Q95.1284,237.1244 95.1284,233.9994 Q95.1284,230.8744 96.4409,229.2181 Q97.769,227.5619 100.269,227.5619 Q100.9722,227.5619 101.6128,227.7181 Q102.269,227.8744 102.8315,228.1713 L102.8315,230.89 Q102.2065,230.3119 101.6128,230.0463 Q101.019,229.765 100.394,229.765 Q99.0503,229.765 98.3628,230.8431 Q97.6753,231.9056 97.6753,233.9994 Q97.6753,236.0931 98.3628,237.1713 Q99.0503,238.2338 100.394,238.2338 Q101.019,238.2338 101.6128,237.9681 Q102.2065,237.6869 102.8315,237.1088 L102.8315,239.8275 Z " fill="#000000"/><text fill="#000000" font-family="sans-serif" font-size="14" lengthAdjust="spacing" textLength="102.6348" x="120.3628" y="239.0336">NAD_M_msg_1</text><line style="stroke:#181818;stroke-width:0.5;" x1="8" x2="302.8604" y1="250.1869" y2="250.1869"/><text fill="#000000" font-family="sans-serif" font-size="14" lengthAdjust="spacing" textLength="162.7227" x="13" y="267.182">Nachricht: PARTIN 1.0e</text><text fill="#000000" font-family="sans-serif" font-size="14" lengthAdjust="spacing" textLength="204.1143" x="13" y="283.4789">Kontext: Nachrichtenstruktur</text><text fill="#000000" font-family="sans-serif" font-size="14" lengthAdjust="spacing" textLength="91.4033" x="13" y="299.7757">Pflichtfeld: Ja</text><text fill="#000000" font-family="sans-serif" font-size="14" lengthAdjust="spacing" textLength="136.3633" x="13" y="316.0726">Codes: ID, MP, NAD</text><text fill="#000000" font-family="sans-serif" font-size="14" lengthAdjust="spacing" textLength="229.1064" x="13" y="332.3695">Prozesse: Stammdaten&#228;nderung</text><text fill="#000000" font-family="sans-serif" font-size="14" lengthAdjust="spacing" textLength="284.8604" x="13" y="348.6664">Quelle: PARTIN_MIG_1_0e_20241001.pdf</text><line style="stroke:#181818;stroke-width:0.5;" x1="8" x2="302.8604" y1="355.9681" y2="355.9681"/></g><!--class NAD_M_proc_1--><g class="entity" data-entity="NAD_M_proc_1" data-source-line="16" data-uid="ent0005" id="entity_NAD_M_proc_1"><rect fill="#F1F1F1" height="88.8594" rx="2.5" ry="2.5" style="stroke:#181818;stroke-width:0.5;" width="638.3496" x="339.26" y="246.6469"/><ellipse cx="602.324" cy="266.7797" fill="#ADD1B2" rx="11" ry="11" style="stroke:#181818;stroke-width:1;"/><path d="M605.2927,272.4203 Q604.7146,272.7172 604.074,272.8578 Q603.4333,273.0141 602.7302,273.0141 Q600.2302,273.0141 598.9021,271.3734 Q597.5896,269.7172 597.5896,266.5922 Q597.5896,263.4672 598.9021,261.8109 Q600.2302,260.1547 602.7302,260.1547 Q603.4333,260.1547 604.074,260.3109 Q604.7302,260.4672 605.2927,260.7641 L605.2927,263.4828 Q604.6677,262.9047 604.074,262.6391 Q603.4802,262.3578 602.8552,262.3578 Q601.5115,262.3578 600.824,263.4359 Q600.1365,264.4984 600.1365,266.5922 Q600.1365,268.6859 600.824,269.7641 Q601.5115,270.8266 602.8552,270.8266 Q603.4802,270.8266 604.074,270.5609 Q604.6677,270.2797 605.2927,269.7016 L605.2927,272.4203 Z " fill="#000000"/><text fill="#000000" font-family="sans-serif" font-size="12" font-style="italic" lengthAdjust="spacing" textLength="61.0605" x="644.1545" y="262.7855">&#171;process&#187;</text><text fill="#000000" font-family="sans-serif" font-size="14" lengthAdjust="spacing" textLength="103.7217" x="622.824" y="278.6107">NAD_M_proc_1</text><line style="stroke:#181818;stroke-width:0.5;" x1="340.26" x2="976.6096" y1="286.9125" y2="286.9125"/><text fill="#000000" font-family="sans-serif" font-size="14" lengthAdjust="spacing" textLength="158.0127" x="345.26" y="303.9076">Stammdaten&#228;nderung</text><text fill="#000000" font-family="sans-serif" font-size="14" lengthAdjust="spacing" textLength="626.3496" x="345.26" y="320.2045">Zusammenfassung: Wie wird eine Stammdaten&#228;nderung an einer Marktlokation, wie z.B.</text><line style="stroke:#181818;stroke-width:0.5;" x1="340.26" x2="976.6096" y1="327.5063" y2="327.5063"/></g><!--link NAD_M to NAD_M_msg_1--><g class="link" data-entity-1="NAD_M" data-entity-2="NAD_M_msg_1" data-source-line="15" data-uid="lnk4" id="link_NAD_M_NAD_M_msg_1"><path codeLine="15" d="M345.35,141.5169 C316.04,164.4469 285.0162,188.7105 252.4762,214.1605" fill="none" id="NAD_M-to-NAD_M_msg_1" style="stroke:#181818;stroke-width:1;"/><polygon fill="#181818" points="247.75,217.8569,257.3035,215.4631,251.6885,214.7765,252.375,209.1615,247.75,217.8569" style="stroke:#181818;stroke-width:1;"/><text fill="#000000" font-family="sans-serif" font-size="13" lengthAdjust="spacing" textLength="85.2363" x="304.43" y="184.2538">verwendet in</text></g><!--link NAD_M to NAD_M_proc_1--><g class="link" data-entity-1="NAD_M" data-entity-2="NAD_M_proc_1" data-source-line="20" data-uid="lnk6" id="link_NAD_M_NAD_M_proc_1"><path codeLine="20" d="M467.75,141.5169 C508.84,173.5269 557.777,211.6593 597.707,242.7693" fill="none" id="NAD_M-to-NAD_M_proc_1" style="stroke:#181818;stroke-width:1;stroke-dasharray:7,7;"/><polygon fill="#181818" points="602.44,246.4569,597.7988,237.7701,598.4958,243.3839,592.882,244.0809,602.44,246.4569" style="stroke:#181818;stroke-width:1;"/><text fill="#000000" font-family="sans-serif" font-size="13" lengthAdjust="spacing" textLength="91.6221" x="526.43" y="184.2538">eingebettet in</text></g><!--SRC=[ROzDQiD038NtEOKEa1WxT3K4Grf3SOj3-WE5ReQfBJj3nkCm8pSbfRVfJNgnQj8cnE3TqvEUz8aq6OHC4Lf5HdcOmMgPYM9ISk63bWLyJW1MgaK12QkrwmxeFGhMmFDFfDgs2Xj-lcs5hhVDvEioBrlVoEH_IxbnkjoGWFNoyJbVGHB5o8txpX9-i7sUGEl9zLlgNRXPc-3LQ2e1TugTcwv2Bo3Ffb2if-7G9Tee5C13ZyRWwROiybkPo1ZbF9vV9N6SHBkgPlQ_hsUpTC0lu1tT7daRWRQ31tUkAtbYiGY20TBq-Equn6llsKPRSvuT0IyQOQzT1QWjZeL0sMFFGQ7SbaotLQGxE-KKmY6wZixCKPGEaKG8DlY6H4ViNm00]--></g></svg>