<svg xmlns="http://www.w3.org/2000/svg" xmlns:xlink="http://www.w3.org/1999/xlink" contentStyleType="text/css" data-diagram-type="CLASS" height="419px" preserveAspectRatio="none" style="width:3882px;height:419px;background:#FFFFFF;" version="1.1" viewBox="0 0 3882 419" width="3882px" zoomAndPan="magnify"><title>Datenatlas - NAD:3042</title><defs/><g><g class="title" data-source-line="1"><text fill="#000000" font-family="sans-serif" font-size="14" font-weight="bold" lengthAdjust="spacing" textLength="180.2363" x="1843.9266" y="22.9951">Datenatlas - NAD:3042</text></g><!--class NAD_3042--><g class="entity" data-entity="NAD_3042" data-source-line="2" data-uid="ent0002" id="entity_NAD_3042"><rect fill="#F1F1F1" height="145.7813" rx="2.5" ry="2.5" style="stroke:#181818;stroke-width:0.5;" width="289.0811" x="1644.37" y="44.2969"/><ellipse cx="1747.931" cy="60.2969" fill="#ADD1B2" rx="11" ry="11" style="stroke:#181818;stroke-width:1;"/><path d="M1750.8998,65.9375 Q1750.3217,66.2344 1749.681,66.375 Q1749.0404,66.5313 1748.3373,66.5313 Q1745.8373,66.5313 1744.5092,64.8906 Q1743.1967,63.2344 1743.1967,60.1094 Q1743.1967,56.9844 1744.5092,55.3281 Q1745.8373,53.6719 1748.3373,53.6719 Q1749.0404,53.6719 1749.681,53.8281 Q1750.3373,53.9844 1750.8998,54.2813 L1750.8998,57 Q1750.2748,56.4219 1749.681,56.1563 Q1749.0873,55.875 1748.4623,55.875 Q1747.1185,55.875 1746.431,56.9531 Q1745.7435,58.0156 1745.7435,60.1094 Q1745.7435,62.2031 1746.431,63.2813 Q1747.1185,64.3438 1748.4623,64.3438 Q1749.0873,64.3438 1749.681,64.0781 Q1750.2748,63.7969 1750.8998,63.2188 L1750.8998,65.9375 Z " fill="#000000"/><text fill="#000000" font-family="sans-serif" font-size="14" lengthAdjust="spacing" textLength="73.459" x="1768.431" y="65.1436">NAD_3042</text><line style="stroke:#181818;stroke-width:0.5;" x1="1645.37" x2="1932.4511" y1="76.2969" y2="76.2969"/><text fill="#000000" font-family="sans-serif" font-size="14" lengthAdjust="spacing" textLength="263.0811" x="1664.37" y="93.292">Name: Stra&#223;e und Hausnummer oder</text><text fill="#000000" font-family="sans-serif" font-size="14" lengthAdjust="spacing" textLength="59.8691" x="1664.37" y="109.5889">Postfach</text><text fill="#000000" font-family="sans-serif" font-size="14" lengthAdjust="spacing" textLength="66.6436" x="1664.37" y="125.8857">Prozesse:</text><rect fill="none" height="6" style="stroke:#C82930;stroke-width:1;" width="6" x="1652.37" y="135.8359"/><text fill="#000000" font-family="sans-serif" font-size="14" lengthAdjust="spacing" textLength="180.3457" x="1664.37" y="142.1826">Netznutzungsabrechnung</text><rect fill="none" height="6" style="stroke:#C82930;stroke-width:1;" width="6" x="1652.37" y="152.1328"/><text fill="#000000" font-family="sans-serif" font-size="14" lengthAdjust="spacing" textLength="223.2822" x="1664.37" y="158.4795">Messstellenbetriebsabrechnung</text><rect fill="none" height="6" style="stroke:#C82930;stroke-width:1;" width="6" x="1652.37" y="168.4297"/><text fill="#000000" font-family="sans-serif" font-size="14" lengthAdjust="spacing" textLength="158.0127" x="1664.37" y="174.7764">Stammdaten&#228;nderung</text><line style="stroke:#181818;stroke-width:0.5;" x1="1645.37" x2="1932.4511" y1="182.0781" y2="182.0781"/></g><!--class NAD_3042_msg_1--><g class="entity" data-entity="NAD_3042_msg_1" data-source-line="10" data-uid="ent0003" id="entity_NAD_3042_msg_1"><rect fill="#F1F1F1" height="145.7813" rx="2.5" ry="2.5" style="stroke:#181818;stroke-width:0.5;" width="607.8203" x="7" y="267.0769"/><ellipse cx="243.5679" cy="283.0769" fill="#ADD1B2" rx="11" ry="11" style="stroke:#181818;stroke-width:1;"/><path d="M246.5366,288.7175 Q245.9585,289.0144 245.3179,289.155 Q244.6772,289.3113 243.9741,289.3113 Q241.4741,289.3113 240.146,287.6706 Q238.8335,286.0144 238.8335,282.8894 Q238.8335,279.7644 240.146,278.1081 Q241.4741,276.4519 243.9741,276.4519 Q244.6772,276.4519 245.3179,276.6081 Q245.9741,276.7644 246.5366,277.0613 L246.5366,279.78 Q245.9116,279.2019 245.3179,278.9363 Q244.7241,278.655 244.0991,278.655 Q242.7554,278.655 242.0679,279.7331 Q241.3804,280.7956 241.3804,282.8894 Q241.3804,284.9831 242.0679,286.0613 Q242.7554,287.1238 244.0991,287.1238 Q244.7241,287.1238 245.3179,286.8581 Q245.9116,286.5769 246.5366,285.9988 L246.5366,288.7175 Z " fill="#000000"/><text fill="#000000" font-family="sans-serif" font-size="14" lengthAdjust="spacing" textLength="126.1846" x="264.0679" y="287.9236">NAD_3042_msg_1</text><line style="stroke:#181818;stroke-width:0.5;" x1="8" x2="613.8203" y1="299.0769" y2="299.0769"/><text fill="#000000" font-family="sans-serif" font-size="14" lengthAdjust="spacing" textLength="161.1982" x="13" y="316.072">Nachricht: INVOIC 2.8d</text><text fill="#000000" font-family="sans-serif" font-size="14" lengthAdjust="spacing" textLength="170.3447" x="13" y="332.3689">Kontext: Segmentlayout</text><text fill="#000000" font-family="sans-serif" font-size="14" lengthAdjust="spacing" textLength="91.4033" x="13" y="348.6657">Pflichtfeld: Ja</text><text fill="#000000" font-family="sans-serif" font-size="14" lengthAdjust="spacing" textLength="595.8203" x="13" y="364.9626">Codes: 17, 293, 332, 35, 99, DE, GS1, ID, ISO, MP, MS, NAD, OCR, SG2, UN, Z01, Z02</text><text fill="#000000" font-family="sans-serif" font-size="14" lengthAdjust="spacing" textLength="483.6221" x="13" y="381.2595">Prozesse: Netznutzungsabrechnung, Messstellenbetriebsabrechnung</text><text fill="#000000" font-family="sans-serif" font-size="14" lengthAdjust="spacing" textLength="396.6074" x="13" y="397.5564">Quelle: INVOIC_MIG_2.8d_Fehlerkorrektur_20250131.pdf</text><line style="stroke:#181818;stroke-width:0.5;" x1="8" x2="613.8203" y1="404.8581" y2="404.8581"/></g><!--class NAD_3042_msg_2--><g class="entity" data-entity="NAD_3042_msg_2" data-source-line="19" data-uid="ent0005" id="entity_NAD_3042_msg_2"><rect fill="#F1F1F1" height="145.7813" rx="2.5" ry="2.5" style="stroke:#181818;stroke-width:0.5;" width="579.041" x="649.39" y="267.0769"/><ellipse cx="871.5682" cy="283.0769" fill="#ADD1B2" rx="11" ry="11" style="stroke:#181818;stroke-width:1;"/><path d="M874.537,288.7175 Q873.9588,289.0144 873.3182,289.155 Q872.6776,289.3113 871.9745,289.3113 Q869.4745,289.3113 868.1463,287.6706 Q866.8338,286.0144 866.8338,282.8894 Q866.8338,279.7644 868.1463,278.1081 Q869.4745,276.4519 871.9745,276.4519 Q872.6776,276.4519 873.3182,276.6081 Q873.9745,276.7644 874.537,277.0613 L874.537,279.78 Q873.912,279.2019 873.3182,278.9363 Q872.7245,278.655 872.0995,278.655 Q870.7557,278.655 870.0682,279.7331 Q869.3807,280.7956 869.3807,282.8894 Q869.3807,284.9831 870.0682,286.0613 Q870.7557,287.1238 872.0995,287.1238 Q872.7245,287.1238 873.3182,286.8581 Q873.912,286.5769 874.537,285.9988 L874.537,288.7175 Z " fill="#000000"/><text fill="#000000" font-family="sans-serif" font-size="14" lengthAdjust="spacing" textLength="126.1846" x="892.0682" y="287.9236">NAD_3042_msg_2</text><line style="stroke:#181818;stroke-width:0.5;" x1="650.39" x2="1227.431" y1="299.0769" y2="299.0769"/><text fill="#000000" font-family="sans-serif" font-size="14" lengthAdjust="spacing" textLength="165.6484" x="655.39" y="316.072">Nachricht: INVOIC 2.8d.</text><text fill="#000000" font-family="sans-serif" font-size="14" lengthAdjust="spacing" textLength="170.3447" x="655.39" y="332.3689">Kontext: Segmentlayout</text><text fill="#000000" font-family="sans-serif" font-size="14" lengthAdjust="spacing" textLength="91.4033" x="655.39" y="348.6657">Pflichtfeld: Ja</text><text fill="#000000" font-family="sans-serif" font-size="14" lengthAdjust="spacing" textLength="567.041" x="655.39" y="364.9626">Codes: 17, 293, 332, 35, 99, DE, GS1, ID, ISO, MP, MR, NAD, OCR, SG2, Z01, Z02</text><text fill="#000000" font-family="sans-serif" font-size="14" lengthAdjust="spacing" textLength="483.6221" x="655.39" y="381.2595">Prozesse: Netznutzungsabrechnung, Messstellenbetriebsabrechnung</text><text fill="#000000" font-family="sans-serif" font-size="14" lengthAdjust="spacing" textLength="290.3359" x="655.39" y="397.5564">Quelle: INVOIC_MIG_2_8d__20240619.pdf</text><line style="stroke:#181818;stroke-width:0.5;" x1="650.39" x2="1227.431" y1="404.8581" y2="404.8581"/></g><!--class NAD_3042_msg_3--><g class="entity" data-entity="NAD_3042_msg_3" data-source-line="28" data-uid="ent0007" id="entity_NAD_3042_msg_3"><rect fill="#F1F1F1" height="145.7813" rx="2.5" ry="2.5" style="stroke:#181818;stroke-width:0.5;" width="426.0664" x="1263.88" y="267.0769"/><ellipse cx="1409.5709" cy="283.0769" fill="#ADD1B2" rx="11" ry="11" style="stroke:#181818;stroke-width:1;"/><path d="M1412.5397,288.7175 Q1411.9615,289.0144 1411.3209,289.155 Q1410.6803,289.3113 1409.9772,289.3113 Q1407.4772,289.3113 1406.149,287.6706 Q1404.8365,286.0144 1404.8365,282.8894 Q1404.8365,279.7644 1406.149,278.1081 Q1407.4772,276.4519 1409.9772,276.4519 Q1410.6803,276.4519 1411.3209,276.6081 Q1411.9772,276.7644 1412.5397,277.0613 L1412.5397,279.78 Q1411.9147,279.2019 1411.3209,278.9363 Q1410.7272,278.655 1410.1022,278.655 Q1408.7584,278.655 1408.0709,279.7331 Q1407.3834,280.7956 1407.3834,282.8894 Q1407.3834,284.9831 1408.0709,286.0613 Q1408.7584,287.1238 1410.1022,287.1238 Q1410.7272,287.1238 1411.3209,286.8581 Q1411.9147,286.5769 1412.5397,285.9988 L1412.5397,288.7175 Z " fill="#000000"/><text fill="#000000" font-family="sans-serif" font-size="14" lengthAdjust="spacing" textLength="126.1846" x="1430.0709" y="287.9236">NAD_3042_msg_3</text><line style="stroke:#181818;stroke-width:0.5;" x1="1264.88" x2="1688.9464" y1="299.0769" y2="299.0769"/><text fill="#000000" font-family="sans-serif" font-size="14" lengthAdjust="spacing" textLength="162.7227" x="1269.88" y="316.072">Nachricht: PARTIN 1.0e</text><text fill="#000000" font-family="sans-serif" font-size="14" lengthAdjust="spacing" textLength="170.3447" x="1269.88" y="332.3689">Kontext: Segmentlayout</text><text fill="#000000" font-family="sans-serif" font-size="14" lengthAdjust="spacing" textLength="91.4033" x="1269.88" y="348.6657">Pflichtfeld: Ja</text><text fill="#000000" font-family="sans-serif" font-size="14" lengthAdjust="spacing" textLength="414.0664" x="1269.88" y="364.9626">Codes: 17, 256, 35, 70, EDI, ISO, NAD, OCR, SG4, Z02, Z21</text><text fill="#000000" font-family="sans-serif" font-size="14" lengthAdjust="spacing" textLength="229.1064" x="1269.88" y="381.2595">Prozesse: Stammdaten&#228;nderung</text><text fill="#000000" font-family="sans-serif" font-size="14" lengthAdjust="spacing" textLength="284.8604" x="1269.88" y="397.5564">Quelle: PARTIN_MIG_1_0e_20241001.pdf</text><line style="stroke:#181818;stroke-width:0.5;" x1="1264.88" x2="1688.9464" y1="404.8581" y2="404.8581"/></g><!--class NAD_3042_proc_1--><g class="entity" data-entity="NAD_3042_proc_1" data-source-line="37" data-uid="ent0009" id="entity_NAD_3042_proc_1"><rect fill="#F1F1F1" height="105.1563" rx="2.5" ry="2.5" style="stroke:#181818;stroke-width:0.5;" width="752.6465" x="1724.59" y="287.3869"/><ellipse cx="2033.0275" cy="307.5197" fill="#ADD1B2" rx="11" ry="11" style="stroke:#181818;stroke-width:1;"/><path d="M2035.9963,313.1603 Q2035.4181,313.4572 2034.7775,313.5978 Q2034.1369,313.7541 2033.4338,313.7541 Q2030.9338,313.7541 2029.6056,312.1134 Q2028.2931,310.4572 2028.2931,307.3322 Q2028.2931,304.2072 2029.6056,302.5509 Q2030.9338,300.8947 2033.4338,300.8947 Q2034.1369,300.8947 2034.7775,301.0509 Q2035.4338,301.2072 2035.9963,301.5041 L2035.9963,304.2228 Q2035.3713,303.6447 2034.7775,303.3791 Q2034.1838,303.0978 2033.5588,303.0978 Q2032.215,303.0978 2031.5275,304.1759 Q2030.84,305.2384 2030.84,307.3322 Q2030.84,309.4259 2031.5275,310.5041 Q2032.215,311.5666 2033.5588,311.5666 Q2034.1838,311.5666 2034.7775,311.3009 Q2035.3713,311.0197 2035.9963,310.4416 L2035.9963,313.1603 Z " fill="#000000"/><text fill="#000000" font-family="sans-serif" font-size="12" font-style="italic" lengthAdjust="spacing" textLength="61.0605" x="2086.633" y="303.5255">&#171;process&#187;</text><text fill="#000000" font-family="sans-serif" font-size="14" lengthAdjust="spacing" textLength="127.2715" x="2053.5275" y="319.3507">NAD_3042_proc_1</text><line style="stroke:#181818;stroke-width:0.5;" x1="1725.59" x2="2476.2365" y1="327.6525" y2="327.6525"/><text fill="#000000" font-family="sans-serif" font-size="14" lengthAdjust="spacing" textLength="180.3457" x="1730.59" y="344.6476">Netznutzungsabrechnung</text><text fill="#000000" font-family="sans-serif" font-size="14" lengthAdjust="spacing" textLength="218.0938" x="1730.59" y="360.9445">Gesetze: StromNEV, StromNZV</text><text fill="#000000" font-family="sans-serif" font-size="14" lengthAdjust="spacing" textLength="740.6465" x="1730.59" y="377.2414">Zusammenfassung: Wie funktioniert die Netznutzungsabrechnung zwischen Netzbetreiber und Lieferant?</text><line style="stroke:#181818;stroke-width:0.5;" x1="1725.59" x2="2476.2365" y1="384.5431" y2="384.5431"/></g><!--class NAD_3042_proc_2--><g class="entity" data-entity="NAD_3042_proc_2" data-source-line="43" data-uid="ent0011" id="entity_NAD_3042_proc_2"><rect fill="#F1F1F1" height="105.1563" rx="2.5" ry="2.5" style="stroke:#181818;stroke-width:0.5;" width="690.2275" x="2511.8" y="287.3869"/><ellipse cx="2789.028" cy="307.5197" fill="#ADD1B2" rx="11" ry="11" style="stroke:#181818;stroke-width:1;"/><path d="M2791.9968,313.1603 Q2791.4187,313.4572 2790.778,313.5978 Q2790.1374,313.7541 2789.4343,313.7541 Q2786.9343,313.7541 2785.6062,312.1134 Q2784.2937,310.4572 2784.2937,307.3322 Q2784.2937,304.2072 2785.6062,302.5509 Q2786.9343,300.8947 2789.4343,300.8947 Q2790.1374,300.8947 2790.778,301.0509 Q2791.4343,301.2072 2791.9968,301.5041 L2791.9968,304.2228 Q2791.3718,303.6447 2790.778,303.3791 Q2790.1843,303.0978 2789.5593,303.0978 Q2788.2155,303.0978 2787.528,304.1759 Q2786.8405,305.2384 2786.8405,307.3322 Q2786.8405,309.4259 2787.528,310.5041 Q2788.2155,311.5666 2789.5593,311.5666 Q2790.1843,311.5666 2790.778,311.3009 Q2791.3718,311.0197 2791.9968,310.4416 L2791.9968,313.1603 Z " fill="#000000"/><text fill="#000000" font-family="sans-serif" font-size="12" font-style="italic" lengthAdjust="spacing" textLength="61.0605" x="2842.6335" y="303.5255">&#171;process&#187;</text><text fill="#000000" font-family="sans-serif" font-size="14" lengthAdjust="spacing" textLength="127.2715" x="2809.528" y="319.3507">NAD_3042_proc_2</text><line style="stroke:#181818;stroke-width:0.5;" x1="2512.8" x2="3201.0275" y1="327.6525" y2="327.6525"/><text fill="#000000" font-family="sans-serif" font-size="14" lengthAdjust="spacing" textLength="223.2822" x="2517.8" y="344.6476">Messstellenbetriebsabrechnung</text><text fill="#000000" font-family="sans-serif" font-size="14" lengthAdjust="spacing" textLength="105.0957" x="2517.8" y="360.9445">Gesetze: MsbG</text><text fill="#000000" font-family="sans-serif" font-size="14" lengthAdjust="spacing" textLength="678.2275" x="2517.8" y="377.2414">Zusammenfassung: Beschreibe den Prozess der Abrechnung von Messstellenbetriebsleistungen.</text><line style="stroke:#181818;stroke-width:0.5;" x1="2512.8" x2="3201.0275" y1="384.5431" y2="384.5431"/></g><!--class NAD_3042_proc_3--><g class="entity" data-entity="NAD_3042_proc_3" data-source-line="49" data-uid="ent0013" id="entity_NAD_3042_proc_3"><rect fill="#F1F1F1" height="88.8594" rx="2.5" ry="2.5" style="stroke:#181818;stroke-width:0.5;" width="638.3496" x="3236.74" y="295.5369"/><ellipse cx="3488.0291" cy="315.6697" fill="#ADD1B2" rx="11" ry="11" style="stroke:#181818;stroke-width:1;"/><path d="M3490.9978,321.3103 Q3490.4197,321.6072 3489.7791,321.7478 Q3489.1384,321.9041 3488.4353,321.9041 Q3485.9353,321.9041 3484.6072,320.2634 Q3483.2947,318.6072 3483.2947,315.4822 Q3483.2947,312.3572 3484.6072,310.7009 Q3485.9353,309.0447 3488.4353,309.0447 Q3489.1384,309.0447 3489.7791,309.2009 Q3490.4353,309.3572 3490.9978,309.6541 L3490.9978,312.3728 Q3490.3728,311.7947 3489.7791,311.5291 Q3489.1853,311.2478 3488.5603,311.2478 Q3487.2166,311.2478 3486.5291,312.3259 Q3485.8416,313.3884 3485.8416,315.4822 Q3485.8416,317.5759 3486.5291,318.6541 Q3487.2166,319.7166 3488.5603,319.7166 Q3489.1853,319.7166 3489.7791,319.4509 Q3490.3728,319.1697 3490.9978,318.5916 L3490.9978,321.3103 Z " fill="#000000"/><text fill="#000000" font-family="sans-serif" font-size="12" font-style="italic" lengthAdjust="spacing" textLength="61.0605" x="3541.6345" y="311.6755">&#171;process&#187;</text><text fill="#000000" font-family="sans-serif" font-size="14" lengthAdjust="spacing" textLength="127.2715" x="3508.5291" y="327.5007">NAD_3042_proc_3</text><line style="stroke:#181818;stroke-width:0.5;" x1="3237.74" x2="3874.0896" y1="335.8025" y2="335.8025"/><text fill="#000000" font-family="sans-serif" font-size="14" lengthAdjust="spacing" textLength="158.0127" x="3242.74" y="352.7976">Stammdaten&#228;nderung</text><text fill="#000000" font-family="sans-serif" font-size="14" lengthAdjust="spacing" textLength="626.3496" x="3242.74" y="369.0945">Zusammenfassung: Wie wird eine Stammdaten&#228;nderung an einer Marktlokation, wie z.B.</text><line style="stroke:#181818;stroke-width:0.5;" x1="3237.74" x2="3874.0896" y1="376.3963" y2="376.3963"/></g><!--link NAD_3042 to NAD_3042_msg_1--><g class="link" data-entity-1="NAD_3042" data-entity-2="NAD_3042_msg_1" data-source-line="18" data-uid="lnk4" id="link_NAD_3042_NAD_3042_msg_1"><path codeLine="18" d="M1643.96,132.4969 C1424.19,155.1669 993.93,203.3869 631.91,267.0769 C626.29,268.0669 626.5111,268.0017 620.8011,269.0517" fill="none" id="NAD_3042-to-NAD_3042_msg_1" style="stroke:#181818;stroke-width:1;"/><polygon fill="#181818" points="614.9,270.1369,624.475,272.4432,619.8175,269.2326,623.0282,264.5751,614.9,270.1369" style="stroke:#181818;stroke-width:1;"/><text fill="#000000" font-family="sans-serif" font-size="13" lengthAdjust="spacing" textLength="85.2363" x="917.91" y="233.1438">verwendet in</text></g><!--link NAD_3042 to NAD_3042_msg_2--><g class="link" data-entity-1="NAD_3042" data-entity-2="NAD_3042_msg_2" data-source-line="27" data-uid="lnk6" id="link_NAD_3042_NAD_3042_msg_2"><path codeLine="27" d="M1644.24,155.7669 C1527.54,186.0769 1365.7473,228.0983 1223.1973,265.1283" fill="none" id="NAD_3042-to-NAD_3042_msg_2" style="stroke:#181818;stroke-width:1;"/><polygon fill="#181818" points="1217.39,266.6369,1227.1066,268.2456,1222.2294,265.3798,1225.0952,260.5026,1217.39,266.6369" style="stroke:#181818;stroke-width:1;"/><text fill="#000000" font-family="sans-serif" font-size="13" lengthAdjust="spacing" textLength="85.2363" x="1390.91" y="233.1438">verwendet in</text></g><!--link NAD_3042 to NAD_3042_msg_3--><g class="link" data-entity-1="NAD_3042" data-entity-2="NAD_3042_msg_3" data-source-line="36" data-uid="lnk8" id="link_NAD_3042_NAD_3042_msg_3"><path codeLine="36" d="M1686.75,190.4769 C1652.18,214.9369 1618.4986,238.7823 1583.9286,263.2323" fill="none" id="NAD_3042-to-NAD_3042_msg_3" style="stroke:#181818;stroke-width:1;"/><polygon fill="#181818" points="1579.03,266.6969,1588.6877,264.7657,1583.1122,263.8097,1584.0682,258.2342,1579.03,266.6969" style="stroke:#181818;stroke-width:1;"/><text fill="#000000" font-family="sans-serif" font-size="13" lengthAdjust="spacing" textLength="85.2363" x="1643.91" y="233.1438">verwendet in</text></g><!--link NAD_3042 to NAD_3042_proc_1--><g class="link" data-entity-1="NAD_3042" data-entity-2="NAD_3042_proc_1" data-source-line="42" data-uid="lnk10" id="link_NAD_3042_NAD_3042_proc_1"><path codeLine="42" d="M1891.07,190.4769 C1935.68,222.0469 1982.0824,254.8809 2022.7924,283.6909" fill="none" id="NAD_3042-to-NAD_3042_proc_1" style="stroke:#181818;stroke-width:1;stroke-dasharray:7,7;"/><polygon fill="#181818" points="2027.69,287.1569,2022.6542,278.6928,2023.6086,284.2685,2018.0329,285.223,2027.69,287.1569" style="stroke:#181818;stroke-width:1;"/><text fill="#000000" font-family="sans-serif" font-size="13" lengthAdjust="spacing" textLength="91.6221" x="1955.91" y="233.1438">eingebettet in</text></g><!--link NAD_3042 to NAD_3042_proc_2--><g class="link" data-entity-1="NAD_3042" data-entity-2="NAD_3042_proc_2" data-source-line="48" data-uid="lnk12" id="link_NAD_3042_NAD_3042_proc_2"><path codeLine="48" d="M1933.78,148.1369 C2105.88,183.7069 2390.0642,242.4624 2599.1642,285.6824" fill="none" id="NAD_3042-to-NAD_3042_proc_2" style="stroke:#181818;stroke-width:1;stroke-dasharray:7,7;"/><polygon fill="#181818" points="2605.04,286.8969,2597.036,281.1579,2600.1435,285.8848,2595.4166,288.9923,2605.04,286.8969" style="stroke:#181818;stroke-width:1;"/><text fill="#000000" font-family="sans-serif" font-size="13" lengthAdjust="spacing" textLength="91.6221" x="2356.91" y="233.1438">eingebettet in</text></g><!--link NAD_3042 to NAD_3042_proc_3--><g class="link" data-entity-1="NAD_3042" data-entity-2="NAD_3042_proc_3" data-source-line="53" data-uid="lnk14" id="link_NAD_3042_NAD_3042_proc_3"><path codeLine="53" d="M1933.79,128.1069 C2192.92,146.9869 2752.42,192.9569 3219.91,267.0769 C3268.22,274.7369 3314.1911,283.6197 3362.3311,293.8497" fill="none" id="NAD_3042-to-NAD_3042_proc_3" style="stroke:#181818;stroke-width:1;stroke-dasharray:7,7;"/><polygon fill="#181818" points="3368.2,295.0969,3360.228,289.3135,3363.3092,294.0576,3358.5651,297.1387,3368.2,295.0969" style="stroke:#181818;stroke-width:1;"/><text fill="#000000" font-family="sans-serif" font-size="13" lengthAdjust="spacing" textLength="91.6221" x="2988.91" y="233.1438">eingebettet in</text></g><!--SRC=[jPJTRjem5CVl-nJd0KoKZzAEg6AYq36sGLcpTH8taKbEm29nAjjfEwOzosxs9dsn7GDhkn9ADQaNiOvz_F7__tnY8qoEqEC69JSvrz20KQSN1kwXVv1GNzjkRBlmum1Wn0iC8JAAt_r2g6GAxtcbPLKKgA1CKHsCIsqodinfybYLIzGQGuh1RencAIkphEHCywd2P2uft2I7D5CRp7EKKpHAu7HxJcHuKQHMwzrlIOVPpCydCkD2ps9l8pQPAv7CJGY3qUNve0k-yoQbnCTI6hobuGXd1Kho_RsiZ5MSvNP-XdaQmWTE8rqofKFmZXduhO114FZKD1cqMWnwPmpwaSTWqAClEcSm7DCNCQk6mNdtWa7KfmLVHmmchcSR_p6O7KZONXgVAvlxwoiU3lgnzHQ_mtcEQb4gXGjJgTXt_QRh1PvpbMQ4wluk6utsKs8XNAEwGU9gGCWwglupL9tNntgnXVNLaSQ4r38yT8-yrbw6_WiO1ayPZZiNNmOZy1mN_nzXysXDxzXbSDORRAWzfdMu0aMDx_r3g-wNUc2n5hTYuSKkhb1uhhk_d88zAAvKcL3DdPpOW9Iqssikkrw8FcfAhP-UiXYTNR9DDBcaxAJIv09bHcVG_12-2OIiaWiZIYbG6KXfe7vpMDu8dSnHhlAsCb1CwJ6pRzidWHagBitRnsOTfxrb90GKSeQqtEpsws_vtLUJzxQ7UjglCtgAf7sb65AoiBbNYXLq7YnUbxBkg1o5DfH7wJplpt-Pls3BNtrrrLxNZL2fFGJh5W6Ngvo28LSBavSBRg-MqIg4fNEwHt-mfVyF]--></g></svg>