<svg xmlns="http://www.w3.org/2000/svg" xmlns:xlink="http://www.w3.org/1999/xlink" contentStyleType="text/css" data-diagram-type="CLASS" height="370px" preserveAspectRatio="none" style="width:1224px;height:370px;background:#FFFFFF;" version="1.1" viewBox="0 0 1224 370" width="1224px" zoomAndPan="magnify"><title>Datenatlas - NAD:0330</title><defs/><g><g class="title" data-source-line="1"><text fill="#000000" font-family="sans-serif" font-size="14" font-weight="bold" lengthAdjust="spacing" textLength="180.2363" x="515.2751" y="22.9951">Datenatlas - NAD:0330</text></g><!--class NAD_0330--><g class="entity" data-entity="NAD_0330" data-source-line="2" data-uid="ent0002" id="entity_NAD_0330"><rect fill="#F1F1F1" height="96.8906" rx="2.5" ry="2.5" style="stroke:#181818;stroke-width:0.5;" width="206.3457" x="426.29" y="44.2969"/><ellipse cx="488.4834" cy="60.2969" fill="#ADD1B2" rx="11" ry="11" style="stroke:#181818;stroke-width:1;"/><path d="M491.4521,65.9375 Q490.874,66.2344 490.2334,66.375 Q489.5927,66.5313 488.8896,66.5313 Q486.3896,66.5313 485.0615,64.8906 Q483.749,63.2344 483.749,60.1094 Q483.749,56.9844 485.0615,55.3281 Q486.3896,53.6719 488.8896,53.6719 Q489.5927,53.6719 490.2334,53.8281 Q490.8896,53.9844 491.4521,54.2813 L491.4521,57 Q490.8271,56.4219 490.2334,56.1563 Q489.6396,55.875 489.0146,55.875 Q487.6709,55.875 486.9834,56.9531 Q486.2959,58.0156 486.2959,60.1094 Q486.2959,62.2031 486.9834,63.2813 Q487.6709,64.3438 489.0146,64.3438 Q489.6396,64.3438 490.2334,64.0781 Q490.8271,63.7969 491.4521,63.2188 L491.4521,65.9375 Z " fill="#000000"/><text fill="#000000" font-family="sans-serif" font-size="14" lengthAdjust="spacing" textLength="73.459" x="508.9834" y="65.1436">NAD_0330</text><line style="stroke:#181818;stroke-width:0.5;" x1="427.29" x2="631.6357" y1="76.2969" y2="76.2969"/><text fill="#000000" font-family="sans-serif" font-size="14" lengthAdjust="spacing" textLength="141.709" x="446.29" y="93.292">Name: Messlokation</text><text fill="#000000" font-family="sans-serif" font-size="14" lengthAdjust="spacing" textLength="66.6436" x="446.29" y="109.5889">Prozesse:</text><rect fill="none" height="6" style="stroke:#C82930;stroke-width:1;" width="6" x="434.29" y="119.5391"/><text fill="#000000" font-family="sans-serif" font-size="14" lengthAdjust="spacing" textLength="180.3457" x="446.29" y="125.8857">Netznutzungsabrechnung</text><line style="stroke:#181818;stroke-width:0.5;" x1="427.29" x2="631.6357" y1="133.1875" y2="133.1875"/></g><!--class NAD_0330_msg_1--><g class="entity" data-entity="NAD_0330_msg_1" data-source-line="7" data-uid="ent0003" id="entity_NAD_0330_msg_1"><rect fill="#F1F1F1" height="145.7813" rx="2.5" ry="2.5" style="stroke:#181818;stroke-width:0.5;" width="422.9219" x="7" y="218.1869"/><ellipse cx="151.1187" cy="234.1869" fill="#ADD1B2" rx="11" ry="11" style="stroke:#181818;stroke-width:1;"/><path d="M154.0874,239.8275 Q153.5093,240.1244 152.8687,240.265 Q152.228,240.4213 151.5249,240.4213 Q149.0249,240.4213 147.6968,238.7806 Q146.3843,237.1244 146.3843,233.9994 Q146.3843,230.8744 147.6968,229.2181 Q149.0249,227.5619 151.5249,227.5619 Q152.228,227.5619 152.8687,227.7181 Q153.5249,227.8744 154.0874,228.1713 L154.0874,230.89 Q153.4624,230.3119 152.8687,230.0463 Q152.2749,229.765 151.6499,229.765 Q150.3062,229.765 149.6187,230.8431 Q148.9312,231.9056 148.9312,233.9994 Q148.9312,236.0931 149.6187,237.1713 Q150.3062,238.2338 151.6499,238.2338 Q152.2749,238.2338 152.8687,237.9681 Q153.4624,237.6869 154.0874,237.1088 L154.0874,239.8275 Z " fill="#000000"/><text fill="#000000" font-family="sans-serif" font-size="14" lengthAdjust="spacing" textLength="126.1846" x="171.6187" y="239.0336">NAD_0330_msg_1</text><line style="stroke:#181818;stroke-width:0.5;" x1="8" x2="428.9219" y1="250.1869" y2="250.1869"/><text fill="#000000" font-family="sans-serif" font-size="14" lengthAdjust="spacing" textLength="161.998" x="13" y="267.182">Nachricht: INSRPT 1.1a</text><text fill="#000000" font-family="sans-serif" font-size="14" lengthAdjust="spacing" textLength="398.5898" x="13" y="283.4789">Kontext: 0320   SG8   C   R   999   1   3   NAD - LOC - RFF</text><text fill="#000000" font-family="sans-serif" font-size="14" lengthAdjust="spacing" textLength="91.4033" x="13" y="299.7757">Pflichtfeld: Ja</text><text fill="#000000" font-family="sans-serif" font-size="14" lengthAdjust="spacing" textLength="83.1318" x="13" y="316.0726">Codes: NAD</text><text fill="#000000" font-family="sans-serif" font-size="14" lengthAdjust="spacing" textLength="251.4395" x="13" y="332.3695">Prozesse: Netznutzungsabrechnung</text><text fill="#000000" font-family="sans-serif" font-size="14" lengthAdjust="spacing" textLength="410.9219" x="13" y="348.6664">Quelle: INSRPT_MIG_1_1a_au&#223;erordentliche_20240726.pdf</text><line style="stroke:#181818;stroke-width:0.5;" x1="8" x2="428.9219" y1="355.9681" y2="355.9681"/></g><!--class NAD_0330_proc_1--><g class="entity" data-entity="NAD_0330_proc_1" data-source-line="16" data-uid="ent0005" id="entity_NAD_0330_proc_1"><rect fill="#F1F1F1" height="105.1563" rx="2.5" ry="2.5" style="stroke:#181818;stroke-width:0.5;" width="752.6465" x="465.14" y="238.4969"/><ellipse cx="773.5775" cy="258.6297" fill="#ADD1B2" rx="11" ry="11" style="stroke:#181818;stroke-width:1;"/><path d="M776.5463,264.2703 Q775.9681,264.5672 775.3275,264.7078 Q774.6869,264.8641 773.9838,264.8641 Q771.4838,264.8641 770.1556,263.2234 Q768.8431,261.5672 768.8431,258.4422 Q768.8431,255.3172 770.1556,253.6609 Q771.4838,252.0047 773.9838,252.0047 Q774.6869,252.0047 775.3275,252.1609 Q775.9838,252.3172 776.5463,252.6141 L776.5463,255.3328 Q775.9213,254.7547 775.3275,254.4891 Q774.7338,254.2078 774.1088,254.2078 Q772.765,254.2078 772.0775,255.2859 Q771.39,256.3484 771.39,258.4422 Q771.39,260.5359 772.0775,261.6141 Q772.765,262.6766 774.1088,262.6766 Q774.7338,262.6766 775.3275,262.4109 Q775.9213,262.1297 776.5463,261.5516 L776.5463,264.2703 Z " fill="#000000"/><text fill="#000000" font-family="sans-serif" font-size="12" font-style="italic" lengthAdjust="spacing" textLength="61.0605" x="827.183" y="254.6355">&#171;process&#187;</text><text fill="#000000" font-family="sans-serif" font-size="14" lengthAdjust="spacing" textLength="127.2715" x="794.0775" y="270.4607">NAD_0330_proc_1</text><line style="stroke:#181818;stroke-width:0.5;" x1="466.14" x2="1216.7865" y1="278.7625" y2="278.7625"/><text fill="#000000" font-family="sans-serif" font-size="14" lengthAdjust="spacing" textLength="180.3457" x="471.14" y="295.7576">Netznutzungsabrechnung</text><text fill="#000000" font-family="sans-serif" font-size="14" lengthAdjust="spacing" textLength="218.0938" x="471.14" y="312.0545">Gesetze: StromNEV, StromNZV</text><text fill="#000000" font-family="sans-serif" font-size="14" lengthAdjust="spacing" textLength="740.6465" x="471.14" y="328.3514">Zusammenfassung: Wie funktioniert die Netznutzungsabrechnung zwischen Netzbetreiber und Lieferant?</text><line style="stroke:#181818;stroke-width:0.5;" x1="466.14" x2="1216.7865" y1="335.6531" y2="335.6531"/></g><!--link NAD_0330 to NAD_0330_msg_1--><g class="link" data-entity-1="NAD_0330" data-entity-2="NAD_0330_msg_1" data-source-line="15" data-uid="lnk4" id="link_NAD_0330_NAD_0330_msg_1"><path codeLine="15" d="M453.78,141.5169 C417.46,164.4469 378.2438,189.2043 337.9238,214.6543" fill="none" id="NAD_0330-to-NAD_0330_msg_1" style="stroke:#181818;stroke-width:1;"/><polygon fill="#181818" points="332.85,217.8569,342.5958,216.4355,337.0782,215.1881,338.3256,209.6705,332.85,217.8569" style="stroke:#181818;stroke-width:1;"/><text fill="#000000" font-family="sans-serif" font-size="13" lengthAdjust="spacing" textLength="85.2363" x="403.46" y="184.2538">verwendet in</text></g><!--link NAD_0330 to NAD_0330_proc_1--><g class="link" data-entity-1="NAD_0330" data-entity-2="NAD_0330_proc_1" data-source-line="21" data-uid="lnk6" id="link_NAD_0330_NAD_0330_proc_1"><path codeLine="21" d="M605.39,141.5169 C651.83,170.7469 706.192,204.951 753.812,234.921" fill="none" id="NAD_0330-to-NAD_0330_proc_1" style="stroke:#181818;stroke-width:1;stroke-dasharray:7,7;"/><polygon fill="#181818" points="758.89,238.1169,753.4036,229.9377,754.6583,235.4536,749.1424,236.7084,758.89,238.1169" style="stroke:#181818;stroke-width:1;"/><text fill="#000000" font-family="sans-serif" font-size="13" lengthAdjust="spacing" textLength="91.6221" x="677.46" y="184.2538">eingebettet in</text></g><!--SRC=[TL7RJi9047tdA-O3fEd5g6n8ZG4XA5G4WmalpT9EOKEx9RjRCJL-Yn_ZZpcBQ0ZAmqpcjcVEcJN2v0XTRb1oatCDJOXkkimD0hUHKAvj6jiKtXe04I-GmGYrpiirDwAKL1ohigOACeh10g2fPMNgIYurNoXCLfB2nliHO5pePUpjOPEL4idAC1X4qydu2Jp7uzIuBwN1LogxWUyI-BH_HRv3DY5hjLhaFRA0Z71f-V2XGtxIwrbYMMv1CynJ1dSMhrEcg9aTFUHzYZ70OuLvZZ-iuj6W7tknnsDUVNwWAbMAqjWT6FkkV-vU-XVE9ir8wk_LcitmM3635rHRb2aQ4FBuAXjL9ZJKRjk0w8NXzubEKUoZfXPnd1fL5j7jx6mVpMVKdLUQ5mNAZ7RGF8DdWP1LSct_Jg0oa5BXVt2ejqAJDhdhBz0e50jKKCaKXW8pL5oQwqEnZXF-4S80XLmYFJSxlLy0]--></g></svg>