<svg xmlns="http://www.w3.org/2000/svg" xmlns:xlink="http://www.w3.org/1999/xlink" contentStyleType="text/css" data-diagram-type="CLASS" height="403px" preserveAspectRatio="none" style="width:3882px;height:403px;background:#FFFFFF;" version="1.1" viewBox="0 0 3882 403" width="3882px" zoomAndPan="magnify"><title>Datenatlas - NAD:3229</title><defs/><g><g class="title" data-source-line="1"><text fill="#000000" font-family="sans-serif" font-size="14" font-weight="bold" lengthAdjust="spacing" textLength="180.2363" x="1843.9266" y="22.9951">Datenatlas - NAD:3229</text></g><!--class NAD_3229--><g class="entity" data-entity="NAD_3229" data-source-line="2" data-uid="ent0002" id="entity_NAD_3229"><rect fill="#F1F1F1" height="129.4844" rx="2.5" ry="2.5" style="stroke:#181818;stroke-width:0.5;" width="272.7705" x="1652.52" y="44.2969"/><ellipse cx="1747.9258" cy="60.2969" fill="#ADD1B2" rx="11" ry="11" style="stroke:#181818;stroke-width:1;"/><path d="M1750.8945,65.9375 Q1750.3164,66.2344 1749.6758,66.375 Q1749.0351,66.5313 1748.332,66.5313 Q1745.832,66.5313 1744.5039,64.8906 Q1743.1914,63.2344 1743.1914,60.1094 Q1743.1914,56.9844 1744.5039,55.3281 Q1745.832,53.6719 1748.332,53.6719 Q1749.0351,53.6719 1749.6758,53.8281 Q1750.332,53.9844 1750.8945,54.2813 L1750.8945,57 Q1750.2695,56.4219 1749.6758,56.1563 Q1749.082,55.875 1748.457,55.875 Q1747.1133,55.875 1746.4258,56.9531 Q1745.7383,58.0156 1745.7383,60.1094 Q1745.7383,62.2031 1746.4258,63.2813 Q1747.1133,64.3438 1748.457,64.3438 Q1749.082,64.3438 1749.6758,64.0781 Q1750.2695,63.7969 1750.8945,63.2188 L1750.8945,65.9375 Z " fill="#000000"/><text fill="#000000" font-family="sans-serif" font-size="14" lengthAdjust="spacing" textLength="73.459" x="1768.4258" y="65.1436">NAD_3229</text><line style="stroke:#181818;stroke-width:0.5;" x1="1653.52" x2="1924.2905" y1="76.2969" y2="76.2969"/><text fill="#000000" font-family="sans-serif" font-size="14" lengthAdjust="spacing" textLength="246.7705" x="1672.52" y="93.292">Name: Land-Untereinheit, Nummer</text><text fill="#000000" font-family="sans-serif" font-size="14" lengthAdjust="spacing" textLength="66.6436" x="1672.52" y="109.5889">Prozesse:</text><rect fill="none" height="6" style="stroke:#C82930;stroke-width:1;" width="6" x="1660.52" y="119.5391"/><text fill="#000000" font-family="sans-serif" font-size="14" lengthAdjust="spacing" textLength="180.3457" x="1672.52" y="125.8857">Netznutzungsabrechnung</text><rect fill="none" height="6" style="stroke:#C82930;stroke-width:1;" width="6" x="1660.52" y="135.8359"/><text fill="#000000" font-family="sans-serif" font-size="14" lengthAdjust="spacing" textLength="223.2822" x="1672.52" y="142.1826">Messstellenbetriebsabrechnung</text><rect fill="none" height="6" style="stroke:#C82930;stroke-width:1;" width="6" x="1660.52" y="152.1328"/><text fill="#000000" font-family="sans-serif" font-size="14" lengthAdjust="spacing" textLength="158.0127" x="1672.52" y="158.4795">Stammdaten&#228;nderung</text><line style="stroke:#181818;stroke-width:0.5;" x1="1653.52" x2="1924.2905" y1="165.7813" y2="165.7813"/></g><!--class NAD_3229_msg_1--><g class="entity" data-entity="NAD_3229_msg_1" data-source-line="9" data-uid="ent0003" id="entity_NAD_3229_msg_1"><rect fill="#F1F1F1" height="145.7813" rx="2.5" ry="2.5" style="stroke:#181818;stroke-width:0.5;" width="607.8203" x="7" y="250.7869"/><ellipse cx="243.5679" cy="266.7869" fill="#ADD1B2" rx="11" ry="11" style="stroke:#181818;stroke-width:1;"/><path d="M246.5366,272.4275 Q245.9585,272.7244 245.3179,272.865 Q244.6772,273.0213 243.9741,273.0213 Q241.4741,273.0213 240.146,271.3806 Q238.8335,269.7244 238.8335,266.5994 Q238.8335,263.4744 240.146,261.8181 Q241.4741,260.1619 243.9741,260.1619 Q244.6772,260.1619 245.3179,260.3181 Q245.9741,260.4744 246.5366,260.7713 L246.5366,263.49 Q245.9116,262.9119 245.3179,262.6463 Q244.7241,262.365 244.0991,262.365 Q242.7554,262.365 242.0679,263.4431 Q241.3804,264.5056 241.3804,266.5994 Q241.3804,268.6931 242.0679,269.7713 Q242.7554,270.8338 244.0991,270.8338 Q244.7241,270.8338 245.3179,270.5681 Q245.9116,270.2869 246.5366,269.7088 L246.5366,272.4275 Z " fill="#000000"/><text fill="#000000" font-family="sans-serif" font-size="14" lengthAdjust="spacing" textLength="126.1846" x="264.0679" y="271.6336">NAD_3229_msg_1</text><line style="stroke:#181818;stroke-width:0.5;" x1="8" x2="613.8203" y1="282.7869" y2="282.7869"/><text fill="#000000" font-family="sans-serif" font-size="14" lengthAdjust="spacing" textLength="161.1982" x="13" y="299.782">Nachricht: INVOIC 2.8d</text><text fill="#000000" font-family="sans-serif" font-size="14" lengthAdjust="spacing" textLength="170.3447" x="13" y="316.0789">Kontext: Segmentlayout</text><text fill="#000000" font-family="sans-serif" font-size="14" lengthAdjust="spacing" textLength="91.4033" x="13" y="332.3757">Pflichtfeld: Ja</text><text fill="#000000" font-family="sans-serif" font-size="14" lengthAdjust="spacing" textLength="595.8203" x="13" y="348.6726">Codes: 17, 293, 332, 35, 99, DE, GS1, ID, ISO, MP, MS, NAD, OCR, SG2, UN, Z01, Z02</text><text fill="#000000" font-family="sans-serif" font-size="14" lengthAdjust="spacing" textLength="483.6221" x="13" y="364.9695">Prozesse: Netznutzungsabrechnung, Messstellenbetriebsabrechnung</text><text fill="#000000" font-family="sans-serif" font-size="14" lengthAdjust="spacing" textLength="396.6074" x="13" y="381.2664">Quelle: INVOIC_MIG_2.8d_Fehlerkorrektur_20250131.pdf</text><line style="stroke:#181818;stroke-width:0.5;" x1="8" x2="613.8203" y1="388.5681" y2="388.5681"/></g><!--class NAD_3229_msg_2--><g class="entity" data-entity="NAD_3229_msg_2" data-source-line="18" data-uid="ent0005" id="entity_NAD_3229_msg_2"><rect fill="#F1F1F1" height="145.7813" rx="2.5" ry="2.5" style="stroke:#181818;stroke-width:0.5;" width="579.041" x="649.39" y="250.7869"/><ellipse cx="871.5682" cy="266.7869" fill="#ADD1B2" rx="11" ry="11" style="stroke:#181818;stroke-width:1;"/><path d="M874.537,272.4275 Q873.9588,272.7244 873.3182,272.865 Q872.6776,273.0213 871.9745,273.0213 Q869.4745,273.0213 868.1463,271.3806 Q866.8338,269.7244 866.8338,266.5994 Q866.8338,263.4744 868.1463,261.8181 Q869.4745,260.1619 871.9745,260.1619 Q872.6776,260.1619 873.3182,260.3181 Q873.9745,260.4744 874.537,260.7713 L874.537,263.49 Q873.912,262.9119 873.3182,262.6463 Q872.7245,262.365 872.0995,262.365 Q870.7557,262.365 870.0682,263.4431 Q869.3807,264.5056 869.3807,266.5994 Q869.3807,268.6931 870.0682,269.7713 Q870.7557,270.8338 872.0995,270.8338 Q872.7245,270.8338 873.3182,270.5681 Q873.912,270.2869 874.537,269.7088 L874.537,272.4275 Z " fill="#000000"/><text fill="#000000" font-family="sans-serif" font-size="14" lengthAdjust="spacing" textLength="126.1846" x="892.0682" y="271.6336">NAD_3229_msg_2</text><line style="stroke:#181818;stroke-width:0.5;" x1="650.39" x2="1227.431" y1="282.7869" y2="282.7869"/><text fill="#000000" font-family="sans-serif" font-size="14" lengthAdjust="spacing" textLength="165.6484" x="655.39" y="299.782">Nachricht: INVOIC 2.8d.</text><text fill="#000000" font-family="sans-serif" font-size="14" lengthAdjust="spacing" textLength="170.3447" x="655.39" y="316.0789">Kontext: Segmentlayout</text><text fill="#000000" font-family="sans-serif" font-size="14" lengthAdjust="spacing" textLength="91.4033" x="655.39" y="332.3757">Pflichtfeld: Ja</text><text fill="#000000" font-family="sans-serif" font-size="14" lengthAdjust="spacing" textLength="567.041" x="655.39" y="348.6726">Codes: 17, 293, 332, 35, 99, DE, GS1, ID, ISO, MP, MR, NAD, OCR, SG2, Z01, Z02</text><text fill="#000000" font-family="sans-serif" font-size="14" lengthAdjust="spacing" textLength="483.6221" x="655.39" y="364.9695">Prozesse: Netznutzungsabrechnung, Messstellenbetriebsabrechnung</text><text fill="#000000" font-family="sans-serif" font-size="14" lengthAdjust="spacing" textLength="290.3359" x="655.39" y="381.2664">Quelle: INVOIC_MIG_2_8d__20240619.pdf</text><line style="stroke:#181818;stroke-width:0.5;" x1="650.39" x2="1227.431" y1="388.5681" y2="388.5681"/></g><!--class NAD_3229_msg_3--><g class="entity" data-entity="NAD_3229_msg_3" data-source-line="27" data-uid="ent0007" id="entity_NAD_3229_msg_3"><rect fill="#F1F1F1" height="145.7813" rx="2.5" ry="2.5" style="stroke:#181818;stroke-width:0.5;" width="426.0664" x="1263.88" y="250.7869"/><ellipse cx="1409.5709" cy="266.7869" fill="#ADD1B2" rx="11" ry="11" style="stroke:#181818;stroke-width:1;"/><path d="M1412.5397,272.4275 Q1411.9615,272.7244 1411.3209,272.865 Q1410.6803,273.0213 1409.9772,273.0213 Q1407.4772,273.0213 1406.149,271.3806 Q1404.8365,269.7244 1404.8365,266.5994 Q1404.8365,263.4744 1406.149,261.8181 Q1407.4772,260.1619 1409.9772,260.1619 Q1410.6803,260.1619 1411.3209,260.3181 Q1411.9772,260.4744 1412.5397,260.7713 L1412.5397,263.49 Q1411.9147,262.9119 1411.3209,262.6463 Q1410.7272,262.365 1410.1022,262.365 Q1408.7584,262.365 1408.0709,263.4431 Q1407.3834,264.5056 1407.3834,266.5994 Q1407.3834,268.6931 1408.0709,269.7713 Q1408.7584,270.8338 1410.1022,270.8338 Q1410.7272,270.8338 1411.3209,270.5681 Q1411.9147,270.2869 1412.5397,269.7088 L1412.5397,272.4275 Z " fill="#000000"/><text fill="#000000" font-family="sans-serif" font-size="14" lengthAdjust="spacing" textLength="126.1846" x="1430.0709" y="271.6336">NAD_3229_msg_3</text><line style="stroke:#181818;stroke-width:0.5;" x1="1264.88" x2="1688.9464" y1="282.7869" y2="282.7869"/><text fill="#000000" font-family="sans-serif" font-size="14" lengthAdjust="spacing" textLength="162.7227" x="1269.88" y="299.782">Nachricht: PARTIN 1.0e</text><text fill="#000000" font-family="sans-serif" font-size="14" lengthAdjust="spacing" textLength="170.3447" x="1269.88" y="316.0789">Kontext: Segmentlayout</text><text fill="#000000" font-family="sans-serif" font-size="14" lengthAdjust="spacing" textLength="91.4033" x="1269.88" y="332.3757">Pflichtfeld: Ja</text><text fill="#000000" font-family="sans-serif" font-size="14" lengthAdjust="spacing" textLength="414.0664" x="1269.88" y="348.6726">Codes: 17, 256, 35, 70, EDI, ISO, NAD, OCR, SG4, Z02, Z21</text><text fill="#000000" font-family="sans-serif" font-size="14" lengthAdjust="spacing" textLength="229.1064" x="1269.88" y="364.9695">Prozesse: Stammdaten&#228;nderung</text><text fill="#000000" font-family="sans-serif" font-size="14" lengthAdjust="spacing" textLength="284.8604" x="1269.88" y="381.2664">Quelle: PARTIN_MIG_1_0e_20241001.pdf</text><line style="stroke:#181818;stroke-width:0.5;" x1="1264.88" x2="1688.9464" y1="388.5681" y2="388.5681"/></g><!--class NAD_3229_proc_1--><g class="entity" data-entity="NAD_3229_proc_1" data-source-line="36" data-uid="ent0009" id="entity_NAD_3229_proc_1"><rect fill="#F1F1F1" height="105.1563" rx="2.5" ry="2.5" style="stroke:#181818;stroke-width:0.5;" width="752.6465" x="1724.59" y="271.0969"/><ellipse cx="2033.0275" cy="291.2297" fill="#ADD1B2" rx="11" ry="11" style="stroke:#181818;stroke-width:1;"/><path d="M2035.9963,296.8703 Q2035.4181,297.1672 2034.7775,297.3078 Q2034.1369,297.4641 2033.4338,297.4641 Q2030.9338,297.4641 2029.6056,295.8234 Q2028.2931,294.1672 2028.2931,291.0422 Q2028.2931,287.9172 2029.6056,286.2609 Q2030.9338,284.6047 2033.4338,284.6047 Q2034.1369,284.6047 2034.7775,284.7609 Q2035.4338,284.9172 2035.9963,285.2141 L2035.9963,287.9328 Q2035.3713,287.3547 2034.7775,287.0891 Q2034.1838,286.8078 2033.5588,286.8078 Q2032.215,286.8078 2031.5275,287.8859 Q2030.84,288.9484 2030.84,291.0422 Q2030.84,293.1359 2031.5275,294.2141 Q2032.215,295.2766 2033.5588,295.2766 Q2034.1838,295.2766 2034.7775,295.0109 Q2035.3713,294.7297 2035.9963,294.1516 L2035.9963,296.8703 Z " fill="#000000"/><text fill="#000000" font-family="sans-serif" font-size="12" font-style="italic" lengthAdjust="spacing" textLength="61.0605" x="2086.633" y="287.2355">&#171;process&#187;</text><text fill="#000000" font-family="sans-serif" font-size="14" lengthAdjust="spacing" textLength="127.2715" x="2053.5275" y="303.0607">NAD_3229_proc_1</text><line style="stroke:#181818;stroke-width:0.5;" x1="1725.59" x2="2476.2365" y1="311.3625" y2="311.3625"/><text fill="#000000" font-family="sans-serif" font-size="14" lengthAdjust="spacing" textLength="180.3457" x="1730.59" y="328.3576">Netznutzungsabrechnung</text><text fill="#000000" font-family="sans-serif" font-size="14" lengthAdjust="spacing" textLength="218.0938" x="1730.59" y="344.6545">Gesetze: StromNEV, StromNZV</text><text fill="#000000" font-family="sans-serif" font-size="14" lengthAdjust="spacing" textLength="740.6465" x="1730.59" y="360.9514">Zusammenfassung: Wie funktioniert die Netznutzungsabrechnung zwischen Netzbetreiber und Lieferant?</text><line style="stroke:#181818;stroke-width:0.5;" x1="1725.59" x2="2476.2365" y1="368.2531" y2="368.2531"/></g><!--class NAD_3229_proc_2--><g class="entity" data-entity="NAD_3229_proc_2" data-source-line="42" data-uid="ent0011" id="entity_NAD_3229_proc_2"><rect fill="#F1F1F1" height="105.1563" rx="2.5" ry="2.5" style="stroke:#181818;stroke-width:0.5;" width="690.2275" x="2511.8" y="271.0969"/><ellipse cx="2789.028" cy="291.2297" fill="#ADD1B2" rx="11" ry="11" style="stroke:#181818;stroke-width:1;"/><path d="M2791.9968,296.8703 Q2791.4187,297.1672 2790.778,297.3078 Q2790.1374,297.4641 2789.4343,297.4641 Q2786.9343,297.4641 2785.6062,295.8234 Q2784.2937,294.1672 2784.2937,291.0422 Q2784.2937,287.9172 2785.6062,286.2609 Q2786.9343,284.6047 2789.4343,284.6047 Q2790.1374,284.6047 2790.778,284.7609 Q2791.4343,284.9172 2791.9968,285.2141 L2791.9968,287.9328 Q2791.3718,287.3547 2790.778,287.0891 Q2790.1843,286.8078 2789.5593,286.8078 Q2788.2155,286.8078 2787.528,287.8859 Q2786.8405,288.9484 2786.8405,291.0422 Q2786.8405,293.1359 2787.528,294.2141 Q2788.2155,295.2766 2789.5593,295.2766 Q2790.1843,295.2766 2790.778,295.0109 Q2791.3718,294.7297 2791.9968,294.1516 L2791.9968,296.8703 Z " fill="#000000"/><text fill="#000000" font-family="sans-serif" font-size="12" font-style="italic" lengthAdjust="spacing" textLength="61.0605" x="2842.6335" y="287.2355">&#171;process&#187;</text><text fill="#000000" font-family="sans-serif" font-size="14" lengthAdjust="spacing" textLength="127.2715" x="2809.528" y="303.0607">NAD_3229_proc_2</text><line style="stroke:#181818;stroke-width:0.5;" x1="2512.8" x2="3201.0275" y1="311.3625" y2="311.3625"/><text fill="#000000" font-family="sans-serif" font-size="14" lengthAdjust="spacing" textLength="223.2822" x="2517.8" y="328.3576">Messstellenbetriebsabrechnung</text><text fill="#000000" font-family="sans-serif" font-size="14" lengthAdjust="spacing" textLength="105.0957" x="2517.8" y="344.6545">Gesetze: MsbG</text><text fill="#000000" font-family="sans-serif" font-size="14" lengthAdjust="spacing" textLength="678.2275" x="2517.8" y="360.9514">Zusammenfassung: Beschreibe den Prozess der Abrechnung von Messstellenbetriebsleistungen.</text><line style="stroke:#181818;stroke-width:0.5;" x1="2512.8" x2="3201.0275" y1="368.2531" y2="368.2531"/></g><!--class NAD_3229_proc_3--><g class="entity" data-entity="NAD_3229_proc_3" data-source-line="48" data-uid="ent0013" id="entity_NAD_3229_proc_3"><rect fill="#F1F1F1" height="88.8594" rx="2.5" ry="2.5" style="stroke:#181818;stroke-width:0.5;" width="638.3496" x="3236.74" y="279.2469"/><ellipse cx="3488.0291" cy="299.3797" fill="#ADD1B2" rx="11" ry="11" style="stroke:#181818;stroke-width:1;"/><path d="M3490.9978,305.0203 Q3490.4197,305.3172 3489.7791,305.4578 Q3489.1384,305.6141 3488.4353,305.6141 Q3485.9353,305.6141 3484.6072,303.9734 Q3483.2947,302.3172 3483.2947,299.1922 Q3483.2947,296.0672 3484.6072,294.4109 Q3485.9353,292.7547 3488.4353,292.7547 Q3489.1384,292.7547 3489.7791,292.9109 Q3490.4353,293.0672 3490.9978,293.3641 L3490.9978,296.0828 Q3490.3728,295.5047 3489.7791,295.2391 Q3489.1853,294.9578 3488.5603,294.9578 Q3487.2166,294.9578 3486.5291,296.0359 Q3485.8416,297.0984 3485.8416,299.1922 Q3485.8416,301.2859 3486.5291,302.3641 Q3487.2166,303.4266 3488.5603,303.4266 Q3489.1853,303.4266 3489.7791,303.1609 Q3490.3728,302.8797 3490.9978,302.3016 L3490.9978,305.0203 Z " fill="#000000"/><text fill="#000000" font-family="sans-serif" font-size="12" font-style="italic" lengthAdjust="spacing" textLength="61.0605" x="3541.6345" y="295.3855">&#171;process&#187;</text><text fill="#000000" font-family="sans-serif" font-size="14" lengthAdjust="spacing" textLength="127.2715" x="3508.5291" y="311.2107">NAD_3229_proc_3</text><line style="stroke:#181818;stroke-width:0.5;" x1="3237.74" x2="3874.0896" y1="319.5125" y2="319.5125"/><text fill="#000000" font-family="sans-serif" font-size="14" lengthAdjust="spacing" textLength="158.0127" x="3242.74" y="336.5076">Stammdaten&#228;nderung</text><text fill="#000000" font-family="sans-serif" font-size="14" lengthAdjust="spacing" textLength="626.3496" x="3242.74" y="352.8045">Zusammenfassung: Wie wird eine Stammdaten&#228;nderung an einer Marktlokation, wie z.B.</text><line style="stroke:#181818;stroke-width:0.5;" x1="3237.74" x2="3874.0896" y1="360.1063" y2="360.1063"/></g><!--link NAD_3229 to NAD_3229_msg_1--><g class="link" data-entity-1="NAD_3229" data-entity-2="NAD_3229_msg_1" data-source-line="17" data-uid="lnk4" id="link_NAD_3229_NAD_3229_msg_1"><path codeLine="17" d="M1652.46,122.2169 C1435.41,142.5669 998.57,187.5869 631.91,250.7869 C626.42,251.7269 626.7937,251.6364 621.2237,252.6464" fill="none" id="NAD_3229-to-NAD_3229_msg_1" style="stroke:#181818;stroke-width:1;"/><polygon fill="#181818" points="615.32,253.7169,624.8893,256.0469,620.2398,252.8248,623.4619,248.1753,615.32,253.7169" style="stroke:#181818;stroke-width:1;"/><text fill="#000000" font-family="sans-serif" font-size="13" lengthAdjust="spacing" textLength="85.2363" x="917.91" y="216.8538">verwendet in</text></g><!--link NAD_3229 to NAD_3229_msg_2--><g class="link" data-entity-1="NAD_3229" data-entity-2="NAD_3229_msg_2" data-source-line="26" data-uid="lnk6" id="link_NAD_3229_NAD_3229_msg_2"><path codeLine="26" d="M1652.34,144.2069 C1538.19,172.7669 1377.2906,213.0106 1233.7206,248.9306" fill="none" id="NAD_3229-to-NAD_3229_msg_2" style="stroke:#181818;stroke-width:1;"/><polygon fill="#181818" points="1227.9,250.3869,1237.6017,252.0829,1232.7505,249.1733,1235.66,244.3221,1227.9,250.3869" style="stroke:#181818;stroke-width:1;"/><text fill="#000000" font-family="sans-serif" font-size="13" lengthAdjust="spacing" textLength="85.2363" x="1390.91" y="216.8538">verwendet in</text></g><!--link NAD_3229 to NAD_3229_msg_3--><g class="link" data-entity-1="NAD_3229" data-entity-2="NAD_3229_msg_3" data-source-line="35" data-uid="lnk8" id="link_NAD_3229_NAD_3229_msg_3"><path codeLine="35" d="M1694.88,174.1269 C1659.62,198.1569 1624.2778,222.2374 1587.9978,246.9674" fill="none" id="NAD_3229-to-NAD_3229_msg_3" style="stroke:#181818;stroke-width:1;"/><polygon fill="#181818" points="1583.04,250.3469,1592.7296,248.5829,1587.1715,247.5307,1588.2237,241.9726,1583.04,250.3469" style="stroke:#181818;stroke-width:1;"/><text fill="#000000" font-family="sans-serif" font-size="13" lengthAdjust="spacing" textLength="85.2363" x="1643.91" y="216.8538">verwendet in</text></g><!--link NAD_3229 to NAD_3229_proc_1--><g class="link" data-entity-1="NAD_3229" data-entity-2="NAD_3229_proc_1" data-source-line="41" data-uid="lnk10" id="link_NAD_3229_NAD_3229_proc_1"><path codeLine="41" d="M1882.94,174.1269 C1928.25,205.0069 1976.9219,238.178 2019.6519,267.298" fill="none" id="NAD_3229-to-NAD_3229_proc_1" style="stroke:#181818;stroke-width:1;stroke-dasharray:7,7;"/><polygon fill="#181818" points="2024.61,270.6769,2019.4254,262.3031,2020.4782,267.8611,2014.9202,268.9139,2024.61,270.6769" style="stroke:#181818;stroke-width:1;"/><text fill="#000000" font-family="sans-serif" font-size="13" lengthAdjust="spacing" textLength="91.6221" x="1945.91" y="216.8538">eingebettet in</text></g><!--link NAD_3229 to NAD_3229_proc_2--><g class="link" data-entity-1="NAD_3229" data-entity-2="NAD_3229_proc_2" data-source-line="47" data-uid="lnk12" id="link_NAD_3229_NAD_3229_proc_2"><path codeLine="47" d="M1925.53,137.2469 C2093.96,170.7769 2377.9655,227.3254 2589.6955,269.4754" fill="none" id="NAD_3229-to-NAD_3229_proc_2" style="stroke:#181818;stroke-width:1;stroke-dasharray:7,7;"/><polygon fill="#181818" points="2595.58,270.6469,2587.5342,264.9667,2590.6762,269.6707,2585.9722,272.8127,2595.58,270.6469" style="stroke:#181818;stroke-width:1;"/><text fill="#000000" font-family="sans-serif" font-size="13" lengthAdjust="spacing" textLength="91.6221" x="2323.91" y="216.8538">eingebettet in</text></g><!--link NAD_3229 to NAD_3229_proc_3--><g class="link" data-entity-1="NAD_3229" data-entity-2="NAD_3229_proc_3" data-source-line="52" data-uid="lnk14" id="link_NAD_3229_NAD_3229_proc_3"><path codeLine="52" d="M1925.7,118.3469 C2181.13,134.9769 2747.54,177.2669 3219.91,250.7869 C3268.54,258.3569 3314.8512,267.2589 3363.2412,277.5489" fill="none" id="NAD_3229-to-NAD_3229_proc_3" style="stroke:#181818;stroke-width:1;stroke-dasharray:7,7;"/><polygon fill="#181818" points="3369.11,278.7969,3361.1388,273.0124,3364.2194,277.7569,3359.4748,280.8374,3369.11,278.7969" style="stroke:#181818;stroke-width:1;"/><text fill="#000000" font-family="sans-serif" font-size="13" lengthAdjust="spacing" textLength="91.6221" x="2988.91" y="216.8538">eingebettet in</text></g><!--SRC=[jPJVRjem5CRl-nJd0KoKEFqpeegfBHrYAw63jPEuYK9o08l4gModR4nxcxt9Ncp7WRKTf4qrgHUnZdsEu-_x-IH6c0oX6nkKiSbY3Iq8pxg1ptdx8A6vjjF8Jk770K0OvnZ0LIpJreqqg5381Gh382pp71LLNAjYZLfZG37Ojw5PozAiIpdNyLHXif0KRfC3gjG6impb58qIEDsl6PiuprChyFSlcQAocPyxsg9SpoDlgp1PA94iJ03zy7ROlm3kl4ifyQaWmTzeUOpp72MP_LwKnYgUPRP-XbaQmCUOLYwA57K0tWa3tlOP-3wduOX1kysWUycWD_OOzBlqZ8SC1jVqZ9bLms1uCM8mxj66cv31nFNim9-2UGO9QwJnkRIvlxwYGRyNMM_H1rnag9Q5KhWqfOguouzSp_USktH6g1ukiDNgx18Bu1xL2ech0I7hgF8Ng3flZtMqX_NDaKQ4r38yT8-zTYD3_Wg6_Yx3wxFHbtu8dkFY_oCyEjxGEt4PN7RxMsfFQHrMe6ZWtZ-qwZwfHnORSHKBBtAnGk6vRdCx-GqexbIHKC-Tdjg0b7Gw6oxF_I5wg2bLwLL57bxUicqqkQNifDJa0kMCpg3w0BuAX5afbqOKKg0oaD92_SjXlH8wMQ2iyhOpK4nHGIbJk18uGnLBy_wfMSVfx1a9W7v_SwJjvdc_VCzlKqy-s1xeQQ_Ew3cIzaenf6HXUwyKApXxj7XVoBgZCXJQK1wbyx8__Zf__fw_-kwglQwLKAaz1EisGIohd891h9OcAvQnlLf6kn3Mpdc3VdzF_ny0]--></g></svg>