<svg xmlns="http://www.w3.org/2000/svg" xmlns:xlink="http://www.w3.org/1999/xlink" contentStyleType="text/css" data-diagram-type="CLASS" height="370px" preserveAspectRatio="none" style="width:984px;height:370px;background:#FFFFFF;" version="1.1" viewBox="0 0 984 370" width="984px" zoomAndPan="magnify"><title>Datenatlas - NAD:1</title><defs/><g><g class="title" data-source-line="1"><text fill="#000000" font-family="sans-serif" font-size="14" font-weight="bold" lengthAdjust="spacing" textLength="151.0127" x="409.7985" y="22.9951">Datenatlas - NAD:1</text></g><!--class NAD_1--><g class="entity" data-entity="NAD_1" data-source-line="2" data-uid="ent0002" id="entity_NAD_1"><rect fill="#F1F1F1" height="96.8906" rx="2.5" ry="2.5" style="stroke:#181818;stroke-width:0.5;" width="184.0127" x="314.42" y="44.2969"/><ellipse cx="378.8077" cy="60.2969" fill="#ADD1B2" rx="11" ry="11" style="stroke:#181818;stroke-width:1;"/><path d="M381.7764,65.9375 Q381.1983,66.2344 380.5577,66.375 Q379.9171,66.5313 379.2139,66.5313 Q376.7139,66.5313 375.3858,64.8906 Q374.0733,63.2344 374.0733,60.1094 Q374.0733,56.9844 375.3858,55.3281 Q376.7139,53.6719 379.2139,53.6719 Q379.9171,53.6719 380.5577,53.8281 Q381.2139,53.9844 381.7764,54.2813 L381.7764,57 Q381.1514,56.4219 380.5577,56.1563 Q379.9639,55.875 379.3389,55.875 Q377.9952,55.875 377.3077,56.9531 Q376.6202,58.0156 376.6202,60.1094 Q376.6202,62.2031 377.3077,63.2813 Q377.9952,64.3438 379.3389,64.3438 Q379.9639,64.3438 380.5577,64.0781 Q381.1514,63.7969 381.7764,63.2188 L381.7764,65.9375 Z " fill="#000000"/><text fill="#000000" font-family="sans-serif" font-size="14" lengthAdjust="spacing" textLength="46.7373" x="399.3077" y="65.1436">NAD_1</text><line style="stroke:#181818;stroke-width:0.5;" x1="315.42" x2="497.4327" y1="76.2969" y2="76.2969"/><text fill="#000000" font-family="sans-serif" font-size="14" lengthAdjust="spacing" textLength="59.377" x="334.42" y="93.292">Name: 1</text><text fill="#000000" font-family="sans-serif" font-size="14" lengthAdjust="spacing" textLength="66.6436" x="334.42" y="109.5889">Prozesse:</text><rect fill="none" height="6" style="stroke:#C82930;stroke-width:1;" width="6" x="322.42" y="119.5391"/><text fill="#000000" font-family="sans-serif" font-size="14" lengthAdjust="spacing" textLength="158.0127" x="334.42" y="125.8857">Stammdaten&#228;nderung</text><line style="stroke:#181818;stroke-width:0.5;" x1="315.42" x2="497.4327" y1="133.1875" y2="133.1875"/></g><!--class NAD_1_msg_1--><g class="entity" data-entity="NAD_1_msg_1" data-source-line="7" data-uid="ent0003" id="entity_NAD_1_msg_1"><rect fill="#F1F1F1" height="145.7813" rx="2.5" ry="2.5" style="stroke:#181818;stroke-width:0.5;" width="296.8604" x="7" y="218.1869"/><ellipse cx="101.4487" cy="234.1869" fill="#ADD1B2" rx="11" ry="11" style="stroke:#181818;stroke-width:1;"/><path d="M104.4175,239.8275 Q103.8394,240.1244 103.1987,240.265 Q102.5581,240.4213 101.855,240.4213 Q99.355,240.4213 98.0269,238.7806 Q96.7144,237.1244 96.7144,233.9994 Q96.7144,230.8744 98.0269,229.2181 Q99.355,227.5619 101.855,227.5619 Q102.5581,227.5619 103.1987,227.7181 Q103.855,227.8744 104.4175,228.1713 L104.4175,230.89 Q103.7925,230.3119 103.1987,230.0463 Q102.605,229.765 101.98,229.765 Q100.6362,229.765 99.9487,230.8431 Q99.2612,231.9056 99.2612,233.9994 Q99.2612,236.0931 99.9487,237.1713 Q100.6362,238.2338 101.98,238.2338 Q102.605,238.2338 103.1987,237.9681 Q103.7925,237.6869 104.4175,237.1088 L104.4175,239.8275 Z " fill="#000000"/><text fill="#000000" font-family="sans-serif" font-size="14" lengthAdjust="spacing" textLength="99.4629" x="121.9487" y="239.0336">NAD_1_msg_1</text><line style="stroke:#181818;stroke-width:0.5;" x1="8" x2="302.8604" y1="250.1869" y2="250.1869"/><text fill="#000000" font-family="sans-serif" font-size="14" lengthAdjust="spacing" textLength="162.7227" x="13" y="267.182">Nachricht: PARTIN 1.0e</text><text fill="#000000" font-family="sans-serif" font-size="14" lengthAdjust="spacing" textLength="204.1143" x="13" y="283.4789">Kontext: Nachrichtenstruktur</text><text fill="#000000" font-family="sans-serif" font-size="14" lengthAdjust="spacing" textLength="91.4033" x="13" y="299.7757">Pflichtfeld: Ja</text><text fill="#000000" font-family="sans-serif" font-size="14" lengthAdjust="spacing" textLength="136.3633" x="13" y="316.0726">Codes: ID, MP, NAD</text><text fill="#000000" font-family="sans-serif" font-size="14" lengthAdjust="spacing" textLength="229.1064" x="13" y="332.3695">Prozesse: Stammdaten&#228;nderung</text><text fill="#000000" font-family="sans-serif" font-size="14" lengthAdjust="spacing" textLength="284.8604" x="13" y="348.6664">Quelle: PARTIN_MIG_1_0e_20241001.pdf</text><line style="stroke:#181818;stroke-width:0.5;" x1="8" x2="302.8604" y1="355.9681" y2="355.9681"/></g><!--class NAD_1_proc_1--><g class="entity" data-entity="NAD_1_proc_1" data-source-line="16" data-uid="ent0005" id="entity_NAD_1_proc_1"><rect fill="#F1F1F1" height="88.8594" rx="2.5" ry="2.5" style="stroke:#181818;stroke-width:0.5;" width="638.3496" x="339.26" y="246.6469"/><ellipse cx="603.9099" cy="266.7797" fill="#ADD1B2" rx="11" ry="11" style="stroke:#181818;stroke-width:1;"/><path d="M606.8787,272.4203 Q606.3005,272.7172 605.6599,272.8578 Q605.0193,273.0141 604.3162,273.0141 Q601.8162,273.0141 600.488,271.3734 Q599.1755,269.7172 599.1755,266.5922 Q599.1755,263.4672 600.488,261.8109 Q601.8162,260.1547 604.3162,260.1547 Q605.0193,260.1547 605.6599,260.3109 Q606.3162,260.4672 606.8787,260.7641 L606.8787,263.4828 Q606.2537,262.9047 605.6599,262.6391 Q605.0662,262.3578 604.4412,262.3578 Q603.0974,262.3578 602.4099,263.4359 Q601.7224,264.4984 601.7224,266.5922 Q601.7224,268.6859 602.4099,269.7641 Q603.0974,270.8266 604.4412,270.8266 Q605.0662,270.8266 605.6599,270.5609 Q606.2537,270.2797 606.8787,269.7016 L606.8787,272.4203 Z " fill="#000000"/><text fill="#000000" font-family="sans-serif" font-size="12" font-style="italic" lengthAdjust="spacing" textLength="61.0605" x="644.1545" y="262.7855">&#171;process&#187;</text><text fill="#000000" font-family="sans-serif" font-size="14" lengthAdjust="spacing" textLength="100.5498" x="624.4099" y="278.6107">NAD_1_proc_1</text><line style="stroke:#181818;stroke-width:0.5;" x1="340.26" x2="976.6096" y1="286.9125" y2="286.9125"/><text fill="#000000" font-family="sans-serif" font-size="14" lengthAdjust="spacing" textLength="158.0127" x="345.26" y="303.9076">Stammdaten&#228;nderung</text><text fill="#000000" font-family="sans-serif" font-size="14" lengthAdjust="spacing" textLength="626.3496" x="345.26" y="320.2045">Zusammenfassung: Wie wird eine Stammdaten&#228;nderung an einer Marktlokation, wie z.B.</text><line style="stroke:#181818;stroke-width:0.5;" x1="340.26" x2="976.6096" y1="327.5063" y2="327.5063"/></g><!--link NAD_1 to NAD_1_msg_1--><g class="link" data-entity-1="NAD_1" data-entity-2="NAD_1_msg_1" data-source-line="15" data-uid="lnk4" id="link_NAD_1_NAD_1_msg_1"><path codeLine="15" d="M345.35,141.5169 C316.04,164.4469 285.0162,188.7105 252.4762,214.1605" fill="none" id="NAD_1-to-NAD_1_msg_1" style="stroke:#181818;stroke-width:1;"/><polygon fill="#181818" points="247.75,217.8569,257.3035,215.4631,251.6885,214.7765,252.375,209.1615,247.75,217.8569" style="stroke:#181818;stroke-width:1;"/><text fill="#000000" font-family="sans-serif" font-size="13" lengthAdjust="spacing" textLength="85.2363" x="304.43" y="184.2538">verwendet in</text></g><!--link NAD_1 to NAD_1_proc_1--><g class="link" data-entity-1="NAD_1" data-entity-2="NAD_1_proc_1" data-source-line="20" data-uid="lnk6" id="link_NAD_1_NAD_1_proc_1"><path codeLine="20" d="M467.75,141.5169 C508.84,173.5269 557.777,211.6593 597.707,242.7693" fill="none" id="NAD_1-to-NAD_1_proc_1" style="stroke:#181818;stroke-width:1;stroke-dasharray:7,7;"/><polygon fill="#181818" points="602.44,246.4569,597.7988,237.7701,598.4958,243.3839,592.882,244.0809,602.44,246.4569" style="stroke:#181818;stroke-width:1;"/><text fill="#000000" font-family="sans-serif" font-size="13" lengthAdjust="spacing" textLength="91.6221" x="526.43" y="184.2538">eingebettet in</text></g><!--SRC=[RO_TQeD048NlynJp04Oqz6e9GbgXs99WVw3G6zdgQ9QiQzWTcvBIj-cRzCKwQwb4yExCcJaptv0YZP1AGYD9ImTBs6rI4IzABfpNHGoV2u2TR550p2gttHcTGy4QUFw9PDjMViFFjwdGzgPPV5tcYzOruvPoRrMv9m7vvl4vsq4SHiYD-yuGVh0zJg1nPFi3zTRVhBNtQjILW3l9parNeHEGfG5iyy0VkaIRXG9uw55h_BzTRBDRfekmM4MhgpYAul1OrSp-z_LocKpu1RoZFI5l8r1cyk3HTYLFhDTUC42I3D_EGxpsZcqqDUVP4V2Y44xALe3Au5m8f1bw5hRI7aXt1qcgCm6d4CxXTJWoXs4oHH8-sE0R4WtOlm00]--></g></svg>