<svg xmlns="http://www.w3.org/2000/svg" xmlns:xlink="http://www.w3.org/1999/xlink" contentStyleType="text/css" data-diagram-type="CLASS" height="403px" preserveAspectRatio="none" style="width:4213px;height:403px;background:#FFFFFF;" version="1.1" viewBox="0 0 4213 403" width="4213px" zoomAndPan="magnify"><title>Datenatlas - NAD:3036</title><defs/><g><g class="title" data-source-line="1"><text fill="#000000" font-family="sans-serif" font-size="14" font-weight="bold" lengthAdjust="spacing" textLength="180.2363" x="2009.5016" y="22.9951">Datenatlas - NAD:3036</text></g><!--class NAD_3036--><g class="entity" data-entity="NAD_3036" data-source-line="2" data-uid="ent0002" id="entity_NAD_3036"><rect fill="#F1F1F1" height="129.4844" rx="2.5" ry="2.5" style="stroke:#181818;stroke-width:0.5;" width="249.2822" x="1683.43" y="44.2969"/><ellipse cx="1767.0916" cy="60.2969" fill="#ADD1B2" rx="11" ry="11" style="stroke:#181818;stroke-width:1;"/><path d="M1770.0604,65.9375 Q1769.4822,66.2344 1768.8416,66.375 Q1768.201,66.5313 1767.4979,66.5313 Q1764.9979,66.5313 1763.6697,64.8906 Q1762.3572,63.2344 1762.3572,60.1094 Q1762.3572,56.9844 1763.6697,55.3281 Q1764.9979,53.6719 1767.4979,53.6719 Q1768.201,53.6719 1768.8416,53.8281 Q1769.4979,53.9844 1770.0604,54.2813 L1770.0604,57 Q1769.4354,56.4219 1768.8416,56.1563 Q1768.2479,55.875 1767.6229,55.875 Q1766.2791,55.875 1765.5916,56.9531 Q1764.9041,58.0156 1764.9041,60.1094 Q1764.9041,62.2031 1765.5916,63.2813 Q1766.2791,64.3438 1767.6229,64.3438 Q1768.2479,64.3438 1768.8416,64.0781 Q1769.4354,63.7969 1770.0604,63.2188 L1770.0604,65.9375 Z " fill="#000000"/><text fill="#000000" font-family="sans-serif" font-size="14" lengthAdjust="spacing" textLength="73.459" x="1787.5916" y="65.1436">NAD_3036</text><line style="stroke:#181818;stroke-width:0.5;" x1="1684.43" x2="1931.7122" y1="76.2969" y2="76.2969"/><text fill="#000000" font-family="sans-serif" font-size="14" lengthAdjust="spacing" textLength="123.2041" x="1703.43" y="93.292">Name: Beteiligter</text><text fill="#000000" font-family="sans-serif" font-size="14" lengthAdjust="spacing" textLength="66.6436" x="1703.43" y="109.5889">Prozesse:</text><rect fill="none" height="6" style="stroke:#C82930;stroke-width:1;" width="6" x="1691.43" y="119.5391"/><text fill="#000000" font-family="sans-serif" font-size="14" lengthAdjust="spacing" textLength="180.3457" x="1703.43" y="125.8857">Netznutzungsabrechnung</text><rect fill="none" height="6" style="stroke:#C82930;stroke-width:1;" width="6" x="1691.43" y="135.8359"/><text fill="#000000" font-family="sans-serif" font-size="14" lengthAdjust="spacing" textLength="223.2822" x="1703.43" y="142.1826">Messstellenbetriebsabrechnung</text><rect fill="none" height="6" style="stroke:#C82930;stroke-width:1;" width="6" x="1691.43" y="152.1328"/><text fill="#000000" font-family="sans-serif" font-size="14" lengthAdjust="spacing" textLength="158.0127" x="1703.43" y="158.4795">Stammdaten&#228;nderung</text><line style="stroke:#181818;stroke-width:0.5;" x1="1684.43" x2="1931.7122" y1="165.7813" y2="165.7813"/></g><!--class NAD_3036_msg_1--><g class="entity" data-entity="NAD_3036_msg_1" data-source-line="9" data-uid="ent0003" id="entity_NAD_3036_msg_1"><rect fill="#F1F1F1" height="145.7813" rx="2.5" ry="2.5" style="stroke:#181818;stroke-width:0.5;" width="296.1357" x="7" y="250.7869"/><ellipse cx="87.7256" cy="266.7869" fill="#ADD1B2" rx="11" ry="11" style="stroke:#181818;stroke-width:1;"/><path d="M90.6943,272.4275 Q90.1162,272.7244 89.4756,272.865 Q88.835,273.0213 88.1318,273.0213 Q85.6318,273.0213 84.3037,271.3806 Q82.9912,269.7244 82.9912,266.5994 Q82.9912,263.4744 84.3037,261.8181 Q85.6318,260.1619 88.1318,260.1619 Q88.835,260.1619 89.4756,260.3181 Q90.1318,260.4744 90.6943,260.7713 L90.6943,263.49 Q90.0693,262.9119 89.4756,262.6463 Q88.8818,262.365 88.2568,262.365 Q86.9131,262.365 86.2256,263.4431 Q85.5381,264.5056 85.5381,266.5994 Q85.5381,268.6931 86.2256,269.7713 Q86.9131,270.8338 88.2568,270.8338 Q88.8818,270.8338 89.4756,270.5681 Q90.0693,270.2869 90.6943,269.7088 L90.6943,272.4275 Z " fill="#000000"/><text fill="#000000" font-family="sans-serif" font-size="14" lengthAdjust="spacing" textLength="126.1846" x="108.2256" y="271.6336">NAD_3036_msg_1</text><line style="stroke:#181818;stroke-width:0.5;" x1="8" x2="302.1357" y1="282.7869" y2="282.7869"/><text fill="#000000" font-family="sans-serif" font-size="14" lengthAdjust="spacing" textLength="161.998" x="13" y="299.782">Nachricht: INSRPT 1.1a</text><text fill="#000000" font-family="sans-serif" font-size="14" lengthAdjust="spacing" textLength="123.0605" x="13" y="316.0789">Kontext: Beispiel:</text><text fill="#000000" font-family="sans-serif" font-size="14" lengthAdjust="spacing" textLength="91.4033" x="13" y="332.3757">Pflichtfeld: Ja</text><text fill="#000000" font-family="sans-serif" font-size="14" lengthAdjust="spacing" textLength="228.7646" x="13" y="348.6726">Codes: 01, 10, 293, 32, MS, NAD</text><text fill="#000000" font-family="sans-serif" font-size="14" lengthAdjust="spacing" textLength="251.4395" x="13" y="364.9695">Prozesse: Netznutzungsabrechnung</text><text fill="#000000" font-family="sans-serif" font-size="14" lengthAdjust="spacing" textLength="284.1357" x="13" y="381.2664">Quelle: INSRPT_MIG_1_1a_20211001.pdf</text><line style="stroke:#181818;stroke-width:0.5;" x1="8" x2="302.1357" y1="388.5681" y2="388.5681"/></g><!--class NAD_3036_msg_2--><g class="entity" data-entity="NAD_3036_msg_2" data-source-line="18" data-uid="ent0005" id="entity_NAD_3036_msg_2"><rect fill="#F1F1F1" height="145.7813" rx="2.5" ry="2.5" style="stroke:#181818;stroke-width:0.5;" width="607.8203" x="338.16" y="250.7869"/><ellipse cx="574.7279" cy="266.7869" fill="#ADD1B2" rx="11" ry="11" style="stroke:#181818;stroke-width:1;"/><path d="M577.6966,272.4275 Q577.1185,272.7244 576.4779,272.865 Q575.8372,273.0213 575.1341,273.0213 Q572.6341,273.0213 571.306,271.3806 Q569.9935,269.7244 569.9935,266.5994 Q569.9935,263.4744 571.306,261.8181 Q572.6341,260.1619 575.1341,260.1619 Q575.8372,260.1619 576.4779,260.3181 Q577.1341,260.4744 577.6966,260.7713 L577.6966,263.49 Q577.0716,262.9119 576.4779,262.6463 Q575.8841,262.365 575.2591,262.365 Q573.9154,262.365 573.2279,263.4431 Q572.5404,264.5056 572.5404,266.5994 Q572.5404,268.6931 573.2279,269.7713 Q573.9154,270.8338 575.2591,270.8338 Q575.8841,270.8338 576.4779,270.5681 Q577.0716,270.2869 577.6966,269.7088 L577.6966,272.4275 Z " fill="#000000"/><text fill="#000000" font-family="sans-serif" font-size="14" lengthAdjust="spacing" textLength="126.1846" x="595.2279" y="271.6336">NAD_3036_msg_2</text><line style="stroke:#181818;stroke-width:0.5;" x1="339.16" x2="944.9803" y1="282.7869" y2="282.7869"/><text fill="#000000" font-family="sans-serif" font-size="14" lengthAdjust="spacing" textLength="161.1982" x="344.16" y="299.782">Nachricht: INVOIC 2.8d</text><text fill="#000000" font-family="sans-serif" font-size="14" lengthAdjust="spacing" textLength="170.3447" x="344.16" y="316.0789">Kontext: Segmentlayout</text><text fill="#000000" font-family="sans-serif" font-size="14" lengthAdjust="spacing" textLength="91.4033" x="344.16" y="332.3757">Pflichtfeld: Ja</text><text fill="#000000" font-family="sans-serif" font-size="14" lengthAdjust="spacing" textLength="595.8203" x="344.16" y="348.6726">Codes: 17, 293, 332, 35, 99, DE, GS1, ID, ISO, MP, MS, NAD, OCR, SG2, UN, Z01, Z02</text><text fill="#000000" font-family="sans-serif" font-size="14" lengthAdjust="spacing" textLength="483.6221" x="344.16" y="364.9695">Prozesse: Netznutzungsabrechnung, Messstellenbetriebsabrechnung</text><text fill="#000000" font-family="sans-serif" font-size="14" lengthAdjust="spacing" textLength="396.6074" x="344.16" y="381.2664">Quelle: INVOIC_MIG_2.8d_Fehlerkorrektur_20250131.pdf</text><line style="stroke:#181818;stroke-width:0.5;" x1="339.16" x2="944.9803" y1="388.5681" y2="388.5681"/></g><!--class NAD_3036_msg_3--><g class="entity" data-entity="NAD_3036_msg_3" data-source-line="27" data-uid="ent0007" id="entity_NAD_3036_msg_3"><rect fill="#F1F1F1" height="145.7813" rx="2.5" ry="2.5" style="stroke:#181818;stroke-width:0.5;" width="579.041" x="980.55" y="250.7869"/><ellipse cx="1202.7282" cy="266.7869" fill="#ADD1B2" rx="11" ry="11" style="stroke:#181818;stroke-width:1;"/><path d="M1205.697,272.4275 Q1205.1188,272.7244 1204.4782,272.865 Q1203.8376,273.0213 1203.1345,273.0213 Q1200.6345,273.0213 1199.3063,271.3806 Q1197.9938,269.7244 1197.9938,266.5994 Q1197.9938,263.4744 1199.3063,261.8181 Q1200.6345,260.1619 1203.1345,260.1619 Q1203.8376,260.1619 1204.4782,260.3181 Q1205.1345,260.4744 1205.697,260.7713 L1205.697,263.49 Q1205.072,262.9119 1204.4782,262.6463 Q1203.8845,262.365 1203.2595,262.365 Q1201.9157,262.365 1201.2282,263.4431 Q1200.5407,264.5056 1200.5407,266.5994 Q1200.5407,268.6931 1201.2282,269.7713 Q1201.9157,270.8338 1203.2595,270.8338 Q1203.8845,270.8338 1204.4782,270.5681 Q1205.072,270.2869 1205.697,269.7088 L1205.697,272.4275 Z " fill="#000000"/><text fill="#000000" font-family="sans-serif" font-size="14" lengthAdjust="spacing" textLength="126.1846" x="1223.2282" y="271.6336">NAD_3036_msg_3</text><line style="stroke:#181818;stroke-width:0.5;" x1="981.55" x2="1558.591" y1="282.7869" y2="282.7869"/><text fill="#000000" font-family="sans-serif" font-size="14" lengthAdjust="spacing" textLength="165.6484" x="986.55" y="299.782">Nachricht: INVOIC 2.8d.</text><text fill="#000000" font-family="sans-serif" font-size="14" lengthAdjust="spacing" textLength="170.3447" x="986.55" y="316.0789">Kontext: Segmentlayout</text><text fill="#000000" font-family="sans-serif" font-size="14" lengthAdjust="spacing" textLength="91.4033" x="986.55" y="332.3757">Pflichtfeld: Ja</text><text fill="#000000" font-family="sans-serif" font-size="14" lengthAdjust="spacing" textLength="567.041" x="986.55" y="348.6726">Codes: 17, 293, 332, 35, 99, DE, GS1, ID, ISO, MP, MR, NAD, OCR, SG2, Z01, Z02</text><text fill="#000000" font-family="sans-serif" font-size="14" lengthAdjust="spacing" textLength="483.6221" x="986.55" y="364.9695">Prozesse: Netznutzungsabrechnung, Messstellenbetriebsabrechnung</text><text fill="#000000" font-family="sans-serif" font-size="14" lengthAdjust="spacing" textLength="290.3359" x="986.55" y="381.2664">Quelle: INVOIC_MIG_2_8d__20240619.pdf</text><line style="stroke:#181818;stroke-width:0.5;" x1="981.55" x2="1558.591" y1="388.5681" y2="388.5681"/></g><!--class NAD_3036_msg_4--><g class="entity" data-entity="NAD_3036_msg_4" data-source-line="36" data-uid="ent0009" id="entity_NAD_3036_msg_4"><rect fill="#F1F1F1" height="145.7813" rx="2.5" ry="2.5" style="stroke:#181818;stroke-width:0.5;" width="426.0664" x="1595.03" y="250.7869"/><ellipse cx="1740.7209" cy="266.7869" fill="#ADD1B2" rx="11" ry="11" style="stroke:#181818;stroke-width:1;"/><path d="M1743.6897,272.4275 Q1743.1115,272.7244 1742.4709,272.865 Q1741.8303,273.0213 1741.1272,273.0213 Q1738.6272,273.0213 1737.299,271.3806 Q1735.9865,269.7244 1735.9865,266.5994 Q1735.9865,263.4744 1737.299,261.8181 Q1738.6272,260.1619 1741.1272,260.1619 Q1741.8303,260.1619 1742.4709,260.3181 Q1743.1272,260.4744 1743.6897,260.7713 L1743.6897,263.49 Q1743.0647,262.9119 1742.4709,262.6463 Q1741.8772,262.365 1741.2522,262.365 Q1739.9084,262.365 1739.2209,263.4431 Q1738.5334,264.5056 1738.5334,266.5994 Q1738.5334,268.6931 1739.2209,269.7713 Q1739.9084,270.8338 1741.2522,270.8338 Q1741.8772,270.8338 1742.4709,270.5681 Q1743.0647,270.2869 1743.6897,269.7088 L1743.6897,272.4275 Z " fill="#000000"/><text fill="#000000" font-family="sans-serif" font-size="14" lengthAdjust="spacing" textLength="126.1846" x="1761.2209" y="271.6336">NAD_3036_msg_4</text><line style="stroke:#181818;stroke-width:0.5;" x1="1596.03" x2="2020.0964" y1="282.7869" y2="282.7869"/><text fill="#000000" font-family="sans-serif" font-size="14" lengthAdjust="spacing" textLength="162.7227" x="1601.03" y="299.782">Nachricht: PARTIN 1.0e</text><text fill="#000000" font-family="sans-serif" font-size="14" lengthAdjust="spacing" textLength="170.3447" x="1601.03" y="316.0789">Kontext: Segmentlayout</text><text fill="#000000" font-family="sans-serif" font-size="14" lengthAdjust="spacing" textLength="91.4033" x="1601.03" y="332.3757">Pflichtfeld: Ja</text><text fill="#000000" font-family="sans-serif" font-size="14" lengthAdjust="spacing" textLength="414.0664" x="1601.03" y="348.6726">Codes: 17, 256, 35, 70, EDI, ISO, NAD, OCR, SG4, Z02, Z21</text><text fill="#000000" font-family="sans-serif" font-size="14" lengthAdjust="spacing" textLength="229.1064" x="1601.03" y="364.9695">Prozesse: Stammdaten&#228;nderung</text><text fill="#000000" font-family="sans-serif" font-size="14" lengthAdjust="spacing" textLength="284.8604" x="1601.03" y="381.2664">Quelle: PARTIN_MIG_1_0e_20241001.pdf</text><line style="stroke:#181818;stroke-width:0.5;" x1="1596.03" x2="2020.0964" y1="388.5681" y2="388.5681"/></g><!--class NAD_3036_proc_1--><g class="entity" data-entity="NAD_3036_proc_1" data-source-line="45" data-uid="ent0011" id="entity_NAD_3036_proc_1"><rect fill="#F1F1F1" height="105.1563" rx="2.5" ry="2.5" style="stroke:#181818;stroke-width:0.5;" width="752.6465" x="2055.74" y="271.0969"/><ellipse cx="2364.1775" cy="291.2297" fill="#ADD1B2" rx="11" ry="11" style="stroke:#181818;stroke-width:1;"/><path d="M2367.1463,296.8703 Q2366.5681,297.1672 2365.9275,297.3078 Q2365.2869,297.4641 2364.5838,297.4641 Q2362.0838,297.4641 2360.7556,295.8234 Q2359.4431,294.1672 2359.4431,291.0422 Q2359.4431,287.9172 2360.7556,286.2609 Q2362.0838,284.6047 2364.5838,284.6047 Q2365.2869,284.6047 2365.9275,284.7609 Q2366.5838,284.9172 2367.1463,285.2141 L2367.1463,287.9328 Q2366.5213,287.3547 2365.9275,287.0891 Q2365.3338,286.8078 2364.7088,286.8078 Q2363.365,286.8078 2362.6775,287.8859 Q2361.99,288.9484 2361.99,291.0422 Q2361.99,293.1359 2362.6775,294.2141 Q2363.365,295.2766 2364.7088,295.2766 Q2365.3338,295.2766 2365.9275,295.0109 Q2366.5213,294.7297 2367.1463,294.1516 L2367.1463,296.8703 Z " fill="#000000"/><text fill="#000000" font-family="sans-serif" font-size="12" font-style="italic" lengthAdjust="spacing" textLength="61.0605" x="2417.783" y="287.2355">&#171;process&#187;</text><text fill="#000000" font-family="sans-serif" font-size="14" lengthAdjust="spacing" textLength="127.2715" x="2384.6775" y="303.0607">NAD_3036_proc_1</text><line style="stroke:#181818;stroke-width:0.5;" x1="2056.74" x2="2807.3865" y1="311.3625" y2="311.3625"/><text fill="#000000" font-family="sans-serif" font-size="14" lengthAdjust="spacing" textLength="180.3457" x="2061.74" y="328.3576">Netznutzungsabrechnung</text><text fill="#000000" font-family="sans-serif" font-size="14" lengthAdjust="spacing" textLength="218.0938" x="2061.74" y="344.6545">Gesetze: StromNEV, StromNZV</text><text fill="#000000" font-family="sans-serif" font-size="14" lengthAdjust="spacing" textLength="740.6465" x="2061.74" y="360.9514">Zusammenfassung: Wie funktioniert die Netznutzungsabrechnung zwischen Netzbetreiber und Lieferant?</text><line style="stroke:#181818;stroke-width:0.5;" x1="2056.74" x2="2807.3865" y1="368.2531" y2="368.2531"/></g><!--class NAD_3036_proc_2--><g class="entity" data-entity="NAD_3036_proc_2" data-source-line="51" data-uid="ent0013" id="entity_NAD_3036_proc_2"><rect fill="#F1F1F1" height="105.1563" rx="2.5" ry="2.5" style="stroke:#181818;stroke-width:0.5;" width="690.2275" x="2842.95" y="271.0969"/><ellipse cx="3120.178" cy="291.2297" fill="#ADD1B2" rx="11" ry="11" style="stroke:#181818;stroke-width:1;"/><path d="M3123.1468,296.8703 Q3122.5687,297.1672 3121.928,297.3078 Q3121.2874,297.4641 3120.5843,297.4641 Q3118.0843,297.4641 3116.7562,295.8234 Q3115.4437,294.1672 3115.4437,291.0422 Q3115.4437,287.9172 3116.7562,286.2609 Q3118.0843,284.6047 3120.5843,284.6047 Q3121.2874,284.6047 3121.928,284.7609 Q3122.5843,284.9172 3123.1468,285.2141 L3123.1468,287.9328 Q3122.5218,287.3547 3121.928,287.0891 Q3121.3343,286.8078 3120.7093,286.8078 Q3119.3655,286.8078 3118.678,287.8859 Q3117.9905,288.9484 3117.9905,291.0422 Q3117.9905,293.1359 3118.678,294.2141 Q3119.3655,295.2766 3120.7093,295.2766 Q3121.3343,295.2766 3121.928,295.0109 Q3122.5218,294.7297 3123.1468,294.1516 L3123.1468,296.8703 Z " fill="#000000"/><text fill="#000000" font-family="sans-serif" font-size="12" font-style="italic" lengthAdjust="spacing" textLength="61.0605" x="3173.7835" y="287.2355">&#171;process&#187;</text><text fill="#000000" font-family="sans-serif" font-size="14" lengthAdjust="spacing" textLength="127.2715" x="3140.678" y="303.0607">NAD_3036_proc_2</text><line style="stroke:#181818;stroke-width:0.5;" x1="2843.95" x2="3532.1775" y1="311.3625" y2="311.3625"/><text fill="#000000" font-family="sans-serif" font-size="14" lengthAdjust="spacing" textLength="223.2822" x="2848.95" y="328.3576">Messstellenbetriebsabrechnung</text><text fill="#000000" font-family="sans-serif" font-size="14" lengthAdjust="spacing" textLength="105.0957" x="2848.95" y="344.6545">Gesetze: MsbG</text><text fill="#000000" font-family="sans-serif" font-size="14" lengthAdjust="spacing" textLength="678.2275" x="2848.95" y="360.9514">Zusammenfassung: Beschreibe den Prozess der Abrechnung von Messstellenbetriebsleistungen.</text><line style="stroke:#181818;stroke-width:0.5;" x1="2843.95" x2="3532.1775" y1="368.2531" y2="368.2531"/></g><!--class NAD_3036_proc_3--><g class="entity" data-entity="NAD_3036_proc_3" data-source-line="57" data-uid="ent0015" id="entity_NAD_3036_proc_3"><rect fill="#F1F1F1" height="88.8594" rx="2.5" ry="2.5" style="stroke:#181818;stroke-width:0.5;" width="638.3496" x="3567.89" y="279.2469"/><ellipse cx="3819.1791" cy="299.3797" fill="#ADD1B2" rx="11" ry="11" style="stroke:#181818;stroke-width:1;"/><path d="M3822.1478,305.0203 Q3821.5697,305.3172 3820.9291,305.4578 Q3820.2884,305.6141 3819.5853,305.6141 Q3817.0853,305.6141 3815.7572,303.9734 Q3814.4447,302.3172 3814.4447,299.1922 Q3814.4447,296.0672 3815.7572,294.4109 Q3817.0853,292.7547 3819.5853,292.7547 Q3820.2884,292.7547 3820.9291,292.9109 Q3821.5853,293.0672 3822.1478,293.3641 L3822.1478,296.0828 Q3821.5228,295.5047 3820.9291,295.2391 Q3820.3353,294.9578 3819.7103,294.9578 Q3818.3666,294.9578 3817.6791,296.0359 Q3816.9916,297.0984 3816.9916,299.1922 Q3816.9916,301.2859 3817.6791,302.3641 Q3818.3666,303.4266 3819.7103,303.4266 Q3820.3353,303.4266 3820.9291,303.1609 Q3821.5228,302.8797 3822.1478,302.3016 L3822.1478,305.0203 Z " fill="#000000"/><text fill="#000000" font-family="sans-serif" font-size="12" font-style="italic" lengthAdjust="spacing" textLength="61.0605" x="3872.7845" y="295.3855">&#171;process&#187;</text><text fill="#000000" font-family="sans-serif" font-size="14" lengthAdjust="spacing" textLength="127.2715" x="3839.6791" y="311.2107">NAD_3036_proc_3</text><line style="stroke:#181818;stroke-width:0.5;" x1="3568.89" x2="4205.2396" y1="319.5125" y2="319.5125"/><text fill="#000000" font-family="sans-serif" font-size="14" lengthAdjust="spacing" textLength="158.0127" x="3573.89" y="336.5076">Stammdaten&#228;nderung</text><text fill="#000000" font-family="sans-serif" font-size="14" lengthAdjust="spacing" textLength="626.3496" x="3573.89" y="352.8045">Zusammenfassung: Wie wird eine Stammdaten&#228;nderung an einer Marktlokation, wie z.B.</text><line style="stroke:#181818;stroke-width:0.5;" x1="3568.89" x2="4205.2396" y1="360.1063" y2="360.1063"/></g><!--link NAD_3036 to NAD_3036_msg_1--><g class="link" data-entity-1="NAD_3036" data-entity-2="NAD_3036_msg_1" data-source-line="17" data-uid="lnk4" id="link_NAD_3036_NAD_3036_msg_1"><path codeLine="17" d="M1683.21,116.8069 C1373.77,134.3969 577.95,184.7769 321.07,250.7869 C315.29,252.2669 315.1819,252.1534 309.3319,253.9634" fill="none" id="NAD_3036-to-NAD_3036_msg_1" style="stroke:#181818;stroke-width:1;"/><polygon fill="#181818" points="303.6,255.7369,313.3802,256.898,308.3766,254.259,311.0156,249.2554,303.6,255.7369" style="stroke:#181818;stroke-width:1;"/><text fill="#000000" font-family="sans-serif" font-size="13" lengthAdjust="spacing" textLength="85.2363" x="601.07" y="216.8538">verwendet in</text></g><!--link NAD_3036 to NAD_3036_msg_2--><g class="link" data-entity-1="NAD_3036" data-entity-2="NAD_3036_msg_2" data-source-line="26" data-uid="lnk6" id="link_NAD_3036_NAD_3036_msg_2"><path codeLine="26" d="M1683.12,128.6469 C1517.87,153.7469 1217.79,201.0869 963.07,250.7869 C957.46,251.8769 957.6935,251.8202 951.9935,252.9602" fill="none" id="NAD_3036-to-NAD_3036_msg_2" style="stroke:#181818;stroke-width:1;"/><polygon fill="#181818" points="946.11,254.1369,955.7197,256.2942,951.0129,253.1563,954.1508,248.4495,946.11,254.1369" style="stroke:#181818;stroke-width:1;"/><text fill="#000000" font-family="sans-serif" font-size="13" lengthAdjust="spacing" textLength="85.2363" x="1219.07" y="216.8538">verwendet in</text></g><!--link NAD_3036 to NAD_3036_msg_3--><g class="link" data-entity-1="NAD_3036" data-entity-2="NAD_3036_msg_3" data-source-line="35" data-uid="lnk8" id="link_NAD_3036_NAD_3036_msg_3"><path codeLine="35" d="M1682.95,159.4969 C1614.65,186.4869 1534.3901,218.2118 1458.7001,248.1218" fill="none" id="NAD_3036-to-NAD_3036_msg_3" style="stroke:#181818;stroke-width:1;"/><polygon fill="#181818" points="1453.12,250.3269,1462.9602,250.7394,1457.7701,248.4893,1460.0201,243.2992,1453.12,250.3269" style="stroke:#181818;stroke-width:1;"/><text fill="#000000" font-family="sans-serif" font-size="13" lengthAdjust="spacing" textLength="85.2363" x="1557.07" y="216.8538">verwendet in</text></g><!--link NAD_3036 to NAD_3036_msg_4--><g class="link" data-entity-1="NAD_3036" data-entity-2="NAD_3036_msg_4" data-source-line="44" data-uid="lnk10" id="link_NAD_3036_NAD_3036_msg_4"><path codeLine="44" d="M1808.07,174.1269 C1808.07,198.2169 1808.07,219.7569 1808.07,244.5369" fill="none" id="NAD_3036-to-NAD_3036_msg_4" style="stroke:#181818;stroke-width:1;"/><polygon fill="#181818" points="1808.07,250.5369,1812.07,241.5369,1808.07,245.5369,1804.07,241.5369,1808.07,250.5369" style="stroke:#181818;stroke-width:1;"/><text fill="#000000" font-family="sans-serif" font-size="13" lengthAdjust="spacing" textLength="85.2363" x="1809.07" y="216.8538">verwendet in</text></g><!--link NAD_3036 to NAD_3036_proc_1--><g class="link" data-entity-1="NAD_3036" data-entity-2="NAD_3036_proc_1" data-source-line="50" data-uid="lnk12" id="link_NAD_3036_NAD_3036_proc_1"><path codeLine="50" d="M1932.84,152.5569 C2032.61,186.5569 2167.2207,232.4216 2273.6907,268.7016" fill="none" id="NAD_3036-to-NAD_3036_proc_1" style="stroke:#181818;stroke-width:1;stroke-dasharray:7,7;"/><polygon fill="#181818" points="2279.37,270.6369,2272.1412,263.9478,2274.6372,269.0242,2269.5608,271.5202,2279.37,270.6369" style="stroke:#181818;stroke-width:1;"/><text fill="#000000" font-family="sans-serif" font-size="13" lengthAdjust="spacing" textLength="91.6221" x="2121.07" y="216.8538">eingebettet in</text></g><!--link NAD_3036 to NAD_3036_proc_2--><g class="link" data-entity-1="NAD_3036" data-entity-2="NAD_3036_proc_2" data-source-line="56" data-uid="lnk14" id="link_NAD_3036_NAD_3036_proc_2"><path codeLine="56" d="M1933.01,124.9169 C2125.37,148.3669 2505.41,196.8269 2826.07,250.7869 C2861.77,256.7969 2893.4464,262.5221 2930.3364,269.5621" fill="none" id="NAD_3036-to-NAD_3036_proc_2" style="stroke:#181818;stroke-width:1;stroke-dasharray:7,7;"/><polygon fill="#181818" points="2936.23,270.6869,2928.1394,265.0707,2931.3186,269.7496,2926.6397,272.9289,2936.23,270.6869" style="stroke:#181818;stroke-width:1;"/><text fill="#000000" font-family="sans-serif" font-size="13" lengthAdjust="spacing" textLength="91.6221" x="2633.07" y="216.8538">eingebettet in</text></g><!--link NAD_3036 to NAD_3036_proc_3--><g class="link" data-entity-1="NAD_3036" data-entity-2="NAD_3036_proc_3" data-source-line="61" data-uid="lnk16" id="link_NAD_3036_NAD_3036_proc_3"><path codeLine="61" d="M1933.13,114.5469 C2220.31,126.1169 2948.63,162.3969 3551.07,250.7869 C3600.65,258.0569 3647.992,267.0454 3697.132,277.5254" fill="none" id="NAD_3036-to-NAD_3036_proc_3" style="stroke:#181818;stroke-width:1;stroke-dasharray:7,7;"/><polygon fill="#181818" points="3703,278.7769,3695.0323,272.9877,3698.11,277.734,3693.3636,280.8117,3703,278.7769" style="stroke:#181818;stroke-width:1;"/><text fill="#000000" font-family="sans-serif" font-size="13" lengthAdjust="spacing" textLength="91.6221" x="3317.07" y="216.8538">eingebettet in</text></g><!--SRC=[jPJHRjem58Rl-nJd0KmK9xGTKSL4IuVO1cMaOn8tKI07i0XEPJjbOzhRx4tsOZjEQM5DMj2aNe3i73l-ly-nZJ0fGZisA6EJnXfgq6-r0z_rpqwcrDUs6zak_3m1wCSh3E0I3OfKp0qgUZPGsGQrne3QOEUZsSZSR78vr_54uNGXgRajzcYaDfYcA2TebC19UKneujKgiP7-_9O9AblvzInDjDBpY6ypJHTAJ1ScW6u_70vkWJiyfiAdJ1hyRcnUeUy4fZRXO9RQiJDCam0-sc5NMO8w09Spu2u3h-4py3q6lP3PvVO9NsRxabkcnmHHhzk9UCJZo7CzpbsNEtV9Z22UPDPgpUSi0ToZMYCH6n2oYjShyuvkkbVWEU-IVTuGvokKj9q_ijoynipF7taji7_AeD5WqBvcq0b9HxTDl_26L0oUT32ukHeo23iquMkVmTXw6xlU4PhOmTtVMRHSXKNB5dt0HOfgcIc5IvChQ_NKvVvXgzuHLlrNh3flhtLOqlhcIYDIQXtMtJFUEEZGFy9X_Rd3GMjus-tJINJn_nMUdZtOEwTZUTtkRgtjsweNekZFu__Oghf2TYuUmcqFgOk5YgCEQVs0YZkLJUaaNrpO1YLfDX-yl7HhT51JgSYhibN_UiIshV68gkDS4mNA6Qr1umFu9X1ckLmQaKc1oa123wfV3fkrqDC5og9klmmK4rIGomG-2voXYgLvlm_hECqII00ev1nfkdcProln7lecdx1xUjAf0hr4obuaXeGGjljARGMj7U9z9gkMIkcsDrH7wRpEvnt7vvVugh-kokrQ2vNOHR1g4iIog2denMffqcmPswrbD0jXurmUoE-Nyly5]--></g></svg>