<svg xmlns="http://www.w3.org/2000/svg" xmlns:xlink="http://www.w3.org/1999/xlink" contentStyleType="text/css" data-diagram-type="CLASS" height="370px" preserveAspectRatio="none" style="width:1782px;height:370px;background:#FFFFFF;" version="1.1" viewBox="0 0 1782 370" width="1782px" zoomAndPan="magnify"><title>Datenatlas - NAD:00018</title><defs/><g><g class="title" data-source-line="1"><text fill="#000000" font-family="sans-serif" font-size="14" font-weight="bold" lengthAdjust="spacing" textLength="189.9775" x="789.3343" y="22.9951">Datenatlas - NAD:00018</text></g><!--class NAD_00018--><g class="entity" data-entity="NAD_00018" data-source-line="2" data-uid="ent0002" id="entity_NAD_00018"><rect fill="#F1F1F1" height="96.8906" rx="2.5" ry="2.5" style="stroke:#181818;stroke-width:0.5;" width="374.2021" x="486.55" y="44.2969"/><ellipse cx="628.218" cy="60.2969" fill="#ADD1B2" rx="11" ry="11" style="stroke:#181818;stroke-width:1;"/><path d="M631.1867,65.9375 Q630.6086,66.2344 629.968,66.375 Q629.3273,66.5313 628.6242,66.5313 Q626.1242,66.5313 624.7961,64.8906 Q623.4836,63.2344 623.4836,60.1094 Q623.4836,56.9844 624.7961,55.3281 Q626.1242,53.6719 628.6242,53.6719 Q629.3273,53.6719 629.968,53.8281 Q630.6242,53.9844 631.1867,54.2813 L631.1867,57 Q630.5617,56.4219 629.968,56.1563 Q629.3742,55.875 628.7492,55.875 Q627.4055,55.875 626.718,56.9531 Q626.0305,58.0156 626.0305,60.1094 Q626.0305,62.2031 626.718,63.2813 Q627.4055,64.3438 628.7492,64.3438 Q629.3742,64.3438 629.968,64.0781 Q630.5617,63.7969 631.1867,63.2188 L631.1867,65.9375 Z " fill="#000000"/><text fill="#000000" font-family="sans-serif" font-size="14" lengthAdjust="spacing" textLength="82.3662" x="648.718" y="65.1436">NAD_00018</text><line style="stroke:#181818;stroke-width:0.5;" x1="487.55" x2="859.7521" y1="76.2969" y2="76.2969"/><text fill="#000000" font-family="sans-serif" font-size="14" lengthAdjust="spacing" textLength="219.9395" x="492.55" y="93.292">Name: Liefer - , bzw. Bezugsort</text><text fill="#000000" font-family="sans-serif" font-size="14" lengthAdjust="spacing" textLength="66.6436" x="492.55" y="109.5889">Prozesse:</text><line style="stroke:#181818;stroke-width:0.5;" x1="487.55" x2="859.7521" y1="116.8906" y2="116.8906"/><rect fill="#F24D5C" height="6" style="stroke:#C82930;stroke-width:1;" width="6" x="494.55" y="127.5391"/><text fill="#000000" font-family="sans-serif" font-size="14" lengthAdjust="spacing" textLength="348.2021" x="506.55" y="133.8857">Bestellung einer technischen Konfiguration (MSB)</text></g><!--class NAD_00018_msg_1--><g class="entity" data-entity="NAD_00018_msg_1" data-source-line="7" data-uid="ent0003" id="entity_NAD_00018_msg_1"><rect fill="#F1F1F1" height="145.7813" rx="2.5" ry="2.5" style="stroke:#181818;stroke-width:0.5;" width="431.2959" x="7" y="218.1869"/><ellipse cx="150.8521" cy="234.1869" fill="#ADD1B2" rx="11" ry="11" style="stroke:#181818;stroke-width:1;"/><path d="M153.8208,239.8275 Q153.2427,240.1244 152.6021,240.265 Q151.9614,240.4213 151.2583,240.4213 Q148.7583,240.4213 147.4302,238.7806 Q146.1177,237.1244 146.1177,233.9994 Q146.1177,230.8744 147.4302,229.2181 Q148.7583,227.5619 151.2583,227.5619 Q151.9614,227.5619 152.6021,227.7181 Q153.2583,227.8744 153.8208,228.1713 L153.8208,230.89 Q153.1958,230.3119 152.6021,230.0463 Q152.0083,229.765 151.3833,229.765 Q150.0396,229.765 149.3521,230.8431 Q148.6646,231.9056 148.6646,233.9994 Q148.6646,236.0931 149.3521,237.1713 Q150.0396,238.2338 151.3833,238.2338 Q152.0083,238.2338 152.6021,237.9681 Q153.1958,237.6869 153.8208,237.1088 L153.8208,239.8275 Z " fill="#000000"/><text fill="#000000" font-family="sans-serif" font-size="14" lengthAdjust="spacing" textLength="135.0918" x="171.3521" y="239.0336">NAD_00018_msg_1</text><line style="stroke:#181818;stroke-width:0.5;" x1="8" x2="437.2959" y1="250.1869" y2="250.1869"/><text fill="#000000" font-family="sans-serif" font-size="14" lengthAdjust="spacing" textLength="170.1055" x="13" y="267.182">Nachricht: REQOTE 1.3b</text><text fill="#000000" font-family="sans-serif" font-size="14" lengthAdjust="spacing" textLength="204.1143" x="13" y="283.4789">Kontext: Nachrichtenstruktur</text><text fill="#000000" font-family="sans-serif" font-size="14" lengthAdjust="spacing" textLength="91.4033" x="13" y="299.7757">Pflichtfeld: Ja</text><text fill="#000000" font-family="sans-serif" font-size="14" lengthAdjust="spacing" textLength="106.9414" x="13" y="316.0726">Codes: ID, NAD</text><text fill="#000000" font-family="sans-serif" font-size="14" lengthAdjust="spacing" textLength="292.2432" x="13" y="332.3695">Quelle: REQOTE_MIG_1_3b_20241001.pdf</text><line style="stroke:#181818;stroke-width:0.5;" x1="8" x2="437.2959" y1="339.6713" y2="339.6713"/><text fill="#000000" font-family="sans-serif" font-size="14" lengthAdjust="spacing" textLength="419.2959" x="13" y="356.6664">Prozesse: Bestellung einer technischen Konfiguration (MSB)</text></g><!--class NAD_00018_proc_1--><g class="entity" data-entity="NAD_00018_proc_1" data-source-line="16" data-uid="ent0005" id="entity_NAD_00018_proc_1"><rect fill="#F1F1F1" height="105.1563" rx="2.5" ry="2.5" style="stroke:#181818;stroke-width:0.5;" width="1301.9961" x="473.65" y="238.4969"/><ellipse cx="1052.3087" cy="258.6297" fill="#ADD1B2" rx="11" ry="11" style="stroke:#181818;stroke-width:1;"/><path d="M1055.2774,264.2703 Q1054.6993,264.5672 1054.0587,264.7078 Q1053.4181,264.8641 1052.7149,264.8641 Q1050.2149,264.8641 1048.8868,263.2234 Q1047.5743,261.5672 1047.5743,258.4422 Q1047.5743,255.3172 1048.8868,253.6609 Q1050.2149,252.0047 1052.7149,252.0047 Q1053.4181,252.0047 1054.0587,252.1609 Q1054.7149,252.3172 1055.2774,252.6141 L1055.2774,255.3328 Q1054.6524,254.7547 1054.0587,254.4891 Q1053.4649,254.2078 1052.8399,254.2078 Q1051.4962,254.2078 1050.8087,255.2859 Q1050.1212,256.3484 1050.1212,258.4422 Q1050.1212,260.5359 1050.8087,261.6141 Q1051.4962,262.6766 1052.8399,262.6766 Q1053.4649,262.6766 1054.0587,262.4109 Q1054.6524,262.1297 1055.2774,261.5516 L1055.2774,264.2703 Z " fill="#000000"/><text fill="#000000" font-family="sans-serif" font-size="12" font-style="italic" lengthAdjust="spacing" textLength="61.0605" x="1110.3678" y="254.6355">&#171;process&#187;</text><text fill="#000000" font-family="sans-serif" font-size="14" lengthAdjust="spacing" textLength="136.1787" x="1072.8087" y="270.4607">NAD_00018_proc_1</text><line style="stroke:#181818;stroke-width:0.5;" x1="474.65" x2="1774.6461" y1="278.7625" y2="278.7625"/><text fill="#000000" font-family="sans-serif" font-size="14" lengthAdjust="spacing" textLength="156.4063" x="479.65" y="295.7576">Gesetze: MsbG, EnWG</text><text fill="#000000" font-family="sans-serif" font-size="14" lengthAdjust="spacing" textLength="1289.9961" x="479.65" y="312.0545">Zusammenfassung: Erl&#228;utere den Prozess zur Bestellung einer spezifischen technischen Konfiguration bei einem Messstellenbetreiber, beispielsweise f&#252;r ein intelligentes Messsystem.</text><line style="stroke:#181818;stroke-width:0.5;" x1="474.65" x2="1774.6461" y1="319.3563" y2="319.3563"/><text fill="#000000" font-family="sans-serif" font-size="14" lengthAdjust="spacing" textLength="348.2021" x="479.65" y="336.3514">Bestellung einer technischen Konfiguration (MSB)</text></g><!--link NAD_00018 to NAD_00018_msg_1--><g class="link" data-entity-1="NAD_00018" data-entity-2="NAD_00018_msg_1" data-source-line="15" data-uid="lnk4" id="link_NAD_00018_NAD_00018_msg_1"><path codeLine="15" d="M563.61,141.6469 C511.07,164.5169 452.5712,189.9816 394.2812,215.3616" fill="none" id="NAD_00018-to-NAD_00018_msg_1" style="stroke:#181818;stroke-width:1;"/><polygon fill="#181818" points="388.78,217.7569,398.6286,217.8314,393.3643,215.7608,395.4349,210.4966,388.78,217.7569" style="stroke:#181818;stroke-width:1;"/><text fill="#000000" font-family="sans-serif" font-size="13" lengthAdjust="spacing" textLength="85.2363" x="489.65" y="184.2538">verwendet in</text></g><!--link NAD_00018 to NAD_00018_proc_1--><g class="link" data-entity-1="NAD_00018" data-entity-2="NAD_00018_proc_1" data-source-line="21" data-uid="lnk6" id="link_NAD_00018_NAD_00018_proc_1"><path codeLine="21" d="M783.69,141.6469 C850.7,170.8169 930.8486,205.7122 999.5386,235.6122" fill="none" id="NAD_00018-to-NAD_00018_proc_1" style="stroke:#181818;stroke-width:1;stroke-dasharray:7,7;"/><polygon fill="#181818" points="1005.04,238.0069,998.3844,230.7472,1000.4555,236.0113,995.1914,238.0824,1005.04,238.0069" style="stroke:#181818;stroke-width:1;"/><text fill="#000000" font-family="sans-serif" font-size="13" lengthAdjust="spacing" textLength="91.6221" x="886.65" y="184.2538">eingebettet in</text></g><!--SRC=[dL3BZjD04BpdA_e8KcB5knpGQ1M9a2XQ80iBAo5niVmeEoFiSJJTGy28lzdFuBO_HeytF2CES9gUxkggwX8hBMYL2rmkRSuqewidApEVpzF7ar8R7F_P-AVF4wAhl8EX5nOrl8AdL0o7X9OOGiEz5qMyylq0PXYjII5BiA1jWsi8rkcMeDmvo-KEZfxthhPDyBdOtj63xPlbmycNFuMpZfiiFSgNEs_BdHXwlRv-UREcD3alTA14We_Q_e60O_7XlGGVJTLjxDLeAqFFSkqyxIkmeSlLD0hzwllV7HDT1rt0TrFPzdAJfTbvaPtDpnwbUaEohsezx6UMizdYv4137-0FS1M4h3j9OU_xKb4N5x5Gful56Cb_kDs08OFQtNAncTBQlTrezrtWlElWQfLLDaDhtzxT1e47LSfr38Y6u4z5UO_1raVLlpieOCU5ZhPADNB05H0FMy1Fuvpt5YqVj03LTrzzn6iS4MeRwCltkvzqkqj-2pL95gTvcKZGG4LapFKR]--></g></svg>