<svg xmlns="http://www.w3.org/2000/svg" xmlns:xlink="http://www.w3.org/1999/xlink" contentStyleType="text/css" data-diagram-type="CLASS" height="370px" preserveAspectRatio="none" style="width:1192px;height:370px;background:#FFFFFF;" version="1.1" viewBox="0 0 1192 370" width="1192px" zoomAndPan="magnify"><title>Datenatlas - NAD:0130</title><defs/><g><g class="title" data-source-line="1"><text fill="#000000" font-family="sans-serif" font-size="14" font-weight="bold" lengthAdjust="spacing" textLength="180.2363" x="499.0861" y="22.9951">Datenatlas - NAD:0130</text></g><!--class NAD_0130--><g class="entity" data-entity="NAD_0130" data-source-line="2" data-uid="ent0002" id="entity_NAD_0130"><rect fill="#F1F1F1" height="96.8906" rx="2.5" ry="2.5" style="stroke:#181818;stroke-width:0.5;" width="360.3525" x="375.12" y="44.2969"/><ellipse cx="514.3168" cy="60.2969" fill="#ADD1B2" rx="11" ry="11" style="stroke:#181818;stroke-width:1;"/><path d="M517.2855,65.9375 Q516.7074,66.2344 516.0668,66.375 Q515.4262,66.5313 514.723,66.5313 Q512.223,66.5313 510.8949,64.8906 Q509.5824,63.2344 509.5824,60.1094 Q509.5824,56.9844 510.8949,55.3281 Q512.223,53.6719 514.723,53.6719 Q515.4262,53.6719 516.0668,53.8281 Q516.723,53.9844 517.2855,54.2813 L517.2855,57 Q516.6605,56.4219 516.0668,56.1563 Q515.473,55.875 514.848,55.875 Q513.5043,55.875 512.8168,56.9531 Q512.1293,58.0156 512.1293,60.1094 Q512.1293,62.2031 512.8168,63.2813 Q513.5043,64.3438 514.848,64.3438 Q515.473,64.3438 516.0668,64.0781 Q516.6605,63.7969 517.2855,63.2188 L517.2855,65.9375 Z " fill="#000000"/><text fill="#000000" font-family="sans-serif" font-size="14" lengthAdjust="spacing" textLength="73.459" x="534.8168" y="65.1436">NAD_0130</text><line style="stroke:#181818;stroke-width:0.5;" x1="376.12" x2="734.4725" y1="76.2969" y2="76.2969"/><text fill="#000000" font-family="sans-serif" font-size="14" lengthAdjust="spacing" textLength="170.8027" x="395.12" y="93.292">Name: MP - ID Absender</text><text fill="#000000" font-family="sans-serif" font-size="14" lengthAdjust="spacing" textLength="66.6436" x="395.12" y="109.5889">Prozesse:</text><rect fill="none" height="6" style="stroke:#C82930;stroke-width:1;" width="6" x="383.12" y="119.5391"/><text fill="#000000" font-family="sans-serif" font-size="14" lengthAdjust="spacing" textLength="334.3525" x="395.12" y="125.8857">Anforderung und &#220;bermittlung von Messwerten</text><line style="stroke:#181818;stroke-width:0.5;" x1="376.12" x2="734.4725" y1="133.1875" y2="133.1875"/></g><!--class NAD_0130_msg_1--><g class="entity" data-entity="NAD_0130_msg_1" data-source-line="7" data-uid="ent0003" id="entity_NAD_0130_msg_1"><rect fill="#F1F1F1" height="129.4844" rx="2.5" ry="2.5" style="stroke:#181818;stroke-width:0.5;" width="296.5869" x="7" y="226.3369"/><ellipse cx="87.9512" cy="242.3369" fill="#ADD1B2" rx="11" ry="11" style="stroke:#181818;stroke-width:1;"/><path d="M90.9199,247.9775 Q90.3418,248.2744 89.7012,248.415 Q89.0605,248.5713 88.3574,248.5713 Q85.8574,248.5713 84.5293,246.9306 Q83.2168,245.2744 83.2168,242.1494 Q83.2168,239.0244 84.5293,237.3681 Q85.8574,235.7119 88.3574,235.7119 Q89.0605,235.7119 89.7012,235.8681 Q90.3574,236.0244 90.9199,236.3213 L90.9199,239.04 Q90.2949,238.4619 89.7012,238.1963 Q89.1074,237.915 88.4824,237.915 Q87.1387,237.915 86.4512,238.9931 Q85.7637,240.0556 85.7637,242.1494 Q85.7637,244.2431 86.4512,245.3213 Q87.1387,246.3838 88.4824,246.3838 Q89.1074,246.3838 89.7012,246.1181 Q90.2949,245.8369 90.9199,245.2588 L90.9199,247.9775 Z " fill="#000000"/><text fill="#000000" font-family="sans-serif" font-size="14" lengthAdjust="spacing" textLength="126.1846" x="108.4512" y="247.1836">NAD_0130_msg_1</text><line style="stroke:#181818;stroke-width:0.5;" x1="8" x2="302.5869" y1="258.3369" y2="258.3369"/><text fill="#000000" font-family="sans-serif" font-size="14" lengthAdjust="spacing" textLength="162.4492" x="13" y="275.332">Nachricht: APERAK 2.1i</text><text fill="#000000" font-family="sans-serif" font-size="14" lengthAdjust="spacing" textLength="204.1143" x="13" y="291.6289">Kontext: Nachrichtenstruktur</text><text fill="#000000" font-family="sans-serif" font-size="14" lengthAdjust="spacing" textLength="91.4033" x="13" y="307.9257">Pflichtfeld: Ja</text><text fill="#000000" font-family="sans-serif" font-size="14" lengthAdjust="spacing" textLength="136.3633" x="13" y="324.2226">Codes: ID, MP, NAD</text><text fill="#000000" font-family="sans-serif" font-size="14" lengthAdjust="spacing" textLength="284.5869" x="13" y="340.5195">Quelle: APERAK_MIG_2_1i_20240619.pdf</text><line style="stroke:#181818;stroke-width:0.5;" x1="8" x2="302.5869" y1="347.8213" y2="347.8213"/></g><!--class NAD_0130_msg_2--><g class="entity" data-entity="NAD_0130_msg_2" data-source-line="15" data-uid="ent0005" id="entity_NAD_0130_msg_2"><rect fill="#F1F1F1" height="145.7813" rx="2.5" ry="2.5" style="stroke:#181818;stroke-width:0.5;" width="432.9502" x="338.82" y="218.1869"/><ellipse cx="487.9528" cy="234.1869" fill="#ADD1B2" rx="11" ry="11" style="stroke:#181818;stroke-width:1;"/><path d="M490.9216,239.8275 Q490.3434,240.1244 489.7028,240.265 Q489.0622,240.4213 488.3591,240.4213 Q485.8591,240.4213 484.5309,238.7806 Q483.2184,237.1244 483.2184,233.9994 Q483.2184,230.8744 484.5309,229.2181 Q485.8591,227.5619 488.3591,227.5619 Q489.0622,227.5619 489.7028,227.7181 Q490.3591,227.8744 490.9216,228.1713 L490.9216,230.89 Q490.2966,230.3119 489.7028,230.0463 Q489.1091,229.765 488.4841,229.765 Q487.1403,229.765 486.4528,230.8431 Q485.7653,231.9056 485.7653,233.9994 Q485.7653,236.0931 486.4528,237.1713 Q487.1403,238.2338 488.4841,238.2338 Q489.1091,238.2338 489.7028,237.9681 Q490.2966,237.6869 490.9216,237.1088 L490.9216,239.8275 Z " fill="#000000"/><text fill="#000000" font-family="sans-serif" font-size="14" lengthAdjust="spacing" textLength="126.1846" x="508.4528" y="239.0336">NAD_0130_msg_2</text><line style="stroke:#181818;stroke-width:0.5;" x1="339.82" x2="770.7702" y1="250.1869" y2="250.1869"/><text fill="#000000" font-family="sans-serif" font-size="14" lengthAdjust="spacing" textLength="172.0264" x="344.82" y="267.182">Nachricht: MSCONS 2.4c</text><text fill="#000000" font-family="sans-serif" font-size="14" lengthAdjust="spacing" textLength="204.1143" x="344.82" y="283.4789">Kontext: Nachrichtenstruktur</text><text fill="#000000" font-family="sans-serif" font-size="14" lengthAdjust="spacing" textLength="91.4033" x="344.82" y="299.7757">Pflichtfeld: Ja</text><text fill="#000000" font-family="sans-serif" font-size="14" lengthAdjust="spacing" textLength="173.9063" x="344.82" y="316.0726">Codes: ID, MP, NAD, SG4</text><text fill="#000000" font-family="sans-serif" font-size="14" lengthAdjust="spacing" textLength="405.4463" x="344.82" y="332.3695">Prozesse: Anforderung und &#220;bermittlung von Messwerten</text><text fill="#000000" font-family="sans-serif" font-size="14" lengthAdjust="spacing" textLength="420.9502" x="344.82" y="348.6664">Quelle: MSCONS_MIG_2_4c_au&#223;erordentliche_20240726.pdf</text><line style="stroke:#181818;stroke-width:0.5;" x1="339.82" x2="770.7702" y1="355.9681" y2="355.9681"/></g><!--class NAD_0130_proc_1--><g class="entity" data-entity="NAD_0130_proc_1" data-source-line="24" data-uid="ent0007" id="entity_NAD_0130_proc_1"><rect fill="#F1F1F1" height="105.1563" rx="2.5" ry="2.5" style="stroke:#181818;stroke-width:0.5;" width="378.2285" x="807.18" y="238.4969"/><ellipse cx="928.4085" cy="258.6297" fill="#ADD1B2" rx="11" ry="11" style="stroke:#181818;stroke-width:1;"/><path d="M931.3773,264.2703 Q930.7991,264.5672 930.1585,264.7078 Q929.5179,264.8641 928.8148,264.8641 Q926.3148,264.8641 924.9866,263.2234 Q923.6741,261.5672 923.6741,258.4422 Q923.6741,255.3172 924.9866,253.6609 Q926.3148,252.0047 928.8148,252.0047 Q929.5179,252.0047 930.1585,252.1609 Q930.8148,252.3172 931.3773,252.6141 L931.3773,255.3328 Q930.7523,254.7547 930.1585,254.4891 Q929.5648,254.2078 928.9398,254.2078 Q927.596,254.2078 926.9085,255.2859 Q926.221,256.3484 926.221,258.4422 Q926.221,260.5359 926.9085,261.6141 Q927.596,262.6766 928.9398,262.6766 Q929.5648,262.6766 930.1585,262.4109 Q930.7523,262.1297 931.3773,261.5516 L931.3773,264.2703 Z " fill="#000000"/><text fill="#000000" font-family="sans-serif" font-size="12" font-style="italic" lengthAdjust="spacing" textLength="61.0605" x="982.014" y="254.6355">&#171;process&#187;</text><text fill="#000000" font-family="sans-serif" font-size="14" lengthAdjust="spacing" textLength="127.2715" x="948.9085" y="270.4607">NAD_0130_proc_1</text><line style="stroke:#181818;stroke-width:0.5;" x1="808.18" x2="1184.4085" y1="278.7625" y2="278.7625"/><text fill="#000000" font-family="sans-serif" font-size="14" lengthAdjust="spacing" textLength="334.3525" x="813.18" y="295.7576">Anforderung und &#220;bermittlung von Messwerten</text><text fill="#000000" font-family="sans-serif" font-size="14" lengthAdjust="spacing" textLength="105.0957" x="813.18" y="312.0545">Gesetze: MsbG</text><line style="stroke:#181818;stroke-width:0.5;" x1="808.18" x2="1184.4085" y1="319.3563" y2="319.3563"/><text fill="#000000" font-family="sans-serif" font-size="14" lengthAdjust="spacing" textLength="366.2285" x="813.18" y="336.3514">Zusammenfassung: Wie kann ein Marktpartner (z.B.</text></g><!--link NAD_0130 to NAD_0130_msg_1--><g class="link" data-entity-1="NAD_0130" data-entity-2="NAD_0130_msg_1" data-source-line="14" data-uid="lnk4" id="link_NAD_0130_NAD_0130_msg_1"><path codeLine="14" d="M457.7,141.6469 C406.01,167.0169 347.2061,195.873 291.2861,223.323" fill="none" id="NAD_0130-to-NAD_0130_msg_1" style="stroke:#181818;stroke-width:1;"/><polygon fill="#181818" points="285.9,225.9669,295.7417,225.5917,290.3884,223.7636,292.2165,218.4103,285.9,225.9669" style="stroke:#181818;stroke-width:1;"/><text fill="#000000" font-family="sans-serif" font-size="13" lengthAdjust="spacing" textLength="85.2363" x="392.29" y="184.2538">verwendet in</text></g><!--link NAD_0130 to NAD_0130_msg_2--><g class="link" data-entity-1="NAD_0130" data-entity-2="NAD_0130_msg_2" data-source-line="23" data-uid="lnk6" id="link_NAD_0130_NAD_0130_msg_2"><path codeLine="23" d="M555.29,141.5169 C555.29,164.4469 555.29,186.4069 555.29,211.8569" fill="none" id="NAD_0130-to-NAD_0130_msg_2" style="stroke:#181818;stroke-width:1;"/><polygon fill="#181818" points="555.29,217.8569,559.29,208.8569,555.29,212.8569,551.29,208.8569,555.29,217.8569" style="stroke:#181818;stroke-width:1;"/><text fill="#000000" font-family="sans-serif" font-size="13" lengthAdjust="spacing" textLength="85.2363" x="556.29" y="184.2538">verwendet in</text></g><!--link NAD_0130 to NAD_0130_proc_1--><g class="link" data-entity-1="NAD_0130" data-entity-2="NAD_0130_proc_1" data-source-line="29" data-uid="lnk8" id="link_NAD_0130_NAD_0130_proc_1"><path codeLine="29" d="M662.89,141.6469 C728.42,170.8169 806.6887,205.6666 873.8487,235.5666" fill="none" id="NAD_0130-to-NAD_0130_proc_1" style="stroke:#181818;stroke-width:1;stroke-dasharray:7,7;"/><polygon fill="#181818" points="879.33,238.0069,872.7349,230.6922,874.7622,235.9733,869.4811,238.0006,879.33,238.0069" style="stroke:#181818;stroke-width:1;"/><text fill="#000000" font-family="sans-serif" font-size="13" lengthAdjust="spacing" textLength="91.6221" x="764.29" y="184.2538">eingebettet in</text></g><!--SRC=[hP7FQi904CRlFiKSUz1WKh5qaK2gHQneRJqKUWbhCj5Wif7TYHPBtwJGX_75EglMYYqKeRUT_x_lMqefG-X8GYKfamPgC0mwekvUrYiHnyQ6eGtXjG8mb3aA68ouhTU1O69GnQYvCDB56er1mM_WQg2IGdEfL5CeLGoRzmdgF2NAR6PPA1Xm-mer7wwydPmASpCDtVt1QARJQ4O2Wj7jOz07pt5JBlGBHVZ2wKC7AaEwd5EvvKaocqimYmNSISwqYnYDOEmgyrVjBKu-b9Xb-BKx7FIweHUwQUZLlKQzwLuxYpXXl8C7jPf_IYbWYNfbVI18rMzAl5CbWt7xVZXc9OteVvHKOTnj7F_2UVv_-x0Zs_lGY49PRZvGsqsAB0RkdBdocdywu_tXp48N4TlNQja7i_Z-rgOpmRjeaDQMt4ow73-NHkOvgeHlyO20fnHXBfK2J7bKwZajf2Q56YxMperpBC5n_1zumivDSO94MnMV]--></g></svg>