<svg xmlns="http://www.w3.org/2000/svg" xmlns:xlink="http://www.w3.org/1999/xlink" contentStyleType="text/css" data-diagram-type="CLASS" height="370px" preserveAspectRatio="none" style="width:1323px;height:370px;background:#FFFFFF;" version="1.1" viewBox="0 0 1323 370" width="1323px" zoomAndPan="magnify"><title>Datenatlas - NAD:23</title><defs/><g><g class="title" data-source-line="1"><text fill="#000000" font-family="sans-serif" font-size="14" font-weight="bold" lengthAdjust="spacing" textLength="160.7539" x="574.2913" y="22.9951">Datenatlas - NAD:23</text></g><!--class NAD_23--><g class="entity" data-entity="NAD_23" data-source-line="2" data-uid="ent0002" id="entity_NAD_23"><rect fill="#F1F1F1" height="96.8906" rx="2.5" ry="2.5" style="stroke:#181818;stroke-width:0.5;" width="206.3457" x="500.85" y="44.2969"/><ellipse cx="571.9506" cy="60.2969" fill="#ADD1B2" rx="11" ry="11" style="stroke:#181818;stroke-width:1;"/><path d="M574.9193,65.9375 Q574.3412,66.2344 573.7006,66.375 Q573.06,66.5313 572.3568,66.5313 Q569.8568,66.5313 568.5287,64.8906 Q567.2162,63.2344 567.2162,60.1094 Q567.2162,56.9844 568.5287,55.3281 Q569.8568,53.6719 572.3568,53.6719 Q573.06,53.6719 573.7006,53.8281 Q574.3568,53.9844 574.9193,54.2813 L574.9193,57 Q574.2943,56.4219 573.7006,56.1563 Q573.1068,55.875 572.4818,55.875 Q571.1381,55.875 570.4506,56.9531 Q569.7631,58.0156 569.7631,60.1094 Q569.7631,62.2031 570.4506,63.2813 Q571.1381,64.3438 572.4818,64.3438 Q573.1068,64.3438 573.7006,64.0781 Q574.2943,63.7969 574.9193,63.2188 L574.9193,65.9375 Z " fill="#000000"/><text fill="#000000" font-family="sans-serif" font-size="14" lengthAdjust="spacing" textLength="55.6445" x="592.4506" y="65.1436">NAD_23</text><line style="stroke:#181818;stroke-width:0.5;" x1="501.85" x2="706.1957" y1="76.2969" y2="76.2969"/><text fill="#000000" font-family="sans-serif" font-size="14" lengthAdjust="spacing" textLength="141.709" x="520.85" y="93.292">Name: Messlokation</text><text fill="#000000" font-family="sans-serif" font-size="14" lengthAdjust="spacing" textLength="66.6436" x="520.85" y="109.5889">Prozesse:</text><rect fill="none" height="6" style="stroke:#C82930;stroke-width:1;" width="6" x="508.85" y="119.5391"/><text fill="#000000" font-family="sans-serif" font-size="14" lengthAdjust="spacing" textLength="180.3457" x="520.85" y="125.8857">Netznutzungsabrechnung</text><line style="stroke:#181818;stroke-width:0.5;" x1="501.85" x2="706.1957" y1="133.1875" y2="133.1875"/></g><!--class NAD_23_msg_1--><g class="entity" data-entity="NAD_23_msg_1" data-source-line="7" data-uid="ent0003" id="entity_NAD_23_msg_1"><rect fill="#F1F1F1" height="145.7813" rx="2.5" ry="2.5" style="stroke:#181818;stroke-width:0.5;" width="522.0361" x="7" y="218.1869"/><ellipse cx="209.583" cy="234.1869" fill="#ADD1B2" rx="11" ry="11" style="stroke:#181818;stroke-width:1;"/><path d="M212.5518,239.8275 Q211.9736,240.1244 211.333,240.265 Q210.6924,240.4213 209.9893,240.4213 Q207.4893,240.4213 206.1611,238.7806 Q204.8486,237.1244 204.8486,233.9994 Q204.8486,230.8744 206.1611,229.2181 Q207.4893,227.5619 209.9893,227.5619 Q210.6924,227.5619 211.333,227.7181 Q211.9893,227.8744 212.5518,228.1713 L212.5518,230.89 Q211.9268,230.3119 211.333,230.0463 Q210.7393,229.765 210.1143,229.765 Q208.7705,229.765 208.083,230.8431 Q207.3955,231.9056 207.3955,233.9994 Q207.3955,236.0931 208.083,237.1713 Q208.7705,238.2338 210.1143,238.2338 Q210.7393,238.2338 211.333,237.9681 Q211.9268,237.6869 212.5518,237.1088 L212.5518,239.8275 Z " fill="#000000"/><text fill="#000000" font-family="sans-serif" font-size="14" lengthAdjust="spacing" textLength="108.3701" x="230.083" y="239.0336">NAD_23_msg_1</text><line style="stroke:#181818;stroke-width:0.5;" x1="8" x2="528.0361" y1="250.1869" y2="250.1869"/><text fill="#000000" font-family="sans-serif" font-size="14" lengthAdjust="spacing" textLength="161.998" x="13" y="267.182">Nachricht: INSRPT 1.1a</text><text fill="#000000" font-family="sans-serif" font-size="14" lengthAdjust="spacing" textLength="398.5898" x="13" y="283.4789">Kontext: 0320   SG8   C   R   999   1   3   NAD - LOC - RFF</text><text fill="#000000" font-family="sans-serif" font-size="14" lengthAdjust="spacing" textLength="91.4033" x="13" y="299.7757">Pflichtfeld: Ja</text><text fill="#000000" font-family="sans-serif" font-size="14" lengthAdjust="spacing" textLength="510.0361" x="13" y="316.0726">Codes: 01, 10, 23, 24, 25, 26, 32, 99, 999, LOC, NAD, RFF, SG8, UN, UNT</text><text fill="#000000" font-family="sans-serif" font-size="14" lengthAdjust="spacing" textLength="251.4395" x="13" y="332.3695">Prozesse: Netznutzungsabrechnung</text><text fill="#000000" font-family="sans-serif" font-size="14" lengthAdjust="spacing" textLength="284.1357" x="13" y="348.6664">Quelle: INSRPT_MIG_1_1a_20211001.pdf</text><line style="stroke:#181818;stroke-width:0.5;" x1="8" x2="528.0361" y1="355.9681" y2="355.9681"/></g><!--class NAD_23_proc_1--><g class="entity" data-entity="NAD_23_proc_1" data-source-line="16" data-uid="ent0005" id="entity_NAD_23_proc_1"><rect fill="#F1F1F1" height="105.1563" rx="2.5" ry="2.5" style="stroke:#181818;stroke-width:0.5;" width="752.6465" x="563.69" y="238.4969"/><ellipse cx="881.0347" cy="258.6297" fill="#ADD1B2" rx="11" ry="11" style="stroke:#181818;stroke-width:1;"/><path d="M884.0035,264.2703 Q883.4254,264.5672 882.7847,264.7078 Q882.1441,264.8641 881.441,264.8641 Q878.941,264.8641 877.6129,263.2234 Q876.3004,261.5672 876.3004,258.4422 Q876.3004,255.3172 877.6129,253.6609 Q878.941,252.0047 881.441,252.0047 Q882.1441,252.0047 882.7847,252.1609 Q883.441,252.3172 884.0035,252.6141 L884.0035,255.3328 Q883.3785,254.7547 882.7847,254.4891 Q882.191,254.2078 881.566,254.2078 Q880.2222,254.2078 879.5347,255.2859 Q878.8472,256.3484 878.8472,258.4422 Q878.8472,260.5359 879.5347,261.6141 Q880.2222,262.6766 881.566,262.6766 Q882.191,262.6766 882.7847,262.4109 Q883.3785,262.1297 884.0035,261.5516 L884.0035,264.2703 Z " fill="#000000"/><text fill="#000000" font-family="sans-serif" font-size="12" font-style="italic" lengthAdjust="spacing" textLength="61.0605" x="925.733" y="254.6355">&#171;process&#187;</text><text fill="#000000" font-family="sans-serif" font-size="14" lengthAdjust="spacing" textLength="109.457" x="901.5347" y="270.4607">NAD_23_proc_1</text><line style="stroke:#181818;stroke-width:0.5;" x1="564.69" x2="1315.3365" y1="278.7625" y2="278.7625"/><text fill="#000000" font-family="sans-serif" font-size="14" lengthAdjust="spacing" textLength="180.3457" x="569.69" y="295.7576">Netznutzungsabrechnung</text><text fill="#000000" font-family="sans-serif" font-size="14" lengthAdjust="spacing" textLength="218.0938" x="569.69" y="312.0545">Gesetze: StromNEV, StromNZV</text><text fill="#000000" font-family="sans-serif" font-size="14" lengthAdjust="spacing" textLength="740.6465" x="569.69" y="328.3514">Zusammenfassung: Wie funktioniert die Netznutzungsabrechnung zwischen Netzbetreiber und Lieferant?</text><line style="stroke:#181818;stroke-width:0.5;" x1="564.69" x2="1315.3365" y1="335.6531" y2="335.6531"/></g><!--link NAD_23 to NAD_23_msg_1--><g class="link" data-entity-1="NAD_23" data-entity-2="NAD_23_msg_1" data-source-line="15" data-uid="lnk4" id="link_NAD_23_NAD_23_msg_1"><path codeLine="15" d="M522.25,141.5169 C483.01,164.4469 440.3403,189.3796 396.7903,214.8296" fill="none" id="NAD_23-to-NAD_23_msg_1" style="stroke:#181818;stroke-width:1;"/><polygon fill="#181818" points="391.61,217.8569,401.3986,216.7695,395.9269,215.3341,397.3623,209.8624,391.61,217.8569" style="stroke:#181818;stroke-width:1;"/><text fill="#000000" font-family="sans-serif" font-size="13" lengthAdjust="spacing" textLength="85.2363" x="468.02" y="184.2538">verwendet in</text></g><!--link NAD_23 to NAD_23_proc_1--><g class="link" data-entity-1="NAD_23" data-entity-2="NAD_23_proc_1" data-source-line="21" data-uid="lnk6" id="link_NAD_23_NAD_23_proc_1"><path codeLine="21" d="M685.78,141.5169 C735.8,170.7469 794.6401,205.1189 845.9101,235.0889" fill="none" id="NAD_23-to-NAD_23_proc_1" style="stroke:#181818;stroke-width:1;stroke-dasharray:7,7;"/><polygon fill="#181818" points="851.09,238.1169,845.3387,230.1217,846.7734,235.5936,841.3015,237.0283,851.09,238.1169" style="stroke:#181818;stroke-width:1;"/><text fill="#000000" font-family="sans-serif" font-size="13" lengthAdjust="spacing" textLength="91.6221" x="763.02" y="184.2538">eingebettet in</text></g><!--SRC=[TP5lRzem4CRVyodk0nWK9zqq8aGrGK7Tsen1sqcyYKno0Ol4gMnddPZstVUOKhLCwuldTBwpV_V7NlkQQQey6-LhvQXFsUTf6YUz0YSN3dcSqEyUKQOQJkcMdQlRlVAwDGWkR7j0X5Fu51wpFvZE7pgpTMfZkTWPkBq_PxYySTjSdg35pkfYvrEwpbRBnHt9WLH8V6sDvry8HqaS0RsQVuATG4jeE1p2IYY1G4NfcsyJsELi5jggwW2jk2vJ-X9uaxPa1veK92D1SG9TG1-WZuAIM00Q10EI250HQ2AK5dIV1Tsz7VczOOc-TrpN_39IVdizpsKkLHv7iPHH90UFPOMTd9RRxu_F5vFIJxPFR4hsfCtvwXvjM-3AQ1GSj34UF-_nlLRcx912BojlsoQxUX0dR_s0xBfpgcdOLAY0-odzq4nLP_RXUpLRJoK2_uVJuKcxOiVccD-mjwmtRAap9TrehjWguozVnnmCnlyCaH9hisKyzST9_m80]--></g></svg>