<svg xmlns="http://www.w3.org/2000/svg" xmlns:xlink="http://www.w3.org/1999/xlink" contentStyleType="text/css" data-diagram-type="CLASS" height="403px" preserveAspectRatio="none" style="width:3813px;height:403px;background:#FFFFFF;" version="1.1" viewBox="0 0 3813 403" width="3813px" zoomAndPan="magnify"><title>Datenatlas - NAD:C059</title><defs/><g><g class="title" data-source-line="1"><text fill="#000000" font-family="sans-serif" font-size="14" font-weight="bold" lengthAdjust="spacing" textLength="180.7695" x="1809.605" y="22.9951">Datenatlas - NAD:C059</text></g><!--class NAD_C059--><g class="entity" data-entity="NAD_C059" data-source-line="2" data-uid="ent0002" id="entity_NAD_C059"><rect fill="#F1F1F1" height="129.4844" rx="2.5" ry="2.5" style="stroke:#181818;stroke-width:0.5;" width="249.2822" x="1596.17" y="44.2969"/><ellipse cx="1679.3975" cy="60.2969" fill="#ADD1B2" rx="11" ry="11" style="stroke:#181818;stroke-width:1;"/><path d="M1682.3663,65.9375 Q1681.7882,66.2344 1681.1475,66.375 Q1680.5069,66.5313 1679.8038,66.5313 Q1677.3038,66.5313 1675.9757,64.8906 Q1674.6632,63.2344 1674.6632,60.1094 Q1674.6632,56.9844 1675.9757,55.3281 Q1677.3038,53.6719 1679.8038,53.6719 Q1680.5069,53.6719 1681.1475,53.8281 Q1681.8038,53.9844 1682.3663,54.2813 L1682.3663,57 Q1681.7413,56.4219 1681.1475,56.1563 Q1680.5538,55.875 1679.9288,55.875 Q1678.585,55.875 1677.8975,56.9531 Q1677.21,58.0156 1677.21,60.1094 Q1677.21,62.2031 1677.8975,63.2813 Q1678.585,64.3438 1679.9288,64.3438 Q1680.5538,64.3438 1681.1475,64.0781 Q1681.7413,63.7969 1682.3663,63.2188 L1682.3663,65.9375 Z " fill="#000000"/><text fill="#000000" font-family="sans-serif" font-size="14" lengthAdjust="spacing" textLength="74.3271" x="1699.8975" y="65.1436">NAD_C059</text><line style="stroke:#181818;stroke-width:0.5;" x1="1597.17" x2="1844.4522" y1="76.2969" y2="76.2969"/><text fill="#000000" font-family="sans-serif" font-size="14" lengthAdjust="spacing" textLength="96.6123" x="1616.17" y="93.292">Name: Stra&#223;e</text><text fill="#000000" font-family="sans-serif" font-size="14" lengthAdjust="spacing" textLength="66.6436" x="1616.17" y="109.5889">Prozesse:</text><rect fill="none" height="6" style="stroke:#C82930;stroke-width:1;" width="6" x="1604.17" y="119.5391"/><text fill="#000000" font-family="sans-serif" font-size="14" lengthAdjust="spacing" textLength="180.3457" x="1616.17" y="125.8857">Netznutzungsabrechnung</text><rect fill="none" height="6" style="stroke:#C82930;stroke-width:1;" width="6" x="1604.17" y="135.8359"/><text fill="#000000" font-family="sans-serif" font-size="14" lengthAdjust="spacing" textLength="223.2822" x="1616.17" y="142.1826">Messstellenbetriebsabrechnung</text><rect fill="none" height="6" style="stroke:#C82930;stroke-width:1;" width="6" x="1604.17" y="152.1328"/><text fill="#000000" font-family="sans-serif" font-size="14" lengthAdjust="spacing" textLength="158.0127" x="1616.17" y="158.4795">Stammdaten&#228;nderung</text><line style="stroke:#181818;stroke-width:0.5;" x1="1597.17" x2="1844.4522" y1="165.7813" y2="165.7813"/></g><!--class NAD_C059_msg_1--><g class="entity" data-entity="NAD_C059_msg_1" data-source-line="9" data-uid="ent0003" id="entity_NAD_C059_msg_1"><rect fill="#F1F1F1" height="145.7813" rx="2.5" ry="2.5" style="stroke:#181818;stroke-width:0.5;" width="539.6182" x="7" y="250.7869"/><ellipse cx="209.0327" cy="266.7869" fill="#ADD1B2" rx="11" ry="11" style="stroke:#181818;stroke-width:1;"/><path d="M212.0015,272.4275 Q211.4233,272.7244 210.7827,272.865 Q210.1421,273.0213 209.439,273.0213 Q206.939,273.0213 205.6108,271.3806 Q204.2983,269.7244 204.2983,266.5994 Q204.2983,263.4744 205.6108,261.8181 Q206.939,260.1619 209.439,260.1619 Q210.1421,260.1619 210.7827,260.3181 Q211.439,260.4744 212.0015,260.7713 L212.0015,263.49 Q211.3765,262.9119 210.7827,262.6463 Q210.189,262.365 209.564,262.365 Q208.2202,262.365 207.5327,263.4431 Q206.8452,264.5056 206.8452,266.5994 Q206.8452,268.6931 207.5327,269.7713 Q208.2202,270.8338 209.564,270.8338 Q210.189,270.8338 210.7827,270.5681 Q211.3765,270.2869 212.0015,269.7088 L212.0015,272.4275 Z " fill="#000000"/><text fill="#000000" font-family="sans-serif" font-size="14" lengthAdjust="spacing" textLength="127.0527" x="229.5327" y="271.6336">NAD_C059_msg_1</text><line style="stroke:#181818;stroke-width:0.5;" x1="8" x2="545.6182" y1="282.7869" y2="282.7869"/><text fill="#000000" font-family="sans-serif" font-size="14" lengthAdjust="spacing" textLength="161.1982" x="13" y="299.782">Nachricht: INVOIC 2.8d</text><text fill="#000000" font-family="sans-serif" font-size="14" lengthAdjust="spacing" textLength="170.3447" x="13" y="316.0789">Kontext: Segmentlayout</text><text fill="#000000" font-family="sans-serif" font-size="14" lengthAdjust="spacing" textLength="91.4033" x="13" y="332.3757">Pflichtfeld: Ja</text><text fill="#000000" font-family="sans-serif" font-size="14" lengthAdjust="spacing" textLength="527.6182" x="13" y="348.6726">Codes: 17, 293, 332, 35, 99, DE, GS1, ID, ISO, MP, MR, NAD, SG2, Z01, Z02</text><text fill="#000000" font-family="sans-serif" font-size="14" lengthAdjust="spacing" textLength="483.6221" x="13" y="364.9695">Prozesse: Netznutzungsabrechnung, Messstellenbetriebsabrechnung</text><text fill="#000000" font-family="sans-serif" font-size="14" lengthAdjust="spacing" textLength="396.6074" x="13" y="381.2664">Quelle: INVOIC_MIG_2.8d_Fehlerkorrektur_20250131.pdf</text><line style="stroke:#181818;stroke-width:0.5;" x1="8" x2="545.6182" y1="388.5681" y2="388.5681"/></g><!--class NAD_C059_msg_2--><g class="entity" data-entity="NAD_C059_msg_2" data-source-line="18" data-uid="ent0005" id="entity_NAD_C059_msg_2"><rect fill="#F1F1F1" height="145.7813" rx="2.5" ry="2.5" style="stroke:#181818;stroke-width:0.5;" width="579.041" x="581.29" y="250.7869"/><ellipse cx="803.0341" cy="266.7869" fill="#ADD1B2" rx="11" ry="11" style="stroke:#181818;stroke-width:1;"/><path d="M806.0029,272.4275 Q805.4248,272.7244 804.7841,272.865 Q804.1435,273.0213 803.4404,273.0213 Q800.9404,273.0213 799.6123,271.3806 Q798.2998,269.7244 798.2998,266.5994 Q798.2998,263.4744 799.6123,261.8181 Q800.9404,260.1619 803.4404,260.1619 Q804.1435,260.1619 804.7841,260.3181 Q805.4404,260.4744 806.0029,260.7713 L806.0029,263.49 Q805.3779,262.9119 804.7841,262.6463 Q804.1904,262.365 803.5654,262.365 Q802.2216,262.365 801.5341,263.4431 Q800.8466,264.5056 800.8466,266.5994 Q800.8466,268.6931 801.5341,269.7713 Q802.2216,270.8338 803.5654,270.8338 Q804.1904,270.8338 804.7841,270.5681 Q805.3779,270.2869 806.0029,269.7088 L806.0029,272.4275 Z " fill="#000000"/><text fill="#000000" font-family="sans-serif" font-size="14" lengthAdjust="spacing" textLength="127.0527" x="823.5341" y="271.6336">NAD_C059_msg_2</text><line style="stroke:#181818;stroke-width:0.5;" x1="582.29" x2="1159.331" y1="282.7869" y2="282.7869"/><text fill="#000000" font-family="sans-serif" font-size="14" lengthAdjust="spacing" textLength="165.6484" x="587.29" y="299.782">Nachricht: INVOIC 2.8d.</text><text fill="#000000" font-family="sans-serif" font-size="14" lengthAdjust="spacing" textLength="170.3447" x="587.29" y="316.0789">Kontext: Segmentlayout</text><text fill="#000000" font-family="sans-serif" font-size="14" lengthAdjust="spacing" textLength="91.4033" x="587.29" y="332.3757">Pflichtfeld: Ja</text><text fill="#000000" font-family="sans-serif" font-size="14" lengthAdjust="spacing" textLength="567.041" x="587.29" y="348.6726">Codes: 17, 293, 332, 35, 99, DE, GS1, ID, ISO, MP, MR, NAD, OCR, SG2, Z01, Z02</text><text fill="#000000" font-family="sans-serif" font-size="14" lengthAdjust="spacing" textLength="483.6221" x="587.29" y="364.9695">Prozesse: Netznutzungsabrechnung, Messstellenbetriebsabrechnung</text><text fill="#000000" font-family="sans-serif" font-size="14" lengthAdjust="spacing" textLength="290.3359" x="587.29" y="381.2664">Quelle: INVOIC_MIG_2_8d__20240619.pdf</text><line style="stroke:#181818;stroke-width:0.5;" x1="582.29" x2="1159.331" y1="388.5681" y2="388.5681"/></g><!--class NAD_C059_msg_3--><g class="entity" data-entity="NAD_C059_msg_3" data-source-line="27" data-uid="ent0007" id="entity_NAD_C059_msg_3"><rect fill="#F1F1F1" height="145.7813" rx="2.5" ry="2.5" style="stroke:#181818;stroke-width:0.5;" width="426.0664" x="1195.78" y="250.7869"/><ellipse cx="1341.0368" cy="266.7869" fill="#ADD1B2" rx="11" ry="11" style="stroke:#181818;stroke-width:1;"/><path d="M1344.0056,272.4275 Q1343.4275,272.7244 1342.7868,272.865 Q1342.1462,273.0213 1341.4431,273.0213 Q1338.9431,273.0213 1337.615,271.3806 Q1336.3025,269.7244 1336.3025,266.5994 Q1336.3025,263.4744 1337.615,261.8181 Q1338.9431,260.1619 1341.4431,260.1619 Q1342.1462,260.1619 1342.7868,260.3181 Q1343.4431,260.4744 1344.0056,260.7713 L1344.0056,263.49 Q1343.3806,262.9119 1342.7868,262.6463 Q1342.1931,262.365 1341.5681,262.365 Q1340.2243,262.365 1339.5368,263.4431 Q1338.8493,264.5056 1338.8493,266.5994 Q1338.8493,268.6931 1339.5368,269.7713 Q1340.2243,270.8338 1341.5681,270.8338 Q1342.1931,270.8338 1342.7868,270.5681 Q1343.3806,270.2869 1344.0056,269.7088 L1344.0056,272.4275 Z " fill="#000000"/><text fill="#000000" font-family="sans-serif" font-size="14" lengthAdjust="spacing" textLength="127.0527" x="1361.5368" y="271.6336">NAD_C059_msg_3</text><line style="stroke:#181818;stroke-width:0.5;" x1="1196.78" x2="1620.8464" y1="282.7869" y2="282.7869"/><text fill="#000000" font-family="sans-serif" font-size="14" lengthAdjust="spacing" textLength="162.7227" x="1201.78" y="299.782">Nachricht: PARTIN 1.0e</text><text fill="#000000" font-family="sans-serif" font-size="14" lengthAdjust="spacing" textLength="170.3447" x="1201.78" y="316.0789">Kontext: Segmentlayout</text><text fill="#000000" font-family="sans-serif" font-size="14" lengthAdjust="spacing" textLength="91.4033" x="1201.78" y="332.3757">Pflichtfeld: Ja</text><text fill="#000000" font-family="sans-serif" font-size="14" lengthAdjust="spacing" textLength="414.0664" x="1201.78" y="348.6726">Codes: 17, 256, 35, 70, EDI, ISO, NAD, OCR, SG4, Z02, Z21</text><text fill="#000000" font-family="sans-serif" font-size="14" lengthAdjust="spacing" textLength="229.1064" x="1201.78" y="364.9695">Prozesse: Stammdaten&#228;nderung</text><text fill="#000000" font-family="sans-serif" font-size="14" lengthAdjust="spacing" textLength="284.8604" x="1201.78" y="381.2664">Quelle: PARTIN_MIG_1_0e_20241001.pdf</text><line style="stroke:#181818;stroke-width:0.5;" x1="1196.78" x2="1620.8464" y1="388.5681" y2="388.5681"/></g><!--class NAD_C059_proc_1--><g class="entity" data-entity="NAD_C059_proc_1" data-source-line="36" data-uid="ent0009" id="entity_NAD_C059_proc_1"><rect fill="#F1F1F1" height="105.1563" rx="2.5" ry="2.5" style="stroke:#181818;stroke-width:0.5;" width="752.6465" x="1656.49" y="271.0969"/><ellipse cx="1964.4934" cy="291.2297" fill="#ADD1B2" rx="11" ry="11" style="stroke:#181818;stroke-width:1;"/><path d="M1967.4622,296.8703 Q1966.884,297.1672 1966.2434,297.3078 Q1965.6028,297.4641 1964.8997,297.4641 Q1962.3997,297.4641 1961.0715,295.8234 Q1959.759,294.1672 1959.759,291.0422 Q1959.759,287.9172 1961.0715,286.2609 Q1962.3997,284.6047 1964.8997,284.6047 Q1965.6028,284.6047 1966.2434,284.7609 Q1966.8997,284.9172 1967.4622,285.2141 L1967.4622,287.9328 Q1966.8372,287.3547 1966.2434,287.0891 Q1965.6497,286.8078 1965.0247,286.8078 Q1963.6809,286.8078 1962.9934,287.8859 Q1962.3059,288.9484 1962.3059,291.0422 Q1962.3059,293.1359 1962.9934,294.2141 Q1963.6809,295.2766 1965.0247,295.2766 Q1965.6497,295.2766 1966.2434,295.0109 Q1966.8372,294.7297 1967.4622,294.1516 L1967.4622,296.8703 Z " fill="#000000"/><text fill="#000000" font-family="sans-serif" font-size="12" font-style="italic" lengthAdjust="spacing" textLength="61.0605" x="2018.533" y="287.2355">&#171;process&#187;</text><text fill="#000000" font-family="sans-serif" font-size="14" lengthAdjust="spacing" textLength="128.1396" x="1984.9934" y="303.0607">NAD_C059_proc_1</text><line style="stroke:#181818;stroke-width:0.5;" x1="1657.49" x2="2408.1365" y1="311.3625" y2="311.3625"/><text fill="#000000" font-family="sans-serif" font-size="14" lengthAdjust="spacing" textLength="180.3457" x="1662.49" y="328.3576">Netznutzungsabrechnung</text><text fill="#000000" font-family="sans-serif" font-size="14" lengthAdjust="spacing" textLength="218.0938" x="1662.49" y="344.6545">Gesetze: StromNEV, StromNZV</text><text fill="#000000" font-family="sans-serif" font-size="14" lengthAdjust="spacing" textLength="740.6465" x="1662.49" y="360.9514">Zusammenfassung: Wie funktioniert die Netznutzungsabrechnung zwischen Netzbetreiber und Lieferant?</text><line style="stroke:#181818;stroke-width:0.5;" x1="1657.49" x2="2408.1365" y1="368.2531" y2="368.2531"/></g><!--class NAD_C059_proc_2--><g class="entity" data-entity="NAD_C059_proc_2" data-source-line="42" data-uid="ent0011" id="entity_NAD_C059_proc_2"><rect fill="#F1F1F1" height="105.1563" rx="2.5" ry="2.5" style="stroke:#181818;stroke-width:0.5;" width="690.2275" x="2443.7" y="271.0969"/><ellipse cx="2720.4939" cy="291.2297" fill="#ADD1B2" rx="11" ry="11" style="stroke:#181818;stroke-width:1;"/><path d="M2723.4627,296.8703 Q2722.8846,297.1672 2722.2439,297.3078 Q2721.6033,297.4641 2720.9002,297.4641 Q2718.4002,297.4641 2717.0721,295.8234 Q2715.7596,294.1672 2715.7596,291.0422 Q2715.7596,287.9172 2717.0721,286.2609 Q2718.4002,284.6047 2720.9002,284.6047 Q2721.6033,284.6047 2722.2439,284.7609 Q2722.9002,284.9172 2723.4627,285.2141 L2723.4627,287.9328 Q2722.8377,287.3547 2722.2439,287.0891 Q2721.6502,286.8078 2721.0252,286.8078 Q2719.6814,286.8078 2718.9939,287.8859 Q2718.3064,288.9484 2718.3064,291.0422 Q2718.3064,293.1359 2718.9939,294.2141 Q2719.6814,295.2766 2721.0252,295.2766 Q2721.6502,295.2766 2722.2439,295.0109 Q2722.8377,294.7297 2723.4627,294.1516 L2723.4627,296.8703 Z " fill="#000000"/><text fill="#000000" font-family="sans-serif" font-size="12" font-style="italic" lengthAdjust="spacing" textLength="61.0605" x="2774.5335" y="287.2355">&#171;process&#187;</text><text fill="#000000" font-family="sans-serif" font-size="14" lengthAdjust="spacing" textLength="128.1396" x="2740.9939" y="303.0607">NAD_C059_proc_2</text><line style="stroke:#181818;stroke-width:0.5;" x1="2444.7" x2="3132.9275" y1="311.3625" y2="311.3625"/><text fill="#000000" font-family="sans-serif" font-size="14" lengthAdjust="spacing" textLength="223.2822" x="2449.7" y="328.3576">Messstellenbetriebsabrechnung</text><text fill="#000000" font-family="sans-serif" font-size="14" lengthAdjust="spacing" textLength="105.0957" x="2449.7" y="344.6545">Gesetze: MsbG</text><text fill="#000000" font-family="sans-serif" font-size="14" lengthAdjust="spacing" textLength="678.2275" x="2449.7" y="360.9514">Zusammenfassung: Beschreibe den Prozess der Abrechnung von Messstellenbetriebsleistungen.</text><line style="stroke:#181818;stroke-width:0.5;" x1="2444.7" x2="3132.9275" y1="368.2531" y2="368.2531"/></g><!--class NAD_C059_proc_3--><g class="entity" data-entity="NAD_C059_proc_3" data-source-line="48" data-uid="ent0013" id="entity_NAD_C059_proc_3"><rect fill="#F1F1F1" height="88.8594" rx="2.5" ry="2.5" style="stroke:#181818;stroke-width:0.5;" width="638.3496" x="3168.63" y="279.2469"/><ellipse cx="3419.485" cy="299.3797" fill="#ADD1B2" rx="11" ry="11" style="stroke:#181818;stroke-width:1;"/><path d="M3422.4537,305.0203 Q3421.8756,305.3172 3421.235,305.4578 Q3420.5944,305.6141 3419.8912,305.6141 Q3417.3912,305.6141 3416.0631,303.9734 Q3414.7506,302.3172 3414.7506,299.1922 Q3414.7506,296.0672 3416.0631,294.4109 Q3417.3912,292.7547 3419.8912,292.7547 Q3420.5944,292.7547 3421.235,292.9109 Q3421.8912,293.0672 3422.4537,293.3641 L3422.4537,296.0828 Q3421.8287,295.5047 3421.235,295.2391 Q3420.6412,294.9578 3420.0162,294.9578 Q3418.6725,294.9578 3417.985,296.0359 Q3417.2975,297.0984 3417.2975,299.1922 Q3417.2975,301.2859 3417.985,302.3641 Q3418.6725,303.4266 3420.0162,303.4266 Q3420.6412,303.4266 3421.235,303.1609 Q3421.8287,302.8797 3422.4537,302.3016 L3422.4537,305.0203 Z " fill="#000000"/><text fill="#000000" font-family="sans-serif" font-size="12" font-style="italic" lengthAdjust="spacing" textLength="61.0605" x="3473.5245" y="295.3855">&#171;process&#187;</text><text fill="#000000" font-family="sans-serif" font-size="14" lengthAdjust="spacing" textLength="128.1396" x="3439.985" y="311.2107">NAD_C059_proc_3</text><line style="stroke:#181818;stroke-width:0.5;" x1="3169.63" x2="3805.9796" y1="319.5125" y2="319.5125"/><text fill="#000000" font-family="sans-serif" font-size="14" lengthAdjust="spacing" textLength="158.0127" x="3174.63" y="336.5076">Stammdaten&#228;nderung</text><text fill="#000000" font-family="sans-serif" font-size="14" lengthAdjust="spacing" textLength="626.3496" x="3174.63" y="352.8045">Zusammenfassung: Wie wird eine Stammdaten&#228;nderung an einer Marktlokation, wie z.B.</text><line style="stroke:#181818;stroke-width:0.5;" x1="3169.63" x2="3805.9796" y1="360.1063" y2="360.1063"/></g><!--link NAD_C059 to NAD_C059_msg_1--><g class="link" data-entity-1="NAD_C059" data-entity-2="NAD_C059_msg_1" data-source-line="17" data-uid="lnk4" id="link_NAD_C059_NAD_C059_msg_1"><path codeLine="17" d="M1595.9,120.1069 C1382.92,138.4069 936.36,181.7469 563.81,250.7869 C558.25,251.8169 558.5375,251.7302 552.8875,252.8402" fill="none" id="NAD_C059-to-NAD_C059_msg_1" style="stroke:#181818;stroke-width:1;"/><polygon fill="#181818" points="547,253.9969,556.6023,256.1869,551.9062,253.033,555.0601,248.3369,547,253.9969" style="stroke:#181818;stroke-width:1;"/><text fill="#000000" font-family="sans-serif" font-size="13" lengthAdjust="spacing" textLength="85.2363" x="848.81" y="216.8538">verwendet in</text></g><!--link NAD_C059 to NAD_C059_msg_2--><g class="link" data-entity-1="NAD_C059" data-entity-2="NAD_C059_msg_2" data-source-line="26" data-uid="lnk6" id="link_NAD_C059_NAD_C059_msg_2"><path codeLine="26" d="M1595.85,141.3069 C1481.63,169.8769 1314.2407,211.751 1165.7507,248.891" fill="none" id="NAD_C059-to-NAD_C059_msg_2" style="stroke:#181818;stroke-width:1;"/><polygon fill="#181818" points="1159.93,250.3469,1169.6316,252.0435,1164.7806,249.1337,1167.6905,244.2826,1159.93,250.3469" style="stroke:#181818;stroke-width:1;"/><text fill="#000000" font-family="sans-serif" font-size="13" lengthAdjust="spacing" textLength="85.2363" x="1322.81" y="216.8538">verwendet in</text></g><!--link NAD_C059 to NAD_C059_msg_3--><g class="link" data-entity-1="NAD_C059" data-entity-2="NAD_C059_msg_3" data-source-line="35" data-uid="lnk8" id="link_NAD_C059_NAD_C059_msg_3"><path codeLine="35" d="M1626.78,174.1269 C1591.52,198.1569 1556.1778,222.2374 1519.8978,246.9674" fill="none" id="NAD_C059-to-NAD_C059_msg_3" style="stroke:#181818;stroke-width:1;"/><polygon fill="#181818" points="1514.94,250.3469,1524.6296,248.5829,1519.0715,247.5307,1520.1237,241.9726,1514.94,250.3469" style="stroke:#181818;stroke-width:1;"/><text fill="#000000" font-family="sans-serif" font-size="13" lengthAdjust="spacing" textLength="85.2363" x="1575.81" y="216.8538">verwendet in</text></g><!--link NAD_C059 to NAD_C059_proc_1--><g class="link" data-entity-1="NAD_C059" data-entity-2="NAD_C059_proc_1" data-source-line="41" data-uid="lnk10" id="link_NAD_C059_NAD_C059_proc_1"><path codeLine="41" d="M1814.84,174.1269 C1860.15,205.0069 1908.8219,238.178 1951.5519,267.298" fill="none" id="NAD_C059-to-NAD_C059_proc_1" style="stroke:#181818;stroke-width:1;stroke-dasharray:7,7;"/><polygon fill="#181818" points="1956.51,270.6769,1951.3254,262.3031,1952.3782,267.8611,1946.8202,268.9139,1956.51,270.6769" style="stroke:#181818;stroke-width:1;"/><text fill="#000000" font-family="sans-serif" font-size="13" lengthAdjust="spacing" textLength="91.6221" x="1877.81" y="216.8538">eingebettet in</text></g><!--link NAD_C059 to NAD_C059_proc_2--><g class="link" data-entity-1="NAD_C059" data-entity-2="NAD_C059_proc_2" data-source-line="47" data-uid="lnk12" id="link_NAD_C059_NAD_C059_proc_2"><path codeLine="47" d="M1845.94,134.9569 C2012.36,168.0869 2304.7955,226.3155 2521.4155,269.4355" fill="none" id="NAD_C059-to-NAD_C059_proc_2" style="stroke:#181818;stroke-width:1;stroke-dasharray:7,7;"/><polygon fill="#181818" points="2527.3,270.6069,2519.2541,264.9268,2522.3962,269.6307,2517.6923,272.7729,2527.3,270.6069" style="stroke:#181818;stroke-width:1;"/><text fill="#000000" font-family="sans-serif" font-size="13" lengthAdjust="spacing" textLength="91.6221" x="2255.81" y="216.8538">eingebettet in</text></g><!--link NAD_C059 to NAD_C059_proc_3--><g class="link" data-entity-1="NAD_C059" data-entity-2="NAD_C059_proc_3" data-source-line="52" data-uid="lnk14" id="link_NAD_C059_NAD_C059_proc_3"><path codeLine="52" d="M1845.82,117.5769 C2095.26,133.6669 2672.04,176.1069 3151.81,250.7869 C3200.44,258.3569 3246.7512,267.2589 3295.1412,277.5489" fill="none" id="NAD_C059-to-NAD_C059_proc_3" style="stroke:#181818;stroke-width:1;stroke-dasharray:7,7;"/><polygon fill="#181818" points="3301.01,278.7969,3293.0388,273.0124,3296.1194,277.7569,3291.3748,280.8374,3301.01,278.7969" style="stroke:#181818;stroke-width:1;"/><text fill="#000000" font-family="sans-serif" font-size="13" lengthAdjust="spacing" textLength="91.6221" x="2920.81" y="216.8538">eingebettet in</text></g><!--SRC=[lPJTRjem5CVl-nJd0KoKZzAEg6AYm13R-1YPcCHD5CW9M0IdiftICUrPThCtwOlj65ZB83JLBdeHwzZdEFx_Vpw9vZf5Q4KQHQJJI445-esMtxIhjOiPpPMPXcOAFou0-j4AVGYqZ1v_8Ss7CjkWKkXJ36Olwet8zIONSnLD9SuMWi9ziaULIcEQefYYbXodfpM1ZbQhsCXv_2rYb2RpyqX9k5BpqDdhcIqadosq3zt-UD1jWckzYodnAHCQ7sWvmFaA1LdxdkNQA4vIKvzW6llmCQALPXQZyi6vPk3MF0QUvz9GPL2hCMYr6NG2Xq6tHKymOD0RqZDYHWs3e4Er4zinWtl8umm9LWhXIsvoV-s4lMudD9R23xX8KIupAN6fSncwjbkr7S-nxkA423tTKgLIFmRbmptADH9E3LmKmNHVW6cz7Sr1S_HMI4D2QXXUsbTEhPIX-mg6tZ73OMFqjTi7nxBn_n5MhtRqhcq6xLPtJ-sGrkKM50skym-jeY_fcSLEt9Q54zguHU7OTdaxUIKexcGsevwxkJ41AQdNTrpE_HWwg2Yr-wbagtvxpFRHP4pPIQx81Og4pg1w7xvnX2GNIyqpmL5gY6cX-EMmMNCrMw3Ovard89-YX5p4y9bZWZ8I-lsXMSkgdnZn0RcO8stNv_sw9txBUlB9TazDEqL6Rv6qRnL3J1RszqgnXCQpnVjC51sL8bUQyYYib_svh_FddVWhxgx2wrfp6Pj3i6WJH6ARaz2Bv5AdsJ8oLyje5yB6kYtHxvte_mC0]--></g></svg>