<svg xmlns="http://www.w3.org/2000/svg" xmlns:xlink="http://www.w3.org/1999/xlink" contentStyleType="text/css" data-diagram-type="CLASS" height="387px" preserveAspectRatio="none" style="width:3465px;height:387px;background:#FFFFFF;" version="1.1" viewBox="0 0 3465 387" width="3465px" zoomAndPan="magnify"><title>Datenatlas - NAD:00017</title><defs/><g><g class="title" data-source-line="1"><text fill="#000000" font-family="sans-serif" font-size="14" font-weight="bold" lengthAdjust="spacing" textLength="189.9775" x="1630.5509" y="22.9951">Datenatlas - NAD:00017</text></g><!--class NAD_00017--><g class="entity" data-entity="NAD_00017" data-source-line="2" data-uid="ent0002" id="entity_NAD_00017"><rect fill="#F1F1F1" height="113.1875" rx="2.5" ry="2.5" style="stroke:#181818;stroke-width:0.5;" width="374.2021" x="1279.98" y="44.2969"/><ellipse cx="1421.648" cy="60.2969" fill="#ADD1B2" rx="11" ry="11" style="stroke:#181818;stroke-width:1;"/><path d="M1424.6167,65.9375 Q1424.0386,66.2344 1423.398,66.375 Q1422.7573,66.5313 1422.0542,66.5313 Q1419.5542,66.5313 1418.2261,64.8906 Q1416.9136,63.2344 1416.9136,60.1094 Q1416.9136,56.9844 1418.2261,55.3281 Q1419.5542,53.6719 1422.0542,53.6719 Q1422.7573,53.6719 1423.398,53.8281 Q1424.0542,53.9844 1424.6167,54.2813 L1424.6167,57 Q1423.9917,56.4219 1423.398,56.1563 Q1422.8042,55.875 1422.1792,55.875 Q1420.8355,55.875 1420.148,56.9531 Q1419.4605,58.0156 1419.4605,60.1094 Q1419.4605,62.2031 1420.148,63.2813 Q1420.8355,64.3438 1422.1792,64.3438 Q1422.8042,64.3438 1423.398,64.0781 Q1423.9917,63.7969 1424.6167,63.2188 L1424.6167,65.9375 Z " fill="#000000"/><text fill="#000000" font-family="sans-serif" font-size="14" lengthAdjust="spacing" textLength="82.3662" x="1442.148" y="65.1436">NAD_00017</text><line style="stroke:#181818;stroke-width:0.5;" x1="1280.98" x2="1653.1821" y1="76.2969" y2="76.2969"/><text fill="#000000" font-family="sans-serif" font-size="14" lengthAdjust="spacing" textLength="146.8359" x="1299.98" y="93.292">Name: ID Empf&#228;nger</text><text fill="#000000" font-family="sans-serif" font-size="14" lengthAdjust="spacing" textLength="66.6436" x="1299.98" y="109.5889">Prozesse:</text><rect fill="none" height="6" style="stroke:#C82930;stroke-width:1;" width="6" x="1287.98" y="119.5391"/><text fill="#000000" font-family="sans-serif" font-size="14" lengthAdjust="spacing" textLength="317.9668" x="1299.98" y="125.8857">Sperrung und Entsperrung eines Anschlusses</text><line style="stroke:#181818;stroke-width:0.5;" x1="1280.98" x2="1653.1821" y1="133.1875" y2="133.1875"/><rect fill="#F24D5C" height="6" style="stroke:#C82930;stroke-width:1;" width="6" x="1287.98" y="143.8359"/><text fill="#000000" font-family="sans-serif" font-size="14" lengthAdjust="spacing" textLength="348.2021" x="1299.98" y="150.1826">Bestellung einer technischen Konfiguration (MSB)</text></g><!--class NAD_00017_msg_1--><g class="entity" data-entity="NAD_00017_msg_1" data-source-line="8" data-uid="ent0003" id="entity_NAD_00017_msg_1"><rect fill="#F1F1F1" height="145.7813" rx="2.5" ry="2.5" style="stroke:#181818;stroke-width:0.5;" width="758.1631" x="7" y="234.4869"/><ellipse cx="314.2856" cy="250.4869" fill="#ADD1B2" rx="11" ry="11" style="stroke:#181818;stroke-width:1;"/><path d="M317.2544,256.1275 Q316.6763,256.4244 316.0356,256.565 Q315.395,256.7213 314.6919,256.7213 Q312.1919,256.7213 310.8638,255.0806 Q309.5513,253.4244 309.5513,250.2994 Q309.5513,247.1744 310.8638,245.5181 Q312.1919,243.8619 314.6919,243.8619 Q315.395,243.8619 316.0356,244.0181 Q316.6919,244.1744 317.2544,244.4713 L317.2544,247.19 Q316.6294,246.6119 316.0356,246.3463 Q315.4419,246.065 314.8169,246.065 Q313.4731,246.065 312.7856,247.1431 Q312.0981,248.2056 312.0981,250.2994 Q312.0981,252.3931 312.7856,253.4713 Q313.4731,254.5338 314.8169,254.5338 Q315.4419,254.5338 316.0356,254.2681 Q316.6294,253.9869 317.2544,253.4088 L317.2544,256.1275 Z " fill="#000000"/><text fill="#000000" font-family="sans-serif" font-size="14" lengthAdjust="spacing" textLength="135.0918" x="334.7856" y="255.3336">NAD_00017_msg_1</text><line style="stroke:#181818;stroke-width:0.5;" x1="8" x2="764.1631" y1="266.4869" y2="266.4869"/><text fill="#000000" font-family="sans-serif" font-size="14" lengthAdjust="spacing" textLength="170.3584" x="13" y="283.482">Nachricht: QUOTES 1.3a</text><text fill="#000000" font-family="sans-serif" font-size="14" lengthAdjust="spacing" textLength="204.1143" x="13" y="299.7789">Kontext: Nachrichtenstruktur</text><text fill="#000000" font-family="sans-serif" font-size="14" lengthAdjust="spacing" textLength="91.4033" x="13" y="316.0757">Pflichtfeld: Ja</text><text fill="#000000" font-family="sans-serif" font-size="14" lengthAdjust="spacing" textLength="163.0781" x="13" y="332.3726">Codes: 99, ID, MP, NAD</text><text fill="#000000" font-family="sans-serif" font-size="14" lengthAdjust="spacing" textLength="408.3174" x="13" y="348.6695">Quelle: QUOTES_MIG_1_3a_Fehlerkorrektur_20241213.pdf</text><line style="stroke:#181818;stroke-width:0.5;" x1="8" x2="764.1631" y1="355.9713" y2="355.9713"/><text fill="#000000" font-family="sans-serif" font-size="14" lengthAdjust="spacing" textLength="746.1631" x="13" y="372.9664">Prozesse: Bestellung einer technischen Konfiguration (MSB), Sperrung und Entsperrung eines Anschlusses</text></g><!--class NAD_00017_msg_2--><g class="entity" data-entity="NAD_00017_msg_2" data-source-line="17" data-uid="ent0005" id="entity_NAD_00017_msg_2"><rect fill="#F1F1F1" height="145.7813" rx="2.5" ry="2.5" style="stroke:#181818;stroke-width:0.5;" width="431.2959" x="800.43" y="234.4869"/><ellipse cx="944.2821" cy="250.4869" fill="#ADD1B2" rx="11" ry="11" style="stroke:#181818;stroke-width:1;"/><path d="M947.2508,256.1275 Q946.6727,256.4244 946.0321,256.565 Q945.3914,256.7213 944.6883,256.7213 Q942.1883,256.7213 940.8602,255.0806 Q939.5477,253.4244 939.5477,250.2994 Q939.5477,247.1744 940.8602,245.5181 Q942.1883,243.8619 944.6883,243.8619 Q945.3914,243.8619 946.0321,244.0181 Q946.6883,244.1744 947.2508,244.4713 L947.2508,247.19 Q946.6258,246.6119 946.0321,246.3463 Q945.4383,246.065 944.8133,246.065 Q943.4696,246.065 942.7821,247.1431 Q942.0946,248.2056 942.0946,250.2994 Q942.0946,252.3931 942.7821,253.4713 Q943.4696,254.5338 944.8133,254.5338 Q945.4383,254.5338 946.0321,254.2681 Q946.6258,253.9869 947.2508,253.4088 L947.2508,256.1275 Z " fill="#000000"/><text fill="#000000" font-family="sans-serif" font-size="14" lengthAdjust="spacing" textLength="135.0918" x="964.7821" y="255.3336">NAD_00017_msg_2</text><line style="stroke:#181818;stroke-width:0.5;" x1="801.43" x2="1230.7259" y1="266.4869" y2="266.4869"/><text fill="#000000" font-family="sans-serif" font-size="14" lengthAdjust="spacing" textLength="170.1055" x="806.43" y="283.482">Nachricht: REQOTE 1.3b</text><text fill="#000000" font-family="sans-serif" font-size="14" lengthAdjust="spacing" textLength="204.1143" x="806.43" y="299.7789">Kontext: Nachrichtenstruktur</text><text fill="#000000" font-family="sans-serif" font-size="14" lengthAdjust="spacing" textLength="91.4033" x="806.43" y="316.0757">Pflichtfeld: Ja</text><text fill="#000000" font-family="sans-serif" font-size="14" lengthAdjust="spacing" textLength="163.0781" x="806.43" y="332.3726">Codes: 99, ID, MP, NAD</text><text fill="#000000" font-family="sans-serif" font-size="14" lengthAdjust="spacing" textLength="292.2432" x="806.43" y="348.6695">Quelle: REQOTE_MIG_1_3b_20241001.pdf</text><line style="stroke:#181818;stroke-width:0.5;" x1="801.43" x2="1230.7259" y1="355.9713" y2="355.9713"/><text fill="#000000" font-family="sans-serif" font-size="14" lengthAdjust="spacing" textLength="419.2959" x="806.43" y="372.9664">Prozesse: Bestellung einer technischen Konfiguration (MSB)</text></g><!--class NAD_00017_proc_1--><g class="entity" data-entity="NAD_00017_proc_1" data-source-line="26" data-uid="ent0007" id="entity_NAD_00017_proc_1"><rect fill="#F1F1F1" height="105.1563" rx="2.5" ry="2.5" style="stroke:#181818;stroke-width:0.5;" width="1301.9961" x="1267.08" y="254.7969"/><ellipse cx="1845.7387" cy="274.9297" fill="#ADD1B2" rx="11" ry="11" style="stroke:#181818;stroke-width:1;"/><path d="M1848.7074,280.5703 Q1848.1293,280.8672 1847.4887,281.0078 Q1846.8481,281.1641 1846.1449,281.1641 Q1843.6449,281.1641 1842.3168,279.5234 Q1841.0043,277.8672 1841.0043,274.7422 Q1841.0043,271.6172 1842.3168,269.9609 Q1843.6449,268.3047 1846.1449,268.3047 Q1846.8481,268.3047 1847.4887,268.4609 Q1848.1449,268.6172 1848.7074,268.9141 L1848.7074,271.6328 Q1848.0824,271.0547 1847.4887,270.7891 Q1846.8949,270.5078 1846.2699,270.5078 Q1844.9262,270.5078 1844.2387,271.5859 Q1843.5512,272.6484 1843.5512,274.7422 Q1843.5512,276.8359 1844.2387,277.9141 Q1844.9262,278.9766 1846.2699,278.9766 Q1846.8949,278.9766 1847.4887,278.7109 Q1848.0824,278.4297 1848.7074,277.8516 L1848.7074,280.5703 Z " fill="#000000"/><text fill="#000000" font-family="sans-serif" font-size="12" font-style="italic" lengthAdjust="spacing" textLength="61.0605" x="1903.7978" y="270.9355">&#171;process&#187;</text><text fill="#000000" font-family="sans-serif" font-size="14" lengthAdjust="spacing" textLength="136.1787" x="1866.2387" y="286.7607">NAD_00017_proc_1</text><line style="stroke:#181818;stroke-width:0.5;" x1="1268.08" x2="2568.0761" y1="295.0625" y2="295.0625"/><text fill="#000000" font-family="sans-serif" font-size="14" lengthAdjust="spacing" textLength="156.4063" x="1273.08" y="312.0576">Gesetze: MsbG, EnWG</text><text fill="#000000" font-family="sans-serif" font-size="14" lengthAdjust="spacing" textLength="1289.9961" x="1273.08" y="328.3545">Zusammenfassung: Erl&#228;utere den Prozess zur Bestellung einer spezifischen technischen Konfiguration bei einem Messstellenbetreiber, beispielsweise f&#252;r ein intelligentes Messsystem.</text><line style="stroke:#181818;stroke-width:0.5;" x1="1268.08" x2="2568.0761" y1="335.6563" y2="335.6563"/><text fill="#000000" font-family="sans-serif" font-size="14" lengthAdjust="spacing" textLength="348.2021" x="1273.08" y="352.6514">Bestellung einer technischen Konfiguration (MSB)</text></g><!--class NAD_00017_proc_2--><g class="entity" data-entity="NAD_00017_proc_2" data-source-line="32" data-uid="ent0009" id="entity_NAD_00017_proc_2"><rect fill="#F1F1F1" height="105.1563" rx="2.5" ry="2.5" style="stroke:#181818;stroke-width:0.5;" width="853.9893" x="2604.09" y="254.7969"/><ellipse cx="2958.7453" cy="274.9297" fill="#ADD1B2" rx="11" ry="11" style="stroke:#181818;stroke-width:1;"/><path d="M2961.714,280.5703 Q2961.1359,280.8672 2960.4953,281.0078 Q2959.8546,281.1641 2959.1515,281.1641 Q2956.6515,281.1641 2955.3234,279.5234 Q2954.0109,277.8672 2954.0109,274.7422 Q2954.0109,271.6172 2955.3234,269.9609 Q2956.6515,268.3047 2959.1515,268.3047 Q2959.8546,268.3047 2960.4953,268.4609 Q2961.1515,268.6172 2961.714,268.9141 L2961.714,271.6328 Q2961.089,271.0547 2960.4953,270.7891 Q2959.9015,270.5078 2959.2765,270.5078 Q2957.9328,270.5078 2957.2453,271.5859 Q2956.5578,272.6484 2956.5578,274.7422 Q2956.5578,276.8359 2957.2453,277.9141 Q2957.9328,278.9766 2959.2765,278.9766 Q2959.9015,278.9766 2960.4953,278.7109 Q2961.089,278.4297 2961.714,277.8516 L2961.714,280.5703 Z " fill="#000000"/><text fill="#000000" font-family="sans-serif" font-size="12" font-style="italic" lengthAdjust="spacing" textLength="61.0605" x="3016.8044" y="270.9355">&#171;process&#187;</text><text fill="#000000" font-family="sans-serif" font-size="14" lengthAdjust="spacing" textLength="136.1787" x="2979.2453" y="286.7607">NAD_00017_proc_2</text><line style="stroke:#181818;stroke-width:0.5;" x1="2605.09" x2="3457.0793" y1="295.0625" y2="295.0625"/><text fill="#000000" font-family="sans-serif" font-size="14" lengthAdjust="spacing" textLength="317.9668" x="2610.09" y="312.0576">Sperrung und Entsperrung eines Anschlusses</text><text fill="#000000" font-family="sans-serif" font-size="14" lengthAdjust="spacing" textLength="138.3252" x="2610.09" y="328.3545">Gesetze: StromGVV</text><text fill="#000000" font-family="sans-serif" font-size="14" lengthAdjust="spacing" textLength="841.9893" x="2610.09" y="344.6514">Zusammenfassung: Beschreibe den End-to-End-Prozess f&#252;r die Sperrung und Wiederherstellung eines Netzanschlusses.</text><line style="stroke:#181818;stroke-width:0.5;" x1="2605.09" x2="3457.0793" y1="351.9531" y2="351.9531"/></g><!--link NAD_00017 to NAD_00017_msg_1--><g class="link" data-entity-1="NAD_00017" data-entity-2="NAD_00017_msg_1" data-source-line="16" data-uid="lnk4" id="link_NAD_00017_NAD_00017_msg_1"><path codeLine="16" d="M1279.71,137.3369 C1138.35,164.0769 945.5654,200.5416 771.4354,233.4816" fill="none" id="NAD_00017-to-NAD_00017_msg_1" style="stroke:#181818;stroke-width:1;"/><polygon fill="#181818" points="765.54,234.5969,775.1267,236.8543,770.4529,233.6675,773.6397,228.9937,765.54,234.5969" style="stroke:#181818;stroke-width:1;"/><text fill="#000000" font-family="sans-serif" font-size="13" lengthAdjust="spacing" textLength="85.2363" x="993.08" y="200.5538">verwendet in</text></g><!--link NAD_00017 to NAD_00017_msg_2--><g class="link" data-entity-1="NAD_00017" data-entity-2="NAD_00017_msg_2" data-source-line="25" data-uid="lnk6" id="link_NAD_00017_NAD_00017_msg_2"><path codeLine="25" d="M1343.55,157.9069 C1291.65,181.4369 1236.0944,206.619 1180.8744,231.659" fill="none" id="NAD_00017-to-NAD_00017_msg_2" style="stroke:#181818;stroke-width:1;"/><polygon fill="#181818" points="1175.41,234.1369,1185.2586,234.063,1179.9637,232.072,1181.9547,226.7771,1175.41,234.1369" style="stroke:#181818;stroke-width:1;"/><text fill="#000000" font-family="sans-serif" font-size="13" lengthAdjust="spacing" textLength="85.2363" x="1270.08" y="200.5538">verwendet in</text></g><!--link NAD_00017 to NAD_00017_proc_1--><g class="link" data-entity-1="NAD_00017" data-entity-2="NAD_00017_proc_1" data-source-line="31" data-uid="lnk8" id="link_NAD_00017_NAD_00017_proc_1"><path codeLine="31" d="M1590.62,157.9069 C1656.99,187.9969 1732.8257,222.3787 1797.8057,251.8487" fill="none" id="NAD_00017-to-NAD_00017_proc_1" style="stroke:#181818;stroke-width:1;stroke-dasharray:7,7;"/><polygon fill="#181818" points="1803.27,254.3269,1796.7257,246.9667,1798.7164,252.2617,1793.4214,254.2525,1803.27,254.3269" style="stroke:#181818;stroke-width:1;"/><text fill="#000000" font-family="sans-serif" font-size="13" lengthAdjust="spacing" textLength="91.6221" x="1694.08" y="200.5538">eingebettet in</text></g><!--link NAD_00017 to NAD_00017_proc_2--><g class="link" data-entity-1="NAD_00017" data-entity-2="NAD_00017_proc_2" data-source-line="37" data-uid="lnk10" id="link_NAD_00017_NAD_00017_proc_2"><path codeLine="37" d="M1654.49,121.6569 C1877,145.6769 2259.14,188.7269 2586.08,234.4869 C2629.29,240.5369 2668.8515,246.4333 2713.5915,253.4033" fill="none" id="NAD_00017-to-NAD_00017_proc_2" style="stroke:#181818;stroke-width:1;stroke-dasharray:7,7;"/><polygon fill="#181818" points="2719.52,254.3269,2711.243,248.9892,2714.5796,253.5572,2710.0115,256.8938,2719.52,254.3269" style="stroke:#181818;stroke-width:1;"/><text fill="#000000" font-family="sans-serif" font-size="13" lengthAdjust="spacing" textLength="91.6221" x="2343.08" y="200.5538">eingebettet in</text></g><!--SRC=[pPFTRjD048NlynHp2P9ZnGuIgbL5Qec92affI7yaRYp_ZErLr-jeTaqX5M_Jn-0kByQiaxHDNIZXYYllpkwSEUUpROIH2EFOe8gDZ3NquVHe70m60-zjB-M2jlketSDj3-0qhZ20ap64rI9VtQa2YQjdL2zHQmnu3QnnZDgWb8qg08L20eDfgOHEIrJmiLQvA1gAZQWLl9hEZrzlskOB9B9DZSeWL4PlzrP4mv5Y0Tdm7DtxyTHTLEaYyZOUqv94Mfe0PXUVpiCvUEumvWEURF0Rb-zleDA6cclJj2boQMivoYo03xRXNPsX3k3WmE783apF73lmSU2zephxf0IODIoEso3Hz6GIUT4mZjvZAP6kQoAqxYD_uB_nV6_eBhASuJoyj7v_r84Km5Ua6rGP6X3gMPB-KvAVmnaxi2IJ_uJa8pfhSriwoPe6P_aB6lvBD1PKfypiyD0ksEberABv1xSJr6YMR7Ugaud3h_vgmjKlZOwh2bNEOrajW93awgunI0WPQsq0mRAXxb3-TfOYtqpzlOC4HTjGmPIbMWrK2Hf2aI0vzbml14fzmmk4VFMJx7t6OQ-A0lcfrxtVkRjoTw2wxgZBAx021V8GymUkVeVhNd_7FT6veRgQN5u-nvEXyJTgaxOyGvNrJTstZotQDcycS7VubS0CgKJQOSuHU6JyOED55dw7nIy0]--></g></svg>