<svg xmlns="http://www.w3.org/2000/svg" xmlns:xlink="http://www.w3.org/1999/xlink" contentStyleType="text/css" data-diagram-type="CLASS" height="419px" preserveAspectRatio="none" style="width:4213px;height:419px;background:#FFFFFF;" version="1.1" viewBox="0 0 4213 419" width="4213px" zoomAndPan="magnify"><title>Datenatlas - NAD:3045</title><defs/><g><g class="title" data-source-line="1"><text fill="#000000" font-family="sans-serif" font-size="14" font-weight="bold" lengthAdjust="spacing" textLength="180.2363" x="2009.5016" y="22.9951">Datenatlas - NAD:3045</text></g><!--class NAD_3045--><g class="entity" data-entity="NAD_3045" data-source-line="2" data-uid="ent0002" id="entity_NAD_3045"><rect fill="#F1F1F1" height="145.7813" rx="2.5" ry="2.5" style="stroke:#181818;stroke-width:0.5;" width="265.251" x="1675.44" y="44.2969"/><ellipse cx="1767.086" cy="60.2969" fill="#ADD1B2" rx="11" ry="11" style="stroke:#181818;stroke-width:1;"/><path d="M1770.0547,65.9375 Q1769.4766,66.2344 1768.836,66.375 Q1768.1954,66.5313 1767.4922,66.5313 Q1764.9922,66.5313 1763.6641,64.8906 Q1762.3516,63.2344 1762.3516,60.1094 Q1762.3516,56.9844 1763.6641,55.3281 Q1764.9922,53.6719 1767.4922,53.6719 Q1768.1954,53.6719 1768.836,53.8281 Q1769.4922,53.9844 1770.0547,54.2813 L1770.0547,57 Q1769.4297,56.4219 1768.836,56.1563 Q1768.2422,55.875 1767.6172,55.875 Q1766.2735,55.875 1765.586,56.9531 Q1764.8985,58.0156 1764.8985,60.1094 Q1764.8985,62.2031 1765.586,63.2813 Q1766.2735,64.3438 1767.6172,64.3438 Q1768.2422,64.3438 1768.836,64.0781 Q1769.4297,63.7969 1770.0547,63.2188 L1770.0547,65.9375 Z " fill="#000000"/><text fill="#000000" font-family="sans-serif" font-size="14" lengthAdjust="spacing" textLength="73.459" x="1787.586" y="65.1436">NAD_3045</text><line style="stroke:#181818;stroke-width:0.5;" x1="1676.44" x2="1939.691" y1="76.2969" y2="76.2969"/><text fill="#000000" font-family="sans-serif" font-size="14" lengthAdjust="spacing" textLength="239.251" x="1695.44" y="93.292">Name: Format f&#252;r den Namen des</text><text fill="#000000" font-family="sans-serif" font-size="14" lengthAdjust="spacing" textLength="120.5928" x="1695.44" y="109.5889">Beteiligten, Code</text><text fill="#000000" font-family="sans-serif" font-size="14" lengthAdjust="spacing" textLength="66.6436" x="1695.44" y="125.8857">Prozesse:</text><rect fill="none" height="6" style="stroke:#C82930;stroke-width:1;" width="6" x="1683.44" y="135.8359"/><text fill="#000000" font-family="sans-serif" font-size="14" lengthAdjust="spacing" textLength="180.3457" x="1695.44" y="142.1826">Netznutzungsabrechnung</text><rect fill="none" height="6" style="stroke:#C82930;stroke-width:1;" width="6" x="1683.44" y="152.1328"/><text fill="#000000" font-family="sans-serif" font-size="14" lengthAdjust="spacing" textLength="223.2822" x="1695.44" y="158.4795">Messstellenbetriebsabrechnung</text><rect fill="none" height="6" style="stroke:#C82930;stroke-width:1;" width="6" x="1683.44" y="168.4297"/><text fill="#000000" font-family="sans-serif" font-size="14" lengthAdjust="spacing" textLength="158.0127" x="1695.44" y="174.7764">Stammdaten&#228;nderung</text><line style="stroke:#181818;stroke-width:0.5;" x1="1676.44" x2="1939.691" y1="182.0781" y2="182.0781"/></g><!--class NAD_3045_msg_1--><g class="entity" data-entity="NAD_3045_msg_1" data-source-line="10" data-uid="ent0003" id="entity_NAD_3045_msg_1"><rect fill="#F1F1F1" height="145.7813" rx="2.5" ry="2.5" style="stroke:#181818;stroke-width:0.5;" width="296.1357" x="7" y="267.0769"/><ellipse cx="87.7256" cy="283.0769" fill="#ADD1B2" rx="11" ry="11" style="stroke:#181818;stroke-width:1;"/><path d="M90.6943,288.7175 Q90.1162,289.0144 89.4756,289.155 Q88.835,289.3113 88.1318,289.3113 Q85.6318,289.3113 84.3037,287.6706 Q82.9912,286.0144 82.9912,282.8894 Q82.9912,279.7644 84.3037,278.1081 Q85.6318,276.4519 88.1318,276.4519 Q88.835,276.4519 89.4756,276.6081 Q90.1318,276.7644 90.6943,277.0613 L90.6943,279.78 Q90.0693,279.2019 89.4756,278.9363 Q88.8818,278.655 88.2568,278.655 Q86.9131,278.655 86.2256,279.7331 Q85.5381,280.7956 85.5381,282.8894 Q85.5381,284.9831 86.2256,286.0613 Q86.9131,287.1238 88.2568,287.1238 Q88.8818,287.1238 89.4756,286.8581 Q90.0693,286.5769 90.6943,285.9988 L90.6943,288.7175 Z " fill="#000000"/><text fill="#000000" font-family="sans-serif" font-size="14" lengthAdjust="spacing" textLength="126.1846" x="108.2256" y="287.9236">NAD_3045_msg_1</text><line style="stroke:#181818;stroke-width:0.5;" x1="8" x2="302.1357" y1="299.0769" y2="299.0769"/><text fill="#000000" font-family="sans-serif" font-size="14" lengthAdjust="spacing" textLength="161.998" x="13" y="316.072">Nachricht: INSRPT 1.1a</text><text fill="#000000" font-family="sans-serif" font-size="14" lengthAdjust="spacing" textLength="123.0605" x="13" y="332.3689">Kontext: Beispiel:</text><text fill="#000000" font-family="sans-serif" font-size="14" lengthAdjust="spacing" textLength="91.4033" x="13" y="348.6657">Pflichtfeld: Ja</text><text fill="#000000" font-family="sans-serif" font-size="14" lengthAdjust="spacing" textLength="228.7646" x="13" y="364.9626">Codes: 01, 10, 293, 32, MS, NAD</text><text fill="#000000" font-family="sans-serif" font-size="14" lengthAdjust="spacing" textLength="251.4395" x="13" y="381.2595">Prozesse: Netznutzungsabrechnung</text><text fill="#000000" font-family="sans-serif" font-size="14" lengthAdjust="spacing" textLength="284.1357" x="13" y="397.5564">Quelle: INSRPT_MIG_1_1a_20211001.pdf</text><line style="stroke:#181818;stroke-width:0.5;" x1="8" x2="302.1357" y1="404.8581" y2="404.8581"/></g><!--class NAD_3045_msg_2--><g class="entity" data-entity="NAD_3045_msg_2" data-source-line="19" data-uid="ent0005" id="entity_NAD_3045_msg_2"><rect fill="#F1F1F1" height="145.7813" rx="2.5" ry="2.5" style="stroke:#181818;stroke-width:0.5;" width="607.8203" x="338.16" y="267.0769"/><ellipse cx="574.7279" cy="283.0769" fill="#ADD1B2" rx="11" ry="11" style="stroke:#181818;stroke-width:1;"/><path d="M577.6966,288.7175 Q577.1185,289.0144 576.4779,289.155 Q575.8372,289.3113 575.1341,289.3113 Q572.6341,289.3113 571.306,287.6706 Q569.9935,286.0144 569.9935,282.8894 Q569.9935,279.7644 571.306,278.1081 Q572.6341,276.4519 575.1341,276.4519 Q575.8372,276.4519 576.4779,276.6081 Q577.1341,276.7644 577.6966,277.0613 L577.6966,279.78 Q577.0716,279.2019 576.4779,278.9363 Q575.8841,278.655 575.2591,278.655 Q573.9154,278.655 573.2279,279.7331 Q572.5404,280.7956 572.5404,282.8894 Q572.5404,284.9831 573.2279,286.0613 Q573.9154,287.1238 575.2591,287.1238 Q575.8841,287.1238 576.4779,286.8581 Q577.0716,286.5769 577.6966,285.9988 L577.6966,288.7175 Z " fill="#000000"/><text fill="#000000" font-family="sans-serif" font-size="14" lengthAdjust="spacing" textLength="126.1846" x="595.2279" y="287.9236">NAD_3045_msg_2</text><line style="stroke:#181818;stroke-width:0.5;" x1="339.16" x2="944.9803" y1="299.0769" y2="299.0769"/><text fill="#000000" font-family="sans-serif" font-size="14" lengthAdjust="spacing" textLength="161.1982" x="344.16" y="316.072">Nachricht: INVOIC 2.8d</text><text fill="#000000" font-family="sans-serif" font-size="14" lengthAdjust="spacing" textLength="170.3447" x="344.16" y="332.3689">Kontext: Segmentlayout</text><text fill="#000000" font-family="sans-serif" font-size="14" lengthAdjust="spacing" textLength="91.4033" x="344.16" y="348.6657">Pflichtfeld: Ja</text><text fill="#000000" font-family="sans-serif" font-size="14" lengthAdjust="spacing" textLength="595.8203" x="344.16" y="364.9626">Codes: 17, 293, 332, 35, 99, DE, GS1, ID, ISO, MP, MS, NAD, OCR, SG2, UN, Z01, Z02</text><text fill="#000000" font-family="sans-serif" font-size="14" lengthAdjust="spacing" textLength="483.6221" x="344.16" y="381.2595">Prozesse: Netznutzungsabrechnung, Messstellenbetriebsabrechnung</text><text fill="#000000" font-family="sans-serif" font-size="14" lengthAdjust="spacing" textLength="396.6074" x="344.16" y="397.5564">Quelle: INVOIC_MIG_2.8d_Fehlerkorrektur_20250131.pdf</text><line style="stroke:#181818;stroke-width:0.5;" x1="339.16" x2="944.9803" y1="404.8581" y2="404.8581"/></g><!--class NAD_3045_msg_3--><g class="entity" data-entity="NAD_3045_msg_3" data-source-line="28" data-uid="ent0007" id="entity_NAD_3045_msg_3"><rect fill="#F1F1F1" height="145.7813" rx="2.5" ry="2.5" style="stroke:#181818;stroke-width:0.5;" width="579.041" x="980.55" y="267.0769"/><ellipse cx="1202.7282" cy="283.0769" fill="#ADD1B2" rx="11" ry="11" style="stroke:#181818;stroke-width:1;"/><path d="M1205.697,288.7175 Q1205.1188,289.0144 1204.4782,289.155 Q1203.8376,289.3113 1203.1345,289.3113 Q1200.6345,289.3113 1199.3063,287.6706 Q1197.9938,286.0144 1197.9938,282.8894 Q1197.9938,279.7644 1199.3063,278.1081 Q1200.6345,276.4519 1203.1345,276.4519 Q1203.8376,276.4519 1204.4782,276.6081 Q1205.1345,276.7644 1205.697,277.0613 L1205.697,279.78 Q1205.072,279.2019 1204.4782,278.9363 Q1203.8845,278.655 1203.2595,278.655 Q1201.9157,278.655 1201.2282,279.7331 Q1200.5407,280.7956 1200.5407,282.8894 Q1200.5407,284.9831 1201.2282,286.0613 Q1201.9157,287.1238 1203.2595,287.1238 Q1203.8845,287.1238 1204.4782,286.8581 Q1205.072,286.5769 1205.697,285.9988 L1205.697,288.7175 Z " fill="#000000"/><text fill="#000000" font-family="sans-serif" font-size="14" lengthAdjust="spacing" textLength="126.1846" x="1223.2282" y="287.9236">NAD_3045_msg_3</text><line style="stroke:#181818;stroke-width:0.5;" x1="981.55" x2="1558.591" y1="299.0769" y2="299.0769"/><text fill="#000000" font-family="sans-serif" font-size="14" lengthAdjust="spacing" textLength="165.6484" x="986.55" y="316.072">Nachricht: INVOIC 2.8d.</text><text fill="#000000" font-family="sans-serif" font-size="14" lengthAdjust="spacing" textLength="170.3447" x="986.55" y="332.3689">Kontext: Segmentlayout</text><text fill="#000000" font-family="sans-serif" font-size="14" lengthAdjust="spacing" textLength="91.4033" x="986.55" y="348.6657">Pflichtfeld: Ja</text><text fill="#000000" font-family="sans-serif" font-size="14" lengthAdjust="spacing" textLength="567.041" x="986.55" y="364.9626">Codes: 17, 293, 332, 35, 99, DE, GS1, ID, ISO, MP, MR, NAD, OCR, SG2, Z01, Z02</text><text fill="#000000" font-family="sans-serif" font-size="14" lengthAdjust="spacing" textLength="483.6221" x="986.55" y="381.2595">Prozesse: Netznutzungsabrechnung, Messstellenbetriebsabrechnung</text><text fill="#000000" font-family="sans-serif" font-size="14" lengthAdjust="spacing" textLength="290.3359" x="986.55" y="397.5564">Quelle: INVOIC_MIG_2_8d__20240619.pdf</text><line style="stroke:#181818;stroke-width:0.5;" x1="981.55" x2="1558.591" y1="404.8581" y2="404.8581"/></g><!--class NAD_3045_msg_4--><g class="entity" data-entity="NAD_3045_msg_4" data-source-line="37" data-uid="ent0009" id="entity_NAD_3045_msg_4"><rect fill="#F1F1F1" height="145.7813" rx="2.5" ry="2.5" style="stroke:#181818;stroke-width:0.5;" width="426.0664" x="1595.03" y="267.0769"/><ellipse cx="1740.7209" cy="283.0769" fill="#ADD1B2" rx="11" ry="11" style="stroke:#181818;stroke-width:1;"/><path d="M1743.6897,288.7175 Q1743.1115,289.0144 1742.4709,289.155 Q1741.8303,289.3113 1741.1272,289.3113 Q1738.6272,289.3113 1737.299,287.6706 Q1735.9865,286.0144 1735.9865,282.8894 Q1735.9865,279.7644 1737.299,278.1081 Q1738.6272,276.4519 1741.1272,276.4519 Q1741.8303,276.4519 1742.4709,276.6081 Q1743.1272,276.7644 1743.6897,277.0613 L1743.6897,279.78 Q1743.0647,279.2019 1742.4709,278.9363 Q1741.8772,278.655 1741.2522,278.655 Q1739.9084,278.655 1739.2209,279.7331 Q1738.5334,280.7956 1738.5334,282.8894 Q1738.5334,284.9831 1739.2209,286.0613 Q1739.9084,287.1238 1741.2522,287.1238 Q1741.8772,287.1238 1742.4709,286.8581 Q1743.0647,286.5769 1743.6897,285.9988 L1743.6897,288.7175 Z " fill="#000000"/><text fill="#000000" font-family="sans-serif" font-size="14" lengthAdjust="spacing" textLength="126.1846" x="1761.2209" y="287.9236">NAD_3045_msg_4</text><line style="stroke:#181818;stroke-width:0.5;" x1="1596.03" x2="2020.0964" y1="299.0769" y2="299.0769"/><text fill="#000000" font-family="sans-serif" font-size="14" lengthAdjust="spacing" textLength="162.7227" x="1601.03" y="316.072">Nachricht: PARTIN 1.0e</text><text fill="#000000" font-family="sans-serif" font-size="14" lengthAdjust="spacing" textLength="170.3447" x="1601.03" y="332.3689">Kontext: Segmentlayout</text><text fill="#000000" font-family="sans-serif" font-size="14" lengthAdjust="spacing" textLength="91.4033" x="1601.03" y="348.6657">Pflichtfeld: Ja</text><text fill="#000000" font-family="sans-serif" font-size="14" lengthAdjust="spacing" textLength="414.0664" x="1601.03" y="364.9626">Codes: 17, 256, 35, 70, EDI, ISO, NAD, OCR, SG4, Z02, Z21</text><text fill="#000000" font-family="sans-serif" font-size="14" lengthAdjust="spacing" textLength="229.1064" x="1601.03" y="381.2595">Prozesse: Stammdaten&#228;nderung</text><text fill="#000000" font-family="sans-serif" font-size="14" lengthAdjust="spacing" textLength="284.8604" x="1601.03" y="397.5564">Quelle: PARTIN_MIG_1_0e_20241001.pdf</text><line style="stroke:#181818;stroke-width:0.5;" x1="1596.03" x2="2020.0964" y1="404.8581" y2="404.8581"/></g><!--class NAD_3045_proc_1--><g class="entity" data-entity="NAD_3045_proc_1" data-source-line="46" data-uid="ent0011" id="entity_NAD_3045_proc_1"><rect fill="#F1F1F1" height="105.1563" rx="2.5" ry="2.5" style="stroke:#181818;stroke-width:0.5;" width="752.6465" x="2055.74" y="287.3869"/><ellipse cx="2364.1775" cy="307.5197" fill="#ADD1B2" rx="11" ry="11" style="stroke:#181818;stroke-width:1;"/><path d="M2367.1463,313.1603 Q2366.5681,313.4572 2365.9275,313.5978 Q2365.2869,313.7541 2364.5838,313.7541 Q2362.0838,313.7541 2360.7556,312.1134 Q2359.4431,310.4572 2359.4431,307.3322 Q2359.4431,304.2072 2360.7556,302.5509 Q2362.0838,300.8947 2364.5838,300.8947 Q2365.2869,300.8947 2365.9275,301.0509 Q2366.5838,301.2072 2367.1463,301.5041 L2367.1463,304.2228 Q2366.5213,303.6447 2365.9275,303.3791 Q2365.3338,303.0978 2364.7088,303.0978 Q2363.365,303.0978 2362.6775,304.1759 Q2361.99,305.2384 2361.99,307.3322 Q2361.99,309.4259 2362.6775,310.5041 Q2363.365,311.5666 2364.7088,311.5666 Q2365.3338,311.5666 2365.9275,311.3009 Q2366.5213,311.0197 2367.1463,310.4416 L2367.1463,313.1603 Z " fill="#000000"/><text fill="#000000" font-family="sans-serif" font-size="12" font-style="italic" lengthAdjust="spacing" textLength="61.0605" x="2417.783" y="303.5255">&#171;process&#187;</text><text fill="#000000" font-family="sans-serif" font-size="14" lengthAdjust="spacing" textLength="127.2715" x="2384.6775" y="319.3507">NAD_3045_proc_1</text><line style="stroke:#181818;stroke-width:0.5;" x1="2056.74" x2="2807.3865" y1="327.6525" y2="327.6525"/><text fill="#000000" font-family="sans-serif" font-size="14" lengthAdjust="spacing" textLength="180.3457" x="2061.74" y="344.6476">Netznutzungsabrechnung</text><text fill="#000000" font-family="sans-serif" font-size="14" lengthAdjust="spacing" textLength="218.0938" x="2061.74" y="360.9445">Gesetze: StromNEV, StromNZV</text><text fill="#000000" font-family="sans-serif" font-size="14" lengthAdjust="spacing" textLength="740.6465" x="2061.74" y="377.2414">Zusammenfassung: Wie funktioniert die Netznutzungsabrechnung zwischen Netzbetreiber und Lieferant?</text><line style="stroke:#181818;stroke-width:0.5;" x1="2056.74" x2="2807.3865" y1="384.5431" y2="384.5431"/></g><!--class NAD_3045_proc_2--><g class="entity" data-entity="NAD_3045_proc_2" data-source-line="52" data-uid="ent0013" id="entity_NAD_3045_proc_2"><rect fill="#F1F1F1" height="105.1563" rx="2.5" ry="2.5" style="stroke:#181818;stroke-width:0.5;" width="690.2275" x="2842.95" y="287.3869"/><ellipse cx="3120.178" cy="307.5197" fill="#ADD1B2" rx="11" ry="11" style="stroke:#181818;stroke-width:1;"/><path d="M3123.1468,313.1603 Q3122.5687,313.4572 3121.928,313.5978 Q3121.2874,313.7541 3120.5843,313.7541 Q3118.0843,313.7541 3116.7562,312.1134 Q3115.4437,310.4572 3115.4437,307.3322 Q3115.4437,304.2072 3116.7562,302.5509 Q3118.0843,300.8947 3120.5843,300.8947 Q3121.2874,300.8947 3121.928,301.0509 Q3122.5843,301.2072 3123.1468,301.5041 L3123.1468,304.2228 Q3122.5218,303.6447 3121.928,303.3791 Q3121.3343,303.0978 3120.7093,303.0978 Q3119.3655,303.0978 3118.678,304.1759 Q3117.9905,305.2384 3117.9905,307.3322 Q3117.9905,309.4259 3118.678,310.5041 Q3119.3655,311.5666 3120.7093,311.5666 Q3121.3343,311.5666 3121.928,311.3009 Q3122.5218,311.0197 3123.1468,310.4416 L3123.1468,313.1603 Z " fill="#000000"/><text fill="#000000" font-family="sans-serif" font-size="12" font-style="italic" lengthAdjust="spacing" textLength="61.0605" x="3173.7835" y="303.5255">&#171;process&#187;</text><text fill="#000000" font-family="sans-serif" font-size="14" lengthAdjust="spacing" textLength="127.2715" x="3140.678" y="319.3507">NAD_3045_proc_2</text><line style="stroke:#181818;stroke-width:0.5;" x1="2843.95" x2="3532.1775" y1="327.6525" y2="327.6525"/><text fill="#000000" font-family="sans-serif" font-size="14" lengthAdjust="spacing" textLength="223.2822" x="2848.95" y="344.6476">Messstellenbetriebsabrechnung</text><text fill="#000000" font-family="sans-serif" font-size="14" lengthAdjust="spacing" textLength="105.0957" x="2848.95" y="360.9445">Gesetze: MsbG</text><text fill="#000000" font-family="sans-serif" font-size="14" lengthAdjust="spacing" textLength="678.2275" x="2848.95" y="377.2414">Zusammenfassung: Beschreibe den Prozess der Abrechnung von Messstellenbetriebsleistungen.</text><line style="stroke:#181818;stroke-width:0.5;" x1="2843.95" x2="3532.1775" y1="384.5431" y2="384.5431"/></g><!--class NAD_3045_proc_3--><g class="entity" data-entity="NAD_3045_proc_3" data-source-line="58" data-uid="ent0015" id="entity_NAD_3045_proc_3"><rect fill="#F1F1F1" height="88.8594" rx="2.5" ry="2.5" style="stroke:#181818;stroke-width:0.5;" width="638.3496" x="3567.89" y="295.5369"/><ellipse cx="3819.1791" cy="315.6697" fill="#ADD1B2" rx="11" ry="11" style="stroke:#181818;stroke-width:1;"/><path d="M3822.1478,321.3103 Q3821.5697,321.6072 3820.9291,321.7478 Q3820.2884,321.9041 3819.5853,321.9041 Q3817.0853,321.9041 3815.7572,320.2634 Q3814.4447,318.6072 3814.4447,315.4822 Q3814.4447,312.3572 3815.7572,310.7009 Q3817.0853,309.0447 3819.5853,309.0447 Q3820.2884,309.0447 3820.9291,309.2009 Q3821.5853,309.3572 3822.1478,309.6541 L3822.1478,312.3728 Q3821.5228,311.7947 3820.9291,311.5291 Q3820.3353,311.2478 3819.7103,311.2478 Q3818.3666,311.2478 3817.6791,312.3259 Q3816.9916,313.3884 3816.9916,315.4822 Q3816.9916,317.5759 3817.6791,318.6541 Q3818.3666,319.7166 3819.7103,319.7166 Q3820.3353,319.7166 3820.9291,319.4509 Q3821.5228,319.1697 3822.1478,318.5916 L3822.1478,321.3103 Z " fill="#000000"/><text fill="#000000" font-family="sans-serif" font-size="12" font-style="italic" lengthAdjust="spacing" textLength="61.0605" x="3872.7845" y="311.6755">&#171;process&#187;</text><text fill="#000000" font-family="sans-serif" font-size="14" lengthAdjust="spacing" textLength="127.2715" x="3839.6791" y="327.5007">NAD_3045_proc_3</text><line style="stroke:#181818;stroke-width:0.5;" x1="3568.89" x2="4205.2396" y1="335.8025" y2="335.8025"/><text fill="#000000" font-family="sans-serif" font-size="14" lengthAdjust="spacing" textLength="158.0127" x="3573.89" y="352.7976">Stammdaten&#228;nderung</text><text fill="#000000" font-family="sans-serif" font-size="14" lengthAdjust="spacing" textLength="626.3496" x="3573.89" y="369.0945">Zusammenfassung: Wie wird eine Stammdaten&#228;nderung an einer Marktlokation, wie z.B.</text><line style="stroke:#181818;stroke-width:0.5;" x1="3568.89" x2="4205.2396" y1="376.3963" y2="376.3963"/></g><!--link NAD_3045 to NAD_3045_msg_1--><g class="link" data-entity-1="NAD_3045" data-entity-2="NAD_3045_msg_1" data-source-line="18" data-uid="lnk4" id="link_NAD_3045_NAD_3045_msg_1"><path codeLine="18" d="M1675.14,117.8669 C1412.15,120.2169 808.69,140.3569 321.07,267.0769 C315.29,268.5769 315.1891,268.4645 309.3391,270.2845" fill="none" id="NAD_3045-to-NAD_3045_msg_1" style="stroke:#181818;stroke-width:1;"/><polygon fill="#181818" points="303.61,272.0669,313.392,273.2127,308.3843,270.5815,311.0154,265.5738,303.61,272.0669" style="stroke:#181818;stroke-width:1;"/><text fill="#000000" font-family="sans-serif" font-size="13" lengthAdjust="spacing" textLength="85.2363" x="520.07" y="233.1438">verwendet in</text></g><!--link NAD_3045 to NAD_3045_msg_2--><g class="link" data-entity-1="NAD_3045" data-entity-2="NAD_3045_msg_2" data-source-line="27" data-uid="lnk6" id="link_NAD_3045_NAD_3045_msg_2"><path codeLine="27" d="M1675.26,139.6469 C1508.53,167.0369 1213.94,216.9069 963.07,267.0769 C957.47,268.1969 957.6995,268.1403 951.9995,269.3003" fill="none" id="NAD_3045-to-NAD_3045_msg_2" style="stroke:#181818;stroke-width:1;"/><polygon fill="#181818" points="946.12,270.4969,955.7369,272.6217,951.0196,269.4998,954.1415,264.7824,946.12,270.4969" style="stroke:#181818;stroke-width:1;"/><text fill="#000000" font-family="sans-serif" font-size="13" lengthAdjust="spacing" textLength="85.2363" x="1196.07" y="233.1438">verwendet in</text></g><!--link NAD_3045 to NAD_3045_msg_3--><g class="link" data-entity-1="NAD_3045" data-entity-2="NAD_3045_msg_3" data-source-line="36" data-uid="lnk8" id="link_NAD_3045_NAD_3045_msg_3"><path codeLine="36" d="M1675.08,172.7569 C1606.08,201.0769 1526.4205,233.7583 1452.0005,264.3083" fill="none" id="NAD_3045-to-NAD_3045_msg_3" style="stroke:#181818;stroke-width:1;"/><polygon fill="#181818" points="1446.45,266.5869,1456.2948,266.8694,1451.0754,264.6881,1453.2568,259.4687,1446.45,266.5869" style="stroke:#181818;stroke-width:1;"/><text fill="#000000" font-family="sans-serif" font-size="13" lengthAdjust="spacing" textLength="85.2363" x="1557.07" y="233.1438">verwendet in</text></g><!--link NAD_3045 to NAD_3045_msg_4--><g class="link" data-entity-1="NAD_3045" data-entity-2="NAD_3045_msg_4" data-source-line="45" data-uid="lnk10" id="link_NAD_3045_NAD_3045_msg_4"><path codeLine="45" d="M1808.07,190.4769 C1808.07,214.9969 1808.07,236.3869 1808.07,260.8869" fill="none" id="NAD_3045-to-NAD_3045_msg_4" style="stroke:#181818;stroke-width:1;"/><polygon fill="#181818" points="1808.07,266.8869,1812.07,257.8869,1808.07,261.8869,1804.07,257.8869,1808.07,266.8869" style="stroke:#181818;stroke-width:1;"/><text fill="#000000" font-family="sans-serif" font-size="13" lengthAdjust="spacing" textLength="85.2363" x="1809.07" y="233.1438">verwendet in</text></g><!--link NAD_3045 to NAD_3045_proc_1--><g class="link" data-entity-1="NAD_3045" data-entity-2="NAD_3045_proc_1" data-source-line="51" data-uid="lnk12" id="link_NAD_3045_NAD_3045_proc_1"><path codeLine="51" d="M1941.17,165.2769 C2042.1,200.9869 2175.1135,248.0558 2279.3335,284.9258" fill="none" id="NAD_3045-to-NAD_3045_proc_1" style="stroke:#181818;stroke-width:1;stroke-dasharray:7,7;"/><polygon fill="#181818" points="2284.99,286.9269,2277.8394,280.1543,2280.2763,285.2593,2275.1712,287.6962,2284.99,286.9269" style="stroke:#181818;stroke-width:1;"/><text fill="#000000" font-family="sans-serif" font-size="13" lengthAdjust="spacing" textLength="91.6221" x="2140.07" y="233.1438">eingebettet in</text></g><!--link NAD_3045 to NAD_3045_proc_2--><g class="link" data-entity-1="NAD_3045" data-entity-2="NAD_3045_proc_2" data-source-line="57" data-uid="lnk14" id="link_NAD_3045_NAD_3045_proc_2"><path codeLine="57" d="M1941,135.4369 C2135.7,161.1969 2509.67,212.5569 2826.07,267.0769 C2861.27,273.1369 2892.4174,278.8469 2928.8174,285.8269" fill="none" id="NAD_3045-to-NAD_3045_proc_2" style="stroke:#181818;stroke-width:1;stroke-dasharray:7,7;"/><polygon fill="#181818" points="2934.71,286.9569,2926.6244,281.3335,2929.7995,286.0152,2925.1177,289.1904,2934.71,286.9569" style="stroke:#181818;stroke-width:1;"/><text fill="#000000" font-family="sans-serif" font-size="13" lengthAdjust="spacing" textLength="91.6221" x="2633.07" y="233.1438">eingebettet in</text></g><!--link NAD_3045 to NAD_3045_proc_3--><g class="link" data-entity-1="NAD_3045" data-entity-2="NAD_3045_proc_3" data-source-line="62" data-uid="lnk16" id="link_NAD_3045_NAD_3045_proc_3"><path codeLine="62" d="M1941.02,123.8369 C2233.46,137.5169 2954.05,178.0669 3551.07,267.0769 C3600.48,274.4469 3647.6517,283.4368 3696.6617,293.8768" fill="none" id="NAD_3045-to-NAD_3045_proc_3" style="stroke:#181818;stroke-width:1;stroke-dasharray:7,7;"/><polygon fill="#181818" points="3702.53,295.1269,3694.5609,289.3396,3697.6397,294.0852,3692.8941,297.164,3702.53,295.1269" style="stroke:#181818;stroke-width:1;"/><text fill="#000000" font-family="sans-serif" font-size="13" lengthAdjust="spacing" textLength="91.6221" x="3317.07" y="233.1438">eingebettet in</text></g><!--SRC=[jPNTRjem583l-nJd0TmeJg0TKSLKIelO1cMawoHkea1Em28ubUsi6zFUPe-nkxxOZbFQiYOjQ58lGBQFVyxt-IT6c0oX6nkKiSbY3OSmFEq6ljje7ioehcqribNuUG0mZ5SOm4MkLh61zEwFWWHbsIgff0ywQ51aOaxJCJZB4wGn8vMlKMiCg0nsVZHhMPXr8USwdYgSBIGLDy41zTG6impb58qIEAts2KsyMYKsvRlVCa5b8x-UPHkjz3pYcvnd2oLc2nD0VnYEHrV07HvJu6Ck3NwdvWuAVICmincEqipsJJ5B0lXWkraC7O3B6N2NWTVo6VWUWq78x7BRX2-pVIuiqqC6qQ3VYtZ4uyXpFSvTbpitIKeGZx8F3zlFMGBuXkeMYTY0a7MyNfNt-h9_1fxpBjdc3N5E6qRR_IClp6lC_FY1rmBxJGQj5eFkEODUI3hwNVg5bwHYzAY3mUNPc47Oem5VXWmcrjl4zVRGn7Rk_fD5orLQj6pH1IuoLCjSALoQGbchJPVxkwrwUrZrNx7glBtMSKNhcokDIAbrs72FU6kdGtyFXutd3aUduwl-a6wYY_-li7bqR- -OhkLvjx-njcshKOgYFu__Owlk2NboSP_SvfAwMAhOwv8sTgYuKVcCRlB9YIrG9ktslPUNNeqUQWgL-QfyDJo_PflIv9gYaq8J1SgKrg3-0NmL26aXbqRaKg0oa513_UImlXLwjh2FDyNjoK0nHGM5JE2Jm1HLBCtxRLZ7QLT00a0XvqZ3pSkyNeLtrvbyn1xeQQyEj8EKUvbn-VtPx2kL5Pm-8NxBPTrI6RtsXk8edTVvlFtu_0fV_UcgtQvReHAx2DODWbYMCGM3M2rDbYzZkxMCHY6idSwE_FrA_dy1]--></g></svg>