<svg xmlns="http://www.w3.org/2000/svg" xmlns:xlink="http://www.w3.org/1999/xlink" contentStyleType="text/css" data-diagram-type="CLASS" height="370px" preserveAspectRatio="none" style="width:1098px;height:370px;background:#FFFFFF;" version="1.1" viewBox="0 0 1098 370" width="1098px" zoomAndPan="magnify"><title>Datenatlas - NH:767097019</title><defs/><g><g class="title" data-source-line="1"><text fill="#000000" font-family="sans-serif" font-size="14" font-weight="bold" lengthAdjust="spacing" textLength="218.2031" x="433.1717" y="22.9951">Datenatlas - NH:767097019</text></g><!--class NH_767097019--><g class="entity" data-entity="NH_767097019" data-source-line="2" data-uid="ent0002" id="entity_NH_767097019"><rect fill="#F1F1F1" height="96.8906" rx="2.5" ry="2.5" style="stroke:#181818;stroke-width:0.5;" width="214.3096" x="328.06" y="44.2969"/><ellipse cx="376.8823" cy="60.2969" fill="#ADD1B2" rx="11" ry="11" style="stroke:#181818;stroke-width:1;"/><path d="M379.851,65.9375 Q379.2729,66.2344 378.6323,66.375 Q377.9916,66.5313 377.2885,66.5313 Q374.7885,66.5313 373.4604,64.8906 Q372.1479,63.2344 372.1479,60.1094 Q372.1479,56.9844 373.4604,55.3281 Q374.7885,53.6719 377.2885,53.6719 Q377.9916,53.6719 378.6323,53.8281 Q379.2885,53.9844 379.851,54.2813 L379.851,57 Q379.226,56.4219 378.6323,56.1563 Q378.0385,55.875 377.4135,55.875 Q376.0698,55.875 375.3823,56.9531 Q374.6948,58.0156 374.6948,60.1094 Q374.6948,62.2031 375.3823,63.2813 Q376.0698,64.3438 377.4135,64.3438 Q378.0385,64.3438 378.6323,64.0781 Q379.226,63.7969 379.851,63.2188 L379.851,65.9375 Z " fill="#000000"/><text fill="#000000" font-family="sans-serif" font-size="14" lengthAdjust="spacing" textLength="108.165" x="397.3823" y="65.1436">NH_767097019</text><line style="stroke:#181818;stroke-width:0.5;" x1="329.06" x2="541.3696" y1="76.2969" y2="76.2969"/><text fill="#000000" font-family="sans-serif" font-size="14" lengthAdjust="spacing" textLength="188.3096" x="348.06" y="93.292">Name: Objekt - Bezeichner</text><text fill="#000000" font-family="sans-serif" font-size="14" lengthAdjust="spacing" textLength="66.6436" x="348.06" y="109.5889">Prozesse:</text><rect fill="none" height="6" style="stroke:#C82930;stroke-width:1;" width="6" x="336.06" y="119.5391"/><text fill="#000000" font-family="sans-serif" font-size="14" lengthAdjust="spacing" textLength="180.3457" x="348.06" y="125.8857">Netznutzungsabrechnung</text><line style="stroke:#181818;stroke-width:0.5;" x1="329.06" x2="541.3696" y1="133.1875" y2="133.1875"/></g><!--class NH_767097019_msg_1--><g class="entity" data-entity="NH_767097019_msg_1" data-source-line="7" data-uid="ent0003" id="entity_NH_767097019_msg_1"><rect fill="#F1F1F1" height="145.7813" rx="2.5" ry="2.5" style="stroke:#181818;stroke-width:0.5;" width="296.4365" x="7" y="218.1869"/><ellipse cx="70.5229" cy="234.1869" fill="#ADD1B2" rx="11" ry="11" style="stroke:#181818;stroke-width:1;"/><path d="M73.4917,239.8275 Q72.9136,240.1244 72.2729,240.265 Q71.6323,240.4213 70.9292,240.4213 Q68.4292,240.4213 67.1011,238.7806 Q65.7886,237.1244 65.7886,233.9994 Q65.7886,230.8744 67.1011,229.2181 Q68.4292,227.5619 70.9292,227.5619 Q71.6323,227.5619 72.2729,227.7181 Q72.9292,227.8744 73.4917,228.1713 L73.4917,230.89 Q72.8667,230.3119 72.2729,230.0463 Q71.6792,229.765 71.0542,229.765 Q69.7104,229.765 69.0229,230.8431 Q68.3354,231.9056 68.3354,233.9994 Q68.3354,236.0931 69.0229,237.1713 Q69.7104,238.2338 71.0542,238.2338 Q71.6792,238.2338 72.2729,237.9681 Q72.8667,237.6869 73.4917,237.1088 L73.4917,239.8275 Z " fill="#000000"/><text fill="#000000" font-family="sans-serif" font-size="14" lengthAdjust="spacing" textLength="160.8906" x="91.0229" y="239.0336">NH_767097019_msg_1</text><line style="stroke:#181818;stroke-width:0.5;" x1="8" x2="302.4365" y1="250.1869" y2="250.1869"/><text fill="#000000" font-family="sans-serif" font-size="14" lengthAdjust="spacing" textLength="162.2988" x="13" y="267.182">Nachricht: PRICAT 2.0d</text><text fill="#000000" font-family="sans-serif" font-size="14" lengthAdjust="spacing" textLength="123.0605" x="13" y="283.4789">Kontext: Beispiel:</text><text fill="#000000" font-family="sans-serif" font-size="14" lengthAdjust="spacing" textLength="91.4033" x="13" y="299.7757">Pflichtfeld: Ja</text><text fill="#000000" font-family="sans-serif" font-size="14" lengthAdjust="spacing" textLength="183.0664" x="13" y="316.0726">Codes: 06, 19, 35, NH, UN</text><text fill="#000000" font-family="sans-serif" font-size="14" lengthAdjust="spacing" textLength="251.4395" x="13" y="332.3695">Prozesse: Netznutzungsabrechnung</text><text fill="#000000" font-family="sans-serif" font-size="14" lengthAdjust="spacing" textLength="284.4365" x="13" y="348.6664">Quelle: PRICAT_MIG_2_0d_20240619.pdf</text><line style="stroke:#181818;stroke-width:0.5;" x1="8" x2="302.4365" y1="355.9681" y2="355.9681"/></g><!--class NH_767097019_proc_1--><g class="entity" data-entity="NH_767097019_proc_1" data-source-line="16" data-uid="ent0005" id="entity_NH_767097019_proc_1"><rect fill="#F1F1F1" height="105.1563" rx="2.5" ry="2.5" style="stroke:#181818;stroke-width:0.5;" width="752.6465" x="338.9" y="238.4969"/><ellipse cx="629.9845" cy="258.6297" fill="#ADD1B2" rx="11" ry="11" style="stroke:#181818;stroke-width:1;"/><path d="M632.9532,264.2703 Q632.3751,264.5672 631.7345,264.7078 Q631.0938,264.8641 630.3907,264.8641 Q627.8907,264.8641 626.5626,263.2234 Q625.2501,261.5672 625.2501,258.4422 Q625.2501,255.3172 626.5626,253.6609 Q627.8907,252.0047 630.3907,252.0047 Q631.0938,252.0047 631.7345,252.1609 Q632.3907,252.3172 632.9532,252.6141 L632.9532,255.3328 Q632.3282,254.7547 631.7345,254.4891 Q631.1407,254.2078 630.5157,254.2078 Q629.172,254.2078 628.4845,255.2859 Q627.797,256.3484 627.797,258.4422 Q627.797,260.5359 628.4845,261.6141 Q629.172,262.6766 630.5157,262.6766 Q631.1407,262.6766 631.7345,262.4109 Q632.3282,262.1297 632.9532,261.5516 L632.9532,264.2703 Z " fill="#000000"/><text fill="#000000" font-family="sans-serif" font-size="12" font-style="italic" lengthAdjust="spacing" textLength="61.0605" x="700.943" y="254.6355">&#171;process&#187;</text><text fill="#000000" font-family="sans-serif" font-size="14" lengthAdjust="spacing" textLength="161.9775" x="650.4845" y="270.4607">NH_767097019_proc_1</text><line style="stroke:#181818;stroke-width:0.5;" x1="339.9" x2="1090.5465" y1="278.7625" y2="278.7625"/><text fill="#000000" font-family="sans-serif" font-size="14" lengthAdjust="spacing" textLength="180.3457" x="344.9" y="295.7576">Netznutzungsabrechnung</text><text fill="#000000" font-family="sans-serif" font-size="14" lengthAdjust="spacing" textLength="218.0938" x="344.9" y="312.0545">Gesetze: StromNEV, StromNZV</text><text fill="#000000" font-family="sans-serif" font-size="14" lengthAdjust="spacing" textLength="740.6465" x="344.9" y="328.3514">Zusammenfassung: Wie funktioniert die Netznutzungsabrechnung zwischen Netzbetreiber und Lieferant?</text><line style="stroke:#181818;stroke-width:0.5;" x1="339.9" x2="1090.5465" y1="335.6531" y2="335.6531"/></g><!--link NH_767097019 to NH_767097019_msg_1--><g class="link" data-entity-1="NH_767097019" data-entity-2="NH_767097019_msg_1" data-source-line="15" data-uid="lnk4" id="link_NH_767097019_NH_767097019_msg_1"><path codeLine="15" d="M367.08,141.5169 C334.38,164.4469 299.4228,188.9625 263.1228,214.4125" fill="none" id="NH_767097019-to-NH_767097019_msg_1" style="stroke:#181818;stroke-width:1;"/><polygon fill="#181818" points="258.21,217.8569,267.8755,215.9655,262.304,214.9865,263.283,209.415,258.21,217.8569" style="stroke:#181818;stroke-width:1;"/><text fill="#000000" font-family="sans-serif" font-size="13" lengthAdjust="spacing" textLength="85.2363" x="322.22" y="184.2538">verwendet in</text></g><!--link NH_767097019 to NH_767097019_proc_1--><g class="link" data-entity-1="NH_767097019" data-entity-2="NH_767097019_proc_1" data-source-line="21" data-uid="lnk6" id="link_NH_767097019_NH_767097019_proc_1"><path codeLine="21" d="M503.36,141.5169 C545.12,170.8069 593.6774,204.8522 636.4474,234.8422" fill="none" id="NH_767097019-to-NH_767097019_proc_1" style="stroke:#181818;stroke-width:1;stroke-dasharray:7,7;"/><polygon fill="#181818" points="641.36,238.2869,636.2875,229.8447,637.2661,235.4163,631.6946,236.3949,641.36,238.2869" style="stroke:#181818;stroke-width:1;"/><text fill="#000000" font-family="sans-serif" font-size="13" lengthAdjust="spacing" textLength="91.6221" x="568.22" y="184.2538">eingebettet in</text></g><!--SRC=[TL3RJi9057pdAyu7bAPKXR0XDO86yO9umuINfhHJM6ctP7ShfiP_zu1erDItavdPkQoLDWETHXOgibbag4dZSz5fTxnknsjr6p5ZXg7m6wAt1j4uoY7ePlwCbUKdVLIGyL91CpVHHGLZ8FYchHzifKfRbMfXeha6w_XilDTuXxbPXArzGhpKx6a5JUv6WvC7ybqlOUAoK1Ql3FSXpLeYs-PCqcohJP4bWYuYHWP50YF8QplKwZfqSEHmaaEFuvyD_-j6T5iYo_2L7LwFXg4VUadeU_wXrsvrtNMIyeHV7zDi1dLh1Br0Rw0IM9AgRlLQ5p4BUxtjmSM2uFCB_YitX66AszrRNUJZiwcplsPJPcUbYV8SAkKSrWjwag2qL2ih2oMXBIKCr9jJjP4cNaBj-3ciXfn3KwaIkf98eIDbZ_yETzsWTf0WIBK0szZTzWy0]--></g></svg>