<svg xmlns="http://www.w3.org/2000/svg" xmlns:xlink="http://www.w3.org/1999/xlink" contentStyleType="text/css" data-diagram-type="CLASS" height="370px" preserveAspectRatio="none" style="width:984px;height:370px;background:#FFFFFF;" version="1.1" viewBox="0 0 984 370" width="984px" zoomAndPan="magnify"><title>Datenatlas - PARTIN:200000</title><defs/><g><g class="title" data-source-line="1"><text fill="#000000" font-family="sans-serif" font-size="14" font-weight="bold" lengthAdjust="spacing" textLength="223.8975" x="373.3561" y="22.9951">Datenatlas - PARTIN:200000</text></g><!--class PARTIN_200000--><g class="entity" data-entity="PARTIN_200000" data-source-line="2" data-uid="ent0002" id="entity_PARTIN_200000"><rect fill="#F1F1F1" height="96.8906" rx="2.5" ry="2.5" style="stroke:#181818;stroke-width:0.5;" width="316.7256" x="248.07" y="44.2969"/><ellipse cx="346.5109" cy="60.2969" fill="#ADD1B2" rx="11" ry="11" style="stroke:#181818;stroke-width:1;"/><path d="M349.4797,65.9375 Q348.9015,66.2344 348.2609,66.375 Q347.6203,66.5313 346.9172,66.5313 Q344.4172,66.5313 343.089,64.8906 Q341.7765,63.2344 341.7765,60.1094 Q341.7765,56.9844 343.089,55.3281 Q344.4172,53.6719 346.9172,53.6719 Q347.6203,53.6719 348.2609,53.8281 Q348.9172,53.9844 349.4797,54.2813 L349.4797,57 Q348.8547,56.4219 348.2609,56.1563 Q347.6672,55.875 347.0422,55.875 Q345.6984,55.875 345.0109,56.9531 Q344.3234,58.0156 344.3234,60.1094 Q344.3234,62.2031 345.0109,63.2813 Q345.6984,64.3438 347.0422,64.3438 Q347.6672,64.3438 348.2609,64.0781 Q348.8547,63.7969 349.4797,63.2188 L349.4797,65.9375 Z " fill="#000000"/><text fill="#000000" font-family="sans-serif" font-size="14" lengthAdjust="spacing" textLength="111.3438" x="367.0109" y="65.1436">PARTIN_200000</text><line style="stroke:#181818;stroke-width:0.5;" x1="249.07" x2="563.7956" y1="76.2969" y2="76.2969"/><text fill="#000000" font-family="sans-serif" font-size="14" lengthAdjust="spacing" textLength="290.7256" x="268.07" y="93.292">Name: Ansprechpartner Rahmenvertr&#228;ge</text><text fill="#000000" font-family="sans-serif" font-size="14" lengthAdjust="spacing" textLength="66.6436" x="268.07" y="109.5889">Prozesse:</text><rect fill="none" height="6" style="stroke:#C82930;stroke-width:1;" width="6" x="256.07" y="119.5391"/><text fill="#000000" font-family="sans-serif" font-size="14" lengthAdjust="spacing" textLength="158.0127" x="268.07" y="125.8857">Stammdaten&#228;nderung</text><line style="stroke:#181818;stroke-width:0.5;" x1="249.07" x2="563.7956" y1="133.1875" y2="133.1875"/></g><!--class PARTIN_200000_msg_1--><g class="entity" data-entity="PARTIN_200000_msg_1" data-source-line="7" data-uid="ent0003" id="entity_PARTIN_200000_msg_1"><rect fill="#F1F1F1" height="145.7813" rx="2.5" ry="2.5" style="stroke:#181818;stroke-width:0.5;" width="296.8604" x="7" y="218.1869"/><ellipse cx="69.1455" cy="234.1869" fill="#ADD1B2" rx="11" ry="11" style="stroke:#181818;stroke-width:1;"/><path d="M72.1143,239.8275 Q71.5361,240.1244 70.8955,240.265 Q70.2549,240.4213 69.5518,240.4213 Q67.0518,240.4213 65.7236,238.7806 Q64.4111,237.1244 64.4111,233.9994 Q64.4111,230.8744 65.7236,229.2181 Q67.0518,227.5619 69.5518,227.5619 Q70.2549,227.5619 70.8955,227.7181 Q71.5518,227.8744 72.1143,228.1713 L72.1143,230.89 Q71.4893,230.3119 70.8955,230.0463 Q70.3018,229.765 69.6768,229.765 Q68.333,229.765 67.6455,230.8431 Q66.958,231.9056 66.958,233.9994 Q66.958,236.0931 67.6455,237.1713 Q68.333,238.2338 69.6768,238.2338 Q70.3018,238.2338 70.8955,237.9681 Q71.4893,237.6869 72.1143,237.1088 L72.1143,239.8275 Z " fill="#000000"/><text fill="#000000" font-family="sans-serif" font-size="14" lengthAdjust="spacing" textLength="164.0693" x="89.6455" y="239.0336">PARTIN_200000_msg_1</text><line style="stroke:#181818;stroke-width:0.5;" x1="8" x2="302.8604" y1="250.1869" y2="250.1869"/><text fill="#000000" font-family="sans-serif" font-size="14" lengthAdjust="spacing" textLength="162.7227" x="13" y="267.182">Nachricht: PARTIN 1.0e</text><text fill="#000000" font-family="sans-serif" font-size="14" lengthAdjust="spacing" textLength="204.1143" x="13" y="283.4789">Kontext: Nachrichtenstruktur</text><text fill="#000000" font-family="sans-serif" font-size="14" lengthAdjust="spacing" textLength="91.4033" x="13" y="299.7757">Pflichtfeld: Ja</text><text fill="#000000" font-family="sans-serif" font-size="14" lengthAdjust="spacing" textLength="188.1455" x="13" y="316.0726">Codes: 000, 200, MIG, SG4</text><text fill="#000000" font-family="sans-serif" font-size="14" lengthAdjust="spacing" textLength="229.1064" x="13" y="332.3695">Prozesse: Stammdaten&#228;nderung</text><text fill="#000000" font-family="sans-serif" font-size="14" lengthAdjust="spacing" textLength="284.8604" x="13" y="348.6664">Quelle: PARTIN_MIG_1_0e_20241001.pdf</text><line style="stroke:#181818;stroke-width:0.5;" x1="8" x2="302.8604" y1="355.9681" y2="355.9681"/></g><!--class PARTIN_200000_proc_1--><g class="entity" data-entity="PARTIN_200000_proc_1" data-source-line="16" data-uid="ent0005" id="entity_PARTIN_200000_proc_1"><rect fill="#F1F1F1" height="88.8594" rx="2.5" ry="2.5" style="stroke:#181818;stroke-width:0.5;" width="638.3496" x="339.26" y="246.6469"/><ellipse cx="571.6067" cy="266.7797" fill="#ADD1B2" rx="11" ry="11" style="stroke:#181818;stroke-width:1;"/><path d="M574.5754,272.4203 Q573.9973,272.7172 573.3567,272.8578 Q572.7161,273.0141 572.0129,273.0141 Q569.5129,273.0141 568.1848,271.3734 Q566.8723,269.7172 566.8723,266.5922 Q566.8723,263.4672 568.1848,261.8109 Q569.5129,260.1547 572.0129,260.1547 Q572.7161,260.1547 573.3567,260.3109 Q574.0129,260.4672 574.5754,260.7641 L574.5754,263.4828 Q573.9504,262.9047 573.3567,262.6391 Q572.7629,262.3578 572.1379,262.3578 Q570.7942,262.3578 570.1067,263.4359 Q569.4192,264.4984 569.4192,266.5922 Q569.4192,268.6859 570.1067,269.7641 Q570.7942,270.8266 572.1379,270.8266 Q572.7629,270.8266 573.3567,270.5609 Q573.9504,270.2797 574.5754,269.7016 L574.5754,272.4203 Z " fill="#000000"/><text fill="#000000" font-family="sans-serif" font-size="12" font-style="italic" lengthAdjust="spacing" textLength="61.0605" x="644.1545" y="262.7855">&#171;process&#187;</text><text fill="#000000" font-family="sans-serif" font-size="14" lengthAdjust="spacing" textLength="165.1563" x="592.1067" y="278.6107">PARTIN_200000_proc_1</text><line style="stroke:#181818;stroke-width:0.5;" x1="340.26" x2="976.6096" y1="286.9125" y2="286.9125"/><text fill="#000000" font-family="sans-serif" font-size="14" lengthAdjust="spacing" textLength="158.0127" x="345.26" y="303.9076">Stammdaten&#228;nderung</text><text fill="#000000" font-family="sans-serif" font-size="14" lengthAdjust="spacing" textLength="626.3496" x="345.26" y="320.2045">Zusammenfassung: Wie wird eine Stammdaten&#228;nderung an einer Marktlokation, wie z.B.</text><line style="stroke:#181818;stroke-width:0.5;" x1="340.26" x2="976.6096" y1="327.5063" y2="327.5063"/></g><!--link PARTIN_200000 to PARTIN_200000_msg_1--><g class="link" data-entity-1="PARTIN_200000" data-entity-2="PARTIN_200000_msg_1" data-source-line="15" data-uid="lnk4" id="link_PARTIN_200000_PARTIN_200000_msg_1"><path codeLine="15" d="M345.35,141.5169 C316.04,164.4469 285.0162,188.7105 252.4762,214.1605" fill="none" id="PARTIN_200000-to-PARTIN_200000_msg_1" style="stroke:#181818;stroke-width:1;"/><polygon fill="#181818" points="247.75,217.8569,257.3035,215.4631,251.6885,214.7765,252.375,209.1615,247.75,217.8569" style="stroke:#181818;stroke-width:1;"/><text fill="#000000" font-family="sans-serif" font-size="13" lengthAdjust="spacing" textLength="85.2363" x="304.43" y="184.2538">verwendet in</text></g><!--link PARTIN_200000 to PARTIN_200000_proc_1--><g class="link" data-entity-1="PARTIN_200000" data-entity-2="PARTIN_200000_proc_1" data-source-line="20" data-uid="lnk6" id="link_PARTIN_200000_PARTIN_200000_proc_1"><path codeLine="20" d="M467.75,141.5169 C508.84,173.5269 557.777,211.6593 597.707,242.7693" fill="none" id="PARTIN_200000-to-PARTIN_200000_proc_1" style="stroke:#181818;stroke-width:1;stroke-dasharray:7,7;"/><polygon fill="#181818" points="602.44,246.4569,597.7988,237.7701,598.4958,243.3839,592.882,244.0809,602.44,246.4569" style="stroke:#181818;stroke-width:1;"/><text fill="#000000" font-family="sans-serif" font-size="13" lengthAdjust="spacing" textLength="91.6221" x="526.43" y="184.2538">eingebettet in</text></g><!--SRC=[RL3TQi8m5BxtASu3Q6d5go05ju6ueJWT37PJOdlQ1jEq9ATpEFOslealjXFdniQIYn2-VEVxEQH88zn9GYD9ImSZMCysJukL6CV-3786tHNBlZ1u7m2iP8C2PiPr5lEwavOCMjZ8ka7pYfRi-LGXyzQsFQ9pAFWDhBubsJI5zpkVJ86sDzNW8-IIDQxAagjNNbkLroIk54YYs8i_j8RmZU4V1Xf7jjzJRxrtgJrMeYu4t4j6Rji2dG2M7yBONyl5V0ZR-UHtqc16WCSUjSRl21bFPaaM8ySTJv8uJgAkABdAtrMDHccmbW1UqW5PdK2POF_EjZapfrF_u61fUbb6EDnBxnX6Kx8E8mAU5S91sG9G6GmDWJINFmjBQVUasxqarPeXJo4SevleNvSeIiCHXHUgS8T4bpgV]--></g></svg>