<svg xmlns="http://www.w3.org/2000/svg" xmlns:xlink="http://www.w3.org/1999/xlink" contentStyleType="text/css" data-diagram-type="CLASS" height="370px" preserveAspectRatio="none" style="width:984px;height:370px;background:#FFFFFF;" version="1.1" viewBox="0 0 984 370" width="984px" zoomAndPan="magnify"><title>Datenatlas - PARTIN:MAXWDH</title><defs/><g><g class="title" data-source-line="1"><text fill="#000000" font-family="sans-serif" font-size="14" font-weight="bold" lengthAdjust="spacing" textLength="239.791" x="365.4093" y="22.9951">Datenatlas - PARTIN:MAXWDH</text></g><!--class PARTIN_MAXWDH--><g class="entity" data-entity="PARTIN_MAXWDH" data-source-line="2" data-uid="ent0002" id="entity_PARTIN_MAXWDH"><rect fill="#F1F1F1" height="96.8906" rx="2.5" ry="2.5" style="stroke:#181818;stroke-width:0.5;" width="184.0127" x="314.42" y="44.2969"/><ellipse cx="341.8917" cy="60.2969" fill="#ADD1B2" rx="11" ry="11" style="stroke:#181818;stroke-width:1;"/><path d="M344.8604,65.9375 Q344.2823,66.2344 343.6417,66.375 Q343.0011,66.5313 342.2979,66.5313 Q339.7979,66.5313 338.4698,64.8906 Q337.1573,63.2344 337.1573,60.1094 Q337.1573,56.9844 338.4698,55.3281 Q339.7979,53.6719 342.2979,53.6719 Q343.0011,53.6719 343.6417,53.8281 Q344.2979,53.9844 344.8604,54.2813 L344.8604,57 Q344.2354,56.4219 343.6417,56.1563 Q343.0479,55.875 342.4229,55.875 Q341.0792,55.875 340.3917,56.9531 Q339.7042,58.0156 339.7042,60.1094 Q339.7042,62.2031 340.3917,63.2813 Q341.0792,64.3438 342.4229,64.3438 Q343.0479,64.3438 343.6417,64.0781 Q344.2354,63.7969 344.8604,63.2188 L344.8604,65.9375 Z " fill="#000000"/><text fill="#000000" font-family="sans-serif" font-size="14" lengthAdjust="spacing" textLength="124.2979" x="358.6632" y="65.1436">PARTIN_MAXWDH</text><line style="stroke:#181818;stroke-width:0.5;" x1="315.42" x2="497.4327" y1="76.2969" y2="76.2969"/><text fill="#000000" font-family="sans-serif" font-size="14" lengthAdjust="spacing" textLength="93.543" x="334.42" y="93.292">Name: BDEW</text><text fill="#000000" font-family="sans-serif" font-size="14" lengthAdjust="spacing" textLength="66.6436" x="334.42" y="109.5889">Prozesse:</text><rect fill="none" height="6" style="stroke:#C82930;stroke-width:1;" width="6" x="322.42" y="119.5391"/><text fill="#000000" font-family="sans-serif" font-size="14" lengthAdjust="spacing" textLength="158.0127" x="334.42" y="125.8857">Stammdaten&#228;nderung</text><line style="stroke:#181818;stroke-width:0.5;" x1="315.42" x2="497.4327" y1="133.1875" y2="133.1875"/></g><!--class PARTIN_MAXWDH_msg_1--><g class="entity" data-entity="PARTIN_MAXWDH_msg_1" data-source-line="7" data-uid="ent0003" id="entity_PARTIN_MAXWDH_msg_1"><rect fill="#F1F1F1" height="145.7813" rx="2.5" ry="2.5" style="stroke:#181818;stroke-width:0.5;" width="296.8604" x="7" y="218.1869"/><ellipse cx="62.6685" cy="234.1869" fill="#ADD1B2" rx="11" ry="11" style="stroke:#181818;stroke-width:1;"/><path d="M65.6372,239.8275 Q65.0591,240.1244 64.4185,240.265 Q63.7778,240.4213 63.0747,240.4213 Q60.5747,240.4213 59.2466,238.7806 Q57.9341,237.1244 57.9341,233.9994 Q57.9341,230.8744 59.2466,229.2181 Q60.5747,227.5619 63.0747,227.5619 Q63.7778,227.5619 64.4185,227.7181 Q65.0747,227.8744 65.6372,228.1713 L65.6372,230.89 Q65.0122,230.3119 64.4185,230.0463 Q63.8247,229.765 63.1997,229.765 Q61.856,229.765 61.1685,230.8431 Q60.481,231.9056 60.481,233.9994 Q60.481,236.0931 61.1685,237.1713 Q61.856,238.2338 63.1997,238.2338 Q63.8247,238.2338 64.4185,237.9681 Q65.0122,237.6869 65.6372,237.1088 L65.6372,239.8275 Z " fill="#000000"/><text fill="#000000" font-family="sans-serif" font-size="14" lengthAdjust="spacing" textLength="177.0234" x="83.1685" y="239.0336">PARTIN_MAXWDH_msg_1</text><line style="stroke:#181818;stroke-width:0.5;" x1="8" x2="302.8604" y1="250.1869" y2="250.1869"/><text fill="#000000" font-family="sans-serif" font-size="14" lengthAdjust="spacing" textLength="162.7227" x="13" y="267.182">Nachricht: PARTIN 1.0e</text><text fill="#000000" font-family="sans-serif" font-size="14" lengthAdjust="spacing" textLength="170.3447" x="13" y="283.4789">Kontext: Segmentlayout</text><text fill="#000000" font-family="sans-serif" font-size="14" lengthAdjust="spacing" textLength="91.4033" x="13" y="299.7757">Pflichtfeld: Ja</text><text fill="#000000" font-family="sans-serif" font-size="14" lengthAdjust="spacing" textLength="79.3584" x="13" y="316.0726">Codes: MIG</text><text fill="#000000" font-family="sans-serif" font-size="14" lengthAdjust="spacing" textLength="229.1064" x="13" y="332.3695">Prozesse: Stammdaten&#228;nderung</text><text fill="#000000" font-family="sans-serif" font-size="14" lengthAdjust="spacing" textLength="284.8604" x="13" y="348.6664">Quelle: PARTIN_MIG_1_0e_20241001.pdf</text><line style="stroke:#181818;stroke-width:0.5;" x1="8" x2="302.8604" y1="355.9681" y2="355.9681"/></g><!--class PARTIN_MAXWDH_proc_1--><g class="entity" data-entity="PARTIN_MAXWDH_proc_1" data-source-line="16" data-uid="ent0005" id="entity_PARTIN_MAXWDH_proc_1"><rect fill="#F1F1F1" height="88.8594" rx="2.5" ry="2.5" style="stroke:#181818;stroke-width:0.5;" width="638.3496" x="339.26" y="246.6469"/><ellipse cx="565.1296" cy="266.7797" fill="#ADD1B2" rx="11" ry="11" style="stroke:#181818;stroke-width:1;"/><path d="M568.0984,272.4203 Q567.5203,272.7172 566.8796,272.8578 Q566.239,273.0141 565.5359,273.0141 Q563.0359,273.0141 561.7078,271.3734 Q560.3953,269.7172 560.3953,266.5922 Q560.3953,263.4672 561.7078,261.8109 Q563.0359,260.1547 565.5359,260.1547 Q566.239,260.1547 566.8796,260.3109 Q567.5359,260.4672 568.0984,260.7641 L568.0984,263.4828 Q567.4734,262.9047 566.8796,262.6391 Q566.2859,262.3578 565.6609,262.3578 Q564.3171,262.3578 563.6296,263.4359 Q562.9421,264.4984 562.9421,266.5922 Q562.9421,268.6859 563.6296,269.7641 Q564.3171,270.8266 565.6609,270.8266 Q566.2859,270.8266 566.8796,270.5609 Q567.4734,270.2797 568.0984,269.7016 L568.0984,272.4203 Z " fill="#000000"/><text fill="#000000" font-family="sans-serif" font-size="12" font-style="italic" lengthAdjust="spacing" textLength="61.0605" x="644.1545" y="262.7855">&#171;process&#187;</text><text fill="#000000" font-family="sans-serif" font-size="14" lengthAdjust="spacing" textLength="178.1104" x="585.6296" y="278.6107">PARTIN_MAXWDH_proc_1</text><line style="stroke:#181818;stroke-width:0.5;" x1="340.26" x2="976.6096" y1="286.9125" y2="286.9125"/><text fill="#000000" font-family="sans-serif" font-size="14" lengthAdjust="spacing" textLength="158.0127" x="345.26" y="303.9076">Stammdaten&#228;nderung</text><text fill="#000000" font-family="sans-serif" font-size="14" lengthAdjust="spacing" textLength="626.3496" x="345.26" y="320.2045">Zusammenfassung: Wie wird eine Stammdaten&#228;nderung an einer Marktlokation, wie z.B.</text><line style="stroke:#181818;stroke-width:0.5;" x1="340.26" x2="976.6096" y1="327.5063" y2="327.5063"/></g><!--link PARTIN_MAXWDH to PARTIN_MAXWDH_msg_1--><g class="link" data-entity-1="PARTIN_MAXWDH" data-entity-2="PARTIN_MAXWDH_msg_1" data-source-line="15" data-uid="lnk4" id="link_PARTIN_MAXWDH_PARTIN_MAXWDH_msg_1"><path codeLine="15" d="M345.35,141.5169 C316.04,164.4469 285.0162,188.7105 252.4762,214.1605" fill="none" id="PARTIN_MAXWDH-to-PARTIN_MAXWDH_msg_1" style="stroke:#181818;stroke-width:1;"/><polygon fill="#181818" points="247.75,217.8569,257.3035,215.4631,251.6885,214.7765,252.375,209.1615,247.75,217.8569" style="stroke:#181818;stroke-width:1;"/><text fill="#000000" font-family="sans-serif" font-size="13" lengthAdjust="spacing" textLength="85.2363" x="304.43" y="184.2538">verwendet in</text></g><!--link PARTIN_MAXWDH to PARTIN_MAXWDH_proc_1--><g class="link" data-entity-1="PARTIN_MAXWDH" data-entity-2="PARTIN_MAXWDH_proc_1" data-source-line="20" data-uid="lnk6" id="link_PARTIN_MAXWDH_PARTIN_MAXWDH_proc_1"><path codeLine="20" d="M467.75,141.5169 C508.84,173.5269 557.777,211.6593 597.707,242.7693" fill="none" id="PARTIN_MAXWDH-to-PARTIN_MAXWDH_proc_1" style="stroke:#181818;stroke-width:1;stroke-dasharray:7,7;"/><polygon fill="#181818" points="602.44,246.4569,597.7988,237.7701,598.4958,243.3839,592.882,244.0809,602.44,246.4569" style="stroke:#181818;stroke-width:1;"/><text fill="#000000" font-family="sans-serif" font-size="13" lengthAdjust="spacing" textLength="91.6221" x="526.43" y="184.2538">eingebettet in</text></g><!--SRC=[ROz1JiCm44NtFSKSW4P9nSgg8hKKbO9I5OfKn2OooIIrwjYLFQ5Gn6su2HTZ4Ye4mhlndp_VxvCYZJ2JX4QIbXw6i9hStI-M8fiyR6PNWu95VzBoRmtU1W1BsQ20wUnomu-LiqVq7WNFm15haarJTg6V7wP4rvfwy1wAoXjVvyafiDWwLMn9d2oGH37ouiOQmXUMrrWtQ9ZorRRK_Lhfpb-XBWLSIrOkR8bUGBQO_uOAuW3SjgWrYX-WnJnFyXZpKJmwJ-8uYVPbnTH_gm-7QR21W6Tq1-Hq0cM2LVVE5kmSZxk1mTAqxns6UsmzosWgpc55m4OX79Gh0PN1q158q-ySPDBjIDkT96ND6LyX7ADfzAzB5ALXHD45rVY4H7sTBm00]--></g></svg>