<svg xmlns="http://www.w3.org/2000/svg" xmlns:xlink="http://www.w3.org/1999/xlink" contentStyleType="text/css" data-diagram-type="CLASS" height="370px" preserveAspectRatio="none" style="width:984px;height:370px;background:#FFFFFF;" version="1.1" viewBox="0 0 984 370" width="984px" zoomAndPan="magnify"><title>Datenatlas - PARTIN:SG4</title><defs/><g><g class="title" data-source-line="1"><text fill="#000000" font-family="sans-serif" font-size="14" font-weight="bold" lengthAdjust="spacing" textLength="196.7656" x="386.922" y="22.9951">Datenatlas - PARTIN:SG4</text></g><!--class PARTIN_SG4--><g class="entity" data-entity="PARTIN_SG4" data-source-line="2" data-uid="ent0002" id="entity_PARTIN_SG4"><rect fill="#F1F1F1" height="96.8906" rx="2.5" ry="2.5" style="stroke:#181818;stroke-width:0.5;" width="316.7256" x="248.07" y="44.2969"/><ellipse cx="358.9113" cy="60.2969" fill="#ADD1B2" rx="11" ry="11" style="stroke:#181818;stroke-width:1;"/><path d="M361.8801,65.9375 Q361.3019,66.2344 360.6613,66.375 Q360.0207,66.5313 359.3176,66.5313 Q356.8176,66.5313 355.4894,64.8906 Q354.1769,63.2344 354.1769,60.1094 Q354.1769,56.9844 355.4894,55.3281 Q356.8176,53.6719 359.3176,53.6719 Q360.0207,53.6719 360.6613,53.8281 Q361.3176,53.9844 361.8801,54.2813 L361.8801,57 Q361.2551,56.4219 360.6613,56.1563 Q360.0676,55.875 359.4426,55.875 Q358.0988,55.875 357.4113,56.9531 Q356.7238,58.0156 356.7238,60.1094 Q356.7238,62.2031 357.4113,63.2813 Q358.0988,64.3438 359.4426,64.3438 Q360.0676,64.3438 360.6613,64.0781 Q361.2551,63.7969 361.8801,63.2188 L361.8801,65.9375 Z " fill="#000000"/><text fill="#000000" font-family="sans-serif" font-size="14" lengthAdjust="spacing" textLength="86.543" x="379.4113" y="65.1436">PARTIN_SG4</text><line style="stroke:#181818;stroke-width:0.5;" x1="249.07" x2="563.7956" y1="76.2969" y2="76.2969"/><text fill="#000000" font-family="sans-serif" font-size="14" lengthAdjust="spacing" textLength="290.7256" x="268.07" y="93.292">Name: Ansprechpartner Rahmenvertr&#228;ge</text><text fill="#000000" font-family="sans-serif" font-size="14" lengthAdjust="spacing" textLength="66.6436" x="268.07" y="109.5889">Prozesse:</text><rect fill="none" height="6" style="stroke:#C82930;stroke-width:1;" width="6" x="256.07" y="119.5391"/><text fill="#000000" font-family="sans-serif" font-size="14" lengthAdjust="spacing" textLength="158.0127" x="268.07" y="125.8857">Stammdaten&#228;nderung</text><line style="stroke:#181818;stroke-width:0.5;" x1="249.07" x2="563.7956" y1="133.1875" y2="133.1875"/></g><!--class PARTIN_SG4_msg_1--><g class="entity" data-entity="PARTIN_SG4_msg_1" data-source-line="7" data-uid="ent0003" id="entity_PARTIN_SG4_msg_1"><rect fill="#F1F1F1" height="145.7813" rx="2.5" ry="2.5" style="stroke:#181818;stroke-width:0.5;" width="296.8604" x="7" y="218.1869"/><ellipse cx="81.5459" cy="234.1869" fill="#ADD1B2" rx="11" ry="11" style="stroke:#181818;stroke-width:1;"/><path d="M84.5146,239.8275 Q83.9365,240.1244 83.2959,240.265 Q82.6553,240.4213 81.9521,240.4213 Q79.4521,240.4213 78.124,238.7806 Q76.8115,237.1244 76.8115,233.9994 Q76.8115,230.8744 78.124,229.2181 Q79.4521,227.5619 81.9521,227.5619 Q82.6553,227.5619 83.2959,227.7181 Q83.9521,227.8744 84.5146,228.1713 L84.5146,230.89 Q83.8896,230.3119 83.2959,230.0463 Q82.7021,229.765 82.0771,229.765 Q80.7334,229.765 80.0459,230.8431 Q79.3584,231.9056 79.3584,233.9994 Q79.3584,236.0931 80.0459,237.1713 Q80.7334,238.2338 82.0771,238.2338 Q82.7021,238.2338 83.2959,237.9681 Q83.8896,237.6869 84.5146,237.1088 L84.5146,239.8275 Z " fill="#000000"/><text fill="#000000" font-family="sans-serif" font-size="14" lengthAdjust="spacing" textLength="139.2686" x="102.0459" y="239.0336">PARTIN_SG4_msg_1</text><line style="stroke:#181818;stroke-width:0.5;" x1="8" x2="302.8604" y1="250.1869" y2="250.1869"/><text fill="#000000" font-family="sans-serif" font-size="14" lengthAdjust="spacing" textLength="162.7227" x="13" y="267.182">Nachricht: PARTIN 1.0e</text><text fill="#000000" font-family="sans-serif" font-size="14" lengthAdjust="spacing" textLength="204.1143" x="13" y="283.4789">Kontext: Nachrichtenstruktur</text><text fill="#000000" font-family="sans-serif" font-size="14" lengthAdjust="spacing" textLength="91.4033" x="13" y="299.7757">Pflichtfeld: Ja</text><text fill="#000000" font-family="sans-serif" font-size="14" lengthAdjust="spacing" textLength="116.9014" x="13" y="316.0726">Codes: MIG, SG4</text><text fill="#000000" font-family="sans-serif" font-size="14" lengthAdjust="spacing" textLength="229.1064" x="13" y="332.3695">Prozesse: Stammdaten&#228;nderung</text><text fill="#000000" font-family="sans-serif" font-size="14" lengthAdjust="spacing" textLength="284.8604" x="13" y="348.6664">Quelle: PARTIN_MIG_1_0e_20241001.pdf</text><line style="stroke:#181818;stroke-width:0.5;" x1="8" x2="302.8604" y1="355.9681" y2="355.9681"/></g><!--class PARTIN_SG4_proc_1--><g class="entity" data-entity="PARTIN_SG4_proc_1" data-source-line="16" data-uid="ent0005" id="entity_PARTIN_SG4_proc_1"><rect fill="#F1F1F1" height="88.8594" rx="2.5" ry="2.5" style="stroke:#181818;stroke-width:0.5;" width="638.3496" x="339.26" y="246.6469"/><ellipse cx="584.0071" cy="266.7797" fill="#ADD1B2" rx="11" ry="11" style="stroke:#181818;stroke-width:1;"/><path d="M586.9758,272.4203 Q586.3977,272.7172 585.7571,272.8578 Q585.1164,273.0141 584.4133,273.0141 Q581.9133,273.0141 580.5852,271.3734 Q579.2727,269.7172 579.2727,266.5922 Q579.2727,263.4672 580.5852,261.8109 Q581.9133,260.1547 584.4133,260.1547 Q585.1164,260.1547 585.7571,260.3109 Q586.4133,260.4672 586.9758,260.7641 L586.9758,263.4828 Q586.3508,262.9047 585.7571,262.6391 Q585.1633,262.3578 584.5383,262.3578 Q583.1946,262.3578 582.5071,263.4359 Q581.8196,264.4984 581.8196,266.5922 Q581.8196,268.6859 582.5071,269.7641 Q583.1946,270.8266 584.5383,270.8266 Q585.1633,270.8266 585.7571,270.5609 Q586.3508,270.2797 586.9758,269.7016 L586.9758,272.4203 Z " fill="#000000"/><text fill="#000000" font-family="sans-serif" font-size="12" font-style="italic" lengthAdjust="spacing" textLength="61.0605" x="644.1545" y="262.7855">&#171;process&#187;</text><text fill="#000000" font-family="sans-serif" font-size="14" lengthAdjust="spacing" textLength="140.3555" x="604.5071" y="278.6107">PARTIN_SG4_proc_1</text><line style="stroke:#181818;stroke-width:0.5;" x1="340.26" x2="976.6096" y1="286.9125" y2="286.9125"/><text fill="#000000" font-family="sans-serif" font-size="14" lengthAdjust="spacing" textLength="158.0127" x="345.26" y="303.9076">Stammdaten&#228;nderung</text><text fill="#000000" font-family="sans-serif" font-size="14" lengthAdjust="spacing" textLength="626.3496" x="345.26" y="320.2045">Zusammenfassung: Wie wird eine Stammdaten&#228;nderung an einer Marktlokation, wie z.B.</text><line style="stroke:#181818;stroke-width:0.5;" x1="340.26" x2="976.6096" y1="327.5063" y2="327.5063"/></g><!--link PARTIN_SG4 to PARTIN_SG4_msg_1--><g class="link" data-entity-1="PARTIN_SG4" data-entity-2="PARTIN_SG4_msg_1" data-source-line="15" data-uid="lnk4" id="link_PARTIN_SG4_PARTIN_SG4_msg_1"><path codeLine="15" d="M345.35,141.5169 C316.04,164.4469 285.0162,188.7105 252.4762,214.1605" fill="none" id="PARTIN_SG4-to-PARTIN_SG4_msg_1" style="stroke:#181818;stroke-width:1;"/><polygon fill="#181818" points="247.75,217.8569,257.3035,215.4631,251.6885,214.7765,252.375,209.1615,247.75,217.8569" style="stroke:#181818;stroke-width:1;"/><text fill="#000000" font-family="sans-serif" font-size="13" lengthAdjust="spacing" textLength="85.2363" x="304.43" y="184.2538">verwendet in</text></g><!--link PARTIN_SG4 to PARTIN_SG4_proc_1--><g class="link" data-entity-1="PARTIN_SG4" data-entity-2="PARTIN_SG4_proc_1" data-source-line="20" data-uid="lnk6" id="link_PARTIN_SG4_PARTIN_SG4_proc_1"><path codeLine="20" d="M467.75,141.5169 C508.84,173.5269 557.777,211.6593 597.707,242.7693" fill="none" id="PARTIN_SG4-to-PARTIN_SG4_proc_1" style="stroke:#181818;stroke-width:1;stroke-dasharray:7,7;"/><polygon fill="#181818" points="602.44,246.4569,597.7988,237.7701,598.4958,243.3839,592.882,244.0809,602.44,246.4569" style="stroke:#181818;stroke-width:1;"/><text fill="#000000" font-family="sans-serif" font-size="13" lengthAdjust="spacing" textLength="91.6221" x="526.43" y="184.2538">eingebettet in</text></g><!--SRC=[RP1TQi904CVVFSKSG4CYFYqIi2s8BOhLGg4lopQP98kRJTYTr6BfRRo95-kis68nRyjlP_uVGveCmeCYj8gCyZ22zMppibY9xNmoo9Zu2v0Cu6i0i58r2fXPtphCgbOvikXWeweQxGSwSgTZYJotTiq1lKV1Rs3TBQcwpeFJwMXpT9qj1zyt5hBsfKmkHbdbT5QHkFn34iL1-QcnX9-C_oRGUdBTZZeNZ0iJM84c5_2ecDmtENe1oyLy2A7NLRZUM03F7Hg3lyQIDsKYOvJZU3n9uZY9shpWz5Ud6OtIsne2-29xP5q2RM_Bjgx9U6mw3G_EawRdvlsPtZhF66t18am4l6g4lNOveBROjmJAdlySB9NRaMbsYdHZXxo5S8ZkelyLeYZj2IU2H8dlI7HkyGC0]--></g></svg>