<svg xmlns="http://www.w3.org/2000/svg" xmlns:xlink="http://www.w3.org/1999/xlink" contentStyleType="text/css" data-diagram-type="CLASS" height="387px" preserveAspectRatio="none" style="width:2552px;height:387px;background:#FFFFFF;" version="1.1" viewBox="0 0 2552 387" width="2552px" zoomAndPan="magnify"><title>Datenatlas - PCD:5482</title><defs/><g><g class="title" data-source-line="1"><text fill="#000000" font-family="sans-serif" font-size="14" font-weight="bold" lengthAdjust="spacing" textLength="178.2197" x="1180.3539" y="22.9951">Datenatlas - PCD:5482</text></g><!--class PCD_5482--><g class="entity" data-entity="PCD_5482" data-source-line="2" data-uid="ent0002" id="entity_PCD_5482"><rect fill="#F1F1F1" height="113.1875" rx="2.5" ry="2.5" style="stroke:#181818;stroke-width:0.5;" width="249.2822" x="990.17" y="44.2969"/><ellipse cx="1074.7476" cy="60.2969" fill="#ADD1B2" rx="11" ry="11" style="stroke:#181818;stroke-width:1;"/><path d="M1077.7164,65.9375 Q1077.1383,66.2344 1076.4976,66.375 Q1075.857,66.5313 1075.1539,66.5313 Q1072.6539,66.5313 1071.3258,64.8906 Q1070.0133,63.2344 1070.0133,60.1094 Q1070.0133,56.9844 1071.3258,55.3281 Q1072.6539,53.6719 1075.1539,53.6719 Q1075.857,53.6719 1076.4976,53.8281 Q1077.1539,53.9844 1077.7164,54.2813 L1077.7164,57 Q1077.0914,56.4219 1076.4976,56.1563 Q1075.9039,55.875 1075.2789,55.875 Q1073.9351,55.875 1073.2476,56.9531 Q1072.5601,58.0156 1072.5601,60.1094 Q1072.5601,62.2031 1073.2476,63.2813 Q1073.9351,64.3438 1075.2789,64.3438 Q1075.9039,64.3438 1076.4976,64.0781 Q1077.0914,63.7969 1077.7164,63.2188 L1077.7164,65.9375 Z " fill="#000000"/><text fill="#000000" font-family="sans-serif" font-size="14" lengthAdjust="spacing" textLength="71.627" x="1095.2476" y="65.1436">PCD_5482</text><line style="stroke:#181818;stroke-width:0.5;" x1="991.17" x2="1238.4522" y1="76.2969" y2="76.2969"/><text fill="#000000" font-family="sans-serif" font-size="14" lengthAdjust="spacing" textLength="132.2686" x="1010.17" y="93.292">Name: Prozentsatz</text><text fill="#000000" font-family="sans-serif" font-size="14" lengthAdjust="spacing" textLength="66.6436" x="1010.17" y="109.5889">Prozesse:</text><rect fill="none" height="6" style="stroke:#C82930;stroke-width:1;" width="6" x="998.17" y="119.5391"/><text fill="#000000" font-family="sans-serif" font-size="14" lengthAdjust="spacing" textLength="180.3457" x="1010.17" y="125.8857">Netznutzungsabrechnung</text><rect fill="none" height="6" style="stroke:#C82930;stroke-width:1;" width="6" x="998.17" y="135.8359"/><text fill="#000000" font-family="sans-serif" font-size="14" lengthAdjust="spacing" textLength="223.2822" x="1010.17" y="142.1826">Messstellenbetriebsabrechnung</text><line style="stroke:#181818;stroke-width:0.5;" x1="991.17" x2="1238.4522" y1="149.4844" y2="149.4844"/></g><!--class PCD_5482_msg_1--><g class="entity" data-entity="PCD_5482_msg_1" data-source-line="8" data-uid="ent0003" id="entity_PCD_5482_msg_1"><rect fill="#F1F1F1" height="145.7813" rx="2.5" ry="2.5" style="stroke:#181818;stroke-width:0.5;" width="495.6221" x="7" y="234.4869"/><ellipse cx="188.3848" cy="250.4869" fill="#ADD1B2" rx="11" ry="11" style="stroke:#181818;stroke-width:1;"/><path d="M191.3535,256.1275 Q190.7754,256.4244 190.1348,256.565 Q189.4941,256.7213 188.791,256.7213 Q186.291,256.7213 184.9629,255.0806 Q183.6504,253.4244 183.6504,250.2994 Q183.6504,247.1744 184.9629,245.5181 Q186.291,243.8619 188.791,243.8619 Q189.4941,243.8619 190.1348,244.0181 Q190.791,244.1744 191.3535,244.4713 L191.3535,247.19 Q190.7285,246.6119 190.1348,246.3463 Q189.541,246.065 188.916,246.065 Q187.5723,246.065 186.8848,247.1431 Q186.1973,248.2056 186.1973,250.2994 Q186.1973,252.3931 186.8848,253.4713 Q187.5723,254.5338 188.916,254.5338 Q189.541,254.5338 190.1348,254.2681 Q190.7285,253.9869 191.3535,253.4088 L191.3535,256.1275 Z " fill="#000000"/><text fill="#000000" font-family="sans-serif" font-size="14" lengthAdjust="spacing" textLength="124.3525" x="208.8848" y="255.3336">PCD_5482_msg_1</text><line style="stroke:#181818;stroke-width:0.5;" x1="8" x2="501.6221" y1="266.4869" y2="266.4869"/><text fill="#000000" font-family="sans-serif" font-size="14" lengthAdjust="spacing" textLength="161.1982" x="13" y="283.482">Nachricht: INVOIC 2.8d</text><text fill="#000000" font-family="sans-serif" font-size="14" lengthAdjust="spacing" textLength="170.3447" x="13" y="299.7789">Kontext: Segmentlayout</text><text fill="#000000" font-family="sans-serif" font-size="14" lengthAdjust="spacing" textLength="91.4033" x="13" y="316.0757">Pflichtfeld: Ja</text><text fill="#000000" font-family="sans-serif" font-size="14" lengthAdjust="spacing" textLength="174.1523" x="13" y="332.3726">Codes: 10, 30, OCR, PCD</text><text fill="#000000" font-family="sans-serif" font-size="14" lengthAdjust="spacing" textLength="483.6221" x="13" y="348.6695">Prozesse: Netznutzungsabrechnung, Messstellenbetriebsabrechnung</text><text fill="#000000" font-family="sans-serif" font-size="14" lengthAdjust="spacing" textLength="396.6074" x="13" y="364.9664">Quelle: INVOIC_MIG_2.8d_Fehlerkorrektur_20250131.pdf</text><line style="stroke:#181818;stroke-width:0.5;" x1="8" x2="501.6221" y1="372.2681" y2="372.2681"/></g><!--class PCD_5482_msg_2--><g class="entity" data-entity="PCD_5482_msg_2" data-source-line="17" data-uid="ent0005" id="entity_PCD_5482_msg_2"><rect fill="#F1F1F1" height="145.7813" rx="2.5" ry="2.5" style="stroke:#181818;stroke-width:0.5;" width="495.6221" x="538" y="234.4869"/><ellipse cx="719.3848" cy="250.4869" fill="#ADD1B2" rx="11" ry="11" style="stroke:#181818;stroke-width:1;"/><path d="M722.3535,256.1275 Q721.7754,256.4244 721.1348,256.565 Q720.4941,256.7213 719.791,256.7213 Q717.291,256.7213 715.9629,255.0806 Q714.6504,253.4244 714.6504,250.2994 Q714.6504,247.1744 715.9629,245.5181 Q717.291,243.8619 719.791,243.8619 Q720.4941,243.8619 721.1348,244.0181 Q721.791,244.1744 722.3535,244.4713 L722.3535,247.19 Q721.7285,246.6119 721.1348,246.3463 Q720.541,246.065 719.916,246.065 Q718.5723,246.065 717.8848,247.1431 Q717.1973,248.2056 717.1973,250.2994 Q717.1973,252.3931 717.8848,253.4713 Q718.5723,254.5338 719.916,254.5338 Q720.541,254.5338 721.1348,254.2681 Q721.7285,253.9869 722.3535,253.4088 L722.3535,256.1275 Z " fill="#000000"/><text fill="#000000" font-family="sans-serif" font-size="14" lengthAdjust="spacing" textLength="124.3525" x="739.8848" y="255.3336">PCD_5482_msg_2</text><line style="stroke:#181818;stroke-width:0.5;" x1="539" x2="1032.6221" y1="266.4869" y2="266.4869"/><text fill="#000000" font-family="sans-serif" font-size="14" lengthAdjust="spacing" textLength="165.6484" x="544" y="283.482">Nachricht: INVOIC 2.8d.</text><text fill="#000000" font-family="sans-serif" font-size="14" lengthAdjust="spacing" textLength="123.0605" x="544" y="299.7789">Kontext: Beispiel:</text><text fill="#000000" font-family="sans-serif" font-size="14" lengthAdjust="spacing" textLength="91.4033" x="544" y="316.0757">Pflichtfeld: Ja</text><text fill="#000000" font-family="sans-serif" font-size="14" lengthAdjust="spacing" textLength="174.1523" x="544" y="332.3726">Codes: 10, 30, OCR, PCD</text><text fill="#000000" font-family="sans-serif" font-size="14" lengthAdjust="spacing" textLength="483.6221" x="544" y="348.6695">Prozesse: Netznutzungsabrechnung, Messstellenbetriebsabrechnung</text><text fill="#000000" font-family="sans-serif" font-size="14" lengthAdjust="spacing" textLength="290.3359" x="544" y="364.9664">Quelle: INVOIC_MIG_2_8d__20240619.pdf</text><line style="stroke:#181818;stroke-width:0.5;" x1="539" x2="1032.6221" y1="372.2681" y2="372.2681"/></g><!--class PCD_5482_proc_1--><g class="entity" data-entity="PCD_5482_proc_1" data-source-line="26" data-uid="ent0007" id="entity_PCD_5482_proc_1"><rect fill="#F1F1F1" height="105.1563" rx="2.5" ry="2.5" style="stroke:#181818;stroke-width:0.5;" width="752.6465" x="1068.49" y="254.7969"/><ellipse cx="1377.8435" cy="274.9297" fill="#ADD1B2" rx="11" ry="11" style="stroke:#181818;stroke-width:1;"/><path d="M1380.8123,280.5703 Q1380.2341,280.8672 1379.5935,281.0078 Q1378.9529,281.1641 1378.2498,281.1641 Q1375.7498,281.1641 1374.4216,279.5234 Q1373.1091,277.8672 1373.1091,274.7422 Q1373.1091,271.6172 1374.4216,269.9609 Q1375.7498,268.3047 1378.2498,268.3047 Q1378.9529,268.3047 1379.5935,268.4609 Q1380.2498,268.6172 1380.8123,268.9141 L1380.8123,271.6328 Q1380.1873,271.0547 1379.5935,270.7891 Q1378.9998,270.5078 1378.3748,270.5078 Q1377.031,270.5078 1376.3435,271.5859 Q1375.656,272.6484 1375.656,274.7422 Q1375.656,276.8359 1376.3435,277.9141 Q1377.031,278.9766 1378.3748,278.9766 Q1378.9998,278.9766 1379.5935,278.7109 Q1380.1873,278.4297 1380.8123,277.8516 L1380.8123,280.5703 Z " fill="#000000"/><text fill="#000000" font-family="sans-serif" font-size="12" font-style="italic" lengthAdjust="spacing" textLength="61.0605" x="1430.533" y="270.9355">&#171;process&#187;</text><text fill="#000000" font-family="sans-serif" font-size="14" lengthAdjust="spacing" textLength="125.4395" x="1398.3435" y="286.7607">PCD_5482_proc_1</text><line style="stroke:#181818;stroke-width:0.5;" x1="1069.49" x2="1820.1365" y1="295.0625" y2="295.0625"/><text fill="#000000" font-family="sans-serif" font-size="14" lengthAdjust="spacing" textLength="180.3457" x="1074.49" y="312.0576">Netznutzungsabrechnung</text><text fill="#000000" font-family="sans-serif" font-size="14" lengthAdjust="spacing" textLength="218.0938" x="1074.49" y="328.3545">Gesetze: StromNEV, StromNZV</text><text fill="#000000" font-family="sans-serif" font-size="14" lengthAdjust="spacing" textLength="740.6465" x="1074.49" y="344.6514">Zusammenfassung: Wie funktioniert die Netznutzungsabrechnung zwischen Netzbetreiber und Lieferant?</text><line style="stroke:#181818;stroke-width:0.5;" x1="1069.49" x2="1820.1365" y1="351.9531" y2="351.9531"/></g><!--class PCD_5482_proc_2--><g class="entity" data-entity="PCD_5482_proc_2" data-source-line="32" data-uid="ent0009" id="entity_PCD_5482_proc_2"><rect fill="#F1F1F1" height="105.1563" rx="2.5" ry="2.5" style="stroke:#181818;stroke-width:0.5;" width="690.2275" x="1855.7" y="254.7969"/><ellipse cx="2133.844" cy="274.9297" fill="#ADD1B2" rx="11" ry="11" style="stroke:#181818;stroke-width:1;"/><path d="M2136.8128,280.5703 Q2136.2347,280.8672 2135.594,281.0078 Q2134.9534,281.1641 2134.2503,281.1641 Q2131.7503,281.1641 2130.4222,279.5234 Q2129.1097,277.8672 2129.1097,274.7422 Q2129.1097,271.6172 2130.4222,269.9609 Q2131.7503,268.3047 2134.2503,268.3047 Q2134.9534,268.3047 2135.594,268.4609 Q2136.2503,268.6172 2136.8128,268.9141 L2136.8128,271.6328 Q2136.1878,271.0547 2135.594,270.7891 Q2135.0003,270.5078 2134.3753,270.5078 Q2133.0315,270.5078 2132.344,271.5859 Q2131.6565,272.6484 2131.6565,274.7422 Q2131.6565,276.8359 2132.344,277.9141 Q2133.0315,278.9766 2134.3753,278.9766 Q2135.0003,278.9766 2135.594,278.7109 Q2136.1878,278.4297 2136.8128,277.8516 L2136.8128,280.5703 Z " fill="#000000"/><text fill="#000000" font-family="sans-serif" font-size="12" font-style="italic" lengthAdjust="spacing" textLength="61.0605" x="2186.5335" y="270.9355">&#171;process&#187;</text><text fill="#000000" font-family="sans-serif" font-size="14" lengthAdjust="spacing" textLength="125.4395" x="2154.344" y="286.7607">PCD_5482_proc_2</text><line style="stroke:#181818;stroke-width:0.5;" x1="1856.7" x2="2544.9275" y1="295.0625" y2="295.0625"/><text fill="#000000" font-family="sans-serif" font-size="14" lengthAdjust="spacing" textLength="223.2822" x="1861.7" y="312.0576">Messstellenbetriebsabrechnung</text><text fill="#000000" font-family="sans-serif" font-size="14" lengthAdjust="spacing" textLength="105.0957" x="1861.7" y="328.3545">Gesetze: MsbG</text><text fill="#000000" font-family="sans-serif" font-size="14" lengthAdjust="spacing" textLength="678.2275" x="1861.7" y="344.6514">Zusammenfassung: Beschreibe den Prozess der Abrechnung von Messstellenbetriebsleistungen.</text><line style="stroke:#181818;stroke-width:0.5;" x1="1856.7" x2="2544.9275" y1="351.9531" y2="351.9531"/></g><!--link PCD_5482 to PCD_5482_msg_1--><g class="link" data-entity-1="PCD_5482" data-entity-2="PCD_5482_msg_1" data-source-line="16" data-uid="lnk4" id="link_PCD_5482_PCD_5482_msg_1"><path codeLine="16" d="M989.86,128.0969 C869.39,153.7669 682.13,194.6969 520.81,234.4869 C514.89,235.9469 514.7186,235.9726 508.6786,237.4926" fill="none" id="PCD_5482-to-PCD_5482_msg_1" style="stroke:#181818;stroke-width:1;"/><polygon fill="#181818" points="502.86,238.9569,512.5641,240.6395,507.7088,237.7366,510.6117,232.8814,502.86,238.9569" style="stroke:#181818;stroke-width:1;"/><text fill="#000000" font-family="sans-serif" font-size="13" lengthAdjust="spacing" textLength="85.2363" x="717.81" y="200.5538">verwendet in</text></g><!--link PCD_5482 to PCD_5482_msg_2--><g class="link" data-entity-1="PCD_5482" data-entity-2="PCD_5482_msg_2" data-source-line="25" data-uid="lnk6" id="link_PCD_5482_PCD_5482_msg_2"><path codeLine="25" d="M1024.91,157.7669 C987.05,181.2969 947.5959,205.8196 907.2759,230.8796" fill="none" id="PCD_5482-to-PCD_5482_msg_2" style="stroke:#181818;stroke-width:1;"/><polygon fill="#181818" points="902.18,234.0469,911.9354,232.6933,906.4266,231.4075,907.7124,225.8987,902.18,234.0469" style="stroke:#181818;stroke-width:1;"/><text fill="#000000" font-family="sans-serif" font-size="13" lengthAdjust="spacing" textLength="85.2363" x="971.81" y="200.5538">verwendet in</text></g><!--link PCD_5482 to PCD_5482_proc_1--><g class="link" data-entity-1="PCD_5482" data-entity-2="PCD_5482_proc_1" data-source-line="31" data-uid="lnk8" id="link_PCD_5482_PCD_5482_proc_1"><path codeLine="31" d="M1204.98,157.7669 C1253.65,187.9169 1308.2295,221.747 1355.8795,251.267" fill="none" id="PCD_5482-to-PCD_5482_proc_1" style="stroke:#181818;stroke-width:1;stroke-dasharray:7,7;"/><polygon fill="#181818" points="1360.98,254.4269,1355.4358,246.2867,1356.7296,251.7937,1351.2226,253.0874,1360.98,254.4269" style="stroke:#181818;stroke-width:1;"/><text fill="#000000" font-family="sans-serif" font-size="13" lengthAdjust="spacing" textLength="91.6221" x="1280.81" y="200.5538">eingebettet in</text></g><!--link PCD_5482 to PCD_5482_proc_2--><g class="link" data-entity-1="PCD_5482" data-entity-2="PCD_5482_proc_2" data-source-line="37" data-uid="lnk10" id="link_PCD_5482_PCD_5482_proc_2"><path codeLine="37" d="M1239.83,124.2069 C1384.23,150.1069 1628.88,194.4169 1838.81,234.4869 C1872.01,240.8269 1901.0125,246.4406 1935.4825,253.2106" fill="none" id="PCD_5482-to-PCD_5482_proc_2" style="stroke:#181818;stroke-width:1;stroke-dasharray:7,7;"/><polygon fill="#181818" points="1941.37,254.3669,1933.3096,248.7074,1936.4637,253.4033,1931.7678,256.5574,1941.37,254.3669" style="stroke:#181818;stroke-width:1;"/><text fill="#000000" font-family="sans-serif" font-size="13" lengthAdjust="spacing" textLength="91.6221" x="1661.81" y="200.5538">eingebettet in</text></g><!--SRC=[pP9TJzim58Rl-HNd1xHH4px4B5G4PLJTriA6L2Hk8YSvQQmwTcMVm1R4V-Uuww2YBRtTHQJpvPptUMrIf16k9A6HfAM7BjmEhiJnqMboa7FkGvg659uF02QoHW6tphPeo4jgkRRCl4V1CV3v2L9h6ceRC_CoSvXNXiDLSyoJdb1hD1cIKvYjpxnys9dMVfR6gyrvvLHUaO3HP7ep6a0IdHRS-6uDuMykt-6iPbLQ_h4D1Lsb3lCbwaB0DycLWItG2uXx7JZaxsRmgnDMhJFiKD_P8npWPnDw_yIbuz4m3GBJQwmqkhbr3kVKk3Jf9SUz-32E5aN9l6_kThlzZzW27j4zeIcGG9bjrYIVM1EjUtE9oYyKQl5V-9AoBy68ezv9_6Ml4SaU8nREvkpMsLa8M4s__zULNSzmY9vRBEcEdAqdNwUTLVGmvUv3usNDxwZa7Jmlu5uXb8sPax96eICekB3zvz0-APzNQ9RzO0Ug31qqfe0V2ajqqj3vEcmKzJT01A0oC-JZj9itsU3TTn5ls6EV3RU1NY9hNog6WX5MLy-nWujtn4ThjgtI_C28-sYYp_cI3RvN]--></g></svg>