<svg xmlns="http://www.w3.org/2000/svg" xmlns:xlink="http://www.w3.org/1999/xlink" contentStyleType="text/css" data-diagram-type="CLASS" height="387px" preserveAspectRatio="none" style="width:2021px;height:387px;background:#FFFFFF;" version="1.1" viewBox="0 0 2021 387" width="2021px" zoomAndPan="magnify"><title>Datenatlas - PCD:1810</title><defs/><g><g class="title" data-source-line="1"><text fill="#000000" font-family="sans-serif" font-size="14" font-weight="bold" lengthAdjust="spacing" textLength="178.2197" x="914.8539" y="22.9951">Datenatlas - PCD:1810</text></g><!--class PCD_1810--><g class="entity" data-entity="PCD_1810" data-source-line="2" data-uid="ent0002" id="entity_PCD_1810"><rect fill="#F1F1F1" height="113.1875" rx="2.5" ry="2.5" style="stroke:#181818;stroke-width:0.5;" width="286.6475" x="770.49" y="44.2969"/><ellipse cx="873.7503" cy="60.2969" fill="#ADD1B2" rx="11" ry="11" style="stroke:#181818;stroke-width:1;"/><path d="M876.719,65.9375 Q876.1409,66.2344 875.5003,66.375 Q874.8596,66.5313 874.1565,66.5313 Q871.6565,66.5313 870.3284,64.8906 Q869.0159,63.2344 869.0159,60.1094 Q869.0159,56.9844 870.3284,55.3281 Q871.6565,53.6719 874.1565,53.6719 Q874.8596,53.6719 875.5003,53.8281 Q876.1565,53.9844 876.719,54.2813 L876.719,57 Q876.094,56.4219 875.5003,56.1563 Q874.9065,55.875 874.2815,55.875 Q872.9378,55.875 872.2503,56.9531 Q871.5628,58.0156 871.5628,60.1094 Q871.5628,62.2031 872.2503,63.2813 Q872.9378,64.3438 874.2815,64.3438 Q874.9065,64.3438 875.5003,64.0781 Q876.094,63.7969 876.719,63.2188 L876.719,65.9375 Z " fill="#000000"/><text fill="#000000" font-family="sans-serif" font-size="14" lengthAdjust="spacing" textLength="71.627" x="894.2503" y="65.1436">PCD_1810</text><line style="stroke:#181818;stroke-width:0.5;" x1="771.49" x2="1056.1375" y1="76.2969" y2="76.2969"/><text fill="#000000" font-family="sans-serif" font-size="14" lengthAdjust="spacing" textLength="260.6475" x="790.49" y="93.292">Name: Prozentangabe des Zuschlags</text><text fill="#000000" font-family="sans-serif" font-size="14" lengthAdjust="spacing" textLength="66.6436" x="790.49" y="109.5889">Prozesse:</text><rect fill="none" height="6" style="stroke:#C82930;stroke-width:1;" width="6" x="778.49" y="119.5391"/><text fill="#000000" font-family="sans-serif" font-size="14" lengthAdjust="spacing" textLength="180.3457" x="790.49" y="125.8857">Netznutzungsabrechnung</text><rect fill="none" height="6" style="stroke:#C82930;stroke-width:1;" width="6" x="778.49" y="135.8359"/><text fill="#000000" font-family="sans-serif" font-size="14" lengthAdjust="spacing" textLength="223.2822" x="790.49" y="142.1826">Messstellenbetriebsabrechnung</text><line style="stroke:#181818;stroke-width:0.5;" x1="771.49" x2="1056.1375" y1="149.4844" y2="149.4844"/></g><!--class PCD_1810_msg_1--><g class="entity" data-entity="PCD_1810_msg_1" data-source-line="8" data-uid="ent0003" id="entity_PCD_1810_msg_1"><rect fill="#F1F1F1" height="145.7813" rx="2.5" ry="2.5" style="stroke:#181818;stroke-width:0.5;" width="495.6221" x="7" y="234.4869"/><ellipse cx="188.3848" cy="250.4869" fill="#ADD1B2" rx="11" ry="11" style="stroke:#181818;stroke-width:1;"/><path d="M191.3535,256.1275 Q190.7754,256.4244 190.1348,256.565 Q189.4941,256.7213 188.791,256.7213 Q186.291,256.7213 184.9629,255.0806 Q183.6504,253.4244 183.6504,250.2994 Q183.6504,247.1744 184.9629,245.5181 Q186.291,243.8619 188.791,243.8619 Q189.4941,243.8619 190.1348,244.0181 Q190.791,244.1744 191.3535,244.4713 L191.3535,247.19 Q190.7285,246.6119 190.1348,246.3463 Q189.541,246.065 188.916,246.065 Q187.5723,246.065 186.8848,247.1431 Q186.1973,248.2056 186.1973,250.2994 Q186.1973,252.3931 186.8848,253.4713 Q187.5723,254.5338 188.916,254.5338 Q189.541,254.5338 190.1348,254.2681 Q190.7285,253.9869 191.3535,253.4088 L191.3535,256.1275 Z " fill="#000000"/><text fill="#000000" font-family="sans-serif" font-size="14" lengthAdjust="spacing" textLength="124.3525" x="208.8848" y="255.3336">PCD_1810_msg_1</text><line style="stroke:#181818;stroke-width:0.5;" x1="8" x2="501.6221" y1="266.4869" y2="266.4869"/><text fill="#000000" font-family="sans-serif" font-size="14" lengthAdjust="spacing" textLength="165.6484" x="13" y="283.482">Nachricht: INVOIC 2.8d.</text><text fill="#000000" font-family="sans-serif" font-size="14" lengthAdjust="spacing" textLength="204.1143" x="13" y="299.7789">Kontext: Nachrichtenstruktur</text><text fill="#000000" font-family="sans-serif" font-size="14" lengthAdjust="spacing" textLength="91.4033" x="13" y="316.0757">Pflichtfeld: Ja</text><text fill="#000000" font-family="sans-serif" font-size="14" lengthAdjust="spacing" textLength="116.9219" x="13" y="332.3726">Codes: 100, PCD</text><text fill="#000000" font-family="sans-serif" font-size="14" lengthAdjust="spacing" textLength="483.6221" x="13" y="348.6695">Prozesse: Netznutzungsabrechnung, Messstellenbetriebsabrechnung</text><text fill="#000000" font-family="sans-serif" font-size="14" lengthAdjust="spacing" textLength="290.3359" x="13" y="364.9664">Quelle: INVOIC_MIG_2_8d__20240619.pdf</text><line style="stroke:#181818;stroke-width:0.5;" x1="8" x2="501.6221" y1="372.2681" y2="372.2681"/></g><!--class PCD_1810_proc_1--><g class="entity" data-entity="PCD_1810_proc_1" data-source-line="17" data-uid="ent0005" id="entity_PCD_1810_proc_1"><rect fill="#F1F1F1" height="105.1563" rx="2.5" ry="2.5" style="stroke:#181818;stroke-width:0.5;" width="752.6465" x="537.49" y="254.7969"/><ellipse cx="846.8435" cy="274.9297" fill="#ADD1B2" rx="11" ry="11" style="stroke:#181818;stroke-width:1;"/><path d="M849.8123,280.5703 Q849.2341,280.8672 848.5935,281.0078 Q847.9529,281.1641 847.2498,281.1641 Q844.7498,281.1641 843.4216,279.5234 Q842.1091,277.8672 842.1091,274.7422 Q842.1091,271.6172 843.4216,269.9609 Q844.7498,268.3047 847.2498,268.3047 Q847.9529,268.3047 848.5935,268.4609 Q849.2498,268.6172 849.8123,268.9141 L849.8123,271.6328 Q849.1873,271.0547 848.5935,270.7891 Q847.9998,270.5078 847.3748,270.5078 Q846.031,270.5078 845.3435,271.5859 Q844.656,272.6484 844.656,274.7422 Q844.656,276.8359 845.3435,277.9141 Q846.031,278.9766 847.3748,278.9766 Q847.9998,278.9766 848.5935,278.7109 Q849.1873,278.4297 849.8123,277.8516 L849.8123,280.5703 Z " fill="#000000"/><text fill="#000000" font-family="sans-serif" font-size="12" font-style="italic" lengthAdjust="spacing" textLength="61.0605" x="899.533" y="270.9355">&#171;process&#187;</text><text fill="#000000" font-family="sans-serif" font-size="14" lengthAdjust="spacing" textLength="125.4395" x="867.3435" y="286.7607">PCD_1810_proc_1</text><line style="stroke:#181818;stroke-width:0.5;" x1="538.49" x2="1289.1365" y1="295.0625" y2="295.0625"/><text fill="#000000" font-family="sans-serif" font-size="14" lengthAdjust="spacing" textLength="180.3457" x="543.49" y="312.0576">Netznutzungsabrechnung</text><text fill="#000000" font-family="sans-serif" font-size="14" lengthAdjust="spacing" textLength="218.0938" x="543.49" y="328.3545">Gesetze: StromNEV, StromNZV</text><text fill="#000000" font-family="sans-serif" font-size="14" lengthAdjust="spacing" textLength="740.6465" x="543.49" y="344.6514">Zusammenfassung: Wie funktioniert die Netznutzungsabrechnung zwischen Netzbetreiber und Lieferant?</text><line style="stroke:#181818;stroke-width:0.5;" x1="538.49" x2="1289.1365" y1="351.9531" y2="351.9531"/></g><!--class PCD_1810_proc_2--><g class="entity" data-entity="PCD_1810_proc_2" data-source-line="23" data-uid="ent0007" id="entity_PCD_1810_proc_2"><rect fill="#F1F1F1" height="105.1563" rx="2.5" ry="2.5" style="stroke:#181818;stroke-width:0.5;" width="690.2275" x="1324.7" y="254.7969"/><ellipse cx="1602.844" cy="274.9297" fill="#ADD1B2" rx="11" ry="11" style="stroke:#181818;stroke-width:1;"/><path d="M1605.8128,280.5703 Q1605.2347,280.8672 1604.594,281.0078 Q1603.9534,281.1641 1603.2503,281.1641 Q1600.7503,281.1641 1599.4222,279.5234 Q1598.1097,277.8672 1598.1097,274.7422 Q1598.1097,271.6172 1599.4222,269.9609 Q1600.7503,268.3047 1603.2503,268.3047 Q1603.9534,268.3047 1604.594,268.4609 Q1605.2503,268.6172 1605.8128,268.9141 L1605.8128,271.6328 Q1605.1878,271.0547 1604.594,270.7891 Q1604.0003,270.5078 1603.3753,270.5078 Q1602.0315,270.5078 1601.344,271.5859 Q1600.6565,272.6484 1600.6565,274.7422 Q1600.6565,276.8359 1601.344,277.9141 Q1602.0315,278.9766 1603.3753,278.9766 Q1604.0003,278.9766 1604.594,278.7109 Q1605.1878,278.4297 1605.8128,277.8516 L1605.8128,280.5703 Z " fill="#000000"/><text fill="#000000" font-family="sans-serif" font-size="12" font-style="italic" lengthAdjust="spacing" textLength="61.0605" x="1655.5335" y="270.9355">&#171;process&#187;</text><text fill="#000000" font-family="sans-serif" font-size="14" lengthAdjust="spacing" textLength="125.4395" x="1623.344" y="286.7607">PCD_1810_proc_2</text><line style="stroke:#181818;stroke-width:0.5;" x1="1325.7" x2="2013.9275" y1="295.0625" y2="295.0625"/><text fill="#000000" font-family="sans-serif" font-size="14" lengthAdjust="spacing" textLength="223.2822" x="1330.7" y="312.0576">Messstellenbetriebsabrechnung</text><text fill="#000000" font-family="sans-serif" font-size="14" lengthAdjust="spacing" textLength="105.0957" x="1330.7" y="328.3545">Gesetze: MsbG</text><text fill="#000000" font-family="sans-serif" font-size="14" lengthAdjust="spacing" textLength="678.2275" x="1330.7" y="344.6514">Zusammenfassung: Beschreibe den Prozess der Abrechnung von Messstellenbetriebsleistungen.</text><line style="stroke:#181818;stroke-width:0.5;" x1="1325.7" x2="2013.9275" y1="351.9531" y2="351.9531"/></g><!--link PCD_1810 to PCD_1810_msg_1--><g class="link" data-entity-1="PCD_1810" data-entity-2="PCD_1810_msg_1" data-source-line="16" data-uid="lnk4" id="link_PCD_1810_PCD_1810_msg_1"><path codeLine="16" d="M770.01,146.5169 C687.54,172.1069 587.7604,203.0586 493.7304,232.2386" fill="none" id="PCD_1810-to-PCD_1810_msg_1" style="stroke:#181818;stroke-width:1;"/><polygon fill="#181818" points="488,234.0169,497.7812,235.1697,492.7753,232.535,495.4101,227.5291,488,234.0169" style="stroke:#181818;stroke-width:1;"/><text fill="#000000" font-family="sans-serif" font-size="13" lengthAdjust="spacing" textLength="85.2363" x="624.81" y="200.5538">verwendet in</text></g><!--link PCD_1810 to PCD_1810_proc_1--><g class="link" data-entity-1="PCD_1810" data-entity-2="PCD_1810_proc_1" data-source-line="22" data-uid="lnk6" id="link_PCD_1810_PCD_1810_proc_1"><path codeLine="22" d="M913.81,157.7669 C913.81,187.9169 913.81,218.9069 913.81,248.4269" fill="none" id="PCD_1810-to-PCD_1810_proc_1" style="stroke:#181818;stroke-width:1;stroke-dasharray:7,7;"/><polygon fill="#181818" points="913.81,254.4269,917.81,245.4269,913.81,249.4269,909.81,245.4269,913.81,254.4269" style="stroke:#181818;stroke-width:1;"/><text fill="#000000" font-family="sans-serif" font-size="13" lengthAdjust="spacing" textLength="91.6221" x="914.81" y="200.5538">eingebettet in</text></g><!--link PCD_1810 to PCD_1810_proc_2--><g class="link" data-entity-1="PCD_1810" data-entity-2="PCD_1810_proc_2" data-source-line="28" data-uid="lnk8" id="link_PCD_1810_PCD_1810_proc_2"><path codeLine="28" d="M1057.34,140.7169 C1176.39,172.9169 1340.9382,217.4202 1471.7682,252.8102" fill="none" id="PCD_1810-to-PCD_1810_proc_2" style="stroke:#181818;stroke-width:1;stroke-dasharray:7,7;"/><polygon fill="#181818" points="1477.56,254.3769,1469.9167,248.1656,1472.7335,253.0713,1467.8278,255.888,1477.56,254.3769" style="stroke:#181818;stroke-width:1;"/><text fill="#000000" font-family="sans-serif" font-size="13" lengthAdjust="spacing" textLength="91.6221" x="1292.81" y="200.5538">eingebettet in</text></g><!--SRC=[XPBVJi9G3CRlVOe-02pROWoU68oY8QYWnWGJRvQphHidR1qvfmE3yTtj497mH-_QVjtfzsl7XWk46yr8cWlje0rFlHiLT0B_997SDMdKfF1n0Z3I9IfuijKIYJNbEaP8qS5RxP99eNCdFIlLELGIWxmtGbvIpSkQSgTZYyc495oBG-bqZ4M152DRW_5sp-UEXwXqUHIidIGJQv89AnYCne-37eHU9_L4kQ-8yLtgcnOanxQUScqRUrdHr38iKWLtMYgzIX0K1BxVQYPj8nmnt_h7Dy1ptMW_tgBXe1-5KIUDej0FJ_spuDoRfPdmRRRRRdTtCHNCqIwGKcGmjBkAcQqIQRguQ09nq-r-x-NOjlleH19BBsohSdGxRgsZjx6eSa1TbaYPp91-1Qy68QjfogOYWvOXbSBXns6vC79-f9NUh0DDZ1PgIk71O8PM4rzkmtfUTmz40HhAKJxduxpX7kz_XzXW3rtSFmHwZU9zvLZ-PFevlSGMhduHvnKT6bMWSImwalStNxZ7zmK0]--></g></svg>