<svg xmlns="http://www.w3.org/2000/svg" xmlns:xlink="http://www.w3.org/1999/xlink" contentStyleType="text/css" data-diagram-type="CLASS" height="370px" preserveAspectRatio="none" style="width:1330px;height:370px;background:#FFFFFF;" version="1.1" viewBox="0 0 1330 370" width="1330px" zoomAndPan="magnify"><title>Datenatlas - PIA:1330</title><defs/><g><g class="title" data-source-line="1"><text fill="#000000" font-family="sans-serif" font-size="14" font-weight="bold" lengthAdjust="spacing" textLength="172.3682" x="572.1142" y="22.9951">Datenatlas - PIA:1330</text></g><!--class PIA_1330--><g class="entity" data-entity="PIA_1330" data-source-line="2" data-uid="ent0002" id="entity_PIA_1330"><rect fill="#F1F1F1" height="96.8906" rx="2.5" ry="2.5" style="stroke:#181818;stroke-width:0.5;" width="222.8203" x="497.86" y="44.2969"/><ellipse cx="572.6315" cy="60.2969" fill="#ADD1B2" rx="11" ry="11" style="stroke:#181818;stroke-width:1;"/><path d="M575.6002,65.9375 Q575.0221,66.2344 574.3815,66.375 Q573.7409,66.5313 573.0377,66.5313 Q570.5377,66.5313 569.2096,64.8906 Q567.8971,63.2344 567.8971,60.1094 Q567.8971,56.9844 569.2096,55.3281 Q570.5377,53.6719 573.0377,53.6719 Q573.7409,53.6719 574.3815,53.8281 Q575.0377,53.9844 575.6002,54.2813 L575.6002,57 Q574.9752,56.4219 574.3815,56.1563 Q573.7877,55.875 573.1627,55.875 Q571.819,55.875 571.1315,56.9531 Q570.444,58.0156 570.444,60.1094 Q570.444,62.2031 571.1315,63.2813 Q571.819,64.3438 573.1627,64.3438 Q573.7877,64.3438 574.3815,64.0781 Q574.9752,63.7969 575.6002,63.2188 L575.6002,65.9375 Z " fill="#000000"/><text fill="#000000" font-family="sans-serif" font-size="14" lengthAdjust="spacing" textLength="64.7773" x="593.1315" y="65.1436">PIA_1330</text><line style="stroke:#181818;stroke-width:0.5;" x1="498.86" x2="719.6803" y1="76.2969" y2="76.2969"/><text fill="#000000" font-family="sans-serif" font-size="14" lengthAdjust="spacing" textLength="196.8203" x="517.86" y="93.292">Name: Preisschl&#252;sselstamm</text><text fill="#000000" font-family="sans-serif" font-size="14" lengthAdjust="spacing" textLength="66.6436" x="517.86" y="109.5889">Prozesse:</text><rect fill="none" height="6" style="stroke:#C82930;stroke-width:1;" width="6" x="505.86" y="119.5391"/><text fill="#000000" font-family="sans-serif" font-size="14" lengthAdjust="spacing" textLength="180.3457" x="517.86" y="125.8857">Netznutzungsabrechnung</text><line style="stroke:#181818;stroke-width:0.5;" x1="498.86" x2="719.6803" y1="133.1875" y2="133.1875"/></g><!--class PIA_1330_msg_1--><g class="entity" data-entity="PIA_1330_msg_1" data-source-line="7" data-uid="ent0003" id="entity_PIA_1330_msg_1"><rect fill="#F1F1F1" height="145.7813" rx="2.5" ry="2.5" style="stroke:#181818;stroke-width:0.5;" width="528.5371" x="7" y="218.1869"/><ellipse cx="208.2671" cy="234.1869" fill="#ADD1B2" rx="11" ry="11" style="stroke:#181818;stroke-width:1;"/><path d="M211.2358,239.8275 Q210.6577,240.1244 210.0171,240.265 Q209.3765,240.4213 208.6733,240.4213 Q206.1733,240.4213 204.8452,238.7806 Q203.5327,237.1244 203.5327,233.9994 Q203.5327,230.8744 204.8452,229.2181 Q206.1733,227.5619 208.6733,227.5619 Q209.3765,227.5619 210.0171,227.7181 Q210.6733,227.8744 211.2358,228.1713 L211.2358,230.89 Q210.6108,230.3119 210.0171,230.0463 Q209.4233,229.765 208.7983,229.765 Q207.4546,229.765 206.7671,230.8431 Q206.0796,231.9056 206.0796,233.9994 Q206.0796,236.0931 206.7671,237.1713 Q207.4546,238.2338 208.7983,238.2338 Q209.4233,238.2338 210.0171,237.9681 Q210.6108,237.6869 211.2358,237.1088 L211.2358,239.8275 Z " fill="#000000"/><text fill="#000000" font-family="sans-serif" font-size="14" lengthAdjust="spacing" textLength="117.5029" x="228.7671" y="239.0336">PIA_1330_msg_1</text><line style="stroke:#181818;stroke-width:0.5;" x1="8" x2="534.5371" y1="250.1869" y2="250.1869"/><text fill="#000000" font-family="sans-serif" font-size="14" lengthAdjust="spacing" textLength="162.2988" x="13" y="267.182">Nachricht: PRICAT 2.0d</text><text fill="#000000" font-family="sans-serif" font-size="14" lengthAdjust="spacing" textLength="516.5371" x="13" y="283.4789">Kontext: 1310   SG36   C   R   999999   999999   2   LIN - PIA - IMD - SG40</text><text fill="#000000" font-family="sans-serif" font-size="14" lengthAdjust="spacing" textLength="110.5439" x="13" y="299.7757">Pflichtfeld: Nein</text><text fill="#000000" font-family="sans-serif" font-size="14" lengthAdjust="spacing" textLength="101.165" x="13" y="316.0726">Codes: 99, PIA</text><text fill="#000000" font-family="sans-serif" font-size="14" lengthAdjust="spacing" textLength="251.4395" x="13" y="332.3695">Prozesse: Netznutzungsabrechnung</text><text fill="#000000" font-family="sans-serif" font-size="14" lengthAdjust="spacing" textLength="284.4365" x="13" y="348.6664">Quelle: PRICAT_MIG_2_0d_20240619.pdf</text><line style="stroke:#181818;stroke-width:0.5;" x1="8" x2="534.5371" y1="355.9681" y2="355.9681"/></g><!--class PIA_1330_proc_1--><g class="entity" data-entity="PIA_1330_proc_1" data-source-line="16" data-uid="ent0005" id="entity_PIA_1330_proc_1"><rect fill="#F1F1F1" height="105.1563" rx="2.5" ry="2.5" style="stroke:#181818;stroke-width:0.5;" width="752.6465" x="570.95" y="238.4969"/><ellipse cx="883.7283" cy="258.6297" fill="#ADD1B2" rx="11" ry="11" style="stroke:#181818;stroke-width:1;"/><path d="M886.6971,264.2703 Q886.1189,264.5672 885.4783,264.7078 Q884.8377,264.8641 884.1346,264.8641 Q881.6346,264.8641 880.3064,263.2234 Q878.9939,261.5672 878.9939,258.4422 Q878.9939,255.3172 880.3064,253.6609 Q881.6346,252.0047 884.1346,252.0047 Q884.8377,252.0047 885.4783,252.1609 Q886.1346,252.3172 886.6971,252.6141 L886.6971,255.3328 Q886.0721,254.7547 885.4783,254.4891 Q884.8846,254.2078 884.2596,254.2078 Q882.9158,254.2078 882.2283,255.2859 Q881.5408,256.3484 881.5408,258.4422 Q881.5408,260.5359 882.2283,261.6141 Q882.9158,262.6766 884.2596,262.6766 Q884.8846,262.6766 885.4783,262.4109 Q886.0721,262.1297 886.6971,261.5516 L886.6971,264.2703 Z " fill="#000000"/><text fill="#000000" font-family="sans-serif" font-size="12" font-style="italic" lengthAdjust="spacing" textLength="61.0605" x="932.993" y="254.6355">&#171;process&#187;</text><text fill="#000000" font-family="sans-serif" font-size="14" lengthAdjust="spacing" textLength="118.5898" x="904.2283" y="270.4607">PIA_1330_proc_1</text><line style="stroke:#181818;stroke-width:0.5;" x1="571.95" x2="1322.5965" y1="278.7625" y2="278.7625"/><text fill="#000000" font-family="sans-serif" font-size="14" lengthAdjust="spacing" textLength="180.3457" x="576.95" y="295.7576">Netznutzungsabrechnung</text><text fill="#000000" font-family="sans-serif" font-size="14" lengthAdjust="spacing" textLength="218.0938" x="576.95" y="312.0545">Gesetze: StromNEV, StromNZV</text><text fill="#000000" font-family="sans-serif" font-size="14" lengthAdjust="spacing" textLength="740.6465" x="576.95" y="328.3514">Zusammenfassung: Wie funktioniert die Netznutzungsabrechnung zwischen Netzbetreiber und Lieferant?</text><line style="stroke:#181818;stroke-width:0.5;" x1="571.95" x2="1322.5965" y1="335.6531" y2="335.6531"/></g><!--link PIA_1330 to PIA_1330_msg_1--><g class="link" data-entity-1="PIA_1330" data-entity-2="PIA_1330_msg_1" data-source-line="15" data-uid="lnk4" id="link_PIA_1330_PIA_1330_msg_1"><path codeLine="15" d="M527.02,141.5169 C487.54,164.4469 444.5984,189.3935 400.7784,214.8435" fill="none" id="PIA_1330-to-PIA_1330_msg_1" style="stroke:#181818;stroke-width:1;"/><polygon fill="#181818" points="395.59,217.8569,405.3815,216.7958,399.9137,215.3457,401.3637,209.8779,395.59,217.8569" style="stroke:#181818;stroke-width:1;"/><text fill="#000000" font-family="sans-serif" font-size="13" lengthAdjust="spacing" textLength="85.2363" x="472.27" y="184.2538">verwendet in</text></g><!--link PIA_1330 to PIA_1330_proc_1--><g class="link" data-entity-1="PIA_1330" data-entity-2="PIA_1330_proc_1" data-source-line="21" data-uid="lnk6" id="link_PIA_1330_PIA_1330_proc_1"><path codeLine="21" d="M691.52,141.5169 C741.84,170.7469 801.0419,205.133 852.6319,235.103" fill="none" id="PIA_1330-to-PIA_1330_proc_1" style="stroke:#181818;stroke-width:1;stroke-dasharray:7,7;"/><polygon fill="#181818" points="857.82,238.1169,852.0471,230.1373,853.4966,235.6053,848.0286,237.0548,857.82,238.1169" style="stroke:#181818;stroke-width:1;"/><text fill="#000000" font-family="sans-serif" font-size="13" lengthAdjust="spacing" textLength="91.6221" x="769.27" y="184.2538">eingebettet in</text></g><!--SRC=[TLBRQi9047ttA-O3D2HH18DOH4i8LR5QBFWIOZ8nIvEDx6vgiVJF-jOVwudQ8hO6PZENtJFdpAuH9cSQHuPbPF98KulcmT1pscsx4IFMTHZM8RqtY6PHmHxD5Gkjuop_-jIQSssYea1nhie38-719m3Ds1naPGwLtEfeepZE9Dp6nnLmMEXjw9pXuqo9E3FeiGX6moToBJj1uQ6KXj-GTjgE3V2bt-xYDu8jOBtZT-cui4amEyd16ap7M9T-nww9fddT9EKyyS1IIEH6PSBQ0q2pFd6fvfOEeiUAyvn_k8RJm0_Tq4v2rtOxTjVfMRiaXTpV2RPQWslL7hsoshDCs11uN4rcfyeOc_hzsW6PmU0qfbk4VDOeWT7IgBAOtQ-QPs-zGdLTQLmKonGziD-ZPy6KLlB5Y58ALeOI9Fu7fyDUuCPP7kiRDdW26rPKoOGcWbDMaJHtbs8jQ_17Y4SOzfPnt1prVWC0]--></g></svg>