<svg xmlns="http://www.w3.org/2000/svg" xmlns:xlink="http://www.w3.org/1999/xlink" contentStyleType="text/css" data-diagram-type="CLASS" height="419px" preserveAspectRatio="none" style="width:5702px;height:419px;background:#FFFFFF;" version="1.1" viewBox="0 0 5702 419" width="5702px" zoomAndPan="magnify"><title>Datenatlas - PIA:7143</title><defs/><g><g class="title" data-source-line="1"><text fill="#000000" font-family="sans-serif" font-size="14" font-weight="bold" lengthAdjust="spacing" textLength="172.3682" x="2758.0555" y="22.9951">Datenatlas - PIA:7143</text></g><!--class PIA_7143--><g class="entity" data-entity="PIA_7143" data-source-line="2" data-uid="ent0002" id="entity_PIA_7143"><rect fill="#F1F1F1" height="145.7813" rx="2.5" ry="2.5" style="stroke:#181818;stroke-width:0.5;" width="374.2021" x="2086.39" y="44.2969"/><ellipse cx="2236.8524" cy="60.2969" fill="#ADD1B2" rx="11" ry="11" style="stroke:#181818;stroke-width:1;"/><path d="M2239.8212,65.9375 Q2239.243,66.2344 2238.6024,66.375 Q2237.9618,66.5313 2237.2587,66.5313 Q2234.7587,66.5313 2233.4305,64.8906 Q2232.118,63.2344 2232.118,60.1094 Q2232.118,56.9844 2233.4305,55.3281 Q2234.7587,53.6719 2237.2587,53.6719 Q2237.9618,53.6719 2238.6024,53.8281 Q2239.2587,53.9844 2239.8212,54.2813 L2239.8212,57 Q2239.1962,56.4219 2238.6024,56.1563 Q2238.0087,55.875 2237.3837,55.875 Q2236.0399,55.875 2235.3524,56.9531 Q2234.6649,58.0156 2234.6649,60.1094 Q2234.6649,62.2031 2235.3524,63.2813 Q2236.0399,64.3438 2237.3837,64.3438 Q2238.0087,64.3438 2238.6024,64.0781 Q2239.1962,63.7969 2239.8212,63.2188 L2239.8212,65.9375 Z " fill="#000000"/><text fill="#000000" font-family="sans-serif" font-size="14" lengthAdjust="spacing" textLength="64.7773" x="2257.3524" y="65.1436">PIA_7143</text><line style="stroke:#181818;stroke-width:0.5;" x1="2087.39" x2="2459.5921" y1="76.2969" y2="76.2969"/><text fill="#000000" font-family="sans-serif" font-size="14" lengthAdjust="spacing" textLength="342.9316" x="2106.39" y="93.292">Name: Art der Produkt-/ Leistungsnummer, Code</text><text fill="#000000" font-family="sans-serif" font-size="14" lengthAdjust="spacing" textLength="66.6436" x="2106.39" y="109.5889">Prozesse:</text><rect fill="none" height="6" style="stroke:#C82930;stroke-width:1;" width="6" x="2094.39" y="119.5391"/><text fill="#000000" font-family="sans-serif" font-size="14" lengthAdjust="spacing" textLength="334.3525" x="2106.39" y="125.8857">Anforderung und &#220;bermittlung von Messwerten</text><rect fill="none" height="6" style="stroke:#C82930;stroke-width:1;" width="6" x="2094.39" y="135.8359"/><text fill="#000000" font-family="sans-serif" font-size="14" lengthAdjust="spacing" textLength="180.3457" x="2106.39" y="142.1826">Netznutzungsabrechnung</text><rect fill="none" height="6" style="stroke:#C82930;stroke-width:1;" width="6" x="2094.39" y="152.1328"/><text fill="#000000" font-family="sans-serif" font-size="14" lengthAdjust="spacing" textLength="317.9668" x="2106.39" y="158.4795">Sperrung und Entsperrung eines Anschlusses</text><line style="stroke:#181818;stroke-width:0.5;" x1="2087.39" x2="2459.5921" y1="165.7813" y2="165.7813"/><rect fill="#F24D5C" height="6" style="stroke:#C82930;stroke-width:1;" width="6" x="2094.39" y="176.4297"/><text fill="#000000" font-family="sans-serif" font-size="14" lengthAdjust="spacing" textLength="348.2021" x="2106.39" y="182.7764">Bestellung einer technischen Konfiguration (MSB)</text></g><!--class PIA_7143_msg_1--><g class="entity" data-entity="PIA_7143_msg_1" data-source-line="10" data-uid="ent0003" id="entity_PIA_7143_msg_1"><rect fill="#F1F1F1" height="145.7813" rx="2.5" ry="2.5" style="stroke:#181818;stroke-width:0.5;" width="438.9727" x="7" y="267.0769"/><ellipse cx="163.4849" cy="283.0769" fill="#ADD1B2" rx="11" ry="11" style="stroke:#181818;stroke-width:1;"/><path d="M166.4536,288.7175 Q165.8755,289.0144 165.2349,289.155 Q164.5942,289.3113 163.8911,289.3113 Q161.3911,289.3113 160.063,287.6706 Q158.7505,286.0144 158.7505,282.8894 Q158.7505,279.7644 160.063,278.1081 Q161.3911,276.4519 163.8911,276.4519 Q164.5942,276.4519 165.2349,276.6081 Q165.8911,276.7644 166.4536,277.0613 L166.4536,279.78 Q165.8286,279.2019 165.2349,278.9363 Q164.6411,278.655 164.0161,278.655 Q162.6724,278.655 161.9849,279.7331 Q161.2974,280.7956 161.2974,282.8894 Q161.2974,284.9831 161.9849,286.0613 Q162.6724,287.1238 164.0161,287.1238 Q164.6411,287.1238 165.2349,286.8581 Q165.8286,286.5769 166.4536,285.9988 L166.4536,288.7175 Z " fill="#000000"/><text fill="#000000" font-family="sans-serif" font-size="14" lengthAdjust="spacing" textLength="117.5029" x="183.9849" y="287.9236">PIA_7143_msg_1</text><line style="stroke:#181818;stroke-width:0.5;" x1="8" x2="444.9727" y1="299.0769" y2="299.0769"/><text fill="#000000" font-family="sans-serif" font-size="14" lengthAdjust="spacing" textLength="172.0264" x="13" y="316.072">Nachricht: MSCONS 2.4c</text><text fill="#000000" font-family="sans-serif" font-size="14" lengthAdjust="spacing" textLength="426.9727" x="13" y="332.3689">Kontext: Beispiel einer Produktidentifikation mittels Medium:</text><text fill="#000000" font-family="sans-serif" font-size="14" lengthAdjust="spacing" textLength="110.5439" x="13" y="348.6657">Pflichtfeld: Nein</text><text fill="#000000" font-family="sans-serif" font-size="14" lengthAdjust="spacing" textLength="422.5361" x="13" y="364.9626">Codes: 27, 35, OCR, PIA, SG, SG5, SG6, SG9, SRW, Z02, Z08</text><text fill="#000000" font-family="sans-serif" font-size="14" lengthAdjust="spacing" textLength="405.4463" x="13" y="381.2595">Prozesse: Anforderung und &#220;bermittlung von Messwerten</text><text fill="#000000" font-family="sans-serif" font-size="14" lengthAdjust="spacing" textLength="294.1641" x="13" y="397.5564">Quelle: MSCONS_MIG_2_4c_20231024.pdf</text><line style="stroke:#181818;stroke-width:0.5;" x1="8" x2="444.9727" y1="404.8581" y2="404.8581"/></g><!--class PIA_7143_msg_2--><g class="entity" data-entity="PIA_7143_msg_2" data-source-line="19" data-uid="ent0005" id="entity_PIA_7143_msg_2"><rect fill="#F1F1F1" height="145.7813" rx="2.5" ry="2.5" style="stroke:#181818;stroke-width:0.5;" width="528.5371" x="481.22" y="267.0769"/><ellipse cx="682.4871" cy="283.0769" fill="#ADD1B2" rx="11" ry="11" style="stroke:#181818;stroke-width:1;"/><path d="M685.4558,288.7175 Q684.8777,289.0144 684.2371,289.155 Q683.5965,289.3113 682.8933,289.3113 Q680.3933,289.3113 679.0652,287.6706 Q677.7527,286.0144 677.7527,282.8894 Q677.7527,279.7644 679.0652,278.1081 Q680.3933,276.4519 682.8933,276.4519 Q683.5965,276.4519 684.2371,276.6081 Q684.8933,276.7644 685.4558,277.0613 L685.4558,279.78 Q684.8308,279.2019 684.2371,278.9363 Q683.6433,278.655 683.0183,278.655 Q681.6746,278.655 680.9871,279.7331 Q680.2996,280.7956 680.2996,282.8894 Q680.2996,284.9831 680.9871,286.0613 Q681.6746,287.1238 683.0183,287.1238 Q683.6433,287.1238 684.2371,286.8581 Q684.8308,286.5769 685.4558,285.9988 L685.4558,288.7175 Z " fill="#000000"/><text fill="#000000" font-family="sans-serif" font-size="14" lengthAdjust="spacing" textLength="117.5029" x="702.9871" y="287.9236">PIA_7143_msg_2</text><line style="stroke:#181818;stroke-width:0.5;" x1="482.22" x2="1008.7571" y1="299.0769" y2="299.0769"/><text fill="#000000" font-family="sans-serif" font-size="14" lengthAdjust="spacing" textLength="162.2988" x="487.22" y="316.072">Nachricht: PRICAT 2.0d</text><text fill="#000000" font-family="sans-serif" font-size="14" lengthAdjust="spacing" textLength="516.5371" x="487.22" y="332.3689">Kontext: 1310   SG36   C   999999   R   999999   2   LIN - PIA - IMD - SG40</text><text fill="#000000" font-family="sans-serif" font-size="14" lengthAdjust="spacing" textLength="110.5439" x="487.22" y="348.6657">Pflichtfeld: Nein</text><text fill="#000000" font-family="sans-serif" font-size="14" lengthAdjust="spacing" textLength="303.1191" x="487.22" y="364.9626">Codes: 35, 99, IMD, LIN, OCR, PGI, PIA, Z06</text><text fill="#000000" font-family="sans-serif" font-size="14" lengthAdjust="spacing" textLength="251.4395" x="487.22" y="381.2595">Prozesse: Netznutzungsabrechnung</text><text fill="#000000" font-family="sans-serif" font-size="14" lengthAdjust="spacing" textLength="284.4365" x="487.22" y="397.5564">Quelle: PRICAT_MIG_2_0d_20240619.pdf</text><line style="stroke:#181818;stroke-width:0.5;" x1="482.22" x2="1008.7571" y1="404.8581" y2="404.8581"/></g><!--class PIA_7143_msg_3--><g class="entity" data-entity="PIA_7143_msg_3" data-source-line="28" data-uid="ent0007" id="entity_PIA_7143_msg_3"><rect fill="#F1F1F1" height="145.7813" rx="2.5" ry="2.5" style="stroke:#181818;stroke-width:0.5;" width="758.1631" x="1044.4" y="267.0769"/><ellipse cx="1360.4801" cy="283.0769" fill="#ADD1B2" rx="11" ry="11" style="stroke:#181818;stroke-width:1;"/><path d="M1363.4488,288.7175 Q1362.8707,289.0144 1362.2301,289.155 Q1361.5895,289.3113 1360.8863,289.3113 Q1358.3863,289.3113 1357.0582,287.6706 Q1355.7457,286.0144 1355.7457,282.8894 Q1355.7457,279.7644 1357.0582,278.1081 Q1358.3863,276.4519 1360.8863,276.4519 Q1361.5895,276.4519 1362.2301,276.6081 Q1362.8863,276.7644 1363.4488,277.0613 L1363.4488,279.78 Q1362.8238,279.2019 1362.2301,278.9363 Q1361.6363,278.655 1361.0113,278.655 Q1359.6676,278.655 1358.9801,279.7331 Q1358.2926,280.7956 1358.2926,282.8894 Q1358.2926,284.9831 1358.9801,286.0613 Q1359.6676,287.1238 1361.0113,287.1238 Q1361.6363,287.1238 1362.2301,286.8581 Q1362.8238,286.5769 1363.4488,285.9988 L1363.4488,288.7175 Z " fill="#000000"/><text fill="#000000" font-family="sans-serif" font-size="14" lengthAdjust="spacing" textLength="117.5029" x="1380.9801" y="287.9236">PIA_7143_msg_3</text><line style="stroke:#181818;stroke-width:0.5;" x1="1045.4" x2="1801.5631" y1="299.0769" y2="299.0769"/><text fill="#000000" font-family="sans-serif" font-size="14" lengthAdjust="spacing" textLength="170.3584" x="1050.4" y="316.072">Nachricht: QUOTES 1.3a</text><text fill="#000000" font-family="sans-serif" font-size="14" lengthAdjust="spacing" textLength="170.3447" x="1050.4" y="332.3689">Kontext: Segmentlayout</text><text fill="#000000" font-family="sans-serif" font-size="14" lengthAdjust="spacing" textLength="110.5439" x="1050.4" y="348.6657">Pflichtfeld: Nein</text><text fill="#000000" font-family="sans-serif" font-size="14" lengthAdjust="spacing" textLength="274.8525" x="1050.4" y="364.9626">Codes: 000, 200, 25, 35, OCR, PIA, Z11</text><text fill="#000000" font-family="sans-serif" font-size="14" lengthAdjust="spacing" textLength="408.3174" x="1050.4" y="381.2595">Quelle: QUOTES_MIG_1_3a_Fehlerkorrektur_20241213.pdf</text><line style="stroke:#181818;stroke-width:0.5;" x1="1045.4" x2="1801.5631" y1="388.5613" y2="388.5613"/><text fill="#000000" font-family="sans-serif" font-size="14" lengthAdjust="spacing" textLength="746.1631" x="1050.4" y="405.5564">Prozesse: Bestellung einer technischen Konfiguration (MSB), Sperrung und Entsperrung eines Anschlusses</text></g><!--class PIA_7143_msg_4--><g class="entity" data-entity="PIA_7143_msg_4" data-source-line="37" data-uid="ent0009" id="entity_PIA_7143_msg_4"><rect fill="#F1F1F1" height="145.7813" rx="2.5" ry="2.5" style="stroke:#181818;stroke-width:0.5;" width="431.2959" x="1837.84" y="267.0769"/><ellipse cx="1990.4865" cy="283.0769" fill="#ADD1B2" rx="11" ry="11" style="stroke:#181818;stroke-width:1;"/><path d="M1993.4552,288.7175 Q1992.8771,289.0144 1992.2365,289.155 Q1991.5959,289.3113 1990.8927,289.3113 Q1988.3927,289.3113 1987.0646,287.6706 Q1985.7521,286.0144 1985.7521,282.8894 Q1985.7521,279.7644 1987.0646,278.1081 Q1988.3927,276.4519 1990.8927,276.4519 Q1991.5959,276.4519 1992.2365,276.6081 Q1992.8927,276.7644 1993.4552,277.0613 L1993.4552,279.78 Q1992.8302,279.2019 1992.2365,278.9363 Q1991.6427,278.655 1991.0177,278.655 Q1989.674,278.655 1988.9865,279.7331 Q1988.299,280.7956 1988.299,282.8894 Q1988.299,284.9831 1988.9865,286.0613 Q1989.674,287.1238 1991.0177,287.1238 Q1991.6427,287.1238 1992.2365,286.8581 Q1992.8302,286.5769 1993.4552,285.9988 L1993.4552,288.7175 Z " fill="#000000"/><text fill="#000000" font-family="sans-serif" font-size="14" lengthAdjust="spacing" textLength="117.5029" x="2010.9865" y="287.9236">PIA_7143_msg_4</text><line style="stroke:#181818;stroke-width:0.5;" x1="1838.84" x2="2268.1359" y1="299.0769" y2="299.0769"/><text fill="#000000" font-family="sans-serif" font-size="14" lengthAdjust="spacing" textLength="170.1055" x="1843.84" y="316.072">Nachricht: REQOTE 1.3b</text><text fill="#000000" font-family="sans-serif" font-size="14" lengthAdjust="spacing" textLength="170.3447" x="1843.84" y="332.3689">Kontext: Segmentlayout</text><text fill="#000000" font-family="sans-serif" font-size="14" lengthAdjust="spacing" textLength="110.5439" x="1843.84" y="348.6657">Pflichtfeld: Nein</text><text fill="#000000" font-family="sans-serif" font-size="14" lengthAdjust="spacing" textLength="203.6084" x="1843.84" y="364.9626">Codes: 25, 35, OCR, PIA, Z11</text><text fill="#000000" font-family="sans-serif" font-size="14" lengthAdjust="spacing" textLength="292.2432" x="1843.84" y="381.2595">Quelle: REQOTE_MIG_1_3b_20241001.pdf</text><line style="stroke:#181818;stroke-width:0.5;" x1="1838.84" x2="2268.1359" y1="388.5613" y2="388.5613"/><text fill="#000000" font-family="sans-serif" font-size="14" lengthAdjust="spacing" textLength="419.2959" x="1843.84" y="405.5564">Prozesse: Bestellung einer technischen Konfiguration (MSB)</text></g><!--class PIA_7143_proc_1--><g class="entity" data-entity="PIA_7143_proc_1" data-source-line="46" data-uid="ent0011" id="entity_PIA_7143_proc_1"><rect fill="#F1F1F1" height="105.1563" rx="2.5" ry="2.5" style="stroke:#181818;stroke-width:0.5;" width="378.2285" x="2304.37" y="287.3869"/><ellipse cx="2429.9393" cy="307.5197" fill="#ADD1B2" rx="11" ry="11" style="stroke:#181818;stroke-width:1;"/><path d="M2432.9081,313.1603 Q2432.33,313.4572 2431.6893,313.5978 Q2431.0487,313.7541 2430.3456,313.7541 Q2427.8456,313.7541 2426.5175,312.1134 Q2425.205,310.4572 2425.205,307.3322 Q2425.205,304.2072 2426.5175,302.5509 Q2427.8456,300.8947 2430.3456,300.8947 Q2431.0487,300.8947 2431.6893,301.0509 Q2432.3456,301.2072 2432.9081,301.5041 L2432.9081,304.2228 Q2432.2831,303.6447 2431.6893,303.3791 Q2431.0956,303.0978 2430.4706,303.0978 Q2429.1268,303.0978 2428.4393,304.1759 Q2427.7518,305.2384 2427.7518,307.3322 Q2427.7518,309.4259 2428.4393,310.5041 Q2429.1268,311.5666 2430.4706,311.5666 Q2431.0956,311.5666 2431.6893,311.3009 Q2432.2831,311.0197 2432.9081,310.4416 L2432.9081,313.1603 Z " fill="#000000"/><text fill="#000000" font-family="sans-serif" font-size="12" font-style="italic" lengthAdjust="spacing" textLength="61.0605" x="2479.204" y="303.5255">&#171;process&#187;</text><text fill="#000000" font-family="sans-serif" font-size="14" lengthAdjust="spacing" textLength="118.5898" x="2450.4393" y="319.3507">PIA_7143_proc_1</text><line style="stroke:#181818;stroke-width:0.5;" x1="2305.37" x2="2681.5985" y1="327.6525" y2="327.6525"/><text fill="#000000" font-family="sans-serif" font-size="14" lengthAdjust="spacing" textLength="334.3525" x="2310.37" y="344.6476">Anforderung und &#220;bermittlung von Messwerten</text><text fill="#000000" font-family="sans-serif" font-size="14" lengthAdjust="spacing" textLength="105.0957" x="2310.37" y="360.9445">Gesetze: MsbG</text><line style="stroke:#181818;stroke-width:0.5;" x1="2305.37" x2="2681.5985" y1="368.2463" y2="368.2463"/><text fill="#000000" font-family="sans-serif" font-size="14" lengthAdjust="spacing" textLength="366.2285" x="2310.37" y="385.2414">Zusammenfassung: Wie kann ein Marktpartner (z.B.</text></g><!--class PIA_7143_proc_2--><g class="entity" data-entity="PIA_7143_proc_2" data-source-line="52" data-uid="ent0013" id="entity_PIA_7143_proc_2"><rect fill="#F1F1F1" height="105.1563" rx="2.5" ry="2.5" style="stroke:#181818;stroke-width:0.5;" width="752.6465" x="2717.16" y="287.3869"/><ellipse cx="3029.9383" cy="307.5197" fill="#ADD1B2" rx="11" ry="11" style="stroke:#181818;stroke-width:1;"/><path d="M3032.9071,313.1603 Q3032.3289,313.4572 3031.6883,313.5978 Q3031.0477,313.7541 3030.3446,313.7541 Q3027.8446,313.7541 3026.5164,312.1134 Q3025.2039,310.4572 3025.2039,307.3322 Q3025.2039,304.2072 3026.5164,302.5509 Q3027.8446,300.8947 3030.3446,300.8947 Q3031.0477,300.8947 3031.6883,301.0509 Q3032.3446,301.2072 3032.9071,301.5041 L3032.9071,304.2228 Q3032.2821,303.6447 3031.6883,303.3791 Q3031.0946,303.0978 3030.4696,303.0978 Q3029.1258,303.0978 3028.4383,304.1759 Q3027.7508,305.2384 3027.7508,307.3322 Q3027.7508,309.4259 3028.4383,310.5041 Q3029.1258,311.5666 3030.4696,311.5666 Q3031.0946,311.5666 3031.6883,311.3009 Q3032.2821,311.0197 3032.9071,310.4416 L3032.9071,313.1603 Z " fill="#000000"/><text fill="#000000" font-family="sans-serif" font-size="12" font-style="italic" lengthAdjust="spacing" textLength="61.0605" x="3079.203" y="303.5255">&#171;process&#187;</text><text fill="#000000" font-family="sans-serif" font-size="14" lengthAdjust="spacing" textLength="118.5898" x="3050.4383" y="319.3507">PIA_7143_proc_2</text><line style="stroke:#181818;stroke-width:0.5;" x1="2718.16" x2="3468.8065" y1="327.6525" y2="327.6525"/><text fill="#000000" font-family="sans-serif" font-size="14" lengthAdjust="spacing" textLength="180.3457" x="2723.16" y="344.6476">Netznutzungsabrechnung</text><text fill="#000000" font-family="sans-serif" font-size="14" lengthAdjust="spacing" textLength="218.0938" x="2723.16" y="360.9445">Gesetze: StromNEV, StromNZV</text><text fill="#000000" font-family="sans-serif" font-size="14" lengthAdjust="spacing" textLength="740.6465" x="2723.16" y="377.2414">Zusammenfassung: Wie funktioniert die Netznutzungsabrechnung zwischen Netzbetreiber und Lieferant?</text><line style="stroke:#181818;stroke-width:0.5;" x1="2718.16" x2="3468.8065" y1="384.5431" y2="384.5431"/></g><!--class PIA_7143_proc_3--><g class="entity" data-entity="PIA_7143_proc_3" data-source-line="58" data-uid="ent0015" id="entity_PIA_7143_proc_3"><rect fill="#F1F1F1" height="105.1563" rx="2.5" ry="2.5" style="stroke:#181818;stroke-width:0.5;" width="1301.9961" x="3504.49" y="287.3869"/><ellipse cx="4091.9431" cy="307.5197" fill="#ADD1B2" rx="11" ry="11" style="stroke:#181818;stroke-width:1;"/><path d="M4094.9119,313.1603 Q4094.3338,313.4572 4093.6931,313.5978 Q4093.0525,313.7541 4092.3494,313.7541 Q4089.8494,313.7541 4088.5213,312.1134 Q4087.2088,310.4572 4087.2088,307.3322 Q4087.2088,304.2072 4088.5213,302.5509 Q4089.8494,300.8947 4092.3494,300.8947 Q4093.0525,300.8947 4093.6931,301.0509 Q4094.3494,301.2072 4094.9119,301.5041 L4094.9119,304.2228 Q4094.2869,303.6447 4093.6931,303.3791 Q4093.0994,303.0978 4092.4744,303.0978 Q4091.1306,303.0978 4090.4431,304.1759 Q4089.7556,305.2384 4089.7556,307.3322 Q4089.7556,309.4259 4090.4431,310.5041 Q4091.1306,311.5666 4092.4744,311.5666 Q4093.0994,311.5666 4093.6931,311.3009 Q4094.2869,311.0197 4094.9119,310.4416 L4094.9119,313.1603 Z " fill="#000000"/><text fill="#000000" font-family="sans-serif" font-size="12" font-style="italic" lengthAdjust="spacing" textLength="61.0605" x="4141.2078" y="303.5255">&#171;process&#187;</text><text fill="#000000" font-family="sans-serif" font-size="14" lengthAdjust="spacing" textLength="118.5898" x="4112.4431" y="319.3507">PIA_7143_proc_3</text><line style="stroke:#181818;stroke-width:0.5;" x1="3505.49" x2="4805.4861" y1="327.6525" y2="327.6525"/><text fill="#000000" font-family="sans-serif" font-size="14" lengthAdjust="spacing" textLength="156.4063" x="3510.49" y="344.6476">Gesetze: MsbG, EnWG</text><text fill="#000000" font-family="sans-serif" font-size="14" lengthAdjust="spacing" textLength="1289.9961" x="3510.49" y="360.9445">Zusammenfassung: Erl&#228;utere den Prozess zur Bestellung einer spezifischen technischen Konfiguration bei einem Messstellenbetreiber, beispielsweise f&#252;r ein intelligentes Messsystem.</text><line style="stroke:#181818;stroke-width:0.5;" x1="3505.49" x2="4805.4861" y1="368.2463" y2="368.2463"/><text fill="#000000" font-family="sans-serif" font-size="14" lengthAdjust="spacing" textLength="348.2021" x="3510.49" y="385.2414">Bestellung einer technischen Konfiguration (MSB)</text></g><!--class PIA_7143_proc_4--><g class="entity" data-entity="PIA_7143_proc_4" data-source-line="64" data-uid="ent0017" id="entity_PIA_7143_proc_4"><rect fill="#F1F1F1" height="105.1563" rx="2.5" ry="2.5" style="stroke:#181818;stroke-width:0.5;" width="853.9893" x="4841.49" y="287.3869"/><ellipse cx="5204.9397" cy="307.5197" fill="#ADD1B2" rx="11" ry="11" style="stroke:#181818;stroke-width:1;"/><path d="M5207.9085,313.1603 Q5207.3303,313.4572 5206.6897,313.5978 Q5206.0491,313.7541 5205.346,313.7541 Q5202.846,313.7541 5201.5178,312.1134 Q5200.2053,310.4572 5200.2053,307.3322 Q5200.2053,304.2072 5201.5178,302.5509 Q5202.846,300.8947 5205.346,300.8947 Q5206.0491,300.8947 5206.6897,301.0509 Q5207.346,301.2072 5207.9085,301.5041 L5207.9085,304.2228 Q5207.2835,303.6447 5206.6897,303.3791 Q5206.096,303.0978 5205.471,303.0978 Q5204.1272,303.0978 5203.4397,304.1759 Q5202.7522,305.2384 5202.7522,307.3322 Q5202.7522,309.4259 5203.4397,310.5041 Q5204.1272,311.5666 5205.471,311.5666 Q5206.096,311.5666 5206.6897,311.3009 Q5207.2835,311.0197 5207.9085,310.4416 L5207.9085,313.1603 Z " fill="#000000"/><text fill="#000000" font-family="sans-serif" font-size="12" font-style="italic" lengthAdjust="spacing" textLength="61.0605" x="5254.2044" y="303.5255">&#171;process&#187;</text><text fill="#000000" font-family="sans-serif" font-size="14" lengthAdjust="spacing" textLength="118.5898" x="5225.4397" y="319.3507">PIA_7143_proc_4</text><line style="stroke:#181818;stroke-width:0.5;" x1="4842.49" x2="5694.4793" y1="327.6525" y2="327.6525"/><text fill="#000000" font-family="sans-serif" font-size="14" lengthAdjust="spacing" textLength="317.9668" x="4847.49" y="344.6476">Sperrung und Entsperrung eines Anschlusses</text><text fill="#000000" font-family="sans-serif" font-size="14" lengthAdjust="spacing" textLength="138.3252" x="4847.49" y="360.9445">Gesetze: StromGVV</text><text fill="#000000" font-family="sans-serif" font-size="14" lengthAdjust="spacing" textLength="841.9893" x="4847.49" y="377.2414">Zusammenfassung: Beschreibe den End-to-End-Prozess f&#252;r die Sperrung und Wiederherstellung eines Netzanschlusses.</text><line style="stroke:#181818;stroke-width:0.5;" x1="4842.49" x2="5694.4793" y1="384.5431" y2="384.5431"/></g><!--link PIA_7143 to PIA_7143_msg_1--><g class="link" data-entity-1="PIA_7143" data-entity-2="PIA_7143_msg_1" data-source-line="18" data-uid="lnk4" id="link_PIA_7143_PIA_7143_msg_1"><path codeLine="18" d="M2086.08,120.5369 C1755.52,127.5669 1048.48,155.6069 463.49,267.0769 C457.78,268.1669 457.887,268.0804 452.097,269.3204" fill="none" id="PIA_7143-to-PIA_7143_msg_1" style="stroke:#181818;stroke-width:1;"/><polygon fill="#181818" points="446.23,270.5769,455.8681,272.6035,451.1191,269.5298,454.1928,264.7808,446.23,270.5769" style="stroke:#181818;stroke-width:1;"/><text fill="#000000" font-family="sans-serif" font-size="13" lengthAdjust="spacing" textLength="85.2363" x="708.49" y="233.1438">verwendet in</text></g><!--link PIA_7143 to PIA_7143_msg_2--><g class="link" data-entity-1="PIA_7143" data-entity-2="PIA_7143_msg_2" data-source-line="27" data-uid="lnk6" id="link_PIA_7143_PIA_7143_msg_2"><path codeLine="27" d="M2086.14,132.8069 C1841.16,153.6969 1399.28,197.4469 1026.49,267.0769 C1021.04,268.0969 1021.4351,267.9884 1015.8951,269.0884" fill="none" id="PIA_7143-to-PIA_7143_msg_2" style="stroke:#181818;stroke-width:1;"/><polygon fill="#181818" points="1010.01,270.2569,1019.6167,272.4275,1014.9143,269.2831,1018.0587,264.5807,1010.01,270.2569" style="stroke:#181818;stroke-width:1;"/><text fill="#000000" font-family="sans-serif" font-size="13" lengthAdjust="spacing" textLength="85.2363" x="1299.49" y="233.1438">verwendet in</text></g><!--link PIA_7143 to PIA_7143_msg_3--><g class="link" data-entity-1="PIA_7143" data-entity-2="PIA_7143_msg_3" data-source-line="36" data-uid="lnk8" id="link_PIA_7143_PIA_7143_msg_3"><path codeLine="36" d="M2085.9,166.9069 C1973.21,196.1769 1833.5373,232.4587 1707.6273,265.1587" fill="none" id="PIA_7143-to-PIA_7143_msg_3" style="stroke:#181818;stroke-width:1;"/><polygon fill="#181818" points="1701.82,266.6669,1711.5365,268.2761,1706.6595,265.41,1709.5255,260.533,1701.82,266.6669" style="stroke:#181818;stroke-width:1;"/><text fill="#000000" font-family="sans-serif" font-size="13" lengthAdjust="spacing" textLength="85.2363" x="1875.49" y="233.1438">verwendet in</text></g><!--link PIA_7143 to PIA_7143_msg_4--><g class="link" data-entity-1="PIA_7143" data-entity-2="PIA_7143_msg_4" data-source-line="45" data-uid="lnk10" id="link_PIA_7143_PIA_7143_msg_4"><path codeLine="45" d="M2201.45,190.4769 C2177.01,214.9969 2153.9657,238.1373 2129.5457,262.6373" fill="none" id="PIA_7143-to-PIA_7143_msg_4" style="stroke:#181818;stroke-width:1;"/><polygon fill="#181818" points="2125.31,266.8869,2134.4966,263.3363,2128.8397,263.3456,2128.8305,257.6887,2125.31,266.8869" style="stroke:#181818;stroke-width:1;"/><text fill="#000000" font-family="sans-serif" font-size="13" lengthAdjust="spacing" textLength="85.2363" x="2171.49" y="233.1438">verwendet in</text></g><!--link PIA_7143 to PIA_7143_proc_1--><g class="link" data-entity-1="PIA_7143" data-entity-2="PIA_7143_proc_1" data-source-line="51" data-uid="lnk12" id="link_PIA_7143_PIA_7143_proc_1"><path codeLine="51" d="M2345.52,190.4769 C2376.98,222.0469 2408.9147,254.0969 2437.6247,282.9069" fill="none" id="PIA_7143-to-PIA_7143_proc_1" style="stroke:#181818;stroke-width:1;stroke-dasharray:7,7;"/><polygon fill="#181818" points="2441.86,287.1569,2438.3405,277.9584,2438.3306,283.6152,2432.6738,283.6054,2441.86,287.1569" style="stroke:#181818;stroke-width:1;"/><text fill="#000000" font-family="sans-serif" font-size="13" lengthAdjust="spacing" textLength="91.6221" x="2391.49" y="233.1438">eingebettet in</text></g><!--link PIA_7143 to PIA_7143_proc_2--><g class="link" data-entity-1="PIA_7143" data-entity-2="PIA_7143_proc_2" data-source-line="57" data-uid="lnk14" id="link_PIA_7143_PIA_7143_proc_2"><path codeLine="57" d="M2460.84,168.6269 C2592.26,204.0169 2761.6863,249.627 2894.3963,285.357" fill="none" id="PIA_7143-to-PIA_7143_proc_2" style="stroke:#181818;stroke-width:1;stroke-dasharray:7,7;"/><polygon fill="#181818" points="2900.19,286.9169,2892.5394,280.7146,2895.3619,285.617,2890.4596,288.4396,2900.19,286.9169" style="stroke:#181818;stroke-width:1;"/><text fill="#000000" font-family="sans-serif" font-size="13" lengthAdjust="spacing" textLength="91.6221" x="2709.49" y="233.1438">eingebettet in</text></g><!--link PIA_7143 to PIA_7143_proc_3--><g class="link" data-entity-1="PIA_7143" data-entity-2="PIA_7143_proc_3" data-source-line="63" data-uid="lnk16" id="link_PIA_7143_PIA_7143_proc_3"><path codeLine="63" d="M2460.82,140.1569 C2750.2,174.1069 3308.0608,239.5579 3705.7108,286.1979" fill="none" id="PIA_7143-to-PIA_7143_proc_3" style="stroke:#181818;stroke-width:1;stroke-dasharray:7,7;"/><polygon fill="#181818" points="3711.67,286.8969,3703.1972,281.8757,3706.704,286.3144,3702.2653,289.8212,3711.67,286.8969" style="stroke:#181818;stroke-width:1;"/><text fill="#000000" font-family="sans-serif" font-size="13" lengthAdjust="spacing" textLength="91.6221" x="3272.49" y="233.1438">eingebettet in</text></g><!--link PIA_7143 to PIA_7143_proc_4--><g class="link" data-entity-1="PIA_7143" data-entity-2="PIA_7143_proc_4" data-source-line="69" data-uid="lnk18" id="link_PIA_7143_PIA_7143_proc_4"><path codeLine="69" d="M2460.79,122.5969 C2883.36,133.9669 3942.68,170.4669 4823.49,267.0769 C4872.01,272.3969 4917.3675,278.4994 4967.2075,286.0394" fill="none" id="PIA_7143-to-PIA_7143_proc_4" style="stroke:#181818;stroke-width:1;stroke-dasharray:7,7;"/><polygon fill="#181818" points="4973.14,286.9369,4964.8396,281.6356,4968.1963,286.189,4963.6429,289.5456,4973.14,286.9369" style="stroke:#181818;stroke-width:1;"/><text fill="#000000" font-family="sans-serif" font-size="13" lengthAdjust="spacing" textLength="91.6221" x="4479.49" y="233.1438">eingebettet in</text></g><!--SRC=[hPRTJjim5CVlUGfVRbBQvGiO4MA2qbNLQ2aD0watKTgSj5OJfx8T69ts9hlSO-oE5zivQGhze9IY8SMrOv_Zy__v70VDTGBiFDGWGfs4YbLOftdg7LgkipV0iQ9XG4FsSu-nTfY2nqwbPX58rf5Pb8zrvHEx0AvqBePAv6aAqc2rB09SZokce1Hus6Ve-rJ4cKHJNCfo4R77ttsGATSweJTtcM0jN7uF4kCfJTgWfoBNK_8UzYKCHWAxvUGPA0r9OGnSO4YQvhaQZ42mRvc8-J2NeURe-4FBF_jOclaJa4ynr8LMyp4vKHWbEaXoZ5lj_Lh14AHg65WbZC58yi58UwpbroxRFhEhxW0dS6CDF_3r6MAPS4ZAu4fUF0AXUSp7iy18FYGAbKSyJubK9qx8RGn9vA5-JYW8gFAOVMWmPzzWbxMkGJ4Pp6_Giq_D0JL7s7Hl3TOpRMe-Bvx2hlolSeGBStb1gza8xC0T1BPfEvPfkzL952EXfnIfL4vMGNdi3kGzY0WqGo4lmBHNONQwpThfDS8qeqMO5cw9f-Std0FygU5pLFnXfxiuiF6vQBPdcOnjitLEHzvmpTVH4jOZf8Vh3N8mXznebgHxvi4Ip8sPESSs4r9YCoF2vfe7rj5MRFORi3chsAw-NrxNVMPLdN0Hcm_35FCj2H-oNBzEm3HDWzb5ix-QPZtBMXA_Q-KPknJTCyAPg0AX5JXXy1L62SXn9YMCTIuBf9PjELkHEcz0wguYxTQlS7j2sdydqlyFSW7EBBmvdFuCXcbQMs6uMs1CP3R0sZq-fWw6UN9IaDdnzcY0mWgXwqFr6pZkvIh4huE8SIyqyDWj1pOEXI3Xh1NAiPw4KXE33zFgMNLHGhLwiXQUHtP3w0FUdnjLs6igDfRjKxo-bbdQhjyOPQztiodwE1TZEXeEz4d45oyxPzFxya1f7WEMm15T0V62Gmmo5FhBwthjj-brrlI-8y6MJix0OhrzyVpgCddyaskGWFyEY7bEisakrpV5Qf_YDs-sw-O8-i0BWxH8fS87Y2TW1iqNNrJCCgwG_-DVMMGF5xIK3x4iGSri7z0wtP94pjkWkcjGTxhCbXEhSVDYEY4nl7T8PW6pBgAApYhqC-TQYAKaMzeSqn1BSWHo2RWgCYry3cCB27SDn3y0]--></g></svg>