<svg xmlns="http://www.w3.org/2000/svg" xmlns:xlink="http://www.w3.org/1999/xlink" contentStyleType="text/css" data-diagram-type="CLASS" height="370px" preserveAspectRatio="none" style="width:1782px;height:370px;background:#FFFFFF;" version="1.1" viewBox="0 0 1782 370" width="1782px" zoomAndPan="magnify"><title>Datenatlas - PIA:00032</title><defs/><g><g class="title" data-source-line="1"><text fill="#000000" font-family="sans-serif" font-size="14" font-weight="bold" lengthAdjust="spacing" textLength="182.1094" x="793.2684" y="22.9951">Datenatlas - PIA:00032</text></g><!--class PIA_00032--><g class="entity" data-entity="PIA_00032" data-source-line="2" data-uid="ent0002" id="entity_PIA_00032"><rect fill="#F1F1F1" height="96.8906" rx="2.5" ry="2.5" style="stroke:#181818;stroke-width:0.5;" width="374.2021" x="486.55" y="44.2969"/><ellipse cx="632.5588" cy="60.2969" fill="#ADD1B2" rx="11" ry="11" style="stroke:#181818;stroke-width:1;"/><path d="M635.5275,65.9375 Q634.9494,66.2344 634.3088,66.375 Q633.6682,66.5313 632.965,66.5313 Q630.465,66.5313 629.1369,64.8906 Q627.8244,63.2344 627.8244,60.1094 Q627.8244,56.9844 629.1369,55.3281 Q630.465,53.6719 632.965,53.6719 Q633.6682,53.6719 634.3088,53.8281 Q634.965,53.9844 635.5275,54.2813 L635.5275,57 Q634.9025,56.4219 634.3088,56.1563 Q633.715,55.875 633.09,55.875 Q631.7463,55.875 631.0588,56.9531 Q630.3713,58.0156 630.3713,60.1094 Q630.3713,62.2031 631.0588,63.2813 Q631.7463,64.3438 633.09,64.3438 Q633.715,64.3438 634.3088,64.0781 Q634.9025,63.7969 635.5275,63.2188 L635.5275,65.9375 Z " fill="#000000"/><text fill="#000000" font-family="sans-serif" font-size="14" lengthAdjust="spacing" textLength="73.6846" x="653.0588" y="65.1436">PIA_00032</text><line style="stroke:#181818;stroke-width:0.5;" x1="487.55" x2="859.7521" y1="76.2969" y2="76.2969"/><text fill="#000000" font-family="sans-serif" font-size="14" lengthAdjust="spacing" textLength="207.3271" x="492.55" y="93.292">Name: nach Typ 2 aus SMGW</text><text fill="#000000" font-family="sans-serif" font-size="14" lengthAdjust="spacing" textLength="66.6436" x="492.55" y="109.5889">Prozesse:</text><line style="stroke:#181818;stroke-width:0.5;" x1="487.55" x2="859.7521" y1="116.8906" y2="116.8906"/><rect fill="#F24D5C" height="6" style="stroke:#C82930;stroke-width:1;" width="6" x="494.55" y="127.5391"/><text fill="#000000" font-family="sans-serif" font-size="14" lengthAdjust="spacing" textLength="348.2021" x="506.55" y="133.8857">Bestellung einer technischen Konfiguration (MSB)</text></g><!--class PIA_00032_msg_1--><g class="entity" data-entity="PIA_00032_msg_1" data-source-line="7" data-uid="ent0003" id="entity_PIA_00032_msg_1"><rect fill="#F1F1F1" height="145.7813" rx="2.5" ry="2.5" style="stroke:#181818;stroke-width:0.5;" width="431.2959" x="7" y="218.1869"/><ellipse cx="155.1929" cy="234.1869" fill="#ADD1B2" rx="11" ry="11" style="stroke:#181818;stroke-width:1;"/><path d="M158.1616,239.8275 Q157.5835,240.1244 156.9429,240.265 Q156.3022,240.4213 155.5991,240.4213 Q153.0991,240.4213 151.771,238.7806 Q150.4585,237.1244 150.4585,233.9994 Q150.4585,230.8744 151.771,229.2181 Q153.0991,227.5619 155.5991,227.5619 Q156.3022,227.5619 156.9429,227.7181 Q157.5991,227.8744 158.1616,228.1713 L158.1616,230.89 Q157.5366,230.3119 156.9429,230.0463 Q156.3491,229.765 155.7241,229.765 Q154.3804,229.765 153.6929,230.8431 Q153.0054,231.9056 153.0054,233.9994 Q153.0054,236.0931 153.6929,237.1713 Q154.3804,238.2338 155.7241,238.2338 Q156.3491,238.2338 156.9429,237.9681 Q157.5366,237.6869 158.1616,237.1088 L158.1616,239.8275 Z " fill="#000000"/><text fill="#000000" font-family="sans-serif" font-size="14" lengthAdjust="spacing" textLength="126.4102" x="175.6929" y="239.0336">PIA_00032_msg_1</text><line style="stroke:#181818;stroke-width:0.5;" x1="8" x2="437.2959" y1="250.1869" y2="250.1869"/><text fill="#000000" font-family="sans-serif" font-size="14" lengthAdjust="spacing" textLength="170.1055" x="13" y="267.182">Nachricht: REQOTE 1.3b</text><text fill="#000000" font-family="sans-serif" font-size="14" lengthAdjust="spacing" textLength="204.1143" x="13" y="283.4789">Kontext: Nachrichtenstruktur</text><text fill="#000000" font-family="sans-serif" font-size="14" lengthAdjust="spacing" textLength="110.5439" x="13" y="299.7757">Pflichtfeld: Nein</text><text fill="#000000" font-family="sans-serif" font-size="14" lengthAdjust="spacing" textLength="127.8799" x="13" y="316.0726">Codes: 24, 25, PIA</text><text fill="#000000" font-family="sans-serif" font-size="14" lengthAdjust="spacing" textLength="292.2432" x="13" y="332.3695">Quelle: REQOTE_MIG_1_3b_20241001.pdf</text><line style="stroke:#181818;stroke-width:0.5;" x1="8" x2="437.2959" y1="339.6713" y2="339.6713"/><text fill="#000000" font-family="sans-serif" font-size="14" lengthAdjust="spacing" textLength="419.2959" x="13" y="356.6664">Prozesse: Bestellung einer technischen Konfiguration (MSB)</text></g><!--class PIA_00032_proc_1--><g class="entity" data-entity="PIA_00032_proc_1" data-source-line="16" data-uid="ent0005" id="entity_PIA_00032_proc_1"><rect fill="#F1F1F1" height="105.1563" rx="2.5" ry="2.5" style="stroke:#181818;stroke-width:0.5;" width="1301.9961" x="473.65" y="238.4969"/><ellipse cx="1056.6495" cy="258.6297" fill="#ADD1B2" rx="11" ry="11" style="stroke:#181818;stroke-width:1;"/><path d="M1059.6183,264.2703 Q1059.0401,264.5672 1058.3995,264.7078 Q1057.7589,264.8641 1057.0558,264.8641 Q1054.5558,264.8641 1053.2276,263.2234 Q1051.9151,261.5672 1051.9151,258.4422 Q1051.9151,255.3172 1053.2276,253.6609 Q1054.5558,252.0047 1057.0558,252.0047 Q1057.7589,252.0047 1058.3995,252.1609 Q1059.0558,252.3172 1059.6183,252.6141 L1059.6183,255.3328 Q1058.9933,254.7547 1058.3995,254.4891 Q1057.8058,254.2078 1057.1808,254.2078 Q1055.837,254.2078 1055.1495,255.2859 Q1054.462,256.3484 1054.462,258.4422 Q1054.462,260.5359 1055.1495,261.6141 Q1055.837,262.6766 1057.1808,262.6766 Q1057.8058,262.6766 1058.3995,262.4109 Q1058.9933,262.1297 1059.6183,261.5516 L1059.6183,264.2703 Z " fill="#000000"/><text fill="#000000" font-family="sans-serif" font-size="12" font-style="italic" lengthAdjust="spacing" textLength="61.0605" x="1110.3678" y="254.6355">&#171;process&#187;</text><text fill="#000000" font-family="sans-serif" font-size="14" lengthAdjust="spacing" textLength="127.4971" x="1077.1495" y="270.4607">PIA_00032_proc_1</text><line style="stroke:#181818;stroke-width:0.5;" x1="474.65" x2="1774.6461" y1="278.7625" y2="278.7625"/><text fill="#000000" font-family="sans-serif" font-size="14" lengthAdjust="spacing" textLength="156.4063" x="479.65" y="295.7576">Gesetze: MsbG, EnWG</text><text fill="#000000" font-family="sans-serif" font-size="14" lengthAdjust="spacing" textLength="1289.9961" x="479.65" y="312.0545">Zusammenfassung: Erl&#228;utere den Prozess zur Bestellung einer spezifischen technischen Konfiguration bei einem Messstellenbetreiber, beispielsweise f&#252;r ein intelligentes Messsystem.</text><line style="stroke:#181818;stroke-width:0.5;" x1="474.65" x2="1774.6461" y1="319.3563" y2="319.3563"/><text fill="#000000" font-family="sans-serif" font-size="14" lengthAdjust="spacing" textLength="348.2021" x="479.65" y="336.3514">Bestellung einer technischen Konfiguration (MSB)</text></g><!--link PIA_00032 to PIA_00032_msg_1--><g class="link" data-entity-1="PIA_00032" data-entity-2="PIA_00032_msg_1" data-source-line="15" data-uid="lnk4" id="link_PIA_00032_PIA_00032_msg_1"><path codeLine="15" d="M563.61,141.6469 C511.07,164.5169 452.5712,189.9816 394.2812,215.3616" fill="none" id="PIA_00032-to-PIA_00032_msg_1" style="stroke:#181818;stroke-width:1;"/><polygon fill="#181818" points="388.78,217.7569,398.6286,217.8314,393.3643,215.7608,395.4349,210.4966,388.78,217.7569" style="stroke:#181818;stroke-width:1;"/><text fill="#000000" font-family="sans-serif" font-size="13" lengthAdjust="spacing" textLength="85.2363" x="489.65" y="184.2538">verwendet in</text></g><!--link PIA_00032 to PIA_00032_proc_1--><g class="link" data-entity-1="PIA_00032" data-entity-2="PIA_00032_proc_1" data-source-line="21" data-uid="lnk6" id="link_PIA_00032_PIA_00032_proc_1"><path codeLine="21" d="M783.69,141.6469 C850.7,170.8169 930.8486,205.7122 999.5386,235.6122" fill="none" id="PIA_00032-to-PIA_00032_proc_1" style="stroke:#181818;stroke-width:1;stroke-dasharray:7,7;"/><polygon fill="#181818" points="1005.04,238.0069,998.3844,230.7472,1000.4555,236.0113,995.1914,238.0824,1005.04,238.0069" style="stroke:#181818;stroke-width:1;"/><text fill="#000000" font-family="sans-serif" font-size="13" lengthAdjust="spacing" textLength="91.6221" x="886.65" y="184.2538">eingebettet in</text></g><!--SRC=[dL3BRjH04BplL_IHIBkMxGqNAref8IihGeQ4H8h4nVAZR8zYZwtf6K8MyJTy1hVy63rc8P0L1tAQdkhkgkgoolQWyy925xOlc5PqUN6QX66uZXUL0Ep_-VodBmkYTyM0X7HHTNJpC55CXMEwpj9RwLsQSGTc95AJC9s1BVhUwPQWD0nPL9rMN7NGz7RKZMgTAQmQDRtAhi-E5b-VI-O3jtcq5wuwewhE9lHXU_N-PajHi2wb8KGMdmN-FG7DrhWxwumtrVGUQz3NCY8-17iprk24ukCbnQ-NNkvFz__lc-ZAoG9-MSkpYpIFydMPns5y78LX54nr8-SzPRbQRGxEJEWJp3rq3KlYytaManahcJevyOKutMpcO5xWDWN3xiHkncMwfAs-JGNzwBWO1kX6P8KjeQtf7xyv2mEgXMiV4EsSEHJb2JlLx5N_xQ24cXS6oeHgve0kOGrK2RFqVPuKUhwN0jGyVZT-NkBmewg5lFnpzq6sX-2lK8DWSvXNuWbQY8YTS_q1]--></g></svg>