<svg xmlns="http://www.w3.org/2000/svg" xmlns:xlink="http://www.w3.org/1999/xlink" contentStyleType="text/css" data-diagram-type="CLASS" height="370px" preserveAspectRatio="none" style="width:1782px;height:370px;background:#FFFFFF;" version="1.1" viewBox="0 0 1782 370" width="1782px" zoomAndPan="magnify"><title>Datenatlas - PIA:1170</title><defs/><g><g class="title" data-source-line="1"><text fill="#000000" font-family="sans-serif" font-size="14" font-weight="bold" lengthAdjust="spacing" textLength="172.3682" x="798.139" y="22.9951">Datenatlas - PIA:1170</text></g><!--class PIA_1170--><g class="entity" data-entity="PIA_1170" data-source-line="2" data-uid="ent0002" id="entity_PIA_1170"><rect fill="#F1F1F1" height="96.8906" rx="2.5" ry="2.5" style="stroke:#181818;stroke-width:0.5;" width="374.2021" x="486.55" y="44.2969"/><ellipse cx="637.0124" cy="60.2969" fill="#ADD1B2" rx="11" ry="11" style="stroke:#181818;stroke-width:1;"/><path d="M639.9812,65.9375 Q639.403,66.2344 638.7624,66.375 Q638.1218,66.5313 637.4187,66.5313 Q634.9187,66.5313 633.5905,64.8906 Q632.278,63.2344 632.278,60.1094 Q632.278,56.9844 633.5905,55.3281 Q634.9187,53.6719 637.4187,53.6719 Q638.1218,53.6719 638.7624,53.8281 Q639.4187,53.9844 639.9812,54.2813 L639.9812,57 Q639.3562,56.4219 638.7624,56.1563 Q638.1687,55.875 637.5437,55.875 Q636.1999,55.875 635.5124,56.9531 Q634.8249,58.0156 634.8249,60.1094 Q634.8249,62.2031 635.5124,63.2813 Q636.1999,64.3438 637.5437,64.3438 Q638.1687,64.3438 638.7624,64.0781 Q639.3562,63.7969 639.9812,63.2188 L639.9812,65.9375 Z " fill="#000000"/><text fill="#000000" font-family="sans-serif" font-size="14" lengthAdjust="spacing" textLength="64.7773" x="657.5124" y="65.1436">PIA_1170</text><line style="stroke:#181818;stroke-width:0.5;" x1="487.55" x2="859.7521" y1="76.2969" y2="76.2969"/><text fill="#000000" font-family="sans-serif" font-size="14" lengthAdjust="spacing" textLength="280.335" x="492.55" y="93.292">Name: Zugeordnete Schaltzeitdefinition</text><text fill="#000000" font-family="sans-serif" font-size="14" lengthAdjust="spacing" textLength="66.6436" x="492.55" y="109.5889">Prozesse:</text><line style="stroke:#181818;stroke-width:0.5;" x1="487.55" x2="859.7521" y1="116.8906" y2="116.8906"/><rect fill="#F24D5C" height="6" style="stroke:#C82930;stroke-width:1;" width="6" x="494.55" y="127.5391"/><text fill="#000000" font-family="sans-serif" font-size="14" lengthAdjust="spacing" textLength="348.2021" x="506.55" y="133.8857">Bestellung einer technischen Konfiguration (MSB)</text></g><!--class PIA_1170_msg_1--><g class="entity" data-entity="PIA_1170_msg_1" data-source-line="7" data-uid="ent0003" id="entity_PIA_1170_msg_1"><rect fill="#F1F1F1" height="145.7813" rx="2.5" ry="2.5" style="stroke:#181818;stroke-width:0.5;" width="431.2959" x="7" y="218.1869"/><ellipse cx="159.6465" cy="234.1869" fill="#ADD1B2" rx="11" ry="11" style="stroke:#181818;stroke-width:1;"/><path d="M162.6152,239.8275 Q162.0371,240.1244 161.3965,240.265 Q160.7559,240.4213 160.0527,240.4213 Q157.5527,240.4213 156.2246,238.7806 Q154.9121,237.1244 154.9121,233.9994 Q154.9121,230.8744 156.2246,229.2181 Q157.5527,227.5619 160.0527,227.5619 Q160.7559,227.5619 161.3965,227.7181 Q162.0527,227.8744 162.6152,228.1713 L162.6152,230.89 Q161.9902,230.3119 161.3965,230.0463 Q160.8027,229.765 160.1777,229.765 Q158.834,229.765 158.1465,230.8431 Q157.459,231.9056 157.459,233.9994 Q157.459,236.0931 158.1465,237.1713 Q158.834,238.2338 160.1777,238.2338 Q160.8027,238.2338 161.3965,237.9681 Q161.9902,237.6869 162.6152,237.1088 L162.6152,239.8275 Z " fill="#000000"/><text fill="#000000" font-family="sans-serif" font-size="14" lengthAdjust="spacing" textLength="117.5029" x="180.1465" y="239.0336">PIA_1170_msg_1</text><line style="stroke:#181818;stroke-width:0.5;" x1="8" x2="437.2959" y1="250.1869" y2="250.1869"/><text fill="#000000" font-family="sans-serif" font-size="14" lengthAdjust="spacing" textLength="170.1055" x="13" y="267.182">Nachricht: REQOTE 1.3b</text><text fill="#000000" font-family="sans-serif" font-size="14" lengthAdjust="spacing" textLength="346.8145" x="13" y="283.4789">Kontext: 1020   SG27   M   D   200000   1   1   LIN</text><text fill="#000000" font-family="sans-serif" font-size="14" lengthAdjust="spacing" textLength="110.5439" x="13" y="299.7757">Pflichtfeld: Nein</text><text fill="#000000" font-family="sans-serif" font-size="14" lengthAdjust="spacing" textLength="160.5967" x="13" y="316.0726">Codes: 25, 999, ID, PIA</text><text fill="#000000" font-family="sans-serif" font-size="14" lengthAdjust="spacing" textLength="292.2432" x="13" y="332.3695">Quelle: REQOTE_MIG_1_3b_20241001.pdf</text><line style="stroke:#181818;stroke-width:0.5;" x1="8" x2="437.2959" y1="339.6713" y2="339.6713"/><text fill="#000000" font-family="sans-serif" font-size="14" lengthAdjust="spacing" textLength="419.2959" x="13" y="356.6664">Prozesse: Bestellung einer technischen Konfiguration (MSB)</text></g><!--class PIA_1170_proc_1--><g class="entity" data-entity="PIA_1170_proc_1" data-source-line="16" data-uid="ent0005" id="entity_PIA_1170_proc_1"><rect fill="#F1F1F1" height="105.1563" rx="2.5" ry="2.5" style="stroke:#181818;stroke-width:0.5;" width="1301.9961" x="473.65" y="238.4969"/><ellipse cx="1061.1031" cy="258.6297" fill="#ADD1B2" rx="11" ry="11" style="stroke:#181818;stroke-width:1;"/><path d="M1064.0719,264.2703 Q1063.4938,264.5672 1062.8531,264.7078 Q1062.2125,264.8641 1061.5094,264.8641 Q1059.0094,264.8641 1057.6813,263.2234 Q1056.3688,261.5672 1056.3688,258.4422 Q1056.3688,255.3172 1057.6813,253.6609 Q1059.0094,252.0047 1061.5094,252.0047 Q1062.2125,252.0047 1062.8531,252.1609 Q1063.5094,252.3172 1064.0719,252.6141 L1064.0719,255.3328 Q1063.4469,254.7547 1062.8531,254.4891 Q1062.2594,254.2078 1061.6344,254.2078 Q1060.2906,254.2078 1059.6031,255.2859 Q1058.9156,256.3484 1058.9156,258.4422 Q1058.9156,260.5359 1059.6031,261.6141 Q1060.2906,262.6766 1061.6344,262.6766 Q1062.2594,262.6766 1062.8531,262.4109 Q1063.4469,262.1297 1064.0719,261.5516 L1064.0719,264.2703 Z " fill="#000000"/><text fill="#000000" font-family="sans-serif" font-size="12" font-style="italic" lengthAdjust="spacing" textLength="61.0605" x="1110.3678" y="254.6355">&#171;process&#187;</text><text fill="#000000" font-family="sans-serif" font-size="14" lengthAdjust="spacing" textLength="118.5898" x="1081.6031" y="270.4607">PIA_1170_proc_1</text><line style="stroke:#181818;stroke-width:0.5;" x1="474.65" x2="1774.6461" y1="278.7625" y2="278.7625"/><text fill="#000000" font-family="sans-serif" font-size="14" lengthAdjust="spacing" textLength="156.4063" x="479.65" y="295.7576">Gesetze: MsbG, EnWG</text><text fill="#000000" font-family="sans-serif" font-size="14" lengthAdjust="spacing" textLength="1289.9961" x="479.65" y="312.0545">Zusammenfassung: Erl&#228;utere den Prozess zur Bestellung einer spezifischen technischen Konfiguration bei einem Messstellenbetreiber, beispielsweise f&#252;r ein intelligentes Messsystem.</text><line style="stroke:#181818;stroke-width:0.5;" x1="474.65" x2="1774.6461" y1="319.3563" y2="319.3563"/><text fill="#000000" font-family="sans-serif" font-size="14" lengthAdjust="spacing" textLength="348.2021" x="479.65" y="336.3514">Bestellung einer technischen Konfiguration (MSB)</text></g><!--link PIA_1170 to PIA_1170_msg_1--><g class="link" data-entity-1="PIA_1170" data-entity-2="PIA_1170_msg_1" data-source-line="15" data-uid="lnk4" id="link_PIA_1170_PIA_1170_msg_1"><path codeLine="15" d="M563.61,141.6469 C511.07,164.5169 452.5712,189.9816 394.2812,215.3616" fill="none" id="PIA_1170-to-PIA_1170_msg_1" style="stroke:#181818;stroke-width:1;"/><polygon fill="#181818" points="388.78,217.7569,398.6286,217.8314,393.3643,215.7608,395.4349,210.4966,388.78,217.7569" style="stroke:#181818;stroke-width:1;"/><text fill="#000000" font-family="sans-serif" font-size="13" lengthAdjust="spacing" textLength="85.2363" x="489.65" y="184.2538">verwendet in</text></g><!--link PIA_1170 to PIA_1170_proc_1--><g class="link" data-entity-1="PIA_1170" data-entity-2="PIA_1170_proc_1" data-source-line="21" data-uid="lnk6" id="link_PIA_1170_PIA_1170_proc_1"><path codeLine="21" d="M783.69,141.6469 C850.7,170.8169 930.8486,205.7122 999.5386,235.6122" fill="none" id="PIA_1170-to-PIA_1170_proc_1" style="stroke:#181818;stroke-width:1;stroke-dasharray:7,7;"/><polygon fill="#181818" points="1005.04,238.0069,998.3844,230.7472,1000.4555,236.0113,995.1914,238.0824,1005.04,238.0069" style="stroke:#181818;stroke-width:1;"/><text fill="#000000" font-family="sans-serif" font-size="13" lengthAdjust="spacing" textLength="91.6221" x="886.65" y="184.2538">eingebettet in</text></g><!--SRC=[dL5TYzD057tlhxYF2cd8P9Mbmr9mRGb5KtUj8EnBoCT9CZ2Pb9c9gnN_ZJ_3j_rZtgbLbYu-QE0ozyxSS-wv9rvv3LgL7gRqkdGqfvlDAod4PJAhkNQXB499NsT4stA0fBkfmsWR0m_QrNsf_G7ADsYLKLwDXXjlx7Y0Sv2S4vDUmtbeFPcEe0miUTIzKQxkOUZDQ5hLJROCO7gMxwwVpxwTZIy6rnNY9ABkhQfxB-dz-lRTXpM9-ABY1-Rn-CpN8aaJ7hlBqai-SeuLHvg4ZnDnYhURRP3Qwa3MGZUIjgoExrwF3Poaz6L4YyKYeiqg2aeUB_RlAn7TJWp0Rzb5liaAKLnKHPgaBqIIY7ZVjBpv7yldy-Mv0P8-mTx3DF34KizCsjknvgQhgv2mpENowDX_ICtWmBzLKkwgBAAr-PZnxTtaoc60QNagiqbQM_tmVVAme8QvJkxGOR9FXxez3gezJVsxWWhg21WePweZ1qm5Rw4gs2Yykxs2TlUSWDg77pRqinkXLNNWq_t2Vc7q43zsD8wNJzoI0Tw1H_YZgJy1]--></g></svg>