<svg xmlns="http://www.w3.org/2000/svg" xmlns:xlink="http://www.w3.org/1999/xlink" contentStyleType="text/css" data-diagram-type="CLASS" height="370px" preserveAspectRatio="none" style="width:1104px;height:370px;background:#FFFFFF;" version="1.1" viewBox="0 0 1104 370" width="1104px" zoomAndPan="magnify"><title>Datenatlas - PRC:G_0086</title><defs/><g><g class="title" data-source-line="1"><text fill="#000000" font-family="sans-serif" font-size="14" font-weight="bold" lengthAdjust="spacing" textLength="195.8701" x="447.4982" y="22.9951">Datenatlas - PRC:G_0086</text></g><!--class PRC_G_0086--><g class="entity" data-entity="PRC_G_0086" data-source-line="2" data-uid="ent0002" id="entity_PRC_G_0086"><rect fill="#F1F1F1" height="96.8906" rx="2.5" ry="2.5" style="stroke:#181818;stroke-width:0.5;" width="829.9404" x="24.57" y="44.2969"/><ellipse cx="391.0788" cy="60.2969" fill="#ADD1B2" rx="11" ry="11" style="stroke:#181818;stroke-width:1;"/><path d="M394.0475,65.9375 Q393.4694,66.2344 392.8288,66.375 Q392.1882,66.5313 391.485,66.5313 Q388.985,66.5313 387.6569,64.8906 Q386.3444,63.2344 386.3444,60.1094 Q386.3444,56.9844 387.6569,55.3281 Q388.985,53.6719 391.485,53.6719 Q392.1882,53.6719 392.8288,53.8281 Q393.485,53.9844 394.0475,54.2813 L394.0475,57 Q393.4225,56.4219 392.8288,56.1563 Q392.235,55.875 391.61,55.875 Q390.2663,55.875 389.5788,56.9531 Q388.8913,58.0156 388.8913,60.1094 Q388.8913,62.2031 389.5788,63.2813 Q390.2663,64.3438 391.61,64.3438 Q392.235,64.3438 392.8288,64.0781 Q393.4225,63.7969 394.0475,63.2188 L394.0475,65.9375 Z " fill="#000000"/><text fill="#000000" font-family="sans-serif" font-size="14" lengthAdjust="spacing" textLength="88.4229" x="411.5788" y="65.1436">PRC_G_0086</text><line style="stroke:#181818;stroke-width:0.5;" x1="25.57" x2="853.5104" y1="76.2969" y2="76.2969"/><text fill="#000000" font-family="sans-serif" font-size="14" lengthAdjust="spacing" textLength="66.6436" x="44.57" y="93.292">Prozesse:</text><rect fill="none" height="6" style="stroke:#C82930;stroke-width:1;" width="6" x="32.57" y="103.2422"/><text fill="#000000" font-family="sans-serif" font-size="14" lengthAdjust="spacing" textLength="180.3457" x="44.57" y="109.5889">Netznutzungsabrechnung</text><line style="stroke:#181818;stroke-width:0.5;" x1="25.57" x2="853.5104" y1="116.8906" y2="116.8906"/><text fill="#000000" font-family="sans-serif" font-size="14" lengthAdjust="spacing" textLength="817.9404" x="30.57" y="133.8857">Name: Codeliste Gas Nr. G_0086 Codeliste zur Pr&#252;fung auf die Stornorechnung (Rechnung vom MSBN an den MSBA)</text></g><!--class PRC_G_0086_msg_1--><g class="entity" data-entity="PRC_G_0086_msg_1" data-source-line="7" data-uid="ent0003" id="entity_PRC_G_0086_msg_1"><rect fill="#F1F1F1" height="145.7813" rx="2.5" ry="2.5" style="stroke:#181818;stroke-width:0.5;" width="303.0811" x="7" y="218.1869"/><ellipse cx="83.7163" cy="234.1869" fill="#ADD1B2" rx="11" ry="11" style="stroke:#181818;stroke-width:1;"/><path d="M86.6851,239.8275 Q86.1069,240.1244 85.4663,240.265 Q84.8257,240.4213 84.1226,240.4213 Q81.6226,240.4213 80.2944,238.7806 Q78.9819,237.1244 78.9819,233.9994 Q78.9819,230.8744 80.2944,229.2181 Q81.6226,227.5619 84.1226,227.5619 Q84.8257,227.5619 85.4663,227.7181 Q86.1226,227.8744 86.6851,228.1713 L86.6851,230.89 Q86.0601,230.3119 85.4663,230.0463 Q84.8726,229.765 84.2476,229.765 Q82.9038,229.765 82.2163,230.8431 Q81.5288,231.9056 81.5288,233.9994 Q81.5288,236.0931 82.2163,237.1713 Q82.9038,238.2338 84.2476,238.2338 Q84.8726,238.2338 85.4663,237.9681 Q86.0601,237.6869 86.6851,237.1088 L86.6851,239.8275 Z " fill="#000000"/><text fill="#000000" font-family="sans-serif" font-size="14" lengthAdjust="spacing" textLength="141.1484" x="104.2163" y="239.0336">PRC_G_0086_msg_1</text><line style="stroke:#181818;stroke-width:0.5;" x1="8" x2="309.0811" y1="250.1869" y2="250.1869"/><text fill="#000000" font-family="sans-serif" font-size="14" lengthAdjust="spacing" textLength="171.4932" x="13" y="267.182">Nachricht: REMADV 2.9c</text><text fill="#000000" font-family="sans-serif" font-size="14" lengthAdjust="spacing" textLength="123.0605" x="13" y="283.4789">Kontext: Beispiel:</text><text fill="#000000" font-family="sans-serif" font-size="14" lengthAdjust="spacing" textLength="91.4033" x="13" y="299.7757">Pflichtfeld: Ja</text><text fill="#000000" font-family="sans-serif" font-size="14" lengthAdjust="spacing" textLength="282.1943" x="13" y="316.0726">Codes: EBD, ESA, LF, MGV, MSB, NB, NN</text><text fill="#000000" font-family="sans-serif" font-size="14" lengthAdjust="spacing" textLength="251.4395" x="13" y="332.3695">Prozesse: Netznutzungsabrechnung</text><text fill="#000000" font-family="sans-serif" font-size="14" lengthAdjust="spacing" textLength="291.0811" x="13" y="348.6664">Quelle: REMADV_MIG_2.9c_20231024.pdf</text><line style="stroke:#181818;stroke-width:0.5;" x1="8" x2="309.0811" y1="355.9681" y2="355.9681"/></g><!--class PRC_G_0086_proc_1--><g class="entity" data-entity="PRC_G_0086_proc_1" data-source-line="16" data-uid="ent0005" id="entity_PRC_G_0086_proc_1"><rect fill="#F1F1F1" height="105.1563" rx="2.5" ry="2.5" style="stroke:#181818;stroke-width:0.5;" width="752.6465" x="345.22" y="238.4969"/><ellipse cx="646.1756" cy="258.6297" fill="#ADD1B2" rx="11" ry="11" style="stroke:#181818;stroke-width:1;"/><path d="M649.1443,264.2703 Q648.5662,264.5672 647.9256,264.7078 Q647.2849,264.8641 646.5818,264.8641 Q644.0818,264.8641 642.7537,263.2234 Q641.4412,261.5672 641.4412,258.4422 Q641.4412,255.3172 642.7537,253.6609 Q644.0818,252.0047 646.5818,252.0047 Q647.2849,252.0047 647.9256,252.1609 Q648.5818,252.3172 649.1443,252.6141 L649.1443,255.3328 Q648.5193,254.7547 647.9256,254.4891 Q647.3318,254.2078 646.7068,254.2078 Q645.3631,254.2078 644.6756,255.2859 Q643.9881,256.3484 643.9881,258.4422 Q643.9881,260.5359 644.6756,261.6141 Q645.3631,262.6766 646.7068,262.6766 Q647.3318,262.6766 647.9256,262.4109 Q648.5193,262.1297 649.1443,261.5516 L649.1443,264.2703 Z " fill="#000000"/><text fill="#000000" font-family="sans-serif" font-size="12" font-style="italic" lengthAdjust="spacing" textLength="61.0605" x="707.263" y="254.6355">&#171;process&#187;</text><text fill="#000000" font-family="sans-serif" font-size="14" lengthAdjust="spacing" textLength="142.2354" x="666.6756" y="270.4607">PRC_G_0086_proc_1</text><line style="stroke:#181818;stroke-width:0.5;" x1="346.22" x2="1096.8665" y1="278.7625" y2="278.7625"/><text fill="#000000" font-family="sans-serif" font-size="14" lengthAdjust="spacing" textLength="180.3457" x="351.22" y="295.7576">Netznutzungsabrechnung</text><text fill="#000000" font-family="sans-serif" font-size="14" lengthAdjust="spacing" textLength="218.0938" x="351.22" y="312.0545">Gesetze: StromNEV, StromNZV</text><text fill="#000000" font-family="sans-serif" font-size="14" lengthAdjust="spacing" textLength="740.6465" x="351.22" y="328.3514">Zusammenfassung: Wie funktioniert die Netznutzungsabrechnung zwischen Netzbetreiber und Lieferant?</text><line style="stroke:#181818;stroke-width:0.5;" x1="346.22" x2="1096.8665" y1="335.6531" y2="335.6531"/></g><!--link PRC_G_0086 to PRC_G_0086_msg_1--><g class="link" data-entity-1="PRC_G_0086" data-entity-2="PRC_G_0086_msg_1" data-source-line="15" data-uid="lnk4" id="link_PRC_G_0086_PRC_G_0086_msg_1"><path codeLine="15" d="M371.16,141.5169 C338.34,164.4469 303.2486,188.9707 266.8186,214.4207" fill="none" id="PRC_G_0086-to-PRC_G_0086_msg_1" style="stroke:#181818;stroke-width:1;"/><polygon fill="#181818" points="261.9,217.8569,271.5687,215.9817,265.9989,214.9934,266.9872,209.4236,261.9,217.8569" style="stroke:#181818;stroke-width:1;"/><text fill="#000000" font-family="sans-serif" font-size="13" lengthAdjust="spacing" textLength="85.2363" x="325.54" y="184.2538">verwendet in</text></g><!--link PRC_G_0086 to PRC_G_0086_proc_1--><g class="link" data-entity-1="PRC_G_0086" data-entity-2="PRC_G_0086_proc_1" data-source-line="21" data-uid="lnk6" id="link_PRC_G_0086_PRC_G_0086_proc_1"><path codeLine="21" d="M508.16,141.5169 C550.15,170.7469 598.9461,204.7182 641.9861,234.6882" fill="none" id="PRC_G_0086-to-PRC_G_0086_proc_1" style="stroke:#181818;stroke-width:1;stroke-dasharray:7,7;"/><polygon fill="#181818" points="646.91,238.1169,641.81,229.6913,642.8068,235.2597,637.2384,236.2565,646.91,238.1169" style="stroke:#181818;stroke-width:1;"/><text fill="#000000" font-family="sans-serif" font-size="13" lengthAdjust="spacing" textLength="91.6221" x="573.54" y="184.2538">eingebettet in</text></g><!--SRC=[TP71IYD148RlUOh_g30POdPPj958OhB3xfeX9X31oz2PgKcQdUaEtJqg8xwPjtsnhJO6bUYXeVYhkkhxgxpo5M4iFMdfA-dGnMn-APAirplzqSbPSK78TW8UEq0gQnAuD0LLodb2mhzI6-Erv2tHDXOp- - -vRFGQiYbHACB26wkDfNoZWtmqtqTtfiPqCKeXDGhI8HuUyxYPDIqvHu9ZC5vAljMDR_cFawjzeyxJ0MnMktLsyegSRwpADrvWFfaEnqlquxES4t-CzlJ0yeYKsoggmfHPMONQagf2uBTa9NXo0fFHEC9aCOnmzJF2D5b6WJ926bxwdlKhIk2weQgYFKSs_PLaWINhz_hVJdhzx_6sADdCkvrtkuD3Lm9tPEz95-IXzA7thJKvbvsVXu2H1eFT8hx2IiXnYhaMtfewdR2rNNIxvEnjusHTaovv2jSBtF0b-Qn_lJ9QaVKlf_syETfxvV8DNpJaL-GjgHLPDBh0bQAIhDJ-ugFbE1vyOaQ0b5uJj_0lhly3]--></g></svg>