<svg xmlns="http://www.w3.org/2000/svg" xmlns:xlink="http://www.w3.org/1999/xlink" contentStyleType="text/css" data-diagram-type="CLASS" height="370px" preserveAspectRatio="none" style="width:1136px;height:370px;background:#FFFFFF;" version="1.1" viewBox="0 0 1136 370" width="1136px" zoomAndPan="magnify"><title>Datenatlas - PRC:E_0522</title><defs/><g><g class="title" data-source-line="1"><text fill="#000000" font-family="sans-serif" font-size="14" font-weight="bold" lengthAdjust="spacing" textLength="193.9424" x="464.0621" y="22.9951">Datenatlas - PRC:E_0522</text></g><!--class PRC_E_0522--><g class="entity" data-entity="PRC_E_0522" data-source-line="2" data-uid="ent0002" id="entity_PRC_E_0522"><rect fill="#F1F1F1" height="96.8906" rx="2.5" ry="2.5" style="stroke:#181818;stroke-width:0.5;" width="927.4893" x="7" y="44.2969"/><ellipse cx="423.2847" cy="60.2969" fill="#ADD1B2" rx="11" ry="11" style="stroke:#181818;stroke-width:1;"/><path d="M426.2534,65.9375 Q425.6753,66.2344 425.0347,66.375 Q424.394,66.5313 423.6909,66.5313 Q421.1909,66.5313 419.8628,64.8906 Q418.5503,63.2344 418.5503,60.1094 Q418.5503,56.9844 419.8628,55.3281 Q421.1909,53.6719 423.6909,53.6719 Q424.394,53.6719 425.0347,53.8281 Q425.6909,53.9844 426.2534,54.2813 L426.2534,57 Q425.6284,56.4219 425.0347,56.1563 Q424.4409,55.875 423.8159,55.875 Q422.4722,55.875 421.7847,56.9531 Q421.0972,58.0156 421.0972,60.1094 Q421.0972,62.2031 421.7847,63.2813 Q422.4722,64.3438 423.8159,64.3438 Q424.4409,64.3438 425.0347,64.0781 Q425.6284,63.7969 426.2534,63.2188 L426.2534,65.9375 Z " fill="#000000"/><text fill="#000000" font-family="sans-serif" font-size="14" lengthAdjust="spacing" textLength="86.4199" x="443.7847" y="65.1436">PRC_E_0522</text><line style="stroke:#181818;stroke-width:0.5;" x1="8" x2="933.4893" y1="76.2969" y2="76.2969"/><text fill="#000000" font-family="sans-serif" font-size="14" lengthAdjust="spacing" textLength="66.6436" x="27" y="93.292">Prozesse:</text><rect fill="none" height="6" style="stroke:#C82930;stroke-width:1;" width="6" x="15" y="103.2422"/><text fill="#000000" font-family="sans-serif" font-size="14" lengthAdjust="spacing" textLength="180.3457" x="27" y="109.5889">Netznutzungsabrechnung</text><line style="stroke:#181818;stroke-width:0.5;" x1="8" x2="933.4893" y1="116.8906" y2="116.8906"/><text fill="#000000" font-family="sans-serif" font-size="14" lengthAdjust="spacing" textLength="915.4893" x="13" y="133.8857">Name: EBD Nr. E_0522 zur Pr&#252;fung f&#252;r die Antwort auf eine Stornierung (Abrechnung Preisblatts A des MSB zwischen MSB und LF)</text></g><!--class PRC_E_0522_msg_1--><g class="entity" data-entity="PRC_E_0522_msg_1" data-source-line="7" data-uid="ent0003" id="entity_PRC_E_0522_msg_1"><rect fill="#F1F1F1" height="145.7813" rx="2.5" ry="2.5" style="stroke:#181818;stroke-width:0.5;" width="303.0811" x="38.2" y="218.1869"/><ellipse cx="115.9178" cy="234.1869" fill="#ADD1B2" rx="11" ry="11" style="stroke:#181818;stroke-width:1;"/><path d="M118.8865,239.8275 Q118.3084,240.1244 117.6678,240.265 Q117.0271,240.4213 116.324,240.4213 Q113.824,240.4213 112.4959,238.7806 Q111.1834,237.1244 111.1834,233.9994 Q111.1834,230.8744 112.4959,229.2181 Q113.824,227.5619 116.324,227.5619 Q117.0271,227.5619 117.6678,227.7181 Q118.324,227.8744 118.8865,228.1713 L118.8865,230.89 Q118.2615,230.3119 117.6678,230.0463 Q117.074,229.765 116.449,229.765 Q115.1053,229.765 114.4178,230.8431 Q113.7303,231.9056 113.7303,233.9994 Q113.7303,236.0931 114.4178,237.1713 Q115.1053,238.2338 116.449,238.2338 Q117.074,238.2338 117.6678,237.9681 Q118.2615,237.6869 118.8865,237.1088 L118.8865,239.8275 Z " fill="#000000"/><text fill="#000000" font-family="sans-serif" font-size="14" lengthAdjust="spacing" textLength="139.1455" x="136.4178" y="239.0336">PRC_E_0522_msg_1</text><line style="stroke:#181818;stroke-width:0.5;" x1="39.2" x2="340.2811" y1="250.1869" y2="250.1869"/><text fill="#000000" font-family="sans-serif" font-size="14" lengthAdjust="spacing" textLength="171.4932" x="44.2" y="267.182">Nachricht: REMADV 2.9c</text><text fill="#000000" font-family="sans-serif" font-size="14" lengthAdjust="spacing" textLength="123.0605" x="44.2" y="283.4789">Kontext: Beispiel:</text><text fill="#000000" font-family="sans-serif" font-size="14" lengthAdjust="spacing" textLength="91.4033" x="44.2" y="299.7757">Pflichtfeld: Ja</text><text fill="#000000" font-family="sans-serif" font-size="14" lengthAdjust="spacing" textLength="282.1943" x="44.2" y="316.0726">Codes: EBD, ESA, LF, MGV, MSB, NB, NN</text><text fill="#000000" font-family="sans-serif" font-size="14" lengthAdjust="spacing" textLength="251.4395" x="44.2" y="332.3695">Prozesse: Netznutzungsabrechnung</text><text fill="#000000" font-family="sans-serif" font-size="14" lengthAdjust="spacing" textLength="291.0811" x="44.2" y="348.6664">Quelle: REMADV_MIG_2.9c_20231024.pdf</text><line style="stroke:#181818;stroke-width:0.5;" x1="39.2" x2="340.2811" y1="355.9681" y2="355.9681"/></g><!--class PRC_E_0522_proc_1--><g class="entity" data-entity="PRC_E_0522_proc_1" data-source-line="16" data-uid="ent0005" id="entity_PRC_E_0522_proc_1"><rect fill="#F1F1F1" height="105.1563" rx="2.5" ry="2.5" style="stroke:#181818;stroke-width:0.5;" width="752.6465" x="376.42" y="238.4969"/><ellipse cx="678.377" cy="258.6297" fill="#ADD1B2" rx="11" ry="11" style="stroke:#181818;stroke-width:1;"/><path d="M681.3458,264.2703 Q680.7677,264.5672 680.127,264.7078 Q679.4864,264.8641 678.7833,264.8641 Q676.2833,264.8641 674.9552,263.2234 Q673.6427,261.5672 673.6427,258.4422 Q673.6427,255.3172 674.9552,253.6609 Q676.2833,252.0047 678.7833,252.0047 Q679.4864,252.0047 680.127,252.1609 Q680.7833,252.3172 681.3458,252.6141 L681.3458,255.3328 Q680.7208,254.7547 680.127,254.4891 Q679.5333,254.2078 678.9083,254.2078 Q677.5645,254.2078 676.877,255.2859 Q676.1895,256.3484 676.1895,258.4422 Q676.1895,260.5359 676.877,261.6141 Q677.5645,262.6766 678.9083,262.6766 Q679.5333,262.6766 680.127,262.4109 Q680.7208,262.1297 681.3458,261.5516 L681.3458,264.2703 Z " fill="#000000"/><text fill="#000000" font-family="sans-serif" font-size="12" font-style="italic" lengthAdjust="spacing" textLength="61.0605" x="738.463" y="254.6355">&#171;process&#187;</text><text fill="#000000" font-family="sans-serif" font-size="14" lengthAdjust="spacing" textLength="140.2324" x="698.877" y="270.4607">PRC_E_0522_proc_1</text><line style="stroke:#181818;stroke-width:0.5;" x1="377.42" x2="1128.0665" y1="278.7625" y2="278.7625"/><text fill="#000000" font-family="sans-serif" font-size="14" lengthAdjust="spacing" textLength="180.3457" x="382.42" y="295.7576">Netznutzungsabrechnung</text><text fill="#000000" font-family="sans-serif" font-size="14" lengthAdjust="spacing" textLength="218.0938" x="382.42" y="312.0545">Gesetze: StromNEV, StromNZV</text><text fill="#000000" font-family="sans-serif" font-size="14" lengthAdjust="spacing" textLength="740.6465" x="382.42" y="328.3514">Zusammenfassung: Wie funktioniert die Netznutzungsabrechnung zwischen Netzbetreiber und Lieferant?</text><line style="stroke:#181818;stroke-width:0.5;" x1="377.42" x2="1128.0665" y1="335.6531" y2="335.6531"/></g><!--link PRC_E_0522 to PRC_E_0522_msg_1--><g class="link" data-entity-1="PRC_E_0522" data-entity-2="PRC_E_0522_msg_1" data-source-line="15" data-uid="lnk4" id="link_PRC_E_0522_PRC_E_0522_msg_1"><path codeLine="15" d="M402.36,141.5169 C369.55,164.4469 334.4486,188.9707 298.0186,214.4207" fill="none" id="PRC_E_0522-to-PRC_E_0522_msg_1" style="stroke:#181818;stroke-width:1;"/><polygon fill="#181818" points="293.1,217.8569,302.7687,215.9817,297.1989,214.9934,298.1872,209.4236,293.1,217.8569" style="stroke:#181818;stroke-width:1;"/><text fill="#000000" font-family="sans-serif" font-size="13" lengthAdjust="spacing" textLength="85.2363" x="356.74" y="184.2538">verwendet in</text></g><!--link PRC_E_0522 to PRC_E_0522_proc_1--><g class="link" data-entity-1="PRC_E_0522" data-entity-2="PRC_E_0522_proc_1" data-source-line="21" data-uid="lnk6" id="link_PRC_E_0522_PRC_E_0522_proc_1"><path codeLine="21" d="M539.37,141.5169 C581.35,170.7469 630.1461,204.7182 673.1861,234.6882" fill="none" id="PRC_E_0522-to-PRC_E_0522_proc_1" style="stroke:#181818;stroke-width:1;stroke-dasharray:7,7;"/><polygon fill="#181818" points="678.11,238.1169,673.01,229.6913,674.0068,235.2597,668.4384,236.2565,678.11,238.1169" style="stroke:#181818;stroke-width:1;"/><text fill="#000000" font-family="sans-serif" font-size="13" lengthAdjust="spacing" textLength="91.6221" x="604.74" y="184.2538">eingebettet in</text></g><!--SRC=[TP9FQzj04CNl_XJls88i7BKzL0G7ELPD_rYeCJYGYrXB8tkfj3Axexgez9lbbY_MMJjjKvmS1ACtm-plxLlMt13cYiaeRfJ36FdDTPmMatTHD2f5SLueJW9-Ze1CjHGZdSsHsH2FZQ6toEt3VTsRBUg7UujA4nB3XyuoL5-3j26ikBD6a_LJhvADfN9dV9rRqcxJA6Q711KvB5Sp30VjoXsPuqzlAdpvy5e0SjiDv1p5KaE0C-B1z3p88gV-xXpzEiClMhSjBXvDb3khont7k4cNoNoDA7nVIkDpPvX-Y3mJehscnf-IrusVhQcfOdnIebnt0dcyXG3fAWa4BS1oiGuyQu3CVzbJrfSeWQyzDGtzuIYM7nU5PocYIVJcOXAz3VTLBMQUf30UJyzTnVXEza2c8eOsvzxtjYjbxFBI5u8qdPukuYMi1Jbf2TUARTTcgLWxLNThwTxrJhKjcLfEaVaOjnAtXF-DTUS3vcF-po__bwllRuWb_0tPKyAQQhBAyDN_biDm-eoPsB-gBSaAFhh-3G00]--></g></svg>