<svg xmlns="http://www.w3.org/2000/svg" xmlns:xlink="http://www.w3.org/1999/xlink" contentStyleType="text/css" data-diagram-type="CLASS" height="370px" preserveAspectRatio="none" style="width:1104px;height:370px;background:#FFFFFF;" version="1.1" viewBox="0 0 1104 370" width="1104px" zoomAndPan="magnify"><title>Datenatlas - PRC:E_0266</title><defs/><g><g class="title" data-source-line="1"><text fill="#000000" font-family="sans-serif" font-size="14" font-weight="bold" lengthAdjust="spacing" textLength="193.9424" x="448.4621" y="22.9951">Datenatlas - PRC:E_0266</text></g><!--class PRC_E_0266--><g class="entity" data-entity="PRC_E_0266" data-source-line="2" data-uid="ent0002" id="entity_PRC_E_0266"><rect fill="#F1F1F1" height="96.8906" rx="2.5" ry="2.5" style="stroke:#181818;stroke-width:0.5;" width="730.0264" x="74.53" y="44.2969"/><ellipse cx="392.0832" cy="60.2969" fill="#ADD1B2" rx="11" ry="11" style="stroke:#181818;stroke-width:1;"/><path d="M395.052,65.9375 Q394.4738,66.2344 393.8332,66.375 Q393.1926,66.5313 392.4895,66.5313 Q389.9895,66.5313 388.6613,64.8906 Q387.3488,63.2344 387.3488,60.1094 Q387.3488,56.9844 388.6613,55.3281 Q389.9895,53.6719 392.4895,53.6719 Q393.1926,53.6719 393.8332,53.8281 Q394.4895,53.9844 395.052,54.2813 L395.052,57 Q394.427,56.4219 393.8332,56.1563 Q393.2395,55.875 392.6145,55.875 Q391.2707,55.875 390.5832,56.9531 Q389.8957,58.0156 389.8957,60.1094 Q389.8957,62.2031 390.5832,63.2813 Q391.2707,64.3438 392.6145,64.3438 Q393.2395,64.3438 393.8332,64.0781 Q394.427,63.7969 395.052,63.2188 L395.052,65.9375 Z " fill="#000000"/><text fill="#000000" font-family="sans-serif" font-size="14" lengthAdjust="spacing" textLength="86.4199" x="412.5832" y="65.1436">PRC_E_0266</text><line style="stroke:#181818;stroke-width:0.5;" x1="75.53" x2="803.5564" y1="76.2969" y2="76.2969"/><text fill="#000000" font-family="sans-serif" font-size="14" lengthAdjust="spacing" textLength="704.0264" x="94.53" y="93.292">Name: EBD Nr. E_0266 zur erneuten Pr&#252;fung der Abrechnung einer f&#252;r den ESA erbrachten Leistung</text><text fill="#000000" font-family="sans-serif" font-size="14" lengthAdjust="spacing" textLength="66.6436" x="94.53" y="109.5889">Prozesse:</text><rect fill="none" height="6" style="stroke:#C82930;stroke-width:1;" width="6" x="82.53" y="119.5391"/><text fill="#000000" font-family="sans-serif" font-size="14" lengthAdjust="spacing" textLength="180.3457" x="94.53" y="125.8857">Netznutzungsabrechnung</text><line style="stroke:#181818;stroke-width:0.5;" x1="75.53" x2="803.5564" y1="133.1875" y2="133.1875"/></g><!--class PRC_E_0266_msg_1--><g class="entity" data-entity="PRC_E_0266_msg_1" data-source-line="7" data-uid="ent0003" id="entity_PRC_E_0266_msg_1"><rect fill="#F1F1F1" height="145.7813" rx="2.5" ry="2.5" style="stroke:#181818;stroke-width:0.5;" width="303.0811" x="7" y="218.1869"/><ellipse cx="84.7178" cy="234.1869" fill="#ADD1B2" rx="11" ry="11" style="stroke:#181818;stroke-width:1;"/><path d="M87.6865,239.8275 Q87.1084,240.1244 86.4678,240.265 Q85.8271,240.4213 85.124,240.4213 Q82.624,240.4213 81.2959,238.7806 Q79.9834,237.1244 79.9834,233.9994 Q79.9834,230.8744 81.2959,229.2181 Q82.624,227.5619 85.124,227.5619 Q85.8271,227.5619 86.4678,227.7181 Q87.124,227.8744 87.6865,228.1713 L87.6865,230.89 Q87.0615,230.3119 86.4678,230.0463 Q85.874,229.765 85.249,229.765 Q83.9053,229.765 83.2178,230.8431 Q82.5303,231.9056 82.5303,233.9994 Q82.5303,236.0931 83.2178,237.1713 Q83.9053,238.2338 85.249,238.2338 Q85.874,238.2338 86.4678,237.9681 Q87.0615,237.6869 87.6865,237.1088 L87.6865,239.8275 Z " fill="#000000"/><text fill="#000000" font-family="sans-serif" font-size="14" lengthAdjust="spacing" textLength="139.1455" x="105.2178" y="239.0336">PRC_E_0266_msg_1</text><line style="stroke:#181818;stroke-width:0.5;" x1="8" x2="309.0811" y1="250.1869" y2="250.1869"/><text fill="#000000" font-family="sans-serif" font-size="14" lengthAdjust="spacing" textLength="171.4932" x="13" y="267.182">Nachricht: REMADV 2.9c</text><text fill="#000000" font-family="sans-serif" font-size="14" lengthAdjust="spacing" textLength="123.0605" x="13" y="283.4789">Kontext: Beispiel:</text><text fill="#000000" font-family="sans-serif" font-size="14" lengthAdjust="spacing" textLength="91.4033" x="13" y="299.7757">Pflichtfeld: Ja</text><text fill="#000000" font-family="sans-serif" font-size="14" lengthAdjust="spacing" textLength="282.1943" x="13" y="316.0726">Codes: EBD, ESA, LF, MGV, MSB, NB, NN</text><text fill="#000000" font-family="sans-serif" font-size="14" lengthAdjust="spacing" textLength="251.4395" x="13" y="332.3695">Prozesse: Netznutzungsabrechnung</text><text fill="#000000" font-family="sans-serif" font-size="14" lengthAdjust="spacing" textLength="291.0811" x="13" y="348.6664">Quelle: REMADV_MIG_2.9c_20231024.pdf</text><line style="stroke:#181818;stroke-width:0.5;" x1="8" x2="309.0811" y1="355.9681" y2="355.9681"/></g><!--class PRC_E_0266_proc_1--><g class="entity" data-entity="PRC_E_0266_proc_1" data-source-line="16" data-uid="ent0005" id="entity_PRC_E_0266_proc_1"><rect fill="#F1F1F1" height="105.1563" rx="2.5" ry="2.5" style="stroke:#181818;stroke-width:0.5;" width="752.6465" x="345.22" y="238.4969"/><ellipse cx="647.177" cy="258.6297" fill="#ADD1B2" rx="11" ry="11" style="stroke:#181818;stroke-width:1;"/><path d="M650.1458,264.2703 Q649.5677,264.5672 648.927,264.7078 Q648.2864,264.8641 647.5833,264.8641 Q645.0833,264.8641 643.7552,263.2234 Q642.4427,261.5672 642.4427,258.4422 Q642.4427,255.3172 643.7552,253.6609 Q645.0833,252.0047 647.5833,252.0047 Q648.2864,252.0047 648.927,252.1609 Q649.5833,252.3172 650.1458,252.6141 L650.1458,255.3328 Q649.5208,254.7547 648.927,254.4891 Q648.3333,254.2078 647.7083,254.2078 Q646.3645,254.2078 645.677,255.2859 Q644.9895,256.3484 644.9895,258.4422 Q644.9895,260.5359 645.677,261.6141 Q646.3645,262.6766 647.7083,262.6766 Q648.3333,262.6766 648.927,262.4109 Q649.5208,262.1297 650.1458,261.5516 L650.1458,264.2703 Z " fill="#000000"/><text fill="#000000" font-family="sans-serif" font-size="12" font-style="italic" lengthAdjust="spacing" textLength="61.0605" x="707.263" y="254.6355">&#171;process&#187;</text><text fill="#000000" font-family="sans-serif" font-size="14" lengthAdjust="spacing" textLength="140.2324" x="667.677" y="270.4607">PRC_E_0266_proc_1</text><line style="stroke:#181818;stroke-width:0.5;" x1="346.22" x2="1096.8665" y1="278.7625" y2="278.7625"/><text fill="#000000" font-family="sans-serif" font-size="14" lengthAdjust="spacing" textLength="180.3457" x="351.22" y="295.7576">Netznutzungsabrechnung</text><text fill="#000000" font-family="sans-serif" font-size="14" lengthAdjust="spacing" textLength="218.0938" x="351.22" y="312.0545">Gesetze: StromNEV, StromNZV</text><text fill="#000000" font-family="sans-serif" font-size="14" lengthAdjust="spacing" textLength="740.6465" x="351.22" y="328.3514">Zusammenfassung: Wie funktioniert die Netznutzungsabrechnung zwischen Netzbetreiber und Lieferant?</text><line style="stroke:#181818;stroke-width:0.5;" x1="346.22" x2="1096.8665" y1="335.6531" y2="335.6531"/></g><!--link PRC_E_0266 to PRC_E_0266_msg_1--><g class="link" data-entity-1="PRC_E_0266" data-entity-2="PRC_E_0266_msg_1" data-source-line="15" data-uid="lnk4" id="link_PRC_E_0266_PRC_E_0266_msg_1"><path codeLine="15" d="M371.16,141.5169 C338.34,164.4469 303.2486,188.9707 266.8186,214.4207" fill="none" id="PRC_E_0266-to-PRC_E_0266_msg_1" style="stroke:#181818;stroke-width:1;"/><polygon fill="#181818" points="261.9,217.8569,271.5687,215.9817,265.9989,214.9934,266.9872,209.4236,261.9,217.8569" style="stroke:#181818;stroke-width:1;"/><text fill="#000000" font-family="sans-serif" font-size="13" lengthAdjust="spacing" textLength="85.2363" x="325.54" y="184.2538">verwendet in</text></g><!--link PRC_E_0266 to PRC_E_0266_proc_1--><g class="link" data-entity-1="PRC_E_0266" data-entity-2="PRC_E_0266_proc_1" data-source-line="21" data-uid="lnk6" id="link_PRC_E_0266_PRC_E_0266_proc_1"><path codeLine="21" d="M508.16,141.5169 C550.15,170.7469 598.9461,204.7182 641.9861,234.6882" fill="none" id="PRC_E_0266-to-PRC_E_0266_proc_1" style="stroke:#181818;stroke-width:1;stroke-dasharray:7,7;"/><polygon fill="#181818" points="646.91,238.1169,641.81,229.6913,642.8068,235.2597,637.2384,236.2565,646.91,238.1169" style="stroke:#181818;stroke-width:1;"/><text fill="#000000" font-family="sans-serif" font-size="13" lengthAdjust="spacing" textLength="91.6221" x="573.54" y="184.2538">eingebettet in</text></g><!--SRC=[TLBRRe9047ttA-O3a2XjJ4eCZHTgsYgXcjZ45xB089l2OdQNsj3qptppnpghjh6nFa26SsRFdBE3vhf063EDWkc2AMX3E1-vVjHnUhrMGeWoG7G4uBC54B0INV27OmYa3IUYgIMW55YJ48HolyjgiOOK9GnYYKakp2ToGK2stqbY1FYB0Ps99KjoSsgAN6bgen6Xh1fK2bsgWIm5g1jHwuPOnNxrMbyN1gDIhQFkoMQIIqxIBipzsM2y1CU-IuXuheJ63uA7D733iJ1JmgmmlHaMgGjFZ91HbQ8wvBICKmkc3nRC9ajwBOOM1EO9phrUSmdmKcDHu8-FQFOuYOoNoEauDzsESsjlqep2dDrpk-rTfdBX7UKMHOeQkBZClf5LGctzlYd8akSTB-AQhGageiZNGikg37oATgnMIs9NjM9bYIAZATJlmYj7eAs-QLu9Zb93Ii3_uj1ikKfoMghXOzGIUKohhqKAKuuPIYRq_T_8jktz4yOrFyqQIK8VKdy3]--></g></svg>