<svg xmlns="http://www.w3.org/2000/svg" xmlns:xlink="http://www.w3.org/1999/xlink" contentStyleType="text/css" data-diagram-type="CLASS" height="370px" preserveAspectRatio="none" style="width:1582px;height:370px;background:#FFFFFF;" version="1.1" viewBox="0 0 1582 370" width="1582px" zoomAndPan="magnify"><title>Datenatlas - PRC:146</title><defs/><g><g class="title" data-source-line="1"><text fill="#000000" font-family="sans-serif" font-size="14" font-weight="bold" lengthAdjust="spacing" textLength="167.6377" x="700.5144" y="22.9951">Datenatlas - PRC:146</text></g><!--class PRC_146--><g class="entity" data-entity="PRC_146" data-source-line="2" data-uid="ent0002" id="entity_PRC_146"><rect fill="#F1F1F1" height="96.8906" rx="2.5" ry="2.5" style="stroke:#181818;stroke-width:0.5;" width="206.3457" x="695.17" y="44.2969"/><ellipse cx="763.2594" cy="60.2969" fill="#ADD1B2" rx="11" ry="11" style="stroke:#181818;stroke-width:1;"/><path d="M766.2281,65.9375 Q765.65,66.2344 765.0094,66.375 Q764.3687,66.5313 763.6656,66.5313 Q761.1656,66.5313 759.8375,64.8906 Q758.525,63.2344 758.525,60.1094 Q758.525,56.9844 759.8375,55.3281 Q761.1656,53.6719 763.6656,53.6719 Q764.3687,53.6719 765.0094,53.8281 Q765.6656,53.9844 766.2281,54.2813 L766.2281,57 Q765.6031,56.4219 765.0094,56.1563 Q764.4156,55.875 763.7906,55.875 Q762.4469,55.875 761.7594,56.9531 Q761.0719,58.0156 761.0719,60.1094 Q761.0719,62.2031 761.7594,63.2813 Q762.4469,64.3438 763.7906,64.3438 Q764.4156,64.3438 765.0094,64.0781 Q765.6031,63.7969 766.2281,63.2188 L766.2281,65.9375 Z " fill="#000000"/><text fill="#000000" font-family="sans-serif" font-size="14" lengthAdjust="spacing" textLength="61.667" x="783.7594" y="65.1436">PRC_146</text><line style="stroke:#181818;stroke-width:0.5;" x1="696.17" x2="900.5157" y1="76.2969" y2="76.2969"/><text fill="#000000" font-family="sans-serif" font-size="14" lengthAdjust="spacing" textLength="155.21" x="715.17" y="93.292">Name: W&#228;hrungscode</text><text fill="#000000" font-family="sans-serif" font-size="14" lengthAdjust="spacing" textLength="66.6436" x="715.17" y="109.5889">Prozesse:</text><rect fill="none" height="6" style="stroke:#C82930;stroke-width:1;" width="6" x="703.17" y="119.5391"/><text fill="#000000" font-family="sans-serif" font-size="14" lengthAdjust="spacing" textLength="180.3457" x="715.17" y="125.8857">Netznutzungsabrechnung</text><line style="stroke:#181818;stroke-width:0.5;" x1="696.17" x2="900.5157" y1="133.1875" y2="133.1875"/></g><!--class PRC_146_msg_1--><g class="entity" data-entity="PRC_146_msg_1" data-source-line="7" data-uid="ent0003" id="entity_PRC_146_msg_1"><rect fill="#F1F1F1" height="145.7813" rx="2.5" ry="2.5" style="stroke:#181818;stroke-width:0.5;" width="780.6875" x="7" y="218.1869"/><ellipse cx="335.8975" cy="234.1869" fill="#ADD1B2" rx="11" ry="11" style="stroke:#181818;stroke-width:1;"/><path d="M338.8662,239.8275 Q338.2881,240.1244 337.6475,240.265 Q337.0068,240.4213 336.3037,240.4213 Q333.8037,240.4213 332.4756,238.7806 Q331.1631,237.1244 331.1631,233.9994 Q331.1631,230.8744 332.4756,229.2181 Q333.8037,227.5619 336.3037,227.5619 Q337.0068,227.5619 337.6475,227.7181 Q338.3037,227.8744 338.8662,228.1713 L338.8662,230.89 Q338.2412,230.3119 337.6475,230.0463 Q337.0537,229.765 336.4287,229.765 Q335.085,229.765 334.3975,230.8431 Q333.71,231.9056 333.71,233.9994 Q333.71,236.0931 334.3975,237.1713 Q335.085,238.2338 336.4287,238.2338 Q337.0537,238.2338 337.6475,237.9681 Q338.2412,237.6869 338.8662,237.1088 L338.8662,239.8275 Z " fill="#000000"/><text fill="#000000" font-family="sans-serif" font-size="14" lengthAdjust="spacing" textLength="114.3926" x="356.3975" y="239.0336">PRC_146_msg_1</text><line style="stroke:#181818;stroke-width:0.5;" x1="8" x2="786.6875" y1="250.1869" y2="250.1869"/><text fill="#000000" font-family="sans-serif" font-size="14" lengthAdjust="spacing" textLength="162.2988" x="13" y="267.182">Nachricht: PRICAT 2.0d</text><text fill="#000000" font-family="sans-serif" font-size="14" lengthAdjust="spacing" textLength="170.3447" x="13" y="283.4789">Kontext: Segmentlayout</text><text fill="#000000" font-family="sans-serif" font-size="14" lengthAdjust="spacing" textLength="110.5439" x="13" y="299.7757">Pflichtfeld: Nein</text><text fill="#000000" font-family="sans-serif" font-size="14" lengthAdjust="spacing" textLength="768.6875" x="13" y="316.0726">Codes: 000, 10, 100, 130, 15, 20, 200, 30, 31, 32, 40, 60, OCR, POG, Z21, Z22, Z23, Z24, Z25, Z28, Z29, Z30</text><text fill="#000000" font-family="sans-serif" font-size="14" lengthAdjust="spacing" textLength="251.4395" x="13" y="332.3695">Prozesse: Netznutzungsabrechnung</text><text fill="#000000" font-family="sans-serif" font-size="14" lengthAdjust="spacing" textLength="284.4365" x="13" y="348.6664">Quelle: PRICAT_MIG_2_0d_20240619.pdf</text><line style="stroke:#181818;stroke-width:0.5;" x1="8" x2="786.6875" y1="355.9681" y2="355.9681"/></g><!--class PRC_146_proc_1--><g class="entity" data-entity="PRC_146_proc_1" data-source-line="16" data-uid="ent0005" id="entity_PRC_146_proc_1"><rect fill="#F1F1F1" height="105.1563" rx="2.5" ry="2.5" style="stroke:#181818;stroke-width:0.5;" width="752.6465" x="823.02" y="238.4969"/><ellipse cx="1137.3535" cy="258.6297" fill="#ADD1B2" rx="11" ry="11" style="stroke:#181818;stroke-width:1;"/><path d="M1140.3222,264.2703 Q1139.7441,264.5672 1139.1035,264.7078 Q1138.4629,264.8641 1137.7597,264.8641 Q1135.2597,264.8641 1133.9316,263.2234 Q1132.6191,261.5672 1132.6191,258.4422 Q1132.6191,255.3172 1133.9316,253.6609 Q1135.2597,252.0047 1137.7597,252.0047 Q1138.4629,252.0047 1139.1035,252.1609 Q1139.7597,252.3172 1140.3222,252.6141 L1140.3222,255.3328 Q1139.6972,254.7547 1139.1035,254.4891 Q1138.5097,254.2078 1137.8847,254.2078 Q1136.541,254.2078 1135.8535,255.2859 Q1135.166,256.3484 1135.166,258.4422 Q1135.166,260.5359 1135.8535,261.6141 Q1136.541,262.6766 1137.8847,262.6766 Q1138.5097,262.6766 1139.1035,262.4109 Q1139.6972,262.1297 1140.3222,261.5516 L1140.3222,264.2703 Z " fill="#000000"/><text fill="#000000" font-family="sans-serif" font-size="12" font-style="italic" lengthAdjust="spacing" textLength="61.0605" x="1185.063" y="254.6355">&#171;process&#187;</text><text fill="#000000" font-family="sans-serif" font-size="14" lengthAdjust="spacing" textLength="115.4795" x="1157.8535" y="270.4607">PRC_146_proc_1</text><line style="stroke:#181818;stroke-width:0.5;" x1="824.02" x2="1574.6665" y1="278.7625" y2="278.7625"/><text fill="#000000" font-family="sans-serif" font-size="14" lengthAdjust="spacing" textLength="180.3457" x="829.02" y="295.7576">Netznutzungsabrechnung</text><text fill="#000000" font-family="sans-serif" font-size="14" lengthAdjust="spacing" textLength="218.0938" x="829.02" y="312.0545">Gesetze: StromNEV, StromNZV</text><text fill="#000000" font-family="sans-serif" font-size="14" lengthAdjust="spacing" textLength="740.6465" x="829.02" y="328.3514">Zusammenfassung: Wie funktioniert die Netznutzungsabrechnung zwischen Netzbetreiber und Lieferant?</text><line style="stroke:#181818;stroke-width:0.5;" x1="824.02" x2="1574.6665" y1="335.6531" y2="335.6531"/></g><!--link PRC_146 to PRC_146_msg_1--><g class="link" data-entity-1="PRC_146" data-entity-2="PRC_146_msg_1" data-source-line="15" data-uid="lnk4" id="link_PRC_146_PRC_146_msg_1"><path codeLine="15" d="M700.5,141.6469 C653.79,164.5169 602.2788,189.7386 550.4388,215.1186" fill="none" id="PRC_146-to-PRC_146_msg_1" style="stroke:#181818;stroke-width:1;"/><polygon fill="#181818" points="545.05,217.7569,554.8921,217.392,549.5407,215.5583,551.3744,210.2069,545.05,217.7569" style="stroke:#181818;stroke-width:1;"/><text fill="#000000" font-family="sans-serif" font-size="13" lengthAdjust="spacing" textLength="85.2363" x="635.34" y="184.2538">verwendet in</text></g><!--link PRC_146 to PRC_146_proc_1--><g class="link" data-entity-1="PRC_146" data-entity-2="PRC_146_proc_1" data-source-line="21" data-uid="lnk6" id="link_PRC_146_PRC_146_proc_1"><path codeLine="21" d="M896.18,141.6469 C955.77,170.8169 1026.5312,205.4685 1087.6012,235.3685" fill="none" id="PRC_146-to-PRC_146_proc_1" style="stroke:#181818;stroke-width:1;stroke-dasharray:7,7;"/><polygon fill="#181818" points="1092.99,238.0069,1086.6657,230.4568,1088.4993,235.8082,1083.1479,237.6419,1092.99,238.0069" style="stroke:#181818;stroke-width:1;"/><text fill="#000000" font-family="sans-serif" font-size="13" lengthAdjust="spacing" textLength="91.6221" x="988.34" y="184.2538">eingebettet in</text></g><!--SRC=[TL7RJi9047tdA-O3IhEzGAGX65CD8IeW64nuQKexRJUsMxAx5SNuD_w9F-OiGW947kPaRZipvwpckaIuZJMAM9UnWZPCPs7W-DrMGg4oKKGHVBO0nd650RpyV1Uo4RbAwXGfEvNr5fN2W7oWzsFKMz7ehMc9LnAJGf3R-ZeT65KgZvpzsAIGF2bqGCLHUFCChirIAjpNGkCxfUUOLoZele-wqMPbLfh-3Ciqe7rSK2waQrG0Z34Bd9qPy0nqB72PCGAJy1mormAV_2xP99nPC9qCBLYwZW7NW6V0Dz0nS6MWH-2nOzANw08yDLYMUE0KFOw6aHknD7APwxEkqxFNQKQg70HkjmTdsWJmXdA38aKDHF5KlhMi4-hfzur3bmm6VrfUkcQ8YafqpbpBkXhVBQozjrnGTTcek2A9Crf1_VJ9725hnAlcjU0eDQIK-7yuR3TS9GMANNs5MY9VeOH6fF30CKCP2trznDIs1-Sq0g1Fp94UwntPNm00]--></g></svg>