<svg xmlns="http://www.w3.org/2000/svg" xmlns:xlink="http://www.w3.org/1999/xlink" contentStyleType="text/css" data-diagram-type="CLASS" height="370px" preserveAspectRatio="none" style="width:1582px;height:370px;background:#FFFFFF;" version="1.1" viewBox="0 0 1582 370" width="1582px" zoomAndPan="magnify"><title>Datenatlas - PRC:5125</title><defs/><g><g class="title" data-source-line="1"><text fill="#000000" font-family="sans-serif" font-size="14" font-weight="bold" lengthAdjust="spacing" textLength="177.3789" x="695.6438" y="22.9951">Datenatlas - PRC:5125</text></g><!--class PRC_5125--><g class="entity" data-entity="PRC_5125" data-source-line="2" data-uid="ent0002" id="entity_PRC_5125"><rect fill="#F1F1F1" height="96.8906" rx="2.5" ry="2.5" style="stroke:#181818;stroke-width:0.5;" width="206.3457" x="695.17" y="44.2969"/><ellipse cx="758.8057" cy="60.2969" fill="#ADD1B2" rx="11" ry="11" style="stroke:#181818;stroke-width:1;"/><path d="M761.7745,65.9375 Q761.1964,66.2344 760.5557,66.375 Q759.9151,66.5313 759.212,66.5313 Q756.712,66.5313 755.3839,64.8906 Q754.0714,63.2344 754.0714,60.1094 Q754.0714,56.9844 755.3839,55.3281 Q756.712,53.6719 759.212,53.6719 Q759.9151,53.6719 760.5557,53.8281 Q761.212,53.9844 761.7745,54.2813 L761.7745,57 Q761.1495,56.4219 760.5557,56.1563 Q759.962,55.875 759.337,55.875 Q757.9932,55.875 757.3057,56.9531 Q756.6182,58.0156 756.6182,60.1094 Q756.6182,62.2031 757.3057,63.2813 Q757.9932,64.3438 759.337,64.3438 Q759.962,64.3438 760.5557,64.0781 Q761.1495,63.7969 761.7745,63.2188 L761.7745,65.9375 Z " fill="#000000"/><text fill="#000000" font-family="sans-serif" font-size="14" lengthAdjust="spacing" textLength="70.5742" x="779.3057" y="65.1436">PRC_5125</text><line style="stroke:#181818;stroke-width:0.5;" x1="696.17" x2="900.5157" y1="76.2969" y2="76.2969"/><text fill="#000000" font-family="sans-serif" font-size="14" lengthAdjust="spacing" textLength="172.8398" x="715.17" y="93.292">Name: Preiskennzeichen</text><text fill="#000000" font-family="sans-serif" font-size="14" lengthAdjust="spacing" textLength="66.6436" x="715.17" y="109.5889">Prozesse:</text><rect fill="none" height="6" style="stroke:#C82930;stroke-width:1;" width="6" x="703.17" y="119.5391"/><text fill="#000000" font-family="sans-serif" font-size="14" lengthAdjust="spacing" textLength="180.3457" x="715.17" y="125.8857">Netznutzungsabrechnung</text><line style="stroke:#181818;stroke-width:0.5;" x1="696.17" x2="900.5157" y1="133.1875" y2="133.1875"/></g><!--class PRC_5125_msg_1--><g class="entity" data-entity="PRC_5125_msg_1" data-source-line="7" data-uid="ent0003" id="entity_PRC_5125_msg_1"><rect fill="#F1F1F1" height="145.7813" rx="2.5" ry="2.5" style="stroke:#181818;stroke-width:0.5;" width="780.6875" x="7" y="218.1869"/><ellipse cx="331.4438" cy="234.1869" fill="#ADD1B2" rx="11" ry="11" style="stroke:#181818;stroke-width:1;"/><path d="M334.4126,239.8275 Q333.8345,240.1244 333.1938,240.265 Q332.5532,240.4213 331.8501,240.4213 Q329.3501,240.4213 328.022,238.7806 Q326.7095,237.1244 326.7095,233.9994 Q326.7095,230.8744 328.022,229.2181 Q329.3501,227.5619 331.8501,227.5619 Q332.5532,227.5619 333.1938,227.7181 Q333.8501,227.8744 334.4126,228.1713 L334.4126,230.89 Q333.7876,230.3119 333.1938,230.0463 Q332.6001,229.765 331.9751,229.765 Q330.6313,229.765 329.9438,230.8431 Q329.2563,231.9056 329.2563,233.9994 Q329.2563,236.0931 329.9438,237.1713 Q330.6313,238.2338 331.9751,238.2338 Q332.6001,238.2338 333.1938,237.9681 Q333.7876,237.6869 334.4126,237.1088 L334.4126,239.8275 Z " fill="#000000"/><text fill="#000000" font-family="sans-serif" font-size="14" lengthAdjust="spacing" textLength="123.2998" x="351.9438" y="239.0336">PRC_5125_msg_1</text><line style="stroke:#181818;stroke-width:0.5;" x1="8" x2="786.6875" y1="250.1869" y2="250.1869"/><text fill="#000000" font-family="sans-serif" font-size="14" lengthAdjust="spacing" textLength="162.2988" x="13" y="267.182">Nachricht: PRICAT 2.0d</text><text fill="#000000" font-family="sans-serif" font-size="14" lengthAdjust="spacing" textLength="170.3447" x="13" y="283.4789">Kontext: Segmentlayout</text><text fill="#000000" font-family="sans-serif" font-size="14" lengthAdjust="spacing" textLength="110.5439" x="13" y="299.7757">Pflichtfeld: Nein</text><text fill="#000000" font-family="sans-serif" font-size="14" lengthAdjust="spacing" textLength="768.6875" x="13" y="316.0726">Codes: 000, 10, 100, 130, 15, 20, 200, 30, 31, 32, 40, 60, OCR, POG, Z21, Z22, Z23, Z24, Z25, Z28, Z29, Z30</text><text fill="#000000" font-family="sans-serif" font-size="14" lengthAdjust="spacing" textLength="251.4395" x="13" y="332.3695">Prozesse: Netznutzungsabrechnung</text><text fill="#000000" font-family="sans-serif" font-size="14" lengthAdjust="spacing" textLength="284.4365" x="13" y="348.6664">Quelle: PRICAT_MIG_2_0d_20240619.pdf</text><line style="stroke:#181818;stroke-width:0.5;" x1="8" x2="786.6875" y1="355.9681" y2="355.9681"/></g><!--class PRC_5125_proc_1--><g class="entity" data-entity="PRC_5125_proc_1" data-source-line="16" data-uid="ent0005" id="entity_PRC_5125_proc_1"><rect fill="#F1F1F1" height="105.1563" rx="2.5" ry="2.5" style="stroke:#181818;stroke-width:0.5;" width="752.6465" x="823.02" y="238.4969"/><ellipse cx="1132.8999" cy="258.6297" fill="#ADD1B2" rx="11" ry="11" style="stroke:#181818;stroke-width:1;"/><path d="M1135.8686,264.2703 Q1135.2905,264.5672 1134.6499,264.7078 Q1134.0093,264.8641 1133.3061,264.8641 Q1130.8061,264.8641 1129.478,263.2234 Q1128.1655,261.5672 1128.1655,258.4422 Q1128.1655,255.3172 1129.478,253.6609 Q1130.8061,252.0047 1133.3061,252.0047 Q1134.0093,252.0047 1134.6499,252.1609 Q1135.3061,252.3172 1135.8686,252.6141 L1135.8686,255.3328 Q1135.2436,254.7547 1134.6499,254.4891 Q1134.0561,254.2078 1133.4311,254.2078 Q1132.0874,254.2078 1131.3999,255.2859 Q1130.7124,256.3484 1130.7124,258.4422 Q1130.7124,260.5359 1131.3999,261.6141 Q1132.0874,262.6766 1133.4311,262.6766 Q1134.0561,262.6766 1134.6499,262.4109 Q1135.2436,262.1297 1135.8686,261.5516 L1135.8686,264.2703 Z " fill="#000000"/><text fill="#000000" font-family="sans-serif" font-size="12" font-style="italic" lengthAdjust="spacing" textLength="61.0605" x="1185.063" y="254.6355">&#171;process&#187;</text><text fill="#000000" font-family="sans-serif" font-size="14" lengthAdjust="spacing" textLength="124.3867" x="1153.3999" y="270.4607">PRC_5125_proc_1</text><line style="stroke:#181818;stroke-width:0.5;" x1="824.02" x2="1574.6665" y1="278.7625" y2="278.7625"/><text fill="#000000" font-family="sans-serif" font-size="14" lengthAdjust="spacing" textLength="180.3457" x="829.02" y="295.7576">Netznutzungsabrechnung</text><text fill="#000000" font-family="sans-serif" font-size="14" lengthAdjust="spacing" textLength="218.0938" x="829.02" y="312.0545">Gesetze: StromNEV, StromNZV</text><text fill="#000000" font-family="sans-serif" font-size="14" lengthAdjust="spacing" textLength="740.6465" x="829.02" y="328.3514">Zusammenfassung: Wie funktioniert die Netznutzungsabrechnung zwischen Netzbetreiber und Lieferant?</text><line style="stroke:#181818;stroke-width:0.5;" x1="824.02" x2="1574.6665" y1="335.6531" y2="335.6531"/></g><!--link PRC_5125 to PRC_5125_msg_1--><g class="link" data-entity-1="PRC_5125" data-entity-2="PRC_5125_msg_1" data-source-line="15" data-uid="lnk4" id="link_PRC_5125_PRC_5125_msg_1"><path codeLine="15" d="M700.5,141.6469 C653.79,164.5169 602.2788,189.7386 550.4388,215.1186" fill="none" id="PRC_5125-to-PRC_5125_msg_1" style="stroke:#181818;stroke-width:1;"/><polygon fill="#181818" points="545.05,217.7569,554.8921,217.392,549.5407,215.5583,551.3744,210.2069,545.05,217.7569" style="stroke:#181818;stroke-width:1;"/><text fill="#000000" font-family="sans-serif" font-size="13" lengthAdjust="spacing" textLength="85.2363" x="635.34" y="184.2538">verwendet in</text></g><!--link PRC_5125 to PRC_5125_proc_1--><g class="link" data-entity-1="PRC_5125" data-entity-2="PRC_5125_proc_1" data-source-line="21" data-uid="lnk6" id="link_PRC_5125_PRC_5125_proc_1"><path codeLine="21" d="M896.18,141.6469 C955.77,170.8169 1026.5312,205.4685 1087.6012,235.3685" fill="none" id="PRC_5125-to-PRC_5125_proc_1" style="stroke:#181818;stroke-width:1;stroke-dasharray:7,7;"/><polygon fill="#181818" points="1092.99,238.0069,1086.6657,230.4568,1088.4993,235.8082,1083.1479,237.6419,1092.99,238.0069" style="stroke:#181818;stroke-width:1;"/><text fill="#000000" font-family="sans-serif" font-size="13" lengthAdjust="spacing" textLength="91.6221" x="988.34" y="184.2538">eingebettet in</text></g><!--SRC=[TLBRJi9047tdA-O32jakbqX3C0OD8IeW64nuQKexXGtjbknkHMlyTsSG3K5vc9EvzSoSwJhbCeJRoA6EN1PPgCDqDWZQlcpNOeejXo67y54364Sv1Z0rgEmMjQvGnHlKL9YQea9hCI0VY6IChjAbgqgzjj7AOBpHvDO-pqZ3tAv3_qWTRmpHEUAVZGOtpo0R8g72VQ4Tlb5wZkiSDMtvNfIEPwOPzwUO9G4DLBp7e4ZG1Y24yC0_64EJeUs156m4d6ZwPDA35laTiibWvi5qClHWANq6oT1aQ36q6QuOkWHDSQhwabw0fnAp37yqXO-ZOIX3aOHIo9Re-Dt6BadfBBzNhjVxvzS9u1ND7dM23aZasGLtfeYfgTTZXvRfzx_FUMcX8LegqKPpPufyVBVmZjvoGTLbQQEShfpI3EeFu4KXfANUEbLeXSP1Ged_oQ7QAylluL1VeQDdia83fKxWGM6A9jBk-bHiez7_8oG0-fDhfC_TGUyN]--></g></svg>