<svg xmlns="http://www.w3.org/2000/svg" xmlns:xlink="http://www.w3.org/1999/xlink" contentStyleType="text/css" data-diagram-type="CLASS" height="387px" preserveAspectRatio="none" style="width:2021px;height:387px;background:#FFFFFF;" version="1.1" viewBox="0 0 2021 387" width="2021px" zoomAndPan="magnify"><title>Datenatlas - PYT:4279</title><defs/><g><g class="title" data-source-line="1"><text fill="#000000" font-family="sans-serif" font-size="14" font-weight="bold" lengthAdjust="spacing" textLength="176.0117" x="915.9579" y="22.9951">Datenatlas - PYT:4279</text></g><!--class PYT_4279--><g class="entity" data-entity="PYT_4279" data-source-line="2" data-uid="ent0002" id="entity_PYT_4279"><rect fill="#F1F1F1" height="113.1875" rx="2.5" ry="2.5" style="stroke:#181818;stroke-width:0.5;" width="284.3369" x="771.64" y="44.2969"/><ellipse cx="875.4711" cy="60.2969" fill="#ADD1B2" rx="11" ry="11" style="stroke:#181818;stroke-width:1;"/><path d="M878.4398,65.9375 Q877.8617,66.2344 877.2211,66.375 Q876.5804,66.5313 875.8773,66.5313 Q873.3773,66.5313 872.0492,64.8906 Q870.7367,63.2344 870.7367,60.1094 Q870.7367,56.9844 872.0492,55.3281 Q873.3773,53.6719 875.8773,53.6719 Q876.5804,53.6719 877.2211,53.8281 Q877.8773,53.9844 878.4398,54.2813 L878.4398,57 Q877.8148,56.4219 877.2211,56.1563 Q876.6273,55.875 876.0023,55.875 Q874.6586,55.875 873.9711,56.9531 Q873.2836,58.0156 873.2836,60.1094 Q873.2836,62.2031 873.9711,63.2813 Q874.6586,64.3438 876.0023,64.3438 Q876.6273,64.3438 877.2211,64.0781 Q877.8148,63.7969 878.4398,63.2188 L878.4398,65.9375 Z " fill="#000000"/><text fill="#000000" font-family="sans-serif" font-size="14" lengthAdjust="spacing" textLength="68.1748" x="895.9711" y="65.1436">PYT_4279</text><line style="stroke:#181818;stroke-width:0.5;" x1="772.64" x2="1054.9769" y1="76.2969" y2="76.2969"/><text fill="#000000" font-family="sans-serif" font-size="14" lengthAdjust="spacing" textLength="258.3369" x="791.64" y="93.292">Name: Zahlungsbedingung, Qualifier</text><text fill="#000000" font-family="sans-serif" font-size="14" lengthAdjust="spacing" textLength="66.6436" x="791.64" y="109.5889">Prozesse:</text><rect fill="none" height="6" style="stroke:#C82930;stroke-width:1;" width="6" x="779.64" y="119.5391"/><text fill="#000000" font-family="sans-serif" font-size="14" lengthAdjust="spacing" textLength="180.3457" x="791.64" y="125.8857">Netznutzungsabrechnung</text><rect fill="none" height="6" style="stroke:#C82930;stroke-width:1;" width="6" x="779.64" y="135.8359"/><text fill="#000000" font-family="sans-serif" font-size="14" lengthAdjust="spacing" textLength="223.2822" x="791.64" y="142.1826">Messstellenbetriebsabrechnung</text><line style="stroke:#181818;stroke-width:0.5;" x1="772.64" x2="1054.9769" y1="149.4844" y2="149.4844"/></g><!--class PYT_4279_msg_1--><g class="entity" data-entity="PYT_4279_msg_1" data-source-line="8" data-uid="ent0003" id="entity_PYT_4279_msg_1"><rect fill="#F1F1F1" height="145.7813" rx="2.5" ry="2.5" style="stroke:#181818;stroke-width:0.5;" width="495.6221" x="7" y="234.4869"/><ellipse cx="190.1108" cy="250.4869" fill="#ADD1B2" rx="11" ry="11" style="stroke:#181818;stroke-width:1;"/><path d="M193.0796,256.1275 Q192.5015,256.4244 191.8608,256.565 Q191.2202,256.7213 190.5171,256.7213 Q188.0171,256.7213 186.689,255.0806 Q185.3765,253.4244 185.3765,250.2994 Q185.3765,247.1744 186.689,245.5181 Q188.0171,243.8619 190.5171,243.8619 Q191.2202,243.8619 191.8608,244.0181 Q192.5171,244.1744 193.0796,244.4713 L193.0796,247.19 Q192.4546,246.6119 191.8608,246.3463 Q191.2671,246.065 190.6421,246.065 Q189.2983,246.065 188.6108,247.1431 Q187.9233,248.2056 187.9233,250.2994 Q187.9233,252.3931 188.6108,253.4713 Q189.2983,254.5338 190.6421,254.5338 Q191.2671,254.5338 191.8608,254.2681 Q192.4546,253.9869 193.0796,253.4088 L193.0796,256.1275 Z " fill="#000000"/><text fill="#000000" font-family="sans-serif" font-size="14" lengthAdjust="spacing" textLength="120.9004" x="210.6108" y="255.3336">PYT_4279_msg_1</text><line style="stroke:#181818;stroke-width:0.5;" x1="8" x2="501.6221" y1="266.4869" y2="266.4869"/><text fill="#000000" font-family="sans-serif" font-size="14" lengthAdjust="spacing" textLength="165.6484" x="13" y="283.482">Nachricht: INVOIC 2.8d.</text><text fill="#000000" font-family="sans-serif" font-size="14" lengthAdjust="spacing" textLength="149.3447" x="13" y="299.7789">Kontext: Bemerkung:</text><text fill="#000000" font-family="sans-serif" font-size="14" lengthAdjust="spacing" textLength="91.4033" x="13" y="316.0757">Pflichtfeld: Ja</text><text fill="#000000" font-family="sans-serif" font-size="14" lengthAdjust="spacing" textLength="181.5283" x="13" y="332.3726">Codes: 10, OCR, PYT, SG8</text><text fill="#000000" font-family="sans-serif" font-size="14" lengthAdjust="spacing" textLength="483.6221" x="13" y="348.6695">Prozesse: Netznutzungsabrechnung, Messstellenbetriebsabrechnung</text><text fill="#000000" font-family="sans-serif" font-size="14" lengthAdjust="spacing" textLength="290.3359" x="13" y="364.9664">Quelle: INVOIC_MIG_2_8d__20240619.pdf</text><line style="stroke:#181818;stroke-width:0.5;" x1="8" x2="501.6221" y1="372.2681" y2="372.2681"/></g><!--class PYT_4279_proc_1--><g class="entity" data-entity="PYT_4279_proc_1" data-source-line="17" data-uid="ent0005" id="entity_PYT_4279_proc_1"><rect fill="#F1F1F1" height="105.1563" rx="2.5" ry="2.5" style="stroke:#181818;stroke-width:0.5;" width="752.6465" x="537.49" y="254.7969"/><ellipse cx="848.5696" cy="274.9297" fill="#ADD1B2" rx="11" ry="11" style="stroke:#181818;stroke-width:1;"/><path d="M851.5383,280.5703 Q850.9602,280.8672 850.3196,281.0078 Q849.679,281.1641 848.9758,281.1641 Q846.4758,281.1641 845.1477,279.5234 Q843.8352,277.8672 843.8352,274.7422 Q843.8352,271.6172 845.1477,269.9609 Q846.4758,268.3047 848.9758,268.3047 Q849.679,268.3047 850.3196,268.4609 Q850.9758,268.6172 851.5383,268.9141 L851.5383,271.6328 Q850.9133,271.0547 850.3196,270.7891 Q849.7258,270.5078 849.1008,270.5078 Q847.7571,270.5078 847.0696,271.5859 Q846.3821,272.6484 846.3821,274.7422 Q846.3821,276.8359 847.0696,277.9141 Q847.7571,278.9766 849.1008,278.9766 Q849.7258,278.9766 850.3196,278.7109 Q850.9133,278.4297 851.5383,277.8516 L851.5383,280.5703 Z " fill="#000000"/><text fill="#000000" font-family="sans-serif" font-size="12" font-style="italic" lengthAdjust="spacing" textLength="61.0605" x="899.533" y="270.9355">&#171;process&#187;</text><text fill="#000000" font-family="sans-serif" font-size="14" lengthAdjust="spacing" textLength="121.9873" x="869.0696" y="286.7607">PYT_4279_proc_1</text><line style="stroke:#181818;stroke-width:0.5;" x1="538.49" x2="1289.1365" y1="295.0625" y2="295.0625"/><text fill="#000000" font-family="sans-serif" font-size="14" lengthAdjust="spacing" textLength="180.3457" x="543.49" y="312.0576">Netznutzungsabrechnung</text><text fill="#000000" font-family="sans-serif" font-size="14" lengthAdjust="spacing" textLength="218.0938" x="543.49" y="328.3545">Gesetze: StromNEV, StromNZV</text><text fill="#000000" font-family="sans-serif" font-size="14" lengthAdjust="spacing" textLength="740.6465" x="543.49" y="344.6514">Zusammenfassung: Wie funktioniert die Netznutzungsabrechnung zwischen Netzbetreiber und Lieferant?</text><line style="stroke:#181818;stroke-width:0.5;" x1="538.49" x2="1289.1365" y1="351.9531" y2="351.9531"/></g><!--class PYT_4279_proc_2--><g class="entity" data-entity="PYT_4279_proc_2" data-source-line="23" data-uid="ent0007" id="entity_PYT_4279_proc_2"><rect fill="#F1F1F1" height="105.1563" rx="2.5" ry="2.5" style="stroke:#181818;stroke-width:0.5;" width="690.2275" x="1324.7" y="254.7969"/><ellipse cx="1604.5701" cy="274.9297" fill="#ADD1B2" rx="11" ry="11" style="stroke:#181818;stroke-width:1;"/><path d="M1607.5389,280.5703 Q1606.9607,280.8672 1606.3201,281.0078 Q1605.6795,281.1641 1604.9764,281.1641 Q1602.4764,281.1641 1601.1482,279.5234 Q1599.8357,277.8672 1599.8357,274.7422 Q1599.8357,271.6172 1601.1482,269.9609 Q1602.4764,268.3047 1604.9764,268.3047 Q1605.6795,268.3047 1606.3201,268.4609 Q1606.9764,268.6172 1607.5389,268.9141 L1607.5389,271.6328 Q1606.9139,271.0547 1606.3201,270.7891 Q1605.7264,270.5078 1605.1014,270.5078 Q1603.7576,270.5078 1603.0701,271.5859 Q1602.3826,272.6484 1602.3826,274.7422 Q1602.3826,276.8359 1603.0701,277.9141 Q1603.7576,278.9766 1605.1014,278.9766 Q1605.7264,278.9766 1606.3201,278.7109 Q1606.9139,278.4297 1607.5389,277.8516 L1607.5389,280.5703 Z " fill="#000000"/><text fill="#000000" font-family="sans-serif" font-size="12" font-style="italic" lengthAdjust="spacing" textLength="61.0605" x="1655.5335" y="270.9355">&#171;process&#187;</text><text fill="#000000" font-family="sans-serif" font-size="14" lengthAdjust="spacing" textLength="121.9873" x="1625.0701" y="286.7607">PYT_4279_proc_2</text><line style="stroke:#181818;stroke-width:0.5;" x1="1325.7" x2="2013.9275" y1="295.0625" y2="295.0625"/><text fill="#000000" font-family="sans-serif" font-size="14" lengthAdjust="spacing" textLength="223.2822" x="1330.7" y="312.0576">Messstellenbetriebsabrechnung</text><text fill="#000000" font-family="sans-serif" font-size="14" lengthAdjust="spacing" textLength="105.0957" x="1330.7" y="328.3545">Gesetze: MsbG</text><text fill="#000000" font-family="sans-serif" font-size="14" lengthAdjust="spacing" textLength="678.2275" x="1330.7" y="344.6514">Zusammenfassung: Beschreibe den Prozess der Abrechnung von Messstellenbetriebsleistungen.</text><line style="stroke:#181818;stroke-width:0.5;" x1="1325.7" x2="2013.9275" y1="351.9531" y2="351.9531"/></g><!--link PYT_4279 to PYT_4279_msg_1--><g class="link" data-entity-1="PYT_4279" data-entity-2="PYT_4279_msg_1" data-source-line="16" data-uid="lnk4" id="link_PYT_4279_PYT_4279_msg_1"><path codeLine="16" d="M771.22,146.1369 C688.53,171.7969 588.1004,202.9587 493.5504,232.2987" fill="none" id="PYT_4279-to-PYT_4279_msg_1" style="stroke:#181818;stroke-width:1;"/><polygon fill="#181818" points="487.82,234.0769,497.6011,235.2298,492.5954,232.595,495.2302,227.5892,487.82,234.0769" style="stroke:#181818;stroke-width:1;"/><text fill="#000000" font-family="sans-serif" font-size="13" lengthAdjust="spacing" textLength="85.2363" x="624.81" y="200.5538">verwendet in</text></g><!--link PYT_4279 to PYT_4279_proc_1--><g class="link" data-entity-1="PYT_4279" data-entity-2="PYT_4279_proc_1" data-source-line="22" data-uid="lnk6" id="link_PYT_4279_PYT_4279_proc_1"><path codeLine="22" d="M913.81,157.7669 C913.81,187.9169 913.81,218.9069 913.81,248.4269" fill="none" id="PYT_4279-to-PYT_4279_proc_1" style="stroke:#181818;stroke-width:1;stroke-dasharray:7,7;"/><polygon fill="#181818" points="913.81,254.4269,917.81,245.4269,913.81,249.4269,909.81,245.4269,913.81,254.4269" style="stroke:#181818;stroke-width:1;"/><text fill="#000000" font-family="sans-serif" font-size="13" lengthAdjust="spacing" textLength="91.6221" x="914.81" y="200.5538">eingebettet in</text></g><!--link PYT_4279 to PYT_4279_proc_2--><g class="link" data-entity-1="PYT_4279" data-entity-2="PYT_4279_proc_2" data-source-line="28" data-uid="lnk8" id="link_PYT_4279_PYT_4279_proc_2"><path codeLine="28" d="M1056.45,140.4769 C1175.52,172.6769 1340.5281,217.3103 1471.6681,252.7803" fill="none" id="PYT_4279-to-PYT_4279_proc_2" style="stroke:#181818;stroke-width:1;stroke-dasharray:7,7;"/><polygon fill="#181818" points="1477.46,254.3469,1469.8165,248.1358,1472.6334,253.0414,1467.7278,255.8583,1477.46,254.3469" style="stroke:#181818;stroke-width:1;"/><text fill="#000000" font-family="sans-serif" font-size="13" lengthAdjust="spacing" textLength="91.6221" x="1292.81" y="200.5538">eingebettet in</text></g><!--SRC=[XP9lRzem4CRVzrFS1mWHH6YZKKMriWcn5ShMYccyYPpuGgmwbyg-j1LLl_lE7UiGVyQxiv-px_azDXks29yL8ocsoaC7vh_kqdxoyVoiaBKFoomiuUKCOAPgJ66fAjlIokUe3QsaYk1xgwmf3JffchjcZTvZAZN8XJFaDRMy3aTKxh2eICgDE9LEpsWjKexi3ERRFQyx9hBQhxBUnafHELDKdC9ajhYPZ2291peMvLj3ZC-oVuKrkdkv9pYPbpPqbsXr2b-Lx8mQZJw5NZU2cz6FA0o9u7Oys4OuOZuwuHiaaA3zzPPD9-CioGOwov9kqkz-w9t73xeKllTuEvtXBcOAZ-YUa3Go6DgDui4rXJHTN8H2t0o7Vt8vblOOlKXYwPPTKy- -BA9DjLo8kcozgckaKcQ4nE2dGIXRkcVJaBmhWvQDmvV3-iduea9wqqCSQ79qq9A6QuCbEaLykGqRnyCza1HGVXFASJxEc-pnddg8T-ofpyU7GAzGlByv1Yq8cwUNsi6dVuYF3HqQPT5u5Xqf_ZzViiVt6m00]--></g></svg>