<svg xmlns="http://www.w3.org/2000/svg" xmlns:xlink="http://www.w3.org/1999/xlink" contentStyleType="text/css" data-diagram-type="CLASS" height="387px" preserveAspectRatio="none" style="width:2552px;height:387px;background:#FFFFFF;" version="1.1" viewBox="0 0 2552 387" width="2552px" zoomAndPan="magnify"><title>Datenatlas - PYT:00032</title><defs/><g><g class="title" data-source-line="1"><text fill="#000000" font-family="sans-serif" font-size="14" font-weight="bold" lengthAdjust="spacing" textLength="185.7529" x="1176.5873" y="22.9951">Datenatlas - PYT:00032</text></g><!--class PYT_00032--><g class="entity" data-entity="PYT_00032" data-source-line="2" data-uid="ent0002" id="entity_PYT_00032"><rect fill="#F1F1F1" height="113.1875" rx="2.5" ry="2.5" style="stroke:#181818;stroke-width:0.5;" width="249.2822" x="990.17" y="44.2969"/><ellipse cx="1072.0201" cy="60.2969" fill="#ADD1B2" rx="11" ry="11" style="stroke:#181818;stroke-width:1;"/><path d="M1074.9888,65.9375 Q1074.4107,66.2344 1073.7701,66.375 Q1073.1295,66.5313 1072.4263,66.5313 Q1069.9263,66.5313 1068.5982,64.8906 Q1067.2857,63.2344 1067.2857,60.1094 Q1067.2857,56.9844 1068.5982,55.3281 Q1069.9263,53.6719 1072.4263,53.6719 Q1073.1295,53.6719 1073.7701,53.8281 Q1074.4263,53.9844 1074.9888,54.2813 L1074.9888,57 Q1074.3638,56.4219 1073.7701,56.1563 Q1073.1763,55.875 1072.5513,55.875 Q1071.2076,55.875 1070.5201,56.9531 Q1069.8326,58.0156 1069.8326,60.1094 Q1069.8326,62.2031 1070.5201,63.2813 Q1071.2076,64.3438 1072.5513,64.3438 Q1073.1763,64.3438 1073.7701,64.0781 Q1074.3638,63.7969 1074.9888,63.2188 L1074.9888,65.9375 Z " fill="#000000"/><text fill="#000000" font-family="sans-serif" font-size="14" lengthAdjust="spacing" textLength="77.082" x="1092.5201" y="65.1436">PYT_00032</text><line style="stroke:#181818;stroke-width:0.5;" x1="991.17" x2="1238.4522" y1="76.2969" y2="76.2969"/><text fill="#000000" font-family="sans-serif" font-size="14" lengthAdjust="spacing" textLength="207.4844" x="1010.17" y="93.292">Name: Zahlungsbedingungen</text><text fill="#000000" font-family="sans-serif" font-size="14" lengthAdjust="spacing" textLength="66.6436" x="1010.17" y="109.5889">Prozesse:</text><rect fill="none" height="6" style="stroke:#C82930;stroke-width:1;" width="6" x="998.17" y="119.5391"/><text fill="#000000" font-family="sans-serif" font-size="14" lengthAdjust="spacing" textLength="180.3457" x="1010.17" y="125.8857">Netznutzungsabrechnung</text><rect fill="none" height="6" style="stroke:#C82930;stroke-width:1;" width="6" x="998.17" y="135.8359"/><text fill="#000000" font-family="sans-serif" font-size="14" lengthAdjust="spacing" textLength="223.2822" x="1010.17" y="142.1826">Messstellenbetriebsabrechnung</text><line style="stroke:#181818;stroke-width:0.5;" x1="991.17" x2="1238.4522" y1="149.4844" y2="149.4844"/></g><!--class PYT_00032_msg_1--><g class="entity" data-entity="PYT_00032_msg_1" data-source-line="8" data-uid="ent0003" id="entity_PYT_00032_msg_1"><rect fill="#F1F1F1" height="145.7813" rx="2.5" ry="2.5" style="stroke:#181818;stroke-width:0.5;" width="495.6221" x="7" y="234.4869"/><ellipse cx="185.6572" cy="250.4869" fill="#ADD1B2" rx="11" ry="11" style="stroke:#181818;stroke-width:1;"/><path d="M188.626,256.1275 Q188.0479,256.4244 187.4072,256.565 Q186.7666,256.7213 186.0635,256.7213 Q183.5635,256.7213 182.2354,255.0806 Q180.9229,253.4244 180.9229,250.2994 Q180.9229,247.1744 182.2354,245.5181 Q183.5635,243.8619 186.0635,243.8619 Q186.7666,243.8619 187.4072,244.0181 Q188.0635,244.1744 188.626,244.4713 L188.626,247.19 Q188.001,246.6119 187.4072,246.3463 Q186.8135,246.065 186.1885,246.065 Q184.8447,246.065 184.1572,247.1431 Q183.4697,248.2056 183.4697,250.2994 Q183.4697,252.3931 184.1572,253.4713 Q184.8447,254.5338 186.1885,254.5338 Q186.8135,254.5338 187.4072,254.2681 Q188.001,253.9869 188.626,253.4088 L188.626,256.1275 Z " fill="#000000"/><text fill="#000000" font-family="sans-serif" font-size="14" lengthAdjust="spacing" textLength="129.8076" x="206.1572" y="255.3336">PYT_00032_msg_1</text><line style="stroke:#181818;stroke-width:0.5;" x1="8" x2="501.6221" y1="266.4869" y2="266.4869"/><text fill="#000000" font-family="sans-serif" font-size="14" lengthAdjust="spacing" textLength="161.1982" x="13" y="283.482">Nachricht: INVOIC 2.8d</text><text fill="#000000" font-family="sans-serif" font-size="14" lengthAdjust="spacing" textLength="204.1143" x="13" y="299.7789">Kontext: Nachrichtenstruktur</text><text fill="#000000" font-family="sans-serif" font-size="14" lengthAdjust="spacing" textLength="91.4033" x="13" y="316.0757">Pflichtfeld: Ja</text><text fill="#000000" font-family="sans-serif" font-size="14" lengthAdjust="spacing" textLength="77.8477" x="13" y="332.3726">Codes: PYT</text><text fill="#000000" font-family="sans-serif" font-size="14" lengthAdjust="spacing" textLength="483.6221" x="13" y="348.6695">Prozesse: Netznutzungsabrechnung, Messstellenbetriebsabrechnung</text><text fill="#000000" font-family="sans-serif" font-size="14" lengthAdjust="spacing" textLength="396.6074" x="13" y="364.9664">Quelle: INVOIC_MIG_2.8d_Fehlerkorrektur_20250131.pdf</text><line style="stroke:#181818;stroke-width:0.5;" x1="8" x2="501.6221" y1="372.2681" y2="372.2681"/></g><!--class PYT_00032_msg_2--><g class="entity" data-entity="PYT_00032_msg_2" data-source-line="17" data-uid="ent0005" id="entity_PYT_00032_msg_2"><rect fill="#F1F1F1" height="145.7813" rx="2.5" ry="2.5" style="stroke:#181818;stroke-width:0.5;" width="495.6221" x="538" y="234.4869"/><ellipse cx="716.6572" cy="250.4869" fill="#ADD1B2" rx="11" ry="11" style="stroke:#181818;stroke-width:1;"/><path d="M719.626,256.1275 Q719.0479,256.4244 718.4072,256.565 Q717.7666,256.7213 717.0635,256.7213 Q714.5635,256.7213 713.2354,255.0806 Q711.9229,253.4244 711.9229,250.2994 Q711.9229,247.1744 713.2354,245.5181 Q714.5635,243.8619 717.0635,243.8619 Q717.7666,243.8619 718.4072,244.0181 Q719.0635,244.1744 719.626,244.4713 L719.626,247.19 Q719.001,246.6119 718.4072,246.3463 Q717.8135,246.065 717.1885,246.065 Q715.8447,246.065 715.1572,247.1431 Q714.4697,248.2056 714.4697,250.2994 Q714.4697,252.3931 715.1572,253.4713 Q715.8447,254.5338 717.1885,254.5338 Q717.8135,254.5338 718.4072,254.2681 Q719.001,253.9869 719.626,253.4088 L719.626,256.1275 Z " fill="#000000"/><text fill="#000000" font-family="sans-serif" font-size="14" lengthAdjust="spacing" textLength="129.8076" x="737.1572" y="255.3336">PYT_00032_msg_2</text><line style="stroke:#181818;stroke-width:0.5;" x1="539" x2="1032.6221" y1="266.4869" y2="266.4869"/><text fill="#000000" font-family="sans-serif" font-size="14" lengthAdjust="spacing" textLength="165.6484" x="544" y="283.482">Nachricht: INVOIC 2.8d.</text><text fill="#000000" font-family="sans-serif" font-size="14" lengthAdjust="spacing" textLength="204.1143" x="544" y="299.7789">Kontext: Nachrichtenstruktur</text><text fill="#000000" font-family="sans-serif" font-size="14" lengthAdjust="spacing" textLength="91.4033" x="544" y="316.0757">Pflichtfeld: Ja</text><text fill="#000000" font-family="sans-serif" font-size="14" lengthAdjust="spacing" textLength="77.8477" x="544" y="332.3726">Codes: PYT</text><text fill="#000000" font-family="sans-serif" font-size="14" lengthAdjust="spacing" textLength="483.6221" x="544" y="348.6695">Prozesse: Netznutzungsabrechnung, Messstellenbetriebsabrechnung</text><text fill="#000000" font-family="sans-serif" font-size="14" lengthAdjust="spacing" textLength="290.3359" x="544" y="364.9664">Quelle: INVOIC_MIG_2_8d__20240619.pdf</text><line style="stroke:#181818;stroke-width:0.5;" x1="539" x2="1032.6221" y1="372.2681" y2="372.2681"/></g><!--class PYT_00032_proc_1--><g class="entity" data-entity="PYT_00032_proc_1" data-source-line="26" data-uid="ent0007" id="entity_PYT_00032_proc_1"><rect fill="#F1F1F1" height="105.1563" rx="2.5" ry="2.5" style="stroke:#181818;stroke-width:0.5;" width="752.6465" x="1068.49" y="254.7969"/><ellipse cx="1375.116" cy="274.9297" fill="#ADD1B2" rx="11" ry="11" style="stroke:#181818;stroke-width:1;"/><path d="M1378.0847,280.5703 Q1377.5066,280.8672 1376.866,281.0078 Q1376.2254,281.1641 1375.5222,281.1641 Q1373.0222,281.1641 1371.6941,279.5234 Q1370.3816,277.8672 1370.3816,274.7422 Q1370.3816,271.6172 1371.6941,269.9609 Q1373.0222,268.3047 1375.5222,268.3047 Q1376.2254,268.3047 1376.866,268.4609 Q1377.5222,268.6172 1378.0847,268.9141 L1378.0847,271.6328 Q1377.4597,271.0547 1376.866,270.7891 Q1376.2722,270.5078 1375.6472,270.5078 Q1374.3035,270.5078 1373.616,271.5859 Q1372.9285,272.6484 1372.9285,274.7422 Q1372.9285,276.8359 1373.616,277.9141 Q1374.3035,278.9766 1375.6472,278.9766 Q1376.2722,278.9766 1376.866,278.7109 Q1377.4597,278.4297 1378.0847,277.8516 L1378.0847,280.5703 Z " fill="#000000"/><text fill="#000000" font-family="sans-serif" font-size="12" font-style="italic" lengthAdjust="spacing" textLength="61.0605" x="1430.533" y="270.9355">&#171;process&#187;</text><text fill="#000000" font-family="sans-serif" font-size="14" lengthAdjust="spacing" textLength="130.8945" x="1395.616" y="286.7607">PYT_00032_proc_1</text><line style="stroke:#181818;stroke-width:0.5;" x1="1069.49" x2="1820.1365" y1="295.0625" y2="295.0625"/><text fill="#000000" font-family="sans-serif" font-size="14" lengthAdjust="spacing" textLength="180.3457" x="1074.49" y="312.0576">Netznutzungsabrechnung</text><text fill="#000000" font-family="sans-serif" font-size="14" lengthAdjust="spacing" textLength="218.0938" x="1074.49" y="328.3545">Gesetze: StromNEV, StromNZV</text><text fill="#000000" font-family="sans-serif" font-size="14" lengthAdjust="spacing" textLength="740.6465" x="1074.49" y="344.6514">Zusammenfassung: Wie funktioniert die Netznutzungsabrechnung zwischen Netzbetreiber und Lieferant?</text><line style="stroke:#181818;stroke-width:0.5;" x1="1069.49" x2="1820.1365" y1="351.9531" y2="351.9531"/></g><!--class PYT_00032_proc_2--><g class="entity" data-entity="PYT_00032_proc_2" data-source-line="32" data-uid="ent0009" id="entity_PYT_00032_proc_2"><rect fill="#F1F1F1" height="105.1563" rx="2.5" ry="2.5" style="stroke:#181818;stroke-width:0.5;" width="690.2275" x="1855.7" y="254.7969"/><ellipse cx="2131.1165" cy="274.9297" fill="#ADD1B2" rx="11" ry="11" style="stroke:#181818;stroke-width:1;"/><path d="M2134.0853,280.5703 Q2133.5071,280.8672 2132.8665,281.0078 Q2132.2259,281.1641 2131.5228,281.1641 Q2129.0228,281.1641 2127.6946,279.5234 Q2126.3821,277.8672 2126.3821,274.7422 Q2126.3821,271.6172 2127.6946,269.9609 Q2129.0228,268.3047 2131.5228,268.3047 Q2132.2259,268.3047 2132.8665,268.4609 Q2133.5228,268.6172 2134.0853,268.9141 L2134.0853,271.6328 Q2133.4603,271.0547 2132.8665,270.7891 Q2132.2728,270.5078 2131.6478,270.5078 Q2130.304,270.5078 2129.6165,271.5859 Q2128.929,272.6484 2128.929,274.7422 Q2128.929,276.8359 2129.6165,277.9141 Q2130.304,278.9766 2131.6478,278.9766 Q2132.2728,278.9766 2132.8665,278.7109 Q2133.4603,278.4297 2134.0853,277.8516 L2134.0853,280.5703 Z " fill="#000000"/><text fill="#000000" font-family="sans-serif" font-size="12" font-style="italic" lengthAdjust="spacing" textLength="61.0605" x="2186.5335" y="270.9355">&#171;process&#187;</text><text fill="#000000" font-family="sans-serif" font-size="14" lengthAdjust="spacing" textLength="130.8945" x="2151.6165" y="286.7607">PYT_00032_proc_2</text><line style="stroke:#181818;stroke-width:0.5;" x1="1856.7" x2="2544.9275" y1="295.0625" y2="295.0625"/><text fill="#000000" font-family="sans-serif" font-size="14" lengthAdjust="spacing" textLength="223.2822" x="1861.7" y="312.0576">Messstellenbetriebsabrechnung</text><text fill="#000000" font-family="sans-serif" font-size="14" lengthAdjust="spacing" textLength="105.0957" x="1861.7" y="328.3545">Gesetze: MsbG</text><text fill="#000000" font-family="sans-serif" font-size="14" lengthAdjust="spacing" textLength="678.2275" x="1861.7" y="344.6514">Zusammenfassung: Beschreibe den Prozess der Abrechnung von Messstellenbetriebsleistungen.</text><line style="stroke:#181818;stroke-width:0.5;" x1="1856.7" x2="2544.9275" y1="351.9531" y2="351.9531"/></g><!--link PYT_00032 to PYT_00032_msg_1--><g class="link" data-entity-1="PYT_00032" data-entity-2="PYT_00032_msg_1" data-source-line="16" data-uid="lnk4" id="link_PYT_00032_PYT_00032_msg_1"><path codeLine="16" d="M989.86,128.0969 C869.39,153.7669 682.13,194.6969 520.81,234.4869 C514.89,235.9469 514.7186,235.9726 508.6786,237.4926" fill="none" id="PYT_00032-to-PYT_00032_msg_1" style="stroke:#181818;stroke-width:1;"/><polygon fill="#181818" points="502.86,238.9569,512.5641,240.6395,507.7088,237.7366,510.6117,232.8814,502.86,238.9569" style="stroke:#181818;stroke-width:1;"/><text fill="#000000" font-family="sans-serif" font-size="13" lengthAdjust="spacing" textLength="85.2363" x="717.81" y="200.5538">verwendet in</text></g><!--link PYT_00032 to PYT_00032_msg_2--><g class="link" data-entity-1="PYT_00032" data-entity-2="PYT_00032_msg_2" data-source-line="25" data-uid="lnk6" id="link_PYT_00032_PYT_00032_msg_2"><path codeLine="25" d="M1024.91,157.7669 C987.05,181.2969 947.5959,205.8196 907.2759,230.8796" fill="none" id="PYT_00032-to-PYT_00032_msg_2" style="stroke:#181818;stroke-width:1;"/><polygon fill="#181818" points="902.18,234.0469,911.9354,232.6933,906.4266,231.4075,907.7124,225.8987,902.18,234.0469" style="stroke:#181818;stroke-width:1;"/><text fill="#000000" font-family="sans-serif" font-size="13" lengthAdjust="spacing" textLength="85.2363" x="971.81" y="200.5538">verwendet in</text></g><!--link PYT_00032 to PYT_00032_proc_1--><g class="link" data-entity-1="PYT_00032" data-entity-2="PYT_00032_proc_1" data-source-line="31" data-uid="lnk8" id="link_PYT_00032_PYT_00032_proc_1"><path codeLine="31" d="M1204.98,157.7669 C1253.65,187.9169 1308.2295,221.747 1355.8795,251.267" fill="none" id="PYT_00032-to-PYT_00032_proc_1" style="stroke:#181818;stroke-width:1;stroke-dasharray:7,7;"/><polygon fill="#181818" points="1360.98,254.4269,1355.4358,246.2867,1356.7296,251.7937,1351.2226,253.0874,1360.98,254.4269" style="stroke:#181818;stroke-width:1;"/><text fill="#000000" font-family="sans-serif" font-size="13" lengthAdjust="spacing" textLength="91.6221" x="1280.81" y="200.5538">eingebettet in</text></g><!--link PYT_00032 to PYT_00032_proc_2--><g class="link" data-entity-1="PYT_00032" data-entity-2="PYT_00032_proc_2" data-source-line="37" data-uid="lnk10" id="link_PYT_00032_PYT_00032_proc_2"><path codeLine="37" d="M1239.83,124.2069 C1384.23,150.1069 1628.88,194.4169 1838.81,234.4869 C1872.01,240.8269 1901.0125,246.4406 1935.4825,253.2106" fill="none" id="PYT_00032-to-PYT_00032_proc_2" style="stroke:#181818;stroke-width:1;stroke-dasharray:7,7;"/><polygon fill="#181818" points="1941.37,254.3669,1933.3096,248.7074,1936.4637,253.4033,1931.7678,256.5574,1941.37,254.3669" style="stroke:#181818;stroke-width:1;"/><text fill="#000000" font-family="sans-serif" font-size="13" lengthAdjust="spacing" textLength="91.6221" x="1661.81" y="200.5538">eingebettet in</text></g><!--SRC=[pLJHRjD047plL-m7D9RZ0WAh2e82KO248b0GUR7Eld5yolbStQrR5CI_inT2MqZQzB5lSpkhtPcvizcm1RrH3AVOga03El_-DK_Jz2GxggGGuhdOdEdd4T5CjSXfeHhRksKeeOrR2e8JxjntQuI0N339f1buxNfUnqvLUbID4xWbfz8P6DR2bM1lKDxk-VN_yg8DosAubL0rtbGDvpIPpJzDpYXBdciXFdIEyKFArnrmWNs_ujv7URMDjHfMv_HUIUMiqmXvN79R_HswZmz89lhSH-wlgc8w6HTHMV4EZOLVTTuZIYcoD7kQ3a-6oOMknUbDm8F1QCTnJfVmLt0QJCRjZIMx9vRaaUPII2unY2Vfi-6B1mIH7GhYmdULn7Lw6e486et-f7BN6nmZ22Mglh3lsjdR-V4MBUR2BlgWsXQkbYNIdzCt0wfxjsBJEGFFfAMmVpYjhqoe6hWD7nE1AU6fTve-6jJmol7BV_mcoMZNIawGZmioWE-ndErOFdGTrywdeHply_eQ8dyZchIus3u0mPvUtRYyxDo-LHOcyEQFa1oocErO_0q0]--></g></svg>