<svg xmlns="http://www.w3.org/2000/svg" xmlns:xlink="http://www.w3.org/1999/xlink" contentStyleType="text/css" data-diagram-type="CLASS" height="387px" preserveAspectRatio="none" style="width:2552px;height:387px;background:#FFFFFF;" version="1.1" viewBox="0 0 2552 387" width="2552px" zoomAndPan="magnify"><title>Datenatlas - PYT:0440</title><defs/><g><g class="title" data-source-line="1"><text fill="#000000" font-family="sans-serif" font-size="14" font-weight="bold" lengthAdjust="spacing" textLength="176.0117" x="1181.4579" y="22.9951">Datenatlas - PYT:0440</text></g><!--class PYT_0440--><g class="entity" data-entity="PYT_0440" data-source-line="2" data-uid="ent0002" id="entity_PYT_0440"><rect fill="#F1F1F1" height="113.1875" rx="2.5" ry="2.5" style="stroke:#181818;stroke-width:0.5;" width="249.2822" x="990.17" y="44.2969"/><ellipse cx="1076.4737" cy="60.2969" fill="#ADD1B2" rx="11" ry="11" style="stroke:#181818;stroke-width:1;"/><path d="M1079.4425,65.9375 Q1078.8643,66.2344 1078.2237,66.375 Q1077.5831,66.5313 1076.88,66.5313 Q1074.38,66.5313 1073.0518,64.8906 Q1071.7393,63.2344 1071.7393,60.1094 Q1071.7393,56.9844 1073.0518,55.3281 Q1074.38,53.6719 1076.88,53.6719 Q1077.5831,53.6719 1078.2237,53.8281 Q1078.88,53.9844 1079.4425,54.2813 L1079.4425,57 Q1078.8175,56.4219 1078.2237,56.1563 Q1077.63,55.875 1077.005,55.875 Q1075.6612,55.875 1074.9737,56.9531 Q1074.2862,58.0156 1074.2862,60.1094 Q1074.2862,62.2031 1074.9737,63.2813 Q1075.6612,64.3438 1077.005,64.3438 Q1077.63,64.3438 1078.2237,64.0781 Q1078.8175,63.7969 1079.4425,63.2188 L1079.4425,65.9375 Z " fill="#000000"/><text fill="#000000" font-family="sans-serif" font-size="14" lengthAdjust="spacing" textLength="68.1748" x="1096.9737" y="65.1436">PYT_0440</text><line style="stroke:#181818;stroke-width:0.5;" x1="991.17" x2="1238.4522" y1="76.2969" y2="76.2969"/><text fill="#000000" font-family="sans-serif" font-size="14" lengthAdjust="spacing" textLength="207.4844" x="1010.17" y="93.292">Name: Zahlungsbedingungen</text><text fill="#000000" font-family="sans-serif" font-size="14" lengthAdjust="spacing" textLength="66.6436" x="1010.17" y="109.5889">Prozesse:</text><rect fill="none" height="6" style="stroke:#C82930;stroke-width:1;" width="6" x="998.17" y="119.5391"/><text fill="#000000" font-family="sans-serif" font-size="14" lengthAdjust="spacing" textLength="180.3457" x="1010.17" y="125.8857">Netznutzungsabrechnung</text><rect fill="none" height="6" style="stroke:#C82930;stroke-width:1;" width="6" x="998.17" y="135.8359"/><text fill="#000000" font-family="sans-serif" font-size="14" lengthAdjust="spacing" textLength="223.2822" x="1010.17" y="142.1826">Messstellenbetriebsabrechnung</text><line style="stroke:#181818;stroke-width:0.5;" x1="991.17" x2="1238.4522" y1="149.4844" y2="149.4844"/></g><!--class PYT_0440_msg_1--><g class="entity" data-entity="PYT_0440_msg_1" data-source-line="8" data-uid="ent0003" id="entity_PYT_0440_msg_1"><rect fill="#F1F1F1" height="145.7813" rx="2.5" ry="2.5" style="stroke:#181818;stroke-width:0.5;" width="495.6221" x="7" y="234.4869"/><ellipse cx="190.1108" cy="250.4869" fill="#ADD1B2" rx="11" ry="11" style="stroke:#181818;stroke-width:1;"/><path d="M193.0796,256.1275 Q192.5015,256.4244 191.8608,256.565 Q191.2202,256.7213 190.5171,256.7213 Q188.0171,256.7213 186.689,255.0806 Q185.3765,253.4244 185.3765,250.2994 Q185.3765,247.1744 186.689,245.5181 Q188.0171,243.8619 190.5171,243.8619 Q191.2202,243.8619 191.8608,244.0181 Q192.5171,244.1744 193.0796,244.4713 L193.0796,247.19 Q192.4546,246.6119 191.8608,246.3463 Q191.2671,246.065 190.6421,246.065 Q189.2983,246.065 188.6108,247.1431 Q187.9233,248.2056 187.9233,250.2994 Q187.9233,252.3931 188.6108,253.4713 Q189.2983,254.5338 190.6421,254.5338 Q191.2671,254.5338 191.8608,254.2681 Q192.4546,253.9869 193.0796,253.4088 L193.0796,256.1275 Z " fill="#000000"/><text fill="#000000" font-family="sans-serif" font-size="14" lengthAdjust="spacing" textLength="120.9004" x="210.6108" y="255.3336">PYT_0440_msg_1</text><line style="stroke:#181818;stroke-width:0.5;" x1="8" x2="501.6221" y1="266.4869" y2="266.4869"/><text fill="#000000" font-family="sans-serif" font-size="14" lengthAdjust="spacing" textLength="161.1982" x="13" y="283.482">Nachricht: INVOIC 2.8d</text><text fill="#000000" font-family="sans-serif" font-size="14" lengthAdjust="spacing" textLength="204.1143" x="13" y="299.7789">Kontext: Nachrichtenstruktur</text><text fill="#000000" font-family="sans-serif" font-size="14" lengthAdjust="spacing" textLength="91.4033" x="13" y="316.0757">Pflichtfeld: Ja</text><text fill="#000000" font-family="sans-serif" font-size="14" lengthAdjust="spacing" textLength="77.8477" x="13" y="332.3726">Codes: PYT</text><text fill="#000000" font-family="sans-serif" font-size="14" lengthAdjust="spacing" textLength="483.6221" x="13" y="348.6695">Prozesse: Netznutzungsabrechnung, Messstellenbetriebsabrechnung</text><text fill="#000000" font-family="sans-serif" font-size="14" lengthAdjust="spacing" textLength="396.6074" x="13" y="364.9664">Quelle: INVOIC_MIG_2.8d_Fehlerkorrektur_20250131.pdf</text><line style="stroke:#181818;stroke-width:0.5;" x1="8" x2="501.6221" y1="372.2681" y2="372.2681"/></g><!--class PYT_0440_msg_2--><g class="entity" data-entity="PYT_0440_msg_2" data-source-line="17" data-uid="ent0005" id="entity_PYT_0440_msg_2"><rect fill="#F1F1F1" height="145.7813" rx="2.5" ry="2.5" style="stroke:#181818;stroke-width:0.5;" width="495.6221" x="538" y="234.4869"/><ellipse cx="721.1108" cy="250.4869" fill="#ADD1B2" rx="11" ry="11" style="stroke:#181818;stroke-width:1;"/><path d="M724.0796,256.1275 Q723.5015,256.4244 722.8608,256.565 Q722.2202,256.7213 721.5171,256.7213 Q719.0171,256.7213 717.689,255.0806 Q716.3765,253.4244 716.3765,250.2994 Q716.3765,247.1744 717.689,245.5181 Q719.0171,243.8619 721.5171,243.8619 Q722.2202,243.8619 722.8608,244.0181 Q723.5171,244.1744 724.0796,244.4713 L724.0796,247.19 Q723.4546,246.6119 722.8608,246.3463 Q722.2671,246.065 721.6421,246.065 Q720.2983,246.065 719.6108,247.1431 Q718.9233,248.2056 718.9233,250.2994 Q718.9233,252.3931 719.6108,253.4713 Q720.2983,254.5338 721.6421,254.5338 Q722.2671,254.5338 722.8608,254.2681 Q723.4546,253.9869 724.0796,253.4088 L724.0796,256.1275 Z " fill="#000000"/><text fill="#000000" font-family="sans-serif" font-size="14" lengthAdjust="spacing" textLength="120.9004" x="741.6108" y="255.3336">PYT_0440_msg_2</text><line style="stroke:#181818;stroke-width:0.5;" x1="539" x2="1032.6221" y1="266.4869" y2="266.4869"/><text fill="#000000" font-family="sans-serif" font-size="14" lengthAdjust="spacing" textLength="165.6484" x="544" y="283.482">Nachricht: INVOIC 2.8d.</text><text fill="#000000" font-family="sans-serif" font-size="14" lengthAdjust="spacing" textLength="204.1143" x="544" y="299.7789">Kontext: Nachrichtenstruktur</text><text fill="#000000" font-family="sans-serif" font-size="14" lengthAdjust="spacing" textLength="91.4033" x="544" y="316.0757">Pflichtfeld: Ja</text><text fill="#000000" font-family="sans-serif" font-size="14" lengthAdjust="spacing" textLength="77.8477" x="544" y="332.3726">Codes: PYT</text><text fill="#000000" font-family="sans-serif" font-size="14" lengthAdjust="spacing" textLength="483.6221" x="544" y="348.6695">Prozesse: Netznutzungsabrechnung, Messstellenbetriebsabrechnung</text><text fill="#000000" font-family="sans-serif" font-size="14" lengthAdjust="spacing" textLength="290.3359" x="544" y="364.9664">Quelle: INVOIC_MIG_2_8d__20240619.pdf</text><line style="stroke:#181818;stroke-width:0.5;" x1="539" x2="1032.6221" y1="372.2681" y2="372.2681"/></g><!--class PYT_0440_proc_1--><g class="entity" data-entity="PYT_0440_proc_1" data-source-line="26" data-uid="ent0007" id="entity_PYT_0440_proc_1"><rect fill="#F1F1F1" height="105.1563" rx="2.5" ry="2.5" style="stroke:#181818;stroke-width:0.5;" width="752.6465" x="1068.49" y="254.7969"/><ellipse cx="1379.5696" cy="274.9297" fill="#ADD1B2" rx="11" ry="11" style="stroke:#181818;stroke-width:1;"/><path d="M1382.5383,280.5703 Q1381.9602,280.8672 1381.3196,281.0078 Q1380.679,281.1641 1379.9758,281.1641 Q1377.4758,281.1641 1376.1477,279.5234 Q1374.8352,277.8672 1374.8352,274.7422 Q1374.8352,271.6172 1376.1477,269.9609 Q1377.4758,268.3047 1379.9758,268.3047 Q1380.679,268.3047 1381.3196,268.4609 Q1381.9758,268.6172 1382.5383,268.9141 L1382.5383,271.6328 Q1381.9133,271.0547 1381.3196,270.7891 Q1380.7258,270.5078 1380.1008,270.5078 Q1378.7571,270.5078 1378.0696,271.5859 Q1377.3821,272.6484 1377.3821,274.7422 Q1377.3821,276.8359 1378.0696,277.9141 Q1378.7571,278.9766 1380.1008,278.9766 Q1380.7258,278.9766 1381.3196,278.7109 Q1381.9133,278.4297 1382.5383,277.8516 L1382.5383,280.5703 Z " fill="#000000"/><text fill="#000000" font-family="sans-serif" font-size="12" font-style="italic" lengthAdjust="spacing" textLength="61.0605" x="1430.533" y="270.9355">&#171;process&#187;</text><text fill="#000000" font-family="sans-serif" font-size="14" lengthAdjust="spacing" textLength="121.9873" x="1400.0696" y="286.7607">PYT_0440_proc_1</text><line style="stroke:#181818;stroke-width:0.5;" x1="1069.49" x2="1820.1365" y1="295.0625" y2="295.0625"/><text fill="#000000" font-family="sans-serif" font-size="14" lengthAdjust="spacing" textLength="180.3457" x="1074.49" y="312.0576">Netznutzungsabrechnung</text><text fill="#000000" font-family="sans-serif" font-size="14" lengthAdjust="spacing" textLength="218.0938" x="1074.49" y="328.3545">Gesetze: StromNEV, StromNZV</text><text fill="#000000" font-family="sans-serif" font-size="14" lengthAdjust="spacing" textLength="740.6465" x="1074.49" y="344.6514">Zusammenfassung: Wie funktioniert die Netznutzungsabrechnung zwischen Netzbetreiber und Lieferant?</text><line style="stroke:#181818;stroke-width:0.5;" x1="1069.49" x2="1820.1365" y1="351.9531" y2="351.9531"/></g><!--class PYT_0440_proc_2--><g class="entity" data-entity="PYT_0440_proc_2" data-source-line="32" data-uid="ent0009" id="entity_PYT_0440_proc_2"><rect fill="#F1F1F1" height="105.1563" rx="2.5" ry="2.5" style="stroke:#181818;stroke-width:0.5;" width="690.2275" x="1855.7" y="254.7969"/><ellipse cx="2135.5701" cy="274.9297" fill="#ADD1B2" rx="11" ry="11" style="stroke:#181818;stroke-width:1;"/><path d="M2138.5389,280.5703 Q2137.9607,280.8672 2137.3201,281.0078 Q2136.6795,281.1641 2135.9764,281.1641 Q2133.4764,281.1641 2132.1482,279.5234 Q2130.8357,277.8672 2130.8357,274.7422 Q2130.8357,271.6172 2132.1482,269.9609 Q2133.4764,268.3047 2135.9764,268.3047 Q2136.6795,268.3047 2137.3201,268.4609 Q2137.9764,268.6172 2138.5389,268.9141 L2138.5389,271.6328 Q2137.9139,271.0547 2137.3201,270.7891 Q2136.7264,270.5078 2136.1014,270.5078 Q2134.7576,270.5078 2134.0701,271.5859 Q2133.3826,272.6484 2133.3826,274.7422 Q2133.3826,276.8359 2134.0701,277.9141 Q2134.7576,278.9766 2136.1014,278.9766 Q2136.7264,278.9766 2137.3201,278.7109 Q2137.9139,278.4297 2138.5389,277.8516 L2138.5389,280.5703 Z " fill="#000000"/><text fill="#000000" font-family="sans-serif" font-size="12" font-style="italic" lengthAdjust="spacing" textLength="61.0605" x="2186.5335" y="270.9355">&#171;process&#187;</text><text fill="#000000" font-family="sans-serif" font-size="14" lengthAdjust="spacing" textLength="121.9873" x="2156.0701" y="286.7607">PYT_0440_proc_2</text><line style="stroke:#181818;stroke-width:0.5;" x1="1856.7" x2="2544.9275" y1="295.0625" y2="295.0625"/><text fill="#000000" font-family="sans-serif" font-size="14" lengthAdjust="spacing" textLength="223.2822" x="1861.7" y="312.0576">Messstellenbetriebsabrechnung</text><text fill="#000000" font-family="sans-serif" font-size="14" lengthAdjust="spacing" textLength="105.0957" x="1861.7" y="328.3545">Gesetze: MsbG</text><text fill="#000000" font-family="sans-serif" font-size="14" lengthAdjust="spacing" textLength="678.2275" x="1861.7" y="344.6514">Zusammenfassung: Beschreibe den Prozess der Abrechnung von Messstellenbetriebsleistungen.</text><line style="stroke:#181818;stroke-width:0.5;" x1="1856.7" x2="2544.9275" y1="351.9531" y2="351.9531"/></g><!--link PYT_0440 to PYT_0440_msg_1--><g class="link" data-entity-1="PYT_0440" data-entity-2="PYT_0440_msg_1" data-source-line="16" data-uid="lnk4" id="link_PYT_0440_PYT_0440_msg_1"><path codeLine="16" d="M989.86,128.0969 C869.39,153.7669 682.13,194.6969 520.81,234.4869 C514.89,235.9469 514.7186,235.9726 508.6786,237.4926" fill="none" id="PYT_0440-to-PYT_0440_msg_1" style="stroke:#181818;stroke-width:1;"/><polygon fill="#181818" points="502.86,238.9569,512.5641,240.6395,507.7088,237.7366,510.6117,232.8814,502.86,238.9569" style="stroke:#181818;stroke-width:1;"/><text fill="#000000" font-family="sans-serif" font-size="13" lengthAdjust="spacing" textLength="85.2363" x="717.81" y="200.5538">verwendet in</text></g><!--link PYT_0440 to PYT_0440_msg_2--><g class="link" data-entity-1="PYT_0440" data-entity-2="PYT_0440_msg_2" data-source-line="25" data-uid="lnk6" id="link_PYT_0440_PYT_0440_msg_2"><path codeLine="25" d="M1024.91,157.7669 C987.05,181.2969 947.5959,205.8196 907.2759,230.8796" fill="none" id="PYT_0440-to-PYT_0440_msg_2" style="stroke:#181818;stroke-width:1;"/><polygon fill="#181818" points="902.18,234.0469,911.9354,232.6933,906.4266,231.4075,907.7124,225.8987,902.18,234.0469" style="stroke:#181818;stroke-width:1;"/><text fill="#000000" font-family="sans-serif" font-size="13" lengthAdjust="spacing" textLength="85.2363" x="971.81" y="200.5538">verwendet in</text></g><!--link PYT_0440 to PYT_0440_proc_1--><g class="link" data-entity-1="PYT_0440" data-entity-2="PYT_0440_proc_1" data-source-line="31" data-uid="lnk8" id="link_PYT_0440_PYT_0440_proc_1"><path codeLine="31" d="M1204.98,157.7669 C1253.65,187.9169 1308.2295,221.747 1355.8795,251.267" fill="none" id="PYT_0440-to-PYT_0440_proc_1" style="stroke:#181818;stroke-width:1;stroke-dasharray:7,7;"/><polygon fill="#181818" points="1360.98,254.4269,1355.4358,246.2867,1356.7296,251.7937,1351.2226,253.0874,1360.98,254.4269" style="stroke:#181818;stroke-width:1;"/><text fill="#000000" font-family="sans-serif" font-size="13" lengthAdjust="spacing" textLength="91.6221" x="1280.81" y="200.5538">eingebettet in</text></g><!--link PYT_0440 to PYT_0440_proc_2--><g class="link" data-entity-1="PYT_0440" data-entity-2="PYT_0440_proc_2" data-source-line="37" data-uid="lnk10" id="link_PYT_0440_PYT_0440_proc_2"><path codeLine="37" d="M1239.83,124.2069 C1384.23,150.1069 1628.88,194.4169 1838.81,234.4869 C1872.01,240.8269 1901.0125,246.4406 1935.4825,253.2106" fill="none" id="PYT_0440-to-PYT_0440_proc_2" style="stroke:#181818;stroke-width:1;stroke-dasharray:7,7;"/><polygon fill="#181818" points="1941.37,254.3669,1933.3096,248.7074,1936.4637,253.4033,1931.7678,256.5574,1941.37,254.3669" style="stroke:#181818;stroke-width:1;"/><text fill="#000000" font-family="sans-serif" font-size="13" lengthAdjust="spacing" textLength="91.6221" x="1661.81" y="200.5538">eingebettet in</text></g><!--SRC=[pLJHRjD047plL-m7D9RZ1WIdAeYs40L8A085aHVhx5l7fvpNrTswHK7yEtiXXAX9cjU-pUwiRsVcRBDbXt2Z6Kcpqm5wSFlZcqe7W_Iib3h4Ceyb_3e3cEe65SnrxJfQX0ADfOKW9E5kVRl245091ZbdYhoYZbTnKXSUove4RiY9J0P6vv0AP6-ns9tv_MXtteH5tjyeA6jloveLZAUpp-Dho99NHeYFBJ7-bFPs0YcmxvRS-QYkSh5NeJCAFcZfNBS6WuexTiKVaNr-GZ70bovo_rJba_4eZyhozrWxzClMUunIyYpDNgJzYtvoPoenkestrni-zglW7lq3aa46IuSooPx897cceUGIIanXaBxilpwPGdOYXJlVbXBLvMK4ecOu_1l9iPTlX44eaVILVTjCtytEDsW-4tRU1TqqI9Nia7a5tor2rT6IRKiMFOEHnk73OVLWGraZhVaO1ze2FNHau9F52hqcVhDhDac6UqOKe7nJA8_pSR_PdjzJ5x6rFGd5w93HAnJjQyLWnCBcwWLxUFlVudrBXrOvj87N_u7aQN_Pdhy_]--></g></svg>