<svg xmlns="http://www.w3.org/2000/svg" xmlns:xlink="http://www.w3.org/1999/xlink" contentStyleType="text/css" data-diagram-type="CLASS" height="370px" preserveAspectRatio="none" style="width:1282px;height:370px;background:#FFFFFF;" version="1.1" viewBox="0 0 1282 370" width="1282px" zoomAndPan="magnify"><title>Datenatlas - QAL:Z99</title><defs/><g><g class="title" data-source-line="1"><text fill="#000000" font-family="sans-serif" font-size="14" font-weight="bold" lengthAdjust="spacing" textLength="168.3896" x="550.0994" y="22.9951">Datenatlas - QAL:Z99</text></g><!--class QAL_Z99--><g class="entity" data-entity="QAL_Z99" data-source-line="2" data-uid="ent0002" id="entity_QAL_Z99"><rect fill="#F1F1F1" height="96.8906" rx="2.5" ry="2.5" style="stroke:#181818;stroke-width:0.5;" width="360.3525" x="580.3" y="44.2969"/><ellipse cx="724.8254" cy="60.2969" fill="#ADD1B2" rx="11" ry="11" style="stroke:#181818;stroke-width:1;"/><path d="M727.7941,65.9375 Q727.216,66.2344 726.5754,66.375 Q725.9348,66.5313 725.2316,66.5313 Q722.7316,66.5313 721.4035,64.8906 Q720.091,63.2344 720.091,60.1094 Q720.091,56.9844 721.4035,55.3281 Q722.7316,53.6719 725.2316,53.6719 Q725.9348,53.6719 726.5754,53.8281 Q727.2316,53.9844 727.7941,54.2813 L727.7941,57 Q727.1691,56.4219 726.5754,56.1563 Q725.9816,55.875 725.3566,55.875 Q724.0129,55.875 723.3254,56.9531 Q722.6379,58.0156 722.6379,60.1094 Q722.6379,62.2031 723.3254,63.2813 Q724.0129,64.3438 725.3566,64.3438 Q725.9816,64.3438 726.5754,64.0781 Q727.1691,63.7969 727.7941,63.2188 L727.7941,65.9375 Z " fill="#000000"/><text fill="#000000" font-family="sans-serif" font-size="14" lengthAdjust="spacing" textLength="62.8018" x="745.3254" y="65.1436">QAL_Z99</text><line style="stroke:#181818;stroke-width:0.5;" x1="581.3" x2="939.6525" y1="76.2969" y2="76.2969"/><text fill="#000000" font-family="sans-serif" font-size="14" lengthAdjust="spacing" textLength="303.0713" x="600.3" y="93.292">Name: Mengenumenwertung unvollst&#228;ndig</text><text fill="#000000" font-family="sans-serif" font-size="14" lengthAdjust="spacing" textLength="66.6436" x="600.3" y="109.5889">Prozesse:</text><rect fill="none" height="6" style="stroke:#C82930;stroke-width:1;" width="6" x="588.3" y="119.5391"/><text fill="#000000" font-family="sans-serif" font-size="14" lengthAdjust="spacing" textLength="334.3525" x="600.3" y="125.8857">Anforderung und &#220;bermittlung von Messwerten</text><line style="stroke:#181818;stroke-width:0.5;" x1="581.3" x2="939.6525" y1="133.1875" y2="133.1875"/></g><!--class QAL_Z99_msg_1--><g class="entity" data-entity="QAL_Z99_msg_1" data-source-line="7" data-uid="ent0003" id="entity_QAL_Z99_msg_1"><rect fill="#F1F1F1" height="145.7813" rx="2.5" ry="2.5" style="stroke:#181818;stroke-width:0.5;" width="854.9463" x="7" y="218.1869"/><ellipse cx="372.4595" cy="234.1869" fill="#ADD1B2" rx="11" ry="11" style="stroke:#181818;stroke-width:1;"/><path d="M375.4282,239.8275 Q374.8501,240.1244 374.2095,240.265 Q373.5688,240.4213 372.8657,240.4213 Q370.3657,240.4213 369.0376,238.7806 Q367.7251,237.1244 367.7251,233.9994 Q367.7251,230.8744 369.0376,229.2181 Q370.3657,227.5619 372.8657,227.5619 Q373.5688,227.5619 374.2095,227.7181 Q374.8657,227.8744 375.4282,228.1713 L375.4282,230.89 Q374.8032,230.3119 374.2095,230.0463 Q373.6157,229.765 372.9907,229.765 Q371.647,229.765 370.9595,230.8431 Q370.272,231.9056 370.272,233.9994 Q370.272,236.0931 370.9595,237.1713 Q371.647,238.2338 372.9907,238.2338 Q373.6157,238.2338 374.2095,237.9681 Q374.8032,237.6869 375.4282,237.1088 L375.4282,239.8275 Z " fill="#000000"/><text fill="#000000" font-family="sans-serif" font-size="14" lengthAdjust="spacing" textLength="115.5273" x="392.9595" y="239.0336">QAL_Z99_msg_1</text><line style="stroke:#181818;stroke-width:0.5;" x1="8" x2="860.9463" y1="250.1869" y2="250.1869"/><text fill="#000000" font-family="sans-serif" font-size="14" lengthAdjust="spacing" textLength="172.0264" x="13" y="267.182">Nachricht: MSCONS 2.4c</text><text fill="#000000" font-family="sans-serif" font-size="14" lengthAdjust="spacing" textLength="326.2041" x="13" y="283.4789">Kontext: Z&#228;hlerstand aus einem SMGw anf&#228;llt.</text><text fill="#000000" font-family="sans-serif" font-size="14" lengthAdjust="spacing" textLength="91.4033" x="13" y="299.7757">Pflichtfeld: Ja</text><text fill="#000000" font-family="sans-serif" font-size="14" lengthAdjust="spacing" textLength="842.9463" x="13" y="316.0726">Codes: MU, OCR, QTY, Z99, ZA0, ZA1, ZA3, ZA4, ZA5, ZA6, ZA7, ZA8, ZA9, ZB0, ZB9, ZC2, ZC4, ZJ8, ZJ9, ZR1, ZR2, ZR3</text><text fill="#000000" font-family="sans-serif" font-size="14" lengthAdjust="spacing" textLength="405.4463" x="13" y="332.3695">Prozesse: Anforderung und &#220;bermittlung von Messwerten</text><text fill="#000000" font-family="sans-serif" font-size="14" lengthAdjust="spacing" textLength="420.9502" x="13" y="348.6664">Quelle: MSCONS_MIG_2_4c_au&#223;erordentliche_20240726.pdf</text><line style="stroke:#181818;stroke-width:0.5;" x1="8" x2="860.9463" y1="355.9681" y2="355.9681"/></g><!--class QAL_Z99_proc_1--><g class="entity" data-entity="QAL_Z99_proc_1" data-source-line="16" data-uid="ent0005" id="entity_QAL_Z99_proc_1"><rect fill="#F1F1F1" height="105.1563" rx="2.5" ry="2.5" style="stroke:#181818;stroke-width:0.5;" width="378.2285" x="897.36" y="238.4969"/><ellipse cx="1023.9171" cy="258.6297" fill="#ADD1B2" rx="11" ry="11" style="stroke:#181818;stroke-width:1;"/><path d="M1026.8859,264.2703 Q1026.3078,264.5672 1025.6671,264.7078 Q1025.0265,264.8641 1024.3234,264.8641 Q1021.8234,264.8641 1020.4953,263.2234 Q1019.1828,261.5672 1019.1828,258.4422 Q1019.1828,255.3172 1020.4953,253.6609 Q1021.8234,252.0047 1024.3234,252.0047 Q1025.0265,252.0047 1025.6671,252.1609 Q1026.3234,252.3172 1026.8859,252.6141 L1026.8859,255.3328 Q1026.2609,254.7547 1025.6671,254.4891 Q1025.0734,254.2078 1024.4484,254.2078 Q1023.1046,254.2078 1022.4171,255.2859 Q1021.7296,256.3484 1021.7296,258.4422 Q1021.7296,260.5359 1022.4171,261.6141 Q1023.1046,262.6766 1024.4484,262.6766 Q1025.0734,262.6766 1025.6671,262.4109 Q1026.2609,262.1297 1026.8859,261.5516 L1026.8859,264.2703 Z " fill="#000000"/><text fill="#000000" font-family="sans-serif" font-size="12" font-style="italic" lengthAdjust="spacing" textLength="61.0605" x="1072.194" y="254.6355">&#171;process&#187;</text><text fill="#000000" font-family="sans-serif" font-size="14" lengthAdjust="spacing" textLength="116.6143" x="1044.4171" y="270.4607">QAL_Z99_proc_1</text><line style="stroke:#181818;stroke-width:0.5;" x1="898.36" x2="1274.5885" y1="278.7625" y2="278.7625"/><text fill="#000000" font-family="sans-serif" font-size="14" lengthAdjust="spacing" textLength="334.3525" x="903.36" y="295.7576">Anforderung und &#220;bermittlung von Messwerten</text><text fill="#000000" font-family="sans-serif" font-size="14" lengthAdjust="spacing" textLength="105.0957" x="903.36" y="312.0545">Gesetze: MsbG</text><line style="stroke:#181818;stroke-width:0.5;" x1="898.36" x2="1274.5885" y1="319.3563" y2="319.3563"/><text fill="#000000" font-family="sans-serif" font-size="14" lengthAdjust="spacing" textLength="366.2285" x="903.36" y="336.3514">Zusammenfassung: Wie kann ein Marktpartner (z.B.</text></g><!--link QAL_Z99 to QAL_Z99_msg_1--><g class="link" data-entity-1="QAL_Z99" data-entity-2="QAL_Z99_msg_1" data-source-line="15" data-uid="lnk4" id="link_QAL_Z99_QAL_Z99_msg_1"><path codeLine="15" d="M681.14,141.5169 C643.07,164.4469 601.7799,189.3115 559.5199,214.7615" fill="none" id="QAL_Z99-to-QAL_Z99_msg_1" style="stroke:#181818;stroke-width:1;"/><polygon fill="#181818" points="554.38,217.8569,564.1534,216.6404,558.6633,215.2774,560.0263,209.7872,554.38,217.8569" style="stroke:#181818;stroke-width:1;"/><text fill="#000000" font-family="sans-serif" font-size="13" lengthAdjust="spacing" textLength="85.2363" x="628.47" y="184.2538">verwendet in</text></g><!--link QAL_Z99 to QAL_Z99_proc_1--><g class="link" data-entity-1="QAL_Z99" data-entity-2="QAL_Z99_proc_1" data-source-line="21" data-uid="lnk6" id="link_QAL_Z99_QAL_Z99_proc_1"><path codeLine="21" d="M839.8,141.5169 C888.34,170.7469 945.3002,205.0512 995.0602,235.0212" fill="none" id="QAL_Z99-to-QAL_Z99_proc_1" style="stroke:#181818;stroke-width:1;stroke-dasharray:7,7;"/><polygon fill="#181818" points="1000.2,238.1169,994.5541,230.0469,995.9169,235.5372,990.4266,236.8999,1000.2,238.1169" style="stroke:#181818;stroke-width:1;"/><text fill="#000000" font-family="sans-serif" font-size="13" lengthAdjust="spacing" textLength="91.6221" x="915.47" y="184.2538">eingebettet in</text></g><!--SRC=[bLB1Rjf04Btp5NFi0IpYqAIn8YIW4YeDIO1MLRXOYpqsLjPZj3k6Y2X_4YaN_iG_rfcqaH9kkJpjpBnzytPckM2ByDqmac5hF7HWDhYAbXSNhKH2hr4i4Jos0AvDYH5CaNAakaJQeUEQSgXfMrdhkJbGMkH2l7NL7ht7ICuWaWFAAfUY-qTEeNbUeIiBPgkPRKKYwhtA8RMUFdQEIv_79__x9sjN96iM4ulHpVK2mg2NIE5dHOmFabusXxL5vzb85rDxm8AmXCLql0D3MNEmbWCrc5dLoT2c4KoCP4PLYbvqVxVXPZHlm-pNNHkalS2Wgt2YSAhGK_YgSAPmhl1DGSb39G_rD0eLb3pHwaHpSrMPQs5- -dvEdviGmAn6Q_5j3F7qnpWEuruIcxfvGQTAnFf2ZCDksEkUXsV19iraj6_hx7JwHmEEO8jkXvGYGq57EzYuAX7EvQKUn4Y__xgGJxeUeqVUgss_6akyhBqfvHzbqaekHF2dGBWtHBesc1ftpnlZcD31btqm3Dxv3uB-iRb8R-MuGkRN9_m5]--></g></svg>