<svg xmlns="http://www.w3.org/2000/svg" xmlns:xlink="http://www.w3.org/1999/xlink" contentStyleType="text/css" data-diagram-type="CLASS" height="370px" preserveAspectRatio="none" style="width:1189px;height:370px;background:#FFFFFF;" version="1.1" viewBox="0 0 1189 370" width="1189px" zoomAndPan="magnify"><title>Datenatlas - QAL:ZS9</title><defs/><g><g class="title" data-source-line="1"><text fill="#000000" font-family="sans-serif" font-size="14" font-weight="bold" lengthAdjust="spacing" textLength="168.7314" x="503.2435" y="22.9951">Datenatlas - QAL:ZS9</text></g><!--class QAL_ZS9--><g class="entity" data-entity="QAL_ZS9" data-source-line="2" data-uid="ent0002" id="entity_QAL_ZS9"><rect fill="#F1F1F1" height="96.8906" rx="2.5" ry="2.5" style="stroke:#181818;stroke-width:0.5;" width="596.9033" x="391.66" y="44.2969"/><ellipse cx="654.471" cy="60.2969" fill="#ADD1B2" rx="11" ry="11" style="stroke:#181818;stroke-width:1;"/><path d="M657.4398,65.9375 Q656.8617,66.2344 656.221,66.375 Q655.5804,66.5313 654.8773,66.5313 Q652.3773,66.5313 651.0492,64.8906 Q649.7367,63.2344 649.7367,60.1094 Q649.7367,56.9844 651.0492,55.3281 Q652.3773,53.6719 654.8773,53.6719 Q655.5804,53.6719 656.221,53.8281 Q656.8773,53.9844 657.4398,54.2813 L657.4398,57 Q656.8148,56.4219 656.221,56.1563 Q655.6273,55.875 655.0023,55.875 Q653.6585,55.875 652.971,56.9531 Q652.2835,58.0156 652.2835,60.1094 Q652.2835,62.2031 652.971,63.2813 Q653.6585,64.3438 655.0023,64.3438 Q655.6273,64.3438 656.221,64.0781 Q656.8148,63.7969 657.4398,63.2188 L657.4398,65.9375 Z " fill="#000000"/><text fill="#000000" font-family="sans-serif" font-size="14" lengthAdjust="spacing" textLength="62.7813" x="674.971" y="65.1436">QAL_ZS9</text><line style="stroke:#181818;stroke-width:0.5;" x1="392.66" x2="987.5633" y1="76.2969" y2="76.2969"/><text fill="#000000" font-family="sans-serif" font-size="14" lengthAdjust="spacing" textLength="570.9033" x="411.66" y="93.292">Name: Grund der Ersatzwertbildung gem&#228;&#223; Angaben auf Ebene der Messlokation</text><text fill="#000000" font-family="sans-serif" font-size="14" lengthAdjust="spacing" textLength="66.6436" x="411.66" y="109.5889">Prozesse:</text><rect fill="none" height="6" style="stroke:#C82930;stroke-width:1;" width="6" x="399.66" y="119.5391"/><text fill="#000000" font-family="sans-serif" font-size="14" lengthAdjust="spacing" textLength="334.3525" x="411.66" y="125.8857">Anforderung und &#220;bermittlung von Messwerten</text><line style="stroke:#181818;stroke-width:0.5;" x1="392.66" x2="987.5633" y1="133.1875" y2="133.1875"/></g><!--class QAL_ZS9_msg_1--><g class="entity" data-entity="QAL_ZS9_msg_1" data-source-line="7" data-uid="ent0003" id="entity_QAL_ZS9_msg_1"><rect fill="#F1F1F1" height="145.7813" rx="2.5" ry="2.5" style="stroke:#181818;stroke-width:0.5;" width="762.2168" x="7" y="218.1869"/><ellipse cx="326.105" cy="234.1869" fill="#ADD1B2" rx="11" ry="11" style="stroke:#181818;stroke-width:1;"/><path d="M329.0737,239.8275 Q328.4956,240.1244 327.855,240.265 Q327.2144,240.4213 326.5112,240.4213 Q324.0112,240.4213 322.6831,238.7806 Q321.3706,237.1244 321.3706,233.9994 Q321.3706,230.8744 322.6831,229.2181 Q324.0112,227.5619 326.5112,227.5619 Q327.2144,227.5619 327.855,227.7181 Q328.5112,227.8744 329.0737,228.1713 L329.0737,230.89 Q328.4487,230.3119 327.855,230.0463 Q327.2612,229.765 326.6362,229.765 Q325.2925,229.765 324.605,230.8431 Q323.9175,231.9056 323.9175,233.9994 Q323.9175,236.0931 324.605,237.1713 Q325.2925,238.2338 326.6362,238.2338 Q327.2612,238.2338 327.855,237.9681 Q328.4487,237.6869 329.0737,237.1088 L329.0737,239.8275 Z " fill="#000000"/><text fill="#000000" font-family="sans-serif" font-size="14" lengthAdjust="spacing" textLength="115.5068" x="346.605" y="239.0336">QAL_ZS9_msg_1</text><line style="stroke:#181818;stroke-width:0.5;" x1="8" x2="768.2168" y1="250.1869" y2="250.1869"/><text fill="#000000" font-family="sans-serif" font-size="14" lengthAdjust="spacing" textLength="172.0264" x="13" y="267.182">Nachricht: MSCONS 2.4c</text><text fill="#000000" font-family="sans-serif" font-size="14" lengthAdjust="spacing" textLength="436.7549" x="13" y="283.4789">Kontext: Messger&#228;ten stehen keine Messwerte zur Verf&#252;gung.</text><text fill="#000000" font-family="sans-serif" font-size="14" lengthAdjust="spacing" textLength="110.5439" x="13" y="299.7757">Pflichtfeld: Nein</text><text fill="#000000" font-family="sans-serif" font-size="14" lengthAdjust="spacing" textLength="750.2168" x="13" y="316.0726">Codes: MSB, OCR, ZA0, ZA1, ZA3, ZA4, ZA5, ZA6, ZA7, ZB0, ZB9, ZC2, ZC4, ZR1, ZR2, ZR3, ZR4, ZS9, ZT8</text><text fill="#000000" font-family="sans-serif" font-size="14" lengthAdjust="spacing" textLength="405.4463" x="13" y="332.3695">Prozesse: Anforderung und &#220;bermittlung von Messwerten</text><text fill="#000000" font-family="sans-serif" font-size="14" lengthAdjust="spacing" textLength="294.1641" x="13" y="348.6664">Quelle: MSCONS_MIG_2_4c_20231024.pdf</text><line style="stroke:#181818;stroke-width:0.5;" x1="8" x2="768.2168" y1="355.9681" y2="355.9681"/></g><!--class QAL_ZS9_proc_1--><g class="entity" data-entity="QAL_ZS9_proc_1" data-source-line="16" data-uid="ent0005" id="entity_QAL_ZS9_proc_1"><rect fill="#F1F1F1" height="105.1563" rx="2.5" ry="2.5" style="stroke:#181818;stroke-width:0.5;" width="378.2285" x="803.99" y="238.4969"/><ellipse cx="930.5574" cy="258.6297" fill="#ADD1B2" rx="11" ry="11" style="stroke:#181818;stroke-width:1;"/><path d="M933.5261,264.2703 Q932.948,264.5672 932.3074,264.7078 Q931.6668,264.8641 930.9636,264.8641 Q928.4636,264.8641 927.1355,263.2234 Q925.823,261.5672 925.823,258.4422 Q925.823,255.3172 927.1355,253.6609 Q928.4636,252.0047 930.9636,252.0047 Q931.6668,252.0047 932.3074,252.1609 Q932.9636,252.3172 933.5261,252.6141 L933.5261,255.3328 Q932.9011,254.7547 932.3074,254.4891 Q931.7136,254.2078 931.0886,254.2078 Q929.7449,254.2078 929.0574,255.2859 Q928.3699,256.3484 928.3699,258.4422 Q928.3699,260.5359 929.0574,261.6141 Q929.7449,262.6766 931.0886,262.6766 Q931.7136,262.6766 932.3074,262.4109 Q932.9011,262.1297 933.5261,261.5516 L933.5261,264.2703 Z " fill="#000000"/><text fill="#000000" font-family="sans-serif" font-size="12" font-style="italic" lengthAdjust="spacing" textLength="61.0605" x="978.824" y="254.6355">&#171;process&#187;</text><text fill="#000000" font-family="sans-serif" font-size="14" lengthAdjust="spacing" textLength="116.5938" x="951.0574" y="270.4607">QAL_ZS9_proc_1</text><line style="stroke:#181818;stroke-width:0.5;" x1="804.99" x2="1181.2185" y1="278.7625" y2="278.7625"/><text fill="#000000" font-family="sans-serif" font-size="14" lengthAdjust="spacing" textLength="334.3525" x="809.99" y="295.7576">Anforderung und &#220;bermittlung von Messwerten</text><text fill="#000000" font-family="sans-serif" font-size="14" lengthAdjust="spacing" textLength="105.0957" x="809.99" y="312.0545">Gesetze: MsbG</text><line style="stroke:#181818;stroke-width:0.5;" x1="804.99" x2="1181.2185" y1="319.3563" y2="319.3563"/><text fill="#000000" font-family="sans-serif" font-size="14" lengthAdjust="spacing" textLength="366.2285" x="809.99" y="336.3514">Zusammenfassung: Wie kann ein Marktpartner (z.B.</text></g><!--link QAL_ZS9 to QAL_ZS9_msg_1--><g class="link" data-entity-1="QAL_ZS9" data-entity-2="QAL_ZS9_msg_1" data-source-line="15" data-uid="lnk4" id="link_QAL_ZS9_QAL_ZS9_msg_1"><path codeLine="15" d="M616.62,141.5169 C581.35,164.4469 543.3705,189.1367 504.2205,214.5867" fill="none" id="QAL_ZS9-to-QAL_ZS9_msg_1" style="stroke:#181818;stroke-width:1;"/><polygon fill="#181818" points="499.19,217.8569,508.9159,216.3053,503.3821,215.1317,504.5557,209.598,499.19,217.8569" style="stroke:#181818;stroke-width:1;"/><text fill="#000000" font-family="sans-serif" font-size="13" lengthAdjust="spacing" textLength="85.2363" x="568.11" y="184.2538">verwendet in</text></g><!--link QAL_ZS9 to QAL_ZS9_proc_1--><g class="link" data-entity-1="QAL_ZS9" data-entity-2="QAL_ZS9_proc_1" data-source-line="21" data-uid="lnk6" id="link_QAL_ZS9_QAL_ZS9_proc_1"><path codeLine="21" d="M763.84,141.5169 C808.95,170.7469 861.6451,204.8835 907.8851,234.8535" fill="none" id="QAL_ZS9-to-QAL_ZS9_proc_1" style="stroke:#181818;stroke-width:1;stroke-dasharray:7,7;"/><polygon fill="#181818" points="912.92,238.1169,907.5432,229.8652,908.7242,235.3974,903.192,236.5785,912.92,238.1169" style="stroke:#181818;stroke-width:1;"/><text fill="#000000" font-family="sans-serif" font-size="13" lengthAdjust="spacing" textLength="91.6221" x="834.11" y="184.2538">eingebettet in</text></g><!--SRC=[bL91JkD04Bpd5NtaGAp4X5rYHP6IW2B49e235YaNQsot7IlZSJJJXfKHFq7Q2y_Ocpz6TxH1m8rBURfTtLLJDXMa4SuLeL6abOCkt4v-1UlLi9DmwQIAk8Ad3i1IbHZ0tDOcXHGjN5Ydg7b4It6Xqzhaa6FPlhP_OM9o5QC1LMTmmGVSynVedAwsYehAyBeRMpNSmO3FmC8JarMMUR989DgN66rP46dfF5Hclq3aq7IUF_kBIfT7_VykauqjaWq5i5ZDhfShyBr1mY-kAaFuHzgy9aVRll8YS8GRVconO9Vl0j3K5dwZpTf_EQjxOZVJiZL3dGQmP3htPbMAJdIcnt0z2uzXFUa9z0LE10O2fm8_17uoJ8Ko7JBCV06XX38HIXdAM2YzbL3kpZuczRsC06vhr1eFGKIBotdaHuCaydl-IR_d3xnTcd6KXu_SxOw_11h00zf7D2aIy8q_PxwpLSASqKWEB3iUxp_0DptEqI4rOjB5SwxNjLDbYIPZAHu8uBv0s2fZW3E7XR9RsYbBXd-eeyQRUX_yUzxugxb0fdACaMX_XJS0]--></g></svg>