<svg xmlns="http://www.w3.org/2000/svg" xmlns:xlink="http://www.w3.org/1999/xlink" contentStyleType="text/css" data-diagram-type="CLASS" height="370px" preserveAspectRatio="none" style="width:1282px;height:370px;background:#FFFFFF;" version="1.1" viewBox="0 0 1282 370" width="1282px" zoomAndPan="magnify"><title>Datenatlas - QAL:ZR3</title><defs/><g><g class="title" data-source-line="1"><text fill="#000000" font-family="sans-serif" font-size="14" font-weight="bold" lengthAdjust="spacing" textLength="169.4287" x="549.5799" y="22.9951">Datenatlas - QAL:ZR3</text></g><!--class QAL_ZR3--><g class="entity" data-entity="QAL_ZR3" data-source-line="2" data-uid="ent0002" id="entity_QAL_ZR3"><rect fill="#F1F1F1" height="96.8906" rx="2.5" ry="2.5" style="stroke:#181818;stroke-width:0.5;" width="472.373" x="524.29" y="44.2969"/><ellipse cx="724.4155" cy="60.2969" fill="#ADD1B2" rx="11" ry="11" style="stroke:#181818;stroke-width:1;"/><path d="M727.3842,65.9375 Q726.8061,66.2344 726.1655,66.375 Q725.5249,66.5313 724.8217,66.5313 Q722.3217,66.5313 720.9936,64.8906 Q719.6811,63.2344 719.6811,60.1094 Q719.6811,56.9844 720.9936,55.3281 Q722.3217,53.6719 724.8217,53.6719 Q725.5249,53.6719 726.1655,53.8281 Q726.8217,53.9844 727.3842,54.2813 L727.3842,57 Q726.7592,56.4219 726.1655,56.1563 Q725.5717,55.875 724.9467,55.875 Q723.603,55.875 722.9155,56.9531 Q722.228,58.0156 722.228,60.1094 Q722.228,62.2031 722.9155,63.2813 Q723.603,64.3438 724.9467,64.3438 Q725.5717,64.3438 726.1655,64.0781 Q726.7592,63.7969 727.3842,63.2188 L727.3842,65.9375 Z " fill="#000000"/><text fill="#000000" font-family="sans-serif" font-size="14" lengthAdjust="spacing" textLength="63.6221" x="744.9155" y="65.1436">QAL_ZR3</text><line style="stroke:#181818;stroke-width:0.5;" x1="525.29" x2="995.663" y1="76.2969" y2="76.2969"/><text fill="#000000" font-family="sans-serif" font-size="14" lengthAdjust="spacing" textLength="446.373" x="544.29" y="93.292">Name: Wartungsarbeiten an eichrechtskonformen Messger&#228;ten</text><text fill="#000000" font-family="sans-serif" font-size="14" lengthAdjust="spacing" textLength="66.6436" x="544.29" y="109.5889">Prozesse:</text><rect fill="none" height="6" style="stroke:#C82930;stroke-width:1;" width="6" x="532.29" y="119.5391"/><text fill="#000000" font-family="sans-serif" font-size="14" lengthAdjust="spacing" textLength="334.3525" x="544.29" y="125.8857">Anforderung und &#220;bermittlung von Messwerten</text><line style="stroke:#181818;stroke-width:0.5;" x1="525.29" x2="995.663" y1="133.1875" y2="133.1875"/></g><!--class QAL_ZR3_msg_1--><g class="entity" data-entity="QAL_ZR3_msg_1" data-source-line="7" data-uid="ent0003" id="entity_QAL_ZR3_msg_1"><rect fill="#F1F1F1" height="145.7813" rx="2.5" ry="2.5" style="stroke:#181818;stroke-width:0.5;" width="854.9463" x="7" y="218.1869"/><ellipse cx="372.0493" cy="234.1869" fill="#ADD1B2" rx="11" ry="11" style="stroke:#181818;stroke-width:1;"/><path d="M375.0181,239.8275 Q374.4399,240.1244 373.7993,240.265 Q373.1587,240.4213 372.4556,240.4213 Q369.9556,240.4213 368.6274,238.7806 Q367.3149,237.1244 367.3149,233.9994 Q367.3149,230.8744 368.6274,229.2181 Q369.9556,227.5619 372.4556,227.5619 Q373.1587,227.5619 373.7993,227.7181 Q374.4556,227.8744 375.0181,228.1713 L375.0181,230.89 Q374.3931,230.3119 373.7993,230.0463 Q373.2056,229.765 372.5806,229.765 Q371.2368,229.765 370.5493,230.8431 Q369.8618,231.9056 369.8618,233.9994 Q369.8618,236.0931 370.5493,237.1713 Q371.2368,238.2338 372.5806,238.2338 Q373.2056,238.2338 373.7993,237.9681 Q374.3931,237.6869 375.0181,237.1088 L375.0181,239.8275 Z " fill="#000000"/><text fill="#000000" font-family="sans-serif" font-size="14" lengthAdjust="spacing" textLength="116.3477" x="392.5493" y="239.0336">QAL_ZR3_msg_1</text><line style="stroke:#181818;stroke-width:0.5;" x1="8" x2="860.9463" y1="250.1869" y2="250.1869"/><text fill="#000000" font-family="sans-serif" font-size="14" lengthAdjust="spacing" textLength="172.0264" x="13" y="267.182">Nachricht: MSCONS 2.4c</text><text fill="#000000" font-family="sans-serif" font-size="14" lengthAdjust="spacing" textLength="326.2041" x="13" y="283.4789">Kontext: Z&#228;hlerstand aus einem SMGw anf&#228;llt.</text><text fill="#000000" font-family="sans-serif" font-size="14" lengthAdjust="spacing" textLength="91.4033" x="13" y="299.7757">Pflichtfeld: Ja</text><text fill="#000000" font-family="sans-serif" font-size="14" lengthAdjust="spacing" textLength="842.9463" x="13" y="316.0726">Codes: MU, OCR, QTY, Z99, ZA0, ZA1, ZA3, ZA4, ZA5, ZA6, ZA7, ZA8, ZA9, ZB0, ZB9, ZC2, ZC4, ZJ8, ZJ9, ZR1, ZR2, ZR3</text><text fill="#000000" font-family="sans-serif" font-size="14" lengthAdjust="spacing" textLength="405.4463" x="13" y="332.3695">Prozesse: Anforderung und &#220;bermittlung von Messwerten</text><text fill="#000000" font-family="sans-serif" font-size="14" lengthAdjust="spacing" textLength="420.9502" x="13" y="348.6664">Quelle: MSCONS_MIG_2_4c_au&#223;erordentliche_20240726.pdf</text><line style="stroke:#181818;stroke-width:0.5;" x1="8" x2="860.9463" y1="355.9681" y2="355.9681"/></g><!--class QAL_ZR3_proc_1--><g class="entity" data-entity="QAL_ZR3_proc_1" data-source-line="16" data-uid="ent0005" id="entity_QAL_ZR3_proc_1"><rect fill="#F1F1F1" height="105.1563" rx="2.5" ry="2.5" style="stroke:#181818;stroke-width:0.5;" width="378.2285" x="897.36" y="238.4969"/><ellipse cx="1023.507" cy="258.6297" fill="#ADD1B2" rx="11" ry="11" style="stroke:#181818;stroke-width:1;"/><path d="M1026.4757,264.2703 Q1025.8976,264.5672 1025.257,264.7078 Q1024.6163,264.8641 1023.9132,264.8641 Q1021.4132,264.8641 1020.0851,263.2234 Q1018.7726,261.5672 1018.7726,258.4422 Q1018.7726,255.3172 1020.0851,253.6609 Q1021.4132,252.0047 1023.9132,252.0047 Q1024.6163,252.0047 1025.257,252.1609 Q1025.9132,252.3172 1026.4757,252.6141 L1026.4757,255.3328 Q1025.8507,254.7547 1025.257,254.4891 Q1024.6632,254.2078 1024.0382,254.2078 Q1022.6945,254.2078 1022.007,255.2859 Q1021.3195,256.3484 1021.3195,258.4422 Q1021.3195,260.5359 1022.007,261.6141 Q1022.6945,262.6766 1024.0382,262.6766 Q1024.6632,262.6766 1025.257,262.4109 Q1025.8507,262.1297 1026.4757,261.5516 L1026.4757,264.2703 Z " fill="#000000"/><text fill="#000000" font-family="sans-serif" font-size="12" font-style="italic" lengthAdjust="spacing" textLength="61.0605" x="1072.194" y="254.6355">&#171;process&#187;</text><text fill="#000000" font-family="sans-serif" font-size="14" lengthAdjust="spacing" textLength="117.4346" x="1044.007" y="270.4607">QAL_ZR3_proc_1</text><line style="stroke:#181818;stroke-width:0.5;" x1="898.36" x2="1274.5885" y1="278.7625" y2="278.7625"/><text fill="#000000" font-family="sans-serif" font-size="14" lengthAdjust="spacing" textLength="334.3525" x="903.36" y="295.7576">Anforderung und &#220;bermittlung von Messwerten</text><text fill="#000000" font-family="sans-serif" font-size="14" lengthAdjust="spacing" textLength="105.0957" x="903.36" y="312.0545">Gesetze: MsbG</text><line style="stroke:#181818;stroke-width:0.5;" x1="898.36" x2="1274.5885" y1="319.3563" y2="319.3563"/><text fill="#000000" font-family="sans-serif" font-size="14" lengthAdjust="spacing" textLength="366.2285" x="903.36" y="336.3514">Zusammenfassung: Wie kann ein Marktpartner (z.B.</text></g><!--link QAL_ZR3 to QAL_ZR3_msg_1--><g class="link" data-entity-1="QAL_ZR3" data-entity-2="QAL_ZR3_msg_1" data-source-line="15" data-uid="lnk4" id="link_QAL_ZR3_QAL_ZR3_msg_1"><path codeLine="15" d="M681.14,141.5169 C643.07,164.4469 601.7799,189.3115 559.5199,214.7615" fill="none" id="QAL_ZR3-to-QAL_ZR3_msg_1" style="stroke:#181818;stroke-width:1;"/><polygon fill="#181818" points="554.38,217.8569,564.1534,216.6404,558.6633,215.2774,560.0263,209.7872,554.38,217.8569" style="stroke:#181818;stroke-width:1;"/><text fill="#000000" font-family="sans-serif" font-size="13" lengthAdjust="spacing" textLength="85.2363" x="628.47" y="184.2538">verwendet in</text></g><!--link QAL_ZR3 to QAL_ZR3_proc_1--><g class="link" data-entity-1="QAL_ZR3" data-entity-2="QAL_ZR3_proc_1" data-source-line="21" data-uid="lnk6" id="link_QAL_ZR3_QAL_ZR3_proc_1"><path codeLine="21" d="M839.8,141.5169 C888.34,170.7469 945.3002,205.0512 995.0602,235.0212" fill="none" id="QAL_ZR3-to-QAL_ZR3_proc_1" style="stroke:#181818;stroke-width:1;stroke-dasharray:7,7;"/><polygon fill="#181818" points="1000.2,238.1169,994.5541,230.0469,995.9169,235.5372,990.4266,236.8999,1000.2,238.1169" style="stroke:#181818;stroke-width:1;"/><text fill="#000000" font-family="sans-serif" font-size="13" lengthAdjust="spacing" textLength="91.6221" x="915.47" y="184.2538">eingebettet in</text></g><!--SRC=[bLBDJi904Bxx57Fq00rK_A4n98094GK4D4OkpT9EeM6x9RjJCHZVnCGBRz8NSmOrKMvUliplDz_E3gMa4QuKeL6abOCgZDktmMnoSXInwyGBsOFN8u2XoZ20HsMfC0kdx1nJxWDb0DDeQJ5Qablb9ibjnk41EhT0M-wuXfllRBxb20Pi0uzfIrsCbgcWC36KxtEqMKga9VASVn5iq4hxsryrOUOMOVrR4q_cwHJ0ODeT3QVWUus84pUv8NpXyApSBJLQHugdgCAnM8CPJ0Uz3KjFoftMv8d0H0jFWZeEeAyuqirZTCpxK85HTrA1yVrJ1MRD9aEx9b0NE15e29mAd0cS2rm8I757YZjYTNq1AUvBjY-nYR1C9C5B_xMd_sq8O5oWrlYpXd1mtGlzi165gYW_q0gJ8NaXXdxDRzJE_JDl7IUysfylhbPR1miEu1dj1asC1Aav-8ErpIEkkRmKWuMqMliF-QVg7ZgahSXsynxxiyAfZCyduL7SmEUM8goKaHlZLcLNjEO3D6ZXUEjrl5_wFQzrA2wGhWNEaMZ_X4y0]--></g></svg>