<svg xmlns="http://www.w3.org/2000/svg" xmlns:xlink="http://www.w3.org/1999/xlink" contentStyleType="text/css" data-diagram-type="CLASS" height="403px" preserveAspectRatio="none" style="width:3793px;height:403px;background:#FFFFFF;" version="1.1" viewBox="0 0 3793 403" width="3793px" zoomAndPan="magnify"><title>Datenatlas - QTY:C186</title><defs/><g><g class="title" data-source-line="1"><text fill="#000000" font-family="sans-serif" font-size="14" font-weight="bold" lengthAdjust="spacing" textLength="178.1855" x="1800.8715" y="22.9951">Datenatlas - QTY:C186</text></g><!--class QTY_C186--><g class="entity" data-entity="QTY_C186" data-source-line="2" data-uid="ent0002" id="entity_QTY_C186"><rect fill="#F1F1F1" height="129.4844" rx="2.5" ry="2.5" style="stroke:#181818;stroke-width:0.5;" width="360.3525" x="1688.63" y="44.2969"/><ellipse cx="1828.7462" cy="60.2969" fill="#ADD1B2" rx="11" ry="11" style="stroke:#181818;stroke-width:1;"/><path d="M1831.715,65.9375 Q1831.1368,66.2344 1830.4962,66.375 Q1829.8556,66.5313 1829.1525,66.5313 Q1826.6525,66.5313 1825.3243,64.8906 Q1824.0118,63.2344 1824.0118,60.1094 Q1824.0118,56.9844 1825.3243,55.3281 Q1826.6525,53.6719 1829.1525,53.6719 Q1829.8556,53.6719 1830.4962,53.8281 Q1831.1525,53.9844 1831.715,54.2813 L1831.715,57 Q1831.09,56.4219 1830.4962,56.1563 Q1829.9025,55.875 1829.2775,55.875 Q1827.9337,55.875 1827.2462,56.9531 Q1826.5587,58.0156 1826.5587,60.1094 Q1826.5587,62.2031 1827.2462,63.2813 Q1827.9337,64.3438 1829.2775,64.3438 Q1829.9025,64.3438 1830.4962,64.0781 Q1831.09,63.7969 1831.715,63.2188 L1831.715,65.9375 Z " fill="#000000"/><text fill="#000000" font-family="sans-serif" font-size="14" lengthAdjust="spacing" textLength="71.6201" x="1849.2462" y="65.1436">QTY_C186</text><line style="stroke:#181818;stroke-width:0.5;" x1="1689.63" x2="2047.9825" y1="76.2969" y2="76.2969"/><text fill="#000000" font-family="sans-serif" font-size="14" lengthAdjust="spacing" textLength="167.6992" x="1708.63" y="93.292">Name: Mengenangaben</text><text fill="#000000" font-family="sans-serif" font-size="14" lengthAdjust="spacing" textLength="66.6436" x="1708.63" y="109.5889">Prozesse:</text><rect fill="none" height="6" style="stroke:#C82930;stroke-width:1;" width="6" x="1696.63" y="119.5391"/><text fill="#000000" font-family="sans-serif" font-size="14" lengthAdjust="spacing" textLength="180.3457" x="1708.63" y="125.8857">Netznutzungsabrechnung</text><rect fill="none" height="6" style="stroke:#C82930;stroke-width:1;" width="6" x="1696.63" y="135.8359"/><text fill="#000000" font-family="sans-serif" font-size="14" lengthAdjust="spacing" textLength="223.2822" x="1708.63" y="142.1826">Messstellenbetriebsabrechnung</text><rect fill="none" height="6" style="stroke:#C82930;stroke-width:1;" width="6" x="1696.63" y="152.1328"/><text fill="#000000" font-family="sans-serif" font-size="14" lengthAdjust="spacing" textLength="334.3525" x="1708.63" y="158.4795">Anforderung und &#220;bermittlung von Messwerten</text><line style="stroke:#181818;stroke-width:0.5;" x1="1689.63" x2="2047.9825" y1="165.7813" y2="165.7813"/></g><!--class QTY_C186_msg_1--><g class="entity" data-entity="QTY_C186_msg_1" data-source-line="9" data-uid="ent0003" id="entity_QTY_C186_msg_1"><rect fill="#F1F1F1" height="145.7813" rx="2.5" ry="2.5" style="stroke:#181818;stroke-width:0.5;" width="495.6221" x="7" y="250.7869"/><ellipse cx="188.3882" cy="266.7869" fill="#ADD1B2" rx="11" ry="11" style="stroke:#181818;stroke-width:1;"/><path d="M191.3569,272.4275 Q190.7788,272.7244 190.1382,272.865 Q189.4976,273.0213 188.7944,273.0213 Q186.2944,273.0213 184.9663,271.3806 Q183.6538,269.7244 183.6538,266.5994 Q183.6538,263.4744 184.9663,261.8181 Q186.2944,260.1619 188.7944,260.1619 Q189.4976,260.1619 190.1382,260.3181 Q190.7944,260.4744 191.3569,260.7713 L191.3569,263.49 Q190.7319,262.9119 190.1382,262.6463 Q189.5444,262.365 188.9194,262.365 Q187.5757,262.365 186.8882,263.4431 Q186.2007,264.5056 186.2007,266.5994 Q186.2007,268.6931 186.8882,269.7713 Q187.5757,270.8338 188.9194,270.8338 Q189.5444,270.8338 190.1382,270.5681 Q190.7319,270.2869 191.3569,269.7088 L191.3569,272.4275 Z " fill="#000000"/><text fill="#000000" font-family="sans-serif" font-size="14" lengthAdjust="spacing" textLength="124.3457" x="208.8882" y="271.6336">QTY_C186_msg_1</text><line style="stroke:#181818;stroke-width:0.5;" x1="8" x2="501.6221" y1="282.7869" y2="282.7869"/><text fill="#000000" font-family="sans-serif" font-size="14" lengthAdjust="spacing" textLength="161.1982" x="13" y="299.782">Nachricht: INVOIC 2.8d</text><text fill="#000000" font-family="sans-serif" font-size="14" lengthAdjust="spacing" textLength="270.0674" x="13" y="316.0789">Kontext: Beispiel 2 Leistungszeitraum:</text><text fill="#000000" font-family="sans-serif" font-size="14" lengthAdjust="spacing" textLength="110.5439" x="13" y="332.3757">Pflichtfeld: Nein</text><text fill="#000000" font-family="sans-serif" font-size="14" lengthAdjust="spacing" textLength="301.8887" x="13" y="348.6726">Codes: 136, 35, ANN, DAY, MON, OCR, QTY</text><text fill="#000000" font-family="sans-serif" font-size="14" lengthAdjust="spacing" textLength="483.6221" x="13" y="364.9695">Prozesse: Netznutzungsabrechnung, Messstellenbetriebsabrechnung</text><text fill="#000000" font-family="sans-serif" font-size="14" lengthAdjust="spacing" textLength="396.6074" x="13" y="381.2664">Quelle: INVOIC_MIG_2.8d_Fehlerkorrektur_20250131.pdf</text><line style="stroke:#181818;stroke-width:0.5;" x1="8" x2="501.6221" y1="388.5681" y2="388.5681"/></g><!--class QTY_C186_msg_2--><g class="entity" data-entity="QTY_C186_msg_2" data-source-line="18" data-uid="ent0005" id="entity_QTY_C186_msg_2"><rect fill="#F1F1F1" height="145.7813" rx="2.5" ry="2.5" style="stroke:#181818;stroke-width:0.5;" width="495.6221" x="538" y="250.7869"/><ellipse cx="719.3882" cy="266.7869" fill="#ADD1B2" rx="11" ry="11" style="stroke:#181818;stroke-width:1;"/><path d="M722.3569,272.4275 Q721.7788,272.7244 721.1382,272.865 Q720.4976,273.0213 719.7944,273.0213 Q717.2944,273.0213 715.9663,271.3806 Q714.6538,269.7244 714.6538,266.5994 Q714.6538,263.4744 715.9663,261.8181 Q717.2944,260.1619 719.7944,260.1619 Q720.4976,260.1619 721.1382,260.3181 Q721.7944,260.4744 722.3569,260.7713 L722.3569,263.49 Q721.7319,262.9119 721.1382,262.6463 Q720.5444,262.365 719.9194,262.365 Q718.5757,262.365 717.8882,263.4431 Q717.2007,264.5056 717.2007,266.5994 Q717.2007,268.6931 717.8882,269.7713 Q718.5757,270.8338 719.9194,270.8338 Q720.5444,270.8338 721.1382,270.5681 Q721.7319,270.2869 722.3569,269.7088 L722.3569,272.4275 Z " fill="#000000"/><text fill="#000000" font-family="sans-serif" font-size="14" lengthAdjust="spacing" textLength="124.3457" x="739.8882" y="271.6336">QTY_C186_msg_2</text><line style="stroke:#181818;stroke-width:0.5;" x1="539" x2="1032.6221" y1="282.7869" y2="282.7869"/><text fill="#000000" font-family="sans-serif" font-size="14" lengthAdjust="spacing" textLength="165.6484" x="544" y="299.782">Nachricht: INVOIC 2.8d.</text><text fill="#000000" font-family="sans-serif" font-size="14" lengthAdjust="spacing" textLength="149.3447" x="544" y="316.0789">Kontext: Bemerkung:</text><text fill="#000000" font-family="sans-serif" font-size="14" lengthAdjust="spacing" textLength="110.5439" x="544" y="332.3757">Pflichtfeld: Nein</text><text fill="#000000" font-family="sans-serif" font-size="14" lengthAdjust="spacing" textLength="182.8682" x="544" y="348.6726">Codes: 35, OCR, QTY, Z17</text><text fill="#000000" font-family="sans-serif" font-size="14" lengthAdjust="spacing" textLength="483.6221" x="544" y="364.9695">Prozesse: Netznutzungsabrechnung, Messstellenbetriebsabrechnung</text><text fill="#000000" font-family="sans-serif" font-size="14" lengthAdjust="spacing" textLength="290.3359" x="544" y="381.2664">Quelle: INVOIC_MIG_2_8d__20240619.pdf</text><line style="stroke:#181818;stroke-width:0.5;" x1="539" x2="1032.6221" y1="388.5681" y2="388.5681"/></g><!--class QTY_C186_msg_3--><g class="entity" data-entity="QTY_C186_msg_3" data-source-line="27" data-uid="ent0007" id="entity_QTY_C186_msg_3"><rect fill="#F1F1F1" height="145.7813" rx="2.5" ry="2.5" style="stroke:#181818;stroke-width:0.5;" width="792.6162" x="1068.5" y="250.7869"/><ellipse cx="1398.3853" cy="266.7869" fill="#ADD1B2" rx="11" ry="11" style="stroke:#181818;stroke-width:1;"/><path d="M1401.354,272.4275 Q1400.7759,272.7244 1400.1353,272.865 Q1399.4946,273.0213 1398.7915,273.0213 Q1396.2915,273.0213 1394.9634,271.3806 Q1393.6509,269.7244 1393.6509,266.5994 Q1393.6509,263.4744 1394.9634,261.8181 Q1396.2915,260.1619 1398.7915,260.1619 Q1399.4946,260.1619 1400.1353,260.3181 Q1400.7915,260.4744 1401.354,260.7713 L1401.354,263.49 Q1400.729,262.9119 1400.1353,262.6463 Q1399.5415,262.365 1398.9165,262.365 Q1397.5728,262.365 1396.8853,263.4431 Q1396.1978,264.5056 1396.1978,266.5994 Q1396.1978,268.6931 1396.8853,269.7713 Q1397.5728,270.8338 1398.9165,270.8338 Q1399.5415,270.8338 1400.1353,270.5681 Q1400.729,270.2869 1401.354,269.7088 L1401.354,272.4275 Z " fill="#000000"/><text fill="#000000" font-family="sans-serif" font-size="14" lengthAdjust="spacing" textLength="124.3457" x="1418.8853" y="271.6336">QTY_C186_msg_3</text><line style="stroke:#181818;stroke-width:0.5;" x1="1069.5" x2="1860.1162" y1="282.7869" y2="282.7869"/><text fill="#000000" font-family="sans-serif" font-size="14" lengthAdjust="spacing" textLength="172.0264" x="1074.5" y="299.782">Nachricht: MSCONS 2.4c</text><text fill="#000000" font-family="sans-serif" font-size="14" lengthAdjust="spacing" textLength="170.3447" x="1074.5" y="316.0789">Kontext: Segmentlayout</text><text fill="#000000" font-family="sans-serif" font-size="14" lengthAdjust="spacing" textLength="91.4033" x="1074.5" y="332.3757">Pflichtfeld: Ja</text><text fill="#000000" font-family="sans-serif" font-size="14" lengthAdjust="spacing" textLength="780.6162" x="1074.5" y="348.6726">Codes: 187, 20, 201, 220, 35, 67, 79, KWH, KWT, MTS, OCR, POG, QTY, SG, SG5, SG6, SG9, Z18, Z30, Z31, Z47</text><text fill="#000000" font-family="sans-serif" font-size="14" lengthAdjust="spacing" textLength="405.4463" x="1074.5" y="364.9695">Prozesse: Anforderung und &#220;bermittlung von Messwerten</text><text fill="#000000" font-family="sans-serif" font-size="14" lengthAdjust="spacing" textLength="420.9502" x="1074.5" y="381.2664">Quelle: MSCONS_MIG_2_4c_au&#223;erordentliche_20240726.pdf</text><line style="stroke:#181818;stroke-width:0.5;" x1="1069.5" x2="1860.1162" y1="388.5681" y2="388.5681"/></g><!--class QTY_C186_proc_1--><g class="entity" data-entity="QTY_C186_proc_1" data-source-line="36" data-uid="ent0009" id="entity_QTY_C186_proc_1"><rect fill="#F1F1F1" height="105.1563" rx="2.5" ry="2.5" style="stroke:#181818;stroke-width:0.5;" width="752.6465" x="1896.49" y="271.0969"/><ellipse cx="2205.8469" cy="291.2297" fill="#ADD1B2" rx="11" ry="11" style="stroke:#181818;stroke-width:1;"/><path d="M2208.8157,296.8703 Q2208.2376,297.1672 2207.5969,297.3078 Q2206.9563,297.4641 2206.2532,297.4641 Q2203.7532,297.4641 2202.4251,295.8234 Q2201.1126,294.1672 2201.1126,291.0422 Q2201.1126,287.9172 2202.4251,286.2609 Q2203.7532,284.6047 2206.2532,284.6047 Q2206.9563,284.6047 2207.5969,284.7609 Q2208.2532,284.9172 2208.8157,285.2141 L2208.8157,287.9328 Q2208.1907,287.3547 2207.5969,287.0891 Q2207.0032,286.8078 2206.3782,286.8078 Q2205.0344,286.8078 2204.3469,287.8859 Q2203.6594,288.9484 2203.6594,291.0422 Q2203.6594,293.1359 2204.3469,294.2141 Q2205.0344,295.2766 2206.3782,295.2766 Q2207.0032,295.2766 2207.5969,295.0109 Q2208.1907,294.7297 2208.8157,294.1516 L2208.8157,296.8703 Z " fill="#000000"/><text fill="#000000" font-family="sans-serif" font-size="12" font-style="italic" lengthAdjust="spacing" textLength="61.0605" x="2258.533" y="287.2355">&#171;process&#187;</text><text fill="#000000" font-family="sans-serif" font-size="14" lengthAdjust="spacing" textLength="125.4326" x="2226.3469" y="303.0607">QTY_C186_proc_1</text><line style="stroke:#181818;stroke-width:0.5;" x1="1897.49" x2="2648.1365" y1="311.3625" y2="311.3625"/><text fill="#000000" font-family="sans-serif" font-size="14" lengthAdjust="spacing" textLength="180.3457" x="1902.49" y="328.3576">Netznutzungsabrechnung</text><text fill="#000000" font-family="sans-serif" font-size="14" lengthAdjust="spacing" textLength="218.0938" x="1902.49" y="344.6545">Gesetze: StromNEV, StromNZV</text><text fill="#000000" font-family="sans-serif" font-size="14" lengthAdjust="spacing" textLength="740.6465" x="1902.49" y="360.9514">Zusammenfassung: Wie funktioniert die Netznutzungsabrechnung zwischen Netzbetreiber und Lieferant?</text><line style="stroke:#181818;stroke-width:0.5;" x1="1897.49" x2="2648.1365" y1="368.2531" y2="368.2531"/></g><!--class QTY_C186_proc_2--><g class="entity" data-entity="QTY_C186_proc_2" data-source-line="42" data-uid="ent0011" id="entity_QTY_C186_proc_2"><rect fill="#F1F1F1" height="105.1563" rx="2.5" ry="2.5" style="stroke:#181818;stroke-width:0.5;" width="690.2275" x="2683.7" y="271.0969"/><ellipse cx="2961.8475" cy="291.2297" fill="#ADD1B2" rx="11" ry="11" style="stroke:#181818;stroke-width:1;"/><path d="M2964.8162,296.8703 Q2964.2381,297.1672 2963.5975,297.3078 Q2962.9568,297.4641 2962.2537,297.4641 Q2959.7537,297.4641 2958.4256,295.8234 Q2957.1131,294.1672 2957.1131,291.0422 Q2957.1131,287.9172 2958.4256,286.2609 Q2959.7537,284.6047 2962.2537,284.6047 Q2962.9568,284.6047 2963.5975,284.7609 Q2964.2537,284.9172 2964.8162,285.2141 L2964.8162,287.9328 Q2964.1912,287.3547 2963.5975,287.0891 Q2963.0037,286.8078 2962.3787,286.8078 Q2961.035,286.8078 2960.3475,287.8859 Q2959.66,288.9484 2959.66,291.0422 Q2959.66,293.1359 2960.3475,294.2141 Q2961.035,295.2766 2962.3787,295.2766 Q2963.0037,295.2766 2963.5975,295.0109 Q2964.1912,294.7297 2964.8162,294.1516 L2964.8162,296.8703 Z " fill="#000000"/><text fill="#000000" font-family="sans-serif" font-size="12" font-style="italic" lengthAdjust="spacing" textLength="61.0605" x="3014.5335" y="287.2355">&#171;process&#187;</text><text fill="#000000" font-family="sans-serif" font-size="14" lengthAdjust="spacing" textLength="125.4326" x="2982.3475" y="303.0607">QTY_C186_proc_2</text><line style="stroke:#181818;stroke-width:0.5;" x1="2684.7" x2="3372.9275" y1="311.3625" y2="311.3625"/><text fill="#000000" font-family="sans-serif" font-size="14" lengthAdjust="spacing" textLength="223.2822" x="2689.7" y="328.3576">Messstellenbetriebsabrechnung</text><text fill="#000000" font-family="sans-serif" font-size="14" lengthAdjust="spacing" textLength="105.0957" x="2689.7" y="344.6545">Gesetze: MsbG</text><text fill="#000000" font-family="sans-serif" font-size="14" lengthAdjust="spacing" textLength="678.2275" x="2689.7" y="360.9514">Zusammenfassung: Beschreibe den Prozess der Abrechnung von Messstellenbetriebsleistungen.</text><line style="stroke:#181818;stroke-width:0.5;" x1="2684.7" x2="3372.9275" y1="368.2531" y2="368.2531"/></g><!--class QTY_C186_proc_3--><g class="entity" data-entity="QTY_C186_proc_3" data-source-line="48" data-uid="ent0013" id="entity_QTY_C186_proc_3"><rect fill="#F1F1F1" height="105.1563" rx="2.5" ry="2.5" style="stroke:#181818;stroke-width:0.5;" width="378.2285" x="3408.7" y="271.0969"/><ellipse cx="3530.8479" cy="291.2297" fill="#ADD1B2" rx="11" ry="11" style="stroke:#181818;stroke-width:1;"/><path d="M3533.8167,296.8703 Q3533.2386,297.1672 3532.5979,297.3078 Q3531.9573,297.4641 3531.2542,297.4641 Q3528.7542,297.4641 3527.4261,295.8234 Q3526.1136,294.1672 3526.1136,291.0422 Q3526.1136,287.9172 3527.4261,286.2609 Q3528.7542,284.6047 3531.2542,284.6047 Q3531.9573,284.6047 3532.5979,284.7609 Q3533.2542,284.9172 3533.8167,285.2141 L3533.8167,287.9328 Q3533.1917,287.3547 3532.5979,287.0891 Q3532.0042,286.8078 3531.3792,286.8078 Q3530.0354,286.8078 3529.3479,287.8859 Q3528.6604,288.9484 3528.6604,291.0422 Q3528.6604,293.1359 3529.3479,294.2141 Q3530.0354,295.2766 3531.3792,295.2766 Q3532.0042,295.2766 3532.5979,295.0109 Q3533.1917,294.7297 3533.8167,294.1516 L3533.8167,296.8703 Z " fill="#000000"/><text fill="#000000" font-family="sans-serif" font-size="12" font-style="italic" lengthAdjust="spacing" textLength="61.0605" x="3583.534" y="287.2355">&#171;process&#187;</text><text fill="#000000" font-family="sans-serif" font-size="14" lengthAdjust="spacing" textLength="125.4326" x="3551.3479" y="303.0607">QTY_C186_proc_3</text><line style="stroke:#181818;stroke-width:0.5;" x1="3409.7" x2="3785.9285" y1="311.3625" y2="311.3625"/><text fill="#000000" font-family="sans-serif" font-size="14" lengthAdjust="spacing" textLength="334.3525" x="3414.7" y="328.3576">Anforderung und &#220;bermittlung von Messwerten</text><text fill="#000000" font-family="sans-serif" font-size="14" lengthAdjust="spacing" textLength="105.0957" x="3414.7" y="344.6545">Gesetze: MsbG</text><line style="stroke:#181818;stroke-width:0.5;" x1="3409.7" x2="3785.9285" y1="351.9562" y2="351.9562"/><text fill="#000000" font-family="sans-serif" font-size="14" lengthAdjust="spacing" textLength="366.2285" x="3414.7" y="368.9514">Zusammenfassung: Wie kann ein Marktpartner (z.B.</text></g><!--link QTY_C186 to QTY_C186_msg_1--><g class="link" data-entity-1="QTY_C186" data-entity-2="QTY_C186_msg_1" data-source-line="17" data-uid="lnk4" id="link_QTY_C186_QTY_C186_msg_1"><path codeLine="17" d="M1688.15,119.6969 C1428.26,135.6769 934.6,173.7769 520.81,250.7869 C514.93,251.8769 514.8689,251.8375 508.8889,253.0575" fill="none" id="QTY_C186-to-QTY_C186_msg_1" style="stroke:#181818;stroke-width:1;"/><polygon fill="#181818" points="503.01,254.2569,512.6279,256.3771,507.9091,253.2574,511.0288,248.5385,503.01,254.2569" style="stroke:#181818;stroke-width:1;"/><text fill="#000000" font-family="sans-serif" font-size="13" lengthAdjust="spacing" textLength="85.2363" x="815.81" y="216.8538">verwendet in</text></g><!--link QTY_C186 to QTY_C186_msg_2--><g class="link" data-entity-1="QTY_C186" data-entity-2="QTY_C186_msg_2" data-source-line="26" data-uid="lnk6" id="link_QTY_C186_QTY_C186_msg_2"><path codeLine="26" d="M1688.33,136.0769 C1521.95,161.2669 1268.55,202.6369 1050.81,250.7869 C1045.23,252.0169 1045.4265,251.9485 1039.7465,253.2585" fill="none" id="QTY_C186-to-QTY_C186_msg_2" style="stroke:#181818;stroke-width:1;"/><polygon fill="#181818" points="1033.9,254.6069,1043.5687,256.4819,1038.7721,253.4832,1041.7708,248.6866,1033.9,254.6069" style="stroke:#181818;stroke-width:1;"/><text fill="#000000" font-family="sans-serif" font-size="13" lengthAdjust="spacing" textLength="85.2363" x="1275.81" y="216.8538">verwendet in</text></g><!--link QTY_C186 to QTY_C186_msg_3--><g class="link" data-entity-1="QTY_C186" data-entity-2="QTY_C186_msg_3" data-source-line="35" data-uid="lnk8" id="link_QTY_C186_QTY_C186_msg_3"><path codeLine="35" d="M1746.78,174.2769 C1701.13,198.2969 1654.2995,222.9424 1607.3695,247.6424" fill="none" id="QTY_C186-to-QTY_C186_msg_3" style="stroke:#181818;stroke-width:1;"/><polygon fill="#181818" points="1602.06,250.4369,1611.8872,249.7848,1606.4846,248.1081,1608.1613,242.7055,1602.06,250.4369" style="stroke:#181818;stroke-width:1;"/><text fill="#000000" font-family="sans-serif" font-size="13" lengthAdjust="spacing" textLength="85.2363" x="1680.81" y="216.8538">verwendet in</text></g><!--link QTY_C186 to QTY_C186_proc_1--><g class="link" data-entity-1="QTY_C186" data-entity-2="QTY_C186_proc_1" data-source-line="41" data-uid="lnk10" id="link_QTY_C186_QTY_C186_proc_1"><path codeLine="41" d="M1990.85,174.2769 C2049.5,205.1469 2113.5707,238.862 2168.8307,267.952" fill="none" id="QTY_C186-to-QTY_C186_proc_1" style="stroke:#181818;stroke-width:1;stroke-dasharray:7,7;"/><polygon fill="#181818" points="2174.14,270.7469,2168.0394,263.015,2169.7156,268.4178,2164.3128,270.094,2174.14,270.7469" style="stroke:#181818;stroke-width:1;"/><text fill="#000000" font-family="sans-serif" font-size="13" lengthAdjust="spacing" textLength="91.6221" x="2071.81" y="216.8538">eingebettet in</text></g><!--link QTY_C186 to QTY_C186_proc_2--><g class="link" data-entity-1="QTY_C186" data-entity-2="QTY_C186_proc_2" data-source-line="47" data-uid="lnk12" id="link_QTY_C186_QTY_C186_proc_2"><path codeLine="47" d="M2049.27,140.7369 C2211.14,168.5269 2455.08,211.0969 2666.81,250.7869 C2700.35,257.0769 2729.7014,262.7062 2764.5014,269.5062" fill="none" id="QTY_C186-to-QTY_C186_proc_2" style="stroke:#181818;stroke-width:1;stroke-dasharray:7,7;"/><polygon fill="#181818" points="2770.39,270.6569,2762.3242,265.0051,2765.4828,269.698,2760.7899,272.8567,2770.39,270.6569" style="stroke:#181818;stroke-width:1;"/><text fill="#000000" font-family="sans-serif" font-size="13" lengthAdjust="spacing" textLength="91.6221" x="2493.81" y="216.8538">eingebettet in</text></g><!--link QTY_C186 to QTY_C186_proc_3--><g class="link" data-entity-1="QTY_C186" data-entity-2="QTY_C186_proc_3" data-source-line="53" data-uid="lnk14" id="link_QTY_C186_QTY_C186_proc_3"><path codeLine="53" d="M2049.45,112.5669 C2336.86,119.7369 2914.53,147.0769 3391.81,250.7869 C3415.41,255.9169 3434.3222,261.0973 3457.9922,268.7673" fill="none" id="QTY_C186-to-QTY_C186_proc_3" style="stroke:#181818;stroke-width:1;stroke-dasharray:7,7;"/><polygon fill="#181818" points="3463.7,270.6169,3456.3713,264.0373,3458.9435,269.0756,3453.9052,271.6478,3463.7,270.6169" style="stroke:#181818;stroke-width:1;"/><text fill="#000000" font-family="sans-serif" font-size="13" lengthAdjust="spacing" textLength="91.6221" x="3230.81" y="216.8538">eingebettet in</text></g><!--SRC=[jPJ1Jjj048RlFCKSUp1MR8SaM2XL26rAmGuq4OXSh8qzJbQnrz5w3JHLtwHI7uONwspYG4W0mw47ZsPdxFN_VpksuYf1E64A1LC9os4VBeStRjTgDVP2MkTw6UWb_De3y5cABdWe9dI_cB0n2gfUo6o1UOukvK0x-AWMeb2BGanoDfOOJWMbPTEZEtE5IO9YZ4fo7E_Uqn5n9YEKL852HF3mPumovKebkdARYUKkToX9zjxlBQ51cay2gvGRJYKFfyg5K_-gVze5ssn5r3ZBXC9xAXyZp-SS4x3Xd5Ab9I-GAycALDkvY1FzV8n9v98lhkrsimXp5oodOO1pO437zmquwTmOuFKfwtT_65hC9fXNa1YLD2uBtLlB3xpJNg0j15zncg2SPLBYJ1Koi6lsGSroB7CUnKJayT3szzlRO5ouHNc78a85vES5UFORyCpdz58IGKehK6bAQom6ZApcVsCJ41iDervhM8ULCEntm72sONY3RjyV48nwkCbYW9CK1Nr3FxD2RUFupZRcfjKqmAxfowAWCysdGTNceG5drzzq69B_uQ34Tj7lbUm6FNqTwD3GuL3ZR55mQZhGXgFwSxeV-fQUeAvSbb3hOS2AXxyezKxaaOpXYdBJRbHITYeepsKMqbmU7Uc4jBJRA-Il_KLwc5EBD0wKp5B_ovLHPgChwewAdALq4Z6zGqycN7E4k10pnJF1oIP4L7XvSrZSyPoyYMLV3nroehNaTiunHic4-hnfrZJREqPSeE6V83skNlThx_Yj6lT7sru-xhraz1X9-r8nq2cjHu1o2PqdY-iJttfLKlxzK9Xl-xFVvy_PyVV1GQoqgyzrneJGQi1ZSgRcJ2f1RZyjpECA5ywEYty0]--></g></svg>