<svg xmlns="http://www.w3.org/2000/svg" xmlns:xlink="http://www.w3.org/1999/xlink" contentStyleType="text/css" data-diagram-type="CLASS" height="403px" preserveAspectRatio="none" style="width:3793px;height:403px;background:#FFFFFF;" version="1.1" viewBox="0 0 3793 403" width="3793px" zoomAndPan="magnify"><title>Datenatlas - QTY:6411</title><defs/><g><g class="title" data-source-line="1"><text fill="#000000" font-family="sans-serif" font-size="14" font-weight="bold" lengthAdjust="spacing" textLength="177.6523" x="1801.1381" y="22.9951">Datenatlas - QTY:6411</text></g><!--class QTY_6411--><g class="entity" data-entity="QTY_6411" data-source-line="2" data-uid="ent0002" id="entity_QTY_6411"><rect fill="#F1F1F1" height="129.4844" rx="2.5" ry="2.5" style="stroke:#181818;stroke-width:0.5;" width="360.3525" x="1688.63" y="44.2969"/><ellipse cx="1829.1803" cy="60.2969" fill="#ADD1B2" rx="11" ry="11" style="stroke:#181818;stroke-width:1;"/><path d="M1832.149,65.9375 Q1831.5709,66.2344 1830.9303,66.375 Q1830.2897,66.5313 1829.5865,66.5313 Q1827.0865,66.5313 1825.7584,64.8906 Q1824.4459,63.2344 1824.4459,60.1094 Q1824.4459,56.9844 1825.7584,55.3281 Q1827.0865,53.6719 1829.5865,53.6719 Q1830.2897,53.6719 1830.9303,53.8281 Q1831.5865,53.9844 1832.149,54.2813 L1832.149,57 Q1831.524,56.4219 1830.9303,56.1563 Q1830.3365,55.875 1829.7115,55.875 Q1828.3678,55.875 1827.6803,56.9531 Q1826.9928,58.0156 1826.9928,60.1094 Q1826.9928,62.2031 1827.6803,63.2813 Q1828.3678,64.3438 1829.7115,64.3438 Q1830.3365,64.3438 1830.9303,64.0781 Q1831.524,63.7969 1832.149,63.2188 L1832.149,65.9375 Z " fill="#000000"/><text fill="#000000" font-family="sans-serif" font-size="14" lengthAdjust="spacing" textLength="70.752" x="1849.6803" y="65.1436">QTY_6411</text><line style="stroke:#181818;stroke-width:0.5;" x1="1689.63" x2="2047.9825" y1="76.2969" y2="76.2969"/><text fill="#000000" font-family="sans-serif" font-size="14" lengthAdjust="spacing" textLength="172.9287" x="1708.63" y="93.292">Name: Ma&#223;einheit, Code</text><text fill="#000000" font-family="sans-serif" font-size="14" lengthAdjust="spacing" textLength="66.6436" x="1708.63" y="109.5889">Prozesse:</text><rect fill="none" height="6" style="stroke:#C82930;stroke-width:1;" width="6" x="1696.63" y="119.5391"/><text fill="#000000" font-family="sans-serif" font-size="14" lengthAdjust="spacing" textLength="180.3457" x="1708.63" y="125.8857">Netznutzungsabrechnung</text><rect fill="none" height="6" style="stroke:#C82930;stroke-width:1;" width="6" x="1696.63" y="135.8359"/><text fill="#000000" font-family="sans-serif" font-size="14" lengthAdjust="spacing" textLength="223.2822" x="1708.63" y="142.1826">Messstellenbetriebsabrechnung</text><rect fill="none" height="6" style="stroke:#C82930;stroke-width:1;" width="6" x="1696.63" y="152.1328"/><text fill="#000000" font-family="sans-serif" font-size="14" lengthAdjust="spacing" textLength="334.3525" x="1708.63" y="158.4795">Anforderung und &#220;bermittlung von Messwerten</text><line style="stroke:#181818;stroke-width:0.5;" x1="1689.63" x2="2047.9825" y1="165.7813" y2="165.7813"/></g><!--class QTY_6411_msg_1--><g class="entity" data-entity="QTY_6411_msg_1" data-source-line="9" data-uid="ent0003" id="entity_QTY_6411_msg_1"><rect fill="#F1F1F1" height="145.7813" rx="2.5" ry="2.5" style="stroke:#181818;stroke-width:0.5;" width="495.6221" x="7" y="250.7869"/><ellipse cx="188.8223" cy="266.7869" fill="#ADD1B2" rx="11" ry="11" style="stroke:#181818;stroke-width:1;"/><path d="M191.791,272.4275 Q191.2129,272.7244 190.5723,272.865 Q189.9316,273.0213 189.2285,273.0213 Q186.7285,273.0213 185.4004,271.3806 Q184.0879,269.7244 184.0879,266.5994 Q184.0879,263.4744 185.4004,261.8181 Q186.7285,260.1619 189.2285,260.1619 Q189.9316,260.1619 190.5723,260.3181 Q191.2285,260.4744 191.791,260.7713 L191.791,263.49 Q191.166,262.9119 190.5723,262.6463 Q189.9785,262.365 189.3535,262.365 Q188.0098,262.365 187.3223,263.4431 Q186.6348,264.5056 186.6348,266.5994 Q186.6348,268.6931 187.3223,269.7713 Q188.0098,270.8338 189.3535,270.8338 Q189.9785,270.8338 190.5723,270.5681 Q191.166,270.2869 191.791,269.7088 L191.791,272.4275 Z " fill="#000000"/><text fill="#000000" font-family="sans-serif" font-size="14" lengthAdjust="spacing" textLength="123.4775" x="209.3223" y="271.6336">QTY_6411_msg_1</text><line style="stroke:#181818;stroke-width:0.5;" x1="8" x2="501.6221" y1="282.7869" y2="282.7869"/><text fill="#000000" font-family="sans-serif" font-size="14" lengthAdjust="spacing" textLength="161.1982" x="13" y="299.782">Nachricht: INVOIC 2.8d</text><text fill="#000000" font-family="sans-serif" font-size="14" lengthAdjust="spacing" textLength="149.3447" x="13" y="316.0789">Kontext: Bemerkung:</text><text fill="#000000" font-family="sans-serif" font-size="14" lengthAdjust="spacing" textLength="110.5439" x="13" y="332.3757">Pflichtfeld: Nein</text><text fill="#000000" font-family="sans-serif" font-size="14" lengthAdjust="spacing" textLength="301.8887" x="13" y="348.6726">Codes: 136, 35, ANN, DAY, MON, OCR, QTY</text><text fill="#000000" font-family="sans-serif" font-size="14" lengthAdjust="spacing" textLength="483.6221" x="13" y="364.9695">Prozesse: Netznutzungsabrechnung, Messstellenbetriebsabrechnung</text><text fill="#000000" font-family="sans-serif" font-size="14" lengthAdjust="spacing" textLength="396.6074" x="13" y="381.2664">Quelle: INVOIC_MIG_2.8d_Fehlerkorrektur_20250131.pdf</text><line style="stroke:#181818;stroke-width:0.5;" x1="8" x2="501.6221" y1="388.5681" y2="388.5681"/></g><!--class QTY_6411_msg_2--><g class="entity" data-entity="QTY_6411_msg_2" data-source-line="18" data-uid="ent0005" id="entity_QTY_6411_msg_2"><rect fill="#F1F1F1" height="145.7813" rx="2.5" ry="2.5" style="stroke:#181818;stroke-width:0.5;" width="495.6221" x="538" y="250.7869"/><ellipse cx="719.8223" cy="266.7869" fill="#ADD1B2" rx="11" ry="11" style="stroke:#181818;stroke-width:1;"/><path d="M722.791,272.4275 Q722.2129,272.7244 721.5723,272.865 Q720.9316,273.0213 720.2285,273.0213 Q717.7285,273.0213 716.4004,271.3806 Q715.0879,269.7244 715.0879,266.5994 Q715.0879,263.4744 716.4004,261.8181 Q717.7285,260.1619 720.2285,260.1619 Q720.9316,260.1619 721.5723,260.3181 Q722.2285,260.4744 722.791,260.7713 L722.791,263.49 Q722.166,262.9119 721.5723,262.6463 Q720.9785,262.365 720.3535,262.365 Q719.0098,262.365 718.3223,263.4431 Q717.6348,264.5056 717.6348,266.5994 Q717.6348,268.6931 718.3223,269.7713 Q719.0098,270.8338 720.3535,270.8338 Q720.9785,270.8338 721.5723,270.5681 Q722.166,270.2869 722.791,269.7088 L722.791,272.4275 Z " fill="#000000"/><text fill="#000000" font-family="sans-serif" font-size="14" lengthAdjust="spacing" textLength="123.4775" x="740.3223" y="271.6336">QTY_6411_msg_2</text><line style="stroke:#181818;stroke-width:0.5;" x1="539" x2="1032.6221" y1="282.7869" y2="282.7869"/><text fill="#000000" font-family="sans-serif" font-size="14" lengthAdjust="spacing" textLength="165.6484" x="544" y="299.782">Nachricht: INVOIC 2.8d.</text><text fill="#000000" font-family="sans-serif" font-size="14" lengthAdjust="spacing" textLength="270.0674" x="544" y="316.0789">Kontext: Beispiel 2 Leistungszeitraum:</text><text fill="#000000" font-family="sans-serif" font-size="14" lengthAdjust="spacing" textLength="110.5439" x="544" y="332.3757">Pflichtfeld: Nein</text><text fill="#000000" font-family="sans-serif" font-size="14" lengthAdjust="spacing" textLength="301.8887" x="544" y="348.6726">Codes: 136, 35, ANN, DAY, MON, OCR, QTY</text><text fill="#000000" font-family="sans-serif" font-size="14" lengthAdjust="spacing" textLength="483.6221" x="544" y="364.9695">Prozesse: Netznutzungsabrechnung, Messstellenbetriebsabrechnung</text><text fill="#000000" font-family="sans-serif" font-size="14" lengthAdjust="spacing" textLength="290.3359" x="544" y="381.2664">Quelle: INVOIC_MIG_2_8d__20240619.pdf</text><line style="stroke:#181818;stroke-width:0.5;" x1="539" x2="1032.6221" y1="388.5681" y2="388.5681"/></g><!--class QTY_6411_msg_3--><g class="entity" data-entity="QTY_6411_msg_3" data-source-line="27" data-uid="ent0007" id="entity_QTY_6411_msg_3"><rect fill="#F1F1F1" height="145.7813" rx="2.5" ry="2.5" style="stroke:#181818;stroke-width:0.5;" width="792.6162" x="1068.5" y="250.7869"/><ellipse cx="1398.8193" cy="266.7869" fill="#ADD1B2" rx="11" ry="11" style="stroke:#181818;stroke-width:1;"/><path d="M1401.7881,272.4275 Q1401.21,272.7244 1400.5693,272.865 Q1399.9287,273.0213 1399.2256,273.0213 Q1396.7256,273.0213 1395.3975,271.3806 Q1394.085,269.7244 1394.085,266.5994 Q1394.085,263.4744 1395.3975,261.8181 Q1396.7256,260.1619 1399.2256,260.1619 Q1399.9287,260.1619 1400.5693,260.3181 Q1401.2256,260.4744 1401.7881,260.7713 L1401.7881,263.49 Q1401.1631,262.9119 1400.5693,262.6463 Q1399.9756,262.365 1399.3506,262.365 Q1398.0068,262.365 1397.3193,263.4431 Q1396.6318,264.5056 1396.6318,266.5994 Q1396.6318,268.6931 1397.3193,269.7713 Q1398.0068,270.8338 1399.3506,270.8338 Q1399.9756,270.8338 1400.5693,270.5681 Q1401.1631,270.2869 1401.7881,269.7088 L1401.7881,272.4275 Z " fill="#000000"/><text fill="#000000" font-family="sans-serif" font-size="14" lengthAdjust="spacing" textLength="123.4775" x="1419.3193" y="271.6336">QTY_6411_msg_3</text><line style="stroke:#181818;stroke-width:0.5;" x1="1069.5" x2="1860.1162" y1="282.7869" y2="282.7869"/><text fill="#000000" font-family="sans-serif" font-size="14" lengthAdjust="spacing" textLength="172.0264" x="1074.5" y="299.782">Nachricht: MSCONS 2.4c</text><text fill="#000000" font-family="sans-serif" font-size="14" lengthAdjust="spacing" textLength="170.3447" x="1074.5" y="316.0789">Kontext: Segmentlayout</text><text fill="#000000" font-family="sans-serif" font-size="14" lengthAdjust="spacing" textLength="91.4033" x="1074.5" y="332.3757">Pflichtfeld: Ja</text><text fill="#000000" font-family="sans-serif" font-size="14" lengthAdjust="spacing" textLength="780.6162" x="1074.5" y="348.6726">Codes: 187, 20, 201, 220, 35, 67, 79, KWH, KWT, MTS, OCR, POG, QTY, SG, SG5, SG6, SG9, Z18, Z30, Z31, Z47</text><text fill="#000000" font-family="sans-serif" font-size="14" lengthAdjust="spacing" textLength="405.4463" x="1074.5" y="364.9695">Prozesse: Anforderung und &#220;bermittlung von Messwerten</text><text fill="#000000" font-family="sans-serif" font-size="14" lengthAdjust="spacing" textLength="420.9502" x="1074.5" y="381.2664">Quelle: MSCONS_MIG_2_4c_au&#223;erordentliche_20240726.pdf</text><line style="stroke:#181818;stroke-width:0.5;" x1="1069.5" x2="1860.1162" y1="388.5681" y2="388.5681"/></g><!--class QTY_6411_proc_1--><g class="entity" data-entity="QTY_6411_proc_1" data-source-line="36" data-uid="ent0009" id="entity_QTY_6411_proc_1"><rect fill="#F1F1F1" height="105.1563" rx="2.5" ry="2.5" style="stroke:#181818;stroke-width:0.5;" width="752.6465" x="1896.49" y="271.0969"/><ellipse cx="2206.281" cy="291.2297" fill="#ADD1B2" rx="11" ry="11" style="stroke:#181818;stroke-width:1;"/><path d="M2209.2498,296.8703 Q2208.6716,297.1672 2208.031,297.3078 Q2207.3904,297.4641 2206.6873,297.4641 Q2204.1873,297.4641 2202.8591,295.8234 Q2201.5466,294.1672 2201.5466,291.0422 Q2201.5466,287.9172 2202.8591,286.2609 Q2204.1873,284.6047 2206.6873,284.6047 Q2207.3904,284.6047 2208.031,284.7609 Q2208.6873,284.9172 2209.2498,285.2141 L2209.2498,287.9328 Q2208.6248,287.3547 2208.031,287.0891 Q2207.4373,286.8078 2206.8123,286.8078 Q2205.4685,286.8078 2204.781,287.8859 Q2204.0935,288.9484 2204.0935,291.0422 Q2204.0935,293.1359 2204.781,294.2141 Q2205.4685,295.2766 2206.8123,295.2766 Q2207.4373,295.2766 2208.031,295.0109 Q2208.6248,294.7297 2209.2498,294.1516 L2209.2498,296.8703 Z " fill="#000000"/><text fill="#000000" font-family="sans-serif" font-size="12" font-style="italic" lengthAdjust="spacing" textLength="61.0605" x="2258.533" y="287.2355">&#171;process&#187;</text><text fill="#000000" font-family="sans-serif" font-size="14" lengthAdjust="spacing" textLength="124.5645" x="2226.781" y="303.0607">QTY_6411_proc_1</text><line style="stroke:#181818;stroke-width:0.5;" x1="1897.49" x2="2648.1365" y1="311.3625" y2="311.3625"/><text fill="#000000" font-family="sans-serif" font-size="14" lengthAdjust="spacing" textLength="180.3457" x="1902.49" y="328.3576">Netznutzungsabrechnung</text><text fill="#000000" font-family="sans-serif" font-size="14" lengthAdjust="spacing" textLength="218.0938" x="1902.49" y="344.6545">Gesetze: StromNEV, StromNZV</text><text fill="#000000" font-family="sans-serif" font-size="14" lengthAdjust="spacing" textLength="740.6465" x="1902.49" y="360.9514">Zusammenfassung: Wie funktioniert die Netznutzungsabrechnung zwischen Netzbetreiber und Lieferant?</text><line style="stroke:#181818;stroke-width:0.5;" x1="1897.49" x2="2648.1365" y1="368.2531" y2="368.2531"/></g><!--class QTY_6411_proc_2--><g class="entity" data-entity="QTY_6411_proc_2" data-source-line="42" data-uid="ent0011" id="entity_QTY_6411_proc_2"><rect fill="#F1F1F1" height="105.1563" rx="2.5" ry="2.5" style="stroke:#181818;stroke-width:0.5;" width="690.2275" x="2683.7" y="271.0969"/><ellipse cx="2962.2815" cy="291.2297" fill="#ADD1B2" rx="11" ry="11" style="stroke:#181818;stroke-width:1;"/><path d="M2965.2503,296.8703 Q2964.6722,297.1672 2964.0315,297.3078 Q2963.3909,297.4641 2962.6878,297.4641 Q2960.1878,297.4641 2958.8597,295.8234 Q2957.5472,294.1672 2957.5472,291.0422 Q2957.5472,287.9172 2958.8597,286.2609 Q2960.1878,284.6047 2962.6878,284.6047 Q2963.3909,284.6047 2964.0315,284.7609 Q2964.6878,284.9172 2965.2503,285.2141 L2965.2503,287.9328 Q2964.6253,287.3547 2964.0315,287.0891 Q2963.4378,286.8078 2962.8128,286.8078 Q2961.469,286.8078 2960.7815,287.8859 Q2960.094,288.9484 2960.094,291.0422 Q2960.094,293.1359 2960.7815,294.2141 Q2961.469,295.2766 2962.8128,295.2766 Q2963.4378,295.2766 2964.0315,295.0109 Q2964.6253,294.7297 2965.2503,294.1516 L2965.2503,296.8703 Z " fill="#000000"/><text fill="#000000" font-family="sans-serif" font-size="12" font-style="italic" lengthAdjust="spacing" textLength="61.0605" x="3014.5335" y="287.2355">&#171;process&#187;</text><text fill="#000000" font-family="sans-serif" font-size="14" lengthAdjust="spacing" textLength="124.5645" x="2982.7815" y="303.0607">QTY_6411_proc_2</text><line style="stroke:#181818;stroke-width:0.5;" x1="2684.7" x2="3372.9275" y1="311.3625" y2="311.3625"/><text fill="#000000" font-family="sans-serif" font-size="14" lengthAdjust="spacing" textLength="223.2822" x="2689.7" y="328.3576">Messstellenbetriebsabrechnung</text><text fill="#000000" font-family="sans-serif" font-size="14" lengthAdjust="spacing" textLength="105.0957" x="2689.7" y="344.6545">Gesetze: MsbG</text><text fill="#000000" font-family="sans-serif" font-size="14" lengthAdjust="spacing" textLength="678.2275" x="2689.7" y="360.9514">Zusammenfassung: Beschreibe den Prozess der Abrechnung von Messstellenbetriebsleistungen.</text><line style="stroke:#181818;stroke-width:0.5;" x1="2684.7" x2="3372.9275" y1="368.2531" y2="368.2531"/></g><!--class QTY_6411_proc_3--><g class="entity" data-entity="QTY_6411_proc_3" data-source-line="48" data-uid="ent0013" id="entity_QTY_6411_proc_3"><rect fill="#F1F1F1" height="105.1563" rx="2.5" ry="2.5" style="stroke:#181818;stroke-width:0.5;" width="378.2285" x="3408.7" y="271.0969"/><ellipse cx="3531.282" cy="291.2297" fill="#ADD1B2" rx="11" ry="11" style="stroke:#181818;stroke-width:1;"/><path d="M3534.2508,296.8703 Q3533.6727,297.1672 3533.032,297.3078 Q3532.3914,297.4641 3531.6883,297.4641 Q3529.1883,297.4641 3527.8602,295.8234 Q3526.5477,294.1672 3526.5477,291.0422 Q3526.5477,287.9172 3527.8602,286.2609 Q3529.1883,284.6047 3531.6883,284.6047 Q3532.3914,284.6047 3533.032,284.7609 Q3533.6883,284.9172 3534.2508,285.2141 L3534.2508,287.9328 Q3533.6258,287.3547 3533.032,287.0891 Q3532.4383,286.8078 3531.8133,286.8078 Q3530.4695,286.8078 3529.782,287.8859 Q3529.0945,288.9484 3529.0945,291.0422 Q3529.0945,293.1359 3529.782,294.2141 Q3530.4695,295.2766 3531.8133,295.2766 Q3532.4383,295.2766 3533.032,295.0109 Q3533.6258,294.7297 3534.2508,294.1516 L3534.2508,296.8703 Z " fill="#000000"/><text fill="#000000" font-family="sans-serif" font-size="12" font-style="italic" lengthAdjust="spacing" textLength="61.0605" x="3583.534" y="287.2355">&#171;process&#187;</text><text fill="#000000" font-family="sans-serif" font-size="14" lengthAdjust="spacing" textLength="124.5645" x="3551.782" y="303.0607">QTY_6411_proc_3</text><line style="stroke:#181818;stroke-width:0.5;" x1="3409.7" x2="3785.9285" y1="311.3625" y2="311.3625"/><text fill="#000000" font-family="sans-serif" font-size="14" lengthAdjust="spacing" textLength="334.3525" x="3414.7" y="328.3576">Anforderung und &#220;bermittlung von Messwerten</text><text fill="#000000" font-family="sans-serif" font-size="14" lengthAdjust="spacing" textLength="105.0957" x="3414.7" y="344.6545">Gesetze: MsbG</text><line style="stroke:#181818;stroke-width:0.5;" x1="3409.7" x2="3785.9285" y1="351.9562" y2="351.9562"/><text fill="#000000" font-family="sans-serif" font-size="14" lengthAdjust="spacing" textLength="366.2285" x="3414.7" y="368.9514">Zusammenfassung: Wie kann ein Marktpartner (z.B.</text></g><!--link QTY_6411 to QTY_6411_msg_1--><g class="link" data-entity-1="QTY_6411" data-entity-2="QTY_6411_msg_1" data-source-line="17" data-uid="lnk4" id="link_QTY_6411_QTY_6411_msg_1"><path codeLine="17" d="M1688.15,119.6969 C1428.26,135.6769 934.6,173.7769 520.81,250.7869 C514.93,251.8769 514.8689,251.8375 508.8889,253.0575" fill="none" id="QTY_6411-to-QTY_6411_msg_1" style="stroke:#181818;stroke-width:1;"/><polygon fill="#181818" points="503.01,254.2569,512.6279,256.3771,507.9091,253.2574,511.0288,248.5385,503.01,254.2569" style="stroke:#181818;stroke-width:1;"/><text fill="#000000" font-family="sans-serif" font-size="13" lengthAdjust="spacing" textLength="85.2363" x="815.81" y="216.8538">verwendet in</text></g><!--link QTY_6411 to QTY_6411_msg_2--><g class="link" data-entity-1="QTY_6411" data-entity-2="QTY_6411_msg_2" data-source-line="26" data-uid="lnk6" id="link_QTY_6411_QTY_6411_msg_2"><path codeLine="26" d="M1688.33,136.0769 C1521.95,161.2669 1268.55,202.6369 1050.81,250.7869 C1045.23,252.0169 1045.4265,251.9485 1039.7465,253.2585" fill="none" id="QTY_6411-to-QTY_6411_msg_2" style="stroke:#181818;stroke-width:1;"/><polygon fill="#181818" points="1033.9,254.6069,1043.5687,256.4819,1038.7721,253.4832,1041.7708,248.6866,1033.9,254.6069" style="stroke:#181818;stroke-width:1;"/><text fill="#000000" font-family="sans-serif" font-size="13" lengthAdjust="spacing" textLength="85.2363" x="1275.81" y="216.8538">verwendet in</text></g><!--link QTY_6411 to QTY_6411_msg_3--><g class="link" data-entity-1="QTY_6411" data-entity-2="QTY_6411_msg_3" data-source-line="35" data-uid="lnk8" id="link_QTY_6411_QTY_6411_msg_3"><path codeLine="35" d="M1746.78,174.2769 C1701.13,198.2969 1654.2995,222.9424 1607.3695,247.6424" fill="none" id="QTY_6411-to-QTY_6411_msg_3" style="stroke:#181818;stroke-width:1;"/><polygon fill="#181818" points="1602.06,250.4369,1611.8872,249.7848,1606.4846,248.1081,1608.1613,242.7055,1602.06,250.4369" style="stroke:#181818;stroke-width:1;"/><text fill="#000000" font-family="sans-serif" font-size="13" lengthAdjust="spacing" textLength="85.2363" x="1680.81" y="216.8538">verwendet in</text></g><!--link QTY_6411 to QTY_6411_proc_1--><g class="link" data-entity-1="QTY_6411" data-entity-2="QTY_6411_proc_1" data-source-line="41" data-uid="lnk10" id="link_QTY_6411_QTY_6411_proc_1"><path codeLine="41" d="M1990.85,174.2769 C2049.5,205.1469 2113.5707,238.862 2168.8307,267.952" fill="none" id="QTY_6411-to-QTY_6411_proc_1" style="stroke:#181818;stroke-width:1;stroke-dasharray:7,7;"/><polygon fill="#181818" points="2174.14,270.7469,2168.0394,263.015,2169.7156,268.4178,2164.3128,270.094,2174.14,270.7469" style="stroke:#181818;stroke-width:1;"/><text fill="#000000" font-family="sans-serif" font-size="13" lengthAdjust="spacing" textLength="91.6221" x="2071.81" y="216.8538">eingebettet in</text></g><!--link QTY_6411 to QTY_6411_proc_2--><g class="link" data-entity-1="QTY_6411" data-entity-2="QTY_6411_proc_2" data-source-line="47" data-uid="lnk12" id="link_QTY_6411_QTY_6411_proc_2"><path codeLine="47" d="M2049.27,140.7369 C2211.14,168.5269 2455.08,211.0969 2666.81,250.7869 C2700.35,257.0769 2729.7014,262.7062 2764.5014,269.5062" fill="none" id="QTY_6411-to-QTY_6411_proc_2" style="stroke:#181818;stroke-width:1;stroke-dasharray:7,7;"/><polygon fill="#181818" points="2770.39,270.6569,2762.3242,265.0051,2765.4828,269.698,2760.7899,272.8567,2770.39,270.6569" style="stroke:#181818;stroke-width:1;"/><text fill="#000000" font-family="sans-serif" font-size="13" lengthAdjust="spacing" textLength="91.6221" x="2493.81" y="216.8538">eingebettet in</text></g><!--link QTY_6411 to QTY_6411_proc_3--><g class="link" data-entity-1="QTY_6411" data-entity-2="QTY_6411_proc_3" data-source-line="53" data-uid="lnk14" id="link_QTY_6411_QTY_6411_proc_3"><path codeLine="53" d="M2049.45,112.5669 C2336.86,119.7369 2914.53,147.0769 3391.81,250.7869 C3415.41,255.9169 3434.3222,261.0973 3457.9922,268.7673" fill="none" id="QTY_6411-to-QTY_6411_proc_3" style="stroke:#181818;stroke-width:1;stroke-dasharray:7,7;"/><polygon fill="#181818" points="3463.7,270.6169,3456.3713,264.0373,3458.9435,269.0756,3453.9052,271.6478,3463.7,270.6169" style="stroke:#181818;stroke-width:1;"/><text fill="#000000" font-family="sans-serif" font-size="13" lengthAdjust="spacing" textLength="91.6221" x="3230.81" y="216.8538">eingebettet in</text></g><!--SRC=[pPNHRjem543V-nNtSGzfH18ARLGnKRgnhYMqew8gBv59Ri0YSP3jb8vfVp9f7zCVspM5ba9fshSznBhsJPnxZkr4SvqYd3ADWkcKATY7g-jRlrPrdBs8-ifqGzE5Nti00SlGXmvx-8jSZ95h2rfvZ9IvbFaSbKAVOg1P0jHpKUXv8KQA3IL6Oq7XCjcXEvN6D4KnH2qv3hVlQOeabp5A6e52nF3mPuWourgdPkGk5ujPPYYfzBtV6yM6cHg5gvAZiUJHMFjm5lIxPormxSEO4kUvq7XFmoUOePpGhARsooGrDoUOnZv1S45Z1b7vu7Wr2xm32vf1OC5fyzQ2JfUYRkk7PTwyRc47lrMAVbMOtAhMi7FM3aszuLSSfrHbBYLET253j-8UL1pFiQTnGlXFgxI_tzYquCCToXcA63KGpokct3TCsIzLSJNbc88B5nHgGpUdRI1PaVslzaAoPtHLApNdg5IN-mvTtgQkJg_L3Ngagngjs-hXA4D1n-fdNkXDEz_Pcfl3kWLknLmEDIOofceqMZ-ouFpccsckYV-wjpHssMqlj5dGQvlhm3Grqz030-UG6gzY6ffmKAs_iFkXe_KizP5oARKQXQoWpu0qCn4ZWU6ZvRfRAxNibLYUoZoYdNjyR0AgfT5uLBxhez96HIcgiQTbdWLV-jOo6lGfEoWKosWb4dg7EUPmmn6IGamqpmKdJ8XfuFN9OJxZYjZ48cys7NAojV1smJ51oOJ-l0vhsuqj41_eB8oG7jUxUTqjthBj_eJTKSFsQw0dIBKlAWPQfTKMe5X2ynbnjU8RhqgN9no5_JQV-pu-RullWnkn5DUiwuG9OQgXlvISw2cJMX3jfxbzKaBXRL7y0m00]--></g></svg>