<svg xmlns="http://www.w3.org/2000/svg" xmlns:xlink="http://www.w3.org/1999/xlink" contentStyleType="text/css" data-diagram-type="CLASS" height="387px" preserveAspectRatio="none" style="width:2998px;height:387px;background:#FFFFFF;" version="1.1" viewBox="0 0 2998 387" width="2998px" zoomAndPan="magnify"><title>Datenatlas - QUOTES:BEZ</title><defs/><g><g class="title" data-source-line="1"><text fill="#000000" font-family="sans-serif" font-size="14" font-weight="bold" lengthAdjust="spacing" textLength="201.8516" x="1391.1138" y="22.9951">Datenatlas - QUOTES:BEZ</text></g><!--class QUOTES_BEZ--><g class="entity" data-entity="QUOTES_BEZ" data-source-line="2" data-uid="ent0002" id="entity_QUOTES_BEZ"><rect fill="#F1F1F1" height="113.1875" rx="2.5" ry="2.5" style="stroke:#181818;stroke-width:0.5;" width="374.2021" x="1263.98" y="44.2969"/><ellipse cx="1400.0254" cy="60.2969" fill="#ADD1B2" rx="11" ry="11" style="stroke:#181818;stroke-width:1;"/><path d="M1402.9942,65.9375 Q1402.416,66.2344 1401.7754,66.375 Q1401.1348,66.5313 1400.4317,66.5313 Q1397.9317,66.5313 1396.6035,64.8906 Q1395.291,63.2344 1395.291,60.1094 Q1395.291,56.9844 1396.6035,55.3281 Q1397.9317,53.6719 1400.4317,53.6719 Q1401.1348,53.6719 1401.7754,53.8281 Q1402.4317,53.9844 1402.9942,54.2813 L1402.9942,57 Q1402.3692,56.4219 1401.7754,56.1563 Q1401.1817,55.875 1400.5567,55.875 Q1399.2129,55.875 1398.5254,56.9531 Q1397.8379,58.0156 1397.8379,60.1094 Q1397.8379,62.2031 1398.5254,63.2813 Q1399.2129,64.3438 1400.5567,64.3438 Q1401.1817,64.3438 1401.7754,64.0781 Q1402.3692,63.7969 1402.9942,63.2188 L1402.9942,65.9375 Z " fill="#000000"/><text fill="#000000" font-family="sans-serif" font-size="14" lengthAdjust="spacing" textLength="93.6113" x="1420.5254" y="65.1436">QUOTES_BEZ</text><line style="stroke:#181818;stroke-width:0.5;" x1="1264.98" x2="1637.1821" y1="76.2969" y2="76.2969"/><text fill="#000000" font-family="sans-serif" font-size="14" lengthAdjust="spacing" textLength="93.543" x="1283.98" y="93.292">Name: BDEW</text><text fill="#000000" font-family="sans-serif" font-size="14" lengthAdjust="spacing" textLength="66.6436" x="1283.98" y="109.5889">Prozesse:</text><rect fill="none" height="6" style="stroke:#C82930;stroke-width:1;" width="6" x="1271.98" y="119.5391"/><text fill="#000000" font-family="sans-serif" font-size="14" lengthAdjust="spacing" textLength="317.9668" x="1283.98" y="125.8857">Sperrung und Entsperrung eines Anschlusses</text><line style="stroke:#181818;stroke-width:0.5;" x1="1264.98" x2="1637.1821" y1="133.1875" y2="133.1875"/><rect fill="#F24D5C" height="6" style="stroke:#C82930;stroke-width:1;" width="6" x="1271.98" y="143.8359"/><text fill="#000000" font-family="sans-serif" font-size="14" lengthAdjust="spacing" textLength="348.2021" x="1283.98" y="150.1826">Bestellung einer technischen Konfiguration (MSB)</text></g><!--class QUOTES_BEZ_msg_1--><g class="entity" data-entity="QUOTES_BEZ_msg_1" data-source-line="8" data-uid="ent0003" id="entity_QUOTES_BEZ_msg_1"><rect fill="#F1F1F1" height="145.7813" rx="2.5" ry="2.5" style="stroke:#181818;stroke-width:0.5;" width="758.1631" x="7" y="234.4869"/><ellipse cx="308.6631" cy="250.4869" fill="#ADD1B2" rx="11" ry="11" style="stroke:#181818;stroke-width:1;"/><path d="M311.6318,256.1275 Q311.0537,256.4244 310.4131,256.565 Q309.7725,256.7213 309.0693,256.7213 Q306.5693,256.7213 305.2412,255.0806 Q303.9287,253.4244 303.9287,250.2994 Q303.9287,247.1744 305.2412,245.5181 Q306.5693,243.8619 309.0693,243.8619 Q309.7725,243.8619 310.4131,244.0181 Q311.0693,244.1744 311.6318,244.4713 L311.6318,247.19 Q311.0068,246.6119 310.4131,246.3463 Q309.8193,246.065 309.1943,246.065 Q307.8506,246.065 307.1631,247.1431 Q306.4756,248.2056 306.4756,250.2994 Q306.4756,252.3931 307.1631,253.4713 Q307.8506,254.5338 309.1943,254.5338 Q309.8193,254.5338 310.4131,254.2681 Q311.0068,253.9869 311.6318,253.4088 L311.6318,256.1275 Z " fill="#000000"/><text fill="#000000" font-family="sans-serif" font-size="14" lengthAdjust="spacing" textLength="146.3369" x="329.1631" y="255.3336">QUOTES_BEZ_msg_1</text><line style="stroke:#181818;stroke-width:0.5;" x1="8" x2="764.1631" y1="266.4869" y2="266.4869"/><text fill="#000000" font-family="sans-serif" font-size="14" lengthAdjust="spacing" textLength="170.3584" x="13" y="283.482">Nachricht: QUOTES 1.3a</text><text fill="#000000" font-family="sans-serif" font-size="14" lengthAdjust="spacing" textLength="170.3447" x="13" y="299.7789">Kontext: Segmentlayout</text><text fill="#000000" font-family="sans-serif" font-size="14" lengthAdjust="spacing" textLength="91.4033" x="13" y="316.0757">Pflichtfeld: Ja</text><text fill="#000000" font-family="sans-serif" font-size="14" lengthAdjust="spacing" textLength="79.3584" x="13" y="332.3726">Codes: MIG</text><text fill="#000000" font-family="sans-serif" font-size="14" lengthAdjust="spacing" textLength="292.4961" x="13" y="348.6695">Quelle: QUOTES_MIG_1_3a_20240619.pdf</text><line style="stroke:#181818;stroke-width:0.5;" x1="8" x2="764.1631" y1="355.9713" y2="355.9713"/><text fill="#000000" font-family="sans-serif" font-size="14" lengthAdjust="spacing" textLength="746.1631" x="13" y="372.9664">Prozesse: Bestellung einer technischen Konfiguration (MSB), Sperrung und Entsperrung eines Anschlusses</text></g><!--class QUOTES_BEZ_proc_1--><g class="entity" data-entity="QUOTES_BEZ_proc_1" data-source-line="17" data-uid="ent0005" id="entity_QUOTES_BEZ_proc_1"><rect fill="#F1F1F1" height="105.1563" rx="2.5" ry="2.5" style="stroke:#181818;stroke-width:0.5;" width="1301.9961" x="800.08" y="254.7969"/><ellipse cx="1373.1161" cy="274.9297" fill="#ADD1B2" rx="11" ry="11" style="stroke:#181818;stroke-width:1;"/><path d="M1376.0849,280.5703 Q1375.5068,280.8672 1374.8661,281.0078 Q1374.2255,281.1641 1373.5224,281.1641 Q1371.0224,281.1641 1369.6943,279.5234 Q1368.3818,277.8672 1368.3818,274.7422 Q1368.3818,271.6172 1369.6943,269.9609 Q1371.0224,268.3047 1373.5224,268.3047 Q1374.2255,268.3047 1374.8661,268.4609 Q1375.5224,268.6172 1376.0849,268.9141 L1376.0849,271.6328 Q1375.4599,271.0547 1374.8661,270.7891 Q1374.2724,270.5078 1373.6474,270.5078 Q1372.3036,270.5078 1371.6161,271.5859 Q1370.9286,272.6484 1370.9286,274.7422 Q1370.9286,276.8359 1371.6161,277.9141 Q1372.3036,278.9766 1373.6474,278.9766 Q1374.2724,278.9766 1374.8661,278.7109 Q1375.4599,278.4297 1376.0849,277.8516 L1376.0849,280.5703 Z " fill="#000000"/><text fill="#000000" font-family="sans-serif" font-size="12" font-style="italic" lengthAdjust="spacing" textLength="61.0605" x="1436.7978" y="270.9355">&#171;process&#187;</text><text fill="#000000" font-family="sans-serif" font-size="14" lengthAdjust="spacing" textLength="147.4238" x="1393.6161" y="286.7607">QUOTES_BEZ_proc_1</text><line style="stroke:#181818;stroke-width:0.5;" x1="801.08" x2="2101.0761" y1="295.0625" y2="295.0625"/><text fill="#000000" font-family="sans-serif" font-size="14" lengthAdjust="spacing" textLength="156.4063" x="806.08" y="312.0576">Gesetze: MsbG, EnWG</text><text fill="#000000" font-family="sans-serif" font-size="14" lengthAdjust="spacing" textLength="1289.9961" x="806.08" y="328.3545">Zusammenfassung: Erl&#228;utere den Prozess zur Bestellung einer spezifischen technischen Konfiguration bei einem Messstellenbetreiber, beispielsweise f&#252;r ein intelligentes Messsystem.</text><line style="stroke:#181818;stroke-width:0.5;" x1="801.08" x2="2101.0761" y1="335.6563" y2="335.6563"/><text fill="#000000" font-family="sans-serif" font-size="14" lengthAdjust="spacing" textLength="348.2021" x="806.08" y="352.6514">Bestellung einer technischen Konfiguration (MSB)</text></g><!--class QUOTES_BEZ_proc_2--><g class="entity" data-entity="QUOTES_BEZ_proc_2" data-source-line="23" data-uid="ent0007" id="entity_QUOTES_BEZ_proc_2"><rect fill="#F1F1F1" height="105.1563" rx="2.5" ry="2.5" style="stroke:#181818;stroke-width:0.5;" width="853.9893" x="2137.09" y="254.7969"/><ellipse cx="2486.1227" cy="274.9297" fill="#ADD1B2" rx="11" ry="11" style="stroke:#181818;stroke-width:1;"/><path d="M2489.0915,280.5703 Q2488.5133,280.8672 2487.8727,281.0078 Q2487.2321,281.1641 2486.529,281.1641 Q2484.029,281.1641 2482.7008,279.5234 Q2481.3883,277.8672 2481.3883,274.7422 Q2481.3883,271.6172 2482.7008,269.9609 Q2484.029,268.3047 2486.529,268.3047 Q2487.2321,268.3047 2487.8727,268.4609 Q2488.529,268.6172 2489.0915,268.9141 L2489.0915,271.6328 Q2488.4665,271.0547 2487.8727,270.7891 Q2487.279,270.5078 2486.654,270.5078 Q2485.3102,270.5078 2484.6227,271.5859 Q2483.9352,272.6484 2483.9352,274.7422 Q2483.9352,276.8359 2484.6227,277.9141 Q2485.3102,278.9766 2486.654,278.9766 Q2487.279,278.9766 2487.8727,278.7109 Q2488.4665,278.4297 2489.0915,277.8516 L2489.0915,280.5703 Z " fill="#000000"/><text fill="#000000" font-family="sans-serif" font-size="12" font-style="italic" lengthAdjust="spacing" textLength="61.0605" x="2549.8044" y="270.9355">&#171;process&#187;</text><text fill="#000000" font-family="sans-serif" font-size="14" lengthAdjust="spacing" textLength="147.4238" x="2506.6227" y="286.7607">QUOTES_BEZ_proc_2</text><line style="stroke:#181818;stroke-width:0.5;" x1="2138.09" x2="2990.0793" y1="295.0625" y2="295.0625"/><text fill="#000000" font-family="sans-serif" font-size="14" lengthAdjust="spacing" textLength="317.9668" x="2143.09" y="312.0576">Sperrung und Entsperrung eines Anschlusses</text><text fill="#000000" font-family="sans-serif" font-size="14" lengthAdjust="spacing" textLength="138.3252" x="2143.09" y="328.3545">Gesetze: StromGVV</text><text fill="#000000" font-family="sans-serif" font-size="14" lengthAdjust="spacing" textLength="841.9893" x="2143.09" y="344.6514">Zusammenfassung: Beschreibe den End-to-End-Prozess f&#252;r die Sperrung und Wiederherstellung eines Netzanschlusses.</text><line style="stroke:#181818;stroke-width:0.5;" x1="2138.09" x2="2990.0793" y1="351.9531" y2="351.9531"/></g><!--link QUOTES_BEZ to QUOTES_BEZ_msg_1--><g class="link" data-entity-1="QUOTES_BEZ" data-entity-2="QUOTES_BEZ_msg_1" data-source-line="16" data-uid="lnk4" id="link_QUOTES_BEZ_QUOTES_BEZ_msg_1"><path codeLine="16" d="M1263.74,137.8569 C1125.5,164.4069 938.6024,200.2855 768.9224,232.8655" fill="none" id="QUOTES_BEZ-to-QUOTES_BEZ_msg_1" style="stroke:#181818;stroke-width:1;"/><polygon fill="#181818" points="763.03,233.9969,772.6228,236.228,767.9403,233.0541,771.1143,228.3716,763.03,233.9969" style="stroke:#181818;stroke-width:1;"/><text fill="#000000" font-family="sans-serif" font-size="13" lengthAdjust="spacing" textLength="85.2363" x="984.08" y="200.5538">verwendet in</text></g><!--link QUOTES_BEZ to QUOTES_BEZ_proc_1--><g class="link" data-entity-1="QUOTES_BEZ" data-entity-2="QUOTES_BEZ_proc_1" data-source-line="22" data-uid="lnk6" id="link_QUOTES_BEZ_QUOTES_BEZ_proc_1"><path codeLine="22" d="M1451.08,157.7669 C1451.08,187.9169 1451.08,218.9069 1451.08,248.4269" fill="none" id="QUOTES_BEZ-to-QUOTES_BEZ_proc_1" style="stroke:#181818;stroke-width:1;stroke-dasharray:7,7;"/><polygon fill="#181818" points="1451.08,254.4269,1455.08,245.4269,1451.08,249.4269,1447.08,245.4269,1451.08,254.4269" style="stroke:#181818;stroke-width:1;"/><text fill="#000000" font-family="sans-serif" font-size="13" lengthAdjust="spacing" textLength="91.6221" x="1452.08" y="200.5538">eingebettet in</text></g><!--link QUOTES_BEZ to QUOTES_BEZ_proc_2--><g class="link" data-entity-1="QUOTES_BEZ" data-entity-2="QUOTES_BEZ_proc_2" data-source-line="28" data-uid="lnk8" id="link_QUOTES_BEZ_QUOTES_BEZ_proc_2"><path codeLine="28" d="M1638.63,136.3469 C1814.34,168.6269 2073.4687,216.2428 2274.9387,253.2528" fill="none" id="QUOTES_BEZ-to-QUOTES_BEZ_proc_2" style="stroke:#181818;stroke-width:1;stroke-dasharray:7,7;"/><polygon fill="#181818" points="2280.84,254.3369,2272.7108,248.7766,2275.9223,253.4335,2271.2654,256.645,2280.84,254.3369" style="stroke:#181818;stroke-width:1;"/><text fill="#000000" font-family="sans-serif" font-size="13" lengthAdjust="spacing" textLength="91.6221" x="2009.08" y="200.5538">eingebettet in</text></g><!--SRC=[dPBHQjim58RlynJdSeNODEaOJ9H0ivgmZNGhtXheZN6itxR0beCahsl6tgQFiRk-s8wCqpQuBSkkB4ld_F_vFyafLu7EKmUTkYgr5D3bzo_VebZCe-jHnZkstqXuWtwDY2xI6eBcvz6AVxwQPWjh8NXDt3o7TQYgLXS4fM788Ikriba9JPyRdQkYDQbJZQOtotX-rBV56nZZcrejATBExlwzYAKppG9Lopvsz7imLLBR8fdqisMbKLdfH7zEa_0avGEsTlZ9sp6A6fgZtZQjym7oojVdgAIWJxxqGoDX1Iq_BfxcEpZP-91GH9SjYsCtTiBkoIGvIPFfyVJjyRl9-t0ZSyx-v2w2O3Q48EW7p0sqX2EbXwWsficuxFJKBpZORDPn-uzhMy32RNdYfLqlnfnlvNbTjpQj6N3ElgmcA3BL_LthO42IjNgUj6tDq9G1RLNUkxuymHggQwXfoLAT1lGQpa2jOSR-t6uKAdl32r1-_yVuUkRXIrN1ry_ukzvRxgx3VQvXE7k6cF0I1TZ6lOPsEa1xq2juW1exqzIBgwlda38tVkK-R8SqqZ9mJU0_ExfTPAcmRxvIa30bp1vsInTicJwEyGyufWCSVm40]--></g></svg>