<svg xmlns="http://www.w3.org/2000/svg" xmlns:xlink="http://www.w3.org/1999/xlink" contentStyleType="text/css" data-diagram-type="CLASS" height="419px" preserveAspectRatio="none" style="width:5040px;height:419px;background:#FFFFFF;" version="1.1" viewBox="0 0 5040 419" width="5040px" zoomAndPan="magnify"><title>Datenatlas - RFF:SG1</title><defs/><g><g class="title" data-source-line="1"><text fill="#000000" font-family="sans-serif" font-size="14" font-weight="bold" lengthAdjust="spacing" textLength="168.3213" x="2429.244" y="22.9951">Datenatlas - RFF:SG1</text></g><!--class RFF_SG1--><g class="entity" data-entity="RFF_SG1" data-source-line="2" data-uid="ent0002" id="entity_RFF_SG1"><rect fill="#F1F1F1" height="145.7813" rx="2.5" ry="2.5" style="stroke:#181818;stroke-width:0.5;" width="375.2207" x="1897.2" y="44.2969"/><ellipse cx="2049.8226" cy="60.2969" fill="#ADD1B2" rx="11" ry="11" style="stroke:#181818;stroke-width:1;"/><path d="M2052.7913,65.9375 Q2052.2132,66.2344 2051.5726,66.375 Q2050.9319,66.5313 2050.2288,66.5313 Q2047.7288,66.5313 2046.4007,64.8906 Q2045.0882,63.2344 2045.0882,60.1094 Q2045.0882,56.9844 2046.4007,55.3281 Q2047.7288,53.6719 2050.2288,53.6719 Q2050.9319,53.6719 2051.5726,53.8281 Q2052.2288,53.9844 2052.7913,54.2813 L2052.7913,57 Q2052.1663,56.4219 2051.5726,56.1563 Q2050.9788,55.875 2050.3538,55.875 Q2049.0101,55.875 2048.3226,56.9531 Q2047.6351,58.0156 2047.6351,60.1094 Q2047.6351,62.2031 2048.3226,63.2813 Q2049.0101,64.3438 2050.3538,64.3438 Q2050.9788,64.3438 2051.5726,64.0781 Q2052.1663,63.7969 2052.7913,63.2188 L2052.7913,65.9375 Z " fill="#000000"/><text fill="#000000" font-family="sans-serif" font-size="14" lengthAdjust="spacing" textLength="61.4756" x="2070.3226" y="65.1436">RFF_SG1</text><line style="stroke:#181818;stroke-width:0.5;" x1="1898.2" x2="2271.4207" y1="76.2969" y2="76.2969"/><text fill="#000000" font-family="sans-serif" font-size="14" lengthAdjust="spacing" textLength="349.2207" x="1917.2" y="93.292">Name: Referenz auf Ursprungsrechnungsnummer</text><text fill="#000000" font-family="sans-serif" font-size="14" lengthAdjust="spacing" textLength="66.6436" x="1917.2" y="109.5889">Prozesse:</text><rect fill="none" height="6" style="stroke:#C82930;stroke-width:1;" width="6" x="1905.2" y="119.5391"/><text fill="#000000" font-family="sans-serif" font-size="14" lengthAdjust="spacing" textLength="180.3457" x="1917.2" y="125.8857">Netznutzungsabrechnung</text><rect fill="none" height="6" style="stroke:#C82930;stroke-width:1;" width="6" x="1905.2" y="135.8359"/><text fill="#000000" font-family="sans-serif" font-size="14" lengthAdjust="spacing" textLength="223.2822" x="1917.2" y="142.1826">Messstellenbetriebsabrechnung</text><rect fill="none" height="6" style="stroke:#C82930;stroke-width:1;" width="6" x="1905.2" y="152.1328"/><text fill="#000000" font-family="sans-serif" font-size="14" lengthAdjust="spacing" textLength="317.9668" x="1917.2" y="158.4795">Sperrung und Entsperrung eines Anschlusses</text><line style="stroke:#181818;stroke-width:0.5;" x1="1898.2" x2="2271.4207" y1="165.7813" y2="165.7813"/><rect fill="#F24D5C" height="6" style="stroke:#C82930;stroke-width:1;" width="6" x="1905.2" y="176.4297"/><text fill="#000000" font-family="sans-serif" font-size="14" lengthAdjust="spacing" textLength="348.2021" x="1917.2" y="182.7764">Bestellung einer technischen Konfiguration (MSB)</text></g><!--class RFF_SG1_msg_1--><g class="entity" data-entity="RFF_SG1_msg_1" data-source-line="10" data-uid="ent0003" id="entity_RFF_SG1_msg_1"><rect fill="#F1F1F1" height="145.7813" rx="2.5" ry="2.5" style="stroke:#181818;stroke-width:0.5;" width="495.6221" x="7" y="267.0769"/><ellipse cx="193.4604" cy="283.0769" fill="#ADD1B2" rx="11" ry="11" style="stroke:#181818;stroke-width:1;"/><path d="M196.4292,288.7175 Q195.8511,289.0144 195.2104,289.155 Q194.5698,289.3113 193.8667,289.3113 Q191.3667,289.3113 190.0386,287.6706 Q188.7261,286.0144 188.7261,282.8894 Q188.7261,279.7644 190.0386,278.1081 Q191.3667,276.4519 193.8667,276.4519 Q194.5698,276.4519 195.2104,276.6081 Q195.8667,276.7644 196.4292,277.0613 L196.4292,279.78 Q195.8042,279.2019 195.2104,278.9363 Q194.6167,278.655 193.9917,278.655 Q192.6479,278.655 191.9604,279.7331 Q191.2729,280.7956 191.2729,282.8894 Q191.2729,284.9831 191.9604,286.0613 Q192.6479,287.1238 193.9917,287.1238 Q194.6167,287.1238 195.2104,286.8581 Q195.8042,286.5769 196.4292,285.9988 L196.4292,288.7175 Z " fill="#000000"/><text fill="#000000" font-family="sans-serif" font-size="14" lengthAdjust="spacing" textLength="114.2012" x="213.9604" y="287.9236">RFF_SG1_msg_1</text><line style="stroke:#181818;stroke-width:0.5;" x1="8" x2="501.6221" y1="299.0769" y2="299.0769"/><text fill="#000000" font-family="sans-serif" font-size="14" lengthAdjust="spacing" textLength="161.1982" x="13" y="316.072">Nachricht: INVOIC 2.8d</text><text fill="#000000" font-family="sans-serif" font-size="14" lengthAdjust="spacing" textLength="204.1143" x="13" y="332.3689">Kontext: Nachrichtenstruktur</text><text fill="#000000" font-family="sans-serif" font-size="14" lengthAdjust="spacing" textLength="91.4033" x="13" y="348.6657">Pflichtfeld: Ja</text><text fill="#000000" font-family="sans-serif" font-size="14" lengthAdjust="spacing" textLength="115.6777" x="13" y="364.9626">Codes: RFF, SG1</text><text fill="#000000" font-family="sans-serif" font-size="14" lengthAdjust="spacing" textLength="483.6221" x="13" y="381.2595">Prozesse: Netznutzungsabrechnung, Messstellenbetriebsabrechnung</text><text fill="#000000" font-family="sans-serif" font-size="14" lengthAdjust="spacing" textLength="396.6074" x="13" y="397.5564">Quelle: INVOIC_MIG_2.8d_Fehlerkorrektur_20250131.pdf</text><line style="stroke:#181818;stroke-width:0.5;" x1="8" x2="501.6221" y1="404.8581" y2="404.8581"/></g><!--class RFF_SG1_msg_2--><g class="entity" data-entity="RFF_SG1_msg_2" data-source-line="19" data-uid="ent0005" id="entity_RFF_SG1_msg_2"><rect fill="#F1F1F1" height="145.7813" rx="2.5" ry="2.5" style="stroke:#181818;stroke-width:0.5;" width="758.1631" x="537.73" y="267.0769"/><ellipse cx="855.461" cy="283.0769" fill="#ADD1B2" rx="11" ry="11" style="stroke:#181818;stroke-width:1;"/><path d="M858.4297,288.7175 Q857.8516,289.0144 857.211,289.155 Q856.5703,289.3113 855.8672,289.3113 Q853.3672,289.3113 852.0391,287.6706 Q850.7266,286.0144 850.7266,282.8894 Q850.7266,279.7644 852.0391,278.1081 Q853.3672,276.4519 855.8672,276.4519 Q856.5703,276.4519 857.211,276.6081 Q857.8672,276.7644 858.4297,277.0613 L858.4297,279.78 Q857.8047,279.2019 857.211,278.9363 Q856.6172,278.655 855.9922,278.655 Q854.6485,278.655 853.961,279.7331 Q853.2735,280.7956 853.2735,282.8894 Q853.2735,284.9831 853.961,286.0613 Q854.6485,287.1238 855.9922,287.1238 Q856.6172,287.1238 857.211,286.8581 Q857.8047,286.5769 858.4297,285.9988 L858.4297,288.7175 Z " fill="#000000"/><text fill="#000000" font-family="sans-serif" font-size="14" lengthAdjust="spacing" textLength="114.2012" x="875.961" y="287.9236">RFF_SG1_msg_2</text><line style="stroke:#181818;stroke-width:0.5;" x1="538.73" x2="1294.8931" y1="299.0769" y2="299.0769"/><text fill="#000000" font-family="sans-serif" font-size="14" lengthAdjust="spacing" textLength="161.793" x="543.73" y="316.072">Nachricht: ORDRSP 1.4</text><text fill="#000000" font-family="sans-serif" font-size="14" lengthAdjust="spacing" textLength="204.1143" x="543.73" y="332.3689">Kontext: Nachrichtenstruktur</text><text fill="#000000" font-family="sans-serif" font-size="14" lengthAdjust="spacing" textLength="91.4033" x="543.73" y="348.6657">Pflichtfeld: Ja</text><text fill="#000000" font-family="sans-serif" font-size="14" lengthAdjust="spacing" textLength="115.6777" x="543.73" y="364.9626">Codes: RFF, SG1</text><text fill="#000000" font-family="sans-serif" font-size="14" lengthAdjust="spacing" textLength="283.9307" x="543.73" y="381.2595">Quelle: ORDRSP_MIG_1_4_20240619.pdf</text><line style="stroke:#181818;stroke-width:0.5;" x1="538.73" x2="1294.8931" y1="388.5613" y2="388.5613"/><text fill="#000000" font-family="sans-serif" font-size="14" lengthAdjust="spacing" textLength="746.1631" x="543.73" y="405.5564">Prozesse: Bestellung einer technischen Konfiguration (MSB), Sperrung und Entsperrung eines Anschlusses</text></g><!--class RFF_SG1_proc_1--><g class="entity" data-entity="RFF_SG1_proc_1" data-source-line="28" data-uid="ent0007" id="entity_RFF_SG1_proc_1"><rect fill="#F1F1F1" height="105.1563" rx="2.5" ry="2.5" style="stroke:#181818;stroke-width:0.5;" width="752.6465" x="1330.49" y="287.3869"/><ellipse cx="1644.9192" cy="307.5197" fill="#ADD1B2" rx="11" ry="11" style="stroke:#181818;stroke-width:1;"/><path d="M1647.8879,313.1603 Q1647.3098,313.4572 1646.6692,313.5978 Q1646.0286,313.7541 1645.3254,313.7541 Q1642.8254,313.7541 1641.4973,312.1134 Q1640.1848,310.4572 1640.1848,307.3322 Q1640.1848,304.2072 1641.4973,302.5509 Q1642.8254,300.8947 1645.3254,300.8947 Q1646.0286,300.8947 1646.6692,301.0509 Q1647.3254,301.2072 1647.8879,301.5041 L1647.8879,304.2228 Q1647.2629,303.6447 1646.6692,303.3791 Q1646.0754,303.0978 1645.4504,303.0978 Q1644.1067,303.0978 1643.4192,304.1759 Q1642.7317,305.2384 1642.7317,307.3322 Q1642.7317,309.4259 1643.4192,310.5041 Q1644.1067,311.5666 1645.4504,311.5666 Q1646.0754,311.5666 1646.6692,311.3009 Q1647.2629,311.0197 1647.8879,310.4416 L1647.8879,313.1603 Z " fill="#000000"/><text fill="#000000" font-family="sans-serif" font-size="12" font-style="italic" lengthAdjust="spacing" textLength="61.0605" x="1692.533" y="303.5255">&#171;process&#187;</text><text fill="#000000" font-family="sans-serif" font-size="14" lengthAdjust="spacing" textLength="115.2881" x="1665.4192" y="319.3507">RFF_SG1_proc_1</text><line style="stroke:#181818;stroke-width:0.5;" x1="1331.49" x2="2082.1365" y1="327.6525" y2="327.6525"/><text fill="#000000" font-family="sans-serif" font-size="14" lengthAdjust="spacing" textLength="180.3457" x="1336.49" y="344.6476">Netznutzungsabrechnung</text><text fill="#000000" font-family="sans-serif" font-size="14" lengthAdjust="spacing" textLength="218.0938" x="1336.49" y="360.9445">Gesetze: StromNEV, StromNZV</text><text fill="#000000" font-family="sans-serif" font-size="14" lengthAdjust="spacing" textLength="740.6465" x="1336.49" y="377.2414">Zusammenfassung: Wie funktioniert die Netznutzungsabrechnung zwischen Netzbetreiber und Lieferant?</text><line style="stroke:#181818;stroke-width:0.5;" x1="1331.49" x2="2082.1365" y1="384.5431" y2="384.5431"/></g><!--class RFF_SG1_proc_2--><g class="entity" data-entity="RFF_SG1_proc_2" data-source-line="34" data-uid="ent0009" id="entity_RFF_SG1_proc_2"><rect fill="#F1F1F1" height="105.1563" rx="2.5" ry="2.5" style="stroke:#181818;stroke-width:0.5;" width="690.2275" x="2117.7" y="287.3869"/><ellipse cx="2400.9197" cy="307.5197" fill="#ADD1B2" rx="11" ry="11" style="stroke:#181818;stroke-width:1;"/><path d="M2403.8885,313.1603 Q2403.3104,313.4572 2402.6697,313.5978 Q2402.0291,313.7541 2401.326,313.7541 Q2398.826,313.7541 2397.4979,312.1134 Q2396.1854,310.4572 2396.1854,307.3322 Q2396.1854,304.2072 2397.4979,302.5509 Q2398.826,300.8947 2401.326,300.8947 Q2402.0291,300.8947 2402.6697,301.0509 Q2403.326,301.2072 2403.8885,301.5041 L2403.8885,304.2228 Q2403.2635,303.6447 2402.6697,303.3791 Q2402.076,303.0978 2401.451,303.0978 Q2400.1072,303.0978 2399.4197,304.1759 Q2398.7322,305.2384 2398.7322,307.3322 Q2398.7322,309.4259 2399.4197,310.5041 Q2400.1072,311.5666 2401.451,311.5666 Q2402.076,311.5666 2402.6697,311.3009 Q2403.2635,311.0197 2403.8885,310.4416 L2403.8885,313.1603 Z " fill="#000000"/><text fill="#000000" font-family="sans-serif" font-size="12" font-style="italic" lengthAdjust="spacing" textLength="61.0605" x="2448.5335" y="303.5255">&#171;process&#187;</text><text fill="#000000" font-family="sans-serif" font-size="14" lengthAdjust="spacing" textLength="115.2881" x="2421.4197" y="319.3507">RFF_SG1_proc_2</text><line style="stroke:#181818;stroke-width:0.5;" x1="2118.7" x2="2806.9275" y1="327.6525" y2="327.6525"/><text fill="#000000" font-family="sans-serif" font-size="14" lengthAdjust="spacing" textLength="223.2822" x="2123.7" y="344.6476">Messstellenbetriebsabrechnung</text><text fill="#000000" font-family="sans-serif" font-size="14" lengthAdjust="spacing" textLength="105.0957" x="2123.7" y="360.9445">Gesetze: MsbG</text><text fill="#000000" font-family="sans-serif" font-size="14" lengthAdjust="spacing" textLength="678.2275" x="2123.7" y="377.2414">Zusammenfassung: Beschreibe den Prozess der Abrechnung von Messstellenbetriebsleistungen.</text><line style="stroke:#181818;stroke-width:0.5;" x1="2118.7" x2="2806.9275" y1="384.5431" y2="384.5431"/></g><!--class RFF_SG1_proc_3--><g class="entity" data-entity="RFF_SG1_proc_3" data-source-line="40" data-uid="ent0011" id="entity_RFF_SG1_proc_3"><rect fill="#F1F1F1" height="105.1563" rx="2.5" ry="2.5" style="stroke:#181818;stroke-width:0.5;" width="1301.9961" x="2842.81" y="287.3869"/><ellipse cx="3431.914" cy="307.5197" fill="#ADD1B2" rx="11" ry="11" style="stroke:#181818;stroke-width:1;"/><path d="M3434.8828,313.1603 Q3434.3046,313.4572 3433.664,313.5978 Q3433.0234,313.7541 3432.3203,313.7541 Q3429.8203,313.7541 3428.4921,312.1134 Q3427.1796,310.4572 3427.1796,307.3322 Q3427.1796,304.2072 3428.4921,302.5509 Q3429.8203,300.8947 3432.3203,300.8947 Q3433.0234,300.8947 3433.664,301.0509 Q3434.3203,301.2072 3434.8828,301.5041 L3434.8828,304.2228 Q3434.2578,303.6447 3433.664,303.3791 Q3433.0703,303.0978 3432.4453,303.0978 Q3431.1015,303.0978 3430.414,304.1759 Q3429.7265,305.2384 3429.7265,307.3322 Q3429.7265,309.4259 3430.414,310.5041 Q3431.1015,311.5666 3432.4453,311.5666 Q3433.0703,311.5666 3433.664,311.3009 Q3434.2578,311.0197 3434.8828,310.4416 L3434.8828,313.1603 Z " fill="#000000"/><text fill="#000000" font-family="sans-serif" font-size="12" font-style="italic" lengthAdjust="spacing" textLength="61.0605" x="3479.5278" y="303.5255">&#171;process&#187;</text><text fill="#000000" font-family="sans-serif" font-size="14" lengthAdjust="spacing" textLength="115.2881" x="3452.414" y="319.3507">RFF_SG1_proc_3</text><line style="stroke:#181818;stroke-width:0.5;" x1="2843.81" x2="4143.8061" y1="327.6525" y2="327.6525"/><text fill="#000000" font-family="sans-serif" font-size="14" lengthAdjust="spacing" textLength="156.4063" x="2848.81" y="344.6476">Gesetze: MsbG, EnWG</text><text fill="#000000" font-family="sans-serif" font-size="14" lengthAdjust="spacing" textLength="1289.9961" x="2848.81" y="360.9445">Zusammenfassung: Erl&#228;utere den Prozess zur Bestellung einer spezifischen technischen Konfiguration bei einem Messstellenbetreiber, beispielsweise f&#252;r ein intelligentes Messsystem.</text><line style="stroke:#181818;stroke-width:0.5;" x1="2843.81" x2="4143.8061" y1="368.2463" y2="368.2463"/><text fill="#000000" font-family="sans-serif" font-size="14" lengthAdjust="spacing" textLength="348.2021" x="2848.81" y="385.2414">Bestellung einer technischen Konfiguration (MSB)</text></g><!--class RFF_SG1_proc_4--><g class="entity" data-entity="RFF_SG1_proc_4" data-source-line="46" data-uid="ent0013" id="entity_RFF_SG1_proc_4"><rect fill="#F1F1F1" height="105.1563" rx="2.5" ry="2.5" style="stroke:#181818;stroke-width:0.5;" width="853.9893" x="4179.82" y="287.3869"/><ellipse cx="4544.9206" cy="307.5197" fill="#ADD1B2" rx="11" ry="11" style="stroke:#181818;stroke-width:1;"/><path d="M4547.8893,313.1603 Q4547.3112,313.4572 4546.6706,313.5978 Q4546.03,313.7541 4545.3268,313.7541 Q4542.8268,313.7541 4541.4987,312.1134 Q4540.1862,310.4572 4540.1862,307.3322 Q4540.1862,304.2072 4541.4987,302.5509 Q4542.8268,300.8947 4545.3268,300.8947 Q4546.03,300.8947 4546.6706,301.0509 Q4547.3268,301.2072 4547.8893,301.5041 L4547.8893,304.2228 Q4547.2643,303.6447 4546.6706,303.3791 Q4546.0768,303.0978 4545.4518,303.0978 Q4544.1081,303.0978 4543.4206,304.1759 Q4542.7331,305.2384 4542.7331,307.3322 Q4542.7331,309.4259 4543.4206,310.5041 Q4544.1081,311.5666 4545.4518,311.5666 Q4546.0768,311.5666 4546.6706,311.3009 Q4547.2643,311.0197 4547.8893,310.4416 L4547.8893,313.1603 Z " fill="#000000"/><text fill="#000000" font-family="sans-serif" font-size="12" font-style="italic" lengthAdjust="spacing" textLength="61.0605" x="4592.5344" y="303.5255">&#171;process&#187;</text><text fill="#000000" font-family="sans-serif" font-size="14" lengthAdjust="spacing" textLength="115.2881" x="4565.4206" y="319.3507">RFF_SG1_proc_4</text><line style="stroke:#181818;stroke-width:0.5;" x1="4180.82" x2="5032.8093" y1="327.6525" y2="327.6525"/><text fill="#000000" font-family="sans-serif" font-size="14" lengthAdjust="spacing" textLength="317.9668" x="4185.82" y="344.6476">Sperrung und Entsperrung eines Anschlusses</text><text fill="#000000" font-family="sans-serif" font-size="14" lengthAdjust="spacing" textLength="138.3252" x="4185.82" y="360.9445">Gesetze: StromGVV</text><text fill="#000000" font-family="sans-serif" font-size="14" lengthAdjust="spacing" textLength="841.9893" x="4185.82" y="377.2414">Zusammenfassung: Beschreibe den End-to-End-Prozess f&#252;r die Sperrung und Wiederherstellung eines Netzanschlusses.</text><line style="stroke:#181818;stroke-width:0.5;" x1="4180.82" x2="5032.8093" y1="384.5431" y2="384.5431"/></g><!--link RFF_SG1 to RFF_SG1_msg_1--><g class="link" data-entity-1="RFF_SG1" data-entity-2="RFF_SG1_msg_1" data-source-line="18" data-uid="lnk4" id="link_RFF_SG1_RFF_SG1_msg_1"><path codeLine="18" d="M1896.7,125.7469 C1601.39,139.9269 1011.88,177.5969 519.81,267.0769 C514.18,268.0969 514.3843,268.0141 508.6643,269.1541" fill="none" id="RFF_SG1-to-RFF_SG1_msg_1" style="stroke:#181818;stroke-width:1;"/><polygon fill="#181818" points="502.78,270.3269,512.3882,272.4906,507.6836,269.3496,510.8246,264.6449,502.78,270.3269" style="stroke:#181818;stroke-width:1;"/><text fill="#000000" font-family="sans-serif" font-size="13" lengthAdjust="spacing" textLength="85.2363" x="817.81" y="233.1438">verwendet in</text></g><!--link RFF_SG1 to RFF_SG1_msg_2--><g class="link" data-entity-1="RFF_SG1" data-entity-2="RFF_SG1_msg_2" data-source-line="27" data-uid="lnk6" id="link_RFF_SG1_RFF_SG1_msg_2"><path codeLine="27" d="M1896.83,153.7169 C1735.24,184.2669 1503.0756,228.1527 1302.0556,266.1427" fill="none" id="RFF_SG1-to-RFF_SG1_msg_2" style="stroke:#181818;stroke-width:1;"/><polygon fill="#181818" points="1296.16,267.2569,1305.7463,269.516,1301.073,266.3284,1304.2607,261.6552,1296.16,267.2569" style="stroke:#181818;stroke-width:1;"/><text fill="#000000" font-family="sans-serif" font-size="13" lengthAdjust="spacing" textLength="85.2363" x="1537.81" y="233.1438">verwendet in</text></g><!--link RFF_SG1 to RFF_SG1_proc_1--><g class="link" data-entity-1="RFF_SG1" data-entity-2="RFF_SG1_proc_1" data-source-line="33" data-uid="lnk8" id="link_RFF_SG1_RFF_SG1_proc_1"><path codeLine="33" d="M1961.04,190.4769 C1907.1,221.9769 1850.2707,255.1703 1800.9907,283.9603" fill="none" id="RFF_SG1-to-RFF_SG1_proc_1" style="stroke:#181818;stroke-width:1;stroke-dasharray:7,7;"/><polygon fill="#181818" points="1795.81,286.9869,1805.5988,285.9007,1800.1272,284.4647,1801.5633,278.9931,1795.81,286.9869" style="stroke:#181818;stroke-width:1;"/><text fill="#000000" font-family="sans-serif" font-size="13" lengthAdjust="spacing" textLength="91.6221" x="1908.81" y="233.1438">eingebettet in</text></g><!--link RFF_SG1 to RFF_SG1_proc_2--><g class="link" data-entity-1="RFF_SG1" data-entity-2="RFF_SG1_proc_2" data-source-line="39" data-uid="lnk10" id="link_RFF_SG1_RFF_SG1_proc_2"><path codeLine="39" d="M2208.58,190.4769 C2262.52,221.9769 2319.3493,255.1703 2368.6293,283.9603" fill="none" id="RFF_SG1-to-RFF_SG1_proc_2" style="stroke:#181818;stroke-width:1;stroke-dasharray:7,7;"/><polygon fill="#181818" points="2373.81,286.9869,2368.0567,278.9931,2369.4928,284.4647,2364.0212,285.9007,2373.81,286.9869" style="stroke:#181818;stroke-width:1;"/><text fill="#000000" font-family="sans-serif" font-size="13" lengthAdjust="spacing" textLength="91.6221" x="2286.81" y="233.1438">eingebettet in</text></g><!--link RFF_SG1 to RFF_SG1_proc_3--><g class="link" data-entity-1="RFF_SG1" data-entity-2="RFF_SG1_proc_3" data-source-line="45" data-uid="lnk12" id="link_RFF_SG1_RFF_SG1_proc_3"><path codeLine="45" d="M2272.64,147.6169 C2499.29,183.1269 2878.4623,242.5482 3155.6723,285.9782" fill="none" id="RFF_SG1-to-RFF_SG1_proc_3" style="stroke:#181818;stroke-width:1;stroke-dasharray:7,7;"/><polygon fill="#181818" points="3161.6,286.9069,3153.3276,281.5621,3156.6603,286.133,3152.0893,289.4656,3161.6,286.9069" style="stroke:#181818;stroke-width:1;"/><text fill="#000000" font-family="sans-serif" font-size="13" lengthAdjust="spacing" textLength="91.6221" x="2832.81" y="233.1438">eingebettet in</text></g><!--link RFF_SG1 to RFF_SG1_proc_4--><g class="link" data-entity-1="RFF_SG1" data-entity-2="RFF_SG1_proc_4" data-source-line="51" data-uid="lnk14" id="link_RFF_SG1_RFF_SG1_proc_4"><path codeLine="51" d="M2272.57,126.0669 C2637.5,142.6069 3467.64,186.2869 4161.81,267.0769 C4209.03,272.5669 4252.968,278.6063 4301.578,285.9863" fill="none" id="RFF_SG1-to-RFF_SG1_proc_4" style="stroke:#181818;stroke-width:1;stroke-dasharray:7,7;"/><polygon fill="#181818" points="4307.51,286.8869,4299.2124,281.5813,4302.5666,286.1364,4298.0116,289.4907,4307.51,286.8869" style="stroke:#181818;stroke-width:1;"/><text fill="#000000" font-family="sans-serif" font-size="13" lengthAdjust="spacing" textLength="91.6221" x="3881.81" y="233.1438">eingebettet in</text></g><!--SRC=[hPJRRjf048RlynHpsKg0mD2gjIAg703H5fA2IgJSM0QFOOMzHdi8gQk-JH-ZTtcnpZWG0kPOzSgpExCxytyxOoDCX73j6vI-YNmDHUWrcsw_LJaRqLBpogCL_3m3wFenkj3341NA57mRmdUbPyhAiLOucaWsf8rZL1Hzgv8KjKQNRA1xksXIQKtAGVvm6RzmTYXI6umYb4CqIk0m7tE9MGHj00g92WpxXHvDKCANH8PYR9LlH2BXJQT_-NPnh3z3nIM2bG4qfD7BDL-YuKBI1P6bGlNPhtNHNgp7tbBwQAB4Q69SQ7S7D-qhS4eV0d9GNeEFjFqIWL8RPQV6PX32YFT2Z08NFlkqSvK4g5rEKG36_0hK3aI5WtI-MVOjI_CwxPR7vNbDd4IefebIoFLuJjbvLwvKAwLP49BOvTiMY_KDoIuye9gZ3D20a5keE9jKRdhNlVujL4gr_mtbr6SldFBYAtRF0Z9s5Q_6g6hbzvMF1r0v-r7DL38YdEVdR92SUlsPswvHQA4c5rNJDog9kur1OM7T3yXxRxLFmoL3Ia7nBjm9XD3AAOiNg0m4jB7zSaZd2sJivov2CIIOZEYhu97sfVdqIccfLD-KuJB0CT9XirEianDxg7bVD7VqiBLD9JK0TH6N2m7Ll-WCiXLShFGzqFjlIHMXq8RyA4lxn3b7YQlcnFt3FsbDRu7wyswhweQAddvRGx_QDTMfLVcarE2f21TPTrSmH94TY3T1PQrGOB-U2Opqd0pghAS_YkC91eSAOcXeVBApF-Xql9TezIYYjHpHauPtVLvQWy4H_TEGGT4aHVuieMPAUNRMajDqKOzDKAtHrja0-QiozbAevIZy1G00]--></g></svg>