<svg xmlns="http://www.w3.org/2000/svg" xmlns:xlink="http://www.w3.org/1999/xlink" contentStyleType="text/css" data-diagram-type="CLASS" height="387px" preserveAspectRatio="none" style="width:2998px;height:387px;background:#FFFFFF;" version="1.1" viewBox="0 0 2998 387" width="2998px" zoomAndPan="magnify"><title>Datenatlas - RFF:SG32</title><defs/><g><g class="title" data-source-line="1"><text fill="#000000" font-family="sans-serif" font-size="14" font-weight="bold" lengthAdjust="spacing" textLength="178.0625" x="1403.0084" y="22.9951">Datenatlas - RFF:SG32</text></g><!--class RFF_SG32--><g class="entity" data-entity="RFF_SG32" data-source-line="2" data-uid="ent0002" id="entity_RFF_SG32"><rect fill="#F1F1F1" height="113.1875" rx="2.5" ry="2.5" style="stroke:#181818;stroke-width:0.5;" width="374.2021" x="1263.98" y="44.2969"/><ellipse cx="1411.6397" cy="60.2969" fill="#ADD1B2" rx="11" ry="11" style="stroke:#181818;stroke-width:1;"/><path d="M1414.6084,65.9375 Q1414.0303,66.2344 1413.3897,66.375 Q1412.749,66.5313 1412.0459,66.5313 Q1409.5459,66.5313 1408.2178,64.8906 Q1406.9053,63.2344 1406.9053,60.1094 Q1406.9053,56.9844 1408.2178,55.3281 Q1409.5459,53.6719 1412.0459,53.6719 Q1412.749,53.6719 1413.3897,53.8281 Q1414.0459,53.9844 1414.6084,54.2813 L1414.6084,57 Q1413.9834,56.4219 1413.3897,56.1563 Q1412.7959,55.875 1412.1709,55.875 Q1410.8272,55.875 1410.1397,56.9531 Q1409.4522,58.0156 1409.4522,60.1094 Q1409.4522,62.2031 1410.1397,63.2813 Q1410.8272,64.3438 1412.1709,64.3438 Q1412.7959,64.3438 1413.3897,64.0781 Q1413.9834,63.7969 1414.6084,63.2188 L1414.6084,65.9375 Z " fill="#000000"/><text fill="#000000" font-family="sans-serif" font-size="14" lengthAdjust="spacing" textLength="70.3828" x="1432.1397" y="65.1436">RFF_SG32</text><line style="stroke:#181818;stroke-width:0.5;" x1="1264.98" x2="1637.1821" y1="76.2969" y2="76.2969"/><text fill="#000000" font-family="sans-serif" font-size="14" lengthAdjust="spacing" textLength="339.6709" x="1283.98" y="93.292">Name: Referenz auf ID weiterer Marktlokationen</text><text fill="#000000" font-family="sans-serif" font-size="14" lengthAdjust="spacing" textLength="66.6436" x="1283.98" y="109.5889">Prozesse:</text><rect fill="none" height="6" style="stroke:#C82930;stroke-width:1;" width="6" x="1271.98" y="119.5391"/><text fill="#000000" font-family="sans-serif" font-size="14" lengthAdjust="spacing" textLength="317.9668" x="1283.98" y="125.8857">Sperrung und Entsperrung eines Anschlusses</text><line style="stroke:#181818;stroke-width:0.5;" x1="1264.98" x2="1637.1821" y1="133.1875" y2="133.1875"/><rect fill="#F24D5C" height="6" style="stroke:#C82930;stroke-width:1;" width="6" x="1271.98" y="143.8359"/><text fill="#000000" font-family="sans-serif" font-size="14" lengthAdjust="spacing" textLength="348.2021" x="1283.98" y="150.1826">Bestellung einer technischen Konfiguration (MSB)</text></g><!--class RFF_SG32_msg_1--><g class="entity" data-entity="RFF_SG32_msg_1" data-source-line="8" data-uid="ent0003" id="entity_RFF_SG32_msg_1"><rect fill="#F1F1F1" height="145.7813" rx="2.5" ry="2.5" style="stroke:#181818;stroke-width:0.5;" width="758.1631" x="7" y="234.4869"/><ellipse cx="320.2773" cy="250.4869" fill="#ADD1B2" rx="11" ry="11" style="stroke:#181818;stroke-width:1;"/><path d="M323.2461,256.1275 Q322.668,256.4244 322.0273,256.565 Q321.3867,256.7213 320.6836,256.7213 Q318.1836,256.7213 316.8555,255.0806 Q315.543,253.4244 315.543,250.2994 Q315.543,247.1744 316.8555,245.5181 Q318.1836,243.8619 320.6836,243.8619 Q321.3867,243.8619 322.0273,244.0181 Q322.6836,244.1744 323.2461,244.4713 L323.2461,247.19 Q322.6211,246.6119 322.0273,246.3463 Q321.4336,246.065 320.8086,246.065 Q319.4648,246.065 318.7773,247.1431 Q318.0898,248.2056 318.0898,250.2994 Q318.0898,252.3931 318.7773,253.4713 Q319.4648,254.5338 320.8086,254.5338 Q321.4336,254.5338 322.0273,254.2681 Q322.6211,253.9869 323.2461,253.4088 L323.2461,256.1275 Z " fill="#000000"/><text fill="#000000" font-family="sans-serif" font-size="14" lengthAdjust="spacing" textLength="123.1084" x="340.7773" y="255.3336">RFF_SG32_msg_1</text><line style="stroke:#181818;stroke-width:0.5;" x1="8" x2="764.1631" y1="266.4869" y2="266.4869"/><text fill="#000000" font-family="sans-serif" font-size="14" lengthAdjust="spacing" textLength="170.3584" x="13" y="283.482">Nachricht: QUOTES 1.3a</text><text fill="#000000" font-family="sans-serif" font-size="14" lengthAdjust="spacing" textLength="204.1143" x="13" y="299.7789">Kontext: Nachrichtenstruktur</text><text fill="#000000" font-family="sans-serif" font-size="14" lengthAdjust="spacing" textLength="91.4033" x="13" y="316.0757">Pflichtfeld: Ja</text><text fill="#000000" font-family="sans-serif" font-size="14" lengthAdjust="spacing" textLength="101.9443" x="13" y="332.3726">Codes: ID, RFF</text><text fill="#000000" font-family="sans-serif" font-size="14" lengthAdjust="spacing" textLength="292.4961" x="13" y="348.6695">Quelle: QUOTES_MIG_1_3a_20240619.pdf</text><line style="stroke:#181818;stroke-width:0.5;" x1="8" x2="764.1631" y1="355.9713" y2="355.9713"/><text fill="#000000" font-family="sans-serif" font-size="14" lengthAdjust="spacing" textLength="746.1631" x="13" y="372.9664">Prozesse: Bestellung einer technischen Konfiguration (MSB), Sperrung und Entsperrung eines Anschlusses</text></g><!--class RFF_SG32_proc_1--><g class="entity" data-entity="RFF_SG32_proc_1" data-source-line="17" data-uid="ent0005" id="entity_RFF_SG32_proc_1"><rect fill="#F1F1F1" height="105.1563" rx="2.5" ry="2.5" style="stroke:#181818;stroke-width:0.5;" width="1301.9961" x="800.08" y="254.7969"/><ellipse cx="1384.7304" cy="274.9297" fill="#ADD1B2" rx="11" ry="11" style="stroke:#181818;stroke-width:1;"/><path d="M1387.6991,280.5703 Q1387.121,280.8672 1386.4804,281.0078 Q1385.8398,281.1641 1385.1366,281.1641 Q1382.6366,281.1641 1381.3085,279.5234 Q1379.996,277.8672 1379.996,274.7422 Q1379.996,271.6172 1381.3085,269.9609 Q1382.6366,268.3047 1385.1366,268.3047 Q1385.8398,268.3047 1386.4804,268.4609 Q1387.1366,268.6172 1387.6991,268.9141 L1387.6991,271.6328 Q1387.0741,271.0547 1386.4804,270.7891 Q1385.8866,270.5078 1385.2616,270.5078 Q1383.9179,270.5078 1383.2304,271.5859 Q1382.5429,272.6484 1382.5429,274.7422 Q1382.5429,276.8359 1383.2304,277.9141 Q1383.9179,278.9766 1385.2616,278.9766 Q1385.8866,278.9766 1386.4804,278.7109 Q1387.0741,278.4297 1387.6991,277.8516 L1387.6991,280.5703 Z " fill="#000000"/><text fill="#000000" font-family="sans-serif" font-size="12" font-style="italic" lengthAdjust="spacing" textLength="61.0605" x="1436.7978" y="270.9355">&#171;process&#187;</text><text fill="#000000" font-family="sans-serif" font-size="14" lengthAdjust="spacing" textLength="124.1953" x="1405.2304" y="286.7607">RFF_SG32_proc_1</text><line style="stroke:#181818;stroke-width:0.5;" x1="801.08" x2="2101.0761" y1="295.0625" y2="295.0625"/><text fill="#000000" font-family="sans-serif" font-size="14" lengthAdjust="spacing" textLength="156.4063" x="806.08" y="312.0576">Gesetze: MsbG, EnWG</text><text fill="#000000" font-family="sans-serif" font-size="14" lengthAdjust="spacing" textLength="1289.9961" x="806.08" y="328.3545">Zusammenfassung: Erl&#228;utere den Prozess zur Bestellung einer spezifischen technischen Konfiguration bei einem Messstellenbetreiber, beispielsweise f&#252;r ein intelligentes Messsystem.</text><line style="stroke:#181818;stroke-width:0.5;" x1="801.08" x2="2101.0761" y1="335.6563" y2="335.6563"/><text fill="#000000" font-family="sans-serif" font-size="14" lengthAdjust="spacing" textLength="348.2021" x="806.08" y="352.6514">Bestellung einer technischen Konfiguration (MSB)</text></g><!--class RFF_SG32_proc_2--><g class="entity" data-entity="RFF_SG32_proc_2" data-source-line="23" data-uid="ent0007" id="entity_RFF_SG32_proc_2"><rect fill="#F1F1F1" height="105.1563" rx="2.5" ry="2.5" style="stroke:#181818;stroke-width:0.5;" width="853.9893" x="2137.09" y="254.7969"/><ellipse cx="2497.737" cy="274.9297" fill="#ADD1B2" rx="11" ry="11" style="stroke:#181818;stroke-width:1;"/><path d="M2500.7057,280.5703 Q2500.1276,280.8672 2499.487,281.0078 Q2498.8463,281.1641 2498.1432,281.1641 Q2495.6432,281.1641 2494.3151,279.5234 Q2493.0026,277.8672 2493.0026,274.7422 Q2493.0026,271.6172 2494.3151,269.9609 Q2495.6432,268.3047 2498.1432,268.3047 Q2498.8463,268.3047 2499.487,268.4609 Q2500.1432,268.6172 2500.7057,268.9141 L2500.7057,271.6328 Q2500.0807,271.0547 2499.487,270.7891 Q2498.8932,270.5078 2498.2682,270.5078 Q2496.9245,270.5078 2496.237,271.5859 Q2495.5495,272.6484 2495.5495,274.7422 Q2495.5495,276.8359 2496.237,277.9141 Q2496.9245,278.9766 2498.2682,278.9766 Q2498.8932,278.9766 2499.487,278.7109 Q2500.0807,278.4297 2500.7057,277.8516 L2500.7057,280.5703 Z " fill="#000000"/><text fill="#000000" font-family="sans-serif" font-size="12" font-style="italic" lengthAdjust="spacing" textLength="61.0605" x="2549.8044" y="270.9355">&#171;process&#187;</text><text fill="#000000" font-family="sans-serif" font-size="14" lengthAdjust="spacing" textLength="124.1953" x="2518.237" y="286.7607">RFF_SG32_proc_2</text><line style="stroke:#181818;stroke-width:0.5;" x1="2138.09" x2="2990.0793" y1="295.0625" y2="295.0625"/><text fill="#000000" font-family="sans-serif" font-size="14" lengthAdjust="spacing" textLength="317.9668" x="2143.09" y="312.0576">Sperrung und Entsperrung eines Anschlusses</text><text fill="#000000" font-family="sans-serif" font-size="14" lengthAdjust="spacing" textLength="138.3252" x="2143.09" y="328.3545">Gesetze: StromGVV</text><text fill="#000000" font-family="sans-serif" font-size="14" lengthAdjust="spacing" textLength="841.9893" x="2143.09" y="344.6514">Zusammenfassung: Beschreibe den End-to-End-Prozess f&#252;r die Sperrung und Wiederherstellung eines Netzanschlusses.</text><line style="stroke:#181818;stroke-width:0.5;" x1="2138.09" x2="2990.0793" y1="351.9531" y2="351.9531"/></g><!--link RFF_SG32 to RFF_SG32_msg_1--><g class="link" data-entity-1="RFF_SG32" data-entity-2="RFF_SG32_msg_1" data-source-line="16" data-uid="lnk4" id="link_RFF_SG32_RFF_SG32_msg_1"><path codeLine="16" d="M1263.74,137.8569 C1125.5,164.4069 938.6024,200.2855 768.9224,232.8655" fill="none" id="RFF_SG32-to-RFF_SG32_msg_1" style="stroke:#181818;stroke-width:1;"/><polygon fill="#181818" points="763.03,233.9969,772.6228,236.228,767.9403,233.0541,771.1143,228.3716,763.03,233.9969" style="stroke:#181818;stroke-width:1;"/><text fill="#000000" font-family="sans-serif" font-size="13" lengthAdjust="spacing" textLength="85.2363" x="984.08" y="200.5538">verwendet in</text></g><!--link RFF_SG32 to RFF_SG32_proc_1--><g class="link" data-entity-1="RFF_SG32" data-entity-2="RFF_SG32_proc_1" data-source-line="22" data-uid="lnk6" id="link_RFF_SG32_RFF_SG32_proc_1"><path codeLine="22" d="M1451.08,157.7669 C1451.08,187.9169 1451.08,218.9069 1451.08,248.4269" fill="none" id="RFF_SG32-to-RFF_SG32_proc_1" style="stroke:#181818;stroke-width:1;stroke-dasharray:7,7;"/><polygon fill="#181818" points="1451.08,254.4269,1455.08,245.4269,1451.08,249.4269,1447.08,245.4269,1451.08,254.4269" style="stroke:#181818;stroke-width:1;"/><text fill="#000000" font-family="sans-serif" font-size="13" lengthAdjust="spacing" textLength="91.6221" x="1452.08" y="200.5538">eingebettet in</text></g><!--link RFF_SG32 to RFF_SG32_proc_2--><g class="link" data-entity-1="RFF_SG32" data-entity-2="RFF_SG32_proc_2" data-source-line="28" data-uid="lnk8" id="link_RFF_SG32_RFF_SG32_proc_2"><path codeLine="28" d="M1638.63,136.3469 C1814.34,168.6269 2073.4687,216.2428 2274.9387,253.2528" fill="none" id="RFF_SG32-to-RFF_SG32_proc_2" style="stroke:#181818;stroke-width:1;stroke-dasharray:7,7;"/><polygon fill="#181818" points="2280.84,254.3369,2272.7108,248.7766,2275.9223,253.4335,2271.2654,256.645,2280.84,254.3369" style="stroke:#181818;stroke-width:1;"/><text fill="#000000" font-family="sans-serif" font-size="13" lengthAdjust="spacing" textLength="91.6221" x="2009.08" y="200.5538">eingebettet in</text></g><!--SRC=[dPBTRjD048NlynHp2L9iDGv2mgeYKPfQ1RdG6bg96sjZZ-rLrkjePvU2Azw6n-2kByQiIKARKA5mjRzdpfnlrqgh44w5HIsi4WG1N9sTnLaoZKO5hyalSx-4kn70XMWnXYkiqA3kGRWApa_X5gNb3GEfC4khkgMmijEeMV31T3qIOSnpuE8dI1QLShe6b9eb5ej6IoeQrF2kqvMidHday2pDJfwlPTaAZV4YfqkOQqkRjIz2y5fp0UNOXqRVT_hEMwhpoRhxeZ6oQ6mCbv_UVvndC0cdWW_OsE9NtjxUG4tMkALrneUebD-hK9KnlFM2Drs957FsiVTvcFFWXED3mW5SEYwEcm1vUfxaatmgykWeUd7qSl8gN9KLCzY-MX3CTb74y0NDBUeIBKYzYsjbke8l7H_x2KUQpGPs__5m2HBQddjDQP6CETbDmhkV7OcsHLsnArUBOMxK_G_dFn2KN6jD4dfdzaqPJI-hjUlJ7InG3e8MKYurr42zG6jGBj2C_Jcj92hYdqi8rVrFu-yp3NzLriWZ_TP-OtKRFYGQXhCzMh6NryWMzcceqHxKWrv-YpEpfckJw-k_mMHY_8Dzp07cN9U1xG8_RBWEOKk9Zyrl99Pe6ZIFW1DSiANuqyO_G4Hx87u1]--></g></svg>