<svg xmlns="http://www.w3.org/2000/svg" xmlns:xlink="http://www.w3.org/1999/xlink" contentStyleType="text/css" data-diagram-type="CLASS" height="370px" preserveAspectRatio="none" style="width:984px;height:370px;background:#FFFFFF;" version="1.1" viewBox="0 0 984 370" width="984px" zoomAndPan="magnify"><title>Datenatlas - RFF:00018</title><defs/><g><g class="title" data-source-line="1"><text fill="#000000" font-family="sans-serif" font-size="14" font-weight="bold" lengthAdjust="spacing" textLength="185.7119" x="392.4488" y="22.9951">Datenatlas - RFF:00018</text></g><!--class RFF_00018--><g class="entity" data-entity="RFF_00018" data-source-line="2" data-uid="ent0002" id="entity_RFF_00018"><rect fill="#F1F1F1" height="96.8906" rx="2.5" ry="2.5" style="stroke:#181818;stroke-width:0.5;" width="184.0127" x="314.42" y="44.2969"/><ellipse cx="363.4918" cy="60.2969" fill="#ADD1B2" rx="11" ry="11" style="stroke:#181818;stroke-width:1;"/><path d="M366.4605,65.9375 Q365.8824,66.2344 365.2418,66.375 Q364.6012,66.5313 363.898,66.5313 Q361.398,66.5313 360.0699,64.8906 Q358.7574,63.2344 358.7574,60.1094 Q358.7574,56.9844 360.0699,55.3281 Q361.398,53.6719 363.898,53.6719 Q364.6012,53.6719 365.2418,53.8281 Q365.898,53.9844 366.4605,54.2813 L366.4605,57 Q365.8355,56.4219 365.2418,56.1563 Q364.648,55.875 364.023,55.875 Q362.6793,55.875 361.9918,56.9531 Q361.3043,58.0156 361.3043,60.1094 Q361.3043,62.2031 361.9918,63.2813 Q362.6793,64.3438 364.023,64.3438 Q364.648,64.3438 365.2418,64.0781 Q365.8355,63.7969 366.4605,63.2188 L366.4605,65.9375 Z " fill="#000000"/><text fill="#000000" font-family="sans-serif" font-size="14" lengthAdjust="spacing" textLength="77.3691" x="383.9918" y="65.1436">RFF_00018</text><line style="stroke:#181818;stroke-width:0.5;" x1="315.42" x2="497.4327" y1="76.2969" y2="76.2969"/><text fill="#000000" font-family="sans-serif" font-size="14" lengthAdjust="spacing" textLength="134.7773" x="334.42" y="93.292">Name: Faxnummer</text><text fill="#000000" font-family="sans-serif" font-size="14" lengthAdjust="spacing" textLength="66.6436" x="334.42" y="109.5889">Prozesse:</text><rect fill="none" height="6" style="stroke:#C82930;stroke-width:1;" width="6" x="322.42" y="119.5391"/><text fill="#000000" font-family="sans-serif" font-size="14" lengthAdjust="spacing" textLength="158.0127" x="334.42" y="125.8857">Stammdaten&#228;nderung</text><line style="stroke:#181818;stroke-width:0.5;" x1="315.42" x2="497.4327" y1="133.1875" y2="133.1875"/></g><!--class RFF_00018_msg_1--><g class="entity" data-entity="RFF_00018_msg_1" data-source-line="7" data-uid="ent0003" id="entity_RFF_00018_msg_1"><rect fill="#F1F1F1" height="145.7813" rx="2.5" ry="2.5" style="stroke:#181818;stroke-width:0.5;" width="296.8604" x="7" y="218.1869"/><ellipse cx="86.1328" cy="234.1869" fill="#ADD1B2" rx="11" ry="11" style="stroke:#181818;stroke-width:1;"/><path d="M89.1016,239.8275 Q88.5234,240.1244 87.8828,240.265 Q87.2422,240.4213 86.5391,240.4213 Q84.0391,240.4213 82.7109,238.7806 Q81.3984,237.1244 81.3984,233.9994 Q81.3984,230.8744 82.7109,229.2181 Q84.0391,227.5619 86.5391,227.5619 Q87.2422,227.5619 87.8828,227.7181 Q88.5391,227.8744 89.1016,228.1713 L89.1016,230.89 Q88.4766,230.3119 87.8828,230.0463 Q87.2891,229.765 86.6641,229.765 Q85.3203,229.765 84.6328,230.8431 Q83.9453,231.9056 83.9453,233.9994 Q83.9453,236.0931 84.6328,237.1713 Q85.3203,238.2338 86.6641,238.2338 Q87.2891,238.2338 87.8828,237.9681 Q88.4766,237.6869 89.1016,237.1088 L89.1016,239.8275 Z " fill="#000000"/><text fill="#000000" font-family="sans-serif" font-size="14" lengthAdjust="spacing" textLength="130.0947" x="106.6328" y="239.0336">RFF_00018_msg_1</text><line style="stroke:#181818;stroke-width:0.5;" x1="8" x2="302.8604" y1="250.1869" y2="250.1869"/><text fill="#000000" font-family="sans-serif" font-size="14" lengthAdjust="spacing" textLength="162.7227" x="13" y="267.182">Nachricht: PARTIN 1.0e</text><text fill="#000000" font-family="sans-serif" font-size="14" lengthAdjust="spacing" textLength="204.1143" x="13" y="283.4789">Kontext: Nachrichtenstruktur</text><text fill="#000000" font-family="sans-serif" font-size="14" lengthAdjust="spacing" textLength="91.4033" x="13" y="299.7757">Pflichtfeld: Ja</text><text fill="#000000" font-family="sans-serif" font-size="14" lengthAdjust="spacing" textLength="113.7568" x="13" y="316.0726">Codes: 999, RFF</text><text fill="#000000" font-family="sans-serif" font-size="14" lengthAdjust="spacing" textLength="229.1064" x="13" y="332.3695">Prozesse: Stammdaten&#228;nderung</text><text fill="#000000" font-family="sans-serif" font-size="14" lengthAdjust="spacing" textLength="284.8604" x="13" y="348.6664">Quelle: PARTIN_MIG_1_0e_20241001.pdf</text><line style="stroke:#181818;stroke-width:0.5;" x1="8" x2="302.8604" y1="355.9681" y2="355.9681"/></g><!--class RFF_00018_proc_1--><g class="entity" data-entity="RFF_00018_proc_1" data-source-line="16" data-uid="ent0005" id="entity_RFF_00018_proc_1"><rect fill="#F1F1F1" height="88.8594" rx="2.5" ry="2.5" style="stroke:#181818;stroke-width:0.5;" width="638.3496" x="339.26" y="246.6469"/><ellipse cx="588.594" cy="266.7797" fill="#ADD1B2" rx="11" ry="11" style="stroke:#181818;stroke-width:1;"/><path d="M591.5627,272.4203 Q590.9846,272.7172 590.344,272.8578 Q589.7034,273.0141 589.0002,273.0141 Q586.5002,273.0141 585.1721,271.3734 Q583.8596,269.7172 583.8596,266.5922 Q583.8596,263.4672 585.1721,261.8109 Q586.5002,260.1547 589.0002,260.1547 Q589.7034,260.1547 590.344,260.3109 Q591.0002,260.4672 591.5627,260.7641 L591.5627,263.4828 Q590.9377,262.9047 590.344,262.6391 Q589.7502,262.3578 589.1252,262.3578 Q587.7815,262.3578 587.094,263.4359 Q586.4065,264.4984 586.4065,266.5922 Q586.4065,268.6859 587.094,269.7641 Q587.7815,270.8266 589.1252,270.8266 Q589.7502,270.8266 590.344,270.5609 Q590.9377,270.2797 591.5627,269.7016 L591.5627,272.4203 Z " fill="#000000"/><text fill="#000000" font-family="sans-serif" font-size="12" font-style="italic" lengthAdjust="spacing" textLength="61.0605" x="644.1545" y="262.7855">&#171;process&#187;</text><text fill="#000000" font-family="sans-serif" font-size="14" lengthAdjust="spacing" textLength="131.1816" x="609.094" y="278.6107">RFF_00018_proc_1</text><line style="stroke:#181818;stroke-width:0.5;" x1="340.26" x2="976.6096" y1="286.9125" y2="286.9125"/><text fill="#000000" font-family="sans-serif" font-size="14" lengthAdjust="spacing" textLength="158.0127" x="345.26" y="303.9076">Stammdaten&#228;nderung</text><text fill="#000000" font-family="sans-serif" font-size="14" lengthAdjust="spacing" textLength="626.3496" x="345.26" y="320.2045">Zusammenfassung: Wie wird eine Stammdaten&#228;nderung an einer Marktlokation, wie z.B.</text><line style="stroke:#181818;stroke-width:0.5;" x1="340.26" x2="976.6096" y1="327.5063" y2="327.5063"/></g><!--link RFF_00018 to RFF_00018_msg_1--><g class="link" data-entity-1="RFF_00018" data-entity-2="RFF_00018_msg_1" data-source-line="15" data-uid="lnk4" id="link_RFF_00018_RFF_00018_msg_1"><path codeLine="15" d="M345.35,141.5169 C316.04,164.4469 285.0162,188.7105 252.4762,214.1605" fill="none" id="RFF_00018-to-RFF_00018_msg_1" style="stroke:#181818;stroke-width:1;"/><polygon fill="#181818" points="247.75,217.8569,257.3035,215.4631,251.6885,214.7765,252.375,209.1615,247.75,217.8569" style="stroke:#181818;stroke-width:1;"/><text fill="#000000" font-family="sans-serif" font-size="13" lengthAdjust="spacing" textLength="85.2363" x="304.43" y="184.2538">verwendet in</text></g><!--link RFF_00018 to RFF_00018_proc_1--><g class="link" data-entity-1="RFF_00018" data-entity-2="RFF_00018_proc_1" data-source-line="20" data-uid="lnk6" id="link_RFF_00018_RFF_00018_proc_1"><path codeLine="20" d="M467.75,141.5169 C508.84,173.5269 557.777,211.6593 597.707,242.7693" fill="none" id="RFF_00018-to-RFF_00018_proc_1" style="stroke:#181818;stroke-width:1;stroke-dasharray:7,7;"/><polygon fill="#181818" points="602.44,246.4569,597.7988,237.7701,598.4958,243.3839,592.882,244.0809,602.44,246.4569" style="stroke:#181818;stroke-width:1;"/><text fill="#000000" font-family="sans-serif" font-size="13" lengthAdjust="spacing" textLength="91.6221" x="526.43" y="184.2538">eingebettet in</text></g><!--SRC=[RP1DQiCm48NtESKS835swA8HmT0VKjAIaAQ5GZT2jSUEi2m7QTo4bDwcD-d5EZBzZtSpRpHllYVIP10k5Q5LP9I74QndCn77SN8wo5ZmePTT3oy3WAMgKS1CxMrRr-XOMRdcWDwZu1fu_uvKNUV1yVtDvkXQMmvU_tl9sfSo-NJCDavd6nAmEblVpvUGH37ouAQnX7kMlr-WzUJQYjhkRc62Lg391LmhLYwQ7Bs0oMGo39T-i_LI0TosQ0n-7PQB-PLCP8no78zF4kQCjdd1y3zVC1gbHo44FAFR8RiIQ7kKTEkQZ5zDfw5Wc3JjOlS3FRQUPRG5Ux0Yu44ZxBJB0RN5lYLGjfivM2XNaMagHRgnGzv2E4JdqH_-A4gFqKGmAF49YRe87m00]--></g></svg>