<svg xmlns="http://www.w3.org/2000/svg" xmlns:xlink="http://www.w3.org/1999/xlink" contentStyleType="text/css" data-diagram-type="CLASS" height="370px" preserveAspectRatio="none" style="width:1556px;height:370px;background:#FFFFFF;" version="1.1" viewBox="0 0 1556 370" width="1556px" zoomAndPan="magnify"><title>Datenatlas - RFF:00007</title><defs/><g><g class="title" data-source-line="1"><text fill="#000000" font-family="sans-serif" font-size="14" font-weight="bold" lengthAdjust="spacing" textLength="185.7119" x="678.4523" y="22.9951">Datenatlas - RFF:00007</text></g><!--class RFF_00007--><g class="entity" data-entity="RFF_00007" data-source-line="2" data-uid="ent0002" id="entity_RFF_00007"><rect fill="#F1F1F1" height="96.8906" rx="2.5" ry="2.5" style="stroke:#181818;stroke-width:0.5;" width="206.3457" x="447.12" y="44.2969"/><ellipse cx="507.3583" cy="60.2969" fill="#ADD1B2" rx="11" ry="11" style="stroke:#181818;stroke-width:1;"/><path d="M510.327,65.9375 Q509.7489,66.2344 509.1083,66.375 Q508.4677,66.5313 507.7645,66.5313 Q505.2645,66.5313 503.9364,64.8906 Q502.6239,63.2344 502.6239,60.1094 Q502.6239,56.9844 503.9364,55.3281 Q505.2645,53.6719 507.7645,53.6719 Q508.4677,53.6719 509.1083,53.8281 Q509.7645,53.9844 510.327,54.2813 L510.327,57 Q509.702,56.4219 509.1083,56.1563 Q508.5145,55.875 507.8895,55.875 Q506.5458,55.875 505.8583,56.9531 Q505.1708,58.0156 505.1708,60.1094 Q505.1708,62.2031 505.8583,63.2813 Q506.5458,64.3438 507.8895,64.3438 Q508.5145,64.3438 509.1083,64.0781 Q509.702,63.7969 510.327,63.2188 L510.327,65.9375 Z " fill="#000000"/><text fill="#000000" font-family="sans-serif" font-size="14" lengthAdjust="spacing" textLength="77.3691" x="527.8583" y="65.1436">RFF_00007</text><line style="stroke:#181818;stroke-width:0.5;" x1="448.12" x2="652.4657" y1="76.2969" y2="76.2969"/><text fill="#000000" font-family="sans-serif" font-size="14" lengthAdjust="spacing" textLength="163.4268" x="467.12" y="93.292">Name: Pr&#252;fidentifikator</text><text fill="#000000" font-family="sans-serif" font-size="14" lengthAdjust="spacing" textLength="66.6436" x="467.12" y="109.5889">Prozesse:</text><rect fill="none" height="6" style="stroke:#C82930;stroke-width:1;" width="6" x="455.12" y="119.5391"/><text fill="#000000" font-family="sans-serif" font-size="14" lengthAdjust="spacing" textLength="180.3457" x="467.12" y="125.8857">Netznutzungsabrechnung</text><line style="stroke:#181818;stroke-width:0.5;" x1="448.12" x2="652.4657" y1="133.1875" y2="133.1875"/></g><!--class RFF_00007_msg_1--><g class="entity" data-entity="RFF_00007_msg_1" data-source-line="7" data-uid="ent0003" id="entity_RFF_00007_msg_1"><rect fill="#F1F1F1" height="129.4844" rx="2.5" ry="2.5" style="stroke:#181818;stroke-width:0.5;" width="296.5869" x="7" y="226.3369"/><ellipse cx="85.9961" cy="242.3369" fill="#ADD1B2" rx="11" ry="11" style="stroke:#181818;stroke-width:1;"/><path d="M88.9648,247.9775 Q88.3867,248.2744 87.7461,248.415 Q87.1055,248.5713 86.4023,248.5713 Q83.9023,248.5713 82.5742,246.9306 Q81.2617,245.2744 81.2617,242.1494 Q81.2617,239.0244 82.5742,237.3681 Q83.9023,235.7119 86.4023,235.7119 Q87.1055,235.7119 87.7461,235.8681 Q88.4023,236.0244 88.9648,236.3213 L88.9648,239.04 Q88.3398,238.4619 87.7461,238.1963 Q87.1523,237.915 86.5273,237.915 Q85.1836,237.915 84.4961,238.9931 Q83.8086,240.0556 83.8086,242.1494 Q83.8086,244.2431 84.4961,245.3213 Q85.1836,246.3838 86.5273,246.3838 Q87.1523,246.3838 87.7461,246.1181 Q88.3398,245.8369 88.9648,245.2588 L88.9648,247.9775 Z " fill="#000000"/><text fill="#000000" font-family="sans-serif" font-size="14" lengthAdjust="spacing" textLength="130.0947" x="106.4961" y="247.1836">RFF_00007_msg_1</text><line style="stroke:#181818;stroke-width:0.5;" x1="8" x2="302.5869" y1="258.3369" y2="258.3369"/><text fill="#000000" font-family="sans-serif" font-size="14" lengthAdjust="spacing" textLength="162.4492" x="13" y="275.332">Nachricht: APERAK 2.1i</text><text fill="#000000" font-family="sans-serif" font-size="14" lengthAdjust="spacing" textLength="204.1143" x="13" y="291.6289">Kontext: Nachrichtenstruktur</text><text fill="#000000" font-family="sans-serif" font-size="14" lengthAdjust="spacing" textLength="91.4033" x="13" y="307.9257">Pflichtfeld: Ja</text><text fill="#000000" font-family="sans-serif" font-size="14" lengthAdjust="spacing" textLength="168.9092" x="13" y="324.2226">Codes: ID, MP, RFF, SG3</text><text fill="#000000" font-family="sans-serif" font-size="14" lengthAdjust="spacing" textLength="284.5869" x="13" y="340.5195">Quelle: APERAK_MIG_2_1i_20240619.pdf</text><line style="stroke:#181818;stroke-width:0.5;" x1="8" x2="302.5869" y1="347.8213" y2="347.8213"/></g><!--class RFF_00007_msg_2--><g class="entity" data-entity="RFF_00007_msg_2" data-source-line="15" data-uid="ent0005" id="entity_RFF_00007_msg_2"><rect fill="#F1F1F1" height="145.7813" rx="2.5" ry="2.5" style="stroke:#181818;stroke-width:0.5;" width="422.9219" x="338.83" y="218.1869"/><ellipse cx="480.9936" cy="234.1869" fill="#ADD1B2" rx="11" ry="11" style="stroke:#181818;stroke-width:1;"/><path d="M483.9623,239.8275 Q483.3842,240.1244 482.7436,240.265 Q482.1029,240.4213 481.3998,240.4213 Q478.8998,240.4213 477.5717,238.7806 Q476.2592,237.1244 476.2592,233.9994 Q476.2592,230.8744 477.5717,229.2181 Q478.8998,227.5619 481.3998,227.5619 Q482.1029,227.5619 482.7436,227.7181 Q483.3998,227.8744 483.9623,228.1713 L483.9623,230.89 Q483.3373,230.3119 482.7436,230.0463 Q482.1498,229.765 481.5248,229.765 Q480.1811,229.765 479.4936,230.8431 Q478.8061,231.9056 478.8061,233.9994 Q478.8061,236.0931 479.4936,237.1713 Q480.1811,238.2338 481.5248,238.2338 Q482.1498,238.2338 482.7436,237.9681 Q483.3373,237.6869 483.9623,237.1088 L483.9623,239.8275 Z " fill="#000000"/><text fill="#000000" font-family="sans-serif" font-size="14" lengthAdjust="spacing" textLength="130.0947" x="501.4936" y="239.0336">RFF_00007_msg_2</text><line style="stroke:#181818;stroke-width:0.5;" x1="339.83" x2="760.7519" y1="250.1869" y2="250.1869"/><text fill="#000000" font-family="sans-serif" font-size="14" lengthAdjust="spacing" textLength="161.998" x="344.83" y="267.182">Nachricht: INSRPT 1.1a</text><text fill="#000000" font-family="sans-serif" font-size="14" lengthAdjust="spacing" textLength="204.1143" x="344.83" y="283.4789">Kontext: Nachrichtenstruktur</text><text fill="#000000" font-family="sans-serif" font-size="14" lengthAdjust="spacing" textLength="91.4033" x="344.83" y="299.7757">Pflichtfeld: Ja</text><text fill="#000000" font-family="sans-serif" font-size="14" lengthAdjust="spacing" textLength="142.3926" x="344.83" y="316.0726">Codes: 99, RFF, SG4</text><text fill="#000000" font-family="sans-serif" font-size="14" lengthAdjust="spacing" textLength="251.4395" x="344.83" y="332.3695">Prozesse: Netznutzungsabrechnung</text><text fill="#000000" font-family="sans-serif" font-size="14" lengthAdjust="spacing" textLength="410.9219" x="344.83" y="348.6664">Quelle: INSRPT_MIG_1_1a_au&#223;erordentliche_20240726.pdf</text><line style="stroke:#181818;stroke-width:0.5;" x1="339.83" x2="760.7519" y1="355.9681" y2="355.9681"/></g><!--class RFF_00007_proc_1--><g class="entity" data-entity="RFF_00007_proc_1" data-source-line="24" data-uid="ent0007" id="entity_RFF_00007_proc_1"><rect fill="#F1F1F1" height="105.1563" rx="2.5" ry="2.5" style="stroke:#181818;stroke-width:0.5;" width="752.6465" x="796.97" y="238.4969"/><ellipse cx="1103.4524" cy="258.6297" fill="#ADD1B2" rx="11" ry="11" style="stroke:#181818;stroke-width:1;"/><path d="M1106.4212,264.2703 Q1105.843,264.5672 1105.2024,264.7078 Q1104.5618,264.8641 1103.8587,264.8641 Q1101.3587,264.8641 1100.0305,263.2234 Q1098.718,261.5672 1098.718,258.4422 Q1098.718,255.3172 1100.0305,253.6609 Q1101.3587,252.0047 1103.8587,252.0047 Q1104.5618,252.0047 1105.2024,252.1609 Q1105.8587,252.3172 1106.4212,252.6141 L1106.4212,255.3328 Q1105.7962,254.7547 1105.2024,254.4891 Q1104.6087,254.2078 1103.9837,254.2078 Q1102.6399,254.2078 1101.9524,255.2859 Q1101.2649,256.3484 1101.2649,258.4422 Q1101.2649,260.5359 1101.9524,261.6141 Q1102.6399,262.6766 1103.9837,262.6766 Q1104.6087,262.6766 1105.2024,262.4109 Q1105.7962,262.1297 1106.4212,261.5516 L1106.4212,264.2703 Z " fill="#000000"/><text fill="#000000" font-family="sans-serif" font-size="12" font-style="italic" lengthAdjust="spacing" textLength="61.0605" x="1159.013" y="254.6355">&#171;process&#187;</text><text fill="#000000" font-family="sans-serif" font-size="14" lengthAdjust="spacing" textLength="131.1816" x="1123.9524" y="270.4607">RFF_00007_proc_1</text><line style="stroke:#181818;stroke-width:0.5;" x1="797.97" x2="1548.6165" y1="278.7625" y2="278.7625"/><text fill="#000000" font-family="sans-serif" font-size="14" lengthAdjust="spacing" textLength="180.3457" x="802.97" y="295.7576">Netznutzungsabrechnung</text><text fill="#000000" font-family="sans-serif" font-size="14" lengthAdjust="spacing" textLength="218.0938" x="802.97" y="312.0545">Gesetze: StromNEV, StromNZV</text><text fill="#000000" font-family="sans-serif" font-size="14" lengthAdjust="spacing" textLength="740.6465" x="802.97" y="328.3514">Zusammenfassung: Wie funktioniert die Netznutzungsabrechnung zwischen Netzbetreiber und Lieferant?</text><line style="stroke:#181818;stroke-width:0.5;" x1="797.97" x2="1548.6165" y1="335.6531" y2="335.6531"/></g><!--link RFF_00007 to RFF_00007_msg_1--><g class="link" data-entity-1="RFF_00007" data-entity-2="RFF_00007_msg_1" data-source-line="14" data-uid="lnk4" id="link_RFF_00007_RFF_00007_msg_1"><path codeLine="14" d="M453.92,141.6469 C402.88,167.0169 344.8628,195.8461 289.6428,223.2961" fill="none" id="RFF_00007-to-RFF_00007_msg_1" style="stroke:#181818;stroke-width:1;"/><polygon fill="#181818" points="284.27,225.9669,294.1097,225.5425,288.7473,223.7412,290.5486,218.3788,284.27,225.9669" style="stroke:#181818;stroke-width:1;"/><text fill="#000000" font-family="sans-serif" font-size="13" lengthAdjust="spacing" textLength="85.2363" x="389.29" y="184.2538">verwendet in</text></g><!--link RFF_00007 to RFF_00007_msg_2--><g class="link" data-entity-1="RFF_00007" data-entity-2="RFF_00007_msg_2" data-source-line="23" data-uid="lnk6" id="link_RFF_00007_RFF_00007_msg_2"><path codeLine="23" d="M550.29,141.5169 C550.29,164.4469 550.29,186.4069 550.29,211.8569" fill="none" id="RFF_00007-to-RFF_00007_msg_2" style="stroke:#181818;stroke-width:1;"/><polygon fill="#181818" points="550.29,217.8569,554.29,208.8569,550.29,212.8569,546.29,208.8569,550.29,217.8569" style="stroke:#181818;stroke-width:1;"/><text fill="#000000" font-family="sans-serif" font-size="13" lengthAdjust="spacing" textLength="85.2363" x="551.29" y="184.2538">verwendet in</text></g><!--link RFF_00007 to RFF_00007_proc_1--><g class="link" data-entity-1="RFF_00007" data-entity-2="RFF_00007_proc_1" data-source-line="29" data-uid="lnk8" id="link_RFF_00007_RFF_00007_proc_1"><path codeLine="29" d="M653.87,126.3769 C750.32,156.7769 889.9875,200.7934 1002.4375,236.2334" fill="none" id="RFF_00007-to-RFF_00007_proc_1" style="stroke:#181818;stroke-width:1;stroke-dasharray:7,7;"/><polygon fill="#181818" points="1008.16,238.0369,1000.7786,231.5166,1003.3912,236.5339,998.3739,239.1466,1008.16,238.0369" style="stroke:#181818;stroke-width:1;"/><text fill="#000000" font-family="sans-serif" font-size="13" lengthAdjust="spacing" textLength="91.6221" x="844.29" y="184.2538">eingebettet in</text></g><!--SRC=[fP5RJiCm44N_kufPG1ir0O5geIB4eogFAhG8fFvORZ9fhIOEiiU0YbWB6-6l6sEI0kKfaF3NUAurTyurQSeH3XIXKPGh1oqO7Xs9Df_jHi8DLzrbVOVx1i105IWWjikdJATeI6TwhgYqBCMsNA1pABW67ZH0MXXF2s-cJaqi9ZF3PUFXyrnPkAaCNwOdCwkJ6GdOYm-7UoSG1Q5cuQGqX7VSVdk1nf7rS_ArTPPNlGppLC2nuiv-cQ8Jq3zembdShCoQCEfji7BkCS_nrK2UzNioag6MKJlQR6-5dU0wpNZ9DNQhrVsoh80RjBTeKYJGvbkYw3DHVp0QnXSG1g7w1r6dyqQp-Jxqd-9U0w_yQ-1GXaegltn4Mzhg6oipN4Mm7Mtz8OBejmYkRPbmK3ixLS4RThkhF7xQieUE9LvpHBOi1eUNpPTgVCdgs3jL56WoDk7t0guqGkRDd7HfD5g2b1lV3uV5hNQCPsfzWcHHJz22DocSQipGAaEx7tY3eFiLHG1gCqKUG3NoCm00]--></g></svg>