<svg xmlns="http://www.w3.org/2000/svg" xmlns:xlink="http://www.w3.org/1999/xlink" contentStyleType="text/css" data-diagram-type="CLASS" height="370px" preserveAspectRatio="none" style="width:1224px;height:370px;background:#FFFFFF;" version="1.1" viewBox="0 0 1224 370" width="1224px" zoomAndPan="magnify"><title>Datenatlas - RFF:00025</title><defs/><g><g class="title" data-source-line="1"><text fill="#000000" font-family="sans-serif" font-size="14" font-weight="bold" lengthAdjust="spacing" textLength="185.7119" x="512.5373" y="22.9951">Datenatlas - RFF:00025</text></g><!--class RFF_00025--><g class="entity" data-entity="RFF_00025" data-source-line="2" data-uid="ent0002" id="entity_RFF_00025"><rect fill="#F1F1F1" height="96.8906" rx="2.5" ry="2.5" style="stroke:#181818;stroke-width:0.5;" width="232.8281" x="413.05" y="44.2969"/><ellipse cx="486.5295" cy="60.2969" fill="#ADD1B2" rx="11" ry="11" style="stroke:#181818;stroke-width:1;"/><path d="M489.4982,65.9375 Q488.9201,66.2344 488.2795,66.375 Q487.6389,66.5313 486.9357,66.5313 Q484.4357,66.5313 483.1076,64.8906 Q481.7951,63.2344 481.7951,60.1094 Q481.7951,56.9844 483.1076,55.3281 Q484.4357,53.6719 486.9357,53.6719 Q487.6389,53.6719 488.2795,53.8281 Q488.9357,53.9844 489.4982,54.2813 L489.4982,57 Q488.8732,56.4219 488.2795,56.1563 Q487.6857,55.875 487.0607,55.875 Q485.717,55.875 485.0295,56.9531 Q484.342,58.0156 484.342,60.1094 Q484.342,62.2031 485.0295,63.2813 Q485.717,64.3438 487.0607,64.3438 Q487.6857,64.3438 488.2795,64.0781 Q488.8732,63.7969 489.4982,63.2188 L489.4982,65.9375 Z " fill="#000000"/><text fill="#000000" font-family="sans-serif" font-size="14" lengthAdjust="spacing" textLength="77.3691" x="507.0295" y="65.1436">RFF_00025</text><line style="stroke:#181818;stroke-width:0.5;" x1="414.05" x2="644.8781" y1="76.2969" y2="76.2969"/><text fill="#000000" font-family="sans-serif" font-size="14" lengthAdjust="spacing" textLength="206.8281" x="433.05" y="93.292">Name: Gest&#246;rte Messlokation</text><text fill="#000000" font-family="sans-serif" font-size="14" lengthAdjust="spacing" textLength="66.6436" x="433.05" y="109.5889">Prozesse:</text><rect fill="none" height="6" style="stroke:#C82930;stroke-width:1;" width="6" x="421.05" y="119.5391"/><text fill="#000000" font-family="sans-serif" font-size="14" lengthAdjust="spacing" textLength="180.3457" x="433.05" y="125.8857">Netznutzungsabrechnung</text><line style="stroke:#181818;stroke-width:0.5;" x1="414.05" x2="644.8781" y1="133.1875" y2="133.1875"/></g><!--class RFF_00025_msg_1--><g class="entity" data-entity="RFF_00025_msg_1" data-source-line="7" data-uid="ent0003" id="entity_RFF_00025_msg_1"><rect fill="#F1F1F1" height="145.7813" rx="2.5" ry="2.5" style="stroke:#181818;stroke-width:0.5;" width="422.9219" x="7" y="218.1869"/><ellipse cx="149.1636" cy="234.1869" fill="#ADD1B2" rx="11" ry="11" style="stroke:#181818;stroke-width:1;"/><path d="M152.1323,239.8275 Q151.5542,240.1244 150.9136,240.265 Q150.2729,240.4213 149.5698,240.4213 Q147.0698,240.4213 145.7417,238.7806 Q144.4292,237.1244 144.4292,233.9994 Q144.4292,230.8744 145.7417,229.2181 Q147.0698,227.5619 149.5698,227.5619 Q150.2729,227.5619 150.9136,227.7181 Q151.5698,227.8744 152.1323,228.1713 L152.1323,230.89 Q151.5073,230.3119 150.9136,230.0463 Q150.3198,229.765 149.6948,229.765 Q148.3511,229.765 147.6636,230.8431 Q146.9761,231.9056 146.9761,233.9994 Q146.9761,236.0931 147.6636,237.1713 Q148.3511,238.2338 149.6948,238.2338 Q150.3198,238.2338 150.9136,237.9681 Q151.5073,237.6869 152.1323,237.1088 L152.1323,239.8275 Z " fill="#000000"/><text fill="#000000" font-family="sans-serif" font-size="14" lengthAdjust="spacing" textLength="130.0947" x="169.6636" y="239.0336">RFF_00025_msg_1</text><line style="stroke:#181818;stroke-width:0.5;" x1="8" x2="428.9219" y1="250.1869" y2="250.1869"/><text fill="#000000" font-family="sans-serif" font-size="14" lengthAdjust="spacing" textLength="161.998" x="13" y="267.182">Nachricht: INSRPT 1.1a</text><text fill="#000000" font-family="sans-serif" font-size="14" lengthAdjust="spacing" textLength="398.5898" x="13" y="283.4789">Kontext: 0320   SG8   C   R   999   1   3   NAD - LOC - RFF</text><text fill="#000000" font-family="sans-serif" font-size="14" lengthAdjust="spacing" textLength="110.5439" x="13" y="299.7757">Pflichtfeld: Nein</text><text fill="#000000" font-family="sans-serif" font-size="14" lengthAdjust="spacing" textLength="104.8496" x="13" y="316.0726">Codes: 99, RFF</text><text fill="#000000" font-family="sans-serif" font-size="14" lengthAdjust="spacing" textLength="251.4395" x="13" y="332.3695">Prozesse: Netznutzungsabrechnung</text><text fill="#000000" font-family="sans-serif" font-size="14" lengthAdjust="spacing" textLength="410.9219" x="13" y="348.6664">Quelle: INSRPT_MIG_1_1a_au&#223;erordentliche_20240726.pdf</text><line style="stroke:#181818;stroke-width:0.5;" x1="8" x2="428.9219" y1="355.9681" y2="355.9681"/></g><!--class RFF_00025_proc_1--><g class="entity" data-entity="RFF_00025_proc_1" data-source-line="16" data-uid="ent0005" id="entity_RFF_00025_proc_1"><rect fill="#F1F1F1" height="105.1563" rx="2.5" ry="2.5" style="stroke:#181818;stroke-width:0.5;" width="752.6465" x="465.14" y="238.4969"/><ellipse cx="771.6224" cy="258.6297" fill="#ADD1B2" rx="11" ry="11" style="stroke:#181818;stroke-width:1;"/><path d="M774.5912,264.2703 Q774.013,264.5672 773.3724,264.7078 Q772.7318,264.8641 772.0287,264.8641 Q769.5287,264.8641 768.2005,263.2234 Q766.888,261.5672 766.888,258.4422 Q766.888,255.3172 768.2005,253.6609 Q769.5287,252.0047 772.0287,252.0047 Q772.7318,252.0047 773.3724,252.1609 Q774.0287,252.3172 774.5912,252.6141 L774.5912,255.3328 Q773.9662,254.7547 773.3724,254.4891 Q772.7787,254.2078 772.1537,254.2078 Q770.8099,254.2078 770.1224,255.2859 Q769.4349,256.3484 769.4349,258.4422 Q769.4349,260.5359 770.1224,261.6141 Q770.8099,262.6766 772.1537,262.6766 Q772.7787,262.6766 773.3724,262.4109 Q773.9662,262.1297 774.5912,261.5516 L774.5912,264.2703 Z " fill="#000000"/><text fill="#000000" font-family="sans-serif" font-size="12" font-style="italic" lengthAdjust="spacing" textLength="61.0605" x="827.183" y="254.6355">&#171;process&#187;</text><text fill="#000000" font-family="sans-serif" font-size="14" lengthAdjust="spacing" textLength="131.1816" x="792.1224" y="270.4607">RFF_00025_proc_1</text><line style="stroke:#181818;stroke-width:0.5;" x1="466.14" x2="1216.7865" y1="278.7625" y2="278.7625"/><text fill="#000000" font-family="sans-serif" font-size="14" lengthAdjust="spacing" textLength="180.3457" x="471.14" y="295.7576">Netznutzungsabrechnung</text><text fill="#000000" font-family="sans-serif" font-size="14" lengthAdjust="spacing" textLength="218.0938" x="471.14" y="312.0545">Gesetze: StromNEV, StromNZV</text><text fill="#000000" font-family="sans-serif" font-size="14" lengthAdjust="spacing" textLength="740.6465" x="471.14" y="328.3514">Zusammenfassung: Wie funktioniert die Netznutzungsabrechnung zwischen Netzbetreiber und Lieferant?</text><line style="stroke:#181818;stroke-width:0.5;" x1="466.14" x2="1216.7865" y1="335.6531" y2="335.6531"/></g><!--link RFF_00025 to RFF_00025_msg_1--><g class="link" data-entity-1="RFF_00025" data-entity-2="RFF_00025_msg_1" data-source-line="15" data-uid="lnk4" id="link_RFF_00025_RFF_00025_msg_1"><path codeLine="15" d="M453.78,141.5169 C417.46,164.4469 378.2438,189.2043 337.9238,214.6543" fill="none" id="RFF_00025-to-RFF_00025_msg_1" style="stroke:#181818;stroke-width:1;"/><polygon fill="#181818" points="332.85,217.8569,342.5958,216.4355,337.0782,215.1881,338.3256,209.6705,332.85,217.8569" style="stroke:#181818;stroke-width:1;"/><text fill="#000000" font-family="sans-serif" font-size="13" lengthAdjust="spacing" textLength="85.2363" x="403.46" y="184.2538">verwendet in</text></g><!--link RFF_00025 to RFF_00025_proc_1--><g class="link" data-entity-1="RFF_00025" data-entity-2="RFF_00025_proc_1" data-source-line="21" data-uid="lnk6" id="link_RFF_00025_RFF_00025_proc_1"><path codeLine="21" d="M605.39,141.5169 C651.83,170.7469 706.192,204.951 753.812,234.921" fill="none" id="RFF_00025-to-RFF_00025_proc_1" style="stroke:#181818;stroke-width:1;stroke-dasharray:7,7;"/><polygon fill="#181818" points="758.89,238.1169,753.4036,229.9377,754.6583,235.4536,749.1424,236.7084,758.89,238.1169" style="stroke:#181818;stroke-width:1;"/><text fill="#000000" font-family="sans-serif" font-size="13" lengthAdjust="spacing" textLength="91.6221" x="677.46" y="184.2538">eingebettet in</text></g><!--SRC=[TL7RJi9047tdA-O3XBJ56nk2CI2421N1OC9BixHJsD1koUvK3CPlyI_y0NxCAPSOGHvcCxSzSyuCAKeGMf9GIqgaXJ8CsstXE8vtLGevOOiusCRmKGBmPOe2EcXfysq8eO_M9jb2aieqbmScMtC61Vl0O3xIMkUqplNCogd1SAxPBNqUOmUfdGNkVa8uDogSau2kFneENi2jk98BZvacVEUqK_KSHXzrRlbjiWtPQhKQlovRbSs_R_7qtbDp9wXW5YS5Q8n999YMAjWsimYjuAyNXwO3_NF40PvpJ18yS0lwtKxW1guCPBxvGfEP23KLap3m7E_IkV6kAyiePiM_UooN6oVA1RoXMQ6Ea82v7QzdQRAGk-hrmc66ZSPkL-TOye6un3H7PBBKVnXVxBt9cAkJtCeqHHtp4EuNyAeGubmlYYigD0GH9_u7X_LAMPQdj_Kfaa4rHGEvZg2dC4OZDTtzqLkfD4wb2E0Rp901Q2lv1m00]--></g></svg>