<svg xmlns="http://www.w3.org/2000/svg" xmlns:xlink="http://www.w3.org/1999/xlink" contentStyleType="text/css" data-diagram-type="CLASS" height="387px" preserveAspectRatio="none" style="width:2021px;height:387px;background:#FFFFFF;" version="1.1" viewBox="0 0 2021 387" width="2021px" zoomAndPan="magnify"><title>Datenatlas - RFF:00017</title><defs/><g><g class="title" data-source-line="1"><text fill="#000000" font-family="sans-serif" font-size="14" font-weight="bold" lengthAdjust="spacing" textLength="185.7119" x="911.1078" y="22.9951">Datenatlas - RFF:00017</text></g><!--class RFF_00017--><g class="entity" data-entity="RFF_00017" data-source-line="2" data-uid="ent0002" id="entity_RFF_00017"><rect fill="#F1F1F1" height="113.1875" rx="2.5" ry="2.5" style="stroke:#181818;stroke-width:0.5;" width="249.2822" x="789.17" y="44.2969"/><ellipse cx="870.8765" cy="60.2969" fill="#ADD1B2" rx="11" ry="11" style="stroke:#181818;stroke-width:1;"/><path d="M873.8453,65.9375 Q873.2672,66.2344 872.6265,66.375 Q871.9859,66.5313 871.2828,66.5313 Q868.7828,66.5313 867.4547,64.8906 Q866.1422,63.2344 866.1422,60.1094 Q866.1422,56.9844 867.4547,55.3281 Q868.7828,53.6719 871.2828,53.6719 Q871.9859,53.6719 872.6265,53.8281 Q873.2828,53.9844 873.8453,54.2813 L873.8453,57 Q873.2203,56.4219 872.6265,56.1563 Q872.0328,55.875 871.4078,55.875 Q870.064,55.875 869.3765,56.9531 Q868.689,58.0156 868.689,60.1094 Q868.689,62.2031 869.3765,63.2813 Q870.064,64.3438 871.4078,64.3438 Q872.0328,64.3438 872.6265,64.0781 Q873.2203,63.7969 873.8453,63.2188 L873.8453,65.9375 Z " fill="#000000"/><text fill="#000000" font-family="sans-serif" font-size="14" lengthAdjust="spacing" textLength="77.3691" x="891.3765" y="65.1436">RFF_00017</text><line style="stroke:#181818;stroke-width:0.5;" x1="790.17" x2="1037.4522" y1="76.2969" y2="76.2969"/><text fill="#000000" font-family="sans-serif" font-size="14" lengthAdjust="spacing" textLength="163.4268" x="809.17" y="93.292">Name: Pr&#252;fidentifikator</text><text fill="#000000" font-family="sans-serif" font-size="14" lengthAdjust="spacing" textLength="66.6436" x="809.17" y="109.5889">Prozesse:</text><rect fill="none" height="6" style="stroke:#C82930;stroke-width:1;" width="6" x="797.17" y="119.5391"/><text fill="#000000" font-family="sans-serif" font-size="14" lengthAdjust="spacing" textLength="180.3457" x="809.17" y="125.8857">Netznutzungsabrechnung</text><rect fill="none" height="6" style="stroke:#C82930;stroke-width:1;" width="6" x="797.17" y="135.8359"/><text fill="#000000" font-family="sans-serif" font-size="14" lengthAdjust="spacing" textLength="223.2822" x="809.17" y="142.1826">Messstellenbetriebsabrechnung</text><line style="stroke:#181818;stroke-width:0.5;" x1="790.17" x2="1037.4522" y1="149.4844" y2="149.4844"/></g><!--class RFF_00017_msg_1--><g class="entity" data-entity="RFF_00017_msg_1" data-source-line="8" data-uid="ent0003" id="entity_RFF_00017_msg_1"><rect fill="#F1F1F1" height="145.7813" rx="2.5" ry="2.5" style="stroke:#181818;stroke-width:0.5;" width="495.6221" x="7" y="234.4869"/><ellipse cx="185.5137" cy="250.4869" fill="#ADD1B2" rx="11" ry="11" style="stroke:#181818;stroke-width:1;"/><path d="M188.4824,256.1275 Q187.9043,256.4244 187.2637,256.565 Q186.623,256.7213 185.9199,256.7213 Q183.4199,256.7213 182.0918,255.0806 Q180.7793,253.4244 180.7793,250.2994 Q180.7793,247.1744 182.0918,245.5181 Q183.4199,243.8619 185.9199,243.8619 Q186.623,243.8619 187.2637,244.0181 Q187.9199,244.1744 188.4824,244.4713 L188.4824,247.19 Q187.8574,246.6119 187.2637,246.3463 Q186.6699,246.065 186.0449,246.065 Q184.7012,246.065 184.0137,247.1431 Q183.3262,248.2056 183.3262,250.2994 Q183.3262,252.3931 184.0137,253.4713 Q184.7012,254.5338 186.0449,254.5338 Q186.6699,254.5338 187.2637,254.2681 Q187.8574,253.9869 188.4824,253.4088 L188.4824,256.1275 Z " fill="#000000"/><text fill="#000000" font-family="sans-serif" font-size="14" lengthAdjust="spacing" textLength="130.0947" x="206.0137" y="255.3336">RFF_00017_msg_1</text><line style="stroke:#181818;stroke-width:0.5;" x1="8" x2="501.6221" y1="266.4869" y2="266.4869"/><text fill="#000000" font-family="sans-serif" font-size="14" lengthAdjust="spacing" textLength="161.1982" x="13" y="283.482">Nachricht: INVOIC 2.8d</text><text fill="#000000" font-family="sans-serif" font-size="14" lengthAdjust="spacing" textLength="204.1143" x="13" y="299.7789">Kontext: Nachrichtenstruktur</text><text fill="#000000" font-family="sans-serif" font-size="14" lengthAdjust="spacing" textLength="91.4033" x="13" y="316.0757">Pflichtfeld: Ja</text><text fill="#000000" font-family="sans-serif" font-size="14" lengthAdjust="spacing" textLength="115.6777" x="13" y="332.3726">Codes: RFF, SG1</text><text fill="#000000" font-family="sans-serif" font-size="14" lengthAdjust="spacing" textLength="483.6221" x="13" y="348.6695">Prozesse: Netznutzungsabrechnung, Messstellenbetriebsabrechnung</text><text fill="#000000" font-family="sans-serif" font-size="14" lengthAdjust="spacing" textLength="396.6074" x="13" y="364.9664">Quelle: INVOIC_MIG_2.8d_Fehlerkorrektur_20250131.pdf</text><line style="stroke:#181818;stroke-width:0.5;" x1="8" x2="501.6221" y1="372.2681" y2="372.2681"/></g><!--class RFF_00017_proc_1--><g class="entity" data-entity="RFF_00017_proc_1" data-source-line="17" data-uid="ent0005" id="entity_RFF_00017_proc_1"><rect fill="#F1F1F1" height="105.1563" rx="2.5" ry="2.5" style="stroke:#181818;stroke-width:0.5;" width="752.6465" x="537.49" y="254.7969"/><ellipse cx="843.9724" cy="274.9297" fill="#ADD1B2" rx="11" ry="11" style="stroke:#181818;stroke-width:1;"/><path d="M846.9412,280.5703 Q846.363,280.8672 845.7224,281.0078 Q845.0818,281.1641 844.3787,281.1641 Q841.8787,281.1641 840.5505,279.5234 Q839.238,277.8672 839.238,274.7422 Q839.238,271.6172 840.5505,269.9609 Q841.8787,268.3047 844.3787,268.3047 Q845.0818,268.3047 845.7224,268.4609 Q846.3787,268.6172 846.9412,268.9141 L846.9412,271.6328 Q846.3162,271.0547 845.7224,270.7891 Q845.1287,270.5078 844.5037,270.5078 Q843.1599,270.5078 842.4724,271.5859 Q841.7849,272.6484 841.7849,274.7422 Q841.7849,276.8359 842.4724,277.9141 Q843.1599,278.9766 844.5037,278.9766 Q845.1287,278.9766 845.7224,278.7109 Q846.3162,278.4297 846.9412,277.8516 L846.9412,280.5703 Z " fill="#000000"/><text fill="#000000" font-family="sans-serif" font-size="12" font-style="italic" lengthAdjust="spacing" textLength="61.0605" x="899.533" y="270.9355">&#171;process&#187;</text><text fill="#000000" font-family="sans-serif" font-size="14" lengthAdjust="spacing" textLength="131.1816" x="864.4724" y="286.7607">RFF_00017_proc_1</text><line style="stroke:#181818;stroke-width:0.5;" x1="538.49" x2="1289.1365" y1="295.0625" y2="295.0625"/><text fill="#000000" font-family="sans-serif" font-size="14" lengthAdjust="spacing" textLength="180.3457" x="543.49" y="312.0576">Netznutzungsabrechnung</text><text fill="#000000" font-family="sans-serif" font-size="14" lengthAdjust="spacing" textLength="218.0938" x="543.49" y="328.3545">Gesetze: StromNEV, StromNZV</text><text fill="#000000" font-family="sans-serif" font-size="14" lengthAdjust="spacing" textLength="740.6465" x="543.49" y="344.6514">Zusammenfassung: Wie funktioniert die Netznutzungsabrechnung zwischen Netzbetreiber und Lieferant?</text><line style="stroke:#181818;stroke-width:0.5;" x1="538.49" x2="1289.1365" y1="351.9531" y2="351.9531"/></g><!--class RFF_00017_proc_2--><g class="entity" data-entity="RFF_00017_proc_2" data-source-line="23" data-uid="ent0007" id="entity_RFF_00017_proc_2"><rect fill="#F1F1F1" height="105.1563" rx="2.5" ry="2.5" style="stroke:#181818;stroke-width:0.5;" width="690.2275" x="1324.7" y="254.7969"/><ellipse cx="1599.9729" cy="274.9297" fill="#ADD1B2" rx="11" ry="11" style="stroke:#181818;stroke-width:1;"/><path d="M1602.9417,280.5703 Q1602.3636,280.8672 1601.7229,281.0078 Q1601.0823,281.1641 1600.3792,281.1641 Q1597.8792,281.1641 1596.5511,279.5234 Q1595.2386,277.8672 1595.2386,274.7422 Q1595.2386,271.6172 1596.5511,269.9609 Q1597.8792,268.3047 1600.3792,268.3047 Q1601.0823,268.3047 1601.7229,268.4609 Q1602.3792,268.6172 1602.9417,268.9141 L1602.9417,271.6328 Q1602.3167,271.0547 1601.7229,270.7891 Q1601.1292,270.5078 1600.5042,270.5078 Q1599.1604,270.5078 1598.4729,271.5859 Q1597.7854,272.6484 1597.7854,274.7422 Q1597.7854,276.8359 1598.4729,277.9141 Q1599.1604,278.9766 1600.5042,278.9766 Q1601.1292,278.9766 1601.7229,278.7109 Q1602.3167,278.4297 1602.9417,277.8516 L1602.9417,280.5703 Z " fill="#000000"/><text fill="#000000" font-family="sans-serif" font-size="12" font-style="italic" lengthAdjust="spacing" textLength="61.0605" x="1655.5335" y="270.9355">&#171;process&#187;</text><text fill="#000000" font-family="sans-serif" font-size="14" lengthAdjust="spacing" textLength="131.1816" x="1620.4729" y="286.7607">RFF_00017_proc_2</text><line style="stroke:#181818;stroke-width:0.5;" x1="1325.7" x2="2013.9275" y1="295.0625" y2="295.0625"/><text fill="#000000" font-family="sans-serif" font-size="14" lengthAdjust="spacing" textLength="223.2822" x="1330.7" y="312.0576">Messstellenbetriebsabrechnung</text><text fill="#000000" font-family="sans-serif" font-size="14" lengthAdjust="spacing" textLength="105.0957" x="1330.7" y="328.3545">Gesetze: MsbG</text><text fill="#000000" font-family="sans-serif" font-size="14" lengthAdjust="spacing" textLength="678.2275" x="1330.7" y="344.6514">Zusammenfassung: Beschreibe den Prozess der Abrechnung von Messstellenbetriebsleistungen.</text><line style="stroke:#181818;stroke-width:0.5;" x1="1325.7" x2="2013.9275" y1="351.9531" y2="351.9531"/></g><!--link RFF_00017 to RFF_00017_msg_1--><g class="link" data-entity-1="RFF_00017" data-entity-2="RFF_00017_msg_1" data-source-line="16" data-uid="lnk4" id="link_RFF_00017_RFF_00017_msg_1"><path codeLine="16" d="M788.7,140.7169 C703.86,167.0369 594.8904,200.8485 493.5504,232.2985" fill="none" id="RFF_00017-to-RFF_00017_msg_1" style="stroke:#181818;stroke-width:1;"/><polygon fill="#181818" points="487.82,234.0769,497.6012,235.2296,492.5953,232.5949,495.23,227.589,487.82,234.0769" style="stroke:#181818;stroke-width:1;"/><text fill="#000000" font-family="sans-serif" font-size="13" lengthAdjust="spacing" textLength="85.2363" x="624.81" y="200.5538">verwendet in</text></g><!--link RFF_00017 to RFF_00017_proc_1--><g class="link" data-entity-1="RFF_00017" data-entity-2="RFF_00017_proc_1" data-source-line="22" data-uid="lnk6" id="link_RFF_00017_RFF_00017_proc_1"><path codeLine="22" d="M913.81,157.7669 C913.81,187.9169 913.81,218.9069 913.81,248.4269" fill="none" id="RFF_00017-to-RFF_00017_proc_1" style="stroke:#181818;stroke-width:1;stroke-dasharray:7,7;"/><polygon fill="#181818" points="913.81,254.4269,917.81,245.4269,913.81,249.4269,909.81,245.4269,913.81,254.4269" style="stroke:#181818;stroke-width:1;"/><text fill="#000000" font-family="sans-serif" font-size="13" lengthAdjust="spacing" textLength="91.6221" x="914.81" y="200.5538">eingebettet in</text></g><!--link RFF_00017 to RFF_00017_proc_2--><g class="link" data-entity-1="RFF_00017" data-entity-2="RFF_00017_proc_2" data-source-line="28" data-uid="lnk8" id="link_RFF_00017_RFF_00017_proc_2"><path codeLine="28" d="M1038.65,135.6569 C1157.96,167.9269 1333.7682,215.4802 1471.5882,252.7602" fill="none" id="RFF_00017-to-RFF_00017_proc_2" style="stroke:#181818;stroke-width:1;stroke-dasharray:7,7;"/><polygon fill="#181818" points="1477.38,254.3269,1469.7367,248.1156,1472.5535,253.0213,1467.6478,255.8381,1477.38,254.3269" style="stroke:#181818;stroke-width:1;"/><text fill="#000000" font-family="sans-serif" font-size="13" lengthAdjust="spacing" textLength="91.6221" x="1292.81" y="200.5538">eingebettet in</text></g><!--SRC=[XPBTRjD048Nl-nJp08bb6o6GLGMLGg802OLAGUgDvP_ZU1LxjjeTjoY8D-EE5sESfZ_WbDpDp1dDd6zsnKW3UfS9E9CcypIchzDf4ePXzEgaq8BlytINquyJecNM8g4Bz_jNPKgmcCfiCh5EfGjdj_0UYSQaWvQGBNUoxNZjizoXg5d3lRZGJYze6d0ESGRvqvwV_-vEMxzEexs3edQcg2MX-NBrUNvESV2wLE6ZPS5tBJzqWBsuRYFTpbxLzBKAJPdGXqmhvxQ4J_eb8xgSHKyHdZ4_EkARw4lNQ_VMqiLyblRsqYdg1cvZdKFl9ut3-6KOlOY2wx9ItCSZZyUJ0NP2Dt2tu192XWUtkNQsqAxJqpvGVvF9tQ6Uk_yCNYKrUIdEjiltgz4-kbgfUjNvh6t1bIxH_eI-6L3LyKQCPGCdL6hXy73QtXfVrE2TtXy89eUZZalwP531PInl_k8DWiaG9I4ONaC7o7-Gum7oiTTv85_uV7Q8zItK_iuqwU- -_myQEpfxfBonV6XL0-D5TN1m334U8Fu1]--></g></svg>