<svg xmlns="http://www.w3.org/2000/svg" xmlns:xlink="http://www.w3.org/1999/xlink" contentStyleType="text/css" data-diagram-type="CLASS" height="370px" preserveAspectRatio="none" style="width:1330px;height:370px;background:#FFFFFF;" version="1.1" viewBox="0 0 1330 370" width="1330px" zoomAndPan="magnify"><title>Datenatlas - RNG:1600</title><defs/><g><g class="title" data-source-line="1"><text fill="#000000" font-family="sans-serif" font-size="14" font-weight="bold" lengthAdjust="spacing" textLength="180.0518" x="568.2724" y="22.9951">Datenatlas - RNG:1600</text></g><!--class RNG_1600--><g class="entity" data-entity="RNG_1600" data-source-line="2" data-uid="ent0002" id="entity_RNG_1600"><rect fill="#F1F1F1" height="96.8906" rx="2.5" ry="2.5" style="stroke:#181818;stroke-width:0.5;" width="272.1621" x="473.19" y="44.2969"/><ellipse cx="568.1822" cy="60.2969" fill="#ADD1B2" rx="11" ry="11" style="stroke:#181818;stroke-width:1;"/><path d="M571.1509,65.9375 Q570.5728,66.2344 569.9322,66.375 Q569.2916,66.5313 568.5884,66.5313 Q566.0884,66.5313 564.7603,64.8906 Q563.4478,63.2344 563.4478,60.1094 Q563.4478,56.9844 564.7603,55.3281 Q566.0884,53.6719 568.5884,53.6719 Q569.2916,53.6719 569.9322,53.8281 Q570.5884,53.9844 571.1509,54.2813 L571.1509,57 Q570.5259,56.4219 569.9322,56.1563 Q569.3384,55.875 568.7134,55.875 Q567.3697,55.875 566.6822,56.9531 Q565.9947,58.0156 565.9947,60.1094 Q565.9947,62.2031 566.6822,63.2813 Q567.3697,64.3438 568.7134,64.3438 Q569.3384,64.3438 569.9322,64.0781 Q570.5259,63.7969 571.1509,63.2188 L571.1509,65.9375 Z " fill="#000000"/><text fill="#000000" font-family="sans-serif" font-size="14" lengthAdjust="spacing" textLength="73.6777" x="588.6822" y="65.1436">RNG_1600</text><line style="stroke:#181818;stroke-width:0.5;" x1="474.19" x2="744.3521" y1="76.2969" y2="76.2969"/><text fill="#000000" font-family="sans-serif" font-size="14" lengthAdjust="spacing" textLength="246.1621" x="493.19" y="93.292">Name: Angaben zum Wertebereich</text><text fill="#000000" font-family="sans-serif" font-size="14" lengthAdjust="spacing" textLength="66.6436" x="493.19" y="109.5889">Prozesse:</text><rect fill="none" height="6" style="stroke:#C82930;stroke-width:1;" width="6" x="481.19" y="119.5391"/><text fill="#000000" font-family="sans-serif" font-size="14" lengthAdjust="spacing" textLength="180.3457" x="493.19" y="125.8857">Netznutzungsabrechnung</text><line style="stroke:#181818;stroke-width:0.5;" x1="474.19" x2="744.3521" y1="133.1875" y2="133.1875"/></g><!--class RNG_1600_msg_1--><g class="entity" data-entity="RNG_1600_msg_1" data-source-line="7" data-uid="ent0003" id="entity_RNG_1600_msg_1"><rect fill="#F1F1F1" height="145.7813" rx="2.5" ry="2.5" style="stroke:#181818;stroke-width:0.5;" width="528.5371" x="7" y="218.1869"/><ellipse cx="203.8169" cy="234.1869" fill="#ADD1B2" rx="11" ry="11" style="stroke:#181818;stroke-width:1;"/><path d="M206.7856,239.8275 Q206.2075,240.1244 205.5669,240.265 Q204.9263,240.4213 204.2231,240.4213 Q201.7231,240.4213 200.395,238.7806 Q199.0825,237.1244 199.0825,233.9994 Q199.0825,230.8744 200.395,229.2181 Q201.7231,227.5619 204.2231,227.5619 Q204.9263,227.5619 205.5669,227.7181 Q206.2231,227.8744 206.7856,228.1713 L206.7856,230.89 Q206.1606,230.3119 205.5669,230.0463 Q204.9731,229.765 204.3481,229.765 Q203.0044,229.765 202.3169,230.8431 Q201.6294,231.9056 201.6294,233.9994 Q201.6294,236.0931 202.3169,237.1713 Q203.0044,238.2338 204.3481,238.2338 Q204.9731,238.2338 205.5669,237.9681 Q206.1606,237.6869 206.7856,237.1088 L206.7856,239.8275 Z " fill="#000000"/><text fill="#000000" font-family="sans-serif" font-size="14" lengthAdjust="spacing" textLength="126.4033" x="224.3169" y="239.0336">RNG_1600_msg_1</text><line style="stroke:#181818;stroke-width:0.5;" x1="8" x2="534.5371" y1="250.1869" y2="250.1869"/><text fill="#000000" font-family="sans-serif" font-size="14" lengthAdjust="spacing" textLength="162.2988" x="13" y="267.182">Nachricht: PRICAT 2.0d</text><text fill="#000000" font-family="sans-serif" font-size="14" lengthAdjust="spacing" textLength="516.5371" x="13" y="283.4789">Kontext: 1310   SG36   C   R   999999   999999   2   LIN - PIA - IMD - SG40</text><text fill="#000000" font-family="sans-serif" font-size="14" lengthAdjust="spacing" textLength="110.5439" x="13" y="299.7757">Pflichtfeld: Nein</text><text fill="#000000" font-family="sans-serif" font-size="14" lengthAdjust="spacing" textLength="83.3506" x="13" y="316.0726">Codes: RNG</text><text fill="#000000" font-family="sans-serif" font-size="14" lengthAdjust="spacing" textLength="251.4395" x="13" y="332.3695">Prozesse: Netznutzungsabrechnung</text><text fill="#000000" font-family="sans-serif" font-size="14" lengthAdjust="spacing" textLength="284.4365" x="13" y="348.6664">Quelle: PRICAT_MIG_2_0d_20240619.pdf</text><line style="stroke:#181818;stroke-width:0.5;" x1="8" x2="534.5371" y1="355.9681" y2="355.9681"/></g><!--class RNG_1600_proc_1--><g class="entity" data-entity="RNG_1600_proc_1" data-source-line="16" data-uid="ent0005" id="entity_RNG_1600_proc_1"><rect fill="#F1F1F1" height="105.1563" rx="2.5" ry="2.5" style="stroke:#181818;stroke-width:0.5;" width="752.6465" x="570.95" y="238.4969"/><ellipse cx="879.2781" cy="258.6297" fill="#ADD1B2" rx="11" ry="11" style="stroke:#181818;stroke-width:1;"/><path d="M882.2469,264.2703 Q881.6688,264.5672 881.0281,264.7078 Q880.3875,264.8641 879.6844,264.8641 Q877.1844,264.8641 875.8563,263.2234 Q874.5438,261.5672 874.5438,258.4422 Q874.5438,255.3172 875.8563,253.6609 Q877.1844,252.0047 879.6844,252.0047 Q880.3875,252.0047 881.0281,252.1609 Q881.6844,252.3172 882.2469,252.6141 L882.2469,255.3328 Q881.6219,254.7547 881.0281,254.4891 Q880.4344,254.2078 879.8094,254.2078 Q878.4656,254.2078 877.7781,255.2859 Q877.0906,256.3484 877.0906,258.4422 Q877.0906,260.5359 877.7781,261.6141 Q878.4656,262.6766 879.8094,262.6766 Q880.4344,262.6766 881.0281,262.4109 Q881.6219,262.1297 882.2469,261.5516 L882.2469,264.2703 Z " fill="#000000"/><text fill="#000000" font-family="sans-serif" font-size="12" font-style="italic" lengthAdjust="spacing" textLength="61.0605" x="932.993" y="254.6355">&#171;process&#187;</text><text fill="#000000" font-family="sans-serif" font-size="14" lengthAdjust="spacing" textLength="127.4902" x="899.7781" y="270.4607">RNG_1600_proc_1</text><line style="stroke:#181818;stroke-width:0.5;" x1="571.95" x2="1322.5965" y1="278.7625" y2="278.7625"/><text fill="#000000" font-family="sans-serif" font-size="14" lengthAdjust="spacing" textLength="180.3457" x="576.95" y="295.7576">Netznutzungsabrechnung</text><text fill="#000000" font-family="sans-serif" font-size="14" lengthAdjust="spacing" textLength="218.0938" x="576.95" y="312.0545">Gesetze: StromNEV, StromNZV</text><text fill="#000000" font-family="sans-serif" font-size="14" lengthAdjust="spacing" textLength="740.6465" x="576.95" y="328.3514">Zusammenfassung: Wie funktioniert die Netznutzungsabrechnung zwischen Netzbetreiber und Lieferant?</text><line style="stroke:#181818;stroke-width:0.5;" x1="571.95" x2="1322.5965" y1="335.6531" y2="335.6531"/></g><!--link RNG_1600 to RNG_1600_msg_1--><g class="link" data-entity-1="RNG_1600" data-entity-2="RNG_1600_msg_1" data-source-line="15" data-uid="lnk4" id="link_RNG_1600_RNG_1600_msg_1"><path codeLine="15" d="M527.02,141.5169 C487.54,164.4469 444.5984,189.3935 400.7784,214.8435" fill="none" id="RNG_1600-to-RNG_1600_msg_1" style="stroke:#181818;stroke-width:1;"/><polygon fill="#181818" points="395.59,217.8569,405.3815,216.7958,399.9137,215.3457,401.3637,209.8779,395.59,217.8569" style="stroke:#181818;stroke-width:1;"/><text fill="#000000" font-family="sans-serif" font-size="13" lengthAdjust="spacing" textLength="85.2363" x="472.27" y="184.2538">verwendet in</text></g><!--link RNG_1600 to RNG_1600_proc_1--><g class="link" data-entity-1="RNG_1600" data-entity-2="RNG_1600_proc_1" data-source-line="21" data-uid="lnk6" id="link_RNG_1600_RNG_1600_proc_1"><path codeLine="21" d="M691.52,141.5169 C741.84,170.7469 801.0419,205.133 852.6319,235.103" fill="none" id="RNG_1600-to-RNG_1600_proc_1" style="stroke:#181818;stroke-width:1;stroke-dasharray:7,7;"/><polygon fill="#181818" points="857.82,238.1169,852.0471,230.1373,853.4966,235.6053,848.0286,237.0548,857.82,238.1169" style="stroke:#181818;stroke-width:1;"/><text fill="#000000" font-family="sans-serif" font-size="13" lengthAdjust="spacing" textLength="91.6221" x="769.27" y="184.2538">eingebettet in</text></g><!--SRC=[TLBRQi9047ttA-O3QaYY22x58bf2g0QhHS6N49E92Kqsihkf9QN_tXDhYzYwCBjpO-QScJMvAPYcaM4PcIBIrALbu0bdODkT6BPkpR0rwQD354Gb2nhBVRHZIKrTqeQLuHqhpkCC2GjLDQmr2-Y4OW6RHjQcgULUHpl5SIQXTZwlYeUbteVEkKMSAHGpWXPBVp9-8TUo4mIUAcdu7MwdvzWell9w0pmJo18oF9rBnONC_00e5luOjp-VubvvVRi5cXPjavIBH01bBk6RL0bhqOAwP7AB0z5ppKN1FpZ3kU-5RcWdeMkxVNlW3Ar3aeBgxmIxtT4rOq5lh8ui4pO435TJEQWgHjBzVQi0p6ZqFQ9RW3pM207HogYg31xNTsTjkqPqM-keB5ccw85yGPkSAQtbgyahcMEFbC3nVt5gZhcECoozZU_OOE7OEjKoeLdEAQj8ceTBifOr-aD440QzntSnviJt2m00]--></g></svg>