<svg xmlns="http://www.w3.org/2000/svg" xmlns:xlink="http://www.w3.org/1999/xlink" contentStyleType="text/css" data-diagram-type="CLASS" height="370px" preserveAspectRatio="none" style="width:1042px;height:370px;background:#FFFFFF;" version="1.1" viewBox="0 0 1042 370" width="1042px" zoomAndPan="magnify"><title>Datenatlas - SEGMENTNAME:CCI</title><defs/><g><g class="title" data-source-line="1"><text fill="#000000" font-family="sans-serif" font-size="14" font-weight="bold" lengthAdjust="spacing" textLength="254.8027" x="387.0879" y="22.9951">Datenatlas - SEGMENTNAME:CCI</text></g><!--class SEGMENTNAME_CCI--><g class="entity" data-entity="SEGMENTNAME_CCI" data-source-line="2" data-uid="ent0002" id="entity_SEGMENTNAME_CCI"><rect fill="#F1F1F1" height="96.8906" rx="2.5" ry="2.5" style="stroke:#181818;stroke-width:0.5;" width="360.3525" x="400.69" y="44.2969"/><ellipse cx="506.524" cy="60.2969" fill="#ADD1B2" rx="11" ry="11" style="stroke:#181818;stroke-width:1;"/><path d="M509.4927,65.9375 Q508.9146,66.2344 508.274,66.375 Q507.6334,66.5313 506.9302,66.5313 Q504.4302,66.5313 503.1021,64.8906 Q501.7896,63.2344 501.7896,60.1094 Q501.7896,56.9844 503.1021,55.3281 Q504.4302,53.6719 506.9302,53.6719 Q507.6334,53.6719 508.274,53.8281 Q508.9302,53.9844 509.4927,54.2813 L509.4927,57 Q508.8677,56.4219 508.274,56.1563 Q507.6802,55.875 507.0552,55.875 Q505.7115,55.875 505.024,56.9531 Q504.3365,58.0156 504.3365,60.1094 Q504.3365,62.2031 505.024,63.2813 Q505.7115,64.3438 507.0552,64.3438 Q507.6802,64.3438 508.274,64.0781 Q508.8677,63.7969 509.4927,63.2188 L509.4927,65.9375 Z " fill="#000000"/><text fill="#000000" font-family="sans-serif" font-size="14" lengthAdjust="spacing" textLength="140.1846" x="527.024" y="65.1436">SEGMENTNAME_CCI</text><line style="stroke:#181818;stroke-width:0.5;" x1="401.69" x2="760.0425" y1="76.2969" y2="76.2969"/><text fill="#000000" font-family="sans-serif" font-size="14" lengthAdjust="spacing" textLength="145.332" x="420.69" y="93.292">Name: Zeitreihentyp</text><text fill="#000000" font-family="sans-serif" font-size="14" lengthAdjust="spacing" textLength="66.6436" x="420.69" y="109.5889">Prozesse:</text><rect fill="none" height="6" style="stroke:#C82930;stroke-width:1;" width="6" x="408.69" y="119.5391"/><text fill="#000000" font-family="sans-serif" font-size="14" lengthAdjust="spacing" textLength="334.3525" x="420.69" y="125.8857">Anforderung und &#220;bermittlung von Messwerten</text><line style="stroke:#181818;stroke-width:0.5;" x1="401.69" x2="760.0425" y1="133.1875" y2="133.1875"/></g><!--class SEGMENTNAME_CCI_msg_1--><g class="entity" data-entity="SEGMENTNAME_CCI_msg_1" data-source-line="7" data-uid="ent0003" id="entity_SEGMENTNAME_CCI_msg_1"><rect fill="#F1F1F1" height="145.7813" rx="2.5" ry="2.5" style="stroke:#181818;stroke-width:0.5;" width="615.7295" x="7" y="218.1869"/><ellipse cx="214.1597" cy="234.1869" fill="#ADD1B2" rx="11" ry="11" style="stroke:#181818;stroke-width:1;"/><path d="M217.1284,239.8275 Q216.5503,240.1244 215.9097,240.265 Q215.269,240.4213 214.5659,240.4213 Q212.0659,240.4213 210.7378,238.7806 Q209.4253,237.1244 209.4253,233.9994 Q209.4253,230.8744 210.7378,229.2181 Q212.0659,227.5619 214.5659,227.5619 Q215.269,227.5619 215.9097,227.7181 Q216.5659,227.8744 217.1284,228.1713 L217.1284,230.89 Q216.5034,230.3119 215.9097,230.0463 Q215.3159,229.765 214.6909,229.765 Q213.3472,229.765 212.6597,230.8431 Q211.9722,231.9056 211.9722,233.9994 Q211.9722,236.0931 212.6597,237.1713 Q213.3472,238.2338 214.6909,238.2338 Q215.3159,238.2338 215.9097,237.9681 Q216.5034,237.6869 217.1284,237.1088 L217.1284,239.8275 Z " fill="#000000"/><text fill="#000000" font-family="sans-serif" font-size="14" lengthAdjust="spacing" textLength="192.9102" x="234.6597" y="239.0336">SEGMENTNAME_CCI_msg_1</text><line style="stroke:#181818;stroke-width:0.5;" x1="8" x2="621.7295" y1="250.1869" y2="250.1869"/><text fill="#000000" font-family="sans-serif" font-size="14" lengthAdjust="spacing" textLength="172.0264" x="13" y="267.182">Nachricht: MSCONS 2.4c</text><text fill="#000000" font-family="sans-serif" font-size="14" lengthAdjust="spacing" textLength="204.1143" x="13" y="283.4789">Kontext: Nachrichtenstruktur</text><text fill="#000000" font-family="sans-serif" font-size="14" lengthAdjust="spacing" textLength="110.5439" x="13" y="299.7757">Pflichtfeld: Nein</text><text fill="#000000" font-family="sans-serif" font-size="14" lengthAdjust="spacing" textLength="603.7295" x="13" y="316.0726">Codes: 000, 100, 20, 21, 22, 23, 24, 25, 26, 99, CCI, DTM, ID, LIN, RFF, SG7, SG8, SG9</text><text fill="#000000" font-family="sans-serif" font-size="14" lengthAdjust="spacing" textLength="405.4463" x="13" y="332.3695">Prozesse: Anforderung und &#220;bermittlung von Messwerten</text><text fill="#000000" font-family="sans-serif" font-size="14" lengthAdjust="spacing" textLength="294.1641" x="13" y="348.6664">Quelle: MSCONS_MIG_2_4c_20231024.pdf</text><line style="stroke:#181818;stroke-width:0.5;" x1="8" x2="621.7295" y1="355.9681" y2="355.9681"/></g><!--class SEGMENTNAME_CCI_proc_1--><g class="entity" data-entity="SEGMENTNAME_CCI_proc_1" data-source-line="16" data-uid="ent0005" id="entity_SEGMENTNAME_CCI_proc_1"><rect fill="#F1F1F1" height="105.1563" rx="2.5" ry="2.5" style="stroke:#181818;stroke-width:0.5;" width="378.2285" x="657.75" y="238.4969"/><ellipse cx="745.6157" cy="258.6297" fill="#ADD1B2" rx="11" ry="11" style="stroke:#181818;stroke-width:1;"/><path d="M748.5845,264.2703 Q748.0063,264.5672 747.3657,264.7078 Q746.7251,264.8641 746.022,264.8641 Q743.522,264.8641 742.1938,263.2234 Q740.8813,261.5672 740.8813,258.4422 Q740.8813,255.3172 742.1938,253.6609 Q743.522,252.0047 746.022,252.0047 Q746.7251,252.0047 747.3657,252.1609 Q748.022,252.3172 748.5845,252.6141 L748.5845,255.3328 Q747.9595,254.7547 747.3657,254.4891 Q746.772,254.2078 746.147,254.2078 Q744.8032,254.2078 744.1157,255.2859 Q743.4282,256.3484 743.4282,258.4422 Q743.4282,260.5359 744.1157,261.6141 Q744.8032,262.6766 746.147,262.6766 Q746.772,262.6766 747.3657,262.4109 Q747.9595,262.1297 748.5845,261.5516 L748.5845,264.2703 Z " fill="#000000"/><text fill="#000000" font-family="sans-serif" font-size="12" font-style="italic" lengthAdjust="spacing" textLength="61.0605" x="832.584" y="254.6355">&#171;process&#187;</text><text fill="#000000" font-family="sans-serif" font-size="14" lengthAdjust="spacing" textLength="193.9971" x="766.1157" y="270.4607">SEGMENTNAME_CCI_proc_1</text><line style="stroke:#181818;stroke-width:0.5;" x1="658.75" x2="1034.9785" y1="278.7625" y2="278.7625"/><text fill="#000000" font-family="sans-serif" font-size="14" lengthAdjust="spacing" textLength="334.3525" x="663.75" y="295.7576">Anforderung und &#220;bermittlung von Messwerten</text><text fill="#000000" font-family="sans-serif" font-size="14" lengthAdjust="spacing" textLength="105.0957" x="663.75" y="312.0545">Gesetze: MsbG</text><line style="stroke:#181818;stroke-width:0.5;" x1="658.75" x2="1034.9785" y1="319.3563" y2="319.3563"/><text fill="#000000" font-family="sans-serif" font-size="14" lengthAdjust="spacing" textLength="366.2285" x="663.75" y="336.3514">Zusammenfassung: Wie kann ein Marktpartner (z.B.</text></g><!--link SEGMENTNAME_CCI to SEGMENTNAME_CCI_msg_1--><g class="link" data-entity-1="SEGMENTNAME_CCI" data-entity-2="SEGMENTNAME_CCI_msg_1" data-source-line="15" data-uid="lnk4" id="link_SEGMENTNAME_CCI_SEGMENTNAME_CCI_msg_1"><path codeLine="15" d="M516.13,141.5169 C485.07,164.4469 452.0179,188.8444 417.5279,214.2944" fill="none" id="SEGMENTNAME_CCI-to-SEGMENTNAME_CCI_msg_1" style="stroke:#181818;stroke-width:1;"/><polygon fill="#181818" points="412.7,217.8569,422.3169,215.7317,416.7233,214.8881,417.5669,209.2945,412.7,217.8569" style="stroke:#181818;stroke-width:1;"/><text fill="#000000" font-family="sans-serif" font-size="13" lengthAdjust="spacing" textLength="85.2363" x="472.86" y="184.2538">verwendet in</text></g><!--link SEGMENTNAME_CCI to SEGMENTNAME_CCI_proc_1--><g class="link" data-entity-1="SEGMENTNAME_CCI" data-entity-2="SEGMENTNAME_CCI_proc_1" data-source-line="21" data-uid="lnk6" id="link_SEGMENTNAME_CCI_SEGMENTNAME_CCI_proc_1"><path codeLine="21" d="M645.6,141.5169 C685.27,170.8069 731.2426,204.7337 771.8726,234.7237" fill="none" id="SEGMENTNAME_CCI-to-SEGMENTNAME_CCI_proc_1" style="stroke:#181818;stroke-width:1;stroke-dasharray:7,7;"/><polygon fill="#181818" points="776.7,238.2869,771.8344,229.7238,772.6772,235.3175,767.0835,236.1603,776.7,238.2869" style="stroke:#181818;stroke-width:1;"/><text fill="#000000" font-family="sans-serif" font-size="13" lengthAdjust="spacing" textLength="91.6221" x="707.86" y="184.2538">eingebettet in</text></g><!--SRC=[bL7BRi8m4Bpp5Nli8KGXf0yYX4G3HAXD-W2f4fSe91k8I1naRw2bwf_qR_fZNQEsGXKSECpA7g-zCsFAgK0On8GYfY9Mq8J9q0-6uJJi1qFNyyQDX6bro4RCmdi388nBT666EKdCboZeRStiewnsg1Iwl0P-ho-oIgOeQx60MgJmzJb7MUP4XMOsbO20sxSeMKFZu_Yug5IBgFKpD5dAF5cI2y74UmWdO9jEmWTtbI1yPVgl0uKYMQ-ebbfMLcWkmoBb5im5SrwLedB1iYm3MhhO6Ys6pMWp7CObuyg0JiS0bcB0O1eOC1uOS3yE3NWUZGoO-DUwtEZIESpWFFS0JpKM1VvQYuAn7zcHaqIsPRTRbksOwpJZaFx_HhFPEn6P2nkKMnGf4h3du-ckPPLmRxUh5oodrzj7VQPs7nNIJejNSv_tirh5POaYuv5ymOMN764L2m6SFWInND4wbYHGmiNEl3MF-3BDtYcnhdvbWNCasblx1W00]--></g></svg>