<svg xmlns="http://www.w3.org/2000/svg" xmlns:xlink="http://www.w3.org/1999/xlink" contentStyleType="text/css" data-diagram-type="CLASS" height="370px" preserveAspectRatio="none" style="width:1042px;height:370px;background:#FFFFFF;" version="1.1" viewBox="0 0 1042 370" width="1042px" zoomAndPan="magnify"><title>Datenatlas - SEGMENTNAME:DTM</title><defs/><g><g class="title" data-source-line="1"><text fill="#000000" font-family="sans-serif" font-size="14" font-weight="bold" lengthAdjust="spacing" textLength="264.1475" x="382.4155" y="22.9951">Datenatlas - SEGMENTNAME:DTM</text></g><!--class SEGMENTNAME_DTM--><g class="entity" data-entity="SEGMENTNAME_DTM" data-source-line="2" data-uid="ent0002" id="entity_SEGMENTNAME_DTM"><rect fill="#F1F1F1" height="96.8906" rx="2.5" ry="2.5" style="stroke:#181818;stroke-width:0.5;" width="360.3525" x="400.69" y="44.2969"/><ellipse cx="502.6583" cy="60.2969" fill="#ADD1B2" rx="11" ry="11" style="stroke:#181818;stroke-width:1;"/><path d="M505.627,65.9375 Q505.0489,66.2344 504.4083,66.375 Q503.7676,66.5313 503.0645,66.5313 Q500.5645,66.5313 499.2364,64.8906 Q497.9239,63.2344 497.9239,60.1094 Q497.9239,56.9844 499.2364,55.3281 Q500.5645,53.6719 503.0645,53.6719 Q503.7676,53.6719 504.4083,53.8281 Q505.0645,53.9844 505.627,54.2813 L505.627,57 Q505.002,56.4219 504.4083,56.1563 Q503.8145,55.875 503.1895,55.875 Q501.8458,55.875 501.1583,56.9531 Q500.4708,58.0156 500.4708,60.1094 Q500.4708,62.2031 501.1583,63.2813 Q501.8458,64.3438 503.1895,64.3438 Q503.8145,64.3438 504.4083,64.0781 Q505.002,63.7969 505.627,63.2188 L505.627,65.9375 Z " fill="#000000"/><text fill="#000000" font-family="sans-serif" font-size="14" lengthAdjust="spacing" textLength="147.916" x="523.1583" y="65.1436">SEGMENTNAME_DTM</text><line style="stroke:#181818;stroke-width:0.5;" x1="401.69" x2="760.0425" y1="76.2969" y2="76.2969"/><text fill="#000000" font-family="sans-serif" font-size="14" lengthAdjust="spacing" textLength="189.9844" x="420.69" y="93.292">Name: Bilanzierungsmonat</text><text fill="#000000" font-family="sans-serif" font-size="14" lengthAdjust="spacing" textLength="66.6436" x="420.69" y="109.5889">Prozesse:</text><rect fill="none" height="6" style="stroke:#C82930;stroke-width:1;" width="6" x="408.69" y="119.5391"/><text fill="#000000" font-family="sans-serif" font-size="14" lengthAdjust="spacing" textLength="334.3525" x="420.69" y="125.8857">Anforderung und &#220;bermittlung von Messwerten</text><line style="stroke:#181818;stroke-width:0.5;" x1="401.69" x2="760.0425" y1="133.1875" y2="133.1875"/></g><!--class SEGMENTNAME_DTM_msg_1--><g class="entity" data-entity="SEGMENTNAME_DTM_msg_1" data-source-line="7" data-uid="ent0003" id="entity_SEGMENTNAME_DTM_msg_1"><rect fill="#F1F1F1" height="145.7813" rx="2.5" ry="2.5" style="stroke:#181818;stroke-width:0.5;" width="615.7295" x="7" y="218.1869"/><ellipse cx="210.2939" cy="234.1869" fill="#ADD1B2" rx="11" ry="11" style="stroke:#181818;stroke-width:1;"/><path d="M213.2627,239.8275 Q212.6846,240.1244 212.0439,240.265 Q211.4033,240.4213 210.7002,240.4213 Q208.2002,240.4213 206.8721,238.7806 Q205.5596,237.1244 205.5596,233.9994 Q205.5596,230.8744 206.8721,229.2181 Q208.2002,227.5619 210.7002,227.5619 Q211.4033,227.5619 212.0439,227.7181 Q212.7002,227.8744 213.2627,228.1713 L213.2627,230.89 Q212.6377,230.3119 212.0439,230.0463 Q211.4502,229.765 210.8252,229.765 Q209.4814,229.765 208.7939,230.8431 Q208.1064,231.9056 208.1064,233.9994 Q208.1064,236.0931 208.7939,237.1713 Q209.4814,238.2338 210.8252,238.2338 Q211.4502,238.2338 212.0439,237.9681 Q212.6377,237.6869 213.2627,237.1088 L213.2627,239.8275 Z " fill="#000000"/><text fill="#000000" font-family="sans-serif" font-size="14" lengthAdjust="spacing" textLength="200.6416" x="230.7939" y="239.0336">SEGMENTNAME_DTM_msg_1</text><line style="stroke:#181818;stroke-width:0.5;" x1="8" x2="621.7295" y1="250.1869" y2="250.1869"/><text fill="#000000" font-family="sans-serif" font-size="14" lengthAdjust="spacing" textLength="172.0264" x="13" y="267.182">Nachricht: MSCONS 2.4c</text><text fill="#000000" font-family="sans-serif" font-size="14" lengthAdjust="spacing" textLength="204.1143" x="13" y="283.4789">Kontext: Nachrichtenstruktur</text><text fill="#000000" font-family="sans-serif" font-size="14" lengthAdjust="spacing" textLength="110.5439" x="13" y="299.7757">Pflichtfeld: Nein</text><text fill="#000000" font-family="sans-serif" font-size="14" lengthAdjust="spacing" textLength="603.7295" x="13" y="316.0726">Codes: 000, 100, 20, 21, 22, 23, 24, 25, 26, 99, CCI, DTM, ID, LIN, RFF, SG7, SG8, SG9</text><text fill="#000000" font-family="sans-serif" font-size="14" lengthAdjust="spacing" textLength="405.4463" x="13" y="332.3695">Prozesse: Anforderung und &#220;bermittlung von Messwerten</text><text fill="#000000" font-family="sans-serif" font-size="14" lengthAdjust="spacing" textLength="294.1641" x="13" y="348.6664">Quelle: MSCONS_MIG_2_4c_20231024.pdf</text><line style="stroke:#181818;stroke-width:0.5;" x1="8" x2="621.7295" y1="355.9681" y2="355.9681"/></g><!--class SEGMENTNAME_DTM_proc_1--><g class="entity" data-entity="SEGMENTNAME_DTM_proc_1" data-source-line="16" data-uid="ent0005" id="entity_SEGMENTNAME_DTM_proc_1"><rect fill="#F1F1F1" height="105.1563" rx="2.5" ry="2.5" style="stroke:#181818;stroke-width:0.5;" width="378.2285" x="657.75" y="238.4969"/><ellipse cx="741.75" cy="258.6297" fill="#ADD1B2" rx="11" ry="11" style="stroke:#181818;stroke-width:1;"/><path d="M744.7188,264.2703 Q744.1406,264.5672 743.5,264.7078 Q742.8594,264.8641 742.1563,264.8641 Q739.6563,264.8641 738.3281,263.2234 Q737.0156,261.5672 737.0156,258.4422 Q737.0156,255.3172 738.3281,253.6609 Q739.6563,252.0047 742.1563,252.0047 Q742.8594,252.0047 743.5,252.1609 Q744.1563,252.3172 744.7188,252.6141 L744.7188,255.3328 Q744.0938,254.7547 743.5,254.4891 Q742.9063,254.2078 742.2813,254.2078 Q740.9375,254.2078 740.25,255.2859 Q739.5625,256.3484 739.5625,258.4422 Q739.5625,260.5359 740.25,261.6141 Q740.9375,262.6766 742.2813,262.6766 Q742.9063,262.6766 743.5,262.4109 Q744.0938,262.1297 744.7188,261.5516 L744.7188,264.2703 Z " fill="#000000"/><text fill="#000000" font-family="sans-serif" font-size="12" font-style="italic" lengthAdjust="spacing" textLength="61.0605" x="832.584" y="254.6355">&#171;process&#187;</text><text fill="#000000" font-family="sans-serif" font-size="14" lengthAdjust="spacing" textLength="201.7285" x="762.25" y="270.4607">SEGMENTNAME_DTM_proc_1</text><line style="stroke:#181818;stroke-width:0.5;" x1="658.75" x2="1034.9785" y1="278.7625" y2="278.7625"/><text fill="#000000" font-family="sans-serif" font-size="14" lengthAdjust="spacing" textLength="334.3525" x="663.75" y="295.7576">Anforderung und &#220;bermittlung von Messwerten</text><text fill="#000000" font-family="sans-serif" font-size="14" lengthAdjust="spacing" textLength="105.0957" x="663.75" y="312.0545">Gesetze: MsbG</text><line style="stroke:#181818;stroke-width:0.5;" x1="658.75" x2="1034.9785" y1="319.3563" y2="319.3563"/><text fill="#000000" font-family="sans-serif" font-size="14" lengthAdjust="spacing" textLength="366.2285" x="663.75" y="336.3514">Zusammenfassung: Wie kann ein Marktpartner (z.B.</text></g><!--link SEGMENTNAME_DTM to SEGMENTNAME_DTM_msg_1--><g class="link" data-entity-1="SEGMENTNAME_DTM" data-entity-2="SEGMENTNAME_DTM_msg_1" data-source-line="15" data-uid="lnk4" id="link_SEGMENTNAME_DTM_SEGMENTNAME_DTM_msg_1"><path codeLine="15" d="M516.13,141.5169 C485.07,164.4469 452.0179,188.8444 417.5279,214.2944" fill="none" id="SEGMENTNAME_DTM-to-SEGMENTNAME_DTM_msg_1" style="stroke:#181818;stroke-width:1;"/><polygon fill="#181818" points="412.7,217.8569,422.3169,215.7317,416.7233,214.8881,417.5669,209.2945,412.7,217.8569" style="stroke:#181818;stroke-width:1;"/><text fill="#000000" font-family="sans-serif" font-size="13" lengthAdjust="spacing" textLength="85.2363" x="472.86" y="184.2538">verwendet in</text></g><!--link SEGMENTNAME_DTM to SEGMENTNAME_DTM_proc_1--><g class="link" data-entity-1="SEGMENTNAME_DTM" data-entity-2="SEGMENTNAME_DTM_proc_1" data-source-line="21" data-uid="lnk6" id="link_SEGMENTNAME_DTM_SEGMENTNAME_DTM_proc_1"><path codeLine="21" d="M645.6,141.5169 C685.27,170.8069 731.2426,204.7337 771.8726,234.7237" fill="none" id="SEGMENTNAME_DTM-to-SEGMENTNAME_DTM_proc_1" style="stroke:#181818;stroke-width:1;stroke-dasharray:7,7;"/><polygon fill="#181818" points="776.7,238.2869,771.8344,229.7238,772.6772,235.3175,767.0835,236.1603,776.7,238.2869" style="stroke:#181818;stroke-width:1;"/><text fill="#000000" font-family="sans-serif" font-size="13" lengthAdjust="spacing" textLength="91.6221" x="707.86" y="184.2538">eingebettet in</text></g><!--SRC=[bL7BReCm4BpdA_RO0q50qaUiA5AUA6gX3o9LwWKvi2GeO2BRf1LL_wH_qn_hEcghg4eEESpAZDUxCuFETO4muHe5rmLNq8PewWVJS14EWocRB89MGhGwP6DYuRq54F8I6OpoWeicHrcBbIehcaDN3x9gK2baT0OQEXHP9TDz3zGYXQ_F9SeorxempAuI453xAqeIqleulZCkrIfsVpOdQvadQyqWYCRtOGIUtKteuhOI6j-8_kj0eRIiDxgMHbPM62x38gKMp0Lnuof5nS1n70jSKpm3b-0HEeGkuP9mPK6lPy5uFBU0z5WmdrXmDmyjU9hDB8ZyQrDkJEaTPd2UUu376ei2Vwt5mToFlRYRn9xZTLp7wzhRDAEG_l-ITdjm8Z86EvIlA5BKG9wFfxkLLKAz_Ruva9p1O1_rcTfzLAWR8rujVVf-gHKlInGPhQG739vpX0qN0YXz2BZSw2sNMg24YyOUsKTysVRWb5XcfgnmYLhlhNq3]--></g></svg>