<svg xmlns="http://www.w3.org/2000/svg" xmlns:xlink="http://www.w3.org/1999/xlink" contentStyleType="text/css" data-diagram-type="CLASS" height="370px" preserveAspectRatio="none" style="width:1042px;height:370px;background:#FFFFFF;" version="1.1" viewBox="0 0 1042 370" width="1042px" zoomAndPan="magnify"><title>Datenatlas - SEGMENTNAME:LIN</title><defs/><g><g class="title" data-source-line="1"><text fill="#000000" font-family="sans-serif" font-size="14" font-weight="bold" lengthAdjust="spacing" textLength="254.8916" x="387.0435" y="22.9951">Datenatlas - SEGMENTNAME:LIN</text></g><!--class SEGMENTNAME_LIN--><g class="entity" data-entity="SEGMENTNAME_LIN" data-source-line="2" data-uid="ent0002" id="entity_SEGMENTNAME_LIN"><rect fill="#F1F1F1" height="96.8906" rx="2.5" ry="2.5" style="stroke:#181818;stroke-width:0.5;" width="360.3525" x="400.69" y="44.2969"/><ellipse cx="507.1631" cy="60.2969" fill="#ADD1B2" rx="11" ry="11" style="stroke:#181818;stroke-width:1;"/><path d="M510.1319,65.9375 Q509.5538,66.2344 508.9131,66.375 Q508.2725,66.5313 507.5694,66.5313 Q505.0694,66.5313 503.7413,64.8906 Q502.4288,63.2344 502.4288,60.1094 Q502.4288,56.9844 503.7413,55.3281 Q505.0694,53.6719 507.5694,53.6719 Q508.2725,53.6719 508.9131,53.8281 Q509.5694,53.9844 510.1319,54.2813 L510.1319,57 Q509.5069,56.4219 508.9131,56.1563 Q508.3194,55.875 507.6944,55.875 Q506.3506,55.875 505.6631,56.9531 Q504.9756,58.0156 504.9756,60.1094 Q504.9756,62.2031 505.6631,63.2813 Q506.3506,64.3438 507.6944,64.3438 Q508.3194,64.3438 508.9131,64.0781 Q509.5069,63.7969 510.1319,63.2188 L510.1319,65.9375 Z " fill="#000000"/><text fill="#000000" font-family="sans-serif" font-size="14" lengthAdjust="spacing" textLength="138.9063" x="527.6631" y="65.1436">SEGMENTNAME_LIN</text><line style="stroke:#181818;stroke-width:0.5;" x1="401.69" x2="760.0425" y1="76.2969" y2="76.2969"/><text fill="#000000" font-family="sans-serif" font-size="14" lengthAdjust="spacing" textLength="132.084" x="420.69" y="93.292">Name: lfd. Position</text><text fill="#000000" font-family="sans-serif" font-size="14" lengthAdjust="spacing" textLength="66.6436" x="420.69" y="109.5889">Prozesse:</text><rect fill="none" height="6" style="stroke:#C82930;stroke-width:1;" width="6" x="408.69" y="119.5391"/><text fill="#000000" font-family="sans-serif" font-size="14" lengthAdjust="spacing" textLength="334.3525" x="420.69" y="125.8857">Anforderung und &#220;bermittlung von Messwerten</text><line style="stroke:#181818;stroke-width:0.5;" x1="401.69" x2="760.0425" y1="133.1875" y2="133.1875"/></g><!--class SEGMENTNAME_LIN_msg_1--><g class="entity" data-entity="SEGMENTNAME_LIN_msg_1" data-source-line="7" data-uid="ent0003" id="entity_SEGMENTNAME_LIN_msg_1"><rect fill="#F1F1F1" height="145.7813" rx="2.5" ry="2.5" style="stroke:#181818;stroke-width:0.5;" width="615.7295" x="7" y="218.1869"/><ellipse cx="214.7988" cy="234.1869" fill="#ADD1B2" rx="11" ry="11" style="stroke:#181818;stroke-width:1;"/><path d="M217.7676,239.8275 Q217.1895,240.1244 216.5488,240.265 Q215.9082,240.4213 215.2051,240.4213 Q212.7051,240.4213 211.377,238.7806 Q210.0645,237.1244 210.0645,233.9994 Q210.0645,230.8744 211.377,229.2181 Q212.7051,227.5619 215.2051,227.5619 Q215.9082,227.5619 216.5488,227.7181 Q217.2051,227.8744 217.7676,228.1713 L217.7676,230.89 Q217.1426,230.3119 216.5488,230.0463 Q215.9551,229.765 215.3301,229.765 Q213.9863,229.765 213.2988,230.8431 Q212.6113,231.9056 212.6113,233.9994 Q212.6113,236.0931 213.2988,237.1713 Q213.9863,238.2338 215.3301,238.2338 Q215.9551,238.2338 216.5488,237.9681 Q217.1426,237.6869 217.7676,237.1088 L217.7676,239.8275 Z " fill="#000000"/><text fill="#000000" font-family="sans-serif" font-size="14" lengthAdjust="spacing" textLength="191.6318" x="235.2988" y="239.0336">SEGMENTNAME_LIN_msg_1</text><line style="stroke:#181818;stroke-width:0.5;" x1="8" x2="621.7295" y1="250.1869" y2="250.1869"/><text fill="#000000" font-family="sans-serif" font-size="14" lengthAdjust="spacing" textLength="172.0264" x="13" y="267.182">Nachricht: MSCONS 2.4c</text><text fill="#000000" font-family="sans-serif" font-size="14" lengthAdjust="spacing" textLength="204.1143" x="13" y="283.4789">Kontext: Nachrichtenstruktur</text><text fill="#000000" font-family="sans-serif" font-size="14" lengthAdjust="spacing" textLength="110.5439" x="13" y="299.7757">Pflichtfeld: Nein</text><text fill="#000000" font-family="sans-serif" font-size="14" lengthAdjust="spacing" textLength="603.7295" x="13" y="316.0726">Codes: 000, 100, 20, 21, 22, 23, 24, 25, 26, 99, CCI, DTM, ID, LIN, RFF, SG7, SG8, SG9</text><text fill="#000000" font-family="sans-serif" font-size="14" lengthAdjust="spacing" textLength="405.4463" x="13" y="332.3695">Prozesse: Anforderung und &#220;bermittlung von Messwerten</text><text fill="#000000" font-family="sans-serif" font-size="14" lengthAdjust="spacing" textLength="294.1641" x="13" y="348.6664">Quelle: MSCONS_MIG_2_4c_20231024.pdf</text><line style="stroke:#181818;stroke-width:0.5;" x1="8" x2="621.7295" y1="355.9681" y2="355.9681"/></g><!--class SEGMENTNAME_LIN_proc_1--><g class="entity" data-entity="SEGMENTNAME_LIN_proc_1" data-source-line="16" data-uid="ent0005" id="entity_SEGMENTNAME_LIN_proc_1"><rect fill="#F1F1F1" height="105.1563" rx="2.5" ry="2.5" style="stroke:#181818;stroke-width:0.5;" width="378.2285" x="657.75" y="238.4969"/><ellipse cx="746.2549" cy="258.6297" fill="#ADD1B2" rx="11" ry="11" style="stroke:#181818;stroke-width:1;"/><path d="M749.2236,264.2703 Q748.6455,264.5672 748.0049,264.7078 Q747.3643,264.8641 746.6611,264.8641 Q744.1611,264.8641 742.833,263.2234 Q741.5205,261.5672 741.5205,258.4422 Q741.5205,255.3172 742.833,253.6609 Q744.1611,252.0047 746.6611,252.0047 Q747.3643,252.0047 748.0049,252.1609 Q748.6611,252.3172 749.2236,252.6141 L749.2236,255.3328 Q748.5986,254.7547 748.0049,254.4891 Q747.4111,254.2078 746.7861,254.2078 Q745.4424,254.2078 744.7549,255.2859 Q744.0674,256.3484 744.0674,258.4422 Q744.0674,260.5359 744.7549,261.6141 Q745.4424,262.6766 746.7861,262.6766 Q747.4111,262.6766 748.0049,262.4109 Q748.5986,262.1297 749.2236,261.5516 L749.2236,264.2703 Z " fill="#000000"/><text fill="#000000" font-family="sans-serif" font-size="12" font-style="italic" lengthAdjust="spacing" textLength="61.0605" x="832.584" y="254.6355">&#171;process&#187;</text><text fill="#000000" font-family="sans-serif" font-size="14" lengthAdjust="spacing" textLength="192.7188" x="766.7549" y="270.4607">SEGMENTNAME_LIN_proc_1</text><line style="stroke:#181818;stroke-width:0.5;" x1="658.75" x2="1034.9785" y1="278.7625" y2="278.7625"/><text fill="#000000" font-family="sans-serif" font-size="14" lengthAdjust="spacing" textLength="334.3525" x="663.75" y="295.7576">Anforderung und &#220;bermittlung von Messwerten</text><text fill="#000000" font-family="sans-serif" font-size="14" lengthAdjust="spacing" textLength="105.0957" x="663.75" y="312.0545">Gesetze: MsbG</text><line style="stroke:#181818;stroke-width:0.5;" x1="658.75" x2="1034.9785" y1="319.3563" y2="319.3563"/><text fill="#000000" font-family="sans-serif" font-size="14" lengthAdjust="spacing" textLength="366.2285" x="663.75" y="336.3514">Zusammenfassung: Wie kann ein Marktpartner (z.B.</text></g><!--link SEGMENTNAME_LIN to SEGMENTNAME_LIN_msg_1--><g class="link" data-entity-1="SEGMENTNAME_LIN" data-entity-2="SEGMENTNAME_LIN_msg_1" data-source-line="15" data-uid="lnk4" id="link_SEGMENTNAME_LIN_SEGMENTNAME_LIN_msg_1"><path codeLine="15" d="M516.13,141.5169 C485.07,164.4469 452.0179,188.8444 417.5279,214.2944" fill="none" id="SEGMENTNAME_LIN-to-SEGMENTNAME_LIN_msg_1" style="stroke:#181818;stroke-width:1;"/><polygon fill="#181818" points="412.7,217.8569,422.3169,215.7317,416.7233,214.8881,417.5669,209.2945,412.7,217.8569" style="stroke:#181818;stroke-width:1;"/><text fill="#000000" font-family="sans-serif" font-size="13" lengthAdjust="spacing" textLength="85.2363" x="472.86" y="184.2538">verwendet in</text></g><!--link SEGMENTNAME_LIN to SEGMENTNAME_LIN_proc_1--><g class="link" data-entity-1="SEGMENTNAME_LIN" data-entity-2="SEGMENTNAME_LIN_proc_1" data-source-line="21" data-uid="lnk6" id="link_SEGMENTNAME_LIN_SEGMENTNAME_LIN_proc_1"><path codeLine="21" d="M645.6,141.5169 C685.27,170.8069 731.2426,204.7337 771.8726,234.7237" fill="none" id="SEGMENTNAME_LIN-to-SEGMENTNAME_LIN_proc_1" style="stroke:#181818;stroke-width:1;stroke-dasharray:7,7;"/><polygon fill="#181818" points="776.7,238.2869,771.8344,229.7238,772.6772,235.3175,767.0835,236.1603,776.7,238.2869" style="stroke:#181818;stroke-width:1;"/><text fill="#000000" font-family="sans-serif" font-size="13" lengthAdjust="spacing" textLength="91.6221" x="707.86" y="184.2538">eingebettet in</text></g><!--SRC=[bL7BRi8m4Bpp5Nli8KH9e0yYX4HvH56Rb3P8bNg9GhA1YCH1zePMLFsJ_ar_h6lKLgY20uTPsUErTsPC1PK8uuHG95Gc2jeGJRnW4ix3OJ1nx_smbJAj3jcOMNXl0OH9XIwKUMR2h5O55RLWTYRh7Ig5Bg-1tnkAl9OPoaOieH4PV7qkK5O5KQcPRIqWuFPNbAoXzN5yN5ofPMp_34rNiaXNv48GZHx221opc_B1NIq8tvZ-wq2XI3PhQgIMbPUQox7Ck0KBBNLKPwXSi2pB05iNHyDcE8mEeykuP5mPqEiPC1hv1epdWG7-s00MPi3JT6f0v5thSgDBxp23yzm3F3POblXhBGvyBtRYRXexbjEnBQThRhASG_h_6-tsu4HaBcnHlgB8a80z7qzt8-kKU_jzlM0vWy4-wZErUwYGTbgyMdYyVsbKKbKeSXx95rnuBX3MYH30wKEGo3Lj4aa29Lpip5lpY2_J79mIw-fNbhX0ehsrRm00]--></g></svg>