<svg xmlns="http://www.w3.org/2000/svg" xmlns:xlink="http://www.w3.org/1999/xlink" contentStyleType="text/css" data-diagram-type="CLASS" height="370px" preserveAspectRatio="none" style="width:1782px;height:370px;background:#FFFFFF;" version="1.1" viewBox="0 0 1782 370" width="1782px" zoomAndPan="magnify"><title>Datenatlas - SG27:1020</title><defs/><g><g class="title" data-source-line="1"><text fill="#000000" font-family="sans-serif" font-size="14" font-weight="bold" lengthAdjust="spacing" textLength="187.1201" x="790.763" y="22.9951">Datenatlas - SG27:1020</text></g><!--class SG27_1020--><g class="entity" data-entity="SG27_1020" data-source-line="2" data-uid="ent0002" id="entity_SG27_1020"><rect fill="#F1F1F1" height="96.8906" rx="2.5" ry="2.5" style="stroke:#181818;stroke-width:0.5;" width="378.6182" x="484.34" y="44.2969"/><ellipse cx="629.3097" cy="60.2969" fill="#ADD1B2" rx="11" ry="11" style="stroke:#181818;stroke-width:1;"/><path d="M632.2785,65.9375 Q631.7004,66.2344 631.0597,66.375 Q630.4191,66.5313 629.716,66.5313 Q627.216,66.5313 625.8879,64.8906 Q624.5754,63.2344 624.5754,60.1094 Q624.5754,56.9844 625.8879,55.3281 Q627.216,53.6719 629.716,53.6719 Q630.4191,53.6719 631.0597,53.8281 Q631.716,53.9844 632.2785,54.2813 L632.2785,57 Q631.6535,56.4219 631.0597,56.1563 Q630.466,55.875 629.841,55.875 Q628.4972,55.875 627.8097,56.9531 Q627.1222,58.0156 627.1222,60.1094 Q627.1222,62.2031 627.8097,63.2813 Q628.4972,64.3438 629.841,64.3438 Q630.466,64.3438 631.0597,64.0781 Q631.6535,63.7969 632.2785,63.2188 L632.2785,65.9375 Z " fill="#000000"/><text fill="#000000" font-family="sans-serif" font-size="14" lengthAdjust="spacing" textLength="80.1787" x="649.8097" y="65.1436">SG27_1020</text><line style="stroke:#181818;stroke-width:0.5;" x1="485.34" x2="861.9582" y1="76.2969" y2="76.2969"/><text fill="#000000" font-family="sans-serif" font-size="14" lengthAdjust="spacing" textLength="366.6182" x="490.34" y="93.292">Name: Erforderliches Produkt Ad - hoc - Steuerkanal</text><text fill="#000000" font-family="sans-serif" font-size="14" lengthAdjust="spacing" textLength="66.6436" x="490.34" y="109.5889">Prozesse:</text><line style="stroke:#181818;stroke-width:0.5;" x1="485.34" x2="861.9582" y1="116.8906" y2="116.8906"/><rect fill="#F24D5C" height="6" style="stroke:#C82930;stroke-width:1;" width="6" x="492.34" y="127.5391"/><text fill="#000000" font-family="sans-serif" font-size="14" lengthAdjust="spacing" textLength="348.2021" x="504.34" y="133.8857">Bestellung einer technischen Konfiguration (MSB)</text></g><!--class SG27_1020_msg_1--><g class="entity" data-entity="SG27_1020_msg_1" data-source-line="7" data-uid="ent0003" id="entity_SG27_1020_msg_1"><rect fill="#F1F1F1" height="145.7813" rx="2.5" ry="2.5" style="stroke:#181818;stroke-width:0.5;" width="431.2959" x="7" y="218.1869"/><ellipse cx="151.9458" cy="234.1869" fill="#ADD1B2" rx="11" ry="11" style="stroke:#181818;stroke-width:1;"/><path d="M154.9146,239.8275 Q154.3364,240.1244 153.6958,240.265 Q153.0552,240.4213 152.3521,240.4213 Q149.8521,240.4213 148.5239,238.7806 Q147.2114,237.1244 147.2114,233.9994 Q147.2114,230.8744 148.5239,229.2181 Q149.8521,227.5619 152.3521,227.5619 Q153.0552,227.5619 153.6958,227.7181 Q154.3521,227.8744 154.9146,228.1713 L154.9146,230.89 Q154.2896,230.3119 153.6958,230.0463 Q153.1021,229.765 152.4771,229.765 Q151.1333,229.765 150.4458,230.8431 Q149.7583,231.9056 149.7583,233.9994 Q149.7583,236.0931 150.4458,237.1713 Q151.1333,238.2338 152.4771,238.2338 Q153.1021,238.2338 153.6958,237.9681 Q154.2896,237.6869 154.9146,237.1088 L154.9146,239.8275 Z " fill="#000000"/><text fill="#000000" font-family="sans-serif" font-size="14" lengthAdjust="spacing" textLength="132.9043" x="172.4458" y="239.0336">SG27_1020_msg_1</text><line style="stroke:#181818;stroke-width:0.5;" x1="8" x2="437.2959" y1="250.1869" y2="250.1869"/><text fill="#000000" font-family="sans-serif" font-size="14" lengthAdjust="spacing" textLength="170.1055" x="13" y="267.182">Nachricht: REQOTE 1.3b</text><text fill="#000000" font-family="sans-serif" font-size="14" lengthAdjust="spacing" textLength="204.1143" x="13" y="283.4789">Kontext: Nachrichtenstruktur</text><text fill="#000000" font-family="sans-serif" font-size="14" lengthAdjust="spacing" textLength="91.4033" x="13" y="299.7757">Pflichtfeld: Ja</text><text fill="#000000" font-family="sans-serif" font-size="14" lengthAdjust="spacing" textLength="147.2256" x="13" y="316.0726">Codes: 000, 200, CCI</text><text fill="#000000" font-family="sans-serif" font-size="14" lengthAdjust="spacing" textLength="292.2432" x="13" y="332.3695">Quelle: REQOTE_MIG_1_3b_20241001.pdf</text><line style="stroke:#181818;stroke-width:0.5;" x1="8" x2="437.2959" y1="339.6713" y2="339.6713"/><text fill="#000000" font-family="sans-serif" font-size="14" lengthAdjust="spacing" textLength="419.2959" x="13" y="356.6664">Prozesse: Bestellung einer technischen Konfiguration (MSB)</text></g><!--class SG27_1020_proc_1--><g class="entity" data-entity="SG27_1020_proc_1" data-source-line="16" data-uid="ent0005" id="entity_SG27_1020_proc_1"><rect fill="#F1F1F1" height="105.1563" rx="2.5" ry="2.5" style="stroke:#181818;stroke-width:0.5;" width="1301.9961" x="473.65" y="238.4969"/><ellipse cx="1053.4024" cy="258.6297" fill="#ADD1B2" rx="11" ry="11" style="stroke:#181818;stroke-width:1;"/><path d="M1056.3712,264.2703 Q1055.7931,264.5672 1055.1524,264.7078 Q1054.5118,264.8641 1053.8087,264.8641 Q1051.3087,264.8641 1049.9806,263.2234 Q1048.6681,261.5672 1048.6681,258.4422 Q1048.6681,255.3172 1049.9806,253.6609 Q1051.3087,252.0047 1053.8087,252.0047 Q1054.5118,252.0047 1055.1524,252.1609 Q1055.8087,252.3172 1056.3712,252.6141 L1056.3712,255.3328 Q1055.7462,254.7547 1055.1524,254.4891 Q1054.5587,254.2078 1053.9337,254.2078 Q1052.5899,254.2078 1051.9024,255.2859 Q1051.2149,256.3484 1051.2149,258.4422 Q1051.2149,260.5359 1051.9024,261.6141 Q1052.5899,262.6766 1053.9337,262.6766 Q1054.5587,262.6766 1055.1524,262.4109 Q1055.7462,262.1297 1056.3712,261.5516 L1056.3712,264.2703 Z " fill="#000000"/><text fill="#000000" font-family="sans-serif" font-size="12" font-style="italic" lengthAdjust="spacing" textLength="61.0605" x="1110.3678" y="254.6355">&#171;process&#187;</text><text fill="#000000" font-family="sans-serif" font-size="14" lengthAdjust="spacing" textLength="133.9912" x="1073.9024" y="270.4607">SG27_1020_proc_1</text><line style="stroke:#181818;stroke-width:0.5;" x1="474.65" x2="1774.6461" y1="278.7625" y2="278.7625"/><text fill="#000000" font-family="sans-serif" font-size="14" lengthAdjust="spacing" textLength="156.4063" x="479.65" y="295.7576">Gesetze: MsbG, EnWG</text><text fill="#000000" font-family="sans-serif" font-size="14" lengthAdjust="spacing" textLength="1289.9961" x="479.65" y="312.0545">Zusammenfassung: Erl&#228;utere den Prozess zur Bestellung einer spezifischen technischen Konfiguration bei einem Messstellenbetreiber, beispielsweise f&#252;r ein intelligentes Messsystem.</text><line style="stroke:#181818;stroke-width:0.5;" x1="474.65" x2="1774.6461" y1="319.3563" y2="319.3563"/><text fill="#000000" font-family="sans-serif" font-size="14" lengthAdjust="spacing" textLength="348.2021" x="479.65" y="336.3514">Bestellung einer technischen Konfiguration (MSB)</text></g><!--link SG27_1020 to SG27_1020_msg_1--><g class="link" data-entity-1="SG27_1020" data-entity-2="SG27_1020_msg_1" data-source-line="15" data-uid="lnk4" id="link_SG27_1020_SG27_1020_msg_1"><path codeLine="15" d="M563.61,141.6469 C511.07,164.5169 452.5712,189.9816 394.2812,215.3616" fill="none" id="SG27_1020-to-SG27_1020_msg_1" style="stroke:#181818;stroke-width:1;"/><polygon fill="#181818" points="388.78,217.7569,398.6286,217.8314,393.3643,215.7608,395.4349,210.4966,388.78,217.7569" style="stroke:#181818;stroke-width:1;"/><text fill="#000000" font-family="sans-serif" font-size="13" lengthAdjust="spacing" textLength="85.2363" x="489.65" y="184.2538">verwendet in</text></g><!--link SG27_1020 to SG27_1020_proc_1--><g class="link" data-entity-1="SG27_1020" data-entity-2="SG27_1020_proc_1" data-source-line="21" data-uid="lnk6" id="link_SG27_1020_SG27_1020_proc_1"><path codeLine="21" d="M783.69,141.6469 C850.7,170.8169 930.8486,205.7122 999.5386,235.6122" fill="none" id="SG27_1020-to-SG27_1020_proc_1" style="stroke:#181818;stroke-width:1;stroke-dasharray:7,7;"/><polygon fill="#181818" points="1005.04,238.0069,998.3844,230.7472,1000.4555,236.0113,995.1914,238.0824,1005.04,238.0069" style="stroke:#181818;stroke-width:1;"/><text fill="#000000" font-family="sans-serif" font-size="13" lengthAdjust="spacing" textLength="91.6221" x="886.65" y="184.2538">eingebettet in</text></g><!--SRC=[dP7TRjD048NlynHpIQN4ibqa9AkAH4Da5HIW50c96sjj7pkhhjVHxYo58Dw6n-XTNunPa_BJg1TmuvsTdpFV7hDc0tgX65QnKPuMT5NcpueipTDP8ma_tQjufwypejTgG45hruskXJEwsSBJMpUsuPhfUIlpsx69Aem0TwsiCZ8b3NjuZq9YakevFCEOO7k2jd34QBPMUr6pz6gqdUw3Kwn7IqysL-SdisyFOQh1zrLsG6gsJa2ue7VhopVlrvGbfxKKH8ZnMTA_Ec0zEo4DBa9r4PyxcBQWbqeogx65BoXDqpdbyRDQNVn9_-_SH9T11d2FLcqkoYghJkigJ_EdMPfcoQxjv7c_NLuibaVFBEWJt0ri2oPjZxpOkR6HhhEp60ZfSZaPyn-q9JnuBxWRNvTpMjiFfMG_1g-60RQJjQ8M_x-v-nuO3jIAri4WsWTtlDJliDVTOUlZ13NqD33GHgGc3TWQxA1hk7ci-vs6yJSIWBgxMnVxnOxOgdl8wN_EVf7f8VdBr2HP7ljLH84UieGdNty0]--></g></svg>