<svg xmlns="http://www.w3.org/2000/svg" xmlns:xlink="http://www.w3.org/1999/xlink" contentStyleType="text/css" data-diagram-type="CLASS" height="370px" preserveAspectRatio="none" style="width:844px;height:370px;background:#FFFFFF;" version="1.1" viewBox="0 0 844 370" width="844px" zoomAndPan="magnify"><title>Datenatlas - SG5:NAD</title><defs/><g><g class="title" data-source-line="1"><text fill="#000000" font-family="sans-serif" font-size="14" font-weight="bold" lengthAdjust="spacing" textLength="172.5869" x="329.1258" y="22.9951">Datenatlas - SG5:NAD</text></g><!--class SG5_NAD--><g class="entity" data-entity="SG5_NAD" data-source-line="2" data-uid="ent0002" id="entity_SG5_NAD"><rect fill="#F1F1F1" height="96.8906" rx="2.5" ry="2.5" style="stroke:#181818;stroke-width:0.5;" width="360.3525" x="251.55" y="44.2969"/><ellipse cx="394.2399" cy="60.2969" fill="#ADD1B2" rx="11" ry="11" style="stroke:#181818;stroke-width:1;"/><path d="M397.2087,65.9375 Q396.6306,66.2344 395.9899,66.375 Q395.3493,66.5313 394.6462,66.5313 Q392.1462,66.5313 390.8181,64.8906 Q389.5056,63.2344 389.5056,60.1094 Q389.5056,56.9844 390.8181,55.3281 Q392.1462,53.6719 394.6462,53.6719 Q395.3493,53.6719 395.9899,53.8281 Q396.6462,53.9844 397.2087,54.2813 L397.2087,57 Q396.5837,56.4219 395.9899,56.1563 Q395.3962,55.875 394.7712,55.875 Q393.4274,55.875 392.7399,56.9531 Q392.0524,58.0156 392.0524,60.1094 Q392.0524,62.2031 392.7399,63.2813 Q393.4274,64.3438 394.7712,64.3438 Q395.3962,64.3438 395.9899,64.0781 Q396.5837,63.7969 397.2087,63.2188 L397.2087,65.9375 Z " fill="#000000"/><text fill="#000000" font-family="sans-serif" font-size="14" lengthAdjust="spacing" textLength="66.4727" x="414.7399" y="65.1436">SG5_NAD</text><line style="stroke:#181818;stroke-width:0.5;" x1="252.55" x2="610.9025" y1="76.2969" y2="76.2969"/><text fill="#000000" font-family="sans-serif" font-size="14" lengthAdjust="spacing" textLength="183.3398" x="271.55" y="93.292">Name: Name und Adresse</text><text fill="#000000" font-family="sans-serif" font-size="14" lengthAdjust="spacing" textLength="66.6436" x="271.55" y="109.5889">Prozesse:</text><rect fill="none" height="6" style="stroke:#C82930;stroke-width:1;" width="6" x="259.55" y="119.5391"/><text fill="#000000" font-family="sans-serif" font-size="14" lengthAdjust="spacing" textLength="334.3525" x="271.55" y="125.8857">Anforderung und &#220;bermittlung von Messwerten</text><line style="stroke:#181818;stroke-width:0.5;" x1="252.55" x2="610.9025" y1="133.1875" y2="133.1875"/></g><!--class SG5_NAD_msg_1--><g class="entity" data-entity="SG5_NAD_msg_1" data-source-line="7" data-uid="ent0003" id="entity_SG5_NAD_msg_1"><rect fill="#F1F1F1" height="145.7813" rx="2.5" ry="2.5" style="stroke:#181818;stroke-width:0.5;" width="417.4463" x="7" y="218.1869"/><ellipse cx="151.874" cy="234.1869" fill="#ADD1B2" rx="11" ry="11" style="stroke:#181818;stroke-width:1;"/><path d="M154.8428,239.8275 Q154.2646,240.1244 153.624,240.265 Q152.9834,240.4213 152.2803,240.4213 Q149.7803,240.4213 148.4521,238.7806 Q147.1396,237.1244 147.1396,233.9994 Q147.1396,230.8744 148.4521,229.2181 Q149.7803,227.5619 152.2803,227.5619 Q152.9834,227.5619 153.624,227.7181 Q154.2803,227.8744 154.8428,228.1713 L154.8428,230.89 Q154.2178,230.3119 153.624,230.0463 Q153.0303,229.765 152.4053,229.765 Q151.0615,229.765 150.374,230.8431 Q149.6865,231.9056 149.6865,233.9994 Q149.6865,236.0931 150.374,237.1713 Q151.0615,238.2338 152.4053,238.2338 Q153.0303,238.2338 153.624,237.9681 Q154.2178,237.6869 154.8428,237.1088 L154.8428,239.8275 Z " fill="#000000"/><text fill="#000000" font-family="sans-serif" font-size="14" lengthAdjust="spacing" textLength="119.1982" x="172.374" y="239.0336">SG5_NAD_msg_1</text><line style="stroke:#181818;stroke-width:0.5;" x1="8" x2="423.4463" y1="250.1869" y2="250.1869"/><text fill="#000000" font-family="sans-serif" font-size="14" lengthAdjust="spacing" textLength="172.0264" x="13" y="267.182">Nachricht: MSCONS 2.4c</text><text fill="#000000" font-family="sans-serif" font-size="14" lengthAdjust="spacing" textLength="123.0605" x="13" y="283.4789">Kontext: Beispiel:</text><text fill="#000000" font-family="sans-serif" font-size="14" lengthAdjust="spacing" textLength="91.4033" x="13" y="299.7757">Pflichtfeld: Ja</text><text fill="#000000" font-family="sans-serif" font-size="14" lengthAdjust="spacing" textLength="290.5479" x="13" y="316.0726">Codes: 15, DED, DP, NAD, OCR, SG5, Z15</text><text fill="#000000" font-family="sans-serif" font-size="14" lengthAdjust="spacing" textLength="405.4463" x="13" y="332.3695">Prozesse: Anforderung und &#220;bermittlung von Messwerten</text><text fill="#000000" font-family="sans-serif" font-size="14" lengthAdjust="spacing" textLength="294.1641" x="13" y="348.6664">Quelle: MSCONS_MIG_2_4c_20231024.pdf</text><line style="stroke:#181818;stroke-width:0.5;" x1="8" x2="423.4463" y1="355.9681" y2="355.9681"/></g><!--class SG5_NAD_proc_1--><g class="entity" data-entity="SG5_NAD_proc_1" data-source-line="16" data-uid="ent0005" id="entity_SG5_NAD_proc_1"><rect fill="#F1F1F1" height="105.1563" rx="2.5" ry="2.5" style="stroke:#181818;stroke-width:0.5;" width="378.2285" x="459.61" y="238.4969"/><ellipse cx="584.3317" cy="258.6297" fill="#ADD1B2" rx="11" ry="11" style="stroke:#181818;stroke-width:1;"/><path d="M587.3004,264.2703 Q586.7223,264.5672 586.0817,264.7078 Q585.4411,264.8641 584.7379,264.8641 Q582.2379,264.8641 580.9098,263.2234 Q579.5973,261.5672 579.5973,258.4422 Q579.5973,255.3172 580.9098,253.6609 Q582.2379,252.0047 584.7379,252.0047 Q585.4411,252.0047 586.0817,252.1609 Q586.7379,252.3172 587.3004,252.6141 L587.3004,255.3328 Q586.6754,254.7547 586.0817,254.4891 Q585.4879,254.2078 584.8629,254.2078 Q583.5192,254.2078 582.8317,255.2859 Q582.1442,256.3484 582.1442,258.4422 Q582.1442,260.5359 582.8317,261.6141 Q583.5192,262.6766 584.8629,262.6766 Q585.4879,262.6766 586.0817,262.4109 Q586.6754,262.1297 587.3004,261.5516 L587.3004,264.2703 Z " fill="#000000"/><text fill="#000000" font-family="sans-serif" font-size="12" font-style="italic" lengthAdjust="spacing" textLength="61.0605" x="634.444" y="254.6355">&#171;process&#187;</text><text fill="#000000" font-family="sans-serif" font-size="14" lengthAdjust="spacing" textLength="120.2852" x="604.8317" y="270.4607">SG5_NAD_proc_1</text><line style="stroke:#181818;stroke-width:0.5;" x1="460.61" x2="836.8385" y1="278.7625" y2="278.7625"/><text fill="#000000" font-family="sans-serif" font-size="14" lengthAdjust="spacing" textLength="334.3525" x="465.61" y="295.7576">Anforderung und &#220;bermittlung von Messwerten</text><text fill="#000000" font-family="sans-serif" font-size="14" lengthAdjust="spacing" textLength="105.0957" x="465.61" y="312.0545">Gesetze: MsbG</text><line style="stroke:#181818;stroke-width:0.5;" x1="460.61" x2="836.8385" y1="319.3563" y2="319.3563"/><text fill="#000000" font-family="sans-serif" font-size="14" lengthAdjust="spacing" textLength="366.2285" x="465.61" y="336.3514">Zusammenfassung: Wie kann ein Marktpartner (z.B.</text></g><!--link SG5_NAD to SG5_NAD_msg_1--><g class="link" data-entity-1="SG5_NAD" data-entity-2="SG5_NAD_msg_1" data-source-line="15" data-uid="lnk4" id="link_SG5_NAD_SG5_NAD_msg_1"><path codeLine="15" d="M379.16,141.5169 C353.93,164.4469 327.61,188.3712 299.61,213.8212" fill="none" id="SG5_NAD-to-SG5_NAD_msg_1" style="stroke:#181818;stroke-width:1;"/><polygon fill="#181818" points="295.17,217.8569,304.5204,214.7634,298.87,214.4938,299.1396,208.8434,295.17,217.8569" style="stroke:#181818;stroke-width:1;"/><text fill="#000000" font-family="sans-serif" font-size="13" lengthAdjust="spacing" textLength="85.2363" x="344.72" y="184.2538">verwendet in</text></g><!--link SG5_NAD to SG5_NAD_proc_1--><g class="link" data-entity-1="SG5_NAD" data-entity-2="SG5_NAD_proc_1" data-source-line="21" data-uid="lnk6" id="link_SG5_NAD_SG5_NAD_proc_1"><path codeLine="21" d="M484.53,141.5169 C516.9,170.8069 553.8906,204.2716 587.0406,234.2616" fill="none" id="SG5_NAD-to-SG5_NAD_proc_1" style="stroke:#181818;stroke-width:1;stroke-dasharray:7,7;"/><polygon fill="#181818" points="591.49,238.2869,587.4994,229.2827,587.7822,234.9325,582.1324,235.2152,591.49,238.2869" style="stroke:#181818;stroke-width:1;"/><text fill="#000000" font-family="sans-serif" font-size="13" lengthAdjust="spacing" textLength="91.6221" x="533.72" y="184.2538">eingebettet in</text></g><!--SRC=[bP1BRi8m48Rtd6AMNOI8fB2nK2GWLTHMF5eMbTXO9fc0XUD4jWCLLM_Is_HY7KT5QjcniURnZxz_nacd45BXK0kdX8K-hBCHMqpINawfzHcd33vw00jH8UjUQ7K1ayAWjKYDbQdFFcGK0tqnqMLj2ZIjtdNAxwyjcaewftpbM6kOa_o4Xh2zp_yaNjaTZtvv-Tx8VEyOpDUpvM8DSJZCgV5SQuVlL9wYj8r4vS6hKdbjYQfWy2IeCgiBj0oYKG3fGqhFAW0Y1B2SlGQU5y0c6ltrVvjpW9SMbSABFJv_p7ZCXpcF1_5zD8Y7OLEKjE3bYFr-ShKcWoEQ4-e27KXzTOd6r3bfncCV43P9khFSw353Y-xiJTfjHlccjQAgK9U4eW46RnBX8BG6b3GgpC4rmZYD1kxEuJJyupyCasjpp4_jS8lETIly0000]--></g></svg>