<svg xmlns="http://www.w3.org/2000/svg" xmlns:xlink="http://www.w3.org/1999/xlink" contentStyleType="text/css" data-diagram-type="CLASS" height="387px" preserveAspectRatio="none" style="width:2552px;height:387px;background:#FFFFFF;" version="1.1" viewBox="0 0 2552 387" width="2552px" zoomAndPan="magnify"><title>Datenatlas - TAX:00058</title><defs/><g><g class="title" data-source-line="1"><text fill="#000000" font-family="sans-serif" font-size="14" font-weight="bold" lengthAdjust="spacing" textLength="186.9834" x="1175.9721" y="22.9951">Datenatlas - TAX:00058</text></g><!--class TAX_00058--><g class="entity" data-entity="TAX_00058" data-source-line="2" data-uid="ent0002" id="entity_TAX_00058"><rect fill="#F1F1F1" height="113.1875" rx="2.5" ry="2.5" style="stroke:#181818;stroke-width:0.5;" width="276.2773" x="976.67" y="44.2969"/><ellipse cx="1070.9307" cy="60.2969" fill="#ADD1B2" rx="11" ry="11" style="stroke:#181818;stroke-width:1;"/><path d="M1073.8995,65.9375 Q1073.3214,66.2344 1072.6807,66.375 Q1072.0401,66.5313 1071.337,66.5313 Q1068.837,66.5313 1067.5089,64.8906 Q1066.1964,63.2344 1066.1964,60.1094 Q1066.1964,56.9844 1067.5089,55.3281 Q1068.837,53.6719 1071.337,53.6719 Q1072.0401,53.6719 1072.6807,53.8281 Q1073.337,53.9844 1073.8995,54.2813 L1073.8995,57 Q1073.2745,56.4219 1072.6807,56.1563 Q1072.087,55.875 1071.462,55.875 Q1070.1182,55.875 1069.4307,56.9531 Q1068.7432,58.0156 1068.7432,60.1094 Q1068.7432,62.2031 1069.4307,63.2813 Q1070.1182,64.3438 1071.462,64.3438 Q1072.087,64.3438 1072.6807,64.0781 Q1073.2745,63.7969 1073.8995,63.2188 L1073.8995,65.9375 Z " fill="#000000"/><text fill="#000000" font-family="sans-serif" font-size="14" lengthAdjust="spacing" textLength="79.2559" x="1091.4307" y="65.1436">TAX_00058</text><line style="stroke:#181818;stroke-width:0.5;" x1="977.67" x2="1251.9473" y1="76.2969" y2="76.2969"/><text fill="#000000" font-family="sans-serif" font-size="14" lengthAdjust="spacing" textLength="250.2773" x="996.67" y="93.292">Name: Umsatzsteuer der Rechnung</text><text fill="#000000" font-family="sans-serif" font-size="14" lengthAdjust="spacing" textLength="66.6436" x="996.67" y="109.5889">Prozesse:</text><rect fill="none" height="6" style="stroke:#C82930;stroke-width:1;" width="6" x="984.67" y="119.5391"/><text fill="#000000" font-family="sans-serif" font-size="14" lengthAdjust="spacing" textLength="180.3457" x="996.67" y="125.8857">Netznutzungsabrechnung</text><rect fill="none" height="6" style="stroke:#C82930;stroke-width:1;" width="6" x="984.67" y="135.8359"/><text fill="#000000" font-family="sans-serif" font-size="14" lengthAdjust="spacing" textLength="223.2822" x="996.67" y="142.1826">Messstellenbetriebsabrechnung</text><line style="stroke:#181818;stroke-width:0.5;" x1="977.67" x2="1251.9473" y1="149.4844" y2="149.4844"/></g><!--class TAX_00058_msg_1--><g class="entity" data-entity="TAX_00058_msg_1" data-source-line="8" data-uid="ent0003" id="entity_TAX_00058_msg_1"><rect fill="#F1F1F1" height="145.7813" rx="2.5" ry="2.5" style="stroke:#181818;stroke-width:0.5;" width="495.6221" x="7" y="234.4869"/><ellipse cx="184.5703" cy="250.4869" fill="#ADD1B2" rx="11" ry="11" style="stroke:#181818;stroke-width:1;"/><path d="M187.5391,256.1275 Q186.9609,256.4244 186.3203,256.565 Q185.6797,256.7213 184.9766,256.7213 Q182.4766,256.7213 181.1484,255.0806 Q179.8359,253.4244 179.8359,250.2994 Q179.8359,247.1744 181.1484,245.5181 Q182.4766,243.8619 184.9766,243.8619 Q185.6797,243.8619 186.3203,244.0181 Q186.9766,244.1744 187.5391,244.4713 L187.5391,247.19 Q186.9141,246.6119 186.3203,246.3463 Q185.7266,246.065 185.1016,246.065 Q183.7578,246.065 183.0703,247.1431 Q182.3828,248.2056 182.3828,250.2994 Q182.3828,252.3931 183.0703,253.4713 Q183.7578,254.5338 185.1016,254.5338 Q185.7266,254.5338 186.3203,254.2681 Q186.9141,253.9869 187.5391,253.4088 L187.5391,256.1275 Z " fill="#000000"/><text fill="#000000" font-family="sans-serif" font-size="14" lengthAdjust="spacing" textLength="131.9814" x="205.0703" y="255.3336">TAX_00058_msg_1</text><line style="stroke:#181818;stroke-width:0.5;" x1="8" x2="501.6221" y1="266.4869" y2="266.4869"/><text fill="#000000" font-family="sans-serif" font-size="14" lengthAdjust="spacing" textLength="161.1982" x="13" y="283.482">Nachricht: INVOIC 2.8d</text><text fill="#000000" font-family="sans-serif" font-size="14" lengthAdjust="spacing" textLength="204.1143" x="13" y="299.7789">Kontext: Nachrichtenstruktur</text><text fill="#000000" font-family="sans-serif" font-size="14" lengthAdjust="spacing" textLength="91.4033" x="13" y="316.0757">Pflichtfeld: Ja</text><text fill="#000000" font-family="sans-serif" font-size="14" lengthAdjust="spacing" textLength="80.0215" x="13" y="332.3726">Codes: TAX</text><text fill="#000000" font-family="sans-serif" font-size="14" lengthAdjust="spacing" textLength="483.6221" x="13" y="348.6695">Prozesse: Netznutzungsabrechnung, Messstellenbetriebsabrechnung</text><text fill="#000000" font-family="sans-serif" font-size="14" lengthAdjust="spacing" textLength="396.6074" x="13" y="364.9664">Quelle: INVOIC_MIG_2.8d_Fehlerkorrektur_20250131.pdf</text><line style="stroke:#181818;stroke-width:0.5;" x1="8" x2="501.6221" y1="372.2681" y2="372.2681"/></g><!--class TAX_00058_msg_2--><g class="entity" data-entity="TAX_00058_msg_2" data-source-line="17" data-uid="ent0005" id="entity_TAX_00058_msg_2"><rect fill="#F1F1F1" height="145.7813" rx="2.5" ry="2.5" style="stroke:#181818;stroke-width:0.5;" width="495.6221" x="538" y="234.4869"/><ellipse cx="715.5703" cy="250.4869" fill="#ADD1B2" rx="11" ry="11" style="stroke:#181818;stroke-width:1;"/><path d="M718.5391,256.1275 Q717.9609,256.4244 717.3203,256.565 Q716.6797,256.7213 715.9766,256.7213 Q713.4766,256.7213 712.1484,255.0806 Q710.8359,253.4244 710.8359,250.2994 Q710.8359,247.1744 712.1484,245.5181 Q713.4766,243.8619 715.9766,243.8619 Q716.6797,243.8619 717.3203,244.0181 Q717.9766,244.1744 718.5391,244.4713 L718.5391,247.19 Q717.9141,246.6119 717.3203,246.3463 Q716.7266,246.065 716.1016,246.065 Q714.7578,246.065 714.0703,247.1431 Q713.3828,248.2056 713.3828,250.2994 Q713.3828,252.3931 714.0703,253.4713 Q714.7578,254.5338 716.1016,254.5338 Q716.7266,254.5338 717.3203,254.2681 Q717.9141,253.9869 718.5391,253.4088 L718.5391,256.1275 Z " fill="#000000"/><text fill="#000000" font-family="sans-serif" font-size="14" lengthAdjust="spacing" textLength="131.9814" x="736.0703" y="255.3336">TAX_00058_msg_2</text><line style="stroke:#181818;stroke-width:0.5;" x1="539" x2="1032.6221" y1="266.4869" y2="266.4869"/><text fill="#000000" font-family="sans-serif" font-size="14" lengthAdjust="spacing" textLength="165.6484" x="544" y="283.482">Nachricht: INVOIC 2.8d.</text><text fill="#000000" font-family="sans-serif" font-size="14" lengthAdjust="spacing" textLength="204.1143" x="544" y="299.7789">Kontext: Nachrichtenstruktur</text><text fill="#000000" font-family="sans-serif" font-size="14" lengthAdjust="spacing" textLength="91.4033" x="544" y="316.0757">Pflichtfeld: Ja</text><text fill="#000000" font-family="sans-serif" font-size="14" lengthAdjust="spacing" textLength="80.0215" x="544" y="332.3726">Codes: TAX</text><text fill="#000000" font-family="sans-serif" font-size="14" lengthAdjust="spacing" textLength="483.6221" x="544" y="348.6695">Prozesse: Netznutzungsabrechnung, Messstellenbetriebsabrechnung</text><text fill="#000000" font-family="sans-serif" font-size="14" lengthAdjust="spacing" textLength="290.3359" x="544" y="364.9664">Quelle: INVOIC_MIG_2_8d__20240619.pdf</text><line style="stroke:#181818;stroke-width:0.5;" x1="539" x2="1032.6221" y1="372.2681" y2="372.2681"/></g><!--class TAX_00058_proc_1--><g class="entity" data-entity="TAX_00058_proc_1" data-source-line="26" data-uid="ent0007" id="entity_TAX_00058_proc_1"><rect fill="#F1F1F1" height="105.1563" rx="2.5" ry="2.5" style="stroke:#181818;stroke-width:0.5;" width="752.6465" x="1068.49" y="254.7969"/><ellipse cx="1374.0291" cy="274.9297" fill="#ADD1B2" rx="11" ry="11" style="stroke:#181818;stroke-width:1;"/><path d="M1376.9978,280.5703 Q1376.4197,280.8672 1375.7791,281.0078 Q1375.1384,281.1641 1374.4353,281.1641 Q1371.9353,281.1641 1370.6072,279.5234 Q1369.2947,277.8672 1369.2947,274.7422 Q1369.2947,271.6172 1370.6072,269.9609 Q1371.9353,268.3047 1374.4353,268.3047 Q1375.1384,268.3047 1375.7791,268.4609 Q1376.4353,268.6172 1376.9978,268.9141 L1376.9978,271.6328 Q1376.3728,271.0547 1375.7791,270.7891 Q1375.1853,270.5078 1374.5603,270.5078 Q1373.2166,270.5078 1372.5291,271.5859 Q1371.8416,272.6484 1371.8416,274.7422 Q1371.8416,276.8359 1372.5291,277.9141 Q1373.2166,278.9766 1374.5603,278.9766 Q1375.1853,278.9766 1375.7791,278.7109 Q1376.3728,278.4297 1376.9978,277.8516 L1376.9978,280.5703 Z " fill="#000000"/><text fill="#000000" font-family="sans-serif" font-size="12" font-style="italic" lengthAdjust="spacing" textLength="61.0605" x="1430.533" y="270.9355">&#171;process&#187;</text><text fill="#000000" font-family="sans-serif" font-size="14" lengthAdjust="spacing" textLength="133.0684" x="1394.5291" y="286.7607">TAX_00058_proc_1</text><line style="stroke:#181818;stroke-width:0.5;" x1="1069.49" x2="1820.1365" y1="295.0625" y2="295.0625"/><text fill="#000000" font-family="sans-serif" font-size="14" lengthAdjust="spacing" textLength="180.3457" x="1074.49" y="312.0576">Netznutzungsabrechnung</text><text fill="#000000" font-family="sans-serif" font-size="14" lengthAdjust="spacing" textLength="218.0938" x="1074.49" y="328.3545">Gesetze: StromNEV, StromNZV</text><text fill="#000000" font-family="sans-serif" font-size="14" lengthAdjust="spacing" textLength="740.6465" x="1074.49" y="344.6514">Zusammenfassung: Wie funktioniert die Netznutzungsabrechnung zwischen Netzbetreiber und Lieferant?</text><line style="stroke:#181818;stroke-width:0.5;" x1="1069.49" x2="1820.1365" y1="351.9531" y2="351.9531"/></g><!--class TAX_00058_proc_2--><g class="entity" data-entity="TAX_00058_proc_2" data-source-line="32" data-uid="ent0009" id="entity_TAX_00058_proc_2"><rect fill="#F1F1F1" height="105.1563" rx="2.5" ry="2.5" style="stroke:#181818;stroke-width:0.5;" width="690.2275" x="1855.7" y="254.7969"/><ellipse cx="2130.0296" cy="274.9297" fill="#ADD1B2" rx="11" ry="11" style="stroke:#181818;stroke-width:1;"/><path d="M2132.9983,280.5703 Q2132.4202,280.8672 2131.7796,281.0078 Q2131.139,281.1641 2130.4358,281.1641 Q2127.9358,281.1641 2126.6077,279.5234 Q2125.2952,277.8672 2125.2952,274.7422 Q2125.2952,271.6172 2126.6077,269.9609 Q2127.9358,268.3047 2130.4358,268.3047 Q2131.139,268.3047 2131.7796,268.4609 Q2132.4358,268.6172 2132.9983,268.9141 L2132.9983,271.6328 Q2132.3733,271.0547 2131.7796,270.7891 Q2131.1858,270.5078 2130.5608,270.5078 Q2129.2171,270.5078 2128.5296,271.5859 Q2127.8421,272.6484 2127.8421,274.7422 Q2127.8421,276.8359 2128.5296,277.9141 Q2129.2171,278.9766 2130.5608,278.9766 Q2131.1858,278.9766 2131.7796,278.7109 Q2132.3733,278.4297 2132.9983,277.8516 L2132.9983,280.5703 Z " fill="#000000"/><text fill="#000000" font-family="sans-serif" font-size="12" font-style="italic" lengthAdjust="spacing" textLength="61.0605" x="2186.5335" y="270.9355">&#171;process&#187;</text><text fill="#000000" font-family="sans-serif" font-size="14" lengthAdjust="spacing" textLength="133.0684" x="2150.5296" y="286.7607">TAX_00058_proc_2</text><line style="stroke:#181818;stroke-width:0.5;" x1="1856.7" x2="2544.9275" y1="295.0625" y2="295.0625"/><text fill="#000000" font-family="sans-serif" font-size="14" lengthAdjust="spacing" textLength="223.2822" x="1861.7" y="312.0576">Messstellenbetriebsabrechnung</text><text fill="#000000" font-family="sans-serif" font-size="14" lengthAdjust="spacing" textLength="105.0957" x="1861.7" y="328.3545">Gesetze: MsbG</text><text fill="#000000" font-family="sans-serif" font-size="14" lengthAdjust="spacing" textLength="678.2275" x="1861.7" y="344.6514">Zusammenfassung: Beschreibe den Prozess der Abrechnung von Messstellenbetriebsleistungen.</text><line style="stroke:#181818;stroke-width:0.5;" x1="1856.7" x2="2544.9275" y1="351.9531" y2="351.9531"/></g><!--link TAX_00058 to TAX_00058_msg_1--><g class="link" data-entity-1="TAX_00058" data-entity-2="TAX_00058_msg_1" data-source-line="16" data-uid="lnk4" id="link_TAX_00058_TAX_00058_msg_1"><path codeLine="16" d="M976.38,130.9769 C855.73,156.7569 676.23,196.1569 520.81,234.4869 C514.89,235.9469 514.7186,235.9726 508.6786,237.4926" fill="none" id="TAX_00058-to-TAX_00058_msg_1" style="stroke:#181818;stroke-width:1;"/><polygon fill="#181818" points="502.86,238.9569,512.5641,240.6395,507.7088,237.7366,510.6117,232.8814,502.86,238.9569" style="stroke:#181818;stroke-width:1;"/><text fill="#000000" font-family="sans-serif" font-size="13" lengthAdjust="spacing" textLength="85.2363" x="717.81" y="200.5538">verwendet in</text></g><!--link TAX_00058 to TAX_00058_msg_2--><g class="link" data-entity-1="TAX_00058" data-entity-2="TAX_00058_msg_2" data-source-line="25" data-uid="lnk6" id="link_TAX_00058_TAX_00058_msg_2"><path codeLine="25" d="M1024.91,157.7669 C987.05,181.2969 947.5959,205.8196 907.2759,230.8796" fill="none" id="TAX_00058-to-TAX_00058_msg_2" style="stroke:#181818;stroke-width:1;"/><polygon fill="#181818" points="902.18,234.0469,911.9354,232.6933,906.4266,231.4075,907.7124,225.8987,902.18,234.0469" style="stroke:#181818;stroke-width:1;"/><text fill="#000000" font-family="sans-serif" font-size="13" lengthAdjust="spacing" textLength="85.2363" x="971.81" y="200.5538">verwendet in</text></g><!--link TAX_00058 to TAX_00058_proc_1--><g class="link" data-entity-1="TAX_00058" data-entity-2="TAX_00058_proc_1" data-source-line="31" data-uid="lnk8" id="link_TAX_00058_TAX_00058_proc_1"><path codeLine="31" d="M1204.98,157.7669 C1253.65,187.9169 1308.2295,221.747 1355.8795,251.267" fill="none" id="TAX_00058-to-TAX_00058_proc_1" style="stroke:#181818;stroke-width:1;stroke-dasharray:7,7;"/><polygon fill="#181818" points="1360.98,254.4269,1355.4358,246.2867,1356.7296,251.7937,1351.2226,253.0874,1360.98,254.4269" style="stroke:#181818;stroke-width:1;"/><text fill="#000000" font-family="sans-serif" font-size="13" lengthAdjust="spacing" textLength="91.6221" x="1280.81" y="200.5538">eingebettet in</text></g><!--link TAX_00058 to TAX_00058_proc_2--><g class="link" data-entity-1="TAX_00058" data-entity-2="TAX_00058_proc_2" data-source-line="37" data-uid="lnk10" id="link_TAX_00058_TAX_00058_proc_2"><path codeLine="37" d="M1253.38,126.6369 C1399.19,152.8269 1635.31,195.6469 1838.81,234.4869 C1872.01,240.8269 1901.0125,246.4406 1935.4825,253.2106" fill="none" id="TAX_00058-to-TAX_00058_proc_2" style="stroke:#181818;stroke-width:1;stroke-dasharray:7,7;"/><polygon fill="#181818" points="1941.37,254.3669,1933.3096,248.7074,1936.4637,253.4033,1931.7678,256.5574,1941.37,254.3669" style="stroke:#181818;stroke-width:1;"/><text fill="#000000" font-family="sans-serif" font-size="13" lengthAdjust="spacing" textLength="91.6221" x="1661.81" y="200.5538">eingebettet in</text></g><!--SRC=[pPFTJjj048NlUOfv068vfY1OeI1AIvIMfBJGjEB6MjlZU1LxZ7PdeJBgktSs_8IIG7hP2qkxSqQptpdUPSCrmWVDI9fhxQ07byS_LHp7k_jRkHHSsAUBFTnj0KnqWmg-DqvpvnWzMYZa-uPvHPvcqd5ksmwTGoLha7aJv8uyTw8wdTbbOn37qYbZwXefGxO6i-SzlryYf8sRfVq7aBoo9gzOmMWo_J8wWIJQBqJut1BZBoa_TI0vjdxEtWQyiWwr4kj2mISjbPEsGAV28S_fN-7Ute0CyDK7xP4g7O-6QI1BJx6gqSvRQp6Wf4cSxCRzdNvqNPJYT1bphpTOSQpW1kqjKe4CXjR6ahmHI_IVvf9ABY68T_5U_-0VWaWs1N5jsrpYEZmC2m4Q3EvJUUqE3j6995GNRDjcyd6w_R2wcefwvPrk6gHI3f5-1JyCGkbfpgObWvQXaCBwuT3T6fTNI0iz988cavVYgO0pWoLQJNpqbzye6gnQKO26PYW3-0tBoOhbJR_ZoVdOPSDrNj-Zu2-WvONJumLOlFRZfSkRbjOTLQDnB3fIjCbYicBn3m00]--></g></svg>