<svg xmlns="http://www.w3.org/2000/svg" xmlns:xlink="http://www.w3.org/1999/xlink" contentStyleType="text/css" data-diagram-type="CLASS" height="387px" preserveAspectRatio="none" style="width:2552px;height:387px;background:#FFFFFF;" version="1.1" viewBox="0 0 2552 387" width="2552px" zoomAndPan="magnify"><title>Datenatlas - TAX:C243</title><defs/><g><g class="title" data-source-line="1"><text fill="#000000" font-family="sans-serif" font-size="14" font-weight="bold" lengthAdjust="spacing" textLength="177.7754" x="1180.5761" y="22.9951">Datenatlas - TAX:C243</text></g><!--class TAX_C243--><g class="entity" data-entity="TAX_C243" data-source-line="2" data-uid="ent0002" id="entity_TAX_C243"><rect fill="#F1F1F1" height="113.1875" rx="2.5" ry="2.5" style="stroke:#181818;stroke-width:0.5;" width="310.6895" x="959.47" y="44.2969"/><ellipse cx="1074.9563" cy="60.2969" fill="#ADD1B2" rx="11" ry="11" style="stroke:#181818;stroke-width:1;"/><path d="M1077.9251,65.9375 Q1077.347,66.2344 1076.7063,66.375 Q1076.0657,66.5313 1075.3626,66.5313 Q1072.8626,66.5313 1071.5345,64.8906 Q1070.222,63.2344 1070.222,60.1094 Q1070.222,56.9844 1071.5345,55.3281 Q1072.8626,53.6719 1075.3626,53.6719 Q1076.0657,53.6719 1076.7063,53.8281 Q1077.3626,53.9844 1077.9251,54.2813 L1077.9251,57 Q1077.3001,56.4219 1076.7063,56.1563 Q1076.1126,55.875 1075.4876,55.875 Q1074.1438,55.875 1073.4563,56.9531 Q1072.7688,58.0156 1072.7688,60.1094 Q1072.7688,62.2031 1073.4563,63.2813 Q1074.1438,64.3438 1075.4876,64.3438 Q1076.1126,64.3438 1076.7063,64.0781 Q1077.3001,63.7969 1077.9251,63.2188 L1077.9251,65.9375 Z " fill="#000000"/><text fill="#000000" font-family="sans-serif" font-size="14" lengthAdjust="spacing" textLength="71.2168" x="1095.4563" y="65.1436">TAX_C243</text><line style="stroke:#181818;stroke-width:0.5;" x1="960.47" x2="1269.1595" y1="76.2969" y2="76.2969"/><text fill="#000000" font-family="sans-serif" font-size="14" lengthAdjust="spacing" textLength="284.6895" x="979.47" y="93.292">Name: Zoll-/Steuer-/Geb&#252;hrenrate, Code</text><text fill="#000000" font-family="sans-serif" font-size="14" lengthAdjust="spacing" textLength="66.6436" x="979.47" y="109.5889">Prozesse:</text><rect fill="none" height="6" style="stroke:#C82930;stroke-width:1;" width="6" x="967.47" y="119.5391"/><text fill="#000000" font-family="sans-serif" font-size="14" lengthAdjust="spacing" textLength="180.3457" x="979.47" y="125.8857">Netznutzungsabrechnung</text><rect fill="none" height="6" style="stroke:#C82930;stroke-width:1;" width="6" x="967.47" y="135.8359"/><text fill="#000000" font-family="sans-serif" font-size="14" lengthAdjust="spacing" textLength="223.2822" x="979.47" y="142.1826">Messstellenbetriebsabrechnung</text><line style="stroke:#181818;stroke-width:0.5;" x1="960.47" x2="1269.1595" y1="149.4844" y2="149.4844"/></g><!--class TAX_C243_msg_1--><g class="entity" data-entity="TAX_C243_msg_1" data-source-line="8" data-uid="ent0003" id="entity_TAX_C243_msg_1"><rect fill="#F1F1F1" height="145.7813" rx="2.5" ry="2.5" style="stroke:#181818;stroke-width:0.5;" width="495.6221" x="7" y="234.4869"/><ellipse cx="188.5898" cy="250.4869" fill="#ADD1B2" rx="11" ry="11" style="stroke:#181818;stroke-width:1;"/><path d="M191.5586,256.1275 Q190.9805,256.4244 190.3398,256.565 Q189.6992,256.7213 188.9961,256.7213 Q186.4961,256.7213 185.168,255.0806 Q183.8555,253.4244 183.8555,250.2994 Q183.8555,247.1744 185.168,245.5181 Q186.4961,243.8619 188.9961,243.8619 Q189.6992,243.8619 190.3398,244.0181 Q190.9961,244.1744 191.5586,244.4713 L191.5586,247.19 Q190.9336,246.6119 190.3398,246.3463 Q189.7461,246.065 189.1211,246.065 Q187.7773,246.065 187.0898,247.1431 Q186.4023,248.2056 186.4023,250.2994 Q186.4023,252.3931 187.0898,253.4713 Q187.7773,254.5338 189.1211,254.5338 Q189.7461,254.5338 190.3398,254.2681 Q190.9336,253.9869 191.5586,253.4088 L191.5586,256.1275 Z " fill="#000000"/><text fill="#000000" font-family="sans-serif" font-size="14" lengthAdjust="spacing" textLength="123.9424" x="209.0898" y="255.3336">TAX_C243_msg_1</text><line style="stroke:#181818;stroke-width:0.5;" x1="8" x2="501.6221" y1="266.4869" y2="266.4869"/><text fill="#000000" font-family="sans-serif" font-size="14" lengthAdjust="spacing" textLength="161.1982" x="13" y="283.482">Nachricht: INVOIC 2.8d</text><text fill="#000000" font-family="sans-serif" font-size="14" lengthAdjust="spacing" textLength="123.0605" x="13" y="299.7789">Kontext: Beispiel:</text><text fill="#000000" font-family="sans-serif" font-size="14" lengthAdjust="spacing" textLength="91.4033" x="13" y="316.0757">Pflichtfeld: Ja</text><text fill="#000000" font-family="sans-serif" font-size="14" lengthAdjust="spacing" textLength="263.5186" x="13" y="332.3726">Codes: 10, 15, 17, AE, OCR, TAX, VAT</text><text fill="#000000" font-family="sans-serif" font-size="14" lengthAdjust="spacing" textLength="483.6221" x="13" y="348.6695">Prozesse: Netznutzungsabrechnung, Messstellenbetriebsabrechnung</text><text fill="#000000" font-family="sans-serif" font-size="14" lengthAdjust="spacing" textLength="396.6074" x="13" y="364.9664">Quelle: INVOIC_MIG_2.8d_Fehlerkorrektur_20250131.pdf</text><line style="stroke:#181818;stroke-width:0.5;" x1="8" x2="501.6221" y1="372.2681" y2="372.2681"/></g><!--class TAX_C243_msg_2--><g class="entity" data-entity="TAX_C243_msg_2" data-source-line="17" data-uid="ent0005" id="entity_TAX_C243_msg_2"><rect fill="#F1F1F1" height="145.7813" rx="2.5" ry="2.5" style="stroke:#181818;stroke-width:0.5;" width="495.6221" x="538" y="234.4869"/><ellipse cx="719.5898" cy="250.4869" fill="#ADD1B2" rx="11" ry="11" style="stroke:#181818;stroke-width:1;"/><path d="M722.5586,256.1275 Q721.9805,256.4244 721.3398,256.565 Q720.6992,256.7213 719.9961,256.7213 Q717.4961,256.7213 716.168,255.0806 Q714.8555,253.4244 714.8555,250.2994 Q714.8555,247.1744 716.168,245.5181 Q717.4961,243.8619 719.9961,243.8619 Q720.6992,243.8619 721.3398,244.0181 Q721.9961,244.1744 722.5586,244.4713 L722.5586,247.19 Q721.9336,246.6119 721.3398,246.3463 Q720.7461,246.065 720.1211,246.065 Q718.7773,246.065 718.0898,247.1431 Q717.4023,248.2056 717.4023,250.2994 Q717.4023,252.3931 718.0898,253.4713 Q718.7773,254.5338 720.1211,254.5338 Q720.7461,254.5338 721.3398,254.2681 Q721.9336,253.9869 722.5586,253.4088 L722.5586,256.1275 Z " fill="#000000"/><text fill="#000000" font-family="sans-serif" font-size="14" lengthAdjust="spacing" textLength="123.9424" x="740.0898" y="255.3336">TAX_C243_msg_2</text><line style="stroke:#181818;stroke-width:0.5;" x1="539" x2="1032.6221" y1="266.4869" y2="266.4869"/><text fill="#000000" font-family="sans-serif" font-size="14" lengthAdjust="spacing" textLength="165.6484" x="544" y="283.482">Nachricht: INVOIC 2.8d.</text><text fill="#000000" font-family="sans-serif" font-size="14" lengthAdjust="spacing" textLength="123.0605" x="544" y="299.7789">Kontext: Beispiel:</text><text fill="#000000" font-family="sans-serif" font-size="14" lengthAdjust="spacing" textLength="91.4033" x="544" y="316.0757">Pflichtfeld: Ja</text><text fill="#000000" font-family="sans-serif" font-size="14" lengthAdjust="spacing" textLength="224.0957" x="544" y="332.3726">Codes: 15, 17, 99, AE, TAX, VAT</text><text fill="#000000" font-family="sans-serif" font-size="14" lengthAdjust="spacing" textLength="483.6221" x="544" y="348.6695">Prozesse: Netznutzungsabrechnung, Messstellenbetriebsabrechnung</text><text fill="#000000" font-family="sans-serif" font-size="14" lengthAdjust="spacing" textLength="290.3359" x="544" y="364.9664">Quelle: INVOIC_MIG_2_8d__20240619.pdf</text><line style="stroke:#181818;stroke-width:0.5;" x1="539" x2="1032.6221" y1="372.2681" y2="372.2681"/></g><!--class TAX_C243_proc_1--><g class="entity" data-entity="TAX_C243_proc_1" data-source-line="26" data-uid="ent0007" id="entity_TAX_C243_proc_1"><rect fill="#F1F1F1" height="105.1563" rx="2.5" ry="2.5" style="stroke:#181818;stroke-width:0.5;" width="752.6465" x="1068.49" y="254.7969"/><ellipse cx="1378.0486" cy="274.9297" fill="#ADD1B2" rx="11" ry="11" style="stroke:#181818;stroke-width:1;"/><path d="M1381.0173,280.5703 Q1380.4392,280.8672 1379.7986,281.0078 Q1379.158,281.1641 1378.4548,281.1641 Q1375.9548,281.1641 1374.6267,279.5234 Q1373.3142,277.8672 1373.3142,274.7422 Q1373.3142,271.6172 1374.6267,269.9609 Q1375.9548,268.3047 1378.4548,268.3047 Q1379.158,268.3047 1379.7986,268.4609 Q1380.4548,268.6172 1381.0173,268.9141 L1381.0173,271.6328 Q1380.3923,271.0547 1379.7986,270.7891 Q1379.2048,270.5078 1378.5798,270.5078 Q1377.2361,270.5078 1376.5486,271.5859 Q1375.8611,272.6484 1375.8611,274.7422 Q1375.8611,276.8359 1376.5486,277.9141 Q1377.2361,278.9766 1378.5798,278.9766 Q1379.2048,278.9766 1379.7986,278.7109 Q1380.3923,278.4297 1381.0173,277.8516 L1381.0173,280.5703 Z " fill="#000000"/><text fill="#000000" font-family="sans-serif" font-size="12" font-style="italic" lengthAdjust="spacing" textLength="61.0605" x="1430.533" y="270.9355">&#171;process&#187;</text><text fill="#000000" font-family="sans-serif" font-size="14" lengthAdjust="spacing" textLength="125.0293" x="1398.5486" y="286.7607">TAX_C243_proc_1</text><line style="stroke:#181818;stroke-width:0.5;" x1="1069.49" x2="1820.1365" y1="295.0625" y2="295.0625"/><text fill="#000000" font-family="sans-serif" font-size="14" lengthAdjust="spacing" textLength="180.3457" x="1074.49" y="312.0576">Netznutzungsabrechnung</text><text fill="#000000" font-family="sans-serif" font-size="14" lengthAdjust="spacing" textLength="218.0938" x="1074.49" y="328.3545">Gesetze: StromNEV, StromNZV</text><text fill="#000000" font-family="sans-serif" font-size="14" lengthAdjust="spacing" textLength="740.6465" x="1074.49" y="344.6514">Zusammenfassung: Wie funktioniert die Netznutzungsabrechnung zwischen Netzbetreiber und Lieferant?</text><line style="stroke:#181818;stroke-width:0.5;" x1="1069.49" x2="1820.1365" y1="351.9531" y2="351.9531"/></g><!--class TAX_C243_proc_2--><g class="entity" data-entity="TAX_C243_proc_2" data-source-line="32" data-uid="ent0009" id="entity_TAX_C243_proc_2"><rect fill="#F1F1F1" height="105.1563" rx="2.5" ry="2.5" style="stroke:#181818;stroke-width:0.5;" width="690.2275" x="1855.7" y="254.7969"/><ellipse cx="2134.0491" cy="274.9297" fill="#ADD1B2" rx="11" ry="11" style="stroke:#181818;stroke-width:1;"/><path d="M2137.0179,280.5703 Q2136.4397,280.8672 2135.7991,281.0078 Q2135.1585,281.1641 2134.4554,281.1641 Q2131.9554,281.1641 2130.6272,279.5234 Q2129.3147,277.8672 2129.3147,274.7422 Q2129.3147,271.6172 2130.6272,269.9609 Q2131.9554,268.3047 2134.4554,268.3047 Q2135.1585,268.3047 2135.7991,268.4609 Q2136.4554,268.6172 2137.0179,268.9141 L2137.0179,271.6328 Q2136.3929,271.0547 2135.7991,270.7891 Q2135.2054,270.5078 2134.5804,270.5078 Q2133.2366,270.5078 2132.5491,271.5859 Q2131.8616,272.6484 2131.8616,274.7422 Q2131.8616,276.8359 2132.5491,277.9141 Q2133.2366,278.9766 2134.5804,278.9766 Q2135.2054,278.9766 2135.7991,278.7109 Q2136.3929,278.4297 2137.0179,277.8516 L2137.0179,280.5703 Z " fill="#000000"/><text fill="#000000" font-family="sans-serif" font-size="12" font-style="italic" lengthAdjust="spacing" textLength="61.0605" x="2186.5335" y="270.9355">&#171;process&#187;</text><text fill="#000000" font-family="sans-serif" font-size="14" lengthAdjust="spacing" textLength="125.0293" x="2154.5491" y="286.7607">TAX_C243_proc_2</text><line style="stroke:#181818;stroke-width:0.5;" x1="1856.7" x2="2544.9275" y1="295.0625" y2="295.0625"/><text fill="#000000" font-family="sans-serif" font-size="14" lengthAdjust="spacing" textLength="223.2822" x="1861.7" y="312.0576">Messstellenbetriebsabrechnung</text><text fill="#000000" font-family="sans-serif" font-size="14" lengthAdjust="spacing" textLength="105.0957" x="1861.7" y="328.3545">Gesetze: MsbG</text><text fill="#000000" font-family="sans-serif" font-size="14" lengthAdjust="spacing" textLength="678.2275" x="1861.7" y="344.6514">Zusammenfassung: Beschreibe den Prozess der Abrechnung von Messstellenbetriebsleistungen.</text><line style="stroke:#181818;stroke-width:0.5;" x1="1856.7" x2="2544.9275" y1="351.9531" y2="351.9531"/></g><!--link TAX_C243 to TAX_C243_msg_1--><g class="link" data-entity-1="TAX_C243" data-entity-2="TAX_C243_msg_1" data-source-line="16" data-uid="lnk4" id="link_TAX_C243_TAX_C243_msg_1"><path codeLine="16" d="M958.97,134.6969 C838.9,160.4569 668.92,197.9569 520.81,234.4869 C514.89,235.9469 514.7186,235.9726 508.6786,237.4926" fill="none" id="TAX_C243-to-TAX_C243_msg_1" style="stroke:#181818;stroke-width:1;"/><polygon fill="#181818" points="502.86,238.9569,512.5641,240.6395,507.7088,237.7366,510.6117,232.8814,502.86,238.9569" style="stroke:#181818;stroke-width:1;"/><text fill="#000000" font-family="sans-serif" font-size="13" lengthAdjust="spacing" textLength="85.2363" x="717.81" y="200.5538">verwendet in</text></g><!--link TAX_C243 to TAX_C243_msg_2--><g class="link" data-entity-1="TAX_C243" data-entity-2="TAX_C243_msg_2" data-source-line="25" data-uid="lnk6" id="link_TAX_C243_TAX_C243_msg_2"><path codeLine="25" d="M1024.91,157.7669 C987.05,181.2969 947.5959,205.8196 907.2759,230.8796" fill="none" id="TAX_C243-to-TAX_C243_msg_2" style="stroke:#181818;stroke-width:1;"/><polygon fill="#181818" points="902.18,234.0469,911.9354,232.6933,906.4266,231.4075,907.7124,225.8987,902.18,234.0469" style="stroke:#181818;stroke-width:1;"/><text fill="#000000" font-family="sans-serif" font-size="13" lengthAdjust="spacing" textLength="85.2363" x="971.81" y="200.5538">verwendet in</text></g><!--link TAX_C243 to TAX_C243_proc_1--><g class="link" data-entity-1="TAX_C243" data-entity-2="TAX_C243_proc_1" data-source-line="31" data-uid="lnk8" id="link_TAX_C243_TAX_C243_proc_1"><path codeLine="31" d="M1204.98,157.7669 C1253.65,187.9169 1308.2295,221.747 1355.8795,251.267" fill="none" id="TAX_C243-to-TAX_C243_proc_1" style="stroke:#181818;stroke-width:1;stroke-dasharray:7,7;"/><polygon fill="#181818" points="1360.98,254.4269,1355.4358,246.2867,1356.7296,251.7937,1351.2226,253.0874,1360.98,254.4269" style="stroke:#181818;stroke-width:1;"/><text fill="#000000" font-family="sans-serif" font-size="13" lengthAdjust="spacing" textLength="91.6221" x="1280.81" y="200.5538">eingebettet in</text></g><!--link TAX_C243 to TAX_C243_proc_2--><g class="link" data-entity-1="TAX_C243" data-entity-2="TAX_C243_proc_2" data-source-line="37" data-uid="lnk10" id="link_TAX_C243_TAX_C243_proc_2"><path codeLine="37" d="M1270.64,129.7369 C1417.35,156.1169 1643.16,197.1469 1838.81,234.4869 C1872.01,240.8269 1901.0125,246.4406 1935.4825,253.2106" fill="none" id="TAX_C243-to-TAX_C243_proc_2" style="stroke:#181818;stroke-width:1;stroke-dasharray:7,7;"/><polygon fill="#181818" points="1941.37,254.3669,1933.3096,248.7074,1936.4637,253.4033,1931.7678,256.5574,1941.37,254.3669" style="stroke:#181818;stroke-width:1;"/><text fill="#000000" font-family="sans-serif" font-size="13" lengthAdjust="spacing" textLength="91.6221" x="1661.81" y="200.5538">eingebettet in</text></g><!--SRC=[jPBVRjem5CRl-nJd0PAKfEqseeg9iWwn3Tgr5PkuYVBd2x4m3hATjcBQc-rkBxRZbdQeGD4kTX7fsD_9yVVxR2ki17r8BLHgPMh8fvlkzxWN7HyTvBmsRfcu9Vqu81gbSyGqgQNq3wyj6cZ_i8_izwzAGscUub6lBi2TbxfUmXZ4N1DF7S4kLMENZPgQDDF8AyNbIXnofx6G4Yg3rGBPUi_F5qwIkPacuSfFNccHLpQcmMXyCUXH5BmhMFXSAujxtZw3C0i1wNnSbjBrbf15J9zItd5cJKnXowFmXB-t7dNFFRheNNdkE8_6tPjrc1qOtXu2eg-DqvvS9iD1Ft5Eau-e9FIirXeps-WaQaKdhV0e31P5oU3FuVj-voL_JBVGTr05B0crBQFebOo2Vmzf5L2x_HZIVyyduNnS8CUjDs5xRo3Hda0MkiuvjTDJLx2RJkSndLtliW_34bkwjhgUZyx7tggQZ5cTD2QTpw5AFeFxO_ecG6MZPbRKIa1RAdXZ-t1QtWcJLr0Fkei38eEcHXNqHQ24JfLzlmuR19qDa9WWr1JykztD6stmxhk8P-oXoVhRGC_0tXySKy48gwldMbFtB-9jhROT9VcXMTQXWjVveWs-Fm00]--></g></svg>