<svg xmlns="http://www.w3.org/2000/svg" xmlns:xlink="http://www.w3.org/1999/xlink" contentStyleType="text/css" data-diagram-type="CLASS" height="370px" preserveAspectRatio="none" style="width:844px;height:370px;background:#FFFFFF;" version="1.1" viewBox="0 0 844 370" width="844px" zoomAndPan="magnify"><title>Datenatlas - UNB:0038</title><defs/><g><g class="title" data-source-line="1"><text fill="#000000" font-family="sans-serif" font-size="14" font-weight="bold" lengthAdjust="spacing" textLength="179.8193" x="325.5096" y="22.9951">Datenatlas - UNB:0038</text></g><!--class UNB_0038--><g class="entity" data-entity="UNB_0038" data-source-line="2" data-uid="ent0002" id="entity_UNB_0038"><rect fill="#F1F1F1" height="96.8906" rx="2.5" ry="2.5" style="stroke:#181818;stroke-width:0.5;" width="360.3525" x="251.55" y="44.2969"/><ellipse cx="390.9997" cy="60.2969" fill="#ADD1B2" rx="11" ry="11" style="stroke:#181818;stroke-width:1;"/><path d="M393.9685,65.9375 Q393.3903,66.2344 392.7497,66.375 Q392.1091,66.5313 391.406,66.5313 Q388.906,66.5313 387.5778,64.8906 Q386.2653,63.2344 386.2653,60.1094 Q386.2653,56.9844 387.5778,55.3281 Q388.906,53.6719 391.406,53.6719 Q392.1091,53.6719 392.7497,53.8281 Q393.406,53.9844 393.9685,54.2813 L393.9685,57 Q393.3435,56.4219 392.7497,56.1563 Q392.156,55.875 391.531,55.875 Q390.1872,55.875 389.4997,56.9531 Q388.8122,58.0156 388.8122,60.1094 Q388.8122,62.2031 389.4997,63.2813 Q390.1872,64.3438 391.531,64.3438 Q392.156,64.3438 392.7497,64.0781 Q393.3435,63.7969 393.9685,63.2188 L393.9685,65.9375 Z " fill="#000000"/><text fill="#000000" font-family="sans-serif" font-size="14" lengthAdjust="spacing" textLength="72.9531" x="411.4997" y="65.1436">UNB_0038</text><line style="stroke:#181818;stroke-width:0.5;" x1="252.55" x2="610.9025" y1="76.2969" y2="76.2969"/><text fill="#000000" font-family="sans-serif" font-size="14" lengthAdjust="spacing" textLength="146.4941" x="271.55" y="93.292">Name: Test indicator</text><text fill="#000000" font-family="sans-serif" font-size="14" lengthAdjust="spacing" textLength="66.6436" x="271.55" y="109.5889">Prozesse:</text><rect fill="none" height="6" style="stroke:#C82930;stroke-width:1;" width="6" x="259.55" y="119.5391"/><text fill="#000000" font-family="sans-serif" font-size="14" lengthAdjust="spacing" textLength="334.3525" x="271.55" y="125.8857">Anforderung und &#220;bermittlung von Messwerten</text><line style="stroke:#181818;stroke-width:0.5;" x1="252.55" x2="610.9025" y1="133.1875" y2="133.1875"/></g><!--class UNB_0038_msg_1--><g class="entity" data-entity="UNB_0038_msg_1" data-source-line="7" data-uid="ent0003" id="entity_UNB_0038_msg_1"><rect fill="#F1F1F1" height="145.7813" rx="2.5" ry="2.5" style="stroke:#181818;stroke-width:0.5;" width="417.4463" x="7" y="218.1869"/><ellipse cx="148.6338" cy="234.1869" fill="#ADD1B2" rx="11" ry="11" style="stroke:#181818;stroke-width:1;"/><path d="M151.6025,239.8275 Q151.0244,240.1244 150.3838,240.265 Q149.7432,240.4213 149.04,240.4213 Q146.54,240.4213 145.2119,238.7806 Q143.8994,237.1244 143.8994,233.9994 Q143.8994,230.8744 145.2119,229.2181 Q146.54,227.5619 149.04,227.5619 Q149.7432,227.5619 150.3838,227.7181 Q151.04,227.8744 151.6025,228.1713 L151.6025,230.89 Q150.9775,230.3119 150.3838,230.0463 Q149.79,229.765 149.165,229.765 Q147.8213,229.765 147.1338,230.8431 Q146.4463,231.9056 146.4463,233.9994 Q146.4463,236.0931 147.1338,237.1713 Q147.8213,238.2338 149.165,238.2338 Q149.79,238.2338 150.3838,237.9681 Q150.9775,237.6869 151.6025,237.1088 L151.6025,239.8275 Z " fill="#000000"/><text fill="#000000" font-family="sans-serif" font-size="14" lengthAdjust="spacing" textLength="125.6787" x="169.1338" y="239.0336">UNB_0038_msg_1</text><line style="stroke:#181818;stroke-width:0.5;" x1="8" x2="423.4463" y1="250.1869" y2="250.1869"/><text fill="#000000" font-family="sans-serif" font-size="14" lengthAdjust="spacing" textLength="172.0264" x="13" y="267.182">Nachricht: MSCONS 2.4c</text><text fill="#000000" font-family="sans-serif" font-size="14" lengthAdjust="spacing" textLength="123.0605" x="13" y="283.4789">Kontext: Beispiel:</text><text fill="#000000" font-family="sans-serif" font-size="14" lengthAdjust="spacing" textLength="91.4033" x="13" y="299.7757">Pflichtfeld: Ja</text><text fill="#000000" font-family="sans-serif" font-size="14" lengthAdjust="spacing" textLength="268.167" x="13" y="316.0726">Codes: 10, 14, 20, 23, 24, 52, TL, UNB</text><text fill="#000000" font-family="sans-serif" font-size="14" lengthAdjust="spacing" textLength="405.4463" x="13" y="332.3695">Prozesse: Anforderung und &#220;bermittlung von Messwerten</text><text fill="#000000" font-family="sans-serif" font-size="14" lengthAdjust="spacing" textLength="294.1641" x="13" y="348.6664">Quelle: MSCONS_MIG_2_4c_20231024.pdf</text><line style="stroke:#181818;stroke-width:0.5;" x1="8" x2="423.4463" y1="355.9681" y2="355.9681"/></g><!--class UNB_0038_proc_1--><g class="entity" data-entity="UNB_0038_proc_1" data-source-line="16" data-uid="ent0005" id="entity_UNB_0038_proc_1"><rect fill="#F1F1F1" height="105.1563" rx="2.5" ry="2.5" style="stroke:#181818;stroke-width:0.5;" width="378.2285" x="459.61" y="238.4969"/><ellipse cx="581.0914" cy="258.6297" fill="#ADD1B2" rx="11" ry="11" style="stroke:#181818;stroke-width:1;"/><path d="M584.0602,264.2703 Q583.4821,264.5672 582.8414,264.7078 Q582.2008,264.8641 581.4977,264.8641 Q578.9977,264.8641 577.6696,263.2234 Q576.3571,261.5672 576.3571,258.4422 Q576.3571,255.3172 577.6696,253.6609 Q578.9977,252.0047 581.4977,252.0047 Q582.2008,252.0047 582.8414,252.1609 Q583.4977,252.3172 584.0602,252.6141 L584.0602,255.3328 Q583.4352,254.7547 582.8414,254.4891 Q582.2477,254.2078 581.6227,254.2078 Q580.2789,254.2078 579.5914,255.2859 Q578.9039,256.3484 578.9039,258.4422 Q578.9039,260.5359 579.5914,261.6141 Q580.2789,262.6766 581.6227,262.6766 Q582.2477,262.6766 582.8414,262.4109 Q583.4352,262.1297 584.0602,261.5516 L584.0602,264.2703 Z " fill="#000000"/><text fill="#000000" font-family="sans-serif" font-size="12" font-style="italic" lengthAdjust="spacing" textLength="61.0605" x="634.444" y="254.6355">&#171;process&#187;</text><text fill="#000000" font-family="sans-serif" font-size="14" lengthAdjust="spacing" textLength="126.7656" x="601.5914" y="270.4607">UNB_0038_proc_1</text><line style="stroke:#181818;stroke-width:0.5;" x1="460.61" x2="836.8385" y1="278.7625" y2="278.7625"/><text fill="#000000" font-family="sans-serif" font-size="14" lengthAdjust="spacing" textLength="334.3525" x="465.61" y="295.7576">Anforderung und &#220;bermittlung von Messwerten</text><text fill="#000000" font-family="sans-serif" font-size="14" lengthAdjust="spacing" textLength="105.0957" x="465.61" y="312.0545">Gesetze: MsbG</text><line style="stroke:#181818;stroke-width:0.5;" x1="460.61" x2="836.8385" y1="319.3563" y2="319.3563"/><text fill="#000000" font-family="sans-serif" font-size="14" lengthAdjust="spacing" textLength="366.2285" x="465.61" y="336.3514">Zusammenfassung: Wie kann ein Marktpartner (z.B.</text></g><!--link UNB_0038 to UNB_0038_msg_1--><g class="link" data-entity-1="UNB_0038" data-entity-2="UNB_0038_msg_1" data-source-line="15" data-uid="lnk4" id="link_UNB_0038_UNB_0038_msg_1"><path codeLine="15" d="M379.16,141.5169 C353.93,164.4469 327.61,188.3712 299.61,213.8212" fill="none" id="UNB_0038-to-UNB_0038_msg_1" style="stroke:#181818;stroke-width:1;"/><polygon fill="#181818" points="295.17,217.8569,304.5204,214.7634,298.87,214.4938,299.1396,208.8434,295.17,217.8569" style="stroke:#181818;stroke-width:1;"/><text fill="#000000" font-family="sans-serif" font-size="13" lengthAdjust="spacing" textLength="85.2363" x="344.72" y="184.2538">verwendet in</text></g><!--link UNB_0038 to UNB_0038_proc_1--><g class="link" data-entity-1="UNB_0038" data-entity-2="UNB_0038_proc_1" data-source-line="21" data-uid="lnk6" id="link_UNB_0038_UNB_0038_proc_1"><path codeLine="21" d="M484.53,141.5169 C516.9,170.8069 553.8906,204.2716 587.0406,234.2616" fill="none" id="UNB_0038-to-UNB_0038_proc_1" style="stroke:#181818;stroke-width:1;stroke-dasharray:7,7;"/><polygon fill="#181818" points="591.49,238.2869,587.4994,229.2827,587.7822,234.9325,582.1324,235.2152,591.49,238.2869" style="stroke:#181818;stroke-width:1;"/><text fill="#000000" font-family="sans-serif" font-size="13" lengthAdjust="spacing" textLength="91.6221" x="533.72" y="184.2538">eingebettet in</text></g><!--SRC=[bL3BQiCm4BpdA_ROWsDinOKYWg5E8VIHD2KfXLwCOgyJ4LasafoKbFv9_wO_rbLeIqXFEGZjZ7OrC-kaKmWtmg4MJWaBVNYUPZoA1bUzWh3rCFSGtdi0Kr4ZXmLQ1rANiX2kCKJFJBD7Qv5J3VJ5jQuQKwBfz0ewNSBNvn9DBPrJdjas6YRKlaD3ihsF4w6yjgiy_f4hraOMQyTXCXyzJkV0mgIWX_j6EtmZEaDfMudAAyygvNihL2M7Eq7Cg2dHSeYZ0E8a04Ot6z2X-f85i7W8lEfnWFEi0pnrg1J-siidj-ESvKcHiuWDueWbOLjMbF1lYVr-UXgKmnRD3dM9VgcdosXDKr3JSEWBKaxJmsREj3b6YsxlVThbcF1hPqLTewv8YmOul4Y4ZT0QKDAeC1lN2kCq6hZOXrbu724Cqt_sk9zRuHATEwJu1W00]--></g></svg>