<svg xmlns="http://www.w3.org/2000/svg" xmlns:xlink="http://www.w3.org/1999/xlink" contentStyleType="text/css" data-diagram-type="CLASS" height="370px" preserveAspectRatio="none" style="width:1326px;height:370px;background:#FFFFFF;" version="1.1" viewBox="0 0 1326 370" width="1326px" zoomAndPan="magnify"><title>Datenatlas - UNB:0032</title><defs/><g><g class="title" data-source-line="1"><text fill="#000000" font-family="sans-serif" font-size="14" font-weight="bold" lengthAdjust="spacing" textLength="179.8193" x="566.2396" y="22.9951">Datenatlas - UNB:0032</text></g><!--class UNB_0032--><g class="entity" data-entity="UNB_0032" data-source-line="2" data-uid="ent0002" id="entity_UNB_0032"><rect fill="#F1F1F1" height="96.8906" rx="2.5" ry="2.5" style="stroke:#181818;stroke-width:0.5;" width="360.3525" x="509.01" y="44.2969"/><ellipse cx="648.4597" cy="60.2969" fill="#ADD1B2" rx="11" ry="11" style="stroke:#181818;stroke-width:1;"/><path d="M651.4285,65.9375 Q650.8503,66.2344 650.2097,66.375 Q649.5691,66.5313 648.866,66.5313 Q646.366,66.5313 645.0378,64.8906 Q643.7253,63.2344 643.7253,60.1094 Q643.7253,56.9844 645.0378,55.3281 Q646.366,53.6719 648.866,53.6719 Q649.5691,53.6719 650.2097,53.8281 Q650.866,53.9844 651.4285,54.2813 L651.4285,57 Q650.8035,56.4219 650.2097,56.1563 Q649.616,55.875 648.991,55.875 Q647.6472,55.875 646.9597,56.9531 Q646.2722,58.0156 646.2722,60.1094 Q646.2722,62.2031 646.9597,63.2813 Q647.6472,64.3438 648.991,64.3438 Q649.616,64.3438 650.2097,64.0781 Q650.8035,63.7969 651.4285,63.2188 L651.4285,65.9375 Z " fill="#000000"/><text fill="#000000" font-family="sans-serif" font-size="14" lengthAdjust="spacing" textLength="72.9531" x="668.9597" y="65.1436">UNB_0032</text><line style="stroke:#181818;stroke-width:0.5;" x1="510.01" x2="868.3625" y1="76.2969" y2="76.2969"/><text fill="#000000" font-family="sans-serif" font-size="14" lengthAdjust="spacing" textLength="224.5332" x="529.01" y="93.292">Name: Agreement identification</text><text fill="#000000" font-family="sans-serif" font-size="14" lengthAdjust="spacing" textLength="66.6436" x="529.01" y="109.5889">Prozesse:</text><rect fill="none" height="6" style="stroke:#C82930;stroke-width:1;" width="6" x="517.01" y="119.5391"/><text fill="#000000" font-family="sans-serif" font-size="14" lengthAdjust="spacing" textLength="334.3525" x="529.01" y="125.8857">Anforderung und &#220;bermittlung von Messwerten</text><line style="stroke:#181818;stroke-width:0.5;" x1="510.01" x2="868.3625" y1="133.1875" y2="133.1875"/></g><!--class UNB_0032_msg_1--><g class="entity" data-entity="UNB_0032_msg_1" data-source-line="7" data-uid="ent0003" id="entity_UNB_0032_msg_1"><rect fill="#F1F1F1" height="129.4844" rx="2.5" ry="2.5" style="stroke:#181818;stroke-width:0.5;" width="430.3662" x="7" y="226.3369"/><ellipse cx="155.0938" cy="242.3369" fill="#ADD1B2" rx="11" ry="11" style="stroke:#181818;stroke-width:1;"/><path d="M158.0625,247.9775 Q157.4844,248.2744 156.8438,248.415 Q156.2031,248.5713 155.5,248.5713 Q153,248.5713 151.6719,246.9306 Q150.3594,245.2744 150.3594,242.1494 Q150.3594,239.0244 151.6719,237.3681 Q153,235.7119 155.5,235.7119 Q156.2031,235.7119 156.8438,235.8681 Q157.5,236.0244 158.0625,236.3213 L158.0625,239.04 Q157.4375,238.4619 156.8438,238.1963 Q156.25,237.915 155.625,237.915 Q154.2813,237.915 153.5938,238.9931 Q152.9063,240.0556 152.9063,242.1494 Q152.9063,244.2431 153.5938,245.3213 Q154.2813,246.3838 155.625,246.3838 Q156.25,246.3838 156.8438,246.1181 Q157.4375,245.8369 158.0625,245.2588 L158.0625,247.9775 Z " fill="#000000"/><text fill="#000000" font-family="sans-serif" font-size="14" lengthAdjust="spacing" textLength="125.6787" x="175.5938" y="247.1836">UNB_0032_msg_1</text><line style="stroke:#181818;stroke-width:0.5;" x1="8" x2="436.3662" y1="258.3369" y2="258.3369"/><text fill="#000000" font-family="sans-serif" font-size="14" lengthAdjust="spacing" textLength="169.4424" x="13" y="275.332">Nachricht: CONTRL 2.0b</text><text fill="#000000" font-family="sans-serif" font-size="14" lengthAdjust="spacing" textLength="91.4033" x="13" y="291.6289">Pflichtfeld: Ja</text><text fill="#000000" font-family="sans-serif" font-size="14" lengthAdjust="spacing" textLength="175.2666" x="13" y="307.9257">Codes: 26, 28, UNB, UNZ</text><text fill="#000000" font-family="sans-serif" font-size="14" lengthAdjust="spacing" textLength="418.3662" x="13" y="324.2226">Quelle: CONTRL_MIG_2_0b_au&#223;erordentliche_20240726.pdf</text><line style="stroke:#181818;stroke-width:0.5;" x1="8" x2="436.3662" y1="331.5244" y2="331.5244"/><text fill="#000000" font-family="sans-serif" font-size="14" lengthAdjust="spacing" textLength="265.4463" x="13" y="348.5195">Kontext: Empf&#228;nger bereits bekannt).</text></g><!--class UNB_0032_msg_2--><g class="entity" data-entity="UNB_0032_msg_2" data-source-line="15" data-uid="ent0005" id="entity_UNB_0032_msg_2"><rect fill="#F1F1F1" height="145.7813" rx="2.5" ry="2.5" style="stroke:#181818;stroke-width:0.5;" width="432.9502" x="472.71" y="218.1869"/><ellipse cx="622.0957" cy="234.1869" fill="#ADD1B2" rx="11" ry="11" style="stroke:#181818;stroke-width:1;"/><path d="M625.0645,239.8275 Q624.4864,240.1244 623.8457,240.265 Q623.2051,240.4213 622.502,240.4213 Q620.002,240.4213 618.6739,238.7806 Q617.3614,237.1244 617.3614,233.9994 Q617.3614,230.8744 618.6739,229.2181 Q620.002,227.5619 622.502,227.5619 Q623.2051,227.5619 623.8457,227.7181 Q624.502,227.8744 625.0645,228.1713 L625.0645,230.89 Q624.4395,230.3119 623.8457,230.0463 Q623.252,229.765 622.627,229.765 Q621.2832,229.765 620.5957,230.8431 Q619.9082,231.9056 619.9082,233.9994 Q619.9082,236.0931 620.5957,237.1713 Q621.2832,238.2338 622.627,238.2338 Q623.252,238.2338 623.8457,237.9681 Q624.4395,237.6869 625.0645,237.1088 L625.0645,239.8275 Z " fill="#000000"/><text fill="#000000" font-family="sans-serif" font-size="14" lengthAdjust="spacing" textLength="125.6787" x="642.5957" y="239.0336">UNB_0032_msg_2</text><line style="stroke:#181818;stroke-width:0.5;" x1="473.71" x2="904.6602" y1="250.1869" y2="250.1869"/><text fill="#000000" font-family="sans-serif" font-size="14" lengthAdjust="spacing" textLength="172.0264" x="478.71" y="267.182">Nachricht: MSCONS 2.4c</text><text fill="#000000" font-family="sans-serif" font-size="14" lengthAdjust="spacing" textLength="123.0605" x="478.71" y="283.4789">Kontext: Beispiel:</text><text fill="#000000" font-family="sans-serif" font-size="14" lengthAdjust="spacing" textLength="91.4033" x="478.71" y="299.7757">Pflichtfeld: Ja</text><text fill="#000000" font-family="sans-serif" font-size="14" lengthAdjust="spacing" textLength="214.7373" x="478.71" y="316.0726">Codes: 07, 14, 26, 53, TL, UNB</text><text fill="#000000" font-family="sans-serif" font-size="14" lengthAdjust="spacing" textLength="405.4463" x="478.71" y="332.3695">Prozesse: Anforderung und &#220;bermittlung von Messwerten</text><text fill="#000000" font-family="sans-serif" font-size="14" lengthAdjust="spacing" textLength="420.9502" x="478.71" y="348.6664">Quelle: MSCONS_MIG_2_4c_au&#223;erordentliche_20240726.pdf</text><line style="stroke:#181818;stroke-width:0.5;" x1="473.71" x2="904.6602" y1="355.9681" y2="355.9681"/></g><!--class UNB_0032_proc_1--><g class="entity" data-entity="UNB_0032_proc_1" data-source-line="24" data-uid="ent0007" id="entity_UNB_0032_proc_1"><rect fill="#F1F1F1" height="105.1563" rx="2.5" ry="2.5" style="stroke:#181818;stroke-width:0.5;" width="378.2285" x="941.07" y="238.4969"/><ellipse cx="1062.5514" cy="258.6297" fill="#ADD1B2" rx="11" ry="11" style="stroke:#181818;stroke-width:1;"/><path d="M1065.5202,264.2703 Q1064.9421,264.5672 1064.3014,264.7078 Q1063.6608,264.8641 1062.9577,264.8641 Q1060.4577,264.8641 1059.1296,263.2234 Q1057.8171,261.5672 1057.8171,258.4422 Q1057.8171,255.3172 1059.1296,253.6609 Q1060.4577,252.0047 1062.9577,252.0047 Q1063.6608,252.0047 1064.3014,252.1609 Q1064.9577,252.3172 1065.5202,252.6141 L1065.5202,255.3328 Q1064.8952,254.7547 1064.3014,254.4891 Q1063.7077,254.2078 1063.0827,254.2078 Q1061.7389,254.2078 1061.0514,255.2859 Q1060.3639,256.3484 1060.3639,258.4422 Q1060.3639,260.5359 1061.0514,261.6141 Q1061.7389,262.6766 1063.0827,262.6766 Q1063.7077,262.6766 1064.3014,262.4109 Q1064.8952,262.1297 1065.5202,261.5516 L1065.5202,264.2703 Z " fill="#000000"/><text fill="#000000" font-family="sans-serif" font-size="12" font-style="italic" lengthAdjust="spacing" textLength="61.0605" x="1115.904" y="254.6355">&#171;process&#187;</text><text fill="#000000" font-family="sans-serif" font-size="14" lengthAdjust="spacing" textLength="126.7656" x="1083.0514" y="270.4607">UNB_0032_proc_1</text><line style="stroke:#181818;stroke-width:0.5;" x1="942.07" x2="1318.2985" y1="278.7625" y2="278.7625"/><text fill="#000000" font-family="sans-serif" font-size="14" lengthAdjust="spacing" textLength="334.3525" x="947.07" y="295.7576">Anforderung und &#220;bermittlung von Messwerten</text><text fill="#000000" font-family="sans-serif" font-size="14" lengthAdjust="spacing" textLength="105.0957" x="947.07" y="312.0545">Gesetze: MsbG</text><line style="stroke:#181818;stroke-width:0.5;" x1="942.07" x2="1318.2985" y1="319.3563" y2="319.3563"/><text fill="#000000" font-family="sans-serif" font-size="14" lengthAdjust="spacing" textLength="366.2285" x="947.07" y="336.3514">Zusammenfassung: Wie kann ein Marktpartner (z.B.</text></g><!--link UNB_0032 to UNB_0032_msg_1--><g class="link" data-entity-1="UNB_0032" data-entity-2="UNB_0032_msg_1" data-source-line="14" data-uid="lnk4" id="link_UNB_0032_UNB_0032_msg_1"><path codeLine="14" d="M575.24,141.6469 C514.89,167.0169 445.491,196.1914 380.201,223.6414" fill="none" id="UNB_0032-to-UNB_0032_msg_1" style="stroke:#181818;stroke-width:1;"/><polygon fill="#181818" points="374.67,225.9669,384.5168,226.1661,379.2792,224.029,381.4163,218.7914,374.67,225.9669" style="stroke:#181818;stroke-width:1;"/><text fill="#000000" font-family="sans-serif" font-size="13" lengthAdjust="spacing" textLength="85.2363" x="499.18" y="184.2538">verwendet in</text></g><!--link UNB_0032 to UNB_0032_msg_2--><g class="link" data-entity-1="UNB_0032" data-entity-2="UNB_0032_msg_2" data-source-line="23" data-uid="lnk6" id="link_UNB_0032_UNB_0032_msg_2"><path codeLine="23" d="M689.18,141.5169 C689.18,164.4469 689.18,186.4069 689.18,211.8569" fill="none" id="UNB_0032-to-UNB_0032_msg_2" style="stroke:#181818;stroke-width:1;"/><polygon fill="#181818" points="689.18,217.8569,693.18,208.8569,689.18,212.8569,685.18,208.8569,689.18,217.8569" style="stroke:#181818;stroke-width:1;"/><text fill="#000000" font-family="sans-serif" font-size="13" lengthAdjust="spacing" textLength="85.2363" x="690.18" y="184.2538">verwendet in</text></g><!--link UNB_0032 to UNB_0032_proc_1--><g class="link" data-entity-1="UNB_0032" data-entity-2="UNB_0032_proc_1" data-source-line="29" data-uid="lnk8" id="link_UNB_0032_UNB_0032_proc_1"><path codeLine="29" d="M796.78,141.6469 C862.31,170.8169 940.5787,205.6666 1007.7387,235.5666" fill="none" id="UNB_0032-to-UNB_0032_proc_1" style="stroke:#181818;stroke-width:1;stroke-dasharray:7,7;"/><polygon fill="#181818" points="1013.22,238.0069,1006.6249,230.6922,1008.6522,235.9733,1003.3711,238.0006,1013.22,238.0069" style="stroke:#181818;stroke-width:1;"/><text fill="#000000" font-family="sans-serif" font-size="13" lengthAdjust="spacing" textLength="91.6221" x="898.18" y="184.2538">eingebettet in</text></g><!--SRC=[fLBDJkCm4BxtAUQuI6aKtF8Z2rMYtLMr2os_AoGkaPDCKgk94zaJM1Nn9aXSU9E-6ECkkrG5iK9xiJrZptm_7j9K8dnLX4PHgHnquUTqAAEe9pefnyw7iG_XhWCmLHLAE2miOeM6G6UywbodYdHj-C6fhHVe74e-0pSxD7bjCxIjAQ0r6ImV4hIL9YfzvgOsCE7djsYPGET-0pAkN15llm2dCwlJ6KaOdKmlpuz1X5725qUr8Vp5wMzLao-VJ84M608rETxdoXZQ2ZsnlFJbEPQPX1-ACwCwGoT1x0OWzWCFwfThlZbhiIpn3r8y-JwEHHmbiMgNZsYz7aE-6yOY4lreJ-o6JPOp_RzUTRk3JHKIRj3UeicGRJFlAHMRIYSNpE22bVRJTQL3rAxHMCgFP4Lx0MptWvMydLu0byShYUjVzBdFURNbDwqNM_hf_zWY_c5BO-kKlJiuy0VcCXYiFFeayJ4wf8Ldxf8nnzUjKnNFRyvON23XIYFuKG7KNAhid1fboV0eVLc4mt1TGXWEtj2Jlgx018bMAfu1]--></g></svg>