<svg xmlns="http://www.w3.org/2000/svg" xmlns:xlink="http://www.w3.org/1999/xlink" contentStyleType="text/css" data-diagram-type="CLASS" height="370px" preserveAspectRatio="none" style="width:860px;height:370px;background:#FFFFFF;" version="1.1" viewBox="0 0 860 370" width="860px" zoomAndPan="magnify"><title>Datenatlas - UNB:0001</title><defs/><g><g class="title" data-source-line="1"><text fill="#000000" font-family="sans-serif" font-size="14" font-weight="bold" lengthAdjust="spacing" textLength="179.8193" x="333.3846" y="22.9951">Datenatlas - UNB:0001</text></g><!--class UNB_0001--><g class="entity" data-entity="UNB_0001" data-source-line="2" data-uid="ent0002" id="entity_UNB_0001"><rect fill="#F1F1F1" height="96.8906" rx="2.5" ry="2.5" style="stroke:#181818;stroke-width:0.5;" width="360.3525" x="263.3" y="44.2969"/><ellipse cx="402.7497" cy="60.2969" fill="#ADD1B2" rx="11" ry="11" style="stroke:#181818;stroke-width:1;"/><path d="M405.7185,65.9375 Q405.1403,66.2344 404.4997,66.375 Q403.8591,66.5313 403.156,66.5313 Q400.656,66.5313 399.3278,64.8906 Q398.0153,63.2344 398.0153,60.1094 Q398.0153,56.9844 399.3278,55.3281 Q400.656,53.6719 403.156,53.6719 Q403.8591,53.6719 404.4997,53.8281 Q405.156,53.9844 405.7185,54.2813 L405.7185,57 Q405.0935,56.4219 404.4997,56.1563 Q403.906,55.875 403.281,55.875 Q401.9372,55.875 401.2497,56.9531 Q400.5622,58.0156 400.5622,60.1094 Q400.5622,62.2031 401.2497,63.2813 Q401.9372,64.3438 403.281,64.3438 Q403.906,64.3438 404.4997,64.0781 Q405.0935,63.7969 405.7185,63.2188 L405.7185,65.9375 Z " fill="#000000"/><text fill="#000000" font-family="sans-serif" font-size="14" lengthAdjust="spacing" textLength="72.9531" x="423.2497" y="65.1436">UNB_0001</text><line style="stroke:#181818;stroke-width:0.5;" x1="264.3" x2="622.6525" y1="76.2969" y2="76.2969"/><text fill="#000000" font-family="sans-serif" font-size="14" lengthAdjust="spacing" textLength="174.9932" x="283.3" y="93.292">Name: Syntax - Kennung</text><text fill="#000000" font-family="sans-serif" font-size="14" lengthAdjust="spacing" textLength="66.6436" x="283.3" y="109.5889">Prozesse:</text><rect fill="none" height="6" style="stroke:#C82930;stroke-width:1;" width="6" x="271.3" y="119.5391"/><text fill="#000000" font-family="sans-serif" font-size="14" lengthAdjust="spacing" textLength="334.3525" x="283.3" y="125.8857">Anforderung und &#220;bermittlung von Messwerten</text><line style="stroke:#181818;stroke-width:0.5;" x1="264.3" x2="622.6525" y1="133.1875" y2="133.1875"/></g><!--class UNB_0001_msg_1--><g class="entity" data-entity="UNB_0001_msg_1" data-source-line="7" data-uid="ent0003" id="entity_UNB_0001_msg_1"><rect fill="#F1F1F1" height="145.7813" rx="2.5" ry="2.5" style="stroke:#181818;stroke-width:0.5;" width="432.9502" x="7" y="218.1869"/><ellipse cx="156.3857" cy="234.1869" fill="#ADD1B2" rx="11" ry="11" style="stroke:#181818;stroke-width:1;"/><path d="M159.3545,239.8275 Q158.7764,240.1244 158.1357,240.265 Q157.4951,240.4213 156.792,240.4213 Q154.292,240.4213 152.9639,238.7806 Q151.6514,237.1244 151.6514,233.9994 Q151.6514,230.8744 152.9639,229.2181 Q154.292,227.5619 156.792,227.5619 Q157.4951,227.5619 158.1357,227.7181 Q158.792,227.8744 159.3545,228.1713 L159.3545,230.89 Q158.7295,230.3119 158.1357,230.0463 Q157.542,229.765 156.917,229.765 Q155.5732,229.765 154.8857,230.8431 Q154.1982,231.9056 154.1982,233.9994 Q154.1982,236.0931 154.8857,237.1713 Q155.5732,238.2338 156.917,238.2338 Q157.542,238.2338 158.1357,237.9681 Q158.7295,237.6869 159.3545,237.1088 L159.3545,239.8275 Z " fill="#000000"/><text fill="#000000" font-family="sans-serif" font-size="14" lengthAdjust="spacing" textLength="125.6787" x="176.8857" y="239.0336">UNB_0001_msg_1</text><line style="stroke:#181818;stroke-width:0.5;" x1="8" x2="438.9502" y1="250.1869" y2="250.1869"/><text fill="#000000" font-family="sans-serif" font-size="14" lengthAdjust="spacing" textLength="172.0264" x="13" y="267.182">Nachricht: MSCONS 2.4c</text><text fill="#000000" font-family="sans-serif" font-size="14" lengthAdjust="spacing" textLength="170.3447" x="13" y="283.4789">Kontext: Segmentlayout</text><text fill="#000000" font-family="sans-serif" font-size="14" lengthAdjust="spacing" textLength="91.4033" x="13" y="299.7757">Pflichtfeld: Ja</text><text fill="#000000" font-family="sans-serif" font-size="14" lengthAdjust="spacing" textLength="392.5879" x="13" y="316.0726">Codes: 14, 35, 500, 502, DE, ECE, GS1, ID, MP, UN, UNB</text><text fill="#000000" font-family="sans-serif" font-size="14" lengthAdjust="spacing" textLength="405.4463" x="13" y="332.3695">Prozesse: Anforderung und &#220;bermittlung von Messwerten</text><text fill="#000000" font-family="sans-serif" font-size="14" lengthAdjust="spacing" textLength="420.9502" x="13" y="348.6664">Quelle: MSCONS_MIG_2_4c_au&#223;erordentliche_20240726.pdf</text><line style="stroke:#181818;stroke-width:0.5;" x1="8" x2="438.9502" y1="355.9681" y2="355.9681"/></g><!--class UNB_0001_proc_1--><g class="entity" data-entity="UNB_0001_proc_1" data-source-line="16" data-uid="ent0005" id="entity_UNB_0001_proc_1"><rect fill="#F1F1F1" height="105.1563" rx="2.5" ry="2.5" style="stroke:#181818;stroke-width:0.5;" width="378.2285" x="475.36" y="238.4969"/><ellipse cx="596.8414" cy="258.6297" fill="#ADD1B2" rx="11" ry="11" style="stroke:#181818;stroke-width:1;"/><path d="M599.8102,264.2703 Q599.2321,264.5672 598.5914,264.7078 Q597.9508,264.8641 597.2477,264.8641 Q594.7477,264.8641 593.4196,263.2234 Q592.1071,261.5672 592.1071,258.4422 Q592.1071,255.3172 593.4196,253.6609 Q594.7477,252.0047 597.2477,252.0047 Q597.9508,252.0047 598.5914,252.1609 Q599.2477,252.3172 599.8102,252.6141 L599.8102,255.3328 Q599.1852,254.7547 598.5914,254.4891 Q597.9977,254.2078 597.3727,254.2078 Q596.0289,254.2078 595.3414,255.2859 Q594.6539,256.3484 594.6539,258.4422 Q594.6539,260.5359 595.3414,261.6141 Q596.0289,262.6766 597.3727,262.6766 Q597.9977,262.6766 598.5914,262.4109 Q599.1852,262.1297 599.8102,261.5516 L599.8102,264.2703 Z " fill="#000000"/><text fill="#000000" font-family="sans-serif" font-size="12" font-style="italic" lengthAdjust="spacing" textLength="61.0605" x="650.194" y="254.6355">&#171;process&#187;</text><text fill="#000000" font-family="sans-serif" font-size="14" lengthAdjust="spacing" textLength="126.7656" x="617.3414" y="270.4607">UNB_0001_proc_1</text><line style="stroke:#181818;stroke-width:0.5;" x1="476.36" x2="852.5885" y1="278.7625" y2="278.7625"/><text fill="#000000" font-family="sans-serif" font-size="14" lengthAdjust="spacing" textLength="334.3525" x="481.36" y="295.7576">Anforderung und &#220;bermittlung von Messwerten</text><text fill="#000000" font-family="sans-serif" font-size="14" lengthAdjust="spacing" textLength="105.0957" x="481.36" y="312.0545">Gesetze: MsbG</text><line style="stroke:#181818;stroke-width:0.5;" x1="476.36" x2="852.5885" y1="319.3563" y2="319.3563"/><text fill="#000000" font-family="sans-serif" font-size="14" lengthAdjust="spacing" textLength="366.2285" x="481.36" y="336.3514">Zusammenfassung: Wie kann ein Marktpartner (z.B.</text></g><!--link UNB_0001 to UNB_0001_msg_1--><g class="link" data-entity-1="UNB_0001" data-entity-2="UNB_0001_msg_1" data-source-line="15" data-uid="lnk4" id="link_UNB_0001_UNB_0001_msg_1"><path codeLine="15" d="M389.94,141.5169 C364.25,164.4469 337.3967,188.412 308.8767,213.862" fill="none" id="UNB_0001-to-UNB_0001_msg_1" style="stroke:#181818;stroke-width:1;"/><polygon fill="#181818" points="304.4,217.8569,313.7783,214.8491,308.1306,214.5278,308.4519,208.8801,304.4,217.8569" style="stroke:#181818;stroke-width:1;"/><text fill="#000000" font-family="sans-serif" font-size="13" lengthAdjust="spacing" textLength="85.2363" x="354.48" y="184.2538">verwendet in</text></g><!--link UNB_0001 to UNB_0001_proc_1--><g class="link" data-entity-1="UNB_0001" data-entity-2="UNB_0001_proc_1" data-source-line="21" data-uid="lnk6" id="link_UNB_0001_UNB_0001_proc_1"><path codeLine="21" d="M497.26,141.5169 C530.22,170.8069 567.9343,204.3121 601.6943,234.3021" fill="none" id="UNB_0001-to-UNB_0001_proc_1" style="stroke:#181818;stroke-width:1;stroke-dasharray:7,7;"/><polygon fill="#181818" points="606.18,238.2869,602.108,229.3192,602.4419,234.9662,596.7949,235.3002,606.18,238.2869" style="stroke:#181818;stroke-width:1;"/><text fill="#000000" font-family="sans-serif" font-size="13" lengthAdjust="spacing" textLength="91.6221" x="547.48" y="184.2538">eingebettet in</text></g><!--SRC=[bP3DQi904CVlFiKSUuWXfh65HGBrWs15QmcbqCko9fCOJ3Qok_6hz4qAVHXVhBE2HUp9mmxpkVERlobCYJ0K1gKmfT3GXhTPdtcUrsab56iRSXl2PmjW9Yfa4E-b4JjgdQ2KZSofC5Vr0RL6HZvGvKbcjKfHKHKQcSBnUu6gAemfRMPJIvXI-nOLBMvzNQtYbSxvUM6oL4MoD0ocyU1b5eFl1WaL9hKqkADqZ7c5ajZtTMCiILRQ_WpBbC6peCoWJb4pw0GEt7STw7gUDRu3mv43em6PAEuuC1uwC9qxH65V__Aesyu1U6smBF6CpAVZYFiyIBXeZZ-ex4y4J9J8VSyFl4V_mLsd6Udm9tQx7LxBmM23QeioHGE5l9PihUg4cdezwn1B69xqkn4yGetcOCdr8gBuez6Y8dapsaK33DuBX9MG4h2WKQ5MPYsKaQZWxk3stSiJN3VyXyViN8uBDEPqnIy0]--></g></svg>