<svg xmlns="http://www.w3.org/2000/svg" xmlns:xlink="http://www.w3.org/1999/xlink" contentStyleType="text/css" data-diagram-type="CLASS" height="419px" preserveAspectRatio="none" style="width:6234px;height:419px;background:#FFFFFF;" version="1.1" viewBox="0 0 6234 419" width="6234px" zoomAndPan="magnify"><title>Datenatlas - UNH:0070</title><defs/><g><g class="title" data-source-line="1"><text fill="#000000" font-family="sans-serif" font-size="14" font-weight="bold" lengthAdjust="spacing" textLength="180.8652" x="3020.0622" y="22.9951">Datenatlas - UNH:0070</text></g><!--class UNH_0070--><g class="entity" data-entity="UNH_0070" data-source-line="2" data-uid="ent0002" id="entity_UNH_0070"><rect fill="#F1F1F1" height="145.7813" rx="2.5" ry="2.5" style="stroke:#181818;stroke-width:0.5;" width="360.3525" x="2630.64" y="44.2969"/><ellipse cx="2769.6283" cy="60.2969" fill="#ADD1B2" rx="11" ry="11" style="stroke:#181818;stroke-width:1;"/><path d="M2772.597,65.9375 Q2772.0189,66.2344 2771.3783,66.375 Q2770.7377,66.5313 2770.0345,66.5313 Q2767.5345,66.5313 2766.2064,64.8906 Q2764.8939,63.2344 2764.8939,60.1094 Q2764.8939,56.9844 2766.2064,55.3281 Q2767.5345,53.6719 2770.0345,53.6719 Q2770.7377,53.6719 2771.3783,53.8281 Q2772.0345,53.9844 2772.597,54.2813 L2772.597,57 Q2771.972,56.4219 2771.3783,56.1563 Q2770.7845,55.875 2770.1595,55.875 Q2768.8158,55.875 2768.1283,56.9531 Q2767.4408,58.0156 2767.4408,60.1094 Q2767.4408,62.2031 2768.1283,63.2813 Q2768.8158,64.3438 2770.1595,64.3438 Q2770.7845,64.3438 2771.3783,64.0781 Q2771.972,63.7969 2772.597,63.2188 L2772.597,65.9375 Z " fill="#000000"/><text fill="#000000" font-family="sans-serif" font-size="14" lengthAdjust="spacing" textLength="73.876" x="2790.1283" y="65.1436">UNH_0070</text><line style="stroke:#181818;stroke-width:0.5;" x1="2631.64" x2="2989.9925" y1="76.2969" y2="76.2969"/><text fill="#000000" font-family="sans-serif" font-size="14" lengthAdjust="spacing" textLength="262.9512" x="2650.64" y="93.292">Name: Referenznummer des Senders</text><text fill="#000000" font-family="sans-serif" font-size="14" lengthAdjust="spacing" textLength="66.6436" x="2650.64" y="109.5889">Prozesse:</text><rect fill="none" height="6" style="stroke:#C82930;stroke-width:1;" width="6" x="2638.64" y="119.5391"/><text fill="#000000" font-family="sans-serif" font-size="14" lengthAdjust="spacing" textLength="180.3457" x="2650.64" y="125.8857">Netznutzungsabrechnung</text><rect fill="none" height="6" style="stroke:#C82930;stroke-width:1;" width="6" x="2638.64" y="135.8359"/><text fill="#000000" font-family="sans-serif" font-size="14" lengthAdjust="spacing" textLength="223.2822" x="2650.64" y="142.1826">Messstellenbetriebsabrechnung</text><rect fill="none" height="6" style="stroke:#C82930;stroke-width:1;" width="6" x="2638.64" y="152.1328"/><text fill="#000000" font-family="sans-serif" font-size="14" lengthAdjust="spacing" textLength="334.3525" x="2650.64" y="158.4795">Anforderung und &#220;bermittlung von Messwerten</text><rect fill="none" height="6" style="stroke:#C82930;stroke-width:1;" width="6" x="2638.64" y="168.4297"/><text fill="#000000" font-family="sans-serif" font-size="14" lengthAdjust="spacing" textLength="158.0127" x="2650.64" y="174.7764">Stammdaten&#228;nderung</text><line style="stroke:#181818;stroke-width:0.5;" x1="2631.64" x2="2989.9925" y1="182.0781" y2="182.0781"/></g><!--class UNH_0070_msg_1--><g class="entity" data-entity="UNH_0070_msg_1" data-source-line="10" data-uid="ent0003" id="entity_UNH_0070_msg_1"><rect fill="#F1F1F1" height="145.7813" rx="2.5" ry="2.5" style="stroke:#181818;stroke-width:0.5;" width="309.6299" x="7" y="267.0769"/><ellipse cx="94.2642" cy="283.0769" fill="#ADD1B2" rx="11" ry="11" style="stroke:#181818;stroke-width:1;"/><path d="M97.2329,288.7175 Q96.6548,289.0144 96.0142,289.155 Q95.3735,289.3113 94.6704,289.3113 Q92.1704,289.3113 90.8423,287.6706 Q89.5298,286.0144 89.5298,282.8894 Q89.5298,279.7644 90.8423,278.1081 Q92.1704,276.4519 94.6704,276.4519 Q95.3735,276.4519 96.0142,276.6081 Q96.6704,276.7644 97.2329,277.0613 L97.2329,279.78 Q96.6079,279.2019 96.0142,278.9363 Q95.4204,278.655 94.7954,278.655 Q93.4517,278.655 92.7642,279.7331 Q92.0767,280.7956 92.0767,282.8894 Q92.0767,284.9831 92.7642,286.0613 Q93.4517,287.1238 94.7954,287.1238 Q95.4204,287.1238 96.0142,286.8581 Q96.6079,286.5769 97.2329,285.9988 L97.2329,288.7175 Z " fill="#000000"/><text fill="#000000" font-family="sans-serif" font-size="14" lengthAdjust="spacing" textLength="126.6016" x="114.7642" y="287.9236">UNH_0070_msg_1</text><line style="stroke:#181818;stroke-width:0.5;" x1="8" x2="315.6299" y1="299.0769" y2="299.0769"/><text fill="#000000" font-family="sans-serif" font-size="14" lengthAdjust="spacing" textLength="172.9424" x="13" y="316.072">Nachricht: COMDIS 1.0e.</text><text fill="#000000" font-family="sans-serif" font-size="14" lengthAdjust="spacing" textLength="123.0605" x="13" y="332.3689">Kontext: Beispiel:</text><text fill="#000000" font-family="sans-serif" font-size="14" lengthAdjust="spacing" textLength="91.4033" x="13" y="348.6657">Pflichtfeld: Ja</text><text fill="#000000" font-family="sans-serif" font-size="14" lengthAdjust="spacing" textLength="193.3135" x="13" y="364.9626">Codes: 06, 19, 22, UN, UNH</text><text fill="#000000" font-family="sans-serif" font-size="14" lengthAdjust="spacing" textLength="251.4395" x="13" y="381.2595">Prozesse: Netznutzungsabrechnung</text><text fill="#000000" font-family="sans-serif" font-size="14" lengthAdjust="spacing" textLength="297.6299" x="13" y="397.5564">Quelle: COMDIS_MIG_1_0e__20240619.pdf</text><line style="stroke:#181818;stroke-width:0.5;" x1="8" x2="315.6299" y1="404.8581" y2="404.8581"/></g><!--class UNH_0070_msg_2--><g class="entity" data-entity="UNH_0070_msg_2" data-source-line="19" data-uid="ent0005" id="entity_UNH_0070_msg_2"><rect fill="#F1F1F1" height="129.4844" rx="2.5" ry="2.5" style="stroke:#181818;stroke-width:0.5;" width="430.3662" x="351.63" y="275.2269"/><ellipse cx="499.2623" cy="291.2269" fill="#ADD1B2" rx="11" ry="11" style="stroke:#181818;stroke-width:1;"/><path d="M502.2311,296.8675 Q501.6529,297.1644 501.0123,297.305 Q500.3717,297.4613 499.6686,297.4613 Q497.1686,297.4613 495.8404,295.8206 Q494.5279,294.1644 494.5279,291.0394 Q494.5279,287.9144 495.8404,286.2581 Q497.1686,284.6019 499.6686,284.6019 Q500.3717,284.6019 501.0123,284.7581 Q501.6686,284.9144 502.2311,285.2113 L502.2311,287.93 Q501.6061,287.3519 501.0123,287.0863 Q500.4186,286.805 499.7936,286.805 Q498.4498,286.805 497.7623,287.8831 Q497.0748,288.9456 497.0748,291.0394 Q497.0748,293.1331 497.7623,294.2113 Q498.4498,295.2738 499.7936,295.2738 Q500.4186,295.2738 501.0123,295.0081 Q501.6061,294.7269 502.2311,294.1488 L502.2311,296.8675 Z " fill="#000000"/><text fill="#000000" font-family="sans-serif" font-size="14" lengthAdjust="spacing" textLength="126.6016" x="519.7623" y="296.0736">UNH_0070_msg_2</text><line style="stroke:#181818;stroke-width:0.5;" x1="352.63" x2="780.9962" y1="307.2269" y2="307.2269"/><text fill="#000000" font-family="sans-serif" font-size="14" lengthAdjust="spacing" textLength="169.4424" x="357.63" y="324.222">Nachricht: CONTRL 2.0b</text><text fill="#000000" font-family="sans-serif" font-size="14" lengthAdjust="spacing" textLength="91.4033" x="357.63" y="340.5189">Pflichtfeld: Ja</text><text fill="#000000" font-family="sans-serif" font-size="14" lengthAdjust="spacing" textLength="150.0625" x="357.63" y="356.8157">Codes: 23, 25, ID, MP</text><text fill="#000000" font-family="sans-serif" font-size="14" lengthAdjust="spacing" textLength="418.3662" x="357.63" y="373.1126">Quelle: CONTRL_MIG_2_0b_au&#223;erordentliche_20240726.pdf</text><line style="stroke:#181818;stroke-width:0.5;" x1="352.63" x2="780.9962" y1="380.4144" y2="380.4144"/><text fill="#000000" font-family="sans-serif" font-size="14" lengthAdjust="spacing" textLength="277.5664" x="357.63" y="397.4095">Kontext: bei Empf&#228;nger nicht bekannt).</text></g><!--class UNH_0070_msg_3--><g class="entity" data-entity="UNH_0070_msg_3" data-source-line="27" data-uid="ent0007" id="entity_UNH_0070_msg_3"><rect fill="#F1F1F1" height="145.7813" rx="2.5" ry="2.5" style="stroke:#181818;stroke-width:0.5;" width="296.1357" x="816.75" y="267.0769"/><ellipse cx="897.2671" cy="283.0769" fill="#ADD1B2" rx="11" ry="11" style="stroke:#181818;stroke-width:1;"/><path d="M900.2358,288.7175 Q899.6577,289.0144 899.0171,289.155 Q898.3765,289.3113 897.6733,289.3113 Q895.1733,289.3113 893.8452,287.6706 Q892.5327,286.0144 892.5327,282.8894 Q892.5327,279.7644 893.8452,278.1081 Q895.1733,276.4519 897.6733,276.4519 Q898.3765,276.4519 899.0171,276.6081 Q899.6733,276.7644 900.2358,277.0613 L900.2358,279.78 Q899.6108,279.2019 899.0171,278.9363 Q898.4233,278.655 897.7983,278.655 Q896.4546,278.655 895.7671,279.7331 Q895.0796,280.7956 895.0796,282.8894 Q895.0796,284.9831 895.7671,286.0613 Q896.4546,287.1238 897.7983,287.1238 Q898.4233,287.1238 899.0171,286.8581 Q899.6108,286.5769 900.2358,285.9988 L900.2358,288.7175 Z " fill="#000000"/><text fill="#000000" font-family="sans-serif" font-size="14" lengthAdjust="spacing" textLength="126.6016" x="917.7671" y="287.9236">UNH_0070_msg_3</text><line style="stroke:#181818;stroke-width:0.5;" x1="817.75" x2="1111.8857" y1="299.0769" y2="299.0769"/><text fill="#000000" font-family="sans-serif" font-size="14" lengthAdjust="spacing" textLength="161.998" x="822.75" y="316.072">Nachricht: INSRPT 1.1a</text><text fill="#000000" font-family="sans-serif" font-size="14" lengthAdjust="spacing" textLength="122.917" x="822.75" y="332.3689">Kontext: Hinweis:</text><text fill="#000000" font-family="sans-serif" font-size="14" lengthAdjust="spacing" textLength="91.4033" x="822.75" y="348.6657">Pflichtfeld: Ja</text><text fill="#000000" font-family="sans-serif" font-size="14" lengthAdjust="spacing" textLength="83.5488" x="822.75" y="364.9626">Codes: UNH</text><text fill="#000000" font-family="sans-serif" font-size="14" lengthAdjust="spacing" textLength="251.4395" x="822.75" y="381.2595">Prozesse: Netznutzungsabrechnung</text><text fill="#000000" font-family="sans-serif" font-size="14" lengthAdjust="spacing" textLength="284.1357" x="822.75" y="397.5564">Quelle: INSRPT_MIG_1_1a_20211001.pdf</text><line style="stroke:#181818;stroke-width:0.5;" x1="817.75" x2="1111.8857" y1="404.8581" y2="404.8581"/></g><!--class UNH_0070_msg_4--><g class="entity" data-entity="UNH_0070_msg_4" data-source-line="36" data-uid="ent0009" id="entity_UNH_0070_msg_4"><rect fill="#F1F1F1" height="145.7813" rx="2.5" ry="2.5" style="stroke:#181818;stroke-width:0.5;" width="495.6221" x="1148" y="267.0769"/><ellipse cx="1328.2603" cy="283.0769" fill="#ADD1B2" rx="11" ry="11" style="stroke:#181818;stroke-width:1;"/><path d="M1331.229,288.7175 Q1330.6509,289.0144 1330.0103,289.155 Q1329.3696,289.3113 1328.6665,289.3113 Q1326.1665,289.3113 1324.8384,287.6706 Q1323.5259,286.0144 1323.5259,282.8894 Q1323.5259,279.7644 1324.8384,278.1081 Q1326.1665,276.4519 1328.6665,276.4519 Q1329.3696,276.4519 1330.0103,276.6081 Q1330.6665,276.7644 1331.229,277.0613 L1331.229,279.78 Q1330.604,279.2019 1330.0103,278.9363 Q1329.4165,278.655 1328.7915,278.655 Q1327.4478,278.655 1326.7603,279.7331 Q1326.0728,280.7956 1326.0728,282.8894 Q1326.0728,284.9831 1326.7603,286.0613 Q1327.4478,287.1238 1328.7915,287.1238 Q1329.4165,287.1238 1330.0103,286.8581 Q1330.604,286.5769 1331.229,285.9988 L1331.229,288.7175 Z " fill="#000000"/><text fill="#000000" font-family="sans-serif" font-size="14" lengthAdjust="spacing" textLength="126.6016" x="1348.7603" y="287.9236">UNH_0070_msg_4</text><line style="stroke:#181818;stroke-width:0.5;" x1="1149" x2="1642.6221" y1="299.0769" y2="299.0769"/><text fill="#000000" font-family="sans-serif" font-size="14" lengthAdjust="spacing" textLength="161.1982" x="1154" y="316.072">Nachricht: INVOIC 2.8d</text><text fill="#000000" font-family="sans-serif" font-size="14" lengthAdjust="spacing" textLength="122.917" x="1154" y="332.3689">Kontext: Hinweis:</text><text fill="#000000" font-family="sans-serif" font-size="14" lengthAdjust="spacing" textLength="91.4033" x="1154" y="348.6657">Pflichtfeld: Ja</text><text fill="#000000" font-family="sans-serif" font-size="14" lengthAdjust="spacing" textLength="113.1689" x="1154" y="364.9626">Codes: UN, UNH</text><text fill="#000000" font-family="sans-serif" font-size="14" lengthAdjust="spacing" textLength="483.6221" x="1154" y="381.2595">Prozesse: Netznutzungsabrechnung, Messstellenbetriebsabrechnung</text><text fill="#000000" font-family="sans-serif" font-size="14" lengthAdjust="spacing" textLength="396.6074" x="1154" y="397.5564">Quelle: INVOIC_MIG_2.8d_Fehlerkorrektur_20250131.pdf</text><line style="stroke:#181818;stroke-width:0.5;" x1="1149" x2="1642.6221" y1="404.8581" y2="404.8581"/></g><!--class UNH_0070_msg_5--><g class="entity" data-entity="UNH_0070_msg_5" data-source-line="45" data-uid="ent0011" id="entity_UNH_0070_msg_5"><rect fill="#F1F1F1" height="145.7813" rx="2.5" ry="2.5" style="stroke:#181818;stroke-width:0.5;" width="495.6221" x="1679" y="267.0769"/><ellipse cx="1859.2603" cy="283.0769" fill="#ADD1B2" rx="11" ry="11" style="stroke:#181818;stroke-width:1;"/><path d="M1862.229,288.7175 Q1861.6509,289.0144 1861.0103,289.155 Q1860.3696,289.3113 1859.6665,289.3113 Q1857.1665,289.3113 1855.8384,287.6706 Q1854.5259,286.0144 1854.5259,282.8894 Q1854.5259,279.7644 1855.8384,278.1081 Q1857.1665,276.4519 1859.6665,276.4519 Q1860.3696,276.4519 1861.0103,276.6081 Q1861.6665,276.7644 1862.229,277.0613 L1862.229,279.78 Q1861.604,279.2019 1861.0103,278.9363 Q1860.4165,278.655 1859.7915,278.655 Q1858.4478,278.655 1857.7603,279.7331 Q1857.0728,280.7956 1857.0728,282.8894 Q1857.0728,284.9831 1857.7603,286.0613 Q1858.4478,287.1238 1859.7915,287.1238 Q1860.4165,287.1238 1861.0103,286.8581 Q1861.604,286.5769 1862.229,285.9988 L1862.229,288.7175 Z " fill="#000000"/><text fill="#000000" font-family="sans-serif" font-size="14" lengthAdjust="spacing" textLength="126.6016" x="1879.7603" y="287.9236">UNH_0070_msg_5</text><line style="stroke:#181818;stroke-width:0.5;" x1="1680" x2="2173.6221" y1="299.0769" y2="299.0769"/><text fill="#000000" font-family="sans-serif" font-size="14" lengthAdjust="spacing" textLength="165.6484" x="1685" y="316.072">Nachricht: INVOIC 2.8d.</text><text fill="#000000" font-family="sans-serif" font-size="14" lengthAdjust="spacing" textLength="122.917" x="1685" y="332.3689">Kontext: Hinweis:</text><text fill="#000000" font-family="sans-serif" font-size="14" lengthAdjust="spacing" textLength="91.4033" x="1685" y="348.6657">Pflichtfeld: Ja</text><text fill="#000000" font-family="sans-serif" font-size="14" lengthAdjust="spacing" textLength="83.5488" x="1685" y="364.9626">Codes: UNH</text><text fill="#000000" font-family="sans-serif" font-size="14" lengthAdjust="spacing" textLength="483.6221" x="1685" y="381.2595">Prozesse: Netznutzungsabrechnung, Messstellenbetriebsabrechnung</text><text fill="#000000" font-family="sans-serif" font-size="14" lengthAdjust="spacing" textLength="290.3359" x="1685" y="397.5564">Quelle: INVOIC_MIG_2_8d__20240619.pdf</text><line style="stroke:#181818;stroke-width:0.5;" x1="1680" x2="2173.6221" y1="404.8581" y2="404.8581"/></g><!--class UNH_0070_msg_6--><g class="entity" data-entity="UNH_0070_msg_6" data-source-line="54" data-uid="ent0013" id="entity_UNH_0070_msg_6"><rect fill="#F1F1F1" height="145.7813" rx="2.5" ry="2.5" style="stroke:#181818;stroke-width:0.5;" width="417.4463" x="2210.09" y="267.0769"/><ellipse cx="2351.2624" cy="283.0769" fill="#ADD1B2" rx="11" ry="11" style="stroke:#181818;stroke-width:1;"/><path d="M2354.2311,288.7175 Q2353.653,289.0144 2353.0124,289.155 Q2352.3717,289.3113 2351.6686,289.3113 Q2349.1686,289.3113 2347.8405,287.6706 Q2346.528,286.0144 2346.528,282.8894 Q2346.528,279.7644 2347.8405,278.1081 Q2349.1686,276.4519 2351.6686,276.4519 Q2352.3717,276.4519 2353.0124,276.6081 Q2353.6686,276.7644 2354.2311,277.0613 L2354.2311,279.78 Q2353.6061,279.2019 2353.0124,278.9363 Q2352.4186,278.655 2351.7936,278.655 Q2350.4499,278.655 2349.7624,279.7331 Q2349.0749,280.7956 2349.0749,282.8894 Q2349.0749,284.9831 2349.7624,286.0613 Q2350.4499,287.1238 2351.7936,287.1238 Q2352.4186,287.1238 2353.0124,286.8581 Q2353.6061,286.5769 2354.2311,285.9988 L2354.2311,288.7175 Z " fill="#000000"/><text fill="#000000" font-family="sans-serif" font-size="14" lengthAdjust="spacing" textLength="126.6016" x="2371.7624" y="287.9236">UNH_0070_msg_6</text><line style="stroke:#181818;stroke-width:0.5;" x1="2211.09" x2="2626.5363" y1="299.0769" y2="299.0769"/><text fill="#000000" font-family="sans-serif" font-size="14" lengthAdjust="spacing" textLength="172.0264" x="2216.09" y="316.072">Nachricht: MSCONS 2.4c</text><text fill="#000000" font-family="sans-serif" font-size="14" lengthAdjust="spacing" textLength="122.917" x="2216.09" y="332.3689">Kontext: Hinweis:</text><text fill="#000000" font-family="sans-serif" font-size="14" lengthAdjust="spacing" textLength="110.5439" x="2216.09" y="348.6657">Pflichtfeld: Nein</text><text fill="#000000" font-family="sans-serif" font-size="14" lengthAdjust="spacing" textLength="110.2637" x="2216.09" y="364.9626">Codes: 68, UNH</text><text fill="#000000" font-family="sans-serif" font-size="14" lengthAdjust="spacing" textLength="405.4463" x="2216.09" y="381.2595">Prozesse: Anforderung und &#220;bermittlung von Messwerten</text><text fill="#000000" font-family="sans-serif" font-size="14" lengthAdjust="spacing" textLength="294.1641" x="2216.09" y="397.5564">Quelle: MSCONS_MIG_2_4c_20231024.pdf</text><line style="stroke:#181818;stroke-width:0.5;" x1="2211.09" x2="2626.5363" y1="404.8581" y2="404.8581"/></g><!--class UNH_0070_msg_7--><g class="entity" data-entity="UNH_0070_msg_7" data-source-line="63" data-uid="ent0015" id="entity_UNH_0070_msg_7"><rect fill="#F1F1F1" height="145.7813" rx="2.5" ry="2.5" style="stroke:#181818;stroke-width:0.5;" width="296.8604" x="2662.38" y="267.0769"/><ellipse cx="2743.2594" cy="283.0769" fill="#ADD1B2" rx="11" ry="11" style="stroke:#181818;stroke-width:1;"/><path d="M2746.2281,288.7175 Q2745.65,289.0144 2745.0094,289.155 Q2744.3688,289.3113 2743.6656,289.3113 Q2741.1656,289.3113 2739.8375,287.6706 Q2738.525,286.0144 2738.525,282.8894 Q2738.525,279.7644 2739.8375,278.1081 Q2741.1656,276.4519 2743.6656,276.4519 Q2744.3688,276.4519 2745.0094,276.6081 Q2745.6656,276.7644 2746.2281,277.0613 L2746.2281,279.78 Q2745.6031,279.2019 2745.0094,278.9363 Q2744.4156,278.655 2743.7906,278.655 Q2742.4469,278.655 2741.7594,279.7331 Q2741.0719,280.7956 2741.0719,282.8894 Q2741.0719,284.9831 2741.7594,286.0613 Q2742.4469,287.1238 2743.7906,287.1238 Q2744.4156,287.1238 2745.0094,286.8581 Q2745.6031,286.5769 2746.2281,285.9988 L2746.2281,288.7175 Z " fill="#000000"/><text fill="#000000" font-family="sans-serif" font-size="14" lengthAdjust="spacing" textLength="126.6016" x="2763.7594" y="287.9236">UNH_0070_msg_7</text><line style="stroke:#181818;stroke-width:0.5;" x1="2663.38" x2="2958.2404" y1="299.0769" y2="299.0769"/><text fill="#000000" font-family="sans-serif" font-size="14" lengthAdjust="spacing" textLength="162.7227" x="2668.38" y="316.072">Nachricht: PARTIN 1.0e</text><text fill="#000000" font-family="sans-serif" font-size="14" lengthAdjust="spacing" textLength="123.0605" x="2668.38" y="332.3689">Kontext: Beispiel:</text><text fill="#000000" font-family="sans-serif" font-size="14" lengthAdjust="spacing" textLength="91.4033" x="2668.38" y="348.6657">Pflichtfeld: Ja</text><text fill="#000000" font-family="sans-serif" font-size="14" lengthAdjust="spacing" textLength="193.3135" x="2668.38" y="364.9626">Codes: 01, 10, 67, UN, UNH</text><text fill="#000000" font-family="sans-serif" font-size="14" lengthAdjust="spacing" textLength="229.1064" x="2668.38" y="381.2595">Prozesse: Stammdaten&#228;nderung</text><text fill="#000000" font-family="sans-serif" font-size="14" lengthAdjust="spacing" textLength="284.8604" x="2668.38" y="397.5564">Quelle: PARTIN_MIG_1_0e_20241001.pdf</text><line style="stroke:#181818;stroke-width:0.5;" x1="2663.38" x2="2958.2404" y1="404.8581" y2="404.8581"/></g><!--class UNH_0070_msg_8--><g class="entity" data-entity="UNH_0070_msg_8" data-source-line="72" data-uid="ent0017" id="entity_UNH_0070_msg_8"><rect fill="#F1F1F1" height="145.7813" rx="2.5" ry="2.5" style="stroke:#181818;stroke-width:0.5;" width="296.4365" x="2994.6" y="267.0769"/><ellipse cx="3075.2675" cy="283.0769" fill="#ADD1B2" rx="11" ry="11" style="stroke:#181818;stroke-width:1;"/><path d="M3078.2362,288.7175 Q3077.6581,289.0144 3077.0175,289.155 Q3076.3769,289.3113 3075.6737,289.3113 Q3073.1737,289.3113 3071.8456,287.6706 Q3070.5331,286.0144 3070.5331,282.8894 Q3070.5331,279.7644 3071.8456,278.1081 Q3073.1737,276.4519 3075.6737,276.4519 Q3076.3769,276.4519 3077.0175,276.6081 Q3077.6737,276.7644 3078.2362,277.0613 L3078.2362,279.78 Q3077.6112,279.2019 3077.0175,278.9363 Q3076.4237,278.655 3075.7987,278.655 Q3074.455,278.655 3073.7675,279.7331 Q3073.08,280.7956 3073.08,282.8894 Q3073.08,284.9831 3073.7675,286.0613 Q3074.455,287.1238 3075.7987,287.1238 Q3076.4237,287.1238 3077.0175,286.8581 Q3077.6112,286.5769 3078.2362,285.9988 L3078.2362,288.7175 Z " fill="#000000"/><text fill="#000000" font-family="sans-serif" font-size="14" lengthAdjust="spacing" textLength="126.6016" x="3095.7675" y="287.9236">UNH_0070_msg_8</text><line style="stroke:#181818;stroke-width:0.5;" x1="2995.6" x2="3290.0365" y1="299.0769" y2="299.0769"/><text fill="#000000" font-family="sans-serif" font-size="14" lengthAdjust="spacing" textLength="162.2988" x="3000.6" y="316.072">Nachricht: PRICAT 2.0d</text><text fill="#000000" font-family="sans-serif" font-size="14" lengthAdjust="spacing" textLength="122.917" x="3000.6" y="332.3689">Kontext: Hinweis:</text><text fill="#000000" font-family="sans-serif" font-size="14" lengthAdjust="spacing" textLength="91.4033" x="3000.6" y="348.6657">Pflichtfeld: Ja</text><text fill="#000000" font-family="sans-serif" font-size="14" lengthAdjust="spacing" textLength="113.1689" x="3000.6" y="364.9626">Codes: UN, UNH</text><text fill="#000000" font-family="sans-serif" font-size="14" lengthAdjust="spacing" textLength="251.4395" x="3000.6" y="381.2595">Prozesse: Netznutzungsabrechnung</text><text fill="#000000" font-family="sans-serif" font-size="14" lengthAdjust="spacing" textLength="284.4365" x="3000.6" y="397.5564">Quelle: PRICAT_MIG_2_0d_20240619.pdf</text><line style="stroke:#181818;stroke-width:0.5;" x1="2995.6" x2="3290.0365" y1="404.8581" y2="404.8581"/></g><!--class UNH_0070_msg_9--><g class="entity" data-entity="UNH_0070_msg_9" data-source-line="81" data-uid="ent0019" id="entity_UNH_0070_msg_9"><rect fill="#F1F1F1" height="145.7813" rx="2.5" ry="2.5" style="stroke:#181818;stroke-width:0.5;" width="303.0811" x="3326.27" y="267.0769"/><ellipse cx="3410.2597" cy="283.0769" fill="#ADD1B2" rx="11" ry="11" style="stroke:#181818;stroke-width:1;"/><path d="M3413.2285,288.7175 Q3412.6504,289.0144 3412.0097,289.155 Q3411.3691,289.3113 3410.666,289.3113 Q3408.166,289.3113 3406.8379,287.6706 Q3405.5254,286.0144 3405.5254,282.8894 Q3405.5254,279.7644 3406.8379,278.1081 Q3408.166,276.4519 3410.666,276.4519 Q3411.3691,276.4519 3412.0097,276.6081 Q3412.666,276.7644 3413.2285,277.0613 L3413.2285,279.78 Q3412.6035,279.2019 3412.0097,278.9363 Q3411.416,278.655 3410.791,278.655 Q3409.4472,278.655 3408.7597,279.7331 Q3408.0722,280.7956 3408.0722,282.8894 Q3408.0722,284.9831 3408.7597,286.0613 Q3409.4472,287.1238 3410.791,287.1238 Q3411.416,287.1238 3412.0097,286.8581 Q3412.6035,286.5769 3413.2285,285.9988 L3413.2285,288.7175 Z " fill="#000000"/><text fill="#000000" font-family="sans-serif" font-size="14" lengthAdjust="spacing" textLength="126.6016" x="3430.7597" y="287.9236">UNH_0070_msg_9</text><line style="stroke:#181818;stroke-width:0.5;" x1="3327.27" x2="3628.3511" y1="299.0769" y2="299.0769"/><text fill="#000000" font-family="sans-serif" font-size="14" lengthAdjust="spacing" textLength="171.4932" x="3332.27" y="316.072">Nachricht: REMADV 2.9c</text><text fill="#000000" font-family="sans-serif" font-size="14" lengthAdjust="spacing" textLength="149.3447" x="3332.27" y="332.3689">Kontext: Bemerkung:</text><text fill="#000000" font-family="sans-serif" font-size="14" lengthAdjust="spacing" textLength="91.4033" x="3332.27" y="348.6657">Pflichtfeld: Ja</text><text fill="#000000" font-family="sans-serif" font-size="14" lengthAdjust="spacing" textLength="83.5488" x="3332.27" y="364.9626">Codes: UNH</text><text fill="#000000" font-family="sans-serif" font-size="14" lengthAdjust="spacing" textLength="251.4395" x="3332.27" y="381.2595">Prozesse: Netznutzungsabrechnung</text><text fill="#000000" font-family="sans-serif" font-size="14" lengthAdjust="spacing" textLength="291.0811" x="3332.27" y="397.5564">Quelle: REMADV_MIG_2.9c_20231024.pdf</text><line style="stroke:#181818;stroke-width:0.5;" x1="3327.27" x2="3628.3511" y1="404.8581" y2="404.8581"/></g><!--class UNH_0070_proc_1--><g class="entity" data-entity="UNH_0070_proc_1" data-source-line="90" data-uid="ent0021" id="entity_UNH_0070_proc_1"><rect fill="#F1F1F1" height="105.1563" rx="2.5" ry="2.5" style="stroke:#181818;stroke-width:0.5;" width="752.6465" x="3664.49" y="287.3869"/><ellipse cx="3972.719" cy="307.5197" fill="#ADD1B2" rx="11" ry="11" style="stroke:#181818;stroke-width:1;"/><path d="M3975.6878,313.1603 Q3975.1096,313.4572 3974.469,313.5978 Q3973.8284,313.7541 3973.1253,313.7541 Q3970.6253,313.7541 3969.2971,312.1134 Q3967.9846,310.4572 3967.9846,307.3322 Q3967.9846,304.2072 3969.2971,302.5509 Q3970.6253,300.8947 3973.1253,300.8947 Q3973.8284,300.8947 3974.469,301.0509 Q3975.1253,301.2072 3975.6878,301.5041 L3975.6878,304.2228 Q3975.0628,303.6447 3974.469,303.3791 Q3973.8753,303.0978 3973.2503,303.0978 Q3971.9065,303.0978 3971.219,304.1759 Q3970.5315,305.2384 3970.5315,307.3322 Q3970.5315,309.4259 3971.219,310.5041 Q3971.9065,311.5666 3973.2503,311.5666 Q3973.8753,311.5666 3974.469,311.3009 Q3975.0628,311.0197 3975.6878,310.4416 L3975.6878,313.1603 Z " fill="#000000"/><text fill="#000000" font-family="sans-serif" font-size="12" font-style="italic" lengthAdjust="spacing" textLength="61.0605" x="4026.533" y="303.5255">&#171;process&#187;</text><text fill="#000000" font-family="sans-serif" font-size="14" lengthAdjust="spacing" textLength="127.6885" x="3993.219" y="319.3507">UNH_0070_proc_1</text><line style="stroke:#181818;stroke-width:0.5;" x1="3665.49" x2="4416.1365" y1="327.6525" y2="327.6525"/><text fill="#000000" font-family="sans-serif" font-size="14" lengthAdjust="spacing" textLength="180.3457" x="3670.49" y="344.6476">Netznutzungsabrechnung</text><text fill="#000000" font-family="sans-serif" font-size="14" lengthAdjust="spacing" textLength="218.0938" x="3670.49" y="360.9445">Gesetze: StromNEV, StromNZV</text><text fill="#000000" font-family="sans-serif" font-size="14" lengthAdjust="spacing" textLength="740.6465" x="3670.49" y="377.2414">Zusammenfassung: Wie funktioniert die Netznutzungsabrechnung zwischen Netzbetreiber und Lieferant?</text><line style="stroke:#181818;stroke-width:0.5;" x1="3665.49" x2="4416.1365" y1="384.5431" y2="384.5431"/></g><!--class UNH_0070_proc_2--><g class="entity" data-entity="UNH_0070_proc_2" data-source-line="96" data-uid="ent0023" id="entity_UNH_0070_proc_2"><rect fill="#F1F1F1" height="105.1563" rx="2.5" ry="2.5" style="stroke:#181818;stroke-width:0.5;" width="690.2275" x="4451.7" y="287.3869"/><ellipse cx="4728.7195" cy="307.5197" fill="#ADD1B2" rx="11" ry="11" style="stroke:#181818;stroke-width:1;"/><path d="M4731.6883,313.1603 Q4731.1102,313.4572 4730.4695,313.5978 Q4729.8289,313.7541 4729.1258,313.7541 Q4726.6258,313.7541 4725.2977,312.1134 Q4723.9852,310.4572 4723.9852,307.3322 Q4723.9852,304.2072 4725.2977,302.5509 Q4726.6258,300.8947 4729.1258,300.8947 Q4729.8289,300.8947 4730.4695,301.0509 Q4731.1258,301.2072 4731.6883,301.5041 L4731.6883,304.2228 Q4731.0633,303.6447 4730.4695,303.3791 Q4729.8758,303.0978 4729.2508,303.0978 Q4727.907,303.0978 4727.2195,304.1759 Q4726.532,305.2384 4726.532,307.3322 Q4726.532,309.4259 4727.2195,310.5041 Q4727.907,311.5666 4729.2508,311.5666 Q4729.8758,311.5666 4730.4695,311.3009 Q4731.0633,311.0197 4731.6883,310.4416 L4731.6883,313.1603 Z " fill="#000000"/><text fill="#000000" font-family="sans-serif" font-size="12" font-style="italic" lengthAdjust="spacing" textLength="61.0605" x="4782.5335" y="303.5255">&#171;process&#187;</text><text fill="#000000" font-family="sans-serif" font-size="14" lengthAdjust="spacing" textLength="127.6885" x="4749.2195" y="319.3507">UNH_0070_proc_2</text><line style="stroke:#181818;stroke-width:0.5;" x1="4452.7" x2="5140.9275" y1="327.6525" y2="327.6525"/><text fill="#000000" font-family="sans-serif" font-size="14" lengthAdjust="spacing" textLength="223.2822" x="4457.7" y="344.6476">Messstellenbetriebsabrechnung</text><text fill="#000000" font-family="sans-serif" font-size="14" lengthAdjust="spacing" textLength="105.0957" x="4457.7" y="360.9445">Gesetze: MsbG</text><text fill="#000000" font-family="sans-serif" font-size="14" lengthAdjust="spacing" textLength="678.2275" x="4457.7" y="377.2414">Zusammenfassung: Beschreibe den Prozess der Abrechnung von Messstellenbetriebsleistungen.</text><line style="stroke:#181818;stroke-width:0.5;" x1="4452.7" x2="5140.9275" y1="384.5431" y2="384.5431"/></g><!--class UNH_0070_proc_3--><g class="entity" data-entity="UNH_0070_proc_3" data-source-line="102" data-uid="ent0025" id="entity_UNH_0070_proc_3"><rect fill="#F1F1F1" height="105.1563" rx="2.5" ry="2.5" style="stroke:#181818;stroke-width:0.5;" width="378.2285" x="5176.7" y="287.3869"/><ellipse cx="5297.72" cy="307.5197" fill="#ADD1B2" rx="11" ry="11" style="stroke:#181818;stroke-width:1;"/><path d="M5300.6888,313.1603 Q5300.1106,313.4572 5299.47,313.5978 Q5298.8294,313.7541 5298.1263,313.7541 Q5295.6263,313.7541 5294.2981,312.1134 Q5292.9856,310.4572 5292.9856,307.3322 Q5292.9856,304.2072 5294.2981,302.5509 Q5295.6263,300.8947 5298.1263,300.8947 Q5298.8294,300.8947 5299.47,301.0509 Q5300.1263,301.2072 5300.6888,301.5041 L5300.6888,304.2228 Q5300.0638,303.6447 5299.47,303.3791 Q5298.8763,303.0978 5298.2513,303.0978 Q5296.9075,303.0978 5296.22,304.1759 Q5295.5325,305.2384 5295.5325,307.3322 Q5295.5325,309.4259 5296.22,310.5041 Q5296.9075,311.5666 5298.2513,311.5666 Q5298.8763,311.5666 5299.47,311.3009 Q5300.0638,311.0197 5300.6888,310.4416 L5300.6888,313.1603 Z " fill="#000000"/><text fill="#000000" font-family="sans-serif" font-size="12" font-style="italic" lengthAdjust="spacing" textLength="61.0605" x="5351.534" y="303.5255">&#171;process&#187;</text><text fill="#000000" font-family="sans-serif" font-size="14" lengthAdjust="spacing" textLength="127.6885" x="5318.22" y="319.3507">UNH_0070_proc_3</text><line style="stroke:#181818;stroke-width:0.5;" x1="5177.7" x2="5553.9285" y1="327.6525" y2="327.6525"/><text fill="#000000" font-family="sans-serif" font-size="14" lengthAdjust="spacing" textLength="334.3525" x="5182.7" y="344.6476">Anforderung und &#220;bermittlung von Messwerten</text><text fill="#000000" font-family="sans-serif" font-size="14" lengthAdjust="spacing" textLength="105.0957" x="5182.7" y="360.9445">Gesetze: MsbG</text><line style="stroke:#181818;stroke-width:0.5;" x1="5177.7" x2="5553.9285" y1="368.2463" y2="368.2463"/><text fill="#000000" font-family="sans-serif" font-size="14" lengthAdjust="spacing" textLength="366.2285" x="5182.7" y="385.2414">Zusammenfassung: Wie kann ein Marktpartner (z.B.</text></g><!--class UNH_0070_proc_4--><g class="entity" data-entity="UNH_0070_proc_4" data-source-line="108" data-uid="ent0027" id="entity_UNH_0070_proc_4"><rect fill="#F1F1F1" height="88.8594" rx="2.5" ry="2.5" style="stroke:#181818;stroke-width:0.5;" width="638.3496" x="5589.64" y="295.5369"/><ellipse cx="5840.7206" cy="315.6697" fill="#ADD1B2" rx="11" ry="11" style="stroke:#181818;stroke-width:1;"/><path d="M5843.6893,321.3103 Q5843.1112,321.6072 5842.4706,321.7478 Q5841.8299,321.9041 5841.1268,321.9041 Q5838.6268,321.9041 5837.2987,320.2634 Q5835.9862,318.6072 5835.9862,315.4822 Q5835.9862,312.3572 5837.2987,310.7009 Q5838.6268,309.0447 5841.1268,309.0447 Q5841.8299,309.0447 5842.4706,309.2009 Q5843.1268,309.3572 5843.6893,309.6541 L5843.6893,312.3728 Q5843.0643,311.7947 5842.4706,311.5291 Q5841.8768,311.2478 5841.2518,311.2478 Q5839.9081,311.2478 5839.2206,312.3259 Q5838.5331,313.3884 5838.5331,315.4822 Q5838.5331,317.5759 5839.2206,318.6541 Q5839.9081,319.7166 5841.2518,319.7166 Q5841.8768,319.7166 5842.4706,319.4509 Q5843.0643,319.1697 5843.6893,318.5916 L5843.6893,321.3103 Z " fill="#000000"/><text fill="#000000" font-family="sans-serif" font-size="12" font-style="italic" lengthAdjust="spacing" textLength="61.0605" x="5894.5345" y="311.6755">&#171;process&#187;</text><text fill="#000000" font-family="sans-serif" font-size="14" lengthAdjust="spacing" textLength="127.6885" x="5861.2206" y="327.5007">UNH_0070_proc_4</text><line style="stroke:#181818;stroke-width:0.5;" x1="5590.64" x2="6226.9896" y1="335.8025" y2="335.8025"/><text fill="#000000" font-family="sans-serif" font-size="14" lengthAdjust="spacing" textLength="158.0127" x="5595.64" y="352.7976">Stammdaten&#228;nderung</text><text fill="#000000" font-family="sans-serif" font-size="14" lengthAdjust="spacing" textLength="626.3496" x="5595.64" y="369.0945">Zusammenfassung: Wie wird eine Stammdaten&#228;nderung an einer Marktlokation, wie z.B.</text><line style="stroke:#181818;stroke-width:0.5;" x1="5590.64" x2="6226.9896" y1="376.3963" y2="376.3963"/></g><!--link UNH_0070 to UNH_0070_msg_1--><g class="link" data-entity-1="UNH_0070" data-entity-2="UNH_0070_msg_1" data-source-line="18" data-uid="lnk4" id="link_UNH_0070_UNH_0070_msg_1"><path codeLine="18" d="M2630.23,125.9169 C2290.07,140.9069 1531.13,176.2969 892.81,220.0769 C644.08,237.1369 576,207.8369 333.81,267.0769 C328.16,268.4569 328.2003,268.328 322.4703,269.998" fill="none" id="UNH_0070-to-UNH_0070_msg_1" style="stroke:#181818;stroke-width:1;"/><polygon fill="#181818" points="316.71,271.6769,326.4697,272.9988,321.5103,270.2778,324.2313,265.3184,316.71,271.6769" style="stroke:#181818;stroke-width:1;"/><text fill="#000000" font-family="sans-serif" font-size="13" lengthAdjust="spacing" textLength="85.2363" x="893.81" y="233.1438">verwendet in</text></g><!--link UNH_0070 to UNH_0070_msg_2--><g class="link" data-entity-1="UNH_0070" data-entity-2="UNH_0070_msg_2" data-source-line="26" data-uid="lnk6" id="link_UNH_0070_UNH_0070_msg_2"><path codeLine="26" d="M2630.25,126.5769 C2332.78,141.0969 1721.17,173.8369 1204.81,220.0769 C1023.89,236.2769 976.55,229.5869 798.81,267.0769 C787.88,269.3769 782.5502,270.5192 771.3302,273.3292" fill="none" id="UNH_0070-to-UNH_0070_msg_2" style="stroke:#181818;stroke-width:1;"/><polygon fill="#181818" points="765.51,274.7869,775.2121,276.4806,770.3602,273.5722,773.2686,268.7202,765.51,274.7869" style="stroke:#181818;stroke-width:1;"/><text fill="#000000" font-family="sans-serif" font-size="13" lengthAdjust="spacing" textLength="85.2363" x="1205.81" y="233.1438">verwendet in</text></g><!--link UNH_0070 to UNH_0070_msg_3--><g class="link" data-entity-1="UNH_0070" data-entity-2="UNH_0070_msg_3" data-source-line="35" data-uid="lnk8" id="link_UNH_0070_UNH_0070_msg_3"><path codeLine="35" d="M2630.21,126.8869 C2256.68,146.0769 1410.72,196.0369 1130.81,267.0769 C1125.03,268.5469 1124.9274,268.4313 1119.0774,270.2213" fill="none" id="UNH_0070-to-UNH_0070_msg_3" style="stroke:#181818;stroke-width:1;"/><polygon fill="#181818" points="1113.34,271.9769,1123.1165,273.1685,1118.1212,270.5139,1120.7758,265.5186,1113.34,271.9769" style="stroke:#181818;stroke-width:1;"/><text fill="#000000" font-family="sans-serif" font-size="13" lengthAdjust="spacing" textLength="85.2363" x="1407.81" y="233.1438">verwendet in</text></g><!--link UNH_0070 to UNH_0070_msg_4--><g class="link" data-entity-1="UNH_0070" data-entity-2="UNH_0070_msg_4" data-source-line="44" data-uid="lnk10" id="link_UNH_0070_UNH_0070_msg_4"><path codeLine="44" d="M2630.47,133.9469 C2403.17,155.5569 2001.14,199.5569 1661.81,267.0769 C1655.95,268.2469 1655.8883,268.2164 1649.9283,269.4864" fill="none" id="UNH_0070-to-UNH_0070_msg_4" style="stroke:#181818;stroke-width:1;"/><polygon fill="#181818" points="1644.06,270.7369,1653.696,272.7734,1648.9502,269.6948,1652.0287,264.949,1644.06,270.7369" style="stroke:#181818;stroke-width:1;"/><text fill="#000000" font-family="sans-serif" font-size="13" lengthAdjust="spacing" textLength="85.2363" x="1912.81" y="233.1438">verwendet in</text></g><!--link UNH_0070 to UNH_0070_msg_5--><g class="link" data-entity-1="UNH_0070" data-entity-2="UNH_0070_msg_5" data-source-line="53" data-uid="lnk12" id="link_UNH_0070_UNH_0070_msg_5"><path codeLine="53" d="M2630.32,160.2869 C2506.91,189.4169 2339.7,229.5369 2192.81,267.0769 C2186.91,268.5869 2186.7388,268.6241 2180.7088,270.1841" fill="none" id="UNH_0070-to-UNH_0070_msg_5" style="stroke:#181818;stroke-width:1;"/><polygon fill="#181818" points="2174.9,271.6869,2184.615,273.3052,2179.7406,270.4346,2182.6113,265.5602,2174.9,271.6869" style="stroke:#181818;stroke-width:1;"/><text fill="#000000" font-family="sans-serif" font-size="13" lengthAdjust="spacing" textLength="85.2363" x="2380.81" y="233.1438">verwendet in</text></g><!--link UNH_0070 to UNH_0070_msg_6--><g class="link" data-entity-1="UNH_0070" data-entity-2="UNH_0070_msg_6" data-source-line="62" data-uid="lnk14" id="link_UNH_0070_UNH_0070_msg_6"><path codeLine="62" d="M2682.46,190.4769 C2639.03,214.9369 2595.7784,239.3034 2552.3484,263.7534" fill="none" id="UNH_0070-to-UNH_0070_msg_6" style="stroke:#181818;stroke-width:1;"/><polygon fill="#181818" points="2547.12,266.6969,2556.9249,265.7673,2551.477,264.244,2553.0003,258.7961,2547.12,266.6969" style="stroke:#181818;stroke-width:1;"/><text fill="#000000" font-family="sans-serif" font-size="13" lengthAdjust="spacing" textLength="85.2363" x="2627.81" y="233.1438">verwendet in</text></g><!--link UNH_0070 to UNH_0070_msg_7--><g class="link" data-entity-1="UNH_0070" data-entity-2="UNH_0070_msg_7" data-source-line="71" data-uid="lnk16" id="link_UNH_0070_UNH_0070_msg_7"><path codeLine="71" d="M2810.81,190.4769 C2810.81,214.9969 2810.81,236.3869 2810.81,260.8869" fill="none" id="UNH_0070-to-UNH_0070_msg_7" style="stroke:#181818;stroke-width:1;"/><polygon fill="#181818" points="2810.81,266.8869,2814.81,257.8869,2810.81,261.8869,2806.81,257.8869,2810.81,266.8869" style="stroke:#181818;stroke-width:1;"/><text fill="#000000" font-family="sans-serif" font-size="13" lengthAdjust="spacing" textLength="85.2363" x="2811.81" y="233.1438">verwendet in</text></g><!--link UNH_0070 to UNH_0070_msg_8--><g class="link" data-entity-1="UNH_0070" data-entity-2="UNH_0070_msg_8" data-source-line="80" data-uid="lnk18" id="link_UNH_0070_UNH_0070_msg_8"><path codeLine="80" d="M2919.52,190.4769 C2956.31,214.9369 2992.3733,238.9253 3029.1533,263.3753" fill="none" id="UNH_0070-to-UNH_0070_msg_8" style="stroke:#181818;stroke-width:1;"/><polygon fill="#181818" points="3034.15,266.6969,3028.8694,258.3833,3029.9861,263.9289,3024.4406,265.0456,3034.15,266.6969" style="stroke:#181818;stroke-width:1;"/><text fill="#000000" font-family="sans-serif" font-size="13" lengthAdjust="spacing" textLength="85.2363" x="2987.81" y="233.1438">verwendet in</text></g><!--link UNH_0070 to UNH_0070_msg_9--><g class="link" data-entity-1="UNH_0070" data-entity-2="UNH_0070_msg_9" data-source-line="89" data-uid="lnk20" id="link_UNH_0070_UNH_0070_msg_9"><path codeLine="89" d="M2991.32,166.8969 C3086.58,193.9169 3204.94,229.5869 3308.81,267.0769 C3314.51,269.1369 3314.694,269.1385 3320.514,271.3585" fill="none" id="UNH_0070-to-UNH_0070_msg_9" style="stroke:#181818;stroke-width:1;"/><polygon fill="#181818" points="3326.12,273.4969,3319.1366,266.552,3321.4483,271.7149,3316.2854,274.0267,3326.12,273.4969" style="stroke:#181818;stroke-width:1;"/><text fill="#000000" font-family="sans-serif" font-size="13" lengthAdjust="spacing" textLength="85.2363" x="3215.81" y="233.1438">verwendet in</text></g><!--link UNH_0070 to UNH_0070_proc_1--><g class="link" data-entity-1="UNH_0070" data-entity-2="UNH_0070_proc_1" data-source-line="95" data-uid="lnk22" id="link_UNH_0070_UNH_0070_proc_1"><path codeLine="95" d="M2991.46,150.1269 C3160.81,180.1369 3421.03,226.3669 3646.81,267.0769 C3682.23,273.4569 3713.517,279.1224 3750.327,285.8224" fill="none" id="UNH_0070-to-UNH_0070_proc_1" style="stroke:#181818;stroke-width:1;stroke-dasharray:7,7;"/><polygon fill="#181818" points="3756.23,286.8969,3748.0918,281.3499,3751.3108,286.0015,3746.6592,289.2206,3756.23,286.8969" style="stroke:#181818;stroke-width:1;"/><text fill="#000000" font-family="sans-serif" font-size="13" lengthAdjust="spacing" textLength="91.6221" x="3464.81" y="233.1438">eingebettet in</text></g><!--link UNH_0070 to UNH_0070_proc_2--><g class="link" data-entity-1="UNH_0070" data-entity-2="UNH_0070_proc_2" data-source-line="101" data-uid="lnk24" id="link_UNH_0070_UNH_0070_proc_2"><path codeLine="101" d="M2991.47,128.5569 C3292.08,147.1969 3913.45,191.6169 4434.81,267.0769 C4473.18,272.6269 4507.7322,278.4639 4547.1422,285.8339" fill="none" id="UNH_0070-to-UNH_0070_proc_2" style="stroke:#181818;stroke-width:1;stroke-dasharray:7,7;"/><polygon fill="#181818" points="4553.04,286.9369,4544.9287,281.3506,4548.1252,286.0178,4543.4581,289.2143,4553.04,286.9369" style="stroke:#181818;stroke-width:1;"/><text fill="#000000" font-family="sans-serif" font-size="13" lengthAdjust="spacing" textLength="91.6221" x="4171.81" y="233.1438">eingebettet in</text></g><!--link UNH_0070 to UNH_0070_proc_3--><g class="link" data-entity-1="UNH_0070" data-entity-2="UNH_0070_proc_3" data-source-line="107" data-uid="lnk26" id="link_UNH_0070_UNH_0070_proc_3"><path codeLine="107" d="M2991.35,123.2769 C3466.84,137.6869 4745.52,183.2969 5159.81,267.0769 C5184.13,271.9969 5203.7817,277.249 5228.0617,285.109" fill="none" id="UNH_0070-to-UNH_0070_proc_3" style="stroke:#181818;stroke-width:1;stroke-dasharray:7,7;"/><polygon fill="#181818" points="5233.77,286.9569,5226.4394,280.3794,5229.013,285.4169,5223.9755,287.9906,5233.77,286.9569" style="stroke:#181818;stroke-width:1;"/><text fill="#000000" font-family="sans-serif" font-size="13" lengthAdjust="spacing" textLength="91.6221" x="4924.81" y="233.1438">eingebettet in</text></g><!--link UNH_0070 to UNH_0070_proc_4--><g class="link" data-entity-1="UNH_0070" data-entity-2="UNH_0070_proc_4" data-source-line="112" data-uid="lnk28" id="link_UNH_0070_UNH_0070_proc_4"><path codeLine="112" d="M2991.39,124.0769 C3369.1,136.9269 4270.11,170.3669 5024.81,220.0769 C5268.74,236.1469 5331.04,230.9869 5572.81,267.0769 C5622.08,274.4269 5669.0816,283.3873 5717.9716,293.7973" fill="none" id="UNH_0070-to-UNH_0070_proc_4" style="stroke:#181818;stroke-width:1;stroke-dasharray:7,7;"/><polygon fill="#181818" points="5723.84,295.0469,5715.8704,289.2603,5718.9496,294.0056,5714.2043,297.0848,5723.84,295.0469" style="stroke:#181818;stroke-width:1;"/><text fill="#000000" font-family="sans-serif" font-size="13" lengthAdjust="spacing" textLength="91.6221" x="5309.81" y="233.1438">eingebettet in</text></g><!--SRC=[jPRDRjf04CVlUOevjf9ZsORmfOYAG9hG1aA1KYaNo-01LjXhj5w7YgflKgcNlabUhBC60i44cwevM5hlrynlPkU_Avdq41gEHEv8pmdX7BwsRok6KJJEHlGVgbzR_SAFCu2susC5kZX6WNp98zz70Iw6q4FkeWXfIaS4Imn3h50RQBisIfeebn6VXCvGu6ZAgRaURD7CKABd8H-Y50o7oJarFWu4RKuz474NdduDKVXCIa_rF0OytcM1WXZMIthIyNrNGJtzuQkbPp_tU6m_dDZccceq5MmqbHMetxSQpHwOke4wZNmEkCJlr7-5B9mpz1HLP-ofoMFqt0fySgYd7b0CAc0KD33B6bYMHcRKTxiRaDT3yILI8TXOjrlD6zkq3RHjox3oHi4iwtDtJ0JFkJW_h-w3LE0HnKAbGGBZXs2j96oxtxq3IpU6kwn3P73jpySKkmcbbwl9r3bpE9VlzMC1i784Vw51iw51g_C2J5cAmIpR6DfEzFGRXKehbselN94MhK8ggPM1DBTFscptkfq-fTLqTabl6LzGOeyczUGahcojasWwYimq3SDC9Sjb8CidoGRtpJhbiEIUJfRrY6gfXRg5L-wi4aqksHznwg6O1KBWJ4P21UF2C7FfmSXd2CR5aM3eRvFdVuk4JP78NiiN6T0B- -Yj7jLOZz3peopaRMHyorue9K_2YRAxmLxviSREZnHrpYJoLEf21khYFdMdrkqtsx5SdwxM9gcreK6XU5Yj3rqYMywLvQrKg-ncgl9Y1ivIWhFRhDVwIgdViCftwM9x6xrsiv_TKWQwyZvTzxfLQmo8hZnwcKLwNSp8iV-hpojhQuagdt12oobiSn6Cw2A-l5GDSgPQNO6-vj0DXZGKdpGH-EthWRPkFGnez24AwVmX7vCD5GFunX364Pz95d16PGSkTHpU79OB5jAjokDn9LF8g7hZEhvZwlNcSFbX5rRNgmcG2f18J92MozTvhGHlca0-OxV2uSqXq2iatsEFwMd9Dwcbje3Q5d6ZG7kcFAe7IUF8zUDyLZQ-N8BlH65CnLLvLMyhvGsq736JSqT8JhJlblfL2aKk6qK-GN5OtGuwjs32LKRmq29mOiV9szXrBvWvwe1gj0eXtVzyml-_]--></g></svg>