<svg xmlns="http://www.w3.org/2000/svg" xmlns:xlink="http://www.w3.org/1999/xlink" contentStyleType="text/css" data-diagram-type="CLASS" height="387px" preserveAspectRatio="none" style="width:2811px;height:387px;background:#FFFFFF;" version="1.1" viewBox="0 0 2811 387" width="2811px" zoomAndPan="magnify"><title>Datenatlas - UNH:0073</title><defs/><g><g class="title" data-source-line="1"><text fill="#000000" font-family="sans-serif" font-size="14" font-weight="bold" lengthAdjust="spacing" textLength="180.8652" x="1308.3562" y="22.9951">Datenatlas - UNH:0073</text></g><!--class UNH_0073--><g class="entity" data-entity="UNH_0073" data-source-line="2" data-uid="ent0002" id="entity_UNH_0073"><rect fill="#F1F1F1" height="113.1875" rx="2.5" ry="2.5" style="stroke:#181818;stroke-width:0.5;" width="316.3291" x="985.3" y="44.2969"/><ellipse cx="1102.2766" cy="60.2969" fill="#ADD1B2" rx="11" ry="11" style="stroke:#181818;stroke-width:1;"/><path d="M1105.2453,65.9375 Q1104.6672,66.2344 1104.0266,66.375 Q1103.3859,66.5313 1102.6828,66.5313 Q1100.1828,66.5313 1098.8547,64.8906 Q1097.5422,63.2344 1097.5422,60.1094 Q1097.5422,56.9844 1098.8547,55.3281 Q1100.1828,53.6719 1102.6828,53.6719 Q1103.3859,53.6719 1104.0266,53.8281 Q1104.6828,53.9844 1105.2453,54.2813 L1105.2453,57 Q1104.6203,56.4219 1104.0266,56.1563 Q1103.4328,55.875 1102.8078,55.875 Q1101.4641,55.875 1100.7766,56.9531 Q1100.0891,58.0156 1100.0891,60.1094 Q1100.0891,62.2031 1100.7766,63.2813 Q1101.4641,64.3438 1102.8078,64.3438 Q1103.4328,64.3438 1104.0266,64.0781 Q1104.6203,63.7969 1105.2453,63.2188 L1105.2453,65.9375 Z " fill="#000000"/><text fill="#000000" font-family="sans-serif" font-size="14" lengthAdjust="spacing" textLength="73.876" x="1122.7766" y="65.1436">UNH_0073</text><line style="stroke:#181818;stroke-width:0.5;" x1="986.3" x2="1300.6291" y1="76.2969" y2="76.2969"/><text fill="#000000" font-family="sans-serif" font-size="14" lengthAdjust="spacing" textLength="290.3291" x="1005.3" y="93.292">Name: Referenznummer des Empf&#228;ngers</text><text fill="#000000" font-family="sans-serif" font-size="14" lengthAdjust="spacing" textLength="66.6436" x="1005.3" y="109.5889">Prozesse:</text><rect fill="none" height="6" style="stroke:#C82930;stroke-width:1;" width="6" x="993.3" y="119.5391"/><text fill="#000000" font-family="sans-serif" font-size="14" lengthAdjust="spacing" textLength="180.3457" x="1005.3" y="125.8857">Netznutzungsabrechnung</text><rect fill="none" height="6" style="stroke:#C82930;stroke-width:1;" width="6" x="993.3" y="135.8359"/><text fill="#000000" font-family="sans-serif" font-size="14" lengthAdjust="spacing" textLength="223.2822" x="1005.3" y="142.1826">Messstellenbetriebsabrechnung</text><line style="stroke:#181818;stroke-width:0.5;" x1="986.3" x2="1300.6291" y1="149.4844" y2="149.4844"/></g><!--class UNH_0073_msg_1--><g class="entity" data-entity="UNH_0073_msg_1" data-source-line="8" data-uid="ent0003" id="entity_UNH_0073_msg_1"><rect fill="#F1F1F1" height="145.7813" rx="2.5" ry="2.5" style="stroke:#181818;stroke-width:0.5;" width="422.9219" x="7" y="234.4869"/><ellipse cx="150.9102" cy="250.4869" fill="#ADD1B2" rx="11" ry="11" style="stroke:#181818;stroke-width:1;"/><path d="M153.8789,256.1275 Q153.3008,256.4244 152.6602,256.565 Q152.0195,256.7213 151.3164,256.7213 Q148.8164,256.7213 147.4883,255.0806 Q146.1758,253.4244 146.1758,250.2994 Q146.1758,247.1744 147.4883,245.5181 Q148.8164,243.8619 151.3164,243.8619 Q152.0195,243.8619 152.6602,244.0181 Q153.3164,244.1744 153.8789,244.4713 L153.8789,247.19 Q153.2539,246.6119 152.6602,246.3463 Q152.0664,246.065 151.4414,246.065 Q150.0977,246.065 149.4102,247.1431 Q148.7227,248.2056 148.7227,250.2994 Q148.7227,252.3931 149.4102,253.4713 Q150.0977,254.5338 151.4414,254.5338 Q152.0664,254.5338 152.6602,254.2681 Q153.2539,253.9869 153.8789,253.4088 L153.8789,256.1275 Z " fill="#000000"/><text fill="#000000" font-family="sans-serif" font-size="14" lengthAdjust="spacing" textLength="126.6016" x="171.4102" y="255.3336">UNH_0073_msg_1</text><line style="stroke:#181818;stroke-width:0.5;" x1="8" x2="428.9219" y1="266.4869" y2="266.4869"/><text fill="#000000" font-family="sans-serif" font-size="14" lengthAdjust="spacing" textLength="161.998" x="13" y="283.482">Nachricht: INSRPT 1.1a</text><text fill="#000000" font-family="sans-serif" font-size="14" lengthAdjust="spacing" textLength="122.917" x="13" y="299.7789">Kontext: Hinweis:</text><text fill="#000000" font-family="sans-serif" font-size="14" lengthAdjust="spacing" textLength="91.4033" x="13" y="316.0757">Pflichtfeld: Ja</text><text fill="#000000" font-family="sans-serif" font-size="14" lengthAdjust="spacing" textLength="113.1689" x="13" y="332.3726">Codes: UN, UNH</text><text fill="#000000" font-family="sans-serif" font-size="14" lengthAdjust="spacing" textLength="251.4395" x="13" y="348.6695">Prozesse: Netznutzungsabrechnung</text><text fill="#000000" font-family="sans-serif" font-size="14" lengthAdjust="spacing" textLength="410.9219" x="13" y="364.9664">Quelle: INSRPT_MIG_1_1a_au&#223;erordentliche_20240726.pdf</text><line style="stroke:#181818;stroke-width:0.5;" x1="8" x2="428.9219" y1="372.2681" y2="372.2681"/></g><!--class UNH_0073_msg_2--><g class="entity" data-entity="UNH_0073_msg_2" data-source-line="17" data-uid="ent0005" id="entity_UNH_0073_msg_2"><rect fill="#F1F1F1" height="145.7813" rx="2.5" ry="2.5" style="stroke:#181818;stroke-width:0.5;" width="495.6221" x="464.65" y="234.4869"/><ellipse cx="644.9103" cy="250.4869" fill="#ADD1B2" rx="11" ry="11" style="stroke:#181818;stroke-width:1;"/><path d="M647.879,256.1275 Q647.3009,256.4244 646.6603,256.565 Q646.0196,256.7213 645.3165,256.7213 Q642.8165,256.7213 641.4884,255.0806 Q640.1759,253.4244 640.1759,250.2994 Q640.1759,247.1744 641.4884,245.5181 Q642.8165,243.8619 645.3165,243.8619 Q646.0196,243.8619 646.6603,244.0181 Q647.3165,244.1744 647.879,244.4713 L647.879,247.19 Q647.254,246.6119 646.6603,246.3463 Q646.0665,246.065 645.4415,246.065 Q644.0978,246.065 643.4103,247.1431 Q642.7228,248.2056 642.7228,250.2994 Q642.7228,252.3931 643.4103,253.4713 Q644.0978,254.5338 645.4415,254.5338 Q646.0665,254.5338 646.6603,254.2681 Q647.254,253.9869 647.879,253.4088 L647.879,256.1275 Z " fill="#000000"/><text fill="#000000" font-family="sans-serif" font-size="14" lengthAdjust="spacing" textLength="126.6016" x="665.4103" y="255.3336">UNH_0073_msg_2</text><line style="stroke:#181818;stroke-width:0.5;" x1="465.65" x2="959.2721" y1="266.4869" y2="266.4869"/><text fill="#000000" font-family="sans-serif" font-size="14" lengthAdjust="spacing" textLength="165.6484" x="470.65" y="283.482">Nachricht: INVOIC 2.8d.</text><text fill="#000000" font-family="sans-serif" font-size="14" lengthAdjust="spacing" textLength="122.917" x="470.65" y="299.7789">Kontext: Hinweis:</text><text fill="#000000" font-family="sans-serif" font-size="14" lengthAdjust="spacing" textLength="91.4033" x="470.65" y="316.0757">Pflichtfeld: Ja</text><text fill="#000000" font-family="sans-serif" font-size="14" lengthAdjust="spacing" textLength="83.5488" x="470.65" y="332.3726">Codes: UNH</text><text fill="#000000" font-family="sans-serif" font-size="14" lengthAdjust="spacing" textLength="483.6221" x="470.65" y="348.6695">Prozesse: Netznutzungsabrechnung, Messstellenbetriebsabrechnung</text><text fill="#000000" font-family="sans-serif" font-size="14" lengthAdjust="spacing" textLength="290.3359" x="470.65" y="364.9664">Quelle: INVOIC_MIG_2_8d__20240619.pdf</text><line style="stroke:#181818;stroke-width:0.5;" x1="465.65" x2="959.2721" y1="372.2681" y2="372.2681"/></g><!--class UNH_0073_msg_3--><g class="entity" data-entity="UNH_0073_msg_3" data-source-line="26" data-uid="ent0007" id="entity_UNH_0073_msg_3"><rect fill="#F1F1F1" height="145.7813" rx="2.5" ry="2.5" style="stroke:#181818;stroke-width:0.5;" width="296.4365" x="995.24" y="234.4869"/><ellipse cx="1075.9075" cy="250.4869" fill="#ADD1B2" rx="11" ry="11" style="stroke:#181818;stroke-width:1;"/><path d="M1078.8762,256.1275 Q1078.2981,256.4244 1077.6575,256.565 Q1077.0169,256.7213 1076.3137,256.7213 Q1073.8137,256.7213 1072.4856,255.0806 Q1071.1731,253.4244 1071.1731,250.2994 Q1071.1731,247.1744 1072.4856,245.5181 Q1073.8137,243.8619 1076.3137,243.8619 Q1077.0169,243.8619 1077.6575,244.0181 Q1078.3137,244.1744 1078.8762,244.4713 L1078.8762,247.19 Q1078.2512,246.6119 1077.6575,246.3463 Q1077.0637,246.065 1076.4387,246.065 Q1075.095,246.065 1074.4075,247.1431 Q1073.72,248.2056 1073.72,250.2994 Q1073.72,252.3931 1074.4075,253.4713 Q1075.095,254.5338 1076.4387,254.5338 Q1077.0637,254.5338 1077.6575,254.2681 Q1078.2512,253.9869 1078.8762,253.4088 L1078.8762,256.1275 Z " fill="#000000"/><text fill="#000000" font-family="sans-serif" font-size="14" lengthAdjust="spacing" textLength="126.6016" x="1096.4075" y="255.3336">UNH_0073_msg_3</text><line style="stroke:#181818;stroke-width:0.5;" x1="996.24" x2="1290.6765" y1="266.4869" y2="266.4869"/><text fill="#000000" font-family="sans-serif" font-size="14" lengthAdjust="spacing" textLength="162.2988" x="1001.24" y="283.482">Nachricht: PRICAT 2.0d</text><text fill="#000000" font-family="sans-serif" font-size="14" lengthAdjust="spacing" textLength="122.917" x="1001.24" y="299.7789">Kontext: Hinweis:</text><text fill="#000000" font-family="sans-serif" font-size="14" lengthAdjust="spacing" textLength="91.4033" x="1001.24" y="316.0757">Pflichtfeld: Ja</text><text fill="#000000" font-family="sans-serif" font-size="14" lengthAdjust="spacing" textLength="113.1689" x="1001.24" y="332.3726">Codes: UN, UNH</text><text fill="#000000" font-family="sans-serif" font-size="14" lengthAdjust="spacing" textLength="251.4395" x="1001.24" y="348.6695">Prozesse: Netznutzungsabrechnung</text><text fill="#000000" font-family="sans-serif" font-size="14" lengthAdjust="spacing" textLength="284.4365" x="1001.24" y="364.9664">Quelle: PRICAT_MIG_2_0d_20240619.pdf</text><line style="stroke:#181818;stroke-width:0.5;" x1="996.24" x2="1290.6765" y1="372.2681" y2="372.2681"/></g><!--class UNH_0073_proc_1--><g class="entity" data-entity="UNH_0073_proc_1" data-source-line="35" data-uid="ent0009" id="entity_UNH_0073_proc_1"><rect fill="#F1F1F1" height="105.1563" rx="2.5" ry="2.5" style="stroke:#181818;stroke-width:0.5;" width="752.6465" x="1327.14" y="254.7969"/><ellipse cx="1635.369" cy="274.9297" fill="#ADD1B2" rx="11" ry="11" style="stroke:#181818;stroke-width:1;"/><path d="M1638.3378,280.5703 Q1637.7596,280.8672 1637.119,281.0078 Q1636.4784,281.1641 1635.7753,281.1641 Q1633.2753,281.1641 1631.9471,279.5234 Q1630.6346,277.8672 1630.6346,274.7422 Q1630.6346,271.6172 1631.9471,269.9609 Q1633.2753,268.3047 1635.7753,268.3047 Q1636.4784,268.3047 1637.119,268.4609 Q1637.7753,268.6172 1638.3378,268.9141 L1638.3378,271.6328 Q1637.7128,271.0547 1637.119,270.7891 Q1636.5253,270.5078 1635.9003,270.5078 Q1634.5565,270.5078 1633.869,271.5859 Q1633.1815,272.6484 1633.1815,274.7422 Q1633.1815,276.8359 1633.869,277.9141 Q1634.5565,278.9766 1635.9003,278.9766 Q1636.5253,278.9766 1637.119,278.7109 Q1637.7128,278.4297 1638.3378,277.8516 L1638.3378,280.5703 Z " fill="#000000"/><text fill="#000000" font-family="sans-serif" font-size="12" font-style="italic" lengthAdjust="spacing" textLength="61.0605" x="1689.183" y="270.9355">&#171;process&#187;</text><text fill="#000000" font-family="sans-serif" font-size="14" lengthAdjust="spacing" textLength="127.6885" x="1655.869" y="286.7607">UNH_0073_proc_1</text><line style="stroke:#181818;stroke-width:0.5;" x1="1328.14" x2="2078.7865" y1="295.0625" y2="295.0625"/><text fill="#000000" font-family="sans-serif" font-size="14" lengthAdjust="spacing" textLength="180.3457" x="1333.14" y="312.0576">Netznutzungsabrechnung</text><text fill="#000000" font-family="sans-serif" font-size="14" lengthAdjust="spacing" textLength="218.0938" x="1333.14" y="328.3545">Gesetze: StromNEV, StromNZV</text><text fill="#000000" font-family="sans-serif" font-size="14" lengthAdjust="spacing" textLength="740.6465" x="1333.14" y="344.6514">Zusammenfassung: Wie funktioniert die Netznutzungsabrechnung zwischen Netzbetreiber und Lieferant?</text><line style="stroke:#181818;stroke-width:0.5;" x1="1328.14" x2="2078.7865" y1="351.9531" y2="351.9531"/></g><!--class UNH_0073_proc_2--><g class="entity" data-entity="UNH_0073_proc_2" data-source-line="41" data-uid="ent0011" id="entity_UNH_0073_proc_2"><rect fill="#F1F1F1" height="105.1563" rx="2.5" ry="2.5" style="stroke:#181818;stroke-width:0.5;" width="690.2275" x="2114.35" y="254.7969"/><ellipse cx="2391.3695" cy="274.9297" fill="#ADD1B2" rx="11" ry="11" style="stroke:#181818;stroke-width:1;"/><path d="M2394.3383,280.5703 Q2393.7602,280.8672 2393.1195,281.0078 Q2392.4789,281.1641 2391.7758,281.1641 Q2389.2758,281.1641 2387.9477,279.5234 Q2386.6352,277.8672 2386.6352,274.7422 Q2386.6352,271.6172 2387.9477,269.9609 Q2389.2758,268.3047 2391.7758,268.3047 Q2392.4789,268.3047 2393.1195,268.4609 Q2393.7758,268.6172 2394.3383,268.9141 L2394.3383,271.6328 Q2393.7133,271.0547 2393.1195,270.7891 Q2392.5258,270.5078 2391.9008,270.5078 Q2390.557,270.5078 2389.8695,271.5859 Q2389.182,272.6484 2389.182,274.7422 Q2389.182,276.8359 2389.8695,277.9141 Q2390.557,278.9766 2391.9008,278.9766 Q2392.5258,278.9766 2393.1195,278.7109 Q2393.7133,278.4297 2394.3383,277.8516 L2394.3383,280.5703 Z " fill="#000000"/><text fill="#000000" font-family="sans-serif" font-size="12" font-style="italic" lengthAdjust="spacing" textLength="61.0605" x="2445.1835" y="270.9355">&#171;process&#187;</text><text fill="#000000" font-family="sans-serif" font-size="14" lengthAdjust="spacing" textLength="127.6885" x="2411.8695" y="286.7607">UNH_0073_proc_2</text><line style="stroke:#181818;stroke-width:0.5;" x1="2115.35" x2="2803.5775" y1="295.0625" y2="295.0625"/><text fill="#000000" font-family="sans-serif" font-size="14" lengthAdjust="spacing" textLength="223.2822" x="2120.35" y="312.0576">Messstellenbetriebsabrechnung</text><text fill="#000000" font-family="sans-serif" font-size="14" lengthAdjust="spacing" textLength="105.0957" x="2120.35" y="328.3545">Gesetze: MsbG</text><text fill="#000000" font-family="sans-serif" font-size="14" lengthAdjust="spacing" textLength="678.2275" x="2120.35" y="344.6514">Zusammenfassung: Beschreibe den Prozess der Abrechnung von Messstellenbetriebsleistungen.</text><line style="stroke:#181818;stroke-width:0.5;" x1="2115.35" x2="2803.5775" y1="351.9531" y2="351.9531"/></g><!--link UNH_0073 to UNH_0073_msg_1--><g class="link" data-entity-1="UNH_0073" data-entity-2="UNH_0073_msg_1" data-source-line="16" data-uid="lnk4" id="link_UNH_0073_UNH_0073_msg_1"><path codeLine="16" d="M985.11,126.6769 C843.29,150.1469 630.13,188.5769 447.46,234.4869 C441.8,235.9069 441.8796,235.849 436.1096,237.379" fill="none" id="UNH_0073-to-UNH_0073_msg_1" style="stroke:#181818;stroke-width:1;"/><polygon fill="#181818" points="430.31,238.9169,440.0346,240.4765,435.143,237.6353,437.9841,232.7437,430.31,238.9169" style="stroke:#181818;stroke-width:1;"/><text fill="#000000" font-family="sans-serif" font-size="13" lengthAdjust="spacing" textLength="85.2363" x="638.46" y="200.5538">verwendet in</text></g><!--link UNH_0073 to UNH_0073_msg_2--><g class="link" data-entity-1="UNH_0073" data-entity-2="UNH_0073_msg_2" data-source-line="25" data-uid="lnk6" id="link_UNH_0073_UNH_0073_msg_2"><path codeLine="25" d="M1025.4,157.9069 C975.81,181.4369 922.9107,206.5247 870.1407,231.5647" fill="none" id="UNH_0073-to-UNH_0073_msg_2" style="stroke:#181818;stroke-width:1;"/><polygon fill="#181818" points="864.72,234.1369,874.5658,233.8924,869.2372,231.9934,871.1362,226.6648,864.72,234.1369" style="stroke:#181818;stroke-width:1;"/><text fill="#000000" font-family="sans-serif" font-size="13" lengthAdjust="spacing" textLength="85.2363" x="955.46" y="200.5538">verwendet in</text></g><!--link UNH_0073 to UNH_0073_msg_3--><g class="link" data-entity-1="UNH_0073" data-entity-2="UNH_0073_msg_3" data-source-line="34" data-uid="lnk8" id="link_UNH_0073_UNH_0073_msg_3"><path codeLine="34" d="M1143.46,157.7669 C1143.46,181.2969 1143.46,202.9869 1143.46,228.0469" fill="none" id="UNH_0073-to-UNH_0073_msg_3" style="stroke:#181818;stroke-width:1;"/><polygon fill="#181818" points="1143.46,234.0469,1147.46,225.0469,1143.46,229.0469,1139.46,225.0469,1143.46,234.0469" style="stroke:#181818;stroke-width:1;"/><text fill="#000000" font-family="sans-serif" font-size="13" lengthAdjust="spacing" textLength="85.2363" x="1144.46" y="200.5538">verwendet in</text></g><!--link UNH_0073 to UNH_0073_proc_1--><g class="link" data-entity-1="UNH_0073" data-entity-2="UNH_0073_proc_1" data-source-line="40" data-uid="lnk10" id="link_UNH_0073_UNH_0073_proc_1"><path codeLine="40" d="M1296.85,157.9069 C1379.26,187.9969 1474.574,222.7987 1555.274,252.2687" fill="none" id="UNH_0073-to-UNH_0073_proc_1" style="stroke:#181818;stroke-width:1;stroke-dasharray:7,7;"/><polygon fill="#181818" points="1560.91,254.3269,1553.8281,247.4824,1556.2134,252.6118,1551.084,254.997,1560.91,254.3269" style="stroke:#181818;stroke-width:1;"/><text fill="#000000" font-family="sans-serif" font-size="13" lengthAdjust="spacing" textLength="91.6221" x="1424.46" y="200.5538">eingebettet in</text></g><!--link UNH_0073 to UNH_0073_proc_2--><g class="link" data-entity-1="UNH_0073" data-entity-2="UNH_0073_proc_2" data-source-line="46" data-uid="lnk12" id="link_UNH_0073_UNH_0073_proc_2"><path codeLine="46" d="M1301.72,121.0369 C1491.33,144.6369 1818.39,187.4169 2097.46,234.4869 C2133,240.4769 2164.5064,246.1821 2201.2364,253.1921" fill="none" id="UNH_0073-to-UNH_0073_proc_2" style="stroke:#181818;stroke-width:1;stroke-dasharray:7,7;"/><polygon fill="#181818" points="2207.13,254.3169,2199.0394,248.7006,2202.2186,253.3795,2197.5397,256.5587,2207.13,254.3169" style="stroke:#181818;stroke-width:1;"/><text fill="#000000" font-family="sans-serif" font-size="13" lengthAdjust="spacing" textLength="91.6221" x="1890.46" y="200.5538">eingebettet in</text></g><!--SRC=[lPJFRjf04CRlUOfv0B1iKoMf5L6bD2AqnIKafL8krjexXbNjCTfTXuYgpz9BtYGlrbaWAU9FePVUPdS-pto_dLrRPGk43y8Y2Li80qtu6bz7ld_MEibuRTmoSKluSG8GYn8Z66AE6cbETLcY1ea6hiff_ln4OzI6PGDTpT4OZ3W6BXcZPR6TrpGs8jMOJOZ3LRBFIcEnA91Ij5fXkgxvkM4ZASqu2LPciebMsSH6q8jlXuCx2Bn0SE9JHHOVUVjQqGoLSJO6UU6aEHOoWezErQdOUCI56wxukklzVczgv_EbNzBlTPCW2KGYwkTVg2ijaQphWqdeXs_yi_3KcygS8LvFiTbiRx94y81wXYJHWg9TlE4sx-XBhmEXTowzVmS-1hPnO2xhP-6yBCuYJCvbiaG_3TuUH0-FG6zjeW-6lSxb7QFxyh-CUjblXUVBu-bQ1-Yckifu-XSNBc0pxVOITP-XBXfEiQDRgwiolXerLj7zYBFtjH7y6Ydd7goFu9j2o6lwRbL52hK5oHkxYyDyfWnVMbhatR1HfVomQvBmMRd7BiY-MuVrlFOMI0Ie-0V0dzlzlE4Mxw5hzehTDsbt5-XxPEyBn_mdefVHSgpXyW_YGqMxMXLyPopdaRo_yuLRVBy1]--></g></svg>