<svg xmlns="http://www.w3.org/2000/svg" xmlns:xlink="http://www.w3.org/1999/xlink" contentStyleType="text/css" data-diagram-type="CLASS" height="419px" preserveAspectRatio="none" style="width:6369px;height:419px;background:#FFFFFF;" version="1.1" viewBox="0 0 6369 419" width="6369px" zoomAndPan="magnify"><title>Datenatlas - UNH:0065</title><defs/><g><g class="title" data-source-line="1"><text fill="#000000" font-family="sans-serif" font-size="14" font-weight="bold" lengthAdjust="spacing" textLength="180.8652" x="3087.5622" y="22.9951">Datenatlas - UNH:0065</text></g><!--class UNH_0065--><g class="entity" data-entity="UNH_0065" data-source-line="2" data-uid="ent0002" id="entity_UNH_0065"><rect fill="#F1F1F1" height="145.7813" rx="2.5" ry="2.5" style="stroke:#181818;stroke-width:0.5;" width="360.3525" x="2765.64" y="44.2969"/><ellipse cx="2904.6283" cy="60.2969" fill="#ADD1B2" rx="11" ry="11" style="stroke:#181818;stroke-width:1;"/><path d="M2907.597,65.9375 Q2907.0189,66.2344 2906.3783,66.375 Q2905.7377,66.5313 2905.0345,66.5313 Q2902.5345,66.5313 2901.2064,64.8906 Q2899.8939,63.2344 2899.8939,60.1094 Q2899.8939,56.9844 2901.2064,55.3281 Q2902.5345,53.6719 2905.0345,53.6719 Q2905.7377,53.6719 2906.3783,53.8281 Q2907.0345,53.9844 2907.597,54.2813 L2907.597,57 Q2906.972,56.4219 2906.3783,56.1563 Q2905.7845,55.875 2905.1595,55.875 Q2903.8158,55.875 2903.1283,56.9531 Q2902.4408,58.0156 2902.4408,60.1094 Q2902.4408,62.2031 2903.1283,63.2813 Q2903.8158,64.3438 2905.1595,64.3438 Q2905.7845,64.3438 2906.3783,64.0781 Q2906.972,63.7969 2907.597,63.2188 L2907.597,65.9375 Z " fill="#000000"/><text fill="#000000" font-family="sans-serif" font-size="14" lengthAdjust="spacing" textLength="73.876" x="2925.1283" y="65.1436">UNH_0065</text><line style="stroke:#181818;stroke-width:0.5;" x1="2766.64" x2="3124.9925" y1="76.2969" y2="76.2969"/><text fill="#000000" font-family="sans-serif" font-size="14" lengthAdjust="spacing" textLength="225.1689" x="2785.64" y="93.292">Name: Nachrichtentyp-Kennung</text><text fill="#000000" font-family="sans-serif" font-size="14" lengthAdjust="spacing" textLength="66.6436" x="2785.64" y="109.5889">Prozesse:</text><rect fill="none" height="6" style="stroke:#C82930;stroke-width:1;" width="6" x="2773.64" y="119.5391"/><text fill="#000000" font-family="sans-serif" font-size="14" lengthAdjust="spacing" textLength="180.3457" x="2785.64" y="125.8857">Netznutzungsabrechnung</text><rect fill="none" height="6" style="stroke:#C82930;stroke-width:1;" width="6" x="2773.64" y="135.8359"/><text fill="#000000" font-family="sans-serif" font-size="14" lengthAdjust="spacing" textLength="223.2822" x="2785.64" y="142.1826">Messstellenbetriebsabrechnung</text><rect fill="none" height="6" style="stroke:#C82930;stroke-width:1;" width="6" x="2773.64" y="152.1328"/><text fill="#000000" font-family="sans-serif" font-size="14" lengthAdjust="spacing" textLength="334.3525" x="2785.64" y="158.4795">Anforderung und &#220;bermittlung von Messwerten</text><rect fill="none" height="6" style="stroke:#C82930;stroke-width:1;" width="6" x="2773.64" y="168.4297"/><text fill="#000000" font-family="sans-serif" font-size="14" lengthAdjust="spacing" textLength="158.0127" x="2785.64" y="174.7764">Stammdaten&#228;nderung</text><line style="stroke:#181818;stroke-width:0.5;" x1="2766.64" x2="3124.9925" y1="182.0781" y2="182.0781"/></g><!--class UNH_0065_msg_1--><g class="entity" data-entity="UNH_0065_msg_1" data-source-line="10" data-uid="ent0003" id="entity_UNH_0065_msg_1"><rect fill="#F1F1F1" height="145.7813" rx="2.5" ry="2.5" style="stroke:#181818;stroke-width:0.5;" width="309.6299" x="7" y="267.0769"/><ellipse cx="94.2642" cy="283.0769" fill="#ADD1B2" rx="11" ry="11" style="stroke:#181818;stroke-width:1;"/><path d="M97.2329,288.7175 Q96.6548,289.0144 96.0142,289.155 Q95.3735,289.3113 94.6704,289.3113 Q92.1704,289.3113 90.8423,287.6706 Q89.5298,286.0144 89.5298,282.8894 Q89.5298,279.7644 90.8423,278.1081 Q92.1704,276.4519 94.6704,276.4519 Q95.3735,276.4519 96.0142,276.6081 Q96.6704,276.7644 97.2329,277.0613 L97.2329,279.78 Q96.6079,279.2019 96.0142,278.9363 Q95.4204,278.655 94.7954,278.655 Q93.4517,278.655 92.7642,279.7331 Q92.0767,280.7956 92.0767,282.8894 Q92.0767,284.9831 92.7642,286.0613 Q93.4517,287.1238 94.7954,287.1238 Q95.4204,287.1238 96.0142,286.8581 Q96.6079,286.5769 97.2329,285.9988 L97.2329,288.7175 Z " fill="#000000"/><text fill="#000000" font-family="sans-serif" font-size="14" lengthAdjust="spacing" textLength="126.6016" x="114.7642" y="287.9236">UNH_0065_msg_1</text><line style="stroke:#181818;stroke-width:0.5;" x1="8" x2="315.6299" y1="299.0769" y2="299.0769"/><text fill="#000000" font-family="sans-serif" font-size="14" lengthAdjust="spacing" textLength="172.9424" x="13" y="316.072">Nachricht: COMDIS 1.0e.</text><text fill="#000000" font-family="sans-serif" font-size="14" lengthAdjust="spacing" textLength="123.0605" x="13" y="332.3689">Kontext: Beispiel:</text><text fill="#000000" font-family="sans-serif" font-size="14" lengthAdjust="spacing" textLength="91.4033" x="13" y="348.6657">Pflichtfeld: Ja</text><text fill="#000000" font-family="sans-serif" font-size="14" lengthAdjust="spacing" textLength="193.3135" x="13" y="364.9626">Codes: 06, 19, 22, UN, UNH</text><text fill="#000000" font-family="sans-serif" font-size="14" lengthAdjust="spacing" textLength="251.4395" x="13" y="381.2595">Prozesse: Netznutzungsabrechnung</text><text fill="#000000" font-family="sans-serif" font-size="14" lengthAdjust="spacing" textLength="297.6299" x="13" y="397.5564">Quelle: COMDIS_MIG_1_0e__20240619.pdf</text><line style="stroke:#181818;stroke-width:0.5;" x1="8" x2="315.6299" y1="404.8581" y2="404.8581"/></g><!--class UNH_0065_msg_2--><g class="entity" data-entity="UNH_0065_msg_2" data-source-line="19" data-uid="ent0005" id="entity_UNH_0065_msg_2"><rect fill="#F1F1F1" height="129.4844" rx="2.5" ry="2.5" style="stroke:#181818;stroke-width:0.5;" width="438.0908" x="351.77" y="275.2269"/><ellipse cx="503.2646" cy="291.2269" fill="#ADD1B2" rx="11" ry="11" style="stroke:#181818;stroke-width:1;"/><path d="M506.2334,296.8675 Q505.6553,297.1644 505.0146,297.305 Q504.374,297.4613 503.6709,297.4613 Q501.1709,297.4613 499.8428,295.8206 Q498.5303,294.1644 498.5303,291.0394 Q498.5303,287.9144 499.8428,286.2581 Q501.1709,284.6019 503.6709,284.6019 Q504.374,284.6019 505.0146,284.7581 Q505.6709,284.9144 506.2334,285.2113 L506.2334,287.93 Q505.6084,287.3519 505.0146,287.0863 Q504.4209,286.805 503.7959,286.805 Q502.4521,286.805 501.7646,287.8831 Q501.0771,288.9456 501.0771,291.0394 Q501.0771,293.1331 501.7646,294.2113 Q502.4521,295.2738 503.7959,295.2738 Q504.4209,295.2738 505.0146,295.0081 Q505.6084,294.7269 506.2334,294.1488 L506.2334,296.8675 Z " fill="#000000"/><text fill="#000000" font-family="sans-serif" font-size="14" lengthAdjust="spacing" textLength="126.6016" x="523.7646" y="296.0736">UNH_0065_msg_2</text><line style="stroke:#181818;stroke-width:0.5;" x1="352.77" x2="788.8608" y1="307.2269" y2="307.2269"/><text fill="#000000" font-family="sans-serif" font-size="14" lengthAdjust="spacing" textLength="169.4424" x="357.77" y="324.222">Nachricht: CONTRL 2.0b</text><text fill="#000000" font-family="sans-serif" font-size="14" lengthAdjust="spacing" textLength="426.0908" x="357.77" y="340.5189">Kontext: Nachricht Syntax -   und Servicebericht ist CONTRL.</text><text fill="#000000" font-family="sans-serif" font-size="14" lengthAdjust="spacing" textLength="91.4033" x="357.77" y="356.8157">Pflichtfeld: Ja</text><text fill="#000000" font-family="sans-serif" font-size="14" lengthAdjust="spacing" textLength="73.0215" x="357.77" y="373.1126">Codes: UN</text><text fill="#000000" font-family="sans-serif" font-size="14" lengthAdjust="spacing" textLength="418.3662" x="357.77" y="389.4095">Quelle: CONTRL_MIG_2_0b_au&#223;erordentliche_20240726.pdf</text><line style="stroke:#181818;stroke-width:0.5;" x1="352.77" x2="788.8608" y1="396.7113" y2="396.7113"/></g><!--class UNH_0065_msg_3--><g class="entity" data-entity="UNH_0065_msg_3" data-source-line="27" data-uid="ent0007" id="entity_UNH_0065_msg_3"><rect fill="#F1F1F1" height="145.7813" rx="2.5" ry="2.5" style="stroke:#181818;stroke-width:0.5;" width="422.9219" x="825.35" y="267.0769"/><ellipse cx="969.2602" cy="283.0769" fill="#ADD1B2" rx="11" ry="11" style="stroke:#181818;stroke-width:1;"/><path d="M972.2289,288.7175 Q971.6508,289.0144 971.0102,289.155 Q970.3695,289.3113 969.6664,289.3113 Q967.1664,289.3113 965.8383,287.6706 Q964.5258,286.0144 964.5258,282.8894 Q964.5258,279.7644 965.8383,278.1081 Q967.1664,276.4519 969.6664,276.4519 Q970.3695,276.4519 971.0102,276.6081 Q971.6664,276.7644 972.2289,277.0613 L972.2289,279.78 Q971.6039,279.2019 971.0102,278.9363 Q970.4164,278.655 969.7914,278.655 Q968.4477,278.655 967.7602,279.7331 Q967.0727,280.7956 967.0727,282.8894 Q967.0727,284.9831 967.7602,286.0613 Q968.4477,287.1238 969.7914,287.1238 Q970.4164,287.1238 971.0102,286.8581 Q971.6039,286.5769 972.2289,285.9988 L972.2289,288.7175 Z " fill="#000000"/><text fill="#000000" font-family="sans-serif" font-size="14" lengthAdjust="spacing" textLength="126.6016" x="989.7602" y="287.9236">UNH_0065_msg_3</text><line style="stroke:#181818;stroke-width:0.5;" x1="826.35" x2="1247.2719" y1="299.0769" y2="299.0769"/><text fill="#000000" font-family="sans-serif" font-size="14" lengthAdjust="spacing" textLength="161.998" x="831.35" y="316.072">Nachricht: INSRPT 1.1a</text><text fill="#000000" font-family="sans-serif" font-size="14" lengthAdjust="spacing" textLength="122.917" x="831.35" y="332.3689">Kontext: Hinweis:</text><text fill="#000000" font-family="sans-serif" font-size="14" lengthAdjust="spacing" textLength="91.4033" x="831.35" y="348.6657">Pflichtfeld: Ja</text><text fill="#000000" font-family="sans-serif" font-size="14" lengthAdjust="spacing" textLength="113.1689" x="831.35" y="364.9626">Codes: UN, UNH</text><text fill="#000000" font-family="sans-serif" font-size="14" lengthAdjust="spacing" textLength="251.4395" x="831.35" y="381.2595">Prozesse: Netznutzungsabrechnung</text><text fill="#000000" font-family="sans-serif" font-size="14" lengthAdjust="spacing" textLength="410.9219" x="831.35" y="397.5564">Quelle: INSRPT_MIG_1_1a_au&#223;erordentliche_20240726.pdf</text><line style="stroke:#181818;stroke-width:0.5;" x1="826.35" x2="1247.2719" y1="404.8581" y2="404.8581"/></g><!--class UNH_0065_msg_4--><g class="entity" data-entity="UNH_0065_msg_4" data-source-line="36" data-uid="ent0009" id="entity_UNH_0065_msg_4"><rect fill="#F1F1F1" height="145.7813" rx="2.5" ry="2.5" style="stroke:#181818;stroke-width:0.5;" width="495.6221" x="1283" y="267.0769"/><ellipse cx="1463.2603" cy="283.0769" fill="#ADD1B2" rx="11" ry="11" style="stroke:#181818;stroke-width:1;"/><path d="M1466.229,288.7175 Q1465.6509,289.0144 1465.0103,289.155 Q1464.3696,289.3113 1463.6665,289.3113 Q1461.1665,289.3113 1459.8384,287.6706 Q1458.5259,286.0144 1458.5259,282.8894 Q1458.5259,279.7644 1459.8384,278.1081 Q1461.1665,276.4519 1463.6665,276.4519 Q1464.3696,276.4519 1465.0103,276.6081 Q1465.6665,276.7644 1466.229,277.0613 L1466.229,279.78 Q1465.604,279.2019 1465.0103,278.9363 Q1464.4165,278.655 1463.7915,278.655 Q1462.4478,278.655 1461.7603,279.7331 Q1461.0728,280.7956 1461.0728,282.8894 Q1461.0728,284.9831 1461.7603,286.0613 Q1462.4478,287.1238 1463.7915,287.1238 Q1464.4165,287.1238 1465.0103,286.8581 Q1465.604,286.5769 1466.229,285.9988 L1466.229,288.7175 Z " fill="#000000"/><text fill="#000000" font-family="sans-serif" font-size="14" lengthAdjust="spacing" textLength="126.6016" x="1483.7603" y="287.9236">UNH_0065_msg_4</text><line style="stroke:#181818;stroke-width:0.5;" x1="1284" x2="1777.6221" y1="299.0769" y2="299.0769"/><text fill="#000000" font-family="sans-serif" font-size="14" lengthAdjust="spacing" textLength="161.1982" x="1289" y="316.072">Nachricht: INVOIC 2.8d</text><text fill="#000000" font-family="sans-serif" font-size="14" lengthAdjust="spacing" textLength="122.917" x="1289" y="332.3689">Kontext: Hinweis:</text><text fill="#000000" font-family="sans-serif" font-size="14" lengthAdjust="spacing" textLength="91.4033" x="1289" y="348.6657">Pflichtfeld: Ja</text><text fill="#000000" font-family="sans-serif" font-size="14" lengthAdjust="spacing" textLength="113.1689" x="1289" y="364.9626">Codes: UN, UNH</text><text fill="#000000" font-family="sans-serif" font-size="14" lengthAdjust="spacing" textLength="483.6221" x="1289" y="381.2595">Prozesse: Netznutzungsabrechnung, Messstellenbetriebsabrechnung</text><text fill="#000000" font-family="sans-serif" font-size="14" lengthAdjust="spacing" textLength="396.6074" x="1289" y="397.5564">Quelle: INVOIC_MIG_2.8d_Fehlerkorrektur_20250131.pdf</text><line style="stroke:#181818;stroke-width:0.5;" x1="1284" x2="1777.6221" y1="404.8581" y2="404.8581"/></g><!--class UNH_0065_msg_5--><g class="entity" data-entity="UNH_0065_msg_5" data-source-line="45" data-uid="ent0011" id="entity_UNH_0065_msg_5"><rect fill="#F1F1F1" height="145.7813" rx="2.5" ry="2.5" style="stroke:#181818;stroke-width:0.5;" width="495.6221" x="1814" y="267.0769"/><ellipse cx="1994.2603" cy="283.0769" fill="#ADD1B2" rx="11" ry="11" style="stroke:#181818;stroke-width:1;"/><path d="M1997.229,288.7175 Q1996.6509,289.0144 1996.0103,289.155 Q1995.3696,289.3113 1994.6665,289.3113 Q1992.1665,289.3113 1990.8384,287.6706 Q1989.5259,286.0144 1989.5259,282.8894 Q1989.5259,279.7644 1990.8384,278.1081 Q1992.1665,276.4519 1994.6665,276.4519 Q1995.3696,276.4519 1996.0103,276.6081 Q1996.6665,276.7644 1997.229,277.0613 L1997.229,279.78 Q1996.604,279.2019 1996.0103,278.9363 Q1995.4165,278.655 1994.7915,278.655 Q1993.4478,278.655 1992.7603,279.7331 Q1992.0728,280.7956 1992.0728,282.8894 Q1992.0728,284.9831 1992.7603,286.0613 Q1993.4478,287.1238 1994.7915,287.1238 Q1995.4165,287.1238 1996.0103,286.8581 Q1996.604,286.5769 1997.229,285.9988 L1997.229,288.7175 Z " fill="#000000"/><text fill="#000000" font-family="sans-serif" font-size="14" lengthAdjust="spacing" textLength="126.6016" x="2014.7603" y="287.9236">UNH_0065_msg_5</text><line style="stroke:#181818;stroke-width:0.5;" x1="1815" x2="2308.6221" y1="299.0769" y2="299.0769"/><text fill="#000000" font-family="sans-serif" font-size="14" lengthAdjust="spacing" textLength="165.6484" x="1820" y="316.072">Nachricht: INVOIC 2.8d.</text><text fill="#000000" font-family="sans-serif" font-size="14" lengthAdjust="spacing" textLength="122.917" x="1820" y="332.3689">Kontext: Hinweis:</text><text fill="#000000" font-family="sans-serif" font-size="14" lengthAdjust="spacing" textLength="91.4033" x="1820" y="348.6657">Pflichtfeld: Ja</text><text fill="#000000" font-family="sans-serif" font-size="14" lengthAdjust="spacing" textLength="83.5488" x="1820" y="364.9626">Codes: UNH</text><text fill="#000000" font-family="sans-serif" font-size="14" lengthAdjust="spacing" textLength="483.6221" x="1820" y="381.2595">Prozesse: Netznutzungsabrechnung, Messstellenbetriebsabrechnung</text><text fill="#000000" font-family="sans-serif" font-size="14" lengthAdjust="spacing" textLength="290.3359" x="1820" y="397.5564">Quelle: INVOIC_MIG_2_8d__20240619.pdf</text><line style="stroke:#181818;stroke-width:0.5;" x1="1815" x2="2308.6221" y1="404.8581" y2="404.8581"/></g><!--class UNH_0065_msg_6--><g class="entity" data-entity="UNH_0065_msg_6" data-source-line="54" data-uid="ent0013" id="entity_UNH_0065_msg_6"><rect fill="#F1F1F1" height="145.7813" rx="2.5" ry="2.5" style="stroke:#181818;stroke-width:0.5;" width="417.4463" x="2345.09" y="267.0769"/><ellipse cx="2486.2624" cy="283.0769" fill="#ADD1B2" rx="11" ry="11" style="stroke:#181818;stroke-width:1;"/><path d="M2489.2311,288.7175 Q2488.653,289.0144 2488.0124,289.155 Q2487.3717,289.3113 2486.6686,289.3113 Q2484.1686,289.3113 2482.8405,287.6706 Q2481.528,286.0144 2481.528,282.8894 Q2481.528,279.7644 2482.8405,278.1081 Q2484.1686,276.4519 2486.6686,276.4519 Q2487.3717,276.4519 2488.0124,276.6081 Q2488.6686,276.7644 2489.2311,277.0613 L2489.2311,279.78 Q2488.6061,279.2019 2488.0124,278.9363 Q2487.4186,278.655 2486.7936,278.655 Q2485.4499,278.655 2484.7624,279.7331 Q2484.0749,280.7956 2484.0749,282.8894 Q2484.0749,284.9831 2484.7624,286.0613 Q2485.4499,287.1238 2486.7936,287.1238 Q2487.4186,287.1238 2488.0124,286.8581 Q2488.6061,286.5769 2489.2311,285.9988 L2489.2311,288.7175 Z " fill="#000000"/><text fill="#000000" font-family="sans-serif" font-size="14" lengthAdjust="spacing" textLength="126.6016" x="2506.7624" y="287.9236">UNH_0065_msg_6</text><line style="stroke:#181818;stroke-width:0.5;" x1="2346.09" x2="2761.5363" y1="299.0769" y2="299.0769"/><text fill="#000000" font-family="sans-serif" font-size="14" lengthAdjust="spacing" textLength="172.0264" x="2351.09" y="316.072">Nachricht: MSCONS 2.4c</text><text fill="#000000" font-family="sans-serif" font-size="14" lengthAdjust="spacing" textLength="122.917" x="2351.09" y="332.3689">Kontext: Hinweis:</text><text fill="#000000" font-family="sans-serif" font-size="14" lengthAdjust="spacing" textLength="91.4033" x="2351.09" y="348.6657">Pflichtfeld: Ja</text><text fill="#000000" font-family="sans-serif" font-size="14" lengthAdjust="spacing" textLength="110.2637" x="2351.09" y="364.9626">Codes: 68, UNH</text><text fill="#000000" font-family="sans-serif" font-size="14" lengthAdjust="spacing" textLength="405.4463" x="2351.09" y="381.2595">Prozesse: Anforderung und &#220;bermittlung von Messwerten</text><text fill="#000000" font-family="sans-serif" font-size="14" lengthAdjust="spacing" textLength="294.1641" x="2351.09" y="397.5564">Quelle: MSCONS_MIG_2_4c_20231024.pdf</text><line style="stroke:#181818;stroke-width:0.5;" x1="2346.09" x2="2761.5363" y1="404.8581" y2="404.8581"/></g><!--class UNH_0065_msg_7--><g class="entity" data-entity="UNH_0065_msg_7" data-source-line="63" data-uid="ent0015" id="entity_UNH_0065_msg_7"><rect fill="#F1F1F1" height="145.7813" rx="2.5" ry="2.5" style="stroke:#181818;stroke-width:0.5;" width="296.8604" x="2797.38" y="267.0769"/><ellipse cx="2878.2594" cy="283.0769" fill="#ADD1B2" rx="11" ry="11" style="stroke:#181818;stroke-width:1;"/><path d="M2881.2281,288.7175 Q2880.65,289.0144 2880.0094,289.155 Q2879.3688,289.3113 2878.6656,289.3113 Q2876.1656,289.3113 2874.8375,287.6706 Q2873.525,286.0144 2873.525,282.8894 Q2873.525,279.7644 2874.8375,278.1081 Q2876.1656,276.4519 2878.6656,276.4519 Q2879.3688,276.4519 2880.0094,276.6081 Q2880.6656,276.7644 2881.2281,277.0613 L2881.2281,279.78 Q2880.6031,279.2019 2880.0094,278.9363 Q2879.4156,278.655 2878.7906,278.655 Q2877.4469,278.655 2876.7594,279.7331 Q2876.0719,280.7956 2876.0719,282.8894 Q2876.0719,284.9831 2876.7594,286.0613 Q2877.4469,287.1238 2878.7906,287.1238 Q2879.4156,287.1238 2880.0094,286.8581 Q2880.6031,286.5769 2881.2281,285.9988 L2881.2281,288.7175 Z " fill="#000000"/><text fill="#000000" font-family="sans-serif" font-size="14" lengthAdjust="spacing" textLength="126.6016" x="2898.7594" y="287.9236">UNH_0065_msg_7</text><line style="stroke:#181818;stroke-width:0.5;" x1="2798.38" x2="3093.2404" y1="299.0769" y2="299.0769"/><text fill="#000000" font-family="sans-serif" font-size="14" lengthAdjust="spacing" textLength="162.7227" x="2803.38" y="316.072">Nachricht: PARTIN 1.0e</text><text fill="#000000" font-family="sans-serif" font-size="14" lengthAdjust="spacing" textLength="123.0605" x="2803.38" y="332.3689">Kontext: Beispiel:</text><text fill="#000000" font-family="sans-serif" font-size="14" lengthAdjust="spacing" textLength="91.4033" x="2803.38" y="348.6657">Pflichtfeld: Ja</text><text fill="#000000" font-family="sans-serif" font-size="14" lengthAdjust="spacing" textLength="193.3135" x="2803.38" y="364.9626">Codes: 01, 10, 67, UN, UNH</text><text fill="#000000" font-family="sans-serif" font-size="14" lengthAdjust="spacing" textLength="229.1064" x="2803.38" y="381.2595">Prozesse: Stammdaten&#228;nderung</text><text fill="#000000" font-family="sans-serif" font-size="14" lengthAdjust="spacing" textLength="284.8604" x="2803.38" y="397.5564">Quelle: PARTIN_MIG_1_0e_20241001.pdf</text><line style="stroke:#181818;stroke-width:0.5;" x1="2798.38" x2="3093.2404" y1="404.8581" y2="404.8581"/></g><!--class UNH_0065_msg_8--><g class="entity" data-entity="UNH_0065_msg_8" data-source-line="72" data-uid="ent0017" id="entity_UNH_0065_msg_8"><rect fill="#F1F1F1" height="145.7813" rx="2.5" ry="2.5" style="stroke:#181818;stroke-width:0.5;" width="296.4365" x="3129.6" y="267.0769"/><ellipse cx="3210.2675" cy="283.0769" fill="#ADD1B2" rx="11" ry="11" style="stroke:#181818;stroke-width:1;"/><path d="M3213.2362,288.7175 Q3212.6581,289.0144 3212.0175,289.155 Q3211.3769,289.3113 3210.6737,289.3113 Q3208.1737,289.3113 3206.8456,287.6706 Q3205.5331,286.0144 3205.5331,282.8894 Q3205.5331,279.7644 3206.8456,278.1081 Q3208.1737,276.4519 3210.6737,276.4519 Q3211.3769,276.4519 3212.0175,276.6081 Q3212.6737,276.7644 3213.2362,277.0613 L3213.2362,279.78 Q3212.6112,279.2019 3212.0175,278.9363 Q3211.4237,278.655 3210.7987,278.655 Q3209.455,278.655 3208.7675,279.7331 Q3208.08,280.7956 3208.08,282.8894 Q3208.08,284.9831 3208.7675,286.0613 Q3209.455,287.1238 3210.7987,287.1238 Q3211.4237,287.1238 3212.0175,286.8581 Q3212.6112,286.5769 3213.2362,285.9988 L3213.2362,288.7175 Z " fill="#000000"/><text fill="#000000" font-family="sans-serif" font-size="14" lengthAdjust="spacing" textLength="126.6016" x="3230.7675" y="287.9236">UNH_0065_msg_8</text><line style="stroke:#181818;stroke-width:0.5;" x1="3130.6" x2="3425.0365" y1="299.0769" y2="299.0769"/><text fill="#000000" font-family="sans-serif" font-size="14" lengthAdjust="spacing" textLength="162.2988" x="3135.6" y="316.072">Nachricht: PRICAT 2.0d</text><text fill="#000000" font-family="sans-serif" font-size="14" lengthAdjust="spacing" textLength="122.917" x="3135.6" y="332.3689">Kontext: Hinweis:</text><text fill="#000000" font-family="sans-serif" font-size="14" lengthAdjust="spacing" textLength="91.4033" x="3135.6" y="348.6657">Pflichtfeld: Ja</text><text fill="#000000" font-family="sans-serif" font-size="14" lengthAdjust="spacing" textLength="83.5488" x="3135.6" y="364.9626">Codes: UNH</text><text fill="#000000" font-family="sans-serif" font-size="14" lengthAdjust="spacing" textLength="251.4395" x="3135.6" y="381.2595">Prozesse: Netznutzungsabrechnung</text><text fill="#000000" font-family="sans-serif" font-size="14" lengthAdjust="spacing" textLength="284.4365" x="3135.6" y="397.5564">Quelle: PRICAT_MIG_2_0d_20240619.pdf</text><line style="stroke:#181818;stroke-width:0.5;" x1="3130.6" x2="3425.0365" y1="404.8581" y2="404.8581"/></g><!--class UNH_0065_msg_9--><g class="entity" data-entity="UNH_0065_msg_9" data-source-line="81" data-uid="ent0019" id="entity_UNH_0065_msg_9"><rect fill="#F1F1F1" height="129.4844" rx="2.5" ry="2.5" style="stroke:#181818;stroke-width:0.5;" width="303.0811" x="3461.27" y="275.2269"/><ellipse cx="3545.2597" cy="291.2269" fill="#ADD1B2" rx="11" ry="11" style="stroke:#181818;stroke-width:1;"/><path d="M3548.2285,296.8675 Q3547.6504,297.1644 3547.0097,297.305 Q3546.3691,297.4613 3545.666,297.4613 Q3543.166,297.4613 3541.8379,295.8206 Q3540.5254,294.1644 3540.5254,291.0394 Q3540.5254,287.9144 3541.8379,286.2581 Q3543.166,284.6019 3545.666,284.6019 Q3546.3691,284.6019 3547.0097,284.7581 Q3547.666,284.9144 3548.2285,285.2113 L3548.2285,287.93 Q3547.6035,287.3519 3547.0097,287.0863 Q3546.416,286.805 3545.791,286.805 Q3544.4472,286.805 3543.7597,287.8831 Q3543.0722,288.9456 3543.0722,291.0394 Q3543.0722,293.1331 3543.7597,294.2113 Q3544.4472,295.2738 3545.791,295.2738 Q3546.416,295.2738 3547.0097,295.0081 Q3547.6035,294.7269 3548.2285,294.1488 L3548.2285,296.8675 Z " fill="#000000"/><text fill="#000000" font-family="sans-serif" font-size="14" lengthAdjust="spacing" textLength="126.6016" x="3565.7597" y="296.0736">UNH_0065_msg_9</text><line style="stroke:#181818;stroke-width:0.5;" x1="3462.27" x2="3763.3511" y1="307.2269" y2="307.2269"/><text fill="#000000" font-family="sans-serif" font-size="14" lengthAdjust="spacing" textLength="171.4932" x="3467.27" y="324.222">Nachricht: REMADV 2.9c</text><text fill="#000000" font-family="sans-serif" font-size="14" lengthAdjust="spacing" textLength="149.3447" x="3467.27" y="340.5189">Kontext: Bemerkung:</text><text fill="#000000" font-family="sans-serif" font-size="14" lengthAdjust="spacing" textLength="91.4033" x="3467.27" y="356.8157">Pflichtfeld: Ja</text><text fill="#000000" font-family="sans-serif" font-size="14" lengthAdjust="spacing" textLength="251.4395" x="3467.27" y="373.1126">Prozesse: Netznutzungsabrechnung</text><text fill="#000000" font-family="sans-serif" font-size="14" lengthAdjust="spacing" textLength="291.0811" x="3467.27" y="389.4095">Quelle: REMADV_MIG_2.9c_20231024.pdf</text><line style="stroke:#181818;stroke-width:0.5;" x1="3462.27" x2="3763.3511" y1="396.7113" y2="396.7113"/></g><!--class UNH_0065_proc_1--><g class="entity" data-entity="UNH_0065_proc_1" data-source-line="89" data-uid="ent0021" id="entity_UNH_0065_proc_1"><rect fill="#F1F1F1" height="105.1563" rx="2.5" ry="2.5" style="stroke:#181818;stroke-width:0.5;" width="752.6465" x="3799.49" y="287.3869"/><ellipse cx="4107.719" cy="307.5197" fill="#ADD1B2" rx="11" ry="11" style="stroke:#181818;stroke-width:1;"/><path d="M4110.6878,313.1603 Q4110.1096,313.4572 4109.469,313.5978 Q4108.8284,313.7541 4108.1253,313.7541 Q4105.6253,313.7541 4104.2971,312.1134 Q4102.9846,310.4572 4102.9846,307.3322 Q4102.9846,304.2072 4104.2971,302.5509 Q4105.6253,300.8947 4108.1253,300.8947 Q4108.8284,300.8947 4109.469,301.0509 Q4110.1253,301.2072 4110.6878,301.5041 L4110.6878,304.2228 Q4110.0628,303.6447 4109.469,303.3791 Q4108.8753,303.0978 4108.2503,303.0978 Q4106.9065,303.0978 4106.219,304.1759 Q4105.5315,305.2384 4105.5315,307.3322 Q4105.5315,309.4259 4106.219,310.5041 Q4106.9065,311.5666 4108.2503,311.5666 Q4108.8753,311.5666 4109.469,311.3009 Q4110.0628,311.0197 4110.6878,310.4416 L4110.6878,313.1603 Z " fill="#000000"/><text fill="#000000" font-family="sans-serif" font-size="12" font-style="italic" lengthAdjust="spacing" textLength="61.0605" x="4161.533" y="303.5255">&#171;process&#187;</text><text fill="#000000" font-family="sans-serif" font-size="14" lengthAdjust="spacing" textLength="127.6885" x="4128.219" y="319.3507">UNH_0065_proc_1</text><line style="stroke:#181818;stroke-width:0.5;" x1="3800.49" x2="4551.1365" y1="327.6525" y2="327.6525"/><text fill="#000000" font-family="sans-serif" font-size="14" lengthAdjust="spacing" textLength="180.3457" x="3805.49" y="344.6476">Netznutzungsabrechnung</text><text fill="#000000" font-family="sans-serif" font-size="14" lengthAdjust="spacing" textLength="218.0938" x="3805.49" y="360.9445">Gesetze: StromNEV, StromNZV</text><text fill="#000000" font-family="sans-serif" font-size="14" lengthAdjust="spacing" textLength="740.6465" x="3805.49" y="377.2414">Zusammenfassung: Wie funktioniert die Netznutzungsabrechnung zwischen Netzbetreiber und Lieferant?</text><line style="stroke:#181818;stroke-width:0.5;" x1="3800.49" x2="4551.1365" y1="384.5431" y2="384.5431"/></g><!--class UNH_0065_proc_2--><g class="entity" data-entity="UNH_0065_proc_2" data-source-line="95" data-uid="ent0023" id="entity_UNH_0065_proc_2"><rect fill="#F1F1F1" height="105.1563" rx="2.5" ry="2.5" style="stroke:#181818;stroke-width:0.5;" width="690.2275" x="4586.7" y="287.3869"/><ellipse cx="4863.7195" cy="307.5197" fill="#ADD1B2" rx="11" ry="11" style="stroke:#181818;stroke-width:1;"/><path d="M4866.6883,313.1603 Q4866.1102,313.4572 4865.4695,313.5978 Q4864.8289,313.7541 4864.1258,313.7541 Q4861.6258,313.7541 4860.2977,312.1134 Q4858.9852,310.4572 4858.9852,307.3322 Q4858.9852,304.2072 4860.2977,302.5509 Q4861.6258,300.8947 4864.1258,300.8947 Q4864.8289,300.8947 4865.4695,301.0509 Q4866.1258,301.2072 4866.6883,301.5041 L4866.6883,304.2228 Q4866.0633,303.6447 4865.4695,303.3791 Q4864.8758,303.0978 4864.2508,303.0978 Q4862.907,303.0978 4862.2195,304.1759 Q4861.532,305.2384 4861.532,307.3322 Q4861.532,309.4259 4862.2195,310.5041 Q4862.907,311.5666 4864.2508,311.5666 Q4864.8758,311.5666 4865.4695,311.3009 Q4866.0633,311.0197 4866.6883,310.4416 L4866.6883,313.1603 Z " fill="#000000"/><text fill="#000000" font-family="sans-serif" font-size="12" font-style="italic" lengthAdjust="spacing" textLength="61.0605" x="4917.5335" y="303.5255">&#171;process&#187;</text><text fill="#000000" font-family="sans-serif" font-size="14" lengthAdjust="spacing" textLength="127.6885" x="4884.2195" y="319.3507">UNH_0065_proc_2</text><line style="stroke:#181818;stroke-width:0.5;" x1="4587.7" x2="5275.9275" y1="327.6525" y2="327.6525"/><text fill="#000000" font-family="sans-serif" font-size="14" lengthAdjust="spacing" textLength="223.2822" x="4592.7" y="344.6476">Messstellenbetriebsabrechnung</text><text fill="#000000" font-family="sans-serif" font-size="14" lengthAdjust="spacing" textLength="105.0957" x="4592.7" y="360.9445">Gesetze: MsbG</text><text fill="#000000" font-family="sans-serif" font-size="14" lengthAdjust="spacing" textLength="678.2275" x="4592.7" y="377.2414">Zusammenfassung: Beschreibe den Prozess der Abrechnung von Messstellenbetriebsleistungen.</text><line style="stroke:#181818;stroke-width:0.5;" x1="4587.7" x2="5275.9275" y1="384.5431" y2="384.5431"/></g><!--class UNH_0065_proc_3--><g class="entity" data-entity="UNH_0065_proc_3" data-source-line="101" data-uid="ent0025" id="entity_UNH_0065_proc_3"><rect fill="#F1F1F1" height="105.1563" rx="2.5" ry="2.5" style="stroke:#181818;stroke-width:0.5;" width="378.2285" x="5311.7" y="287.3869"/><ellipse cx="5432.72" cy="307.5197" fill="#ADD1B2" rx="11" ry="11" style="stroke:#181818;stroke-width:1;"/><path d="M5435.6888,313.1603 Q5435.1106,313.4572 5434.47,313.5978 Q5433.8294,313.7541 5433.1263,313.7541 Q5430.6263,313.7541 5429.2981,312.1134 Q5427.9856,310.4572 5427.9856,307.3322 Q5427.9856,304.2072 5429.2981,302.5509 Q5430.6263,300.8947 5433.1263,300.8947 Q5433.8294,300.8947 5434.47,301.0509 Q5435.1263,301.2072 5435.6888,301.5041 L5435.6888,304.2228 Q5435.0638,303.6447 5434.47,303.3791 Q5433.8763,303.0978 5433.2513,303.0978 Q5431.9075,303.0978 5431.22,304.1759 Q5430.5325,305.2384 5430.5325,307.3322 Q5430.5325,309.4259 5431.22,310.5041 Q5431.9075,311.5666 5433.2513,311.5666 Q5433.8763,311.5666 5434.47,311.3009 Q5435.0638,311.0197 5435.6888,310.4416 L5435.6888,313.1603 Z " fill="#000000"/><text fill="#000000" font-family="sans-serif" font-size="12" font-style="italic" lengthAdjust="spacing" textLength="61.0605" x="5486.534" y="303.5255">&#171;process&#187;</text><text fill="#000000" font-family="sans-serif" font-size="14" lengthAdjust="spacing" textLength="127.6885" x="5453.22" y="319.3507">UNH_0065_proc_3</text><line style="stroke:#181818;stroke-width:0.5;" x1="5312.7" x2="5688.9285" y1="327.6525" y2="327.6525"/><text fill="#000000" font-family="sans-serif" font-size="14" lengthAdjust="spacing" textLength="334.3525" x="5317.7" y="344.6476">Anforderung und &#220;bermittlung von Messwerten</text><text fill="#000000" font-family="sans-serif" font-size="14" lengthAdjust="spacing" textLength="105.0957" x="5317.7" y="360.9445">Gesetze: MsbG</text><line style="stroke:#181818;stroke-width:0.5;" x1="5312.7" x2="5688.9285" y1="368.2463" y2="368.2463"/><text fill="#000000" font-family="sans-serif" font-size="14" lengthAdjust="spacing" textLength="366.2285" x="5317.7" y="385.2414">Zusammenfassung: Wie kann ein Marktpartner (z.B.</text></g><!--class UNH_0065_proc_4--><g class="entity" data-entity="UNH_0065_proc_4" data-source-line="107" data-uid="ent0027" id="entity_UNH_0065_proc_4"><rect fill="#F1F1F1" height="88.8594" rx="2.5" ry="2.5" style="stroke:#181818;stroke-width:0.5;" width="638.3496" x="5724.64" y="295.5369"/><ellipse cx="5975.7206" cy="315.6697" fill="#ADD1B2" rx="11" ry="11" style="stroke:#181818;stroke-width:1;"/><path d="M5978.6893,321.3103 Q5978.1112,321.6072 5977.4706,321.7478 Q5976.8299,321.9041 5976.1268,321.9041 Q5973.6268,321.9041 5972.2987,320.2634 Q5970.9862,318.6072 5970.9862,315.4822 Q5970.9862,312.3572 5972.2987,310.7009 Q5973.6268,309.0447 5976.1268,309.0447 Q5976.8299,309.0447 5977.4706,309.2009 Q5978.1268,309.3572 5978.6893,309.6541 L5978.6893,312.3728 Q5978.0643,311.7947 5977.4706,311.5291 Q5976.8768,311.2478 5976.2518,311.2478 Q5974.9081,311.2478 5974.2206,312.3259 Q5973.5331,313.3884 5973.5331,315.4822 Q5973.5331,317.5759 5974.2206,318.6541 Q5974.9081,319.7166 5976.2518,319.7166 Q5976.8768,319.7166 5977.4706,319.4509 Q5978.0643,319.1697 5978.6893,318.5916 L5978.6893,321.3103 Z " fill="#000000"/><text fill="#000000" font-family="sans-serif" font-size="12" font-style="italic" lengthAdjust="spacing" textLength="61.0605" x="6029.5345" y="311.6755">&#171;process&#187;</text><text fill="#000000" font-family="sans-serif" font-size="14" lengthAdjust="spacing" textLength="127.6885" x="5996.2206" y="327.5007">UNH_0065_proc_4</text><line style="stroke:#181818;stroke-width:0.5;" x1="5725.64" x2="6361.9896" y1="335.8025" y2="335.8025"/><text fill="#000000" font-family="sans-serif" font-size="14" lengthAdjust="spacing" textLength="158.0127" x="5730.64" y="352.7976">Stammdaten&#228;nderung</text><text fill="#000000" font-family="sans-serif" font-size="14" lengthAdjust="spacing" textLength="626.3496" x="5730.64" y="369.0945">Zusammenfassung: Wie wird eine Stammdaten&#228;nderung an einer Marktlokation, wie z.B.</text><line style="stroke:#181818;stroke-width:0.5;" x1="5725.64" x2="6361.9896" y1="376.3963" y2="376.3963"/></g><!--link UNH_0065 to UNH_0065_msg_1--><g class="link" data-entity-1="UNH_0065" data-entity-2="UNH_0065_msg_1" data-source-line="18" data-uid="lnk4" id="link_UNH_0065_UNH_0065_msg_1"><path codeLine="18" d="M2765.16,125.5769 C2412.01,140.4069 1605.4,176.1769 927.81,220.0769 C663.54,237.1969 591.21,204.7869 333.81,267.0769 C328.15,268.4469 328.2011,268.3007 322.4611,269.9707" fill="none" id="UNH_0065-to-UNH_0065_msg_1" style="stroke:#181818;stroke-width:1;"/><polygon fill="#181818" points="316.7,271.6469,326.4591,272.9734,321.5009,270.2501,324.2243,265.2919,316.7,271.6469" style="stroke:#181818;stroke-width:1;"/><text fill="#000000" font-family="sans-serif" font-size="13" lengthAdjust="spacing" textLength="85.2363" x="928.81" y="233.1438">verwendet in</text></g><!--link UNH_0065 to UNH_0065_msg_2--><g class="link" data-entity-1="UNH_0065" data-entity-2="UNH_0065_msg_2" data-source-line="26" data-uid="lnk6" id="link_UNH_0065_UNH_0065_msg_2"><path codeLine="26" d="M2765.43,128.3769 C2469.75,145.3869 1863.56,181.5169 1350.81,220.0769 C1109.26,238.2469 1045.67,221.2269 807.81,267.0769 C796.2,269.3169 790.1861,270.5041 778.2861,273.3441" fill="none" id="UNH_0065-to-UNH_0065_msg_2" style="stroke:#181818;stroke-width:1;"/><polygon fill="#181818" points="772.45,274.7369,782.1327,276.5384,777.3134,273.5762,780.2756,268.7569,772.45,274.7369" style="stroke:#181818;stroke-width:1;"/><text fill="#000000" font-family="sans-serif" font-size="13" lengthAdjust="spacing" textLength="85.2363" x="1351.81" y="233.1438">verwendet in</text></g><!--link UNH_0065 to UNH_0065_msg_3--><g class="link" data-entity-1="UNH_0065" data-entity-2="UNH_0065_msg_3" data-source-line="35" data-uid="lnk8" id="link_UNH_0065_UNH_0065_msg_3"><path codeLine="35" d="M2765.3,121.4569 C2455.64,129.8769 1804.47,159.9669 1265.81,267.0769 C1260.09,268.2169 1260.1631,268.1172 1254.3531,269.4272" fill="none" id="UNH_0065-to-UNH_0065_msg_3" style="stroke:#181818;stroke-width:1;"/><polygon fill="#181818" points="1248.5,270.7469,1258.1594,272.6694,1253.3776,269.6471,1256.3998,264.8653,1248.5,270.7469" style="stroke:#181818;stroke-width:1;"/><text fill="#000000" font-family="sans-serif" font-size="13" lengthAdjust="spacing" textLength="85.2363" x="1538.81" y="233.1438">verwendet in</text></g><!--link UNH_0065 to UNH_0065_msg_4--><g class="link" data-entity-1="UNH_0065" data-entity-2="UNH_0065_msg_4" data-source-line="44" data-uid="lnk10" id="link_UNH_0065_UNH_0065_msg_4"><path codeLine="44" d="M2765.47,133.9469 C2538.17,155.5569 2136.14,199.5569 1796.81,267.0769 C1790.95,268.2469 1790.8883,268.2164 1784.9283,269.4864" fill="none" id="UNH_0065-to-UNH_0065_msg_4" style="stroke:#181818;stroke-width:1;"/><polygon fill="#181818" points="1779.06,270.7369,1788.696,272.7734,1783.9502,269.6948,1787.0287,264.949,1779.06,270.7369" style="stroke:#181818;stroke-width:1;"/><text fill="#000000" font-family="sans-serif" font-size="13" lengthAdjust="spacing" textLength="85.2363" x="2047.81" y="233.1438">verwendet in</text></g><!--link UNH_0065 to UNH_0065_msg_5--><g class="link" data-entity-1="UNH_0065" data-entity-2="UNH_0065_msg_5" data-source-line="53" data-uid="lnk12" id="link_UNH_0065_UNH_0065_msg_5"><path codeLine="53" d="M2765.32,160.2869 C2641.91,189.4169 2474.7,229.5369 2327.81,267.0769 C2321.91,268.5869 2321.7388,268.6241 2315.7088,270.1841" fill="none" id="UNH_0065-to-UNH_0065_msg_5" style="stroke:#181818;stroke-width:1;"/><polygon fill="#181818" points="2309.9,271.6869,2319.615,273.3052,2314.7406,270.4346,2317.6113,265.5602,2309.9,271.6869" style="stroke:#181818;stroke-width:1;"/><text fill="#000000" font-family="sans-serif" font-size="13" lengthAdjust="spacing" textLength="85.2363" x="2515.81" y="233.1438">verwendet in</text></g><!--link UNH_0065 to UNH_0065_msg_6--><g class="link" data-entity-1="UNH_0065" data-entity-2="UNH_0065_msg_6" data-source-line="62" data-uid="lnk14" id="link_UNH_0065_UNH_0065_msg_6"><path codeLine="62" d="M2817.46,190.4769 C2774.03,214.9369 2730.7784,239.3034 2687.3484,263.7534" fill="none" id="UNH_0065-to-UNH_0065_msg_6" style="stroke:#181818;stroke-width:1;"/><polygon fill="#181818" points="2682.12,266.6969,2691.9249,265.7673,2686.477,264.244,2688.0003,258.7961,2682.12,266.6969" style="stroke:#181818;stroke-width:1;"/><text fill="#000000" font-family="sans-serif" font-size="13" lengthAdjust="spacing" textLength="85.2363" x="2762.81" y="233.1438">verwendet in</text></g><!--link UNH_0065 to UNH_0065_msg_7--><g class="link" data-entity-1="UNH_0065" data-entity-2="UNH_0065_msg_7" data-source-line="71" data-uid="lnk16" id="link_UNH_0065_UNH_0065_msg_7"><path codeLine="71" d="M2945.81,190.4769 C2945.81,214.9969 2945.81,236.3869 2945.81,260.8869" fill="none" id="UNH_0065-to-UNH_0065_msg_7" style="stroke:#181818;stroke-width:1;"/><polygon fill="#181818" points="2945.81,266.8869,2949.81,257.8869,2945.81,261.8869,2941.81,257.8869,2945.81,266.8869" style="stroke:#181818;stroke-width:1;"/><text fill="#000000" font-family="sans-serif" font-size="13" lengthAdjust="spacing" textLength="85.2363" x="2946.81" y="233.1438">verwendet in</text></g><!--link UNH_0065 to UNH_0065_msg_8--><g class="link" data-entity-1="UNH_0065" data-entity-2="UNH_0065_msg_8" data-source-line="80" data-uid="lnk18" id="link_UNH_0065_UNH_0065_msg_8"><path codeLine="80" d="M3054.52,190.4769 C3091.31,214.9369 3127.3733,238.9253 3164.1533,263.3753" fill="none" id="UNH_0065-to-UNH_0065_msg_8" style="stroke:#181818;stroke-width:1;"/><polygon fill="#181818" points="3169.15,266.6969,3163.8694,258.3833,3164.9861,263.9289,3159.4406,265.0456,3169.15,266.6969" style="stroke:#181818;stroke-width:1;"/><text fill="#000000" font-family="sans-serif" font-size="13" lengthAdjust="spacing" textLength="85.2363" x="3122.81" y="233.1438">verwendet in</text></g><!--link UNH_0065 to UNH_0065_msg_9--><g class="link" data-entity-1="UNH_0065" data-entity-2="UNH_0065_msg_9" data-source-line="88" data-uid="lnk20" id="link_UNH_0065_UNH_0065_msg_9"><path codeLine="88" d="M3126.32,166.8969 C3221.58,193.9169 3339.94,229.5869 3443.81,267.0769 C3450.71,269.5669 3452.1385,270.0367 3459.1985,272.7467" fill="none" id="UNH_0065-to-UNH_0065_msg_9" style="stroke:#181818;stroke-width:1;"/><polygon fill="#181818" points="3464.8,274.8969,3457.8312,267.9373,3460.1321,273.1051,3454.9643,275.406,3464.8,274.8969" style="stroke:#181818;stroke-width:1;"/><text fill="#000000" font-family="sans-serif" font-size="13" lengthAdjust="spacing" textLength="85.2363" x="3350.81" y="233.1438">verwendet in</text></g><!--link UNH_0065 to UNH_0065_proc_1--><g class="link" data-entity-1="UNH_0065" data-entity-2="UNH_0065_proc_1" data-source-line="94" data-uid="lnk22" id="link_UNH_0065_UNH_0065_proc_1"><path codeLine="94" d="M3126.46,150.1269 C3295.81,180.1369 3556.03,226.3669 3781.81,267.0769 C3817.23,273.4569 3848.517,279.1224 3885.327,285.8224" fill="none" id="UNH_0065-to-UNH_0065_proc_1" style="stroke:#181818;stroke-width:1;stroke-dasharray:7,7;"/><polygon fill="#181818" points="3891.23,286.8969,3883.0918,281.3499,3886.3108,286.0015,3881.6592,289.2206,3891.23,286.8969" style="stroke:#181818;stroke-width:1;"/><text fill="#000000" font-family="sans-serif" font-size="13" lengthAdjust="spacing" textLength="91.6221" x="3599.81" y="233.1438">eingebettet in</text></g><!--link UNH_0065 to UNH_0065_proc_2--><g class="link" data-entity-1="UNH_0065" data-entity-2="UNH_0065_proc_2" data-source-line="100" data-uid="lnk24" id="link_UNH_0065_UNH_0065_proc_2"><path codeLine="100" d="M3126.47,128.5569 C3427.08,147.1969 4048.45,191.6169 4569.81,267.0769 C4608.18,272.6269 4642.7322,278.4639 4682.1422,285.8339" fill="none" id="UNH_0065-to-UNH_0065_proc_2" style="stroke:#181818;stroke-width:1;stroke-dasharray:7,7;"/><polygon fill="#181818" points="4688.04,286.9369,4679.9287,281.3506,4683.1252,286.0178,4678.4581,289.2143,4688.04,286.9369" style="stroke:#181818;stroke-width:1;"/><text fill="#000000" font-family="sans-serif" font-size="13" lengthAdjust="spacing" textLength="91.6221" x="4306.81" y="233.1438">eingebettet in</text></g><!--link UNH_0065 to UNH_0065_proc_3--><g class="link" data-entity-1="UNH_0065" data-entity-2="UNH_0065_proc_3" data-source-line="106" data-uid="lnk26" id="link_UNH_0065_UNH_0065_proc_3"><path codeLine="106" d="M3126.35,123.2769 C3601.84,137.6869 4880.52,183.2969 5294.81,267.0769 C5319.13,271.9969 5338.7817,277.249 5363.0617,285.109" fill="none" id="UNH_0065-to-UNH_0065_proc_3" style="stroke:#181818;stroke-width:1;stroke-dasharray:7,7;"/><polygon fill="#181818" points="5368.77,286.9569,5361.4394,280.3794,5364.013,285.4169,5358.9755,287.9906,5368.77,286.9569" style="stroke:#181818;stroke-width:1;"/><text fill="#000000" font-family="sans-serif" font-size="13" lengthAdjust="spacing" textLength="91.6221" x="5059.81" y="233.1438">eingebettet in</text></g><!--link UNH_0065 to UNH_0065_proc_4--><g class="link" data-entity-1="UNH_0065" data-entity-2="UNH_0065_proc_4" data-source-line="111" data-uid="lnk28" id="link_UNH_0065_UNH_0065_proc_4"><path codeLine="111" d="M3126.39,124.0769 C3504.1,136.9269 4405.11,170.3669 5159.81,220.0769 C5403.74,236.1469 5466.04,230.9869 5707.81,267.0769 C5757.08,274.4269 5804.0816,283.3873 5852.9716,293.7973" fill="none" id="UNH_0065-to-UNH_0065_proc_4" style="stroke:#181818;stroke-width:1;stroke-dasharray:7,7;"/><polygon fill="#181818" points="5858.84,295.0469,5850.8704,289.2603,5853.9496,294.0056,5849.2043,297.0848,5858.84,295.0469" style="stroke:#181818;stroke-width:1;"/><text fill="#000000" font-family="sans-serif" font-size="13" lengthAdjust="spacing" textLength="91.6221" x="5444.81" y="233.1438">eingebettet in</text></g><!--SRC=[jPNVRzem4CVV-rVuSGyG9U5tL35HshMiXJAWJEfBP9AZM0G7EQQqJFjF9krb_qd_iPr3A9Ia96pg0yZnsRxlv-vybanwGCwf14wbHmEI9tUTAqlNowKJ1xy3zMchJ_BZX90EdO65_yv4C6U2c-JpF7yDd2_u0vgxmbz14825Ou97TK2k-4Akq1hGaG1d4YrKnZQk32Hu7l0HIC5W55_Ju6DVk21mXYouIrv-ZK3Cc9IUcddqUNZA4WHAYRRq9PtDN0NqyeUljvxyt6EnPy63RKH44Oj5chVjyrQV69eE6bgkVIxX2UVFW0Lp1fwYweuzjNWCdckHhnHdchuBWKNqSeuOjHmnpHowKR-htO2y7ufl2nM2ZNUxtRgq3Li7spPriwYNZPesTyT8y9g7VBw-3sAHHn1BG5n964-2DUEmdK7lXfYQFjfbVLr1-izSqYSCA0aZtmVno1p0y8TM5iZe2ErGLEuwRmZL-f3GjFMHJHSllq6e_7AfziCQkMAMKv7D3CY5VUHMfz_h3Z2_1jr5lc9yYHcs3dFyGqRN_gAC6lH_U0iPU8jntk5jguafhheVnvjBlSVRS2Wvw_IZ9FiBJ3mGKry8cCg5KC4ewKR1I0r6CKCmIWU2eHqVZO-BX8sHo7xLIndGo_lexJxUl3wY5vrZoSlLU1qSsPCtq6iL4NJHKSm50xbJcSiPc2lxpDr6Rz3gXBty-5PkO2lNSwHSIMxbII_CbdFjUTl7LMuDNKylwqe6pcgCizTgDWQgZRiVKzMxPA6lJVzsirTjDGDPRP-iTz5kd0-HhEQypU0CcmOAIsOx0cVj8Ef7jICAifQ2CnU-Wu_owQaQe9XwVStsdg1B2D0K5fRmPvsBOIuQtG_HUhy8iDo0Zz67mYRV6P3nWaybypd3MqPSd4W-dAoMBC27XeTsrPE0uMKDh-qDWp48okNdNLXDgyT0B0ACF-3JB-Nxl6QCDwqRlcAtWz5b4kWPeFPGCS4dSvDQ70lIs29k6iwUAm_BNw8Tk7QOpyp6LuZn7Ta7Kt5LNgUKSwM6jAcOoZaLaYFjfvLsba9Ho4PHZ54aDxD4SKicNEK4aZOH6Wf7jQ5qpvzILQ0vt0KaNNynflyl]--></g></svg>