<svg xmlns="http://www.w3.org/2000/svg" xmlns:xlink="http://www.w3.org/1999/xlink" contentStyleType="text/css" data-diagram-type="CLASS" height="403px" preserveAspectRatio="none" style="width:5026px;height:403px;background:#FFFFFF;" version="1.1" viewBox="0 0 5026 403" width="5026px" zoomAndPan="magnify"><title>Datenatlas - UNH:0054</title><defs/><g><g class="title" data-source-line="1"><text fill="#000000" font-family="sans-serif" font-size="14" font-weight="bold" lengthAdjust="spacing" textLength="180.8652" x="2416.0316" y="22.9951">Datenatlas - UNH:0054</text></g><!--class UNH_0054--><g class="entity" data-entity="UNH_0054" data-source-line="2" data-uid="ent0002" id="entity_UNH_0054"><rect fill="#F1F1F1" height="129.4844" rx="2.5" ry="2.5" style="stroke:#181818;stroke-width:0.5;" width="360.3525" x="2127.64" y="44.2969"/><ellipse cx="2266.6283" cy="60.2969" fill="#ADD1B2" rx="11" ry="11" style="stroke:#181818;stroke-width:1;"/><path d="M2269.597,65.9375 Q2269.0189,66.2344 2268.3783,66.375 Q2267.7377,66.5313 2267.0345,66.5313 Q2264.5345,66.5313 2263.2064,64.8906 Q2261.8939,63.2344 2261.8939,60.1094 Q2261.8939,56.9844 2263.2064,55.3281 Q2264.5345,53.6719 2267.0345,53.6719 Q2267.7377,53.6719 2268.3783,53.8281 Q2269.0345,53.9844 2269.597,54.2813 L2269.597,57 Q2268.972,56.4219 2268.3783,56.1563 Q2267.7845,55.875 2267.1595,55.875 Q2265.8158,55.875 2265.1283,56.9531 Q2264.4408,58.0156 2264.4408,60.1094 Q2264.4408,62.2031 2265.1283,63.2813 Q2265.8158,64.3438 2267.1595,64.3438 Q2267.7845,64.3438 2268.3783,64.0781 Q2268.972,63.7969 2269.597,63.2188 L2269.597,65.9375 Z " fill="#000000"/><text fill="#000000" font-family="sans-serif" font-size="14" lengthAdjust="spacing" textLength="73.876" x="2287.1283" y="65.1436">UNH_0054</text><line style="stroke:#181818;stroke-width:0.5;" x1="2128.64" x2="2486.9925" y1="76.2969" y2="76.2969"/><text fill="#000000" font-family="sans-serif" font-size="14" lengthAdjust="spacing" textLength="252.8271" x="2147.64" y="93.292">Name: Nachrichtenfreigabenummer</text><text fill="#000000" font-family="sans-serif" font-size="14" lengthAdjust="spacing" textLength="66.6436" x="2147.64" y="109.5889">Prozesse:</text><rect fill="none" height="6" style="stroke:#C82930;stroke-width:1;" width="6" x="2135.64" y="119.5391"/><text fill="#000000" font-family="sans-serif" font-size="14" lengthAdjust="spacing" textLength="180.3457" x="2147.64" y="125.8857">Netznutzungsabrechnung</text><rect fill="none" height="6" style="stroke:#C82930;stroke-width:1;" width="6" x="2135.64" y="135.8359"/><text fill="#000000" font-family="sans-serif" font-size="14" lengthAdjust="spacing" textLength="223.2822" x="2147.64" y="142.1826">Messstellenbetriebsabrechnung</text><rect fill="none" height="6" style="stroke:#C82930;stroke-width:1;" width="6" x="2135.64" y="152.1328"/><text fill="#000000" font-family="sans-serif" font-size="14" lengthAdjust="spacing" textLength="334.3525" x="2147.64" y="158.4795">Anforderung und &#220;bermittlung von Messwerten</text><line style="stroke:#181818;stroke-width:0.5;" x1="2128.64" x2="2486.9925" y1="165.7813" y2="165.7813"/></g><!--class UNH_0054_msg_1--><g class="entity" data-entity="UNH_0054_msg_1" data-source-line="9" data-uid="ent0003" id="entity_UNH_0054_msg_1"><rect fill="#F1F1F1" height="145.7813" rx="2.5" ry="2.5" style="stroke:#181818;stroke-width:0.5;" width="309.6299" x="7" y="250.7869"/><ellipse cx="94.2642" cy="266.7869" fill="#ADD1B2" rx="11" ry="11" style="stroke:#181818;stroke-width:1;"/><path d="M97.2329,272.4275 Q96.6548,272.7244 96.0142,272.865 Q95.3735,273.0213 94.6704,273.0213 Q92.1704,273.0213 90.8423,271.3806 Q89.5298,269.7244 89.5298,266.5994 Q89.5298,263.4744 90.8423,261.8181 Q92.1704,260.1619 94.6704,260.1619 Q95.3735,260.1619 96.0142,260.3181 Q96.6704,260.4744 97.2329,260.7713 L97.2329,263.49 Q96.6079,262.9119 96.0142,262.6463 Q95.4204,262.365 94.7954,262.365 Q93.4517,262.365 92.7642,263.4431 Q92.0767,264.5056 92.0767,266.5994 Q92.0767,268.6931 92.7642,269.7713 Q93.4517,270.8338 94.7954,270.8338 Q95.4204,270.8338 96.0142,270.5681 Q96.6079,270.2869 97.2329,269.7088 L97.2329,272.4275 Z " fill="#000000"/><text fill="#000000" font-family="sans-serif" font-size="14" lengthAdjust="spacing" textLength="126.6016" x="114.7642" y="271.6336">UNH_0054_msg_1</text><line style="stroke:#181818;stroke-width:0.5;" x1="8" x2="315.6299" y1="282.7869" y2="282.7869"/><text fill="#000000" font-family="sans-serif" font-size="14" lengthAdjust="spacing" textLength="172.9424" x="13" y="299.782">Nachricht: COMDIS 1.0e.</text><text fill="#000000" font-family="sans-serif" font-size="14" lengthAdjust="spacing" textLength="123.0605" x="13" y="316.0789">Kontext: Beispiel:</text><text fill="#000000" font-family="sans-serif" font-size="14" lengthAdjust="spacing" textLength="91.4033" x="13" y="332.3757">Pflichtfeld: Ja</text><text fill="#000000" font-family="sans-serif" font-size="14" lengthAdjust="spacing" textLength="193.3135" x="13" y="348.6726">Codes: 06, 19, 22, UN, UNH</text><text fill="#000000" font-family="sans-serif" font-size="14" lengthAdjust="spacing" textLength="251.4395" x="13" y="364.9695">Prozesse: Netznutzungsabrechnung</text><text fill="#000000" font-family="sans-serif" font-size="14" lengthAdjust="spacing" textLength="297.6299" x="13" y="381.2664">Quelle: COMDIS_MIG_1_0e__20240619.pdf</text><line style="stroke:#181818;stroke-width:0.5;" x1="8" x2="315.6299" y1="388.5681" y2="388.5681"/></g><!--class UNH_0054_msg_2--><g class="entity" data-entity="UNH_0054_msg_2" data-source-line="18" data-uid="ent0005" id="entity_UNH_0054_msg_2"><rect fill="#F1F1F1" height="129.4844" rx="2.5" ry="2.5" style="stroke:#181818;stroke-width:0.5;" width="438.0908" x="351.77" y="258.9369"/><ellipse cx="503.2646" cy="274.9369" fill="#ADD1B2" rx="11" ry="11" style="stroke:#181818;stroke-width:1;"/><path d="M506.2334,280.5775 Q505.6553,280.8744 505.0146,281.015 Q504.374,281.1713 503.6709,281.1713 Q501.1709,281.1713 499.8428,279.5306 Q498.5303,277.8744 498.5303,274.7494 Q498.5303,271.6244 499.8428,269.9681 Q501.1709,268.3119 503.6709,268.3119 Q504.374,268.3119 505.0146,268.4681 Q505.6709,268.6244 506.2334,268.9213 L506.2334,271.64 Q505.6084,271.0619 505.0146,270.7963 Q504.4209,270.515 503.7959,270.515 Q502.4521,270.515 501.7646,271.5931 Q501.0771,272.6556 501.0771,274.7494 Q501.0771,276.8431 501.7646,277.9213 Q502.4521,278.9838 503.7959,278.9838 Q504.4209,278.9838 505.0146,278.7181 Q505.6084,278.4369 506.2334,277.8588 L506.2334,280.5775 Z " fill="#000000"/><text fill="#000000" font-family="sans-serif" font-size="14" lengthAdjust="spacing" textLength="126.6016" x="523.7646" y="279.7836">UNH_0054_msg_2</text><line style="stroke:#181818;stroke-width:0.5;" x1="352.77" x2="788.8608" y1="290.9369" y2="290.9369"/><text fill="#000000" font-family="sans-serif" font-size="14" lengthAdjust="spacing" textLength="169.4424" x="357.77" y="307.932">Nachricht: CONTRL 2.0b</text><text fill="#000000" font-family="sans-serif" font-size="14" lengthAdjust="spacing" textLength="426.0908" x="357.77" y="324.2289">Kontext: Nachricht Syntax -   und Servicebericht ist CONTRL.</text><text fill="#000000" font-family="sans-serif" font-size="14" lengthAdjust="spacing" textLength="91.4033" x="357.77" y="340.5257">Pflichtfeld: Ja</text><text fill="#000000" font-family="sans-serif" font-size="14" lengthAdjust="spacing" textLength="73.0215" x="357.77" y="356.8226">Codes: UN</text><text fill="#000000" font-family="sans-serif" font-size="14" lengthAdjust="spacing" textLength="418.3662" x="357.77" y="373.1195">Quelle: CONTRL_MIG_2_0b_au&#223;erordentliche_20240726.pdf</text><line style="stroke:#181818;stroke-width:0.5;" x1="352.77" x2="788.8608" y1="380.4213" y2="380.4213"/></g><!--class UNH_0054_msg_3--><g class="entity" data-entity="UNH_0054_msg_3" data-source-line="26" data-uid="ent0007" id="entity_UNH_0054_msg_3"><rect fill="#F1F1F1" height="145.7813" rx="2.5" ry="2.5" style="stroke:#181818;stroke-width:0.5;" width="422.9219" x="825.35" y="250.7869"/><ellipse cx="969.2602" cy="266.7869" fill="#ADD1B2" rx="11" ry="11" style="stroke:#181818;stroke-width:1;"/><path d="M972.2289,272.4275 Q971.6508,272.7244 971.0102,272.865 Q970.3695,273.0213 969.6664,273.0213 Q967.1664,273.0213 965.8383,271.3806 Q964.5258,269.7244 964.5258,266.5994 Q964.5258,263.4744 965.8383,261.8181 Q967.1664,260.1619 969.6664,260.1619 Q970.3695,260.1619 971.0102,260.3181 Q971.6664,260.4744 972.2289,260.7713 L972.2289,263.49 Q971.6039,262.9119 971.0102,262.6463 Q970.4164,262.365 969.7914,262.365 Q968.4477,262.365 967.7602,263.4431 Q967.0727,264.5056 967.0727,266.5994 Q967.0727,268.6931 967.7602,269.7713 Q968.4477,270.8338 969.7914,270.8338 Q970.4164,270.8338 971.0102,270.5681 Q971.6039,270.2869 972.2289,269.7088 L972.2289,272.4275 Z " fill="#000000"/><text fill="#000000" font-family="sans-serif" font-size="14" lengthAdjust="spacing" textLength="126.6016" x="989.7602" y="271.6336">UNH_0054_msg_3</text><line style="stroke:#181818;stroke-width:0.5;" x1="826.35" x2="1247.2719" y1="282.7869" y2="282.7869"/><text fill="#000000" font-family="sans-serif" font-size="14" lengthAdjust="spacing" textLength="161.998" x="831.35" y="299.782">Nachricht: INSRPT 1.1a</text><text fill="#000000" font-family="sans-serif" font-size="14" lengthAdjust="spacing" textLength="122.917" x="831.35" y="316.0789">Kontext: Hinweis:</text><text fill="#000000" font-family="sans-serif" font-size="14" lengthAdjust="spacing" textLength="91.4033" x="831.35" y="332.3757">Pflichtfeld: Ja</text><text fill="#000000" font-family="sans-serif" font-size="14" lengthAdjust="spacing" textLength="113.1689" x="831.35" y="348.6726">Codes: UN, UNH</text><text fill="#000000" font-family="sans-serif" font-size="14" lengthAdjust="spacing" textLength="251.4395" x="831.35" y="364.9695">Prozesse: Netznutzungsabrechnung</text><text fill="#000000" font-family="sans-serif" font-size="14" lengthAdjust="spacing" textLength="410.9219" x="831.35" y="381.2664">Quelle: INSRPT_MIG_1_1a_au&#223;erordentliche_20240726.pdf</text><line style="stroke:#181818;stroke-width:0.5;" x1="826.35" x2="1247.2719" y1="388.5681" y2="388.5681"/></g><!--class UNH_0054_msg_4--><g class="entity" data-entity="UNH_0054_msg_4" data-source-line="35" data-uid="ent0009" id="entity_UNH_0054_msg_4"><rect fill="#F1F1F1" height="145.7813" rx="2.5" ry="2.5" style="stroke:#181818;stroke-width:0.5;" width="495.6221" x="1283" y="250.7869"/><ellipse cx="1463.2603" cy="266.7869" fill="#ADD1B2" rx="11" ry="11" style="stroke:#181818;stroke-width:1;"/><path d="M1466.229,272.4275 Q1465.6509,272.7244 1465.0103,272.865 Q1464.3696,273.0213 1463.6665,273.0213 Q1461.1665,273.0213 1459.8384,271.3806 Q1458.5259,269.7244 1458.5259,266.5994 Q1458.5259,263.4744 1459.8384,261.8181 Q1461.1665,260.1619 1463.6665,260.1619 Q1464.3696,260.1619 1465.0103,260.3181 Q1465.6665,260.4744 1466.229,260.7713 L1466.229,263.49 Q1465.604,262.9119 1465.0103,262.6463 Q1464.4165,262.365 1463.7915,262.365 Q1462.4478,262.365 1461.7603,263.4431 Q1461.0728,264.5056 1461.0728,266.5994 Q1461.0728,268.6931 1461.7603,269.7713 Q1462.4478,270.8338 1463.7915,270.8338 Q1464.4165,270.8338 1465.0103,270.5681 Q1465.604,270.2869 1466.229,269.7088 L1466.229,272.4275 Z " fill="#000000"/><text fill="#000000" font-family="sans-serif" font-size="14" lengthAdjust="spacing" textLength="126.6016" x="1483.7603" y="271.6336">UNH_0054_msg_4</text><line style="stroke:#181818;stroke-width:0.5;" x1="1284" x2="1777.6221" y1="282.7869" y2="282.7869"/><text fill="#000000" font-family="sans-serif" font-size="14" lengthAdjust="spacing" textLength="161.1982" x="1289" y="299.782">Nachricht: INVOIC 2.8d</text><text fill="#000000" font-family="sans-serif" font-size="14" lengthAdjust="spacing" textLength="122.917" x="1289" y="316.0789">Kontext: Hinweis:</text><text fill="#000000" font-family="sans-serif" font-size="14" lengthAdjust="spacing" textLength="91.4033" x="1289" y="332.3757">Pflichtfeld: Ja</text><text fill="#000000" font-family="sans-serif" font-size="14" lengthAdjust="spacing" textLength="113.1689" x="1289" y="348.6726">Codes: UN, UNH</text><text fill="#000000" font-family="sans-serif" font-size="14" lengthAdjust="spacing" textLength="483.6221" x="1289" y="364.9695">Prozesse: Netznutzungsabrechnung, Messstellenbetriebsabrechnung</text><text fill="#000000" font-family="sans-serif" font-size="14" lengthAdjust="spacing" textLength="396.6074" x="1289" y="381.2664">Quelle: INVOIC_MIG_2.8d_Fehlerkorrektur_20250131.pdf</text><line style="stroke:#181818;stroke-width:0.5;" x1="1284" x2="1777.6221" y1="388.5681" y2="388.5681"/></g><!--class UNH_0054_msg_5--><g class="entity" data-entity="UNH_0054_msg_5" data-source-line="44" data-uid="ent0011" id="entity_UNH_0054_msg_5"><rect fill="#F1F1F1" height="145.7813" rx="2.5" ry="2.5" style="stroke:#181818;stroke-width:0.5;" width="495.6221" x="1814" y="250.7869"/><ellipse cx="1994.2603" cy="266.7869" fill="#ADD1B2" rx="11" ry="11" style="stroke:#181818;stroke-width:1;"/><path d="M1997.229,272.4275 Q1996.6509,272.7244 1996.0103,272.865 Q1995.3696,273.0213 1994.6665,273.0213 Q1992.1665,273.0213 1990.8384,271.3806 Q1989.5259,269.7244 1989.5259,266.5994 Q1989.5259,263.4744 1990.8384,261.8181 Q1992.1665,260.1619 1994.6665,260.1619 Q1995.3696,260.1619 1996.0103,260.3181 Q1996.6665,260.4744 1997.229,260.7713 L1997.229,263.49 Q1996.604,262.9119 1996.0103,262.6463 Q1995.4165,262.365 1994.7915,262.365 Q1993.4478,262.365 1992.7603,263.4431 Q1992.0728,264.5056 1992.0728,266.5994 Q1992.0728,268.6931 1992.7603,269.7713 Q1993.4478,270.8338 1994.7915,270.8338 Q1995.4165,270.8338 1996.0103,270.5681 Q1996.604,270.2869 1997.229,269.7088 L1997.229,272.4275 Z " fill="#000000"/><text fill="#000000" font-family="sans-serif" font-size="14" lengthAdjust="spacing" textLength="126.6016" x="2014.7603" y="271.6336">UNH_0054_msg_5</text><line style="stroke:#181818;stroke-width:0.5;" x1="1815" x2="2308.6221" y1="282.7869" y2="282.7869"/><text fill="#000000" font-family="sans-serif" font-size="14" lengthAdjust="spacing" textLength="165.6484" x="1820" y="299.782">Nachricht: INVOIC 2.8d.</text><text fill="#000000" font-family="sans-serif" font-size="14" lengthAdjust="spacing" textLength="122.917" x="1820" y="316.0789">Kontext: Hinweis:</text><text fill="#000000" font-family="sans-serif" font-size="14" lengthAdjust="spacing" textLength="91.4033" x="1820" y="332.3757">Pflichtfeld: Ja</text><text fill="#000000" font-family="sans-serif" font-size="14" lengthAdjust="spacing" textLength="83.5488" x="1820" y="348.6726">Codes: UNH</text><text fill="#000000" font-family="sans-serif" font-size="14" lengthAdjust="spacing" textLength="483.6221" x="1820" y="364.9695">Prozesse: Netznutzungsabrechnung, Messstellenbetriebsabrechnung</text><text fill="#000000" font-family="sans-serif" font-size="14" lengthAdjust="spacing" textLength="290.3359" x="1820" y="381.2664">Quelle: INVOIC_MIG_2_8d__20240619.pdf</text><line style="stroke:#181818;stroke-width:0.5;" x1="1815" x2="2308.6221" y1="388.5681" y2="388.5681"/></g><!--class UNH_0054_msg_6--><g class="entity" data-entity="UNH_0054_msg_6" data-source-line="53" data-uid="ent0013" id="entity_UNH_0054_msg_6"><rect fill="#F1F1F1" height="145.7813" rx="2.5" ry="2.5" style="stroke:#181818;stroke-width:0.5;" width="417.4463" x="2345.09" y="250.7869"/><ellipse cx="2486.2624" cy="266.7869" fill="#ADD1B2" rx="11" ry="11" style="stroke:#181818;stroke-width:1;"/><path d="M2489.2311,272.4275 Q2488.653,272.7244 2488.0124,272.865 Q2487.3717,273.0213 2486.6686,273.0213 Q2484.1686,273.0213 2482.8405,271.3806 Q2481.528,269.7244 2481.528,266.5994 Q2481.528,263.4744 2482.8405,261.8181 Q2484.1686,260.1619 2486.6686,260.1619 Q2487.3717,260.1619 2488.0124,260.3181 Q2488.6686,260.4744 2489.2311,260.7713 L2489.2311,263.49 Q2488.6061,262.9119 2488.0124,262.6463 Q2487.4186,262.365 2486.7936,262.365 Q2485.4499,262.365 2484.7624,263.4431 Q2484.0749,264.5056 2484.0749,266.5994 Q2484.0749,268.6931 2484.7624,269.7713 Q2485.4499,270.8338 2486.7936,270.8338 Q2487.4186,270.8338 2488.0124,270.5681 Q2488.6061,270.2869 2489.2311,269.7088 L2489.2311,272.4275 Z " fill="#000000"/><text fill="#000000" font-family="sans-serif" font-size="14" lengthAdjust="spacing" textLength="126.6016" x="2506.7624" y="271.6336">UNH_0054_msg_6</text><line style="stroke:#181818;stroke-width:0.5;" x1="2346.09" x2="2761.5363" y1="282.7869" y2="282.7869"/><text fill="#000000" font-family="sans-serif" font-size="14" lengthAdjust="spacing" textLength="172.0264" x="2351.09" y="299.782">Nachricht: MSCONS 2.4c</text><text fill="#000000" font-family="sans-serif" font-size="14" lengthAdjust="spacing" textLength="122.917" x="2351.09" y="316.0789">Kontext: Hinweis:</text><text fill="#000000" font-family="sans-serif" font-size="14" lengthAdjust="spacing" textLength="91.4033" x="2351.09" y="332.3757">Pflichtfeld: Ja</text><text fill="#000000" font-family="sans-serif" font-size="14" lengthAdjust="spacing" textLength="110.2637" x="2351.09" y="348.6726">Codes: 68, UNH</text><text fill="#000000" font-family="sans-serif" font-size="14" lengthAdjust="spacing" textLength="405.4463" x="2351.09" y="364.9695">Prozesse: Anforderung und &#220;bermittlung von Messwerten</text><text fill="#000000" font-family="sans-serif" font-size="14" lengthAdjust="spacing" textLength="294.1641" x="2351.09" y="381.2664">Quelle: MSCONS_MIG_2_4c_20231024.pdf</text><line style="stroke:#181818;stroke-width:0.5;" x1="2346.09" x2="2761.5363" y1="388.5681" y2="388.5681"/></g><!--class UNH_0054_msg_7--><g class="entity" data-entity="UNH_0054_msg_7" data-source-line="62" data-uid="ent0015" id="entity_UNH_0054_msg_7"><rect fill="#F1F1F1" height="145.7813" rx="2.5" ry="2.5" style="stroke:#181818;stroke-width:0.5;" width="296.4365" x="2797.6" y="250.7869"/><ellipse cx="2878.2675" cy="266.7869" fill="#ADD1B2" rx="11" ry="11" style="stroke:#181818;stroke-width:1;"/><path d="M2881.2362,272.4275 Q2880.6581,272.7244 2880.0175,272.865 Q2879.3769,273.0213 2878.6737,273.0213 Q2876.1737,273.0213 2874.8456,271.3806 Q2873.5331,269.7244 2873.5331,266.5994 Q2873.5331,263.4744 2874.8456,261.8181 Q2876.1737,260.1619 2878.6737,260.1619 Q2879.3769,260.1619 2880.0175,260.3181 Q2880.6737,260.4744 2881.2362,260.7713 L2881.2362,263.49 Q2880.6112,262.9119 2880.0175,262.6463 Q2879.4237,262.365 2878.7987,262.365 Q2877.455,262.365 2876.7675,263.4431 Q2876.08,264.5056 2876.08,266.5994 Q2876.08,268.6931 2876.7675,269.7713 Q2877.455,270.8338 2878.7987,270.8338 Q2879.4237,270.8338 2880.0175,270.5681 Q2880.6112,270.2869 2881.2362,269.7088 L2881.2362,272.4275 Z " fill="#000000"/><text fill="#000000" font-family="sans-serif" font-size="14" lengthAdjust="spacing" textLength="126.6016" x="2898.7675" y="271.6336">UNH_0054_msg_7</text><line style="stroke:#181818;stroke-width:0.5;" x1="2798.6" x2="3093.0365" y1="282.7869" y2="282.7869"/><text fill="#000000" font-family="sans-serif" font-size="14" lengthAdjust="spacing" textLength="162.2988" x="2803.6" y="299.782">Nachricht: PRICAT 2.0d</text><text fill="#000000" font-family="sans-serif" font-size="14" lengthAdjust="spacing" textLength="122.917" x="2803.6" y="316.0789">Kontext: Hinweis:</text><text fill="#000000" font-family="sans-serif" font-size="14" lengthAdjust="spacing" textLength="91.4033" x="2803.6" y="332.3757">Pflichtfeld: Ja</text><text fill="#000000" font-family="sans-serif" font-size="14" lengthAdjust="spacing" textLength="83.5488" x="2803.6" y="348.6726">Codes: UNH</text><text fill="#000000" font-family="sans-serif" font-size="14" lengthAdjust="spacing" textLength="251.4395" x="2803.6" y="364.9695">Prozesse: Netznutzungsabrechnung</text><text fill="#000000" font-family="sans-serif" font-size="14" lengthAdjust="spacing" textLength="284.4365" x="2803.6" y="381.2664">Quelle: PRICAT_MIG_2_0d_20240619.pdf</text><line style="stroke:#181818;stroke-width:0.5;" x1="2798.6" x2="3093.0365" y1="388.5681" y2="388.5681"/></g><!--class UNH_0054_proc_1--><g class="entity" data-entity="UNH_0054_proc_1" data-source-line="71" data-uid="ent0017" id="entity_UNH_0054_proc_1"><rect fill="#F1F1F1" height="105.1563" rx="2.5" ry="2.5" style="stroke:#181818;stroke-width:0.5;" width="752.6465" x="3129.49" y="271.0969"/><ellipse cx="3437.719" cy="291.2297" fill="#ADD1B2" rx="11" ry="11" style="stroke:#181818;stroke-width:1;"/><path d="M3440.6878,296.8703 Q3440.1096,297.1672 3439.469,297.3078 Q3438.8284,297.4641 3438.1253,297.4641 Q3435.6253,297.4641 3434.2971,295.8234 Q3432.9846,294.1672 3432.9846,291.0422 Q3432.9846,287.9172 3434.2971,286.2609 Q3435.6253,284.6047 3438.1253,284.6047 Q3438.8284,284.6047 3439.469,284.7609 Q3440.1253,284.9172 3440.6878,285.2141 L3440.6878,287.9328 Q3440.0628,287.3547 3439.469,287.0891 Q3438.8753,286.8078 3438.2503,286.8078 Q3436.9065,286.8078 3436.219,287.8859 Q3435.5315,288.9484 3435.5315,291.0422 Q3435.5315,293.1359 3436.219,294.2141 Q3436.9065,295.2766 3438.2503,295.2766 Q3438.8753,295.2766 3439.469,295.0109 Q3440.0628,294.7297 3440.6878,294.1516 L3440.6878,296.8703 Z " fill="#000000"/><text fill="#000000" font-family="sans-serif" font-size="12" font-style="italic" lengthAdjust="spacing" textLength="61.0605" x="3491.533" y="287.2355">&#171;process&#187;</text><text fill="#000000" font-family="sans-serif" font-size="14" lengthAdjust="spacing" textLength="127.6885" x="3458.219" y="303.0607">UNH_0054_proc_1</text><line style="stroke:#181818;stroke-width:0.5;" x1="3130.49" x2="3881.1365" y1="311.3625" y2="311.3625"/><text fill="#000000" font-family="sans-serif" font-size="14" lengthAdjust="spacing" textLength="180.3457" x="3135.49" y="328.3576">Netznutzungsabrechnung</text><text fill="#000000" font-family="sans-serif" font-size="14" lengthAdjust="spacing" textLength="218.0938" x="3135.49" y="344.6545">Gesetze: StromNEV, StromNZV</text><text fill="#000000" font-family="sans-serif" font-size="14" lengthAdjust="spacing" textLength="740.6465" x="3135.49" y="360.9514">Zusammenfassung: Wie funktioniert die Netznutzungsabrechnung zwischen Netzbetreiber und Lieferant?</text><line style="stroke:#181818;stroke-width:0.5;" x1="3130.49" x2="3881.1365" y1="368.2531" y2="368.2531"/></g><!--class UNH_0054_proc_2--><g class="entity" data-entity="UNH_0054_proc_2" data-source-line="77" data-uid="ent0019" id="entity_UNH_0054_proc_2"><rect fill="#F1F1F1" height="105.1563" rx="2.5" ry="2.5" style="stroke:#181818;stroke-width:0.5;" width="690.2275" x="3916.7" y="271.0969"/><ellipse cx="4193.7195" cy="291.2297" fill="#ADD1B2" rx="11" ry="11" style="stroke:#181818;stroke-width:1;"/><path d="M4196.6883,296.8703 Q4196.1102,297.1672 4195.4695,297.3078 Q4194.8289,297.4641 4194.1258,297.4641 Q4191.6258,297.4641 4190.2977,295.8234 Q4188.9852,294.1672 4188.9852,291.0422 Q4188.9852,287.9172 4190.2977,286.2609 Q4191.6258,284.6047 4194.1258,284.6047 Q4194.8289,284.6047 4195.4695,284.7609 Q4196.1258,284.9172 4196.6883,285.2141 L4196.6883,287.9328 Q4196.0633,287.3547 4195.4695,287.0891 Q4194.8758,286.8078 4194.2508,286.8078 Q4192.907,286.8078 4192.2195,287.8859 Q4191.532,288.9484 4191.532,291.0422 Q4191.532,293.1359 4192.2195,294.2141 Q4192.907,295.2766 4194.2508,295.2766 Q4194.8758,295.2766 4195.4695,295.0109 Q4196.0633,294.7297 4196.6883,294.1516 L4196.6883,296.8703 Z " fill="#000000"/><text fill="#000000" font-family="sans-serif" font-size="12" font-style="italic" lengthAdjust="spacing" textLength="61.0605" x="4247.5335" y="287.2355">&#171;process&#187;</text><text fill="#000000" font-family="sans-serif" font-size="14" lengthAdjust="spacing" textLength="127.6885" x="4214.2195" y="303.0607">UNH_0054_proc_2</text><line style="stroke:#181818;stroke-width:0.5;" x1="3917.7" x2="4605.9275" y1="311.3625" y2="311.3625"/><text fill="#000000" font-family="sans-serif" font-size="14" lengthAdjust="spacing" textLength="223.2822" x="3922.7" y="328.3576">Messstellenbetriebsabrechnung</text><text fill="#000000" font-family="sans-serif" font-size="14" lengthAdjust="spacing" textLength="105.0957" x="3922.7" y="344.6545">Gesetze: MsbG</text><text fill="#000000" font-family="sans-serif" font-size="14" lengthAdjust="spacing" textLength="678.2275" x="3922.7" y="360.9514">Zusammenfassung: Beschreibe den Prozess der Abrechnung von Messstellenbetriebsleistungen.</text><line style="stroke:#181818;stroke-width:0.5;" x1="3917.7" x2="4605.9275" y1="368.2531" y2="368.2531"/></g><!--class UNH_0054_proc_3--><g class="entity" data-entity="UNH_0054_proc_3" data-source-line="83" data-uid="ent0021" id="entity_UNH_0054_proc_3"><rect fill="#F1F1F1" height="105.1563" rx="2.5" ry="2.5" style="stroke:#181818;stroke-width:0.5;" width="378.2285" x="4641.7" y="271.0969"/><ellipse cx="4762.72" cy="291.2297" fill="#ADD1B2" rx="11" ry="11" style="stroke:#181818;stroke-width:1;"/><path d="M4765.6888,296.8703 Q4765.1106,297.1672 4764.47,297.3078 Q4763.8294,297.4641 4763.1263,297.4641 Q4760.6263,297.4641 4759.2981,295.8234 Q4757.9856,294.1672 4757.9856,291.0422 Q4757.9856,287.9172 4759.2981,286.2609 Q4760.6263,284.6047 4763.1263,284.6047 Q4763.8294,284.6047 4764.47,284.7609 Q4765.1263,284.9172 4765.6888,285.2141 L4765.6888,287.9328 Q4765.0638,287.3547 4764.47,287.0891 Q4763.8763,286.8078 4763.2513,286.8078 Q4761.9075,286.8078 4761.22,287.8859 Q4760.5325,288.9484 4760.5325,291.0422 Q4760.5325,293.1359 4761.22,294.2141 Q4761.9075,295.2766 4763.2513,295.2766 Q4763.8763,295.2766 4764.47,295.0109 Q4765.0638,294.7297 4765.6888,294.1516 L4765.6888,296.8703 Z " fill="#000000"/><text fill="#000000" font-family="sans-serif" font-size="12" font-style="italic" lengthAdjust="spacing" textLength="61.0605" x="4816.534" y="287.2355">&#171;process&#187;</text><text fill="#000000" font-family="sans-serif" font-size="14" lengthAdjust="spacing" textLength="127.6885" x="4783.22" y="303.0607">UNH_0054_proc_3</text><line style="stroke:#181818;stroke-width:0.5;" x1="4642.7" x2="5018.9285" y1="311.3625" y2="311.3625"/><text fill="#000000" font-family="sans-serif" font-size="14" lengthAdjust="spacing" textLength="334.3525" x="4647.7" y="328.3576">Anforderung und &#220;bermittlung von Messwerten</text><text fill="#000000" font-family="sans-serif" font-size="14" lengthAdjust="spacing" textLength="105.0957" x="4647.7" y="344.6545">Gesetze: MsbG</text><line style="stroke:#181818;stroke-width:0.5;" x1="4642.7" x2="5018.9285" y1="351.9562" y2="351.9562"/><text fill="#000000" font-family="sans-serif" font-size="14" lengthAdjust="spacing" textLength="366.2285" x="4647.7" y="368.9514">Zusammenfassung: Wie kann ein Marktpartner (z.B.</text></g><!--link UNH_0054 to UNH_0054_msg_1--><g class="link" data-entity-1="UNH_0054" data-entity-2="UNH_0054_msg_1" data-source-line="17" data-uid="lnk4" id="link_UNH_0054_UNH_0054_msg_1"><path codeLine="17" d="M2127.16,121.4169 C1861.48,138.3269 1349.77,171.5569 914.81,203.7869 C656.46,222.9269 585.56,189.6269 333.81,250.7869 C328.15,252.1569 328.2011,252.0207 322.4611,253.6907" fill="none" id="UNH_0054-to-UNH_0054_msg_1" style="stroke:#181818;stroke-width:1;"/><polygon fill="#181818" points="316.7,255.3669,326.4591,256.6934,321.5009,253.9701,324.2243,249.0119,316.7,255.3669" style="stroke:#181818;stroke-width:1;"/><text fill="#000000" font-family="sans-serif" font-size="13" lengthAdjust="spacing" textLength="85.2363" x="915.81" y="216.8538">verwendet in</text></g><!--link UNH_0054 to UNH_0054_msg_2--><g class="link" data-entity-1="UNH_0054" data-entity-2="UNH_0054_msg_2" data-source-line="25" data-uid="lnk6" id="link_UNH_0054_UNH_0054_msg_2"><path codeLine="25" d="M2127.2,115.2869 C1843.72,126.1369 1278.13,158.3669 807.81,250.7869 C796.32,253.0469 790.4143,254.2365 778.6243,257.0665" fill="none" id="UNH_0054-to-UNH_0054_msg_2" style="stroke:#181818;stroke-width:1;"/><polygon fill="#181818" points="772.79,258.4669,782.475,260.2558,777.6519,257.2999,780.6078,252.4767,772.79,258.4669" style="stroke:#181818;stroke-width:1;"/><text fill="#000000" font-family="sans-serif" font-size="13" lengthAdjust="spacing" textLength="85.2363" x="1051.81" y="216.8538">verwendet in</text></g><!--link UNH_0054 to UNH_0054_msg_3--><g class="link" data-entity-1="UNH_0054" data-entity-2="UNH_0054_msg_3" data-source-line="34" data-uid="lnk8" id="link_UNH_0054_UNH_0054_msg_3"><path codeLine="34" d="M2127.33,125.0369 C1918.25,144.5569 1564.26,184.2869 1265.81,250.7869 C1260.12,252.0569 1260.1896,251.9772 1254.3996,253.3872" fill="none" id="UNH_0054-to-UNH_0054_msg_3" style="stroke:#181818;stroke-width:1;"/><polygon fill="#181818" points="1248.57,254.8069,1258.2609,256.5638,1253.428,253.6238,1256.368,248.791,1248.57,254.8069" style="stroke:#181818;stroke-width:1;"/><text fill="#000000" font-family="sans-serif" font-size="13" lengthAdjust="spacing" textLength="85.2363" x="1492.81" y="216.8538">verwendet in</text></g><!--link UNH_0054 to UNH_0054_msg_4--><g class="link" data-entity-1="UNH_0054" data-entity-2="UNH_0054_msg_4" data-source-line="43" data-uid="lnk10" id="link_UNH_0054_UNH_0054_msg_4"><path codeLine="43" d="M2127.6,159.3569 C2023.93,187.7269 1897.9572,222.203 1784.6172,253.223" fill="none" id="UNH_0054-to-UNH_0054_msg_4" style="stroke:#181818;stroke-width:1;"/><polygon fill="#181818" points="1778.83,254.8069,1788.5667,256.2892,1783.6526,253.487,1786.4548,248.5729,1778.83,254.8069" style="stroke:#181818;stroke-width:1;"/><text fill="#000000" font-family="sans-serif" font-size="13" lengthAdjust="spacing" textLength="85.2363" x="1943.81" y="216.8538">verwendet in</text></g><!--link UNH_0054 to UNH_0054_msg_5--><g class="link" data-entity-1="UNH_0054" data-entity-2="UNH_0054_msg_5" data-source-line="52" data-uid="lnk12" id="link_UNH_0054_UNH_0054_msg_5"><path codeLine="52" d="M2233.67,174.1269 C2205.8,198.2169 2178.4787,221.8326 2149.8187,246.6126" fill="none" id="UNH_0054-to-UNH_0054_msg_5" style="stroke:#181818;stroke-width:1;"/><polygon fill="#181818" points="2145.28,250.5369,2154.7043,247.6763,2149.0623,247.2666,2149.4719,241.6246,2145.28,250.5369" style="stroke:#181818;stroke-width:1;"/><text fill="#000000" font-family="sans-serif" font-size="13" lengthAdjust="spacing" textLength="85.2363" x="2193.81" y="216.8538">verwendet in</text></g><!--link UNH_0054 to UNH_0054_msg_6--><g class="link" data-entity-1="UNH_0054" data-entity-2="UNH_0054_msg_6" data-source-line="61" data-uid="lnk14" id="link_UNH_0054_UNH_0054_msg_6"><path codeLine="61" d="M2381.96,174.1269 C2409.83,198.2169 2437.1513,221.8326 2465.8113,246.6126" fill="none" id="UNH_0054-to-UNH_0054_msg_6" style="stroke:#181818;stroke-width:1;"/><polygon fill="#181818" points="2470.35,250.5369,2466.1581,241.6246,2466.5677,247.2666,2460.9257,247.6763,2470.35,250.5369" style="stroke:#181818;stroke-width:1;"/><text fill="#000000" font-family="sans-serif" font-size="13" lengthAdjust="spacing" textLength="85.2363" x="2431.81" y="216.8538">verwendet in</text></g><!--link UNH_0054 to UNH_0054_msg_7--><g class="link" data-entity-1="UNH_0054" data-entity-2="UNH_0054_msg_7" data-source-line="70" data-uid="lnk16" id="link_UNH_0054_UNH_0054_msg_7"><path codeLine="70" d="M2488.48,158.4669 C2577.09,183.5869 2684.9,216.2269 2779.81,250.7869 C2785.57,252.8769 2785.8094,252.9243 2791.6894,255.1843" fill="none" id="UNH_0054-to-UNH_0054_msg_7" style="stroke:#181818;stroke-width:1;"/><polygon fill="#181818" points="2797.29,257.3369,2790.3242,250.3743,2792.6229,255.543,2787.4541,257.8417,2797.29,257.3369" style="stroke:#181818;stroke-width:1;"/><text fill="#000000" font-family="sans-serif" font-size="13" lengthAdjust="spacing" textLength="85.2363" x="2691.81" y="216.8538">verwendet in</text></g><!--link UNH_0054 to UNH_0054_proc_1--><g class="link" data-entity-1="UNH_0054" data-entity-2="UNH_0054_proc_1" data-source-line="76" data-uid="lnk18" id="link_UNH_0054_UNH_0054_proc_1"><path codeLine="76" d="M2488.29,141.2569 C2651.28,169.5369 2897.69,212.5069 3111.81,250.7869 C3147.41,257.1469 3178.8964,262.8157 3215.8764,269.5257" fill="none" id="UNH_0054-to-UNH_0054_proc_1" style="stroke:#181818;stroke-width:1;stroke-dasharray:7,7;"/><polygon fill="#181818" points="3221.78,270.5969,3213.6387,265.0543,3216.8603,269.7042,3212.2105,272.9258,3221.78,270.5969" style="stroke:#181818;stroke-width:1;"/><text fill="#000000" font-family="sans-serif" font-size="13" lengthAdjust="spacing" textLength="91.6221" x="2936.81" y="216.8538">eingebettet in</text></g><!--link UNH_0054 to UNH_0054_proc_2--><g class="link" data-entity-1="UNH_0054" data-entity-2="UNH_0054_proc_2" data-source-line="82" data-uid="lnk20" id="link_UNH_0054_UNH_0054_proc_2"><path codeLine="82" d="M2488.2,119.6369 C2784.11,136.7969 3390.65,177.9369 3899.81,250.7869 C3938.35,256.2969 3973.0818,262.1465 4012.6418,269.5265" fill="none" id="UNH_0054-to-UNH_0054_proc_2" style="stroke:#181818;stroke-width:1;stroke-dasharray:7,7;"/><polygon fill="#181818" points="4018.54,270.6269,4010.4262,265.0442,4013.6248,269.7099,4008.9591,272.9085,4018.54,270.6269" style="stroke:#181818;stroke-width:1;"/><text fill="#000000" font-family="sans-serif" font-size="13" lengthAdjust="spacing" textLength="91.6221" x="3641.81" y="216.8538">eingebettet in</text></g><!--link UNH_0054 to UNH_0054_proc_3--><g class="link" data-entity-1="UNH_0054" data-entity-2="UNH_0054_proc_3" data-source-line="88" data-uid="lnk22" id="link_UNH_0054_UNH_0054_proc_3"><path codeLine="88" d="M2488.44,114.6069 C2959.45,127.5169 4216.87,168.8469 4624.81,250.7869 C4649.14,255.6669 4668.791,260.9211 4693.071,268.7711" fill="none" id="UNH_0054-to-UNH_0054_proc_3" style="stroke:#181818;stroke-width:1;stroke-dasharray:7,7;"/><polygon fill="#181818" points="4698.78,270.6169,4691.447,264.0422,4694.0225,269.0787,4688.9859,271.6542,4698.78,270.6169" style="stroke:#181818;stroke-width:1;"/><text fill="#000000" font-family="sans-serif" font-size="13" lengthAdjust="spacing" textLength="91.6221" x="4392.81" y="216.8538">eingebettet in</text></g><!--SRC=[jPNVJjim5CRlUGfVxg94IVg74Q5EK3ReHaD7W4dSH4voqbfDdSfsAEkqDvcqX-75Tfocq3NGf9kuQENudDZVxtpsYM8g0N9A5N2g4Yh9FhbnpntJRBVsGdoM-j7NZ-J77Y4kdOA3_-5Oi72CByK2s8W6mBFf50Hc34Mw02d1mJ71rLnG2vwfHSP7aWO2mZ77OH4SOAPKa2J00r22GL3EEUPnAY8GE4Co7f77Nm68ALCgqJFtASzNcOD0DNi_DqJxKpdohK9w8TeXlSl1QTyZbc62WP4lALVmWFCdmEICGQAr3-D49yUGH0xvJ76cbqOW7M9s6iGwR13RRk0s-dU-ZlqwyDTCWwvszmVzCz_oJV1zsxHRPiSwD6PHZ0HF1T_Vxsw2EEGUn1nu18em_XAiNOPrhwykY6sOmJhhKmRnldD57x3I9A-l1-AUXO15pgDCgc89OrjLRjo_27L-JcZxPk3JxF4t2EqYL_fzM28Vs9rAPBi6SdCJkUzwLyDhzDUYwyZdZC_HOMSxnpyukjolSDIY_yFRhC7RAlFUNlPxQF7xwEru6vMtzRaSMixIVfJaVu9n0cAI2W4JbGbTZBPfDQtAOhHg5AEzfHZ6xjLukqhuM8dwLxrT0xspYJxmyEPvYDuAToNll2-VWvqwxpFqKaK1tGerSzD2xahcJWtcWqtcuLM_TtojsrlqDcwlaIttMlMrgBwR1nLaCv66sDsFZlG0nNIxIypN19s1n10gyfH8f-x7sqOnkhl5w5qcANwDUOnxOBv3lZ4WSSOdYgMSeLqamecN5oUBEPFOiNWUruSR6BgU-t_180P1kVgm3ciOtHA8Gu3n4Nv3b7gTroxnLbsh9-o13CvU0Zq1r9uh9jXxLzRYM93ZPyJLoTtOAi7peZ0EtDZEPzVZQvRuThnGbRZQrmdbNAiX0oecQaQ5uaZxRc6SL50qInH_0000]--></g></svg>