<svg xmlns="http://www.w3.org/2000/svg" xmlns:xlink="http://www.w3.org/1999/xlink" contentStyleType="text/css" data-diagram-type="CLASS" height="387px" preserveAspectRatio="none" style="width:2366px;height:387px;background:#FFFFFF;" version="1.1" viewBox="0 0 2366 387" width="2366px" zoomAndPan="magnify"><title>Datenatlas - UNH:0076</title><defs/><g><g class="title" data-source-line="1"><text fill="#000000" font-family="sans-serif" font-size="14" font-weight="bold" lengthAdjust="spacing" textLength="180.8652" x="1086.0312" y="22.9951">Datenatlas - UNH:0076</text></g><!--class UNH_0076--><g class="entity" data-entity="UNH_0076" data-source-line="2" data-uid="ent0002" id="entity_UNH_0076"><rect fill="#F1F1F1" height="113.1875" rx="2.5" ry="2.5" style="stroke:#181818;stroke-width:0.5;" width="290.0518" x="783.79" y="44.2969"/><ellipse cx="887.6279" cy="60.2969" fill="#ADD1B2" rx="11" ry="11" style="stroke:#181818;stroke-width:1;"/><path d="M890.5966,65.9375 Q890.0185,66.2344 889.3779,66.375 Q888.7373,66.5313 888.0341,66.5313 Q885.5341,66.5313 884.206,64.8906 Q882.8935,63.2344 882.8935,60.1094 Q882.8935,56.9844 884.206,55.3281 Q885.5341,53.6719 888.0341,53.6719 Q888.7373,53.6719 889.3779,53.8281 Q890.0341,53.9844 890.5966,54.2813 L890.5966,57 Q889.9716,56.4219 889.3779,56.1563 Q888.7841,55.875 888.1591,55.875 Q886.8154,55.875 886.1279,56.9531 Q885.4404,58.0156 885.4404,60.1094 Q885.4404,62.2031 886.1279,63.2813 Q886.8154,64.3438 888.1591,64.3438 Q888.7841,64.3438 889.3779,64.0781 Q889.9716,63.7969 890.5966,63.2188 L890.5966,65.9375 Z " fill="#000000"/><text fill="#000000" font-family="sans-serif" font-size="14" lengthAdjust="spacing" textLength="73.876" x="908.1279" y="65.1436">UNH_0076</text><line style="stroke:#181818;stroke-width:0.5;" x1="784.79" x2="1072.8418" y1="76.2969" y2="76.2969"/><text fill="#000000" font-family="sans-serif" font-size="14" lengthAdjust="spacing" textLength="264.0518" x="803.79" y="93.292">Name: Kennzeichen f&#252;r Testnachricht</text><text fill="#000000" font-family="sans-serif" font-size="14" lengthAdjust="spacing" textLength="66.6436" x="803.79" y="109.5889">Prozesse:</text><rect fill="none" height="6" style="stroke:#C82930;stroke-width:1;" width="6" x="791.79" y="119.5391"/><text fill="#000000" font-family="sans-serif" font-size="14" lengthAdjust="spacing" textLength="180.3457" x="803.79" y="125.8857">Netznutzungsabrechnung</text><rect fill="none" height="6" style="stroke:#C82930;stroke-width:1;" width="6" x="791.79" y="135.8359"/><text fill="#000000" font-family="sans-serif" font-size="14" lengthAdjust="spacing" textLength="223.2822" x="803.79" y="142.1826">Messstellenbetriebsabrechnung</text><line style="stroke:#181818;stroke-width:0.5;" x1="784.79" x2="1072.8418" y1="149.4844" y2="149.4844"/></g><!--class UNH_0076_msg_1--><g class="entity" data-entity="UNH_0076_msg_1" data-source-line="8" data-uid="ent0003" id="entity_UNH_0076_msg_1"><rect fill="#F1F1F1" height="145.7813" rx="2.5" ry="2.5" style="stroke:#181818;stroke-width:0.5;" width="309.6299" x="7" y="234.4869"/><ellipse cx="94.2642" cy="250.4869" fill="#ADD1B2" rx="11" ry="11" style="stroke:#181818;stroke-width:1;"/><path d="M97.2329,256.1275 Q96.6548,256.4244 96.0142,256.565 Q95.3735,256.7213 94.6704,256.7213 Q92.1704,256.7213 90.8423,255.0806 Q89.5298,253.4244 89.5298,250.2994 Q89.5298,247.1744 90.8423,245.5181 Q92.1704,243.8619 94.6704,243.8619 Q95.3735,243.8619 96.0142,244.0181 Q96.6704,244.1744 97.2329,244.4713 L97.2329,247.19 Q96.6079,246.6119 96.0142,246.3463 Q95.4204,246.065 94.7954,246.065 Q93.4517,246.065 92.7642,247.1431 Q92.0767,248.2056 92.0767,250.2994 Q92.0767,252.3931 92.7642,253.4713 Q93.4517,254.5338 94.7954,254.5338 Q95.4204,254.5338 96.0142,254.2681 Q96.6079,253.9869 97.2329,253.4088 L97.2329,256.1275 Z " fill="#000000"/><text fill="#000000" font-family="sans-serif" font-size="14" lengthAdjust="spacing" textLength="126.6016" x="114.7642" y="255.3336">UNH_0076_msg_1</text><line style="stroke:#181818;stroke-width:0.5;" x1="8" x2="315.6299" y1="266.4869" y2="266.4869"/><text fill="#000000" font-family="sans-serif" font-size="14" lengthAdjust="spacing" textLength="172.9424" x="13" y="283.482">Nachricht: COMDIS 1.0e.</text><text fill="#000000" font-family="sans-serif" font-size="14" lengthAdjust="spacing" textLength="123.0605" x="13" y="299.7789">Kontext: Beispiel:</text><text fill="#000000" font-family="sans-serif" font-size="14" lengthAdjust="spacing" textLength="91.4033" x="13" y="316.0757">Pflichtfeld: Ja</text><text fill="#000000" font-family="sans-serif" font-size="14" lengthAdjust="spacing" textLength="193.3135" x="13" y="332.3726">Codes: 06, 19, 22, UN, UNH</text><text fill="#000000" font-family="sans-serif" font-size="14" lengthAdjust="spacing" textLength="251.4395" x="13" y="348.6695">Prozesse: Netznutzungsabrechnung</text><text fill="#000000" font-family="sans-serif" font-size="14" lengthAdjust="spacing" textLength="297.6299" x="13" y="364.9664">Quelle: COMDIS_MIG_1_0e__20240619.pdf</text><line style="stroke:#181818;stroke-width:0.5;" x1="8" x2="315.6299" y1="372.2681" y2="372.2681"/></g><!--class UNH_0076_msg_2--><g class="entity" data-entity="UNH_0076_msg_2" data-source-line="17" data-uid="ent0005" id="entity_UNH_0076_msg_2"><rect fill="#F1F1F1" height="145.7813" rx="2.5" ry="2.5" style="stroke:#181818;stroke-width:0.5;" width="495.6221" x="352" y="234.4869"/><ellipse cx="532.2603" cy="250.4869" fill="#ADD1B2" rx="11" ry="11" style="stroke:#181818;stroke-width:1;"/><path d="M535.229,256.1275 Q534.6509,256.4244 534.0103,256.565 Q533.3696,256.7213 532.6665,256.7213 Q530.1665,256.7213 528.8384,255.0806 Q527.5259,253.4244 527.5259,250.2994 Q527.5259,247.1744 528.8384,245.5181 Q530.1665,243.8619 532.6665,243.8619 Q533.3696,243.8619 534.0103,244.0181 Q534.6665,244.1744 535.229,244.4713 L535.229,247.19 Q534.604,246.6119 534.0103,246.3463 Q533.4165,246.065 532.7915,246.065 Q531.4478,246.065 530.7603,247.1431 Q530.0728,248.2056 530.0728,250.2994 Q530.0728,252.3931 530.7603,253.4713 Q531.4478,254.5338 532.7915,254.5338 Q533.4165,254.5338 534.0103,254.2681 Q534.604,253.9869 535.229,253.4088 L535.229,256.1275 Z " fill="#000000"/><text fill="#000000" font-family="sans-serif" font-size="14" lengthAdjust="spacing" textLength="126.6016" x="552.7603" y="255.3336">UNH_0076_msg_2</text><line style="stroke:#181818;stroke-width:0.5;" x1="353" x2="846.6221" y1="266.4869" y2="266.4869"/><text fill="#000000" font-family="sans-serif" font-size="14" lengthAdjust="spacing" textLength="161.1982" x="358" y="283.482">Nachricht: INVOIC 2.8d</text><text fill="#000000" font-family="sans-serif" font-size="14" lengthAdjust="spacing" textLength="204.1143" x="358" y="299.7789">Kontext: Nachrichtenstruktur</text><text fill="#000000" font-family="sans-serif" font-size="14" lengthAdjust="spacing" textLength="91.4033" x="358" y="316.0757">Pflichtfeld: Ja</text><text fill="#000000" font-family="sans-serif" font-size="14" lengthAdjust="spacing" textLength="149.4336" x="358" y="332.3726">Codes: 99, COM, SG2</text><text fill="#000000" font-family="sans-serif" font-size="14" lengthAdjust="spacing" textLength="483.6221" x="358" y="348.6695">Prozesse: Netznutzungsabrechnung, Messstellenbetriebsabrechnung</text><text fill="#000000" font-family="sans-serif" font-size="14" lengthAdjust="spacing" textLength="396.6074" x="358" y="364.9664">Quelle: INVOIC_MIG_2.8d_Fehlerkorrektur_20250131.pdf</text><line style="stroke:#181818;stroke-width:0.5;" x1="353" x2="846.6221" y1="372.2681" y2="372.2681"/></g><!--class UNH_0076_proc_1--><g class="entity" data-entity="UNH_0076_proc_1" data-source-line="26" data-uid="ent0007" id="entity_UNH_0076_proc_1"><rect fill="#F1F1F1" height="105.1563" rx="2.5" ry="2.5" style="stroke:#181818;stroke-width:0.5;" width="752.6465" x="882.49" y="254.7969"/><ellipse cx="1190.719" cy="274.9297" fill="#ADD1B2" rx="11" ry="11" style="stroke:#181818;stroke-width:1;"/><path d="M1193.6878,280.5703 Q1193.1096,280.8672 1192.469,281.0078 Q1191.8284,281.1641 1191.1253,281.1641 Q1188.6253,281.1641 1187.2971,279.5234 Q1185.9846,277.8672 1185.9846,274.7422 Q1185.9846,271.6172 1187.2971,269.9609 Q1188.6253,268.3047 1191.1253,268.3047 Q1191.8284,268.3047 1192.469,268.4609 Q1193.1253,268.6172 1193.6878,268.9141 L1193.6878,271.6328 Q1193.0628,271.0547 1192.469,270.7891 Q1191.8753,270.5078 1191.2503,270.5078 Q1189.9065,270.5078 1189.219,271.5859 Q1188.5315,272.6484 1188.5315,274.7422 Q1188.5315,276.8359 1189.219,277.9141 Q1189.9065,278.9766 1191.2503,278.9766 Q1191.8753,278.9766 1192.469,278.7109 Q1193.0628,278.4297 1193.6878,277.8516 L1193.6878,280.5703 Z " fill="#000000"/><text fill="#000000" font-family="sans-serif" font-size="12" font-style="italic" lengthAdjust="spacing" textLength="61.0605" x="1244.533" y="270.9355">&#171;process&#187;</text><text fill="#000000" font-family="sans-serif" font-size="14" lengthAdjust="spacing" textLength="127.6885" x="1211.219" y="286.7607">UNH_0076_proc_1</text><line style="stroke:#181818;stroke-width:0.5;" x1="883.49" x2="1634.1365" y1="295.0625" y2="295.0625"/><text fill="#000000" font-family="sans-serif" font-size="14" lengthAdjust="spacing" textLength="180.3457" x="888.49" y="312.0576">Netznutzungsabrechnung</text><text fill="#000000" font-family="sans-serif" font-size="14" lengthAdjust="spacing" textLength="218.0938" x="888.49" y="328.3545">Gesetze: StromNEV, StromNZV</text><text fill="#000000" font-family="sans-serif" font-size="14" lengthAdjust="spacing" textLength="740.6465" x="888.49" y="344.6514">Zusammenfassung: Wie funktioniert die Netznutzungsabrechnung zwischen Netzbetreiber und Lieferant?</text><line style="stroke:#181818;stroke-width:0.5;" x1="883.49" x2="1634.1365" y1="351.9531" y2="351.9531"/></g><!--class UNH_0076_proc_2--><g class="entity" data-entity="UNH_0076_proc_2" data-source-line="32" data-uid="ent0009" id="entity_UNH_0076_proc_2"><rect fill="#F1F1F1" height="105.1563" rx="2.5" ry="2.5" style="stroke:#181818;stroke-width:0.5;" width="690.2275" x="1669.7" y="254.7969"/><ellipse cx="1946.7195" cy="274.9297" fill="#ADD1B2" rx="11" ry="11" style="stroke:#181818;stroke-width:1;"/><path d="M1949.6883,280.5703 Q1949.1102,280.8672 1948.4695,281.0078 Q1947.8289,281.1641 1947.1258,281.1641 Q1944.6258,281.1641 1943.2977,279.5234 Q1941.9852,277.8672 1941.9852,274.7422 Q1941.9852,271.6172 1943.2977,269.9609 Q1944.6258,268.3047 1947.1258,268.3047 Q1947.8289,268.3047 1948.4695,268.4609 Q1949.1258,268.6172 1949.6883,268.9141 L1949.6883,271.6328 Q1949.0633,271.0547 1948.4695,270.7891 Q1947.8758,270.5078 1947.2508,270.5078 Q1945.907,270.5078 1945.2195,271.5859 Q1944.532,272.6484 1944.532,274.7422 Q1944.532,276.8359 1945.2195,277.9141 Q1945.907,278.9766 1947.2508,278.9766 Q1947.8758,278.9766 1948.4695,278.7109 Q1949.0633,278.4297 1949.6883,277.8516 L1949.6883,280.5703 Z " fill="#000000"/><text fill="#000000" font-family="sans-serif" font-size="12" font-style="italic" lengthAdjust="spacing" textLength="61.0605" x="2000.5335" y="270.9355">&#171;process&#187;</text><text fill="#000000" font-family="sans-serif" font-size="14" lengthAdjust="spacing" textLength="127.6885" x="1967.2195" y="286.7607">UNH_0076_proc_2</text><line style="stroke:#181818;stroke-width:0.5;" x1="1670.7" x2="2358.9275" y1="295.0625" y2="295.0625"/><text fill="#000000" font-family="sans-serif" font-size="14" lengthAdjust="spacing" textLength="223.2822" x="1675.7" y="312.0576">Messstellenbetriebsabrechnung</text><text fill="#000000" font-family="sans-serif" font-size="14" lengthAdjust="spacing" textLength="105.0957" x="1675.7" y="328.3545">Gesetze: MsbG</text><text fill="#000000" font-family="sans-serif" font-size="14" lengthAdjust="spacing" textLength="678.2275" x="1675.7" y="344.6514">Zusammenfassung: Beschreibe den Prozess der Abrechnung von Messstellenbetriebsleistungen.</text><line style="stroke:#181818;stroke-width:0.5;" x1="1670.7" x2="2358.9275" y1="351.9531" y2="351.9531"/></g><!--link UNH_0076 to UNH_0076_msg_1--><g class="link" data-entity-1="UNH_0076" data-entity-2="UNH_0076_msg_1" data-source-line="16" data-uid="lnk4" id="link_UNH_0076_UNH_0076_msg_1"><path codeLine="16" d="M783.52,126.9869 C662.1,149.7069 485.16,186.8669 334.81,234.4869 C328.92,236.3469 328.619,236.3716 322.619,238.4516" fill="none" id="UNH_0076-to-UNH_0076_msg_1" style="stroke:#181818;stroke-width:1;"/><polygon fill="#181818" points="316.95,240.4169,326.7637,241.2483,321.6742,238.7792,324.1434,233.6896,316.95,240.4169" style="stroke:#181818;stroke-width:1;"/><text fill="#000000" font-family="sans-serif" font-size="13" lengthAdjust="spacing" textLength="85.2363" x="496.81" y="200.5538">verwendet in</text></g><!--link UNH_0076 to UNH_0076_msg_2--><g class="link" data-entity-1="UNH_0076" data-entity-2="UNH_0076_msg_2" data-source-line="25" data-uid="lnk6" id="link_UNH_0076_UNH_0076_msg_2"><path codeLine="25" d="M838.91,157.7669 C801.05,181.2969 761.5959,205.8196 721.2759,230.8796" fill="none" id="UNH_0076-to-UNH_0076_msg_2" style="stroke:#181818;stroke-width:1;"/><polygon fill="#181818" points="716.18,234.0469,725.9354,232.6933,720.4266,231.4075,721.7124,225.8987,716.18,234.0469" style="stroke:#181818;stroke-width:1;"/><text fill="#000000" font-family="sans-serif" font-size="13" lengthAdjust="spacing" textLength="85.2363" x="785.81" y="200.5538">verwendet in</text></g><!--link UNH_0076 to UNH_0076_proc_1--><g class="link" data-entity-1="UNH_0076" data-entity-2="UNH_0076_proc_1" data-source-line="31" data-uid="lnk8" id="link_UNH_0076_UNH_0076_proc_1"><path codeLine="31" d="M1018.99,157.7669 C1067.65,187.9169 1122.2295,221.747 1169.8795,251.267" fill="none" id="UNH_0076-to-UNH_0076_proc_1" style="stroke:#181818;stroke-width:1;stroke-dasharray:7,7;"/><polygon fill="#181818" points="1174.98,254.4269,1169.4358,246.2867,1170.7296,251.7937,1165.2226,253.0874,1174.98,254.4269" style="stroke:#181818;stroke-width:1;"/><text fill="#000000" font-family="sans-serif" font-size="13" lengthAdjust="spacing" textLength="91.6221" x="1094.81" y="200.5538">eingebettet in</text></g><!--link UNH_0076 to UNH_0076_proc_2--><g class="link" data-entity-1="UNH_0076" data-entity-2="UNH_0076_proc_2" data-source-line="37" data-uid="lnk10" id="link_UNH_0076_UNH_0076_proc_2"><path codeLine="37" d="M1074.2,127.8569 C1220.47,154.1369 1452.45,196.2469 1652.81,234.4869 C1686.02,240.8269 1715.0125,246.4406 1749.4825,253.2106" fill="none" id="UNH_0076-to-UNH_0076_proc_2" style="stroke:#181818;stroke-width:1;stroke-dasharray:7,7;"/><polygon fill="#181818" points="1755.37,254.3669,1747.3096,248.7074,1750.4637,253.4033,1745.7678,256.5574,1755.37,254.3669" style="stroke:#181818;stroke-width:1;"/><text fill="#000000" font-family="sans-serif" font-size="13" lengthAdjust="spacing" textLength="91.6221" x="1475.81" y="200.5538">eingebettet in</text></g><!--SRC=[ZPFTRjf048NlynJp0CQotPOMAw9gI4jeYfEAbagviGm-XXLcZ7RNIKJLD-jTNwopX1B4J-Y5fTcPySxvpkvQPKlGPMR1cIqpGmtwdbp5GV2sUJQMjN7Br2tfvnbHaiqHqpMObr3ZAPYAFxyrVOEnd8sdMd9MscvrjOGnY2KcsJA1NN9jbpLFJ3RI64zPmdMnBvt6eYp18rYjCDhk-RKZ8vsRIHgknQmdnjIvwL_s1XJw0NofN5TiyIZv2oYpK2YTaDkYTCq5oZocpvbaEbKE4rFGz2XiUHH5denntzKsmt7rNskd-j_qjD_hfc4Q84sZ87eTDCEMlyWB8TXOs6YqTq5YkeT-0EUmfFWGRBGBsqk6DxqEHVwxV9jrqm4sLjSpM-kNg5j2BC8z6dIZ_y3rJfpJinjFybPkE8df9qnBw5cbDPmcPywR87mLdZGdEc7EGbTZSV3yt0KYhjr-SkhOSNLXf2GA1rPNy-JZq5j7TqEftjKccy_1XSoG_fX-A51HyyogYXMqfLmIXpUdvOCog-VWwiuTg14qrPpJ5uK2EcFxVXlMzzjx8351yGJokptE6-tndZgN3NRVZBg7G2yWsbUAAHU4zKsGMDE7PyJxYW-DAkM5MQc3_PVveZs-lm00]--></g></svg>