<svg xmlns="http://www.w3.org/2000/svg" xmlns:xlink="http://www.w3.org/1999/xlink" contentStyleType="text/css" data-diagram-type="CLASS" height="387px" preserveAspectRatio="none" style="width:2916px;height:387px;background:#FFFFFF;" version="1.1" viewBox="0 0 2916 387" width="2916px" zoomAndPan="magnify"><title>Datenatlas - UNH:0029</title><defs/><g><g class="title" data-source-line="1"><text fill="#000000" font-family="sans-serif" font-size="14" font-weight="bold" lengthAdjust="spacing" textLength="180.8652" x="1360.6466" y="22.9951">Datenatlas - UNH:0029</text></g><!--class UNH_0029--><g class="entity" data-entity="UNH_0029" data-source-line="2" data-uid="ent0002" id="entity_UNH_0029"><rect fill="#F1F1F1" height="113.1875" rx="2.5" ry="2.5" style="stroke:#181818;stroke-width:0.5;" width="360.3525" x="1080.87" y="44.2969"/><ellipse cx="1219.8583" cy="60.2969" fill="#ADD1B2" rx="11" ry="11" style="stroke:#181818;stroke-width:1;"/><path d="M1222.827,65.9375 Q1222.2489,66.2344 1221.6083,66.375 Q1220.9677,66.5313 1220.2645,66.5313 Q1217.7645,66.5313 1216.4364,64.8906 Q1215.1239,63.2344 1215.1239,60.1094 Q1215.1239,56.9844 1216.4364,55.3281 Q1217.7645,53.6719 1220.2645,53.6719 Q1220.9677,53.6719 1221.6083,53.8281 Q1222.2645,53.9844 1222.827,54.2813 L1222.827,57 Q1222.202,56.4219 1221.6083,56.1563 Q1221.0145,55.875 1220.3895,55.875 Q1219.0458,55.875 1218.3583,56.9531 Q1217.6708,58.0156 1217.6708,60.1094 Q1217.6708,62.2031 1218.3583,63.2813 Q1219.0458,64.3438 1220.3895,64.3438 Q1221.0145,64.3438 1221.6083,64.0781 Q1222.202,63.7969 1222.827,63.2188 L1222.827,65.9375 Z " fill="#000000"/><text fill="#000000" font-family="sans-serif" font-size="14" lengthAdjust="spacing" textLength="73.876" x="1240.3583" y="65.1436">UNH_0029</text><line style="stroke:#181818;stroke-width:0.5;" x1="1081.87" x2="1440.2225" y1="76.2969" y2="76.2969"/><text fill="#000000" font-family="sans-serif" font-size="14" lengthAdjust="spacing" textLength="214.04" x="1100.87" y="93.292">Name: Vereinbarungskennung</text><text fill="#000000" font-family="sans-serif" font-size="14" lengthAdjust="spacing" textLength="66.6436" x="1100.87" y="109.5889">Prozesse:</text><rect fill="none" height="6" style="stroke:#C82930;stroke-width:1;" width="6" x="1088.87" y="119.5391"/><text fill="#000000" font-family="sans-serif" font-size="14" lengthAdjust="spacing" textLength="180.3457" x="1100.87" y="125.8857">Netznutzungsabrechnung</text><rect fill="none" height="6" style="stroke:#C82930;stroke-width:1;" width="6" x="1088.87" y="135.8359"/><text fill="#000000" font-family="sans-serif" font-size="14" lengthAdjust="spacing" textLength="334.3525" x="1100.87" y="142.1826">Anforderung und &#220;bermittlung von Messwerten</text><line style="stroke:#181818;stroke-width:0.5;" x1="1081.87" x2="1440.2225" y1="149.4844" y2="149.4844"/></g><!--class UNH_0029_msg_1--><g class="entity" data-entity="UNH_0029_msg_1" data-source-line="8" data-uid="ent0003" id="entity_UNH_0029_msg_1"><rect fill="#F1F1F1" height="113.1875" rx="2.5" ry="2.5" style="stroke:#181818;stroke-width:0.5;" width="438.0908" x="7" y="250.7869"/><ellipse cx="158.4946" cy="266.7869" fill="#ADD1B2" rx="11" ry="11" style="stroke:#181818;stroke-width:1;"/><path d="M161.4634,272.4275 Q160.8853,272.7244 160.2446,272.865 Q159.604,273.0213 158.9009,273.0213 Q156.4009,273.0213 155.0728,271.3806 Q153.7603,269.7244 153.7603,266.5994 Q153.7603,263.4744 155.0728,261.8181 Q156.4009,260.1619 158.9009,260.1619 Q159.604,260.1619 160.2446,260.3181 Q160.9009,260.4744 161.4634,260.7713 L161.4634,263.49 Q160.8384,262.9119 160.2446,262.6463 Q159.6509,262.365 159.0259,262.365 Q157.6821,262.365 156.9946,263.4431 Q156.3071,264.5056 156.3071,266.5994 Q156.3071,268.6931 156.9946,269.7713 Q157.6821,270.8338 159.0259,270.8338 Q159.6509,270.8338 160.2446,270.5681 Q160.8384,270.2869 161.4634,269.7088 L161.4634,272.4275 Z " fill="#000000"/><text fill="#000000" font-family="sans-serif" font-size="14" lengthAdjust="spacing" textLength="126.6016" x="178.9946" y="271.6336">UNH_0029_msg_1</text><line style="stroke:#181818;stroke-width:0.5;" x1="8" x2="444.0908" y1="282.7869" y2="282.7869"/><text fill="#000000" font-family="sans-serif" font-size="14" lengthAdjust="spacing" textLength="169.4424" x="13" y="299.782">Nachricht: CONTRL 2.0b</text><text fill="#000000" font-family="sans-serif" font-size="14" lengthAdjust="spacing" textLength="426.0908" x="13" y="316.0789">Kontext: Nachricht Syntax -   und Servicebericht ist CONTRL.</text><text fill="#000000" font-family="sans-serif" font-size="14" lengthAdjust="spacing" textLength="91.4033" x="13" y="332.3757">Pflichtfeld: Ja</text><text fill="#000000" font-family="sans-serif" font-size="14" lengthAdjust="spacing" textLength="418.3662" x="13" y="348.6726">Quelle: CONTRL_MIG_2_0b_au&#223;erordentliche_20240726.pdf</text><line style="stroke:#181818;stroke-width:0.5;" x1="8" x2="444.0908" y1="355.9744" y2="355.9744"/></g><!--class UNH_0029_msg_2--><g class="entity" data-entity="UNH_0029_msg_2" data-source-line="15" data-uid="ent0005" id="entity_UNH_0029_msg_2"><rect fill="#F1F1F1" height="145.7813" rx="2.5" ry="2.5" style="stroke:#181818;stroke-width:0.5;" width="296.1357" x="479.98" y="234.4869"/><ellipse cx="560.4971" cy="250.4869" fill="#ADD1B2" rx="11" ry="11" style="stroke:#181818;stroke-width:1;"/><path d="M563.4658,256.1275 Q562.8877,256.4244 562.2471,256.565 Q561.6065,256.7213 560.9033,256.7213 Q558.4033,256.7213 557.0752,255.0806 Q555.7627,253.4244 555.7627,250.2994 Q555.7627,247.1744 557.0752,245.5181 Q558.4033,243.8619 560.9033,243.8619 Q561.6065,243.8619 562.2471,244.0181 Q562.9033,244.1744 563.4658,244.4713 L563.4658,247.19 Q562.8408,246.6119 562.2471,246.3463 Q561.6533,246.065 561.0283,246.065 Q559.6846,246.065 558.9971,247.1431 Q558.3096,248.2056 558.3096,250.2994 Q558.3096,252.3931 558.9971,253.4713 Q559.6846,254.5338 561.0283,254.5338 Q561.6533,254.5338 562.2471,254.2681 Q562.8408,253.9869 563.4658,253.4088 L563.4658,256.1275 Z " fill="#000000"/><text fill="#000000" font-family="sans-serif" font-size="14" lengthAdjust="spacing" textLength="126.6016" x="580.9971" y="255.3336">UNH_0029_msg_2</text><line style="stroke:#181818;stroke-width:0.5;" x1="480.98" x2="775.1157" y1="266.4869" y2="266.4869"/><text fill="#000000" font-family="sans-serif" font-size="14" lengthAdjust="spacing" textLength="161.998" x="485.98" y="283.482">Nachricht: INSRPT 1.1a</text><text fill="#000000" font-family="sans-serif" font-size="14" lengthAdjust="spacing" textLength="122.917" x="485.98" y="299.7789">Kontext: Hinweis:</text><text fill="#000000" font-family="sans-serif" font-size="14" lengthAdjust="spacing" textLength="91.4033" x="485.98" y="316.0757">Pflichtfeld: Ja</text><text fill="#000000" font-family="sans-serif" font-size="14" lengthAdjust="spacing" textLength="83.5488" x="485.98" y="332.3726">Codes: UNH</text><text fill="#000000" font-family="sans-serif" font-size="14" lengthAdjust="spacing" textLength="251.4395" x="485.98" y="348.6695">Prozesse: Netznutzungsabrechnung</text><text fill="#000000" font-family="sans-serif" font-size="14" lengthAdjust="spacing" textLength="284.1357" x="485.98" y="364.9664">Quelle: INSRPT_MIG_1_1a_20211001.pdf</text><line style="stroke:#181818;stroke-width:0.5;" x1="480.98" x2="775.1157" y1="372.2681" y2="372.2681"/></g><!--class UNH_0029_msg_3--><g class="entity" data-entity="UNH_0029_msg_3" data-source-line="24" data-uid="ent0007" id="entity_UNH_0029_msg_3"><rect fill="#F1F1F1" height="145.7813" rx="2.5" ry="2.5" style="stroke:#181818;stroke-width:0.5;" width="432.9502" x="811.57" y="234.4869"/><ellipse cx="960.4943" cy="250.4869" fill="#ADD1B2" rx="11" ry="11" style="stroke:#181818;stroke-width:1;"/><path d="M963.4631,256.1275 Q962.8849,256.4244 962.2443,256.565 Q961.6037,256.7213 960.9006,256.7213 Q958.4006,256.7213 957.0724,255.0806 Q955.7599,253.4244 955.7599,250.2994 Q955.7599,247.1744 957.0724,245.5181 Q958.4006,243.8619 960.9006,243.8619 Q961.6037,243.8619 962.2443,244.0181 Q962.9006,244.1744 963.4631,244.4713 L963.4631,247.19 Q962.8381,246.6119 962.2443,246.3463 Q961.6506,246.065 961.0256,246.065 Q959.6818,246.065 958.9943,247.1431 Q958.3068,248.2056 958.3068,250.2994 Q958.3068,252.3931 958.9943,253.4713 Q959.6818,254.5338 961.0256,254.5338 Q961.6506,254.5338 962.2443,254.2681 Q962.8381,253.9869 963.4631,253.4088 L963.4631,256.1275 Z " fill="#000000"/><text fill="#000000" font-family="sans-serif" font-size="14" lengthAdjust="spacing" textLength="126.6016" x="980.9943" y="255.3336">UNH_0029_msg_3</text><line style="stroke:#181818;stroke-width:0.5;" x1="812.57" x2="1243.5202" y1="266.4869" y2="266.4869"/><text fill="#000000" font-family="sans-serif" font-size="14" lengthAdjust="spacing" textLength="172.0264" x="817.57" y="283.482">Nachricht: MSCONS 2.4c</text><text fill="#000000" font-family="sans-serif" font-size="14" lengthAdjust="spacing" textLength="122.917" x="817.57" y="299.7789">Kontext: Hinweis:</text><text fill="#000000" font-family="sans-serif" font-size="14" lengthAdjust="spacing" textLength="91.4033" x="817.57" y="316.0757">Pflichtfeld: Ja</text><text fill="#000000" font-family="sans-serif" font-size="14" lengthAdjust="spacing" textLength="113.1689" x="817.57" y="332.3726">Codes: UN, UNH</text><text fill="#000000" font-family="sans-serif" font-size="14" lengthAdjust="spacing" textLength="405.4463" x="817.57" y="348.6695">Prozesse: Anforderung und &#220;bermittlung von Messwerten</text><text fill="#000000" font-family="sans-serif" font-size="14" lengthAdjust="spacing" textLength="420.9502" x="817.57" y="364.9664">Quelle: MSCONS_MIG_2_4c_au&#223;erordentliche_20240726.pdf</text><line style="stroke:#181818;stroke-width:0.5;" x1="812.57" x2="1243.5202" y1="372.2681" y2="372.2681"/></g><!--class UNH_0029_msg_4--><g class="entity" data-entity="UNH_0029_msg_4" data-source-line="33" data-uid="ent0009" id="entity_UNH_0029_msg_4"><rect fill="#F1F1F1" height="129.4844" rx="2.5" ry="2.5" style="stroke:#181818;stroke-width:0.5;" width="429.8672" x="1279.11" y="242.6369"/><ellipse cx="1426.4928" cy="258.6369" fill="#ADD1B2" rx="11" ry="11" style="stroke:#181818;stroke-width:1;"/><path d="M1429.4616,264.2775 Q1428.8834,264.5744 1428.2428,264.715 Q1427.6022,264.8713 1426.8991,264.8713 Q1424.3991,264.8713 1423.0709,263.2306 Q1421.7584,261.5744 1421.7584,258.4494 Q1421.7584,255.3244 1423.0709,253.6681 Q1424.3991,252.0119 1426.8991,252.0119 Q1427.6022,252.0119 1428.2428,252.1681 Q1428.8991,252.3244 1429.4616,252.6213 L1429.4616,255.34 Q1428.8366,254.7619 1428.2428,254.4963 Q1427.6491,254.215 1427.0241,254.215 Q1425.6803,254.215 1424.9928,255.2931 Q1424.3053,256.3556 1424.3053,258.4494 Q1424.3053,260.5431 1424.9928,261.6213 Q1425.6803,262.6838 1427.0241,262.6838 Q1427.6491,262.6838 1428.2428,262.4181 Q1428.8366,262.1369 1429.4616,261.5588 L1429.4616,264.2775 Z " fill="#000000"/><text fill="#000000" font-family="sans-serif" font-size="14" lengthAdjust="spacing" textLength="126.6016" x="1446.9928" y="263.4836">UNH_0029_msg_4</text><line style="stroke:#181818;stroke-width:0.5;" x1="1280.11" x2="1707.9772" y1="274.6369" y2="274.6369"/><text fill="#000000" font-family="sans-serif" font-size="14" lengthAdjust="spacing" textLength="171.4932" x="1285.11" y="291.632">Nachricht: REMADV 2.9c</text><text fill="#000000" font-family="sans-serif" font-size="14" lengthAdjust="spacing" textLength="149.3447" x="1285.11" y="307.9289">Kontext: Bemerkung:</text><text fill="#000000" font-family="sans-serif" font-size="14" lengthAdjust="spacing" textLength="91.4033" x="1285.11" y="324.2257">Pflichtfeld: Ja</text><text fill="#000000" font-family="sans-serif" font-size="14" lengthAdjust="spacing" textLength="251.4395" x="1285.11" y="340.5226">Prozesse: Netznutzungsabrechnung</text><text fill="#000000" font-family="sans-serif" font-size="14" lengthAdjust="spacing" textLength="417.8672" x="1285.11" y="356.8195">Quelle: REMADV_MIG_2.9c_au&#223;erordentliche_20240726.pdf</text><line style="stroke:#181818;stroke-width:0.5;" x1="1280.11" x2="1707.9772" y1="364.1213" y2="364.1213"/></g><!--class UNH_0029_proc_1--><g class="entity" data-entity="UNH_0029_proc_1" data-source-line="41" data-uid="ent0011" id="entity_UNH_0029_proc_1"><rect fill="#F1F1F1" height="105.1563" rx="2.5" ry="2.5" style="stroke:#181818;stroke-width:0.5;" width="752.6465" x="1743.72" y="254.7969"/><ellipse cx="2051.949" cy="274.9297" fill="#ADD1B2" rx="11" ry="11" style="stroke:#181818;stroke-width:1;"/><path d="M2054.9178,280.5703 Q2054.3396,280.8672 2053.699,281.0078 Q2053.0584,281.1641 2052.3553,281.1641 Q2049.8553,281.1641 2048.5271,279.5234 Q2047.2146,277.8672 2047.2146,274.7422 Q2047.2146,271.6172 2048.5271,269.9609 Q2049.8553,268.3047 2052.3553,268.3047 Q2053.0584,268.3047 2053.699,268.4609 Q2054.3553,268.6172 2054.9178,268.9141 L2054.9178,271.6328 Q2054.2928,271.0547 2053.699,270.7891 Q2053.1053,270.5078 2052.4803,270.5078 Q2051.1365,270.5078 2050.449,271.5859 Q2049.7615,272.6484 2049.7615,274.7422 Q2049.7615,276.8359 2050.449,277.9141 Q2051.1365,278.9766 2052.4803,278.9766 Q2053.1053,278.9766 2053.699,278.7109 Q2054.2928,278.4297 2054.9178,277.8516 L2054.9178,280.5703 Z " fill="#000000"/><text fill="#000000" font-family="sans-serif" font-size="12" font-style="italic" lengthAdjust="spacing" textLength="61.0605" x="2105.763" y="270.9355">&#171;process&#187;</text><text fill="#000000" font-family="sans-serif" font-size="14" lengthAdjust="spacing" textLength="127.6885" x="2072.449" y="286.7607">UNH_0029_proc_1</text><line style="stroke:#181818;stroke-width:0.5;" x1="1744.72" x2="2495.3665" y1="295.0625" y2="295.0625"/><text fill="#000000" font-family="sans-serif" font-size="14" lengthAdjust="spacing" textLength="180.3457" x="1749.72" y="312.0576">Netznutzungsabrechnung</text><text fill="#000000" font-family="sans-serif" font-size="14" lengthAdjust="spacing" textLength="218.0938" x="1749.72" y="328.3545">Gesetze: StromNEV, StromNZV</text><text fill="#000000" font-family="sans-serif" font-size="14" lengthAdjust="spacing" textLength="740.6465" x="1749.72" y="344.6514">Zusammenfassung: Wie funktioniert die Netznutzungsabrechnung zwischen Netzbetreiber und Lieferant?</text><line style="stroke:#181818;stroke-width:0.5;" x1="1744.72" x2="2495.3665" y1="351.9531" y2="351.9531"/></g><!--class UNH_0029_proc_2--><g class="entity" data-entity="UNH_0029_proc_2" data-source-line="47" data-uid="ent0013" id="entity_UNH_0029_proc_2"><rect fill="#F1F1F1" height="105.1563" rx="2.5" ry="2.5" style="stroke:#181818;stroke-width:0.5;" width="378.2285" x="2530.93" y="254.7969"/><ellipse cx="2651.95" cy="274.9297" fill="#ADD1B2" rx="11" ry="11" style="stroke:#181818;stroke-width:1;"/><path d="M2654.9188,280.5703 Q2654.3406,280.8672 2653.7,281.0078 Q2653.0594,281.1641 2652.3563,281.1641 Q2649.8563,281.1641 2648.5281,279.5234 Q2647.2156,277.8672 2647.2156,274.7422 Q2647.2156,271.6172 2648.5281,269.9609 Q2649.8563,268.3047 2652.3563,268.3047 Q2653.0594,268.3047 2653.7,268.4609 Q2654.3563,268.6172 2654.9188,268.9141 L2654.9188,271.6328 Q2654.2938,271.0547 2653.7,270.7891 Q2653.1063,270.5078 2652.4813,270.5078 Q2651.1375,270.5078 2650.45,271.5859 Q2649.7625,272.6484 2649.7625,274.7422 Q2649.7625,276.8359 2650.45,277.9141 Q2651.1375,278.9766 2652.4813,278.9766 Q2653.1063,278.9766 2653.7,278.7109 Q2654.2938,278.4297 2654.9188,277.8516 L2654.9188,280.5703 Z " fill="#000000"/><text fill="#000000" font-family="sans-serif" font-size="12" font-style="italic" lengthAdjust="spacing" textLength="61.0605" x="2705.764" y="270.9355">&#171;process&#187;</text><text fill="#000000" font-family="sans-serif" font-size="14" lengthAdjust="spacing" textLength="127.6885" x="2672.45" y="286.7607">UNH_0029_proc_2</text><line style="stroke:#181818;stroke-width:0.5;" x1="2531.93" x2="2908.1585" y1="295.0625" y2="295.0625"/><text fill="#000000" font-family="sans-serif" font-size="14" lengthAdjust="spacing" textLength="334.3525" x="2536.93" y="312.0576">Anforderung und &#220;bermittlung von Messwerten</text><text fill="#000000" font-family="sans-serif" font-size="14" lengthAdjust="spacing" textLength="105.0957" x="2536.93" y="328.3545">Gesetze: MsbG</text><line style="stroke:#181818;stroke-width:0.5;" x1="2531.93" x2="2908.1585" y1="335.6563" y2="335.6563"/><text fill="#000000" font-family="sans-serif" font-size="14" lengthAdjust="spacing" textLength="366.2285" x="2536.93" y="352.6514">Zusammenfassung: Wie kann ein Marktpartner (z.B.</text></g><!--link UNH_0029 to UNH_0029_msg_1--><g class="link" data-entity-1="UNH_0029" data-entity-2="UNH_0029_msg_1" data-source-line="14" data-uid="lnk4" id="link_UNH_0029_UNH_0029_msg_1"><path codeLine="14" d="M1080.42,124.9669 C917.6,147.3969 672.2,185.2669 462.05,234.4869 C442.13,239.1469 427.2178,242.9591 406.7178,248.6991" fill="none" id="UNH_0029-to-UNH_0029_msg_1" style="stroke:#181818;stroke-width:1;"/><polygon fill="#181818" points="400.94,250.3169,410.6852,251.7421,405.7548,248.9687,408.5282,244.0383,400.94,250.3169" style="stroke:#181818;stroke-width:1;"/><text fill="#000000" font-family="sans-serif" font-size="13" lengthAdjust="spacing" textLength="85.2363" x="681.05" y="200.5538">verwendet in</text></g><!--link UNH_0029 to UNH_0029_msg_2--><g class="link" data-entity-1="UNH_0029" data-entity-2="UNH_0029_msg_2" data-source-line="23" data-uid="lnk6" id="link_UNH_0029_UNH_0029_msg_2"><path codeLine="23" d="M1080.5,147.1869 C993.13,170.6169 887.22,201.2469 794.05,234.4869 C788.28,236.5469 788.0281,236.5741 782.1381,238.8141" fill="none" id="UNH_0029-to-UNH_0029_msg_2" style="stroke:#181818;stroke-width:1;"/><polygon fill="#181818" points="776.53,240.9469,786.3641,241.4864,781.2034,239.1695,783.5203,234.0089,776.53,240.9469" style="stroke:#181818;stroke-width:1;"/><text fill="#000000" font-family="sans-serif" font-size="13" lengthAdjust="spacing" textLength="85.2363" x="935.05" y="200.5538">verwendet in</text></g><!--link UNH_0029 to UNH_0029_msg_3--><g class="link" data-entity-1="UNH_0029" data-entity-2="UNH_0029_msg_3" data-source-line="32" data-uid="lnk8" id="link_UNH_0029_UNH_0029_msg_3"><path codeLine="32" d="M1197.38,157.7669 C1170.56,181.2969 1143.5193,205.0288 1114.9693,230.0888" fill="none" id="UNH_0029-to-UNH_0029_msg_3" style="stroke:#181818;stroke-width:1;"/><polygon fill="#181818" points="1110.46,234.0469,1119.8626,231.116,1114.2177,230.7485,1114.5852,225.1036,1110.46,234.0469" style="stroke:#181818;stroke-width:1;"/><text fill="#000000" font-family="sans-serif" font-size="13" lengthAdjust="spacing" textLength="85.2363" x="1160.05" y="200.5538">verwendet in</text></g><!--link UNH_0029 to UNH_0029_msg_4--><g class="link" data-entity-1="UNH_0029" data-entity-2="UNH_0029_msg_4" data-source-line="40" data-uid="lnk10" id="link_UNH_0029_UNH_0029_msg_4"><path codeLine="40" d="M1324.71,157.7669 C1354.49,183.8969 1385.6002,211.2093 1416.4702,238.2993" fill="none" id="UNH_0029-to-UNH_0029_msg_4" style="stroke:#181818;stroke-width:1;"/><polygon fill="#181818" points="1420.98,242.2569,1416.8537,233.3141,1417.2219,238.9589,1411.577,239.3271,1420.98,242.2569" style="stroke:#181818;stroke-width:1;"/><text fill="#000000" font-family="sans-serif" font-size="13" lengthAdjust="spacing" textLength="85.2363" x="1379.05" y="200.5538">verwendet in</text></g><!--link UNH_0029 to UNH_0029_proc_1--><g class="link" data-entity-1="UNH_0029" data-entity-2="UNH_0029_proc_1" data-source-line="46" data-uid="lnk12" id="link_UNH_0029_UNH_0029_proc_1"><path codeLine="46" d="M1441.64,144.8869 C1575.74,176.8069 1753.423,219.1077 1895.783,252.9877" fill="none" id="UNH_0029-to-UNH_0029_proc_1" style="stroke:#181818;stroke-width:1;stroke-dasharray:7,7;"/><polygon fill="#181818" points="1901.62,254.3769,1893.7906,248.4019,1896.7559,253.2193,1891.9384,256.1845,1901.62,254.3769" style="stroke:#181818;stroke-width:1;"/><text fill="#000000" font-family="sans-serif" font-size="13" lengthAdjust="spacing" textLength="91.6221" x="1692.05" y="200.5538">eingebettet in</text></g><!--link UNH_0029 to UNH_0029_proc_2--><g class="link" data-entity-1="UNH_0029" data-entity-2="UNH_0029_proc_2" data-source-line="52" data-uid="lnk14" id="link_UNH_0029_UNH_0029_proc_2"><path codeLine="52" d="M1441.6,107.9669 C1687.01,119.1669 2138.38,150.2469 2514.05,234.4869 C2537.33,239.7069 2555.9225,244.8664 2579.3325,252.4564" fill="none" id="UNH_0029-to-UNH_0029_proc_2" style="stroke:#181818;stroke-width:1;stroke-dasharray:7,7;"/><polygon fill="#181818" points="2585.04,254.3069,2577.7124,247.7261,2580.2837,252.7648,2575.2451,255.3361,2585.04,254.3069" style="stroke:#181818;stroke-width:1;"/><text fill="#000000" font-family="sans-serif" font-size="13" lengthAdjust="spacing" textLength="91.6221" x="2348.05" y="200.5538">eingebettet in</text></g><!--SRC=[fPJRRjf048RlUOgvx4MmR0UrYXLHvIIIDhWfJgcK6sjjZs65FKQxwv1GzKqgzM7oOfq5GYc79YXNtfrPp_pVFwirqXG8vy8W2LC83Ktu5bu6hkiVDLBUQxkDxHP-D012KM80VLGeAH6gfe4U8H5_ENcZgYbgZG6lWGk5QAPKcwaz9HA5wN1nq2PFAAzKXhO4r9J1qwy4LIcDAMpalYBeSgq9AbRM-Bcc9Ixr8FOMYjAXakdG173s9RpjNOFlk0adFbTay873onCGFP8H3zmSPYqZLFSoHUuxoqfj5YKS2vCNDffZaGNmIN3aQur5WSzjukvL9_PZDub5_VGRbOKXO__1s7Vzbll1V- -CivorBnriDjlh207SeveWPSW2Q1kcluvv5KQzcrlm74-iObvAcg3KmLRjPrM6Eh25L-UqUqBFhFDUCrOlzeGbyppNzLuayrz1ThXEretOsuW7s4ht9plOeDlhYlrbdgjOpBULlcM-XwzmeRNkGk-YUtBUPnUE_d7X54jK8rQ-tOSzXZflC0Va9cy1RBq0E5PLohVy-DWkM5wxFQVT9R63cbEiCJAgAiEB_i5YTTVdx5sjHLaYvTp36W7V9K9UqyZ8YYJF4J8ER2yEqudKp4QpV8A6dp2-3hEBSIqnHoN8V5o5TPps1aW0_F0D-CamPZUlly6xvqrSkj3LIMSNzqWGMJNG5Mfana8POfntK-VK-J-5lq7n1m00]--></g></svg>