<svg xmlns="http://www.w3.org/2000/svg" xmlns:xlink="http://www.w3.org/1999/xlink" contentStyleType="text/css" data-diagram-type="CLASS" height="387px" preserveAspectRatio="none" style="width:2998px;height:387px;background:#FFFFFF;" version="1.1" viewBox="0 0 2998 387" width="2998px" zoomAndPan="magnify"><title>Datenatlas - UNKNOWN:G_0082</title><defs/><g><g class="title" data-source-line="1"><text fill="#000000" font-family="sans-serif" font-size="14" font-weight="bold" lengthAdjust="spacing" textLength="249.2656" x="1367.4068" y="22.9951">Datenatlas - UNKNOWN:G_0082</text></g><!--class UNKNOWN_G_0082--><g class="entity" data-entity="UNKNOWN_G_0082" data-source-line="2" data-uid="ent0002" id="entity_UNKNOWN_G_0082"><rect fill="#F1F1F1" height="113.1875" rx="2.5" ry="2.5" style="stroke:#181818;stroke-width:0.5;" width="374.2021" x="1263.98" y="44.2969"/><ellipse cx="1378.7383" cy="60.2969" fill="#ADD1B2" rx="11" ry="11" style="stroke:#181818;stroke-width:1;"/><path d="M1381.7071,65.9375 Q1381.1289,66.2344 1380.4883,66.375 Q1379.8477,66.5313 1379.1446,66.5313 Q1376.6446,66.5313 1375.3164,64.8906 Q1374.0039,63.2344 1374.0039,60.1094 Q1374.0039,56.9844 1375.3164,55.3281 Q1376.6446,53.6719 1379.1446,53.6719 Q1379.8477,53.6719 1380.4883,53.8281 Q1381.1446,53.9844 1381.7071,54.2813 L1381.7071,57 Q1381.0821,56.4219 1380.4883,56.1563 Q1379.8946,55.875 1379.2696,55.875 Q1377.9258,55.875 1377.2383,56.9531 Q1376.5508,58.0156 1376.5508,60.1094 Q1376.5508,62.2031 1377.2383,63.2813 Q1377.9258,64.3438 1379.2696,64.3438 Q1379.8946,64.3438 1380.4883,64.0781 Q1381.0821,63.7969 1381.7071,63.2188 L1381.7071,65.9375 Z " fill="#000000"/><text fill="#000000" font-family="sans-serif" font-size="14" lengthAdjust="spacing" textLength="136.1855" x="1399.2383" y="65.1436">UNKNOWN_G_0082</text><line style="stroke:#181818;stroke-width:0.5;" x1="1264.98" x2="1637.1821" y1="76.2969" y2="76.2969"/><text fill="#000000" font-family="sans-serif" font-size="14" lengthAdjust="spacing" textLength="229.7148" x="1283.98" y="93.292">Name: Codeliste Gas Nr. G_0082</text><text fill="#000000" font-family="sans-serif" font-size="14" lengthAdjust="spacing" textLength="66.6436" x="1283.98" y="109.5889">Prozesse:</text><rect fill="none" height="6" style="stroke:#C82930;stroke-width:1;" width="6" x="1271.98" y="119.5391"/><text fill="#000000" font-family="sans-serif" font-size="14" lengthAdjust="spacing" textLength="317.9668" x="1283.98" y="125.8857">Sperrung und Entsperrung eines Anschlusses</text><line style="stroke:#181818;stroke-width:0.5;" x1="1264.98" x2="1637.1821" y1="133.1875" y2="133.1875"/><rect fill="#F24D5C" height="6" style="stroke:#C82930;stroke-width:1;" width="6" x="1271.98" y="143.8359"/><text fill="#000000" font-family="sans-serif" font-size="14" lengthAdjust="spacing" textLength="348.2021" x="1283.98" y="150.1826">Bestellung einer technischen Konfiguration (MSB)</text></g><!--class UNKNOWN_G_0082_msg_1--><g class="entity" data-entity="UNKNOWN_G_0082_msg_1" data-source-line="8" data-uid="ent0003" id="entity_UNKNOWN_G_0082_msg_1"><rect fill="#F1F1F1" height="145.7813" rx="2.5" ry="2.5" style="stroke:#181818;stroke-width:0.5;" width="758.1631" x="7" y="234.4869"/><ellipse cx="287.376" cy="250.4869" fill="#ADD1B2" rx="11" ry="11" style="stroke:#181818;stroke-width:1;"/><path d="M290.3447,256.1275 Q289.7666,256.4244 289.126,256.565 Q288.4854,256.7213 287.7822,256.7213 Q285.2822,256.7213 283.9541,255.0806 Q282.6416,253.4244 282.6416,250.2994 Q282.6416,247.1744 283.9541,245.5181 Q285.2822,243.8619 287.7822,243.8619 Q288.4854,243.8619 289.126,244.0181 Q289.7822,244.1744 290.3447,244.4713 L290.3447,247.19 Q289.7197,246.6119 289.126,246.3463 Q288.5322,246.065 287.9072,246.065 Q286.5635,246.065 285.876,247.1431 Q285.1885,248.2056 285.1885,250.2994 Q285.1885,252.3931 285.876,253.4713 Q286.5635,254.5338 287.9072,254.5338 Q288.5322,254.5338 289.126,254.2681 Q289.7197,253.9869 290.3447,253.4088 L290.3447,256.1275 Z " fill="#000000"/><text fill="#000000" font-family="sans-serif" font-size="14" lengthAdjust="spacing" textLength="188.9111" x="307.876" y="255.3336">UNKNOWN_G_0082_msg_1</text><line style="stroke:#181818;stroke-width:0.5;" x1="8" x2="764.1631" y1="266.4869" y2="266.4869"/><text fill="#000000" font-family="sans-serif" font-size="14" lengthAdjust="spacing" textLength="161.793" x="13" y="283.482">Nachricht: ORDRSP 1.4</text><text fill="#000000" font-family="sans-serif" font-size="14" lengthAdjust="spacing" textLength="170.3447" x="13" y="299.7789">Kontext: Segmentlayout</text><text fill="#000000" font-family="sans-serif" font-size="14" lengthAdjust="spacing" textLength="110.5439" x="13" y="316.0757">Pflichtfeld: Nein</text><text fill="#000000" font-family="sans-serif" font-size="14" lengthAdjust="spacing" textLength="82.8242" x="13" y="332.3726">Codes: OCR</text><text fill="#000000" font-family="sans-serif" font-size="14" lengthAdjust="spacing" textLength="283.9307" x="13" y="348.6695">Quelle: ORDRSP_MIG_1_4_20240619.pdf</text><line style="stroke:#181818;stroke-width:0.5;" x1="8" x2="764.1631" y1="355.9713" y2="355.9713"/><text fill="#000000" font-family="sans-serif" font-size="14" lengthAdjust="spacing" textLength="746.1631" x="13" y="372.9664">Prozesse: Bestellung einer technischen Konfiguration (MSB), Sperrung und Entsperrung eines Anschlusses</text></g><!--class UNKNOWN_G_0082_proc_1--><g class="entity" data-entity="UNKNOWN_G_0082_proc_1" data-source-line="17" data-uid="ent0005" id="entity_UNKNOWN_G_0082_proc_1"><rect fill="#F1F1F1" height="105.1563" rx="2.5" ry="2.5" style="stroke:#181818;stroke-width:0.5;" width="1301.9961" x="800.08" y="254.7969"/><ellipse cx="1351.829" cy="274.9297" fill="#ADD1B2" rx="11" ry="11" style="stroke:#181818;stroke-width:1;"/><path d="M1354.7978,280.5703 Q1354.2196,280.8672 1353.579,281.0078 Q1352.9384,281.1641 1352.2353,281.1641 Q1349.7353,281.1641 1348.4071,279.5234 Q1347.0946,277.8672 1347.0946,274.7422 Q1347.0946,271.6172 1348.4071,269.9609 Q1349.7353,268.3047 1352.2353,268.3047 Q1352.9384,268.3047 1353.579,268.4609 Q1354.2353,268.6172 1354.7978,268.9141 L1354.7978,271.6328 Q1354.1728,271.0547 1353.579,270.7891 Q1352.9853,270.5078 1352.3603,270.5078 Q1351.0165,270.5078 1350.329,271.5859 Q1349.6415,272.6484 1349.6415,274.7422 Q1349.6415,276.8359 1350.329,277.9141 Q1351.0165,278.9766 1352.3603,278.9766 Q1352.9853,278.9766 1353.579,278.7109 Q1354.1728,278.4297 1354.7978,277.8516 L1354.7978,280.5703 Z " fill="#000000"/><text fill="#000000" font-family="sans-serif" font-size="12" font-style="italic" lengthAdjust="spacing" textLength="61.0605" x="1436.7978" y="270.9355">&#171;process&#187;</text><text fill="#000000" font-family="sans-serif" font-size="14" lengthAdjust="spacing" textLength="189.998" x="1372.329" y="286.7607">UNKNOWN_G_0082_proc_1</text><line style="stroke:#181818;stroke-width:0.5;" x1="801.08" x2="2101.0761" y1="295.0625" y2="295.0625"/><text fill="#000000" font-family="sans-serif" font-size="14" lengthAdjust="spacing" textLength="156.4063" x="806.08" y="312.0576">Gesetze: MsbG, EnWG</text><text fill="#000000" font-family="sans-serif" font-size="14" lengthAdjust="spacing" textLength="1289.9961" x="806.08" y="328.3545">Zusammenfassung: Erl&#228;utere den Prozess zur Bestellung einer spezifischen technischen Konfiguration bei einem Messstellenbetreiber, beispielsweise f&#252;r ein intelligentes Messsystem.</text><line style="stroke:#181818;stroke-width:0.5;" x1="801.08" x2="2101.0761" y1="335.6563" y2="335.6563"/><text fill="#000000" font-family="sans-serif" font-size="14" lengthAdjust="spacing" textLength="348.2021" x="806.08" y="352.6514">Bestellung einer technischen Konfiguration (MSB)</text></g><!--class UNKNOWN_G_0082_proc_2--><g class="entity" data-entity="UNKNOWN_G_0082_proc_2" data-source-line="23" data-uid="ent0007" id="entity_UNKNOWN_G_0082_proc_2"><rect fill="#F1F1F1" height="105.1563" rx="2.5" ry="2.5" style="stroke:#181818;stroke-width:0.5;" width="853.9893" x="2137.09" y="254.7969"/><ellipse cx="2464.8356" cy="274.9297" fill="#ADD1B2" rx="11" ry="11" style="stroke:#181818;stroke-width:1;"/><path d="M2467.8044,280.5703 Q2467.2262,280.8672 2466.5856,281.0078 Q2465.945,281.1641 2465.2419,281.1641 Q2462.7419,281.1641 2461.4137,279.5234 Q2460.1012,277.8672 2460.1012,274.7422 Q2460.1012,271.6172 2461.4137,269.9609 Q2462.7419,268.3047 2465.2419,268.3047 Q2465.945,268.3047 2466.5856,268.4609 Q2467.2419,268.6172 2467.8044,268.9141 L2467.8044,271.6328 Q2467.1794,271.0547 2466.5856,270.7891 Q2465.9919,270.5078 2465.3669,270.5078 Q2464.0231,270.5078 2463.3356,271.5859 Q2462.6481,272.6484 2462.6481,274.7422 Q2462.6481,276.8359 2463.3356,277.9141 Q2464.0231,278.9766 2465.3669,278.9766 Q2465.9919,278.9766 2466.5856,278.7109 Q2467.1794,278.4297 2467.8044,277.8516 L2467.8044,280.5703 Z " fill="#000000"/><text fill="#000000" font-family="sans-serif" font-size="12" font-style="italic" lengthAdjust="spacing" textLength="61.0605" x="2549.8044" y="270.9355">&#171;process&#187;</text><text fill="#000000" font-family="sans-serif" font-size="14" lengthAdjust="spacing" textLength="189.998" x="2485.3356" y="286.7607">UNKNOWN_G_0082_proc_2</text><line style="stroke:#181818;stroke-width:0.5;" x1="2138.09" x2="2990.0793" y1="295.0625" y2="295.0625"/><text fill="#000000" font-family="sans-serif" font-size="14" lengthAdjust="spacing" textLength="317.9668" x="2143.09" y="312.0576">Sperrung und Entsperrung eines Anschlusses</text><text fill="#000000" font-family="sans-serif" font-size="14" lengthAdjust="spacing" textLength="138.3252" x="2143.09" y="328.3545">Gesetze: StromGVV</text><text fill="#000000" font-family="sans-serif" font-size="14" lengthAdjust="spacing" textLength="841.9893" x="2143.09" y="344.6514">Zusammenfassung: Beschreibe den End-to-End-Prozess f&#252;r die Sperrung und Wiederherstellung eines Netzanschlusses.</text><line style="stroke:#181818;stroke-width:0.5;" x1="2138.09" x2="2990.0793" y1="351.9531" y2="351.9531"/></g><!--link UNKNOWN_G_0082 to UNKNOWN_G_0082_msg_1--><g class="link" data-entity-1="UNKNOWN_G_0082" data-entity-2="UNKNOWN_G_0082_msg_1" data-source-line="16" data-uid="lnk4" id="link_UNKNOWN_G_0082_UNKNOWN_G_0082_msg_1"><path codeLine="16" d="M1263.74,137.8569 C1125.5,164.4069 938.6024,200.2855 768.9224,232.8655" fill="none" id="UNKNOWN_G_0082-to-UNKNOWN_G_0082_msg_1" style="stroke:#181818;stroke-width:1;"/><polygon fill="#181818" points="763.03,233.9969,772.6228,236.228,767.9403,233.0541,771.1143,228.3716,763.03,233.9969" style="stroke:#181818;stroke-width:1;"/><text fill="#000000" font-family="sans-serif" font-size="13" lengthAdjust="spacing" textLength="85.2363" x="984.08" y="200.5538">verwendet in</text></g><!--link UNKNOWN_G_0082 to UNKNOWN_G_0082_proc_1--><g class="link" data-entity-1="UNKNOWN_G_0082" data-entity-2="UNKNOWN_G_0082_proc_1" data-source-line="22" data-uid="lnk6" id="link_UNKNOWN_G_0082_UNKNOWN_G_0082_proc_1"><path codeLine="22" d="M1451.08,157.7669 C1451.08,187.9169 1451.08,218.9069 1451.08,248.4269" fill="none" id="UNKNOWN_G_0082-to-UNKNOWN_G_0082_proc_1" style="stroke:#181818;stroke-width:1;stroke-dasharray:7,7;"/><polygon fill="#181818" points="1451.08,254.4269,1455.08,245.4269,1451.08,249.4269,1447.08,245.4269,1451.08,254.4269" style="stroke:#181818;stroke-width:1;"/><text fill="#000000" font-family="sans-serif" font-size="13" lengthAdjust="spacing" textLength="91.6221" x="1452.08" y="200.5538">eingebettet in</text></g><!--link UNKNOWN_G_0082 to UNKNOWN_G_0082_proc_2--><g class="link" data-entity-1="UNKNOWN_G_0082" data-entity-2="UNKNOWN_G_0082_proc_2" data-source-line="28" data-uid="lnk8" id="link_UNKNOWN_G_0082_UNKNOWN_G_0082_proc_2"><path codeLine="28" d="M1638.63,136.3469 C1814.34,168.6269 2073.4687,216.2428 2274.9387,253.2528" fill="none" id="UNKNOWN_G_0082-to-UNKNOWN_G_0082_proc_2" style="stroke:#181818;stroke-width:1;stroke-dasharray:7,7;"/><polygon fill="#181818" points="2280.84,254.3369,2272.7108,248.7766,2275.9223,253.4335,2271.2654,256.645,2280.84,254.3369" style="stroke:#181818;stroke-width:1;"/><text fill="#000000" font-family="sans-serif" font-size="13" lengthAdjust="spacing" textLength="91.6221" x="2009.08" y="200.5538">eingebettet in</text></g><!--SRC=[dPFHQjj044NV_HNps88bR65AAuAXIOmemKfgqHZw8cHf92siLcPtrJGk_Pj-Hj_oOxshoarIEnJtoUlnpBrppwwji9BfChEiCYipGnvzYg_YwtKSHkbayZOOvQYQVJ7zNQHl8w8uQpYaYxPWAOnbYZ0TQv-6EQ8RtUxO60vn9WYVCzgax5H5B1HhifpNIfYyPaLNhIf5rUdCYbRHgsLo_deOIxQijHlgL44BPSt-knCnz5v1G7RmCQFlHxTD6rEbqs7dlDOYhsr8rwlBLN93Kt-6EjmjVqKruQfX1HBtRMTTXbAwzf9b4L8CHzHSP0E1YzNJa2V76v-IZEXZ1t7UxvqkFqJfD9sbmIIOJTvCt_dReaJ-l-x9y-R7OOJqXVKTgu8j8THHR5lTvcWzEtC7P9pFUuR_SOqH6xOxBByqcsYCgEi8rS-ToHhGBk4DjP0MMZxyw2nhfW9Q0rhQTVhG5AnseXnSNzvWmw8VQ6W9gLw3rOQjPh5XFNQ_cwrWQUvmO2eVVchN3oQkLLHu2xY9VlOUqur_oDZtvo-G2vrKnR2p_y8S760-wN7y0PnOtJRHxUqnl628r- -2ztWNgl1iwxcFFUa-VY7ukVbQSC6wPlti2l1dXsNskCO9Q883DBy0]--></g></svg>