<svg xmlns="http://www.w3.org/2000/svg" xmlns:xlink="http://www.w3.org/1999/xlink" contentStyleType="text/css" data-diagram-type="CLASS" height="387px" preserveAspectRatio="none" style="width:2998px;height:387px;background:#FFFFFF;" version="1.1" viewBox="0 0 2998 387" width="2998px" zoomAndPan="magnify"><title>Datenatlas - UNS:00026</title><defs/><g><g class="title" data-source-line="1"><text fill="#000000" font-family="sans-serif" font-size="14" font-weight="bold" lengthAdjust="spacing" textLength="188.9727" x="1397.5533" y="22.9951">Datenatlas - UNS:00026</text></g><!--class UNS_00026--><g class="entity" data-entity="UNS_00026" data-source-line="2" data-uid="ent0002" id="entity_UNS_00026"><rect fill="#F1F1F1" height="113.1875" rx="2.5" ry="2.5" style="stroke:#181818;stroke-width:0.5;" width="374.2021" x="1263.98" y="44.2969"/><ellipse cx="1406.2598" cy="60.2969" fill="#ADD1B2" rx="11" ry="11" style="stroke:#181818;stroke-width:1;"/><path d="M1409.2285,65.9375 Q1408.6504,66.2344 1408.0098,66.375 Q1407.3692,66.5313 1406.666,66.5313 Q1404.166,66.5313 1402.8379,64.8906 Q1401.5254,63.2344 1401.5254,60.1094 Q1401.5254,56.9844 1402.8379,55.3281 Q1404.166,53.6719 1406.666,53.6719 Q1407.3692,53.6719 1408.0098,53.8281 Q1408.666,53.9844 1409.2285,54.2813 L1409.2285,57 Q1408.6035,56.4219 1408.0098,56.1563 Q1407.416,55.875 1406.791,55.875 Q1405.4473,55.875 1404.7598,56.9531 Q1404.0723,58.0156 1404.0723,60.1094 Q1404.0723,62.2031 1404.7598,63.2813 Q1405.4473,64.3438 1406.791,64.3438 Q1407.416,64.3438 1408.0098,64.0781 Q1408.6035,63.7969 1409.2285,63.2188 L1409.2285,65.9375 Z " fill="#000000"/><text fill="#000000" font-family="sans-serif" font-size="14" lengthAdjust="spacing" textLength="81.1426" x="1426.7598" y="65.1436">UNS_00026</text><line style="stroke:#181818;stroke-width:0.5;" x1="1264.98" x2="1637.1821" y1="76.2969" y2="76.2969"/><text fill="#000000" font-family="sans-serif" font-size="14" lengthAdjust="spacing" textLength="253.4014" x="1283.98" y="93.292">Name: Abschnitts - Kontrollsegment</text><text fill="#000000" font-family="sans-serif" font-size="14" lengthAdjust="spacing" textLength="66.6436" x="1283.98" y="109.5889">Prozesse:</text><rect fill="none" height="6" style="stroke:#C82930;stroke-width:1;" width="6" x="1271.98" y="119.5391"/><text fill="#000000" font-family="sans-serif" font-size="14" lengthAdjust="spacing" textLength="317.9668" x="1283.98" y="125.8857">Sperrung und Entsperrung eines Anschlusses</text><line style="stroke:#181818;stroke-width:0.5;" x1="1264.98" x2="1637.1821" y1="133.1875" y2="133.1875"/><rect fill="#F24D5C" height="6" style="stroke:#C82930;stroke-width:1;" width="6" x="1271.98" y="143.8359"/><text fill="#000000" font-family="sans-serif" font-size="14" lengthAdjust="spacing" textLength="348.2021" x="1283.98" y="150.1826">Bestellung einer technischen Konfiguration (MSB)</text></g><!--class UNS_00026_msg_1--><g class="entity" data-entity="UNS_00026_msg_1" data-source-line="8" data-uid="ent0003" id="entity_UNS_00026_msg_1"><rect fill="#F1F1F1" height="145.7813" rx="2.5" ry="2.5" style="stroke:#181818;stroke-width:0.5;" width="758.1631" x="7" y="234.4869"/><ellipse cx="314.8975" cy="250.4869" fill="#ADD1B2" rx="11" ry="11" style="stroke:#181818;stroke-width:1;"/><path d="M317.8662,256.1275 Q317.2881,256.4244 316.6475,256.565 Q316.0068,256.7213 315.3037,256.7213 Q312.8037,256.7213 311.4756,255.0806 Q310.1631,253.4244 310.1631,250.2994 Q310.1631,247.1744 311.4756,245.5181 Q312.8037,243.8619 315.3037,243.8619 Q316.0068,243.8619 316.6475,244.0181 Q317.3037,244.1744 317.8662,244.4713 L317.8662,247.19 Q317.2412,246.6119 316.6475,246.3463 Q316.0537,246.065 315.4287,246.065 Q314.085,246.065 313.3975,247.1431 Q312.71,248.2056 312.71,250.2994 Q312.71,252.3931 313.3975,253.4713 Q314.085,254.5338 315.4287,254.5338 Q316.0537,254.5338 316.6475,254.2681 Q317.2412,253.9869 317.8662,253.4088 L317.8662,256.1275 Z " fill="#000000"/><text fill="#000000" font-family="sans-serif" font-size="14" lengthAdjust="spacing" textLength="133.8682" x="335.3975" y="255.3336">UNS_00026_msg_1</text><line style="stroke:#181818;stroke-width:0.5;" x1="8" x2="764.1631" y1="266.4869" y2="266.4869"/><text fill="#000000" font-family="sans-serif" font-size="14" lengthAdjust="spacing" textLength="161.793" x="13" y="283.482">Nachricht: ORDRSP 1.4</text><text fill="#000000" font-family="sans-serif" font-size="14" lengthAdjust="spacing" textLength="204.1143" x="13" y="299.7789">Kontext: Nachrichtenstruktur</text><text fill="#000000" font-family="sans-serif" font-size="14" lengthAdjust="spacing" textLength="91.4033" x="13" y="316.0757">Pflichtfeld: Ja</text><text fill="#000000" font-family="sans-serif" font-size="14" lengthAdjust="spacing" textLength="191.6729" x="13" y="332.3726">Codes: 06, 19, 42, UN, UNS</text><text fill="#000000" font-family="sans-serif" font-size="14" lengthAdjust="spacing" textLength="283.9307" x="13" y="348.6695">Quelle: ORDRSP_MIG_1_4_20240619.pdf</text><line style="stroke:#181818;stroke-width:0.5;" x1="8" x2="764.1631" y1="355.9713" y2="355.9713"/><text fill="#000000" font-family="sans-serif" font-size="14" lengthAdjust="spacing" textLength="746.1631" x="13" y="372.9664">Prozesse: Bestellung einer technischen Konfiguration (MSB), Sperrung und Entsperrung eines Anschlusses</text></g><!--class UNS_00026_proc_1--><g class="entity" data-entity="UNS_00026_proc_1" data-source-line="17" data-uid="ent0005" id="entity_UNS_00026_proc_1"><rect fill="#F1F1F1" height="105.1563" rx="2.5" ry="2.5" style="stroke:#181818;stroke-width:0.5;" width="1301.9961" x="800.08" y="254.7969"/><ellipse cx="1379.3505" cy="274.9297" fill="#ADD1B2" rx="11" ry="11" style="stroke:#181818;stroke-width:1;"/><path d="M1382.3193,280.5703 Q1381.7411,280.8672 1381.1005,281.0078 Q1380.4599,281.1641 1379.7568,281.1641 Q1377.2568,281.1641 1375.9286,279.5234 Q1374.6161,277.8672 1374.6161,274.7422 Q1374.6161,271.6172 1375.9286,269.9609 Q1377.2568,268.3047 1379.7568,268.3047 Q1380.4599,268.3047 1381.1005,268.4609 Q1381.7568,268.6172 1382.3193,268.9141 L1382.3193,271.6328 Q1381.6943,271.0547 1381.1005,270.7891 Q1380.5068,270.5078 1379.8818,270.5078 Q1378.538,270.5078 1377.8505,271.5859 Q1377.163,272.6484 1377.163,274.7422 Q1377.163,276.8359 1377.8505,277.9141 Q1378.538,278.9766 1379.8818,278.9766 Q1380.5068,278.9766 1381.1005,278.7109 Q1381.6943,278.4297 1382.3193,277.8516 L1382.3193,280.5703 Z " fill="#000000"/><text fill="#000000" font-family="sans-serif" font-size="12" font-style="italic" lengthAdjust="spacing" textLength="61.0605" x="1436.7978" y="270.9355">&#171;process&#187;</text><text fill="#000000" font-family="sans-serif" font-size="14" lengthAdjust="spacing" textLength="134.9551" x="1399.8505" y="286.7607">UNS_00026_proc_1</text><line style="stroke:#181818;stroke-width:0.5;" x1="801.08" x2="2101.0761" y1="295.0625" y2="295.0625"/><text fill="#000000" font-family="sans-serif" font-size="14" lengthAdjust="spacing" textLength="156.4063" x="806.08" y="312.0576">Gesetze: MsbG, EnWG</text><text fill="#000000" font-family="sans-serif" font-size="14" lengthAdjust="spacing" textLength="1289.9961" x="806.08" y="328.3545">Zusammenfassung: Erl&#228;utere den Prozess zur Bestellung einer spezifischen technischen Konfiguration bei einem Messstellenbetreiber, beispielsweise f&#252;r ein intelligentes Messsystem.</text><line style="stroke:#181818;stroke-width:0.5;" x1="801.08" x2="2101.0761" y1="335.6563" y2="335.6563"/><text fill="#000000" font-family="sans-serif" font-size="14" lengthAdjust="spacing" textLength="348.2021" x="806.08" y="352.6514">Bestellung einer technischen Konfiguration (MSB)</text></g><!--class UNS_00026_proc_2--><g class="entity" data-entity="UNS_00026_proc_2" data-source-line="23" data-uid="ent0007" id="entity_UNS_00026_proc_2"><rect fill="#F1F1F1" height="105.1563" rx="2.5" ry="2.5" style="stroke:#181818;stroke-width:0.5;" width="853.9893" x="2137.09" y="254.7969"/><ellipse cx="2492.3571" cy="274.9297" fill="#ADD1B2" rx="11" ry="11" style="stroke:#181818;stroke-width:1;"/><path d="M2495.3258,280.5703 Q2494.7477,280.8672 2494.1071,281.0078 Q2493.4665,281.1641 2492.7633,281.1641 Q2490.2633,281.1641 2488.9352,279.5234 Q2487.6227,277.8672 2487.6227,274.7422 Q2487.6227,271.6172 2488.9352,269.9609 Q2490.2633,268.3047 2492.7633,268.3047 Q2493.4665,268.3047 2494.1071,268.4609 Q2494.7633,268.6172 2495.3258,268.9141 L2495.3258,271.6328 Q2494.7008,271.0547 2494.1071,270.7891 Q2493.5133,270.5078 2492.8883,270.5078 Q2491.5446,270.5078 2490.8571,271.5859 Q2490.1696,272.6484 2490.1696,274.7422 Q2490.1696,276.8359 2490.8571,277.9141 Q2491.5446,278.9766 2492.8883,278.9766 Q2493.5133,278.9766 2494.1071,278.7109 Q2494.7008,278.4297 2495.3258,277.8516 L2495.3258,280.5703 Z " fill="#000000"/><text fill="#000000" font-family="sans-serif" font-size="12" font-style="italic" lengthAdjust="spacing" textLength="61.0605" x="2549.8044" y="270.9355">&#171;process&#187;</text><text fill="#000000" font-family="sans-serif" font-size="14" lengthAdjust="spacing" textLength="134.9551" x="2512.8571" y="286.7607">UNS_00026_proc_2</text><line style="stroke:#181818;stroke-width:0.5;" x1="2138.09" x2="2990.0793" y1="295.0625" y2="295.0625"/><text fill="#000000" font-family="sans-serif" font-size="14" lengthAdjust="spacing" textLength="317.9668" x="2143.09" y="312.0576">Sperrung und Entsperrung eines Anschlusses</text><text fill="#000000" font-family="sans-serif" font-size="14" lengthAdjust="spacing" textLength="138.3252" x="2143.09" y="328.3545">Gesetze: StromGVV</text><text fill="#000000" font-family="sans-serif" font-size="14" lengthAdjust="spacing" textLength="841.9893" x="2143.09" y="344.6514">Zusammenfassung: Beschreibe den End-to-End-Prozess f&#252;r die Sperrung und Wiederherstellung eines Netzanschlusses.</text><line style="stroke:#181818;stroke-width:0.5;" x1="2138.09" x2="2990.0793" y1="351.9531" y2="351.9531"/></g><!--link UNS_00026 to UNS_00026_msg_1--><g class="link" data-entity-1="UNS_00026" data-entity-2="UNS_00026_msg_1" data-source-line="16" data-uid="lnk4" id="link_UNS_00026_UNS_00026_msg_1"><path codeLine="16" d="M1263.74,137.8569 C1125.5,164.4069 938.6024,200.2855 768.9224,232.8655" fill="none" id="UNS_00026-to-UNS_00026_msg_1" style="stroke:#181818;stroke-width:1;"/><polygon fill="#181818" points="763.03,233.9969,772.6228,236.228,767.9403,233.0541,771.1143,228.3716,763.03,233.9969" style="stroke:#181818;stroke-width:1;"/><text fill="#000000" font-family="sans-serif" font-size="13" lengthAdjust="spacing" textLength="85.2363" x="984.08" y="200.5538">verwendet in</text></g><!--link UNS_00026 to UNS_00026_proc_1--><g class="link" data-entity-1="UNS_00026" data-entity-2="UNS_00026_proc_1" data-source-line="22" data-uid="lnk6" id="link_UNS_00026_UNS_00026_proc_1"><path codeLine="22" d="M1451.08,157.7669 C1451.08,187.9169 1451.08,218.9069 1451.08,248.4269" fill="none" id="UNS_00026-to-UNS_00026_proc_1" style="stroke:#181818;stroke-width:1;stroke-dasharray:7,7;"/><polygon fill="#181818" points="1451.08,254.4269,1455.08,245.4269,1451.08,249.4269,1447.08,245.4269,1451.08,254.4269" style="stroke:#181818;stroke-width:1;"/><text fill="#000000" font-family="sans-serif" font-size="13" lengthAdjust="spacing" textLength="91.6221" x="1452.08" y="200.5538">eingebettet in</text></g><!--link UNS_00026 to UNS_00026_proc_2--><g class="link" data-entity-1="UNS_00026" data-entity-2="UNS_00026_proc_2" data-source-line="28" data-uid="lnk8" id="link_UNS_00026_UNS_00026_proc_2"><path codeLine="28" d="M1638.63,136.3469 C1814.34,168.6269 2073.4687,216.2428 2274.9387,253.2528" fill="none" id="UNS_00026-to-UNS_00026_proc_2" style="stroke:#181818;stroke-width:1;stroke-dasharray:7,7;"/><polygon fill="#181818" points="2280.84,254.3369,2272.7108,248.7766,2275.9223,253.4335,2271.2654,256.645,2280.84,254.3369" style="stroke:#181818;stroke-width:1;"/><text fill="#000000" font-family="sans-serif" font-size="13" lengthAdjust="spacing" textLength="91.6221" x="2009.08" y="200.5538">eingebettet in</text></g><!--SRC=[dPFFQjj04CRlVeevjY09IHX3H30aZH59iPj6D85UXFwCvAMhbTcTRLgNlaqVexUyM6U5dTHLc-0UX7P7Cz_CzziL2P885mMXAaWM1dpuiCgIC0pZsQJYW77xVDZ3jmd0gkWmWRFIL6ibY5p1srwHxgKqs7QeY9EkTRz5Op3XDN36EHf2AQrg0OL23OIkd3LGkV96j5ON97e5hvRP-UjTMRP1hLsHLJKi59dzteaOE5Ci82ttCPFlVmwRTwRDezt8rLgBQaq9lBkvkCck8Ggc77TpunUEFYQWCgJj9xBQcMYaYpKewmIk2ewywMiq2OGp3w8J3wQnn_tSa_tk-MYttZ560TvR5iUzbtnvcUPHFitZC9w6i-WasDGDutWwDT-VZx0ay1drFQeQ2OGQiTlelkAiqrEtO5Fp-G3oFuunHOEqvMcNfamzzdQNSlIZDKN7TwNXjgoMm4BBXn-MK2FKhBLZ2LkhnqqPpbOqkwx_dg14CHHqi6IfGGDLYQHHbAWzzzri14fppmk4vk6dTlcCmwMAbcyoenzglt9r5nn03OBvc5VY15ha9lGCrtZ4zQZZVoIQyK_NfRUtV-F9qFXAEwS3puMgVUfzzzgZ7VpM0W-RtmciKQzH7p0tiEAMnTCOBxA8Hon-0G00]--></g></svg>