<svg xmlns="http://www.w3.org/2000/svg" xmlns:xlink="http://www.w3.org/1999/xlink" contentStyleType="text/css" data-diagram-type="CLASS" height="370px" preserveAspectRatio="none" style="width:860px;height:370px;background:#FFFFFF;" version="1.1" viewBox="0 0 860 370" width="860px" zoomAndPan="magnify"><title>Datenatlas - UNT:S009</title><defs/><g><g class="title" data-source-line="1"><text fill="#000000" font-family="sans-serif" font-size="14" font-weight="bold" lengthAdjust="spacing" textLength="179.04" x="333.7742" y="22.9951">Datenatlas - UNT:S009</text></g><!--class UNT_S009--><g class="entity" data-entity="UNT_S009" data-source-line="2" data-uid="ent0002" id="entity_UNT_S009"><rect fill="#F1F1F1" height="96.8906" rx="2.5" ry="2.5" style="stroke:#181818;stroke-width:0.5;" width="360.3525" x="263.3" y="44.2969"/><ellipse cx="403.2863" cy="60.2969" fill="#ADD1B2" rx="11" ry="11" style="stroke:#181818;stroke-width:1;"/><path d="M406.2551,65.9375 Q405.677,66.2344 405.0363,66.375 Q404.3957,66.5313 403.6926,66.5313 Q401.1926,66.5313 399.8645,64.8906 Q398.552,63.2344 398.552,60.1094 Q398.552,56.9844 399.8645,55.3281 Q401.1926,53.6719 403.6926,53.6719 Q404.3957,53.6719 405.0363,53.8281 Q405.6926,53.9844 406.2551,54.2813 L406.2551,57 Q405.6301,56.4219 405.0363,56.1563 Q404.4426,55.875 403.8176,55.875 Q402.4738,55.875 401.7863,56.9531 Q401.0988,58.0156 401.0988,60.1094 Q401.0988,62.2031 401.7863,63.2813 Q402.4738,64.3438 403.8176,64.3438 Q404.4426,64.3438 405.0363,64.0781 Q405.6301,63.7969 406.2551,63.2188 L406.2551,65.9375 Z " fill="#000000"/><text fill="#000000" font-family="sans-serif" font-size="14" lengthAdjust="spacing" textLength="71.8799" x="423.7863" y="65.1436">UNT_S009</text><line style="stroke:#181818;stroke-width:0.5;" x1="264.3" x2="622.6525" y1="76.2969" y2="76.2969"/><text fill="#000000" font-family="sans-serif" font-size="14" lengthAdjust="spacing" textLength="211.4082" x="283.3" y="93.292">Name: Nachrichten - Kennung</text><text fill="#000000" font-family="sans-serif" font-size="14" lengthAdjust="spacing" textLength="66.6436" x="283.3" y="109.5889">Prozesse:</text><rect fill="none" height="6" style="stroke:#C82930;stroke-width:1;" width="6" x="271.3" y="119.5391"/><text fill="#000000" font-family="sans-serif" font-size="14" lengthAdjust="spacing" textLength="334.3525" x="283.3" y="125.8857">Anforderung und &#220;bermittlung von Messwerten</text><line style="stroke:#181818;stroke-width:0.5;" x1="264.3" x2="622.6525" y1="133.1875" y2="133.1875"/></g><!--class UNT_S009_msg_1--><g class="entity" data-entity="UNT_S009_msg_1" data-source-line="7" data-uid="ent0003" id="entity_UNT_S009_msg_1"><rect fill="#F1F1F1" height="145.7813" rx="2.5" ry="2.5" style="stroke:#181818;stroke-width:0.5;" width="432.9502" x="7" y="218.1869"/><ellipse cx="156.9224" cy="234.1869" fill="#ADD1B2" rx="11" ry="11" style="stroke:#181818;stroke-width:1;"/><path d="M159.8911,239.8275 Q159.313,240.1244 158.6724,240.265 Q158.0317,240.4213 157.3286,240.4213 Q154.8286,240.4213 153.5005,238.7806 Q152.188,237.1244 152.188,233.9994 Q152.188,230.8744 153.5005,229.2181 Q154.8286,227.5619 157.3286,227.5619 Q158.0317,227.5619 158.6724,227.7181 Q159.3286,227.8744 159.8911,228.1713 L159.8911,230.89 Q159.2661,230.3119 158.6724,230.0463 Q158.0786,229.765 157.4536,229.765 Q156.1099,229.765 155.4224,230.8431 Q154.7349,231.9056 154.7349,233.9994 Q154.7349,236.0931 155.4224,237.1713 Q156.1099,238.2338 157.4536,238.2338 Q158.0786,238.2338 158.6724,237.9681 Q159.2661,237.6869 159.8911,237.1088 L159.8911,239.8275 Z " fill="#000000"/><text fill="#000000" font-family="sans-serif" font-size="14" lengthAdjust="spacing" textLength="124.6055" x="177.4224" y="239.0336">UNT_S009_msg_1</text><line style="stroke:#181818;stroke-width:0.5;" x1="8" x2="438.9502" y1="250.1869" y2="250.1869"/><text fill="#000000" font-family="sans-serif" font-size="14" lengthAdjust="spacing" textLength="172.0264" x="13" y="267.182">Nachricht: MSCONS 2.4c</text><text fill="#000000" font-family="sans-serif" font-size="14" lengthAdjust="spacing" textLength="208.2227" x="13" y="283.4789">Kontext: Konverter vergeben.</text><text fill="#000000" font-family="sans-serif" font-size="14" lengthAdjust="spacing" textLength="91.4033" x="13" y="299.7757">Pflichtfeld: Ja</text><text fill="#000000" font-family="sans-serif" font-size="14" lengthAdjust="spacing" textLength="137.9082" x="13" y="316.0726">Codes: 35, UN, UNT</text><text fill="#000000" font-family="sans-serif" font-size="14" lengthAdjust="spacing" textLength="405.4463" x="13" y="332.3695">Prozesse: Anforderung und &#220;bermittlung von Messwerten</text><text fill="#000000" font-family="sans-serif" font-size="14" lengthAdjust="spacing" textLength="420.9502" x="13" y="348.6664">Quelle: MSCONS_MIG_2_4c_au&#223;erordentliche_20240726.pdf</text><line style="stroke:#181818;stroke-width:0.5;" x1="8" x2="438.9502" y1="355.9681" y2="355.9681"/></g><!--class UNT_S009_proc_1--><g class="entity" data-entity="UNT_S009_proc_1" data-source-line="16" data-uid="ent0005" id="entity_UNT_S009_proc_1"><rect fill="#F1F1F1" height="105.1563" rx="2.5" ry="2.5" style="stroke:#181818;stroke-width:0.5;" width="378.2285" x="475.36" y="238.4969"/><ellipse cx="597.3781" cy="258.6297" fill="#ADD1B2" rx="11" ry="11" style="stroke:#181818;stroke-width:1;"/><path d="M600.3468,264.2703 Q599.7687,264.5672 599.1281,264.7078 Q598.4874,264.8641 597.7843,264.8641 Q595.2843,264.8641 593.9562,263.2234 Q592.6437,261.5672 592.6437,258.4422 Q592.6437,255.3172 593.9562,253.6609 Q595.2843,252.0047 597.7843,252.0047 Q598.4874,252.0047 599.1281,252.1609 Q599.7843,252.3172 600.3468,252.6141 L600.3468,255.3328 Q599.7218,254.7547 599.1281,254.4891 Q598.5343,254.2078 597.9093,254.2078 Q596.5656,254.2078 595.8781,255.2859 Q595.1906,256.3484 595.1906,258.4422 Q595.1906,260.5359 595.8781,261.6141 Q596.5656,262.6766 597.9093,262.6766 Q598.5343,262.6766 599.1281,262.4109 Q599.7218,262.1297 600.3468,261.5516 L600.3468,264.2703 Z " fill="#000000"/><text fill="#000000" font-family="sans-serif" font-size="12" font-style="italic" lengthAdjust="spacing" textLength="61.0605" x="650.194" y="254.6355">&#171;process&#187;</text><text fill="#000000" font-family="sans-serif" font-size="14" lengthAdjust="spacing" textLength="125.6924" x="617.8781" y="270.4607">UNT_S009_proc_1</text><line style="stroke:#181818;stroke-width:0.5;" x1="476.36" x2="852.5885" y1="278.7625" y2="278.7625"/><text fill="#000000" font-family="sans-serif" font-size="14" lengthAdjust="spacing" textLength="334.3525" x="481.36" y="295.7576">Anforderung und &#220;bermittlung von Messwerten</text><text fill="#000000" font-family="sans-serif" font-size="14" lengthAdjust="spacing" textLength="105.0957" x="481.36" y="312.0545">Gesetze: MsbG</text><line style="stroke:#181818;stroke-width:0.5;" x1="476.36" x2="852.5885" y1="319.3563" y2="319.3563"/><text fill="#000000" font-family="sans-serif" font-size="14" lengthAdjust="spacing" textLength="366.2285" x="481.36" y="336.3514">Zusammenfassung: Wie kann ein Marktpartner (z.B.</text></g><!--link UNT_S009 to UNT_S009_msg_1--><g class="link" data-entity-1="UNT_S009" data-entity-2="UNT_S009_msg_1" data-source-line="15" data-uid="lnk4" id="link_UNT_S009_UNT_S009_msg_1"><path codeLine="15" d="M389.94,141.5169 C364.25,164.4469 337.3967,188.412 308.8767,213.862" fill="none" id="UNT_S009-to-UNT_S009_msg_1" style="stroke:#181818;stroke-width:1;"/><polygon fill="#181818" points="304.4,217.8569,313.7783,214.8491,308.1306,214.5278,308.4519,208.8801,304.4,217.8569" style="stroke:#181818;stroke-width:1;"/><text fill="#000000" font-family="sans-serif" font-size="13" lengthAdjust="spacing" textLength="85.2363" x="354.48" y="184.2538">verwendet in</text></g><!--link UNT_S009 to UNT_S009_proc_1--><g class="link" data-entity-1="UNT_S009" data-entity-2="UNT_S009_proc_1" data-source-line="21" data-uid="lnk6" id="link_UNT_S009_UNT_S009_proc_1"><path codeLine="21" d="M497.26,141.5169 C530.22,170.8069 567.9343,204.3121 601.6943,234.3021" fill="none" id="UNT_S009-to-UNT_S009_proc_1" style="stroke:#181818;stroke-width:1;stroke-dasharray:7,7;"/><polygon fill="#181818" points="606.18,238.2869,602.108,229.3192,602.4419,234.9662,596.7949,235.3002,606.18,238.2869" style="stroke:#181818;stroke-width:1;"/><text fill="#000000" font-family="sans-serif" font-size="13" lengthAdjust="spacing" textLength="91.6221" x="547.48" y="184.2538">eingebettet in</text></g><!--SRC=[bL5DJy904BtpA-ReGJQreiODQQAO42MWfXWJBvkbdKB3Tafsjs0m_XCJVmn_p5c2Xk29GzlvUlFUc_hI6uGxxP6qDzf16rv6Ovb6qNKhuzo5L8KKFbe08rsXv7SsisKsOn3F3v2eeIbtdsozHkTGSWpSkQ6YjZbQxa93EMo-9cYhqdiJAikQOCZZAxIygFLvmASgDrLdEzOTduHXsdiSfH2BJiQDGKqUtxdCmJAiiS2VAKwGHD1Jc80gqEGI7ZHNUdMEJiBvnIdpX6UyB_iumG3F3Hg3lwBKyBwlOjN9b6ustsZ39l910QeuYZlHLNmf5dd1JlzkscudXuPbiB12oj53IOT7MTWwuw5kDmIi9Kcs5pfIU1yT-dLGxYPzpjyQfwiAgM0k1aXuBH7ccWYmPAYsSx_GrXFVzsGjRiM-1I6IV_9am8NVuFtMnGy0]--></g></svg>