<svg xmlns="http://www.w3.org/2000/svg" xmlns:xlink="http://www.w3.org/1999/xlink" contentStyleType="text/css" data-diagram-type="CLASS" height="370px" preserveAspectRatio="none" style="width:1782px;height:370px;background:#FFFFFF;" version="1.1" viewBox="0 0 1782 370" width="1782px" zoomAndPan="magnify"><title>Datenatlas - UNT:2270</title><defs/><g><g class="title" data-source-line="1"><text fill="#000000" font-family="sans-serif" font-size="14" font-weight="bold" lengthAdjust="spacing" textLength="178.6982" x="794.9739" y="22.9951">Datenatlas - UNT:2270</text></g><!--class UNT_2270--><g class="entity" data-entity="UNT_2270" data-source-line="2" data-uid="ent0002" id="entity_UNT_2270"><rect fill="#F1F1F1" height="96.8906" rx="2.5" ry="2.5" style="stroke:#181818;stroke-width:0.5;" width="374.2021" x="486.55" y="44.2969"/><ellipse cx="633.4509" cy="60.2969" fill="#ADD1B2" rx="11" ry="11" style="stroke:#181818;stroke-width:1;"/><path d="M636.4196,65.9375 Q635.8415,66.2344 635.2009,66.375 Q634.5603,66.5313 633.8571,66.5313 Q631.3571,66.5313 630.029,64.8906 Q628.7165,63.2344 628.7165,60.1094 Q628.7165,56.9844 630.029,55.3281 Q631.3571,53.6719 633.8571,53.6719 Q634.5603,53.6719 635.2009,53.8281 Q635.8571,53.9844 636.4196,54.2813 L636.4196,57 Q635.7946,56.4219 635.2009,56.1563 Q634.6071,55.875 633.9821,55.875 Q632.6384,55.875 631.9509,56.9531 Q631.2634,58.0156 631.2634,60.1094 Q631.2634,62.2031 631.9509,63.2813 Q632.6384,64.3438 633.9821,64.3438 Q634.6071,64.3438 635.2009,64.0781 Q635.7946,63.7969 636.4196,63.2188 L636.4196,65.9375 Z " fill="#000000"/><text fill="#000000" font-family="sans-serif" font-size="14" lengthAdjust="spacing" textLength="71.9004" x="653.9509" y="65.1436">UNT_2270</text><line style="stroke:#181818;stroke-width:0.5;" x1="487.55" x2="859.7521" y1="76.2969" y2="76.2969"/><text fill="#000000" font-family="sans-serif" font-size="14" lengthAdjust="spacing" textLength="245.8613" x="492.55" y="93.292">Name: Nachrichten - Endesegment</text><text fill="#000000" font-family="sans-serif" font-size="14" lengthAdjust="spacing" textLength="66.6436" x="492.55" y="109.5889">Prozesse:</text><line style="stroke:#181818;stroke-width:0.5;" x1="487.55" x2="859.7521" y1="116.8906" y2="116.8906"/><rect fill="#F24D5C" height="6" style="stroke:#C82930;stroke-width:1;" width="6" x="494.55" y="127.5391"/><text fill="#000000" font-family="sans-serif" font-size="14" lengthAdjust="spacing" textLength="348.2021" x="506.55" y="133.8857">Bestellung einer technischen Konfiguration (MSB)</text></g><!--class UNT_2270_msg_1--><g class="entity" data-entity="UNT_2270_msg_1" data-source-line="7" data-uid="ent0003" id="entity_UNT_2270_msg_1"><rect fill="#F1F1F1" height="145.7813" rx="2.5" ry="2.5" style="stroke:#181818;stroke-width:0.5;" width="431.2959" x="7" y="218.1869"/><ellipse cx="156.085" cy="234.1869" fill="#ADD1B2" rx="11" ry="11" style="stroke:#181818;stroke-width:1;"/><path d="M159.0537,239.8275 Q158.4756,240.1244 157.835,240.265 Q157.1943,240.4213 156.4912,240.4213 Q153.9912,240.4213 152.6631,238.7806 Q151.3506,237.1244 151.3506,233.9994 Q151.3506,230.8744 152.6631,229.2181 Q153.9912,227.5619 156.4912,227.5619 Q157.1943,227.5619 157.835,227.7181 Q158.4912,227.8744 159.0537,228.1713 L159.0537,230.89 Q158.4287,230.3119 157.835,230.0463 Q157.2412,229.765 156.6162,229.765 Q155.2725,229.765 154.585,230.8431 Q153.8975,231.9056 153.8975,233.9994 Q153.8975,236.0931 154.585,237.1713 Q155.2725,238.2338 156.6162,238.2338 Q157.2412,238.2338 157.835,237.9681 Q158.4287,237.6869 159.0537,237.1088 L159.0537,239.8275 Z " fill="#000000"/><text fill="#000000" font-family="sans-serif" font-size="14" lengthAdjust="spacing" textLength="124.626" x="176.585" y="239.0336">UNT_2270_msg_1</text><line style="stroke:#181818;stroke-width:0.5;" x1="8" x2="437.2959" y1="250.1869" y2="250.1869"/><text fill="#000000" font-family="sans-serif" font-size="14" lengthAdjust="spacing" textLength="170.1055" x="13" y="267.182">Nachricht: REQOTE 1.3b</text><text fill="#000000" font-family="sans-serif" font-size="14" lengthAdjust="spacing" textLength="204.1143" x="13" y="283.4789">Kontext: Nachrichtenstruktur</text><text fill="#000000" font-family="sans-serif" font-size="14" lengthAdjust="spacing" textLength="91.4033" x="13" y="299.7757">Pflichtfeld: Ja</text><text fill="#000000" font-family="sans-serif" font-size="14" lengthAdjust="spacing" textLength="223.9932" x="13" y="316.0726">Codes: 01, 10, 48, EDI, UN, UNT</text><text fill="#000000" font-family="sans-serif" font-size="14" lengthAdjust="spacing" textLength="292.2432" x="13" y="332.3695">Quelle: REQOTE_MIG_1_3b_20241001.pdf</text><line style="stroke:#181818;stroke-width:0.5;" x1="8" x2="437.2959" y1="339.6713" y2="339.6713"/><text fill="#000000" font-family="sans-serif" font-size="14" lengthAdjust="spacing" textLength="419.2959" x="13" y="356.6664">Prozesse: Bestellung einer technischen Konfiguration (MSB)</text></g><!--class UNT_2270_proc_1--><g class="entity" data-entity="UNT_2270_proc_1" data-source-line="16" data-uid="ent0005" id="entity_UNT_2270_proc_1"><rect fill="#F1F1F1" height="105.1563" rx="2.5" ry="2.5" style="stroke:#181818;stroke-width:0.5;" width="1301.9961" x="473.65" y="238.4969"/><ellipse cx="1057.5416" cy="258.6297" fill="#ADD1B2" rx="11" ry="11" style="stroke:#181818;stroke-width:1;"/><path d="M1060.5104,264.2703 Q1059.9322,264.5672 1059.2916,264.7078 Q1058.651,264.8641 1057.9479,264.8641 Q1055.4479,264.8641 1054.1197,263.2234 Q1052.8072,261.5672 1052.8072,258.4422 Q1052.8072,255.3172 1054.1197,253.6609 Q1055.4479,252.0047 1057.9479,252.0047 Q1058.651,252.0047 1059.2916,252.1609 Q1059.9479,252.3172 1060.5104,252.6141 L1060.5104,255.3328 Q1059.8854,254.7547 1059.2916,254.4891 Q1058.6979,254.2078 1058.0729,254.2078 Q1056.7291,254.2078 1056.0416,255.2859 Q1055.3541,256.3484 1055.3541,258.4422 Q1055.3541,260.5359 1056.0416,261.6141 Q1056.7291,262.6766 1058.0729,262.6766 Q1058.6979,262.6766 1059.2916,262.4109 Q1059.8854,262.1297 1060.5104,261.5516 L1060.5104,264.2703 Z " fill="#000000"/><text fill="#000000" font-family="sans-serif" font-size="12" font-style="italic" lengthAdjust="spacing" textLength="61.0605" x="1110.3678" y="254.6355">&#171;process&#187;</text><text fill="#000000" font-family="sans-serif" font-size="14" lengthAdjust="spacing" textLength="125.7129" x="1078.0416" y="270.4607">UNT_2270_proc_1</text><line style="stroke:#181818;stroke-width:0.5;" x1="474.65" x2="1774.6461" y1="278.7625" y2="278.7625"/><text fill="#000000" font-family="sans-serif" font-size="14" lengthAdjust="spacing" textLength="156.4063" x="479.65" y="295.7576">Gesetze: MsbG, EnWG</text><text fill="#000000" font-family="sans-serif" font-size="14" lengthAdjust="spacing" textLength="1289.9961" x="479.65" y="312.0545">Zusammenfassung: Erl&#228;utere den Prozess zur Bestellung einer spezifischen technischen Konfiguration bei einem Messstellenbetreiber, beispielsweise f&#252;r ein intelligentes Messsystem.</text><line style="stroke:#181818;stroke-width:0.5;" x1="474.65" x2="1774.6461" y1="319.3563" y2="319.3563"/><text fill="#000000" font-family="sans-serif" font-size="14" lengthAdjust="spacing" textLength="348.2021" x="479.65" y="336.3514">Bestellung einer technischen Konfiguration (MSB)</text></g><!--link UNT_2270 to UNT_2270_msg_1--><g class="link" data-entity-1="UNT_2270" data-entity-2="UNT_2270_msg_1" data-source-line="15" data-uid="lnk4" id="link_UNT_2270_UNT_2270_msg_1"><path codeLine="15" d="M563.61,141.6469 C511.07,164.5169 452.5712,189.9816 394.2812,215.3616" fill="none" id="UNT_2270-to-UNT_2270_msg_1" style="stroke:#181818;stroke-width:1;"/><polygon fill="#181818" points="388.78,217.7569,398.6286,217.8314,393.3643,215.7608,395.4349,210.4966,388.78,217.7569" style="stroke:#181818;stroke-width:1;"/><text fill="#000000" font-family="sans-serif" font-size="13" lengthAdjust="spacing" textLength="85.2363" x="489.65" y="184.2538">verwendet in</text></g><!--link UNT_2270 to UNT_2270_proc_1--><g class="link" data-entity-1="UNT_2270" data-entity-2="UNT_2270_proc_1" data-source-line="21" data-uid="lnk6" id="link_UNT_2270_UNT_2270_proc_1"><path codeLine="21" d="M783.69,141.6469 C850.7,170.8169 930.8486,205.7122 999.5386,235.6122" fill="none" id="UNT_2270-to-UNT_2270_proc_1" style="stroke:#181818;stroke-width:1;stroke-dasharray:7,7;"/><polygon fill="#181818" points="1005.04,238.0069,998.3844,230.7472,1000.4555,236.0113,995.1914,238.0824,1005.04,238.0069" style="stroke:#181818;stroke-width:1;"/><text fill="#000000" font-family="sans-serif" font-size="13" lengthAdjust="spacing" textLength="91.6221" x="886.65" y="184.2538">eingebettet in</text></g><!--SRC=[dL9DJy904BtpA-QeIMbQ8D5iI0z8Gz20eXWJBqrRfcLZkoMxKr6C_yQVuOq_vYoYGOW7FNIpy_7clNbRabGWz6D25LCH6sZ2xNWgMgqJhv5oR6mOsH1U6W3Zk4J1PphNCfqpYFj3DKE3UOcAkEDALoiq1WNVWQizD8H5KQiSK2hKG9ZEbJJfdC4NbSfaNkkOPANWQ7JJEswyxl56fSaZVyk-vHLm7Kukfo7uRZlX0iyXVA8VoWpf-e5gRJLbXSrbMCm4dCUSEQjOim3FTy3t7EYSEX3sXmwJsc-wkyVVDm2Or0p0BvNHQ3Y8_AYTH2slrV4zptSNiumN_RQssGpsznNmY7g9x2s1LFkUB7ILSbEtQoyiCmWs1lr3we3VZbQiTMII0RkWxWQSlQzDNFABPipAqmI4kbY_rOGQOSQpjkx0gjQ7f6Q1AvbjMNzNaA3S04eOyQZD35G9aaQPe7PitIma5cR95uHi_QvjFxjXMsNE_nkQJ-mpeqjtrr7N3GxS4XQU8rFGnjGF]--></g></svg>