<svg xmlns="http://www.w3.org/2000/svg" xmlns:xlink="http://www.w3.org/1999/xlink" contentStyleType="text/css" data-diagram-type="CLASS" height="387px" preserveAspectRatio="none" style="width:2280px;height:387px;background:#FFFFFF;" version="1.1" viewBox="0 0 2280 387" width="2280px" zoomAndPan="magnify"><title>Datenatlas - XXX:E_0503</title><defs/><g><g class="title" data-source-line="1"><text fill="#000000" font-family="sans-serif" font-size="14" font-weight="bold" lengthAdjust="spacing" textLength="195.0088" x="1035.7338" y="22.9951">Datenatlas - XXX:E_0503</text></g><!--class XXX_E_0503--><g class="entity" data-entity="XXX_E_0503" data-source-line="2" data-uid="ent0002" id="entity_XXX_E_0503"><rect fill="#F1F1F1" height="113.1875" rx="2.5" ry="2.5" style="stroke:#181818;stroke-width:0.5;" width="1603.3037" x="257.5" y="44.2969"/><ellipse cx="1011.2783" cy="60.2969" fill="#ADD1B2" rx="11" ry="11" style="stroke:#181818;stroke-width:1;"/><path d="M1014.2471,65.9375 Q1013.6689,66.2344 1013.0283,66.375 Q1012.3877,66.5313 1011.6846,66.5313 Q1009.1846,66.5313 1007.8564,64.8906 Q1006.5439,63.2344 1006.5439,60.1094 Q1006.5439,56.9844 1007.8564,55.3281 Q1009.1846,53.6719 1011.6846,53.6719 Q1012.3877,53.6719 1013.0283,53.8281 Q1013.6846,53.9844 1014.2471,54.2813 L1014.2471,57 Q1013.6221,56.4219 1013.0283,56.1563 Q1012.4346,55.875 1011.8096,55.875 Q1010.4658,55.875 1009.7783,56.9531 Q1009.0908,58.0156 1009.0908,60.1094 Q1009.0908,62.2031 1009.7783,63.2813 Q1010.4658,64.3438 1011.8096,64.3438 Q1012.4346,64.3438 1013.0283,64.0781 Q1013.6221,63.7969 1014.2471,63.2188 L1014.2471,65.9375 Z " fill="#000000"/><text fill="#000000" font-family="sans-serif" font-size="14" lengthAdjust="spacing" textLength="87.2471" x="1031.7783" y="65.1436">XXX_E_0503</text><line style="stroke:#181818;stroke-width:0.5;" x1="258.5" x2="1859.8037" y1="76.2969" y2="76.2969"/><text fill="#000000" font-family="sans-serif" font-size="14" lengthAdjust="spacing" textLength="66.6436" x="277.5" y="93.292">Prozesse:</text><rect fill="none" height="6" style="stroke:#C82930;stroke-width:1;" width="6" x="265.5" y="103.2422"/><text fill="#000000" font-family="sans-serif" font-size="14" lengthAdjust="spacing" textLength="317.9668" x="277.5" y="109.5889">Sperrung und Entsperrung eines Anschlusses</text><rect fill="none" height="6" style="stroke:#C82930;stroke-width:1;" width="6" x="265.5" y="119.5391"/><text fill="#000000" font-family="sans-serif" font-size="14" lengthAdjust="spacing" textLength="180.3457" x="277.5" y="125.8857">Netznutzungsabrechnung</text><line style="stroke:#181818;stroke-width:0.5;" x1="258.5" x2="1859.8037" y1="133.1875" y2="133.1875"/><text fill="#000000" font-family="sans-serif" font-size="14" lengthAdjust="spacing" textLength="1591.3037" x="263.5" y="150.1826">Name: EBD Nr. E_0503 EBD zur Pr&#252;fung der Abrechnung einer sonstigen Leistung. Dies kann die Rechnung zur Beauftragung der Unterbrechung der Anschlussnutzung (Sperren) oder die Rechnung zu Verzugskosten beinhalten</text></g><!--class XXX_E_0503_msg_1--><g class="entity" data-entity="XXX_E_0503_msg_1" data-source-line="8" data-uid="ent0003" id="entity_XXX_E_0503_msg_1"><rect fill="#F1F1F1" height="145.7813" rx="2.5" ry="2.5" style="stroke:#181818;stroke-width:0.5;" width="590.3066" x="7" y="234.4869"/><ellipse cx="227.917" cy="250.4869" fill="#ADD1B2" rx="11" ry="11" style="stroke:#181818;stroke-width:1;"/><path d="M230.8857,256.1275 Q230.3076,256.4244 229.667,256.565 Q229.0264,256.7213 228.3232,256.7213 Q225.8232,256.7213 224.4951,255.0806 Q223.1826,253.4244 223.1826,250.2994 Q223.1826,247.1744 224.4951,245.5181 Q225.8232,243.8619 228.3232,243.8619 Q229.0264,243.8619 229.667,244.0181 Q230.3232,244.1744 230.8857,244.4713 L230.8857,247.19 Q230.2607,246.6119 229.667,246.3463 Q229.0732,246.065 228.4482,246.065 Q227.1045,246.065 226.417,247.1431 Q225.7295,248.2056 225.7295,250.2994 Q225.7295,252.3931 226.417,253.4713 Q227.1045,254.5338 228.4482,254.5338 Q229.0732,254.5338 229.667,254.2681 Q230.2607,253.9869 230.8857,253.4088 L230.8857,256.1275 Z " fill="#000000"/><text fill="#000000" font-family="sans-serif" font-size="14" lengthAdjust="spacing" textLength="139.9727" x="248.417" y="255.3336">XXX_E_0503_msg_1</text><line style="stroke:#181818;stroke-width:0.5;" x1="8" x2="596.3066" y1="266.4869" y2="266.4869"/><text fill="#000000" font-family="sans-serif" font-size="14" lengthAdjust="spacing" textLength="171.4932" x="13" y="283.482">Nachricht: REMADV 2.9c</text><text fill="#000000" font-family="sans-serif" font-size="14" lengthAdjust="spacing" textLength="123.0605" x="13" y="299.7789">Kontext: Beispiel:</text><text fill="#000000" font-family="sans-serif" font-size="14" lengthAdjust="spacing" textLength="91.4033" x="13" y="316.0757">Pflichtfeld: Ja</text><text fill="#000000" font-family="sans-serif" font-size="14" lengthAdjust="spacing" textLength="321.6172" x="13" y="332.3726">Codes: EBD, ESA, LF, MGV, MSB, NB, NN, OCR</text><text fill="#000000" font-family="sans-serif" font-size="14" lengthAdjust="spacing" textLength="578.3066" x="13" y="348.6695">Prozesse: Sperrung und Entsperrung eines Anschlusses, Netznutzungsabrechnung</text><text fill="#000000" font-family="sans-serif" font-size="14" lengthAdjust="spacing" textLength="417.8672" x="13" y="364.9664">Quelle: REMADV_MIG_2.9c_au&#223;erordentliche_20240726.pdf</text><line style="stroke:#181818;stroke-width:0.5;" x1="8" x2="596.3066" y1="372.2681" y2="372.2681"/></g><!--class XXX_E_0503_proc_1--><g class="entity" data-entity="XXX_E_0503_proc_1" data-source-line="17" data-uid="ent0005" id="entity_XXX_E_0503_proc_1"><rect fill="#F1F1F1" height="105.1563" rx="2.5" ry="2.5" style="stroke:#181818;stroke-width:0.5;" width="853.9893" x="632.16" y="254.7969"/><ellipse cx="984.3748" cy="274.9297" fill="#ADD1B2" rx="11" ry="11" style="stroke:#181818;stroke-width:1;"/><path d="M987.3436,280.5703 Q986.7655,280.8672 986.1248,281.0078 Q985.4842,281.1641 984.7811,281.1641 Q982.2811,281.1641 980.953,279.5234 Q979.6405,277.8672 979.6405,274.7422 Q979.6405,271.6172 980.953,269.9609 Q982.2811,268.3047 984.7811,268.3047 Q985.4842,268.3047 986.1248,268.4609 Q986.7811,268.6172 987.3436,268.9141 L987.3436,271.6328 Q986.7186,271.0547 986.1248,270.7891 Q985.5311,270.5078 984.9061,270.5078 Q983.5623,270.5078 982.8748,271.5859 Q982.1873,272.6484 982.1873,274.7422 Q982.1873,276.8359 982.8748,277.9141 Q983.5623,278.9766 984.9061,278.9766 Q985.5311,278.9766 986.1248,278.7109 Q986.7186,278.4297 987.3436,277.8516 L987.3436,280.5703 Z " fill="#000000"/><text fill="#000000" font-family="sans-serif" font-size="12" font-style="italic" lengthAdjust="spacing" textLength="61.0605" x="1044.8744" y="270.9355">&#171;process&#187;</text><text fill="#000000" font-family="sans-serif" font-size="14" lengthAdjust="spacing" textLength="141.0596" x="1004.8748" y="286.7607">XXX_E_0503_proc_1</text><line style="stroke:#181818;stroke-width:0.5;" x1="633.16" x2="1485.1493" y1="295.0625" y2="295.0625"/><text fill="#000000" font-family="sans-serif" font-size="14" lengthAdjust="spacing" textLength="317.9668" x="638.16" y="312.0576">Sperrung und Entsperrung eines Anschlusses</text><text fill="#000000" font-family="sans-serif" font-size="14" lengthAdjust="spacing" textLength="138.3252" x="638.16" y="328.3545">Gesetze: StromGVV</text><text fill="#000000" font-family="sans-serif" font-size="14" lengthAdjust="spacing" textLength="841.9893" x="638.16" y="344.6514">Zusammenfassung: Beschreibe den End-to-End-Prozess f&#252;r die Sperrung und Wiederherstellung eines Netzanschlusses.</text><line style="stroke:#181818;stroke-width:0.5;" x1="633.16" x2="1485.1493" y1="351.9531" y2="351.9531"/></g><!--class XXX_E_0503_proc_2--><g class="entity" data-entity="XXX_E_0503_proc_2" data-source-line="23" data-uid="ent0007" id="entity_XXX_E_0503_proc_2"><rect fill="#F1F1F1" height="105.1563" rx="2.5" ry="2.5" style="stroke:#181818;stroke-width:0.5;" width="752.6465" x="1520.83" y="254.7969"/><ellipse cx="1822.3735" cy="274.9297" fill="#ADD1B2" rx="11" ry="11" style="stroke:#181818;stroke-width:1;"/><path d="M1825.3422,280.5703 Q1824.7641,280.8672 1824.1235,281.0078 Q1823.4828,281.1641 1822.7797,281.1641 Q1820.2797,281.1641 1818.9516,279.5234 Q1817.6391,277.8672 1817.6391,274.7422 Q1817.6391,271.6172 1818.9516,269.9609 Q1820.2797,268.3047 1822.7797,268.3047 Q1823.4828,268.3047 1824.1235,268.4609 Q1824.7797,268.6172 1825.3422,268.9141 L1825.3422,271.6328 Q1824.7172,271.0547 1824.1235,270.7891 Q1823.5297,270.5078 1822.9047,270.5078 Q1821.561,270.5078 1820.8735,271.5859 Q1820.186,272.6484 1820.186,274.7422 Q1820.186,276.8359 1820.8735,277.9141 Q1821.561,278.9766 1822.9047,278.9766 Q1823.5297,278.9766 1824.1235,278.7109 Q1824.7172,278.4297 1825.3422,277.8516 L1825.3422,280.5703 Z " fill="#000000"/><text fill="#000000" font-family="sans-serif" font-size="12" font-style="italic" lengthAdjust="spacing" textLength="61.0605" x="1882.873" y="270.9355">&#171;process&#187;</text><text fill="#000000" font-family="sans-serif" font-size="14" lengthAdjust="spacing" textLength="141.0596" x="1842.8735" y="286.7607">XXX_E_0503_proc_2</text><line style="stroke:#181818;stroke-width:0.5;" x1="1521.83" x2="2272.4765" y1="295.0625" y2="295.0625"/><text fill="#000000" font-family="sans-serif" font-size="14" lengthAdjust="spacing" textLength="180.3457" x="1526.83" y="312.0576">Netznutzungsabrechnung</text><text fill="#000000" font-family="sans-serif" font-size="14" lengthAdjust="spacing" textLength="218.0938" x="1526.83" y="328.3545">Gesetze: StromNEV, StromNZV</text><text fill="#000000" font-family="sans-serif" font-size="14" lengthAdjust="spacing" textLength="740.6465" x="1526.83" y="344.6514">Zusammenfassung: Wie funktioniert die Netznutzungsabrechnung zwischen Netzbetreiber und Lieferant?</text><line style="stroke:#181818;stroke-width:0.5;" x1="1521.83" x2="2272.4765" y1="351.9531" y2="351.9531"/></g><!--link XXX_E_0503 to XXX_E_0503_msg_1--><g class="link" data-entity-1="XXX_E_0503" data-entity-2="XXX_E_0503_msg_1" data-source-line="16" data-uid="lnk4" id="link_XXX_E_0503_XXX_E_0503_msg_1"><path codeLine="16" d="M851.55,157.9669 C764.66,181.4369 668.3623,207.4518 575.9123,232.4318" fill="none" id="XXX_E_0503-to-XXX_E_0503_msg_1" style="stroke:#181818;stroke-width:1;"/><polygon fill="#181818" points="570.12,233.9969,579.8518,235.5108,574.9469,232.6926,577.765,227.7877,570.12,233.9969" style="stroke:#181818;stroke-width:1;"/><text fill="#000000" font-family="sans-serif" font-size="13" lengthAdjust="spacing" textLength="85.2363" x="727.15" y="200.5538">verwendet in</text></g><!--link XXX_E_0503 to XXX_E_0503_proc_1--><g class="link" data-entity-1="XXX_E_0503" data-entity-2="XXX_E_0503_proc_1" data-source-line="22" data-uid="lnk6" id="link_XXX_E_0503_XXX_E_0503_proc_1"><path codeLine="22" d="M1059.15,157.7669 C1059.15,187.9169 1059.15,218.9069 1059.15,248.4269" fill="none" id="XXX_E_0503-to-XXX_E_0503_proc_1" style="stroke:#181818;stroke-width:1;stroke-dasharray:7,7;"/><polygon fill="#181818" points="1059.15,254.4269,1063.15,245.4269,1059.15,249.4269,1055.15,245.4269,1059.15,254.4269" style="stroke:#181818;stroke-width:1;"/><text fill="#000000" font-family="sans-serif" font-size="13" lengthAdjust="spacing" textLength="91.6221" x="1060.15" y="200.5538">eingebettet in</text></g><!--link XXX_E_0503 to XXX_E_0503_proc_2--><g class="link" data-entity-1="XXX_E_0503" data-entity-2="XXX_E_0503_proc_2" data-source-line="28" data-uid="lnk8" id="link_XXX_E_0503_XXX_E_0503_proc_2"><path codeLine="28" d="M1288.97,157.9669 C1412.29,188.0669 1557.451,223.4845 1678.141,252.9345" fill="none" id="XXX_E_0503-to-XXX_E_0503_proc_2" style="stroke:#181818;stroke-width:1;stroke-dasharray:7,7;"/><polygon fill="#181818" points="1683.97,254.3569,1676.1748,248.3374,1679.1125,253.1716,1674.2783,256.1093,1683.97,254.3569" style="stroke:#181818;stroke-width:1;"/><text fill="#000000" font-family="sans-serif" font-size="13" lengthAdjust="spacing" textLength="91.6221" x="1479.15" y="200.5538">eingebettet in</text></g><!--SRC=[bPFFRjf04CRlFCKSMybOrFsdMX4L11Ur1PU2Ib4krcAFxHLcZMRNIUMgpz8NoIqlrba38HJIAWVZtHdFxFVzTZ3I50W3OL09KmWDRLWi5duGTLvtNhPYZcWRYBO1-Da22CKQVGZw0mZ9XLt2RkkAO49tjscbCaYGeBSaZ7DbjoWL1tIfj94PAXYXr8OJBWmaQbW9fI2H2DDzWMtMHr6bXaIsR_XD6QIcwVqHIiTvKMcjAbFRuBFP1ebGFOVIvl_g2NEakihqgjJi69OiAnS5BzdNXCeQjKQVry0ScaQsh5891Che_TvwqOUJKUyAGZJrJeOMzzPRlqumHckTHIzsCEESP9mR7wR1k3UOW-U-YpdnkMIlFpZSPr8RYOMLDKaB-ssAHUB39y6HItQfczjm89Zr71XzS60ydFFFhEz0Q9_GWI-NquSEd-3DUSmMmDSAYmBtmgFnns5anKUYklkDL5A2obYz67aTxrNdhVV6tIGfytWmKErsznIC3zT8DwWID23LARuDbJ5_Td5X5soessrOFkd2XgZPbqLXg5mFvtEENLLQhDUeKZwFwonxBY6KI-HXKzmpQPkoRLyxb93UtMw7xEZmxn9v-78adhAYE4YmACL1XdlCmdMxPrpwjZR39HhpBnpU2Ov7x-tOUXZmi6nNLsSXi1dWl_JAo5999DFOFTySwXl9xXYLpRFaXXqrJ4OIKoIXpFl_k_PENFy1]--></g></svg>