<svg xmlns="http://www.w3.org/2000/svg" xmlns:xlink="http://www.w3.org/1999/xlink" contentStyleType="text/css" data-diagram-type="CLASS" height="370px" preserveAspectRatio="none" style="width:1231px;height:370px;background:#FFFFFF;" version="1.1" viewBox="0 0 1231 370" width="1231px" zoomAndPan="magnify"><title>Datenatlas - XXX:E_0506</title><defs/><g><g class="title" data-source-line="1"><text fill="#000000" font-family="sans-serif" font-size="14" font-weight="bold" lengthAdjust="spacing" textLength="195.0088" x="511.1238" y="22.9951">Datenatlas - XXX:E_0506</text></g><!--class XXX_E_0506--><g class="entity" data-entity="XXX_E_0506" data-source-line="2" data-uid="ent0002" id="entity_XXX_E_0506"><rect fill="#F1F1F1" height="96.8906" rx="2.5" ry="2.5" style="stroke:#181818;stroke-width:0.5;" width="826.502" x="121.68" y="44.2969"/><ellipse cx="487.0574" cy="60.2969" fill="#ADD1B2" rx="11" ry="11" style="stroke:#181818;stroke-width:1;"/><path d="M490.0262,65.9375 Q489.4481,66.2344 488.8074,66.375 Q488.1668,66.5313 487.4637,66.5313 Q484.9637,66.5313 483.6356,64.8906 Q482.3231,63.2344 482.3231,60.1094 Q482.3231,56.9844 483.6356,55.3281 Q484.9637,53.6719 487.4637,53.6719 Q488.1668,53.6719 488.8074,53.8281 Q489.4637,53.9844 490.0262,54.2813 L490.0262,57 Q489.4012,56.4219 488.8074,56.1563 Q488.2137,55.875 487.5887,55.875 Q486.2449,55.875 485.5574,56.9531 Q484.8699,58.0156 484.8699,60.1094 Q484.8699,62.2031 485.5574,63.2813 Q486.2449,64.3438 487.5887,64.3438 Q488.2137,64.3438 488.8074,64.0781 Q489.4012,63.7969 490.0262,63.2188 L490.0262,65.9375 Z " fill="#000000"/><text fill="#000000" font-family="sans-serif" font-size="14" lengthAdjust="spacing" textLength="87.2471" x="507.5574" y="65.1436">XXX_E_0506</text><line style="stroke:#181818;stroke-width:0.5;" x1="122.68" x2="947.182" y1="76.2969" y2="76.2969"/><text fill="#000000" font-family="sans-serif" font-size="14" lengthAdjust="spacing" textLength="66.6436" x="141.68" y="93.292">Prozesse:</text><rect fill="none" height="6" style="stroke:#C82930;stroke-width:1;" width="6" x="129.68" y="103.2422"/><text fill="#000000" font-family="sans-serif" font-size="14" lengthAdjust="spacing" textLength="180.3457" x="141.68" y="109.5889">Netznutzungsabrechnung</text><line style="stroke:#181818;stroke-width:0.5;" x1="122.68" x2="947.182" y1="116.8906" y2="116.8906"/><text fill="#000000" font-family="sans-serif" font-size="14" lengthAdjust="spacing" textLength="814.502" x="127.68" y="133.8857">Name: EBD Nr. E_0506 EBD zur Pr&#252;fung f&#252;r die Antwort auf eine Stornierung (Abrechnung einer sonstigen Leistung)</text></g><!--class XXX_E_0506_msg_1--><g class="entity" data-entity="XXX_E_0506_msg_1" data-source-line="7" data-uid="ent0003" id="entity_XXX_E_0506_msg_1"><rect fill="#F1F1F1" height="145.7813" rx="2.5" ry="2.5" style="stroke:#181818;stroke-width:0.5;" width="429.8672" x="7" y="218.1869"/><ellipse cx="147.6973" cy="234.1869" fill="#ADD1B2" rx="11" ry="11" style="stroke:#181818;stroke-width:1;"/><path d="M150.666,239.8275 Q150.0879,240.1244 149.4473,240.265 Q148.8066,240.4213 148.1035,240.4213 Q145.6035,240.4213 144.2754,238.7806 Q142.9629,237.1244 142.9629,233.9994 Q142.9629,230.8744 144.2754,229.2181 Q145.6035,227.5619 148.1035,227.5619 Q148.8066,227.5619 149.4473,227.7181 Q150.1035,227.8744 150.666,228.1713 L150.666,230.89 Q150.041,230.3119 149.4473,230.0463 Q148.8535,229.765 148.2285,229.765 Q146.8848,229.765 146.1973,230.8431 Q145.5098,231.9056 145.5098,233.9994 Q145.5098,236.0931 146.1973,237.1713 Q146.8848,238.2338 148.2285,238.2338 Q148.8535,238.2338 149.4473,237.9681 Q150.041,237.6869 150.666,237.1088 L150.666,239.8275 Z " fill="#000000"/><text fill="#000000" font-family="sans-serif" font-size="14" lengthAdjust="spacing" textLength="139.9727" x="168.1973" y="239.0336">XXX_E_0506_msg_1</text><line style="stroke:#181818;stroke-width:0.5;" x1="8" x2="435.8672" y1="250.1869" y2="250.1869"/><text fill="#000000" font-family="sans-serif" font-size="14" lengthAdjust="spacing" textLength="171.4932" x="13" y="267.182">Nachricht: REMADV 2.9c</text><text fill="#000000" font-family="sans-serif" font-size="14" lengthAdjust="spacing" textLength="123.0605" x="13" y="283.4789">Kontext: Beispiel:</text><text fill="#000000" font-family="sans-serif" font-size="14" lengthAdjust="spacing" textLength="91.4033" x="13" y="299.7757">Pflichtfeld: Ja</text><text fill="#000000" font-family="sans-serif" font-size="14" lengthAdjust="spacing" textLength="321.6172" x="13" y="316.0726">Codes: EBD, ESA, LF, MGV, MSB, NB, NN, OCR</text><text fill="#000000" font-family="sans-serif" font-size="14" lengthAdjust="spacing" textLength="251.4395" x="13" y="332.3695">Prozesse: Netznutzungsabrechnung</text><text fill="#000000" font-family="sans-serif" font-size="14" lengthAdjust="spacing" textLength="417.8672" x="13" y="348.6664">Quelle: REMADV_MIG_2.9c_au&#223;erordentliche_20240726.pdf</text><line style="stroke:#181818;stroke-width:0.5;" x1="8" x2="435.8672" y1="355.9681" y2="355.9681"/></g><!--class XXX_E_0506_proc_1--><g class="entity" data-entity="XXX_E_0506_proc_1" data-source-line="16" data-uid="ent0005" id="entity_XXX_E_0506_proc_1"><rect fill="#F1F1F1" height="105.1563" rx="2.5" ry="2.5" style="stroke:#181818;stroke-width:0.5;" width="752.6465" x="471.61" y="238.4969"/><ellipse cx="773.1535" cy="258.6297" fill="#ADD1B2" rx="11" ry="11" style="stroke:#181818;stroke-width:1;"/><path d="M776.1222,264.2703 Q775.5441,264.5672 774.9035,264.7078 Q774.2628,264.8641 773.5597,264.8641 Q771.0597,264.8641 769.7316,263.2234 Q768.4191,261.5672 768.4191,258.4422 Q768.4191,255.3172 769.7316,253.6609 Q771.0597,252.0047 773.5597,252.0047 Q774.2628,252.0047 774.9035,252.1609 Q775.5597,252.3172 776.1222,252.6141 L776.1222,255.3328 Q775.4972,254.7547 774.9035,254.4891 Q774.3097,254.2078 773.6847,254.2078 Q772.341,254.2078 771.6535,255.2859 Q770.966,256.3484 770.966,258.4422 Q770.966,260.5359 771.6535,261.6141 Q772.341,262.6766 773.6847,262.6766 Q774.3097,262.6766 774.9035,262.4109 Q775.4972,262.1297 776.1222,261.5516 L776.1222,264.2703 Z " fill="#000000"/><text fill="#000000" font-family="sans-serif" font-size="12" font-style="italic" lengthAdjust="spacing" textLength="61.0605" x="833.653" y="254.6355">&#171;process&#187;</text><text fill="#000000" font-family="sans-serif" font-size="14" lengthAdjust="spacing" textLength="141.0596" x="793.6535" y="270.4607">XXX_E_0506_proc_1</text><line style="stroke:#181818;stroke-width:0.5;" x1="472.61" x2="1223.2565" y1="278.7625" y2="278.7625"/><text fill="#000000" font-family="sans-serif" font-size="14" lengthAdjust="spacing" textLength="180.3457" x="477.61" y="295.7576">Netznutzungsabrechnung</text><text fill="#000000" font-family="sans-serif" font-size="14" lengthAdjust="spacing" textLength="218.0938" x="477.61" y="312.0545">Gesetze: StromNEV, StromNZV</text><text fill="#000000" font-family="sans-serif" font-size="14" lengthAdjust="spacing" textLength="740.6465" x="477.61" y="328.3514">Zusammenfassung: Wie funktioniert die Netznutzungsabrechnung zwischen Netzbetreiber und Lieferant?</text><line style="stroke:#181818;stroke-width:0.5;" x1="472.61" x2="1223.2565" y1="335.6531" y2="335.6531"/></g><!--link XXX_E_0506 to XXX_E_0506_msg_1--><g class="link" data-entity-1="XXX_E_0506" data-entity-2="XXX_E_0506_msg_1" data-source-line="15" data-uid="lnk4" id="link_XXX_E_0506_XXX_E_0506_msg_1"><path codeLine="15" d="M458.77,141.5169 C422.21,164.4469 382.7231,189.219 342.1431,214.669" fill="none" id="XXX_E_0506-to-XXX_E_0506_msg_1" style="stroke:#181818;stroke-width:1;"/><polygon fill="#181818" points="337.06,217.8569,346.8098,216.4638,341.2959,215.2003,342.5593,209.6864,337.06,217.8569" style="stroke:#181818;stroke-width:1;"/><text fill="#000000" font-family="sans-serif" font-size="13" lengthAdjust="spacing" textLength="85.2363" x="407.93" y="184.2538">verwendet in</text></g><!--link XXX_E_0506 to XXX_E_0506_proc_1--><g class="link" data-entity-1="XXX_E_0506" data-entity-2="XXX_E_0506_proc_1" data-source-line="21" data-uid="lnk6" id="link_XXX_E_0506_XXX_E_0506_proc_1"><path codeLine="21" d="M611.1,141.5169 C657.7,170.7469 712.2475,204.9582 760.0175,234.9282" fill="none" id="XXX_E_0506-to-XXX_E_0506_proc_1" style="stroke:#181818;stroke-width:1;stroke-dasharray:7,7;"/><polygon fill="#181818" points="765.1,238.1169,759.602,229.9455,760.8645,235.4596,755.3504,236.7222,765.1,238.1169" style="stroke:#181818;stroke-width:1;"/><text fill="#000000" font-family="sans-serif" font-size="13" lengthAdjust="spacing" textLength="91.6221" x="683.93" y="184.2538">eingebettet in</text></g><!--SRC=[TPB1Rjf048RlFCKSKybO5BM9OaLK45oK5bmI98foiHPx3AlOksXs729NVPQ-23TUBBEGLgb83hPcvn_DVF_kiEOIOQWOZU9IEMZ3Oh68uhJpkNFUoYJZV28z9k1N2o1H5KOG3uQGK0WlWZysDS6KzhkYDYiezZk2N2Fq3MyjCQYw0DG6OSQMZ4RoLMVz9M6sDZxs8e6pnh5UeO4nQiSYV92PKx8DEeUHn22C2N9ZQcv4TkfVYzRl4-AqSglqumjtjYQThJc2ktZI7ywX6rvc8dotXl59qWEPkD5O-YdJelIr1PPv1D-KPAvjZkvWF81urWzW_3M0oMWklzaWWCH_IG0_hkzU0x-72d1ROrdYNvXqSZDAFL2gwlqV94iv6lOCc7OxtK-TY-vvkCaByVZgFThjtgdP21wHjcXoPD3cz4esP3CfkxhoWK3sUiVxUGzqX4ua8PqnsIg9nV4nkf-BUbyxLLLe2faYzH7yb4UN5NXWRVqpys4BtcuEpLOxSMWE-XAPK2zb2MgJmrXZWQGCV_dVSXZstZ0J-VLPeRJWW-jd]--></g></svg>