<svg xmlns="http://www.w3.org/2000/svg" xmlns:xlink="http://www.w3.org/1999/xlink" contentStyleType="text/css" data-diagram-type="CLASS" height="370px" preserveAspectRatio="none" style="width:1300px;height:370px;background:#FFFFFF;" version="1.1" viewBox="0 0 1300 370" width="1300px" zoomAndPan="magnify"><title>Datenatlas - XXX:G_0080</title><defs/><g><g class="title" data-source-line="1"><text fill="#000000" font-family="sans-serif" font-size="14" font-weight="bold" lengthAdjust="spacing" textLength="196.9365" x="544.585" y="22.9951">Datenatlas - XXX:G_0080</text></g><!--class XXX_G_0080--><g class="entity" data-entity="XXX_G_0080" data-source-line="2" data-uid="ent0002" id="entity_XXX_G_0080"><rect fill="#F1F1F1" height="96.8906" rx="2.5" ry="2.5" style="stroke:#181818;stroke-width:0.5;" width="1193.5713" x="7" y="44.2969"/><ellipse cx="554.9106" cy="60.2969" fill="#ADD1B2" rx="11" ry="11" style="stroke:#181818;stroke-width:1;"/><path d="M557.8794,65.9375 Q557.3013,66.2344 556.6606,66.375 Q556.02,66.5313 555.3169,66.5313 Q552.8169,66.5313 551.4888,64.8906 Q550.1763,63.2344 550.1763,60.1094 Q550.1763,56.9844 551.4888,55.3281 Q552.8169,53.6719 555.3169,53.6719 Q556.02,53.6719 556.6606,53.8281 Q557.3169,53.9844 557.8794,54.2813 L557.8794,57 Q557.2544,56.4219 556.6606,56.1563 Q556.0669,55.875 555.4419,55.875 Q554.0981,55.875 553.4106,56.9531 Q552.7231,58.0156 552.7231,60.1094 Q552.7231,62.2031 553.4106,63.2813 Q554.0981,64.3438 555.4419,64.3438 Q556.0669,64.3438 556.6606,64.0781 Q557.2544,63.7969 557.8794,63.2188 L557.8794,65.9375 Z " fill="#000000"/><text fill="#000000" font-family="sans-serif" font-size="14" lengthAdjust="spacing" textLength="89.25" x="575.4106" y="65.1436">XXX_G_0080</text><line style="stroke:#181818;stroke-width:0.5;" x1="8" x2="1199.5713" y1="76.2969" y2="76.2969"/><text fill="#000000" font-family="sans-serif" font-size="14" lengthAdjust="spacing" textLength="66.6436" x="27" y="93.292">Prozesse:</text><rect fill="none" height="6" style="stroke:#C82930;stroke-width:1;" width="6" x="15" y="103.2422"/><text fill="#000000" font-family="sans-serif" font-size="14" lengthAdjust="spacing" textLength="180.3457" x="27" y="109.5889">Netznutzungsabrechnung</text><line style="stroke:#181818;stroke-width:0.5;" x1="8" x2="1199.5713" y1="116.8906" y2="116.8906"/><text fill="#000000" font-family="sans-serif" font-size="14" lengthAdjust="spacing" textLength="1181.5713" x="13" y="133.8857">Name: Codeliste Gas Nr. G_0080 Codeliste f&#252;r die Pr&#252;fung der aggregierten Menge und des Abrechnungszeitraums zwischen NB und MGV (entspricht dem EBD E_0802)</text></g><!--class XXX_G_0080_msg_1--><g class="entity" data-entity="XXX_G_0080_msg_1" data-source-line="7" data-uid="ent0003" id="entity_XXX_G_0080_msg_1"><rect fill="#F1F1F1" height="145.7813" rx="2.5" ry="2.5" style="stroke:#181818;stroke-width:0.5;" width="429.8672" x="75.85" y="218.1869"/><ellipse cx="215.5458" cy="234.1869" fill="#ADD1B2" rx="11" ry="11" style="stroke:#181818;stroke-width:1;"/><path d="M218.5146,239.8275 Q217.9364,240.1244 217.2958,240.265 Q216.6552,240.4213 215.9521,240.4213 Q213.4521,240.4213 212.1239,238.7806 Q210.8114,237.1244 210.8114,233.9994 Q210.8114,230.8744 212.1239,229.2181 Q213.4521,227.5619 215.9521,227.5619 Q216.6552,227.5619 217.2958,227.7181 Q217.9521,227.8744 218.5146,228.1713 L218.5146,230.89 Q217.8896,230.3119 217.2958,230.0463 Q216.7021,229.765 216.0771,229.765 Q214.7333,229.765 214.0458,230.8431 Q213.3583,231.9056 213.3583,233.9994 Q213.3583,236.0931 214.0458,237.1713 Q214.7333,238.2338 216.0771,238.2338 Q216.7021,238.2338 217.2958,237.9681 Q217.8896,237.6869 218.5146,237.1088 L218.5146,239.8275 Z " fill="#000000"/><text fill="#000000" font-family="sans-serif" font-size="14" lengthAdjust="spacing" textLength="141.9756" x="236.0458" y="239.0336">XXX_G_0080_msg_1</text><line style="stroke:#181818;stroke-width:0.5;" x1="76.85" x2="504.7172" y1="250.1869" y2="250.1869"/><text fill="#000000" font-family="sans-serif" font-size="14" lengthAdjust="spacing" textLength="171.4932" x="81.85" y="267.182">Nachricht: REMADV 2.9c</text><text fill="#000000" font-family="sans-serif" font-size="14" lengthAdjust="spacing" textLength="123.0605" x="81.85" y="283.4789">Kontext: Beispiel:</text><text fill="#000000" font-family="sans-serif" font-size="14" lengthAdjust="spacing" textLength="91.4033" x="81.85" y="299.7757">Pflichtfeld: Ja</text><text fill="#000000" font-family="sans-serif" font-size="14" lengthAdjust="spacing" textLength="321.6172" x="81.85" y="316.0726">Codes: EBD, ESA, LF, MGV, MSB, NB, NN, OCR</text><text fill="#000000" font-family="sans-serif" font-size="14" lengthAdjust="spacing" textLength="251.4395" x="81.85" y="332.3695">Prozesse: Netznutzungsabrechnung</text><text fill="#000000" font-family="sans-serif" font-size="14" lengthAdjust="spacing" textLength="417.8672" x="81.85" y="348.6664">Quelle: REMADV_MIG_2.9c_au&#223;erordentliche_20240726.pdf</text><line style="stroke:#181818;stroke-width:0.5;" x1="76.85" x2="504.7172" y1="355.9681" y2="355.9681"/></g><!--class XXX_G_0080_proc_1--><g class="entity" data-entity="XXX_G_0080_proc_1" data-source-line="16" data-uid="ent0005" id="entity_XXX_G_0080_proc_1"><rect fill="#F1F1F1" height="105.1563" rx="2.5" ry="2.5" style="stroke:#181818;stroke-width:0.5;" width="752.6465" x="540.46" y="238.4969"/><ellipse cx="841.002" cy="258.6297" fill="#ADD1B2" rx="11" ry="11" style="stroke:#181818;stroke-width:1;"/><path d="M843.9707,264.2703 Q843.3926,264.5672 842.752,264.7078 Q842.1114,264.8641 841.4082,264.8641 Q838.9082,264.8641 837.5801,263.2234 Q836.2676,261.5672 836.2676,258.4422 Q836.2676,255.3172 837.5801,253.6609 Q838.9082,252.0047 841.4082,252.0047 Q842.1114,252.0047 842.752,252.1609 Q843.4082,252.3172 843.9707,252.6141 L843.9707,255.3328 Q843.3457,254.7547 842.752,254.4891 Q842.1582,254.2078 841.5332,254.2078 Q840.1895,254.2078 839.502,255.2859 Q838.8145,256.3484 838.8145,258.4422 Q838.8145,260.5359 839.502,261.6141 Q840.1895,262.6766 841.5332,262.6766 Q842.1582,262.6766 842.752,262.4109 Q843.3457,262.1297 843.9707,261.5516 L843.9707,264.2703 Z " fill="#000000"/><text fill="#000000" font-family="sans-serif" font-size="12" font-style="italic" lengthAdjust="spacing" textLength="61.0605" x="902.503" y="254.6355">&#171;process&#187;</text><text fill="#000000" font-family="sans-serif" font-size="14" lengthAdjust="spacing" textLength="143.0625" x="861.502" y="270.4607">XXX_G_0080_proc_1</text><line style="stroke:#181818;stroke-width:0.5;" x1="541.46" x2="1292.1065" y1="278.7625" y2="278.7625"/><text fill="#000000" font-family="sans-serif" font-size="14" lengthAdjust="spacing" textLength="180.3457" x="546.46" y="295.7576">Netznutzungsabrechnung</text><text fill="#000000" font-family="sans-serif" font-size="14" lengthAdjust="spacing" textLength="218.0938" x="546.46" y="312.0545">Gesetze: StromNEV, StromNZV</text><text fill="#000000" font-family="sans-serif" font-size="14" lengthAdjust="spacing" textLength="740.6465" x="546.46" y="328.3514">Zusammenfassung: Wie funktioniert die Netznutzungsabrechnung zwischen Netzbetreiber und Lieferant?</text><line style="stroke:#181818;stroke-width:0.5;" x1="541.46" x2="1292.1065" y1="335.6531" y2="335.6531"/></g><!--link XXX_G_0080 to XXX_G_0080_msg_1--><g class="link" data-entity-1="XXX_G_0080" data-entity-2="XXX_G_0080_msg_1" data-source-line="15" data-uid="lnk4" id="link_XXX_G_0080_XXX_G_0080_msg_1"><path codeLine="15" d="M527.62,141.5169 C491.06,164.4469 451.5731,189.219 410.9931,214.669" fill="none" id="XXX_G_0080-to-XXX_G_0080_msg_1" style="stroke:#181818;stroke-width:1;"/><polygon fill="#181818" points="405.91,217.8569,415.6598,216.4638,410.1459,215.2003,411.4093,209.6864,405.91,217.8569" style="stroke:#181818;stroke-width:1;"/><text fill="#000000" font-family="sans-serif" font-size="13" lengthAdjust="spacing" textLength="85.2363" x="476.79" y="184.2538">verwendet in</text></g><!--link XXX_G_0080 to XXX_G_0080_proc_1--><g class="link" data-entity-1="XXX_G_0080" data-entity-2="XXX_G_0080_proc_1" data-source-line="21" data-uid="lnk6" id="link_XXX_G_0080_XXX_G_0080_proc_1"><path codeLine="21" d="M679.95,141.5169 C726.55,170.7469 781.0975,204.9582 828.8675,234.9282" fill="none" id="XXX_G_0080-to-XXX_G_0080_proc_1" style="stroke:#181818;stroke-width:1;stroke-dasharray:7,7;"/><polygon fill="#181818" points="833.95,238.1169,828.452,229.9455,829.7145,235.4596,824.2004,236.7222,833.95,238.1169" style="stroke:#181818;stroke-width:1;"/><text fill="#000000" font-family="sans-serif" font-size="13" lengthAdjust="spacing" textLength="91.6221" x="752.79" y="184.2538">eingebettet in</text></g><!--SRC=[TLBBRjim4BpxA_RO0hAW2a4VHE32ZbMXRQowCU0QkH2qj9A9IfInf9f0GRwbFvARVwnBEqrTE3c887Q6kpEhSThL25Fbq2XNAmj3MArM8fLHz3uQv5onlY0F1RWR06IgGG4NRO6rjWuXvLSPXV18-GUKkmU2GYFCQVTGTgQ20WbKLH5M6eb7mWnDXT2PWY4BupLXlZ7Cj3rgHwfhBFGtskORvcQJFN6MBk4L6cUtfFEDuuSD99Cf99AdnwzPu9pQ7gr5mNTWGncwtdIkzttLquZ1_OazsTXAldaqcM_s_GLS9RFnT0bn-25du6jh7DvoUOBQRZNMVigyh3stnBeGy4LnnM_12YyiW6Gn3k3oK-2byx6O1Eo5loo0RnTNnu9VaWhmlSEwnhzYvEnpAhqWgRhTRwIM2jw8ru0oZkApw5tyDjmM9Niy-dd3uUZKh81VI3Te2dIWpUbAjjJcJ3i_znSMEHeTzlEIq1GjGwnquQXjieGT7sxNIqQlEwkQ1at9KvWlu0V7WwFnq-dM-4piy_9yywCaCBv6HwZN72WVYakD9P8oxkF_biDmz8mP0QWvTzp2xLt_0G00]--></g></svg>