<svg xmlns="http://www.w3.org/2000/svg" xmlns:xlink="http://www.w3.org/1999/xlink" contentStyleType="text/css" data-diagram-type="CLASS" height="370px" preserveAspectRatio="none" style="width:984px;height:370px;background:#FFFFFF;" version="1.1" viewBox="0 0 984 370" width="984px" zoomAndPan="magnify"><title>Datenatlas - BGM:11</title><defs/><g><g class="title" data-source-line="1"><text fill="#000000" font-family="sans-serif" font-size="14" font-weight="bold" lengthAdjust="spacing" textLength="162.6748" x="403.9674" y="22.9951">Datenatlas - BGM:11</text></g><!--class BGM_11--><g class="entity" data-entity="BGM_11" data-source-line="2" data-uid="ent0002" id="entity_BGM_11"><rect fill="#F1F1F1" height="96.8906" rx="2.5" ry="2.5" style="stroke:#181818;stroke-width:0.5;" width="184.0127" x="314.42" y="44.2969"/><ellipse cx="373.503" cy="60.2969" fill="#ADD1B2" rx="11" ry="11" style="stroke:#181818;stroke-width:1;"/><path d="M376.4718,65.9375 Q375.8936,66.2344 375.253,66.375 Q374.6124,66.5313 373.9093,66.5313 Q371.4093,66.5313 370.0811,64.8906 Q368.7686,63.2344 368.7686,60.1094 Q368.7686,56.9844 370.0811,55.3281 Q371.4093,53.6719 373.9093,53.6719 Q374.6124,53.6719 375.253,53.8281 Q375.9093,53.9844 376.4718,54.2813 L376.4718,57 Q375.8468,56.4219 375.253,56.1563 Q374.6593,55.875 374.0343,55.875 Q372.6905,55.875 372.003,56.9531 Q371.3155,58.0156 371.3155,60.1094 Q371.3155,62.2031 372.003,63.2813 Q372.6905,64.3438 374.0343,64.3438 Q374.6593,64.3438 375.253,64.0781 Q375.8468,63.7969 376.4718,63.2188 L376.4718,65.9375 Z " fill="#000000"/><text fill="#000000" font-family="sans-serif" font-size="14" lengthAdjust="spacing" textLength="57.3467" x="394.003" y="65.1436">BGM_11</text><line style="stroke:#181818;stroke-width:0.5;" x1="315.42" x2="497.4327" y1="76.2969" y2="76.2969"/><text fill="#000000" font-family="sans-serif" font-size="14" lengthAdjust="spacing" textLength="111.1934" x="334.42" y="93.292">Name: Funktion</text><text fill="#000000" font-family="sans-serif" font-size="14" lengthAdjust="spacing" textLength="66.6436" x="334.42" y="109.5889">Prozesse:</text><rect fill="none" height="6" style="stroke:#C82930;stroke-width:1;" width="6" x="322.42" y="119.5391"/><text fill="#000000" font-family="sans-serif" font-size="14" lengthAdjust="spacing" textLength="158.0127" x="334.42" y="125.8857">Stammdaten&#228;nderung</text><line style="stroke:#181818;stroke-width:0.5;" x1="315.42" x2="497.4327" y1="133.1875" y2="133.1875"/></g><!--class BGM_11_msg_1--><g class="entity" data-entity="BGM_11_msg_1" data-source-line="7" data-uid="ent0003" id="entity_BGM_11_msg_1"><rect fill="#F1F1F1" height="145.7813" rx="2.5" ry="2.5" style="stroke:#181818;stroke-width:0.5;" width="296.8604" x="7" y="218.1869"/><ellipse cx="96.144" cy="234.1869" fill="#ADD1B2" rx="11" ry="11" style="stroke:#181818;stroke-width:1;"/><path d="M99.1128,239.8275 Q98.5347,240.1244 97.894,240.265 Q97.2534,240.4213 96.5503,240.4213 Q94.0503,240.4213 92.7222,238.7806 Q91.4097,237.1244 91.4097,233.9994 Q91.4097,230.8744 92.7222,229.2181 Q94.0503,227.5619 96.5503,227.5619 Q97.2534,227.5619 97.894,227.7181 Q98.5503,227.8744 99.1128,228.1713 L99.1128,230.89 Q98.4878,230.3119 97.894,230.0463 Q97.3003,229.765 96.6753,229.765 Q95.3315,229.765 94.644,230.8431 Q93.9565,231.9056 93.9565,233.9994 Q93.9565,236.0931 94.644,237.1713 Q95.3315,238.2338 96.6753,238.2338 Q97.3003,238.2338 97.894,237.9681 Q98.4878,237.6869 99.1128,237.1088 L99.1128,239.8275 Z " fill="#000000"/><text fill="#000000" font-family="sans-serif" font-size="14" lengthAdjust="spacing" textLength="110.0723" x="116.644" y="239.0336">BGM_11_msg_1</text><line style="stroke:#181818;stroke-width:0.5;" x1="8" x2="302.8604" y1="250.1869" y2="250.1869"/><text fill="#000000" font-family="sans-serif" font-size="14" lengthAdjust="spacing" textLength="162.7227" x="13" y="267.182">Nachricht: PARTIN 1.0e</text><text fill="#000000" font-family="sans-serif" font-size="14" lengthAdjust="spacing" textLength="123.0605" x="13" y="283.4789">Kontext: Beispiel:</text><text fill="#000000" font-family="sans-serif" font-size="14" lengthAdjust="spacing" textLength="91.4033" x="13" y="299.7757">Pflichtfeld: Ja</text><text fill="#000000" font-family="sans-serif" font-size="14" lengthAdjust="spacing" textLength="138.2637" x="13" y="316.0726">Codes: 10, 11, BGM</text><text fill="#000000" font-family="sans-serif" font-size="14" lengthAdjust="spacing" textLength="229.1064" x="13" y="332.3695">Prozesse: Stammdaten&#228;nderung</text><text fill="#000000" font-family="sans-serif" font-size="14" lengthAdjust="spacing" textLength="284.8604" x="13" y="348.6664">Quelle: PARTIN_MIG_1_0e_20241001.pdf</text><line style="stroke:#181818;stroke-width:0.5;" x1="8" x2="302.8604" y1="355.9681" y2="355.9681"/></g><!--class BGM_11_proc_1--><g class="entity" data-entity="BGM_11_proc_1" data-source-line="16" data-uid="ent0005" id="entity_BGM_11_proc_1"><rect fill="#F1F1F1" height="88.8594" rx="2.5" ry="2.5" style="stroke:#181818;stroke-width:0.5;" width="638.3496" x="339.26" y="246.6469"/><ellipse cx="598.6052" cy="266.7797" fill="#ADD1B2" rx="11" ry="11" style="stroke:#181818;stroke-width:1;"/><path d="M601.574,272.4203 Q600.9958,272.7172 600.3552,272.8578 Q599.7146,273.0141 599.0115,273.0141 Q596.5115,273.0141 595.1833,271.3734 Q593.8708,269.7172 593.8708,266.5922 Q593.8708,263.4672 595.1833,261.8109 Q596.5115,260.1547 599.0115,260.1547 Q599.7146,260.1547 600.3552,260.3109 Q601.0115,260.4672 601.574,260.7641 L601.574,263.4828 Q600.949,262.9047 600.3552,262.6391 Q599.7615,262.3578 599.1365,262.3578 Q597.7927,262.3578 597.1052,263.4359 Q596.4177,264.4984 596.4177,266.5922 Q596.4177,268.6859 597.1052,269.7641 Q597.7927,270.8266 599.1365,270.8266 Q599.7615,270.8266 600.3552,270.5609 Q600.949,270.2797 601.574,269.7016 L601.574,272.4203 Z " fill="#000000"/><text fill="#000000" font-family="sans-serif" font-size="12" font-style="italic" lengthAdjust="spacing" textLength="61.0605" x="644.1545" y="262.7855">&#171;process&#187;</text><text fill="#000000" font-family="sans-serif" font-size="14" lengthAdjust="spacing" textLength="111.1592" x="619.1052" y="278.6107">BGM_11_proc_1</text><line style="stroke:#181818;stroke-width:0.5;" x1="340.26" x2="976.6096" y1="286.9125" y2="286.9125"/><text fill="#000000" font-family="sans-serif" font-size="14" lengthAdjust="spacing" textLength="158.0127" x="345.26" y="303.9076">Stammdaten&#228;nderung</text><text fill="#000000" font-family="sans-serif" font-size="14" lengthAdjust="spacing" textLength="626.3496" x="345.26" y="320.2045">Zusammenfassung: Wie wird eine Stammdaten&#228;nderung an einer Marktlokation, wie z.B.</text><line style="stroke:#181818;stroke-width:0.5;" x1="340.26" x2="976.6096" y1="327.5063" y2="327.5063"/></g><!--link BGM_11 to BGM_11_msg_1--><g class="link" data-entity-1="BGM_11" data-entity-2="BGM_11_msg_1" data-source-line="15" data-uid="lnk4" id="link_BGM_11_BGM_11_msg_1"><path codeLine="15" d="M345.35,141.5169 C316.04,164.4469 285.0162,188.7105 252.4762,214.1605" fill="none" id="BGM_11-to-BGM_11_msg_1" style="stroke:#181818;stroke-width:1;"/><polygon fill="#181818" points="247.75,217.8569,257.3035,215.4631,251.6885,214.7765,252.375,209.1615,247.75,217.8569" style="stroke:#181818;stroke-width:1;"/><text fill="#000000" font-family="sans-serif" font-size="13" lengthAdjust="spacing" textLength="85.2363" x="304.43" y="184.2538">verwendet in</text></g><!--link BGM_11 to BGM_11_proc_1--><g class="link" data-entity-1="BGM_11" data-entity-2="BGM_11_proc_1" data-source-line="20" data-uid="lnk6" id="link_BGM_11_BGM_11_proc_1"><path codeLine="20" d="M467.75,141.5169 C508.84,173.5269 557.777,211.6593 597.707,242.7693" fill="none" id="BGM_11-to-BGM_11_proc_1" style="stroke:#181818;stroke-width:1;stroke-dasharray:7,7;"/><polygon fill="#181818" points="602.44,246.4569,597.7988,237.7701,598.4958,243.3839,592.882,244.0809,602.44,246.4569" style="stroke:#181818;stroke-width:1;"/><text fill="#000000" font-family="sans-serif" font-size="13" lengthAdjust="spacing" textLength="91.6221" x="526.43" y="184.2538">eingebettet in</text></g><!--SRC=[RP7TIWCn48Nl-nJp0DsmALw5ic0LIvKjzGS4RqBSdMt3PfEIPArKV1lVn1TpKYoridSpP-QSV4EYZWRXMaMqAXeL88FPl1ISZohgGceav_0n0bYg3WNSzBQDsbaILjxjCGGKL0CP7wFgkZf5VN_P6drlrwFFinpPXRKyfbKRhwjD5B2wV7XQB86p76bmvsp4Tv9dgCDMeqdngyQatGPDBU1MaNBbQWm2U3u6piSf_o_H80l0VO_6uF55MIxcaiiSvIIVNF0yvsnRDuJyUtIM5UVS0jxGxv3o8cXxVjdMkufMfjDK44DH7CuSvdZf0ybe6meWHS2pHjXfNmDgYqCcKFOmyr0gtqRZMfL-OKmkX3sRiHCsOyK_A96iQtp560_aFm00]--></g></svg>