<svg xmlns="http://www.w3.org/2000/svg" xmlns:xlink="http://www.w3.org/1999/xlink" contentStyleType="text/css" data-diagram-type="CLASS" height="387px" preserveAspectRatio="none" style="width:2998px;height:387px;background:#FFFFFF;" version="1.1" viewBox="0 0 2998 387" width="2998px" zoomAndPan="magnify"><title>Datenatlas - BGM:Z57</title><defs/><g><g class="title" data-source-line="1"><text fill="#000000" font-family="sans-serif" font-size="14" font-weight="bold" lengthAdjust="spacing" textLength="172.8262" x="1405.6265" y="22.9951">Datenatlas - BGM:Z57</text></g><!--class BGM_Z57--><g class="entity" data-entity="BGM_Z57" data-source-line="2" data-uid="ent0002" id="entity_BGM_Z57"><rect fill="#F1F1F1" height="113.1875" rx="2.5" ry="2.5" style="stroke:#181818;stroke-width:0.5;" width="374.2021" x="1263.98" y="44.2969"/><ellipse cx="1413.3623" cy="60.2969" fill="#ADD1B2" rx="11" ry="11" style="stroke:#181818;stroke-width:1;"/><path d="M1416.3311,65.9375 Q1415.7529,66.2344 1415.1123,66.375 Q1414.4717,66.5313 1413.7686,66.5313 Q1411.2686,66.5313 1409.9404,64.8906 Q1408.6279,63.2344 1408.6279,60.1094 Q1408.6279,56.9844 1409.9404,55.3281 Q1411.2686,53.6719 1413.7686,53.6719 Q1414.4717,53.6719 1415.1123,53.8281 Q1415.7686,53.9844 1416.3311,54.2813 L1416.3311,57 Q1415.7061,56.4219 1415.1123,56.1563 Q1414.5186,55.875 1413.8936,55.875 Q1412.5498,55.875 1411.8623,56.9531 Q1411.1748,58.0156 1411.1748,60.1094 Q1411.1748,62.2031 1411.8623,63.2813 Q1412.5498,64.3438 1413.8936,64.3438 Q1414.5186,64.3438 1415.1123,64.0781 Q1415.7061,63.7969 1416.3311,63.2188 L1416.3311,65.9375 Z " fill="#000000"/><text fill="#000000" font-family="sans-serif" font-size="14" lengthAdjust="spacing" textLength="66.9375" x="1433.8623" y="65.1436">BGM_Z57</text><line style="stroke:#181818;stroke-width:0.5;" x1="1264.98" x2="1637.1821" y1="76.2969" y2="76.2969"/><text fill="#000000" font-family="sans-serif" font-size="14" lengthAdjust="spacing" textLength="282.4746" x="1283.98" y="93.292">Name: &#220;bermittlung von Werten an ESA</text><text fill="#000000" font-family="sans-serif" font-size="14" lengthAdjust="spacing" textLength="66.6436" x="1283.98" y="109.5889">Prozesse:</text><rect fill="none" height="6" style="stroke:#C82930;stroke-width:1;" width="6" x="1271.98" y="119.5391"/><text fill="#000000" font-family="sans-serif" font-size="14" lengthAdjust="spacing" textLength="317.9668" x="1283.98" y="125.8857">Sperrung und Entsperrung eines Anschlusses</text><line style="stroke:#181818;stroke-width:0.5;" x1="1264.98" x2="1637.1821" y1="133.1875" y2="133.1875"/><rect fill="#F24D5C" height="6" style="stroke:#C82930;stroke-width:1;" width="6" x="1271.98" y="143.8359"/><text fill="#000000" font-family="sans-serif" font-size="14" lengthAdjust="spacing" textLength="348.2021" x="1283.98" y="150.1826">Bestellung einer technischen Konfiguration (MSB)</text></g><!--class BGM_Z57_msg_1--><g class="entity" data-entity="BGM_Z57_msg_1" data-source-line="8" data-uid="ent0003" id="entity_BGM_Z57_msg_1"><rect fill="#F1F1F1" height="145.7813" rx="2.5" ry="2.5" style="stroke:#181818;stroke-width:0.5;" width="758.1631" x="7" y="234.4869"/><ellipse cx="322" cy="250.4869" fill="#ADD1B2" rx="11" ry="11" style="stroke:#181818;stroke-width:1;"/><path d="M324.9688,256.1275 Q324.3906,256.4244 323.75,256.565 Q323.1094,256.7213 322.4063,256.7213 Q319.9063,256.7213 318.5781,255.0806 Q317.2656,253.4244 317.2656,250.2994 Q317.2656,247.1744 318.5781,245.5181 Q319.9063,243.8619 322.4063,243.8619 Q323.1094,243.8619 323.75,244.0181 Q324.4063,244.1744 324.9688,244.4713 L324.9688,247.19 Q324.3438,246.6119 323.75,246.3463 Q323.1563,246.065 322.5313,246.065 Q321.1875,246.065 320.5,247.1431 Q319.8125,248.2056 319.8125,250.2994 Q319.8125,252.3931 320.5,253.4713 Q321.1875,254.5338 322.5313,254.5338 Q323.1563,254.5338 323.75,254.2681 Q324.3438,253.9869 324.9688,253.4088 L324.9688,256.1275 Z " fill="#000000"/><text fill="#000000" font-family="sans-serif" font-size="14" lengthAdjust="spacing" textLength="119.6631" x="342.5" y="255.3336">BGM_Z57_msg_1</text><line style="stroke:#181818;stroke-width:0.5;" x1="8" x2="764.1631" y1="266.4869" y2="266.4869"/><text fill="#000000" font-family="sans-serif" font-size="14" lengthAdjust="spacing" textLength="170.3584" x="13" y="283.482">Nachricht: QUOTES 1.3a</text><text fill="#000000" font-family="sans-serif" font-size="14" lengthAdjust="spacing" textLength="170.3447" x="13" y="299.7789">Kontext: Segmentlayout</text><text fill="#000000" font-family="sans-serif" font-size="14" lengthAdjust="spacing" textLength="91.4033" x="13" y="316.0757">Pflichtfeld: Ja</text><text fill="#000000" font-family="sans-serif" font-size="14" lengthAdjust="spacing" textLength="389.1768" x="13" y="332.3726">Codes: 310, 70, BGM, EDI, ESA, LF, MSB, Z29, Z57, Z74</text><text fill="#000000" font-family="sans-serif" font-size="14" lengthAdjust="spacing" textLength="292.4961" x="13" y="348.6695">Quelle: QUOTES_MIG_1_3a_20240619.pdf</text><line style="stroke:#181818;stroke-width:0.5;" x1="8" x2="764.1631" y1="355.9713" y2="355.9713"/><text fill="#000000" font-family="sans-serif" font-size="14" lengthAdjust="spacing" textLength="746.1631" x="13" y="372.9664">Prozesse: Bestellung einer technischen Konfiguration (MSB), Sperrung und Entsperrung eines Anschlusses</text></g><!--class BGM_Z57_proc_1--><g class="entity" data-entity="BGM_Z57_proc_1" data-source-line="17" data-uid="ent0005" id="entity_BGM_Z57_proc_1"><rect fill="#F1F1F1" height="105.1563" rx="2.5" ry="2.5" style="stroke:#181818;stroke-width:0.5;" width="1301.9961" x="800.08" y="254.7969"/><ellipse cx="1386.453" cy="274.9297" fill="#ADD1B2" rx="11" ry="11" style="stroke:#181818;stroke-width:1;"/><path d="M1389.4218,280.5703 Q1388.8437,280.8672 1388.203,281.0078 Q1387.5624,281.1641 1386.8593,281.1641 Q1384.3593,281.1641 1383.0312,279.5234 Q1381.7187,277.8672 1381.7187,274.7422 Q1381.7187,271.6172 1383.0312,269.9609 Q1384.3593,268.3047 1386.8593,268.3047 Q1387.5624,268.3047 1388.203,268.4609 Q1388.8593,268.6172 1389.4218,268.9141 L1389.4218,271.6328 Q1388.7968,271.0547 1388.203,270.7891 Q1387.6093,270.5078 1386.9843,270.5078 Q1385.6405,270.5078 1384.953,271.5859 Q1384.2655,272.6484 1384.2655,274.7422 Q1384.2655,276.8359 1384.953,277.9141 Q1385.6405,278.9766 1386.9843,278.9766 Q1387.6093,278.9766 1388.203,278.7109 Q1388.7968,278.4297 1389.4218,277.8516 L1389.4218,280.5703 Z " fill="#000000"/><text fill="#000000" font-family="sans-serif" font-size="12" font-style="italic" lengthAdjust="spacing" textLength="61.0605" x="1436.7978" y="270.9355">&#171;process&#187;</text><text fill="#000000" font-family="sans-serif" font-size="14" lengthAdjust="spacing" textLength="120.75" x="1406.953" y="286.7607">BGM_Z57_proc_1</text><line style="stroke:#181818;stroke-width:0.5;" x1="801.08" x2="2101.0761" y1="295.0625" y2="295.0625"/><text fill="#000000" font-family="sans-serif" font-size="14" lengthAdjust="spacing" textLength="156.4063" x="806.08" y="312.0576">Gesetze: MsbG, EnWG</text><text fill="#000000" font-family="sans-serif" font-size="14" lengthAdjust="spacing" textLength="1289.9961" x="806.08" y="328.3545">Zusammenfassung: Erl&#228;utere den Prozess zur Bestellung einer spezifischen technischen Konfiguration bei einem Messstellenbetreiber, beispielsweise f&#252;r ein intelligentes Messsystem.</text><line style="stroke:#181818;stroke-width:0.5;" x1="801.08" x2="2101.0761" y1="335.6563" y2="335.6563"/><text fill="#000000" font-family="sans-serif" font-size="14" lengthAdjust="spacing" textLength="348.2021" x="806.08" y="352.6514">Bestellung einer technischen Konfiguration (MSB)</text></g><!--class BGM_Z57_proc_2--><g class="entity" data-entity="BGM_Z57_proc_2" data-source-line="23" data-uid="ent0007" id="entity_BGM_Z57_proc_2"><rect fill="#F1F1F1" height="105.1563" rx="2.5" ry="2.5" style="stroke:#181818;stroke-width:0.5;" width="853.9893" x="2137.09" y="254.7969"/><ellipse cx="2499.4596" cy="274.9297" fill="#ADD1B2" rx="11" ry="11" style="stroke:#181818;stroke-width:1;"/><path d="M2502.4284,280.5703 Q2501.8503,280.8672 2501.2096,281.0078 Q2500.569,281.1641 2499.8659,281.1641 Q2497.3659,281.1641 2496.0378,279.5234 Q2494.7253,277.8672 2494.7253,274.7422 Q2494.7253,271.6172 2496.0378,269.9609 Q2497.3659,268.3047 2499.8659,268.3047 Q2500.569,268.3047 2501.2096,268.4609 Q2501.8659,268.6172 2502.4284,268.9141 L2502.4284,271.6328 Q2501.8034,271.0547 2501.2096,270.7891 Q2500.6159,270.5078 2499.9909,270.5078 Q2498.6471,270.5078 2497.9596,271.5859 Q2497.2721,272.6484 2497.2721,274.7422 Q2497.2721,276.8359 2497.9596,277.9141 Q2498.6471,278.9766 2499.9909,278.9766 Q2500.6159,278.9766 2501.2096,278.7109 Q2501.8034,278.4297 2502.4284,277.8516 L2502.4284,280.5703 Z " fill="#000000"/><text fill="#000000" font-family="sans-serif" font-size="12" font-style="italic" lengthAdjust="spacing" textLength="61.0605" x="2549.8044" y="270.9355">&#171;process&#187;</text><text fill="#000000" font-family="sans-serif" font-size="14" lengthAdjust="spacing" textLength="120.75" x="2519.9596" y="286.7607">BGM_Z57_proc_2</text><line style="stroke:#181818;stroke-width:0.5;" x1="2138.09" x2="2990.0793" y1="295.0625" y2="295.0625"/><text fill="#000000" font-family="sans-serif" font-size="14" lengthAdjust="spacing" textLength="317.9668" x="2143.09" y="312.0576">Sperrung und Entsperrung eines Anschlusses</text><text fill="#000000" font-family="sans-serif" font-size="14" lengthAdjust="spacing" textLength="138.3252" x="2143.09" y="328.3545">Gesetze: StromGVV</text><text fill="#000000" font-family="sans-serif" font-size="14" lengthAdjust="spacing" textLength="841.9893" x="2143.09" y="344.6514">Zusammenfassung: Beschreibe den End-to-End-Prozess f&#252;r die Sperrung und Wiederherstellung eines Netzanschlusses.</text><line style="stroke:#181818;stroke-width:0.5;" x1="2138.09" x2="2990.0793" y1="351.9531" y2="351.9531"/></g><!--link BGM_Z57 to BGM_Z57_msg_1--><g class="link" data-entity-1="BGM_Z57" data-entity-2="BGM_Z57_msg_1" data-source-line="16" data-uid="lnk4" id="link_BGM_Z57_BGM_Z57_msg_1"><path codeLine="16" d="M1263.74,137.8569 C1125.5,164.4069 938.6024,200.2855 768.9224,232.8655" fill="none" id="BGM_Z57-to-BGM_Z57_msg_1" style="stroke:#181818;stroke-width:1;"/><polygon fill="#181818" points="763.03,233.9969,772.6228,236.228,767.9403,233.0541,771.1143,228.3716,763.03,233.9969" style="stroke:#181818;stroke-width:1;"/><text fill="#000000" font-family="sans-serif" font-size="13" lengthAdjust="spacing" textLength="85.2363" x="984.08" y="200.5538">verwendet in</text></g><!--link BGM_Z57 to BGM_Z57_proc_1--><g class="link" data-entity-1="BGM_Z57" data-entity-2="BGM_Z57_proc_1" data-source-line="22" data-uid="lnk6" id="link_BGM_Z57_BGM_Z57_proc_1"><path codeLine="22" d="M1451.08,157.7669 C1451.08,187.9169 1451.08,218.9069 1451.08,248.4269" fill="none" id="BGM_Z57-to-BGM_Z57_proc_1" style="stroke:#181818;stroke-width:1;stroke-dasharray:7,7;"/><polygon fill="#181818" points="1451.08,254.4269,1455.08,245.4269,1451.08,249.4269,1447.08,245.4269,1451.08,254.4269" style="stroke:#181818;stroke-width:1;"/><text fill="#000000" font-family="sans-serif" font-size="13" lengthAdjust="spacing" textLength="91.6221" x="1452.08" y="200.5538">eingebettet in</text></g><!--link BGM_Z57 to BGM_Z57_proc_2--><g class="link" data-entity-1="BGM_Z57" data-entity-2="BGM_Z57_proc_2" data-source-line="28" data-uid="lnk8" id="link_BGM_Z57_BGM_Z57_proc_2"><path codeLine="28" d="M1638.63,136.3469 C1814.34,168.6269 2073.4687,216.2428 2274.9387,253.2528" fill="none" id="BGM_Z57-to-BGM_Z57_proc_2" style="stroke:#181818;stroke-width:1;stroke-dasharray:7,7;"/><polygon fill="#181818" points="2280.84,254.3369,2272.7108,248.7766,2275.9223,253.4335,2271.2654,256.645,2280.84,254.3369" style="stroke:#181818;stroke-width:1;"/><text fill="#000000" font-family="sans-serif" font-size="13" lengthAdjust="spacing" textLength="91.6221" x="2009.08" y="200.5538">eingebettet in</text></g><!--SRC=[dPBFRjD04CRlUOevWcH7YTCIrQeYjTHO1LAe38sKY-NOOtibUntjhbiQn9jmv36uvSNuragWIIXIE7YzVsQ-R-QtQuIfcAuImp8nLQB9fSjmwizFnxqKIsrNCLRqjKTqazJiq_hxWbKjZAbQMT1z8sd62lcKI0gY2yHzLCsAjMOVSxAAh0rNNJWBoOeCfwKKEYsHzQwHkIXQbHW1gHVJwFBb9YrQib8sgPKP1TBexTgAQBgG4AXQ-EZUjzrgureNyN1JSregaPR6fzlF7pu54GtxemG7y3Ny1TiH5pLBDF_OjCPMdrSsFkSgy-cj3NtTPAnz6Wq73etnmSMXuEhQiVqwzFwDGoZReRbtXk5qZ65yyfJ3qGISOvedkcqXpjiEu-br60_ZKH9x0-zay6furbzcEHXjxz9r9tkaVBfdzS0oOqD2xi5SgYP5pFcvdQ2VoQGZ-n-t6h9ciqAXKxq8GK_EGkpEMvtKk88Sfb3pAL3L-aThM35bqDfWf5Mh3at1PINoZUlp5InOT0arJI7LQR1Si54iy9eTUwwNWYlzW0bJllwfR3nWs51Hu860UfVxYEow_mHdlp_PP-NRv89XO9ubwXqGFUhEVxECZ6hgyExkRoI12y_VzjYH36JcciQrlotKhjDCyAxvJ736gcIrGrlJ3IoJFsNyau9tGE4N]--></g></svg>