<svg xmlns="http://www.w3.org/2000/svg" xmlns:xlink="http://www.w3.org/1999/xlink" contentStyleType="text/css" data-diagram-type="CLASS" height="370px" preserveAspectRatio="none" style="width:1214px;height:370px;background:#FFFFFF;" version="1.1" viewBox="0 0 1214 370" width="1214px" zoomAndPan="magnify"><title>Datenatlas - BGM:ZA6</title><defs/><g><g class="title" data-source-line="1"><text fill="#000000" font-family="sans-serif" font-size="14" font-weight="bold" lengthAdjust="spacing" textLength="173.9199" x="513.4743" y="22.9951">Datenatlas - BGM:ZA6</text></g><!--class BGM_ZA6--><g class="entity" data-entity="BGM_ZA6" data-source-line="2" data-uid="ent0002" id="entity_BGM_ZA6"><rect fill="#F1F1F1" height="96.8906" rx="2.5" ry="2.5" style="stroke:#181818;stroke-width:0.5;" width="360.3525" x="529.58" y="44.2969"/><ellipse cx="671.7026" cy="60.2969" fill="#ADD1B2" rx="11" ry="11" style="stroke:#181818;stroke-width:1;"/><path d="M674.6713,65.9375 Q674.0932,66.2344 673.4526,66.375 Q672.8119,66.5313 672.1088,66.5313 Q669.6088,66.5313 668.2807,64.8906 Q666.9682,63.2344 666.9682,60.1094 Q666.9682,56.9844 668.2807,55.3281 Q669.6088,53.6719 672.1088,53.6719 Q672.8119,53.6719 673.4526,53.8281 Q674.1088,53.9844 674.6713,54.2813 L674.6713,57 Q674.0463,56.4219 673.4526,56.1563 Q672.8588,55.875 672.2338,55.875 Q670.8901,55.875 670.2026,56.9531 Q669.5151,58.0156 669.5151,60.1094 Q669.5151,62.2031 670.2026,63.2813 Q670.8901,64.3438 672.2338,64.3438 Q672.8588,64.3438 673.4526,64.0781 Q674.0463,63.7969 674.6713,63.2188 L674.6713,65.9375 Z " fill="#000000"/><text fill="#000000" font-family="sans-serif" font-size="14" lengthAdjust="spacing" textLength="67.6074" x="692.2026" y="65.1436">BGM_ZA6</text><line style="stroke:#181818;stroke-width:0.5;" x1="530.58" x2="888.9325" y1="76.2969" y2="76.2969"/><text fill="#000000" font-family="sans-serif" font-size="14" lengthAdjust="spacing" textLength="224.0889" x="549.58" y="93.292">Name: Umbau der Messlokation</text><text fill="#000000" font-family="sans-serif" font-size="14" lengthAdjust="spacing" textLength="66.6436" x="549.58" y="109.5889">Prozesse:</text><rect fill="none" height="6" style="stroke:#C82930;stroke-width:1;" width="6" x="537.58" y="119.5391"/><text fill="#000000" font-family="sans-serif" font-size="14" lengthAdjust="spacing" textLength="334.3525" x="549.58" y="125.8857">Anforderung und &#220;bermittlung von Messwerten</text><line style="stroke:#181818;stroke-width:0.5;" x1="530.58" x2="888.9325" y1="133.1875" y2="133.1875"/></g><!--class BGM_ZA6_msg_1--><g class="entity" data-entity="BGM_ZA6_msg_1" data-source-line="7" data-uid="ent0003" id="entity_BGM_ZA6_msg_1"><rect fill="#F1F1F1" height="145.7813" rx="2.5" ry="2.5" style="stroke:#181818;stroke-width:0.5;" width="787.5166" x="7" y="218.1869"/><ellipse cx="336.3418" cy="234.1869" fill="#ADD1B2" rx="11" ry="11" style="stroke:#181818;stroke-width:1;"/><path d="M339.3105,239.8275 Q338.7324,240.1244 338.0918,240.265 Q337.4512,240.4213 336.748,240.4213 Q334.248,240.4213 332.9199,238.7806 Q331.6074,237.1244 331.6074,233.9994 Q331.6074,230.8744 332.9199,229.2181 Q334.248,227.5619 336.748,227.5619 Q337.4512,227.5619 338.0918,227.7181 Q338.748,227.8744 339.3105,228.1713 L339.3105,230.89 Q338.6855,230.3119 338.0918,230.0463 Q337.498,229.765 336.873,229.765 Q335.5293,229.765 334.8418,230.8431 Q334.1543,231.9056 334.1543,233.9994 Q334.1543,236.0931 334.8418,237.1713 Q335.5293,238.2338 336.873,238.2338 Q337.498,238.2338 338.0918,237.9681 Q338.6855,237.6869 339.3105,237.1088 L339.3105,239.8275 Z " fill="#000000"/><text fill="#000000" font-family="sans-serif" font-size="14" lengthAdjust="spacing" textLength="120.333" x="356.8418" y="239.0336">BGM_ZA6_msg_1</text><line style="stroke:#181818;stroke-width:0.5;" x1="8" x2="793.5166" y1="250.1869" y2="250.1869"/><text fill="#000000" font-family="sans-serif" font-size="14" lengthAdjust="spacing" textLength="172.0264" x="13" y="267.182">Nachricht: MSCONS 2.4c</text><text fill="#000000" font-family="sans-serif" font-size="14" lengthAdjust="spacing" textLength="112.3418" x="13" y="283.4789">Kontext: anf&#228;llt.</text><text fill="#000000" font-family="sans-serif" font-size="14" lengthAdjust="spacing" textLength="91.4033" x="13" y="299.7757">Pflichtfeld: Ja</text><text fill="#000000" font-family="sans-serif" font-size="14" lengthAdjust="spacing" textLength="775.5166" x="13" y="316.0726">Codes: OCR, ZA0, ZA1, ZA3, ZA4, ZA5, ZA6, ZA7, ZA8, ZA9, ZB0, ZB9, ZC2, ZC4, ZJ8, ZJ9, ZR1, ZR2, ZR3, ZR4</text><text fill="#000000" font-family="sans-serif" font-size="14" lengthAdjust="spacing" textLength="405.4463" x="13" y="332.3695">Prozesse: Anforderung und &#220;bermittlung von Messwerten</text><text fill="#000000" font-family="sans-serif" font-size="14" lengthAdjust="spacing" textLength="294.1641" x="13" y="348.6664">Quelle: MSCONS_MIG_2_4c_20231024.pdf</text><line style="stroke:#181818;stroke-width:0.5;" x1="8" x2="793.5166" y1="355.9681" y2="355.9681"/></g><!--class BGM_ZA6_proc_1--><g class="entity" data-entity="BGM_ZA6_proc_1" data-source-line="16" data-uid="ent0005" id="entity_BGM_ZA6_proc_1"><rect fill="#F1F1F1" height="105.1563" rx="2.5" ry="2.5" style="stroke:#181818;stroke-width:0.5;" width="378.2285" x="829.64" y="238.4969"/><ellipse cx="953.7943" cy="258.6297" fill="#ADD1B2" rx="11" ry="11" style="stroke:#181818;stroke-width:1;"/><path d="M956.763,264.2703 Q956.1849,264.5672 955.5443,264.7078 Q954.9037,264.8641 954.2005,264.8641 Q951.7005,264.8641 950.3724,263.2234 Q949.0599,261.5672 949.0599,258.4422 Q949.0599,255.3172 950.3724,253.6609 Q951.7005,252.0047 954.2005,252.0047 Q954.9037,252.0047 955.5443,252.1609 Q956.2005,252.3172 956.763,252.6141 L956.763,255.3328 Q956.138,254.7547 955.5443,254.4891 Q954.9505,254.2078 954.3255,254.2078 Q952.9818,254.2078 952.2943,255.2859 Q951.6068,256.3484 951.6068,258.4422 Q951.6068,260.5359 952.2943,261.6141 Q952.9818,262.6766 954.3255,262.6766 Q954.9505,262.6766 955.5443,262.4109 Q956.138,262.1297 956.763,261.5516 L956.763,264.2703 Z " fill="#000000"/><text fill="#000000" font-family="sans-serif" font-size="12" font-style="italic" lengthAdjust="spacing" textLength="61.0605" x="1004.474" y="254.6355">&#171;process&#187;</text><text fill="#000000" font-family="sans-serif" font-size="14" lengthAdjust="spacing" textLength="121.4199" x="974.2943" y="270.4607">BGM_ZA6_proc_1</text><line style="stroke:#181818;stroke-width:0.5;" x1="830.64" x2="1206.8685" y1="278.7625" y2="278.7625"/><text fill="#000000" font-family="sans-serif" font-size="14" lengthAdjust="spacing" textLength="334.3525" x="835.64" y="295.7576">Anforderung und &#220;bermittlung von Messwerten</text><text fill="#000000" font-family="sans-serif" font-size="14" lengthAdjust="spacing" textLength="105.0957" x="835.64" y="312.0545">Gesetze: MsbG</text><line style="stroke:#181818;stroke-width:0.5;" x1="830.64" x2="1206.8685" y1="319.3563" y2="319.3563"/><text fill="#000000" font-family="sans-serif" font-size="14" lengthAdjust="spacing" textLength="366.2285" x="835.64" y="336.3514">Zusammenfassung: Wie kann ein Marktpartner (z.B.</text></g><!--link BGM_ZA6 to BGM_ZA6_msg_1--><g class="link" data-entity-1="BGM_ZA6" data-entity-2="BGM_ZA6_msg_1" data-source-line="15" data-uid="lnk4" id="link_BGM_ZA6_BGM_ZA6_msg_1"><path codeLine="15" d="M634.56,141.5169 C598.48,164.4469 559.5344,189.1895 519.4744,214.6395" fill="none" id="BGM_ZA6-to-BGM_ZA6_msg_1" style="stroke:#181818;stroke-width:1;"/><polygon fill="#181818" points="514.41,217.8569,524.1516,216.407,518.6303,215.1757,519.8617,209.6545,514.41,217.8569" style="stroke:#181818;stroke-width:1;"/><text fill="#000000" font-family="sans-serif" font-size="13" lengthAdjust="spacing" textLength="85.2363" x="584.76" y="184.2538">verwendet in</text></g><!--link BGM_ZA6 to BGM_ZA6_proc_1--><g class="link" data-entity-1="BGM_ZA6" data-entity-2="BGM_ZA6_proc_1" data-source-line="21" data-uid="lnk6" id="link_BGM_ZA6_BGM_ZA6_proc_1"><path codeLine="21" d="M784.95,141.5169 C830.95,170.7469 884.756,204.9287 931.916,234.8987" fill="none" id="BGM_ZA6-to-BGM_ZA6_proc_1" style="stroke:#181818;stroke-width:1;stroke-dasharray:7,7;"/><polygon fill="#181818" points="936.98,238.1169,931.5295,229.9137,932.76,235.4351,927.2386,236.6657,936.98,238.1169" style="stroke:#181818;stroke-width:1;"/><text fill="#000000" font-family="sans-serif" font-size="13" lengthAdjust="spacing" textLength="91.6221" x="856.76" y="184.2538">eingebettet in</text></g><!--SRC=[bLBDQi904Bxx57FieGQDgMqN4KmAKelQHah1IrYJYGOt6zdTQB7qJNhic_XYdP4Mh3Sl7_C_ttoxhd0AuK4wrD8fQQ49uN0iveDk8oNNifUG1nyDW8aiKS1hkP0rP6XWZDQgQYrTKMbAFvjgJn4KP0CD6kYyCbHNwoNKEeF3rm9DMJYdEBAjz7703WqjRtp-tvUKTfcqVxUcArEaAoTWF8kcanduNf1IugdI3jyfB7L- -5RAUKmYLroReye4Z2H5eYf3As0QnTSm7xGOsWmTXe3XXg7BSCjmnt1F479no5RaCt3nYBCZZiKy9UP4pAFYu5I2ouu7UAbHAVoxC1a_3XC_2TB4R_cTTiiFl4sMaqP_hz5izi-K4h15iqETeOD2ducvCLLADRqU6xIstpygUo778LfqUoPf5qFovxMLPOawfrNK8E2jG5XBhG4BQfLcxJRIE4q_vMhlXTu9Vy_hdvCJtBN41JftFE47]--></g></svg>