<svg xmlns="http://www.w3.org/2000/svg" xmlns:xlink="http://www.w3.org/1999/xlink" contentStyleType="text/css" data-diagram-type="CLASS" height="370px" preserveAspectRatio="none" style="width:860px;height:370px;background:#FFFFFF;" version="1.1" viewBox="0 0 860 370" width="860px" zoomAndPan="magnify"><title>Datenatlas - BGM:1056</title><defs/><g><g class="title" data-source-line="1"><text fill="#000000" font-family="sans-serif" font-size="14" font-weight="bold" lengthAdjust="spacing" textLength="182.1572" x="332.2156" y="22.9951">Datenatlas - BGM:1056</text></g><!--class BGM_1056--><g class="entity" data-entity="BGM_1056" data-source-line="2" data-uid="ent0002" id="entity_BGM_1056"><rect fill="#F1F1F1" height="96.8906" rx="2.5" ry="2.5" style="stroke:#181818;stroke-width:0.5;" width="360.3525" x="263.3" y="44.2969"/><ellipse cx="401.6457" cy="60.2969" fill="#ADD1B2" rx="11" ry="11" style="stroke:#181818;stroke-width:1;"/><path d="M404.6145,65.9375 Q404.0363,66.2344 403.3957,66.375 Q402.7551,66.5313 402.052,66.5313 Q399.552,66.5313 398.2238,64.8906 Q396.9113,63.2344 396.9113,60.1094 Q396.9113,56.9844 398.2238,55.3281 Q399.552,53.6719 402.052,53.6719 Q402.7551,53.6719 403.3957,53.8281 Q404.052,53.9844 404.6145,54.2813 L404.6145,57 Q403.9895,56.4219 403.3957,56.1563 Q402.802,55.875 402.177,55.875 Q400.8332,55.875 400.1457,56.9531 Q399.4582,58.0156 399.4582,60.1094 Q399.4582,62.2031 400.1457,63.2813 Q400.8332,64.3438 402.177,64.3438 Q402.802,64.3438 403.3957,64.0781 Q403.9895,63.7969 404.6145,63.2188 L404.6145,65.9375 Z " fill="#000000"/><text fill="#000000" font-family="sans-serif" font-size="14" lengthAdjust="spacing" textLength="75.1611" x="422.1457" y="65.1436">BGM_1056</text><line style="stroke:#181818;stroke-width:0.5;" x1="264.3" x2="622.6525" y1="76.2969" y2="76.2969"/><text fill="#000000" font-family="sans-serif" font-size="14" lengthAdjust="spacing" textLength="168.9912" x="283.3" y="93.292">Name: Funktion, codiert</text><text fill="#000000" font-family="sans-serif" font-size="14" lengthAdjust="spacing" textLength="66.6436" x="283.3" y="109.5889">Prozesse:</text><rect fill="none" height="6" style="stroke:#C82930;stroke-width:1;" width="6" x="271.3" y="119.5391"/><text fill="#000000" font-family="sans-serif" font-size="14" lengthAdjust="spacing" textLength="334.3525" x="283.3" y="125.8857">Anforderung und &#220;bermittlung von Messwerten</text><line style="stroke:#181818;stroke-width:0.5;" x1="264.3" x2="622.6525" y1="133.1875" y2="133.1875"/></g><!--class BGM_1056_msg_1--><g class="entity" data-entity="BGM_1056_msg_1" data-source-line="7" data-uid="ent0003" id="entity_BGM_1056_msg_1"><rect fill="#F1F1F1" height="145.7813" rx="2.5" ry="2.5" style="stroke:#181818;stroke-width:0.5;" width="432.9502" x="7" y="218.1869"/><ellipse cx="155.2817" cy="234.1869" fill="#ADD1B2" rx="11" ry="11" style="stroke:#181818;stroke-width:1;"/><path d="M158.2505,239.8275 Q157.6724,240.1244 157.0317,240.265 Q156.3911,240.4213 155.688,240.4213 Q153.188,240.4213 151.8599,238.7806 Q150.5474,237.1244 150.5474,233.9994 Q150.5474,230.8744 151.8599,229.2181 Q153.188,227.5619 155.688,227.5619 Q156.3911,227.5619 157.0317,227.7181 Q157.688,227.8744 158.2505,228.1713 L158.2505,230.89 Q157.6255,230.3119 157.0317,230.0463 Q156.438,229.765 155.813,229.765 Q154.4692,229.765 153.7817,230.8431 Q153.0942,231.9056 153.0942,233.9994 Q153.0942,236.0931 153.7817,237.1713 Q154.4692,238.2338 155.813,238.2338 Q156.438,238.2338 157.0317,237.9681 Q157.6255,237.6869 158.2505,237.1088 L158.2505,239.8275 Z " fill="#000000"/><text fill="#000000" font-family="sans-serif" font-size="14" lengthAdjust="spacing" textLength="127.8867" x="175.7817" y="239.0336">BGM_1056_msg_1</text><line style="stroke:#181818;stroke-width:0.5;" x1="8" x2="438.9502" y1="250.1869" y2="250.1869"/><text fill="#000000" font-family="sans-serif" font-size="14" lengthAdjust="spacing" textLength="172.0264" x="13" y="267.182">Nachricht: MSCONS 2.4c</text><text fill="#000000" font-family="sans-serif" font-size="14" lengthAdjust="spacing" textLength="149.3447" x="13" y="283.4789">Kontext: Bemerkung:</text><text fill="#000000" font-family="sans-serif" font-size="14" lengthAdjust="spacing" textLength="91.4033" x="13" y="299.7757">Pflichtfeld: Ja</text><text fill="#000000" font-family="sans-serif" font-size="14" lengthAdjust="spacing" textLength="83.5488" x="13" y="316.0726">Codes: UNH</text><text fill="#000000" font-family="sans-serif" font-size="14" lengthAdjust="spacing" textLength="405.4463" x="13" y="332.3695">Prozesse: Anforderung und &#220;bermittlung von Messwerten</text><text fill="#000000" font-family="sans-serif" font-size="14" lengthAdjust="spacing" textLength="420.9502" x="13" y="348.6664">Quelle: MSCONS_MIG_2_4c_au&#223;erordentliche_20240726.pdf</text><line style="stroke:#181818;stroke-width:0.5;" x1="8" x2="438.9502" y1="355.9681" y2="355.9681"/></g><!--class BGM_1056_proc_1--><g class="entity" data-entity="BGM_1056_proc_1" data-source-line="16" data-uid="ent0005" id="entity_BGM_1056_proc_1"><rect fill="#F1F1F1" height="105.1563" rx="2.5" ry="2.5" style="stroke:#181818;stroke-width:0.5;" width="378.2285" x="475.36" y="238.4969"/><ellipse cx="595.7374" cy="258.6297" fill="#ADD1B2" rx="11" ry="11" style="stroke:#181818;stroke-width:1;"/><path d="M598.7062,264.2703 Q598.1281,264.5672 597.4874,264.7078 Q596.8468,264.8641 596.1437,264.8641 Q593.6437,264.8641 592.3156,263.2234 Q591.0031,261.5672 591.0031,258.4422 Q591.0031,255.3172 592.3156,253.6609 Q593.6437,252.0047 596.1437,252.0047 Q596.8468,252.0047 597.4874,252.1609 Q598.1437,252.3172 598.7062,252.6141 L598.7062,255.3328 Q598.0812,254.7547 597.4874,254.4891 Q596.8937,254.2078 596.2687,254.2078 Q594.9249,254.2078 594.2374,255.2859 Q593.5499,256.3484 593.5499,258.4422 Q593.5499,260.5359 594.2374,261.6141 Q594.9249,262.6766 596.2687,262.6766 Q596.8937,262.6766 597.4874,262.4109 Q598.0812,262.1297 598.7062,261.5516 L598.7062,264.2703 Z " fill="#000000"/><text fill="#000000" font-family="sans-serif" font-size="12" font-style="italic" lengthAdjust="spacing" textLength="61.0605" x="650.194" y="254.6355">&#171;process&#187;</text><text fill="#000000" font-family="sans-serif" font-size="14" lengthAdjust="spacing" textLength="128.9736" x="616.2374" y="270.4607">BGM_1056_proc_1</text><line style="stroke:#181818;stroke-width:0.5;" x1="476.36" x2="852.5885" y1="278.7625" y2="278.7625"/><text fill="#000000" font-family="sans-serif" font-size="14" lengthAdjust="spacing" textLength="334.3525" x="481.36" y="295.7576">Anforderung und &#220;bermittlung von Messwerten</text><text fill="#000000" font-family="sans-serif" font-size="14" lengthAdjust="spacing" textLength="105.0957" x="481.36" y="312.0545">Gesetze: MsbG</text><line style="stroke:#181818;stroke-width:0.5;" x1="476.36" x2="852.5885" y1="319.3563" y2="319.3563"/><text fill="#000000" font-family="sans-serif" font-size="14" lengthAdjust="spacing" textLength="366.2285" x="481.36" y="336.3514">Zusammenfassung: Wie kann ein Marktpartner (z.B.</text></g><!--link BGM_1056 to BGM_1056_msg_1--><g class="link" data-entity-1="BGM_1056" data-entity-2="BGM_1056_msg_1" data-source-line="15" data-uid="lnk4" id="link_BGM_1056_BGM_1056_msg_1"><path codeLine="15" d="M389.94,141.5169 C364.25,164.4469 337.3967,188.412 308.8767,213.862" fill="none" id="BGM_1056-to-BGM_1056_msg_1" style="stroke:#181818;stroke-width:1;"/><polygon fill="#181818" points="304.4,217.8569,313.7783,214.8491,308.1306,214.5278,308.4519,208.8801,304.4,217.8569" style="stroke:#181818;stroke-width:1;"/><text fill="#000000" font-family="sans-serif" font-size="13" lengthAdjust="spacing" textLength="85.2363" x="354.48" y="184.2538">verwendet in</text></g><!--link BGM_1056 to BGM_1056_proc_1--><g class="link" data-entity-1="BGM_1056" data-entity-2="BGM_1056_proc_1" data-source-line="21" data-uid="lnk6" id="link_BGM_1056_BGM_1056_proc_1"><path codeLine="21" d="M497.26,141.5169 C530.22,170.8069 567.9343,204.3121 601.6943,234.3021" fill="none" id="BGM_1056-to-BGM_1056_proc_1" style="stroke:#181818;stroke-width:1;stroke-dasharray:7,7;"/><polygon fill="#181818" points="606.18,238.2869,602.108,229.3192,602.4419,234.9662,596.7949,235.3002,606.18,238.2869" style="stroke:#181818;stroke-width:1;"/><text fill="#000000" font-family="sans-serif" font-size="13" lengthAdjust="spacing" textLength="91.6221" x="547.48" y="184.2538">eingebettet in</text></g><!--SRC=[bL3DQi904Bxx57FieGODri8YWMff-eFM8gNGox8c4rsIpChkH8kbRrBem_XYtPMsY3rvcs_-lX_MN25SAqPIN2a7RHYcOz7jNFHRcSSkG1aWlBS09gf60JSDbQmDdKDcSesM_MHgpHQTG-5hy5-kg30sHzlG0XhAOVSvHrjhvYfqrePWxDSt_XYfzN749MktaDqVncnfTRPa0UFPw74oWpZgPNxmO8ZnpRU7MACj_TT0FIsgi5nWbGkuLxupCZaw0S-JsqELf-a3U6gmgl1NWnpVfJAMlKogPlU5DdmY3imeuqxSwrp6_MYL5zxONtpjTdBiJy0QxGOfHmPDnncihCdyqc0G2gybIVQ1d2WyHOUy3ShTFFNujN6ghf4ApnKoWnUDK2eYGErFbIrvfImJMZZRHiFeq48K9V_aYN2tm3aoxrry0m00]--></g></svg>