<svg xmlns="http://www.w3.org/2000/svg" xmlns:xlink="http://www.w3.org/1999/xlink" contentStyleType="text/css" data-diagram-type="CLASS" height="387px" preserveAspectRatio="none" style="width:2021px;height:387px;background:#FFFFFF;" version="1.1" viewBox="0 0 2021 387" width="2021px" zoomAndPan="magnify"><title>Datenatlas - BGM:DE1225</title><defs/><g><g class="title" data-source-line="1"><text fill="#000000" font-family="sans-serif" font-size="14" font-weight="bold" lengthAdjust="spacing" textLength="203.3418" x="902.2929" y="22.9951">Datenatlas - BGM:DE1225</text></g><!--class BGM_DE1225--><g class="entity" data-entity="BGM_DE1225" data-source-line="2" data-uid="ent0002" id="entity_BGM_DE1225"><rect fill="#F1F1F1" height="113.1875" rx="2.5" ry="2.5" style="stroke:#181818;stroke-width:0.5;" width="304.4141" x="761.6" y="44.2969"/><ellipse cx="862.1635" cy="60.2969" fill="#ADD1B2" rx="11" ry="11" style="stroke:#181818;stroke-width:1;"/><path d="M865.1322,65.9375 Q864.5541,66.2344 863.9135,66.375 Q863.2729,66.5313 862.5697,66.5313 Q860.0697,66.5313 858.7416,64.8906 Q857.4291,63.2344 857.4291,60.1094 Q857.4291,56.9844 858.7416,55.3281 Q860.0697,53.6719 862.5697,53.6719 Q863.2729,53.6719 863.9135,53.8281 Q864.5697,53.9844 865.1322,54.2813 L865.1322,57 Q864.5072,56.4219 863.9135,56.1563 Q863.3197,55.875 862.6947,55.875 Q861.351,55.875 860.6635,56.9531 Q859.976,58.0156 859.976,60.1094 Q859.976,62.2031 860.6635,63.2813 Q861.351,64.3438 862.6947,64.3438 Q863.3197,64.3438 863.9135,64.0781 Q864.5072,63.7969 865.1322,63.2188 L865.1322,65.9375 Z " fill="#000000"/><text fill="#000000" font-family="sans-serif" font-size="14" lengthAdjust="spacing" textLength="94.7871" x="882.6635" y="65.1436">BGM_DE1225</text><line style="stroke:#181818;stroke-width:0.5;" x1="762.6" x2="1065.0141" y1="76.2969" y2="76.2969"/><text fill="#000000" font-family="sans-serif" font-size="14" lengthAdjust="spacing" textLength="278.4141" x="781.6" y="93.292">Name: Die Nachrichtenfunktion, codiert</text><text fill="#000000" font-family="sans-serif" font-size="14" lengthAdjust="spacing" textLength="66.6436" x="781.6" y="109.5889">Prozesse:</text><rect fill="none" height="6" style="stroke:#C82930;stroke-width:1;" width="6" x="769.6" y="119.5391"/><text fill="#000000" font-family="sans-serif" font-size="14" lengthAdjust="spacing" textLength="180.3457" x="781.6" y="125.8857">Netznutzungsabrechnung</text><rect fill="none" height="6" style="stroke:#C82930;stroke-width:1;" width="6" x="769.6" y="135.8359"/><text fill="#000000" font-family="sans-serif" font-size="14" lengthAdjust="spacing" textLength="223.2822" x="781.6" y="142.1826">Messstellenbetriebsabrechnung</text><line style="stroke:#181818;stroke-width:0.5;" x1="762.6" x2="1065.0141" y1="149.4844" y2="149.4844"/></g><!--class BGM_DE1225_msg_1--><g class="entity" data-entity="BGM_DE1225_msg_1" data-source-line="8" data-uid="ent0003" id="entity_BGM_DE1225_msg_1"><rect fill="#F1F1F1" height="145.7813" rx="2.5" ry="2.5" style="stroke:#181818;stroke-width:0.5;" width="495.6221" x="7" y="234.4869"/><ellipse cx="176.8047" cy="250.4869" fill="#ADD1B2" rx="11" ry="11" style="stroke:#181818;stroke-width:1;"/><path d="M179.7734,256.1275 Q179.1953,256.4244 178.5547,256.565 Q177.9141,256.7213 177.2109,256.7213 Q174.7109,256.7213 173.3828,255.0806 Q172.0703,253.4244 172.0703,250.2994 Q172.0703,247.1744 173.3828,245.5181 Q174.7109,243.8619 177.2109,243.8619 Q177.9141,243.8619 178.5547,244.0181 Q179.2109,244.1744 179.7734,244.4713 L179.7734,247.19 Q179.1484,246.6119 178.5547,246.3463 Q177.9609,246.065 177.3359,246.065 Q175.9922,246.065 175.3047,247.1431 Q174.6172,248.2056 174.6172,250.2994 Q174.6172,252.3931 175.3047,253.4713 Q175.9922,254.5338 177.3359,254.5338 Q177.9609,254.5338 178.5547,254.2681 Q179.1484,253.9869 179.7734,253.4088 L179.7734,256.1275 Z " fill="#000000"/><text fill="#000000" font-family="sans-serif" font-size="14" lengthAdjust="spacing" textLength="147.5127" x="197.3047" y="255.3336">BGM_DE1225_msg_1</text><line style="stroke:#181818;stroke-width:0.5;" x1="8" x2="501.6221" y1="266.4869" y2="266.4869"/><text fill="#000000" font-family="sans-serif" font-size="14" lengthAdjust="spacing" textLength="165.6484" x="13" y="283.482">Nachricht: INVOIC 2.8d.</text><text fill="#000000" font-family="sans-serif" font-size="14" lengthAdjust="spacing" textLength="358.8936" x="13" y="299.7789">Kontext: ausgestellte Rechnung   -   zu verwenden.</text><text fill="#000000" font-family="sans-serif" font-size="14" lengthAdjust="spacing" textLength="91.4033" x="13" y="316.0757">Pflichtfeld: Ja</text><text fill="#000000" font-family="sans-serif" font-size="14" lengthAdjust="spacing" textLength="115.3291" x="13" y="332.3726">Codes: 457, Z25</text><text fill="#000000" font-family="sans-serif" font-size="14" lengthAdjust="spacing" textLength="483.6221" x="13" y="348.6695">Prozesse: Netznutzungsabrechnung, Messstellenbetriebsabrechnung</text><text fill="#000000" font-family="sans-serif" font-size="14" lengthAdjust="spacing" textLength="290.3359" x="13" y="364.9664">Quelle: INVOIC_MIG_2_8d__20240619.pdf</text><line style="stroke:#181818;stroke-width:0.5;" x1="8" x2="501.6221" y1="372.2681" y2="372.2681"/></g><!--class BGM_DE1225_proc_1--><g class="entity" data-entity="BGM_DE1225_proc_1" data-source-line="17" data-uid="ent0005" id="entity_BGM_DE1225_proc_1"><rect fill="#F1F1F1" height="105.1563" rx="2.5" ry="2.5" style="stroke:#181818;stroke-width:0.5;" width="752.6465" x="537.49" y="254.7969"/><ellipse cx="835.2634" cy="274.9297" fill="#ADD1B2" rx="11" ry="11" style="stroke:#181818;stroke-width:1;"/><path d="M838.2322,280.5703 Q837.6541,280.8672 837.0134,281.0078 Q836.3728,281.1641 835.6697,281.1641 Q833.1697,281.1641 831.8416,279.5234 Q830.5291,277.8672 830.5291,274.7422 Q830.5291,271.6172 831.8416,269.9609 Q833.1697,268.3047 835.6697,268.3047 Q836.3728,268.3047 837.0134,268.4609 Q837.6697,268.6172 838.2322,268.9141 L838.2322,271.6328 Q837.6072,271.0547 837.0134,270.7891 Q836.4197,270.5078 835.7947,270.5078 Q834.4509,270.5078 833.7634,271.5859 Q833.0759,272.6484 833.0759,274.7422 Q833.0759,276.8359 833.7634,277.9141 Q834.4509,278.9766 835.7947,278.9766 Q836.4197,278.9766 837.0134,278.7109 Q837.6072,278.4297 838.2322,277.8516 L838.2322,280.5703 Z " fill="#000000"/><text fill="#000000" font-family="sans-serif" font-size="12" font-style="italic" lengthAdjust="spacing" textLength="61.0605" x="899.533" y="270.9355">&#171;process&#187;</text><text fill="#000000" font-family="sans-serif" font-size="14" lengthAdjust="spacing" textLength="148.5996" x="855.7634" y="286.7607">BGM_DE1225_proc_1</text><line style="stroke:#181818;stroke-width:0.5;" x1="538.49" x2="1289.1365" y1="295.0625" y2="295.0625"/><text fill="#000000" font-family="sans-serif" font-size="14" lengthAdjust="spacing" textLength="180.3457" x="543.49" y="312.0576">Netznutzungsabrechnung</text><text fill="#000000" font-family="sans-serif" font-size="14" lengthAdjust="spacing" textLength="218.0938" x="543.49" y="328.3545">Gesetze: StromNEV, StromNZV</text><text fill="#000000" font-family="sans-serif" font-size="14" lengthAdjust="spacing" textLength="740.6465" x="543.49" y="344.6514">Zusammenfassung: Wie funktioniert die Netznutzungsabrechnung zwischen Netzbetreiber und Lieferant?</text><line style="stroke:#181818;stroke-width:0.5;" x1="538.49" x2="1289.1365" y1="351.9531" y2="351.9531"/></g><!--class BGM_DE1225_proc_2--><g class="entity" data-entity="BGM_DE1225_proc_2" data-source-line="23" data-uid="ent0007" id="entity_BGM_DE1225_proc_2"><rect fill="#F1F1F1" height="105.1563" rx="2.5" ry="2.5" style="stroke:#181818;stroke-width:0.5;" width="690.2275" x="1324.7" y="254.7969"/><ellipse cx="1591.264" cy="274.9297" fill="#ADD1B2" rx="11" ry="11" style="stroke:#181818;stroke-width:1;"/><path d="M1594.2327,280.5703 Q1593.6546,280.8672 1593.014,281.0078 Q1592.3733,281.1641 1591.6702,281.1641 Q1589.1702,281.1641 1587.8421,279.5234 Q1586.5296,277.8672 1586.5296,274.7422 Q1586.5296,271.6172 1587.8421,269.9609 Q1589.1702,268.3047 1591.6702,268.3047 Q1592.3733,268.3047 1593.014,268.4609 Q1593.6702,268.6172 1594.2327,268.9141 L1594.2327,271.6328 Q1593.6077,271.0547 1593.014,270.7891 Q1592.4202,270.5078 1591.7952,270.5078 Q1590.4515,270.5078 1589.764,271.5859 Q1589.0765,272.6484 1589.0765,274.7422 Q1589.0765,276.8359 1589.764,277.9141 Q1590.4515,278.9766 1591.7952,278.9766 Q1592.4202,278.9766 1593.014,278.7109 Q1593.6077,278.4297 1594.2327,277.8516 L1594.2327,280.5703 Z " fill="#000000"/><text fill="#000000" font-family="sans-serif" font-size="12" font-style="italic" lengthAdjust="spacing" textLength="61.0605" x="1655.5335" y="270.9355">&#171;process&#187;</text><text fill="#000000" font-family="sans-serif" font-size="14" lengthAdjust="spacing" textLength="148.5996" x="1611.764" y="286.7607">BGM_DE1225_proc_2</text><line style="stroke:#181818;stroke-width:0.5;" x1="1325.7" x2="2013.9275" y1="295.0625" y2="295.0625"/><text fill="#000000" font-family="sans-serif" font-size="14" lengthAdjust="spacing" textLength="223.2822" x="1330.7" y="312.0576">Messstellenbetriebsabrechnung</text><text fill="#000000" font-family="sans-serif" font-size="14" lengthAdjust="spacing" textLength="105.0957" x="1330.7" y="328.3545">Gesetze: MsbG</text><text fill="#000000" font-family="sans-serif" font-size="14" lengthAdjust="spacing" textLength="678.2275" x="1330.7" y="344.6514">Zusammenfassung: Beschreibe den Prozess der Abrechnung von Messstellenbetriebsleistungen.</text><line style="stroke:#181818;stroke-width:0.5;" x1="1325.7" x2="2013.9275" y1="351.9531" y2="351.9531"/></g><!--link BGM_DE1225 to BGM_DE1225_msg_1--><g class="link" data-entity-1="BGM_DE1225" data-entity-2="BGM_DE1225_msg_1" data-source-line="16" data-uid="lnk4" id="link_BGM_DE1225_BGM_DE1225_msg_1"><path codeLine="16" d="M761.38,149.1869 C680.22,174.3769 584.3904,204.1084 493.5604,232.2984" fill="none" id="BGM_DE1225-to-BGM_DE1225_msg_1" style="stroke:#181818;stroke-width:1;"/><polygon fill="#181818" points="487.83,234.0769,497.6112,235.2294,492.6053,232.5948,495.2399,227.5889,487.83,234.0769" style="stroke:#181818;stroke-width:1;"/><text fill="#000000" font-family="sans-serif" font-size="13" lengthAdjust="spacing" textLength="85.2363" x="624.81" y="200.5538">verwendet in</text></g><!--link BGM_DE1225 to BGM_DE1225_proc_1--><g class="link" data-entity-1="BGM_DE1225" data-entity-2="BGM_DE1225_proc_1" data-source-line="22" data-uid="lnk6" id="link_BGM_DE1225_BGM_DE1225_proc_1"><path codeLine="22" d="M913.81,157.7669 C913.81,187.9169 913.81,218.9069 913.81,248.4269" fill="none" id="BGM_DE1225-to-BGM_DE1225_proc_1" style="stroke:#181818;stroke-width:1;stroke-dasharray:7,7;"/><polygon fill="#181818" points="913.81,254.4269,917.81,245.4269,913.81,249.4269,909.81,245.4269,913.81,254.4269" style="stroke:#181818;stroke-width:1;"/><text fill="#000000" font-family="sans-serif" font-size="13" lengthAdjust="spacing" textLength="91.6221" x="914.81" y="200.5538">eingebettet in</text></g><!--link BGM_DE1225 to BGM_DE1225_proc_2--><g class="link" data-entity-1="BGM_DE1225" data-entity-2="BGM_DE1225_proc_2" data-source-line="28" data-uid="lnk8" id="link_BGM_DE1225_BGM_DE1225_proc_2"><path codeLine="28" d="M1066.34,143.1469 C1184.85,175.2069 1344.1581,218.2903 1471.7081,252.7903" fill="none" id="BGM_DE1225-to-BGM_DE1225_proc_2" style="stroke:#181818;stroke-width:1;stroke-dasharray:7,7;"/><polygon fill="#181818" points="1477.5,254.3569,1469.8566,248.1457,1472.6734,253.0514,1467.7678,255.8682,1477.5,254.3569" style="stroke:#181818;stroke-width:1;"/><text fill="#000000" font-family="sans-serif" font-size="13" lengthAdjust="spacing" textLength="91.6221" x="1292.81" y="200.5538">eingebettet in</text></g><!--SRC=[XP9lJy903CRV-odw0M2H1VzT34R445GGDS64Dyjjry75xMRkEZKpVdTxE1Gpb7TDdrxl-RKbJHd2G18QIPbqq8R-S2m6bvqmFDXBEEDy8lfAmFiUm4JcA62WaQDaQNMovCTfQPv85wO5IQ4qMkB2gIqgT0u5ny2D9qYLAQagpSB9s6AoD1pMufWh7M6MeOcHhCPui-QZOINAtIBgr8Pg6m96azdjw0B2u5W5h5mNXl2Dyx9q2ror9uJxkklgNu2gX1UqhsWK6lzeccQ-MOgP4d0bENDHA7G2kWT7BPZpM3RG_e1gxU01k2kzjdOSZKV3A8oELHI5-s5t_x1p4ZohbBatXjzkzve34D_c2RHfZkdP5WcNdPxwW3trUbyp-siNGtGiiR47iaK-kPorwcW-OtLUEfddl6x-XUi5FF8Ph7VlrmxAtyNMvb2zQfSiqQnqFnJKCLeeZO8RZIbQQUZiDt8GzBR0241j5iWjw3_gi46zQodVy6CN3xVXzf49Lhw1hsLz1XnREFy1VIdCjgyor8vOzsUsap9iK7u2]--></g></svg>