<svg xmlns="http://www.w3.org/2000/svg" xmlns:xlink="http://www.w3.org/1999/xlink" contentStyleType="text/css" data-diagram-type="CLASS" height="387px" preserveAspectRatio="none" style="width:2021px;height:387px;background:#FFFFFF;" version="1.1" viewBox="0 0 2021 387" width="2021px" zoomAndPan="magnify"><title>Datenatlas - BGM:Z25</title><defs/><g><g class="title" data-source-line="1"><text fill="#000000" font-family="sans-serif" font-size="14" font-weight="bold" lengthAdjust="spacing" textLength="172.8262" x="917.5507" y="22.9951">Datenatlas - BGM:Z25</text></g><!--class BGM_Z25--><g class="entity" data-entity="BGM_Z25" data-source-line="2" data-uid="ent0002" id="entity_BGM_Z25"><rect fill="#F1F1F1" height="113.1875" rx="2.5" ry="2.5" style="stroke:#181818;stroke-width:0.5;" width="599.0225" x="614.3" y="44.2969"/><ellipse cx="876.0925" cy="60.2969" fill="#ADD1B2" rx="11" ry="11" style="stroke:#181818;stroke-width:1;"/><path d="M879.0612,65.9375 Q878.4831,66.2344 877.8425,66.375 Q877.2019,66.5313 876.4987,66.5313 Q873.9987,66.5313 872.6706,64.8906 Q871.3581,63.2344 871.3581,60.1094 Q871.3581,56.9844 872.6706,55.3281 Q873.9987,53.6719 876.4987,53.6719 Q877.2019,53.6719 877.8425,53.8281 Q878.4987,53.9844 879.0612,54.2813 L879.0612,57 Q878.4362,56.4219 877.8425,56.1563 Q877.2487,55.875 876.6237,55.875 Q875.28,55.875 874.5925,56.9531 Q873.905,58.0156 873.905,60.1094 Q873.905,62.2031 874.5925,63.2813 Q875.28,64.3438 876.6237,64.3438 Q877.2487,64.3438 877.8425,64.0781 Q878.4362,63.7969 879.0612,63.2188 L879.0612,65.9375 Z " fill="#000000"/><text fill="#000000" font-family="sans-serif" font-size="14" lengthAdjust="spacing" textLength="66.9375" x="896.5925" y="65.1436">BGM_Z25</text><line style="stroke:#181818;stroke-width:0.5;" x1="615.3" x2="1212.3225" y1="76.2969" y2="76.2969"/><text fill="#000000" font-family="sans-serif" font-size="14" lengthAdjust="spacing" textLength="66.6436" x="634.3" y="93.292">Prozesse:</text><rect fill="none" height="6" style="stroke:#C82930;stroke-width:1;" width="6" x="622.3" y="103.2422"/><text fill="#000000" font-family="sans-serif" font-size="14" lengthAdjust="spacing" textLength="180.3457" x="634.3" y="109.5889">Netznutzungsabrechnung</text><rect fill="none" height="6" style="stroke:#C82930;stroke-width:1;" width="6" x="622.3" y="119.5391"/><text fill="#000000" font-family="sans-serif" font-size="14" lengthAdjust="spacing" textLength="223.2822" x="634.3" y="125.8857">Messstellenbetriebsabrechnung</text><line style="stroke:#181818;stroke-width:0.5;" x1="615.3" x2="1212.3225" y1="133.1875" y2="133.1875"/><text fill="#000000" font-family="sans-serif" font-size="14" lengthAdjust="spacing" textLength="587.0225" x="620.3" y="150.1826">Name: Storno f&#252;r selbst ausgestellte Rechnung (Gutschrift im Gutschriftsverfahren)</text></g><!--class BGM_Z25_msg_1--><g class="entity" data-entity="BGM_Z25_msg_1" data-source-line="8" data-uid="ent0003" id="entity_BGM_Z25_msg_1"><rect fill="#F1F1F1" height="145.7813" rx="2.5" ry="2.5" style="stroke:#181818;stroke-width:0.5;" width="495.6221" x="7" y="234.4869"/><ellipse cx="190.7295" cy="250.4869" fill="#ADD1B2" rx="11" ry="11" style="stroke:#181818;stroke-width:1;"/><path d="M193.6982,256.1275 Q193.1201,256.4244 192.4795,256.565 Q191.8389,256.7213 191.1357,256.7213 Q188.6357,256.7213 187.3076,255.0806 Q185.9951,253.4244 185.9951,250.2994 Q185.9951,247.1744 187.3076,245.5181 Q188.6357,243.8619 191.1357,243.8619 Q191.8389,243.8619 192.4795,244.0181 Q193.1357,244.1744 193.6982,244.4713 L193.6982,247.19 Q193.0732,246.6119 192.4795,246.3463 Q191.8857,246.065 191.2607,246.065 Q189.917,246.065 189.2295,247.1431 Q188.542,248.2056 188.542,250.2994 Q188.542,252.3931 189.2295,253.4713 Q189.917,254.5338 191.2607,254.5338 Q191.8857,254.5338 192.4795,254.2681 Q193.0732,253.9869 193.6982,253.4088 L193.6982,256.1275 Z " fill="#000000"/><text fill="#000000" font-family="sans-serif" font-size="14" lengthAdjust="spacing" textLength="119.6631" x="211.2295" y="255.3336">BGM_Z25_msg_1</text><line style="stroke:#181818;stroke-width:0.5;" x1="8" x2="501.6221" y1="266.4869" y2="266.4869"/><text fill="#000000" font-family="sans-serif" font-size="14" lengthAdjust="spacing" textLength="165.6484" x="13" y="283.482">Nachricht: INVOIC 2.8d.</text><text fill="#000000" font-family="sans-serif" font-size="14" lengthAdjust="spacing" textLength="358.8936" x="13" y="299.7789">Kontext: ausgestellte Rechnung   -   zu verwenden.</text><text fill="#000000" font-family="sans-serif" font-size="14" lengthAdjust="spacing" textLength="91.4033" x="13" y="316.0757">Pflichtfeld: Ja</text><text fill="#000000" font-family="sans-serif" font-size="14" lengthAdjust="spacing" textLength="115.3291" x="13" y="332.3726">Codes: 457, Z25</text><text fill="#000000" font-family="sans-serif" font-size="14" lengthAdjust="spacing" textLength="483.6221" x="13" y="348.6695">Prozesse: Netznutzungsabrechnung, Messstellenbetriebsabrechnung</text><text fill="#000000" font-family="sans-serif" font-size="14" lengthAdjust="spacing" textLength="290.3359" x="13" y="364.9664">Quelle: INVOIC_MIG_2_8d__20240619.pdf</text><line style="stroke:#181818;stroke-width:0.5;" x1="8" x2="501.6221" y1="372.2681" y2="372.2681"/></g><!--class BGM_Z25_proc_1--><g class="entity" data-entity="BGM_Z25_proc_1" data-source-line="17" data-uid="ent0005" id="entity_BGM_Z25_proc_1"><rect fill="#F1F1F1" height="105.1563" rx="2.5" ry="2.5" style="stroke:#181818;stroke-width:0.5;" width="752.6465" x="537.49" y="254.7969"/><ellipse cx="849.1882" cy="274.9297" fill="#ADD1B2" rx="11" ry="11" style="stroke:#181818;stroke-width:1;"/><path d="M852.157,280.5703 Q851.5789,280.8672 850.9382,281.0078 Q850.2976,281.1641 849.5945,281.1641 Q847.0945,281.1641 845.7664,279.5234 Q844.4539,277.8672 844.4539,274.7422 Q844.4539,271.6172 845.7664,269.9609 Q847.0945,268.3047 849.5945,268.3047 Q850.2976,268.3047 850.9382,268.4609 Q851.5945,268.6172 852.157,268.9141 L852.157,271.6328 Q851.532,271.0547 850.9382,270.7891 Q850.3445,270.5078 849.7195,270.5078 Q848.3757,270.5078 847.6882,271.5859 Q847.0007,272.6484 847.0007,274.7422 Q847.0007,276.8359 847.6882,277.9141 Q848.3757,278.9766 849.7195,278.9766 Q850.3445,278.9766 850.9382,278.7109 Q851.532,278.4297 852.157,277.8516 L852.157,280.5703 Z " fill="#000000"/><text fill="#000000" font-family="sans-serif" font-size="12" font-style="italic" lengthAdjust="spacing" textLength="61.0605" x="899.533" y="270.9355">&#171;process&#187;</text><text fill="#000000" font-family="sans-serif" font-size="14" lengthAdjust="spacing" textLength="120.75" x="869.6882" y="286.7607">BGM_Z25_proc_1</text><line style="stroke:#181818;stroke-width:0.5;" x1="538.49" x2="1289.1365" y1="295.0625" y2="295.0625"/><text fill="#000000" font-family="sans-serif" font-size="14" lengthAdjust="spacing" textLength="180.3457" x="543.49" y="312.0576">Netznutzungsabrechnung</text><text fill="#000000" font-family="sans-serif" font-size="14" lengthAdjust="spacing" textLength="218.0938" x="543.49" y="328.3545">Gesetze: StromNEV, StromNZV</text><text fill="#000000" font-family="sans-serif" font-size="14" lengthAdjust="spacing" textLength="740.6465" x="543.49" y="344.6514">Zusammenfassung: Wie funktioniert die Netznutzungsabrechnung zwischen Netzbetreiber und Lieferant?</text><line style="stroke:#181818;stroke-width:0.5;" x1="538.49" x2="1289.1365" y1="351.9531" y2="351.9531"/></g><!--class BGM_Z25_proc_2--><g class="entity" data-entity="BGM_Z25_proc_2" data-source-line="23" data-uid="ent0007" id="entity_BGM_Z25_proc_2"><rect fill="#F1F1F1" height="105.1563" rx="2.5" ry="2.5" style="stroke:#181818;stroke-width:0.5;" width="690.2275" x="1324.7" y="254.7969"/><ellipse cx="1605.1888" cy="274.9297" fill="#ADD1B2" rx="11" ry="11" style="stroke:#181818;stroke-width:1;"/><path d="M1608.1575,280.5703 Q1607.5794,280.8672 1606.9388,281.0078 Q1606.2981,281.1641 1605.595,281.1641 Q1603.095,281.1641 1601.7669,279.5234 Q1600.4544,277.8672 1600.4544,274.7422 Q1600.4544,271.6172 1601.7669,269.9609 Q1603.095,268.3047 1605.595,268.3047 Q1606.2981,268.3047 1606.9388,268.4609 Q1607.595,268.6172 1608.1575,268.9141 L1608.1575,271.6328 Q1607.5325,271.0547 1606.9388,270.7891 Q1606.345,270.5078 1605.72,270.5078 Q1604.3763,270.5078 1603.6888,271.5859 Q1603.0013,272.6484 1603.0013,274.7422 Q1603.0013,276.8359 1603.6888,277.9141 Q1604.3763,278.9766 1605.72,278.9766 Q1606.345,278.9766 1606.9388,278.7109 Q1607.5325,278.4297 1608.1575,277.8516 L1608.1575,280.5703 Z " fill="#000000"/><text fill="#000000" font-family="sans-serif" font-size="12" font-style="italic" lengthAdjust="spacing" textLength="61.0605" x="1655.5335" y="270.9355">&#171;process&#187;</text><text fill="#000000" font-family="sans-serif" font-size="14" lengthAdjust="spacing" textLength="120.75" x="1625.6888" y="286.7607">BGM_Z25_proc_2</text><line style="stroke:#181818;stroke-width:0.5;" x1="1325.7" x2="2013.9275" y1="295.0625" y2="295.0625"/><text fill="#000000" font-family="sans-serif" font-size="14" lengthAdjust="spacing" textLength="223.2822" x="1330.7" y="312.0576">Messstellenbetriebsabrechnung</text><text fill="#000000" font-family="sans-serif" font-size="14" lengthAdjust="spacing" textLength="105.0957" x="1330.7" y="328.3545">Gesetze: MsbG</text><text fill="#000000" font-family="sans-serif" font-size="14" lengthAdjust="spacing" textLength="678.2275" x="1330.7" y="344.6514">Zusammenfassung: Beschreibe den Prozess der Abrechnung von Messstellenbetriebsleistungen.</text><line style="stroke:#181818;stroke-width:0.5;" x1="1325.7" x2="2013.9275" y1="351.9531" y2="351.9531"/></g><!--link BGM_Z25 to BGM_Z25_msg_1--><g class="link" data-entity-1="BGM_Z25" data-entity-2="BGM_Z25_msg_1" data-source-line="16" data-uid="lnk4" id="link_BGM_Z25_BGM_Z25_msg_1"><path codeLine="16" d="M733.3,157.9069 C657.56,181.4069 574.2605,207.2589 493.6505,232.2689" fill="none" id="BGM_Z25-to-BGM_Z25_msg_1" style="stroke:#181818;stroke-width:1;"/><polygon fill="#181818" points="487.92,234.0469,497.7011,235.2003,492.6954,232.5653,495.3305,227.5596,487.92,234.0469" style="stroke:#181818;stroke-width:1;"/><text fill="#000000" font-family="sans-serif" font-size="13" lengthAdjust="spacing" textLength="85.2363" x="624.81" y="200.5538">verwendet in</text></g><!--link BGM_Z25 to BGM_Z25_proc_1--><g class="link" data-entity-1="BGM_Z25" data-entity-2="BGM_Z25_proc_1" data-source-line="22" data-uid="lnk6" id="link_BGM_Z25_BGM_Z25_proc_1"><path codeLine="22" d="M913.81,157.7669 C913.81,187.9169 913.81,218.9069 913.81,248.4269" fill="none" id="BGM_Z25-to-BGM_Z25_proc_1" style="stroke:#181818;stroke-width:1;stroke-dasharray:7,7;"/><polygon fill="#181818" points="913.81,254.4269,917.81,245.4269,913.81,249.4269,909.81,245.4269,913.81,254.4269" style="stroke:#181818;stroke-width:1;"/><text fill="#000000" font-family="sans-serif" font-size="13" lengthAdjust="spacing" textLength="91.6221" x="914.81" y="200.5538">eingebettet in</text></g><!--link BGM_Z25 to BGM_Z25_proc_2--><g class="link" data-entity-1="BGM_Z25" data-entity-2="BGM_Z25_proc_2" data-source-line="28" data-uid="lnk8" id="link_BGM_Z25_BGM_Z25_proc_2"><path codeLine="28" d="M1121.14,157.9669 C1232.39,188.0669 1362.8182,223.3401 1471.6882,252.7901" fill="none" id="BGM_Z25-to-BGM_Z25_proc_2" style="stroke:#181818;stroke-width:1;stroke-dasharray:7,7;"/><polygon fill="#181818" points="1477.48,254.3569,1469.8367,248.1456,1472.6535,253.0513,1467.7478,255.868,1477.48,254.3569" style="stroke:#181818;stroke-width:1;"/><text fill="#000000" font-family="sans-serif" font-size="13" lengthAdjust="spacing" textLength="91.6221" x="1292.81" y="200.5538">eingebettet in</text></g><!--SRC=[XPBDRjim3CVlVGeUDo0nMgFTEgF8q8_1oBPatGPaG2w6R5E9K9ig9AeTNEpDTkkBbSgIDakJzaRgJv7yaMJ33SA5OYJ5ZVBGXxDyb4tJexrAN1-zGZousmCOgnOp-CdMaGLz_zU1nwRq32hu6Nh6fc647rZDAT0CtkI1VJLtHZEO5fuyVuDEgxb3UYjPBvtjq7lCn0QfFqRkA70dARmgtJBRKXn9vA8GKedi39RhCN_-Rxfe_QmuMBOUIrTppc0uddmRdaEQ7DU9A5yiCVwMz-qGiIX05q1wlaMgaUAdIzt4P1gREeFFIbxEROq-WyEZzps8qrlZsa7KUmK6u7k8sghZOZJCYxGuheiYtKyFzzyTV4YkQotGgntr-uCDzEonRLa1RKpdsjbAOavEeY6j30R_HhLh_ZbwaHONu6mx_ZJfBQtfHDHfyAfjaRIKaFWCVXa47UYAZIM3Zg6MX-t9eRirSXj82ptE0as93WBLyDMWHgU8FwwH9ibW4oC3D3H3-SmxOTDdiA-ju95vvCjy6-KPngEExOBSnchfOZiuVUAxiRIjL8F6i-Zng5w0Iv_1FG00]--></g></svg>