<svg xmlns="http://www.w3.org/2000/svg" xmlns:xlink="http://www.w3.org/1999/xlink" contentStyleType="text/css" data-diagram-type="CLASS" height="370px" preserveAspectRatio="none" style="width:1771px;height:370px;background:#FFFFFF;" version="1.1" viewBox="0 0 1771 370" width="1771px" zoomAndPan="magnify"><title>Datenatlas - BGM:9</title><defs/><g><g class="title" data-source-line="1"><text fill="#000000" font-family="sans-serif" font-size="14" font-weight="bold" lengthAdjust="spacing" textLength="152.9336" x="802.2264" y="22.9951">Datenatlas - BGM:9</text></g><!--class BGM_9--><g class="entity" data-entity="BGM_9" data-source-line="2" data-uid="ent0002" id="entity_BGM_9"><rect fill="#F1F1F1" height="96.8906" rx="2.5" ry="2.5" style="stroke:#181818;stroke-width:0.5;" width="259.7754" x="526.18" y="44.2969"/><ellipse cx="627.598" cy="60.2969" fill="#ADD1B2" rx="11" ry="11" style="stroke:#181818;stroke-width:1;"/><path d="M630.5667,65.9375 Q629.9886,66.2344 629.348,66.375 Q628.7073,66.5313 628.0042,66.5313 Q625.5042,66.5313 624.1761,64.8906 Q622.8636,63.2344 622.8636,60.1094 Q622.8636,56.9844 624.1761,55.3281 Q625.5042,53.6719 628.0042,53.6719 Q628.7073,53.6719 629.348,53.8281 Q630.0042,53.9844 630.5667,54.2813 L630.5667,57 Q629.9417,56.4219 629.348,56.1563 Q628.7542,55.875 628.1292,55.875 Q626.7855,55.875 626.098,56.9531 Q625.4105,58.0156 625.4105,60.1094 Q625.4105,62.2031 626.098,63.2813 Q626.7855,64.3438 628.1292,64.3438 Q628.7542,64.3438 629.348,64.0781 Q629.9417,63.7969 630.5667,63.2188 L630.5667,65.9375 Z " fill="#000000"/><text fill="#000000" font-family="sans-serif" font-size="14" lengthAdjust="spacing" textLength="48.4395" x="648.098" y="65.1436">BGM_9</text><line style="stroke:#181818;stroke-width:0.5;" x1="527.18" x2="784.9554" y1="76.2969" y2="76.2969"/><text fill="#000000" font-family="sans-serif" font-size="14" lengthAdjust="spacing" textLength="233.7754" x="546.18" y="93.292">Name: Nachrichtenfunktion-Code</text><text fill="#000000" font-family="sans-serif" font-size="14" lengthAdjust="spacing" textLength="66.6436" x="546.18" y="109.5889">Prozesse:</text><rect fill="none" height="6" style="stroke:#C82930;stroke-width:1;" width="6" x="534.18" y="119.5391"/><text fill="#000000" font-family="sans-serif" font-size="14" lengthAdjust="spacing" textLength="180.3457" x="546.18" y="125.8857">Netznutzungsabrechnung</text><line style="stroke:#181818;stroke-width:0.5;" x1="527.18" x2="784.9554" y1="133.1875" y2="133.1875"/></g><!--class BGM_9_msg_1--><g class="entity" data-entity="BGM_9_msg_1" data-source-line="7" data-uid="ent0003" id="entity_BGM_9_msg_1"><rect fill="#F1F1F1" height="145.7813" rx="2.5" ry="2.5" style="stroke:#181818;stroke-width:0.5;" width="296.1357" x="7" y="218.1869"/><ellipse cx="100.2354" cy="234.1869" fill="#ADD1B2" rx="11" ry="11" style="stroke:#181818;stroke-width:1;"/><path d="M103.2041,239.8275 Q102.626,240.1244 101.9854,240.265 Q101.3447,240.4213 100.6416,240.4213 Q98.1416,240.4213 96.8135,238.7806 Q95.501,237.1244 95.501,233.9994 Q95.501,230.8744 96.8135,229.2181 Q98.1416,227.5619 100.6416,227.5619 Q101.3447,227.5619 101.9854,227.7181 Q102.6416,227.8744 103.2041,228.1713 L103.2041,230.89 Q102.5791,230.3119 101.9854,230.0463 Q101.3916,229.765 100.7666,229.765 Q99.4229,229.765 98.7354,230.8431 Q98.0479,231.9056 98.0479,233.9994 Q98.0479,236.0931 98.7354,237.1713 Q99.4229,238.2338 100.7666,238.2338 Q101.3916,238.2338 101.9854,237.9681 Q102.5791,237.6869 103.2041,237.1088 L103.2041,239.8275 Z " fill="#000000"/><text fill="#000000" font-family="sans-serif" font-size="14" lengthAdjust="spacing" textLength="101.165" x="120.7354" y="239.0336">BGM_9_msg_1</text><line style="stroke:#181818;stroke-width:0.5;" x1="8" x2="302.1357" y1="250.1869" y2="250.1869"/><text fill="#000000" font-family="sans-serif" font-size="14" lengthAdjust="spacing" textLength="161.998" x="13" y="267.182">Nachricht: INSRPT 1.1a</text><text fill="#000000" font-family="sans-serif" font-size="14" lengthAdjust="spacing" textLength="123.0605" x="13" y="283.4789">Kontext: Beispiel:</text><text fill="#000000" font-family="sans-serif" font-size="14" lengthAdjust="spacing" textLength="91.4033" x="13" y="299.7757">Pflichtfeld: Ja</text><text fill="#000000" font-family="sans-serif" font-size="14" lengthAdjust="spacing" textLength="164.9785" x="13" y="316.0726">Codes: 01, 10, 32, BGM</text><text fill="#000000" font-family="sans-serif" font-size="14" lengthAdjust="spacing" textLength="251.4395" x="13" y="332.3695">Prozesse: Netznutzungsabrechnung</text><text fill="#000000" font-family="sans-serif" font-size="14" lengthAdjust="spacing" textLength="284.1357" x="13" y="348.6664">Quelle: INSRPT_MIG_1_1a_20211001.pdf</text><line style="stroke:#181818;stroke-width:0.5;" x1="8" x2="302.1357" y1="355.9681" y2="355.9681"/></g><!--class BGM_9_msg_2--><g class="entity" data-entity="BGM_9_msg_2" data-source-line="16" data-uid="ent0005" id="entity_BGM_9_msg_2"><rect fill="#F1F1F1" height="129.4844" rx="2.5" ry="2.5" style="stroke:#181818;stroke-width:0.5;" width="300.0254" x="338.06" y="226.3369"/><ellipse cx="433.2402" cy="242.3369" fill="#ADD1B2" rx="11" ry="11" style="stroke:#181818;stroke-width:1;"/><path d="M436.2089,247.9775 Q435.6308,248.2744 434.9902,248.415 Q434.3496,248.5713 433.6464,248.5713 Q431.1464,248.5713 429.8183,246.9306 Q428.5058,245.2744 428.5058,242.1494 Q428.5058,239.0244 429.8183,237.3681 Q431.1464,235.7119 433.6464,235.7119 Q434.3496,235.7119 434.9902,235.8681 Q435.6464,236.0244 436.2089,236.3213 L436.2089,239.04 Q435.5839,238.4619 434.9902,238.1963 Q434.3964,237.915 433.7714,237.915 Q432.4277,237.915 431.7402,238.9931 Q431.0527,240.0556 431.0527,242.1494 Q431.0527,244.2431 431.7402,245.3213 Q432.4277,246.3838 433.7714,246.3838 Q434.3964,246.3838 434.9902,246.1181 Q435.5839,245.8369 436.2089,245.2588 L436.2089,247.9775 Z " fill="#000000"/><text fill="#000000" font-family="sans-serif" font-size="14" lengthAdjust="spacing" textLength="101.165" x="453.7402" y="247.1836">BGM_9_msg_2</text><line style="stroke:#181818;stroke-width:0.5;" x1="339.06" x2="637.0854" y1="258.3369" y2="258.3369"/><text fill="#000000" font-family="sans-serif" font-size="14" lengthAdjust="spacing" textLength="165.8877" x="344.06" y="275.332">Nachricht: ORDCHG 1.1</text><text fill="#000000" font-family="sans-serif" font-size="14" lengthAdjust="spacing" textLength="204.1143" x="344.06" y="291.6289">Kontext: Nachrichtenstruktur</text><text fill="#000000" font-family="sans-serif" font-size="14" lengthAdjust="spacing" textLength="91.4033" x="344.06" y="307.9257">Pflichtfeld: Ja</text><text fill="#000000" font-family="sans-serif" font-size="14" lengthAdjust="spacing" textLength="153.166" x="344.06" y="324.2226">Codes: 03, 18, 31, UN</text><text fill="#000000" font-family="sans-serif" font-size="14" lengthAdjust="spacing" textLength="288.0254" x="344.06" y="340.5195">Quelle: ORDCHG_MIG_1_1_20230331.pdf</text><line style="stroke:#181818;stroke-width:0.5;" x1="339.06" x2="637.0854" y1="347.8213" y2="347.8213"/></g><!--class BGM_9_msg_3--><g class="entity" data-entity="BGM_9_msg_3" data-source-line="24" data-uid="ent0007" id="entity_BGM_9_msg_3"><rect fill="#F1F1F1" height="145.7813" rx="2.5" ry="2.5" style="stroke:#181818;stroke-width:0.5;" width="303.0811" x="673.53" y="218.1869"/><ellipse cx="770.238" cy="234.1869" fill="#ADD1B2" rx="11" ry="11" style="stroke:#181818;stroke-width:1;"/><path d="M773.2068,239.8275 Q772.6286,240.1244 771.988,240.265 Q771.3474,240.4213 770.6443,240.4213 Q768.1443,240.4213 766.8161,238.7806 Q765.5036,237.1244 765.5036,233.9994 Q765.5036,230.8744 766.8161,229.2181 Q768.1443,227.5619 770.6443,227.5619 Q771.3474,227.5619 771.988,227.7181 Q772.6443,227.8744 773.2068,228.1713 L773.2068,230.89 Q772.5818,230.3119 771.988,230.0463 Q771.3943,229.765 770.7693,229.765 Q769.4255,229.765 768.738,230.8431 Q768.0505,231.9056 768.0505,233.9994 Q768.0505,236.0931 768.738,237.1713 Q769.4255,238.2338 770.7693,238.2338 Q771.3943,238.2338 771.988,237.9681 Q772.5818,237.6869 773.2068,237.1088 L773.2068,239.8275 Z " fill="#000000"/><text fill="#000000" font-family="sans-serif" font-size="14" lengthAdjust="spacing" textLength="101.165" x="790.738" y="239.0336">BGM_9_msg_3</text><line style="stroke:#181818;stroke-width:0.5;" x1="674.53" x2="975.6111" y1="250.1869" y2="250.1869"/><text fill="#000000" font-family="sans-serif" font-size="14" lengthAdjust="spacing" textLength="171.4932" x="679.53" y="267.182">Nachricht: REMADV 2.9c</text><text fill="#000000" font-family="sans-serif" font-size="14" lengthAdjust="spacing" textLength="204.1143" x="679.53" y="283.4789">Kontext: Nachrichtenstruktur</text><text fill="#000000" font-family="sans-serif" font-size="14" lengthAdjust="spacing" textLength="91.4033" x="679.53" y="299.7757">Pflichtfeld: Ja</text><text fill="#000000" font-family="sans-serif" font-size="14" lengthAdjust="spacing" textLength="153.166" x="679.53" y="316.0726">Codes: 10, 24, 33, UN</text><text fill="#000000" font-family="sans-serif" font-size="14" lengthAdjust="spacing" textLength="251.4395" x="679.53" y="332.3695">Prozesse: Netznutzungsabrechnung</text><text fill="#000000" font-family="sans-serif" font-size="14" lengthAdjust="spacing" textLength="291.0811" x="679.53" y="348.6664">Quelle: REMADV_MIG_2.9c_20231024.pdf</text><line style="stroke:#181818;stroke-width:0.5;" x1="674.53" x2="975.6111" y1="355.9681" y2="355.9681"/></g><!--class BGM_9_proc_1--><g class="entity" data-entity="BGM_9_proc_1" data-source-line="33" data-uid="ent0009" id="entity_BGM_9_proc_1"><rect fill="#F1F1F1" height="105.1563" rx="2.5" ry="2.5" style="stroke:#181818;stroke-width:0.5;" width="752.6465" x="1011.74" y="238.4969"/><ellipse cx="1332.6873" cy="258.6297" fill="#ADD1B2" rx="11" ry="11" style="stroke:#181818;stroke-width:1;"/><path d="M1335.656,264.2703 Q1335.0779,264.5672 1334.4373,264.7078 Q1333.7966,264.8641 1333.0935,264.8641 Q1330.5935,264.8641 1329.2654,263.2234 Q1327.9529,261.5672 1327.9529,258.4422 Q1327.9529,255.3172 1329.2654,253.6609 Q1330.5935,252.0047 1333.0935,252.0047 Q1333.7966,252.0047 1334.4373,252.1609 Q1335.0935,252.3172 1335.656,252.6141 L1335.656,255.3328 Q1335.031,254.7547 1334.4373,254.4891 Q1333.8435,254.2078 1333.2185,254.2078 Q1331.8748,254.2078 1331.1873,255.2859 Q1330.4998,256.3484 1330.4998,258.4422 Q1330.4998,260.5359 1331.1873,261.6141 Q1331.8748,262.6766 1333.2185,262.6766 Q1333.8435,262.6766 1334.4373,262.4109 Q1335.031,262.1297 1335.656,261.5516 L1335.656,264.2703 Z " fill="#000000"/><text fill="#000000" font-family="sans-serif" font-size="12" font-style="italic" lengthAdjust="spacing" textLength="61.0605" x="1373.783" y="254.6355">&#171;process&#187;</text><text fill="#000000" font-family="sans-serif" font-size="14" lengthAdjust="spacing" textLength="102.252" x="1353.1873" y="270.4607">BGM_9_proc_1</text><line style="stroke:#181818;stroke-width:0.5;" x1="1012.74" x2="1763.3865" y1="278.7625" y2="278.7625"/><text fill="#000000" font-family="sans-serif" font-size="14" lengthAdjust="spacing" textLength="180.3457" x="1017.74" y="295.7576">Netznutzungsabrechnung</text><text fill="#000000" font-family="sans-serif" font-size="14" lengthAdjust="spacing" textLength="218.0938" x="1017.74" y="312.0545">Gesetze: StromNEV, StromNZV</text><text fill="#000000" font-family="sans-serif" font-size="14" lengthAdjust="spacing" textLength="740.6465" x="1017.74" y="328.3514">Zusammenfassung: Wie funktioniert die Netznutzungsabrechnung zwischen Netzbetreiber und Lieferant?</text><line style="stroke:#181818;stroke-width:0.5;" x1="1012.74" x2="1763.3865" y1="335.6531" y2="335.6531"/></g><!--link BGM_9 to BGM_9_msg_1--><g class="link" data-entity-1="BGM_9" data-entity-2="BGM_9_msg_1" data-source-line="15" data-uid="lnk4" id="link_BGM_9_BGM_9_msg_1"><path codeLine="15" d="M525.77,140.0669 C463.24,162.7869 387.44,191.0569 320.07,218.1869 C314.56,220.4069 314.5054,220.3959 308.8654,222.7259" fill="none" id="BGM_9-to-BGM_9_msg_1" style="stroke:#181818;stroke-width:1;"/><polygon fill="#181818" points="303.32,225.0169,313.1654,225.2774,307.9412,223.1078,310.1108,217.8835,303.32,225.0169" style="stroke:#181818;stroke-width:1;"/><text fill="#000000" font-family="sans-serif" font-size="13" lengthAdjust="spacing" textLength="85.2363" x="441.07" y="184.2538">verwendet in</text></g><!--link BGM_9 to BGM_9_msg_2--><g class="link" data-entity-1="BGM_9" data-entity-2="BGM_9_msg_2" data-source-line="23" data-uid="lnk6" id="link_BGM_9_BGM_9_msg_2"><path codeLine="23" d="M615.19,141.5169 C593.43,166.9469 570.2811,193.9982 546.7311,221.5182" fill="none" id="BGM_9-to-BGM_9_msg_2" style="stroke:#181818;stroke-width:1;"/><polygon fill="#181818" points="542.83,226.0769,551.7207,221.8395,546.0809,222.278,545.6425,216.6381,542.83,226.0769" style="stroke:#181818;stroke-width:1;"/><text fill="#000000" font-family="sans-serif" font-size="13" lengthAdjust="spacing" textLength="85.2363" x="589.07" y="184.2538">verwendet in</text></g><!--link BGM_9 to BGM_9_msg_3--><g class="link" data-entity-1="BGM_9" data-entity-2="BGM_9_msg_3" data-source-line="32" data-uid="lnk8" id="link_BGM_9_BGM_9_msg_3"><path codeLine="32" d="M697.19,141.5169 C716.93,164.4469 737.0854,187.8598 758.9954,213.3098" fill="none" id="BGM_9-to-BGM_9_msg_3" style="stroke:#181818;stroke-width:1;"/><polygon fill="#181818" points="762.91,217.8569,760.0695,208.4265,759.6478,214.0676,754.0067,213.646,762.91,217.8569" style="stroke:#181818;stroke-width:1;"/><text fill="#000000" font-family="sans-serif" font-size="13" lengthAdjust="spacing" textLength="85.2363" x="737.07" y="184.2538">verwendet in</text></g><!--link BGM_9 to BGM_9_proc_1--><g class="link" data-entity-1="BGM_9" data-entity-2="BGM_9_proc_1" data-source-line="38" data-uid="lnk10" id="link_BGM_9_BGM_9_proc_1"><path codeLine="38" d="M786.09,128.6169 C899.38,158.9969 1059.4549,201.9324 1188.4049,236.5224" fill="none" id="BGM_9-to-BGM_9_proc_1" style="stroke:#181818;stroke-width:1;stroke-dasharray:7,7;"/><polygon fill="#181818" points="1194.2,238.0769,1186.5436,231.8817,1189.3707,236.7815,1184.471,239.6085,1194.2,238.0769" style="stroke:#181818;stroke-width:1;"/><text fill="#000000" font-family="sans-serif" font-size="13" lengthAdjust="spacing" textLength="91.6221" x="1002.07" y="184.2538">eingebettet in</text></g><!--SRC=[fPFRJiCm38RlznH-WArgsbsm20q1cyPfPGmO4ZTLrhfRH9jEIGfeY7V7sG6Lqn3Y9d9Yv_V_nOgLDaVe2OjAs5mOQC7HOCWxZOGsniLn1ruQ094eaDEQpBLCvbIULUh1obArZiiKgM2aooKQWvnY89a8xL9LTbcfcH5JZSbSKTXuhIl7XPd5RAE_KUPm6bsFHpV0F2OeSLugYyzqV8JIB2Jchi4eorrjXddAuSoLEHU6Wy-QmFmcX47JjQZx-iaHm5M5UOxRnl7mT12pc8auy0F6V9zvYpGZu-l7QBMw7ynpU4JzX2f52r9zeGi-qrsEUySd0qTNXwizhB6wUh2LteaP4kOUOHBkRLH3MAjl4Hn1w8VXBeBWDuBmCy6uFppiJI3mEia_4DoKWZOXX1k4FmngxM15wLoiC9aVj7TWXhim5xfCQ9Jx-ouW3ztkclad7mCqb28ZrrQNHTIVD3VH_OIozvKHHK4_X1fGFOSxYR3zBXArXPGElXU7vPCqoHpLAZz5gr5EKKEbKhYGcA4MoXwyCtfUzoC21vHgXdJHhZ3V0000]--></g></svg>