<svg xmlns="http://www.w3.org/2000/svg" xmlns:xlink="http://www.w3.org/1999/xlink" contentStyleType="text/css" data-diagram-type="CLASS" height="403px" preserveAspectRatio="none" style="width:2983px;height:403px;background:#FFFFFF;" version="1.1" viewBox="0 0 2983 403" width="2983px" zoomAndPan="magnify"><title>Datenatlas - BGM:1373</title><defs/><g><g class="title" data-source-line="1"><text fill="#000000" font-family="sans-serif" font-size="14" font-weight="bold" lengthAdjust="spacing" textLength="182.1572" x="1393.8196" y="22.9951">Datenatlas - BGM:1373</text></g><!--class BGM_1373--><g class="entity" data-entity="BGM_1373" data-source-line="2" data-uid="ent0002" id="entity_BGM_1373"><rect fill="#F1F1F1" height="129.4844" rx="2.5" ry="2.5" style="stroke:#181818;stroke-width:0.5;" width="360.3525" x="961.3" y="44.2969"/><ellipse cx="1099.6457" cy="60.2969" fill="#ADD1B2" rx="11" ry="11" style="stroke:#181818;stroke-width:1;"/><path d="M1102.6145,65.9375 Q1102.0363,66.2344 1101.3957,66.375 Q1100.7551,66.5313 1100.052,66.5313 Q1097.552,66.5313 1096.2238,64.8906 Q1094.9113,63.2344 1094.9113,60.1094 Q1094.9113,56.9844 1096.2238,55.3281 Q1097.552,53.6719 1100.052,53.6719 Q1100.7551,53.6719 1101.3957,53.8281 Q1102.052,53.9844 1102.6145,54.2813 L1102.6145,57 Q1101.9895,56.4219 1101.3957,56.1563 Q1100.802,55.875 1100.177,55.875 Q1098.8332,55.875 1098.1457,56.9531 Q1097.4582,58.0156 1097.4582,60.1094 Q1097.4582,62.2031 1098.1457,63.2813 Q1098.8332,64.3438 1100.177,64.3438 Q1100.802,64.3438 1101.3957,64.0781 Q1101.9895,63.7969 1102.6145,63.2188 L1102.6145,65.9375 Z " fill="#000000"/><text fill="#000000" font-family="sans-serif" font-size="14" lengthAdjust="spacing" textLength="75.1611" x="1120.1457" y="65.1436">BGM_1373</text><line style="stroke:#181818;stroke-width:0.5;" x1="962.3" x2="1320.6525" y1="76.2969" y2="76.2969"/><text fill="#000000" font-family="sans-serif" font-size="14" lengthAdjust="spacing" textLength="228.6553" x="981.3" y="93.292">Name: Dokumentenstatus, Code</text><text fill="#000000" font-family="sans-serif" font-size="14" lengthAdjust="spacing" textLength="66.6436" x="981.3" y="109.5889">Prozesse:</text><rect fill="none" height="6" style="stroke:#C82930;stroke-width:1;" width="6" x="969.3" y="119.5391"/><text fill="#000000" font-family="sans-serif" font-size="14" lengthAdjust="spacing" textLength="334.3525" x="981.3" y="125.8857">Anforderung und &#220;bermittlung von Messwerten</text><rect fill="none" height="6" style="stroke:#C82930;stroke-width:1;" width="6" x="969.3" y="135.8359"/><text fill="#000000" font-family="sans-serif" font-size="14" lengthAdjust="spacing" textLength="158.0127" x="981.3" y="142.1826">Stammdaten&#228;nderung</text><rect fill="none" height="6" style="stroke:#C82930;stroke-width:1;" width="6" x="969.3" y="152.1328"/><text fill="#000000" font-family="sans-serif" font-size="14" lengthAdjust="spacing" textLength="180.3457" x="981.3" y="158.4795">Netznutzungsabrechnung</text><line style="stroke:#181818;stroke-width:0.5;" x1="962.3" x2="1320.6525" y1="165.7813" y2="165.7813"/></g><!--class BGM_1373_msg_1--><g class="entity" data-entity="BGM_1373_msg_1" data-source-line="9" data-uid="ent0003" id="entity_BGM_1373_msg_1"><rect fill="#F1F1F1" height="145.7813" rx="2.5" ry="2.5" style="stroke:#181818;stroke-width:0.5;" width="432.9502" x="7" y="250.7869"/><ellipse cx="155.2817" cy="266.7869" fill="#ADD1B2" rx="11" ry="11" style="stroke:#181818;stroke-width:1;"/><path d="M158.2505,272.4275 Q157.6724,272.7244 157.0317,272.865 Q156.3911,273.0213 155.688,273.0213 Q153.188,273.0213 151.8599,271.3806 Q150.5474,269.7244 150.5474,266.5994 Q150.5474,263.4744 151.8599,261.8181 Q153.188,260.1619 155.688,260.1619 Q156.3911,260.1619 157.0317,260.3181 Q157.688,260.4744 158.2505,260.7713 L158.2505,263.49 Q157.6255,262.9119 157.0317,262.6463 Q156.438,262.365 155.813,262.365 Q154.4692,262.365 153.7817,263.4431 Q153.0942,264.5056 153.0942,266.5994 Q153.0942,268.6931 153.7817,269.7713 Q154.4692,270.8338 155.813,270.8338 Q156.438,270.8338 157.0317,270.5681 Q157.6255,270.2869 158.2505,269.7088 L158.2505,272.4275 Z " fill="#000000"/><text fill="#000000" font-family="sans-serif" font-size="14" lengthAdjust="spacing" textLength="127.8867" x="175.7817" y="271.6336">BGM_1373_msg_1</text><line style="stroke:#181818;stroke-width:0.5;" x1="8" x2="438.9502" y1="282.7869" y2="282.7869"/><text fill="#000000" font-family="sans-serif" font-size="14" lengthAdjust="spacing" textLength="172.0264" x="13" y="299.782">Nachricht: MSCONS 2.4c</text><text fill="#000000" font-family="sans-serif" font-size="14" lengthAdjust="spacing" textLength="149.3447" x="13" y="316.0789">Kontext: Bemerkung:</text><text fill="#000000" font-family="sans-serif" font-size="14" lengthAdjust="spacing" textLength="91.4033" x="13" y="332.3757">Pflichtfeld: Ja</text><text fill="#000000" font-family="sans-serif" font-size="14" lengthAdjust="spacing" textLength="83.5488" x="13" y="348.6726">Codes: UNH</text><text fill="#000000" font-family="sans-serif" font-size="14" lengthAdjust="spacing" textLength="405.4463" x="13" y="364.9695">Prozesse: Anforderung und &#220;bermittlung von Messwerten</text><text fill="#000000" font-family="sans-serif" font-size="14" lengthAdjust="spacing" textLength="420.9502" x="13" y="381.2664">Quelle: MSCONS_MIG_2_4c_au&#223;erordentliche_20240726.pdf</text><line style="stroke:#181818;stroke-width:0.5;" x1="8" x2="438.9502" y1="388.5681" y2="388.5681"/></g><!--class BGM_1373_msg_2--><g class="entity" data-entity="BGM_1373_msg_2" data-source-line="18" data-uid="ent0005" id="entity_BGM_1373_msg_2"><rect fill="#F1F1F1" height="145.7813" rx="2.5" ry="2.5" style="stroke:#181818;stroke-width:0.5;" width="296.8604" x="475.04" y="250.7869"/><ellipse cx="555.2768" cy="266.7869" fill="#ADD1B2" rx="11" ry="11" style="stroke:#181818;stroke-width:1;"/><path d="M558.2456,272.4275 Q557.6674,272.7244 557.0268,272.865 Q556.3862,273.0213 555.6831,273.0213 Q553.1831,273.0213 551.8549,271.3806 Q550.5424,269.7244 550.5424,266.5994 Q550.5424,263.4744 551.8549,261.8181 Q553.1831,260.1619 555.6831,260.1619 Q556.3862,260.1619 557.0268,260.3181 Q557.6831,260.4744 558.2456,260.7713 L558.2456,263.49 Q557.6206,262.9119 557.0268,262.6463 Q556.4331,262.365 555.8081,262.365 Q554.4643,262.365 553.7768,263.4431 Q553.0893,264.5056 553.0893,266.5994 Q553.0893,268.6931 553.7768,269.7713 Q554.4643,270.8338 555.8081,270.8338 Q556.4331,270.8338 557.0268,270.5681 Q557.6206,270.2869 558.2456,269.7088 L558.2456,272.4275 Z " fill="#000000"/><text fill="#000000" font-family="sans-serif" font-size="14" lengthAdjust="spacing" textLength="127.8867" x="575.7768" y="271.6336">BGM_1373_msg_2</text><line style="stroke:#181818;stroke-width:0.5;" x1="476.04" x2="770.9004" y1="282.7869" y2="282.7869"/><text fill="#000000" font-family="sans-serif" font-size="14" lengthAdjust="spacing" textLength="162.7227" x="481.04" y="299.782">Nachricht: PARTIN 1.0e</text><text fill="#000000" font-family="sans-serif" font-size="14" lengthAdjust="spacing" textLength="170.3447" x="481.04" y="316.0789">Kontext: Segmentlayout</text><text fill="#000000" font-family="sans-serif" font-size="14" lengthAdjust="spacing" textLength="91.4033" x="481.04" y="332.3757">Pflichtfeld: Ja</text><text fill="#000000" font-family="sans-serif" font-size="14" lengthAdjust="spacing" textLength="224.3486" x="481.04" y="348.6726">Codes: 10, 11, 35, 70, BGM, EDI</text><text fill="#000000" font-family="sans-serif" font-size="14" lengthAdjust="spacing" textLength="229.1064" x="481.04" y="364.9695">Prozesse: Stammdaten&#228;nderung</text><text fill="#000000" font-family="sans-serif" font-size="14" lengthAdjust="spacing" textLength="284.8604" x="481.04" y="381.2664">Quelle: PARTIN_MIG_1_0e_20241001.pdf</text><line style="stroke:#181818;stroke-width:0.5;" x1="476.04" x2="770.9004" y1="388.5681" y2="388.5681"/></g><!--class BGM_1373_msg_3--><g class="entity" data-entity="BGM_1373_msg_3" data-source-line="27" data-uid="ent0007" id="entity_BGM_1373_msg_3"><rect fill="#F1F1F1" height="145.7813" rx="2.5" ry="2.5" style="stroke:#181818;stroke-width:0.5;" width="296.4365" x="807.26" y="250.7869"/><ellipse cx="887.2849" cy="266.7869" fill="#ADD1B2" rx="11" ry="11" style="stroke:#181818;stroke-width:1;"/><path d="M890.2537,272.4275 Q889.6755,272.7244 889.0349,272.865 Q888.3943,273.0213 887.6912,273.0213 Q885.1912,273.0213 883.863,271.3806 Q882.5505,269.7244 882.5505,266.5994 Q882.5505,263.4744 883.863,261.8181 Q885.1912,260.1619 887.6912,260.1619 Q888.3943,260.1619 889.0349,260.3181 Q889.6912,260.4744 890.2537,260.7713 L890.2537,263.49 Q889.6287,262.9119 889.0349,262.6463 Q888.4412,262.365 887.8162,262.365 Q886.4724,262.365 885.7849,263.4431 Q885.0974,264.5056 885.0974,266.5994 Q885.0974,268.6931 885.7849,269.7713 Q886.4724,270.8338 887.8162,270.8338 Q888.4412,270.8338 889.0349,270.5681 Q889.6287,270.2869 890.2537,269.7088 L890.2537,272.4275 Z " fill="#000000"/><text fill="#000000" font-family="sans-serif" font-size="14" lengthAdjust="spacing" textLength="127.8867" x="907.7849" y="271.6336">BGM_1373_msg_3</text><line style="stroke:#181818;stroke-width:0.5;" x1="808.26" x2="1102.6965" y1="282.7869" y2="282.7869"/><text fill="#000000" font-family="sans-serif" font-size="14" lengthAdjust="spacing" textLength="162.2988" x="813.26" y="299.782">Nachricht: PRICAT 2.0d</text><text fill="#000000" font-family="sans-serif" font-size="14" lengthAdjust="spacing" textLength="149.3447" x="813.26" y="316.0789">Kontext: Bemerkung:</text><text fill="#000000" font-family="sans-serif" font-size="14" lengthAdjust="spacing" textLength="91.4033" x="813.26" y="332.3757">Pflichtfeld: Ja</text><text fill="#000000" font-family="sans-serif" font-size="14" lengthAdjust="spacing" textLength="70.1162" x="813.26" y="348.6726">Codes: 11</text><text fill="#000000" font-family="sans-serif" font-size="14" lengthAdjust="spacing" textLength="251.4395" x="813.26" y="364.9695">Prozesse: Netznutzungsabrechnung</text><text fill="#000000" font-family="sans-serif" font-size="14" lengthAdjust="spacing" textLength="284.4365" x="813.26" y="381.2664">Quelle: PRICAT_MIG_2_0d_20240619.pdf</text><line style="stroke:#181818;stroke-width:0.5;" x1="808.26" x2="1102.6965" y1="388.5681" y2="388.5681"/></g><!--class BGM_1373_proc_1--><g class="entity" data-entity="BGM_1373_proc_1" data-source-line="36" data-uid="ent0009" id="entity_BGM_1373_proc_1"><rect fill="#F1F1F1" height="105.1563" rx="2.5" ry="2.5" style="stroke:#181818;stroke-width:0.5;" width="378.2285" x="1138.36" y="271.0969"/><ellipse cx="1258.7374" cy="291.2297" fill="#ADD1B2" rx="11" ry="11" style="stroke:#181818;stroke-width:1;"/><path d="M1261.7062,296.8703 Q1261.1281,297.1672 1260.4874,297.3078 Q1259.8468,297.4641 1259.1437,297.4641 Q1256.6437,297.4641 1255.3156,295.8234 Q1254.0031,294.1672 1254.0031,291.0422 Q1254.0031,287.9172 1255.3156,286.2609 Q1256.6437,284.6047 1259.1437,284.6047 Q1259.8468,284.6047 1260.4874,284.7609 Q1261.1437,284.9172 1261.7062,285.2141 L1261.7062,287.9328 Q1261.0812,287.3547 1260.4874,287.0891 Q1259.8937,286.8078 1259.2687,286.8078 Q1257.9249,286.8078 1257.2374,287.8859 Q1256.5499,288.9484 1256.5499,291.0422 Q1256.5499,293.1359 1257.2374,294.2141 Q1257.9249,295.2766 1259.2687,295.2766 Q1259.8937,295.2766 1260.4874,295.0109 Q1261.0812,294.7297 1261.7062,294.1516 L1261.7062,296.8703 Z " fill="#000000"/><text fill="#000000" font-family="sans-serif" font-size="12" font-style="italic" lengthAdjust="spacing" textLength="61.0605" x="1313.194" y="287.2355">&#171;process&#187;</text><text fill="#000000" font-family="sans-serif" font-size="14" lengthAdjust="spacing" textLength="128.9736" x="1279.2374" y="303.0607">BGM_1373_proc_1</text><line style="stroke:#181818;stroke-width:0.5;" x1="1139.36" x2="1515.5885" y1="311.3625" y2="311.3625"/><text fill="#000000" font-family="sans-serif" font-size="14" lengthAdjust="spacing" textLength="334.3525" x="1144.36" y="328.3576">Anforderung und &#220;bermittlung von Messwerten</text><text fill="#000000" font-family="sans-serif" font-size="14" lengthAdjust="spacing" textLength="105.0957" x="1144.36" y="344.6545">Gesetze: MsbG</text><line style="stroke:#181818;stroke-width:0.5;" x1="1139.36" x2="1515.5885" y1="351.9562" y2="351.9562"/><text fill="#000000" font-family="sans-serif" font-size="14" lengthAdjust="spacing" textLength="366.2285" x="1144.36" y="368.9514">Zusammenfassung: Wie kann ein Marktpartner (z.B.</text></g><!--class BGM_1373_proc_2--><g class="entity" data-entity="BGM_1373_proc_2" data-source-line="42" data-uid="ent0011" id="entity_BGM_1373_proc_2"><rect fill="#F1F1F1" height="88.8594" rx="2.5" ry="2.5" style="stroke:#181818;stroke-width:0.5;" width="638.3496" x="1551.3" y="279.2469"/><ellipse cx="1801.738" cy="299.3797" fill="#ADD1B2" rx="11" ry="11" style="stroke:#181818;stroke-width:1;"/><path d="M1804.7067,305.0203 Q1804.1286,305.3172 1803.488,305.4578 Q1802.8474,305.6141 1802.1442,305.6141 Q1799.6442,305.6141 1798.3161,303.9734 Q1797.0036,302.3172 1797.0036,299.1922 Q1797.0036,296.0672 1798.3161,294.4109 Q1799.6442,292.7547 1802.1442,292.7547 Q1802.8474,292.7547 1803.488,292.9109 Q1804.1442,293.0672 1804.7067,293.3641 L1804.7067,296.0828 Q1804.0817,295.5047 1803.488,295.2391 Q1802.8942,294.9578 1802.2692,294.9578 Q1800.9255,294.9578 1800.238,296.0359 Q1799.5505,297.0984 1799.5505,299.1922 Q1799.5505,301.2859 1800.238,302.3641 Q1800.9255,303.4266 1802.2692,303.4266 Q1802.8942,303.4266 1803.488,303.1609 Q1804.0817,302.8797 1804.7067,302.3016 L1804.7067,305.0203 Z " fill="#000000"/><text fill="#000000" font-family="sans-serif" font-size="12" font-style="italic" lengthAdjust="spacing" textLength="61.0605" x="1856.1945" y="295.3855">&#171;process&#187;</text><text fill="#000000" font-family="sans-serif" font-size="14" lengthAdjust="spacing" textLength="128.9736" x="1822.238" y="311.2107">BGM_1373_proc_2</text><line style="stroke:#181818;stroke-width:0.5;" x1="1552.3" x2="2188.6496" y1="319.5125" y2="319.5125"/><text fill="#000000" font-family="sans-serif" font-size="14" lengthAdjust="spacing" textLength="158.0127" x="1557.3" y="336.5076">Stammdaten&#228;nderung</text><text fill="#000000" font-family="sans-serif" font-size="14" lengthAdjust="spacing" textLength="626.3496" x="1557.3" y="352.8045">Zusammenfassung: Wie wird eine Stammdaten&#228;nderung an einer Marktlokation, wie z.B.</text><line style="stroke:#181818;stroke-width:0.5;" x1="1552.3" x2="2188.6496" y1="360.1063" y2="360.1063"/></g><!--class BGM_1373_proc_3--><g class="entity" data-entity="BGM_1373_proc_3" data-source-line="47" data-uid="ent0013" id="entity_BGM_1373_proc_3"><rect fill="#F1F1F1" height="105.1563" rx="2.5" ry="2.5" style="stroke:#181818;stroke-width:0.5;" width="752.6465" x="2224.15" y="271.0969"/><ellipse cx="2531.7364" cy="291.2297" fill="#ADD1B2" rx="11" ry="11" style="stroke:#181818;stroke-width:1;"/><path d="M2534.7052,296.8703 Q2534.1271,297.1672 2533.4864,297.3078 Q2532.8458,297.4641 2532.1427,297.4641 Q2529.6427,297.4641 2528.3146,295.8234 Q2527.0021,294.1672 2527.0021,291.0422 Q2527.0021,287.9172 2528.3146,286.2609 Q2529.6427,284.6047 2532.1427,284.6047 Q2532.8458,284.6047 2533.4864,284.7609 Q2534.1427,284.9172 2534.7052,285.2141 L2534.7052,287.9328 Q2534.0802,287.3547 2533.4864,287.0891 Q2532.8927,286.8078 2532.2677,286.8078 Q2530.9239,286.8078 2530.2364,287.8859 Q2529.5489,288.9484 2529.5489,291.0422 Q2529.5489,293.1359 2530.2364,294.2141 Q2530.9239,295.2766 2532.2677,295.2766 Q2532.8927,295.2766 2533.4864,295.0109 Q2534.0802,294.7297 2534.7052,294.1516 L2534.7052,296.8703 Z " fill="#000000"/><text fill="#000000" font-family="sans-serif" font-size="12" font-style="italic" lengthAdjust="spacing" textLength="61.0605" x="2586.193" y="287.2355">&#171;process&#187;</text><text fill="#000000" font-family="sans-serif" font-size="14" lengthAdjust="spacing" textLength="128.9736" x="2552.2364" y="303.0607">BGM_1373_proc_3</text><line style="stroke:#181818;stroke-width:0.5;" x1="2225.15" x2="2975.7965" y1="311.3625" y2="311.3625"/><text fill="#000000" font-family="sans-serif" font-size="14" lengthAdjust="spacing" textLength="180.3457" x="2230.15" y="328.3576">Netznutzungsabrechnung</text><text fill="#000000" font-family="sans-serif" font-size="14" lengthAdjust="spacing" textLength="218.0938" x="2230.15" y="344.6545">Gesetze: StromNEV, StromNZV</text><text fill="#000000" font-family="sans-serif" font-size="14" lengthAdjust="spacing" textLength="740.6465" x="2230.15" y="360.9514">Zusammenfassung: Wie funktioniert die Netznutzungsabrechnung zwischen Netzbetreiber und Lieferant?</text><line style="stroke:#181818;stroke-width:0.5;" x1="2225.15" x2="2975.7965" y1="368.2531" y2="368.2531"/></g><!--link BGM_1373 to BGM_1373_msg_1--><g class="link" data-entity-1="BGM_1373" data-entity-2="BGM_1373_msg_1" data-source-line="17" data-uid="lnk4" id="link_BGM_1373_BGM_1373_msg_1"><path codeLine="17" d="M961.11,142.3069 C822.57,168.2469 626.9,207.4369 457.48,250.7869 C451.81,252.2369 451.8877,252.1921 446.1077,253.7321" fill="none" id="BGM_1373-to-BGM_1373_msg_1" style="stroke:#181818;stroke-width:1;"/><polygon fill="#181818" points="440.31,255.2769,450.0364,256.8249,445.1415,253.9896,447.9768,249.0946,440.31,255.2769" style="stroke:#181818;stroke-width:1;"/><text fill="#000000" font-family="sans-serif" font-size="13" lengthAdjust="spacing" textLength="85.2363" x="645.48" y="216.8538">verwendet in</text></g><!--link BGM_1373 to BGM_1373_msg_2--><g class="link" data-entity-1="BGM_1373" data-entity-2="BGM_1373_msg_2" data-source-line="26" data-uid="lnk6" id="link_BGM_1373_BGM_1373_msg_2"><path codeLine="26" d="M978.1,174.2469 C918.58,197.9369 850.84,225.2369 789.48,250.7869 C783.82,253.1369 783.602,253.2336 777.792,255.6736" fill="none" id="BGM_1373-to-BGM_1373_msg_2" style="stroke:#181818;stroke-width:1;"/><polygon fill="#181818" points="772.26,257.9969,782.1068,258.2,776.87,256.0608,779.0091,250.8241,772.26,257.9969" style="stroke:#181818;stroke-width:1;"/><text fill="#000000" font-family="sans-serif" font-size="13" lengthAdjust="spacing" textLength="85.2363" x="897.48" y="216.8538">verwendet in</text></g><!--link BGM_1373 to BGM_1373_msg_3--><g class="link" data-entity-1="BGM_1373" data-entity-2="BGM_1373_msg_3" data-source-line="35" data-uid="lnk8" id="link_BGM_1373_BGM_1373_msg_3"><path codeLine="35" d="M1085.42,174.1269 C1064.34,198.2169 1044.1997,221.2403 1022.5297,246.0203" fill="none" id="BGM_1373-to-BGM_1373_msg_3" style="stroke:#181818;stroke-width:1;"/><polygon fill="#181818" points="1018.58,250.5369,1027.5157,246.3951,1021.8714,246.7731,1021.4935,241.1288,1018.58,250.5369" style="stroke:#181818;stroke-width:1;"/><text fill="#000000" font-family="sans-serif" font-size="13" lengthAdjust="spacing" textLength="85.2363" x="1055.48" y="216.8538">verwendet in</text></g><!--link BGM_1373 to BGM_1373_proc_1--><g class="link" data-entity-1="BGM_1373" data-entity-2="BGM_1373_proc_1" data-source-line="41" data-uid="lnk10" id="link_BGM_1373_BGM_1373_proc_1"><path codeLine="41" d="M1197.53,174.1269 C1224.6,205.0669 1252.6895,237.1809 1278.1895,266.3309" fill="none" id="BGM_1373-to-BGM_1373_proc_1" style="stroke:#181818;stroke-width:1;stroke-dasharray:7,7;"/><polygon fill="#181818" points="1282.14,270.8469,1279.2249,261.4393,1278.8479,267.0836,1273.2037,266.7066,1282.14,270.8469" style="stroke:#181818;stroke-width:1;"/><text fill="#000000" font-family="sans-serif" font-size="13" lengthAdjust="spacing" textLength="91.6221" x="1235.48" y="216.8538">eingebettet in</text></g><!--link BGM_1373 to BGM_1373_proc_2--><g class="link" data-entity-1="BGM_1373" data-entity-2="BGM_1373_proc_2" data-source-line="46" data-uid="lnk12" id="link_BGM_1373_BGM_1373_proc_2"><path codeLine="46" d="M1322.15,162.7369 C1444.53,198.4369 1598.61,243.3768 1714.11,277.0668" fill="none" id="BGM_1373-to-BGM_1373_proc_2" style="stroke:#181818;stroke-width:1;stroke-dasharray:7,7;"/><polygon fill="#181818" points="1719.87,278.7469,1712.3501,272.3867,1715.07,277.3468,1710.11,280.0667,1719.87,278.7469" style="stroke:#181818;stroke-width:1;"/><text fill="#000000" font-family="sans-serif" font-size="13" lengthAdjust="spacing" textLength="91.6221" x="1507.48" y="216.8538">eingebettet in</text></g><!--link BGM_1373 to BGM_1373_proc_3--><g class="link" data-entity-1="BGM_1373" data-entity-2="BGM_1373_proc_3" data-source-line="52" data-uid="lnk14" id="link_BGM_1373_BGM_1373_proc_3"><path codeLine="52" d="M1321.99,131.1069 C1534.32,156.5169 1897.21,201.9569 2207.48,250.7869 C2245.76,256.8069 2280.141,262.5856 2319.751,269.5656" fill="none" id="BGM_1373-to-BGM_1373_proc_3" style="stroke:#181818;stroke-width:1;stroke-dasharray:7,7;"/><polygon fill="#181818" points="2325.66,270.6069,2317.4907,265.1057,2320.7359,269.7392,2316.1024,272.9843,2325.66,270.6069" style="stroke:#181818;stroke-width:1;"/><text fill="#000000" font-family="sans-serif" font-size="13" lengthAdjust="spacing" textLength="91.6221" x="2005.48" y="216.8538">eingebettet in</text></g><!--SRC=[bPJDRjf04CVlUOevzc0iVz2WMX4L7n6bBIuDQIhbOYts62pRQxIx3YrLtwHIBtqJNgopXaG4J0YttHtFpF_tdv5LeZA4FbF8cSgOX0Pq1oFFTblkHKXtgQ-1liAl2m2VvUX1lqZB73dbICLKAGte5H5IU2oA5Kg97fs1IdLuN8W8HSbdKF88rd-cAF94gKo_F1GSHlJv4WMLsgPC5ClpIEjP_-ERr6t4HxNYfLhHYsHJWU6Sw-3lFPr1BcU1lLKRpaKIpfK7eqdlYpy1nso65FXKaFWVzDp574LAPRJYSPpfZsFC8Wy-CdhHMDA3R_w7NRXpiRwMc6Nug24O3GU14pJ3W9NhloXq9QvqPmmSosbQBUVIN4GnWJrPtsYqz_ayU42nHB98GSBhF73sFHXtRcw7FjYcXRiUJ72cXvcndqMfNhB1jWomRGFSjmQqw4pT3BZk3vzvKp-_Hmis4YeBxC3Q0DkMPPy4Tbu1x1u0tmnxdLiQkXMTFtJRViPrPFjsqAfcs-bQqMQMb_QxasZk2RI5A48Q-DMLFf2OThlYF7C91oY9G6-Xd0xeVbzA6XJoc7ffA-1xWf0opW4JIcKYLGic54S1RrPcrzn5CCtsWJnFvyrmYaeTft0EAEhNfLRSCX6HRe9rIS0guQIsafuLALD9mGtAGZYjttcTVlT0_z6rUF9xeaIH-zTtnlPqVtSCC2vvgaKdD3E8wA6-EAoMYQI_1Q_Y95XWGgElbk1pWZ4AnjNxbtdT0zx_]--></g></svg>