<svg xmlns="http://www.w3.org/2000/svg" xmlns:xlink="http://www.w3.org/1999/xlink" contentStyleType="text/css" data-diagram-type="CLASS" height="403px" preserveAspectRatio="none" style="width:4427px;height:403px;background:#FFFFFF;" version="1.1" viewBox="0 0 4427 403" width="4427px" zoomAndPan="magnify"><title>Datenatlas - BGM:1000</title><defs/><g><g class="title" data-source-line="1"><text fill="#000000" font-family="sans-serif" font-size="14" font-weight="bold" lengthAdjust="spacing" textLength="182.1572" x="2115.5706" y="22.9951">Datenatlas - BGM:1000</text></g><!--class BGM_1000--><g class="entity" data-entity="BGM_1000" data-source-line="2" data-uid="ent0002" id="entity_BGM_1000"><rect fill="#F1F1F1" height="129.4844" rx="2.5" ry="2.5" style="stroke:#181818;stroke-width:0.5;" width="360.3525" x="1961.01" y="44.2969"/><ellipse cx="2099.3557" cy="60.2969" fill="#ADD1B2" rx="11" ry="11" style="stroke:#181818;stroke-width:1;"/><path d="M2102.3245,65.9375 Q2101.7463,66.2344 2101.1057,66.375 Q2100.4651,66.5313 2099.762,66.5313 Q2097.262,66.5313 2095.9338,64.8906 Q2094.6213,63.2344 2094.6213,60.1094 Q2094.6213,56.9844 2095.9338,55.3281 Q2097.262,53.6719 2099.762,53.6719 Q2100.4651,53.6719 2101.1057,53.8281 Q2101.762,53.9844 2102.3245,54.2813 L2102.3245,57 Q2101.6995,56.4219 2101.1057,56.1563 Q2100.512,55.875 2099.887,55.875 Q2098.5432,55.875 2097.8557,56.9531 Q2097.1682,58.0156 2097.1682,60.1094 Q2097.1682,62.2031 2097.8557,63.2813 Q2098.5432,64.3438 2099.887,64.3438 Q2100.512,64.3438 2101.1057,64.0781 Q2101.6995,63.7969 2102.3245,63.2188 L2102.3245,65.9375 Z " fill="#000000"/><text fill="#000000" font-family="sans-serif" font-size="14" lengthAdjust="spacing" textLength="75.1611" x="2119.8557" y="65.1436">BGM_1000</text><line style="stroke:#181818;stroke-width:0.5;" x1="1962.01" x2="2320.3625" y1="76.2969" y2="76.2969"/><text fill="#000000" font-family="sans-serif" font-size="14" lengthAdjust="spacing" textLength="169.0459" x="1981.01" y="93.292">Name: Nachrichtencode</text><text fill="#000000" font-family="sans-serif" font-size="14" lengthAdjust="spacing" textLength="66.6436" x="1981.01" y="109.5889">Prozesse:</text><rect fill="none" height="6" style="stroke:#C82930;stroke-width:1;" width="6" x="1969.01" y="119.5391"/><text fill="#000000" font-family="sans-serif" font-size="14" lengthAdjust="spacing" textLength="180.3457" x="1981.01" y="125.8857">Netznutzungsabrechnung</text><rect fill="none" height="6" style="stroke:#C82930;stroke-width:1;" width="6" x="1969.01" y="135.8359"/><text fill="#000000" font-family="sans-serif" font-size="14" lengthAdjust="spacing" textLength="223.2822" x="1981.01" y="142.1826">Messstellenbetriebsabrechnung</text><rect fill="none" height="6" style="stroke:#C82930;stroke-width:1;" width="6" x="1969.01" y="152.1328"/><text fill="#000000" font-family="sans-serif" font-size="14" lengthAdjust="spacing" textLength="334.3525" x="1981.01" y="158.4795">Anforderung und &#220;bermittlung von Messwerten</text><line style="stroke:#181818;stroke-width:0.5;" x1="1962.01" x2="2320.3625" y1="165.7813" y2="165.7813"/></g><!--class BGM_1000_msg_1--><g class="entity" data-entity="BGM_1000_msg_1" data-source-line="9" data-uid="ent0003" id="entity_BGM_1000_msg_1"><rect fill="#F1F1F1" height="129.4844" rx="2.5" ry="2.5" style="stroke:#181818;stroke-width:0.5;" width="430.3662" x="7" y="258.9369"/><ellipse cx="153.9897" cy="274.9369" fill="#ADD1B2" rx="11" ry="11" style="stroke:#181818;stroke-width:1;"/><path d="M156.9585,280.5775 Q156.3804,280.8744 155.7397,281.015 Q155.0991,281.1713 154.396,281.1713 Q151.896,281.1713 150.5679,279.5306 Q149.2554,277.8744 149.2554,274.7494 Q149.2554,271.6244 150.5679,269.9681 Q151.896,268.3119 154.396,268.3119 Q155.0991,268.3119 155.7397,268.4681 Q156.396,268.6244 156.9585,268.9213 L156.9585,271.64 Q156.3335,271.0619 155.7397,270.7963 Q155.146,270.515 154.521,270.515 Q153.1772,270.515 152.4897,271.5931 Q151.8022,272.6556 151.8022,274.7494 Q151.8022,276.8431 152.4897,277.9213 Q153.1772,278.9838 154.521,278.9838 Q155.146,278.9838 155.7397,278.7181 Q156.3335,278.4369 156.9585,277.8588 L156.9585,280.5775 Z " fill="#000000"/><text fill="#000000" font-family="sans-serif" font-size="14" lengthAdjust="spacing" textLength="127.8867" x="174.4897" y="279.7836">BGM_1000_msg_1</text><line style="stroke:#181818;stroke-width:0.5;" x1="8" x2="436.3662" y1="290.9369" y2="290.9369"/><text fill="#000000" font-family="sans-serif" font-size="14" lengthAdjust="spacing" textLength="169.4424" x="13" y="307.932">Nachricht: CONTRL 2.0b</text><text fill="#000000" font-family="sans-serif" font-size="14" lengthAdjust="spacing" textLength="289.0918" x="13" y="324.2289">Kontext: ein Gruppendatenelement fehlt.</text><text fill="#000000" font-family="sans-serif" font-size="14" lengthAdjust="spacing" textLength="91.4033" x="13" y="340.5257">Pflichtfeld: Ja</text><text fill="#000000" font-family="sans-serif" font-size="14" lengthAdjust="spacing" textLength="123.5459" x="13" y="356.8226">Codes: 07, 17, 26</text><text fill="#000000" font-family="sans-serif" font-size="14" lengthAdjust="spacing" textLength="418.3662" x="13" y="373.1195">Quelle: CONTRL_MIG_2_0b_au&#223;erordentliche_20240726.pdf</text><line style="stroke:#181818;stroke-width:0.5;" x1="8" x2="436.3662" y1="380.4213" y2="380.4213"/></g><!--class BGM_1000_msg_2--><g class="entity" data-entity="BGM_1000_msg_2" data-source-line="17" data-uid="ent0005" id="entity_BGM_1000_msg_2"><rect fill="#F1F1F1" height="145.7813" rx="2.5" ry="2.5" style="stroke:#181818;stroke-width:0.5;" width="563.8516" x="472.26" y="250.7869"/><ellipse cx="685.9924" cy="266.7869" fill="#ADD1B2" rx="11" ry="11" style="stroke:#181818;stroke-width:1;"/><path d="M688.9612,272.4275 Q688.383,272.7244 687.7424,272.865 Q687.1018,273.0213 686.3987,273.0213 Q683.8987,273.0213 682.5705,271.3806 Q681.258,269.7244 681.258,266.5994 Q681.258,263.4744 682.5705,261.8181 Q683.8987,260.1619 686.3987,260.1619 Q687.1018,260.1619 687.7424,260.3181 Q688.3987,260.4744 688.9612,260.7713 L688.9612,263.49 Q688.3362,262.9119 687.7424,262.6463 Q687.1487,262.365 686.5237,262.365 Q685.1799,262.365 684.4924,263.4431 Q683.8049,264.5056 683.8049,266.5994 Q683.8049,268.6931 684.4924,269.7713 Q685.1799,270.8338 686.5237,270.8338 Q687.1487,270.8338 687.7424,270.5681 Q688.3362,270.2869 688.9612,269.7088 L688.9612,272.4275 Z " fill="#000000"/><text fill="#000000" font-family="sans-serif" font-size="14" lengthAdjust="spacing" textLength="127.8867" x="706.4924" y="271.6336">BGM_1000_msg_2</text><line style="stroke:#181818;stroke-width:0.5;" x1="473.26" x2="1035.1116" y1="282.7869" y2="282.7869"/><text fill="#000000" font-family="sans-serif" font-size="14" lengthAdjust="spacing" textLength="161.1982" x="478.26" y="299.782">Nachricht: INVOIC 2.8d</text><text fill="#000000" font-family="sans-serif" font-size="14" lengthAdjust="spacing" textLength="551.8516" x="478.26" y="316.0789">Kontext: Codewertes 380. Das Dokument hat die Belegnummer INV12435422.</text><text fill="#000000" font-family="sans-serif" font-size="14" lengthAdjust="spacing" textLength="91.4033" x="478.26" y="332.3757">Pflichtfeld: Ja</text><text fill="#000000" font-family="sans-serif" font-size="14" lengthAdjust="spacing" textLength="200.6006" x="478.26" y="348.6726">Codes: 01, 31, 380, 72, BGM</text><text fill="#000000" font-family="sans-serif" font-size="14" lengthAdjust="spacing" textLength="483.6221" x="478.26" y="364.9695">Prozesse: Netznutzungsabrechnung, Messstellenbetriebsabrechnung</text><text fill="#000000" font-family="sans-serif" font-size="14" lengthAdjust="spacing" textLength="396.6074" x="478.26" y="381.2664">Quelle: INVOIC_MIG_2.8d_Fehlerkorrektur_20250131.pdf</text><line style="stroke:#181818;stroke-width:0.5;" x1="473.26" x2="1035.1116" y1="388.5681" y2="388.5681"/></g><!--class BGM_1000_msg_3--><g class="entity" data-entity="BGM_1000_msg_3" data-source-line="26" data-uid="ent0007" id="entity_BGM_1000_msg_3"><rect fill="#F1F1F1" height="145.7813" rx="2.5" ry="2.5" style="stroke:#181818;stroke-width:0.5;" width="617.2539" x="1071.56" y="250.7869"/><ellipse cx="1311.9936" cy="266.7869" fill="#ADD1B2" rx="11" ry="11" style="stroke:#181818;stroke-width:1;"/><path d="M1314.9623,272.4275 Q1314.3842,272.7244 1313.7436,272.865 Q1313.103,273.0213 1312.3998,273.0213 Q1309.8998,273.0213 1308.5717,271.3806 Q1307.2592,269.7244 1307.2592,266.5994 Q1307.2592,263.4744 1308.5717,261.8181 Q1309.8998,260.1619 1312.3998,260.1619 Q1313.103,260.1619 1313.7436,260.3181 Q1314.3998,260.4744 1314.9623,260.7713 L1314.9623,263.49 Q1314.3373,262.9119 1313.7436,262.6463 Q1313.1498,262.365 1312.5248,262.365 Q1311.1811,262.365 1310.4936,263.4431 Q1309.8061,264.5056 1309.8061,266.5994 Q1309.8061,268.6931 1310.4936,269.7713 Q1311.1811,270.8338 1312.5248,270.8338 Q1313.1498,270.8338 1313.7436,270.5681 Q1314.3373,270.2869 1314.9623,269.7088 L1314.9623,272.4275 Z " fill="#000000"/><text fill="#000000" font-family="sans-serif" font-size="14" lengthAdjust="spacing" textLength="127.8867" x="1332.4936" y="271.6336">BGM_1000_msg_3</text><line style="stroke:#181818;stroke-width:0.5;" x1="1072.56" x2="1687.8139" y1="282.7869" y2="282.7869"/><text fill="#000000" font-family="sans-serif" font-size="14" lengthAdjust="spacing" textLength="165.6484" x="1077.56" y="299.782">Nachricht: INVOIC 2.8d.</text><text fill="#000000" font-family="sans-serif" font-size="14" lengthAdjust="spacing" textLength="605.2539" x="1077.56" y="316.0789">Kontext: Codewertes   380.   Das   Dokument   hat die   Belegnummer   INV12435422.</text><text fill="#000000" font-family="sans-serif" font-size="14" lengthAdjust="spacing" textLength="91.4033" x="1077.56" y="332.3757">Pflichtfeld: Ja</text><text fill="#000000" font-family="sans-serif" font-size="14" lengthAdjust="spacing" textLength="200.6006" x="1077.56" y="348.6726">Codes: 06, 19, 380, 73, BGM</text><text fill="#000000" font-family="sans-serif" font-size="14" lengthAdjust="spacing" textLength="483.6221" x="1077.56" y="364.9695">Prozesse: Netznutzungsabrechnung, Messstellenbetriebsabrechnung</text><text fill="#000000" font-family="sans-serif" font-size="14" lengthAdjust="spacing" textLength="290.3359" x="1077.56" y="381.2664">Quelle: INVOIC_MIG_2_8d__20240619.pdf</text><line style="stroke:#181818;stroke-width:0.5;" x1="1072.56" x2="1687.8139" y1="388.5681" y2="388.5681"/></g><!--class BGM_1000_msg_4--><g class="entity" data-entity="BGM_1000_msg_4" data-source-line="35" data-uid="ent0009" id="entity_BGM_1000_msg_4"><rect fill="#F1F1F1" height="145.7813" rx="2.5" ry="2.5" style="stroke:#181818;stroke-width:0.5;" width="432.9502" x="1723.71" y="250.7869"/><ellipse cx="1871.9917" cy="266.7869" fill="#ADD1B2" rx="11" ry="11" style="stroke:#181818;stroke-width:1;"/><path d="M1874.9605,272.4275 Q1874.3824,272.7244 1873.7417,272.865 Q1873.1011,273.0213 1872.398,273.0213 Q1869.898,273.0213 1868.5699,271.3806 Q1867.2574,269.7244 1867.2574,266.5994 Q1867.2574,263.4744 1868.5699,261.8181 Q1869.898,260.1619 1872.398,260.1619 Q1873.1011,260.1619 1873.7417,260.3181 Q1874.398,260.4744 1874.9605,260.7713 L1874.9605,263.49 Q1874.3355,262.9119 1873.7417,262.6463 Q1873.148,262.365 1872.523,262.365 Q1871.1792,262.365 1870.4917,263.4431 Q1869.8042,264.5056 1869.8042,266.5994 Q1869.8042,268.6931 1870.4917,269.7713 Q1871.1792,270.8338 1872.523,270.8338 Q1873.148,270.8338 1873.7417,270.5681 Q1874.3355,270.2869 1874.9605,269.7088 L1874.9605,272.4275 Z " fill="#000000"/><text fill="#000000" font-family="sans-serif" font-size="14" lengthAdjust="spacing" textLength="127.8867" x="1892.4917" y="271.6336">BGM_1000_msg_4</text><line style="stroke:#181818;stroke-width:0.5;" x1="1724.71" x2="2155.6602" y1="282.7869" y2="282.7869"/><text fill="#000000" font-family="sans-serif" font-size="14" lengthAdjust="spacing" textLength="172.0264" x="1729.71" y="299.782">Nachricht: MSCONS 2.4c</text><text fill="#000000" font-family="sans-serif" font-size="14" lengthAdjust="spacing" textLength="149.3447" x="1729.71" y="316.0789">Kontext: Bemerkung:</text><text fill="#000000" font-family="sans-serif" font-size="14" lengthAdjust="spacing" textLength="91.4033" x="1729.71" y="332.3757">Pflichtfeld: Ja</text><text fill="#000000" font-family="sans-serif" font-size="14" lengthAdjust="spacing" textLength="83.5488" x="1729.71" y="348.6726">Codes: UNH</text><text fill="#000000" font-family="sans-serif" font-size="14" lengthAdjust="spacing" textLength="405.4463" x="1729.71" y="364.9695">Prozesse: Anforderung und &#220;bermittlung von Messwerten</text><text fill="#000000" font-family="sans-serif" font-size="14" lengthAdjust="spacing" textLength="420.9502" x="1729.71" y="381.2664">Quelle: MSCONS_MIG_2_4c_au&#223;erordentliche_20240726.pdf</text><line style="stroke:#181818;stroke-width:0.5;" x1="1724.71" x2="2155.6602" y1="388.5681" y2="388.5681"/></g><!--class BGM_1000_msg_5--><g class="entity" data-entity="BGM_1000_msg_5" data-source-line="44" data-uid="ent0011" id="entity_BGM_1000_msg_5"><rect fill="#F1F1F1" height="129.4844" rx="2.5" ry="2.5" style="stroke:#181818;stroke-width:0.5;" width="303.0811" x="2191.64" y="258.9369"/><ellipse cx="2274.9872" cy="274.9369" fill="#ADD1B2" rx="11" ry="11" style="stroke:#181818;stroke-width:1;"/><path d="M2277.9559,280.5775 Q2277.3778,280.8744 2276.7372,281.015 Q2276.0965,281.1713 2275.3934,281.1713 Q2272.8934,281.1713 2271.5653,279.5306 Q2270.2528,277.8744 2270.2528,274.7494 Q2270.2528,271.6244 2271.5653,269.9681 Q2272.8934,268.3119 2275.3934,268.3119 Q2276.0965,268.3119 2276.7372,268.4681 Q2277.3934,268.6244 2277.9559,268.9213 L2277.9559,271.64 Q2277.3309,271.0619 2276.7372,270.7963 Q2276.1434,270.515 2275.5184,270.515 Q2274.1747,270.515 2273.4872,271.5931 Q2272.7997,272.6556 2272.7997,274.7494 Q2272.7997,276.8431 2273.4872,277.9213 Q2274.1747,278.9838 2275.5184,278.9838 Q2276.1434,278.9838 2276.7372,278.7181 Q2277.3309,278.4369 2277.9559,277.8588 L2277.9559,280.5775 Z " fill="#000000"/><text fill="#000000" font-family="sans-serif" font-size="14" lengthAdjust="spacing" textLength="127.8867" x="2295.4872" y="279.7836">BGM_1000_msg_5</text><line style="stroke:#181818;stroke-width:0.5;" x1="2192.64" x2="2493.7211" y1="290.9369" y2="290.9369"/><text fill="#000000" font-family="sans-serif" font-size="14" lengthAdjust="spacing" textLength="171.4932" x="2197.64" y="307.932">Nachricht: REMADV 2.9c</text><text fill="#000000" font-family="sans-serif" font-size="14" lengthAdjust="spacing" textLength="149.3447" x="2197.64" y="324.2289">Kontext: Bemerkung:</text><text fill="#000000" font-family="sans-serif" font-size="14" lengthAdjust="spacing" textLength="91.4033" x="2197.64" y="340.5257">Pflichtfeld: Ja</text><text fill="#000000" font-family="sans-serif" font-size="14" lengthAdjust="spacing" textLength="251.4395" x="2197.64" y="356.8226">Prozesse: Netznutzungsabrechnung</text><text fill="#000000" font-family="sans-serif" font-size="14" lengthAdjust="spacing" textLength="291.0811" x="2197.64" y="373.1195">Quelle: REMADV_MIG_2.9c_20231024.pdf</text><line style="stroke:#181818;stroke-width:0.5;" x1="2192.64" x2="2493.7211" y1="380.4213" y2="380.4213"/></g><!--class BGM_1000_proc_1--><g class="entity" data-entity="BGM_1000_proc_1" data-source-line="52" data-uid="ent0013" id="entity_BGM_1000_proc_1"><rect fill="#F1F1F1" height="105.1563" rx="2.5" ry="2.5" style="stroke:#181818;stroke-width:0.5;" width="752.6465" x="2529.86" y="271.0969"/><ellipse cx="2837.4464" cy="291.2297" fill="#ADD1B2" rx="11" ry="11" style="stroke:#181818;stroke-width:1;"/><path d="M2840.4152,296.8703 Q2839.8371,297.1672 2839.1964,297.3078 Q2838.5558,297.4641 2837.8527,297.4641 Q2835.3527,297.4641 2834.0246,295.8234 Q2832.7121,294.1672 2832.7121,291.0422 Q2832.7121,287.9172 2834.0246,286.2609 Q2835.3527,284.6047 2837.8527,284.6047 Q2838.5558,284.6047 2839.1964,284.7609 Q2839.8527,284.9172 2840.4152,285.2141 L2840.4152,287.9328 Q2839.7902,287.3547 2839.1964,287.0891 Q2838.6027,286.8078 2837.9777,286.8078 Q2836.6339,286.8078 2835.9464,287.8859 Q2835.2589,288.9484 2835.2589,291.0422 Q2835.2589,293.1359 2835.9464,294.2141 Q2836.6339,295.2766 2837.9777,295.2766 Q2838.6027,295.2766 2839.1964,295.0109 Q2839.7902,294.7297 2840.4152,294.1516 L2840.4152,296.8703 Z " fill="#000000"/><text fill="#000000" font-family="sans-serif" font-size="12" font-style="italic" lengthAdjust="spacing" textLength="61.0605" x="2891.903" y="287.2355">&#171;process&#187;</text><text fill="#000000" font-family="sans-serif" font-size="14" lengthAdjust="spacing" textLength="128.9736" x="2857.9464" y="303.0607">BGM_1000_proc_1</text><line style="stroke:#181818;stroke-width:0.5;" x1="2530.86" x2="3281.5065" y1="311.3625" y2="311.3625"/><text fill="#000000" font-family="sans-serif" font-size="14" lengthAdjust="spacing" textLength="180.3457" x="2535.86" y="328.3576">Netznutzungsabrechnung</text><text fill="#000000" font-family="sans-serif" font-size="14" lengthAdjust="spacing" textLength="218.0938" x="2535.86" y="344.6545">Gesetze: StromNEV, StromNZV</text><text fill="#000000" font-family="sans-serif" font-size="14" lengthAdjust="spacing" textLength="740.6465" x="2535.86" y="360.9514">Zusammenfassung: Wie funktioniert die Netznutzungsabrechnung zwischen Netzbetreiber und Lieferant?</text><line style="stroke:#181818;stroke-width:0.5;" x1="2530.86" x2="3281.5065" y1="368.2531" y2="368.2531"/></g><!--class BGM_1000_proc_2--><g class="entity" data-entity="BGM_1000_proc_2" data-source-line="58" data-uid="ent0015" id="entity_BGM_1000_proc_2"><rect fill="#F1F1F1" height="105.1563" rx="2.5" ry="2.5" style="stroke:#181818;stroke-width:0.5;" width="690.2275" x="3317.07" y="271.0969"/><ellipse cx="3593.447" cy="291.2297" fill="#ADD1B2" rx="11" ry="11" style="stroke:#181818;stroke-width:1;"/><path d="M3596.4157,296.8703 Q3595.8376,297.1672 3595.197,297.3078 Q3594.5563,297.4641 3593.8532,297.4641 Q3591.3532,297.4641 3590.0251,295.8234 Q3588.7126,294.1672 3588.7126,291.0422 Q3588.7126,287.9172 3590.0251,286.2609 Q3591.3532,284.6047 3593.8532,284.6047 Q3594.5563,284.6047 3595.197,284.7609 Q3595.8532,284.9172 3596.4157,285.2141 L3596.4157,287.9328 Q3595.7907,287.3547 3595.197,287.0891 Q3594.6032,286.8078 3593.9782,286.8078 Q3592.6345,286.8078 3591.947,287.8859 Q3591.2595,288.9484 3591.2595,291.0422 Q3591.2595,293.1359 3591.947,294.2141 Q3592.6345,295.2766 3593.9782,295.2766 Q3594.6032,295.2766 3595.197,295.0109 Q3595.7907,294.7297 3596.4157,294.1516 L3596.4157,296.8703 Z " fill="#000000"/><text fill="#000000" font-family="sans-serif" font-size="12" font-style="italic" lengthAdjust="spacing" textLength="61.0605" x="3647.9035" y="287.2355">&#171;process&#187;</text><text fill="#000000" font-family="sans-serif" font-size="14" lengthAdjust="spacing" textLength="128.9736" x="3613.947" y="303.0607">BGM_1000_proc_2</text><line style="stroke:#181818;stroke-width:0.5;" x1="3318.07" x2="4006.2975" y1="311.3625" y2="311.3625"/><text fill="#000000" font-family="sans-serif" font-size="14" lengthAdjust="spacing" textLength="223.2822" x="3323.07" y="328.3576">Messstellenbetriebsabrechnung</text><text fill="#000000" font-family="sans-serif" font-size="14" lengthAdjust="spacing" textLength="105.0957" x="3323.07" y="344.6545">Gesetze: MsbG</text><text fill="#000000" font-family="sans-serif" font-size="14" lengthAdjust="spacing" textLength="678.2275" x="3323.07" y="360.9514">Zusammenfassung: Beschreibe den Prozess der Abrechnung von Messstellenbetriebsleistungen.</text><line style="stroke:#181818;stroke-width:0.5;" x1="3318.07" x2="4006.2975" y1="368.2531" y2="368.2531"/></g><!--class BGM_1000_proc_3--><g class="entity" data-entity="BGM_1000_proc_3" data-source-line="64" data-uid="ent0017" id="entity_BGM_1000_proc_3"><rect fill="#F1F1F1" height="105.1563" rx="2.5" ry="2.5" style="stroke:#181818;stroke-width:0.5;" width="378.2285" x="4042.07" y="271.0969"/><ellipse cx="4162.4474" cy="291.2297" fill="#ADD1B2" rx="11" ry="11" style="stroke:#181818;stroke-width:1;"/><path d="M4165.4162,296.8703 Q4164.8381,297.1672 4164.1974,297.3078 Q4163.5568,297.4641 4162.8537,297.4641 Q4160.3537,297.4641 4159.0256,295.8234 Q4157.7131,294.1672 4157.7131,291.0422 Q4157.7131,287.9172 4159.0256,286.2609 Q4160.3537,284.6047 4162.8537,284.6047 Q4163.5568,284.6047 4164.1974,284.7609 Q4164.8537,284.9172 4165.4162,285.2141 L4165.4162,287.9328 Q4164.7912,287.3547 4164.1974,287.0891 Q4163.6037,286.8078 4162.9787,286.8078 Q4161.6349,286.8078 4160.9474,287.8859 Q4160.2599,288.9484 4160.2599,291.0422 Q4160.2599,293.1359 4160.9474,294.2141 Q4161.6349,295.2766 4162.9787,295.2766 Q4163.6037,295.2766 4164.1974,295.0109 Q4164.7912,294.7297 4165.4162,294.1516 L4165.4162,296.8703 Z " fill="#000000"/><text fill="#000000" font-family="sans-serif" font-size="12" font-style="italic" lengthAdjust="spacing" textLength="61.0605" x="4216.904" y="287.2355">&#171;process&#187;</text><text fill="#000000" font-family="sans-serif" font-size="14" lengthAdjust="spacing" textLength="128.9736" x="4182.9474" y="303.0607">BGM_1000_proc_3</text><line style="stroke:#181818;stroke-width:0.5;" x1="4043.07" x2="4419.2985" y1="311.3625" y2="311.3625"/><text fill="#000000" font-family="sans-serif" font-size="14" lengthAdjust="spacing" textLength="334.3525" x="4048.07" y="328.3576">Anforderung und &#220;bermittlung von Messwerten</text><text fill="#000000" font-family="sans-serif" font-size="14" lengthAdjust="spacing" textLength="105.0957" x="4048.07" y="344.6545">Gesetze: MsbG</text><line style="stroke:#181818;stroke-width:0.5;" x1="4043.07" x2="4419.2985" y1="351.9562" y2="351.9562"/><text fill="#000000" font-family="sans-serif" font-size="14" lengthAdjust="spacing" textLength="366.2285" x="4048.07" y="368.9514">Zusammenfassung: Wie kann ein Marktpartner (z.B.</text></g><!--link BGM_1000 to BGM_1000_msg_1--><g class="link" data-entity-1="BGM_1000" data-entity-2="BGM_1000_msg_1" data-source-line="16" data-uid="lnk4" id="link_BGM_1000_BGM_1000_msg_1"><path codeLine="16" d="M1960.71,112.3669 C1650.29,119.1969 996.42,145.9769 455.18,250.7869 C443.65,253.0169 437.7128,254.2105 425.8928,257.0605" fill="none" id="BGM_1000-to-BGM_1000_msg_1" style="stroke:#181818;stroke-width:1;"/><polygon fill="#181818" points="420.06,258.4669,429.7469,260.2458,424.9207,257.2949,427.8717,252.4687,420.06,258.4669" style="stroke:#181818;stroke-width:1;"/><text fill="#000000" font-family="sans-serif" font-size="13" lengthAdjust="spacing" textLength="85.2363" x="729.18" y="216.8538">verwendet in</text></g><!--link BGM_1000 to BGM_1000_msg_2--><g class="link" data-entity-1="BGM_1000" data-entity-2="BGM_1000_msg_2" data-source-line="25" data-uid="lnk6" id="link_BGM_1000_BGM_1000_msg_2"><path codeLine="25" d="M1960.91,127.4469 C1744.53,149.6969 1371.17,192.4569 1054.18,250.7869 C1048.26,251.8769 1048.1598,251.8622 1042.1398,253.0322" fill="none" id="BGM_1000-to-BGM_1000_msg_2" style="stroke:#181818;stroke-width:1;"/><polygon fill="#181818" points="1036.25,254.1769,1045.8478,256.3864,1041.1582,253.223,1044.3216,248.5333,1036.25,254.1769" style="stroke:#181818;stroke-width:1;"/><text fill="#000000" font-family="sans-serif" font-size="13" lengthAdjust="spacing" textLength="85.2363" x="1322.18" y="216.8538">verwendet in</text></g><!--link BGM_1000 to BGM_1000_msg_3--><g class="link" data-entity-1="BGM_1000" data-entity-2="BGM_1000_msg_3" data-source-line="34" data-uid="lnk8" id="link_BGM_1000_BGM_1000_msg_3"><path codeLine="34" d="M1960.84,160.4369 C1864.8,187.2669 1750.7587,219.1325 1644.9487,248.6925" fill="none" id="BGM_1000-to-BGM_1000_msg_3" style="stroke:#181818;stroke-width:1;"/><polygon fill="#181818" points="1639.17,250.3069,1648.9144,251.7378,1643.9856,248.9615,1646.7618,244.0328,1639.17,250.3069" style="stroke:#181818;stroke-width:1;"/><text fill="#000000" font-family="sans-serif" font-size="13" lengthAdjust="spacing" textLength="85.2363" x="1785.18" y="216.8538">verwendet in</text></g><!--link BGM_1000 to BGM_1000_msg_4--><g class="link" data-entity-1="BGM_1000" data-entity-2="BGM_1000_msg_4" data-source-line="43" data-uid="lnk10" id="link_BGM_1000_BGM_1000_msg_4"><path codeLine="43" d="M2080.6,174.1269 C2057.83,198.2169 2035.9213,221.3963 2012.5013,246.1763" fill="none" id="BGM_1000-to-BGM_1000_msg_4" style="stroke:#181818;stroke-width:1;"/><polygon fill="#181818" points="2008.38,250.5369,2017.469,246.7435,2011.8144,246.903,2011.6549,241.2484,2008.38,250.5369" style="stroke:#181818;stroke-width:1;"/><text fill="#000000" font-family="sans-serif" font-size="13" lengthAdjust="spacing" textLength="85.2363" x="2048.18" y="216.8538">verwendet in</text></g><!--link BGM_1000 to BGM_1000_msg_5--><g class="link" data-entity-1="BGM_1000" data-entity-2="BGM_1000_msg_5" data-source-line="51" data-uid="lnk12" id="link_BGM_1000_BGM_1000_msg_5"><path codeLine="51" d="M2202.06,174.1269 C2227.5,200.9069 2252.8676,227.6068 2278.2976,254.3768" fill="none" id="BGM_1000-to-BGM_1000_msg_5" style="stroke:#181818;stroke-width:1;"/><polygon fill="#181818" points="2282.43,258.7269,2279.1315,249.4468,2278.9864,255.1018,2273.3314,254.9566,2282.43,258.7269" style="stroke:#181818;stroke-width:1;"/><text fill="#000000" font-family="sans-serif" font-size="13" lengthAdjust="spacing" textLength="85.2363" x="2243.18" y="216.8538">verwendet in</text></g><!--link BGM_1000 to BGM_1000_proc_1--><g class="link" data-entity-1="BGM_1000" data-entity-2="BGM_1000_proc_1" data-source-line="57" data-uid="lnk14" id="link_BGM_1000_BGM_1000_proc_1"><path codeLine="57" d="M2321.51,160.1669 C2441.22,193.4369 2592.2191,235.4103 2713.2991,269.0603" fill="none" id="BGM_1000-to-BGM_1000_proc_1" style="stroke:#181818;stroke-width:1;stroke-dasharray:7,7;"/><polygon fill="#181818" points="2719.08,270.6669,2711.4797,264.403,2714.2626,269.328,2709.3376,272.1109,2719.08,270.6669" style="stroke:#181818;stroke-width:1;"/><text fill="#000000" font-family="sans-serif" font-size="13" lengthAdjust="spacing" textLength="91.6221" x="2525.18" y="216.8538">eingebettet in</text></g><!--link BGM_1000 to BGM_1000_proc_2--><g class="link" data-entity-1="BGM_1000" data-entity-2="BGM_1000_proc_2" data-source-line="63" data-uid="lnk16" id="link_BGM_1000_BGM_1000_proc_2"><path codeLine="63" d="M2321.45,127.6869 C2549.89,151.0269 2955.42,195.6969 3300.18,250.7869 C3336.72,256.6269 3369.3046,262.3713 3406.9846,269.5013" fill="none" id="BGM_1000-to-BGM_1000_proc_2" style="stroke:#181818;stroke-width:1;stroke-dasharray:7,7;"/><polygon fill="#181818" points="3412.88,270.6169,3404.7806,265.0133,3407.9672,269.6872,3403.2932,272.8738,3412.88,270.6169" style="stroke:#181818;stroke-width:1;"/><text fill="#000000" font-family="sans-serif" font-size="13" lengthAdjust="spacing" textLength="91.6221" x="3081.18" y="216.8538">eingebettet in</text></g><!--link BGM_1000 to BGM_1000_proc_3--><g class="link" data-entity-1="BGM_1000" data-entity-2="BGM_1000_proc_3" data-source-line="69" data-uid="lnk18" id="link_BGM_1000_BGM_1000_proc_3"><path codeLine="69" d="M2321.53,117.5069 C2727.51,135.2869 3702.86,183.7169 4025.18,250.7869 C4049.2,255.7869 4068.5319,260.9981 4092.5519,268.7781" fill="none" id="BGM_1000-to-BGM_1000_proc_3" style="stroke:#181818;stroke-width:1;stroke-dasharray:7,7;"/><polygon fill="#181818" points="4098.26,270.6269,4090.9305,264.0483,4093.5033,269.0862,4088.4654,271.659,4098.26,270.6269" style="stroke:#181818;stroke-width:1;"/><text fill="#000000" font-family="sans-serif" font-size="13" lengthAdjust="spacing" textLength="91.6221" x="3798.18" y="216.8538">eingebettet in</text></g><!--SRC=[jPN1Rfj0443l-Oevzk0WMB0JeyXLdBHksk2qIUjAkI0CWus0nTfTaifL_wHIFoO_rbcm4yUEZQEg1wnb5tRdlPd1Ab4PmdcWa0Sg2oGSGd_WkPPfcWSXtKjzw-jR-7a0C0noTEatd8eadD9BOH4XpNyMnHobH9V6G7iCKSrvgUObdyXWB32SSXek5ZrwKYhCCkHZL2B1yUOpfpmkH8I2Pg3a4Jpy7gF84wKoFNDNy6gNUnGKmy6ljL3zN4vyQn7m8bGNpgw6NwylWHdcc1O-5LpX3vh6XCD0bBCPyaXhm0npv0fYd6RAq6nnfZU8COjS-1ZGp1b1InVCenPOTB4EpNqfDT3o5D-x6FZCDyT-K3xyGQ5PkDBxeCzCvfX7h6FCefX2V_HxUDXR9t3X3iKz1OOA4luI9Lkdl1YEhYxEYF8uMgNK8LUs9DZ7fa4Pbt1Uf6M5EWqKH0b2dzWdlCnp57eVYpbsss5ijmIh1RQ-ZiqM7B6M3c-r8BQKGgkn2fP2Qw1QA47vxoalAD9224nLARJEjcdPLgDEjeTEUuTEOujFg8r2vHIUhCAZLtXc5lPtsw42woxTsl_NhKzkwzhiMDr6cVOUCfrrcTuDTSSDoNJ2LPTzQZYHKcJkBXdVXX-UiR_g2_64NCUmG7R2V-bFPmy7xNK7r- -yq_CHEUY-na5JobS0wmCM_T8DDOvj4L8ZJhi1PoQAaBv99oTwGC7qUZNRje06A6c98hfHeiY7xqQjnUXsHAktfGoe7NXCPsXi-4wD4fSyLKd14yfQrJalRmxp-qHIgdYrhYiS4qf-LGQN2SOe0gxUhi8QHcy3fFhqJv1ULzjvsGPlKsyzOdjoF7W9j8yKUnKnKD4jKqjZ0QTFYCi2NZigmqGgMaTkxEPZ-_7P6tolxAj6N9tNDE2y-gFr0f6gMI0K9zetSwFVG65lKFm5]--></g></svg>