<svg xmlns="http://www.w3.org/2000/svg" xmlns:xlink="http://www.w3.org/1999/xlink" contentStyleType="text/css" data-diagram-type="CLASS" height="370px" preserveAspectRatio="none" style="width:984px;height:370px;background:#FFFFFF;" version="1.1" viewBox="0 0 984 370" width="984px" zoomAndPan="magnify"><title>Datenatlas - BGM:CS356455854555</title><defs/><g><g class="title" data-source-line="1"><text fill="#000000" font-family="sans-serif" font-size="14" font-weight="bold" lengthAdjust="spacing" textLength="280.4443" x="345.0826" y="22.9951">Datenatlas - BGM:CS356455854555</text></g><!--class BGM_CS356455854555--><g class="entity" data-entity="BGM_CS356455854555" data-source-line="2" data-uid="ent0002" id="entity_BGM_CS356455854555"><rect fill="#F1F1F1" height="96.8906" rx="2.5" ry="2.5" style="stroke:#181818;stroke-width:0.5;" width="235.3574" x="288.75" y="44.2969"/><ellipse cx="320.9744" cy="60.2969" fill="#ADD1B2" rx="11" ry="11" style="stroke:#181818;stroke-width:1;"/><path d="M323.9431,65.9375 Q323.365,66.2344 322.7244,66.375 Q322.0837,66.5313 321.3806,66.5313 Q318.8806,66.5313 317.5525,64.8906 Q316.24,63.2344 316.24,60.1094 Q316.24,56.9844 317.5525,55.3281 Q318.8806,53.6719 321.3806,53.6719 Q322.0837,53.6719 322.7244,53.8281 Q323.3806,53.9844 323.9431,54.2813 L323.9431,57 Q323.3181,56.4219 322.7244,56.1563 Q322.1306,55.875 321.5056,55.875 Q320.1619,55.875 319.4744,56.9531 Q318.7869,58.0156 318.7869,60.1094 Q318.7869,62.2031 319.4744,63.2813 Q320.1619,64.3438 321.5056,64.3438 Q322.1306,64.3438 322.7244,64.0781 Q323.3181,63.7969 323.9431,63.2188 L323.9431,65.9375 Z " fill="#000000"/><text fill="#000000" font-family="sans-serif" font-size="14" lengthAdjust="spacing" textLength="165.0811" x="338.802" y="65.1436">BGM_CS356455854555</text><line style="stroke:#181818;stroke-width:0.5;" x1="289.75" x2="523.1074" y1="76.2969" y2="76.2969"/><text fill="#000000" font-family="sans-serif" font-size="14" lengthAdjust="spacing" textLength="209.3574" x="308.75" y="93.292">Name: Identifikationsnummer</text><text fill="#000000" font-family="sans-serif" font-size="14" lengthAdjust="spacing" textLength="66.6436" x="308.75" y="109.5889">Prozesse:</text><rect fill="none" height="6" style="stroke:#C82930;stroke-width:1;" width="6" x="296.75" y="119.5391"/><text fill="#000000" font-family="sans-serif" font-size="14" lengthAdjust="spacing" textLength="158.0127" x="308.75" y="125.8857">Stammdaten&#228;nderung</text><line style="stroke:#181818;stroke-width:0.5;" x1="289.75" x2="523.1074" y1="133.1875" y2="133.1875"/></g><!--class BGM_CS356455854555_msg_1--><g class="entity" data-entity="BGM_CS356455854555_msg_1" data-source-line="7" data-uid="ent0003" id="entity_BGM_CS356455854555_msg_1"><rect fill="#F1F1F1" height="145.7813" rx="2.5" ry="2.5" style="stroke:#181818;stroke-width:0.5;" width="296.8604" x="7" y="218.1869"/><ellipse cx="43.1742" cy="234.1869" fill="#ADD1B2" rx="11" ry="11" style="stroke:#181818;stroke-width:1;"/><path d="M46.1429,239.8275 Q45.5648,240.1244 44.9242,240.265 Q44.2835,240.4213 43.5804,240.4213 Q41.0804,240.4213 39.7523,238.7806 Q38.4398,237.1244 38.4398,233.9994 Q38.4398,230.8744 39.7523,229.2181 Q41.0804,227.5619 43.5804,227.5619 Q44.2835,227.5619 44.9242,227.7181 Q45.5804,227.8744 46.1429,228.1713 L46.1429,230.89 Q45.5179,230.3119 44.9242,230.0463 Q44.3304,229.765 43.7054,229.765 Q42.3617,229.765 41.6742,230.8431 Q40.9867,231.9056 40.9867,233.9994 Q40.9867,236.0931 41.6742,237.1713 Q42.3617,238.2338 43.7054,238.2338 Q44.3304,238.2338 44.9242,237.9681 Q45.5179,237.6869 46.1429,237.1088 L46.1429,239.8275 Z " fill="#000000"/><text fill="#000000" font-family="sans-serif" font-size="14" lengthAdjust="spacing" textLength="217.8066" x="61.8795" y="239.0336">BGM_CS356455854555_msg_1</text><line style="stroke:#181818;stroke-width:0.5;" x1="8" x2="302.8604" y1="250.1869" y2="250.1869"/><text fill="#000000" font-family="sans-serif" font-size="14" lengthAdjust="spacing" textLength="162.7227" x="13" y="267.182">Nachricht: PARTIN 1.0e</text><text fill="#000000" font-family="sans-serif" font-size="14" lengthAdjust="spacing" textLength="123.0605" x="13" y="283.4789">Kontext: Beispiel:</text><text fill="#000000" font-family="sans-serif" font-size="14" lengthAdjust="spacing" textLength="91.4033" x="13" y="299.7757">Pflichtfeld: Ja</text><text fill="#000000" font-family="sans-serif" font-size="14" lengthAdjust="spacing" textLength="138.2637" x="13" y="316.0726">Codes: 10, 11, BGM</text><text fill="#000000" font-family="sans-serif" font-size="14" lengthAdjust="spacing" textLength="229.1064" x="13" y="332.3695">Prozesse: Stammdaten&#228;nderung</text><text fill="#000000" font-family="sans-serif" font-size="14" lengthAdjust="spacing" textLength="284.8604" x="13" y="348.6664">Quelle: PARTIN_MIG_1_0e_20241001.pdf</text><line style="stroke:#181818;stroke-width:0.5;" x1="8" x2="302.8604" y1="355.9681" y2="355.9681"/></g><!--class BGM_CS356455854555_proc_1--><g class="entity" data-entity="BGM_CS356455854555_proc_1" data-source-line="16" data-uid="ent0005" id="entity_BGM_CS356455854555_proc_1"><rect fill="#F1F1F1" height="88.8594" rx="2.5" ry="2.5" style="stroke:#181818;stroke-width:0.5;" width="638.3496" x="339.26" y="246.6469"/><ellipse cx="544.738" cy="266.7797" fill="#ADD1B2" rx="11" ry="11" style="stroke:#181818;stroke-width:1;"/><path d="M547.7068,272.4203 Q547.1287,272.7172 546.488,272.8578 Q545.8474,273.0141 545.1443,273.0141 Q542.6443,273.0141 541.3162,271.3734 Q540.0037,269.7172 540.0037,266.5922 Q540.0037,263.4672 541.3162,261.8109 Q542.6443,260.1547 545.1443,260.1547 Q545.8474,260.1547 546.488,260.3109 Q547.1443,260.4672 547.7068,260.7641 L547.7068,263.4828 Q547.0818,262.9047 546.488,262.6391 Q545.8943,262.3578 545.2693,262.3578 Q543.9255,262.3578 543.238,263.4359 Q542.5505,264.4984 542.5505,266.5922 Q542.5505,268.6859 543.238,269.7641 Q543.9255,270.8266 545.2693,270.8266 Q545.8943,270.8266 546.488,270.5609 Q547.0818,270.2797 547.7068,269.7016 L547.7068,272.4203 Z " fill="#000000"/><text fill="#000000" font-family="sans-serif" font-size="12" font-style="italic" lengthAdjust="spacing" textLength="61.0605" x="644.1545" y="262.7855">&#171;process&#187;</text><text fill="#000000" font-family="sans-serif" font-size="14" lengthAdjust="spacing" textLength="218.8936" x="565.238" y="278.6107">BGM_CS356455854555_proc_1</text><line style="stroke:#181818;stroke-width:0.5;" x1="340.26" x2="976.6096" y1="286.9125" y2="286.9125"/><text fill="#000000" font-family="sans-serif" font-size="14" lengthAdjust="spacing" textLength="158.0127" x="345.26" y="303.9076">Stammdaten&#228;nderung</text><text fill="#000000" font-family="sans-serif" font-size="14" lengthAdjust="spacing" textLength="626.3496" x="345.26" y="320.2045">Zusammenfassung: Wie wird eine Stammdaten&#228;nderung an einer Marktlokation, wie z.B.</text><line style="stroke:#181818;stroke-width:0.5;" x1="340.26" x2="976.6096" y1="327.5063" y2="327.5063"/></g><!--link BGM_CS356455854555 to BGM_CS356455854555_msg_1--><g class="link" data-entity-1="BGM_CS356455854555" data-entity-2="BGM_CS356455854555_msg_1" data-source-line="15" data-uid="lnk4" id="link_BGM_CS356455854555_BGM_CS356455854555_msg_1"><path codeLine="15" d="M345.35,141.5169 C316.04,164.4469 285.0162,188.7105 252.4762,214.1605" fill="none" id="BGM_CS356455854555-to-BGM_CS356455854555_msg_1" style="stroke:#181818;stroke-width:1;"/><polygon fill="#181818" points="247.75,217.8569,257.3035,215.4631,251.6885,214.7765,252.375,209.1615,247.75,217.8569" style="stroke:#181818;stroke-width:1;"/><text fill="#000000" font-family="sans-serif" font-size="13" lengthAdjust="spacing" textLength="85.2363" x="304.43" y="184.2538">verwendet in</text></g><!--link BGM_CS356455854555 to BGM_CS356455854555_proc_1--><g class="link" data-entity-1="BGM_CS356455854555" data-entity-2="BGM_CS356455854555_proc_1" data-source-line="20" data-uid="lnk6" id="link_BGM_CS356455854555_BGM_CS356455854555_proc_1"><path codeLine="20" d="M467.75,141.5169 C508.84,173.5269 557.777,211.6593 597.707,242.7693" fill="none" id="BGM_CS356455854555-to-BGM_CS356455854555_proc_1" style="stroke:#181818;stroke-width:1;stroke-dasharray:7,7;"/><polygon fill="#181818" points="602.44,246.4569,597.7988,237.7701,598.4958,243.3839,592.882,244.0809,602.44,246.4569" style="stroke:#181818;stroke-width:1;"/><text fill="#000000" font-family="sans-serif" font-size="13" lengthAdjust="spacing" textLength="91.6221" x="526.43" y="184.2538">eingebettet in</text></g><!--SRC=[VL5HIWCn4FtlAUO0tMLJkoAXBDWAfKfBjOBWJuYRsJOqcor9rah5stWJB-QaAYXi_Gd3UpFptfi47Gp2bGnePJ3IGmBZwPnFLcVv-J3FBt9wybv9Z8-4-4l0QmzW8MlaC5DeWwxqLWRTM6_RkaP7xD8r1_GUETL0srT1rhMAUX_lLg5hxRhtTb90r7ujsBTCkN6wt0GEoykx-za2M9eX4JUD3VX2y1YrtsaqKMfPcTXReL4ShYKXaqQXvy2oFZ3MZrg_tNNw0hXjqHZyKHJpsLGmaQ4OP8CXopAMxbH5zZikaoJ5wJmSdj7jaNG2Q7iw_Sur9RMFHh4WdqLnF4MtryVM4uosecM4S7ZG27lj5A2ss3K4qXuv1tFfji4qNv_Nfoc4GpfEkwEbQV6FMHvNhl49GpYc-mG0]--></g></svg>