<svg xmlns="http://www.w3.org/2000/svg" xmlns:xlink="http://www.w3.org/1999/xlink" contentStyleType="text/css" data-diagram-type="CLASS" height="403px" preserveAspectRatio="none" style="width:4194px;height:403px;background:#FFFFFF;" version="1.1" viewBox="0 0 4194 403" width="4194px" zoomAndPan="magnify"><title>Datenatlas - CAV:7111</title><defs/><g><g class="title" data-source-line="1"><text fill="#000000" font-family="sans-serif" font-size="14" font-weight="bold" lengthAdjust="spacing" textLength="178.0078" x="2001.0857" y="22.9951">Datenatlas - CAV:7111</text></g><!--class CAV_7111--><g class="entity" data-entity="CAV_7111" data-source-line="2" data-uid="ent0002" id="entity_CAV_7111"><rect fill="#F1F1F1" height="129.4844" rx="2.5" ry="2.5" style="stroke:#181818;stroke-width:0.5;" width="374.2021" x="1455.08" y="44.2969"/><ellipse cx="1602.1518" cy="60.2969" fill="#ADD1B2" rx="11" ry="11" style="stroke:#181818;stroke-width:1;"/><path d="M1605.1205,65.9375 Q1604.5424,66.2344 1603.9018,66.375 Q1603.2612,66.5313 1602.558,66.5313 Q1600.058,66.5313 1598.7299,64.8906 Q1597.4174,63.2344 1597.4174,60.1094 Q1597.4174,56.9844 1598.7299,55.3281 Q1600.058,53.6719 1602.558,53.6719 Q1603.2612,53.6719 1603.9018,53.8281 Q1604.558,53.9844 1605.1205,54.2813 L1605.1205,57 Q1604.4955,56.4219 1603.9018,56.1563 Q1603.308,55.875 1602.683,55.875 Q1601.3393,55.875 1600.6518,56.9531 Q1599.9643,58.0156 1599.9643,60.1094 Q1599.9643,62.2031 1600.6518,63.2813 Q1601.3393,64.3438 1602.683,64.3438 Q1603.308,64.3438 1603.9018,64.0781 Q1604.4955,63.7969 1605.1205,63.2188 L1605.1205,65.9375 Z " fill="#000000"/><text fill="#000000" font-family="sans-serif" font-size="14" lengthAdjust="spacing" textLength="71.5586" x="1622.6518" y="65.1436">CAV_7111</text><line style="stroke:#181818;stroke-width:0.5;" x1="1456.08" x2="1828.2821" y1="76.2969" y2="76.2969"/><text fill="#000000" font-family="sans-serif" font-size="14" lengthAdjust="spacing" textLength="194.4756" x="1475.08" y="93.292">Name: Merkmalswert, Code</text><text fill="#000000" font-family="sans-serif" font-size="14" lengthAdjust="spacing" textLength="66.6436" x="1475.08" y="109.5889">Prozesse:</text><rect fill="none" height="6" style="stroke:#C82930;stroke-width:1;" width="6" x="1463.08" y="119.5391"/><text fill="#000000" font-family="sans-serif" font-size="14" lengthAdjust="spacing" textLength="158.0127" x="1475.08" y="125.8857">Stammdaten&#228;nderung</text><rect fill="none" height="6" style="stroke:#C82930;stroke-width:1;" width="6" x="1463.08" y="135.8359"/><text fill="#000000" font-family="sans-serif" font-size="14" lengthAdjust="spacing" textLength="317.9668" x="1475.08" y="142.1826">Sperrung und Entsperrung eines Anschlusses</text><line style="stroke:#181818;stroke-width:0.5;" x1="1456.08" x2="1828.2821" y1="149.4844" y2="149.4844"/><rect fill="#F24D5C" height="6" style="stroke:#C82930;stroke-width:1;" width="6" x="1463.08" y="160.1328"/><text fill="#000000" font-family="sans-serif" font-size="14" lengthAdjust="spacing" textLength="348.2021" x="1475.08" y="166.4795">Bestellung einer technischen Konfiguration (MSB)</text></g><!--class CAV_7111_msg_1--><g class="entity" data-entity="CAV_7111_msg_1" data-source-line="9" data-uid="ent0003" id="entity_CAV_7111_msg_1"><rect fill="#F1F1F1" height="145.7813" rx="2.5" ry="2.5" style="stroke:#181818;stroke-width:0.5;" width="488.3623" x="7" y="250.7869"/><ellipse cx="184.7891" cy="266.7869" fill="#ADD1B2" rx="11" ry="11" style="stroke:#181818;stroke-width:1;"/><path d="M187.7578,272.4275 Q187.1797,272.7244 186.5391,272.865 Q185.8984,273.0213 185.1953,273.0213 Q182.6953,273.0213 181.3672,271.3806 Q180.0547,269.7244 180.0547,266.5994 Q180.0547,263.4744 181.3672,261.8181 Q182.6953,260.1619 185.1953,260.1619 Q185.8984,260.1619 186.5391,260.3181 Q187.1953,260.4744 187.7578,260.7713 L187.7578,263.49 Q187.1328,262.9119 186.5391,262.6463 Q185.9453,262.365 185.3203,262.365 Q183.9766,262.365 183.2891,263.4431 Q182.6016,264.5056 182.6016,266.5994 Q182.6016,268.6931 183.2891,269.7713 Q183.9766,270.8338 185.3203,270.8338 Q185.9453,270.8338 186.5391,270.5681 Q187.1328,270.2869 187.7578,269.7088 L187.7578,272.4275 Z " fill="#000000"/><text fill="#000000" font-family="sans-serif" font-size="14" lengthAdjust="spacing" textLength="124.2842" x="205.2891" y="271.6336">CAV_7111_msg_1</text><line style="stroke:#181818;stroke-width:0.5;" x1="8" x2="494.3623" y1="282.7869" y2="282.7869"/><text fill="#000000" font-family="sans-serif" font-size="14" lengthAdjust="spacing" textLength="162.7227" x="13" y="299.782">Nachricht: PARTIN 1.0e</text><text fill="#000000" font-family="sans-serif" font-size="14" lengthAdjust="spacing" textLength="170.3447" x="13" y="316.0789">Kontext: Segmentlayout</text><text fill="#000000" font-family="sans-serif" font-size="14" lengthAdjust="spacing" textLength="110.5439" x="13" y="332.3757">Pflichtfeld: Nein</text><text fill="#000000" font-family="sans-serif" font-size="14" lengthAdjust="spacing" textLength="476.3623" x="13" y="348.6726">Codes: 000, 200, 999, CAV, EEG, OCR, SG, SG4, Z48, Z49, Z50, Z51</text><text fill="#000000" font-family="sans-serif" font-size="14" lengthAdjust="spacing" textLength="229.1064" x="13" y="364.9695">Prozesse: Stammdaten&#228;nderung</text><text fill="#000000" font-family="sans-serif" font-size="14" lengthAdjust="spacing" textLength="284.8604" x="13" y="381.2664">Quelle: PARTIN_MIG_1_0e_20241001.pdf</text><line style="stroke:#181818;stroke-width:0.5;" x1="8" x2="494.3623" y1="388.5681" y2="388.5681"/></g><!--class CAV_7111_msg_2--><g class="entity" data-entity="CAV_7111_msg_2" data-source-line="18" data-uid="ent0005" id="entity_CAV_7111_msg_2"><rect fill="#F1F1F1" height="145.7813" rx="2.5" ry="2.5" style="stroke:#181818;stroke-width:0.5;" width="758.1631" x="530.1" y="250.7869"/><ellipse cx="842.7895" cy="266.7869" fill="#ADD1B2" rx="11" ry="11" style="stroke:#181818;stroke-width:1;"/><path d="M845.7582,272.4275 Q845.1801,272.7244 844.5395,272.865 Q843.8988,273.0213 843.1957,273.0213 Q840.6957,273.0213 839.3676,271.3806 Q838.0551,269.7244 838.0551,266.5994 Q838.0551,263.4744 839.3676,261.8181 Q840.6957,260.1619 843.1957,260.1619 Q843.8988,260.1619 844.5395,260.3181 Q845.1957,260.4744 845.7582,260.7713 L845.7582,263.49 Q845.1332,262.9119 844.5395,262.6463 Q843.9457,262.365 843.3207,262.365 Q841.977,262.365 841.2895,263.4431 Q840.602,264.5056 840.602,266.5994 Q840.602,268.6931 841.2895,269.7713 Q841.977,270.8338 843.3207,270.8338 Q843.9457,270.8338 844.5395,270.5681 Q845.1332,270.2869 845.7582,269.7088 L845.7582,272.4275 Z " fill="#000000"/><text fill="#000000" font-family="sans-serif" font-size="14" lengthAdjust="spacing" textLength="124.2842" x="863.2895" y="271.6336">CAV_7111_msg_2</text><line style="stroke:#181818;stroke-width:0.5;" x1="531.1" x2="1287.2631" y1="282.7869" y2="282.7869"/><text fill="#000000" font-family="sans-serif" font-size="14" lengthAdjust="spacing" textLength="170.3584" x="536.1" y="299.782">Nachricht: QUOTES 1.3a</text><text fill="#000000" font-family="sans-serif" font-size="14" lengthAdjust="spacing" textLength="123.0605" x="536.1" y="316.0789">Kontext: Beispiel:</text><text fill="#000000" font-family="sans-serif" font-size="14" lengthAdjust="spacing" textLength="110.5439" x="536.1" y="332.3757">Pflichtfeld: Nein</text><text fill="#000000" font-family="sans-serif" font-size="14" lengthAdjust="spacing" textLength="433.8975" x="536.1" y="348.6726">Codes: 10, 999, CAV, DSL, ETH, GSM, LAN, LTE, PLC, PST, TAE</text><text fill="#000000" font-family="sans-serif" font-size="14" lengthAdjust="spacing" textLength="408.3174" x="536.1" y="364.9695">Quelle: QUOTES_MIG_1_3a_Fehlerkorrektur_20241213.pdf</text><line style="stroke:#181818;stroke-width:0.5;" x1="531.1" x2="1287.2631" y1="372.2713" y2="372.2713"/><text fill="#000000" font-family="sans-serif" font-size="14" lengthAdjust="spacing" textLength="746.1631" x="536.1" y="389.2664">Prozesse: Bestellung einer technischen Konfiguration (MSB), Sperrung und Entsperrung eines Anschlusses</text></g><!--class CAV_7111_proc_1--><g class="entity" data-entity="CAV_7111_proc_1" data-source-line="27" data-uid="ent0007" id="entity_CAV_7111_proc_1"><rect fill="#F1F1F1" height="88.8594" rx="2.5" ry="2.5" style="stroke:#181818;stroke-width:0.5;" width="638.3496" x="1323.01" y="279.2469"/><ellipse cx="1575.2493" cy="299.3797" fill="#ADD1B2" rx="11" ry="11" style="stroke:#181818;stroke-width:1;"/><path d="M1578.218,305.0203 Q1577.6399,305.3172 1576.9993,305.4578 Q1576.3586,305.6141 1575.6555,305.6141 Q1573.1555,305.6141 1571.8274,303.9734 Q1570.5149,302.3172 1570.5149,299.1922 Q1570.5149,296.0672 1571.8274,294.4109 Q1573.1555,292.7547 1575.6555,292.7547 Q1576.3586,292.7547 1576.9993,292.9109 Q1577.6555,293.0672 1578.218,293.3641 L1578.218,296.0828 Q1577.593,295.5047 1576.9993,295.2391 Q1576.4055,294.9578 1575.7805,294.9578 Q1574.4368,294.9578 1573.7493,296.0359 Q1573.0618,297.0984 1573.0618,299.1922 Q1573.0618,301.2859 1573.7493,302.3641 Q1574.4368,303.4266 1575.7805,303.4266 Q1576.4055,303.4266 1576.9993,303.1609 Q1577.593,302.8797 1578.218,302.3016 L1578.218,305.0203 Z " fill="#000000"/><text fill="#000000" font-family="sans-serif" font-size="12" font-style="italic" lengthAdjust="spacing" textLength="61.0605" x="1627.9045" y="295.3855">&#171;process&#187;</text><text fill="#000000" font-family="sans-serif" font-size="14" lengthAdjust="spacing" textLength="125.3711" x="1595.7493" y="311.2107">CAV_7111_proc_1</text><line style="stroke:#181818;stroke-width:0.5;" x1="1324.01" x2="1960.3596" y1="319.5125" y2="319.5125"/><text fill="#000000" font-family="sans-serif" font-size="14" lengthAdjust="spacing" textLength="158.0127" x="1329.01" y="336.5076">Stammdaten&#228;nderung</text><text fill="#000000" font-family="sans-serif" font-size="14" lengthAdjust="spacing" textLength="626.3496" x="1329.01" y="352.8045">Zusammenfassung: Wie wird eine Stammdaten&#228;nderung an einer Marktlokation, wie z.B.</text><line style="stroke:#181818;stroke-width:0.5;" x1="1324.01" x2="1960.3596" y1="360.1063" y2="360.1063"/></g><!--class CAV_7111_proc_2--><g class="entity" data-entity="CAV_7111_proc_2" data-source-line="32" data-uid="ent0009" id="entity_CAV_7111_proc_2"><rect fill="#F1F1F1" height="105.1563" rx="2.5" ry="2.5" style="stroke:#181818;stroke-width:0.5;" width="1301.9961" x="1996.18" y="271.0969"/><ellipse cx="2580.2425" cy="291.2297" fill="#ADD1B2" rx="11" ry="11" style="stroke:#181818;stroke-width:1;"/><path d="M2583.2113,296.8703 Q2582.6331,297.1672 2581.9925,297.3078 Q2581.3519,297.4641 2580.6488,297.4641 Q2578.1488,297.4641 2576.8206,295.8234 Q2575.5081,294.1672 2575.5081,291.0422 Q2575.5081,287.9172 2576.8206,286.2609 Q2578.1488,284.6047 2580.6488,284.6047 Q2581.3519,284.6047 2581.9925,284.7609 Q2582.6488,284.9172 2583.2113,285.2141 L2583.2113,287.9328 Q2582.5863,287.3547 2581.9925,287.0891 Q2581.3988,286.8078 2580.7738,286.8078 Q2579.43,286.8078 2578.7425,287.8859 Q2578.055,288.9484 2578.055,291.0422 Q2578.055,293.1359 2578.7425,294.2141 Q2579.43,295.2766 2580.7738,295.2766 Q2581.3988,295.2766 2581.9925,295.0109 Q2582.5863,294.7297 2583.2113,294.1516 L2583.2113,296.8703 Z " fill="#000000"/><text fill="#000000" font-family="sans-serif" font-size="12" font-style="italic" lengthAdjust="spacing" textLength="61.0605" x="2632.8978" y="287.2355">&#171;process&#187;</text><text fill="#000000" font-family="sans-serif" font-size="14" lengthAdjust="spacing" textLength="125.3711" x="2600.7425" y="303.0607">CAV_7111_proc_2</text><line style="stroke:#181818;stroke-width:0.5;" x1="1997.18" x2="3297.1761" y1="311.3625" y2="311.3625"/><text fill="#000000" font-family="sans-serif" font-size="14" lengthAdjust="spacing" textLength="156.4063" x="2002.18" y="328.3576">Gesetze: MsbG, EnWG</text><text fill="#000000" font-family="sans-serif" font-size="14" lengthAdjust="spacing" textLength="1289.9961" x="2002.18" y="344.6545">Zusammenfassung: Erl&#228;utere den Prozess zur Bestellung einer spezifischen technischen Konfiguration bei einem Messstellenbetreiber, beispielsweise f&#252;r ein intelligentes Messsystem.</text><line style="stroke:#181818;stroke-width:0.5;" x1="1997.18" x2="3297.1761" y1="351.9562" y2="351.9562"/><text fill="#000000" font-family="sans-serif" font-size="14" lengthAdjust="spacing" textLength="348.2021" x="2002.18" y="368.9514">Bestellung einer technischen Konfiguration (MSB)</text></g><!--class CAV_7111_proc_3--><g class="entity" data-entity="CAV_7111_proc_3" data-source-line="38" data-uid="ent0011" id="entity_CAV_7111_proc_3"><rect fill="#F1F1F1" height="105.1563" rx="2.5" ry="2.5" style="stroke:#181818;stroke-width:0.5;" width="853.9893" x="3333.19" y="271.0969"/><ellipse cx="3693.2491" cy="291.2297" fill="#ADD1B2" rx="11" ry="11" style="stroke:#181818;stroke-width:1;"/><path d="M3696.2178,296.8703 Q3695.6397,297.1672 3694.9991,297.3078 Q3694.3585,297.4641 3693.6553,297.4641 Q3691.1553,297.4641 3689.8272,295.8234 Q3688.5147,294.1672 3688.5147,291.0422 Q3688.5147,287.9172 3689.8272,286.2609 Q3691.1553,284.6047 3693.6553,284.6047 Q3694.3585,284.6047 3694.9991,284.7609 Q3695.6553,284.9172 3696.2178,285.2141 L3696.2178,287.9328 Q3695.5928,287.3547 3694.9991,287.0891 Q3694.4053,286.8078 3693.7803,286.8078 Q3692.4366,286.8078 3691.7491,287.8859 Q3691.0616,288.9484 3691.0616,291.0422 Q3691.0616,293.1359 3691.7491,294.2141 Q3692.4366,295.2766 3693.7803,295.2766 Q3694.4053,295.2766 3694.9991,295.0109 Q3695.5928,294.7297 3696.2178,294.1516 L3696.2178,296.8703 Z " fill="#000000"/><text fill="#000000" font-family="sans-serif" font-size="12" font-style="italic" lengthAdjust="spacing" textLength="61.0605" x="3745.9044" y="287.2355">&#171;process&#187;</text><text fill="#000000" font-family="sans-serif" font-size="14" lengthAdjust="spacing" textLength="125.3711" x="3713.7491" y="303.0607">CAV_7111_proc_3</text><line style="stroke:#181818;stroke-width:0.5;" x1="3334.19" x2="4186.1793" y1="311.3625" y2="311.3625"/><text fill="#000000" font-family="sans-serif" font-size="14" lengthAdjust="spacing" textLength="317.9668" x="3339.19" y="328.3576">Sperrung und Entsperrung eines Anschlusses</text><text fill="#000000" font-family="sans-serif" font-size="14" lengthAdjust="spacing" textLength="138.3252" x="3339.19" y="344.6545">Gesetze: StromGVV</text><text fill="#000000" font-family="sans-serif" font-size="14" lengthAdjust="spacing" textLength="841.9893" x="3339.19" y="360.9514">Zusammenfassung: Beschreibe den End-to-End-Prozess f&#252;r die Sperrung und Wiederherstellung eines Netzanschlusses.</text><line style="stroke:#181818;stroke-width:0.5;" x1="3334.19" x2="4186.1793" y1="368.2531" y2="368.2531"/></g><!--link CAV_7111 to CAV_7111_msg_1--><g class="link" data-entity-1="CAV_7111" data-entity-2="CAV_7111_msg_1" data-source-line="17" data-uid="lnk4" id="link_CAV_7111_CAV_7111_msg_1"><path codeLine="17" d="M1454.9,124.9969 C1229.66,144.9069 840.84,185.4169 512.18,250.7869 C506.76,251.8669 507.1691,251.7506 501.6591,252.9206" fill="none" id="CAV_7111-to-CAV_7111_msg_1" style="stroke:#181818;stroke-width:1;"/><polygon fill="#181818" points="495.79,254.1669,505.4246,256.2102,500.681,253.1283,503.7629,248.3847,495.79,254.1669" style="stroke:#181818;stroke-width:1;"/><text fill="#000000" font-family="sans-serif" font-size="13" lengthAdjust="spacing" textLength="85.2363" x="759.18" y="216.8538">verwendet in</text></g><!--link CAV_7111 to CAV_7111_msg_2--><g class="link" data-entity-1="CAV_7111" data-entity-2="CAV_7111_msg_2" data-source-line="26" data-uid="lnk6" id="link_CAV_7111_CAV_7111_msg_2"><path codeLine="26" d="M1454.84,164.3869 C1364.81,190.5069 1261.4123,220.4949 1164.4623,248.6249" fill="none" id="CAV_7111-to-CAV_7111_msg_2" style="stroke:#181818;stroke-width:1;"/><polygon fill="#181818" points="1158.7,250.2969,1168.4581,251.6305,1163.502,248.9036,1166.2289,243.9474,1158.7,250.2969" style="stroke:#181818;stroke-width:1;"/><text fill="#000000" font-family="sans-serif" font-size="13" lengthAdjust="spacing" textLength="85.2363" x="1299.18" y="216.8538">verwendet in</text></g><!--link CAV_7111 to CAV_7111_proc_1--><g class="link" data-entity-1="CAV_7111" data-entity-2="CAV_7111_proc_1" data-source-line="31" data-uid="lnk8" id="link_CAV_7111_CAV_7111_proc_1"><path codeLine="31" d="M1642.18,174.1269 C1642.18,207.9969 1642.18,242.6969 1642.18,272.9269" fill="none" id="CAV_7111-to-CAV_7111_proc_1" style="stroke:#181818;stroke-width:1;stroke-dasharray:7,7;"/><polygon fill="#181818" points="1642.18,278.9269,1646.18,269.9269,1642.18,273.9269,1638.18,269.9269,1642.18,278.9269" style="stroke:#181818;stroke-width:1;"/><text fill="#000000" font-family="sans-serif" font-size="13" lengthAdjust="spacing" textLength="91.6221" x="1643.18" y="216.8538">eingebettet in</text></g><!--link CAV_7111 to CAV_7111_proc_2--><g class="link" data-entity-1="CAV_7111" data-entity-2="CAV_7111_proc_2" data-source-line="37" data-uid="lnk10" id="link_CAV_7111_CAV_7111_proc_2"><path codeLine="37" d="M1829.74,149.7269 C1991.06,183.8569 2219.0499,232.0949 2395.3499,269.3949" fill="none" id="CAV_7111-to-CAV_7111_proc_2" style="stroke:#181818;stroke-width:1;stroke-dasharray:7,7;"/><polygon fill="#181818" points="2401.22,270.6369,2393.2429,264.8606,2396.3283,269.6019,2391.587,272.6873,2401.22,270.6369" style="stroke:#181818;stroke-width:1;"/><text fill="#000000" font-family="sans-serif" font-size="13" lengthAdjust="spacing" textLength="91.6221" x="2146.18" y="216.8538">eingebettet in</text></g><!--link CAV_7111 to CAV_7111_proc_3--><g class="link" data-entity-1="CAV_7111" data-entity-2="CAV_7111_proc_3" data-source-line="43" data-uid="lnk12" id="link_CAV_7111_CAV_7111_proc_3"><path codeLine="43" d="M1829.58,121.1269 C2139.45,140.5169 2777.79,184.8669 3315.18,250.7869 C3361.3,256.4469 3404.0388,262.4411 3451.5788,269.7011" fill="none" id="CAV_7111-to-CAV_7111_proc_3" style="stroke:#181818;stroke-width:1;stroke-dasharray:7,7;"/><polygon fill="#181818" points="3457.51,270.6069,3449.217,265.294,3452.5673,269.8521,3448.0093,273.2024,3457.51,270.6069" style="stroke:#181818;stroke-width:1;"/><text fill="#000000" font-family="sans-serif" font-size="13" lengthAdjust="spacing" textLength="91.6221" x="3044.18" y="216.8538">eingebettet in</text></g><!--SRC=[dPJRRjf048RlynHpsKeBiasgDbQ41CHremP2Oagat5W6Z-qLzXhjhfk6gc-Jn-WTBzPP1v9mI6bwmU0zpE7_TdOrrpd2MQHHH3gF53IWrncx7stRFfhIM9bXQ8RmymXW41NeGX_bh8XoTOTIC-YLCTBIK9OBL0fT-WOA4-YeA68JUFaWOfILI5ShNLGQyvmc0Bb02HgdcU1gcg60hwL8U5h9IFDImBj-q7s_3ZX7QQ909MBmX5RhiGcYe2CeG5vH1UherrRjOQ7ISArWcaa-pRGBmyxrw7m0TjCozLDYZJzeEi2qG44mxijA6s59RlOdcCSk32WPpHdDoWNBiXWunfoSd32JZe7d-GmkUzSC0j_yZXdS7dyoXdRSVh2CiL_oUeNKLKMCS5rbs3_tGpkqC7GivzYsBBivZnCI-dGyZKPxMwyBtr7U8SNKG6NlOU9iCxdwTZdo0cBIYbuowI9NSuwv-tSUzWQ9i-22S8o-CF23FeEBpe3Co6CmlEYH2KOCHXrl0yLRMuEzfIkUcJwgN35jHU5dp7BgwL9AdEbAFZ9sxDP1niu1ndDPJkaWJa_D1qbijslW-q_yjb8qZIAX43JZmWr7kECohhNiSu98h3Zr8pdJUJchsJ3oGbWqkysNnJURxPt2NEEUuWIrVhr-PwV-_xZ1FYhK2_Dug0dT2q_S-FiaUp9VFbGQ9K9CiLQT0OjAxYQberxmP9NrzGeco6k7WjujfUeOA4YnH3v1oSnwtTlqd765a2n_IxEVQ9YjFAMtW1gfzhqdx-80LEVVeBPsc-8jdVo4Cz2oBFpnU1zC8aONsyYiONeYRkYoOVxMN6knCJNBHdBgE-gl3EK6S4MNNI-Yvp8EW6ZjWFW3]--></g></svg>