<svg xmlns="http://www.w3.org/2000/svg" xmlns:xlink="http://www.w3.org/1999/xlink" contentStyleType="text/css" data-diagram-type="CLASS" height="387px" preserveAspectRatio="none" style="width:3280px;height:387px;background:#FFFFFF;" version="1.1" viewBox="0 0 3280 387" width="3280px" zoomAndPan="magnify"><title>Datenatlas - CAV:1131</title><defs/><g><g class="title" data-source-line="1"><text fill="#000000" font-family="sans-serif" font-size="14" font-weight="bold" lengthAdjust="spacing" textLength="178.0078" x="1544.0257" y="22.9951">Datenatlas - CAV:1131</text></g><!--class CAV_1131--><g class="entity" data-entity="CAV_1131" data-source-line="2" data-uid="ent0002" id="entity_CAV_1131"><rect fill="#F1F1F1" height="113.1875" rx="2.5" ry="2.5" style="stroke:#181818;stroke-width:0.5;" width="374.2021" x="1545.96" y="44.2969"/><ellipse cx="1693.0318" cy="60.2969" fill="#ADD1B2" rx="11" ry="11" style="stroke:#181818;stroke-width:1;"/><path d="M1696.0005,65.9375 Q1695.4224,66.2344 1694.7818,66.375 Q1694.1412,66.5313 1693.438,66.5313 Q1690.938,66.5313 1689.6099,64.8906 Q1688.2974,63.2344 1688.2974,60.1094 Q1688.2974,56.9844 1689.6099,55.3281 Q1690.938,53.6719 1693.438,53.6719 Q1694.1412,53.6719 1694.7818,53.8281 Q1695.438,53.9844 1696.0005,54.2813 L1696.0005,57 Q1695.3755,56.4219 1694.7818,56.1563 Q1694.188,55.875 1693.563,55.875 Q1692.2193,55.875 1691.5318,56.9531 Q1690.8443,58.0156 1690.8443,60.1094 Q1690.8443,62.2031 1691.5318,63.2813 Q1692.2193,64.3438 1693.563,64.3438 Q1694.188,64.3438 1694.7818,64.0781 Q1695.3755,63.7969 1696.0005,63.2188 L1696.0005,65.9375 Z " fill="#000000"/><text fill="#000000" font-family="sans-serif" font-size="14" lengthAdjust="spacing" textLength="71.5586" x="1713.5318" y="65.1436">CAV_1131</text><line style="stroke:#181818;stroke-width:0.5;" x1="1546.96" x2="1919.1621" y1="76.2969" y2="76.2969"/><text fill="#000000" font-family="sans-serif" font-size="14" lengthAdjust="spacing" textLength="160.2275" x="1565.96" y="93.292">Name: Codeliste, Code</text><text fill="#000000" font-family="sans-serif" font-size="14" lengthAdjust="spacing" textLength="66.6436" x="1565.96" y="109.5889">Prozesse:</text><rect fill="none" height="6" style="stroke:#C82930;stroke-width:1;" width="6" x="1553.96" y="119.5391"/><text fill="#000000" font-family="sans-serif" font-size="14" lengthAdjust="spacing" textLength="317.9668" x="1565.96" y="125.8857">Sperrung und Entsperrung eines Anschlusses</text><line style="stroke:#181818;stroke-width:0.5;" x1="1546.96" x2="1919.1621" y1="133.1875" y2="133.1875"/><rect fill="#F24D5C" height="6" style="stroke:#C82930;stroke-width:1;" width="6" x="1553.96" y="143.8359"/><text fill="#000000" font-family="sans-serif" font-size="14" lengthAdjust="spacing" textLength="348.2021" x="1565.96" y="150.1826">Bestellung einer technischen Konfiguration (MSB)</text></g><!--class CAV_1131_msg_1--><g class="entity" data-entity="CAV_1131_msg_1" data-source-line="8" data-uid="ent0003" id="entity_CAV_1131_msg_1"><rect fill="#F1F1F1" height="145.7813" rx="2.5" ry="2.5" style="stroke:#181818;stroke-width:0.5;" width="1040.125" x="7" y="234.4869"/><ellipse cx="460.6704" cy="250.4869" fill="#ADD1B2" rx="11" ry="11" style="stroke:#181818;stroke-width:1;"/><path d="M463.6392,256.1275 Q463.061,256.4244 462.4204,256.565 Q461.7798,256.7213 461.0767,256.7213 Q458.5767,256.7213 457.2485,255.0806 Q455.936,253.4244 455.936,250.2994 Q455.936,247.1744 457.2485,245.5181 Q458.5767,243.8619 461.0767,243.8619 Q461.7798,243.8619 462.4204,244.0181 Q463.0767,244.1744 463.6392,244.4713 L463.6392,247.19 Q463.0142,246.6119 462.4204,246.3463 Q461.8267,246.065 461.2017,246.065 Q459.8579,246.065 459.1704,247.1431 Q458.4829,248.2056 458.4829,250.2994 Q458.4829,252.3931 459.1704,253.4713 Q459.8579,254.5338 461.2017,254.5338 Q461.8267,254.5338 462.4204,254.2681 Q463.0142,253.9869 463.6392,253.4088 L463.6392,256.1275 Z " fill="#000000"/><text fill="#000000" font-family="sans-serif" font-size="14" lengthAdjust="spacing" textLength="124.2842" x="481.1704" y="255.3336">CAV_1131_msg_1</text><line style="stroke:#181818;stroke-width:0.5;" x1="8" x2="1046.125" y1="266.4869" y2="266.4869"/><text fill="#000000" font-family="sans-serif" font-size="14" lengthAdjust="spacing" textLength="170.3584" x="13" y="283.482">Nachricht: QUOTES 1.3a</text><text fill="#000000" font-family="sans-serif" font-size="14" lengthAdjust="spacing" textLength="123.0605" x="13" y="299.7789">Kontext: Beispiel:</text><text fill="#000000" font-family="sans-serif" font-size="14" lengthAdjust="spacing" textLength="110.5439" x="13" y="316.0757">Pflichtfeld: Nein</text><text fill="#000000" font-family="sans-serif" font-size="14" lengthAdjust="spacing" textLength="1028.125" x="13" y="332.3726">Codes: 000, 10, 17, 200, 35, 999, AHZ, BGZ, CAV, DKZ, EDI, EHZ, IVA, LAZ, MAZ, MME, MRG, OCR, TRZ, UGZ, WGZ, WSZ, Z01, Z02, Z03, Z04, Z05</text><text fill="#000000" font-family="sans-serif" font-size="14" lengthAdjust="spacing" textLength="408.3174" x="13" y="348.6695">Quelle: QUOTES_MIG_1_3a_Fehlerkorrektur_20241213.pdf</text><line style="stroke:#181818;stroke-width:0.5;" x1="8" x2="1046.125" y1="355.9713" y2="355.9713"/><text fill="#000000" font-family="sans-serif" font-size="14" lengthAdjust="spacing" textLength="746.1631" x="13" y="372.9664">Prozesse: Bestellung einer technischen Konfiguration (MSB), Sperrung und Entsperrung eines Anschlusses</text></g><!--class CAV_1131_proc_1--><g class="entity" data-entity="CAV_1131_proc_1" data-source-line="17" data-uid="ent0005" id="entity_CAV_1131_proc_1"><rect fill="#F1F1F1" height="105.1563" rx="2.5" ry="2.5" style="stroke:#181818;stroke-width:0.5;" width="1301.9961" x="1082.06" y="254.7969"/><ellipse cx="1666.1225" cy="274.9297" fill="#ADD1B2" rx="11" ry="11" style="stroke:#181818;stroke-width:1;"/><path d="M1669.0913,280.5703 Q1668.5131,280.8672 1667.8725,281.0078 Q1667.2319,281.1641 1666.5288,281.1641 Q1664.0288,281.1641 1662.7006,279.5234 Q1661.3881,277.8672 1661.3881,274.7422 Q1661.3881,271.6172 1662.7006,269.9609 Q1664.0288,268.3047 1666.5288,268.3047 Q1667.2319,268.3047 1667.8725,268.4609 Q1668.5288,268.6172 1669.0913,268.9141 L1669.0913,271.6328 Q1668.4663,271.0547 1667.8725,270.7891 Q1667.2788,270.5078 1666.6538,270.5078 Q1665.31,270.5078 1664.6225,271.5859 Q1663.935,272.6484 1663.935,274.7422 Q1663.935,276.8359 1664.6225,277.9141 Q1665.31,278.9766 1666.6538,278.9766 Q1667.2788,278.9766 1667.8725,278.7109 Q1668.4663,278.4297 1669.0913,277.8516 L1669.0913,280.5703 Z " fill="#000000"/><text fill="#000000" font-family="sans-serif" font-size="12" font-style="italic" lengthAdjust="spacing" textLength="61.0605" x="1718.7778" y="270.9355">&#171;process&#187;</text><text fill="#000000" font-family="sans-serif" font-size="14" lengthAdjust="spacing" textLength="125.3711" x="1686.6225" y="286.7607">CAV_1131_proc_1</text><line style="stroke:#181818;stroke-width:0.5;" x1="1083.06" x2="2383.0561" y1="295.0625" y2="295.0625"/><text fill="#000000" font-family="sans-serif" font-size="14" lengthAdjust="spacing" textLength="156.4063" x="1088.06" y="312.0576">Gesetze: MsbG, EnWG</text><text fill="#000000" font-family="sans-serif" font-size="14" lengthAdjust="spacing" textLength="1289.9961" x="1088.06" y="328.3545">Zusammenfassung: Erl&#228;utere den Prozess zur Bestellung einer spezifischen technischen Konfiguration bei einem Messstellenbetreiber, beispielsweise f&#252;r ein intelligentes Messsystem.</text><line style="stroke:#181818;stroke-width:0.5;" x1="1083.06" x2="2383.0561" y1="335.6563" y2="335.6563"/><text fill="#000000" font-family="sans-serif" font-size="14" lengthAdjust="spacing" textLength="348.2021" x="1088.06" y="352.6514">Bestellung einer technischen Konfiguration (MSB)</text></g><!--class CAV_1131_proc_2--><g class="entity" data-entity="CAV_1131_proc_2" data-source-line="23" data-uid="ent0007" id="entity_CAV_1131_proc_2"><rect fill="#F1F1F1" height="105.1563" rx="2.5" ry="2.5" style="stroke:#181818;stroke-width:0.5;" width="853.9893" x="2419.07" y="254.7969"/><ellipse cx="2779.1291" cy="274.9297" fill="#ADD1B2" rx="11" ry="11" style="stroke:#181818;stroke-width:1;"/><path d="M2782.0978,280.5703 Q2781.5197,280.8672 2780.8791,281.0078 Q2780.2385,281.1641 2779.5353,281.1641 Q2777.0353,281.1641 2775.7072,279.5234 Q2774.3947,277.8672 2774.3947,274.7422 Q2774.3947,271.6172 2775.7072,269.9609 Q2777.0353,268.3047 2779.5353,268.3047 Q2780.2385,268.3047 2780.8791,268.4609 Q2781.5353,268.6172 2782.0978,268.9141 L2782.0978,271.6328 Q2781.4728,271.0547 2780.8791,270.7891 Q2780.2853,270.5078 2779.6603,270.5078 Q2778.3166,270.5078 2777.6291,271.5859 Q2776.9416,272.6484 2776.9416,274.7422 Q2776.9416,276.8359 2777.6291,277.9141 Q2778.3166,278.9766 2779.6603,278.9766 Q2780.2853,278.9766 2780.8791,278.7109 Q2781.4728,278.4297 2782.0978,277.8516 L2782.0978,280.5703 Z " fill="#000000"/><text fill="#000000" font-family="sans-serif" font-size="12" font-style="italic" lengthAdjust="spacing" textLength="61.0605" x="2831.7844" y="270.9355">&#171;process&#187;</text><text fill="#000000" font-family="sans-serif" font-size="14" lengthAdjust="spacing" textLength="125.3711" x="2799.6291" y="286.7607">CAV_1131_proc_2</text><line style="stroke:#181818;stroke-width:0.5;" x1="2420.07" x2="3272.0593" y1="295.0625" y2="295.0625"/><text fill="#000000" font-family="sans-serif" font-size="14" lengthAdjust="spacing" textLength="317.9668" x="2425.07" y="312.0576">Sperrung und Entsperrung eines Anschlusses</text><text fill="#000000" font-family="sans-serif" font-size="14" lengthAdjust="spacing" textLength="138.3252" x="2425.07" y="328.3545">Gesetze: StromGVV</text><text fill="#000000" font-family="sans-serif" font-size="14" lengthAdjust="spacing" textLength="841.9893" x="2425.07" y="344.6514">Zusammenfassung: Beschreibe den End-to-End-Prozess f&#252;r die Sperrung und Wiederherstellung eines Netzanschlusses.</text><line style="stroke:#181818;stroke-width:0.5;" x1="2420.07" x2="3272.0593" y1="351.9531" y2="351.9531"/></g><!--link CAV_1131 to CAV_1131_msg_1--><g class="link" data-entity-1="CAV_1131" data-entity-2="CAV_1131_msg_1" data-source-line="16" data-uid="lnk4" id="link_CAV_1131_CAV_1131_msg_1"><path codeLine="16" d="M1545.62,133.6769 C1387.94,160.4069 1162.3656,198.6538 959.9056,232.9838" fill="none" id="CAV_1131-to-CAV_1131_msg_1" style="stroke:#181818;stroke-width:1;"/><polygon fill="#181818" points="953.99,233.9869,963.5321,236.426,958.9196,233.151,962.1946,228.5386,953.99,233.9869" style="stroke:#181818;stroke-width:1;"/><text fill="#000000" font-family="sans-serif" font-size="13" lengthAdjust="spacing" textLength="85.2363" x="1204.06" y="200.5538">verwendet in</text></g><!--link CAV_1131 to CAV_1131_proc_1--><g class="link" data-entity-1="CAV_1131" data-entity-2="CAV_1131_proc_1" data-source-line="22" data-uid="lnk6" id="link_CAV_1131_CAV_1131_proc_1"><path codeLine="22" d="M1733.06,157.7669 C1733.06,187.9169 1733.06,218.9069 1733.06,248.4269" fill="none" id="CAV_1131-to-CAV_1131_proc_1" style="stroke:#181818;stroke-width:1;stroke-dasharray:7,7;"/><polygon fill="#181818" points="1733.06,254.4269,1737.06,245.4269,1733.06,249.4269,1729.06,245.4269,1733.06,254.4269" style="stroke:#181818;stroke-width:1;"/><text fill="#000000" font-family="sans-serif" font-size="13" lengthAdjust="spacing" textLength="91.6221" x="1734.06" y="200.5538">eingebettet in</text></g><!--link CAV_1131 to CAV_1131_proc_2--><g class="link" data-entity-1="CAV_1131" data-entity-2="CAV_1131_proc_2" data-source-line="28" data-uid="lnk8" id="link_CAV_1131_CAV_1131_proc_2"><path codeLine="28" d="M1920.61,136.3469 C2096.32,168.6269 2355.4487,216.2428 2556.9187,253.2528" fill="none" id="CAV_1131-to-CAV_1131_proc_2" style="stroke:#181818;stroke-width:1;stroke-dasharray:7,7;"/><polygon fill="#181818" points="2562.82,254.3369,2554.6908,248.7766,2557.9023,253.4335,2553.2454,256.645,2562.82,254.3369" style="stroke:#181818;stroke-width:1;"/><text fill="#000000" font-family="sans-serif" font-size="13" lengthAdjust="spacing" textLength="91.6221" x="2291.06" y="200.5538">eingebettet in</text></g><!--SRC=[dPFTRjem5CVlUOfpkKa6aQJLrAX2uYFBK9T-G0iIDr58JeXLnq6sitPCUviznkxwOZlEe6jXrSGkyiyvji-7VxODDm9Xb1YKYH69XZOC-pFVSJodbPAlhHjR5xwr02wJ4dqOLXaAhWsongJnQrLjK6lqoGRACK2Q5QAMAq0kKO71j91SfmLAkAXapbUrIWol9BoBfeFtsx3f6fMoGRNC8916xtoRH4DVKW9HKntT-hxNNbpgLRnhCYqKJmlZmytTrMqm1QVZ9JH1XGq-ql00kLvp5BRTwrpOjJcAp8TBAaHZTbVQXswtoy2ntmS6hdMyKmPdPsSC-fyM30OX2JN0O7H1LZ0QazY9yQpFu7EVhAYHA22PX0okXXC6jnCQkxEnyqQc98kkOyMrubaviNBw4ktHKDanF05kQagEEsPnD0vZ9_QI-2CM0jLzfHJUcrh5RjSzSLp7wwopd8xX-Nwqsxtzq_3X2we7b1aQ8B1x9xPMLKgBpi-jGLlizPhZ-u-x4w96iw7U8xqaoe6SXpIwg7LIbYXpgahPV0YKUFfH6rG86UNQaeLDhGwB4geDpxTLt-vWYRm9A26YL4qEb4iq2laI5RFppKtJ3sGWv4y_bLrFDEnIlaBwwz-nNocwxBmaskdq3cZvDdo5LCAy3TKzW7hKJNZ6EJMgAiFPx6ymYHWzCxlD1cOWixQfslQtuzfiDkFuklYSOuQgGFKAkAQdPpR9dpR-0S8z0F4B]--></g></svg>