<svg xmlns="http://www.w3.org/2000/svg" xmlns:xlink="http://www.w3.org/1999/xlink" contentStyleType="text/css" data-diagram-type="CLASS" height="370px" preserveAspectRatio="none" style="width:860px;height:370px;background:#FFFFFF;" version="1.1" viewBox="0 0 860 370" width="860px" zoomAndPan="magnify"><title>Datenatlas - CCI:0260</title><defs/><g><g class="title" data-source-line="1"><text fill="#000000" font-family="sans-serif" font-size="14" font-weight="bold" lengthAdjust="spacing" textLength="171.8213" x="337.3836" y="22.9951">Datenatlas - CCI:0260</text></g><!--class CCI_0260--><g class="entity" data-entity="CCI_0260" data-source-line="2" data-uid="ent0002" id="entity_CCI_0260"><rect fill="#F1F1F1" height="96.8906" rx="2.5" ry="2.5" style="stroke:#181818;stroke-width:0.5;" width="360.3525" x="263.3" y="44.2969"/><ellipse cx="406.072" cy="60.2969" fill="#ADD1B2" rx="11" ry="11" style="stroke:#181818;stroke-width:1;"/><path d="M409.0407,65.9375 Q408.4626,66.2344 407.822,66.375 Q407.1813,66.5313 406.4782,66.5313 Q403.9782,66.5313 402.6501,64.8906 Q401.3376,63.2344 401.3376,60.1094 Q401.3376,56.9844 402.6501,55.3281 Q403.9782,53.6719 406.4782,53.6719 Q407.1813,53.6719 407.822,53.8281 Q408.4782,53.9844 409.0407,54.2813 L409.0407,57 Q408.4157,56.4219 407.822,56.1563 Q407.2282,55.875 406.6032,55.875 Q405.2595,55.875 404.572,56.9531 Q403.8845,58.0156 403.8845,60.1094 Q403.8845,62.2031 404.572,63.2813 Q405.2595,64.3438 406.6032,64.3438 Q407.2282,64.3438 407.822,64.0781 Q408.4157,63.7969 409.0407,63.2188 L409.0407,65.9375 Z " fill="#000000"/><text fill="#000000" font-family="sans-serif" font-size="14" lengthAdjust="spacing" textLength="66.3086" x="426.572" y="65.1436">CCI_0260</text><line style="stroke:#181818;stroke-width:0.5;" x1="264.3" x2="622.6525" y1="76.2969" y2="76.2969"/><text fill="#000000" font-family="sans-serif" font-size="14" lengthAdjust="spacing" textLength="145.332" x="283.3" y="93.292">Name: Zeitreihentyp</text><text fill="#000000" font-family="sans-serif" font-size="14" lengthAdjust="spacing" textLength="66.6436" x="283.3" y="109.5889">Prozesse:</text><rect fill="none" height="6" style="stroke:#C82930;stroke-width:1;" width="6" x="271.3" y="119.5391"/><text fill="#000000" font-family="sans-serif" font-size="14" lengthAdjust="spacing" textLength="334.3525" x="283.3" y="125.8857">Anforderung und &#220;bermittlung von Messwerten</text><line style="stroke:#181818;stroke-width:0.5;" x1="264.3" x2="622.6525" y1="133.1875" y2="133.1875"/></g><!--class CCI_0260_msg_1--><g class="entity" data-entity="CCI_0260_msg_1" data-source-line="7" data-uid="ent0003" id="entity_CCI_0260_msg_1"><rect fill="#F1F1F1" height="145.7813" rx="2.5" ry="2.5" style="stroke:#181818;stroke-width:0.5;" width="432.9502" x="7" y="218.1869"/><ellipse cx="159.708" cy="234.1869" fill="#ADD1B2" rx="11" ry="11" style="stroke:#181818;stroke-width:1;"/><path d="M162.6768,239.8275 Q162.0986,240.1244 161.458,240.265 Q160.8174,240.4213 160.1143,240.4213 Q157.6143,240.4213 156.2861,238.7806 Q154.9736,237.1244 154.9736,233.9994 Q154.9736,230.8744 156.2861,229.2181 Q157.6143,227.5619 160.1143,227.5619 Q160.8174,227.5619 161.458,227.7181 Q162.1143,227.8744 162.6768,228.1713 L162.6768,230.89 Q162.0518,230.3119 161.458,230.0463 Q160.8643,229.765 160.2393,229.765 Q158.8955,229.765 158.208,230.8431 Q157.5205,231.9056 157.5205,233.9994 Q157.5205,236.0931 158.208,237.1713 Q158.8955,238.2338 160.2393,238.2338 Q160.8643,238.2338 161.458,237.9681 Q162.0518,237.6869 162.6768,237.1088 L162.6768,239.8275 Z " fill="#000000"/><text fill="#000000" font-family="sans-serif" font-size="14" lengthAdjust="spacing" textLength="119.0342" x="180.208" y="239.0336">CCI_0260_msg_1</text><line style="stroke:#181818;stroke-width:0.5;" x1="8" x2="438.9502" y1="250.1869" y2="250.1869"/><text fill="#000000" font-family="sans-serif" font-size="14" lengthAdjust="spacing" textLength="172.0264" x="13" y="267.182">Nachricht: MSCONS 2.4c</text><text fill="#000000" font-family="sans-serif" font-size="14" lengthAdjust="spacing" textLength="204.1143" x="13" y="283.4789">Kontext: Nachrichtenstruktur</text><text fill="#000000" font-family="sans-serif" font-size="14" lengthAdjust="spacing" textLength="91.4033" x="13" y="299.7757">Pflichtfeld: Ja</text><text fill="#000000" font-family="sans-serif" font-size="14" lengthAdjust="spacing" textLength="113.5244" x="13" y="316.0726">Codes: CCI, SG9</text><text fill="#000000" font-family="sans-serif" font-size="14" lengthAdjust="spacing" textLength="405.4463" x="13" y="332.3695">Prozesse: Anforderung und &#220;bermittlung von Messwerten</text><text fill="#000000" font-family="sans-serif" font-size="14" lengthAdjust="spacing" textLength="420.9502" x="13" y="348.6664">Quelle: MSCONS_MIG_2_4c_au&#223;erordentliche_20240726.pdf</text><line style="stroke:#181818;stroke-width:0.5;" x1="8" x2="438.9502" y1="355.9681" y2="355.9681"/></g><!--class CCI_0260_proc_1--><g class="entity" data-entity="CCI_0260_proc_1" data-source-line="16" data-uid="ent0005" id="entity_CCI_0260_proc_1"><rect fill="#F1F1F1" height="105.1563" rx="2.5" ry="2.5" style="stroke:#181818;stroke-width:0.5;" width="378.2285" x="475.36" y="238.4969"/><ellipse cx="600.1637" cy="258.6297" fill="#ADD1B2" rx="11" ry="11" style="stroke:#181818;stroke-width:1;"/><path d="M603.1325,264.2703 Q602.5543,264.5672 601.9137,264.7078 Q601.2731,264.8641 600.57,264.8641 Q598.07,264.8641 596.7418,263.2234 Q595.4293,261.5672 595.4293,258.4422 Q595.4293,255.3172 596.7418,253.6609 Q598.07,252.0047 600.57,252.0047 Q601.2731,252.0047 601.9137,252.1609 Q602.57,252.3172 603.1325,252.6141 L603.1325,255.3328 Q602.5075,254.7547 601.9137,254.4891 Q601.32,254.2078 600.695,254.2078 Q599.3512,254.2078 598.6637,255.2859 Q597.9762,256.3484 597.9762,258.4422 Q597.9762,260.5359 598.6637,261.6141 Q599.3512,262.6766 600.695,262.6766 Q601.32,262.6766 601.9137,262.4109 Q602.5075,262.1297 603.1325,261.5516 L603.1325,264.2703 Z " fill="#000000"/><text fill="#000000" font-family="sans-serif" font-size="12" font-style="italic" lengthAdjust="spacing" textLength="61.0605" x="650.194" y="254.6355">&#171;process&#187;</text><text fill="#000000" font-family="sans-serif" font-size="14" lengthAdjust="spacing" textLength="120.1211" x="620.6637" y="270.4607">CCI_0260_proc_1</text><line style="stroke:#181818;stroke-width:0.5;" x1="476.36" x2="852.5885" y1="278.7625" y2="278.7625"/><text fill="#000000" font-family="sans-serif" font-size="14" lengthAdjust="spacing" textLength="334.3525" x="481.36" y="295.7576">Anforderung und &#220;bermittlung von Messwerten</text><text fill="#000000" font-family="sans-serif" font-size="14" lengthAdjust="spacing" textLength="105.0957" x="481.36" y="312.0545">Gesetze: MsbG</text><line style="stroke:#181818;stroke-width:0.5;" x1="476.36" x2="852.5885" y1="319.3563" y2="319.3563"/><text fill="#000000" font-family="sans-serif" font-size="14" lengthAdjust="spacing" textLength="366.2285" x="481.36" y="336.3514">Zusammenfassung: Wie kann ein Marktpartner (z.B.</text></g><!--link CCI_0260 to CCI_0260_msg_1--><g class="link" data-entity-1="CCI_0260" data-entity-2="CCI_0260_msg_1" data-source-line="15" data-uid="lnk4" id="link_CCI_0260_CCI_0260_msg_1"><path codeLine="15" d="M389.94,141.5169 C364.25,164.4469 337.3967,188.412 308.8767,213.862" fill="none" id="CCI_0260-to-CCI_0260_msg_1" style="stroke:#181818;stroke-width:1;"/><polygon fill="#181818" points="304.4,217.8569,313.7783,214.8491,308.1306,214.5278,308.4519,208.8801,304.4,217.8569" style="stroke:#181818;stroke-width:1;"/><text fill="#000000" font-family="sans-serif" font-size="13" lengthAdjust="spacing" textLength="85.2363" x="354.48" y="184.2538">verwendet in</text></g><!--link CCI_0260 to CCI_0260_proc_1--><g class="link" data-entity-1="CCI_0260" data-entity-2="CCI_0260_proc_1" data-source-line="21" data-uid="lnk6" id="link_CCI_0260_CCI_0260_proc_1"><path codeLine="21" d="M497.26,141.5169 C530.22,170.8069 567.9343,204.3121 601.6943,234.3021" fill="none" id="CCI_0260-to-CCI_0260_proc_1" style="stroke:#181818;stroke-width:1;stroke-dasharray:7,7;"/><polygon fill="#181818" points="606.18,238.2869,602.108,229.3192,602.4419,234.9662,596.7949,235.3002,606.18,238.2869" style="stroke:#181818;stroke-width:1;"/><text fill="#000000" font-family="sans-serif" font-size="13" lengthAdjust="spacing" textLength="91.6221" x="547.48" y="184.2538">eingebettet in</text></g><!--SRC=[bP31IiD048RlVOevUh0XXb9nAG6D4AgqAZq8lIpRPD8kJJPXTz9gn3SHV9Y-cBD5IwcdtkR_TsR_RuOqbGZtYj0eAfM3FYJ9M8JHCEnbh9sNqaluw05CLOK2vgZ9ebwXeVU6tMTRT-WS2gw1VxWrHMrpjArPGcjos7qjq5QQgFJEfZOmuVOjMaxjVPxaoCejvTLlMhQoEbkHWCaiUPhE80e66JyyreRmZUr31nf7jbrJQprFKNglm38NyA3OIUeSdV0Pbp1BRuwPpwC5U6cnBF6FI4x6gOpa89EgtNsZzJyPyl4eep0QXDVHC6ZoWjSy7BBVZq-t5R11kqMJ8u4sfnTfR9rnqsZa2sQ9u_rvpWHFqI5rdjmjKjRprgcgGbDm5Wy8UDK8QsKCeEPHPTVKA4i6BLnqmLrml48GnF_mX9zRuWA9zbly0000]--></g></svg>