<svg xmlns="http://www.w3.org/2000/svg" xmlns:xlink="http://www.w3.org/1999/xlink" contentStyleType="text/css" data-diagram-type="CLASS" height="387px" preserveAspectRatio="none" style="width:2998px;height:387px;background:#FFFFFF;" version="1.1" viewBox="0 0 2998 387" width="2998px" zoomAndPan="magnify"><title>Datenatlas - CCI:1240</title><defs/><g><g class="title" data-source-line="1"><text fill="#000000" font-family="sans-serif" font-size="14" font-weight="bold" lengthAdjust="spacing" textLength="171.8213" x="1406.129" y="22.9951">Datenatlas - CCI:1240</text></g><!--class CCI_1240--><g class="entity" data-entity="CCI_1240" data-source-line="2" data-uid="ent0002" id="entity_CCI_1240"><rect fill="#F1F1F1" height="113.1875" rx="2.5" ry="2.5" style="stroke:#181818;stroke-width:0.5;" width="374.2021" x="1263.98" y="44.2969"/><ellipse cx="1413.6768" cy="60.2969" fill="#ADD1B2" rx="11" ry="11" style="stroke:#181818;stroke-width:1;"/><path d="M1416.6455,65.9375 Q1416.0674,66.2344 1415.4268,66.375 Q1414.7862,66.5313 1414.083,66.5313 Q1411.583,66.5313 1410.2549,64.8906 Q1408.9424,63.2344 1408.9424,60.1094 Q1408.9424,56.9844 1410.2549,55.3281 Q1411.583,53.6719 1414.083,53.6719 Q1414.7862,53.6719 1415.4268,53.8281 Q1416.083,53.9844 1416.6455,54.2813 L1416.6455,57 Q1416.0205,56.4219 1415.4268,56.1563 Q1414.833,55.875 1414.208,55.875 Q1412.8643,55.875 1412.1768,56.9531 Q1411.4893,58.0156 1411.4893,60.1094 Q1411.4893,62.2031 1412.1768,63.2813 Q1412.8643,64.3438 1414.208,64.3438 Q1414.833,64.3438 1415.4268,64.0781 Q1416.0205,63.7969 1416.6455,63.2188 L1416.6455,65.9375 Z " fill="#000000"/><text fill="#000000" font-family="sans-serif" font-size="14" lengthAdjust="spacing" textLength="66.3086" x="1434.1768" y="65.1436">CCI_1240</text><line style="stroke:#181818;stroke-width:0.5;" x1="1264.98" x2="1637.1821" y1="76.2969" y2="76.2969"/><text fill="#000000" font-family="sans-serif" font-size="14" lengthAdjust="spacing" textLength="95.0059" x="1283.98" y="93.292">Name: 00032</text><text fill="#000000" font-family="sans-serif" font-size="14" lengthAdjust="spacing" textLength="66.6436" x="1283.98" y="109.5889">Prozesse:</text><rect fill="none" height="6" style="stroke:#C82930;stroke-width:1;" width="6" x="1271.98" y="119.5391"/><text fill="#000000" font-family="sans-serif" font-size="14" lengthAdjust="spacing" textLength="317.9668" x="1283.98" y="125.8857">Sperrung und Entsperrung eines Anschlusses</text><line style="stroke:#181818;stroke-width:0.5;" x1="1264.98" x2="1637.1821" y1="133.1875" y2="133.1875"/><rect fill="#F24D5C" height="6" style="stroke:#C82930;stroke-width:1;" width="6" x="1271.98" y="143.8359"/><text fill="#000000" font-family="sans-serif" font-size="14" lengthAdjust="spacing" textLength="348.2021" x="1283.98" y="150.1826">Bestellung einer technischen Konfiguration (MSB)</text></g><!--class CCI_1240_msg_1--><g class="entity" data-entity="CCI_1240_msg_1" data-source-line="8" data-uid="ent0003" id="entity_CCI_1240_msg_1"><rect fill="#F1F1F1" height="145.7813" rx="2.5" ry="2.5" style="stroke:#181818;stroke-width:0.5;" width="758.1631" x="7" y="234.4869"/><ellipse cx="322.3145" cy="250.4869" fill="#ADD1B2" rx="11" ry="11" style="stroke:#181818;stroke-width:1;"/><path d="M325.2832,256.1275 Q324.7051,256.4244 324.0645,256.565 Q323.4238,256.7213 322.7207,256.7213 Q320.2207,256.7213 318.8926,255.0806 Q317.5801,253.4244 317.5801,250.2994 Q317.5801,247.1744 318.8926,245.5181 Q320.2207,243.8619 322.7207,243.8619 Q323.4238,243.8619 324.0645,244.0181 Q324.7207,244.1744 325.2832,244.4713 L325.2832,247.19 Q324.6582,246.6119 324.0645,246.3463 Q323.4707,246.065 322.8457,246.065 Q321.502,246.065 320.8145,247.1431 Q320.127,248.2056 320.127,250.2994 Q320.127,252.3931 320.8145,253.4713 Q321.502,254.5338 322.8457,254.5338 Q323.4707,254.5338 324.0645,254.2681 Q324.6582,253.9869 325.2832,253.4088 L325.2832,256.1275 Z " fill="#000000"/><text fill="#000000" font-family="sans-serif" font-size="14" lengthAdjust="spacing" textLength="119.0342" x="342.8145" y="255.3336">CCI_1240_msg_1</text><line style="stroke:#181818;stroke-width:0.5;" x1="8" x2="764.1631" y1="266.4869" y2="266.4869"/><text fill="#000000" font-family="sans-serif" font-size="14" lengthAdjust="spacing" textLength="170.3584" x="13" y="283.482">Nachricht: QUOTES 1.3a</text><text fill="#000000" font-family="sans-serif" font-size="14" lengthAdjust="spacing" textLength="204.1143" x="13" y="299.7789">Kontext: Nachrichtenstruktur</text><text fill="#000000" font-family="sans-serif" font-size="14" lengthAdjust="spacing" textLength="91.4033" x="13" y="316.0757">Pflichtfeld: Ja</text><text fill="#000000" font-family="sans-serif" font-size="14" lengthAdjust="spacing" textLength="75.9814" x="13" y="332.3726">Codes: CCI</text><text fill="#000000" font-family="sans-serif" font-size="14" lengthAdjust="spacing" textLength="408.3174" x="13" y="348.6695">Quelle: QUOTES_MIG_1_3a_Fehlerkorrektur_20241213.pdf</text><line style="stroke:#181818;stroke-width:0.5;" x1="8" x2="764.1631" y1="355.9713" y2="355.9713"/><text fill="#000000" font-family="sans-serif" font-size="14" lengthAdjust="spacing" textLength="746.1631" x="13" y="372.9664">Prozesse: Bestellung einer technischen Konfiguration (MSB), Sperrung und Entsperrung eines Anschlusses</text></g><!--class CCI_1240_proc_1--><g class="entity" data-entity="CCI_1240_proc_1" data-source-line="17" data-uid="ent0005" id="entity_CCI_1240_proc_1"><rect fill="#F1F1F1" height="105.1563" rx="2.5" ry="2.5" style="stroke:#181818;stroke-width:0.5;" width="1301.9961" x="800.08" y="254.7969"/><ellipse cx="1386.7675" cy="274.9297" fill="#ADD1B2" rx="11" ry="11" style="stroke:#181818;stroke-width:1;"/><path d="M1389.7363,280.5703 Q1389.1581,280.8672 1388.5175,281.0078 Q1387.8769,281.1641 1387.1738,281.1641 Q1384.6738,281.1641 1383.3456,279.5234 Q1382.0331,277.8672 1382.0331,274.7422 Q1382.0331,271.6172 1383.3456,269.9609 Q1384.6738,268.3047 1387.1738,268.3047 Q1387.8769,268.3047 1388.5175,268.4609 Q1389.1738,268.6172 1389.7363,268.9141 L1389.7363,271.6328 Q1389.1113,271.0547 1388.5175,270.7891 Q1387.9238,270.5078 1387.2988,270.5078 Q1385.955,270.5078 1385.2675,271.5859 Q1384.58,272.6484 1384.58,274.7422 Q1384.58,276.8359 1385.2675,277.9141 Q1385.955,278.9766 1387.2988,278.9766 Q1387.9238,278.9766 1388.5175,278.7109 Q1389.1113,278.4297 1389.7363,277.8516 L1389.7363,280.5703 Z " fill="#000000"/><text fill="#000000" font-family="sans-serif" font-size="12" font-style="italic" lengthAdjust="spacing" textLength="61.0605" x="1436.7978" y="270.9355">&#171;process&#187;</text><text fill="#000000" font-family="sans-serif" font-size="14" lengthAdjust="spacing" textLength="120.1211" x="1407.2675" y="286.7607">CCI_1240_proc_1</text><line style="stroke:#181818;stroke-width:0.5;" x1="801.08" x2="2101.0761" y1="295.0625" y2="295.0625"/><text fill="#000000" font-family="sans-serif" font-size="14" lengthAdjust="spacing" textLength="156.4063" x="806.08" y="312.0576">Gesetze: MsbG, EnWG</text><text fill="#000000" font-family="sans-serif" font-size="14" lengthAdjust="spacing" textLength="1289.9961" x="806.08" y="328.3545">Zusammenfassung: Erl&#228;utere den Prozess zur Bestellung einer spezifischen technischen Konfiguration bei einem Messstellenbetreiber, beispielsweise f&#252;r ein intelligentes Messsystem.</text><line style="stroke:#181818;stroke-width:0.5;" x1="801.08" x2="2101.0761" y1="335.6563" y2="335.6563"/><text fill="#000000" font-family="sans-serif" font-size="14" lengthAdjust="spacing" textLength="348.2021" x="806.08" y="352.6514">Bestellung einer technischen Konfiguration (MSB)</text></g><!--class CCI_1240_proc_2--><g class="entity" data-entity="CCI_1240_proc_2" data-source-line="23" data-uid="ent0007" id="entity_CCI_1240_proc_2"><rect fill="#F1F1F1" height="105.1563" rx="2.5" ry="2.5" style="stroke:#181818;stroke-width:0.5;" width="853.9893" x="2137.09" y="254.7969"/><ellipse cx="2499.7741" cy="274.9297" fill="#ADD1B2" rx="11" ry="11" style="stroke:#181818;stroke-width:1;"/><path d="M2502.7428,280.5703 Q2502.1647,280.8672 2501.5241,281.0078 Q2500.8835,281.1641 2500.1803,281.1641 Q2497.6803,281.1641 2496.3522,279.5234 Q2495.0397,277.8672 2495.0397,274.7422 Q2495.0397,271.6172 2496.3522,269.9609 Q2497.6803,268.3047 2500.1803,268.3047 Q2500.8835,268.3047 2501.5241,268.4609 Q2502.1803,268.6172 2502.7428,268.9141 L2502.7428,271.6328 Q2502.1178,271.0547 2501.5241,270.7891 Q2500.9303,270.5078 2500.3053,270.5078 Q2498.9616,270.5078 2498.2741,271.5859 Q2497.5866,272.6484 2497.5866,274.7422 Q2497.5866,276.8359 2498.2741,277.9141 Q2498.9616,278.9766 2500.3053,278.9766 Q2500.9303,278.9766 2501.5241,278.7109 Q2502.1178,278.4297 2502.7428,277.8516 L2502.7428,280.5703 Z " fill="#000000"/><text fill="#000000" font-family="sans-serif" font-size="12" font-style="italic" lengthAdjust="spacing" textLength="61.0605" x="2549.8044" y="270.9355">&#171;process&#187;</text><text fill="#000000" font-family="sans-serif" font-size="14" lengthAdjust="spacing" textLength="120.1211" x="2520.2741" y="286.7607">CCI_1240_proc_2</text><line style="stroke:#181818;stroke-width:0.5;" x1="2138.09" x2="2990.0793" y1="295.0625" y2="295.0625"/><text fill="#000000" font-family="sans-serif" font-size="14" lengthAdjust="spacing" textLength="317.9668" x="2143.09" y="312.0576">Sperrung und Entsperrung eines Anschlusses</text><text fill="#000000" font-family="sans-serif" font-size="14" lengthAdjust="spacing" textLength="138.3252" x="2143.09" y="328.3545">Gesetze: StromGVV</text><text fill="#000000" font-family="sans-serif" font-size="14" lengthAdjust="spacing" textLength="841.9893" x="2143.09" y="344.6514">Zusammenfassung: Beschreibe den End-to-End-Prozess f&#252;r die Sperrung und Wiederherstellung eines Netzanschlusses.</text><line style="stroke:#181818;stroke-width:0.5;" x1="2138.09" x2="2990.0793" y1="351.9531" y2="351.9531"/></g><!--link CCI_1240 to CCI_1240_msg_1--><g class="link" data-entity-1="CCI_1240" data-entity-2="CCI_1240_msg_1" data-source-line="16" data-uid="lnk4" id="link_CCI_1240_CCI_1240_msg_1"><path codeLine="16" d="M1263.74,137.8569 C1125.5,164.4069 938.6024,200.2855 768.9224,232.8655" fill="none" id="CCI_1240-to-CCI_1240_msg_1" style="stroke:#181818;stroke-width:1;"/><polygon fill="#181818" points="763.03,233.9969,772.6228,236.228,767.9403,233.0541,771.1143,228.3716,763.03,233.9969" style="stroke:#181818;stroke-width:1;"/><text fill="#000000" font-family="sans-serif" font-size="13" lengthAdjust="spacing" textLength="85.2363" x="984.08" y="200.5538">verwendet in</text></g><!--link CCI_1240 to CCI_1240_proc_1--><g class="link" data-entity-1="CCI_1240" data-entity-2="CCI_1240_proc_1" data-source-line="22" data-uid="lnk6" id="link_CCI_1240_CCI_1240_proc_1"><path codeLine="22" d="M1451.08,157.7669 C1451.08,187.9169 1451.08,218.9069 1451.08,248.4269" fill="none" id="CCI_1240-to-CCI_1240_proc_1" style="stroke:#181818;stroke-width:1;stroke-dasharray:7,7;"/><polygon fill="#181818" points="1451.08,254.4269,1455.08,245.4269,1451.08,249.4269,1447.08,245.4269,1451.08,254.4269" style="stroke:#181818;stroke-width:1;"/><text fill="#000000" font-family="sans-serif" font-size="13" lengthAdjust="spacing" textLength="91.6221" x="1452.08" y="200.5538">eingebettet in</text></g><!--link CCI_1240 to CCI_1240_proc_2--><g class="link" data-entity-1="CCI_1240" data-entity-2="CCI_1240_proc_2" data-source-line="28" data-uid="lnk8" id="link_CCI_1240_CCI_1240_proc_2"><path codeLine="28" d="M1638.63,136.3469 C1814.34,168.6269 2073.4687,216.2428 2274.9387,253.2528" fill="none" id="CCI_1240-to-CCI_1240_proc_2" style="stroke:#181818;stroke-width:1;stroke-dasharray:7,7;"/><polygon fill="#181818" points="2280.84,254.3369,2272.7108,248.7766,2275.9223,253.4335,2271.2654,256.645,2280.84,254.3369" style="stroke:#181818;stroke-width:1;"/><text fill="#000000" font-family="sans-serif" font-size="13" lengthAdjust="spacing" textLength="91.6221" x="2009.08" y="200.5538">eingebettet in</text></g><!--SRC=[dPB1RjD048RlUOevWXHRiTEJLKLgGx0AIg4Aj18Nox5_swlQwsXsJI68j-bZSEkBCUiceKseK3ZjpkxyyyzykrRP6lGcjT2fhLD37asd5r4Gdem6cSJ6XOaBwSU0w39j4D5eD1g74dtaTWrZ4CcUH7aEOr7NdIu9IeF98gkqCba5JUzRNQYouzIgLjEh-UByzKQsM87PYJgTqqnRiurT4KDdMWhKdVYOmS-zffB6b4cmQIshM6MLZUZgyuTFimK5_ZYL2p6s-2R7kmneOxcxjHsx8OhQdHMeyuZUES6qpM4Yv_5qngEd6nup6D5L9yMnRJwPNyH9a8pJv2sg6dpRCiDrd8IZy2G8Wx6_oWlXiNiUpvliOudeA_WEEeSbfVVHhRZD9Edqr6ranCcav_WVZnZ3mAwbzxbPnaEPz2QMqo-TIPi6kX1NgHRHZEk7-yw2GRdKsf2bTSU7fe9ghOgDwyiTBA5wGKDpATNNW5x2CjGIF7JtPgLGcplPW8g7N-poXOPBLILaDO_Qxw9k_AT4VNzoG2joyX9YOL-66Xv0FUedx70kBBTDV7tzDvX2J7wp6xE7ETEvPrlFBLkk_R2vmdFp6uKSN86V0JTqAPRfdpR-0I8y0F4R]--></g></svg>