<svg xmlns="http://www.w3.org/2000/svg" xmlns:xlink="http://www.w3.org/1999/xlink" contentStyleType="text/css" data-diagram-type="CLASS" height="419px" preserveAspectRatio="none" style="width:5351px;height:419px;background:#FFFFFF;" version="1.1" viewBox="0 0 5351 419" width="5351px" zoomAndPan="magnify"><title>Datenatlas - CCI:C502</title><defs/><g><g class="title" data-source-line="1"><text fill="#000000" font-family="sans-serif" font-size="14" font-weight="bold" lengthAdjust="spacing" textLength="172.3545" x="2582.5574" y="22.9951">Datenatlas - CCI:C502</text></g><!--class CCI_C502--><g class="entity" data-entity="CCI_C502" data-source-line="2" data-uid="ent0002" id="entity_CCI_C502"><rect fill="#F1F1F1" height="145.7813" rx="2.5" ry="2.5" style="stroke:#181818;stroke-width:0.5;" width="374.2021" x="1849.37" y="44.2969"/><ellipse cx="1998.6327" cy="60.2969" fill="#ADD1B2" rx="11" ry="11" style="stroke:#181818;stroke-width:1;"/><path d="M2001.6014,65.9375 Q2001.0233,66.2344 2000.3827,66.375 Q1999.7421,66.5313 1999.0389,66.5313 Q1996.5389,66.5313 1995.2108,64.8906 Q1993.8983,63.2344 1993.8983,60.1094 Q1993.8983,56.9844 1995.2108,55.3281 Q1996.5389,53.6719 1999.0389,53.6719 Q1999.7421,53.6719 2000.3827,53.8281 Q2001.0389,53.9844 2001.6014,54.2813 L2001.6014,57 Q2000.9764,56.4219 2000.3827,56.1563 Q1999.7889,55.875 1999.1639,55.875 Q1997.8202,55.875 1997.1327,56.9531 Q1996.4452,58.0156 1996.4452,60.1094 Q1996.4452,62.2031 1997.1327,63.2813 Q1997.8202,64.3438 1999.1639,64.3438 Q1999.7889,64.3438 2000.3827,64.0781 Q2000.9764,63.7969 2001.6014,63.2188 L2001.6014,65.9375 Z " fill="#000000"/><text fill="#000000" font-family="sans-serif" font-size="14" lengthAdjust="spacing" textLength="67.1768" x="2019.1327" y="65.1436">CCI_C502</text><line style="stroke:#181818;stroke-width:0.5;" x1="1850.37" x2="2222.5721" y1="76.2969" y2="76.2969"/><text fill="#000000" font-family="sans-serif" font-size="14" lengthAdjust="spacing" textLength="252.1709" x="1869.37" y="93.292">Name: Einzelheiten zu Ma&#223;angaben</text><text fill="#000000" font-family="sans-serif" font-size="14" lengthAdjust="spacing" textLength="66.6436" x="1869.37" y="109.5889">Prozesse:</text><rect fill="none" height="6" style="stroke:#C82930;stroke-width:1;" width="6" x="1857.37" y="119.5391"/><text fill="#000000" font-family="sans-serif" font-size="14" lengthAdjust="spacing" textLength="334.3525" x="1869.37" y="125.8857">Anforderung und &#220;bermittlung von Messwerten</text><rect fill="none" height="6" style="stroke:#C82930;stroke-width:1;" width="6" x="1857.37" y="135.8359"/><text fill="#000000" font-family="sans-serif" font-size="14" lengthAdjust="spacing" textLength="158.0127" x="1869.37" y="142.1826">Stammdaten&#228;nderung</text><rect fill="none" height="6" style="stroke:#C82930;stroke-width:1;" width="6" x="1857.37" y="152.1328"/><text fill="#000000" font-family="sans-serif" font-size="14" lengthAdjust="spacing" textLength="317.9668" x="1869.37" y="158.4795">Sperrung und Entsperrung eines Anschlusses</text><line style="stroke:#181818;stroke-width:0.5;" x1="1850.37" x2="2222.5721" y1="165.7813" y2="165.7813"/><rect fill="#F24D5C" height="6" style="stroke:#C82930;stroke-width:1;" width="6" x="1857.37" y="176.4297"/><text fill="#000000" font-family="sans-serif" font-size="14" lengthAdjust="spacing" textLength="348.2021" x="1869.37" y="182.7764">Bestellung einer technischen Konfiguration (MSB)</text></g><!--class CCI_C502_msg_1--><g class="entity" data-entity="CCI_C502_msg_1" data-source-line="10" data-uid="ent0003" id="entity_CCI_C502_msg_1"><rect fill="#F1F1F1" height="145.7813" rx="2.5" ry="2.5" style="stroke:#181818;stroke-width:0.5;" width="432.9502" x="7" y="267.0769"/><ellipse cx="159.2739" cy="283.0769" fill="#ADD1B2" rx="11" ry="11" style="stroke:#181818;stroke-width:1;"/><path d="M162.2427,288.7175 Q161.6646,289.0144 161.0239,289.155 Q160.3833,289.3113 159.6802,289.3113 Q157.1802,289.3113 155.8521,287.6706 Q154.5396,286.0144 154.5396,282.8894 Q154.5396,279.7644 155.8521,278.1081 Q157.1802,276.4519 159.6802,276.4519 Q160.3833,276.4519 161.0239,276.6081 Q161.6802,276.7644 162.2427,277.0613 L162.2427,279.78 Q161.6177,279.2019 161.0239,278.9363 Q160.4302,278.655 159.8052,278.655 Q158.4614,278.655 157.7739,279.7331 Q157.0864,280.7956 157.0864,282.8894 Q157.0864,284.9831 157.7739,286.0613 Q158.4614,287.1238 159.8052,287.1238 Q160.4302,287.1238 161.0239,286.8581 Q161.6177,286.5769 162.2427,285.9988 L162.2427,288.7175 Z " fill="#000000"/><text fill="#000000" font-family="sans-serif" font-size="14" lengthAdjust="spacing" textLength="119.9023" x="179.7739" y="287.9236">CCI_C502_msg_1</text><line style="stroke:#181818;stroke-width:0.5;" x1="8" x2="438.9502" y1="299.0769" y2="299.0769"/><text fill="#000000" font-family="sans-serif" font-size="14" lengthAdjust="spacing" textLength="172.0264" x="13" y="316.072">Nachricht: MSCONS 2.4c</text><text fill="#000000" font-family="sans-serif" font-size="14" lengthAdjust="spacing" textLength="170.3447" x="13" y="332.3689">Kontext: Segmentlayout</text><text fill="#000000" font-family="sans-serif" font-size="14" lengthAdjust="spacing" textLength="91.4033" x="13" y="348.6657">Pflichtfeld: Ja</text><text fill="#000000" font-family="sans-serif" font-size="14" lengthAdjust="spacing" textLength="308.1777" x="13" y="364.9626">Codes: 15, 17, 99, CCI, OCR, SG5, SG6, SG8</text><text fill="#000000" font-family="sans-serif" font-size="14" lengthAdjust="spacing" textLength="405.4463" x="13" y="381.2595">Prozesse: Anforderung und &#220;bermittlung von Messwerten</text><text fill="#000000" font-family="sans-serif" font-size="14" lengthAdjust="spacing" textLength="420.9502" x="13" y="397.5564">Quelle: MSCONS_MIG_2_4c_au&#223;erordentliche_20240726.pdf</text><line style="stroke:#181818;stroke-width:0.5;" x1="8" x2="438.9502" y1="404.8581" y2="404.8581"/></g><!--class CCI_C502_msg_2--><g class="entity" data-entity="CCI_C502_msg_2" data-source-line="19" data-uid="ent0005" id="entity_CCI_C502_msg_2"><rect fill="#F1F1F1" height="145.7813" rx="2.5" ry="2.5" style="stroke:#181818;stroke-width:0.5;" width="296.8604" x="475.04" y="267.0769"/><ellipse cx="559.269" cy="283.0769" fill="#ADD1B2" rx="11" ry="11" style="stroke:#181818;stroke-width:1;"/><path d="M562.2378,288.7175 Q561.6596,289.0144 561.019,289.155 Q560.3784,289.3113 559.6753,289.3113 Q557.1753,289.3113 555.8471,287.6706 Q554.5346,286.0144 554.5346,282.8894 Q554.5346,279.7644 555.8471,278.1081 Q557.1753,276.4519 559.6753,276.4519 Q560.3784,276.4519 561.019,276.6081 Q561.6753,276.7644 562.2378,277.0613 L562.2378,279.78 Q561.6128,279.2019 561.019,278.9363 Q560.4253,278.655 559.8003,278.655 Q558.4565,278.655 557.769,279.7331 Q557.0815,280.7956 557.0815,282.8894 Q557.0815,284.9831 557.769,286.0613 Q558.4565,287.1238 559.8003,287.1238 Q560.4253,287.1238 561.019,286.8581 Q561.6128,286.5769 562.2378,285.9988 L562.2378,288.7175 Z " fill="#000000"/><text fill="#000000" font-family="sans-serif" font-size="14" lengthAdjust="spacing" textLength="119.9023" x="579.769" y="287.9236">CCI_C502_msg_2</text><line style="stroke:#181818;stroke-width:0.5;" x1="476.04" x2="770.9004" y1="299.0769" y2="299.0769"/><text fill="#000000" font-family="sans-serif" font-size="14" lengthAdjust="spacing" textLength="162.7227" x="481.04" y="316.072">Nachricht: PARTIN 1.0e</text><text fill="#000000" font-family="sans-serif" font-size="14" lengthAdjust="spacing" textLength="170.3447" x="481.04" y="332.3689">Kontext: Segmentlayout</text><text fill="#000000" font-family="sans-serif" font-size="14" lengthAdjust="spacing" textLength="91.4033" x="481.04" y="348.6657">Pflichtfeld: Ja</text><text fill="#000000" font-family="sans-serif" font-size="14" lengthAdjust="spacing" textLength="251.5898" x="481.04" y="364.9626">Codes: 17, 999, CCI, OCR, SG4, Z19</text><text fill="#000000" font-family="sans-serif" font-size="14" lengthAdjust="spacing" textLength="229.1064" x="481.04" y="381.2595">Prozesse: Stammdaten&#228;nderung</text><text fill="#000000" font-family="sans-serif" font-size="14" lengthAdjust="spacing" textLength="284.8604" x="481.04" y="397.5564">Quelle: PARTIN_MIG_1_0e_20241001.pdf</text><line style="stroke:#181818;stroke-width:0.5;" x1="476.04" x2="770.9004" y1="404.8581" y2="404.8581"/></g><!--class CCI_C502_msg_3--><g class="entity" data-entity="CCI_C502_msg_3" data-source-line="28" data-uid="ent0007" id="entity_CCI_C502_msg_3"><rect fill="#F1F1F1" height="145.7813" rx="2.5" ry="2.5" style="stroke:#181818;stroke-width:0.5;" width="758.1631" x="807.39" y="267.0769"/><ellipse cx="1122.2704" cy="283.0769" fill="#ADD1B2" rx="11" ry="11" style="stroke:#181818;stroke-width:1;"/><path d="M1125.2391,288.7175 Q1124.661,289.0144 1124.0204,289.155 Q1123.3797,289.3113 1122.6766,289.3113 Q1120.1766,289.3113 1118.8485,287.6706 Q1117.536,286.0144 1117.536,282.8894 Q1117.536,279.7644 1118.8485,278.1081 Q1120.1766,276.4519 1122.6766,276.4519 Q1123.3797,276.4519 1124.0204,276.6081 Q1124.6766,276.7644 1125.2391,277.0613 L1125.2391,279.78 Q1124.6141,279.2019 1124.0204,278.9363 Q1123.4266,278.655 1122.8016,278.655 Q1121.4579,278.655 1120.7704,279.7331 Q1120.0829,280.7956 1120.0829,282.8894 Q1120.0829,284.9831 1120.7704,286.0613 Q1121.4579,287.1238 1122.8016,287.1238 Q1123.4266,287.1238 1124.0204,286.8581 Q1124.6141,286.5769 1125.2391,285.9988 L1125.2391,288.7175 Z " fill="#000000"/><text fill="#000000" font-family="sans-serif" font-size="14" lengthAdjust="spacing" textLength="119.9023" x="1142.7704" y="287.9236">CCI_C502_msg_3</text><line style="stroke:#181818;stroke-width:0.5;" x1="808.39" x2="1564.5531" y1="299.0769" y2="299.0769"/><text fill="#000000" font-family="sans-serif" font-size="14" lengthAdjust="spacing" textLength="170.3584" x="813.39" y="316.072">Nachricht: QUOTES 1.3a</text><text fill="#000000" font-family="sans-serif" font-size="14" lengthAdjust="spacing" textLength="170.3447" x="813.39" y="332.3689">Kontext: Segmentlayout</text><text fill="#000000" font-family="sans-serif" font-size="14" lengthAdjust="spacing" textLength="91.4033" x="813.39" y="348.6657">Pflichtfeld: Ja</text><text fill="#000000" font-family="sans-serif" font-size="14" lengthAdjust="spacing" textLength="174.624" x="813.39" y="364.9626">Codes: 17, 999, CCI, Z76</text><text fill="#000000" font-family="sans-serif" font-size="14" lengthAdjust="spacing" textLength="292.4961" x="813.39" y="381.2595">Quelle: QUOTES_MIG_1_3a_20240619.pdf</text><line style="stroke:#181818;stroke-width:0.5;" x1="808.39" x2="1564.5531" y1="388.5613" y2="388.5613"/><text fill="#000000" font-family="sans-serif" font-size="14" lengthAdjust="spacing" textLength="746.1631" x="813.39" y="405.5564">Prozesse: Bestellung einer technischen Konfiguration (MSB), Sperrung und Entsperrung eines Anschlusses</text></g><!--class CCI_C502_msg_4--><g class="entity" data-entity="CCI_C502_msg_4" data-source-line="37" data-uid="ent0009" id="entity_CCI_C502_msg_4"><rect fill="#F1F1F1" height="145.7813" rx="2.5" ry="2.5" style="stroke:#181818;stroke-width:0.5;" width="431.2959" x="1600.83" y="267.0769"/><ellipse cx="1752.2768" cy="283.0769" fill="#ADD1B2" rx="11" ry="11" style="stroke:#181818;stroke-width:1;"/><path d="M1755.2455,288.7175 Q1754.6674,289.0144 1754.0268,289.155 Q1753.3862,289.3113 1752.683,289.3113 Q1750.183,289.3113 1748.8549,287.6706 Q1747.5424,286.0144 1747.5424,282.8894 Q1747.5424,279.7644 1748.8549,278.1081 Q1750.183,276.4519 1752.683,276.4519 Q1753.3862,276.4519 1754.0268,276.6081 Q1754.683,276.7644 1755.2455,277.0613 L1755.2455,279.78 Q1754.6205,279.2019 1754.0268,278.9363 Q1753.433,278.655 1752.808,278.655 Q1751.4643,278.655 1750.7768,279.7331 Q1750.0893,280.7956 1750.0893,282.8894 Q1750.0893,284.9831 1750.7768,286.0613 Q1751.4643,287.1238 1752.808,287.1238 Q1753.433,287.1238 1754.0268,286.8581 Q1754.6205,286.5769 1755.2455,285.9988 L1755.2455,288.7175 Z " fill="#000000"/><text fill="#000000" font-family="sans-serif" font-size="14" lengthAdjust="spacing" textLength="119.9023" x="1772.7768" y="287.9236">CCI_C502_msg_4</text><line style="stroke:#181818;stroke-width:0.5;" x1="1601.83" x2="2031.1259" y1="299.0769" y2="299.0769"/><text fill="#000000" font-family="sans-serif" font-size="14" lengthAdjust="spacing" textLength="170.1055" x="1606.83" y="316.072">Nachricht: REQOTE 1.3b</text><text fill="#000000" font-family="sans-serif" font-size="14" lengthAdjust="spacing" textLength="170.3447" x="1606.83" y="332.3689">Kontext: Segmentlayout</text><text fill="#000000" font-family="sans-serif" font-size="14" lengthAdjust="spacing" textLength="91.4033" x="1606.83" y="348.6657">Pflichtfeld: Ja</text><text fill="#000000" font-family="sans-serif" font-size="14" lengthAdjust="spacing" textLength="285.291" x="1606.83" y="364.9626">Codes: 000, 17, 200, 999, CCI, OCR, Z52</text><text fill="#000000" font-family="sans-serif" font-size="14" lengthAdjust="spacing" textLength="292.2432" x="1606.83" y="381.2595">Quelle: REQOTE_MIG_1_3b_20241001.pdf</text><line style="stroke:#181818;stroke-width:0.5;" x1="1601.83" x2="2031.1259" y1="388.5613" y2="388.5613"/><text fill="#000000" font-family="sans-serif" font-size="14" lengthAdjust="spacing" textLength="419.2959" x="1606.83" y="405.5564">Prozesse: Bestellung einer technischen Konfiguration (MSB)</text></g><!--class CCI_C502_proc_1--><g class="entity" data-entity="CCI_C502_proc_1" data-source-line="46" data-uid="ent0011" id="entity_CCI_C502_proc_1"><rect fill="#F1F1F1" height="105.1563" rx="2.5" ry="2.5" style="stroke:#181818;stroke-width:0.5;" width="378.2285" x="2067.36" y="287.3869"/><ellipse cx="2191.7296" cy="307.5197" fill="#ADD1B2" rx="11" ry="11" style="stroke:#181818;stroke-width:1;"/><path d="M2194.6984,313.1603 Q2194.1203,313.4572 2193.4796,313.5978 Q2192.839,313.7541 2192.1359,313.7541 Q2189.6359,313.7541 2188.3078,312.1134 Q2186.9953,310.4572 2186.9953,307.3322 Q2186.9953,304.2072 2188.3078,302.5509 Q2189.6359,300.8947 2192.1359,300.8947 Q2192.839,300.8947 2193.4796,301.0509 Q2194.1359,301.2072 2194.6984,301.5041 L2194.6984,304.2228 Q2194.0734,303.6447 2193.4796,303.3791 Q2192.8859,303.0978 2192.2609,303.0978 Q2190.9171,303.0978 2190.2296,304.1759 Q2189.5421,305.2384 2189.5421,307.3322 Q2189.5421,309.4259 2190.2296,310.5041 Q2190.9171,311.5666 2192.2609,311.5666 Q2192.8859,311.5666 2193.4796,311.3009 Q2194.0734,311.0197 2194.6984,310.4416 L2194.6984,313.1603 Z " fill="#000000"/><text fill="#000000" font-family="sans-serif" font-size="12" font-style="italic" lengthAdjust="spacing" textLength="61.0605" x="2242.194" y="303.5255">&#171;process&#187;</text><text fill="#000000" font-family="sans-serif" font-size="14" lengthAdjust="spacing" textLength="120.9893" x="2212.2296" y="319.3507">CCI_C502_proc_1</text><line style="stroke:#181818;stroke-width:0.5;" x1="2068.36" x2="2444.5885" y1="327.6525" y2="327.6525"/><text fill="#000000" font-family="sans-serif" font-size="14" lengthAdjust="spacing" textLength="334.3525" x="2073.36" y="344.6476">Anforderung und &#220;bermittlung von Messwerten</text><text fill="#000000" font-family="sans-serif" font-size="14" lengthAdjust="spacing" textLength="105.0957" x="2073.36" y="360.9445">Gesetze: MsbG</text><line style="stroke:#181818;stroke-width:0.5;" x1="2068.36" x2="2444.5885" y1="368.2463" y2="368.2463"/><text fill="#000000" font-family="sans-serif" font-size="14" lengthAdjust="spacing" textLength="366.2285" x="2073.36" y="385.2414">Zusammenfassung: Wie kann ein Marktpartner (z.B.</text></g><!--class CCI_C502_proc_2--><g class="entity" data-entity="CCI_C502_proc_2" data-source-line="52" data-uid="ent0013" id="entity_CCI_C502_proc_2"><rect fill="#F1F1F1" height="88.8594" rx="2.5" ry="2.5" style="stroke:#181818;stroke-width:0.5;" width="638.3496" x="2480.3" y="295.5369"/><ellipse cx="2734.7302" cy="315.6697" fill="#ADD1B2" rx="11" ry="11" style="stroke:#181818;stroke-width:1;"/><path d="M2737.6989,321.3103 Q2737.1208,321.6072 2736.4802,321.7478 Q2735.8396,321.9041 2735.1364,321.9041 Q2732.6364,321.9041 2731.3083,320.2634 Q2729.9958,318.6072 2729.9958,315.4822 Q2729.9958,312.3572 2731.3083,310.7009 Q2732.6364,309.0447 2735.1364,309.0447 Q2735.8396,309.0447 2736.4802,309.2009 Q2737.1364,309.3572 2737.6989,309.6541 L2737.6989,312.3728 Q2737.0739,311.7947 2736.4802,311.5291 Q2735.8864,311.2478 2735.2614,311.2478 Q2733.9177,311.2478 2733.2302,312.3259 Q2732.5427,313.3884 2732.5427,315.4822 Q2732.5427,317.5759 2733.2302,318.6541 Q2733.9177,319.7166 2735.2614,319.7166 Q2735.8864,319.7166 2736.4802,319.4509 Q2737.0739,319.1697 2737.6989,318.5916 L2737.6989,321.3103 Z " fill="#000000"/><text fill="#000000" font-family="sans-serif" font-size="12" font-style="italic" lengthAdjust="spacing" textLength="61.0605" x="2785.1945" y="311.6755">&#171;process&#187;</text><text fill="#000000" font-family="sans-serif" font-size="14" lengthAdjust="spacing" textLength="120.9893" x="2755.2302" y="327.5007">CCI_C502_proc_2</text><line style="stroke:#181818;stroke-width:0.5;" x1="2481.3" x2="3117.6496" y1="335.8025" y2="335.8025"/><text fill="#000000" font-family="sans-serif" font-size="14" lengthAdjust="spacing" textLength="158.0127" x="2486.3" y="352.7976">Stammdaten&#228;nderung</text><text fill="#000000" font-family="sans-serif" font-size="14" lengthAdjust="spacing" textLength="626.3496" x="2486.3" y="369.0945">Zusammenfassung: Wie wird eine Stammdaten&#228;nderung an einer Marktlokation, wie z.B.</text><line style="stroke:#181818;stroke-width:0.5;" x1="2481.3" x2="3117.6496" y1="376.3963" y2="376.3963"/></g><!--class CCI_C502_proc_3--><g class="entity" data-entity="CCI_C502_proc_3" data-source-line="57" data-uid="ent0015" id="entity_CCI_C502_proc_3"><rect fill="#F1F1F1" height="105.1563" rx="2.5" ry="2.5" style="stroke:#181818;stroke-width:0.5;" width="1301.9961" x="3153.48" y="287.3869"/><ellipse cx="3739.7334" cy="307.5197" fill="#ADD1B2" rx="11" ry="11" style="stroke:#181818;stroke-width:1;"/><path d="M3742.7022,313.1603 Q3742.124,313.4572 3741.4834,313.5978 Q3740.8428,313.7541 3740.1397,313.7541 Q3737.6397,313.7541 3736.3115,312.1134 Q3734.999,310.4572 3734.999,307.3322 Q3734.999,304.2072 3736.3115,302.5509 Q3737.6397,300.8947 3740.1397,300.8947 Q3740.8428,300.8947 3741.4834,301.0509 Q3742.1397,301.2072 3742.7022,301.5041 L3742.7022,304.2228 Q3742.0772,303.6447 3741.4834,303.3791 Q3740.8897,303.0978 3740.2647,303.0978 Q3738.9209,303.0978 3738.2334,304.1759 Q3737.5459,305.2384 3737.5459,307.3322 Q3737.5459,309.4259 3738.2334,310.5041 Q3738.9209,311.5666 3740.2647,311.5666 Q3740.8897,311.5666 3741.4834,311.3009 Q3742.0772,311.0197 3742.7022,310.4416 L3742.7022,313.1603 Z " fill="#000000"/><text fill="#000000" font-family="sans-serif" font-size="12" font-style="italic" lengthAdjust="spacing" textLength="61.0605" x="3790.1978" y="303.5255">&#171;process&#187;</text><text fill="#000000" font-family="sans-serif" font-size="14" lengthAdjust="spacing" textLength="120.9893" x="3760.2334" y="319.3507">CCI_C502_proc_3</text><line style="stroke:#181818;stroke-width:0.5;" x1="3154.48" x2="4454.4761" y1="327.6525" y2="327.6525"/><text fill="#000000" font-family="sans-serif" font-size="14" lengthAdjust="spacing" textLength="156.4063" x="3159.48" y="344.6476">Gesetze: MsbG, EnWG</text><text fill="#000000" font-family="sans-serif" font-size="14" lengthAdjust="spacing" textLength="1289.9961" x="3159.48" y="360.9445">Zusammenfassung: Erl&#228;utere den Prozess zur Bestellung einer spezifischen technischen Konfiguration bei einem Messstellenbetreiber, beispielsweise f&#252;r ein intelligentes Messsystem.</text><line style="stroke:#181818;stroke-width:0.5;" x1="3154.48" x2="4454.4761" y1="368.2463" y2="368.2463"/><text fill="#000000" font-family="sans-serif" font-size="14" lengthAdjust="spacing" textLength="348.2021" x="3159.48" y="385.2414">Bestellung einer technischen Konfiguration (MSB)</text></g><!--class CCI_C502_proc_4--><g class="entity" data-entity="CCI_C502_proc_4" data-source-line="63" data-uid="ent0017" id="entity_CCI_C502_proc_4"><rect fill="#F1F1F1" height="105.1563" rx="2.5" ry="2.5" style="stroke:#181818;stroke-width:0.5;" width="853.9893" x="4490.48" y="287.3869"/><ellipse cx="4852.73" cy="307.5197" fill="#ADD1B2" rx="11" ry="11" style="stroke:#181818;stroke-width:1;"/><path d="M4855.6988,313.1603 Q4855.1206,313.4572 4854.48,313.5978 Q4853.8394,313.7541 4853.1363,313.7541 Q4850.6363,313.7541 4849.3081,312.1134 Q4847.9956,310.4572 4847.9956,307.3322 Q4847.9956,304.2072 4849.3081,302.5509 Q4850.6363,300.8947 4853.1363,300.8947 Q4853.8394,300.8947 4854.48,301.0509 Q4855.1363,301.2072 4855.6988,301.5041 L4855.6988,304.2228 Q4855.0738,303.6447 4854.48,303.3791 Q4853.8863,303.0978 4853.2613,303.0978 Q4851.9175,303.0978 4851.23,304.1759 Q4850.5425,305.2384 4850.5425,307.3322 Q4850.5425,309.4259 4851.23,310.5041 Q4851.9175,311.5666 4853.2613,311.5666 Q4853.8863,311.5666 4854.48,311.3009 Q4855.0738,311.0197 4855.6988,310.4416 L4855.6988,313.1603 Z " fill="#000000"/><text fill="#000000" font-family="sans-serif" font-size="12" font-style="italic" lengthAdjust="spacing" textLength="61.0605" x="4903.1944" y="303.5255">&#171;process&#187;</text><text fill="#000000" font-family="sans-serif" font-size="14" lengthAdjust="spacing" textLength="120.9893" x="4873.23" y="319.3507">CCI_C502_proc_4</text><line style="stroke:#181818;stroke-width:0.5;" x1="4491.48" x2="5343.4693" y1="327.6525" y2="327.6525"/><text fill="#000000" font-family="sans-serif" font-size="14" lengthAdjust="spacing" textLength="317.9668" x="4496.48" y="344.6476">Sperrung und Entsperrung eines Anschlusses</text><text fill="#000000" font-family="sans-serif" font-size="14" lengthAdjust="spacing" textLength="138.3252" x="4496.48" y="360.9445">Gesetze: StromGVV</text><text fill="#000000" font-family="sans-serif" font-size="14" lengthAdjust="spacing" textLength="841.9893" x="4496.48" y="377.2414">Zusammenfassung: Beschreibe den End-to-End-Prozess f&#252;r die Sperrung und Wiederherstellung eines Netzanschlusses.</text><line style="stroke:#181818;stroke-width:0.5;" x1="4491.48" x2="5343.4693" y1="384.5431" y2="384.5431"/></g><!--link CCI_C502 to CCI_C502_msg_1--><g class="link" data-entity-1="CCI_C502" data-entity-2="CCI_C502_msg_1" data-source-line="18" data-uid="lnk4" id="link_CCI_C502_CCI_C502_msg_1"><path codeLine="18" d="M1848.95,121.5869 C1550.97,130.1769 952.41,160.4369 457.48,267.0769 C451.76,268.3069 451.8298,268.2398 446.0198,269.6098" fill="none" id="CCI_C502-to-CCI_C502_msg_1" style="stroke:#181818;stroke-width:1;"/><polygon fill="#181818" points="440.18,270.9869,449.8578,272.8145,445.0465,269.8393,448.0217,265.0281,440.18,270.9869" style="stroke:#181818;stroke-width:1;"/><text fill="#000000" font-family="sans-serif" font-size="13" lengthAdjust="spacing" textLength="85.2363" x="670.48" y="233.1438">verwendet in</text></g><!--link CCI_C502 to CCI_C502_msg_2--><g class="link" data-entity-1="CCI_C502" data-entity-2="CCI_C502_msg_2" data-source-line="27" data-uid="lnk6" id="link_CCI_C502_CCI_C502_msg_2"><path codeLine="27" d="M1848.94,123.7069 C1602.11,134.7869 1156.52,167.9569 789.48,267.0769 C783.71,268.6269 783.609,268.5421 777.779,270.3921" fill="none" id="CCI_C502-to-CCI_C502_msg_2" style="stroke:#181818;stroke-width:1;"/><polygon fill="#181818" points="772.06,272.2069,781.8483,273.2974,776.8258,270.6946,779.4286,265.6721,772.06,272.2069" style="stroke:#181818;stroke-width:1;"/><text fill="#000000" font-family="sans-serif" font-size="13" lengthAdjust="spacing" textLength="85.2363" x="990.48" y="233.1438">verwendet in</text></g><!--link CCI_C502 to CCI_C502_msg_3--><g class="link" data-entity-1="CCI_C502" data-entity-2="CCI_C502_msg_3" data-source-line="36" data-uid="lnk8" id="link_CCI_C502_CCI_C502_msg_3"><path codeLine="36" d="M1848.89,166.9069 C1736.2,196.1769 1596.5273,232.4587 1470.6173,265.1587" fill="none" id="CCI_C502-to-CCI_C502_msg_3" style="stroke:#181818;stroke-width:1;"/><polygon fill="#181818" points="1464.81,266.6669,1474.5265,268.2761,1469.6495,265.41,1472.5155,260.533,1464.81,266.6669" style="stroke:#181818;stroke-width:1;"/><text fill="#000000" font-family="sans-serif" font-size="13" lengthAdjust="spacing" textLength="85.2363" x="1638.48" y="233.1438">verwendet in</text></g><!--link CCI_C502 to CCI_C502_msg_4--><g class="link" data-entity-1="CCI_C502" data-entity-2="CCI_C502_msg_4" data-source-line="45" data-uid="lnk10" id="link_CCI_C502_CCI_C502_msg_4"><path codeLine="45" d="M1964.44,190.4769 C1940,214.9969 1916.9557,238.1373 1892.5357,262.6373" fill="none" id="CCI_C502-to-CCI_C502_msg_4" style="stroke:#181818;stroke-width:1;"/><polygon fill="#181818" points="1888.3,266.8869,1897.4866,263.3363,1891.8297,263.3456,1891.8205,257.6887,1888.3,266.8869" style="stroke:#181818;stroke-width:1;"/><text fill="#000000" font-family="sans-serif" font-size="13" lengthAdjust="spacing" textLength="85.2363" x="1934.48" y="233.1438">verwendet in</text></g><!--link CCI_C502 to CCI_C502_proc_1--><g class="link" data-entity-1="CCI_C502" data-entity-2="CCI_C502_proc_1" data-source-line="51" data-uid="lnk12" id="link_CCI_C502_CCI_C502_proc_1"><path codeLine="51" d="M2108.51,190.4769 C2139.97,222.0469 2171.9047,254.0969 2200.6147,282.9069" fill="none" id="CCI_C502-to-CCI_C502_proc_1" style="stroke:#181818;stroke-width:1;stroke-dasharray:7,7;"/><polygon fill="#181818" points="2204.85,287.1569,2201.3305,277.9584,2201.3206,283.6152,2195.6638,283.6054,2204.85,287.1569" style="stroke:#181818;stroke-width:1;"/><text fill="#000000" font-family="sans-serif" font-size="13" lengthAdjust="spacing" textLength="91.6221" x="2154.48" y="233.1438">eingebettet in</text></g><!--link CCI_C502 to CCI_C502_proc_2--><g class="link" data-entity-1="CCI_C502" data-entity-2="CCI_C502_proc_2" data-source-line="56" data-uid="lnk14" id="link_CCI_C502_CCI_C502_proc_2"><path codeLine="56" d="M2223.61,172.3369 C2354.1,210.0969 2520.2265,258.159 2642.1365,293.439" fill="none" id="CCI_C502-to-CCI_C502_proc_2" style="stroke:#181818;stroke-width:1;stroke-dasharray:7,7;"/><polygon fill="#181818" points="2647.9,295.1069,2640.3667,288.7627,2643.0971,293.7169,2638.1428,296.4473,2647.9,295.1069" style="stroke:#181818;stroke-width:1;"/><text fill="#000000" font-family="sans-serif" font-size="13" lengthAdjust="spacing" textLength="91.6221" x="2442.48" y="233.1438">eingebettet in</text></g><!--link CCI_C502 to CCI_C502_proc_3--><g class="link" data-entity-1="CCI_C502" data-entity-2="CCI_C502_proc_3" data-source-line="62" data-uid="lnk16" id="link_CCI_C502_CCI_C502_proc_3"><path codeLine="62" d="M2224.01,141.6069 C2499.17,175.9669 3013.5662,240.2034 3381.9262,286.2034" fill="none" id="CCI_C502-to-CCI_C502_proc_3" style="stroke:#181818;stroke-width:1;stroke-dasharray:7,7;"/><polygon fill="#181818" points="3387.88,286.9469,3379.445,281.8625,3382.9185,286.3273,3378.4537,289.8008,3387.88,286.9469" style="stroke:#181818;stroke-width:1;"/><text fill="#000000" font-family="sans-serif" font-size="13" lengthAdjust="spacing" textLength="91.6221" x="2975.48" y="233.1438">eingebettet in</text></g><!--link CCI_C502 to CCI_C502_proc_4--><g class="link" data-entity-1="CCI_C502" data-entity-2="CCI_C502_proc_4" data-source-line="68" data-uid="lnk18" id="link_CCI_C502_CCI_C502_proc_4"><path codeLine="68" d="M2223.82,123.3069 C2633,135.8769 3636.82,174.2669 4472.48,267.0769 C4520.7,272.4269 4565.7376,278.5089 4615.2876,286.0089" fill="none" id="CCI_C502-to-CCI_C502_proc_4" style="stroke:#181818;stroke-width:1;stroke-dasharray:7,7;"/><polygon fill="#181818" points="4621.22,286.9069,4612.92,281.605,4616.2763,286.1586,4611.7227,289.5149,4621.22,286.9069" style="stroke:#181818;stroke-width:1;"/><text fill="#000000" font-family="sans-serif" font-size="13" lengthAdjust="spacing" textLength="91.6221" x="4143.48" y="233.1438">eingebettet in</text></g><!--SRC=[hPNRRjf048RlynHpcKe6sUQGOaL82KKehI07fud4ZRNOOrZ5NgFTTT9GzKqgvIQFqJjUhBC6ad28WBGtnhlUsVd_RsSMpNM2y8Lf54mdJ449MgqphrMptOEGnieC0pE4dmS0FPQY1sqk9fYCa5CKJ7BeikaJ4qCsG45hBcGsGQNGetUW_Kv4dCa8PIw6a8i8fhy7A5EkTM9cxZC1NLh-W58NuIR4ronD8oDg-YnceVClfwWq9aKaSe4ID8OZmLKu8YdVCX7pOIwPvhJhOTS__RJOS8poHK1RQBKOcqqKIQGDafn4guDVAxw3L0q3P-u-74aUZhG7NRzrtlF1BLT3-a29DVwWQH-7AGe2-PZbsh284xC-nYJou2kZcLOMeVB0gLdW75dGQ5WcamNdhIiB_4xDFEhcyVajodqXNkO42HSoW-vP9t23QXYmVFg4qkn48aaP1gxjLkqZjruUHp5vVpdjKgcvYi23UvGFI0UYWOjDcDnLJ1SdLzTdFN3ADduCKu5eXL7LWhxJMCApkM0M56Og2WfEOCyyExRjRFNixk2vikhvyllvTTidpnNs7pptZ-fBJlTj06kVsdz5DZCnHrPXipAfEusjo2ex8Akk8hjgNr8wWspm8MIsRS_QoJKlAmNJhxd_HF0DbPdE1PN1xeLKtK9bBBEGEkpusBoGp6QpGBHdrtTGePwOjbU33etxkQAsG15JBWhmu9OZt34XZ76wjUMT7ZEf3OF3IVcq_DP2kTnSa-UPk24EKEltNRXhBZOtvqPn3rn6nQbi2W8cvYTMI4-ok-AKB8f2sAxVtKr_PKt_1mfcwIGiwhhRZUVHbidqETSe4UX6NjGe_QNAzQJKjXCUpxE-hs20l0X8Yz8eza11ZYLogXtBV5TZZWbL3LS8yVIFBAg12xEK3wdVw58eOXyfEjq2jR8RrEfwKUnpAxtWzBNCqixDpIQOH8mk56EpWDaMKKbd9VEpu5gOZQXObf9JtL5zZL0k0LVGevJiLSOM4DKr47y1]--></g></svg>