<svg xmlns="http://www.w3.org/2000/svg" xmlns:xlink="http://www.w3.org/1999/xlink" contentStyleType="text/css" data-diagram-type="CLASS" height="370px" preserveAspectRatio="none" style="width:984px;height:370px;background:#FFFFFF;" version="1.1" viewBox="0 0 984 370" width="984px" zoomAndPan="magnify"><title>Datenatlas - CCI:00021</title><defs/><g><g class="title" data-source-line="1"><text fill="#000000" font-family="sans-serif" font-size="14" font-weight="bold" lengthAdjust="spacing" textLength="181.5625" x="394.5236" y="22.9951">Datenatlas - CCI:00021</text></g><!--class CCI_00021--><g class="entity" data-entity="CCI_00021" data-source-line="2" data-uid="ent0002" id="entity_CCI_00021"><rect fill="#F1F1F1" height="96.8906" rx="2.5" ry="2.5" style="stroke:#181818;stroke-width:0.5;" width="184.0127" x="314.42" y="44.2969"/><ellipse cx="364.5684" cy="60.2969" fill="#ADD1B2" rx="11" ry="11" style="stroke:#181818;stroke-width:1;"/><path d="M367.5372,65.9375 Q366.9591,66.2344 366.3184,66.375 Q365.6778,66.5313 364.9747,66.5313 Q362.4747,66.5313 361.1466,64.8906 Q359.8341,63.2344 359.8341,60.1094 Q359.8341,56.9844 361.1466,55.3281 Q362.4747,53.6719 364.9747,53.6719 Q365.6778,53.6719 366.3184,53.8281 Q366.9747,53.9844 367.5372,54.2813 L367.5372,57 Q366.9122,56.4219 366.3184,56.1563 Q365.7247,55.875 365.0997,55.875 Q363.7559,55.875 363.0684,56.9531 Q362.3809,58.0156 362.3809,60.1094 Q362.3809,62.2031 363.0684,63.2813 Q363.7559,64.3438 365.0997,64.3438 Q365.7247,64.3438 366.3184,64.0781 Q366.9122,63.7969 367.5372,63.2188 L367.5372,65.9375 Z " fill="#000000"/><text fill="#000000" font-family="sans-serif" font-size="14" lengthAdjust="spacing" textLength="75.2158" x="385.0684" y="65.1436">CCI_00021</text><line style="stroke:#181818;stroke-width:0.5;" x1="315.42" x2="497.4327" y1="76.2969" y2="76.2969"/><text fill="#000000" font-family="sans-serif" font-size="14" lengthAdjust="spacing" textLength="126.3145" x="334.42" y="93.292">Name: Bilanzkreis</text><text fill="#000000" font-family="sans-serif" font-size="14" lengthAdjust="spacing" textLength="66.6436" x="334.42" y="109.5889">Prozesse:</text><rect fill="none" height="6" style="stroke:#C82930;stroke-width:1;" width="6" x="322.42" y="119.5391"/><text fill="#000000" font-family="sans-serif" font-size="14" lengthAdjust="spacing" textLength="158.0127" x="334.42" y="125.8857">Stammdaten&#228;nderung</text><line style="stroke:#181818;stroke-width:0.5;" x1="315.42" x2="497.4327" y1="133.1875" y2="133.1875"/></g><!--class CCI_00021_msg_1--><g class="entity" data-entity="CCI_00021_msg_1" data-source-line="7" data-uid="ent0003" id="entity_CCI_00021_msg_1"><rect fill="#F1F1F1" height="145.7813" rx="2.5" ry="2.5" style="stroke:#181818;stroke-width:0.5;" width="296.8604" x="7" y="218.1869"/><ellipse cx="87.2095" cy="234.1869" fill="#ADD1B2" rx="11" ry="11" style="stroke:#181818;stroke-width:1;"/><path d="M90.1782,239.8275 Q89.6001,240.1244 88.9595,240.265 Q88.3188,240.4213 87.6157,240.4213 Q85.1157,240.4213 83.7876,238.7806 Q82.4751,237.1244 82.4751,233.9994 Q82.4751,230.8744 83.7876,229.2181 Q85.1157,227.5619 87.6157,227.5619 Q88.3188,227.5619 88.9595,227.7181 Q89.6157,227.8744 90.1782,228.1713 L90.1782,230.89 Q89.5532,230.3119 88.9595,230.0463 Q88.3657,229.765 87.7407,229.765 Q86.397,229.765 85.7095,230.8431 Q85.022,231.9056 85.022,233.9994 Q85.022,236.0931 85.7095,237.1713 Q86.397,238.2338 87.7407,238.2338 Q88.3657,238.2338 88.9595,237.9681 Q89.5532,237.6869 90.1782,237.1088 L90.1782,239.8275 Z " fill="#000000"/><text fill="#000000" font-family="sans-serif" font-size="14" lengthAdjust="spacing" textLength="127.9414" x="107.7095" y="239.0336">CCI_00021_msg_1</text><line style="stroke:#181818;stroke-width:0.5;" x1="8" x2="302.8604" y1="250.1869" y2="250.1869"/><text fill="#000000" font-family="sans-serif" font-size="14" lengthAdjust="spacing" textLength="162.7227" x="13" y="267.182">Nachricht: PARTIN 1.0e</text><text fill="#000000" font-family="sans-serif" font-size="14" lengthAdjust="spacing" textLength="204.1143" x="13" y="283.4789">Kontext: Nachrichtenstruktur</text><text fill="#000000" font-family="sans-serif" font-size="14" lengthAdjust="spacing" textLength="91.4033" x="13" y="299.7757">Pflichtfeld: Ja</text><text fill="#000000" font-family="sans-serif" font-size="14" lengthAdjust="spacing" textLength="75.9814" x="13" y="316.0726">Codes: CCI</text><text fill="#000000" font-family="sans-serif" font-size="14" lengthAdjust="spacing" textLength="229.1064" x="13" y="332.3695">Prozesse: Stammdaten&#228;nderung</text><text fill="#000000" font-family="sans-serif" font-size="14" lengthAdjust="spacing" textLength="284.8604" x="13" y="348.6664">Quelle: PARTIN_MIG_1_0e_20241001.pdf</text><line style="stroke:#181818;stroke-width:0.5;" x1="8" x2="302.8604" y1="355.9681" y2="355.9681"/></g><!--class CCI_00021_proc_1--><g class="entity" data-entity="CCI_00021_proc_1" data-source-line="16" data-uid="ent0005" id="entity_CCI_00021_proc_1"><rect fill="#F1F1F1" height="88.8594" rx="2.5" ry="2.5" style="stroke:#181818;stroke-width:0.5;" width="638.3496" x="339.26" y="246.6469"/><ellipse cx="589.6706" cy="266.7797" fill="#ADD1B2" rx="11" ry="11" style="stroke:#181818;stroke-width:1;"/><path d="M592.6394,272.4203 Q592.0613,272.7172 591.4206,272.8578 Q590.78,273.0141 590.0769,273.0141 Q587.5769,273.0141 586.2488,271.3734 Q584.9363,269.7172 584.9363,266.5922 Q584.9363,263.4672 586.2488,261.8109 Q587.5769,260.1547 590.0769,260.1547 Q590.78,260.1547 591.4206,260.3109 Q592.0769,260.4672 592.6394,260.7641 L592.6394,263.4828 Q592.0144,262.9047 591.4206,262.6391 Q590.8269,262.3578 590.2019,262.3578 Q588.8581,262.3578 588.1706,263.4359 Q587.4831,264.4984 587.4831,266.5922 Q587.4831,268.6859 588.1706,269.7641 Q588.8581,270.8266 590.2019,270.8266 Q590.8269,270.8266 591.4206,270.5609 Q592.0144,270.2797 592.6394,269.7016 L592.6394,272.4203 Z " fill="#000000"/><text fill="#000000" font-family="sans-serif" font-size="12" font-style="italic" lengthAdjust="spacing" textLength="61.0605" x="644.1545" y="262.7855">&#171;process&#187;</text><text fill="#000000" font-family="sans-serif" font-size="14" lengthAdjust="spacing" textLength="129.0283" x="610.1706" y="278.6107">CCI_00021_proc_1</text><line style="stroke:#181818;stroke-width:0.5;" x1="340.26" x2="976.6096" y1="286.9125" y2="286.9125"/><text fill="#000000" font-family="sans-serif" font-size="14" lengthAdjust="spacing" textLength="158.0127" x="345.26" y="303.9076">Stammdaten&#228;nderung</text><text fill="#000000" font-family="sans-serif" font-size="14" lengthAdjust="spacing" textLength="626.3496" x="345.26" y="320.2045">Zusammenfassung: Wie wird eine Stammdaten&#228;nderung an einer Marktlokation, wie z.B.</text><line style="stroke:#181818;stroke-width:0.5;" x1="340.26" x2="976.6096" y1="327.5063" y2="327.5063"/></g><!--link CCI_00021 to CCI_00021_msg_1--><g class="link" data-entity-1="CCI_00021" data-entity-2="CCI_00021_msg_1" data-source-line="15" data-uid="lnk4" id="link_CCI_00021_CCI_00021_msg_1"><path codeLine="15" d="M345.35,141.5169 C316.04,164.4469 285.0162,188.7105 252.4762,214.1605" fill="none" id="CCI_00021-to-CCI_00021_msg_1" style="stroke:#181818;stroke-width:1;"/><polygon fill="#181818" points="247.75,217.8569,257.3035,215.4631,251.6885,214.7765,252.375,209.1615,247.75,217.8569" style="stroke:#181818;stroke-width:1;"/><text fill="#000000" font-family="sans-serif" font-size="13" lengthAdjust="spacing" textLength="85.2363" x="304.43" y="184.2538">verwendet in</text></g><!--link CCI_00021 to CCI_00021_proc_1--><g class="link" data-entity-1="CCI_00021" data-entity-2="CCI_00021_proc_1" data-source-line="20" data-uid="lnk6" id="link_CCI_00021_CCI_00021_proc_1"><path codeLine="20" d="M467.75,141.5169 C508.84,173.5269 557.777,211.6593 597.707,242.7693" fill="none" id="CCI_00021-to-CCI_00021_proc_1" style="stroke:#181818;stroke-width:1;stroke-dasharray:7,7;"/><polygon fill="#181818" points="602.44,246.4569,597.7988,237.7701,598.4958,243.3839,592.882,244.0809,602.44,246.4569" style="stroke:#181818;stroke-width:1;"/><text fill="#000000" font-family="sans-serif" font-size="13" lengthAdjust="spacing" textLength="91.6221" x="526.43" y="184.2538">eingebettet in</text></g><!--SRC=[RO_TQiCm38NlynHwW3KuPLUc1DOEHZPQkXyOxCPuYPAQE4wnbNLqx6ts9dknoO7khxsJZgIZxv0XYt2f2PqcgmDCOB4ef11YcYKb2o7sQkpXBG5OwGubp8tLRjzwD86rjU_t609Ahe4TxabtNHKzFpzSXNvmJVB-tqrreL47ptBZJRaX2UkBkuTY1Laga0StlIDyPVbx0rqWFxGq-FYtjb6hqLOIhZKhYxx28EEJtrWdWG1k1xGM3p_LihXIcHAefc9wdWcHfTkgPkwV_9D9ViGluGNz3jcLmBYZa5lVbxmrcyM2OV9yJ7mQw6a8BAEhsOCL2Oy6OMTy1MWSdZe2xSQPXwNsBTc-rMHwTyPN2FjqdlxXJzFy64r6WmQVaMYCy0K0]--></g></svg>