<svg xmlns="http://www.w3.org/2000/svg" xmlns:xlink="http://www.w3.org/1999/xlink" contentStyleType="text/css" data-diagram-type="CLASS" height="387px" preserveAspectRatio="none" style="width:2998px;height:387px;background:#FFFFFF;" version="1.1" viewBox="0 0 2998 387" width="2998px" zoomAndPan="magnify"><title>Datenatlas - CCI:00027</title><defs/><g><g class="title" data-source-line="1"><text fill="#000000" font-family="sans-serif" font-size="14" font-weight="bold" lengthAdjust="spacing" textLength="181.5625" x="1401.2584" y="22.9951">Datenatlas - CCI:00027</text></g><!--class CCI_00027--><g class="entity" data-entity="CCI_00027" data-source-line="2" data-uid="ent0002" id="entity_CCI_00027"><rect fill="#F1F1F1" height="113.1875" rx="2.5" ry="2.5" style="stroke:#181818;stroke-width:0.5;" width="374.2021" x="1263.98" y="44.2969"/><ellipse cx="1409.2232" cy="60.2969" fill="#ADD1B2" rx="11" ry="11" style="stroke:#181818;stroke-width:1;"/><path d="M1412.1919,65.9375 Q1411.6138,66.2344 1410.9732,66.375 Q1410.3325,66.5313 1409.6294,66.5313 Q1407.1294,66.5313 1405.8013,64.8906 Q1404.4888,63.2344 1404.4888,60.1094 Q1404.4888,56.9844 1405.8013,55.3281 Q1407.1294,53.6719 1409.6294,53.6719 Q1410.3325,53.6719 1410.9732,53.8281 Q1411.6294,53.9844 1412.1919,54.2813 L1412.1919,57 Q1411.5669,56.4219 1410.9732,56.1563 Q1410.3794,55.875 1409.7544,55.875 Q1408.4107,55.875 1407.7232,56.9531 Q1407.0357,58.0156 1407.0357,60.1094 Q1407.0357,62.2031 1407.7232,63.2813 Q1408.4107,64.3438 1409.7544,64.3438 Q1410.3794,64.3438 1410.9732,64.0781 Q1411.5669,63.7969 1412.1919,63.2188 L1412.1919,65.9375 Z " fill="#000000"/><text fill="#000000" font-family="sans-serif" font-size="14" lengthAdjust="spacing" textLength="75.2158" x="1429.7232" y="65.1436">CCI_00027</text><line style="stroke:#181818;stroke-width:0.5;" x1="1264.98" x2="1637.1821" y1="76.2969" y2="76.2969"/><text fill="#000000" font-family="sans-serif" font-size="14" lengthAdjust="spacing" textLength="161.1162" x="1283.98" y="93.292">Name: Z&#228;hleinrichtung</text><text fill="#000000" font-family="sans-serif" font-size="14" lengthAdjust="spacing" textLength="66.6436" x="1283.98" y="109.5889">Prozesse:</text><rect fill="none" height="6" style="stroke:#C82930;stroke-width:1;" width="6" x="1271.98" y="119.5391"/><text fill="#000000" font-family="sans-serif" font-size="14" lengthAdjust="spacing" textLength="317.9668" x="1283.98" y="125.8857">Sperrung und Entsperrung eines Anschlusses</text><line style="stroke:#181818;stroke-width:0.5;" x1="1264.98" x2="1637.1821" y1="133.1875" y2="133.1875"/><rect fill="#F24D5C" height="6" style="stroke:#C82930;stroke-width:1;" width="6" x="1271.98" y="143.8359"/><text fill="#000000" font-family="sans-serif" font-size="14" lengthAdjust="spacing" textLength="348.2021" x="1283.98" y="150.1826">Bestellung einer technischen Konfiguration (MSB)</text></g><!--class CCI_00027_msg_1--><g class="entity" data-entity="CCI_00027_msg_1" data-source-line="8" data-uid="ent0003" id="entity_CCI_00027_msg_1"><rect fill="#F1F1F1" height="145.7813" rx="2.5" ry="2.5" style="stroke:#181818;stroke-width:0.5;" width="758.1631" x="7" y="234.4869"/><ellipse cx="317.8608" cy="250.4869" fill="#ADD1B2" rx="11" ry="11" style="stroke:#181818;stroke-width:1;"/><path d="M320.8296,256.1275 Q320.2515,256.4244 319.6108,256.565 Q318.9702,256.7213 318.2671,256.7213 Q315.7671,256.7213 314.439,255.0806 Q313.1265,253.4244 313.1265,250.2994 Q313.1265,247.1744 314.439,245.5181 Q315.7671,243.8619 318.2671,243.8619 Q318.9702,243.8619 319.6108,244.0181 Q320.2671,244.1744 320.8296,244.4713 L320.8296,247.19 Q320.2046,246.6119 319.6108,246.3463 Q319.0171,246.065 318.3921,246.065 Q317.0483,246.065 316.3608,247.1431 Q315.6733,248.2056 315.6733,250.2994 Q315.6733,252.3931 316.3608,253.4713 Q317.0483,254.5338 318.3921,254.5338 Q319.0171,254.5338 319.6108,254.2681 Q320.2046,253.9869 320.8296,253.4088 L320.8296,256.1275 Z " fill="#000000"/><text fill="#000000" font-family="sans-serif" font-size="14" lengthAdjust="spacing" textLength="127.9414" x="338.3608" y="255.3336">CCI_00027_msg_1</text><line style="stroke:#181818;stroke-width:0.5;" x1="8" x2="764.1631" y1="266.4869" y2="266.4869"/><text fill="#000000" font-family="sans-serif" font-size="14" lengthAdjust="spacing" textLength="170.3584" x="13" y="283.482">Nachricht: QUOTES 1.3a</text><text fill="#000000" font-family="sans-serif" font-size="14" lengthAdjust="spacing" textLength="204.1143" x="13" y="299.7789">Kontext: Nachrichtenstruktur</text><text fill="#000000" font-family="sans-serif" font-size="14" lengthAdjust="spacing" textLength="91.4033" x="13" y="316.0757">Pflichtfeld: Ja</text><text fill="#000000" font-family="sans-serif" font-size="14" lengthAdjust="spacing" textLength="75.9814" x="13" y="332.3726">Codes: CCI</text><text fill="#000000" font-family="sans-serif" font-size="14" lengthAdjust="spacing" textLength="292.4961" x="13" y="348.6695">Quelle: QUOTES_MIG_1_3a_20240619.pdf</text><line style="stroke:#181818;stroke-width:0.5;" x1="8" x2="764.1631" y1="355.9713" y2="355.9713"/><text fill="#000000" font-family="sans-serif" font-size="14" lengthAdjust="spacing" textLength="746.1631" x="13" y="372.9664">Prozesse: Bestellung einer technischen Konfiguration (MSB), Sperrung und Entsperrung eines Anschlusses</text></g><!--class CCI_00027_proc_1--><g class="entity" data-entity="CCI_00027_proc_1" data-source-line="17" data-uid="ent0005" id="entity_CCI_00027_proc_1"><rect fill="#F1F1F1" height="105.1563" rx="2.5" ry="2.5" style="stroke:#181818;stroke-width:0.5;" width="1301.9961" x="800.08" y="254.7969"/><ellipse cx="1382.3139" cy="274.9297" fill="#ADD1B2" rx="11" ry="11" style="stroke:#181818;stroke-width:1;"/><path d="M1385.2826,280.5703 Q1384.7045,280.8672 1384.0639,281.0078 Q1383.4233,281.1641 1382.7201,281.1641 Q1380.2201,281.1641 1378.892,279.5234 Q1377.5795,277.8672 1377.5795,274.7422 Q1377.5795,271.6172 1378.892,269.9609 Q1380.2201,268.3047 1382.7201,268.3047 Q1383.4233,268.3047 1384.0639,268.4609 Q1384.7201,268.6172 1385.2826,268.9141 L1385.2826,271.6328 Q1384.6576,271.0547 1384.0639,270.7891 Q1383.4701,270.5078 1382.8451,270.5078 Q1381.5014,270.5078 1380.8139,271.5859 Q1380.1264,272.6484 1380.1264,274.7422 Q1380.1264,276.8359 1380.8139,277.9141 Q1381.5014,278.9766 1382.8451,278.9766 Q1383.4701,278.9766 1384.0639,278.7109 Q1384.6576,278.4297 1385.2826,277.8516 L1385.2826,280.5703 Z " fill="#000000"/><text fill="#000000" font-family="sans-serif" font-size="12" font-style="italic" lengthAdjust="spacing" textLength="61.0605" x="1436.7978" y="270.9355">&#171;process&#187;</text><text fill="#000000" font-family="sans-serif" font-size="14" lengthAdjust="spacing" textLength="129.0283" x="1402.8139" y="286.7607">CCI_00027_proc_1</text><line style="stroke:#181818;stroke-width:0.5;" x1="801.08" x2="2101.0761" y1="295.0625" y2="295.0625"/><text fill="#000000" font-family="sans-serif" font-size="14" lengthAdjust="spacing" textLength="156.4063" x="806.08" y="312.0576">Gesetze: MsbG, EnWG</text><text fill="#000000" font-family="sans-serif" font-size="14" lengthAdjust="spacing" textLength="1289.9961" x="806.08" y="328.3545">Zusammenfassung: Erl&#228;utere den Prozess zur Bestellung einer spezifischen technischen Konfiguration bei einem Messstellenbetreiber, beispielsweise f&#252;r ein intelligentes Messsystem.</text><line style="stroke:#181818;stroke-width:0.5;" x1="801.08" x2="2101.0761" y1="335.6563" y2="335.6563"/><text fill="#000000" font-family="sans-serif" font-size="14" lengthAdjust="spacing" textLength="348.2021" x="806.08" y="352.6514">Bestellung einer technischen Konfiguration (MSB)</text></g><!--class CCI_00027_proc_2--><g class="entity" data-entity="CCI_00027_proc_2" data-source-line="23" data-uid="ent0007" id="entity_CCI_00027_proc_2"><rect fill="#F1F1F1" height="105.1563" rx="2.5" ry="2.5" style="stroke:#181818;stroke-width:0.5;" width="853.9893" x="2137.09" y="254.7969"/><ellipse cx="2495.3205" cy="274.9297" fill="#ADD1B2" rx="11" ry="11" style="stroke:#181818;stroke-width:1;"/><path d="M2498.2892,280.5703 Q2497.7111,280.8672 2497.0705,281.0078 Q2496.4298,281.1641 2495.7267,281.1641 Q2493.2267,281.1641 2491.8986,279.5234 Q2490.5861,277.8672 2490.5861,274.7422 Q2490.5861,271.6172 2491.8986,269.9609 Q2493.2267,268.3047 2495.7267,268.3047 Q2496.4298,268.3047 2497.0705,268.4609 Q2497.7267,268.6172 2498.2892,268.9141 L2498.2892,271.6328 Q2497.6642,271.0547 2497.0705,270.7891 Q2496.4767,270.5078 2495.8517,270.5078 Q2494.508,270.5078 2493.8205,271.5859 Q2493.133,272.6484 2493.133,274.7422 Q2493.133,276.8359 2493.8205,277.9141 Q2494.508,278.9766 2495.8517,278.9766 Q2496.4767,278.9766 2497.0705,278.7109 Q2497.6642,278.4297 2498.2892,277.8516 L2498.2892,280.5703 Z " fill="#000000"/><text fill="#000000" font-family="sans-serif" font-size="12" font-style="italic" lengthAdjust="spacing" textLength="61.0605" x="2549.8044" y="270.9355">&#171;process&#187;</text><text fill="#000000" font-family="sans-serif" font-size="14" lengthAdjust="spacing" textLength="129.0283" x="2515.8205" y="286.7607">CCI_00027_proc_2</text><line style="stroke:#181818;stroke-width:0.5;" x1="2138.09" x2="2990.0793" y1="295.0625" y2="295.0625"/><text fill="#000000" font-family="sans-serif" font-size="14" lengthAdjust="spacing" textLength="317.9668" x="2143.09" y="312.0576">Sperrung und Entsperrung eines Anschlusses</text><text fill="#000000" font-family="sans-serif" font-size="14" lengthAdjust="spacing" textLength="138.3252" x="2143.09" y="328.3545">Gesetze: StromGVV</text><text fill="#000000" font-family="sans-serif" font-size="14" lengthAdjust="spacing" textLength="841.9893" x="2143.09" y="344.6514">Zusammenfassung: Beschreibe den End-to-End-Prozess f&#252;r die Sperrung und Wiederherstellung eines Netzanschlusses.</text><line style="stroke:#181818;stroke-width:0.5;" x1="2138.09" x2="2990.0793" y1="351.9531" y2="351.9531"/></g><!--link CCI_00027 to CCI_00027_msg_1--><g class="link" data-entity-1="CCI_00027" data-entity-2="CCI_00027_msg_1" data-source-line="16" data-uid="lnk4" id="link_CCI_00027_CCI_00027_msg_1"><path codeLine="16" d="M1263.74,137.8569 C1125.5,164.4069 938.6024,200.2855 768.9224,232.8655" fill="none" id="CCI_00027-to-CCI_00027_msg_1" style="stroke:#181818;stroke-width:1;"/><polygon fill="#181818" points="763.03,233.9969,772.6228,236.228,767.9403,233.0541,771.1143,228.3716,763.03,233.9969" style="stroke:#181818;stroke-width:1;"/><text fill="#000000" font-family="sans-serif" font-size="13" lengthAdjust="spacing" textLength="85.2363" x="984.08" y="200.5538">verwendet in</text></g><!--link CCI_00027 to CCI_00027_proc_1--><g class="link" data-entity-1="CCI_00027" data-entity-2="CCI_00027_proc_1" data-source-line="22" data-uid="lnk6" id="link_CCI_00027_CCI_00027_proc_1"><path codeLine="22" d="M1451.08,157.7669 C1451.08,187.9169 1451.08,218.9069 1451.08,248.4269" fill="none" id="CCI_00027-to-CCI_00027_proc_1" style="stroke:#181818;stroke-width:1;stroke-dasharray:7,7;"/><polygon fill="#181818" points="1451.08,254.4269,1455.08,245.4269,1451.08,249.4269,1447.08,245.4269,1451.08,254.4269" style="stroke:#181818;stroke-width:1;"/><text fill="#000000" font-family="sans-serif" font-size="13" lengthAdjust="spacing" textLength="91.6221" x="1452.08" y="200.5538">eingebettet in</text></g><!--link CCI_00027 to CCI_00027_proc_2--><g class="link" data-entity-1="CCI_00027" data-entity-2="CCI_00027_proc_2" data-source-line="28" data-uid="lnk8" id="link_CCI_00027_CCI_00027_proc_2"><path codeLine="28" d="M1638.63,136.3469 C1814.34,168.6269 2073.4687,216.2428 2274.9387,253.2528" fill="none" id="CCI_00027-to-CCI_00027_proc_2" style="stroke:#181818;stroke-width:1;stroke-dasharray:7,7;"/><polygon fill="#181818" points="2280.84,254.3369,2272.7108,248.7766,2275.9223,253.4335,2271.2654,256.645,2280.84,254.3369" style="stroke:#181818;stroke-width:1;"/><text fill="#000000" font-family="sans-serif" font-size="13" lengthAdjust="spacing" textLength="91.6221" x="2009.08" y="200.5538">eingebettet in</text></g><!--SRC=[dPBRRjD048RlynHp2L9iEIu2OLMHQ8YiWbAe0gtK6yknn_QAzJgQdQKGnDlqCRZBYp5hafPW3WfNtft3_yzyQrQi4LxcZ2PddLi8O3OxJw8eYf-D2WbOVy_wEtmP0LpaBIPmixrhD2f3gcZOcLeIRwdReBMOo1b4vWmjezQI12b40iQYCSeM3HfutPbArOvoLfs1HulbsUDTstADHBx9cHBcXkt-xaKil30Ye9tusD7NNmVCMbjdazsOHTCFby3b-pVlvakOX2Uv9CIPyPE4xolGM2RtWHtvBIhjOnNgCe5Nlc7MbMWJR_BpaaUlDpvcCu1B9-Au7pvRdAVP93l9ipYAdqHF9y_3TLa9W8Ut2OBf04G27v5kqPJ8eCo0rfgwGgfEJ_r1jffEUtJ_yN0fMkIDZBkmgtGiorsd4hrnDczRD9NOYbe2SzBREyT82ALexM32nj7GLEXiLBLp_VC4ArHzGmiBaUerqAoG2TKAQUppTgrGsriv85JRR-Jh1OSlLJNAr_xe_IpTRNW0DGodGrw95wXHJFWlNEC1rwFU_vxeagbhqwkht_4KQF8F-qrxddDJ1jm5_hD7s-zRAZmqlrPO8ZL81ymjN8Xb_Z36Frd40nRV0G00]--></g></svg>