<svg xmlns="http://www.w3.org/2000/svg" xmlns:xlink="http://www.w3.org/1999/xlink" contentStyleType="text/css" data-diagram-type="CLASS" height="370px" preserveAspectRatio="none" style="width:1484px;height:370px;background:#FFFFFF;" version="1.1" viewBox="0 0 1484 370" width="1484px" zoomAndPan="magnify"><title>Datenatlas - COM:00014</title><defs/><g><g class="title" data-source-line="1"><text fill="#000000" font-family="sans-serif" font-size="14" font-weight="bold" lengthAdjust="spacing" textLength="191.9121" x="639.3022" y="22.9951">Datenatlas - COM:00014</text></g><!--class COM_00014--><g class="entity" data-entity="COM_00014" data-source-line="2" data-uid="ent0002" id="entity_COM_00014"><rect fill="#F1F1F1" height="96.8906" rx="2.5" ry="2.5" style="stroke:#181818;stroke-width:0.5;" width="273.748" x="587.32" y="44.2969"/><ellipse cx="677.7389" cy="60.2969" fill="#ADD1B2" rx="11" ry="11" style="stroke:#181818;stroke-width:1;"/><path d="M680.7077,65.9375 Q680.1296,66.2344 679.4889,66.375 Q678.8483,66.5313 678.1452,66.5313 Q675.6452,66.5313 674.3171,64.8906 Q673.0046,63.2344 673.0046,60.1094 Q673.0046,56.9844 674.3171,55.3281 Q675.6452,53.6719 678.1452,53.6719 Q678.8483,53.6719 679.4889,53.8281 Q680.1452,53.9844 680.7077,54.2813 L680.7077,57 Q680.0827,56.4219 679.4889,56.1563 Q678.8952,55.875 678.2702,55.875 Q676.9264,55.875 676.2389,56.9531 Q675.5514,58.0156 675.5514,60.1094 Q675.5514,62.2031 676.2389,63.2813 Q676.9264,64.3438 678.2702,64.3438 Q678.8952,64.3438 679.4889,64.0781 Q680.0827,63.7969 680.7077,63.2188 L680.7077,65.9375 Z " fill="#000000"/><text fill="#000000" font-family="sans-serif" font-size="14" lengthAdjust="spacing" textLength="84.4102" x="698.2389" y="65.1436">COM_00014</text><line style="stroke:#181818;stroke-width:0.5;" x1="588.32" x2="860.068" y1="76.2969" y2="76.2969"/><text fill="#000000" font-family="sans-serif" font-size="14" lengthAdjust="spacing" textLength="247.748" x="607.32" y="93.292">Name: Kommunikationsverbindung</text><text fill="#000000" font-family="sans-serif" font-size="14" lengthAdjust="spacing" textLength="66.6436" x="607.32" y="109.5889">Prozesse:</text><rect fill="none" height="6" style="stroke:#C82930;stroke-width:1;" width="6" x="595.32" y="119.5391"/><text fill="#000000" font-family="sans-serif" font-size="14" lengthAdjust="spacing" textLength="180.3457" x="607.32" y="125.8857">Netznutzungsabrechnung</text><line style="stroke:#181818;stroke-width:0.5;" x1="588.32" x2="860.068" y1="133.1875" y2="133.1875"/></g><!--class COM_00014_msg_1--><g class="entity" data-entity="COM_00014_msg_1" data-source-line="7" data-uid="ent0003" id="entity_COM_00014_msg_1"><rect fill="#F1F1F1" height="145.7813" rx="2.5" ry="2.5" style="stroke:#181818;stroke-width:0.5;" width="682.3936" x="7" y="218.1869"/><ellipse cx="275.3789" cy="234.1869" fill="#ADD1B2" rx="11" ry="11" style="stroke:#181818;stroke-width:1;"/><path d="M278.3477,239.8275 Q277.7695,240.1244 277.1289,240.265 Q276.4883,240.4213 275.7852,240.4213 Q273.2852,240.4213 271.957,238.7806 Q270.6445,237.1244 270.6445,233.9994 Q270.6445,230.8744 271.957,229.2181 Q273.2852,227.5619 275.7852,227.5619 Q276.4883,227.5619 277.1289,227.7181 Q277.7852,227.8744 278.3477,228.1713 L278.3477,230.89 Q277.7227,230.3119 277.1289,230.0463 Q276.5352,229.765 275.9102,229.765 Q274.5664,229.765 273.8789,230.8431 Q273.1914,231.9056 273.1914,233.9994 Q273.1914,236.0931 273.8789,237.1713 Q274.5664,238.2338 275.9102,238.2338 Q276.5352,238.2338 277.1289,237.9681 Q277.7227,237.6869 278.3477,237.1088 L278.3477,239.8275 Z " fill="#000000"/><text fill="#000000" font-family="sans-serif" font-size="14" lengthAdjust="spacing" textLength="137.1357" x="295.8789" y="239.0336">COM_00014_msg_1</text><line style="stroke:#181818;stroke-width:0.5;" x1="8" x2="688.3936" y1="250.1869" y2="250.1869"/><text fill="#000000" font-family="sans-serif" font-size="14" lengthAdjust="spacing" textLength="161.998" x="13" y="267.182">Nachricht: INSRPT 1.1a</text><text fill="#000000" font-family="sans-serif" font-size="14" lengthAdjust="spacing" textLength="670.3936" x="13" y="283.4789">Kontext: 0200   SG7   C   R   999   999   2   LIN - DTM - DTM - DTM - DTM - STS - STS - FTX - SG8</text><text fill="#000000" font-family="sans-serif" font-size="14" lengthAdjust="spacing" textLength="110.5439" x="13" y="299.7757">Pflichtfeld: Nein</text><text fill="#000000" font-family="sans-serif" font-size="14" lengthAdjust="spacing" textLength="364.5332" x="13" y="316.0726">Codes: 99, 999, COM, DTM, FTX, LIN, SG7, SG8, STS</text><text fill="#000000" font-family="sans-serif" font-size="14" lengthAdjust="spacing" textLength="251.4395" x="13" y="332.3695">Prozesse: Netznutzungsabrechnung</text><text fill="#000000" font-family="sans-serif" font-size="14" lengthAdjust="spacing" textLength="410.9219" x="13" y="348.6664">Quelle: INSRPT_MIG_1_1a_au&#223;erordentliche_20240726.pdf</text><line style="stroke:#181818;stroke-width:0.5;" x1="8" x2="688.3936" y1="355.9681" y2="355.9681"/></g><!--class COM_00014_proc_1--><g class="entity" data-entity="COM_00014_proc_1" data-source-line="16" data-uid="ent0005" id="entity_COM_00014_proc_1"><rect fill="#F1F1F1" height="105.1563" rx="2.5" ry="2.5" style="stroke:#181818;stroke-width:0.5;" width="752.6465" x="724.87" y="238.4969"/><ellipse cx="1027.8319" cy="258.6297" fill="#ADD1B2" rx="11" ry="11" style="stroke:#181818;stroke-width:1;"/><path d="M1030.8007,264.2703 Q1030.2225,264.5672 1029.5819,264.7078 Q1028.9413,264.8641 1028.2382,264.8641 Q1025.7382,264.8641 1024.41,263.2234 Q1023.0975,261.5672 1023.0975,258.4422 Q1023.0975,255.3172 1024.41,253.6609 Q1025.7382,252.0047 1028.2382,252.0047 Q1028.9413,252.0047 1029.5819,252.1609 Q1030.2382,252.3172 1030.8007,252.6141 L1030.8007,255.3328 Q1030.1757,254.7547 1029.5819,254.4891 Q1028.9882,254.2078 1028.3632,254.2078 Q1027.0194,254.2078 1026.3319,255.2859 Q1025.6444,256.3484 1025.6444,258.4422 Q1025.6444,260.5359 1026.3319,261.6141 Q1027.0194,262.6766 1028.3632,262.6766 Q1028.9882,262.6766 1029.5819,262.4109 Q1030.1757,262.1297 1030.8007,261.5516 L1030.8007,264.2703 Z " fill="#000000"/><text fill="#000000" font-family="sans-serif" font-size="12" font-style="italic" lengthAdjust="spacing" textLength="61.0605" x="1086.913" y="254.6355">&#171;process&#187;</text><text fill="#000000" font-family="sans-serif" font-size="14" lengthAdjust="spacing" textLength="138.2227" x="1048.3319" y="270.4607">COM_00014_proc_1</text><line style="stroke:#181818;stroke-width:0.5;" x1="725.87" x2="1476.5165" y1="278.7625" y2="278.7625"/><text fill="#000000" font-family="sans-serif" font-size="14" lengthAdjust="spacing" textLength="180.3457" x="730.87" y="295.7576">Netznutzungsabrechnung</text><text fill="#000000" font-family="sans-serif" font-size="14" lengthAdjust="spacing" textLength="218.0938" x="730.87" y="312.0545">Gesetze: StromNEV, StromNZV</text><text fill="#000000" font-family="sans-serif" font-size="14" lengthAdjust="spacing" textLength="740.6465" x="730.87" y="328.3514">Zusammenfassung: Wie funktioniert die Netznutzungsabrechnung zwischen Netzbetreiber und Lieferant?</text><line style="stroke:#181818;stroke-width:0.5;" x1="725.87" x2="1476.5165" y1="335.6531" y2="335.6531"/></g><!--link COM_00014 to COM_00014_msg_1--><g class="link" data-entity-1="COM_00014" data-entity-2="COM_00014_msg_1" data-source-line="15" data-uid="lnk4" id="link_COM_00014_COM_00014_msg_1"><path codeLine="15" d="M632.7,141.5169 C588.79,164.4469 540.5586,189.6297 491.8186,215.0797" fill="none" id="COM_00014-to-COM_00014_msg_1" style="stroke:#181818;stroke-width:1;"/><polygon fill="#181818" points="486.5,217.8569,496.3293,217.2369,490.9322,215.5426,492.6265,210.1454,486.5,217.8569" style="stroke:#181818;stroke-width:1;"/><text fill="#000000" font-family="sans-serif" font-size="13" lengthAdjust="spacing" textLength="85.2363" x="571.2" y="184.2538">verwendet in</text></g><!--link COM_00014 to COM_00014_proc_1--><g class="link" data-entity-1="COM_00014" data-entity-2="COM_00014_proc_1" data-source-line="21" data-uid="lnk6" id="link_COM_00014_COM_00014_proc_1"><path codeLine="21" d="M815.94,141.5169 C872.06,170.7469 938.5688,205.3748 996.0988,235.3448" fill="none" id="COM_00014-to-COM_00014_proc_1" style="stroke:#181818;stroke-width:1;stroke-dasharray:7,7;"/><polygon fill="#181818" points="1001.42,238.1169,995.2862,230.4113,996.9856,235.8068,991.5901,237.5063,1001.42,238.1169" style="stroke:#181818;stroke-width:1;"/><text fill="#000000" font-family="sans-serif" font-size="13" lengthAdjust="spacing" textLength="91.6221" x="903.2" y="184.2538">eingebettet in</text></g><!--SRC=[TL9TJi9047xd57E0Gjh626n8VG1j252LDcXuQPPs2XlRBTdTgi5u5W_ZnPp5Vv67cSpEJB_vvfiQOKg44JSekIcvXZOCBsVCTLtlf9LHGjjtkd_3KmiWuXKocDHLrKXnnusefRv7jH8oR-IQ6gvKlKEjaL4C11UXsSd6xAYg-KfXjf6syValUbhfTUfzpCWsIcGRms0SnVEh1BoEnwamgQN1HqgxlkiIUXnsoG_9vcJzVl_B-sJJSKJpHydiNnydyPU_I6vj7FOi_wAqemiiSqRaXQJSiCvHCu9sBBnZIJiMnh5VEdQGOxbOrtCivayTZYa0SDrWMUBdakbi7APUwl6KDwylg6gLepIM3AQ-wv-uNV-qiyqBakxx9ErsS20X0ph80yeS3H3zlpflLPrHrs1W0s8O1E-Y7sCPegOIqOoDggleVE5yHCi5LPUDvbM5ig0XrC_WHY0KZRopVuP0PI2dnF_Wi7iGcjQJ-_eAZKAnGWMDp64gi435fJdxjM-d4nokme3Ej4O2CFkLtm00]--></g></svg>