<svg xmlns="http://www.w3.org/2000/svg" xmlns:xlink="http://www.w3.org/1999/xlink" contentStyleType="text/css" data-diagram-type="CLASS" height="387px" preserveAspectRatio="none" style="width:2998px;height:387px;background:#FFFFFF;" version="1.1" viewBox="0 0 2998 387" width="2998px" zoomAndPan="magnify"><title>Datenatlas - COM:0270</title><defs/><g><g class="title" data-source-line="1"><text fill="#000000" font-family="sans-serif" font-size="14" font-weight="bold" lengthAdjust="spacing" textLength="182.1709" x="1400.9542" y="22.9951">Datenatlas - COM:0270</text></g><!--class COM_0270--><g class="entity" data-entity="COM_0270" data-source-line="2" data-uid="ent0002" id="entity_COM_0270"><rect fill="#F1F1F1" height="113.1875" rx="2.5" ry="2.5" style="stroke:#181818;stroke-width:0.5;" width="374.2021" x="1263.98" y="44.2969"/><ellipse cx="1409.0796" cy="60.2969" fill="#ADD1B2" rx="11" ry="11" style="stroke:#181818;stroke-width:1;"/><path d="M1412.0484,65.9375 Q1411.4702,66.2344 1410.8296,66.375 Q1410.189,66.5313 1409.4859,66.5313 Q1406.9859,66.5313 1405.6577,64.8906 Q1404.3452,63.2344 1404.3452,60.1094 Q1404.3452,56.9844 1405.6577,55.3281 Q1406.9859,53.6719 1409.4859,53.6719 Q1410.189,53.6719 1410.8296,53.8281 Q1411.4859,53.9844 1412.0484,54.2813 L1412.0484,57 Q1411.4234,56.4219 1410.8296,56.1563 Q1410.2359,55.875 1409.6109,55.875 Q1408.2671,55.875 1407.5796,56.9531 Q1406.8921,58.0156 1406.8921,60.1094 Q1406.8921,62.2031 1407.5796,63.2813 Q1408.2671,64.3438 1409.6109,64.3438 Q1410.2359,64.3438 1410.8296,64.0781 Q1411.4234,63.7969 1412.0484,63.2188 L1412.0484,65.9375 Z " fill="#000000"/><text fill="#000000" font-family="sans-serif" font-size="14" lengthAdjust="spacing" textLength="75.5029" x="1429.5796" y="65.1436">COM_0270</text><line style="stroke:#181818;stroke-width:0.5;" x1="1264.98" x2="1637.1821" y1="76.2969" y2="76.2969"/><text fill="#000000" font-family="sans-serif" font-size="14" lengthAdjust="spacing" textLength="247.748" x="1283.98" y="93.292">Name: Kommunikationsverbindung</text><text fill="#000000" font-family="sans-serif" font-size="14" lengthAdjust="spacing" textLength="66.6436" x="1283.98" y="109.5889">Prozesse:</text><rect fill="none" height="6" style="stroke:#C82930;stroke-width:1;" width="6" x="1271.98" y="119.5391"/><text fill="#000000" font-family="sans-serif" font-size="14" lengthAdjust="spacing" textLength="317.9668" x="1283.98" y="125.8857">Sperrung und Entsperrung eines Anschlusses</text><line style="stroke:#181818;stroke-width:0.5;" x1="1264.98" x2="1637.1821" y1="133.1875" y2="133.1875"/><rect fill="#F24D5C" height="6" style="stroke:#C82930;stroke-width:1;" width="6" x="1271.98" y="143.8359"/><text fill="#000000" font-family="sans-serif" font-size="14" lengthAdjust="spacing" textLength="348.2021" x="1283.98" y="150.1826">Bestellung einer technischen Konfiguration (MSB)</text></g><!--class COM_0270_msg_1--><g class="entity" data-entity="COM_0270_msg_1" data-source-line="8" data-uid="ent0003" id="entity_COM_0270_msg_1"><rect fill="#F1F1F1" height="145.7813" rx="2.5" ry="2.5" style="stroke:#181818;stroke-width:0.5;" width="758.1631" x="7" y="234.4869"/><ellipse cx="317.7173" cy="250.4869" fill="#ADD1B2" rx="11" ry="11" style="stroke:#181818;stroke-width:1;"/><path d="M320.686,256.1275 Q320.1079,256.4244 319.4673,256.565 Q318.8267,256.7213 318.1235,256.7213 Q315.6235,256.7213 314.2954,255.0806 Q312.9829,253.4244 312.9829,250.2994 Q312.9829,247.1744 314.2954,245.5181 Q315.6235,243.8619 318.1235,243.8619 Q318.8267,243.8619 319.4673,244.0181 Q320.1235,244.1744 320.686,244.4713 L320.686,247.19 Q320.061,246.6119 319.4673,246.3463 Q318.8735,246.065 318.2485,246.065 Q316.9048,246.065 316.2173,247.1431 Q315.5298,248.2056 315.5298,250.2994 Q315.5298,252.3931 316.2173,253.4713 Q316.9048,254.5338 318.2485,254.5338 Q318.8735,254.5338 319.4673,254.2681 Q320.061,253.9869 320.686,253.4088 L320.686,256.1275 Z " fill="#000000"/><text fill="#000000" font-family="sans-serif" font-size="14" lengthAdjust="spacing" textLength="128.2285" x="338.2173" y="255.3336">COM_0270_msg_1</text><line style="stroke:#181818;stroke-width:0.5;" x1="8" x2="764.1631" y1="266.4869" y2="266.4869"/><text fill="#000000" font-family="sans-serif" font-size="14" lengthAdjust="spacing" textLength="161.793" x="13" y="283.482">Nachricht: ORDRSP 1.4</text><text fill="#000000" font-family="sans-serif" font-size="14" lengthAdjust="spacing" textLength="204.1143" x="13" y="299.7789">Kontext: Nachrichtenstruktur</text><text fill="#000000" font-family="sans-serif" font-size="14" lengthAdjust="spacing" textLength="110.5439" x="13" y="316.0757">Pflichtfeld: Nein</text><text fill="#000000" font-family="sans-serif" font-size="14" lengthAdjust="spacing" textLength="202.665" x="13" y="332.3726">Codes: 99, COM, ID, MP, SG3</text><text fill="#000000" font-family="sans-serif" font-size="14" lengthAdjust="spacing" textLength="283.9307" x="13" y="348.6695">Quelle: ORDRSP_MIG_1_4_20240619.pdf</text><line style="stroke:#181818;stroke-width:0.5;" x1="8" x2="764.1631" y1="355.9713" y2="355.9713"/><text fill="#000000" font-family="sans-serif" font-size="14" lengthAdjust="spacing" textLength="746.1631" x="13" y="372.9664">Prozesse: Bestellung einer technischen Konfiguration (MSB), Sperrung und Entsperrung eines Anschlusses</text></g><!--class COM_0270_proc_1--><g class="entity" data-entity="COM_0270_proc_1" data-source-line="17" data-uid="ent0005" id="entity_COM_0270_proc_1"><rect fill="#F1F1F1" height="105.1563" rx="2.5" ry="2.5" style="stroke:#181818;stroke-width:0.5;" width="1301.9961" x="800.08" y="254.7969"/><ellipse cx="1382.1703" cy="274.9297" fill="#ADD1B2" rx="11" ry="11" style="stroke:#181818;stroke-width:1;"/><path d="M1385.1391,280.5703 Q1384.561,280.8672 1383.9203,281.0078 Q1383.2797,281.1641 1382.5766,281.1641 Q1380.0766,281.1641 1378.7485,279.5234 Q1377.436,277.8672 1377.436,274.7422 Q1377.436,271.6172 1378.7485,269.9609 Q1380.0766,268.3047 1382.5766,268.3047 Q1383.2797,268.3047 1383.9203,268.4609 Q1384.5766,268.6172 1385.1391,268.9141 L1385.1391,271.6328 Q1384.5141,271.0547 1383.9203,270.7891 Q1383.3266,270.5078 1382.7016,270.5078 Q1381.3578,270.5078 1380.6703,271.5859 Q1379.9828,272.6484 1379.9828,274.7422 Q1379.9828,276.8359 1380.6703,277.9141 Q1381.3578,278.9766 1382.7016,278.9766 Q1383.3266,278.9766 1383.9203,278.7109 Q1384.5141,278.4297 1385.1391,277.8516 L1385.1391,280.5703 Z " fill="#000000"/><text fill="#000000" font-family="sans-serif" font-size="12" font-style="italic" lengthAdjust="spacing" textLength="61.0605" x="1436.7978" y="270.9355">&#171;process&#187;</text><text fill="#000000" font-family="sans-serif" font-size="14" lengthAdjust="spacing" textLength="129.3154" x="1402.6703" y="286.7607">COM_0270_proc_1</text><line style="stroke:#181818;stroke-width:0.5;" x1="801.08" x2="2101.0761" y1="295.0625" y2="295.0625"/><text fill="#000000" font-family="sans-serif" font-size="14" lengthAdjust="spacing" textLength="156.4063" x="806.08" y="312.0576">Gesetze: MsbG, EnWG</text><text fill="#000000" font-family="sans-serif" font-size="14" lengthAdjust="spacing" textLength="1289.9961" x="806.08" y="328.3545">Zusammenfassung: Erl&#228;utere den Prozess zur Bestellung einer spezifischen technischen Konfiguration bei einem Messstellenbetreiber, beispielsweise f&#252;r ein intelligentes Messsystem.</text><line style="stroke:#181818;stroke-width:0.5;" x1="801.08" x2="2101.0761" y1="335.6563" y2="335.6563"/><text fill="#000000" font-family="sans-serif" font-size="14" lengthAdjust="spacing" textLength="348.2021" x="806.08" y="352.6514">Bestellung einer technischen Konfiguration (MSB)</text></g><!--class COM_0270_proc_2--><g class="entity" data-entity="COM_0270_proc_2" data-source-line="23" data-uid="ent0007" id="entity_COM_0270_proc_2"><rect fill="#F1F1F1" height="105.1563" rx="2.5" ry="2.5" style="stroke:#181818;stroke-width:0.5;" width="853.9893" x="2137.09" y="254.7969"/><ellipse cx="2495.1769" cy="274.9297" fill="#ADD1B2" rx="11" ry="11" style="stroke:#181818;stroke-width:1;"/><path d="M2498.1457,280.5703 Q2497.5675,280.8672 2496.9269,281.0078 Q2496.2863,281.1641 2495.5832,281.1641 Q2493.0832,281.1641 2491.755,279.5234 Q2490.4425,277.8672 2490.4425,274.7422 Q2490.4425,271.6172 2491.755,269.9609 Q2493.0832,268.3047 2495.5832,268.3047 Q2496.2863,268.3047 2496.9269,268.4609 Q2497.5832,268.6172 2498.1457,268.9141 L2498.1457,271.6328 Q2497.5207,271.0547 2496.9269,270.7891 Q2496.3332,270.5078 2495.7082,270.5078 Q2494.3644,270.5078 2493.6769,271.5859 Q2492.9894,272.6484 2492.9894,274.7422 Q2492.9894,276.8359 2493.6769,277.9141 Q2494.3644,278.9766 2495.7082,278.9766 Q2496.3332,278.9766 2496.9269,278.7109 Q2497.5207,278.4297 2498.1457,277.8516 L2498.1457,280.5703 Z " fill="#000000"/><text fill="#000000" font-family="sans-serif" font-size="12" font-style="italic" lengthAdjust="spacing" textLength="61.0605" x="2549.8044" y="270.9355">&#171;process&#187;</text><text fill="#000000" font-family="sans-serif" font-size="14" lengthAdjust="spacing" textLength="129.3154" x="2515.6769" y="286.7607">COM_0270_proc_2</text><line style="stroke:#181818;stroke-width:0.5;" x1="2138.09" x2="2990.0793" y1="295.0625" y2="295.0625"/><text fill="#000000" font-family="sans-serif" font-size="14" lengthAdjust="spacing" textLength="317.9668" x="2143.09" y="312.0576">Sperrung und Entsperrung eines Anschlusses</text><text fill="#000000" font-family="sans-serif" font-size="14" lengthAdjust="spacing" textLength="138.3252" x="2143.09" y="328.3545">Gesetze: StromGVV</text><text fill="#000000" font-family="sans-serif" font-size="14" lengthAdjust="spacing" textLength="841.9893" x="2143.09" y="344.6514">Zusammenfassung: Beschreibe den End-to-End-Prozess f&#252;r die Sperrung und Wiederherstellung eines Netzanschlusses.</text><line style="stroke:#181818;stroke-width:0.5;" x1="2138.09" x2="2990.0793" y1="351.9531" y2="351.9531"/></g><!--link COM_0270 to COM_0270_msg_1--><g class="link" data-entity-1="COM_0270" data-entity-2="COM_0270_msg_1" data-source-line="16" data-uid="lnk4" id="link_COM_0270_COM_0270_msg_1"><path codeLine="16" d="M1263.74,137.8569 C1125.5,164.4069 938.6024,200.2855 768.9224,232.8655" fill="none" id="COM_0270-to-COM_0270_msg_1" style="stroke:#181818;stroke-width:1;"/><polygon fill="#181818" points="763.03,233.9969,772.6228,236.228,767.9403,233.0541,771.1143,228.3716,763.03,233.9969" style="stroke:#181818;stroke-width:1;"/><text fill="#000000" font-family="sans-serif" font-size="13" lengthAdjust="spacing" textLength="85.2363" x="984.08" y="200.5538">verwendet in</text></g><!--link COM_0270 to COM_0270_proc_1--><g class="link" data-entity-1="COM_0270" data-entity-2="COM_0270_proc_1" data-source-line="22" data-uid="lnk6" id="link_COM_0270_COM_0270_proc_1"><path codeLine="22" d="M1451.08,157.7669 C1451.08,187.9169 1451.08,218.9069 1451.08,248.4269" fill="none" id="COM_0270-to-COM_0270_proc_1" style="stroke:#181818;stroke-width:1;stroke-dasharray:7,7;"/><polygon fill="#181818" points="1451.08,254.4269,1455.08,245.4269,1451.08,249.4269,1447.08,245.4269,1451.08,254.4269" style="stroke:#181818;stroke-width:1;"/><text fill="#000000" font-family="sans-serif" font-size="13" lengthAdjust="spacing" textLength="91.6221" x="1452.08" y="200.5538">eingebettet in</text></g><!--link COM_0270 to COM_0270_proc_2--><g class="link" data-entity-1="COM_0270" data-entity-2="COM_0270_proc_2" data-source-line="28" data-uid="lnk8" id="link_COM_0270_COM_0270_proc_2"><path codeLine="28" d="M1638.63,136.3469 C1814.34,168.6269 2073.4687,216.2428 2274.9387,253.2528" fill="none" id="COM_0270-to-COM_0270_proc_2" style="stroke:#181818;stroke-width:1;stroke-dasharray:7,7;"/><polygon fill="#181818" points="2280.84,254.3369,2272.7108,248.7766,2275.9223,253.4335,2271.2654,256.645,2280.84,254.3369" style="stroke:#181818;stroke-width:1;"/><text fill="#000000" font-family="sans-serif" font-size="13" lengthAdjust="spacing" textLength="91.6221" x="2009.08" y="200.5538">eingebettet in</text></g><!--SRC=[dP9HQzim4CVVyodkSGFR95xOY2c1jGcc3AzP3ItinTZMsHQrvQ2JrYrZtwOVOs_zOZjvITOcAoDxadIw-z_zVvAHfaLOv0PLRjgSm8UBgoGQX-_6evBFv8wPEyBt4S37lCC8FlHTPvMyouti5Nr1NKWbhAevOQNx3H9Xn7jWiNCaWstBbu1IeGQ3PQCabGqgrb6LhAqUTE1Lafw_tfQbQzJQ5LabOAaCxSvEXE2zOe7MSXyQ_JYOC-kepYRRQSj6ox8n4LnTBwxJ5Ko2ASUvhy6l7Dqde2AZxPsnsdceMXUhi1MSmXqvTj4Bf0XcCyyryk1ouK6oyY2DtpnrVR9VxnIh09yiY-FEJfPSnjaacsRXE9oEtqvcmLfK36J_PBu_F-GI0R_NFIg11jZP0RkrxajEEZjp6tOqdmyW_-CLOoGq6nureIBssDXjpD7FblAkGrLnLrQBOAdRnmThK2C8rjg2X8tLnqsPp4PMswulJr2W70ewI5Xgq41LeD4e2zIUkwUrn9RkUODGFVxKBfzfk5HP8w_qk_ORLtV1Kw91C3-Y5Rdo6hc5UHbgU0Jrf8VVuqoDxhluvkPlC9aO_sTdSu2vLC8tlU-M7TV1h93ulFcjH86wGVqCEF7VDvlypnZ_014UWVW5]--></g></svg>