<svg xmlns="http://www.w3.org/2000/svg" xmlns:xlink="http://www.w3.org/1999/xlink" contentStyleType="text/css" data-diagram-type="CLASS" height="387px" preserveAspectRatio="none" style="width:2998px;height:387px;background:#FFFFFF;" version="1.1" viewBox="0 0 2998 387" width="2998px" zoomAndPan="magnify"><title>Datenatlas - COM:00017</title><defs/><g><g class="title" data-source-line="1"><text fill="#000000" font-family="sans-serif" font-size="14" font-weight="bold" lengthAdjust="spacing" textLength="191.9121" x="1396.0836" y="22.9951">Datenatlas - COM:00017</text></g><!--class COM_00017--><g class="entity" data-entity="COM_00017" data-source-line="2" data-uid="ent0002" id="entity_COM_00017"><rect fill="#F1F1F1" height="113.1875" rx="2.5" ry="2.5" style="stroke:#181818;stroke-width:0.5;" width="374.2021" x="1263.98" y="44.2969"/><ellipse cx="1404.626" cy="60.2969" fill="#ADD1B2" rx="11" ry="11" style="stroke:#181818;stroke-width:1;"/><path d="M1407.5947,65.9375 Q1407.0166,66.2344 1406.376,66.375 Q1405.7354,66.5313 1405.0322,66.5313 Q1402.5322,66.5313 1401.2041,64.8906 Q1399.8916,63.2344 1399.8916,60.1094 Q1399.8916,56.9844 1401.2041,55.3281 Q1402.5322,53.6719 1405.0322,53.6719 Q1405.7354,53.6719 1406.376,53.8281 Q1407.0322,53.9844 1407.5947,54.2813 L1407.5947,57 Q1406.9697,56.4219 1406.376,56.1563 Q1405.7822,55.875 1405.1572,55.875 Q1403.8135,55.875 1403.126,56.9531 Q1402.4385,58.0156 1402.4385,60.1094 Q1402.4385,62.2031 1403.126,63.2813 Q1403.8135,64.3438 1405.1572,64.3438 Q1405.7822,64.3438 1406.376,64.0781 Q1406.9697,63.7969 1407.5947,63.2188 L1407.5947,65.9375 Z " fill="#000000"/><text fill="#000000" font-family="sans-serif" font-size="14" lengthAdjust="spacing" textLength="84.4102" x="1425.126" y="65.1436">COM_00017</text><line style="stroke:#181818;stroke-width:0.5;" x1="1264.98" x2="1637.1821" y1="76.2969" y2="76.2969"/><text fill="#000000" font-family="sans-serif" font-size="14" lengthAdjust="spacing" textLength="247.748" x="1283.98" y="93.292">Name: Kommunikationsverbindung</text><text fill="#000000" font-family="sans-serif" font-size="14" lengthAdjust="spacing" textLength="66.6436" x="1283.98" y="109.5889">Prozesse:</text><rect fill="none" height="6" style="stroke:#C82930;stroke-width:1;" width="6" x="1271.98" y="119.5391"/><text fill="#000000" font-family="sans-serif" font-size="14" lengthAdjust="spacing" textLength="317.9668" x="1283.98" y="125.8857">Sperrung und Entsperrung eines Anschlusses</text><line style="stroke:#181818;stroke-width:0.5;" x1="1264.98" x2="1637.1821" y1="133.1875" y2="133.1875"/><rect fill="#F24D5C" height="6" style="stroke:#C82930;stroke-width:1;" width="6" x="1271.98" y="143.8359"/><text fill="#000000" font-family="sans-serif" font-size="14" lengthAdjust="spacing" textLength="348.2021" x="1283.98" y="150.1826">Bestellung einer technischen Konfiguration (MSB)</text></g><!--class COM_00017_msg_1--><g class="entity" data-entity="COM_00017_msg_1" data-source-line="8" data-uid="ent0003" id="entity_COM_00017_msg_1"><rect fill="#F1F1F1" height="145.7813" rx="2.5" ry="2.5" style="stroke:#181818;stroke-width:0.5;" width="758.1631" x="7" y="234.4869"/><ellipse cx="313.2637" cy="250.4869" fill="#ADD1B2" rx="11" ry="11" style="stroke:#181818;stroke-width:1;"/><path d="M316.2324,256.1275 Q315.6543,256.4244 315.0137,256.565 Q314.373,256.7213 313.6699,256.7213 Q311.1699,256.7213 309.8418,255.0806 Q308.5293,253.4244 308.5293,250.2994 Q308.5293,247.1744 309.8418,245.5181 Q311.1699,243.8619 313.6699,243.8619 Q314.373,243.8619 315.0137,244.0181 Q315.6699,244.1744 316.2324,244.4713 L316.2324,247.19 Q315.6074,246.6119 315.0137,246.3463 Q314.4199,246.065 313.7949,246.065 Q312.4512,246.065 311.7637,247.1431 Q311.0762,248.2056 311.0762,250.2994 Q311.0762,252.3931 311.7637,253.4713 Q312.4512,254.5338 313.7949,254.5338 Q314.4199,254.5338 315.0137,254.2681 Q315.6074,253.9869 316.2324,253.4088 L316.2324,256.1275 Z " fill="#000000"/><text fill="#000000" font-family="sans-serif" font-size="14" lengthAdjust="spacing" textLength="137.1357" x="333.7637" y="255.3336">COM_00017_msg_1</text><line style="stroke:#181818;stroke-width:0.5;" x1="8" x2="764.1631" y1="266.4869" y2="266.4869"/><text fill="#000000" font-family="sans-serif" font-size="14" lengthAdjust="spacing" textLength="161.793" x="13" y="283.482">Nachricht: ORDRSP 1.4</text><text fill="#000000" font-family="sans-serif" font-size="14" lengthAdjust="spacing" textLength="204.1143" x="13" y="299.7789">Kontext: Nachrichtenstruktur</text><text fill="#000000" font-family="sans-serif" font-size="14" lengthAdjust="spacing" textLength="110.5439" x="13" y="316.0757">Pflichtfeld: Nein</text><text fill="#000000" font-family="sans-serif" font-size="14" lengthAdjust="spacing" textLength="202.665" x="13" y="332.3726">Codes: 99, COM, ID, MP, SG3</text><text fill="#000000" font-family="sans-serif" font-size="14" lengthAdjust="spacing" textLength="283.9307" x="13" y="348.6695">Quelle: ORDRSP_MIG_1_4_20240619.pdf</text><line style="stroke:#181818;stroke-width:0.5;" x1="8" x2="764.1631" y1="355.9713" y2="355.9713"/><text fill="#000000" font-family="sans-serif" font-size="14" lengthAdjust="spacing" textLength="746.1631" x="13" y="372.9664">Prozesse: Bestellung einer technischen Konfiguration (MSB), Sperrung und Entsperrung eines Anschlusses</text></g><!--class COM_00017_proc_1--><g class="entity" data-entity="COM_00017_proc_1" data-source-line="17" data-uid="ent0005" id="entity_COM_00017_proc_1"><rect fill="#F1F1F1" height="105.1563" rx="2.5" ry="2.5" style="stroke:#181818;stroke-width:0.5;" width="1301.9961" x="800.08" y="254.7969"/><ellipse cx="1377.7167" cy="274.9297" fill="#ADD1B2" rx="11" ry="11" style="stroke:#181818;stroke-width:1;"/><path d="M1380.6855,280.5703 Q1380.1073,280.8672 1379.4667,281.0078 Q1378.8261,281.1641 1378.123,281.1641 Q1375.623,281.1641 1374.2948,279.5234 Q1372.9823,277.8672 1372.9823,274.7422 Q1372.9823,271.6172 1374.2948,269.9609 Q1375.623,268.3047 1378.123,268.3047 Q1378.8261,268.3047 1379.4667,268.4609 Q1380.123,268.6172 1380.6855,268.9141 L1380.6855,271.6328 Q1380.0605,271.0547 1379.4667,270.7891 Q1378.873,270.5078 1378.248,270.5078 Q1376.9042,270.5078 1376.2167,271.5859 Q1375.5292,272.6484 1375.5292,274.7422 Q1375.5292,276.8359 1376.2167,277.9141 Q1376.9042,278.9766 1378.248,278.9766 Q1378.873,278.9766 1379.4667,278.7109 Q1380.0605,278.4297 1380.6855,277.8516 L1380.6855,280.5703 Z " fill="#000000"/><text fill="#000000" font-family="sans-serif" font-size="12" font-style="italic" lengthAdjust="spacing" textLength="61.0605" x="1436.7978" y="270.9355">&#171;process&#187;</text><text fill="#000000" font-family="sans-serif" font-size="14" lengthAdjust="spacing" textLength="138.2227" x="1398.2167" y="286.7607">COM_00017_proc_1</text><line style="stroke:#181818;stroke-width:0.5;" x1="801.08" x2="2101.0761" y1="295.0625" y2="295.0625"/><text fill="#000000" font-family="sans-serif" font-size="14" lengthAdjust="spacing" textLength="156.4063" x="806.08" y="312.0576">Gesetze: MsbG, EnWG</text><text fill="#000000" font-family="sans-serif" font-size="14" lengthAdjust="spacing" textLength="1289.9961" x="806.08" y="328.3545">Zusammenfassung: Erl&#228;utere den Prozess zur Bestellung einer spezifischen technischen Konfiguration bei einem Messstellenbetreiber, beispielsweise f&#252;r ein intelligentes Messsystem.</text><line style="stroke:#181818;stroke-width:0.5;" x1="801.08" x2="2101.0761" y1="335.6563" y2="335.6563"/><text fill="#000000" font-family="sans-serif" font-size="14" lengthAdjust="spacing" textLength="348.2021" x="806.08" y="352.6514">Bestellung einer technischen Konfiguration (MSB)</text></g><!--class COM_00017_proc_2--><g class="entity" data-entity="COM_00017_proc_2" data-source-line="23" data-uid="ent0007" id="entity_COM_00017_proc_2"><rect fill="#F1F1F1" height="105.1563" rx="2.5" ry="2.5" style="stroke:#181818;stroke-width:0.5;" width="853.9893" x="2137.09" y="254.7969"/><ellipse cx="2490.7233" cy="274.9297" fill="#ADD1B2" rx="11" ry="11" style="stroke:#181818;stroke-width:1;"/><path d="M2493.6921,280.5703 Q2493.1139,280.8672 2492.4733,281.0078 Q2491.8327,281.1641 2491.1296,281.1641 Q2488.6296,281.1641 2487.3014,279.5234 Q2485.9889,277.8672 2485.9889,274.7422 Q2485.9889,271.6172 2487.3014,269.9609 Q2488.6296,268.3047 2491.1296,268.3047 Q2491.8327,268.3047 2492.4733,268.4609 Q2493.1296,268.6172 2493.6921,268.9141 L2493.6921,271.6328 Q2493.0671,271.0547 2492.4733,270.7891 Q2491.8796,270.5078 2491.2546,270.5078 Q2489.9108,270.5078 2489.2233,271.5859 Q2488.5358,272.6484 2488.5358,274.7422 Q2488.5358,276.8359 2489.2233,277.9141 Q2489.9108,278.9766 2491.2546,278.9766 Q2491.8796,278.9766 2492.4733,278.7109 Q2493.0671,278.4297 2493.6921,277.8516 L2493.6921,280.5703 Z " fill="#000000"/><text fill="#000000" font-family="sans-serif" font-size="12" font-style="italic" lengthAdjust="spacing" textLength="61.0605" x="2549.8044" y="270.9355">&#171;process&#187;</text><text fill="#000000" font-family="sans-serif" font-size="14" lengthAdjust="spacing" textLength="138.2227" x="2511.2233" y="286.7607">COM_00017_proc_2</text><line style="stroke:#181818;stroke-width:0.5;" x1="2138.09" x2="2990.0793" y1="295.0625" y2="295.0625"/><text fill="#000000" font-family="sans-serif" font-size="14" lengthAdjust="spacing" textLength="317.9668" x="2143.09" y="312.0576">Sperrung und Entsperrung eines Anschlusses</text><text fill="#000000" font-family="sans-serif" font-size="14" lengthAdjust="spacing" textLength="138.3252" x="2143.09" y="328.3545">Gesetze: StromGVV</text><text fill="#000000" font-family="sans-serif" font-size="14" lengthAdjust="spacing" textLength="841.9893" x="2143.09" y="344.6514">Zusammenfassung: Beschreibe den End-to-End-Prozess f&#252;r die Sperrung und Wiederherstellung eines Netzanschlusses.</text><line style="stroke:#181818;stroke-width:0.5;" x1="2138.09" x2="2990.0793" y1="351.9531" y2="351.9531"/></g><!--link COM_00017 to COM_00017_msg_1--><g class="link" data-entity-1="COM_00017" data-entity-2="COM_00017_msg_1" data-source-line="16" data-uid="lnk4" id="link_COM_00017_COM_00017_msg_1"><path codeLine="16" d="M1263.74,137.8569 C1125.5,164.4069 938.6024,200.2855 768.9224,232.8655" fill="none" id="COM_00017-to-COM_00017_msg_1" style="stroke:#181818;stroke-width:1;"/><polygon fill="#181818" points="763.03,233.9969,772.6228,236.228,767.9403,233.0541,771.1143,228.3716,763.03,233.9969" style="stroke:#181818;stroke-width:1;"/><text fill="#000000" font-family="sans-serif" font-size="13" lengthAdjust="spacing" textLength="85.2363" x="984.08" y="200.5538">verwendet in</text></g><!--link COM_00017 to COM_00017_proc_1--><g class="link" data-entity-1="COM_00017" data-entity-2="COM_00017_proc_1" data-source-line="22" data-uid="lnk6" id="link_COM_00017_COM_00017_proc_1"><path codeLine="22" d="M1451.08,157.7669 C1451.08,187.9169 1451.08,218.9069 1451.08,248.4269" fill="none" id="COM_00017-to-COM_00017_proc_1" style="stroke:#181818;stroke-width:1;stroke-dasharray:7,7;"/><polygon fill="#181818" points="1451.08,254.4269,1455.08,245.4269,1451.08,249.4269,1447.08,245.4269,1451.08,254.4269" style="stroke:#181818;stroke-width:1;"/><text fill="#000000" font-family="sans-serif" font-size="13" lengthAdjust="spacing" textLength="91.6221" x="1452.08" y="200.5538">eingebettet in</text></g><!--link COM_00017 to COM_00017_proc_2--><g class="link" data-entity-1="COM_00017" data-entity-2="COM_00017_proc_2" data-source-line="28" data-uid="lnk8" id="link_COM_00017_COM_00017_proc_2"><path codeLine="28" d="M1638.63,136.3469 C1814.34,168.6269 2073.4687,216.2428 2274.9387,253.2528" fill="none" id="COM_00017-to-COM_00017_proc_2" style="stroke:#181818;stroke-width:1;stroke-dasharray:7,7;"/><polygon fill="#181818" points="2280.84,254.3369,2272.7108,248.7766,2275.9223,253.4335,2271.2654,256.645,2280.84,254.3369" style="stroke:#181818;stroke-width:1;"/><text fill="#000000" font-family="sans-serif" font-size="13" lengthAdjust="spacing" textLength="91.6221" x="2009.08" y="200.5538">eingebettet in</text></g><!--SRC=[dPFRQjj048Rl_HHpsO8a9DUqM0H34XiHYXetWWHw8tGOIKkabTcTRLgNlaqUetTviSwgTX97FU1UxUxip3_pVokHe1PXcH7AZDfCWmldbt7e-txmRb9mGDjpEfpXsmJWGzPX2E_xhZDIt6OaUga_eyg5B8siEM6j-YrgZI7lWUNEK1EsBLy22eaA28j62bqqA5b7Lg8sQj21Lt5ozdfNbcnGALjaP0ahINf_jY8QJYKBj8RxwCdtbuEcdQxJO3TkqIXHD1J2vTNoAbb3uCqupeq9lt3qCG6b9cLkoIXhecfjhCAsv1HkoR7plaGTmdpks4uEN2mTYDSE9D6RvxQFDkmSunNWes5ntDj9uuie3T9PElMdC_zjCFSsPSL4dXxDTHSZCY7mazsXB960lRt4jr5zmLad9tR3fXQBWUL_l6I46cdBqyOwZnpsTXDnz9FHMTUXhBWjguMmKkt3lI5K22LhxLZ2rgXnKuQp5TMkwvydo54C1Ht4B3LeeCoH58eSbMFlzKPWg-zuWr0z_50sdt7OL54Zh_fNxLUkxhm3g9wt6FCAhK2Dt8J-mdKwudhKypyIJKZrNNHz_JkU38s_QkjquBcIfKkzQvSzsi5lAV2m-Ot04bM3we2vvZ-0jjdJ6FzaCHsn-0a0]--></g></svg>