<svg xmlns="http://www.w3.org/2000/svg" xmlns:xlink="http://www.w3.org/1999/xlink" contentStyleType="text/css" data-diagram-type="CLASS" height="370px" preserveAspectRatio="none" style="width:1782px;height:370px;background:#FFFFFF;" version="1.1" viewBox="0 0 1782 370" width="1782px" zoomAndPan="magnify"><title>Datenatlas - COM:0510</title><defs/><g><g class="title" data-source-line="1"><text fill="#000000" font-family="sans-serif" font-size="14" font-weight="bold" lengthAdjust="spacing" textLength="182.1709" x="793.2376" y="22.9951">Datenatlas - COM:0510</text></g><!--class COM_0510--><g class="entity" data-entity="COM_0510" data-source-line="2" data-uid="ent0002" id="entity_COM_0510"><rect fill="#F1F1F1" height="96.8906" rx="2.5" ry="2.5" style="stroke:#181818;stroke-width:0.5;" width="374.2021" x="486.55" y="44.2969"/><ellipse cx="631.6496" cy="60.2969" fill="#ADD1B2" rx="11" ry="11" style="stroke:#181818;stroke-width:1;"/><path d="M634.6184,65.9375 Q634.0402,66.2344 633.3996,66.375 Q632.759,66.5313 632.0559,66.5313 Q629.5559,66.5313 628.2277,64.8906 Q626.9152,63.2344 626.9152,60.1094 Q626.9152,56.9844 628.2277,55.3281 Q629.5559,53.6719 632.0559,53.6719 Q632.759,53.6719 633.3996,53.8281 Q634.0559,53.9844 634.6184,54.2813 L634.6184,57 Q633.9934,56.4219 633.3996,56.1563 Q632.8059,55.875 632.1809,55.875 Q630.8371,55.875 630.1496,56.9531 Q629.4621,58.0156 629.4621,60.1094 Q629.4621,62.2031 630.1496,63.2813 Q630.8371,64.3438 632.1809,64.3438 Q632.8059,64.3438 633.3996,64.0781 Q633.9934,63.7969 634.6184,63.2188 L634.6184,65.9375 Z " fill="#000000"/><text fill="#000000" font-family="sans-serif" font-size="14" lengthAdjust="spacing" textLength="75.5029" x="652.1496" y="65.1436">COM_0510</text><line style="stroke:#181818;stroke-width:0.5;" x1="487.55" x2="859.7521" y1="76.2969" y2="76.2969"/><text fill="#000000" font-family="sans-serif" font-size="14" lengthAdjust="spacing" textLength="181.3096" x="492.55" y="93.292">Name: MP - ID Empf&#228;nger</text><text fill="#000000" font-family="sans-serif" font-size="14" lengthAdjust="spacing" textLength="66.6436" x="492.55" y="109.5889">Prozesse:</text><line style="stroke:#181818;stroke-width:0.5;" x1="487.55" x2="859.7521" y1="116.8906" y2="116.8906"/><rect fill="#F24D5C" height="6" style="stroke:#C82930;stroke-width:1;" width="6" x="494.55" y="127.5391"/><text fill="#000000" font-family="sans-serif" font-size="14" lengthAdjust="spacing" textLength="348.2021" x="506.55" y="133.8857">Bestellung einer technischen Konfiguration (MSB)</text></g><!--class COM_0510_msg_1--><g class="entity" data-entity="COM_0510_msg_1" data-source-line="7" data-uid="ent0003" id="entity_COM_0510_msg_1"><rect fill="#F1F1F1" height="145.7813" rx="2.5" ry="2.5" style="stroke:#181818;stroke-width:0.5;" width="431.2959" x="7" y="218.1869"/><ellipse cx="154.2837" cy="234.1869" fill="#ADD1B2" rx="11" ry="11" style="stroke:#181818;stroke-width:1;"/><path d="M157.2524,239.8275 Q156.6743,240.1244 156.0337,240.265 Q155.3931,240.4213 154.6899,240.4213 Q152.1899,240.4213 150.8618,238.7806 Q149.5493,237.1244 149.5493,233.9994 Q149.5493,230.8744 150.8618,229.2181 Q152.1899,227.5619 154.6899,227.5619 Q155.3931,227.5619 156.0337,227.7181 Q156.6899,227.8744 157.2524,228.1713 L157.2524,230.89 Q156.6274,230.3119 156.0337,230.0463 Q155.4399,229.765 154.8149,229.765 Q153.4712,229.765 152.7837,230.8431 Q152.0962,231.9056 152.0962,233.9994 Q152.0962,236.0931 152.7837,237.1713 Q153.4712,238.2338 154.8149,238.2338 Q155.4399,238.2338 156.0337,237.9681 Q156.6274,237.6869 157.2524,237.1088 L157.2524,239.8275 Z " fill="#000000"/><text fill="#000000" font-family="sans-serif" font-size="14" lengthAdjust="spacing" textLength="128.2285" x="174.7837" y="239.0336">COM_0510_msg_1</text><line style="stroke:#181818;stroke-width:0.5;" x1="8" x2="437.2959" y1="250.1869" y2="250.1869"/><text fill="#000000" font-family="sans-serif" font-size="14" lengthAdjust="spacing" textLength="170.1055" x="13" y="267.182">Nachricht: REQOTE 1.3b</text><text fill="#000000" font-family="sans-serif" font-size="14" lengthAdjust="spacing" textLength="204.1143" x="13" y="283.4789">Kontext: Nachrichtenstruktur</text><text fill="#000000" font-family="sans-serif" font-size="14" lengthAdjust="spacing" textLength="110.5439" x="13" y="299.7757">Pflichtfeld: Nein</text><text fill="#000000" font-family="sans-serif" font-size="14" lengthAdjust="spacing" textLength="165.1221" x="13" y="316.0726">Codes: 99, COM, ID, MP</text><text fill="#000000" font-family="sans-serif" font-size="14" lengthAdjust="spacing" textLength="292.2432" x="13" y="332.3695">Quelle: REQOTE_MIG_1_3b_20241001.pdf</text><line style="stroke:#181818;stroke-width:0.5;" x1="8" x2="437.2959" y1="339.6713" y2="339.6713"/><text fill="#000000" font-family="sans-serif" font-size="14" lengthAdjust="spacing" textLength="419.2959" x="13" y="356.6664">Prozesse: Bestellung einer technischen Konfiguration (MSB)</text></g><!--class COM_0510_proc_1--><g class="entity" data-entity="COM_0510_proc_1" data-source-line="16" data-uid="ent0005" id="entity_COM_0510_proc_1"><rect fill="#F1F1F1" height="105.1563" rx="2.5" ry="2.5" style="stroke:#181818;stroke-width:0.5;" width="1301.9961" x="473.65" y="238.4969"/><ellipse cx="1055.7403" cy="258.6297" fill="#ADD1B2" rx="11" ry="11" style="stroke:#181818;stroke-width:1;"/><path d="M1058.7091,264.2703 Q1058.131,264.5672 1057.4903,264.7078 Q1056.8497,264.8641 1056.1466,264.8641 Q1053.6466,264.8641 1052.3185,263.2234 Q1051.006,261.5672 1051.006,258.4422 Q1051.006,255.3172 1052.3185,253.6609 Q1053.6466,252.0047 1056.1466,252.0047 Q1056.8497,252.0047 1057.4903,252.1609 Q1058.1466,252.3172 1058.7091,252.6141 L1058.7091,255.3328 Q1058.0841,254.7547 1057.4903,254.4891 Q1056.8966,254.2078 1056.2716,254.2078 Q1054.9278,254.2078 1054.2403,255.2859 Q1053.5528,256.3484 1053.5528,258.4422 Q1053.5528,260.5359 1054.2403,261.6141 Q1054.9278,262.6766 1056.2716,262.6766 Q1056.8966,262.6766 1057.4903,262.4109 Q1058.0841,262.1297 1058.7091,261.5516 L1058.7091,264.2703 Z " fill="#000000"/><text fill="#000000" font-family="sans-serif" font-size="12" font-style="italic" lengthAdjust="spacing" textLength="61.0605" x="1110.3678" y="254.6355">&#171;process&#187;</text><text fill="#000000" font-family="sans-serif" font-size="14" lengthAdjust="spacing" textLength="129.3154" x="1076.2403" y="270.4607">COM_0510_proc_1</text><line style="stroke:#181818;stroke-width:0.5;" x1="474.65" x2="1774.6461" y1="278.7625" y2="278.7625"/><text fill="#000000" font-family="sans-serif" font-size="14" lengthAdjust="spacing" textLength="156.4063" x="479.65" y="295.7576">Gesetze: MsbG, EnWG</text><text fill="#000000" font-family="sans-serif" font-size="14" lengthAdjust="spacing" textLength="1289.9961" x="479.65" y="312.0545">Zusammenfassung: Erl&#228;utere den Prozess zur Bestellung einer spezifischen technischen Konfiguration bei einem Messstellenbetreiber, beispielsweise f&#252;r ein intelligentes Messsystem.</text><line style="stroke:#181818;stroke-width:0.5;" x1="474.65" x2="1774.6461" y1="319.3563" y2="319.3563"/><text fill="#000000" font-family="sans-serif" font-size="14" lengthAdjust="spacing" textLength="348.2021" x="479.65" y="336.3514">Bestellung einer technischen Konfiguration (MSB)</text></g><!--link COM_0510 to COM_0510_msg_1--><g class="link" data-entity-1="COM_0510" data-entity-2="COM_0510_msg_1" data-source-line="15" data-uid="lnk4" id="link_COM_0510_COM_0510_msg_1"><path codeLine="15" d="M563.61,141.6469 C511.07,164.5169 452.5712,189.9816 394.2812,215.3616" fill="none" id="COM_0510-to-COM_0510_msg_1" style="stroke:#181818;stroke-width:1;"/><polygon fill="#181818" points="388.78,217.7569,398.6286,217.8314,393.3643,215.7608,395.4349,210.4966,388.78,217.7569" style="stroke:#181818;stroke-width:1;"/><text fill="#000000" font-family="sans-serif" font-size="13" lengthAdjust="spacing" textLength="85.2363" x="489.65" y="184.2538">verwendet in</text></g><!--link COM_0510 to COM_0510_proc_1--><g class="link" data-entity-1="COM_0510" data-entity-2="COM_0510_proc_1" data-source-line="21" data-uid="lnk6" id="link_COM_0510_COM_0510_proc_1"><path codeLine="21" d="M783.69,141.6469 C850.7,170.8169 930.8486,205.7122 999.5386,235.6122" fill="none" id="COM_0510-to-COM_0510_proc_1" style="stroke:#181818;stroke-width:1;stroke-dasharray:7,7;"/><polygon fill="#181818" points="1005.04,238.0069,998.3844,230.7472,1000.4555,236.0113,995.1914,238.0824,1005.04,238.0069" style="stroke:#181818;stroke-width:1;"/><text fill="#000000" font-family="sans-serif" font-size="13" lengthAdjust="spacing" textLength="91.6221" x="886.65" y="184.2538">eingebettet in</text></g><!--SRC=[dL7BIiD05DttA-vI8Gr9gmk3TA4DfKYqLK5m4_8uIGUJIPYP-AZuDtw6k_wOTs8LgRZGrTp7kVUSUyO8Ku6cYO5CJ9Le6jBfHHHuXxuto3ZNDerjIiy3elEaHa3HWc7pAOLrMsnUPGd5hOLgrj0Q0SV4_HDeWwhgP4aG4eeCifKKEbj1qbaZ2r5sAZ6YaRGNNPti3rvs2EDQbx6_fSrMIcGh4z1bkBou3ibtnoatU8_18vU_493QgExETBscehAr0bNE49R1jTCcXmxewCYnJ0xVuV11tm_uktIYPSS3-9GNH_DPxCVZD1vvemFVytotpGk-yClCuN2oUsX0zr0Fa3aCiT8TCrhLP0mwFhO1ovnCUcV-8NK63REstwZJcKEXl9bnzRRJILr35ipAsm8ALRLvxGmKAETTMtTetQcVfBh5MXHRrjyLf13zG4qHh-ftGAOm2YA5ScnVjmALVk00L6pUbCMp6nOgIl2hFsQVUBfslplgkfCVRWLsl0HJcDxKTm00]--></g></svg>