<svg xmlns="http://www.w3.org/2000/svg" xmlns:xlink="http://www.w3.org/1999/xlink" contentStyleType="text/css" data-diagram-type="CLASS" height="370px" preserveAspectRatio="none" style="width:1111px;height:370px;background:#FFFFFF;" version="1.1" viewBox="0 0 1111 370" width="1111px" zoomAndPan="magnify"><title>Datenatlas - COM:0060</title><defs/><g><g class="title" data-source-line="1"><text fill="#000000" font-family="sans-serif" font-size="14" font-weight="bold" lengthAdjust="spacing" textLength="182.1709" x="457.4828" y="22.9951">Datenatlas - COM:0060</text></g><!--class COM_0060--><g class="entity" data-entity="COM_0060" data-source-line="2" data-uid="ent0002" id="entity_COM_0060"><rect fill="#F1F1F1" height="96.8906" rx="2.5" ry="2.5" style="stroke:#181818;stroke-width:0.5;" width="207.3096" x="341.16" y="44.2969"/><ellipse cx="402.8133" cy="60.2969" fill="#ADD1B2" rx="11" ry="11" style="stroke:#181818;stroke-width:1;"/><path d="M405.7821,65.9375 Q405.2039,66.2344 404.5633,66.375 Q403.9227,66.5313 403.2196,66.5313 Q400.7196,66.5313 399.3914,64.8906 Q398.0789,63.2344 398.0789,60.1094 Q398.0789,56.9844 399.3914,55.3281 Q400.7196,53.6719 403.2196,53.6719 Q403.9227,53.6719 404.5633,53.8281 Q405.2196,53.9844 405.7821,54.2813 L405.7821,57 Q405.1571,56.4219 404.5633,56.1563 Q403.9696,55.875 403.3446,55.875 Q402.0008,55.875 401.3133,56.9531 Q400.6258,58.0156 400.6258,60.1094 Q400.6258,62.2031 401.3133,63.2813 Q402.0008,64.3438 403.3446,64.3438 Q403.9696,64.3438 404.5633,64.0781 Q405.1571,63.7969 405.7821,63.2188 L405.7821,65.9375 Z " fill="#000000"/><text fill="#000000" font-family="sans-serif" font-size="14" lengthAdjust="spacing" textLength="75.5029" x="423.3133" y="65.1436">COM_0060</text><line style="stroke:#181818;stroke-width:0.5;" x1="342.16" x2="547.4696" y1="76.2969" y2="76.2969"/><text fill="#000000" font-family="sans-serif" font-size="14" lengthAdjust="spacing" textLength="181.3096" x="361.16" y="93.292">Name: MP - ID Empf&#228;nger</text><text fill="#000000" font-family="sans-serif" font-size="14" lengthAdjust="spacing" textLength="66.6436" x="361.16" y="109.5889">Prozesse:</text><rect fill="none" height="6" style="stroke:#C82930;stroke-width:1;" width="6" x="349.16" y="119.5391"/><text fill="#000000" font-family="sans-serif" font-size="14" lengthAdjust="spacing" textLength="180.3457" x="361.16" y="125.8857">Netznutzungsabrechnung</text><line style="stroke:#181818;stroke-width:0.5;" x1="342.16" x2="547.4696" y1="133.1875" y2="133.1875"/></g><!--class COM_0060_msg_1--><g class="entity" data-entity="COM_0060_msg_1" data-source-line="7" data-uid="ent0003" id="entity_COM_0060_msg_1"><rect fill="#F1F1F1" height="145.7813" rx="2.5" ry="2.5" style="stroke:#181818;stroke-width:0.5;" width="309.6299" x="7" y="218.1869"/><ellipse cx="93.4507" cy="234.1869" fill="#ADD1B2" rx="11" ry="11" style="stroke:#181818;stroke-width:1;"/><path d="M96.4194,239.8275 Q95.8413,240.1244 95.2007,240.265 Q94.5601,240.4213 93.8569,240.4213 Q91.3569,240.4213 90.0288,238.7806 Q88.7163,237.1244 88.7163,233.9994 Q88.7163,230.8744 90.0288,229.2181 Q91.3569,227.5619 93.8569,227.5619 Q94.5601,227.5619 95.2007,227.7181 Q95.8569,227.8744 96.4194,228.1713 L96.4194,230.89 Q95.7944,230.3119 95.2007,230.0463 Q94.6069,229.765 93.9819,229.765 Q92.6382,229.765 91.9507,230.8431 Q91.2632,231.9056 91.2632,233.9994 Q91.2632,236.0931 91.9507,237.1713 Q92.6382,238.2338 93.9819,238.2338 Q94.6069,238.2338 95.2007,237.9681 Q95.7944,237.6869 96.4194,237.1088 L96.4194,239.8275 Z " fill="#000000"/><text fill="#000000" font-family="sans-serif" font-size="14" lengthAdjust="spacing" textLength="128.2285" x="113.9507" y="239.0336">COM_0060_msg_1</text><line style="stroke:#181818;stroke-width:0.5;" x1="8" x2="315.6299" y1="250.1869" y2="250.1869"/><text fill="#000000" font-family="sans-serif" font-size="14" lengthAdjust="spacing" textLength="172.9424" x="13" y="267.182">Nachricht: COMDIS 1.0e.</text><text fill="#000000" font-family="sans-serif" font-size="14" lengthAdjust="spacing" textLength="204.1143" x="13" y="283.4789">Kontext: Nachrichtenstruktur</text><text fill="#000000" font-family="sans-serif" font-size="14" lengthAdjust="spacing" textLength="110.5439" x="13" y="299.7757">Pflichtfeld: Nein</text><text fill="#000000" font-family="sans-serif" font-size="14" lengthAdjust="spacing" textLength="202.665" x="13" y="316.0726">Codes: 99, COM, ID, MP, SG1</text><text fill="#000000" font-family="sans-serif" font-size="14" lengthAdjust="spacing" textLength="251.4395" x="13" y="332.3695">Prozesse: Netznutzungsabrechnung</text><text fill="#000000" font-family="sans-serif" font-size="14" lengthAdjust="spacing" textLength="297.6299" x="13" y="348.6664">Quelle: COMDIS_MIG_1_0e__20240619.pdf</text><line style="stroke:#181818;stroke-width:0.5;" x1="8" x2="315.6299" y1="355.9681" y2="355.9681"/></g><!--class COM_0060_proc_1--><g class="entity" data-entity="COM_0060_proc_1" data-source-line="16" data-uid="ent0005" id="entity_COM_0060_proc_1"><rect fill="#F1F1F1" height="105.1563" rx="2.5" ry="2.5" style="stroke:#181818;stroke-width:0.5;" width="752.6465" x="351.49" y="238.4969"/><ellipse cx="658.9055" cy="258.6297" fill="#ADD1B2" rx="11" ry="11" style="stroke:#181818;stroke-width:1;"/><path d="M661.8743,264.2703 Q661.2962,264.5672 660.6555,264.7078 Q660.0149,264.8641 659.3118,264.8641 Q656.8118,264.8641 655.4837,263.2234 Q654.1712,261.5672 654.1712,258.4422 Q654.1712,255.3172 655.4837,253.6609 Q656.8118,252.0047 659.3118,252.0047 Q660.0149,252.0047 660.6555,252.1609 Q661.3118,252.3172 661.8743,252.6141 L661.8743,255.3328 Q661.2493,254.7547 660.6555,254.4891 Q660.0618,254.2078 659.4368,254.2078 Q658.093,254.2078 657.4055,255.2859 Q656.718,256.3484 656.718,258.4422 Q656.718,260.5359 657.4055,261.6141 Q658.093,262.6766 659.4368,262.6766 Q660.0618,262.6766 660.6555,262.4109 Q661.2493,262.1297 661.8743,261.5516 L661.8743,264.2703 Z " fill="#000000"/><text fill="#000000" font-family="sans-serif" font-size="12" font-style="italic" lengthAdjust="spacing" textLength="61.0605" x="713.533" y="254.6355">&#171;process&#187;</text><text fill="#000000" font-family="sans-serif" font-size="14" lengthAdjust="spacing" textLength="129.3154" x="679.4055" y="270.4607">COM_0060_proc_1</text><line style="stroke:#181818;stroke-width:0.5;" x1="352.49" x2="1103.1365" y1="278.7625" y2="278.7625"/><text fill="#000000" font-family="sans-serif" font-size="14" lengthAdjust="spacing" textLength="180.3457" x="357.49" y="295.7576">Netznutzungsabrechnung</text><text fill="#000000" font-family="sans-serif" font-size="14" lengthAdjust="spacing" textLength="218.0938" x="357.49" y="312.0545">Gesetze: StromNEV, StromNZV</text><text fill="#000000" font-family="sans-serif" font-size="14" lengthAdjust="spacing" textLength="740.6465" x="357.49" y="328.3514">Zusammenfassung: Wie funktioniert die Netznutzungsabrechnung zwischen Netzbetreiber und Lieferant?</text><line style="stroke:#181818;stroke-width:0.5;" x1="352.49" x2="1103.1365" y1="335.6531" y2="335.6531"/></g><!--link COM_0060 to COM_0060_msg_1--><g class="link" data-entity-1="COM_0060" data-entity-2="COM_0060_msg_1" data-source-line="15" data-uid="lnk4" id="link_COM_0060_COM_0060_msg_1"><path codeLine="15" d="M375.95,141.5169 C342.9,164.4469 307.5301,188.9871 270.8401,214.4371" fill="none" id="COM_0060-to-COM_0060_msg_1" style="stroke:#181818;stroke-width:1;"/><polygon fill="#181818" points="265.91,217.8569,275.5849,216.014,270.0184,215.0071,271.0253,209.4406,265.91,217.8569" style="stroke:#181818;stroke-width:1;"/><text fill="#000000" font-family="sans-serif" font-size="13" lengthAdjust="spacing" textLength="85.2363" x="329.81" y="184.2538">verwendet in</text></g><!--link COM_0060 to COM_0060_proc_1--><g class="link" data-entity-1="COM_0060" data-entity-2="COM_0060_proc_1" data-source-line="21" data-uid="lnk6" id="link_COM_0060_COM_0060_proc_1"><path codeLine="21" d="M513.68,141.5169 C555.81,170.7469 604.8005,204.7263 647.9905,234.6963" fill="none" id="COM_0060-to-COM_0060_proc_1" style="stroke:#181818;stroke-width:1;stroke-dasharray:7,7;"/><polygon fill="#181818" points="652.92,238.1169,647.8062,229.6997,648.8121,235.2664,643.2454,236.2723,652.92,238.1169" style="stroke:#181818;stroke-width:1;"/><text fill="#000000" font-family="sans-serif" font-size="13" lengthAdjust="spacing" textLength="91.6221" x="579.81" y="184.2538">eingebettet in</text></g><!--SRC=[TP1HQi9048RVFSKS88P4Yk0YwOEAIAkr21PyMM8oIHQJZUpErfBIs_GclLWdrehO-ZOp_x-ptp-ag4GOnuGwfZAsq8NHqrm4GJ_e9DpRjfLj2-yTW4LSeO3vacspCKogVVRrgNCqB2rDtQ2rABW6rXT8ZNRKE9tRU6imAJINdO-hjRAokGnFovF2gAGWqQhZsGf2Fq2VbOTQ4xxn_6n1RScu7RdZrrdPpZ8iKxQWqZmRrIbQ0OE1roxp6DTZRWzMq_0IzXOcmBF3iiHV53cVJMKe0vIo5_JkWduuyFTfnd7Ez-bse-jK0bxH752dIC1KLydtfaxOD1os1TD4qSyPRX5DqRB4I2ioTRMOhBrJjLcpkd4shYhK6V_1VW4l2Y5pUaUgrWeDGSg3_vT3Sr0sAL0VzIsIGRL50qwdyAWmGnDhkhyCw_lHdo02-FGvydCwvlq6]--></g></svg>