<svg xmlns="http://www.w3.org/2000/svg" xmlns:xlink="http://www.w3.org/1999/xlink" contentStyleType="text/css" data-diagram-type="CLASS" height="370px" preserveAspectRatio="none" style="width:1111px;height:370px;background:#FFFFFF;" version="1.1" viewBox="0 0 1111 370" width="1111px" zoomAndPan="magnify"><title>Datenatlas - COMDIS:ST</title><defs/><g><g class="title" data-source-line="1"><text fill="#000000" font-family="sans-serif" font-size="14" font-weight="bold" lengthAdjust="spacing" textLength="189.752" x="453.6923" y="22.9951">Datenatlas - COMDIS:ST</text></g><!--class COMDIS_ST--><g class="entity" data-entity="COMDIS_ST" data-source-line="2" data-uid="ent0002" id="entity_COMDIS_ST"><rect fill="#F1F1F1" height="96.8906" rx="2.5" ry="2.5" style="stroke:#181818;stroke-width:0.5;" width="206.3457" x="341.64" y="44.2969"/><ellipse cx="400.0087" cy="60.2969" fill="#ADD1B2" rx="11" ry="11" style="stroke:#181818;stroke-width:1;"/><path d="M402.9774,65.9375 Q402.3993,66.2344 401.7587,66.375 Q401.118,66.5313 400.4149,66.5313 Q397.9149,66.5313 396.5868,64.8906 Q395.2743,63.2344 395.2743,60.1094 Q395.2743,56.9844 396.5868,55.3281 Q397.9149,53.6719 400.4149,53.6719 Q401.118,53.6719 401.7587,53.8281 Q402.4149,53.9844 402.9774,54.2813 L402.9774,57 Q402.3524,56.4219 401.7587,56.1563 Q401.1649,55.875 400.5399,55.875 Q399.1962,55.875 398.5087,56.9531 Q397.8212,58.0156 397.8212,60.1094 Q397.8212,62.2031 398.5087,63.2813 Q399.1962,64.3438 400.5399,64.3438 Q401.1649,64.3438 401.7587,64.0781 Q402.3524,63.7969 402.9774,63.2188 L402.9774,65.9375 Z " fill="#000000"/><text fill="#000000" font-family="sans-serif" font-size="14" lengthAdjust="spacing" textLength="81.1084" x="420.5087" y="65.1436">COMDIS_ST</text><line style="stroke:#181818;stroke-width:0.5;" x1="342.64" x2="546.9857" y1="76.2969" y2="76.2969"/><text fill="#000000" font-family="sans-serif" font-size="14" lengthAdjust="spacing" textLength="111.0156" x="361.64" y="93.292">Name: MaxWdh</text><text fill="#000000" font-family="sans-serif" font-size="14" lengthAdjust="spacing" textLength="66.6436" x="361.64" y="109.5889">Prozesse:</text><rect fill="none" height="6" style="stroke:#C82930;stroke-width:1;" width="6" x="349.64" y="119.5391"/><text fill="#000000" font-family="sans-serif" font-size="14" lengthAdjust="spacing" textLength="180.3457" x="361.64" y="125.8857">Netznutzungsabrechnung</text><line style="stroke:#181818;stroke-width:0.5;" x1="342.64" x2="546.9857" y1="133.1875" y2="133.1875"/></g><!--class COMDIS_ST_msg_1--><g class="entity" data-entity="COMDIS_ST_msg_1" data-source-line="7" data-uid="ent0003" id="entity_COMDIS_ST_msg_1"><rect fill="#F1F1F1" height="145.7813" rx="2.5" ry="2.5" style="stroke:#181818;stroke-width:0.5;" width="309.6299" x="7" y="218.1869"/><ellipse cx="90.6479" cy="234.1869" fill="#ADD1B2" rx="11" ry="11" style="stroke:#181818;stroke-width:1;"/><path d="M93.6167,239.8275 Q93.0386,240.1244 92.3979,240.265 Q91.7573,240.4213 91.0542,240.4213 Q88.5542,240.4213 87.2261,238.7806 Q85.9136,237.1244 85.9136,233.9994 Q85.9136,230.8744 87.2261,229.2181 Q88.5542,227.5619 91.0542,227.5619 Q91.7573,227.5619 92.3979,227.7181 Q93.0542,227.8744 93.6167,228.1713 L93.6167,230.89 Q92.9917,230.3119 92.3979,230.0463 Q91.8042,229.765 91.1792,229.765 Q89.8354,229.765 89.1479,230.8431 Q88.4604,231.9056 88.4604,233.9994 Q88.4604,236.0931 89.1479,237.1713 Q89.8354,238.2338 91.1792,238.2338 Q91.8042,238.2338 92.3979,237.9681 Q92.9917,237.6869 93.6167,237.1088 L93.6167,239.8275 Z " fill="#000000"/><text fill="#000000" font-family="sans-serif" font-size="14" lengthAdjust="spacing" textLength="133.834" x="111.1479" y="239.0336">COMDIS_ST_msg_1</text><line style="stroke:#181818;stroke-width:0.5;" x1="8" x2="315.6299" y1="250.1869" y2="250.1869"/><text fill="#000000" font-family="sans-serif" font-size="14" lengthAdjust="spacing" textLength="172.9424" x="13" y="267.182">Nachricht: COMDIS 1.0e.</text><text fill="#000000" font-family="sans-serif" font-size="14" lengthAdjust="spacing" textLength="170.3447" x="13" y="283.4789">Kontext: Segmentlayout</text><text fill="#000000" font-family="sans-serif" font-size="14" lengthAdjust="spacing" textLength="91.4033" x="13" y="299.7757">Pflichtfeld: Ja</text><text fill="#000000" font-family="sans-serif" font-size="14" lengthAdjust="spacing" textLength="79.3584" x="13" y="316.0726">Codes: MIG</text><text fill="#000000" font-family="sans-serif" font-size="14" lengthAdjust="spacing" textLength="251.4395" x="13" y="332.3695">Prozesse: Netznutzungsabrechnung</text><text fill="#000000" font-family="sans-serif" font-size="14" lengthAdjust="spacing" textLength="297.6299" x="13" y="348.6664">Quelle: COMDIS_MIG_1_0e__20240619.pdf</text><line style="stroke:#181818;stroke-width:0.5;" x1="8" x2="315.6299" y1="355.9681" y2="355.9681"/></g><!--class COMDIS_ST_proc_1--><g class="entity" data-entity="COMDIS_ST_proc_1" data-source-line="16" data-uid="ent0005" id="entity_COMDIS_ST_proc_1"><rect fill="#F1F1F1" height="105.1563" rx="2.5" ry="2.5" style="stroke:#181818;stroke-width:0.5;" width="752.6465" x="351.49" y="238.4969"/><ellipse cx="656.1028" cy="258.6297" fill="#ADD1B2" rx="11" ry="11" style="stroke:#181818;stroke-width:1;"/><path d="M659.0715,264.2703 Q658.4934,264.5672 657.8528,264.7078 Q657.2122,264.8641 656.509,264.8641 Q654.009,264.8641 652.6809,263.2234 Q651.3684,261.5672 651.3684,258.4422 Q651.3684,255.3172 652.6809,253.6609 Q654.009,252.0047 656.509,252.0047 Q657.2122,252.0047 657.8528,252.1609 Q658.509,252.3172 659.0715,252.6141 L659.0715,255.3328 Q658.4465,254.7547 657.8528,254.4891 Q657.259,254.2078 656.634,254.2078 Q655.2903,254.2078 654.6028,255.2859 Q653.9153,256.3484 653.9153,258.4422 Q653.9153,260.5359 654.6028,261.6141 Q655.2903,262.6766 656.634,262.6766 Q657.259,262.6766 657.8528,262.4109 Q658.4465,262.1297 659.0715,261.5516 L659.0715,264.2703 Z " fill="#000000"/><text fill="#000000" font-family="sans-serif" font-size="12" font-style="italic" lengthAdjust="spacing" textLength="61.0605" x="713.533" y="254.6355">&#171;process&#187;</text><text fill="#000000" font-family="sans-serif" font-size="14" lengthAdjust="spacing" textLength="134.9209" x="676.6028" y="270.4607">COMDIS_ST_proc_1</text><line style="stroke:#181818;stroke-width:0.5;" x1="352.49" x2="1103.1365" y1="278.7625" y2="278.7625"/><text fill="#000000" font-family="sans-serif" font-size="14" lengthAdjust="spacing" textLength="180.3457" x="357.49" y="295.7576">Netznutzungsabrechnung</text><text fill="#000000" font-family="sans-serif" font-size="14" lengthAdjust="spacing" textLength="218.0938" x="357.49" y="312.0545">Gesetze: StromNEV, StromNZV</text><text fill="#000000" font-family="sans-serif" font-size="14" lengthAdjust="spacing" textLength="740.6465" x="357.49" y="328.3514">Zusammenfassung: Wie funktioniert die Netznutzungsabrechnung zwischen Netzbetreiber und Lieferant?</text><line style="stroke:#181818;stroke-width:0.5;" x1="352.49" x2="1103.1365" y1="335.6531" y2="335.6531"/></g><!--link COMDIS_ST to COMDIS_ST_msg_1--><g class="link" data-entity-1="COMDIS_ST" data-entity-2="COMDIS_ST_msg_1" data-source-line="15" data-uid="lnk4" id="link_COMDIS_ST_COMDIS_ST_msg_1"><path codeLine="15" d="M375.95,141.5169 C342.9,164.4469 307.5301,188.9871 270.8401,214.4371" fill="none" id="COMDIS_ST-to-COMDIS_ST_msg_1" style="stroke:#181818;stroke-width:1;"/><polygon fill="#181818" points="265.91,217.8569,275.5849,216.014,270.0184,215.0071,271.0253,209.4406,265.91,217.8569" style="stroke:#181818;stroke-width:1;"/><text fill="#000000" font-family="sans-serif" font-size="13" lengthAdjust="spacing" textLength="85.2363" x="329.81" y="184.2538">verwendet in</text></g><!--link COMDIS_ST to COMDIS_ST_proc_1--><g class="link" data-entity-1="COMDIS_ST" data-entity-2="COMDIS_ST_proc_1" data-source-line="21" data-uid="lnk6" id="link_COMDIS_ST_COMDIS_ST_proc_1"><path codeLine="21" d="M513.68,141.5169 C555.81,170.7469 604.8005,204.7263 647.9905,234.6963" fill="none" id="COMDIS_ST-to-COMDIS_ST_proc_1" style="stroke:#181818;stroke-width:1;stroke-dasharray:7,7;"/><polygon fill="#181818" points="652.92,238.1169,647.8062,229.6997,648.8121,235.2664,643.2454,236.2723,652.92,238.1169" style="stroke:#181818;stroke-width:1;"/><text fill="#000000" font-family="sans-serif" font-size="13" lengthAdjust="spacing" textLength="91.6221" x="579.81" y="184.2538">eingebettet in</text></g><!--SRC=[TP3TJi9048NlUOfv06bQOapSa7g1Xg22cX98kDaitMcxiTsItQbWZU_kW3N-87TdvypFTvOCbGZNYj0gAfM7FemUfjUJH2JpNie5txrbCeUt7i1CLIXWgdPBNV3pqTKjUe-2DV3m3Acr3RMDpRrQEqmBoxBt_dUNh7mkesvZMZYJ5YGw6w8Wn82TkzeIxhYUO5wXPRxNkg7zrQpS3sHOQW6tYYkZMgDdhidu9zGf782d1iiIlovAdfEH357AGJWu3o-Yos2ZCyR-3j_lnqVu0bxGRT5g933sAEF6rIbt3OTxmK1n_1du5DGOFLjCbP2hgzdDugnJgmMxgyQhYhyXuoFSBs1f4BB6FfEfhK57eBdm_t9ejyQd1Tg3lqPoQDReeB4QxWrcw9IbgrzvWo0-ZY80ZSsH5z0XyWS0]--></g></svg>