<svg xmlns="http://www.w3.org/2000/svg" xmlns:xlink="http://www.w3.org/1999/xlink" contentStyleType="text/css" data-diagram-type="CLASS" height="370px" preserveAspectRatio="none" style="width:984px;height:370px;background:#FFFFFF;" version="1.1" viewBox="0 0 984 370" width="984px" zoomAndPan="magnify"><title>Datenatlas - CTA:0300</title><defs/><g><g class="title" data-source-line="1"><text fill="#000000" font-family="sans-serif" font-size="14" font-weight="bold" lengthAdjust="spacing" textLength="176.7227" x="396.9435" y="22.9951">Datenatlas - CTA:0300</text></g><!--class CTA_0300--><g class="entity" data-entity="CTA_0300" data-source-line="2" data-uid="ent0002" id="entity_CTA_0300"><rect fill="#F1F1F1" height="96.8906" rx="2.5" ry="2.5" style="stroke:#181818;stroke-width:0.5;" width="193.9932" x="309.43" y="44.2969"/><ellipse cx="366.91" cy="60.2969" fill="#ADD1B2" rx="11" ry="11" style="stroke:#181818;stroke-width:1;"/><path d="M369.8787,65.9375 Q369.3006,66.2344 368.66,66.375 Q368.0194,66.5313 367.3162,66.5313 Q364.8162,66.5313 363.4881,64.8906 Q362.1756,63.2344 362.1756,60.1094 Q362.1756,56.9844 363.4881,55.3281 Q364.8162,53.6719 367.3162,53.6719 Q368.0194,53.6719 368.66,53.8281 Q369.3162,53.9844 369.8787,54.2813 L369.8787,57 Q369.2537,56.4219 368.66,56.1563 Q368.0662,55.875 367.4412,55.875 Q366.0975,55.875 365.41,56.9531 Q364.7225,58.0156 364.7225,60.1094 Q364.7225,62.2031 365.41,63.2813 Q366.0975,64.3438 367.4412,64.3438 Q368.0662,64.3438 368.66,64.0781 Q369.2537,63.7969 369.8787,63.2188 L369.8787,65.9375 Z " fill="#000000"/><text fill="#000000" font-family="sans-serif" font-size="14" lengthAdjust="spacing" textLength="70.5332" x="387.41" y="65.1436">CTA_0300</text><line style="stroke:#181818;stroke-width:0.5;" x1="310.43" x2="502.4232" y1="76.2969" y2="76.2969"/><text fill="#000000" font-family="sans-serif" font-size="14" lengthAdjust="spacing" textLength="167.9932" x="329.43" y="93.292">Name: Ansprechpartner</text><text fill="#000000" font-family="sans-serif" font-size="14" lengthAdjust="spacing" textLength="66.6436" x="329.43" y="109.5889">Prozesse:</text><rect fill="none" height="6" style="stroke:#C82930;stroke-width:1;" width="6" x="317.43" y="119.5391"/><text fill="#000000" font-family="sans-serif" font-size="14" lengthAdjust="spacing" textLength="158.0127" x="329.43" y="125.8857">Stammdaten&#228;nderung</text><line style="stroke:#181818;stroke-width:0.5;" x1="310.43" x2="502.4232" y1="133.1875" y2="133.1875"/></g><!--class CTA_0300_msg_1--><g class="entity" data-entity="CTA_0300_msg_1" data-source-line="7" data-uid="ent0003" id="entity_CTA_0300_msg_1"><rect fill="#F1F1F1" height="145.7813" rx="2.5" ry="2.5" style="stroke:#181818;stroke-width:0.5;" width="296.8604" x="7" y="218.1869"/><ellipse cx="89.5508" cy="234.1869" fill="#ADD1B2" rx="11" ry="11" style="stroke:#181818;stroke-width:1;"/><path d="M92.5195,239.8275 Q91.9414,240.1244 91.3008,240.265 Q90.6602,240.4213 89.957,240.4213 Q87.457,240.4213 86.1289,238.7806 Q84.8164,237.1244 84.8164,233.9994 Q84.8164,230.8744 86.1289,229.2181 Q87.457,227.5619 89.957,227.5619 Q90.6602,227.5619 91.3008,227.7181 Q91.957,227.8744 92.5195,228.1713 L92.5195,230.89 Q91.8945,230.3119 91.3008,230.0463 Q90.707,229.765 90.082,229.765 Q88.7383,229.765 88.0508,230.8431 Q87.3633,231.9056 87.3633,233.9994 Q87.3633,236.0931 88.0508,237.1713 Q88.7383,238.2338 90.082,238.2338 Q90.707,238.2338 91.3008,237.9681 Q91.8945,237.6869 92.5195,237.1088 L92.5195,239.8275 Z " fill="#000000"/><text fill="#000000" font-family="sans-serif" font-size="14" lengthAdjust="spacing" textLength="123.2588" x="110.0508" y="239.0336">CTA_0300_msg_1</text><line style="stroke:#181818;stroke-width:0.5;" x1="8" x2="302.8604" y1="250.1869" y2="250.1869"/><text fill="#000000" font-family="sans-serif" font-size="14" lengthAdjust="spacing" textLength="162.7227" x="13" y="267.182">Nachricht: PARTIN 1.0e</text><text fill="#000000" font-family="sans-serif" font-size="14" lengthAdjust="spacing" textLength="204.1143" x="13" y="283.4789">Kontext: Nachrichtenstruktur</text><text fill="#000000" font-family="sans-serif" font-size="14" lengthAdjust="spacing" textLength="91.4033" x="13" y="299.7757">Pflichtfeld: Ja</text><text fill="#000000" font-family="sans-serif" font-size="14" lengthAdjust="spacing" textLength="80.2061" x="13" y="316.0726">Codes: CTA</text><text fill="#000000" font-family="sans-serif" font-size="14" lengthAdjust="spacing" textLength="229.1064" x="13" y="332.3695">Prozesse: Stammdaten&#228;nderung</text><text fill="#000000" font-family="sans-serif" font-size="14" lengthAdjust="spacing" textLength="284.8604" x="13" y="348.6664">Quelle: PARTIN_MIG_1_0e_20241001.pdf</text><line style="stroke:#181818;stroke-width:0.5;" x1="8" x2="302.8604" y1="355.9681" y2="355.9681"/></g><!--class CTA_0300_proc_1--><g class="entity" data-entity="CTA_0300_proc_1" data-source-line="16" data-uid="ent0005" id="entity_CTA_0300_proc_1"><rect fill="#F1F1F1" height="88.8594" rx="2.5" ry="2.5" style="stroke:#181818;stroke-width:0.5;" width="638.3496" x="339.26" y="246.6469"/><ellipse cx="592.012" cy="266.7797" fill="#ADD1B2" rx="11" ry="11" style="stroke:#181818;stroke-width:1;"/><path d="M594.9807,272.4203 Q594.4026,272.7172 593.762,272.8578 Q593.1213,273.0141 592.4182,273.0141 Q589.9182,273.0141 588.5901,271.3734 Q587.2776,269.7172 587.2776,266.5922 Q587.2776,263.4672 588.5901,261.8109 Q589.9182,260.1547 592.4182,260.1547 Q593.1213,260.1547 593.762,260.3109 Q594.4182,260.4672 594.9807,260.7641 L594.9807,263.4828 Q594.3557,262.9047 593.762,262.6391 Q593.1682,262.3578 592.5432,262.3578 Q591.1995,262.3578 590.512,263.4359 Q589.8245,264.4984 589.8245,266.5922 Q589.8245,268.6859 590.512,269.7641 Q591.1995,270.8266 592.5432,270.8266 Q593.1682,270.8266 593.762,270.5609 Q594.3557,270.2797 594.9807,269.7016 L594.9807,272.4203 Z " fill="#000000"/><text fill="#000000" font-family="sans-serif" font-size="12" font-style="italic" lengthAdjust="spacing" textLength="61.0605" x="644.1545" y="262.7855">&#171;process&#187;</text><text fill="#000000" font-family="sans-serif" font-size="14" lengthAdjust="spacing" textLength="124.3457" x="612.512" y="278.6107">CTA_0300_proc_1</text><line style="stroke:#181818;stroke-width:0.5;" x1="340.26" x2="976.6096" y1="286.9125" y2="286.9125"/><text fill="#000000" font-family="sans-serif" font-size="14" lengthAdjust="spacing" textLength="158.0127" x="345.26" y="303.9076">Stammdaten&#228;nderung</text><text fill="#000000" font-family="sans-serif" font-size="14" lengthAdjust="spacing" textLength="626.3496" x="345.26" y="320.2045">Zusammenfassung: Wie wird eine Stammdaten&#228;nderung an einer Marktlokation, wie z.B.</text><line style="stroke:#181818;stroke-width:0.5;" x1="340.26" x2="976.6096" y1="327.5063" y2="327.5063"/></g><!--link CTA_0300 to CTA_0300_msg_1--><g class="link" data-entity-1="CTA_0300" data-entity-2="CTA_0300_msg_1" data-source-line="15" data-uid="lnk4" id="link_CTA_0300_CTA_0300_msg_1"><path codeLine="15" d="M345.35,141.5169 C316.04,164.4469 285.0162,188.7105 252.4762,214.1605" fill="none" id="CTA_0300-to-CTA_0300_msg_1" style="stroke:#181818;stroke-width:1;"/><polygon fill="#181818" points="247.75,217.8569,257.3035,215.4631,251.6885,214.7765,252.375,209.1615,247.75,217.8569" style="stroke:#181818;stroke-width:1;"/><text fill="#000000" font-family="sans-serif" font-size="13" lengthAdjust="spacing" textLength="85.2363" x="304.43" y="184.2538">verwendet in</text></g><!--link CTA_0300 to CTA_0300_proc_1--><g class="link" data-entity-1="CTA_0300" data-entity-2="CTA_0300_proc_1" data-source-line="20" data-uid="lnk6" id="link_CTA_0300_CTA_0300_proc_1"><path codeLine="20" d="M467.75,141.5169 C508.84,173.5269 557.777,211.6593 597.707,242.7693" fill="none" id="CTA_0300-to-CTA_0300_proc_1" style="stroke:#181818;stroke-width:1;stroke-dasharray:7,7;"/><polygon fill="#181818" points="602.44,246.4569,597.7988,237.7701,598.4958,243.3839,592.882,244.0809,602.44,246.4569" style="stroke:#181818;stroke-width:1;"/><text fill="#000000" font-family="sans-serif" font-size="13" lengthAdjust="spacing" textLength="91.6221" x="526.43" y="184.2538">eingebettet in</text></g><!--SRC=[RP1HJiCm38RVTmeVW5Nfu2cQAeqXeO4s3PY4n4iKMdUBcgPLuZ8qn6su2HV3gM2Qojxit_RlpoP35k564pfDLWSOmtmpa-9IY57EUOYfYYbyZ01MkaO9CnTQZ_ckrPuSUjRNlZbW22Wv1lPu8btNHNJz_d85-ivjHvy3GrM7hKf_RVETD_cE9AndZvl52j9481Vk6qVuplAn0rqWtrNKzMjB6xKIRI7XJhCoRmeCCkuufJhB0_3GeRNujrCj5xSgLGBLH4okKY7If2rAnZv-O3pEXlGItj3laJq9Z1jUsFecvwRfD0PCacNzkUTfNhh0ChgIBLYHy6mGziONWCRXkI7GhgzvM6fVaMqgJQPn5po5S4YkarFu9Cd-WSauliLN9EhvVm00]--></g></svg>