<svg xmlns="http://www.w3.org/2000/svg" xmlns:xlink="http://www.w3.org/1999/xlink" contentStyleType="text/css" data-diagram-type="CLASS" height="370px" preserveAspectRatio="none" style="width:1224px;height:370px;background:#FFFFFF;" version="1.1" viewBox="0 0 1224 370" width="1224px" zoomAndPan="magnify"><title>Datenatlas - CTA:0180</title><defs/><g><g class="title" data-source-line="1"><text fill="#000000" font-family="sans-serif" font-size="14" font-weight="bold" lengthAdjust="spacing" textLength="176.7227" x="517.0319" y="22.9951">Datenatlas - CTA:0180</text></g><!--class CTA_0180--><g class="entity" data-entity="CTA_0180" data-source-line="2" data-uid="ent0002" id="entity_CTA_0180"><rect fill="#F1F1F1" height="96.8906" rx="2.5" ry="2.5" style="stroke:#181818;stroke-width:0.5;" width="206.3457" x="426.29" y="44.2969"/><ellipse cx="489.9463" cy="60.2969" fill="#ADD1B2" rx="11" ry="11" style="stroke:#181818;stroke-width:1;"/><path d="M492.915,65.9375 Q492.3369,66.2344 491.6963,66.375 Q491.0556,66.5313 490.3525,66.5313 Q487.8525,66.5313 486.5244,64.8906 Q485.2119,63.2344 485.2119,60.1094 Q485.2119,56.9844 486.5244,55.3281 Q487.8525,53.6719 490.3525,53.6719 Q491.0556,53.6719 491.6963,53.8281 Q492.3525,53.9844 492.915,54.2813 L492.915,57 Q492.29,56.4219 491.6963,56.1563 Q491.1025,55.875 490.4775,55.875 Q489.1338,55.875 488.4463,56.9531 Q487.7588,58.0156 487.7588,60.1094 Q487.7588,62.2031 488.4463,63.2813 Q489.1338,64.3438 490.4775,64.3438 Q491.1025,64.3438 491.6963,64.0781 Q492.29,63.7969 492.915,63.2188 L492.915,65.9375 Z " fill="#000000"/><text fill="#000000" font-family="sans-serif" font-size="14" lengthAdjust="spacing" textLength="70.5332" x="510.4463" y="65.1436">CTA_0180</text><line style="stroke:#181818;stroke-width:0.5;" x1="427.29" x2="631.6357" y1="76.2969" y2="76.2969"/><text fill="#000000" font-family="sans-serif" font-size="14" lengthAdjust="spacing" textLength="167.9932" x="446.29" y="93.292">Name: Ansprechpartner</text><text fill="#000000" font-family="sans-serif" font-size="14" lengthAdjust="spacing" textLength="66.6436" x="446.29" y="109.5889">Prozesse:</text><rect fill="none" height="6" style="stroke:#C82930;stroke-width:1;" width="6" x="434.29" y="119.5391"/><text fill="#000000" font-family="sans-serif" font-size="14" lengthAdjust="spacing" textLength="180.3457" x="446.29" y="125.8857">Netznutzungsabrechnung</text><line style="stroke:#181818;stroke-width:0.5;" x1="427.29" x2="631.6357" y1="133.1875" y2="133.1875"/></g><!--class CTA_0180_msg_1--><g class="entity" data-entity="CTA_0180_msg_1" data-source-line="7" data-uid="ent0003" id="entity_CTA_0180_msg_1"><rect fill="#F1F1F1" height="145.7813" rx="2.5" ry="2.5" style="stroke:#181818;stroke-width:0.5;" width="422.9219" x="7" y="218.1869"/><ellipse cx="152.5815" cy="234.1869" fill="#ADD1B2" rx="11" ry="11" style="stroke:#181818;stroke-width:1;"/><path d="M155.5503,239.8275 Q154.9722,240.1244 154.3315,240.265 Q153.6909,240.4213 152.9878,240.4213 Q150.4878,240.4213 149.1597,238.7806 Q147.8472,237.1244 147.8472,233.9994 Q147.8472,230.8744 149.1597,229.2181 Q150.4878,227.5619 152.9878,227.5619 Q153.6909,227.5619 154.3315,227.7181 Q154.9878,227.8744 155.5503,228.1713 L155.5503,230.89 Q154.9253,230.3119 154.3315,230.0463 Q153.7378,229.765 153.1128,229.765 Q151.769,229.765 151.0815,230.8431 Q150.394,231.9056 150.394,233.9994 Q150.394,236.0931 151.0815,237.1713 Q151.769,238.2338 153.1128,238.2338 Q153.7378,238.2338 154.3315,237.9681 Q154.9253,237.6869 155.5503,237.1088 L155.5503,239.8275 Z " fill="#000000"/><text fill="#000000" font-family="sans-serif" font-size="14" lengthAdjust="spacing" textLength="123.2588" x="173.0815" y="239.0336">CTA_0180_msg_1</text><line style="stroke:#181818;stroke-width:0.5;" x1="8" x2="428.9219" y1="250.1869" y2="250.1869"/><text fill="#000000" font-family="sans-serif" font-size="14" lengthAdjust="spacing" textLength="161.998" x="13" y="267.182">Nachricht: INSRPT 1.1a</text><text fill="#000000" font-family="sans-serif" font-size="14" lengthAdjust="spacing" textLength="204.1143" x="13" y="283.4789">Kontext: Nachrichtenstruktur</text><text fill="#000000" font-family="sans-serif" font-size="14" lengthAdjust="spacing" textLength="91.4033" x="13" y="299.7757">Pflichtfeld: Ja</text><text fill="#000000" font-family="sans-serif" font-size="14" lengthAdjust="spacing" textLength="80.2061" x="13" y="316.0726">Codes: CTA</text><text fill="#000000" font-family="sans-serif" font-size="14" lengthAdjust="spacing" textLength="251.4395" x="13" y="332.3695">Prozesse: Netznutzungsabrechnung</text><text fill="#000000" font-family="sans-serif" font-size="14" lengthAdjust="spacing" textLength="410.9219" x="13" y="348.6664">Quelle: INSRPT_MIG_1_1a_au&#223;erordentliche_20240726.pdf</text><line style="stroke:#181818;stroke-width:0.5;" x1="8" x2="428.9219" y1="355.9681" y2="355.9681"/></g><!--class CTA_0180_proc_1--><g class="entity" data-entity="CTA_0180_proc_1" data-source-line="16" data-uid="ent0005" id="entity_CTA_0180_proc_1"><rect fill="#F1F1F1" height="105.1563" rx="2.5" ry="2.5" style="stroke:#181818;stroke-width:0.5;" width="752.6465" x="465.14" y="238.4969"/><ellipse cx="775.0404" cy="258.6297" fill="#ADD1B2" rx="11" ry="11" style="stroke:#181818;stroke-width:1;"/><path d="M778.0091,264.2703 Q777.431,264.5672 776.7904,264.7078 Q776.1498,264.8641 775.4466,264.8641 Q772.9466,264.8641 771.6185,263.2234 Q770.306,261.5672 770.306,258.4422 Q770.306,255.3172 771.6185,253.6609 Q772.9466,252.0047 775.4466,252.0047 Q776.1498,252.0047 776.7904,252.1609 Q777.4466,252.3172 778.0091,252.6141 L778.0091,255.3328 Q777.3841,254.7547 776.7904,254.4891 Q776.1966,254.2078 775.5716,254.2078 Q774.2279,254.2078 773.5404,255.2859 Q772.8529,256.3484 772.8529,258.4422 Q772.8529,260.5359 773.5404,261.6141 Q774.2279,262.6766 775.5716,262.6766 Q776.1966,262.6766 776.7904,262.4109 Q777.3841,262.1297 778.0091,261.5516 L778.0091,264.2703 Z " fill="#000000"/><text fill="#000000" font-family="sans-serif" font-size="12" font-style="italic" lengthAdjust="spacing" textLength="61.0605" x="827.183" y="254.6355">&#171;process&#187;</text><text fill="#000000" font-family="sans-serif" font-size="14" lengthAdjust="spacing" textLength="124.3457" x="795.5404" y="270.4607">CTA_0180_proc_1</text><line style="stroke:#181818;stroke-width:0.5;" x1="466.14" x2="1216.7865" y1="278.7625" y2="278.7625"/><text fill="#000000" font-family="sans-serif" font-size="14" lengthAdjust="spacing" textLength="180.3457" x="471.14" y="295.7576">Netznutzungsabrechnung</text><text fill="#000000" font-family="sans-serif" font-size="14" lengthAdjust="spacing" textLength="218.0938" x="471.14" y="312.0545">Gesetze: StromNEV, StromNZV</text><text fill="#000000" font-family="sans-serif" font-size="14" lengthAdjust="spacing" textLength="740.6465" x="471.14" y="328.3514">Zusammenfassung: Wie funktioniert die Netznutzungsabrechnung zwischen Netzbetreiber und Lieferant?</text><line style="stroke:#181818;stroke-width:0.5;" x1="466.14" x2="1216.7865" y1="335.6531" y2="335.6531"/></g><!--link CTA_0180 to CTA_0180_msg_1--><g class="link" data-entity-1="CTA_0180" data-entity-2="CTA_0180_msg_1" data-source-line="15" data-uid="lnk4" id="link_CTA_0180_CTA_0180_msg_1"><path codeLine="15" d="M453.78,141.5169 C417.46,164.4469 378.2438,189.2043 337.9238,214.6543" fill="none" id="CTA_0180-to-CTA_0180_msg_1" style="stroke:#181818;stroke-width:1;"/><polygon fill="#181818" points="332.85,217.8569,342.5958,216.4355,337.0782,215.1881,338.3256,209.6705,332.85,217.8569" style="stroke:#181818;stroke-width:1;"/><text fill="#000000" font-family="sans-serif" font-size="13" lengthAdjust="spacing" textLength="85.2363" x="403.46" y="184.2538">verwendet in</text></g><!--link CTA_0180 to CTA_0180_proc_1--><g class="link" data-entity-1="CTA_0180" data-entity-2="CTA_0180_proc_1" data-source-line="21" data-uid="lnk6" id="link_CTA_0180_CTA_0180_proc_1"><path codeLine="21" d="M605.39,141.5169 C651.83,170.7469 706.192,204.951 753.812,234.921" fill="none" id="CTA_0180-to-CTA_0180_proc_1" style="stroke:#181818;stroke-width:1;stroke-dasharray:7,7;"/><polygon fill="#181818" points="758.89,238.1169,753.4036,229.9377,754.6583,235.4536,749.1424,236.7084,758.89,238.1169" style="stroke:#181818;stroke-width:1;"/><text fill="#000000" font-family="sans-serif" font-size="13" lengthAdjust="spacing" textLength="91.6221" x="677.46" y="184.2538">eingebettet in</text></g><!--SRC=[TL3jJi904FpFK-m3I4E9KNCX68A6u4U3GZ3XJtEqMxZGRfkxFJ4OdyM7ySNS8XA2ycztPtPdPjbmZd2Z6KbphXqqeJ_fgLPurMeaqhkwZUiMtXi0aIvGGOzSPJ5PLjeoePNvo9ORT0wLr20t8kGDUTvuMZWzhxaaPUFZw6PSk4KSxYudIskI9IiOHkFdqGJ28DG2t9V4-2RZFGF9iVKhzblbBAzd6UQfWhjweL-cw5IjSMZib2M09uzvZh-oyUDm48Tng6FjlpxHbZP5ube3utQhVTwwR5y4LPf9blrdcitkSIG5hsZNI2ao63gENTao4LAdKnTYhzlz-S4fYmDq0ed7CTkoY6wdPxjgDXLqvfqk2gHCD8IluCKWP9vMR4eoQ1bI6Vn_73PhuoGRRV4viaKpHmkUKdWmcA7LnDU7OOEW-oU80ZIqG5ddRTvl]--></g></svg>