<svg xmlns="http://www.w3.org/2000/svg" xmlns:xlink="http://www.w3.org/1999/xlink" contentStyleType="text/css" data-diagram-type="CLASS" height="370px" preserveAspectRatio="none" style="width:1157px;height:370px;background:#FFFFFF;" version="1.1" viewBox="0 0 1157 370" width="1157px" zoomAndPan="magnify"><title>Datenatlas - CTA:0160</title><defs/><g><g class="title" data-source-line="1"><text fill="#000000" font-family="sans-serif" font-size="14" font-weight="bold" lengthAdjust="spacing" textLength="176.7227" x="483.2069" y="22.9951">Datenatlas - CTA:0160</text></g><!--class CTA_0160--><g class="entity" data-entity="CTA_0160" data-source-line="2" data-uid="ent0002" id="entity_CTA_0160"><rect fill="#F1F1F1" height="96.8906" rx="2.5" ry="2.5" style="stroke:#181818;stroke-width:0.5;" width="206.3457" x="375.64" y="44.2969"/><ellipse cx="439.2963" cy="60.2969" fill="#ADD1B2" rx="11" ry="11" style="stroke:#181818;stroke-width:1;"/><path d="M442.265,65.9375 Q441.6869,66.2344 441.0463,66.375 Q440.4056,66.5313 439.7025,66.5313 Q437.2025,66.5313 435.8744,64.8906 Q434.5619,63.2344 434.5619,60.1094 Q434.5619,56.9844 435.8744,55.3281 Q437.2025,53.6719 439.7025,53.6719 Q440.4056,53.6719 441.0463,53.8281 Q441.7025,53.9844 442.265,54.2813 L442.265,57 Q441.64,56.4219 441.0463,56.1563 Q440.4525,55.875 439.8275,55.875 Q438.4838,55.875 437.7963,56.9531 Q437.1088,58.0156 437.1088,60.1094 Q437.1088,62.2031 437.7963,63.2813 Q438.4838,64.3438 439.8275,64.3438 Q440.4525,64.3438 441.0463,64.0781 Q441.64,63.7969 442.265,63.2188 L442.265,65.9375 Z " fill="#000000"/><text fill="#000000" font-family="sans-serif" font-size="14" lengthAdjust="spacing" textLength="70.5332" x="459.7963" y="65.1436">CTA_0160</text><line style="stroke:#181818;stroke-width:0.5;" x1="376.64" x2="580.9857" y1="76.2969" y2="76.2969"/><text fill="#000000" font-family="sans-serif" font-size="14" lengthAdjust="spacing" textLength="167.9932" x="395.64" y="93.292">Name: Ansprechpartner</text><text fill="#000000" font-family="sans-serif" font-size="14" lengthAdjust="spacing" textLength="66.6436" x="395.64" y="109.5889">Prozesse:</text><rect fill="none" height="6" style="stroke:#C82930;stroke-width:1;" width="6" x="383.64" y="119.5391"/><text fill="#000000" font-family="sans-serif" font-size="14" lengthAdjust="spacing" textLength="180.3457" x="395.64" y="125.8857">Netznutzungsabrechnung</text><line style="stroke:#181818;stroke-width:0.5;" x1="376.64" x2="580.9857" y1="133.1875" y2="133.1875"/></g><!--class CTA_0160_msg_1--><g class="entity" data-entity="CTA_0160_msg_1" data-source-line="7" data-uid="ent0003" id="entity_CTA_0160_msg_1"><rect fill="#F1F1F1" height="145.7813" rx="2.5" ry="2.5" style="stroke:#181818;stroke-width:0.5;" width="355.6357" x="7" y="218.1869"/><ellipse cx="118.9385" cy="234.1869" fill="#ADD1B2" rx="11" ry="11" style="stroke:#181818;stroke-width:1;"/><path d="M121.9072,239.8275 Q121.3291,240.1244 120.6885,240.265 Q120.0479,240.4213 119.3447,240.4213 Q116.8447,240.4213 115.5166,238.7806 Q114.2041,237.1244 114.2041,233.9994 Q114.2041,230.8744 115.5166,229.2181 Q116.8447,227.5619 119.3447,227.5619 Q120.0479,227.5619 120.6885,227.7181 Q121.3447,227.8744 121.9072,228.1713 L121.9072,230.89 Q121.2822,230.3119 120.6885,230.0463 Q120.0947,229.765 119.4697,229.765 Q118.126,229.765 117.4385,230.8431 Q116.751,231.9056 116.751,233.9994 Q116.751,236.0931 117.4385,237.1713 Q118.126,238.2338 119.4697,238.2338 Q120.0947,238.2338 120.6885,237.9681 Q121.2822,237.6869 121.9072,237.1088 L121.9072,239.8275 Z " fill="#000000"/><text fill="#000000" font-family="sans-serif" font-size="14" lengthAdjust="spacing" textLength="123.2588" x="139.4385" y="239.0336">CTA_0160_msg_1</text><line style="stroke:#181818;stroke-width:0.5;" x1="8" x2="361.6357" y1="250.1869" y2="250.1869"/><text fill="#000000" font-family="sans-serif" font-size="14" lengthAdjust="spacing" textLength="162.2988" x="13" y="267.182">Nachricht: PRICAT 2.0d</text><text fill="#000000" font-family="sans-serif" font-size="14" lengthAdjust="spacing" textLength="343.6357" x="13" y="283.4789">Kontext: 0150   SG4   C   O   5   1   2   CTA - COM</text><text fill="#000000" font-family="sans-serif" font-size="14" lengthAdjust="spacing" textLength="91.4033" x="13" y="299.7757">Pflichtfeld: Ja</text><text fill="#000000" font-family="sans-serif" font-size="14" lengthAdjust="spacing" textLength="104.0156" x="13" y="316.0726">Codes: CTA, ID</text><text fill="#000000" font-family="sans-serif" font-size="14" lengthAdjust="spacing" textLength="251.4395" x="13" y="332.3695">Prozesse: Netznutzungsabrechnung</text><text fill="#000000" font-family="sans-serif" font-size="14" lengthAdjust="spacing" textLength="284.4365" x="13" y="348.6664">Quelle: PRICAT_MIG_2_0d_20240619.pdf</text><line style="stroke:#181818;stroke-width:0.5;" x1="8" x2="361.6357" y1="355.9681" y2="355.9681"/></g><!--class CTA_0160_proc_1--><g class="entity" data-entity="CTA_0160_proc_1" data-source-line="16" data-uid="ent0005" id="entity_CTA_0160_proc_1"><rect fill="#F1F1F1" height="105.1563" rx="2.5" ry="2.5" style="stroke:#181818;stroke-width:0.5;" width="752.6465" x="397.49" y="238.4969"/><ellipse cx="707.3904" cy="258.6297" fill="#ADD1B2" rx="11" ry="11" style="stroke:#181818;stroke-width:1;"/><path d="M710.3591,264.2703 Q709.781,264.5672 709.1404,264.7078 Q708.4998,264.8641 707.7966,264.8641 Q705.2966,264.8641 703.9685,263.2234 Q702.656,261.5672 702.656,258.4422 Q702.656,255.3172 703.9685,253.6609 Q705.2966,252.0047 707.7966,252.0047 Q708.4998,252.0047 709.1404,252.1609 Q709.7966,252.3172 710.3591,252.6141 L710.3591,255.3328 Q709.7341,254.7547 709.1404,254.4891 Q708.5466,254.2078 707.9216,254.2078 Q706.5779,254.2078 705.8904,255.2859 Q705.2029,256.3484 705.2029,258.4422 Q705.2029,260.5359 705.8904,261.6141 Q706.5779,262.6766 707.9216,262.6766 Q708.5466,262.6766 709.1404,262.4109 Q709.7341,262.1297 710.3591,261.5516 L710.3591,264.2703 Z " fill="#000000"/><text fill="#000000" font-family="sans-serif" font-size="12" font-style="italic" lengthAdjust="spacing" textLength="61.0605" x="759.533" y="254.6355">&#171;process&#187;</text><text fill="#000000" font-family="sans-serif" font-size="14" lengthAdjust="spacing" textLength="124.3457" x="727.8904" y="270.4607">CTA_0160_proc_1</text><line style="stroke:#181818;stroke-width:0.5;" x1="398.49" x2="1149.1365" y1="278.7625" y2="278.7625"/><text fill="#000000" font-family="sans-serif" font-size="14" lengthAdjust="spacing" textLength="180.3457" x="403.49" y="295.7576">Netznutzungsabrechnung</text><text fill="#000000" font-family="sans-serif" font-size="14" lengthAdjust="spacing" textLength="218.0938" x="403.49" y="312.0545">Gesetze: StromNEV, StromNZV</text><text fill="#000000" font-family="sans-serif" font-size="14" lengthAdjust="spacing" textLength="740.6465" x="403.49" y="328.3514">Zusammenfassung: Wie funktioniert die Netznutzungsabrechnung zwischen Netzbetreiber und Lieferant?</text><line style="stroke:#181818;stroke-width:0.5;" x1="398.49" x2="1149.1365" y1="335.6531" y2="335.6531"/></g><!--link CTA_0160 to CTA_0160_msg_1--><g class="link" data-entity-1="CTA_0160" data-entity-2="CTA_0160_msg_1" data-source-line="15" data-uid="lnk4" id="link_CTA_0160_CTA_0160_msg_1"><path codeLine="15" d="M407.27,141.5169 C372.94,164.4469 336.0597,189.0747 297.9497,214.5247" fill="none" id="CTA_0160-to-CTA_0160_msg_1" style="stroke:#181818;stroke-width:1;"/><polygon fill="#181818" points="292.96,217.8569,302.6659,216.1851,297.1181,215.0801,298.2231,209.5322,292.96,217.8569" style="stroke:#181818;stroke-width:1;"/><text fill="#000000" font-family="sans-serif" font-size="13" lengthAdjust="spacing" textLength="85.2363" x="359.82" y="184.2538">verwendet in</text></g><!--link CTA_0160 to CTA_0160_proc_1--><g class="link" data-entity-1="CTA_0160" data-entity-2="CTA_0160_proc_1" data-source-line="21" data-uid="lnk6" id="link_CTA_0160_CTA_0160_proc_1"><path codeLine="21" d="M550.61,141.5169 C594.52,170.7469 645.7251,204.8225 690.7551,234.7925" fill="none" id="CTA_0160-to-CTA_0160_proc_1" style="stroke:#181818;stroke-width:1;stroke-dasharray:7,7;"/><polygon fill="#181818" points="695.75,238.1169,690.474,229.8004,691.5876,235.3466,686.0415,236.4602,695.75,238.1169" style="stroke:#181818;stroke-width:1;"/><text fill="#000000" font-family="sans-serif" font-size="13" lengthAdjust="spacing" textLength="91.6221" x="618.82" y="184.2538">eingebettet in</text></g><!--SRC=[TL1TQy9047ptL-mFq9045Nf8IeX5REj7grZm9Pp9nXnDBk7kKajA_tlth2rYwyCUkpDxSpDdX2aGnjoWvARW6deGhKFcUaEtaz2ixHZR4Juw07DU8eDGwbfXajTS6OcAyAMgMjGQ6VL06dCqhMnCsyYzvZkxAwdjV5vengNUnzv9EScLI7B3OFayZS8r-8wR4l5GIOFl1BlUm2NnrQHFPqIre1fGULI-nTQXjR-OMKDPOSKoB586zvoGg4fHCxlKXUdutFCrjm1F3HO5_ZYAPzD9xCTk6lkkttU7terJfnc5-lsYNY-upCRW3TK1POe6XBpCNwigeQNHo3Pa9WY-F-EQeGbgeiZHogYgdDzjkgTkko5sssXUbYWpUeFs6Rm8XAoHhqPKKg0oa1BmlpYq1w6J7EMHtw5HA7Qee94fF0hCK75fRi_3Eaxm9mW357AFTDqSytu1]--></g></svg>