<svg xmlns="http://www.w3.org/2000/svg" xmlns:xlink="http://www.w3.org/1999/xlink" contentStyleType="text/css" data-diagram-type="CLASS" height="370px" preserveAspectRatio="none" style="width:1111px;height:370px;background:#FFFFFF;" version="1.1" viewBox="0 0 1111 370" width="1111px" zoomAndPan="magnify"><title>Datenatlas - CTA:0080</title><defs/><g><g class="title" data-source-line="1"><text fill="#000000" font-family="sans-serif" font-size="14" font-weight="bold" lengthAdjust="spacing" textLength="176.7227" x="460.2069" y="22.9951">Datenatlas - CTA:0080</text></g><!--class CTA_0080--><g class="entity" data-entity="CTA_0080" data-source-line="2" data-uid="ent0002" id="entity_CTA_0080"><rect fill="#F1F1F1" height="96.8906" rx="2.5" ry="2.5" style="stroke:#181818;stroke-width:0.5;" width="206.3457" x="341.64" y="44.2969"/><ellipse cx="405.2963" cy="60.2969" fill="#ADD1B2" rx="11" ry="11" style="stroke:#181818;stroke-width:1;"/><path d="M408.265,65.9375 Q407.6869,66.2344 407.0463,66.375 Q406.4056,66.5313 405.7025,66.5313 Q403.2025,66.5313 401.8744,64.8906 Q400.5619,63.2344 400.5619,60.1094 Q400.5619,56.9844 401.8744,55.3281 Q403.2025,53.6719 405.7025,53.6719 Q406.4056,53.6719 407.0463,53.8281 Q407.7025,53.9844 408.265,54.2813 L408.265,57 Q407.64,56.4219 407.0463,56.1563 Q406.4525,55.875 405.8275,55.875 Q404.4838,55.875 403.7963,56.9531 Q403.1088,58.0156 403.1088,60.1094 Q403.1088,62.2031 403.7963,63.2813 Q404.4838,64.3438 405.8275,64.3438 Q406.4525,64.3438 407.0463,64.0781 Q407.64,63.7969 408.265,63.2188 L408.265,65.9375 Z " fill="#000000"/><text fill="#000000" font-family="sans-serif" font-size="14" lengthAdjust="spacing" textLength="70.5332" x="425.7963" y="65.1436">CTA_0080</text><line style="stroke:#181818;stroke-width:0.5;" x1="342.64" x2="546.9857" y1="76.2969" y2="76.2969"/><text fill="#000000" font-family="sans-serif" font-size="14" lengthAdjust="spacing" textLength="95.0059" x="361.64" y="93.292">Name: 00007</text><text fill="#000000" font-family="sans-serif" font-size="14" lengthAdjust="spacing" textLength="66.6436" x="361.64" y="109.5889">Prozesse:</text><rect fill="none" height="6" style="stroke:#C82930;stroke-width:1;" width="6" x="349.64" y="119.5391"/><text fill="#000000" font-family="sans-serif" font-size="14" lengthAdjust="spacing" textLength="180.3457" x="361.64" y="125.8857">Netznutzungsabrechnung</text><line style="stroke:#181818;stroke-width:0.5;" x1="342.64" x2="546.9857" y1="133.1875" y2="133.1875"/></g><!--class CTA_0080_msg_1--><g class="entity" data-entity="CTA_0080_msg_1" data-source-line="7" data-uid="ent0003" id="entity_CTA_0080_msg_1"><rect fill="#F1F1F1" height="145.7813" rx="2.5" ry="2.5" style="stroke:#181818;stroke-width:0.5;" width="309.6299" x="7" y="218.1869"/><ellipse cx="95.9355" cy="234.1869" fill="#ADD1B2" rx="11" ry="11" style="stroke:#181818;stroke-width:1;"/><path d="M98.9043,239.8275 Q98.3262,240.1244 97.6855,240.265 Q97.0449,240.4213 96.3418,240.4213 Q93.8418,240.4213 92.5137,238.7806 Q91.2012,237.1244 91.2012,233.9994 Q91.2012,230.8744 92.5137,229.2181 Q93.8418,227.5619 96.3418,227.5619 Q97.0449,227.5619 97.6855,227.7181 Q98.3418,227.8744 98.9043,228.1713 L98.9043,230.89 Q98.2793,230.3119 97.6855,230.0463 Q97.0918,229.765 96.4668,229.765 Q95.123,229.765 94.4355,230.8431 Q93.748,231.9056 93.748,233.9994 Q93.748,236.0931 94.4355,237.1713 Q95.123,238.2338 96.4668,238.2338 Q97.0918,238.2338 97.6855,237.9681 Q98.2793,237.6869 98.9043,237.1088 L98.9043,239.8275 Z " fill="#000000"/><text fill="#000000" font-family="sans-serif" font-size="14" lengthAdjust="spacing" textLength="123.2588" x="116.4355" y="239.0336">CTA_0080_msg_1</text><line style="stroke:#181818;stroke-width:0.5;" x1="8" x2="315.6299" y1="250.1869" y2="250.1869"/><text fill="#000000" font-family="sans-serif" font-size="14" lengthAdjust="spacing" textLength="172.9424" x="13" y="267.182">Nachricht: COMDIS 1.0e.</text><text fill="#000000" font-family="sans-serif" font-size="14" lengthAdjust="spacing" textLength="204.1143" x="13" y="283.4789">Kontext: Nachrichtenstruktur</text><text fill="#000000" font-family="sans-serif" font-size="14" lengthAdjust="spacing" textLength="110.5439" x="13" y="299.7757">Pflichtfeld: Nein</text><text fill="#000000" font-family="sans-serif" font-size="14" lengthAdjust="spacing" textLength="80.2061" x="13" y="316.0726">Codes: CTA</text><text fill="#000000" font-family="sans-serif" font-size="14" lengthAdjust="spacing" textLength="251.4395" x="13" y="332.3695">Prozesse: Netznutzungsabrechnung</text><text fill="#000000" font-family="sans-serif" font-size="14" lengthAdjust="spacing" textLength="297.6299" x="13" y="348.6664">Quelle: COMDIS_MIG_1_0e__20240619.pdf</text><line style="stroke:#181818;stroke-width:0.5;" x1="8" x2="315.6299" y1="355.9681" y2="355.9681"/></g><!--class CTA_0080_proc_1--><g class="entity" data-entity="CTA_0080_proc_1" data-source-line="16" data-uid="ent0005" id="entity_CTA_0080_proc_1"><rect fill="#F1F1F1" height="105.1563" rx="2.5" ry="2.5" style="stroke:#181818;stroke-width:0.5;" width="752.6465" x="351.49" y="238.4969"/><ellipse cx="661.3904" cy="258.6297" fill="#ADD1B2" rx="11" ry="11" style="stroke:#181818;stroke-width:1;"/><path d="M664.3591,264.2703 Q663.781,264.5672 663.1404,264.7078 Q662.4998,264.8641 661.7966,264.8641 Q659.2966,264.8641 657.9685,263.2234 Q656.656,261.5672 656.656,258.4422 Q656.656,255.3172 657.9685,253.6609 Q659.2966,252.0047 661.7966,252.0047 Q662.4998,252.0047 663.1404,252.1609 Q663.7966,252.3172 664.3591,252.6141 L664.3591,255.3328 Q663.7341,254.7547 663.1404,254.4891 Q662.5466,254.2078 661.9216,254.2078 Q660.5779,254.2078 659.8904,255.2859 Q659.2029,256.3484 659.2029,258.4422 Q659.2029,260.5359 659.8904,261.6141 Q660.5779,262.6766 661.9216,262.6766 Q662.5466,262.6766 663.1404,262.4109 Q663.7341,262.1297 664.3591,261.5516 L664.3591,264.2703 Z " fill="#000000"/><text fill="#000000" font-family="sans-serif" font-size="12" font-style="italic" lengthAdjust="spacing" textLength="61.0605" x="713.533" y="254.6355">&#171;process&#187;</text><text fill="#000000" font-family="sans-serif" font-size="14" lengthAdjust="spacing" textLength="124.3457" x="681.8904" y="270.4607">CTA_0080_proc_1</text><line style="stroke:#181818;stroke-width:0.5;" x1="352.49" x2="1103.1365" y1="278.7625" y2="278.7625"/><text fill="#000000" font-family="sans-serif" font-size="14" lengthAdjust="spacing" textLength="180.3457" x="357.49" y="295.7576">Netznutzungsabrechnung</text><text fill="#000000" font-family="sans-serif" font-size="14" lengthAdjust="spacing" textLength="218.0938" x="357.49" y="312.0545">Gesetze: StromNEV, StromNZV</text><text fill="#000000" font-family="sans-serif" font-size="14" lengthAdjust="spacing" textLength="740.6465" x="357.49" y="328.3514">Zusammenfassung: Wie funktioniert die Netznutzungsabrechnung zwischen Netzbetreiber und Lieferant?</text><line style="stroke:#181818;stroke-width:0.5;" x1="352.49" x2="1103.1365" y1="335.6531" y2="335.6531"/></g><!--link CTA_0080 to CTA_0080_msg_1--><g class="link" data-entity-1="CTA_0080" data-entity-2="CTA_0080_msg_1" data-source-line="15" data-uid="lnk4" id="link_CTA_0080_CTA_0080_msg_1"><path codeLine="15" d="M375.95,141.5169 C342.9,164.4469 307.5301,188.9871 270.8401,214.4371" fill="none" id="CTA_0080-to-CTA_0080_msg_1" style="stroke:#181818;stroke-width:1;"/><polygon fill="#181818" points="265.91,217.8569,275.5849,216.014,270.0184,215.0071,271.0253,209.4406,265.91,217.8569" style="stroke:#181818;stroke-width:1;"/><text fill="#000000" font-family="sans-serif" font-size="13" lengthAdjust="spacing" textLength="85.2363" x="329.81" y="184.2538">verwendet in</text></g><!--link CTA_0080 to CTA_0080_proc_1--><g class="link" data-entity-1="CTA_0080" data-entity-2="CTA_0080_proc_1" data-source-line="21" data-uid="lnk6" id="link_CTA_0080_CTA_0080_proc_1"><path codeLine="21" d="M513.68,141.5169 C555.81,170.7469 604.8005,204.7263 647.9905,234.6963" fill="none" id="CTA_0080-to-CTA_0080_proc_1" style="stroke:#181818;stroke-width:1;stroke-dasharray:7,7;"/><polygon fill="#181818" points="652.92,238.1169,647.8062,229.6997,648.8121,235.2664,643.2454,236.2723,652.92,238.1169" style="stroke:#181818;stroke-width:1;"/><text fill="#000000" font-family="sans-serif" font-size="13" lengthAdjust="spacing" textLength="91.6221" x="579.81" y="184.2538">eingebettet in</text></g><!--SRC=[TL1TJy9047pdL-mFaEPAZ1yNKsF04AAW1eC9BvUZtT8BxPNSxOcfyR-xHIG4vPvsP-TsPfOCbGW3JMWrbTf35_glTrA8Az59kVTjgzeMFZi04rsX1C7lahjdLpVeFKgkWNzEa1eRg0bswVN2OLfOBZjVHvjKvPSgtkrB2sVIWYJqdyQ3qHJYI634auVQ4dumlgUWzUJ2Ye9hfVEonN8iCwQWiOprwmozR6KElPro1V0Ii2pnLrcDHqCLAu5AzKJlN5p4rz4wozdz_WBTRd8SGi8xkWtQ30dOn57GjQjJ9jtSj0MxIPAVrASS3T7pY2rDoTNLv7vsjglcCvxEWzTLXJPd3UPBU3C8UR0hChKrw0Wo1lvV3it6-BH0kvqla1oQ1Je8DeD7WpawRUdsC6mK9N-2IE1BBv6_qpRlDm00]--></g></svg>