<svg xmlns="http://www.w3.org/2000/svg" xmlns:xlink="http://www.w3.org/1999/xlink" contentStyleType="text/css" data-diagram-type="CLASS" height="387px" preserveAspectRatio="none" style="width:2998px;height:387px;background:#FFFFFF;" version="1.1" viewBox="0 0 2998 387" width="2998px" zoomAndPan="magnify"><title>Datenatlas - CUX:0210</title><defs/><g><g class="title" data-source-line="1"><text fill="#000000" font-family="sans-serif" font-size="14" font-weight="bold" lengthAdjust="spacing" textLength="178.5" x="1402.7896" y="22.9951">Datenatlas - CUX:0210</text></g><!--class CUX_0210--><g class="entity" data-entity="CUX_0210" data-source-line="2" data-uid="ent0002" id="entity_CUX_0210"><rect fill="#F1F1F1" height="113.1875" rx="2.5" ry="2.5" style="stroke:#181818;stroke-width:0.5;" width="374.2021" x="1263.98" y="44.2969"/><ellipse cx="1410.71" cy="60.2969" fill="#ADD1B2" rx="11" ry="11" style="stroke:#181818;stroke-width:1;"/><path d="M1413.6787,65.9375 Q1413.1006,66.2344 1412.46,66.375 Q1411.8194,66.5313 1411.1162,66.5313 Q1408.6162,66.5313 1407.2881,64.8906 Q1405.9756,63.2344 1405.9756,60.1094 Q1405.9756,56.9844 1407.2881,55.3281 Q1408.6162,53.6719 1411.1162,53.6719 Q1411.8194,53.6719 1412.46,53.8281 Q1413.1162,53.9844 1413.6787,54.2813 L1413.6787,57 Q1413.0537,56.4219 1412.46,56.1563 Q1411.8662,55.875 1411.2412,55.875 Q1409.8975,55.875 1409.21,56.9531 Q1408.5225,58.0156 1408.5225,60.1094 Q1408.5225,62.2031 1409.21,63.2813 Q1409.8975,64.3438 1411.2412,64.3438 Q1411.8662,64.3438 1412.46,64.0781 Q1413.0537,63.7969 1413.6787,63.2188 L1413.6787,65.9375 Z " fill="#000000"/><text fill="#000000" font-family="sans-serif" font-size="14" lengthAdjust="spacing" textLength="72.2422" x="1431.21" y="65.1436">CUX_0210</text><line style="stroke:#181818;stroke-width:0.5;" x1="1264.98" x2="1637.1821" y1="76.2969" y2="76.2969"/><text fill="#000000" font-family="sans-serif" font-size="14" lengthAdjust="spacing" textLength="182.7383" x="1283.98" y="93.292">Name: W&#228;hrungsangaben</text><text fill="#000000" font-family="sans-serif" font-size="14" lengthAdjust="spacing" textLength="66.6436" x="1283.98" y="109.5889">Prozesse:</text><rect fill="none" height="6" style="stroke:#C82930;stroke-width:1;" width="6" x="1271.98" y="119.5391"/><text fill="#000000" font-family="sans-serif" font-size="14" lengthAdjust="spacing" textLength="317.9668" x="1283.98" y="125.8857">Sperrung und Entsperrung eines Anschlusses</text><line style="stroke:#181818;stroke-width:0.5;" x1="1264.98" x2="1637.1821" y1="133.1875" y2="133.1875"/><rect fill="#F24D5C" height="6" style="stroke:#C82930;stroke-width:1;" width="6" x="1271.98" y="143.8359"/><text fill="#000000" font-family="sans-serif" font-size="14" lengthAdjust="spacing" textLength="348.2021" x="1283.98" y="150.1826">Bestellung einer technischen Konfiguration (MSB)</text></g><!--class CUX_0210_msg_1--><g class="entity" data-entity="CUX_0210_msg_1" data-source-line="8" data-uid="ent0003" id="entity_CUX_0210_msg_1"><rect fill="#F1F1F1" height="145.7813" rx="2.5" ry="2.5" style="stroke:#181818;stroke-width:0.5;" width="758.1631" x="7" y="234.4869"/><ellipse cx="319.3477" cy="250.4869" fill="#ADD1B2" rx="11" ry="11" style="stroke:#181818;stroke-width:1;"/><path d="M322.3164,256.1275 Q321.7383,256.4244 321.0977,256.565 Q320.457,256.7213 319.7539,256.7213 Q317.2539,256.7213 315.9258,255.0806 Q314.6133,253.4244 314.6133,250.2994 Q314.6133,247.1744 315.9258,245.5181 Q317.2539,243.8619 319.7539,243.8619 Q320.457,243.8619 321.0977,244.0181 Q321.7539,244.1744 322.3164,244.4713 L322.3164,247.19 Q321.6914,246.6119 321.0977,246.3463 Q320.5039,246.065 319.8789,246.065 Q318.5352,246.065 317.8477,247.1431 Q317.1602,248.2056 317.1602,250.2994 Q317.1602,252.3931 317.8477,253.4713 Q318.5352,254.5338 319.8789,254.5338 Q320.5039,254.5338 321.0977,254.2681 Q321.6914,253.9869 322.3164,253.4088 L322.3164,256.1275 Z " fill="#000000"/><text fill="#000000" font-family="sans-serif" font-size="14" lengthAdjust="spacing" textLength="124.9678" x="339.8477" y="255.3336">CUX_0210_msg_1</text><line style="stroke:#181818;stroke-width:0.5;" x1="8" x2="764.1631" y1="266.4869" y2="266.4869"/><text fill="#000000" font-family="sans-serif" font-size="14" lengthAdjust="spacing" textLength="170.3584" x="13" y="283.482">Nachricht: QUOTES 1.3a</text><text fill="#000000" font-family="sans-serif" font-size="14" lengthAdjust="spacing" textLength="204.1143" x="13" y="299.7789">Kontext: Nachrichtenstruktur</text><text fill="#000000" font-family="sans-serif" font-size="14" lengthAdjust="spacing" textLength="91.4033" x="13" y="316.0757">Pflichtfeld: Ja</text><text fill="#000000" font-family="sans-serif" font-size="14" lengthAdjust="spacing" textLength="202.0088" x="13" y="332.3726">Codes: 99, CUX, ID, MP, UNH</text><text fill="#000000" font-family="sans-serif" font-size="14" lengthAdjust="spacing" textLength="292.4961" x="13" y="348.6695">Quelle: QUOTES_MIG_1_3a_20240619.pdf</text><line style="stroke:#181818;stroke-width:0.5;" x1="8" x2="764.1631" y1="355.9713" y2="355.9713"/><text fill="#000000" font-family="sans-serif" font-size="14" lengthAdjust="spacing" textLength="746.1631" x="13" y="372.9664">Prozesse: Bestellung einer technischen Konfiguration (MSB), Sperrung und Entsperrung eines Anschlusses</text></g><!--class CUX_0210_proc_1--><g class="entity" data-entity="CUX_0210_proc_1" data-source-line="17" data-uid="ent0005" id="entity_CUX_0210_proc_1"><rect fill="#F1F1F1" height="105.1563" rx="2.5" ry="2.5" style="stroke:#181818;stroke-width:0.5;" width="1301.9961" x="800.08" y="254.7969"/><ellipse cx="1383.8007" cy="274.9297" fill="#ADD1B2" rx="11" ry="11" style="stroke:#181818;stroke-width:1;"/><path d="M1386.7695,280.5703 Q1386.1913,280.8672 1385.5507,281.0078 Q1384.9101,281.1641 1384.207,281.1641 Q1381.707,281.1641 1380.3788,279.5234 Q1379.0663,277.8672 1379.0663,274.7422 Q1379.0663,271.6172 1380.3788,269.9609 Q1381.707,268.3047 1384.207,268.3047 Q1384.9101,268.3047 1385.5507,268.4609 Q1386.207,268.6172 1386.7695,268.9141 L1386.7695,271.6328 Q1386.1445,271.0547 1385.5507,270.7891 Q1384.957,270.5078 1384.332,270.5078 Q1382.9882,270.5078 1382.3007,271.5859 Q1381.6132,272.6484 1381.6132,274.7422 Q1381.6132,276.8359 1382.3007,277.9141 Q1382.9882,278.9766 1384.332,278.9766 Q1384.957,278.9766 1385.5507,278.7109 Q1386.1445,278.4297 1386.7695,277.8516 L1386.7695,280.5703 Z " fill="#000000"/><text fill="#000000" font-family="sans-serif" font-size="12" font-style="italic" lengthAdjust="spacing" textLength="61.0605" x="1436.7978" y="270.9355">&#171;process&#187;</text><text fill="#000000" font-family="sans-serif" font-size="14" lengthAdjust="spacing" textLength="126.0547" x="1404.3007" y="286.7607">CUX_0210_proc_1</text><line style="stroke:#181818;stroke-width:0.5;" x1="801.08" x2="2101.0761" y1="295.0625" y2="295.0625"/><text fill="#000000" font-family="sans-serif" font-size="14" lengthAdjust="spacing" textLength="156.4063" x="806.08" y="312.0576">Gesetze: MsbG, EnWG</text><text fill="#000000" font-family="sans-serif" font-size="14" lengthAdjust="spacing" textLength="1289.9961" x="806.08" y="328.3545">Zusammenfassung: Erl&#228;utere den Prozess zur Bestellung einer spezifischen technischen Konfiguration bei einem Messstellenbetreiber, beispielsweise f&#252;r ein intelligentes Messsystem.</text><line style="stroke:#181818;stroke-width:0.5;" x1="801.08" x2="2101.0761" y1="335.6563" y2="335.6563"/><text fill="#000000" font-family="sans-serif" font-size="14" lengthAdjust="spacing" textLength="348.2021" x="806.08" y="352.6514">Bestellung einer technischen Konfiguration (MSB)</text></g><!--class CUX_0210_proc_2--><g class="entity" data-entity="CUX_0210_proc_2" data-source-line="23" data-uid="ent0007" id="entity_CUX_0210_proc_2"><rect fill="#F1F1F1" height="105.1563" rx="2.5" ry="2.5" style="stroke:#181818;stroke-width:0.5;" width="853.9893" x="2137.09" y="254.7969"/><ellipse cx="2496.8073" cy="274.9297" fill="#ADD1B2" rx="11" ry="11" style="stroke:#181818;stroke-width:1;"/><path d="M2499.776,280.5703 Q2499.1979,280.8672 2498.5573,281.0078 Q2497.9167,281.1641 2497.2135,281.1641 Q2494.7135,281.1641 2493.3854,279.5234 Q2492.0729,277.8672 2492.0729,274.7422 Q2492.0729,271.6172 2493.3854,269.9609 Q2494.7135,268.3047 2497.2135,268.3047 Q2497.9167,268.3047 2498.5573,268.4609 Q2499.2135,268.6172 2499.776,268.9141 L2499.776,271.6328 Q2499.151,271.0547 2498.5573,270.7891 Q2497.9635,270.5078 2497.3385,270.5078 Q2495.9948,270.5078 2495.3073,271.5859 Q2494.6198,272.6484 2494.6198,274.7422 Q2494.6198,276.8359 2495.3073,277.9141 Q2495.9948,278.9766 2497.3385,278.9766 Q2497.9635,278.9766 2498.5573,278.7109 Q2499.151,278.4297 2499.776,277.8516 L2499.776,280.5703 Z " fill="#000000"/><text fill="#000000" font-family="sans-serif" font-size="12" font-style="italic" lengthAdjust="spacing" textLength="61.0605" x="2549.8044" y="270.9355">&#171;process&#187;</text><text fill="#000000" font-family="sans-serif" font-size="14" lengthAdjust="spacing" textLength="126.0547" x="2517.3073" y="286.7607">CUX_0210_proc_2</text><line style="stroke:#181818;stroke-width:0.5;" x1="2138.09" x2="2990.0793" y1="295.0625" y2="295.0625"/><text fill="#000000" font-family="sans-serif" font-size="14" lengthAdjust="spacing" textLength="317.9668" x="2143.09" y="312.0576">Sperrung und Entsperrung eines Anschlusses</text><text fill="#000000" font-family="sans-serif" font-size="14" lengthAdjust="spacing" textLength="138.3252" x="2143.09" y="328.3545">Gesetze: StromGVV</text><text fill="#000000" font-family="sans-serif" font-size="14" lengthAdjust="spacing" textLength="841.9893" x="2143.09" y="344.6514">Zusammenfassung: Beschreibe den End-to-End-Prozess f&#252;r die Sperrung und Wiederherstellung eines Netzanschlusses.</text><line style="stroke:#181818;stroke-width:0.5;" x1="2138.09" x2="2990.0793" y1="351.9531" y2="351.9531"/></g><!--link CUX_0210 to CUX_0210_msg_1--><g class="link" data-entity-1="CUX_0210" data-entity-2="CUX_0210_msg_1" data-source-line="16" data-uid="lnk4" id="link_CUX_0210_CUX_0210_msg_1"><path codeLine="16" d="M1263.74,137.8569 C1125.5,164.4069 938.6024,200.2855 768.9224,232.8655" fill="none" id="CUX_0210-to-CUX_0210_msg_1" style="stroke:#181818;stroke-width:1;"/><polygon fill="#181818" points="763.03,233.9969,772.6228,236.228,767.9403,233.0541,771.1143,228.3716,763.03,233.9969" style="stroke:#181818;stroke-width:1;"/><text fill="#000000" font-family="sans-serif" font-size="13" lengthAdjust="spacing" textLength="85.2363" x="984.08" y="200.5538">verwendet in</text></g><!--link CUX_0210 to CUX_0210_proc_1--><g class="link" data-entity-1="CUX_0210" data-entity-2="CUX_0210_proc_1" data-source-line="22" data-uid="lnk6" id="link_CUX_0210_CUX_0210_proc_1"><path codeLine="22" d="M1451.08,157.7669 C1451.08,187.9169 1451.08,218.9069 1451.08,248.4269" fill="none" id="CUX_0210-to-CUX_0210_proc_1" style="stroke:#181818;stroke-width:1;stroke-dasharray:7,7;"/><polygon fill="#181818" points="1451.08,254.4269,1455.08,245.4269,1451.08,249.4269,1447.08,245.4269,1451.08,254.4269" style="stroke:#181818;stroke-width:1;"/><text fill="#000000" font-family="sans-serif" font-size="13" lengthAdjust="spacing" textLength="91.6221" x="1452.08" y="200.5538">eingebettet in</text></g><!--link CUX_0210 to CUX_0210_proc_2--><g class="link" data-entity-1="CUX_0210" data-entity-2="CUX_0210_proc_2" data-source-line="28" data-uid="lnk8" id="link_CUX_0210_CUX_0210_proc_2"><path codeLine="28" d="M1638.63,136.3469 C1814.34,168.6269 2073.4687,216.2428 2274.9387,253.2528" fill="none" id="CUX_0210-to-CUX_0210_proc_2" style="stroke:#181818;stroke-width:1;stroke-dasharray:7,7;"/><polygon fill="#181818" points="2280.84,254.3369,2272.7108,248.7766,2275.9223,253.4335,2271.2654,256.645,2280.84,254.3369" style="stroke:#181818;stroke-width:1;"/><text fill="#000000" font-family="sans-serif" font-size="13" lengthAdjust="spacing" textLength="91.6221" x="2009.08" y="200.5538">eingebettet in</text></g><!--SRC=[dPBTRfj048Nl_HHpsKg03Aag6KMMycFHjC9Dv3gkUeCM661LMAoTfMaTzMto6BtpYtMMs6vYDwhSA_PdvfmvtsAagH4kXK4bJ2q8NBYOVmw7WJySPBmdkqti5ku705FHO0YBzKEbErMIKAL8KV75jMvNI8GXhu55pf4CrZKN0Kg56WncbPAKLQZWGwiAMNPQ6DagU1NFpbzlscPBr5OPEfN3H1dQxgq8mPbYWRfZ7nhyt9ilQQXC_CsKMQLbLfaGRkOVFqrcu7idWY_OsE1tFjvLe2AZkw-cqpP4KTkp0kiyXFUsuQBDaK8OZHphuy3LfGFnjGFpwRkdeO-EwnoJ5E2cOt7SfadYgoZnanEH1CFWpV2jF_AMUS50Ta_bkkDzBY5yGts7AaS3KkspM-esuwBJKxlWIEDn3_8_NZ52GhFYMMDA8uUJBI8-_TAHQ1fK1RkoMWWJNQyVEeCQ8MUj3KbOTVhGbD6iPB5nVNc256NVq43CKhq6gXIDHfcYTkmzBINMTCSBX6BzIzjwfc5BPOdyfSVU7zpTU4-9UjxuW5Pesqja2_CorE00wb4llyCvCxfjejlRly5aOlmxsvWzp8dANTEwzhFbseVD9JutNqZCKLUedm4dcBAb-3F6Fq041o1-0m00]--></g></svg>