<svg xmlns="http://www.w3.org/2000/svg" xmlns:xlink="http://www.w3.org/1999/xlink" contentStyleType="text/css" data-diagram-type="CLASS" height="370px" preserveAspectRatio="none" style="width:1192px;height:370px;background:#FFFFFF;" version="1.1" viewBox="0 0 1192 370" width="1192px" zoomAndPan="magnify"><title>Datenatlas - CUX:0230</title><defs/><g><g class="title" data-source-line="1"><text fill="#000000" font-family="sans-serif" font-size="14" font-weight="bold" lengthAdjust="spacing" textLength="178.5" x="500.2182" y="22.9951">Datenatlas - CUX:0230</text></g><!--class CUX_0230--><g class="entity" data-entity="CUX_0230" data-source-line="2" data-uid="ent0002" id="entity_CUX_0230"><rect fill="#F1F1F1" height="96.8906" rx="2.5" ry="2.5" style="stroke:#181818;stroke-width:0.5;" width="208.7383" x="401.24" y="44.2969"/><ellipse cx="465.238" cy="60.2969" fill="#ADD1B2" rx="11" ry="11" style="stroke:#181818;stroke-width:1;"/><path d="M468.2068,65.9375 Q467.6287,66.2344 466.988,66.375 Q466.3474,66.5313 465.6443,66.5313 Q463.1443,66.5313 461.8162,64.8906 Q460.5037,63.2344 460.5037,60.1094 Q460.5037,56.9844 461.8162,55.3281 Q463.1443,53.6719 465.6443,53.6719 Q466.3474,53.6719 466.988,53.8281 Q467.6443,53.9844 468.2068,54.2813 L468.2068,57 Q467.5818,56.4219 466.988,56.1563 Q466.3943,55.875 465.7693,55.875 Q464.4255,55.875 463.738,56.9531 Q463.0505,58.0156 463.0505,60.1094 Q463.0505,62.2031 463.738,63.2813 Q464.4255,64.3438 465.7693,64.3438 Q466.3943,64.3438 466.988,64.0781 Q467.5818,63.7969 468.2068,63.2188 L468.2068,65.9375 Z " fill="#000000"/><text fill="#000000" font-family="sans-serif" font-size="14" lengthAdjust="spacing" textLength="72.2422" x="485.738" y="65.1436">CUX_0230</text><line style="stroke:#181818;stroke-width:0.5;" x1="402.24" x2="608.9783" y1="76.2969" y2="76.2969"/><text fill="#000000" font-family="sans-serif" font-size="14" lengthAdjust="spacing" textLength="182.7383" x="421.24" y="93.292">Name: W&#228;hrungsangaben</text><text fill="#000000" font-family="sans-serif" font-size="14" lengthAdjust="spacing" textLength="66.6436" x="421.24" y="109.5889">Prozesse:</text><rect fill="none" height="6" style="stroke:#C82930;stroke-width:1;" width="6" x="409.24" y="119.5391"/><text fill="#000000" font-family="sans-serif" font-size="14" lengthAdjust="spacing" textLength="180.3457" x="421.24" y="125.8857">Netznutzungsabrechnung</text><line style="stroke:#181818;stroke-width:0.5;" x1="402.24" x2="608.9783" y1="133.1875" y2="133.1875"/></g><!--class CUX_0230_msg_1--><g class="entity" data-entity="CUX_0230_msg_1" data-source-line="7" data-uid="ent0003" id="entity_CUX_0230_msg_1"><rect fill="#F1F1F1" height="145.7813" rx="2.5" ry="2.5" style="stroke:#181818;stroke-width:0.5;" width="391.2168" x="7" y="218.1869"/><ellipse cx="135.8745" cy="234.1869" fill="#ADD1B2" rx="11" ry="11" style="stroke:#181818;stroke-width:1;"/><path d="M138.8433,239.8275 Q138.2651,240.1244 137.6245,240.265 Q136.9839,240.4213 136.2808,240.4213 Q133.7808,240.4213 132.4526,238.7806 Q131.1401,237.1244 131.1401,233.9994 Q131.1401,230.8744 132.4526,229.2181 Q133.7808,227.5619 136.2808,227.5619 Q136.9839,227.5619 137.6245,227.7181 Q138.2808,227.8744 138.8433,228.1713 L138.8433,230.89 Q138.2183,230.3119 137.6245,230.0463 Q137.0308,229.765 136.4058,229.765 Q135.062,229.765 134.3745,230.8431 Q133.687,231.9056 133.687,233.9994 Q133.687,236.0931 134.3745,237.1713 Q135.062,238.2338 136.4058,238.2338 Q137.0308,238.2338 137.6245,237.9681 Q138.2183,237.6869 138.8433,237.1088 L138.8433,239.8275 Z " fill="#000000"/><text fill="#000000" font-family="sans-serif" font-size="14" lengthAdjust="spacing" textLength="124.9678" x="156.3745" y="239.0336">CUX_0230_msg_1</text><line style="stroke:#181818;stroke-width:0.5;" x1="8" x2="397.2168" y1="250.1869" y2="250.1869"/><text fill="#000000" font-family="sans-serif" font-size="14" lengthAdjust="spacing" textLength="162.2988" x="13" y="267.182">Nachricht: PRICAT 2.0d</text><text fill="#000000" font-family="sans-serif" font-size="14" lengthAdjust="spacing" textLength="379.2168" x="13" y="283.4789">Kontext: 0590   SG17   C   D   1000   1   1   PGI - SG36</text><text fill="#000000" font-family="sans-serif" font-size="14" lengthAdjust="spacing" textLength="91.4033" x="13" y="299.7757">Pflichtfeld: Ja</text><text fill="#000000" font-family="sans-serif" font-size="14" lengthAdjust="spacing" textLength="114.2354" x="13" y="316.0726">Codes: CUX, PGI</text><text fill="#000000" font-family="sans-serif" font-size="14" lengthAdjust="spacing" textLength="251.4395" x="13" y="332.3695">Prozesse: Netznutzungsabrechnung</text><text fill="#000000" font-family="sans-serif" font-size="14" lengthAdjust="spacing" textLength="284.4365" x="13" y="348.6664">Quelle: PRICAT_MIG_2_0d_20240619.pdf</text><line style="stroke:#181818;stroke-width:0.5;" x1="8" x2="397.2168" y1="355.9681" y2="355.9681"/></g><!--class CUX_0230_proc_1--><g class="entity" data-entity="CUX_0230_proc_1" data-source-line="16" data-uid="ent0005" id="entity_CUX_0230_proc_1"><rect fill="#F1F1F1" height="105.1563" rx="2.5" ry="2.5" style="stroke:#181818;stroke-width:0.5;" width="752.6465" x="433.29" y="238.4969"/><ellipse cx="742.3359" cy="258.6297" fill="#ADD1B2" rx="11" ry="11" style="stroke:#181818;stroke-width:1;"/><path d="M745.3046,264.2703 Q744.7265,264.5672 744.0859,264.7078 Q743.4453,264.8641 742.7421,264.8641 Q740.2421,264.8641 738.914,263.2234 Q737.6015,261.5672 737.6015,258.4422 Q737.6015,255.3172 738.914,253.6609 Q740.2421,252.0047 742.7421,252.0047 Q743.4453,252.0047 744.0859,252.1609 Q744.7421,252.3172 745.3046,252.6141 L745.3046,255.3328 Q744.6796,254.7547 744.0859,254.4891 Q743.4921,254.2078 742.8671,254.2078 Q741.5234,254.2078 740.8359,255.2859 Q740.1484,256.3484 740.1484,258.4422 Q740.1484,260.5359 740.8359,261.6141 Q741.5234,262.6766 742.8671,262.6766 Q743.4921,262.6766 744.0859,262.4109 Q744.6796,262.1297 745.3046,261.5516 L745.3046,264.2703 Z " fill="#000000"/><text fill="#000000" font-family="sans-serif" font-size="12" font-style="italic" lengthAdjust="spacing" textLength="61.0605" x="795.333" y="254.6355">&#171;process&#187;</text><text fill="#000000" font-family="sans-serif" font-size="14" lengthAdjust="spacing" textLength="126.0547" x="762.8359" y="270.4607">CUX_0230_proc_1</text><line style="stroke:#181818;stroke-width:0.5;" x1="434.29" x2="1184.9365" y1="278.7625" y2="278.7625"/><text fill="#000000" font-family="sans-serif" font-size="14" lengthAdjust="spacing" textLength="180.3457" x="439.29" y="295.7576">Netznutzungsabrechnung</text><text fill="#000000" font-family="sans-serif" font-size="14" lengthAdjust="spacing" textLength="218.0938" x="439.29" y="312.0545">Gesetze: StromNEV, StromNZV</text><text fill="#000000" font-family="sans-serif" font-size="14" lengthAdjust="spacing" textLength="740.6465" x="439.29" y="328.3514">Zusammenfassung: Wie funktioniert die Netznutzungsabrechnung zwischen Netzbetreiber und Lieferant?</text><line style="stroke:#181818;stroke-width:0.5;" x1="434.29" x2="1184.9365" y1="335.6531" y2="335.6531"/></g><!--link CUX_0230 to CUX_0230_msg_1--><g class="link" data-entity-1="CUX_0230" data-entity-2="CUX_0230_msg_1" data-source-line="15" data-uid="lnk4" id="link_CUX_0230_CUX_0230_msg_1"><path codeLine="15" d="M431.87,141.5169 C396.49,164.4469 358.3755,189.1443 319.0955,214.5943" fill="none" id="CUX_0230-to-CUX_0230_msg_1" style="stroke:#181818;stroke-width:1;"/><polygon fill="#181818" points="314.06,217.8569,323.7882,216.32,318.2562,215.1381,319.4382,209.6061,314.06,217.8569" style="stroke:#181818;stroke-width:1;"/><text fill="#000000" font-family="sans-serif" font-size="13" lengthAdjust="spacing" textLength="85.2363" x="382.61" y="184.2538">verwendet in</text></g><!--link CUX_0230 to CUX_0230_proc_1--><g class="link" data-entity-1="CUX_0230" data-entity-2="CUX_0230_proc_1" data-source-line="21" data-uid="lnk6" id="link_CUX_0230_CUX_0230_proc_1"><path codeLine="21" d="M579.59,141.5169 C624.84,170.7469 677.7202,204.891 724.1102,234.861" fill="none" id="CUX_0230-to-CUX_0230_proc_1" style="stroke:#181818;stroke-width:1;stroke-dasharray:7,7;"/><polygon fill="#181818" points="729.15,238.1169,723.761,229.8732,724.9502,235.4036,719.4198,236.5929,729.15,238.1169" style="stroke:#181818;stroke-width:1;"/><text fill="#000000" font-family="sans-serif" font-size="13" lengthAdjust="spacing" textLength="91.6221" x="649.61" y="184.2538">eingebettet in</text></g><!--SRC=[TL5jJi904FtFAUO0qcoBOjYG6bDCWny4HT7mfzcsqtPZkoMxMp4OR-DDl9XJH4DGVamwCs_spNjJAss9C18MbR2bCD25uE69Cw_7EWdLfYsZjeIt3i14LCZXyVEZq8tAZL2vY54HCDNr6er1JZaGoGJjMZLslPcADIQ5ehJplaSQLIQFt2rrKcYP59R3z6uSdD-3vx2KWAjQMNobDZiPC2AVXUufVGAA4ONBMDjrjp4DnxH-5lRwhQgiR1apB5CEbu8wGPsYuUt-etPqL_aXpG2t3POb_kYARiPXv4KiZJpc7RE-Et2MQKRMVY_LxVhx3Zcye5wXIj62LFjNMEeweQ7Xi4r8ZEz_d-IGe10DGQHePdLTJIxcHzjiCITqqHXHLQWosa7pzByaGjQePojh9L5RIAdnFpciLz8a1QeD7gFLA6FKqAWKhYLcg8MoPxjc7SV_OuG3IfKZFRSRlry0]--></g></svg>