<svg xmlns="http://www.w3.org/2000/svg" xmlns:xlink="http://www.w3.org/1999/xlink" contentStyleType="text/css" data-diagram-type="CLASS" height="387px" preserveAspectRatio="none" style="width:2552px;height:387px;background:#FFFFFF;" version="1.1" viewBox="0 0 2552 387" width="2552px" zoomAndPan="magnify"><title>Datenatlas - CUX:0410</title><defs/><g><g class="title" data-source-line="1"><text fill="#000000" font-family="sans-serif" font-size="14" font-weight="bold" lengthAdjust="spacing" textLength="178.5" x="1180.2138" y="22.9951">Datenatlas - CUX:0410</text></g><!--class CUX_0410--><g class="entity" data-entity="CUX_0410" data-source-line="2" data-uid="ent0002" id="entity_CUX_0410"><rect fill="#F1F1F1" height="113.1875" rx="2.5" ry="2.5" style="stroke:#181818;stroke-width:0.5;" width="249.2822" x="990.17" y="44.2969"/><ellipse cx="1074.44" cy="60.2969" fill="#ADD1B2" rx="11" ry="11" style="stroke:#181818;stroke-width:1;"/><path d="M1077.4088,65.9375 Q1076.8306,66.2344 1076.19,66.375 Q1075.5494,66.5313 1074.8463,66.5313 Q1072.3463,66.5313 1071.0181,64.8906 Q1069.7056,63.2344 1069.7056,60.1094 Q1069.7056,56.9844 1071.0181,55.3281 Q1072.3463,53.6719 1074.8463,53.6719 Q1075.5494,53.6719 1076.19,53.8281 Q1076.8463,53.9844 1077.4088,54.2813 L1077.4088,57 Q1076.7838,56.4219 1076.19,56.1563 Q1075.5963,55.875 1074.9713,55.875 Q1073.6275,55.875 1072.94,56.9531 Q1072.2525,58.0156 1072.2525,60.1094 Q1072.2525,62.2031 1072.94,63.2813 Q1073.6275,64.3438 1074.9713,64.3438 Q1075.5963,64.3438 1076.19,64.0781 Q1076.7838,63.7969 1077.4088,63.2188 L1077.4088,65.9375 Z " fill="#000000"/><text fill="#000000" font-family="sans-serif" font-size="14" lengthAdjust="spacing" textLength="72.2422" x="1094.94" y="65.1436">CUX_0410</text><line style="stroke:#181818;stroke-width:0.5;" x1="991.17" x2="1238.4522" y1="76.2969" y2="76.2969"/><text fill="#000000" font-family="sans-serif" font-size="14" lengthAdjust="spacing" textLength="182.7383" x="1010.17" y="93.292">Name: W&#228;hrungsangaben</text><text fill="#000000" font-family="sans-serif" font-size="14" lengthAdjust="spacing" textLength="66.6436" x="1010.17" y="109.5889">Prozesse:</text><rect fill="none" height="6" style="stroke:#C82930;stroke-width:1;" width="6" x="998.17" y="119.5391"/><text fill="#000000" font-family="sans-serif" font-size="14" lengthAdjust="spacing" textLength="180.3457" x="1010.17" y="125.8857">Netznutzungsabrechnung</text><rect fill="none" height="6" style="stroke:#C82930;stroke-width:1;" width="6" x="998.17" y="135.8359"/><text fill="#000000" font-family="sans-serif" font-size="14" lengthAdjust="spacing" textLength="223.2822" x="1010.17" y="142.1826">Messstellenbetriebsabrechnung</text><line style="stroke:#181818;stroke-width:0.5;" x1="991.17" x2="1238.4522" y1="149.4844" y2="149.4844"/></g><!--class CUX_0410_msg_1--><g class="entity" data-entity="CUX_0410_msg_1" data-source-line="8" data-uid="ent0003" id="entity_CUX_0410_msg_1"><rect fill="#F1F1F1" height="145.7813" rx="2.5" ry="2.5" style="stroke:#181818;stroke-width:0.5;" width="495.6221" x="7" y="234.4869"/><ellipse cx="188.0771" cy="250.4869" fill="#ADD1B2" rx="11" ry="11" style="stroke:#181818;stroke-width:1;"/><path d="M191.0459,256.1275 Q190.4678,256.4244 189.8271,256.565 Q189.1865,256.7213 188.4834,256.7213 Q185.9834,256.7213 184.6553,255.0806 Q183.3428,253.4244 183.3428,250.2994 Q183.3428,247.1744 184.6553,245.5181 Q185.9834,243.8619 188.4834,243.8619 Q189.1865,243.8619 189.8271,244.0181 Q190.4834,244.1744 191.0459,244.4713 L191.0459,247.19 Q190.4209,246.6119 189.8271,246.3463 Q189.2334,246.065 188.6084,246.065 Q187.2646,246.065 186.5771,247.1431 Q185.8896,248.2056 185.8896,250.2994 Q185.8896,252.3931 186.5771,253.4713 Q187.2646,254.5338 188.6084,254.5338 Q189.2334,254.5338 189.8271,254.2681 Q190.4209,253.9869 191.0459,253.4088 L191.0459,256.1275 Z " fill="#000000"/><text fill="#000000" font-family="sans-serif" font-size="14" lengthAdjust="spacing" textLength="124.9678" x="208.5771" y="255.3336">CUX_0410_msg_1</text><line style="stroke:#181818;stroke-width:0.5;" x1="8" x2="501.6221" y1="266.4869" y2="266.4869"/><text fill="#000000" font-family="sans-serif" font-size="14" lengthAdjust="spacing" textLength="161.1982" x="13" y="283.482">Nachricht: INVOIC 2.8d</text><text fill="#000000" font-family="sans-serif" font-size="14" lengthAdjust="spacing" textLength="204.1143" x="13" y="299.7789">Kontext: Nachrichtenstruktur</text><text fill="#000000" font-family="sans-serif" font-size="14" lengthAdjust="spacing" textLength="91.4033" x="13" y="316.0757">Pflichtfeld: Ja</text><text fill="#000000" font-family="sans-serif" font-size="14" lengthAdjust="spacing" textLength="146.1729" x="13" y="332.3726">Codes: 10, CUX, SG8</text><text fill="#000000" font-family="sans-serif" font-size="14" lengthAdjust="spacing" textLength="483.6221" x="13" y="348.6695">Prozesse: Netznutzungsabrechnung, Messstellenbetriebsabrechnung</text><text fill="#000000" font-family="sans-serif" font-size="14" lengthAdjust="spacing" textLength="396.6074" x="13" y="364.9664">Quelle: INVOIC_MIG_2.8d_Fehlerkorrektur_20250131.pdf</text><line style="stroke:#181818;stroke-width:0.5;" x1="8" x2="501.6221" y1="372.2681" y2="372.2681"/></g><!--class CUX_0410_msg_2--><g class="entity" data-entity="CUX_0410_msg_2" data-source-line="17" data-uid="ent0005" id="entity_CUX_0410_msg_2"><rect fill="#F1F1F1" height="145.7813" rx="2.5" ry="2.5" style="stroke:#181818;stroke-width:0.5;" width="495.6221" x="538" y="234.4869"/><ellipse cx="719.0771" cy="250.4869" fill="#ADD1B2" rx="11" ry="11" style="stroke:#181818;stroke-width:1;"/><path d="M722.0459,256.1275 Q721.4678,256.4244 720.8271,256.565 Q720.1865,256.7213 719.4834,256.7213 Q716.9834,256.7213 715.6553,255.0806 Q714.3428,253.4244 714.3428,250.2994 Q714.3428,247.1744 715.6553,245.5181 Q716.9834,243.8619 719.4834,243.8619 Q720.1865,243.8619 720.8271,244.0181 Q721.4834,244.1744 722.0459,244.4713 L722.0459,247.19 Q721.4209,246.6119 720.8271,246.3463 Q720.2334,246.065 719.6084,246.065 Q718.2646,246.065 717.5771,247.1431 Q716.8896,248.2056 716.8896,250.2994 Q716.8896,252.3931 717.5771,253.4713 Q718.2646,254.5338 719.6084,254.5338 Q720.2334,254.5338 720.8271,254.2681 Q721.4209,253.9869 722.0459,253.4088 L722.0459,256.1275 Z " fill="#000000"/><text fill="#000000" font-family="sans-serif" font-size="14" lengthAdjust="spacing" textLength="124.9678" x="739.5771" y="255.3336">CUX_0410_msg_2</text><line style="stroke:#181818;stroke-width:0.5;" x1="539" x2="1032.6221" y1="266.4869" y2="266.4869"/><text fill="#000000" font-family="sans-serif" font-size="14" lengthAdjust="spacing" textLength="165.6484" x="544" y="283.482">Nachricht: INVOIC 2.8d.</text><text fill="#000000" font-family="sans-serif" font-size="14" lengthAdjust="spacing" textLength="204.1143" x="544" y="299.7789">Kontext: Nachrichtenstruktur</text><text fill="#000000" font-family="sans-serif" font-size="14" lengthAdjust="spacing" textLength="91.4033" x="544" y="316.0757">Pflichtfeld: Ja</text><text fill="#000000" font-family="sans-serif" font-size="14" lengthAdjust="spacing" textLength="146.1729" x="544" y="332.3726">Codes: 10, CUX, SG8</text><text fill="#000000" font-family="sans-serif" font-size="14" lengthAdjust="spacing" textLength="483.6221" x="544" y="348.6695">Prozesse: Netznutzungsabrechnung, Messstellenbetriebsabrechnung</text><text fill="#000000" font-family="sans-serif" font-size="14" lengthAdjust="spacing" textLength="290.3359" x="544" y="364.9664">Quelle: INVOIC_MIG_2_8d__20240619.pdf</text><line style="stroke:#181818;stroke-width:0.5;" x1="539" x2="1032.6221" y1="372.2681" y2="372.2681"/></g><!--class CUX_0410_proc_1--><g class="entity" data-entity="CUX_0410_proc_1" data-source-line="26" data-uid="ent0007" id="entity_CUX_0410_proc_1"><rect fill="#F1F1F1" height="105.1563" rx="2.5" ry="2.5" style="stroke:#181818;stroke-width:0.5;" width="752.6465" x="1068.49" y="254.7969"/><ellipse cx="1377.5359" cy="274.9297" fill="#ADD1B2" rx="11" ry="11" style="stroke:#181818;stroke-width:1;"/><path d="M1380.5046,280.5703 Q1379.9265,280.8672 1379.2859,281.0078 Q1378.6453,281.1641 1377.9421,281.1641 Q1375.4421,281.1641 1374.114,279.5234 Q1372.8015,277.8672 1372.8015,274.7422 Q1372.8015,271.6172 1374.114,269.9609 Q1375.4421,268.3047 1377.9421,268.3047 Q1378.6453,268.3047 1379.2859,268.4609 Q1379.9421,268.6172 1380.5046,268.9141 L1380.5046,271.6328 Q1379.8796,271.0547 1379.2859,270.7891 Q1378.6921,270.5078 1378.0671,270.5078 Q1376.7234,270.5078 1376.0359,271.5859 Q1375.3484,272.6484 1375.3484,274.7422 Q1375.3484,276.8359 1376.0359,277.9141 Q1376.7234,278.9766 1378.0671,278.9766 Q1378.6921,278.9766 1379.2859,278.7109 Q1379.8796,278.4297 1380.5046,277.8516 L1380.5046,280.5703 Z " fill="#000000"/><text fill="#000000" font-family="sans-serif" font-size="12" font-style="italic" lengthAdjust="spacing" textLength="61.0605" x="1430.533" y="270.9355">&#171;process&#187;</text><text fill="#000000" font-family="sans-serif" font-size="14" lengthAdjust="spacing" textLength="126.0547" x="1398.0359" y="286.7607">CUX_0410_proc_1</text><line style="stroke:#181818;stroke-width:0.5;" x1="1069.49" x2="1820.1365" y1="295.0625" y2="295.0625"/><text fill="#000000" font-family="sans-serif" font-size="14" lengthAdjust="spacing" textLength="180.3457" x="1074.49" y="312.0576">Netznutzungsabrechnung</text><text fill="#000000" font-family="sans-serif" font-size="14" lengthAdjust="spacing" textLength="218.0938" x="1074.49" y="328.3545">Gesetze: StromNEV, StromNZV</text><text fill="#000000" font-family="sans-serif" font-size="14" lengthAdjust="spacing" textLength="740.6465" x="1074.49" y="344.6514">Zusammenfassung: Wie funktioniert die Netznutzungsabrechnung zwischen Netzbetreiber und Lieferant?</text><line style="stroke:#181818;stroke-width:0.5;" x1="1069.49" x2="1820.1365" y1="351.9531" y2="351.9531"/></g><!--class CUX_0410_proc_2--><g class="entity" data-entity="CUX_0410_proc_2" data-source-line="32" data-uid="ent0009" id="entity_CUX_0410_proc_2"><rect fill="#F1F1F1" height="105.1563" rx="2.5" ry="2.5" style="stroke:#181818;stroke-width:0.5;" width="690.2275" x="1855.7" y="254.7969"/><ellipse cx="2133.5364" cy="274.9297" fill="#ADD1B2" rx="11" ry="11" style="stroke:#181818;stroke-width:1;"/><path d="M2136.5052,280.5703 Q2135.9271,280.8672 2135.2864,281.0078 Q2134.6458,281.1641 2133.9427,281.1641 Q2131.4427,281.1641 2130.1146,279.5234 Q2128.8021,277.8672 2128.8021,274.7422 Q2128.8021,271.6172 2130.1146,269.9609 Q2131.4427,268.3047 2133.9427,268.3047 Q2134.6458,268.3047 2135.2864,268.4609 Q2135.9427,268.6172 2136.5052,268.9141 L2136.5052,271.6328 Q2135.8802,271.0547 2135.2864,270.7891 Q2134.6927,270.5078 2134.0677,270.5078 Q2132.7239,270.5078 2132.0364,271.5859 Q2131.3489,272.6484 2131.3489,274.7422 Q2131.3489,276.8359 2132.0364,277.9141 Q2132.7239,278.9766 2134.0677,278.9766 Q2134.6927,278.9766 2135.2864,278.7109 Q2135.8802,278.4297 2136.5052,277.8516 L2136.5052,280.5703 Z " fill="#000000"/><text fill="#000000" font-family="sans-serif" font-size="12" font-style="italic" lengthAdjust="spacing" textLength="61.0605" x="2186.5335" y="270.9355">&#171;process&#187;</text><text fill="#000000" font-family="sans-serif" font-size="14" lengthAdjust="spacing" textLength="126.0547" x="2154.0364" y="286.7607">CUX_0410_proc_2</text><line style="stroke:#181818;stroke-width:0.5;" x1="1856.7" x2="2544.9275" y1="295.0625" y2="295.0625"/><text fill="#000000" font-family="sans-serif" font-size="14" lengthAdjust="spacing" textLength="223.2822" x="1861.7" y="312.0576">Messstellenbetriebsabrechnung</text><text fill="#000000" font-family="sans-serif" font-size="14" lengthAdjust="spacing" textLength="105.0957" x="1861.7" y="328.3545">Gesetze: MsbG</text><text fill="#000000" font-family="sans-serif" font-size="14" lengthAdjust="spacing" textLength="678.2275" x="1861.7" y="344.6514">Zusammenfassung: Beschreibe den Prozess der Abrechnung von Messstellenbetriebsleistungen.</text><line style="stroke:#181818;stroke-width:0.5;" x1="1856.7" x2="2544.9275" y1="351.9531" y2="351.9531"/></g><!--link CUX_0410 to CUX_0410_msg_1--><g class="link" data-entity-1="CUX_0410" data-entity-2="CUX_0410_msg_1" data-source-line="16" data-uid="lnk4" id="link_CUX_0410_CUX_0410_msg_1"><path codeLine="16" d="M989.86,128.0969 C869.39,153.7669 682.13,194.6969 520.81,234.4869 C514.89,235.9469 514.7186,235.9726 508.6786,237.4926" fill="none" id="CUX_0410-to-CUX_0410_msg_1" style="stroke:#181818;stroke-width:1;"/><polygon fill="#181818" points="502.86,238.9569,512.5641,240.6395,507.7088,237.7366,510.6117,232.8814,502.86,238.9569" style="stroke:#181818;stroke-width:1;"/><text fill="#000000" font-family="sans-serif" font-size="13" lengthAdjust="spacing" textLength="85.2363" x="717.81" y="200.5538">verwendet in</text></g><!--link CUX_0410 to CUX_0410_msg_2--><g class="link" data-entity-1="CUX_0410" data-entity-2="CUX_0410_msg_2" data-source-line="25" data-uid="lnk6" id="link_CUX_0410_CUX_0410_msg_2"><path codeLine="25" d="M1024.91,157.7669 C987.05,181.2969 947.5959,205.8196 907.2759,230.8796" fill="none" id="CUX_0410-to-CUX_0410_msg_2" style="stroke:#181818;stroke-width:1;"/><polygon fill="#181818" points="902.18,234.0469,911.9354,232.6933,906.4266,231.4075,907.7124,225.8987,902.18,234.0469" style="stroke:#181818;stroke-width:1;"/><text fill="#000000" font-family="sans-serif" font-size="13" lengthAdjust="spacing" textLength="85.2363" x="971.81" y="200.5538">verwendet in</text></g><!--link CUX_0410 to CUX_0410_proc_1--><g class="link" data-entity-1="CUX_0410" data-entity-2="CUX_0410_proc_1" data-source-line="31" data-uid="lnk8" id="link_CUX_0410_CUX_0410_proc_1"><path codeLine="31" d="M1204.98,157.7669 C1253.65,187.9169 1308.2295,221.747 1355.8795,251.267" fill="none" id="CUX_0410-to-CUX_0410_proc_1" style="stroke:#181818;stroke-width:1;stroke-dasharray:7,7;"/><polygon fill="#181818" points="1360.98,254.4269,1355.4358,246.2867,1356.7296,251.7937,1351.2226,253.0874,1360.98,254.4269" style="stroke:#181818;stroke-width:1;"/><text fill="#000000" font-family="sans-serif" font-size="13" lengthAdjust="spacing" textLength="91.6221" x="1280.81" y="200.5538">eingebettet in</text></g><!--link CUX_0410 to CUX_0410_proc_2--><g class="link" data-entity-1="CUX_0410" data-entity-2="CUX_0410_proc_2" data-source-line="37" data-uid="lnk10" id="link_CUX_0410_CUX_0410_proc_2"><path codeLine="37" d="M1239.83,124.2069 C1384.23,150.1069 1628.88,194.4169 1838.81,234.4869 C1872.01,240.8269 1901.0125,246.4406 1935.4825,253.2106" fill="none" id="CUX_0410-to-CUX_0410_proc_2" style="stroke:#181818;stroke-width:1;stroke-dasharray:7,7;"/><polygon fill="#181818" points="1941.37,254.3669,1933.3096,248.7074,1936.4637,253.4033,1931.7678,256.5574,1941.37,254.3669" style="stroke:#181818;stroke-width:1;"/><text fill="#000000" font-family="sans-serif" font-size="13" lengthAdjust="spacing" textLength="91.6221" x="1661.81" y="200.5538">eingebettet in</text></g><!--SRC=[pPBTRjD048Nl-nJp08bbcuAALGL1W2X00gWYeDvO_ZcELt76rUwuHQbu6zw45sCsX10rINFBtUoSiUTyPrUCDA3NcO0pQJ97VHf- -PQ4vr5uLkZP-MFgZtH_HZJDbaZeww-VjUruxZAUPpbOXK-sNS4v95gJ_cGAMN4dg_LKRb7KhEL6dEYa4pGDE8TOWtntviU3nUdIpTDeixwehIbgIMWydNqS3oaEBaeLthSi-AxjxGJOYUqMqbdlhcfyhq9J9lGkqywmBU4IYiAUtzEZgz75BiKH_xqJrea-TrxxQo-TZ4UfjvY-HTt0BbfhuJsbSHW_3QCdKN1JLagy3RdV7pm4J-WMzWvSGiZmeN3YHy89_lTqKat7nt4UFekUdumZFX77ZMqBpUpoqXVgPZ3uaysnvpY2KqajNObjbzCtizwckfwfUjsvRBa4Lxf3v_Nb6r3LyK9ComPMgDJ6uP_JwiwueWQlTHy7J0vB7PVqmQ22pLXUxC86mM0F924OdaC_b-EyyHxlgOlOOazSFZe4-WhgVUsOIaNONBtMbbx-Gxnj-T2g1iQ9wk3WSRvuZ-yt]--></g></svg>