<svg xmlns="http://www.w3.org/2000/svg" xmlns:xlink="http://www.w3.org/1999/xlink" contentStyleType="text/css" data-diagram-type="CLASS" height="370px" preserveAspectRatio="none" style="width:1502px;height:370px;background:#FFFFFF;" version="1.1" viewBox="0 0 1502 370" width="1502px" zoomAndPan="magnify"><title>Datenatlas - DOC:C503</title><defs/><g><g class="title" data-source-line="1"><text fill="#000000" font-family="sans-serif" font-size="14" font-weight="bold" lengthAdjust="spacing" textLength="180.3936" x="653.9965" y="22.9951">Datenatlas - DOC:C503</text></g><!--class DOC_C503--><g class="entity" data-entity="DOC_C503" data-source-line="2" data-uid="ent0002" id="entity_DOC_C503"><rect fill="#F1F1F1" height="96.8906" rx="2.5" ry="2.5" style="stroke:#181818;stroke-width:0.5;" width="308.3037" x="368.92" y="44.2969"/><ellipse cx="481.2857" cy="60.2969" fill="#ADD1B2" rx="11" ry="11" style="stroke:#181818;stroke-width:1;"/><path d="M484.2545,65.9375 Q483.6763,66.2344 483.0357,66.375 Q482.3951,66.5313 481.692,66.5313 Q479.192,66.5313 477.8638,64.8906 Q476.5513,63.2344 476.5513,60.1094 Q476.5513,56.9844 477.8638,55.3281 Q479.192,53.6719 481.692,53.6719 Q482.3951,53.6719 483.0357,53.8281 Q483.692,53.9844 484.2545,54.2813 L484.2545,57 Q483.6295,56.4219 483.0357,56.1563 Q482.442,55.875 481.817,55.875 Q480.4732,55.875 479.7857,56.9531 Q479.0982,58.0156 479.0982,60.1094 Q479.0982,62.2031 479.7857,63.2813 Q480.4732,64.3438 481.817,64.3438 Q482.442,64.3438 483.0357,64.0781 Q483.6295,63.7969 484.2545,63.2188 L484.2545,65.9375 Z " fill="#000000"/><text fill="#000000" font-family="sans-serif" font-size="14" lengthAdjust="spacing" textLength="75.0723" x="501.7857" y="65.1436">DOC_C503</text><line style="stroke:#181818;stroke-width:0.5;" x1="369.92" x2="676.2237" y1="76.2969" y2="76.2969"/><text fill="#000000" font-family="sans-serif" font-size="14" lengthAdjust="spacing" textLength="282.3037" x="388.92" y="93.292">Name: Dokument - /Nachricht - Einzelhe</text><text fill="#000000" font-family="sans-serif" font-size="14" lengthAdjust="spacing" textLength="66.6436" x="388.92" y="109.5889">Prozesse:</text><rect fill="none" height="6" style="stroke:#C82930;stroke-width:1;" width="6" x="376.92" y="119.5391"/><text fill="#000000" font-family="sans-serif" font-size="14" lengthAdjust="spacing" textLength="180.3457" x="388.92" y="125.8857">Netznutzungsabrechnung</text><line style="stroke:#181818;stroke-width:0.5;" x1="369.92" x2="676.2237" y1="133.1875" y2="133.1875"/></g><!--class DOC_C503_msg_1--><g class="entity" data-entity="DOC_C503_msg_1" data-source-line="7" data-uid="ent0003" id="entity_DOC_C503_msg_1"><rect fill="#F1F1F1" height="145.7813" rx="2.5" ry="2.5" style="stroke:#181818;stroke-width:0.5;" width="296.1357" x="7" y="218.1869"/><ellipse cx="86.9189" cy="234.1869" fill="#ADD1B2" rx="11" ry="11" style="stroke:#181818;stroke-width:1;"/><path d="M89.8877,239.8275 Q89.3096,240.1244 88.6689,240.265 Q88.0283,240.4213 87.3252,240.4213 Q84.8252,240.4213 83.4971,238.7806 Q82.1846,237.1244 82.1846,233.9994 Q82.1846,230.8744 83.4971,229.2181 Q84.8252,227.5619 87.3252,227.5619 Q88.0283,227.5619 88.6689,227.7181 Q89.3252,227.8744 89.8877,228.1713 L89.8877,230.89 Q89.2627,230.3119 88.6689,230.0463 Q88.0752,229.765 87.4502,229.765 Q86.1064,229.765 85.4189,230.8431 Q84.7314,231.9056 84.7314,233.9994 Q84.7314,236.0931 85.4189,237.1713 Q86.1064,238.2338 87.4502,238.2338 Q88.0752,238.2338 88.6689,237.9681 Q89.2627,237.6869 89.8877,237.1088 L89.8877,239.8275 Z " fill="#000000"/><text fill="#000000" font-family="sans-serif" font-size="14" lengthAdjust="spacing" textLength="127.7979" x="107.4189" y="239.0336">DOC_C503_msg_1</text><line style="stroke:#181818;stroke-width:0.5;" x1="8" x2="302.1357" y1="250.1869" y2="250.1869"/><text fill="#000000" font-family="sans-serif" font-size="14" lengthAdjust="spacing" textLength="161.998" x="13" y="267.182">Nachricht: INSRPT 1.1a</text><text fill="#000000" font-family="sans-serif" font-size="14" lengthAdjust="spacing" textLength="170.3447" x="13" y="283.4789">Kontext: Segmentlayout</text><text fill="#000000" font-family="sans-serif" font-size="14" lengthAdjust="spacing" textLength="91.4033" x="13" y="299.7757">Pflichtfeld: Ja</text><text fill="#000000" font-family="sans-serif" font-size="14" lengthAdjust="spacing" textLength="226.3584" x="13" y="316.0726">Codes: 21, 22, 23, 293, 70, DOC</text><text fill="#000000" font-family="sans-serif" font-size="14" lengthAdjust="spacing" textLength="251.4395" x="13" y="332.3695">Prozesse: Netznutzungsabrechnung</text><text fill="#000000" font-family="sans-serif" font-size="14" lengthAdjust="spacing" textLength="284.1357" x="13" y="348.6664">Quelle: INSRPT_MIG_1_1a_20211001.pdf</text><line style="stroke:#181818;stroke-width:0.5;" x1="8" x2="302.1357" y1="355.9681" y2="355.9681"/></g><!--class DOC_C503_msg_2--><g class="entity" data-entity="DOC_C503_msg_2" data-source-line="16" data-uid="ent0005" id="entity_DOC_C503_msg_2"><rect fill="#F1F1F1" height="145.7813" rx="2.5" ry="2.5" style="stroke:#181818;stroke-width:0.5;" width="369.4443" x="338.35" y="218.1869"/><ellipse cx="454.9232" cy="234.1869" fill="#ADD1B2" rx="11" ry="11" style="stroke:#181818;stroke-width:1;"/><path d="M457.892,239.8275 Q457.3139,240.1244 456.6732,240.265 Q456.0326,240.4213 455.3295,240.4213 Q452.8295,240.4213 451.5014,238.7806 Q450.1889,237.1244 450.1889,233.9994 Q450.1889,230.8744 451.5014,229.2181 Q452.8295,227.5619 455.3295,227.5619 Q456.0326,227.5619 456.6732,227.7181 Q457.3295,227.8744 457.892,228.1713 L457.892,230.89 Q457.267,230.3119 456.6732,230.0463 Q456.0795,229.765 455.4545,229.765 Q454.1107,229.765 453.4232,230.8431 Q452.7357,231.9056 452.7357,233.9994 Q452.7357,236.0931 453.4232,237.1713 Q454.1107,238.2338 455.4545,238.2338 Q456.0795,238.2338 456.6732,237.9681 Q457.267,237.6869 457.892,237.1088 L457.892,239.8275 Z " fill="#000000"/><text fill="#000000" font-family="sans-serif" font-size="14" lengthAdjust="spacing" textLength="127.7979" x="475.4232" y="239.0336">DOC_C503_msg_2</text><line style="stroke:#181818;stroke-width:0.5;" x1="339.35" x2="706.7943" y1="250.1869" y2="250.1869"/><text fill="#000000" font-family="sans-serif" font-size="14" lengthAdjust="spacing" textLength="171.4932" x="344.35" y="267.182">Nachricht: REMADV 2.9c</text><text fill="#000000" font-family="sans-serif" font-size="14" lengthAdjust="spacing" textLength="123.0605" x="344.35" y="283.4789">Kontext: Beispiel:</text><text fill="#000000" font-family="sans-serif" font-size="14" lengthAdjust="spacing" textLength="91.4033" x="344.35" y="299.7757">Pflichtfeld: Ja</text><text fill="#000000" font-family="sans-serif" font-size="14" lengthAdjust="spacing" textLength="357.4443" x="344.35" y="316.0726">Codes: 12, 35, 380, 389, 457, DOC, OCR, SG5, Z25</text><text fill="#000000" font-family="sans-serif" font-size="14" lengthAdjust="spacing" textLength="251.4395" x="344.35" y="332.3695">Prozesse: Netznutzungsabrechnung</text><text fill="#000000" font-family="sans-serif" font-size="14" lengthAdjust="spacing" textLength="291.0811" x="344.35" y="348.6664">Quelle: REMADV_MIG_2.9c_20231024.pdf</text><line style="stroke:#181818;stroke-width:0.5;" x1="339.35" x2="706.7943" y1="355.9681" y2="355.9681"/></g><!--class DOC_C503_proc_1--><g class="entity" data-entity="DOC_C503_proc_1" data-source-line="25" data-uid="ent0007" id="entity_DOC_C503_proc_1"><rect fill="#F1F1F1" height="105.1563" rx="2.5" ry="2.5" style="stroke:#181818;stroke-width:0.5;" width="752.6465" x="742.74" y="238.4969"/><ellipse cx="1050.3709" cy="258.6297" fill="#ADD1B2" rx="11" ry="11" style="stroke:#181818;stroke-width:1;"/><path d="M1053.3396,264.2703 Q1052.7615,264.5672 1052.1209,264.7078 Q1051.4802,264.8641 1050.7771,264.8641 Q1048.2771,264.8641 1046.949,263.2234 Q1045.6365,261.5672 1045.6365,258.4422 Q1045.6365,255.3172 1046.949,253.6609 Q1048.2771,252.0047 1050.7771,252.0047 Q1051.4802,252.0047 1052.1209,252.1609 Q1052.7771,252.3172 1053.3396,252.6141 L1053.3396,255.3328 Q1052.7146,254.7547 1052.1209,254.4891 Q1051.5271,254.2078 1050.9021,254.2078 Q1049.5584,254.2078 1048.8709,255.2859 Q1048.1834,256.3484 1048.1834,258.4422 Q1048.1834,260.5359 1048.8709,261.6141 Q1049.5584,262.6766 1050.9021,262.6766 Q1051.5271,262.6766 1052.1209,262.4109 Q1052.7146,262.1297 1053.3396,261.5516 L1053.3396,264.2703 Z " fill="#000000"/><text fill="#000000" font-family="sans-serif" font-size="12" font-style="italic" lengthAdjust="spacing" textLength="61.0605" x="1104.783" y="254.6355">&#171;process&#187;</text><text fill="#000000" font-family="sans-serif" font-size="14" lengthAdjust="spacing" textLength="128.8848" x="1070.8709" y="270.4607">DOC_C503_proc_1</text><line style="stroke:#181818;stroke-width:0.5;" x1="743.74" x2="1494.3865" y1="278.7625" y2="278.7625"/><text fill="#000000" font-family="sans-serif" font-size="14" lengthAdjust="spacing" textLength="180.3457" x="748.74" y="295.7576">Netznutzungsabrechnung</text><text fill="#000000" font-family="sans-serif" font-size="14" lengthAdjust="spacing" textLength="218.0938" x="748.74" y="312.0545">Gesetze: StromNEV, StromNZV</text><text fill="#000000" font-family="sans-serif" font-size="14" lengthAdjust="spacing" textLength="740.6465" x="748.74" y="328.3514">Zusammenfassung: Wie funktioniert die Netznutzungsabrechnung zwischen Netzbetreiber und Lieferant?</text><line style="stroke:#181818;stroke-width:0.5;" x1="743.74" x2="1494.3865" y1="335.6531" y2="335.6531"/></g><!--link DOC_C503 to DOC_C503_msg_1--><g class="link" data-entity-1="DOC_C503" data-entity-2="DOC_C503_msg_1" data-source-line="15" data-uid="lnk4" id="link_DOC_C503_DOC_C503_msg_1"><path codeLine="15" d="M433.52,141.5169 C390.54,164.4469 343.4237,189.5825 295.7237,215.0325" fill="none" id="DOC_C503-to-DOC_C503_msg_1" style="stroke:#181818;stroke-width:1;"/><polygon fill="#181818" points="290.43,217.8569,300.2534,217.1494,294.8414,215.5032,296.4876,210.0912,290.43,217.8569" style="stroke:#181818;stroke-width:1;"/><text fill="#000000" font-family="sans-serif" font-size="13" lengthAdjust="spacing" textLength="85.2363" x="373.07" y="184.2538">verwendet in</text></g><!--link DOC_C503 to DOC_C503_msg_2--><g class="link" data-entity-1="DOC_C503" data-entity-2="DOC_C503_msg_2" data-source-line="24" data-uid="lnk6" id="link_DOC_C503_DOC_C503_msg_2"><path codeLine="24" d="M523.07,141.5169 C523.07,164.4469 523.07,186.4069 523.07,211.8569" fill="none" id="DOC_C503-to-DOC_C503_msg_2" style="stroke:#181818;stroke-width:1;"/><polygon fill="#181818" points="523.07,217.8569,527.07,208.8569,523.07,212.8569,519.07,208.8569,523.07,217.8569" style="stroke:#181818;stroke-width:1;"/><text fill="#000000" font-family="sans-serif" font-size="13" lengthAdjust="spacing" textLength="85.2363" x="524.07" y="184.2538">verwendet in</text></g><!--link DOC_C503 to DOC_C503_proc_1--><g class="link" data-entity-1="DOC_C503" data-entity-2="DOC_C503_proc_1" data-source-line="30" data-uid="lnk8" id="link_DOC_C503_DOC_C503_proc_1"><path codeLine="30" d="M668.48,141.6469 C757.05,170.8169 864.5312,206.2297 955.3012,236.1297" fill="none" id="DOC_C503-to-DOC_C503_proc_1" style="stroke:#181818;stroke-width:1;stroke-dasharray:7,7;"/><polygon fill="#181818" points="961,238.0069,953.7033,231.3919,956.251,236.4425,951.2004,238.9903,961,238.0069" style="stroke:#181818;stroke-width:1;"/><text fill="#000000" font-family="sans-serif" font-size="13" lengthAdjust="spacing" textLength="91.6221" x="805.07" y="184.2538">eingebettet in</text></g><!--SRC=[bL9XRzem4FtEhxWV4BBO57LO5LC727LRqmucAl4bCic5M7KSP3lhbcd_VMVA9aJRLVrmrftVY- -zftZbDS9KUZJIQ-cW3zERYPWCaq4lfzc5CGiZ_Ee1fB960TFclgtHU2A_IsLUMPLNOPWfqw6ka8YtjkdGEHJK0q4f-iwqlclDricDnRmorFP-dop9QhVDs67LuM41L-boSViDMCma0PyRu_47NIzn6rHe-RDfVTXPwi0lKHS2FWNgf2dG2U0i0iwf1bGZEiwJAAmyrlcIGe2lBMgDVrLarrVpZ6LCPZpXZ2K9YtT5IKR-vTJlZq_z2FYEzW5DWHwKUSupF_Myc5rVJbV0ur5-xFaZAhTJgCN__3BoEXXIlK_2COhWR7Y-Tnp1pMGHmN9Ew9eFtnR0ewHz045M26304dxsQW3ybG1sjiaffOkBq92OyVWnZPS4pT4HH8gMtZPrEbj5Xswz8dJTEbdJZr7I3k8Bk5C8PMlklMgCGkkXe8ld7uVkGRcyGhF7D-WjgWrQQ4q1NnIMQANn7uxDnl7uYH41gCmMwNE_z_i7]--></g></svg>