<svg xmlns="http://www.w3.org/2000/svg" xmlns:xlink="http://www.w3.org/1999/xlink" contentStyleType="text/css" data-diagram-type="CLASS" height="370px" preserveAspectRatio="none" style="width:1569px;height:370px;background:#FFFFFF;" version="1.1" viewBox="0 0 1569 370" width="1569px" zoomAndPan="magnify"><title>Datenatlas - DOC:0110</title><defs/><g><g class="title" data-source-line="1"><text fill="#000000" font-family="sans-serif" font-size="14" font-weight="bold" lengthAdjust="spacing" textLength="179.8604" x="687.6381" y="22.9951">Datenatlas - DOC:0110</text></g><!--class DOC_0110--><g class="entity" data-entity="DOC_0110" data-source-line="2" data-uid="ent0002" id="entity_DOC_0110"><rect fill="#F1F1F1" height="96.8906" rx="2.5" ry="2.5" style="stroke:#181818;stroke-width:0.5;" width="335.1689" x="395.23" y="44.2969"/><ellipse cx="521.4624" cy="60.2969" fill="#ADD1B2" rx="11" ry="11" style="stroke:#181818;stroke-width:1;"/><path d="M524.4312,65.9375 Q523.853,66.2344 523.2124,66.375 Q522.5718,66.5313 521.8687,66.5313 Q519.3687,66.5313 518.0405,64.8906 Q516.728,63.2344 516.728,60.1094 Q516.728,56.9844 518.0405,55.3281 Q519.3687,53.6719 521.8687,53.6719 Q522.5718,53.6719 523.2124,53.8281 Q523.8687,53.9844 524.4312,54.2813 L524.4312,57 Q523.8062,56.4219 523.2124,56.1563 Q522.6187,55.875 521.9937,55.875 Q520.6499,55.875 519.9624,56.9531 Q519.2749,58.0156 519.2749,60.1094 Q519.2749,62.2031 519.9624,63.2813 Q520.6499,64.3438 521.9937,64.3438 Q522.6187,64.3438 523.2124,64.0781 Q523.8062,63.7969 524.4312,63.2188 L524.4312,65.9375 Z " fill="#000000"/><text fill="#000000" font-family="sans-serif" font-size="14" lengthAdjust="spacing" textLength="74.2041" x="541.9624" y="65.1436">DOC_0110</text><line style="stroke:#181818;stroke-width:0.5;" x1="396.23" x2="729.3989" y1="76.2969" y2="76.2969"/><text fill="#000000" font-family="sans-serif" font-size="14" lengthAdjust="spacing" textLength="309.1689" x="415.23" y="93.292">Name: Dokument - /Nachricht - Einzelheiten</text><text fill="#000000" font-family="sans-serif" font-size="14" lengthAdjust="spacing" textLength="66.6436" x="415.23" y="109.5889">Prozesse:</text><rect fill="none" height="6" style="stroke:#C82930;stroke-width:1;" width="6" x="403.23" y="119.5391"/><text fill="#000000" font-family="sans-serif" font-size="14" lengthAdjust="spacing" textLength="180.3457" x="415.23" y="125.8857">Netznutzungsabrechnung</text><line style="stroke:#181818;stroke-width:0.5;" x1="396.23" x2="729.3989" y1="133.1875" y2="133.1875"/></g><!--class DOC_0110_msg_1--><g class="entity" data-entity="DOC_0110_msg_1" data-source-line="7" data-uid="ent0003" id="entity_DOC_0110_msg_1"><rect fill="#F1F1F1" height="145.7813" rx="2.5" ry="2.5" style="stroke:#181818;stroke-width:0.5;" width="309.6299" x="7" y="218.1869"/><ellipse cx="94.1001" cy="234.1869" fill="#ADD1B2" rx="11" ry="11" style="stroke:#181818;stroke-width:1;"/><path d="M97.0688,239.8275 Q96.4907,240.1244 95.8501,240.265 Q95.2095,240.4213 94.5063,240.4213 Q92.0063,240.4213 90.6782,238.7806 Q89.3657,237.1244 89.3657,233.9994 Q89.3657,230.8744 90.6782,229.2181 Q92.0063,227.5619 94.5063,227.5619 Q95.2095,227.5619 95.8501,227.7181 Q96.5063,227.8744 97.0688,228.1713 L97.0688,230.89 Q96.4438,230.3119 95.8501,230.0463 Q95.2563,229.765 94.6313,229.765 Q93.2876,229.765 92.6001,230.8431 Q91.9126,231.9056 91.9126,233.9994 Q91.9126,236.0931 92.6001,237.1713 Q93.2876,238.2338 94.6313,238.2338 Q95.2563,238.2338 95.8501,237.9681 Q96.4438,237.6869 97.0688,237.1088 L97.0688,239.8275 Z " fill="#000000"/><text fill="#000000" font-family="sans-serif" font-size="14" lengthAdjust="spacing" textLength="126.9297" x="114.6001" y="239.0336">DOC_0110_msg_1</text><line style="stroke:#181818;stroke-width:0.5;" x1="8" x2="315.6299" y1="250.1869" y2="250.1869"/><text fill="#000000" font-family="sans-serif" font-size="14" lengthAdjust="spacing" textLength="172.9424" x="13" y="267.182">Nachricht: COMDIS 1.0e.</text><text fill="#000000" font-family="sans-serif" font-size="14" lengthAdjust="spacing" textLength="204.1143" x="13" y="283.4789">Kontext: Nachrichtenstruktur</text><text fill="#000000" font-family="sans-serif" font-size="14" lengthAdjust="spacing" textLength="91.4033" x="13" y="299.7757">Pflichtfeld: Ja</text><text fill="#000000" font-family="sans-serif" font-size="14" lengthAdjust="spacing" textLength="83.877" x="13" y="316.0726">Codes: DOC</text><text fill="#000000" font-family="sans-serif" font-size="14" lengthAdjust="spacing" textLength="251.4395" x="13" y="332.3695">Prozesse: Netznutzungsabrechnung</text><text fill="#000000" font-family="sans-serif" font-size="14" lengthAdjust="spacing" textLength="297.6299" x="13" y="348.6664">Quelle: COMDIS_MIG_1_0e__20240619.pdf</text><line style="stroke:#181818;stroke-width:0.5;" x1="8" x2="315.6299" y1="355.9681" y2="355.9681"/></g><!--class DOC_0110_msg_2--><g class="entity" data-entity="DOC_0110_msg_2" data-source-line="16" data-uid="ent0005" id="entity_DOC_0110_msg_2"><rect fill="#F1F1F1" height="145.7813" rx="2.5" ry="2.5" style="stroke:#181818;stroke-width:0.5;" width="422.9219" x="351.35" y="218.1869"/><ellipse cx="495.0961" cy="234.1869" fill="#ADD1B2" rx="11" ry="11" style="stroke:#181818;stroke-width:1;"/><path d="M498.0648,239.8275 Q497.4867,240.1244 496.8461,240.265 Q496.2055,240.4213 495.5023,240.4213 Q493.0023,240.4213 491.6742,238.7806 Q490.3617,237.1244 490.3617,233.9994 Q490.3617,230.8744 491.6742,229.2181 Q493.0023,227.5619 495.5023,227.5619 Q496.2055,227.5619 496.8461,227.7181 Q497.5023,227.8744 498.0648,228.1713 L498.0648,230.89 Q497.4398,230.3119 496.8461,230.0463 Q496.2523,229.765 495.6273,229.765 Q494.2836,229.765 493.5961,230.8431 Q492.9086,231.9056 492.9086,233.9994 Q492.9086,236.0931 493.5961,237.1713 Q494.2836,238.2338 495.6273,238.2338 Q496.2523,238.2338 496.8461,237.9681 Q497.4398,237.6869 498.0648,237.1088 L498.0648,239.8275 Z " fill="#000000"/><text fill="#000000" font-family="sans-serif" font-size="14" lengthAdjust="spacing" textLength="126.9297" x="515.5961" y="239.0336">DOC_0110_msg_2</text><line style="stroke:#181818;stroke-width:0.5;" x1="352.35" x2="773.2719" y1="250.1869" y2="250.1869"/><text fill="#000000" font-family="sans-serif" font-size="14" lengthAdjust="spacing" textLength="161.998" x="357.35" y="267.182">Nachricht: INSRPT 1.1a</text><text fill="#000000" font-family="sans-serif" font-size="14" lengthAdjust="spacing" textLength="204.1143" x="357.35" y="283.4789">Kontext: Nachrichtenstruktur</text><text fill="#000000" font-family="sans-serif" font-size="14" lengthAdjust="spacing" textLength="91.4033" x="357.35" y="299.7757">Pflichtfeld: Ja</text><text fill="#000000" font-family="sans-serif" font-size="14" lengthAdjust="spacing" textLength="148.1348" x="357.35" y="316.0726">Codes: 99, DOC, SG4</text><text fill="#000000" font-family="sans-serif" font-size="14" lengthAdjust="spacing" textLength="251.4395" x="357.35" y="332.3695">Prozesse: Netznutzungsabrechnung</text><text fill="#000000" font-family="sans-serif" font-size="14" lengthAdjust="spacing" textLength="410.9219" x="357.35" y="348.6664">Quelle: INSRPT_MIG_1_1a_au&#223;erordentliche_20240726.pdf</text><line style="stroke:#181818;stroke-width:0.5;" x1="352.35" x2="773.2719" y1="355.9681" y2="355.9681"/></g><!--class DOC_0110_proc_1--><g class="entity" data-entity="DOC_0110_proc_1" data-source-line="25" data-uid="ent0007" id="entity_DOC_0110_proc_1"><rect fill="#F1F1F1" height="105.1563" rx="2.5" ry="2.5" style="stroke:#181818;stroke-width:0.5;" width="752.6465" x="809.49" y="238.4969"/><ellipse cx="1117.5549" cy="258.6297" fill="#ADD1B2" rx="11" ry="11" style="stroke:#181818;stroke-width:1;"/><path d="M1120.5237,264.2703 Q1119.9456,264.5672 1119.3049,264.7078 Q1118.6643,264.8641 1117.9612,264.8641 Q1115.4612,264.8641 1114.1331,263.2234 Q1112.8206,261.5672 1112.8206,258.4422 Q1112.8206,255.3172 1114.1331,253.6609 Q1115.4612,252.0047 1117.9612,252.0047 Q1118.6643,252.0047 1119.3049,252.1609 Q1119.9612,252.3172 1120.5237,252.6141 L1120.5237,255.3328 Q1119.8987,254.7547 1119.3049,254.4891 Q1118.7112,254.2078 1118.0862,254.2078 Q1116.7424,254.2078 1116.0549,255.2859 Q1115.3674,256.3484 1115.3674,258.4422 Q1115.3674,260.5359 1116.0549,261.6141 Q1116.7424,262.6766 1118.0862,262.6766 Q1118.7112,262.6766 1119.3049,262.4109 Q1119.8987,262.1297 1120.5237,261.5516 L1120.5237,264.2703 Z " fill="#000000"/><text fill="#000000" font-family="sans-serif" font-size="12" font-style="italic" lengthAdjust="spacing" textLength="61.0605" x="1171.533" y="254.6355">&#171;process&#187;</text><text fill="#000000" font-family="sans-serif" font-size="14" lengthAdjust="spacing" textLength="128.0166" x="1138.0549" y="270.4607">DOC_0110_proc_1</text><line style="stroke:#181818;stroke-width:0.5;" x1="810.49" x2="1561.1365" y1="278.7625" y2="278.7625"/><text fill="#000000" font-family="sans-serif" font-size="14" lengthAdjust="spacing" textLength="180.3457" x="815.49" y="295.7576">Netznutzungsabrechnung</text><text fill="#000000" font-family="sans-serif" font-size="14" lengthAdjust="spacing" textLength="218.0938" x="815.49" y="312.0545">Gesetze: StromNEV, StromNZV</text><text fill="#000000" font-family="sans-serif" font-size="14" lengthAdjust="spacing" textLength="740.6465" x="815.49" y="328.3514">Zusammenfassung: Wie funktioniert die Netznutzungsabrechnung zwischen Netzbetreiber und Lieferant?</text><line style="stroke:#181818;stroke-width:0.5;" x1="810.49" x2="1561.1365" y1="335.6531" y2="335.6531"/></g><!--link DOC_0110 to DOC_0110_msg_1--><g class="link" data-entity-1="DOC_0110" data-entity-2="DOC_0110_msg_1" data-source-line="15" data-uid="lnk4" id="link_DOC_0110_DOC_0110_msg_1"><path codeLine="15" d="M464.98,141.6469 C418.26,164.5169 366.7488,189.7386 314.9088,215.1186" fill="none" id="DOC_0110-to-DOC_0110_msg_1" style="stroke:#181818;stroke-width:1;"/><polygon fill="#181818" points="309.52,217.7569,319.3621,217.392,314.0107,215.5583,315.8444,210.2069,309.52,217.7569" style="stroke:#181818;stroke-width:1;"/><text fill="#000000" font-family="sans-serif" font-size="13" lengthAdjust="spacing" textLength="85.2363" x="399.81" y="184.2538">verwendet in</text></g><!--link DOC_0110 to DOC_0110_msg_2--><g class="link" data-entity-1="DOC_0110" data-entity-2="DOC_0110_msg_2" data-source-line="24" data-uid="lnk6" id="link_DOC_0110_DOC_0110_msg_2"><path codeLine="24" d="M562.81,141.5169 C562.81,164.4469 562.81,186.4069 562.81,211.8569" fill="none" id="DOC_0110-to-DOC_0110_msg_2" style="stroke:#181818;stroke-width:1;"/><polygon fill="#181818" points="562.81,217.8569,566.81,208.8569,562.81,212.8569,558.81,208.8569,562.81,217.8569" style="stroke:#181818;stroke-width:1;"/><text fill="#000000" font-family="sans-serif" font-size="13" lengthAdjust="spacing" textLength="85.2363" x="563.81" y="184.2538">verwendet in</text></g><!--link DOC_0110 to DOC_0110_proc_1--><g class="link" data-entity-1="DOC_0110" data-entity-2="DOC_0110_proc_1" data-source-line="30" data-uid="lnk8" id="link_DOC_0110_DOC_0110_proc_1"><path codeLine="30" d="M714.82,141.6469 C807.39,170.8169 919.9774,206.3035 1014.8574,236.2035" fill="none" id="DOC_0110-to-DOC_0110_proc_1" style="stroke:#181818;stroke-width:1;stroke-dasharray:7,7;"/><polygon fill="#181818" points="1020.58,238.0069,1013.1984,231.4868,1015.8112,236.5041,1010.7939,239.1168,1020.58,238.0069" style="stroke:#181818;stroke-width:1;"/><text fill="#000000" font-family="sans-serif" font-size="13" lengthAdjust="spacing" textLength="91.6221" x="856.81" y="184.2538">eingebettet in</text></g><!--SRC=[fPBRIiD048Rl-nJp06rCWYXTf5wqKkeX7YeAtYpRPD8kJJQoEwiIyLby65_CMLj5gYBYtPmo___DXZHL22D5Q1HLoa4FHgT34IT9tCavTo6L8ON73a2cQXGmQfQ-HaCyl9MfV65rlWZ9WJOjLWlKl8s7pspJedCeE0PkPqYjyTHwCtTgPZ5V60uxJnj2idPpcQpbrii534zFHfCf956C4NUE6aFumFMF4JIEh5-Ijq6wh4AjnAeGSAYuCcmAT2A8V7RsaoU0SuzLXU-wycGobecCKSeqJhVZdQGVtHObU_yuJwyts4GGS8Vs7as11DfyXvbkOawowSNP9MCcwX-K_Nutw7HXEjx-6-vAVusRAAdyopFQnXRyt44CL_oxwSwl_Eal_BUsoVb8UtiXO7k3mUeOFraSe-CMUvoIRUhiuAgxZcwkk7lZdQhvfonPW-S5N6k4qfibwSPej0G55xvV3kszTinctlep98jwXXQyAU1OOubM6Th_31j5WoyW0b2REVBdzCRx2W00]--></g></svg>