<svg xmlns="http://www.w3.org/2000/svg" xmlns:xlink="http://www.w3.org/1999/xlink" contentStyleType="text/css" data-diagram-type="CLASS" height="370px" preserveAspectRatio="none" style="width:1224px;height:370px;background:#FFFFFF;" version="1.1" viewBox="0 0 1224 370" width="1224px" zoomAndPan="magnify"><title>Datenatlas - DOC:0120</title><defs/><g><g class="title" data-source-line="1"><text fill="#000000" font-family="sans-serif" font-size="14" font-weight="bold" lengthAdjust="spacing" textLength="179.8604" x="515.4631" y="22.9951">Datenatlas - DOC:0120</text></g><!--class DOC_0120--><g class="entity" data-entity="DOC_0120" data-source-line="2" data-uid="ent0002" id="entity_DOC_0120"><rect fill="#F1F1F1" height="96.8906" rx="2.5" ry="2.5" style="stroke:#181818;stroke-width:0.5;" width="206.3457" x="426.29" y="44.2969"/><ellipse cx="488.1108" cy="60.2969" fill="#ADD1B2" rx="11" ry="11" style="stroke:#181818;stroke-width:1;"/><path d="M491.0796,65.9375 Q490.5014,66.2344 489.8608,66.375 Q489.2202,66.5313 488.5171,66.5313 Q486.0171,66.5313 484.6889,64.8906 Q483.3764,63.2344 483.3764,60.1094 Q483.3764,56.9844 484.6889,55.3281 Q486.0171,53.6719 488.5171,53.6719 Q489.2202,53.6719 489.8608,53.8281 Q490.5171,53.9844 491.0796,54.2813 L491.0796,57 Q490.4546,56.4219 489.8608,56.1563 Q489.2671,55.875 488.6421,55.875 Q487.2983,55.875 486.6108,56.9531 Q485.9233,58.0156 485.9233,60.1094 Q485.9233,62.2031 486.6108,63.2813 Q487.2983,64.3438 488.6421,64.3438 Q489.2671,64.3438 489.8608,64.0781 Q490.4546,63.7969 491.0796,63.2188 L491.0796,65.9375 Z " fill="#000000"/><text fill="#000000" font-family="sans-serif" font-size="14" lengthAdjust="spacing" textLength="74.2041" x="508.6108" y="65.1436">DOC_0120</text><line style="stroke:#181818;stroke-width:0.5;" x1="427.29" x2="631.6357" y1="76.2969" y2="76.2969"/><text fill="#000000" font-family="sans-serif" font-size="14" lengthAdjust="spacing" textLength="163.4268" x="446.29" y="93.292">Name: Pr&#252;fidentifikator</text><text fill="#000000" font-family="sans-serif" font-size="14" lengthAdjust="spacing" textLength="66.6436" x="446.29" y="109.5889">Prozesse:</text><rect fill="none" height="6" style="stroke:#C82930;stroke-width:1;" width="6" x="434.29" y="119.5391"/><text fill="#000000" font-family="sans-serif" font-size="14" lengthAdjust="spacing" textLength="180.3457" x="446.29" y="125.8857">Netznutzungsabrechnung</text><line style="stroke:#181818;stroke-width:0.5;" x1="427.29" x2="631.6357" y1="133.1875" y2="133.1875"/></g><!--class DOC_0120_msg_1--><g class="entity" data-entity="DOC_0120_msg_1" data-source-line="7" data-uid="ent0003" id="entity_DOC_0120_msg_1"><rect fill="#F1F1F1" height="145.7813" rx="2.5" ry="2.5" style="stroke:#181818;stroke-width:0.5;" width="422.9219" x="7" y="218.1869"/><ellipse cx="150.7461" cy="234.1869" fill="#ADD1B2" rx="11" ry="11" style="stroke:#181818;stroke-width:1;"/><path d="M153.7148,239.8275 Q153.1367,240.1244 152.4961,240.265 Q151.8555,240.4213 151.1523,240.4213 Q148.6523,240.4213 147.3242,238.7806 Q146.0117,237.1244 146.0117,233.9994 Q146.0117,230.8744 147.3242,229.2181 Q148.6523,227.5619 151.1523,227.5619 Q151.8555,227.5619 152.4961,227.7181 Q153.1523,227.8744 153.7148,228.1713 L153.7148,230.89 Q153.0898,230.3119 152.4961,230.0463 Q151.9023,229.765 151.2773,229.765 Q149.9336,229.765 149.2461,230.8431 Q148.5586,231.9056 148.5586,233.9994 Q148.5586,236.0931 149.2461,237.1713 Q149.9336,238.2338 151.2773,238.2338 Q151.9023,238.2338 152.4961,237.9681 Q153.0898,237.6869 153.7148,237.1088 L153.7148,239.8275 Z " fill="#000000"/><text fill="#000000" font-family="sans-serif" font-size="14" lengthAdjust="spacing" textLength="126.9297" x="171.2461" y="239.0336">DOC_0120_msg_1</text><line style="stroke:#181818;stroke-width:0.5;" x1="8" x2="428.9219" y1="250.1869" y2="250.1869"/><text fill="#000000" font-family="sans-serif" font-size="14" lengthAdjust="spacing" textLength="161.998" x="13" y="267.182">Nachricht: INSRPT 1.1a</text><text fill="#000000" font-family="sans-serif" font-size="14" lengthAdjust="spacing" textLength="204.1143" x="13" y="283.4789">Kontext: Nachrichtenstruktur</text><text fill="#000000" font-family="sans-serif" font-size="14" lengthAdjust="spacing" textLength="91.4033" x="13" y="299.7757">Pflichtfeld: Ja</text><text fill="#000000" font-family="sans-serif" font-size="14" lengthAdjust="spacing" textLength="148.1348" x="13" y="316.0726">Codes: 99, DOC, SG4</text><text fill="#000000" font-family="sans-serif" font-size="14" lengthAdjust="spacing" textLength="251.4395" x="13" y="332.3695">Prozesse: Netznutzungsabrechnung</text><text fill="#000000" font-family="sans-serif" font-size="14" lengthAdjust="spacing" textLength="410.9219" x="13" y="348.6664">Quelle: INSRPT_MIG_1_1a_au&#223;erordentliche_20240726.pdf</text><line style="stroke:#181818;stroke-width:0.5;" x1="8" x2="428.9219" y1="355.9681" y2="355.9681"/></g><!--class DOC_0120_proc_1--><g class="entity" data-entity="DOC_0120_proc_1" data-source-line="16" data-uid="ent0005" id="entity_DOC_0120_proc_1"><rect fill="#F1F1F1" height="105.1563" rx="2.5" ry="2.5" style="stroke:#181818;stroke-width:0.5;" width="752.6465" x="465.14" y="238.4969"/><ellipse cx="773.2049" cy="258.6297" fill="#ADD1B2" rx="11" ry="11" style="stroke:#181818;stroke-width:1;"/><path d="M776.1737,264.2703 Q775.5956,264.5672 774.9549,264.7078 Q774.3143,264.8641 773.6112,264.8641 Q771.1112,264.8641 769.7831,263.2234 Q768.4706,261.5672 768.4706,258.4422 Q768.4706,255.3172 769.7831,253.6609 Q771.1112,252.0047 773.6112,252.0047 Q774.3143,252.0047 774.9549,252.1609 Q775.6112,252.3172 776.1737,252.6141 L776.1737,255.3328 Q775.5487,254.7547 774.9549,254.4891 Q774.3612,254.2078 773.7362,254.2078 Q772.3924,254.2078 771.7049,255.2859 Q771.0174,256.3484 771.0174,258.4422 Q771.0174,260.5359 771.7049,261.6141 Q772.3924,262.6766 773.7362,262.6766 Q774.3612,262.6766 774.9549,262.4109 Q775.5487,262.1297 776.1737,261.5516 L776.1737,264.2703 Z " fill="#000000"/><text fill="#000000" font-family="sans-serif" font-size="12" font-style="italic" lengthAdjust="spacing" textLength="61.0605" x="827.183" y="254.6355">&#171;process&#187;</text><text fill="#000000" font-family="sans-serif" font-size="14" lengthAdjust="spacing" textLength="128.0166" x="793.7049" y="270.4607">DOC_0120_proc_1</text><line style="stroke:#181818;stroke-width:0.5;" x1="466.14" x2="1216.7865" y1="278.7625" y2="278.7625"/><text fill="#000000" font-family="sans-serif" font-size="14" lengthAdjust="spacing" textLength="180.3457" x="471.14" y="295.7576">Netznutzungsabrechnung</text><text fill="#000000" font-family="sans-serif" font-size="14" lengthAdjust="spacing" textLength="218.0938" x="471.14" y="312.0545">Gesetze: StromNEV, StromNZV</text><text fill="#000000" font-family="sans-serif" font-size="14" lengthAdjust="spacing" textLength="740.6465" x="471.14" y="328.3514">Zusammenfassung: Wie funktioniert die Netznutzungsabrechnung zwischen Netzbetreiber und Lieferant?</text><line style="stroke:#181818;stroke-width:0.5;" x1="466.14" x2="1216.7865" y1="335.6531" y2="335.6531"/></g><!--link DOC_0120 to DOC_0120_msg_1--><g class="link" data-entity-1="DOC_0120" data-entity-2="DOC_0120_msg_1" data-source-line="15" data-uid="lnk4" id="link_DOC_0120_DOC_0120_msg_1"><path codeLine="15" d="M453.78,141.5169 C417.46,164.4469 378.2438,189.2043 337.9238,214.6543" fill="none" id="DOC_0120-to-DOC_0120_msg_1" style="stroke:#181818;stroke-width:1;"/><polygon fill="#181818" points="332.85,217.8569,342.5958,216.4355,337.0782,215.1881,338.3256,209.6705,332.85,217.8569" style="stroke:#181818;stroke-width:1;"/><text fill="#000000" font-family="sans-serif" font-size="13" lengthAdjust="spacing" textLength="85.2363" x="403.46" y="184.2538">verwendet in</text></g><!--link DOC_0120 to DOC_0120_proc_1--><g class="link" data-entity-1="DOC_0120" data-entity-2="DOC_0120_proc_1" data-source-line="21" data-uid="lnk6" id="link_DOC_0120_DOC_0120_proc_1"><path codeLine="21" d="M605.39,141.5169 C651.83,170.7469 706.192,204.951 753.812,234.921" fill="none" id="DOC_0120-to-DOC_0120_proc_1" style="stroke:#181818;stroke-width:1;stroke-dasharray:7,7;"/><polygon fill="#181818" points="758.89,238.1169,753.4036,229.9377,754.6583,235.4536,749.1424,236.7084,758.89,238.1169" style="stroke:#181818;stroke-width:1;"/><text fill="#000000" font-family="sans-serif" font-size="13" lengthAdjust="spacing" textLength="91.6221" x="677.46" y="184.2538">eingebettet in</text></g><!--SRC=[TL3RJi9047tdA-O3eA4DqR0XzG4CmKj5CPZmqYpj53QqMx8xAwR6R_57VEF7d28IWl9sPixCd7E65EK80qce9UNIGWi63ttHzeDs8-7QrcLSb_3U08XaWGB6PlkLgHGrgKoj99M6gR4fAxGM1MFWCn5IfHrLJY-id1jCbffXu-FaR5pOHUplZoTBev8b2HX5awVnC_YUBvcuBJNX6xSF4wWj6RSYjrFEyhgNOPuAkAaN-cMALa2tswnrcZ0PTeuTdlC6yEWmp_5NFxuV3MC_zcKitVOJJMdgpBKOna4xwBGlWmjldMOSwl2bLYiypIRW5Sq6TOe4If_cNviouQ5UhmPiBmn_dd7EuX0jK-nnGgOiekjfSuzcKsPdpigYG9sn1iyBU548cTChKgLMQ0XIRln_7AgDifnDx_Wvaa4rHmDEft2dC4CZDLqTX_Myy4yG0QZq0dcTTdc_0G00]--></g></svg>