<svg xmlns="http://www.w3.org/2000/svg" xmlns:xlink="http://www.w3.org/1999/xlink" contentStyleType="text/css" data-diagram-type="CLASS" height="370px" preserveAspectRatio="none" style="width:984px;height:370px;background:#FFFFFF;" version="1.1" viewBox="0 0 984 370" width="984px" zoomAndPan="magnify"><title>Datenatlas - DTM:0080</title><defs/><g><g class="title" data-source-line="1"><text fill="#000000" font-family="sans-serif" font-size="14" font-weight="bold" lengthAdjust="spacing" textLength="181.166" x="394.7218" y="22.9951">Datenatlas - DTM:0080</text></g><!--class DTM_0080--><g class="entity" data-entity="DTM_0080" data-source-line="2" data-uid="ent0002" id="entity_DTM_0080"><rect fill="#F1F1F1" height="96.8906" rx="2.5" ry="2.5" style="stroke:#181818;stroke-width:0.5;" width="184.0127" x="314.42" y="44.2969"/><ellipse cx="365.1563" cy="60.2969" fill="#ADD1B2" rx="11" ry="11" style="stroke:#181818;stroke-width:1;"/><path d="M368.1251,65.9375 Q367.547,66.2344 366.9063,66.375 Q366.2657,66.5313 365.5626,66.5313 Q363.0626,66.5313 361.7345,64.8906 Q360.422,63.2344 360.422,60.1094 Q360.422,56.9844 361.7345,55.3281 Q363.0626,53.6719 365.5626,53.6719 Q366.2657,53.6719 366.9063,53.8281 Q367.5626,53.9844 368.1251,54.2813 L368.1251,57 Q367.5001,56.4219 366.9063,56.1563 Q366.3126,55.875 365.6876,55.875 Q364.3438,55.875 363.6563,56.9531 Q362.9688,58.0156 362.9688,60.1094 Q362.9688,62.2031 363.6563,63.2813 Q364.3438,64.3438 365.6876,64.3438 Q366.3126,64.3438 366.9063,64.0781 Q367.5001,63.7969 368.1251,63.2188 L368.1251,65.9375 Z " fill="#000000"/><text fill="#000000" font-family="sans-serif" font-size="14" lengthAdjust="spacing" textLength="74.04" x="385.6563" y="65.1436">DTM_0080</text><line style="stroke:#181818;stroke-width:0.5;" x1="315.42" x2="497.4327" y1="76.2969" y2="76.2969"/><text fill="#000000" font-family="sans-serif" font-size="14" lengthAdjust="spacing" textLength="115.2607" x="334.42" y="93.292">Name: G&#252;ltig Ab</text><text fill="#000000" font-family="sans-serif" font-size="14" lengthAdjust="spacing" textLength="66.6436" x="334.42" y="109.5889">Prozesse:</text><rect fill="none" height="6" style="stroke:#C82930;stroke-width:1;" width="6" x="322.42" y="119.5391"/><text fill="#000000" font-family="sans-serif" font-size="14" lengthAdjust="spacing" textLength="158.0127" x="334.42" y="125.8857">Stammdaten&#228;nderung</text><line style="stroke:#181818;stroke-width:0.5;" x1="315.42" x2="497.4327" y1="133.1875" y2="133.1875"/></g><!--class DTM_0080_msg_1--><g class="entity" data-entity="DTM_0080_msg_1" data-source-line="7" data-uid="ent0003" id="entity_DTM_0080_msg_1"><rect fill="#F1F1F1" height="145.7813" rx="2.5" ry="2.5" style="stroke:#181818;stroke-width:0.5;" width="296.8604" x="7" y="218.1869"/><ellipse cx="87.7974" cy="234.1869" fill="#ADD1B2" rx="11" ry="11" style="stroke:#181818;stroke-width:1;"/><path d="M90.7661,239.8275 Q90.188,240.1244 89.5474,240.265 Q88.9067,240.4213 88.2036,240.4213 Q85.7036,240.4213 84.3755,238.7806 Q83.063,237.1244 83.063,233.9994 Q83.063,230.8744 84.3755,229.2181 Q85.7036,227.5619 88.2036,227.5619 Q88.9067,227.5619 89.5474,227.7181 Q90.2036,227.8744 90.7661,228.1713 L90.7661,230.89 Q90.1411,230.3119 89.5474,230.0463 Q88.9536,229.765 88.3286,229.765 Q86.9849,229.765 86.2974,230.8431 Q85.6099,231.9056 85.6099,233.9994 Q85.6099,236.0931 86.2974,237.1713 Q86.9849,238.2338 88.3286,238.2338 Q88.9536,238.2338 89.5474,237.9681 Q90.1411,237.6869 90.7661,237.1088 L90.7661,239.8275 Z " fill="#000000"/><text fill="#000000" font-family="sans-serif" font-size="14" lengthAdjust="spacing" textLength="126.7656" x="108.2974" y="239.0336">DTM_0080_msg_1</text><line style="stroke:#181818;stroke-width:0.5;" x1="8" x2="302.8604" y1="250.1869" y2="250.1869"/><text fill="#000000" font-family="sans-serif" font-size="14" lengthAdjust="spacing" textLength="162.7227" x="13" y="267.182">Nachricht: PARTIN 1.0e</text><text fill="#000000" font-family="sans-serif" font-size="14" lengthAdjust="spacing" textLength="204.1143" x="13" y="283.4789">Kontext: Nachrichtenstruktur</text><text fill="#000000" font-family="sans-serif" font-size="14" lengthAdjust="spacing" textLength="110.5439" x="13" y="299.7757">Pflichtfeld: Nein</text><text fill="#000000" font-family="sans-serif" font-size="14" lengthAdjust="spacing" textLength="121.2559" x="13" y="316.0726">Codes: DTM, SG1</text><text fill="#000000" font-family="sans-serif" font-size="14" lengthAdjust="spacing" textLength="229.1064" x="13" y="332.3695">Prozesse: Stammdaten&#228;nderung</text><text fill="#000000" font-family="sans-serif" font-size="14" lengthAdjust="spacing" textLength="284.8604" x="13" y="348.6664">Quelle: PARTIN_MIG_1_0e_20241001.pdf</text><line style="stroke:#181818;stroke-width:0.5;" x1="8" x2="302.8604" y1="355.9681" y2="355.9681"/></g><!--class DTM_0080_proc_1--><g class="entity" data-entity="DTM_0080_proc_1" data-source-line="16" data-uid="ent0005" id="entity_DTM_0080_proc_1"><rect fill="#F1F1F1" height="88.8594" rx="2.5" ry="2.5" style="stroke:#181818;stroke-width:0.5;" width="638.3496" x="339.26" y="246.6469"/><ellipse cx="590.2585" cy="266.7797" fill="#ADD1B2" rx="11" ry="11" style="stroke:#181818;stroke-width:1;"/><path d="M593.2273,272.4203 Q592.6492,272.7172 592.0085,272.8578 Q591.3679,273.0141 590.6648,273.0141 Q588.1648,273.0141 586.8367,271.3734 Q585.5242,269.7172 585.5242,266.5922 Q585.5242,263.4672 586.8367,261.8109 Q588.1648,260.1547 590.6648,260.1547 Q591.3679,260.1547 592.0085,260.3109 Q592.6648,260.4672 593.2273,260.7641 L593.2273,263.4828 Q592.6023,262.9047 592.0085,262.6391 Q591.4148,262.3578 590.7898,262.3578 Q589.446,262.3578 588.7585,263.4359 Q588.071,264.4984 588.071,266.5922 Q588.071,268.6859 588.7585,269.7641 Q589.446,270.8266 590.7898,270.8266 Q591.4148,270.8266 592.0085,270.5609 Q592.6023,270.2797 593.2273,269.7016 L593.2273,272.4203 Z " fill="#000000"/><text fill="#000000" font-family="sans-serif" font-size="12" font-style="italic" lengthAdjust="spacing" textLength="61.0605" x="644.1545" y="262.7855">&#171;process&#187;</text><text fill="#000000" font-family="sans-serif" font-size="14" lengthAdjust="spacing" textLength="127.8525" x="610.7585" y="278.6107">DTM_0080_proc_1</text><line style="stroke:#181818;stroke-width:0.5;" x1="340.26" x2="976.6096" y1="286.9125" y2="286.9125"/><text fill="#000000" font-family="sans-serif" font-size="14" lengthAdjust="spacing" textLength="158.0127" x="345.26" y="303.9076">Stammdaten&#228;nderung</text><text fill="#000000" font-family="sans-serif" font-size="14" lengthAdjust="spacing" textLength="626.3496" x="345.26" y="320.2045">Zusammenfassung: Wie wird eine Stammdaten&#228;nderung an einer Marktlokation, wie z.B.</text><line style="stroke:#181818;stroke-width:0.5;" x1="340.26" x2="976.6096" y1="327.5063" y2="327.5063"/></g><!--link DTM_0080 to DTM_0080_msg_1--><g class="link" data-entity-1="DTM_0080" data-entity-2="DTM_0080_msg_1" data-source-line="15" data-uid="lnk4" id="link_DTM_0080_DTM_0080_msg_1"><path codeLine="15" d="M345.35,141.5169 C316.04,164.4469 285.0162,188.7105 252.4762,214.1605" fill="none" id="DTM_0080-to-DTM_0080_msg_1" style="stroke:#181818;stroke-width:1;"/><polygon fill="#181818" points="247.75,217.8569,257.3035,215.4631,251.6885,214.7765,252.375,209.1615,247.75,217.8569" style="stroke:#181818;stroke-width:1;"/><text fill="#000000" font-family="sans-serif" font-size="13" lengthAdjust="spacing" textLength="85.2363" x="304.43" y="184.2538">verwendet in</text></g><!--link DTM_0080 to DTM_0080_proc_1--><g class="link" data-entity-1="DTM_0080" data-entity-2="DTM_0080_proc_1" data-source-line="20" data-uid="lnk6" id="link_DTM_0080_DTM_0080_proc_1"><path codeLine="20" d="M467.75,141.5169 C508.84,173.5269 557.777,211.6593 597.707,242.7693" fill="none" id="DTM_0080-to-DTM_0080_proc_1" style="stroke:#181818;stroke-width:1;stroke-dasharray:7,7;"/><polygon fill="#181818" points="602.44,246.4569,597.7988,237.7701,598.4958,243.3839,592.882,244.0809,602.44,246.4569" style="stroke:#181818;stroke-width:1;"/><text fill="#000000" font-family="sans-serif" font-size="13" lengthAdjust="spacing" textLength="91.6221" x="526.43" y="184.2538">eingebettet in</text></g><!--SRC=[RP31QW8n48RlFiKyW2vPwQ44MR0LH8fYgr3e9SJTsJMOpKeoMukbRzF7wCqNwqIgYFMM-MVcd-yF6R888qteD5aTe0UZvLGASIywETSXbYgMyDa1cEaQ9OmFFvPC1SCLItFVx344bFm6Nb-GhkiY6Xw-NO6-TLNdwyfBrQ5IwPzZllOcNvE4-V1bEPb1cWZanbFZ23zOFa-W2-JR3RK-dYrjr4gq1O-WSQmzDWK66QzqOJ5EB-5kOW4yjsWjdawhwMIiKYLGzKN_BXKYJRP5oVJdF-ZrikiG4jxHxv0z2PZYAkZMDpaF3GRnmIHPTanzc-Qj3IoZAzc25Gcl1c5dV06S3syjWNR7deUfzXkopKQJQLoNjn3soKDo2PyasJym6TShN27HaVyN]--></g></svg>