<svg xmlns="http://www.w3.org/2000/svg" xmlns:xlink="http://www.w3.org/1999/xlink" contentStyleType="text/css" data-diagram-type="CLASS" height="370px" preserveAspectRatio="none" style="width:1430px;height:370px;background:#FFFFFF;" version="1.1" viewBox="0 0 1430 370" width="1430px" zoomAndPan="magnify"><title>Datenatlas - DTM:00</title><defs/><g><g class="title" data-source-line="1"><text fill="#000000" font-family="sans-serif" font-size="14" font-weight="bold" lengthAdjust="spacing" textLength="161.6836" x="627.4664" y="22.9951">Datenatlas - DTM:00</text></g><!--class DTM_00--><g class="entity" data-entity="DTM_00" data-source-line="2" data-uid="ent0002" id="entity_DTM_00"><rect fill="#F1F1F1" height="96.8906" rx="2.5" ry="2.5" style="stroke:#181818;stroke-width:0.5;" width="345.6758" x="314.46" y="44.2969"/><ellipse cx="454.9351" cy="60.2969" fill="#ADD1B2" rx="11" ry="11" style="stroke:#181818;stroke-width:1;"/><path d="M457.9038,65.9375 Q457.3257,66.2344 456.6851,66.375 Q456.0445,66.5313 455.3413,66.5313 Q452.8413,66.5313 451.5132,64.8906 Q450.2007,63.2344 450.2007,60.1094 Q450.2007,56.9844 451.5132,55.3281 Q452.8413,53.6719 455.3413,53.6719 Q456.0445,53.6719 456.6851,53.8281 Q457.3413,53.9844 457.9038,54.2813 L457.9038,57 Q457.2788,56.4219 456.6851,56.1563 Q456.0913,55.875 455.4663,55.875 Q454.1226,55.875 453.4351,56.9531 Q452.7476,58.0156 452.7476,60.1094 Q452.7476,62.2031 453.4351,63.2813 Q454.1226,64.3438 455.4663,64.3438 Q456.0913,64.3438 456.6851,64.0781 Q457.2788,63.7969 457.9038,63.2188 L457.9038,65.9375 Z " fill="#000000"/><text fill="#000000" font-family="sans-serif" font-size="14" lengthAdjust="spacing" textLength="56.2256" x="475.4351" y="65.1436">DTM_00</text><line style="stroke:#181818;stroke-width:0.5;" x1="315.46" x2="659.1358" y1="76.2969" y2="76.2969"/><text fill="#000000" font-family="sans-serif" font-size="14" lengthAdjust="spacing" textLength="319.6758" x="334.46" y="93.292">Name: Formatkennzeichen f&#252;r Datum/Uhrzeit</text><text fill="#000000" font-family="sans-serif" font-size="14" lengthAdjust="spacing" textLength="66.6436" x="334.46" y="109.5889">Prozesse:</text><rect fill="none" height="6" style="stroke:#C82930;stroke-width:1;" width="6" x="322.46" y="119.5391"/><text fill="#000000" font-family="sans-serif" font-size="14" lengthAdjust="spacing" textLength="180.3457" x="334.46" y="125.8857">Netznutzungsabrechnung</text><line style="stroke:#181818;stroke-width:0.5;" x1="315.46" x2="659.1358" y1="133.1875" y2="133.1875"/></g><!--class DTM_00_msg_1--><g class="entity" data-entity="DTM_00_msg_1" data-source-line="7" data-uid="ent0003" id="entity_DTM_00_msg_1"><rect fill="#F1F1F1" height="129.4844" rx="2.5" ry="2.5" style="stroke:#181818;stroke-width:0.5;" width="296.5869" x="7" y="226.3369"/><ellipse cx="96.5679" cy="242.3369" fill="#ADD1B2" rx="11" ry="11" style="stroke:#181818;stroke-width:1;"/><path d="M99.5366,247.9775 Q98.9585,248.2744 98.3179,248.415 Q97.6772,248.5713 96.9741,248.5713 Q94.4741,248.5713 93.146,246.9306 Q91.8335,245.2744 91.8335,242.1494 Q91.8335,239.0244 93.146,237.3681 Q94.4741,235.7119 96.9741,235.7119 Q97.6772,235.7119 98.3179,235.8681 Q98.9741,236.0244 99.5366,236.3213 L99.5366,239.04 Q98.9116,238.4619 98.3179,238.1963 Q97.7241,237.915 97.0991,237.915 Q95.7554,237.915 95.0679,238.9931 Q94.3804,240.0556 94.3804,242.1494 Q94.3804,244.2431 95.0679,245.3213 Q95.7554,246.3838 97.0991,246.3838 Q97.7241,246.3838 98.3179,246.1181 Q98.9116,245.8369 99.5366,245.2588 L99.5366,247.9775 Z " fill="#000000"/><text fill="#000000" font-family="sans-serif" font-size="14" lengthAdjust="spacing" textLength="108.9512" x="117.0679" y="247.1836">DTM_00_msg_1</text><line style="stroke:#181818;stroke-width:0.5;" x1="8" x2="302.5869" y1="258.3369" y2="258.3369"/><text fill="#000000" font-family="sans-serif" font-size="14" lengthAdjust="spacing" textLength="162.4492" x="13" y="275.332">Nachricht: APERAK 2.1i</text><text fill="#000000" font-family="sans-serif" font-size="14" lengthAdjust="spacing" textLength="123.0605" x="13" y="291.6289">Kontext: Beispiel:</text><text fill="#000000" font-family="sans-serif" font-size="14" lengthAdjust="spacing" textLength="91.4033" x="13" y="307.9257">Pflichtfeld: Ja</text><text fill="#000000" font-family="sans-serif" font-size="14" lengthAdjust="spacing" textLength="261.8164" x="13" y="324.2226">Codes: 00, 06, 137, 19, 303, 31, DTM</text><text fill="#000000" font-family="sans-serif" font-size="14" lengthAdjust="spacing" textLength="284.5869" x="13" y="340.5195">Quelle: APERAK_MIG_2_1i_20240619.pdf</text><line style="stroke:#181818;stroke-width:0.5;" x1="8" x2="302.5869" y1="347.8213" y2="347.8213"/></g><!--class DTM_00_msg_2--><g class="entity" data-entity="DTM_00_msg_2" data-source-line="15" data-uid="ent0005" id="entity_DTM_00_msg_2"><rect fill="#F1F1F1" height="145.7813" rx="2.5" ry="2.5" style="stroke:#181818;stroke-width:0.5;" width="296.4365" x="339.08" y="218.1869"/><ellipse cx="428.5727" cy="234.1869" fill="#ADD1B2" rx="11" ry="11" style="stroke:#181818;stroke-width:1;"/><path d="M431.5414,239.8275 Q430.9633,240.1244 430.3227,240.265 Q429.6821,240.4213 428.9789,240.4213 Q426.4789,240.4213 425.1508,238.7806 Q423.8383,237.1244 423.8383,233.9994 Q423.8383,230.8744 425.1508,229.2181 Q426.4789,227.5619 428.9789,227.5619 Q429.6821,227.5619 430.3227,227.7181 Q430.9789,227.8744 431.5414,228.1713 L431.5414,230.89 Q430.9164,230.3119 430.3227,230.0463 Q429.7289,229.765 429.1039,229.765 Q427.7602,229.765 427.0727,230.8431 Q426.3852,231.9056 426.3852,233.9994 Q426.3852,236.0931 427.0727,237.1713 Q427.7602,238.2338 429.1039,238.2338 Q429.7289,238.2338 430.3227,237.9681 Q430.9164,237.6869 431.5414,237.1088 L431.5414,239.8275 Z " fill="#000000"/><text fill="#000000" font-family="sans-serif" font-size="14" lengthAdjust="spacing" textLength="108.9512" x="449.0727" y="239.0336">DTM_00_msg_2</text><line style="stroke:#181818;stroke-width:0.5;" x1="340.08" x2="634.5165" y1="250.1869" y2="250.1869"/><text fill="#000000" font-family="sans-serif" font-size="14" lengthAdjust="spacing" textLength="162.2988" x="345.08" y="267.182">Nachricht: PRICAT 2.0d</text><text fill="#000000" font-family="sans-serif" font-size="14" lengthAdjust="spacing" textLength="123.0605" x="345.08" y="283.4789">Kontext: Beispiel:</text><text fill="#000000" font-family="sans-serif" font-size="14" lengthAdjust="spacing" textLength="91.4033" x="345.08" y="299.7757">Pflichtfeld: Ja</text><text fill="#000000" font-family="sans-serif" font-size="14" lengthAdjust="spacing" textLength="261.8164" x="345.08" y="316.0726">Codes: 00, 06, 157, 19, 303, 35, DTM</text><text fill="#000000" font-family="sans-serif" font-size="14" lengthAdjust="spacing" textLength="251.4395" x="345.08" y="332.3695">Prozesse: Netznutzungsabrechnung</text><text fill="#000000" font-family="sans-serif" font-size="14" lengthAdjust="spacing" textLength="284.4365" x="345.08" y="348.6664">Quelle: PRICAT_MIG_2_0d_20240619.pdf</text><line style="stroke:#181818;stroke-width:0.5;" x1="340.08" x2="634.5165" y1="355.9681" y2="355.9681"/></g><!--class DTM_00_proc_1--><g class="entity" data-entity="DTM_00_proc_1" data-source-line="24" data-uid="ent0007" id="entity_DTM_00_proc_1"><rect fill="#F1F1F1" height="105.1563" rx="2.5" ry="2.5" style="stroke:#181818;stroke-width:0.5;" width="752.6465" x="670.97" y="238.4969"/><ellipse cx="988.0242" cy="258.6297" fill="#ADD1B2" rx="11" ry="11" style="stroke:#181818;stroke-width:1;"/><path d="M990.9929,264.2703 Q990.4148,264.5672 989.7742,264.7078 Q989.1336,264.8641 988.4304,264.8641 Q985.9304,264.8641 984.6023,263.2234 Q983.2898,261.5672 983.2898,258.4422 Q983.2898,255.3172 984.6023,253.6609 Q985.9304,252.0047 988.4304,252.0047 Q989.1336,252.0047 989.7742,252.1609 Q990.4304,252.3172 990.9929,252.6141 L990.9929,255.3328 Q990.3679,254.7547 989.7742,254.4891 Q989.1804,254.2078 988.5554,254.2078 Q987.2117,254.2078 986.5242,255.2859 Q985.8367,256.3484 985.8367,258.4422 Q985.8367,260.5359 986.5242,261.6141 Q987.2117,262.6766 988.5554,262.6766 Q989.1804,262.6766 989.7742,262.4109 Q990.3679,262.1297 990.9929,261.5516 L990.9929,264.2703 Z " fill="#000000"/><text fill="#000000" font-family="sans-serif" font-size="12" font-style="italic" lengthAdjust="spacing" textLength="61.0605" x="1033.013" y="254.6355">&#171;process&#187;</text><text fill="#000000" font-family="sans-serif" font-size="14" lengthAdjust="spacing" textLength="110.0381" x="1008.5242" y="270.4607">DTM_00_proc_1</text><line style="stroke:#181818;stroke-width:0.5;" x1="671.97" x2="1422.6165" y1="278.7625" y2="278.7625"/><text fill="#000000" font-family="sans-serif" font-size="14" lengthAdjust="spacing" textLength="180.3457" x="676.97" y="295.7576">Netznutzungsabrechnung</text><text fill="#000000" font-family="sans-serif" font-size="14" lengthAdjust="spacing" textLength="218.0938" x="676.97" y="312.0545">Gesetze: StromNEV, StromNZV</text><text fill="#000000" font-family="sans-serif" font-size="14" lengthAdjust="spacing" textLength="740.6465" x="676.97" y="328.3514">Zusammenfassung: Wie funktioniert die Netznutzungsabrechnung zwischen Netzbetreiber und Lieferant?</text><line style="stroke:#181818;stroke-width:0.5;" x1="671.97" x2="1422.6165" y1="335.6531" y2="335.6531"/></g><!--link DTM_00 to DTM_00_msg_1--><g class="link" data-entity-1="DTM_00" data-entity-2="DTM_00_msg_1" data-source-line="14" data-uid="lnk4" id="link_DTM_00_DTM_00_msg_1"><path codeLine="14" d="M406.5,141.5169 C363.6,166.8869 315.4543,195.3623 268.9943,222.8423" fill="none" id="DTM_00-to-DTM_00_msg_1" style="stroke:#181818;stroke-width:1;"/><polygon fill="#181818" points="263.83,225.8969,273.6128,224.7579,268.1336,223.3514,269.54,217.8722,263.83,225.8969" style="stroke:#181818;stroke-width:1;"/><text fill="#000000" font-family="sans-serif" font-size="13" lengthAdjust="spacing" textLength="85.2363" x="352.29" y="184.2538">verwendet in</text></g><!--link DTM_00 to DTM_00_msg_2--><g class="link" data-entity-1="DTM_00" data-entity-2="DTM_00_msg_2" data-source-line="23" data-uid="lnk6" id="link_DTM_00_DTM_00_msg_2"><path codeLine="23" d="M487.29,141.5169 C487.29,164.4469 487.29,186.4069 487.29,211.8569" fill="none" id="DTM_00-to-DTM_00_msg_2" style="stroke:#181818;stroke-width:1;"/><polygon fill="#181818" points="487.29,217.8569,491.29,208.8569,487.29,212.8569,483.29,208.8569,487.29,217.8569" style="stroke:#181818;stroke-width:1;"/><text fill="#000000" font-family="sans-serif" font-size="13" lengthAdjust="spacing" textLength="85.2363" x="488.29" y="184.2538">verwendet in</text></g><!--link DTM_00 to DTM_00_proc_1--><g class="link" data-entity-1="DTM_00" data-entity-2="DTM_00_proc_1" data-source-line="29" data-uid="lnk8" id="link_DTM_00_DTM_00_proc_1"><path codeLine="29" d="M623.93,141.6469 C707.14,170.8169 807.8179,206.1219 893.1079,236.0219" fill="none" id="DTM_00-to-DTM_00_proc_1" style="stroke:#181818;stroke-width:1;stroke-dasharray:7,7;"/><polygon fill="#181818" points="898.77,238.0069,891.6001,231.2547,894.0515,236.3527,888.9535,238.8042,898.77,238.0069" style="stroke:#181818;stroke-width:1;"/><text fill="#000000" font-family="sans-serif" font-size="13" lengthAdjust="spacing" textLength="91.6221" x="752.29" y="184.2538">eingebettet in</text></g><!--SRC=[dPBRJi9048RlUOfvW8BReXWt18CdWWX1F2NUD4ixXOtjbknEnTJuPjxvOauLDNYAyMOpEpCx__zDbZIb20UAq2XAbOCw79mFfH2rY6-kkeH2m7qDOAGob72KsqpH3HfJeexcQ21vUhJLX2BRk9XRpX8tZsrUedCeEGOUEa8gJK5bOMPEJIr6SyDXxM5D9ipSBFHNOj7SydoIq1qVJhe321g-vi8WDuHtdDv3xHOQqqfXdAHLRu9fBE5OSMO_Zz594C83qVB0RsxpiUD1KpJvyBrAaTjE2qnJVDC8X_rU68I-3WCHR8gMlzDOn0cRN6sXNk-iEvLmYtQ99aO2RRwo19zPnfF-VlUSMKJyVvQjDPQjDvRtbV-qx0_SLnihN17_3JVu5NTXyuWtqcvN0TleT5xPVxBIGySbzd96Diz6XvVUAhg-vEfruLIMeKbOWVibN6c4f30tf7EZqHB4dFX-E9HBxLv-PbMV8bdKKxHGc1XED2PebQ7T3yn6e_C9GW9gCqD-IY-apm00]--></g></svg>