<svg xmlns="http://www.w3.org/2000/svg" xmlns:xlink="http://www.w3.org/1999/xlink" contentStyleType="text/css" data-diagram-type="CLASS" height="452px" preserveAspectRatio="none" style="width:9522px;height:452px;background:#FFFFFF;" version="1.1" viewBox="0 0 9522 452" width="9522px" zoomAndPan="magnify"><title>Datenatlas - DTM:C507</title><defs/><g><g class="title" data-source-line="1"><text fill="#000000" font-family="sans-serif" font-size="14" font-weight="bold" lengthAdjust="spacing" textLength="181.6992" x="4663.4002" y="22.9951">Datenatlas - DTM:C507</text></g><!--class DTM_C507--><g class="entity" data-entity="DTM_C507" data-source-line="2" data-uid="ent0002" id="entity_DTM_C507"><rect fill="#F1F1F1" height="178.375" rx="2.5" ry="2.5" style="stroke:#181818;stroke-width:0.5;" width="374.2021" x="3786.23" y="44.2969"/><ellipse cx="3931.627" cy="60.2969" fill="#ADD1B2" rx="11" ry="11" style="stroke:#181818;stroke-width:1;"/><path d="M3934.5957,65.9375 Q3934.0176,66.2344 3933.377,66.375 Q3932.7363,66.5313 3932.0332,66.5313 Q3929.5332,66.5313 3928.2051,64.8906 Q3926.8926,63.2344 3926.8926,60.1094 Q3926.8926,56.9844 3928.2051,55.3281 Q3929.5332,53.6719 3932.0332,53.6719 Q3932.7363,53.6719 3933.377,53.8281 Q3934.0332,53.9844 3934.5957,54.2813 L3934.5957,57 Q3933.9707,56.4219 3933.377,56.1563 Q3932.7832,55.875 3932.1582,55.875 Q3930.8145,55.875 3930.127,56.9531 Q3929.4395,58.0156 3929.4395,60.1094 Q3929.4395,62.2031 3930.127,63.2813 Q3930.8145,64.3438 3932.1582,64.3438 Q3932.7832,64.3438 3933.377,64.0781 Q3933.9707,63.7969 3934.5957,63.2188 L3934.5957,65.9375 Z " fill="#000000"/><text fill="#000000" font-family="sans-serif" font-size="14" lengthAdjust="spacing" textLength="74.9082" x="3952.127" y="65.1436">DTM_C507</text><line style="stroke:#181818;stroke-width:0.5;" x1="3787.23" x2="4159.4321" y1="76.2969" y2="76.2969"/><text fill="#000000" font-family="sans-serif" font-size="14" lengthAdjust="spacing" textLength="236.1816" x="3806.23" y="93.292">Name: Datum/Uhrzeit/Zeitspanne</text><text fill="#000000" font-family="sans-serif" font-size="14" lengthAdjust="spacing" textLength="66.6436" x="3806.23" y="109.5889">Prozesse:</text><rect fill="none" height="6" style="stroke:#C82930;stroke-width:1;" width="6" x="3794.23" y="119.5391"/><text fill="#000000" font-family="sans-serif" font-size="14" lengthAdjust="spacing" textLength="180.3457" x="3806.23" y="125.8857">Netznutzungsabrechnung</text><rect fill="none" height="6" style="stroke:#C82930;stroke-width:1;" width="6" x="3794.23" y="135.8359"/><text fill="#000000" font-family="sans-serif" font-size="14" lengthAdjust="spacing" textLength="223.2822" x="3806.23" y="142.1826">Messstellenbetriebsabrechnung</text><rect fill="none" height="6" style="stroke:#C82930;stroke-width:1;" width="6" x="3794.23" y="152.1328"/><text fill="#000000" font-family="sans-serif" font-size="14" lengthAdjust="spacing" textLength="334.3525" x="3806.23" y="158.4795">Anforderung und &#220;bermittlung von Messwerten</text><rect fill="none" height="6" style="stroke:#C82930;stroke-width:1;" width="6" x="3794.23" y="168.4297"/><text fill="#000000" font-family="sans-serif" font-size="14" lengthAdjust="spacing" textLength="317.9668" x="3806.23" y="174.7764">Sperrung und Entsperrung eines Anschlusses</text><rect fill="none" height="6" style="stroke:#C82930;stroke-width:1;" width="6" x="3794.23" y="184.7266"/><text fill="#000000" font-family="sans-serif" font-size="14" lengthAdjust="spacing" textLength="158.0127" x="3806.23" y="191.0732">Stammdaten&#228;nderung</text><line style="stroke:#181818;stroke-width:0.5;" x1="3787.23" x2="4159.4321" y1="198.375" y2="198.375"/><rect fill="#F24D5C" height="6" style="stroke:#C82930;stroke-width:1;" width="6" x="3794.23" y="209.0234"/><text fill="#000000" font-family="sans-serif" font-size="14" lengthAdjust="spacing" textLength="348.2021" x="3806.23" y="215.3701">Bestellung einer technischen Konfiguration (MSB)</text></g><!--class DTM_C507_msg_1--><g class="entity" data-entity="DTM_C507_msg_1" data-source-line="12" data-uid="ent0003" id="entity_DTM_C507_msg_1"><rect fill="#F1F1F1" height="145.7813" rx="2.5" ry="2.5" style="stroke:#181818;stroke-width:0.5;" width="600.6563" x="7" y="299.6769"/><ellipse cx="239.2612" cy="315.6769" fill="#ADD1B2" rx="11" ry="11" style="stroke:#181818;stroke-width:1;"/><path d="M242.23,321.3175 Q241.6519,321.6144 241.0112,321.755 Q240.3706,321.9113 239.6675,321.9113 Q237.1675,321.9113 235.8394,320.2706 Q234.5269,318.6144 234.5269,315.4894 Q234.5269,312.3644 235.8394,310.7081 Q237.1675,309.0519 239.6675,309.0519 Q240.3706,309.0519 241.0112,309.2081 Q241.6675,309.3644 242.23,309.6613 L242.23,312.38 Q241.605,311.8019 241.0112,311.5363 Q240.4175,311.255 239.7925,311.255 Q238.4487,311.255 237.7612,312.3331 Q237.0737,313.3956 237.0737,315.4894 Q237.0737,317.5831 237.7612,318.6613 Q238.4487,319.7238 239.7925,319.7238 Q240.4175,319.7238 241.0112,319.4581 Q241.605,319.1769 242.23,318.5988 L242.23,321.3175 Z " fill="#000000"/><text fill="#000000" font-family="sans-serif" font-size="14" lengthAdjust="spacing" textLength="127.6338" x="259.7612" y="320.5236">DTM_C507_msg_1</text><line style="stroke:#181818;stroke-width:0.5;" x1="8" x2="606.6563" y1="331.6769" y2="331.6769"/><text fill="#000000" font-family="sans-serif" font-size="14" lengthAdjust="spacing" textLength="161.998" x="13" y="348.672">Nachricht: INSRPT 1.1a</text><text fill="#000000" font-family="sans-serif" font-size="14" lengthAdjust="spacing" textLength="494.0264" x="13" y="364.9689">Kontext: 0200   SG7   C   999   R   999   2   LIN - DTM - STS - FTX - SG8</text><text fill="#000000" font-family="sans-serif" font-size="14" lengthAdjust="spacing" textLength="110.5439" x="13" y="381.2657">Pflichtfeld: Nein</text><text fill="#000000" font-family="sans-serif" font-size="14" lengthAdjust="spacing" textLength="588.6563" x="13" y="397.5626">Codes: 102, 19, 292, 303, 35, 99, 999, DTM, FTX, LIN, OCR, SG, SG3, SG7, SG8, STS</text><text fill="#000000" font-family="sans-serif" font-size="14" lengthAdjust="spacing" textLength="251.4395" x="13" y="413.8595">Prozesse: Netznutzungsabrechnung</text><text fill="#000000" font-family="sans-serif" font-size="14" lengthAdjust="spacing" textLength="284.1357" x="13" y="430.1564">Quelle: INSRPT_MIG_1_1a_20211001.pdf</text><line style="stroke:#181818;stroke-width:0.5;" x1="8" x2="606.6563" y1="437.4581" y2="437.4581"/></g><!--class DTM_C507_msg_2--><g class="entity" data-entity="DTM_C507_msg_2" data-source-line="21" data-uid="ent0005" id="entity_DTM_C507_msg_2"><rect fill="#F1F1F1" height="145.7813" rx="2.5" ry="2.5" style="stroke:#181818;stroke-width:0.5;" width="495.6221" x="642.52" y="299.6769"/><ellipse cx="822.2641" cy="315.6769" fill="#ADD1B2" rx="11" ry="11" style="stroke:#181818;stroke-width:1;"/><path d="M825.2329,321.3175 Q824.6548,321.6144 824.0141,321.755 Q823.3735,321.9113 822.6704,321.9113 Q820.1704,321.9113 818.8423,320.2706 Q817.5298,318.6144 817.5298,315.4894 Q817.5298,312.3644 818.8423,310.7081 Q820.1704,309.0519 822.6704,309.0519 Q823.3735,309.0519 824.0141,309.2081 Q824.6704,309.3644 825.2329,309.6613 L825.2329,312.38 Q824.6079,311.8019 824.0141,311.5363 Q823.4204,311.255 822.7954,311.255 Q821.4516,311.255 820.7641,312.3331 Q820.0766,313.3956 820.0766,315.4894 Q820.0766,317.5831 820.7641,318.6613 Q821.4516,319.7238 822.7954,319.7238 Q823.4204,319.7238 824.0141,319.4581 Q824.6079,319.1769 825.2329,318.5988 L825.2329,321.3175 Z " fill="#000000"/><text fill="#000000" font-family="sans-serif" font-size="14" lengthAdjust="spacing" textLength="127.6338" x="842.7641" y="320.5236">DTM_C507_msg_2</text><line style="stroke:#181818;stroke-width:0.5;" x1="643.52" x2="1137.1421" y1="331.6769" y2="331.6769"/><text fill="#000000" font-family="sans-serif" font-size="14" lengthAdjust="spacing" textLength="161.1982" x="648.52" y="348.672">Nachricht: INVOIC 2.8d</text><text fill="#000000" font-family="sans-serif" font-size="14" lengthAdjust="spacing" textLength="170.3447" x="648.52" y="364.9689">Kontext: Segmentlayout</text><text fill="#000000" font-family="sans-serif" font-size="14" lengthAdjust="spacing" textLength="91.4033" x="648.52" y="381.2657">Pflichtfeld: Ja</text><text fill="#000000" font-family="sans-serif" font-size="14" lengthAdjust="spacing" textLength="221.7783" x="648.52" y="397.5626">Codes: 303, 35, DTM, OCR, Z11</text><text fill="#000000" font-family="sans-serif" font-size="14" lengthAdjust="spacing" textLength="483.6221" x="648.52" y="413.8595">Prozesse: Netznutzungsabrechnung, Messstellenbetriebsabrechnung</text><text fill="#000000" font-family="sans-serif" font-size="14" lengthAdjust="spacing" textLength="396.6074" x="648.52" y="430.1564">Quelle: INVOIC_MIG_2.8d_Fehlerkorrektur_20250131.pdf</text><line style="stroke:#181818;stroke-width:0.5;" x1="643.52" x2="1137.1421" y1="437.4581" y2="437.4581"/></g><!--class DTM_C507_msg_3--><g class="entity" data-entity="DTM_C507_msg_3" data-source-line="30" data-uid="ent0007" id="entity_DTM_C507_msg_3"><rect fill="#F1F1F1" height="145.7813" rx="2.5" ry="2.5" style="stroke:#181818;stroke-width:0.5;" width="495.6221" x="1173.52" y="299.6769"/><ellipse cx="1353.2641" cy="315.6769" fill="#ADD1B2" rx="11" ry="11" style="stroke:#181818;stroke-width:1;"/><path d="M1356.2329,321.3175 Q1355.6548,321.6144 1355.0141,321.755 Q1354.3735,321.9113 1353.6704,321.9113 Q1351.1704,321.9113 1349.8423,320.2706 Q1348.5298,318.6144 1348.5298,315.4894 Q1348.5298,312.3644 1349.8423,310.7081 Q1351.1704,309.0519 1353.6704,309.0519 Q1354.3735,309.0519 1355.0141,309.2081 Q1355.6704,309.3644 1356.2329,309.6613 L1356.2329,312.38 Q1355.6079,311.8019 1355.0141,311.5363 Q1354.4204,311.255 1353.7954,311.255 Q1352.4516,311.255 1351.7641,312.3331 Q1351.0766,313.3956 1351.0766,315.4894 Q1351.0766,317.5831 1351.7641,318.6613 Q1352.4516,319.7238 1353.7954,319.7238 Q1354.4204,319.7238 1355.0141,319.4581 Q1355.6079,319.1769 1356.2329,318.5988 L1356.2329,321.3175 Z " fill="#000000"/><text fill="#000000" font-family="sans-serif" font-size="14" lengthAdjust="spacing" textLength="127.6338" x="1373.7641" y="320.5236">DTM_C507_msg_3</text><line style="stroke:#181818;stroke-width:0.5;" x1="1174.52" x2="1668.1421" y1="331.6769" y2="331.6769"/><text fill="#000000" font-family="sans-serif" font-size="14" lengthAdjust="spacing" textLength="165.6484" x="1179.52" y="348.672">Nachricht: INVOIC 2.8d.</text><text fill="#000000" font-family="sans-serif" font-size="14" lengthAdjust="spacing" textLength="123.0605" x="1179.52" y="364.9689">Kontext: Beispiel:</text><text fill="#000000" font-family="sans-serif" font-size="14" lengthAdjust="spacing" textLength="110.5439" x="1179.52" y="381.2657">Pflichtfeld: Nein</text><text fill="#000000" font-family="sans-serif" font-size="14" lengthAdjust="spacing" textLength="258.6377" x="1179.52" y="397.5626">Codes: 171, 303, 35, DTM, OCR, SG1</text><text fill="#000000" font-family="sans-serif" font-size="14" lengthAdjust="spacing" textLength="483.6221" x="1179.52" y="413.8595">Prozesse: Netznutzungsabrechnung, Messstellenbetriebsabrechnung</text><text fill="#000000" font-family="sans-serif" font-size="14" lengthAdjust="spacing" textLength="290.3359" x="1179.52" y="430.1564">Quelle: INVOIC_MIG_2_8d__20240619.pdf</text><line style="stroke:#181818;stroke-width:0.5;" x1="1174.52" x2="1668.1421" y1="437.4581" y2="437.4581"/></g><!--class DTM_C507_msg_4--><g class="entity" data-entity="DTM_C507_msg_4" data-source-line="39" data-uid="ent0009" id="entity_DTM_C507_msg_4"><rect fill="#F1F1F1" height="145.7813" rx="2.5" ry="2.5" style="stroke:#181818;stroke-width:0.5;" width="504.9736" x="1703.84" y="299.6769"/><ellipse cx="1888.2599" cy="315.6769" fill="#ADD1B2" rx="11" ry="11" style="stroke:#181818;stroke-width:1;"/><path d="M1891.2287,321.3175 Q1890.6505,321.6144 1890.0099,321.755 Q1889.3693,321.9113 1888.6662,321.9113 Q1886.1662,321.9113 1884.838,320.2706 Q1883.5255,318.6144 1883.5255,315.4894 Q1883.5255,312.3644 1884.838,310.7081 Q1886.1662,309.0519 1888.6662,309.0519 Q1889.3693,309.0519 1890.0099,309.2081 Q1890.6662,309.3644 1891.2287,309.6613 L1891.2287,312.38 Q1890.6037,311.8019 1890.0099,311.5363 Q1889.4162,311.255 1888.7912,311.255 Q1887.4474,311.255 1886.7599,312.3331 Q1886.0724,313.3956 1886.0724,315.4894 Q1886.0724,317.5831 1886.7599,318.6613 Q1887.4474,319.7238 1888.7912,319.7238 Q1889.4162,319.7238 1890.0099,319.4581 Q1890.6037,319.1769 1891.2287,318.5988 L1891.2287,321.3175 Z " fill="#000000"/><text fill="#000000" font-family="sans-serif" font-size="14" lengthAdjust="spacing" textLength="127.6338" x="1908.7599" y="320.5236">DTM_C507_msg_4</text><line style="stroke:#181818;stroke-width:0.5;" x1="1704.84" x2="2207.8136" y1="331.6769" y2="331.6769"/><text fill="#000000" font-family="sans-serif" font-size="14" lengthAdjust="spacing" textLength="172.0264" x="1709.84" y="348.672">Nachricht: MSCONS 2.4c</text><text fill="#000000" font-family="sans-serif" font-size="14" lengthAdjust="spacing" textLength="170.3447" x="1709.84" y="364.9689">Kontext: Segmentlayout</text><text fill="#000000" font-family="sans-serif" font-size="14" lengthAdjust="spacing" textLength="110.5439" x="1709.84" y="381.2657">Pflichtfeld: Nein</text><text fill="#000000" font-family="sans-serif" font-size="14" lengthAdjust="spacing" textLength="492.9736" x="1709.84" y="397.5626">Codes: 102, 306, 34, 35, 370, 610, DTM, EDI, OCR, SG, SG5, SG6, SG9</text><text fill="#000000" font-family="sans-serif" font-size="14" lengthAdjust="spacing" textLength="405.4463" x="1709.84" y="413.8595">Prozesse: Anforderung und &#220;bermittlung von Messwerten</text><text fill="#000000" font-family="sans-serif" font-size="14" lengthAdjust="spacing" textLength="294.1641" x="1709.84" y="430.1564">Quelle: MSCONS_MIG_2_4c_20231024.pdf</text><line style="stroke:#181818;stroke-width:0.5;" x1="1704.84" x2="2207.8136" y1="437.4581" y2="437.4581"/></g><!--class DTM_C507_msg_5--><g class="entity" data-entity="DTM_C507_msg_5" data-source-line="48" data-uid="ent0011" id="entity_DTM_C507_msg_5"><rect fill="#F1F1F1" height="145.7813" rx="2.5" ry="2.5" style="stroke:#181818;stroke-width:0.5;" width="758.1631" x="2244.25" y="299.6769"/><ellipse cx="2555.2646" cy="315.6769" fill="#ADD1B2" rx="11" ry="11" style="stroke:#181818;stroke-width:1;"/><path d="M2558.2334,321.3175 Q2557.6553,321.6144 2557.0146,321.755 Q2556.374,321.9113 2555.6709,321.9113 Q2553.1709,321.9113 2551.8428,320.2706 Q2550.5303,318.6144 2550.5303,315.4894 Q2550.5303,312.3644 2551.8428,310.7081 Q2553.1709,309.0519 2555.6709,309.0519 Q2556.374,309.0519 2557.0146,309.2081 Q2557.6709,309.3644 2558.2334,309.6613 L2558.2334,312.38 Q2557.6084,311.8019 2557.0146,311.5363 Q2556.4209,311.255 2555.7959,311.255 Q2554.4521,311.255 2553.7646,312.3331 Q2553.0771,313.3956 2553.0771,315.4894 Q2553.0771,317.5831 2553.7646,318.6613 Q2554.4521,319.7238 2555.7959,319.7238 Q2556.4209,319.7238 2557.0146,319.4581 Q2557.6084,319.1769 2558.2334,318.5988 L2558.2334,321.3175 Z " fill="#000000"/><text fill="#000000" font-family="sans-serif" font-size="14" lengthAdjust="spacing" textLength="127.6338" x="2575.7646" y="320.5236">DTM_C507_msg_5</text><line style="stroke:#181818;stroke-width:0.5;" x1="2245.25" x2="3001.4131" y1="331.6769" y2="331.6769"/><text fill="#000000" font-family="sans-serif" font-size="14" lengthAdjust="spacing" textLength="161.793" x="2250.25" y="348.672">Nachricht: ORDRSP 1.4</text><text fill="#000000" font-family="sans-serif" font-size="14" lengthAdjust="spacing" textLength="123.0605" x="2250.25" y="364.9689">Kontext: Beispiel:</text><text fill="#000000" font-family="sans-serif" font-size="14" lengthAdjust="spacing" textLength="91.4033" x="2250.25" y="381.2657">Pflichtfeld: Ja</text><text fill="#000000" font-family="sans-serif" font-size="14" lengthAdjust="spacing" textLength="221.0947" x="2250.25" y="397.5626">Codes: 292, 303, 35, DTM, OCR</text><text fill="#000000" font-family="sans-serif" font-size="14" lengthAdjust="spacing" textLength="283.9307" x="2250.25" y="413.8595">Quelle: ORDRSP_MIG_1_4_20240619.pdf</text><line style="stroke:#181818;stroke-width:0.5;" x1="2245.25" x2="3001.4131" y1="421.1613" y2="421.1613"/><text fill="#000000" font-family="sans-serif" font-size="14" lengthAdjust="spacing" textLength="746.1631" x="2250.25" y="438.1564">Prozesse: Bestellung einer technischen Konfiguration (MSB), Sperrung und Entsperrung eines Anschlusses</text></g><!--class DTM_C507_msg_6--><g class="entity" data-entity="DTM_C507_msg_6" data-source-line="57" data-uid="ent0013" id="entity_DTM_C507_msg_6"><rect fill="#F1F1F1" height="145.7813" rx="2.5" ry="2.5" style="stroke:#181818;stroke-width:0.5;" width="296.8604" x="3037.9" y="299.6769"/><ellipse cx="3118.2633" cy="315.6769" fill="#ADD1B2" rx="11" ry="11" style="stroke:#181818;stroke-width:1;"/><path d="M3121.232,321.3175 Q3120.6539,321.6144 3120.0133,321.755 Q3119.3727,321.9113 3118.6695,321.9113 Q3116.1695,321.9113 3114.8414,320.2706 Q3113.5289,318.6144 3113.5289,315.4894 Q3113.5289,312.3644 3114.8414,310.7081 Q3116.1695,309.0519 3118.6695,309.0519 Q3119.3727,309.0519 3120.0133,309.2081 Q3120.6695,309.3644 3121.232,309.6613 L3121.232,312.38 Q3120.607,311.8019 3120.0133,311.5363 Q3119.4195,311.255 3118.7945,311.255 Q3117.4508,311.255 3116.7633,312.3331 Q3116.0758,313.3956 3116.0758,315.4894 Q3116.0758,317.5831 3116.7633,318.6613 Q3117.4508,319.7238 3118.7945,319.7238 Q3119.4195,319.7238 3120.0133,319.4581 Q3120.607,319.1769 3121.232,318.5988 L3121.232,321.3175 Z " fill="#000000"/><text fill="#000000" font-family="sans-serif" font-size="14" lengthAdjust="spacing" textLength="127.6338" x="3138.7633" y="320.5236">DTM_C507_msg_6</text><line style="stroke:#181818;stroke-width:0.5;" x1="3038.9" x2="3333.7604" y1="331.6769" y2="331.6769"/><text fill="#000000" font-family="sans-serif" font-size="14" lengthAdjust="spacing" textLength="162.7227" x="3043.9" y="348.672">Nachricht: PARTIN 1.0e</text><text fill="#000000" font-family="sans-serif" font-size="14" lengthAdjust="spacing" textLength="170.3447" x="3043.9" y="364.9689">Kontext: Segmentlayout</text><text fill="#000000" font-family="sans-serif" font-size="14" lengthAdjust="spacing" textLength="110.5439" x="3043.9" y="381.2657">Pflichtfeld: Nein</text><text fill="#000000" font-family="sans-serif" font-size="14" lengthAdjust="spacing" textLength="219.2148" x="3043.9" y="397.5626">Codes: 157, 303, 35, DTM, SG1</text><text fill="#000000" font-family="sans-serif" font-size="14" lengthAdjust="spacing" textLength="229.1064" x="3043.9" y="413.8595">Prozesse: Stammdaten&#228;nderung</text><text fill="#000000" font-family="sans-serif" font-size="14" lengthAdjust="spacing" textLength="284.8604" x="3043.9" y="430.1564">Quelle: PARTIN_MIG_1_0e_20241001.pdf</text><line style="stroke:#181818;stroke-width:0.5;" x1="3038.9" x2="3333.7604" y1="437.4581" y2="437.4581"/></g><!--class DTM_C507_msg_7--><g class="entity" data-entity="DTM_C507_msg_7" data-source-line="66" data-uid="ent0015" id="entity_DTM_C507_msg_7"><rect fill="#F1F1F1" height="145.7813" rx="2.5" ry="2.5" style="stroke:#181818;stroke-width:0.5;" width="528.5371" x="3370.06" y="299.6769"/><ellipse cx="3566.2617" cy="315.6769" fill="#ADD1B2" rx="11" ry="11" style="stroke:#181818;stroke-width:1;"/><path d="M3569.2304,321.3175 Q3568.6523,321.6144 3568.0117,321.755 Q3567.371,321.9113 3566.6679,321.9113 Q3564.1679,321.9113 3562.8398,320.2706 Q3561.5273,318.6144 3561.5273,315.4894 Q3561.5273,312.3644 3562.8398,310.7081 Q3564.1679,309.0519 3566.6679,309.0519 Q3567.371,309.0519 3568.0117,309.2081 Q3568.6679,309.3644 3569.2304,309.6613 L3569.2304,312.38 Q3568.6054,311.8019 3568.0117,311.5363 Q3567.4179,311.255 3566.7929,311.255 Q3565.4492,311.255 3564.7617,312.3331 Q3564.0742,313.3956 3564.0742,315.4894 Q3564.0742,317.5831 3564.7617,318.6613 Q3565.4492,319.7238 3566.7929,319.7238 Q3567.4179,319.7238 3568.0117,319.4581 Q3568.6054,319.1769 3569.2304,318.5988 L3569.2304,321.3175 Z " fill="#000000"/><text fill="#000000" font-family="sans-serif" font-size="14" lengthAdjust="spacing" textLength="127.6338" x="3586.7617" y="320.5236">DTM_C507_msg_7</text><line style="stroke:#181818;stroke-width:0.5;" x1="3371.06" x2="3897.5971" y1="331.6769" y2="331.6769"/><text fill="#000000" font-family="sans-serif" font-size="14" lengthAdjust="spacing" textLength="162.2988" x="3376.06" y="348.672">Nachricht: PRICAT 2.0d</text><text fill="#000000" font-family="sans-serif" font-size="14" lengthAdjust="spacing" textLength="516.5371" x="3376.06" y="364.9689">Kontext: 1310   SG36   C   999999   R   999999   2   LIN - PIA - IMD - SG40</text><text fill="#000000" font-family="sans-serif" font-size="14" lengthAdjust="spacing" textLength="110.5439" x="3376.06" y="381.2657">Pflichtfeld: Nein</text><text fill="#000000" font-family="sans-serif" font-size="14" lengthAdjust="spacing" textLength="412.1113" x="3376.06" y="397.5626">Codes: 100, 163, 164, 303, 35, DTM, IMD, LIN, PGI, PIA, SG</text><text fill="#000000" font-family="sans-serif" font-size="14" lengthAdjust="spacing" textLength="251.4395" x="3376.06" y="413.8595">Prozesse: Netznutzungsabrechnung</text><text fill="#000000" font-family="sans-serif" font-size="14" lengthAdjust="spacing" textLength="284.4365" x="3376.06" y="430.1564">Quelle: PRICAT_MIG_2_0d_20240619.pdf</text><line style="stroke:#181818;stroke-width:0.5;" x1="3371.06" x2="3897.5971" y1="437.4581" y2="437.4581"/></g><!--class DTM_C507_msg_8--><g class="entity" data-entity="DTM_C507_msg_8" data-source-line="75" data-uid="ent0017" id="entity_DTM_C507_msg_8"><rect fill="#F1F1F1" height="145.7813" rx="2.5" ry="2.5" style="stroke:#181818;stroke-width:0.5;" width="758.1631" x="3933.25" y="299.6769"/><ellipse cx="4244.2646" cy="315.6769" fill="#ADD1B2" rx="11" ry="11" style="stroke:#181818;stroke-width:1;"/><path d="M4247.2334,321.3175 Q4246.6553,321.6144 4246.0146,321.755 Q4245.374,321.9113 4244.6709,321.9113 Q4242.1709,321.9113 4240.8428,320.2706 Q4239.5303,318.6144 4239.5303,315.4894 Q4239.5303,312.3644 4240.8428,310.7081 Q4242.1709,309.0519 4244.6709,309.0519 Q4245.374,309.0519 4246.0146,309.2081 Q4246.6709,309.3644 4247.2334,309.6613 L4247.2334,312.38 Q4246.6084,311.8019 4246.0146,311.5363 Q4245.4209,311.255 4244.7959,311.255 Q4243.4521,311.255 4242.7646,312.3331 Q4242.0771,313.3956 4242.0771,315.4894 Q4242.0771,317.5831 4242.7646,318.6613 Q4243.4521,319.7238 4244.7959,319.7238 Q4245.4209,319.7238 4246.0146,319.4581 Q4246.6084,319.1769 4247.2334,318.5988 L4247.2334,321.3175 Z " fill="#000000"/><text fill="#000000" font-family="sans-serif" font-size="14" lengthAdjust="spacing" textLength="127.6338" x="4264.7646" y="320.5236">DTM_C507_msg_8</text><line style="stroke:#181818;stroke-width:0.5;" x1="3934.25" x2="4690.4131" y1="331.6769" y2="331.6769"/><text fill="#000000" font-family="sans-serif" font-size="14" lengthAdjust="spacing" textLength="170.3584" x="3939.25" y="348.672">Nachricht: QUOTES 1.3a</text><text fill="#000000" font-family="sans-serif" font-size="14" lengthAdjust="spacing" textLength="123.0605" x="3939.25" y="364.9689">Kontext: Beispiel:</text><text fill="#000000" font-family="sans-serif" font-size="14" lengthAdjust="spacing" textLength="91.4033" x="3939.25" y="381.2657">Pflichtfeld: Ja</text><text fill="#000000" font-family="sans-serif" font-size="14" lengthAdjust="spacing" textLength="212.1875" x="3939.25" y="397.5626">Codes: 303, 35, 76, DTM, OCR</text><text fill="#000000" font-family="sans-serif" font-size="14" lengthAdjust="spacing" textLength="292.4961" x="3939.25" y="413.8595">Quelle: QUOTES_MIG_1_3a_20240619.pdf</text><line style="stroke:#181818;stroke-width:0.5;" x1="3934.25" x2="4690.4131" y1="421.1613" y2="421.1613"/><text fill="#000000" font-family="sans-serif" font-size="14" lengthAdjust="spacing" textLength="746.1631" x="3939.25" y="438.1564">Prozesse: Bestellung einer technischen Konfiguration (MSB), Sperrung und Entsperrung eines Anschlusses</text></g><!--class DTM_C507_proc_1--><g class="entity" data-entity="DTM_C507_proc_1" data-source-line="84" data-uid="ent0019" id="entity_DTM_C507_proc_1"><rect fill="#F1F1F1" height="105.1563" rx="2.5" ry="2.5" style="stroke:#181818;stroke-width:0.5;" width="752.6465" x="4726" y="319.9869"/><ellipse cx="5033.7129" cy="340.1197" fill="#ADD1B2" rx="11" ry="11" style="stroke:#181818;stroke-width:1;"/><path d="M5036.6816,345.7603 Q5036.1035,346.0572 5035.4629,346.1978 Q5034.8223,346.3541 5034.1191,346.3541 Q5031.6191,346.3541 5030.291,344.7134 Q5028.9785,343.0572 5028.9785,339.9322 Q5028.9785,336.8072 5030.291,335.1509 Q5031.6191,333.4947 5034.1191,333.4947 Q5034.8223,333.4947 5035.4629,333.6509 Q5036.1191,333.8072 5036.6816,334.1041 L5036.6816,336.8228 Q5036.0566,336.2447 5035.4629,335.9791 Q5034.8691,335.6978 5034.2441,335.6978 Q5032.9004,335.6978 5032.2129,336.7759 Q5031.5254,337.8384 5031.5254,339.9322 Q5031.5254,342.0259 5032.2129,343.1041 Q5032.9004,344.1666 5034.2441,344.1666 Q5034.8691,344.1666 5035.4629,343.9009 Q5036.0566,343.6197 5036.6816,343.0416 L5036.6816,345.7603 Z " fill="#000000"/><text fill="#000000" font-family="sans-serif" font-size="12" font-style="italic" lengthAdjust="spacing" textLength="61.0605" x="5088.043" y="336.1255">&#171;process&#187;</text><text fill="#000000" font-family="sans-serif" font-size="14" lengthAdjust="spacing" textLength="128.7207" x="5054.2129" y="351.9507">DTM_C507_proc_1</text><line style="stroke:#181818;stroke-width:0.5;" x1="4727" x2="5477.6465" y1="360.2525" y2="360.2525"/><text fill="#000000" font-family="sans-serif" font-size="14" lengthAdjust="spacing" textLength="180.3457" x="4732" y="377.2476">Netznutzungsabrechnung</text><text fill="#000000" font-family="sans-serif" font-size="14" lengthAdjust="spacing" textLength="218.0938" x="4732" y="393.5445">Gesetze: StromNEV, StromNZV</text><text fill="#000000" font-family="sans-serif" font-size="14" lengthAdjust="spacing" textLength="740.6465" x="4732" y="409.8414">Zusammenfassung: Wie funktioniert die Netznutzungsabrechnung zwischen Netzbetreiber und Lieferant?</text><line style="stroke:#181818;stroke-width:0.5;" x1="4727" x2="5477.6465" y1="417.1431" y2="417.1431"/></g><!--class DTM_C507_proc_2--><g class="entity" data-entity="DTM_C507_proc_2" data-source-line="90" data-uid="ent0021" id="entity_DTM_C507_proc_2"><rect fill="#F1F1F1" height="105.1563" rx="2.5" ry="2.5" style="stroke:#181818;stroke-width:0.5;" width="690.2275" x="5513.21" y="319.9869"/><ellipse cx="5789.7134" cy="340.1197" fill="#ADD1B2" rx="11" ry="11" style="stroke:#181818;stroke-width:1;"/><path d="M5792.6822,345.7603 Q5792.104,346.0572 5791.4634,346.1978 Q5790.8228,346.3541 5790.1197,346.3541 Q5787.6197,346.3541 5786.2915,344.7134 Q5784.979,343.0572 5784.979,339.9322 Q5784.979,336.8072 5786.2915,335.1509 Q5787.6197,333.4947 5790.1197,333.4947 Q5790.8228,333.4947 5791.4634,333.6509 Q5792.1197,333.8072 5792.6822,334.1041 L5792.6822,336.8228 Q5792.0572,336.2447 5791.4634,335.9791 Q5790.8697,335.6978 5790.2447,335.6978 Q5788.9009,335.6978 5788.2134,336.7759 Q5787.5259,337.8384 5787.5259,339.9322 Q5787.5259,342.0259 5788.2134,343.1041 Q5788.9009,344.1666 5790.2447,344.1666 Q5790.8697,344.1666 5791.4634,343.9009 Q5792.0572,343.6197 5792.6822,343.0416 L5792.6822,345.7603 Z " fill="#000000"/><text fill="#000000" font-family="sans-serif" font-size="12" font-style="italic" lengthAdjust="spacing" textLength="61.0605" x="5844.0435" y="336.1255">&#171;process&#187;</text><text fill="#000000" font-family="sans-serif" font-size="14" lengthAdjust="spacing" textLength="128.7207" x="5810.2134" y="351.9507">DTM_C507_proc_2</text><line style="stroke:#181818;stroke-width:0.5;" x1="5514.21" x2="6202.4375" y1="360.2525" y2="360.2525"/><text fill="#000000" font-family="sans-serif" font-size="14" lengthAdjust="spacing" textLength="223.2822" x="5519.21" y="377.2476">Messstellenbetriebsabrechnung</text><text fill="#000000" font-family="sans-serif" font-size="14" lengthAdjust="spacing" textLength="105.0957" x="5519.21" y="393.5445">Gesetze: MsbG</text><text fill="#000000" font-family="sans-serif" font-size="14" lengthAdjust="spacing" textLength="678.2275" x="5519.21" y="409.8414">Zusammenfassung: Beschreibe den Prozess der Abrechnung von Messstellenbetriebsleistungen.</text><line style="stroke:#181818;stroke-width:0.5;" x1="5514.21" x2="6202.4375" y1="417.1431" y2="417.1431"/></g><!--class DTM_C507_proc_3--><g class="entity" data-entity="DTM_C507_proc_3" data-source-line="96" data-uid="ent0023" id="entity_DTM_C507_proc_3"><rect fill="#F1F1F1" height="105.1563" rx="2.5" ry="2.5" style="stroke:#181818;stroke-width:0.5;" width="378.2285" x="6238.21" y="319.9869"/><ellipse cx="6358.7139" cy="340.1197" fill="#ADD1B2" rx="11" ry="11" style="stroke:#181818;stroke-width:1;"/><path d="M6361.6827,345.7603 Q6361.1045,346.0572 6360.4639,346.1978 Q6359.8233,346.3541 6359.1202,346.3541 Q6356.6202,346.3541 6355.292,344.7134 Q6353.9795,343.0572 6353.9795,339.9322 Q6353.9795,336.8072 6355.292,335.1509 Q6356.6202,333.4947 6359.1202,333.4947 Q6359.8233,333.4947 6360.4639,333.6509 Q6361.1202,333.8072 6361.6827,334.1041 L6361.6827,336.8228 Q6361.0577,336.2447 6360.4639,335.9791 Q6359.8702,335.6978 6359.2452,335.6978 Q6357.9014,335.6978 6357.2139,336.7759 Q6356.5264,337.8384 6356.5264,339.9322 Q6356.5264,342.0259 6357.2139,343.1041 Q6357.9014,344.1666 6359.2452,344.1666 Q6359.8702,344.1666 6360.4639,343.9009 Q6361.0577,343.6197 6361.6827,343.0416 L6361.6827,345.7603 Z " fill="#000000"/><text fill="#000000" font-family="sans-serif" font-size="12" font-style="italic" lengthAdjust="spacing" textLength="61.0605" x="6413.044" y="336.1255">&#171;process&#187;</text><text fill="#000000" font-family="sans-serif" font-size="14" lengthAdjust="spacing" textLength="128.7207" x="6379.2139" y="351.9507">DTM_C507_proc_3</text><line style="stroke:#181818;stroke-width:0.5;" x1="6239.21" x2="6615.4385" y1="360.2525" y2="360.2525"/><text fill="#000000" font-family="sans-serif" font-size="14" lengthAdjust="spacing" textLength="334.3525" x="6244.21" y="377.2476">Anforderung und &#220;bermittlung von Messwerten</text><text fill="#000000" font-family="sans-serif" font-size="14" lengthAdjust="spacing" textLength="105.0957" x="6244.21" y="393.5445">Gesetze: MsbG</text><line style="stroke:#181818;stroke-width:0.5;" x1="6239.21" x2="6615.4385" y1="400.8463" y2="400.8463"/><text fill="#000000" font-family="sans-serif" font-size="14" lengthAdjust="spacing" textLength="366.2285" x="6244.21" y="417.8414">Zusammenfassung: Wie kann ein Marktpartner (z.B.</text></g><!--class DTM_C507_proc_4--><g class="entity" data-entity="DTM_C507_proc_4" data-source-line="102" data-uid="ent0025" id="entity_DTM_C507_proc_4"><rect fill="#F1F1F1" height="105.1563" rx="2.5" ry="2.5" style="stroke:#181818;stroke-width:0.5;" width="1301.9961" x="6651.33" y="319.9869"/><ellipse cx="7233.7177" cy="340.1197" fill="#ADD1B2" rx="11" ry="11" style="stroke:#181818;stroke-width:1;"/><path d="M7236.6864,345.7603 Q7236.1083,346.0572 7235.4677,346.1978 Q7234.8271,346.3541 7234.1239,346.3541 Q7231.6239,346.3541 7230.2958,344.7134 Q7228.9833,343.0572 7228.9833,339.9322 Q7228.9833,336.8072 7230.2958,335.1509 Q7231.6239,333.4947 7234.1239,333.4947 Q7234.8271,333.4947 7235.4677,333.6509 Q7236.1239,333.8072 7236.6864,334.1041 L7236.6864,336.8228 Q7236.0614,336.2447 7235.4677,335.9791 Q7234.8739,335.6978 7234.2489,335.6978 Q7232.9052,335.6978 7232.2177,336.7759 Q7231.5302,337.8384 7231.5302,339.9322 Q7231.5302,342.0259 7232.2177,343.1041 Q7232.9052,344.1666 7234.2489,344.1666 Q7234.8739,344.1666 7235.4677,343.9009 Q7236.0614,343.6197 7236.6864,343.0416 L7236.6864,345.7603 Z " fill="#000000"/><text fill="#000000" font-family="sans-serif" font-size="12" font-style="italic" lengthAdjust="spacing" textLength="61.0605" x="7288.0478" y="336.1255">&#171;process&#187;</text><text fill="#000000" font-family="sans-serif" font-size="14" lengthAdjust="spacing" textLength="128.7207" x="7254.2177" y="351.9507">DTM_C507_proc_4</text><line style="stroke:#181818;stroke-width:0.5;" x1="6652.33" x2="7952.3261" y1="360.2525" y2="360.2525"/><text fill="#000000" font-family="sans-serif" font-size="14" lengthAdjust="spacing" textLength="156.4063" x="6657.33" y="377.2476">Gesetze: MsbG, EnWG</text><text fill="#000000" font-family="sans-serif" font-size="14" lengthAdjust="spacing" textLength="1289.9961" x="6657.33" y="393.5445">Zusammenfassung: Erl&#228;utere den Prozess zur Bestellung einer spezifischen technischen Konfiguration bei einem Messstellenbetreiber, beispielsweise f&#252;r ein intelligentes Messsystem.</text><line style="stroke:#181818;stroke-width:0.5;" x1="6652.33" x2="7952.3261" y1="400.8463" y2="400.8463"/><text fill="#000000" font-family="sans-serif" font-size="14" lengthAdjust="spacing" textLength="348.2021" x="6657.33" y="417.8414">Bestellung einer technischen Konfiguration (MSB)</text></g><!--class DTM_C507_proc_5--><g class="entity" data-entity="DTM_C507_proc_5" data-source-line="108" data-uid="ent0027" id="entity_DTM_C507_proc_5"><rect fill="#F1F1F1" height="105.1563" rx="2.5" ry="2.5" style="stroke:#181818;stroke-width:0.5;" width="853.9893" x="7988.33" y="319.9869"/><ellipse cx="8346.7143" cy="340.1197" fill="#ADD1B2" rx="11" ry="11" style="stroke:#181818;stroke-width:1;"/><path d="M8349.683,345.7603 Q8349.1049,346.0572 8348.4643,346.1978 Q8347.8237,346.3541 8347.1205,346.3541 Q8344.6205,346.3541 8343.2924,344.7134 Q8341.9799,343.0572 8341.9799,339.9322 Q8341.9799,336.8072 8343.2924,335.1509 Q8344.6205,333.4947 8347.1205,333.4947 Q8347.8237,333.4947 8348.4643,333.6509 Q8349.1205,333.8072 8349.683,334.1041 L8349.683,336.8228 Q8349.058,336.2447 8348.4643,335.9791 Q8347.8705,335.6978 8347.2455,335.6978 Q8345.9018,335.6978 8345.2143,336.7759 Q8344.5268,337.8384 8344.5268,339.9322 Q8344.5268,342.0259 8345.2143,343.1041 Q8345.9018,344.1666 8347.2455,344.1666 Q8347.8705,344.1666 8348.4643,343.9009 Q8349.058,343.6197 8349.683,343.0416 L8349.683,345.7603 Z " fill="#000000"/><text fill="#000000" font-family="sans-serif" font-size="12" font-style="italic" lengthAdjust="spacing" textLength="61.0605" x="8401.0444" y="336.1255">&#171;process&#187;</text><text fill="#000000" font-family="sans-serif" font-size="14" lengthAdjust="spacing" textLength="128.7207" x="8367.2143" y="351.9507">DTM_C507_proc_5</text><line style="stroke:#181818;stroke-width:0.5;" x1="7989.33" x2="8841.3193" y1="360.2525" y2="360.2525"/><text fill="#000000" font-family="sans-serif" font-size="14" lengthAdjust="spacing" textLength="317.9668" x="7994.33" y="377.2476">Sperrung und Entsperrung eines Anschlusses</text><text fill="#000000" font-family="sans-serif" font-size="14" lengthAdjust="spacing" textLength="138.3252" x="7994.33" y="393.5445">Gesetze: StromGVV</text><text fill="#000000" font-family="sans-serif" font-size="14" lengthAdjust="spacing" textLength="841.9893" x="7994.33" y="409.8414">Zusammenfassung: Beschreibe den End-to-End-Prozess f&#252;r die Sperrung und Wiederherstellung eines Netzanschlusses.</text><line style="stroke:#181818;stroke-width:0.5;" x1="7989.33" x2="8841.3193" y1="417.1431" y2="417.1431"/></g><!--class DTM_C507_proc_6--><g class="entity" data-entity="DTM_C507_proc_6" data-source-line="114" data-uid="ent0029" id="entity_DTM_C507_proc_6"><rect fill="#F1F1F1" height="88.8594" rx="2.5" ry="2.5" style="stroke:#181818;stroke-width:0.5;" width="638.3496" x="8877.15" y="328.1369"/><ellipse cx="9127.7145" cy="348.2697" fill="#ADD1B2" rx="11" ry="11" style="stroke:#181818;stroke-width:1;"/><path d="M9130.6832,353.9103 Q9130.1051,354.2072 9129.4645,354.3478 Q9128.8238,354.5041 9128.1207,354.5041 Q9125.6207,354.5041 9124.2926,352.8634 Q9122.9801,351.2072 9122.9801,348.0822 Q9122.9801,344.9572 9124.2926,343.3009 Q9125.6207,341.6447 9128.1207,341.6447 Q9128.8238,341.6447 9129.4645,341.8009 Q9130.1207,341.9572 9130.6832,342.2541 L9130.6832,344.9728 Q9130.0582,344.3947 9129.4645,344.1291 Q9128.8707,343.8478 9128.2457,343.8478 Q9126.902,343.8478 9126.2145,344.9259 Q9125.527,345.9884 9125.527,348.0822 Q9125.527,350.1759 9126.2145,351.2541 Q9126.902,352.3166 9128.2457,352.3166 Q9128.8707,352.3166 9129.4645,352.0509 Q9130.0582,351.7697 9130.6832,351.1916 L9130.6832,353.9103 Z " fill="#000000"/><text fill="#000000" font-family="sans-serif" font-size="12" font-style="italic" lengthAdjust="spacing" textLength="61.0605" x="9182.0445" y="344.2755">&#171;process&#187;</text><text fill="#000000" font-family="sans-serif" font-size="14" lengthAdjust="spacing" textLength="128.7207" x="9148.2145" y="360.1007">DTM_C507_proc_6</text><line style="stroke:#181818;stroke-width:0.5;" x1="8878.15" x2="9514.4996" y1="368.4025" y2="368.4025"/><text fill="#000000" font-family="sans-serif" font-size="14" lengthAdjust="spacing" textLength="158.0127" x="8883.15" y="385.3976">Stammdaten&#228;nderung</text><text fill="#000000" font-family="sans-serif" font-size="14" lengthAdjust="spacing" textLength="626.3496" x="8883.15" y="401.6945">Zusammenfassung: Wie wird eine Stammdaten&#228;nderung an einer Marktlokation, wie z.B.</text><line style="stroke:#181818;stroke-width:0.5;" x1="8878.15" x2="9514.4996" y1="408.9963" y2="408.9963"/></g><!--link DTM_C507 to DTM_C507_msg_1--><g class="link" data-entity-1="DTM_C507" data-entity-2="DTM_C507_msg_1" data-source-line="20" data-uid="lnk4" id="link_DTM_C507_DTM_C507_msg_1"><path codeLine="20" d="M3785.85,141.2269 C3350.57,157.2269 2237.73,200.0969 1308.33,252.6769 C1004.54,269.8569 926.39,255.5569 625.33,299.6769 C619.59,300.5169 619.7251,300.4617 613.8951,301.3917" fill="none" id="DTM_C507-to-DTM_C507_msg_1" style="stroke:#181818;stroke-width:1;"/><polygon fill="#181818" points="607.97,302.3369,617.4877,304.8692,612.9076,301.5492,616.2275,296.9691,607.97,302.3369" style="stroke:#181818;stroke-width:1;"/><text fill="#000000" font-family="sans-serif" font-size="13" lengthAdjust="spacing" textLength="85.2363" x="1309.33" y="265.7438">verwendet in</text></g><!--link DTM_C507 to DTM_C507_msg_2--><g class="link" data-entity-1="DTM_C507" data-entity-2="DTM_C507_msg_2" data-source-line="29" data-uid="lnk6" id="link_DTM_C507_DTM_C507_msg_2"><path codeLine="29" d="M3785.77,144.0069 C3413.97,163.0569 2557.15,207.9269 1837.33,252.6769 C1534.53,271.4969 1455.52,249.4169 1156.33,299.6769 C1150.43,300.6669 1150.3763,300.6164 1144.3763,301.7464" fill="none" id="DTM_C507-to-DTM_C507_msg_2" style="stroke:#181818;stroke-width:1;"/><polygon fill="#181818" points="1138.48,302.8569,1148.0648,305.1221,1143.3936,301.9315,1146.5842,297.2603,1138.48,302.8569" style="stroke:#181818;stroke-width:1;"/><text fill="#000000" font-family="sans-serif" font-size="13" lengthAdjust="spacing" textLength="85.2363" x="1838.33" y="265.7438">verwendet in</text></g><!--link DTM_C507 to DTM_C507_msg_3--><g class="link" data-entity-1="DTM_C507" data-entity-2="DTM_C507_msg_3" data-source-line="38" data-uid="lnk8" id="link_DTM_C507_DTM_C507_msg_3"><path codeLine="38" d="M3785.83,135.7169 C3393.37,140.9769 2457.84,167.6269 1686.33,299.6769 C1680.81,300.6169 1681.1234,300.5008 1675.5234,301.5708" fill="none" id="DTM_C507-to-DTM_C507_msg_3" style="stroke:#181818;stroke-width:1;"/><polygon fill="#181818" points="1669.63,302.6969,1679.2208,304.9367,1674.5412,301.7585,1677.7194,297.0789,1669.63,302.6969" style="stroke:#181818;stroke-width:1;"/><text fill="#000000" font-family="sans-serif" font-size="13" lengthAdjust="spacing" textLength="85.2363" x="1996.33" y="265.7438">verwendet in</text></g><!--link DTM_C507 to DTM_C507_msg_4--><g class="link" data-entity-1="DTM_C507" data-entity-2="DTM_C507_msg_4" data-source-line="47" data-uid="lnk10" id="link_DTM_C507_DTM_C507_msg_4"><path codeLine="47" d="M3785.79,142.0069 C3464.4,157.1569 2788.6,198.9569 2226.33,299.6769 C2220.6,300.7069 2220.6962,300.6238 2214.8762,301.7738" fill="none" id="DTM_C507-to-DTM_C507_msg_4" style="stroke:#181818;stroke-width:1;"/><polygon fill="#181818" points="2208.99,302.9369,2218.5947,305.1164,2213.8952,301.9676,2217.0439,297.2681,2208.99,302.9369" style="stroke:#181818;stroke-width:1;"/><text fill="#000000" font-family="sans-serif" font-size="13" lengthAdjust="spacing" textLength="85.2363" x="2511.33" y="265.7438">verwendet in</text></g><!--link DTM_C507 to DTM_C507_msg_5--><g class="link" data-entity-1="DTM_C507" data-entity-2="DTM_C507_msg_5" data-source-line="56" data-uid="lnk12" id="link_DTM_C507_DTM_C507_msg_5"><path codeLine="56" d="M3786.1,166.5169 C3593.88,199.4969 3286.12,252.5769 3020.33,299.6769 C3014.55,300.6969 3014.6377,300.6884 3008.7777,301.7284" fill="none" id="DTM_C507-to-DTM_C507_msg_5" style="stroke:#181818;stroke-width:1;"/><polygon fill="#181818" points="3002.87,302.7769,3012.4305,305.1426,3007.7931,301.9032,3011.0326,297.2657,3002.87,302.7769" style="stroke:#181818;stroke-width:1;"/><text fill="#000000" font-family="sans-serif" font-size="13" lengthAdjust="spacing" textLength="85.2363" x="3283.33" y="265.7438">verwendet in</text></g><!--link DTM_C507 to DTM_C507_msg_6--><g class="link" data-entity-1="DTM_C507" data-entity-2="DTM_C507_msg_6" data-source-line="65" data-uid="lnk14" id="link_DTM_C507_DTM_C507_msg_6"><path codeLine="65" d="M3786.03,176.6169 C3661.65,206.4569 3495.52,249.9369 3352.33,299.6769 C3346.69,301.6369 3346.6032,301.6041 3340.8532,303.7441" fill="none" id="DTM_C507-to-DTM_C507_msg_6" style="stroke:#181818;stroke-width:1;"/><polygon fill="#181818" points="3335.23,305.8369,3345.06,306.4465,3339.916,304.0929,3342.2696,298.9489,3335.23,305.8369" style="stroke:#181818;stroke-width:1;"/><text fill="#000000" font-family="sans-serif" font-size="13" lengthAdjust="spacing" textLength="85.2363" x="3487.33" y="265.7438">verwendet in</text></g><!--link DTM_C507 to DTM_C507_msg_7--><g class="link" data-entity-1="DTM_C507" data-entity-2="DTM_C507_msg_7" data-source-line="74" data-uid="lnk16" id="link_DTM_C507_DTM_C507_msg_7"><path codeLine="74" d="M3846.61,223.1069 C3810.7,248.2269 3776.9469,271.8282 3742.5869,295.8582" fill="none" id="DTM_C507-to-DTM_C507_msg_7" style="stroke:#181818;stroke-width:1;"/><polygon fill="#181818" points="3737.67,299.2969,3747.3377,297.4168,3741.7674,296.4313,3742.7529,290.861,3737.67,299.2969" style="stroke:#181818;stroke-width:1;"/><text fill="#000000" font-family="sans-serif" font-size="13" lengthAdjust="spacing" textLength="85.2363" x="3805.33" y="265.7438">verwendet in</text></g><!--link DTM_C507 to DTM_C507_msg_8--><g class="link" data-entity-1="DTM_C507" data-entity-2="DTM_C507_msg_8" data-source-line="83" data-uid="lnk18" id="link_DTM_C507_DTM_C507_msg_8"><path codeLine="83" d="M4100.04,223.1069 C4135.96,248.2269 4169.7031,271.8282 4204.0631,295.8582" fill="none" id="DTM_C507-to-DTM_C507_msg_8" style="stroke:#181818;stroke-width:1;"/><polygon fill="#181818" points="4208.98,299.2969,4203.8971,290.861,4204.8826,296.4313,4199.3123,297.4168,4208.98,299.2969" style="stroke:#181818;stroke-width:1;"/><text fill="#000000" font-family="sans-serif" font-size="13" lengthAdjust="spacing" textLength="85.2363" x="4164.33" y="265.7438">verwendet in</text></g><!--link DTM_C507 to DTM_C507_proc_1--><g class="link" data-entity-1="DTM_C507" data-entity-2="DTM_C507_proc_1" data-source-line="89" data-uid="lnk20" id="link_DTM_C507_DTM_C507_proc_1"><path codeLine="89" d="M4160.71,173.8369 C4350.57,213.7069 4639.4381,274.3638 4848.5381,318.2738" fill="none" id="DTM_C507-to-DTM_C507_proc_1" style="stroke:#181818;stroke-width:1;stroke-dasharray:7,7;"/><polygon fill="#181818" points="4854.41,319.5069,4846.4242,313.7426,4849.5167,318.4793,4844.7801,321.5719,4854.41,319.5069" style="stroke:#181818;stroke-width:1;"/><text fill="#000000" font-family="sans-serif" font-size="13" lengthAdjust="spacing" textLength="91.6221" x="4607.33" y="265.7438">eingebettet in</text></g><!--link DTM_C507 to DTM_C507_proc_2--><g class="link" data-entity-1="DTM_C507" data-entity-2="DTM_C507_proc_2" data-source-line="95" data-uid="lnk22" id="link_DTM_C507_DTM_C507_proc_2"><path codeLine="95" d="M4160.7,149.4669 C4448.77,173.6969 5017.37,226.2869 5496.33,299.6769 C5533.7,305.3969 5567.1736,311.1969 5605.6336,318.4369" fill="none" id="DTM_C507-to-DTM_C507_proc_2" style="stroke:#181818;stroke-width:1;stroke-dasharray:7,7;"/><polygon fill="#181818" points="5611.53,319.5469,5603.4253,313.9509,5606.6163,318.6219,5601.9454,321.8128,5611.53,319.5469" style="stroke:#181818;stroke-width:1;"/><text fill="#000000" font-family="sans-serif" font-size="13" lengthAdjust="spacing" textLength="91.6221" x="5249.33" y="265.7438">eingebettet in</text></g><!--link DTM_C507 to DTM_C507_proc_3--><g class="link" data-entity-1="DTM_C507" data-entity-2="DTM_C507_proc_3" data-source-line="101" data-uid="lnk24" id="link_DTM_C507_DTM_C507_proc_3"><path codeLine="101" d="M4160.8,141.9269 C4626.98,161.4569 5829.18,218.3169 6221.33,299.6769 C6245.34,304.6569 6264.6813,309.8702 6288.7013,317.6402" fill="none" id="DTM_C507-to-DTM_C507_proc_3" style="stroke:#181818;stroke-width:1;stroke-dasharray:7,7;"/><polygon fill="#181818" points="6294.41,319.4869,6287.078,312.911,6289.6527,317.948,6284.6158,320.5227,6294.41,319.4869" style="stroke:#181818;stroke-width:1;"/><text fill="#000000" font-family="sans-serif" font-size="13" lengthAdjust="spacing" textLength="91.6221" x="5996.33" y="265.7438">eingebettet in</text></g><!--link DTM_C507 to DTM_C507_proc_4--><g class="link" data-entity-1="DTM_C507" data-entity-2="DTM_C507_proc_4" data-source-line="107" data-uid="lnk26" id="link_DTM_C507_DTM_C507_proc_4"><path codeLine="107" d="M4160.89,142.9369 C4531.13,160.0669 5382.01,201.6069 6096.33,252.6769 C6335.74,269.7969 6395.44,276.3869 6634.33,299.6769 C6697.6,305.8469 6758.2327,312.0216 6823.8927,318.9016" fill="none" id="DTM_C507-to-DTM_C507_proc_4" style="stroke:#181818;stroke-width:1;stroke-dasharray:7,7;"/><polygon fill="#181818" points="6829.86,319.5269,6821.3259,314.6107,6824.8872,319.0058,6820.4922,322.5672,6829.86,319.5269" style="stroke:#181818;stroke-width:1;"/><text fill="#000000" font-family="sans-serif" font-size="13" lengthAdjust="spacing" textLength="91.6221" x="6312.33" y="265.7438">eingebettet in</text></g><!--link DTM_C507 to DTM_C507_proc_5--><g class="link" data-entity-1="DTM_C507" data-entity-2="DTM_C507_proc_5" data-source-line="113" data-uid="lnk28" id="link_DTM_C507_DTM_C507_proc_5"><path codeLine="113" d="M4160.68,134.3369 C4733,135.5569 6508.44,151.9069 7970.33,299.6769 C8020.35,304.7369 8067.3669,310.8832 8118.6169,318.6032" fill="none" id="DTM_C507-to-DTM_C507_proc_5" style="stroke:#181818;stroke-width:1;stroke-dasharray:7,7;"/><polygon fill="#181818" points="8124.55,319.4969,8116.2462,314.2009,8119.6058,318.7521,8115.0546,322.1117,8124.55,319.4969" style="stroke:#181818;stroke-width:1;"/><text fill="#000000" font-family="sans-serif" font-size="13" lengthAdjust="spacing" textLength="91.6221" x="7649.33" y="265.7438">eingebettet in</text></g><!--link DTM_C507 to DTM_C507_proc_6--><g class="link" data-entity-1="DTM_C507" data-entity-2="DTM_C507_proc_6" data-source-line="118" data-uid="lnk30" id="link_DTM_C507_DTM_C507_proc_6"><path codeLine="118" d="M4160.47,139.6169 C4710.8,154.8469 6371.69,201.9469 7749.33,252.6769 C8242.77,270.8469 8369.48,237.5069 8859.33,299.6769 C8911.26,306.2669 8961.1939,315.4864 9012.1539,326.4364" fill="none" id="DTM_C507-to-DTM_C507_proc_6" style="stroke:#181818;stroke-width:1;stroke-dasharray:7,7;"/><polygon fill="#181818" points="9018.02,327.6969,9010.0612,321.8954,9013.1316,326.6465,9008.3805,329.7169,9018.02,327.6969" style="stroke:#181818;stroke-width:1;"/><text fill="#000000" font-family="sans-serif" font-size="13" lengthAdjust="spacing" textLength="91.6221" x="8560.33" y="265.7438">eingebettet in</text></g><!--SRC=[nPVDRk984CVlUOe-paeEuo_CXqPP9OH1x0o4mKncbGiok0WjJ1krsvCTLlicUvp7s5jURAkCWTWcOpFIQW_kjDtTrVN_TLKrKLm5m6uz1S9JWHUnItOx6RGxTRrnCSVtY5wdzCh-l61iwAsXJTFZzTlFIxa5hju-O1DjF2409unak8KeWZRs6HeRWjgAM6rZyHXvCmdpfS1kEZZ0cP62800n0oKvp8fphiKYb3v8_C9YuRFdlsSWrrofWBvy3KLYvGaaAaYNt41YbCQ12v1CaKaUpPSWs8TGBFXZB3t5SUsRWNlpIxhCtO0yRDCLg2bz9oCHEe86WXYrHVi5obklVKBt_5tiNBpuAqTjkeuUfqRARhwKVBvKRTOVkkFHX1armyC1T4d17_XPDtKTBRkz1hOTV5gj5hRZGy_4vsD_k3iayc3YOlj-yZlrUqtYlmXeYmK4VXlXSsBI2Ns8sipGJOqPBOsPBUnOkeLDNKFBz6239ZMofT4M6hlhZ3KqIez5JOEQfaPxlZpdrq_uKqmdknSx7VHxKsDgU5DJDmr3rutQnbyWhqDyNLvUvR6rsLUGJu1m5KCf9z2QHRJtT_qECsjD_oLQ5nxN8332luMnodFwpJjIEd19S2GG7WoZWcAjD9oFGCZ510YvENqFom3aAfGILYgM1AYk6rOv8BC28Ei7W6el2Tq0ZpOSWdP953KCxHGaj_VVGPeY9A9YwuxHAgLYLQ1YvwaCtCxTq4Kgzhnos9n8BqjtiB5tSAo6hZ77q5DCtTj-9glgr3ZKj3BapgnuUs0x1IamUqwyBFJ9BkLbL-1Lp_Ew6z-EtH5MCBjI3BtCi6pvsKTG1i6v5LmxhtZlaUr4f9N9hXvXzGh4d3onqVLuWgNRgEdmin5MR-J1vRFkr9LqrBjp8TMhGoAuKYLsAWXk50IF-vth2QQKdgd4MDXsbvpb76-vp4MNl-j6_Mji-uFRv9QpzR8yn8Gp78iQEyyBZQJNswY7sOYMYU5vzzbELvfekbyzR1eLA3Rp53zzlfjqNGmRopixqmxQ6yx_csWx4MdWMLvrPCqIP1iPpl5tmhjtr459LrSxVg-TOGyY74eIHORhOVTUItiFzpZw44UOFY0Mk0VERxCl7DWY5Yi2mB7WCXy_d3REjayfDXgdgmqurkq4qqSE2v2UKB- -55khNHM4j0dZ8-1ozRfUiw2tx58zo1v4izufeHW7677aCVDHGXeWs9Vi-YXnV_VajWem5XMEWwZzM9zPJPzLq7VcbLWgbyvrXV-na3TiuCcLsdXIKVo_sTPkIbHOrLJO1HK_yNz9HWd-X11VJkhfok3vUwn0Pezl6ylYffYmMxv8TttTWndmPC4wV-99M6iqdXGWfCuZp9BdVsH2amkQoZ4O59Q3PEqtNBqkWMfNWrelG3sh7cNJltT_No4NkiA_LE4b_TbpJSHIASXiZa658Re4cG4U9VN0ExfH0g9U3OHJ177owZyP-azS-ebpfnOnJwIHaYH64AwIWD1m5R3ox70A_lyB]--></g></svg>