<svg xmlns="http://www.w3.org/2000/svg" xmlns:xlink="http://www.w3.org/1999/xlink" contentStyleType="text/css" data-diagram-type="CLASS" height="387px" preserveAspectRatio="none" style="width:2998px;height:387px;background:#FFFFFF;" version="1.1" viewBox="0 0 2998 387" width="2998px" zoomAndPan="magnify"><title>Datenatlas - DTM:1140</title><defs/><g><g class="title" data-source-line="1"><text fill="#000000" font-family="sans-serif" font-size="14" font-weight="bold" lengthAdjust="spacing" textLength="181.166" x="1401.4566" y="22.9951">Datenatlas - DTM:1140</text></g><!--class DTM_1140--><g class="entity" data-entity="DTM_1140" data-source-line="2" data-uid="ent0002" id="entity_DTM_1140"><rect fill="#F1F1F1" height="113.1875" rx="2.5" ry="2.5" style="stroke:#181818;stroke-width:0.5;" width="374.2021" x="1263.98" y="44.2969"/><ellipse cx="1409.8111" cy="60.2969" fill="#ADD1B2" rx="11" ry="11" style="stroke:#181818;stroke-width:1;"/><path d="M1412.7798,65.9375 Q1412.2017,66.2344 1411.5611,66.375 Q1410.9204,66.5313 1410.2173,66.5313 Q1407.7173,66.5313 1406.3892,64.8906 Q1405.0767,63.2344 1405.0767,60.1094 Q1405.0767,56.9844 1406.3892,55.3281 Q1407.7173,53.6719 1410.2173,53.6719 Q1410.9204,53.6719 1411.5611,53.8281 Q1412.2173,53.9844 1412.7798,54.2813 L1412.7798,57 Q1412.1548,56.4219 1411.5611,56.1563 Q1410.9673,55.875 1410.3423,55.875 Q1408.9986,55.875 1408.3111,56.9531 Q1407.6236,58.0156 1407.6236,60.1094 Q1407.6236,62.2031 1408.3111,63.2813 Q1408.9986,64.3438 1410.3423,64.3438 Q1410.9673,64.3438 1411.5611,64.0781 Q1412.1548,63.7969 1412.7798,63.2188 L1412.7798,65.9375 Z " fill="#000000"/><text fill="#000000" font-family="sans-serif" font-size="14" lengthAdjust="spacing" textLength="74.04" x="1430.3111" y="65.1436">DTM_1140</text><line style="stroke:#181818;stroke-width:0.5;" x1="1264.98" x2="1637.1821" y1="76.2969" y2="76.2969"/><text fill="#000000" font-family="sans-serif" font-size="14" lengthAdjust="spacing" textLength="308.6426" x="1283.98" y="93.292">Name: Baujahr/Jahr des In Verkehrs bringen</text><text fill="#000000" font-family="sans-serif" font-size="14" lengthAdjust="spacing" textLength="66.6436" x="1283.98" y="109.5889">Prozesse:</text><rect fill="none" height="6" style="stroke:#C82930;stroke-width:1;" width="6" x="1271.98" y="119.5391"/><text fill="#000000" font-family="sans-serif" font-size="14" lengthAdjust="spacing" textLength="317.9668" x="1283.98" y="125.8857">Sperrung und Entsperrung eines Anschlusses</text><line style="stroke:#181818;stroke-width:0.5;" x1="1264.98" x2="1637.1821" y1="133.1875" y2="133.1875"/><rect fill="#F24D5C" height="6" style="stroke:#C82930;stroke-width:1;" width="6" x="1271.98" y="143.8359"/><text fill="#000000" font-family="sans-serif" font-size="14" lengthAdjust="spacing" textLength="348.2021" x="1283.98" y="150.1826">Bestellung einer technischen Konfiguration (MSB)</text></g><!--class DTM_1140_msg_1--><g class="entity" data-entity="DTM_1140_msg_1" data-source-line="8" data-uid="ent0003" id="entity_DTM_1140_msg_1"><rect fill="#F1F1F1" height="145.7813" rx="2.5" ry="2.5" style="stroke:#181818;stroke-width:0.5;" width="758.1631" x="7" y="234.4869"/><ellipse cx="318.4487" cy="250.4869" fill="#ADD1B2" rx="11" ry="11" style="stroke:#181818;stroke-width:1;"/><path d="M321.4175,256.1275 Q320.8394,256.4244 320.1987,256.565 Q319.5581,256.7213 318.855,256.7213 Q316.355,256.7213 315.0269,255.0806 Q313.7144,253.4244 313.7144,250.2994 Q313.7144,247.1744 315.0269,245.5181 Q316.355,243.8619 318.855,243.8619 Q319.5581,243.8619 320.1987,244.0181 Q320.855,244.1744 321.4175,244.4713 L321.4175,247.19 Q320.7925,246.6119 320.1987,246.3463 Q319.605,246.065 318.98,246.065 Q317.6362,246.065 316.9487,247.1431 Q316.2612,248.2056 316.2612,250.2994 Q316.2612,252.3931 316.9487,253.4713 Q317.6362,254.5338 318.98,254.5338 Q319.605,254.5338 320.1987,254.2681 Q320.7925,253.9869 321.4175,253.4088 L321.4175,256.1275 Z " fill="#000000"/><text fill="#000000" font-family="sans-serif" font-size="14" lengthAdjust="spacing" textLength="126.7656" x="338.9487" y="255.3336">DTM_1140_msg_1</text><line style="stroke:#181818;stroke-width:0.5;" x1="8" x2="764.1631" y1="266.4869" y2="266.4869"/><text fill="#000000" font-family="sans-serif" font-size="14" lengthAdjust="spacing" textLength="170.3584" x="13" y="283.482">Nachricht: QUOTES 1.3a</text><text fill="#000000" font-family="sans-serif" font-size="14" lengthAdjust="spacing" textLength="204.1143" x="13" y="299.7789">Kontext: Nachrichtenstruktur</text><text fill="#000000" font-family="sans-serif" font-size="14" lengthAdjust="spacing" textLength="110.5439" x="13" y="316.0757">Pflichtfeld: Nein</text><text fill="#000000" font-family="sans-serif" font-size="14" lengthAdjust="spacing" textLength="110.4277" x="13" y="332.3726">Codes: 35, DTM</text><text fill="#000000" font-family="sans-serif" font-size="14" lengthAdjust="spacing" textLength="292.4961" x="13" y="348.6695">Quelle: QUOTES_MIG_1_3a_20240619.pdf</text><line style="stroke:#181818;stroke-width:0.5;" x1="8" x2="764.1631" y1="355.9713" y2="355.9713"/><text fill="#000000" font-family="sans-serif" font-size="14" lengthAdjust="spacing" textLength="746.1631" x="13" y="372.9664">Prozesse: Bestellung einer technischen Konfiguration (MSB), Sperrung und Entsperrung eines Anschlusses</text></g><!--class DTM_1140_proc_1--><g class="entity" data-entity="DTM_1140_proc_1" data-source-line="17" data-uid="ent0005" id="entity_DTM_1140_proc_1"><rect fill="#F1F1F1" height="105.1563" rx="2.5" ry="2.5" style="stroke:#181818;stroke-width:0.5;" width="1301.9961" x="800.08" y="254.7969"/><ellipse cx="1382.9018" cy="274.9297" fill="#ADD1B2" rx="11" ry="11" style="stroke:#181818;stroke-width:1;"/><path d="M1385.8705,280.5703 Q1385.2924,280.8672 1384.6518,281.0078 Q1384.0112,281.1641 1383.308,281.1641 Q1380.808,281.1641 1379.4799,279.5234 Q1378.1674,277.8672 1378.1674,274.7422 Q1378.1674,271.6172 1379.4799,269.9609 Q1380.808,268.3047 1383.308,268.3047 Q1384.0112,268.3047 1384.6518,268.4609 Q1385.308,268.6172 1385.8705,268.9141 L1385.8705,271.6328 Q1385.2455,271.0547 1384.6518,270.7891 Q1384.058,270.5078 1383.433,270.5078 Q1382.0893,270.5078 1381.4018,271.5859 Q1380.7143,272.6484 1380.7143,274.7422 Q1380.7143,276.8359 1381.4018,277.9141 Q1382.0893,278.9766 1383.433,278.9766 Q1384.058,278.9766 1384.6518,278.7109 Q1385.2455,278.4297 1385.8705,277.8516 L1385.8705,280.5703 Z " fill="#000000"/><text fill="#000000" font-family="sans-serif" font-size="12" font-style="italic" lengthAdjust="spacing" textLength="61.0605" x="1436.7978" y="270.9355">&#171;process&#187;</text><text fill="#000000" font-family="sans-serif" font-size="14" lengthAdjust="spacing" textLength="127.8525" x="1403.4018" y="286.7607">DTM_1140_proc_1</text><line style="stroke:#181818;stroke-width:0.5;" x1="801.08" x2="2101.0761" y1="295.0625" y2="295.0625"/><text fill="#000000" font-family="sans-serif" font-size="14" lengthAdjust="spacing" textLength="156.4063" x="806.08" y="312.0576">Gesetze: MsbG, EnWG</text><text fill="#000000" font-family="sans-serif" font-size="14" lengthAdjust="spacing" textLength="1289.9961" x="806.08" y="328.3545">Zusammenfassung: Erl&#228;utere den Prozess zur Bestellung einer spezifischen technischen Konfiguration bei einem Messstellenbetreiber, beispielsweise f&#252;r ein intelligentes Messsystem.</text><line style="stroke:#181818;stroke-width:0.5;" x1="801.08" x2="2101.0761" y1="335.6563" y2="335.6563"/><text fill="#000000" font-family="sans-serif" font-size="14" lengthAdjust="spacing" textLength="348.2021" x="806.08" y="352.6514">Bestellung einer technischen Konfiguration (MSB)</text></g><!--class DTM_1140_proc_2--><g class="entity" data-entity="DTM_1140_proc_2" data-source-line="23" data-uid="ent0007" id="entity_DTM_1140_proc_2"><rect fill="#F1F1F1" height="105.1563" rx="2.5" ry="2.5" style="stroke:#181818;stroke-width:0.5;" width="853.9893" x="2137.09" y="254.7969"/><ellipse cx="2495.9084" cy="274.9297" fill="#ADD1B2" rx="11" ry="11" style="stroke:#181818;stroke-width:1;"/><path d="M2498.8771,280.5703 Q2498.299,280.8672 2497.6584,281.0078 Q2497.0177,281.1641 2496.3146,281.1641 Q2493.8146,281.1641 2492.4865,279.5234 Q2491.174,277.8672 2491.174,274.7422 Q2491.174,271.6172 2492.4865,269.9609 Q2493.8146,268.3047 2496.3146,268.3047 Q2497.0177,268.3047 2497.6584,268.4609 Q2498.3146,268.6172 2498.8771,268.9141 L2498.8771,271.6328 Q2498.2521,271.0547 2497.6584,270.7891 Q2497.0646,270.5078 2496.4396,270.5078 Q2495.0959,270.5078 2494.4084,271.5859 Q2493.7209,272.6484 2493.7209,274.7422 Q2493.7209,276.8359 2494.4084,277.9141 Q2495.0959,278.9766 2496.4396,278.9766 Q2497.0646,278.9766 2497.6584,278.7109 Q2498.2521,278.4297 2498.8771,277.8516 L2498.8771,280.5703 Z " fill="#000000"/><text fill="#000000" font-family="sans-serif" font-size="12" font-style="italic" lengthAdjust="spacing" textLength="61.0605" x="2549.8044" y="270.9355">&#171;process&#187;</text><text fill="#000000" font-family="sans-serif" font-size="14" lengthAdjust="spacing" textLength="127.8525" x="2516.4084" y="286.7607">DTM_1140_proc_2</text><line style="stroke:#181818;stroke-width:0.5;" x1="2138.09" x2="2990.0793" y1="295.0625" y2="295.0625"/><text fill="#000000" font-family="sans-serif" font-size="14" lengthAdjust="spacing" textLength="317.9668" x="2143.09" y="312.0576">Sperrung und Entsperrung eines Anschlusses</text><text fill="#000000" font-family="sans-serif" font-size="14" lengthAdjust="spacing" textLength="138.3252" x="2143.09" y="328.3545">Gesetze: StromGVV</text><text fill="#000000" font-family="sans-serif" font-size="14" lengthAdjust="spacing" textLength="841.9893" x="2143.09" y="344.6514">Zusammenfassung: Beschreibe den End-to-End-Prozess f&#252;r die Sperrung und Wiederherstellung eines Netzanschlusses.</text><line style="stroke:#181818;stroke-width:0.5;" x1="2138.09" x2="2990.0793" y1="351.9531" y2="351.9531"/></g><!--link DTM_1140 to DTM_1140_msg_1--><g class="link" data-entity-1="DTM_1140" data-entity-2="DTM_1140_msg_1" data-source-line="16" data-uid="lnk4" id="link_DTM_1140_DTM_1140_msg_1"><path codeLine="16" d="M1263.74,137.8569 C1125.5,164.4069 938.6024,200.2855 768.9224,232.8655" fill="none" id="DTM_1140-to-DTM_1140_msg_1" style="stroke:#181818;stroke-width:1;"/><polygon fill="#181818" points="763.03,233.9969,772.6228,236.228,767.9403,233.0541,771.1143,228.3716,763.03,233.9969" style="stroke:#181818;stroke-width:1;"/><text fill="#000000" font-family="sans-serif" font-size="13" lengthAdjust="spacing" textLength="85.2363" x="984.08" y="200.5538">verwendet in</text></g><!--link DTM_1140 to DTM_1140_proc_1--><g class="link" data-entity-1="DTM_1140" data-entity-2="DTM_1140_proc_1" data-source-line="22" data-uid="lnk6" id="link_DTM_1140_DTM_1140_proc_1"><path codeLine="22" d="M1451.08,157.7669 C1451.08,187.9169 1451.08,218.9069 1451.08,248.4269" fill="none" id="DTM_1140-to-DTM_1140_proc_1" style="stroke:#181818;stroke-width:1;stroke-dasharray:7,7;"/><polygon fill="#181818" points="1451.08,254.4269,1455.08,245.4269,1451.08,249.4269,1447.08,245.4269,1451.08,254.4269" style="stroke:#181818;stroke-width:1;"/><text fill="#000000" font-family="sans-serif" font-size="13" lengthAdjust="spacing" textLength="91.6221" x="1452.08" y="200.5538">eingebettet in</text></g><!--link DTM_1140 to DTM_1140_proc_2--><g class="link" data-entity-1="DTM_1140" data-entity-2="DTM_1140_proc_2" data-source-line="28" data-uid="lnk8" id="link_DTM_1140_DTM_1140_proc_2"><path codeLine="28" d="M1638.63,136.3469 C1814.34,168.6269 2073.4687,216.2428 2274.9387,253.2528" fill="none" id="DTM_1140-to-DTM_1140_proc_2" style="stroke:#181818;stroke-width:1;stroke-dasharray:7,7;"/><polygon fill="#181818" points="2280.84,254.3369,2272.7108,248.7766,2275.9223,253.4335,2271.2654,256.645,2280.84,254.3369" style="stroke:#181818;stroke-width:1;"/><text fill="#000000" font-family="sans-serif" font-size="13" lengthAdjust="spacing" textLength="91.6221" x="2009.08" y="200.5538">eingebettet in</text></g><!--SRC=[dPB1RjD048RlUOevWfIOE2b8M5KaGYEhe01LIYfniTRss5vghwFPMGf1l0sFqLjVhBDM4jg42eMBlRCxC__ytovhhX7E5ADHN2iB0pYxd4TXU3BiPH9R7oO-X9yzW0-gmGYcodrL5Rru9n_8qSAvWINIDLPa8ILjIZII_8dQDLgBaQn16a_HCjQrCoMWDaZ0c5L6swn20-zRK-ZIaMBT6dWsNqoVRyeMAoJoHSxaC3Dijx5lOk6DaGQr4ntR-xKtSzBOCWatasSLwQpY22u-VxoSBI0CnaeEH9ZnksplCj1O9dVDZho9elPx1TQvf8YaxBrjnNG4uvTzh_JGwT4U-yVO0xXmqXot5fBvUPo4oLWbe-7ePFWgV1siya8exEviC9ZimuZW6z8DcXmPnCqUi1MrcIITdlg5M9fCEdh_SNKnMkIrp3gtQTmNPrUnx7vnLZKDca9KfLi4CwhlVZj6Gdb9PaiIreuEHGNDMXSRrQSdI55t1GtCfLNN0qsAJAXJfBu_jokDjRsH1K9nTqi-NsZuL2sFbmLyL_j3gflW8T4Wc1pGYdnvYIB1JqCT7K0zwkPtE1TCRHClbt-3ASJa3NkR7SoPoGVS3lnloxKpcsjyB7wbCKUga1u1j_BUUQt-ZF4F4AC34FS0]--></g></svg>