<svg xmlns="http://www.w3.org/2000/svg" xmlns:xlink="http://www.w3.org/1999/xlink" contentStyleType="text/css" data-diagram-type="CLASS" height="387px" preserveAspectRatio="none" style="width:2021px;height:387px;background:#FFFFFF;" version="1.1" viewBox="0 0 2021 387" width="2021px" zoomAndPan="magnify"><title>Datenatlas - DTM:0006</title><defs/><g><g class="title" data-source-line="1"><text fill="#000000" font-family="sans-serif" font-size="14" font-weight="bold" lengthAdjust="spacing" textLength="181.166" x="913.3808" y="22.9951">Datenatlas - DTM:0006</text></g><!--class DTM_0006--><g class="entity" data-entity="DTM_0006" data-source-line="2" data-uid="ent0002" id="entity_DTM_0006"><rect fill="#F1F1F1" height="113.1875" rx="2.5" ry="2.5" style="stroke:#181818;stroke-width:0.5;" width="324.1494" x="751.74" y="44.2969"/><ellipse cx="872.5447" cy="60.2969" fill="#ADD1B2" rx="11" ry="11" style="stroke:#181818;stroke-width:1;"/><path d="M875.5134,65.9375 Q874.9353,66.2344 874.2947,66.375 Q873.6541,66.5313 872.9509,66.5313 Q870.4509,66.5313 869.1228,64.8906 Q867.8103,63.2344 867.8103,60.1094 Q867.8103,56.9844 869.1228,55.3281 Q870.4509,53.6719 872.9509,53.6719 Q873.6541,53.6719 874.2947,53.8281 Q874.9509,53.9844 875.5134,54.2813 L875.5134,57 Q874.8884,56.4219 874.2947,56.1563 Q873.7009,55.875 873.0759,55.875 Q871.7322,55.875 871.0447,56.9531 Q870.3572,58.0156 870.3572,60.1094 Q870.3572,62.2031 871.0447,63.2813 Q871.7322,64.3438 873.0759,64.3438 Q873.7009,64.3438 874.2947,64.0781 Q874.8884,63.7969 875.5134,63.2188 L875.5134,65.9375 Z " fill="#000000"/><text fill="#000000" font-family="sans-serif" font-size="14" lengthAdjust="spacing" textLength="74.04" x="893.0447" y="65.1436">DTM_0006</text><line style="stroke:#181818;stroke-width:0.5;" x1="752.74" x2="1074.8894" y1="76.2969" y2="76.2969"/><text fill="#000000" font-family="sans-serif" font-size="14" lengthAdjust="spacing" textLength="298.1494" x="771.74" y="93.292">Name: Bearbeitungs-/Verarbeitungsdatum</text><text fill="#000000" font-family="sans-serif" font-size="14" lengthAdjust="spacing" textLength="66.6436" x="771.74" y="109.5889">Prozesse:</text><rect fill="none" height="6" style="stroke:#C82930;stroke-width:1;" width="6" x="759.74" y="119.5391"/><text fill="#000000" font-family="sans-serif" font-size="14" lengthAdjust="spacing" textLength="180.3457" x="771.74" y="125.8857">Netznutzungsabrechnung</text><rect fill="none" height="6" style="stroke:#C82930;stroke-width:1;" width="6" x="759.74" y="135.8359"/><text fill="#000000" font-family="sans-serif" font-size="14" lengthAdjust="spacing" textLength="223.2822" x="771.74" y="142.1826">Messstellenbetriebsabrechnung</text><line style="stroke:#181818;stroke-width:0.5;" x1="752.74" x2="1074.8894" y1="149.4844" y2="149.4844"/></g><!--class DTM_0006_msg_1--><g class="entity" data-entity="DTM_0006_msg_1" data-source-line="8" data-uid="ent0003" id="entity_DTM_0006_msg_1"><rect fill="#F1F1F1" height="145.7813" rx="2.5" ry="2.5" style="stroke:#181818;stroke-width:0.5;" width="495.6221" x="7" y="234.4869"/><ellipse cx="187.1782" cy="250.4869" fill="#ADD1B2" rx="11" ry="11" style="stroke:#181818;stroke-width:1;"/><path d="M190.147,256.1275 Q189.5688,256.4244 188.9282,256.565 Q188.2876,256.7213 187.5845,256.7213 Q185.0845,256.7213 183.7563,255.0806 Q182.4438,253.4244 182.4438,250.2994 Q182.4438,247.1744 183.7563,245.5181 Q185.0845,243.8619 187.5845,243.8619 Q188.2876,243.8619 188.9282,244.0181 Q189.5845,244.1744 190.147,244.4713 L190.147,247.19 Q189.522,246.6119 188.9282,246.3463 Q188.3345,246.065 187.7095,246.065 Q186.3657,246.065 185.6782,247.1431 Q184.9907,248.2056 184.9907,250.2994 Q184.9907,252.3931 185.6782,253.4713 Q186.3657,254.5338 187.7095,254.5338 Q188.3345,254.5338 188.9282,254.2681 Q189.522,253.9869 190.147,253.4088 L190.147,256.1275 Z " fill="#000000"/><text fill="#000000" font-family="sans-serif" font-size="14" lengthAdjust="spacing" textLength="126.7656" x="207.6782" y="255.3336">DTM_0006_msg_1</text><line style="stroke:#181818;stroke-width:0.5;" x1="8" x2="501.6221" y1="266.4869" y2="266.4869"/><text fill="#000000" font-family="sans-serif" font-size="14" lengthAdjust="spacing" textLength="161.1982" x="13" y="283.482">Nachricht: INVOIC 2.8d</text><text fill="#000000" font-family="sans-serif" font-size="14" lengthAdjust="spacing" textLength="204.1143" x="13" y="299.7789">Kontext: Nachrichtenstruktur</text><text fill="#000000" font-family="sans-serif" font-size="14" lengthAdjust="spacing" textLength="91.4033" x="13" y="316.0757">Pflichtfeld: Ja</text><text fill="#000000" font-family="sans-serif" font-size="14" lengthAdjust="spacing" textLength="110.4277" x="13" y="332.3726">Codes: 35, DTM</text><text fill="#000000" font-family="sans-serif" font-size="14" lengthAdjust="spacing" textLength="483.6221" x="13" y="348.6695">Prozesse: Netznutzungsabrechnung, Messstellenbetriebsabrechnung</text><text fill="#000000" font-family="sans-serif" font-size="14" lengthAdjust="spacing" textLength="396.6074" x="13" y="364.9664">Quelle: INVOIC_MIG_2.8d_Fehlerkorrektur_20250131.pdf</text><line style="stroke:#181818;stroke-width:0.5;" x1="8" x2="501.6221" y1="372.2681" y2="372.2681"/></g><!--class DTM_0006_proc_1--><g class="entity" data-entity="DTM_0006_proc_1" data-source-line="17" data-uid="ent0005" id="entity_DTM_0006_proc_1"><rect fill="#F1F1F1" height="105.1563" rx="2.5" ry="2.5" style="stroke:#181818;stroke-width:0.5;" width="752.6465" x="537.49" y="254.7969"/><ellipse cx="845.637" cy="274.9297" fill="#ADD1B2" rx="11" ry="11" style="stroke:#181818;stroke-width:1;"/><path d="M848.6057,280.5703 Q848.0276,280.8672 847.387,281.0078 Q846.7463,281.1641 846.0432,281.1641 Q843.5432,281.1641 842.2151,279.5234 Q840.9026,277.8672 840.9026,274.7422 Q840.9026,271.6172 842.2151,269.9609 Q843.5432,268.3047 846.0432,268.3047 Q846.7463,268.3047 847.387,268.4609 Q848.0432,268.6172 848.6057,268.9141 L848.6057,271.6328 Q847.9807,271.0547 847.387,270.7891 Q846.7932,270.5078 846.1682,270.5078 Q844.8245,270.5078 844.137,271.5859 Q843.4495,272.6484 843.4495,274.7422 Q843.4495,276.8359 844.137,277.9141 Q844.8245,278.9766 846.1682,278.9766 Q846.7932,278.9766 847.387,278.7109 Q847.9807,278.4297 848.6057,277.8516 L848.6057,280.5703 Z " fill="#000000"/><text fill="#000000" font-family="sans-serif" font-size="12" font-style="italic" lengthAdjust="spacing" textLength="61.0605" x="899.533" y="270.9355">&#171;process&#187;</text><text fill="#000000" font-family="sans-serif" font-size="14" lengthAdjust="spacing" textLength="127.8525" x="866.137" y="286.7607">DTM_0006_proc_1</text><line style="stroke:#181818;stroke-width:0.5;" x1="538.49" x2="1289.1365" y1="295.0625" y2="295.0625"/><text fill="#000000" font-family="sans-serif" font-size="14" lengthAdjust="spacing" textLength="180.3457" x="543.49" y="312.0576">Netznutzungsabrechnung</text><text fill="#000000" font-family="sans-serif" font-size="14" lengthAdjust="spacing" textLength="218.0938" x="543.49" y="328.3545">Gesetze: StromNEV, StromNZV</text><text fill="#000000" font-family="sans-serif" font-size="14" lengthAdjust="spacing" textLength="740.6465" x="543.49" y="344.6514">Zusammenfassung: Wie funktioniert die Netznutzungsabrechnung zwischen Netzbetreiber und Lieferant?</text><line style="stroke:#181818;stroke-width:0.5;" x1="538.49" x2="1289.1365" y1="351.9531" y2="351.9531"/></g><!--class DTM_0006_proc_2--><g class="entity" data-entity="DTM_0006_proc_2" data-source-line="23" data-uid="ent0007" id="entity_DTM_0006_proc_2"><rect fill="#F1F1F1" height="105.1563" rx="2.5" ry="2.5" style="stroke:#181818;stroke-width:0.5;" width="690.2275" x="1324.7" y="254.7969"/><ellipse cx="1601.6375" cy="274.9297" fill="#ADD1B2" rx="11" ry="11" style="stroke:#181818;stroke-width:1;"/><path d="M1604.6063,280.5703 Q1604.0281,280.8672 1603.3875,281.0078 Q1602.7469,281.1641 1602.0438,281.1641 Q1599.5438,281.1641 1598.2156,279.5234 Q1596.9031,277.8672 1596.9031,274.7422 Q1596.9031,271.6172 1598.2156,269.9609 Q1599.5438,268.3047 1602.0438,268.3047 Q1602.7469,268.3047 1603.3875,268.4609 Q1604.0438,268.6172 1604.6063,268.9141 L1604.6063,271.6328 Q1603.9813,271.0547 1603.3875,270.7891 Q1602.7938,270.5078 1602.1688,270.5078 Q1600.825,270.5078 1600.1375,271.5859 Q1599.45,272.6484 1599.45,274.7422 Q1599.45,276.8359 1600.1375,277.9141 Q1600.825,278.9766 1602.1688,278.9766 Q1602.7938,278.9766 1603.3875,278.7109 Q1603.9813,278.4297 1604.6063,277.8516 L1604.6063,280.5703 Z " fill="#000000"/><text fill="#000000" font-family="sans-serif" font-size="12" font-style="italic" lengthAdjust="spacing" textLength="61.0605" x="1655.5335" y="270.9355">&#171;process&#187;</text><text fill="#000000" font-family="sans-serif" font-size="14" lengthAdjust="spacing" textLength="127.8525" x="1622.1375" y="286.7607">DTM_0006_proc_2</text><line style="stroke:#181818;stroke-width:0.5;" x1="1325.7" x2="2013.9275" y1="295.0625" y2="295.0625"/><text fill="#000000" font-family="sans-serif" font-size="14" lengthAdjust="spacing" textLength="223.2822" x="1330.7" y="312.0576">Messstellenbetriebsabrechnung</text><text fill="#000000" font-family="sans-serif" font-size="14" lengthAdjust="spacing" textLength="105.0957" x="1330.7" y="328.3545">Gesetze: MsbG</text><text fill="#000000" font-family="sans-serif" font-size="14" lengthAdjust="spacing" textLength="678.2275" x="1330.7" y="344.6514">Zusammenfassung: Beschreibe den Prozess der Abrechnung von Messstellenbetriebsleistungen.</text><line style="stroke:#181818;stroke-width:0.5;" x1="1325.7" x2="2013.9275" y1="351.9531" y2="351.9531"/></g><!--link DTM_0006 to DTM_0006_msg_1--><g class="link" data-entity-1="DTM_0006" data-entity-2="DTM_0006_msg_1" data-source-line="16" data-uid="lnk4" id="link_DTM_0006_DTM_0006_msg_1"><path codeLine="16" d="M751.33,152.3069 C671.97,176.9369 580.7504,205.2385 493.6504,232.2685" fill="none" id="DTM_0006-to-DTM_0006_msg_1" style="stroke:#181818;stroke-width:1;"/><polygon fill="#181818" points="487.92,234.0469,497.7012,235.1996,492.6953,232.5649,495.3301,227.5591,487.92,234.0469" style="stroke:#181818;stroke-width:1;"/><text fill="#000000" font-family="sans-serif" font-size="13" lengthAdjust="spacing" textLength="85.2363" x="624.81" y="200.5538">verwendet in</text></g><!--link DTM_0006 to DTM_0006_proc_1--><g class="link" data-entity-1="DTM_0006" data-entity-2="DTM_0006_proc_1" data-source-line="22" data-uid="lnk6" id="link_DTM_0006_DTM_0006_proc_1"><path codeLine="22" d="M913.81,157.7669 C913.81,187.9169 913.81,218.9069 913.81,248.4269" fill="none" id="DTM_0006-to-DTM_0006_proc_1" style="stroke:#181818;stroke-width:1;stroke-dasharray:7,7;"/><polygon fill="#181818" points="913.81,254.4269,917.81,245.4269,913.81,249.4269,909.81,245.4269,913.81,254.4269" style="stroke:#181818;stroke-width:1;"/><text fill="#000000" font-family="sans-serif" font-size="13" lengthAdjust="spacing" textLength="91.6221" x="914.81" y="200.5538">eingebettet in</text></g><!--link DTM_0006 to DTM_0006_proc_2--><g class="link" data-entity-1="DTM_0006" data-entity-2="DTM_0006_proc_2" data-source-line="28" data-uid="lnk8" id="link_DTM_0006_DTM_0006_proc_2"><path codeLine="28" d="M1075.99,145.7569 C1193.68,177.5869 1347.5481,219.2104 1471.6681,252.7804" fill="none" id="DTM_0006-to-DTM_0006_proc_2" style="stroke:#181818;stroke-width:1;stroke-dasharray:7,7;"/><polygon fill="#181818" points="1477.46,254.3469,1469.8165,248.1359,1472.6334,253.0415,1467.7278,255.8584,1477.46,254.3469" style="stroke:#181818;stroke-width:1;"/><text fill="#000000" font-family="sans-serif" font-size="13" lengthAdjust="spacing" textLength="91.6221" x="1292.81" y="200.5538">eingebettet in</text></g><!--SRC=[XPFTRjD048Nl-nJp08bnN1KXgmgYBKG14a2W8FN6MdkFurNiTRKxswAWlZkp9QHHVkZT_1pld6zspOPRq8rYMCMjyZIacn-pF4tJrsULv3wcHKpfzndHN7N8wGhAbJ0SxD8FNotWdbEjE7GY_EhwDRn7BZ79eNFmsWPUHuqg7Qh6IhXfpaJf6MqBMuATGRchUTmpKdH-MOmsTgh6cQhXdARpnPVfDMN96osDJxrb_9BoLW7hsOKL1nVTrMsirMXrJX-LLAvx3P_J-SKWpja5E65zy89hecyXzluvAsRJIH7T5H_Gj72htZb4EqMMPXVfw7oKtEbQOBVx7Wx7-ymvtSCzm6em6Rk_bplNLoAwl8o1c1kF_oxfrEedyD8IXz_PzTty_MAmYMuNqhqDNdKTR2qpH9_JJmEgWrsnwQs1Oz9IE7uuhH-ChnhOftxS3am9Hy5g-cnGoukn_7ONDad61o0vmTWbv7C-pPiTyBvqBrlicIydnq2l8DwV79CMXCrBaDZHksV4-zuU6zN2-FWdm2R_vyiE-Fu0]--></g></svg>