<svg xmlns="http://www.w3.org/2000/svg" xmlns:xlink="http://www.w3.org/1999/xlink" contentStyleType="text/css" data-diagram-type="CLASS" height="370px" preserveAspectRatio="none" style="width:1484px;height:370px;background:#FFFFFF;" version="1.1" viewBox="0 0 1484 370" width="1484px" zoomAndPan="magnify"><title>Datenatlas - DTM:0240</title><defs/><g><g class="title" data-source-line="1"><text fill="#000000" font-family="sans-serif" font-size="14" font-weight="bold" lengthAdjust="spacing" textLength="181.166" x="644.6752" y="22.9951">Datenatlas - DTM:0240</text></g><!--class DTM_0240--><g class="entity" data-entity="DTM_0240" data-source-line="2" data-uid="ent0002" id="entity_DTM_0240"><rect fill="#F1F1F1" height="96.8906" rx="2.5" ry="2.5" style="stroke:#181818;stroke-width:0.5;" width="265.3672" x="591.51" y="44.2969"/><ellipse cx="682.9236" cy="60.2969" fill="#ADD1B2" rx="11" ry="11" style="stroke:#181818;stroke-width:1;"/><path d="M685.8923,65.9375 Q685.3142,66.2344 684.6736,66.375 Q684.0329,66.5313 683.3298,66.5313 Q680.8298,66.5313 679.5017,64.8906 Q678.1892,63.2344 678.1892,60.1094 Q678.1892,56.9844 679.5017,55.3281 Q680.8298,53.6719 683.3298,53.6719 Q684.0329,53.6719 684.6736,53.8281 Q685.3298,53.9844 685.8923,54.2813 L685.8923,57 Q685.2673,56.4219 684.6736,56.1563 Q684.0798,55.875 683.4548,55.875 Q682.1111,55.875 681.4236,56.9531 Q680.7361,58.0156 680.7361,60.1094 Q680.7361,62.2031 681.4236,63.2813 Q682.1111,64.3438 683.4548,64.3438 Q684.0798,64.3438 684.6736,64.0781 Q685.2673,63.7969 685.8923,63.2188 L685.8923,65.9375 Z " fill="#000000"/><text fill="#000000" font-family="sans-serif" font-size="14" lengthAdjust="spacing" textLength="74.04" x="703.4236" y="65.1436">DTM_0240</text><line style="stroke:#181818;stroke-width:0.5;" x1="592.51" x2="855.8772" y1="76.2969" y2="76.2969"/><text fill="#000000" font-family="sans-serif" font-size="14" lengthAdjust="spacing" textLength="239.3672" x="611.51" y="93.292">Name: Beginn des Ger&#228;te - Status</text><text fill="#000000" font-family="sans-serif" font-size="14" lengthAdjust="spacing" textLength="66.6436" x="611.51" y="109.5889">Prozesse:</text><rect fill="none" height="6" style="stroke:#C82930;stroke-width:1;" width="6" x="599.51" y="119.5391"/><text fill="#000000" font-family="sans-serif" font-size="14" lengthAdjust="spacing" textLength="180.3457" x="611.51" y="125.8857">Netznutzungsabrechnung</text><line style="stroke:#181818;stroke-width:0.5;" x1="592.51" x2="855.8772" y1="133.1875" y2="133.1875"/></g><!--class DTM_0240_msg_1--><g class="entity" data-entity="DTM_0240_msg_1" data-source-line="7" data-uid="ent0003" id="entity_DTM_0240_msg_1"><rect fill="#F1F1F1" height="145.7813" rx="2.5" ry="2.5" style="stroke:#181818;stroke-width:0.5;" width="682.3936" x="7" y="218.1869"/><ellipse cx="280.564" cy="234.1869" fill="#ADD1B2" rx="11" ry="11" style="stroke:#181818;stroke-width:1;"/><path d="M283.5327,239.8275 Q282.9546,240.1244 282.314,240.265 Q281.6733,240.4213 280.9702,240.4213 Q278.4702,240.4213 277.1421,238.7806 Q275.8296,237.1244 275.8296,233.9994 Q275.8296,230.8744 277.1421,229.2181 Q278.4702,227.5619 280.9702,227.5619 Q281.6733,227.5619 282.314,227.7181 Q282.9702,227.8744 283.5327,228.1713 L283.5327,230.89 Q282.9077,230.3119 282.314,230.0463 Q281.7202,229.765 281.0952,229.765 Q279.7515,229.765 279.064,230.8431 Q278.3765,231.9056 278.3765,233.9994 Q278.3765,236.0931 279.064,237.1713 Q279.7515,238.2338 281.0952,238.2338 Q281.7202,238.2338 282.314,237.9681 Q282.9077,237.6869 283.5327,237.1088 L283.5327,239.8275 Z " fill="#000000"/><text fill="#000000" font-family="sans-serif" font-size="14" lengthAdjust="spacing" textLength="126.7656" x="301.064" y="239.0336">DTM_0240_msg_1</text><line style="stroke:#181818;stroke-width:0.5;" x1="8" x2="688.3936" y1="250.1869" y2="250.1869"/><text fill="#000000" font-family="sans-serif" font-size="14" lengthAdjust="spacing" textLength="161.998" x="13" y="267.182">Nachricht: INSRPT 1.1a</text><text fill="#000000" font-family="sans-serif" font-size="14" lengthAdjust="spacing" textLength="670.3936" x="13" y="283.4789">Kontext: 0200   SG7   C   R   999   999   2   LIN - DTM - DTM - DTM - DTM - STS - STS - FTX - SG8</text><text fill="#000000" font-family="sans-serif" font-size="14" lengthAdjust="spacing" textLength="110.5439" x="13" y="299.7757">Pflichtfeld: Nein</text><text fill="#000000" font-family="sans-serif" font-size="14" lengthAdjust="spacing" textLength="110.4277" x="13" y="316.0726">Codes: 99, DTM</text><text fill="#000000" font-family="sans-serif" font-size="14" lengthAdjust="spacing" textLength="251.4395" x="13" y="332.3695">Prozesse: Netznutzungsabrechnung</text><text fill="#000000" font-family="sans-serif" font-size="14" lengthAdjust="spacing" textLength="410.9219" x="13" y="348.6664">Quelle: INSRPT_MIG_1_1a_au&#223;erordentliche_20240726.pdf</text><line style="stroke:#181818;stroke-width:0.5;" x1="8" x2="688.3936" y1="355.9681" y2="355.9681"/></g><!--class DTM_0240_proc_1--><g class="entity" data-entity="DTM_0240_proc_1" data-source-line="16" data-uid="ent0005" id="entity_DTM_0240_proc_1"><rect fill="#F1F1F1" height="105.1563" rx="2.5" ry="2.5" style="stroke:#181818;stroke-width:0.5;" width="752.6465" x="724.87" y="238.4969"/><ellipse cx="1033.017" cy="258.6297" fill="#ADD1B2" rx="11" ry="11" style="stroke:#181818;stroke-width:1;"/><path d="M1035.9857,264.2703 Q1035.4076,264.5672 1034.767,264.7078 Q1034.1263,264.8641 1033.4232,264.8641 Q1030.9232,264.8641 1029.5951,263.2234 Q1028.2826,261.5672 1028.2826,258.4422 Q1028.2826,255.3172 1029.5951,253.6609 Q1030.9232,252.0047 1033.4232,252.0047 Q1034.1263,252.0047 1034.767,252.1609 Q1035.4232,252.3172 1035.9857,252.6141 L1035.9857,255.3328 Q1035.3607,254.7547 1034.767,254.4891 Q1034.1732,254.2078 1033.5482,254.2078 Q1032.2045,254.2078 1031.517,255.2859 Q1030.8295,256.3484 1030.8295,258.4422 Q1030.8295,260.5359 1031.517,261.6141 Q1032.2045,262.6766 1033.5482,262.6766 Q1034.1732,262.6766 1034.767,262.4109 Q1035.3607,262.1297 1035.9857,261.5516 L1035.9857,264.2703 Z " fill="#000000"/><text fill="#000000" font-family="sans-serif" font-size="12" font-style="italic" lengthAdjust="spacing" textLength="61.0605" x="1086.913" y="254.6355">&#171;process&#187;</text><text fill="#000000" font-family="sans-serif" font-size="14" lengthAdjust="spacing" textLength="127.8525" x="1053.517" y="270.4607">DTM_0240_proc_1</text><line style="stroke:#181818;stroke-width:0.5;" x1="725.87" x2="1476.5165" y1="278.7625" y2="278.7625"/><text fill="#000000" font-family="sans-serif" font-size="14" lengthAdjust="spacing" textLength="180.3457" x="730.87" y="295.7576">Netznutzungsabrechnung</text><text fill="#000000" font-family="sans-serif" font-size="14" lengthAdjust="spacing" textLength="218.0938" x="730.87" y="312.0545">Gesetze: StromNEV, StromNZV</text><text fill="#000000" font-family="sans-serif" font-size="14" lengthAdjust="spacing" textLength="740.6465" x="730.87" y="328.3514">Zusammenfassung: Wie funktioniert die Netznutzungsabrechnung zwischen Netzbetreiber und Lieferant?</text><line style="stroke:#181818;stroke-width:0.5;" x1="725.87" x2="1476.5165" y1="335.6531" y2="335.6531"/></g><!--link DTM_0240 to DTM_0240_msg_1--><g class="link" data-entity-1="DTM_0240" data-entity-2="DTM_0240_msg_1" data-source-line="15" data-uid="lnk4" id="link_DTM_0240_DTM_0240_msg_1"><path codeLine="15" d="M632.7,141.5169 C588.79,164.4469 540.5586,189.6297 491.8186,215.0797" fill="none" id="DTM_0240-to-DTM_0240_msg_1" style="stroke:#181818;stroke-width:1;"/><polygon fill="#181818" points="486.5,217.8569,496.3293,217.2369,490.9322,215.5426,492.6265,210.1454,486.5,217.8569" style="stroke:#181818;stroke-width:1;"/><text fill="#000000" font-family="sans-serif" font-size="13" lengthAdjust="spacing" textLength="85.2363" x="571.2" y="184.2538">verwendet in</text></g><!--link DTM_0240 to DTM_0240_proc_1--><g class="link" data-entity-1="DTM_0240" data-entity-2="DTM_0240_proc_1" data-source-line="21" data-uid="lnk6" id="link_DTM_0240_DTM_0240_proc_1"><path codeLine="21" d="M815.94,141.5169 C872.06,170.7469 938.5688,205.3748 996.0988,235.3448" fill="none" id="DTM_0240-to-DTM_0240_proc_1" style="stroke:#181818;stroke-width:1;stroke-dasharray:7,7;"/><polygon fill="#181818" points="1001.42,238.1169,995.2862,230.4113,996.9856,235.8068,991.5901,237.5063,1001.42,238.1169" style="stroke:#181818;stroke-width:1;"/><text fill="#000000" font-family="sans-serif" font-size="13" lengthAdjust="spacing" textLength="91.6221" x="903.2" y="184.2538">eingebettet in</text></g><!--SRC=[TL1TJi9047xd57C086rZH3O44qKR8ZHg2HfVcgMTmiPsQtQdQceyYo_UX8ivYqeCmiDCvd- -xoD51S984cf9XRJGWT5iAhpWo6kbd5kN9Yw5jnP094iKS8PBfJLaQ254i_uavBMO9DMMPwvDrQ2rA3W6RaH8ZQwfgVNIoeN1TAKvRBtlt4zAkqpydo_fogXqHGB6KNnxFGE_wqjkN5MQy9NBNk1vV3mEU-pFsMxP-lt-rWTiat7qJMUlZsVnrb_ExbqSdZZuUU5UvrXaWh4hpRNpYhaAFjrsotyv7c87S5DZKU0lWsGw3XC_yMKYw_K7cifagCbzmYHmz7l1SVSforcMhU2Tpd1N7G7FQ5vGPqZ0o7OKV39LoaE3WGiOtd3uBUSXY25QRZ76c4nLHXVpza_qCEVkGsrbMQBE-GVF2xXJ27cj7qbLMg4XoBYm_pWqByeoDxtfBv0CgWKQg7K64uKv6gdfz2_PRdVuZuW0bd-9l4uRlby0]--></g></svg>