<svg xmlns="http://www.w3.org/2000/svg" xmlns:xlink="http://www.w3.org/1999/xlink" contentStyleType="text/css" data-diagram-type="CLASS" height="387px" preserveAspectRatio="none" style="width:2998px;height:387px;background:#FFFFFF;" version="1.1" viewBox="0 0 2998 387" width="2998px" zoomAndPan="magnify"><title>Datenatlas - DTM:00008</title><defs/><g><g class="title" data-source-line="1"><text fill="#000000" font-family="sans-serif" font-size="14" font-weight="bold" lengthAdjust="spacing" textLength="190.9072" x="1396.586" y="22.9951">Datenatlas - DTM:00008</text></g><!--class DTM_00008--><g class="entity" data-entity="DTM_00008" data-source-line="2" data-uid="ent0002" id="entity_DTM_00008"><rect fill="#F1F1F1" height="113.1875" rx="2.5" ry="2.5" style="stroke:#181818;stroke-width:0.5;" width="400.2402" x="1250.96" y="44.2969"/><ellipse cx="1405.3565" cy="60.2969" fill="#ADD1B2" rx="11" ry="11" style="stroke:#181818;stroke-width:1;"/><path d="M1408.3252,65.9375 Q1407.7471,66.2344 1407.1065,66.375 Q1406.4659,66.5313 1405.7627,66.5313 Q1403.2627,66.5313 1401.9346,64.8906 Q1400.6221,63.2344 1400.6221,60.1094 Q1400.6221,56.9844 1401.9346,55.3281 Q1403.2627,53.6719 1405.7627,53.6719 Q1406.4659,53.6719 1407.1065,53.8281 Q1407.7627,53.9844 1408.3252,54.2813 L1408.3252,57 Q1407.7002,56.4219 1407.1065,56.1563 Q1406.5127,55.875 1405.8877,55.875 Q1404.544,55.875 1403.8565,56.9531 Q1403.169,58.0156 1403.169,60.1094 Q1403.169,62.2031 1403.8565,63.2813 Q1404.544,64.3438 1405.8877,64.3438 Q1406.5127,64.3438 1407.1065,64.0781 Q1407.7002,63.7969 1408.3252,63.2188 L1408.3252,65.9375 Z " fill="#000000"/><text fill="#000000" font-family="sans-serif" font-size="14" lengthAdjust="spacing" textLength="82.9473" x="1425.8565" y="65.1436">DTM_00008</text><line style="stroke:#181818;stroke-width:0.5;" x1="1251.96" x2="1650.2002" y1="76.2969" y2="76.2969"/><text fill="#000000" font-family="sans-serif" font-size="14" lengthAdjust="spacing" textLength="66.6436" x="1270.96" y="93.292">Prozesse:</text><rect fill="none" height="6" style="stroke:#C82930;stroke-width:1;" width="6" x="1258.96" y="103.2422"/><text fill="#000000" font-family="sans-serif" font-size="14" lengthAdjust="spacing" textLength="317.9668" x="1270.96" y="109.5889">Sperrung und Entsperrung eines Anschlusses</text><line style="stroke:#181818;stroke-width:0.5;" x1="1251.96" x2="1650.2002" y1="116.8906" y2="116.8906"/><text fill="#000000" font-family="sans-serif" font-size="14" lengthAdjust="spacing" textLength="374.2402" x="1270.96" y="133.8857">Name: G&#252;ltigkeitsdauer (Bindungsfrist des Angebots)</text><rect fill="#F24D5C" height="6" style="stroke:#C82930;stroke-width:1;" width="6" x="1258.96" y="143.8359"/><text fill="#000000" font-family="sans-serif" font-size="14" lengthAdjust="spacing" textLength="348.2021" x="1270.96" y="150.1826">Bestellung einer technischen Konfiguration (MSB)</text></g><!--class DTM_00008_msg_1--><g class="entity" data-entity="DTM_00008_msg_1" data-source-line="8" data-uid="ent0003" id="entity_DTM_00008_msg_1"><rect fill="#F1F1F1" height="145.7813" rx="2.5" ry="2.5" style="stroke:#181818;stroke-width:0.5;" width="758.1631" x="7" y="234.4869"/><ellipse cx="313.9951" cy="250.4869" fill="#ADD1B2" rx="11" ry="11" style="stroke:#181818;stroke-width:1;"/><path d="M316.9639,256.1275 Q316.3857,256.4244 315.7451,256.565 Q315.1045,256.7213 314.4014,256.7213 Q311.9014,256.7213 310.5732,255.0806 Q309.2607,253.4244 309.2607,250.2994 Q309.2607,247.1744 310.5732,245.5181 Q311.9014,243.8619 314.4014,243.8619 Q315.1045,243.8619 315.7451,244.0181 Q316.4014,244.1744 316.9639,244.4713 L316.9639,247.19 Q316.3389,246.6119 315.7451,246.3463 Q315.1514,246.065 314.5264,246.065 Q313.1826,246.065 312.4951,247.1431 Q311.8076,248.2056 311.8076,250.2994 Q311.8076,252.3931 312.4951,253.4713 Q313.1826,254.5338 314.5264,254.5338 Q315.1514,254.5338 315.7451,254.2681 Q316.3389,253.9869 316.9639,253.4088 L316.9639,256.1275 Z " fill="#000000"/><text fill="#000000" font-family="sans-serif" font-size="14" lengthAdjust="spacing" textLength="135.6729" x="334.4951" y="255.3336">DTM_00008_msg_1</text><line style="stroke:#181818;stroke-width:0.5;" x1="8" x2="764.1631" y1="266.4869" y2="266.4869"/><text fill="#000000" font-family="sans-serif" font-size="14" lengthAdjust="spacing" textLength="170.3584" x="13" y="283.482">Nachricht: QUOTES 1.3a</text><text fill="#000000" font-family="sans-serif" font-size="14" lengthAdjust="spacing" textLength="204.1143" x="13" y="299.7789">Kontext: Nachrichtenstruktur</text><text fill="#000000" font-family="sans-serif" font-size="14" lengthAdjust="spacing" textLength="91.4033" x="13" y="316.0757">Pflichtfeld: Ja</text><text fill="#000000" font-family="sans-serif" font-size="14" lengthAdjust="spacing" textLength="110.4277" x="13" y="332.3726">Codes: 35, DTM</text><text fill="#000000" font-family="sans-serif" font-size="14" lengthAdjust="spacing" textLength="292.4961" x="13" y="348.6695">Quelle: QUOTES_MIG_1_3a_20240619.pdf</text><line style="stroke:#181818;stroke-width:0.5;" x1="8" x2="764.1631" y1="355.9713" y2="355.9713"/><text fill="#000000" font-family="sans-serif" font-size="14" lengthAdjust="spacing" textLength="746.1631" x="13" y="372.9664">Prozesse: Bestellung einer technischen Konfiguration (MSB), Sperrung und Entsperrung eines Anschlusses</text></g><!--class DTM_00008_proc_1--><g class="entity" data-entity="DTM_00008_proc_1" data-source-line="17" data-uid="ent0005" id="entity_DTM_00008_proc_1"><rect fill="#F1F1F1" height="105.1563" rx="2.5" ry="2.5" style="stroke:#181818;stroke-width:0.5;" width="1301.9961" x="800.08" y="254.7969"/><ellipse cx="1378.4482" cy="274.9297" fill="#ADD1B2" rx="11" ry="11" style="stroke:#181818;stroke-width:1;"/><path d="M1381.4169,280.5703 Q1380.8388,280.8672 1380.1982,281.0078 Q1379.5575,281.1641 1378.8544,281.1641 Q1376.3544,281.1641 1375.0263,279.5234 Q1373.7138,277.8672 1373.7138,274.7422 Q1373.7138,271.6172 1375.0263,269.9609 Q1376.3544,268.3047 1378.8544,268.3047 Q1379.5575,268.3047 1380.1982,268.4609 Q1380.8544,268.6172 1381.4169,268.9141 L1381.4169,271.6328 Q1380.7919,271.0547 1380.1982,270.7891 Q1379.6044,270.5078 1378.9794,270.5078 Q1377.6357,270.5078 1376.9482,271.5859 Q1376.2607,272.6484 1376.2607,274.7422 Q1376.2607,276.8359 1376.9482,277.9141 Q1377.6357,278.9766 1378.9794,278.9766 Q1379.6044,278.9766 1380.1982,278.7109 Q1380.7919,278.4297 1381.4169,277.8516 L1381.4169,280.5703 Z " fill="#000000"/><text fill="#000000" font-family="sans-serif" font-size="12" font-style="italic" lengthAdjust="spacing" textLength="61.0605" x="1436.7978" y="270.9355">&#171;process&#187;</text><text fill="#000000" font-family="sans-serif" font-size="14" lengthAdjust="spacing" textLength="136.7598" x="1398.9482" y="286.7607">DTM_00008_proc_1</text><line style="stroke:#181818;stroke-width:0.5;" x1="801.08" x2="2101.0761" y1="295.0625" y2="295.0625"/><text fill="#000000" font-family="sans-serif" font-size="14" lengthAdjust="spacing" textLength="156.4063" x="806.08" y="312.0576">Gesetze: MsbG, EnWG</text><text fill="#000000" font-family="sans-serif" font-size="14" lengthAdjust="spacing" textLength="1289.9961" x="806.08" y="328.3545">Zusammenfassung: Erl&#228;utere den Prozess zur Bestellung einer spezifischen technischen Konfiguration bei einem Messstellenbetreiber, beispielsweise f&#252;r ein intelligentes Messsystem.</text><line style="stroke:#181818;stroke-width:0.5;" x1="801.08" x2="2101.0761" y1="335.6563" y2="335.6563"/><text fill="#000000" font-family="sans-serif" font-size="14" lengthAdjust="spacing" textLength="348.2021" x="806.08" y="352.6514">Bestellung einer technischen Konfiguration (MSB)</text></g><!--class DTM_00008_proc_2--><g class="entity" data-entity="DTM_00008_proc_2" data-source-line="23" data-uid="ent0007" id="entity_DTM_00008_proc_2"><rect fill="#F1F1F1" height="105.1563" rx="2.5" ry="2.5" style="stroke:#181818;stroke-width:0.5;" width="853.9893" x="2137.09" y="254.7969"/><ellipse cx="2491.4547" cy="274.9297" fill="#ADD1B2" rx="11" ry="11" style="stroke:#181818;stroke-width:1;"/><path d="M2494.4235,280.5703 Q2493.8454,280.8672 2493.2047,281.0078 Q2492.5641,281.1641 2491.861,281.1641 Q2489.361,281.1641 2488.0329,279.5234 Q2486.7204,277.8672 2486.7204,274.7422 Q2486.7204,271.6172 2488.0329,269.9609 Q2489.361,268.3047 2491.861,268.3047 Q2492.5641,268.3047 2493.2047,268.4609 Q2493.861,268.6172 2494.4235,268.9141 L2494.4235,271.6328 Q2493.7985,271.0547 2493.2047,270.7891 Q2492.611,270.5078 2491.986,270.5078 Q2490.6422,270.5078 2489.9547,271.5859 Q2489.2672,272.6484 2489.2672,274.7422 Q2489.2672,276.8359 2489.9547,277.9141 Q2490.6422,278.9766 2491.986,278.9766 Q2492.611,278.9766 2493.2047,278.7109 Q2493.7985,278.4297 2494.4235,277.8516 L2494.4235,280.5703 Z " fill="#000000"/><text fill="#000000" font-family="sans-serif" font-size="12" font-style="italic" lengthAdjust="spacing" textLength="61.0605" x="2549.8044" y="270.9355">&#171;process&#187;</text><text fill="#000000" font-family="sans-serif" font-size="14" lengthAdjust="spacing" textLength="136.7598" x="2511.9547" y="286.7607">DTM_00008_proc_2</text><line style="stroke:#181818;stroke-width:0.5;" x1="2138.09" x2="2990.0793" y1="295.0625" y2="295.0625"/><text fill="#000000" font-family="sans-serif" font-size="14" lengthAdjust="spacing" textLength="317.9668" x="2143.09" y="312.0576">Sperrung und Entsperrung eines Anschlusses</text><text fill="#000000" font-family="sans-serif" font-size="14" lengthAdjust="spacing" textLength="138.3252" x="2143.09" y="328.3545">Gesetze: StromGVV</text><text fill="#000000" font-family="sans-serif" font-size="14" lengthAdjust="spacing" textLength="841.9893" x="2143.09" y="344.6514">Zusammenfassung: Beschreibe den End-to-End-Prozess f&#252;r die Sperrung und Wiederherstellung eines Netzanschlusses.</text><line style="stroke:#181818;stroke-width:0.5;" x1="2138.09" x2="2990.0793" y1="351.9531" y2="351.9531"/></g><!--link DTM_00008 to DTM_00008_msg_1--><g class="link" data-entity-1="DTM_00008" data-entity-2="DTM_00008_msg_1" data-source-line="16" data-uid="lnk4" id="link_DTM_00008_DTM_00008_msg_1"><path codeLine="16" d="M1250.76,140.3569 C1113.61,166.6869 933.3924,201.2855 768.9724,232.8555" fill="none" id="DTM_00008-to-DTM_00008_msg_1" style="stroke:#181818;stroke-width:1;"/><polygon fill="#181818" points="763.08,233.9869,772.6728,236.218,767.9903,233.0441,771.1643,228.3616,763.08,233.9869" style="stroke:#181818;stroke-width:1;"/><text fill="#000000" font-family="sans-serif" font-size="13" lengthAdjust="spacing" textLength="85.2363" x="984.08" y="200.5538">verwendet in</text></g><!--link DTM_00008 to DTM_00008_proc_1--><g class="link" data-entity-1="DTM_00008" data-entity-2="DTM_00008_proc_1" data-source-line="22" data-uid="lnk6" id="link_DTM_00008_DTM_00008_proc_1"><path codeLine="22" d="M1451.08,157.7669 C1451.08,187.9169 1451.08,218.9069 1451.08,248.4269" fill="none" id="DTM_00008-to-DTM_00008_proc_1" style="stroke:#181818;stroke-width:1;stroke-dasharray:7,7;"/><polygon fill="#181818" points="1451.08,254.4269,1455.08,245.4269,1451.08,249.4269,1447.08,245.4269,1451.08,254.4269" style="stroke:#181818;stroke-width:1;"/><text fill="#000000" font-family="sans-serif" font-size="13" lengthAdjust="spacing" textLength="91.6221" x="1452.08" y="200.5538">eingebettet in</text></g><!--link DTM_00008 to DTM_00008_proc_2--><g class="link" data-entity-1="DTM_00008" data-entity-2="DTM_00008_proc_2" data-source-line="28" data-uid="lnk8" id="link_DTM_00008_DTM_00008_proc_2"><path codeLine="28" d="M1651.67,138.7469 C1827.27,171.0069 2078.4088,217.1424 2274.9588,253.2624" fill="none" id="DTM_00008-to-DTM_00008_proc_2" style="stroke:#181818;stroke-width:1;stroke-dasharray:7,7;"/><polygon fill="#181818" points="2280.86,254.3469,2272.7312,248.7861,2275.9423,253.4432,2271.2853,256.6543,2280.86,254.3469" style="stroke:#181818;stroke-width:1;"/><text fill="#000000" font-family="sans-serif" font-size="13" lengthAdjust="spacing" textLength="91.6221" x="2009.08" y="200.5538">eingebettet in</text></g><!--SRC=[dPBRRjD048RlynHpsKgnbGCWiAf8X4OM81Ugz21nO_amjbUrrz7EB8LKl0sFqRkyM6TDqXBCGS4tU_3-yy__xRBY6k4qOTG9rmc11wSNKJ2Ix-KWamrowxXRmzq0u2nfC81mSr-pAczGCUM9HGD7SwLpgqigZ2A670bUwnBJbkbOP1zDkqOY36GEOZ97Ognh4G0gBNh6hDAAiWerl6zreKfh4bQjXgDeEJ_UofOhDCQ9hCvXePbsQrV4EKg1seeF3RxzsdxSK1cFjo6oogYiuW3EBpzSB9OmzgU9_11dnY-o_NW2DR6nDsoDIr7KRg_0EW_WdHEyQILf0DFdGsVqSz238muFIGTmRgKuxWB4qTim7iVJ99wC9iz6ByQl_5LU28Ids_EyMGz609_HtABEaK7f7h6LQJCvTNBY9f9gDklm_SVbXKZ8QsateZGSIhZhK7O_MKgQ1dKXjb8jW8MfDzyjeq5vGNe74zRMz4s5pbeLMzS_Tv2YwWGDH5Aggu4wHJQeKZH3zvzM2ckwbGb2iRatxhpWS4TLYJBI3-rNKJV-7bJVd_Lv1Qw0l7ra_WlNIO_hGVV_I7J9fct2gwlVyHHeyevTqexdGkSUjvuRTcYxlBd2VVDhXJcQ2iqUSu8piKoUslWdYqcFnGC0]--></g></svg>