<svg xmlns="http://www.w3.org/2000/svg" xmlns:xlink="http://www.w3.org/1999/xlink" contentStyleType="text/css" data-diagram-type="CLASS" height="403px" preserveAspectRatio="none" style="width:4129px;height:403px;background:#FFFFFF;" version="1.1" viewBox="0 0 4129 403" width="4129px" zoomAndPan="magnify"><title>Datenatlas - DTM:00004</title><defs/><g><g class="title" data-source-line="1"><text fill="#000000" font-family="sans-serif" font-size="14" font-weight="bold" lengthAdjust="spacing" textLength="190.9072" x="1962.451" y="22.9951">Datenatlas - DTM:00004</text></g><!--class DTM_00004--><g class="entity" data-entity="DTM_00004" data-source-line="2" data-uid="ent0002" id="entity_DTM_00004"><rect fill="#F1F1F1" height="129.4844" rx="2.5" ry="2.5" style="stroke:#181818;stroke-width:0.5;" width="374.2021" x="1333.71" y="44.2969"/><ellipse cx="1475.0874" cy="60.2969" fill="#ADD1B2" rx="11" ry="11" style="stroke:#181818;stroke-width:1;"/><path d="M1478.0562,65.9375 Q1477.4781,66.2344 1476.8374,66.375 Q1476.1968,66.5313 1475.4937,66.5313 Q1472.9937,66.5313 1471.6656,64.8906 Q1470.3531,63.2344 1470.3531,60.1094 Q1470.3531,56.9844 1471.6656,55.3281 Q1472.9937,53.6719 1475.4937,53.6719 Q1476.1968,53.6719 1476.8374,53.8281 Q1477.4937,53.9844 1478.0562,54.2813 L1478.0562,57 Q1477.4312,56.4219 1476.8374,56.1563 Q1476.2437,55.875 1475.6187,55.875 Q1474.2749,55.875 1473.5874,56.9531 Q1472.8999,58.0156 1472.8999,60.1094 Q1472.8999,62.2031 1473.5874,63.2813 Q1474.2749,64.3438 1475.6187,64.3438 Q1476.2437,64.3438 1476.8374,64.0781 Q1477.4312,63.7969 1478.0562,63.2188 L1478.0562,65.9375 Z " fill="#000000"/><text fill="#000000" font-family="sans-serif" font-size="14" lengthAdjust="spacing" textLength="82.9473" x="1495.5874" y="65.1436">DTM_00004</text><line style="stroke:#181818;stroke-width:0.5;" x1="1334.71" x2="1706.9121" y1="76.2969" y2="76.2969"/><text fill="#000000" font-family="sans-serif" font-size="14" lengthAdjust="spacing" textLength="326.7783" x="1353.71" y="93.292">Name: Datum zum geplanten Leistungsbeginn</text><text fill="#000000" font-family="sans-serif" font-size="14" lengthAdjust="spacing" textLength="66.6436" x="1353.71" y="109.5889">Prozesse:</text><rect fill="none" height="6" style="stroke:#C82930;stroke-width:1;" width="6" x="1341.71" y="119.5391"/><text fill="#000000" font-family="sans-serif" font-size="14" lengthAdjust="spacing" textLength="180.3457" x="1353.71" y="125.8857">Netznutzungsabrechnung</text><rect fill="none" height="6" style="stroke:#C82930;stroke-width:1;" width="6" x="1341.71" y="135.8359"/><text fill="#000000" font-family="sans-serif" font-size="14" lengthAdjust="spacing" textLength="317.9668" x="1353.71" y="142.1826">Sperrung und Entsperrung eines Anschlusses</text><line style="stroke:#181818;stroke-width:0.5;" x1="1334.71" x2="1706.9121" y1="149.4844" y2="149.4844"/><rect fill="#F24D5C" height="6" style="stroke:#C82930;stroke-width:1;" width="6" x="1341.71" y="160.1328"/><text fill="#000000" font-family="sans-serif" font-size="14" lengthAdjust="spacing" textLength="348.2021" x="1353.71" y="166.4795">Bestellung einer technischen Konfiguration (MSB)</text></g><!--class DTM_00004_msg_1--><g class="entity" data-entity="DTM_00004_msg_1" data-source-line="9" data-uid="ent0003" id="entity_DTM_00004_msg_1"><rect fill="#F1F1F1" height="145.7813" rx="2.5" ry="2.5" style="stroke:#181818;stroke-width:0.5;" width="309.6299" x="7" y="250.7869"/><ellipse cx="89.7285" cy="266.7869" fill="#ADD1B2" rx="11" ry="11" style="stroke:#181818;stroke-width:1;"/><path d="M92.6973,272.4275 Q92.1191,272.7244 91.4785,272.865 Q90.8379,273.0213 90.1348,273.0213 Q87.6348,273.0213 86.3066,271.3806 Q84.9941,269.7244 84.9941,266.5994 Q84.9941,263.4744 86.3066,261.8181 Q87.6348,260.1619 90.1348,260.1619 Q90.8379,260.1619 91.4785,260.3181 Q92.1348,260.4744 92.6973,260.7713 L92.6973,263.49 Q92.0723,262.9119 91.4785,262.6463 Q90.8848,262.365 90.2598,262.365 Q88.916,262.365 88.2285,263.4431 Q87.541,264.5056 87.541,266.5994 Q87.541,268.6931 88.2285,269.7713 Q88.916,270.8338 90.2598,270.8338 Q90.8848,270.8338 91.4785,270.5681 Q92.0723,270.2869 92.6973,269.7088 L92.6973,272.4275 Z " fill="#000000"/><text fill="#000000" font-family="sans-serif" font-size="14" lengthAdjust="spacing" textLength="135.6729" x="110.2285" y="271.6336">DTM_00004_msg_1</text><line style="stroke:#181818;stroke-width:0.5;" x1="8" x2="315.6299" y1="282.7869" y2="282.7869"/><text fill="#000000" font-family="sans-serif" font-size="14" lengthAdjust="spacing" textLength="172.9424" x="13" y="299.782">Nachricht: COMDIS 1.0e.</text><text fill="#000000" font-family="sans-serif" font-size="14" lengthAdjust="spacing" textLength="204.1143" x="13" y="316.0789">Kontext: Nachrichtenstruktur</text><text fill="#000000" font-family="sans-serif" font-size="14" lengthAdjust="spacing" textLength="110.5439" x="13" y="332.3757">Pflichtfeld: Nein</text><text fill="#000000" font-family="sans-serif" font-size="14" lengthAdjust="spacing" textLength="83.7129" x="13" y="348.6726">Codes: DTM</text><text fill="#000000" font-family="sans-serif" font-size="14" lengthAdjust="spacing" textLength="251.4395" x="13" y="364.9695">Prozesse: Netznutzungsabrechnung</text><text fill="#000000" font-family="sans-serif" font-size="14" lengthAdjust="spacing" textLength="297.6299" x="13" y="381.2664">Quelle: COMDIS_MIG_1_0e__20240619.pdf</text><line style="stroke:#181818;stroke-width:0.5;" x1="8" x2="315.6299" y1="388.5681" y2="388.5681"/></g><!--class DTM_00004_msg_2--><g class="entity" data-entity="DTM_00004_msg_2" data-source-line="18" data-uid="ent0005" id="entity_DTM_00004_msg_2"><rect fill="#F1F1F1" height="145.7813" rx="2.5" ry="2.5" style="stroke:#181818;stroke-width:0.5;" width="758.1631" x="351.73" y="250.7869"/><ellipse cx="658.7251" cy="266.7869" fill="#ADD1B2" rx="11" ry="11" style="stroke:#181818;stroke-width:1;"/><path d="M661.6939,272.4275 Q661.1157,272.7244 660.4751,272.865 Q659.8345,273.0213 659.1314,273.0213 Q656.6314,273.0213 655.3032,271.3806 Q653.9907,269.7244 653.9907,266.5994 Q653.9907,263.4744 655.3032,261.8181 Q656.6314,260.1619 659.1314,260.1619 Q659.8345,260.1619 660.4751,260.3181 Q661.1314,260.4744 661.6939,260.7713 L661.6939,263.49 Q661.0689,262.9119 660.4751,262.6463 Q659.8814,262.365 659.2564,262.365 Q657.9126,262.365 657.2251,263.4431 Q656.5376,264.5056 656.5376,266.5994 Q656.5376,268.6931 657.2251,269.7713 Q657.9126,270.8338 659.2564,270.8338 Q659.8814,270.8338 660.4751,270.5681 Q661.0689,270.2869 661.6939,269.7088 L661.6939,272.4275 Z " fill="#000000"/><text fill="#000000" font-family="sans-serif" font-size="14" lengthAdjust="spacing" textLength="135.6729" x="679.2251" y="271.6336">DTM_00004_msg_2</text><line style="stroke:#181818;stroke-width:0.5;" x1="352.73" x2="1108.8931" y1="282.7869" y2="282.7869"/><text fill="#000000" font-family="sans-serif" font-size="14" lengthAdjust="spacing" textLength="170.3584" x="357.73" y="299.782">Nachricht: QUOTES 1.3a</text><text fill="#000000" font-family="sans-serif" font-size="14" lengthAdjust="spacing" textLength="204.1143" x="357.73" y="316.0789">Kontext: Nachrichtenstruktur</text><text fill="#000000" font-family="sans-serif" font-size="14" lengthAdjust="spacing" textLength="91.4033" x="357.73" y="332.3757">Pflichtfeld: Ja</text><text fill="#000000" font-family="sans-serif" font-size="14" lengthAdjust="spacing" textLength="110.4277" x="357.73" y="348.6726">Codes: 35, DTM</text><text fill="#000000" font-family="sans-serif" font-size="14" lengthAdjust="spacing" textLength="408.3174" x="357.73" y="364.9695">Quelle: QUOTES_MIG_1_3a_Fehlerkorrektur_20241213.pdf</text><line style="stroke:#181818;stroke-width:0.5;" x1="352.73" x2="1108.8931" y1="372.2713" y2="372.2713"/><text fill="#000000" font-family="sans-serif" font-size="14" lengthAdjust="spacing" textLength="746.1631" x="357.73" y="389.2664">Prozesse: Bestellung einer technischen Konfiguration (MSB), Sperrung und Entsperrung eines Anschlusses</text></g><!--class DTM_00004_proc_1--><g class="entity" data-entity="DTM_00004_proc_1" data-source-line="27" data-uid="ent0007" id="entity_DTM_00004_proc_1"><rect fill="#F1F1F1" height="105.1563" rx="2.5" ry="2.5" style="stroke:#181818;stroke-width:0.5;" width="752.6465" x="1144.49" y="271.0969"/><ellipse cx="1448.1834" cy="291.2297" fill="#ADD1B2" rx="11" ry="11" style="stroke:#181818;stroke-width:1;"/><path d="M1451.1521,296.8703 Q1450.574,297.1672 1449.9334,297.3078 Q1449.2927,297.4641 1448.5896,297.4641 Q1446.0896,297.4641 1444.7615,295.8234 Q1443.449,294.1672 1443.449,291.0422 Q1443.449,287.9172 1444.7615,286.2609 Q1446.0896,284.6047 1448.5896,284.6047 Q1449.2927,284.6047 1449.9334,284.7609 Q1450.5896,284.9172 1451.1521,285.2141 L1451.1521,287.9328 Q1450.5271,287.3547 1449.9334,287.0891 Q1449.3396,286.8078 1448.7146,286.8078 Q1447.3709,286.8078 1446.6834,287.8859 Q1445.9959,288.9484 1445.9959,291.0422 Q1445.9959,293.1359 1446.6834,294.2141 Q1447.3709,295.2766 1448.7146,295.2766 Q1449.3396,295.2766 1449.9334,295.0109 Q1450.5271,294.7297 1451.1521,294.1516 L1451.1521,296.8703 Z " fill="#000000"/><text fill="#000000" font-family="sans-serif" font-size="12" font-style="italic" lengthAdjust="spacing" textLength="61.0605" x="1506.533" y="287.2355">&#171;process&#187;</text><text fill="#000000" font-family="sans-serif" font-size="14" lengthAdjust="spacing" textLength="136.7598" x="1468.6834" y="303.0607">DTM_00004_proc_1</text><line style="stroke:#181818;stroke-width:0.5;" x1="1145.49" x2="1896.1365" y1="311.3625" y2="311.3625"/><text fill="#000000" font-family="sans-serif" font-size="14" lengthAdjust="spacing" textLength="180.3457" x="1150.49" y="328.3576">Netznutzungsabrechnung</text><text fill="#000000" font-family="sans-serif" font-size="14" lengthAdjust="spacing" textLength="218.0938" x="1150.49" y="344.6545">Gesetze: StromNEV, StromNZV</text><text fill="#000000" font-family="sans-serif" font-size="14" lengthAdjust="spacing" textLength="740.6465" x="1150.49" y="360.9514">Zusammenfassung: Wie funktioniert die Netznutzungsabrechnung zwischen Netzbetreiber und Lieferant?</text><line style="stroke:#181818;stroke-width:0.5;" x1="1145.49" x2="1896.1365" y1="368.2531" y2="368.2531"/></g><!--class DTM_00004_proc_2--><g class="entity" data-entity="DTM_00004_proc_2" data-source-line="33" data-uid="ent0009" id="entity_DTM_00004_proc_2"><rect fill="#F1F1F1" height="105.1563" rx="2.5" ry="2.5" style="stroke:#181818;stroke-width:0.5;" width="1301.9961" x="1931.82" y="271.0969"/><ellipse cx="2510.1882" cy="291.2297" fill="#ADD1B2" rx="11" ry="11" style="stroke:#181818;stroke-width:1;"/><path d="M2513.1569,296.8703 Q2512.5788,297.1672 2511.9382,297.3078 Q2511.2975,297.4641 2510.5944,297.4641 Q2508.0944,297.4641 2506.7663,295.8234 Q2505.4538,294.1672 2505.4538,291.0422 Q2505.4538,287.9172 2506.7663,286.2609 Q2508.0944,284.6047 2510.5944,284.6047 Q2511.2975,284.6047 2511.9382,284.7609 Q2512.5944,284.9172 2513.1569,285.2141 L2513.1569,287.9328 Q2512.5319,287.3547 2511.9382,287.0891 Q2511.3444,286.8078 2510.7194,286.8078 Q2509.3757,286.8078 2508.6882,287.8859 Q2508.0007,288.9484 2508.0007,291.0422 Q2508.0007,293.1359 2508.6882,294.2141 Q2509.3757,295.2766 2510.7194,295.2766 Q2511.3444,295.2766 2511.9382,295.0109 Q2512.5319,294.7297 2513.1569,294.1516 L2513.1569,296.8703 Z " fill="#000000"/><text fill="#000000" font-family="sans-serif" font-size="12" font-style="italic" lengthAdjust="spacing" textLength="61.0605" x="2568.5378" y="287.2355">&#171;process&#187;</text><text fill="#000000" font-family="sans-serif" font-size="14" lengthAdjust="spacing" textLength="136.7598" x="2530.6882" y="303.0607">DTM_00004_proc_2</text><line style="stroke:#181818;stroke-width:0.5;" x1="1932.82" x2="3232.8161" y1="311.3625" y2="311.3625"/><text fill="#000000" font-family="sans-serif" font-size="14" lengthAdjust="spacing" textLength="156.4063" x="1937.82" y="328.3576">Gesetze: MsbG, EnWG</text><text fill="#000000" font-family="sans-serif" font-size="14" lengthAdjust="spacing" textLength="1289.9961" x="1937.82" y="344.6545">Zusammenfassung: Erl&#228;utere den Prozess zur Bestellung einer spezifischen technischen Konfiguration bei einem Messstellenbetreiber, beispielsweise f&#252;r ein intelligentes Messsystem.</text><line style="stroke:#181818;stroke-width:0.5;" x1="1932.82" x2="3232.8161" y1="351.9562" y2="351.9562"/><text fill="#000000" font-family="sans-serif" font-size="14" lengthAdjust="spacing" textLength="348.2021" x="1937.82" y="368.9514">Bestellung einer technischen Konfiguration (MSB)</text></g><!--class DTM_00004_proc_3--><g class="entity" data-entity="DTM_00004_proc_3" data-source-line="39" data-uid="ent0011" id="entity_DTM_00004_proc_3"><rect fill="#F1F1F1" height="105.1563" rx="2.5" ry="2.5" style="stroke:#181818;stroke-width:0.5;" width="853.9893" x="3268.82" y="271.0969"/><ellipse cx="3623.1847" cy="291.2297" fill="#ADD1B2" rx="11" ry="11" style="stroke:#181818;stroke-width:1;"/><path d="M3626.1535,296.8703 Q3625.5754,297.1672 3624.9347,297.3078 Q3624.2941,297.4641 3623.591,297.4641 Q3621.091,297.4641 3619.7629,295.8234 Q3618.4504,294.1672 3618.4504,291.0422 Q3618.4504,287.9172 3619.7629,286.2609 Q3621.091,284.6047 3623.591,284.6047 Q3624.2941,284.6047 3624.9347,284.7609 Q3625.591,284.9172 3626.1535,285.2141 L3626.1535,287.9328 Q3625.5285,287.3547 3624.9347,287.0891 Q3624.341,286.8078 3623.716,286.8078 Q3622.3722,286.8078 3621.6847,287.8859 Q3620.9972,288.9484 3620.9972,291.0422 Q3620.9972,293.1359 3621.6847,294.2141 Q3622.3722,295.2766 3623.716,295.2766 Q3624.341,295.2766 3624.9347,295.0109 Q3625.5285,294.7297 3626.1535,294.1516 L3626.1535,296.8703 Z " fill="#000000"/><text fill="#000000" font-family="sans-serif" font-size="12" font-style="italic" lengthAdjust="spacing" textLength="61.0605" x="3681.5344" y="287.2355">&#171;process&#187;</text><text fill="#000000" font-family="sans-serif" font-size="14" lengthAdjust="spacing" textLength="136.7598" x="3643.6847" y="303.0607">DTM_00004_proc_3</text><line style="stroke:#181818;stroke-width:0.5;" x1="3269.82" x2="4121.8093" y1="311.3625" y2="311.3625"/><text fill="#000000" font-family="sans-serif" font-size="14" lengthAdjust="spacing" textLength="317.9668" x="3274.82" y="328.3576">Sperrung und Entsperrung eines Anschlusses</text><text fill="#000000" font-family="sans-serif" font-size="14" lengthAdjust="spacing" textLength="138.3252" x="3274.82" y="344.6545">Gesetze: StromGVV</text><text fill="#000000" font-family="sans-serif" font-size="14" lengthAdjust="spacing" textLength="841.9893" x="3274.82" y="360.9514">Zusammenfassung: Beschreibe den End-to-End-Prozess f&#252;r die Sperrung und Wiederherstellung eines Netzanschlusses.</text><line style="stroke:#181818;stroke-width:0.5;" x1="3269.82" x2="4121.8093" y1="368.2531" y2="368.2531"/></g><!--link DTM_00004 to DTM_00004_msg_1--><g class="link" data-entity-1="DTM_00004" data-entity-2="DTM_00004_msg_1" data-source-line="17" data-uid="lnk4" id="link_DTM_00004_DTM_00004_msg_1"><path codeLine="17" d="M1333.3,116.2369 C1096.8,127.6769 679.28,160.0069 333.81,250.7869 C328.18,252.2669 328.2303,252.1507 322.5103,253.8907" fill="none" id="DTM_00004-to-DTM_00004_msg_1" style="stroke:#181818;stroke-width:1;"/><polygon fill="#181818" points="316.77,255.6369,326.5445,256.8445,321.5536,254.1817,324.2163,249.1908,316.77,255.6369" style="stroke:#181818;stroke-width:1;"/><text fill="#000000" font-family="sans-serif" font-size="13" lengthAdjust="spacing" textLength="85.2363" x="525.81" y="216.8538">verwendet in</text></g><!--link DTM_00004 to DTM_00004_msg_2--><g class="link" data-entity-1="DTM_00004" data-entity-2="DTM_00004_msg_2" data-source-line="26" data-uid="lnk6" id="link_DTM_00004_DTM_00004_msg_2"><path codeLine="26" d="M1333.35,160.4969 C1233.64,187.3369 1115.0938,219.2475 1005.3038,248.7975" fill="none" id="DTM_00004-to-DTM_00004_msg_2" style="stroke:#181818;stroke-width:1;"/><polygon fill="#181818" points="999.51,250.3569,1009.2403,251.8803,1004.3382,249.0574,1007.1611,244.1552,999.51,250.3569" style="stroke:#181818;stroke-width:1;"/><text fill="#000000" font-family="sans-serif" font-size="13" lengthAdjust="spacing" textLength="85.2363" x="1150.81" y="216.8538">verwendet in</text></g><!--link DTM_00004 to DTM_00004_proc_1--><g class="link" data-entity-1="DTM_00004" data-entity-2="DTM_00004_proc_1" data-source-line="32" data-uid="lnk8" id="link_DTM_00004_DTM_00004_proc_1"><path codeLine="32" d="M1520.81,174.1269 C1520.81,205.0669 1520.81,235.6969 1520.81,264.8469" fill="none" id="DTM_00004-to-DTM_00004_proc_1" style="stroke:#181818;stroke-width:1;stroke-dasharray:7,7;"/><polygon fill="#181818" points="1520.81,270.8469,1524.81,261.8469,1520.81,265.8469,1516.81,261.8469,1520.81,270.8469" style="stroke:#181818;stroke-width:1;"/><text fill="#000000" font-family="sans-serif" font-size="13" lengthAdjust="spacing" textLength="91.6221" x="1521.81" y="216.8538">eingebettet in</text></g><!--link DTM_00004 to DTM_00004_proc_2--><g class="link" data-entity-1="DTM_00004" data-entity-2="DTM_00004_proc_2" data-source-line="38" data-uid="lnk10" id="link_DTM_00004_DTM_00004_proc_2"><path codeLine="38" d="M1708.23,147.5669 C1878.98,181.7569 2126.9168,231.3989 2317.1968,269.4989" fill="none" id="DTM_00004-to-DTM_00004_proc_2" style="stroke:#181818;stroke-width:1;stroke-dasharray:7,7;"/><polygon fill="#181818" points="2323.08,270.6769,2315.0405,264.9877,2318.1773,269.6952,2313.4698,272.832,2323.08,270.6769" style="stroke:#181818;stroke-width:1;"/><text fill="#000000" font-family="sans-serif" font-size="13" lengthAdjust="spacing" textLength="91.6221" x="2052.81" y="216.8538">eingebettet in</text></g><!--link DTM_00004 to DTM_00004_proc_3--><g class="link" data-entity-1="DTM_00004" data-entity-2="DTM_00004_proc_3" data-source-line="44" data-uid="lnk12" id="link_DTM_00004_DTM_00004_proc_3"><path codeLine="44" d="M1708.19,120.4169 C2026.16,139.1169 2691.41,182.9469 3250.81,250.7869 C3297.23,256.4169 3340.2985,262.4328 3388.1285,269.7228" fill="none" id="DTM_00004-to-DTM_00004_proc_3" style="stroke:#181818;stroke-width:1;stroke-dasharray:7,7;"/><polygon fill="#181818" points="3394.06,270.6269,3385.7654,265.3165,3389.1171,269.8735,3384.5601,273.2251,3394.06,270.6269" style="stroke:#181818;stroke-width:1;"/><text fill="#000000" font-family="sans-serif" font-size="13" lengthAdjust="spacing" textLength="91.6221" x="2969.81" y="216.8538">eingebettet in</text></g><!--SRC=[dPJTRjem5CVlUGfVRX949EacBQgOri9GjuQkegDIRo8dEKai4WVvOtIPzZPxZDtrnNOS0em6HXaIYkFp-V_vE8gf7CYGAk1KvLII7XdU-LuVVsUT23UaUG_gT_AZGyY45k2P05sG2lyfB7BACPnS0vDAyrI6a3BEqVUBA2kG4ZnS4ymy0LLnhIhZH4C1KSPnsHWlG2h8SzmWm3W8eeoToIZ3t9zBdh1K2wfOoSahVthnkWcRBa084wHvJ4PSoVMxIIB91uu9SerDoCxFvuA2GgQ1tSYACi6YJ7dayiOVNas9RVN1GWkMLl28-niNu589FLTQ68r9RlOIo6DqmQAuTrd683rJvsy8X-NVQXGEwyg1VpKExA0FGU3qdRF-M_kTjOWJR7zx4htUe2N38zz0B877e0YsiK-hyrphxTURkv7Hwj8JfNwYMw7kcsvBxAd7sJtb9BV8LW8QP2uDFaAMWvYNGe3fkYPeExRx0eBECO8BKKR8-VpSB53bOB32UUXOno3HX4rEbIYBoMZMRLOFCxG-Q4cB0dY2HT3V8_SCIABvt31X81I9SMD_Sb8j6vB67e8Im49aRCXTCqX0u9LylwFNiWPjAPvXcm8cKF-GxBGa_yTTtS3mPJZkuldUZ_T168dywPTM8834cAkP9_pIY7PH792A9KtLmns4mEg0WlYOgiu1VCEiQ-nomI2NIrpW4Jpz5iOVSHXNbW8-vIhsEqONrZ6kpWkvkYsk9rs1tV4Qp_OE5KB3gsoKrZn7FEwficSUQxIrNZDgEyLn66CG6OWTvhAUDxfjuoWBjyNY3m00]--></g></svg>