<svg xmlns="http://www.w3.org/2000/svg" xmlns:xlink="http://www.w3.org/1999/xlink" contentStyleType="text/css" data-diagram-type="CLASS" height="387px" preserveAspectRatio="none" style="width:2280px;height:387px;background:#FFFFFF;" version="1.1" viewBox="0 0 2280 387" width="2280px" zoomAndPan="magnify"><title>Datenatlas - EBD:E_0505</title><defs/><g><g class="title" data-source-line="1"><text fill="#000000" font-family="sans-serif" font-size="14" font-weight="bold" lengthAdjust="spacing" textLength="194.4824" x="1035.997" y="22.9951">Datenatlas - EBD:E_0505</text></g><!--class EBD_E_0505--><g class="entity" data-entity="EBD_E_0505" data-source-line="2" data-uid="ent0002" id="entity_EBD_E_0505"><rect fill="#F1F1F1" height="113.1875" rx="2.5" ry="2.5" style="stroke:#181818;stroke-width:0.5;" width="1671.458" x="223.42" y="44.2969"/><ellipse cx="1011.0465" cy="60.2969" fill="#ADD1B2" rx="11" ry="11" style="stroke:#181818;stroke-width:1;"/><path d="M1014.0152,65.9375 Q1013.4371,66.2344 1012.7965,66.375 Q1012.1558,66.5313 1011.4527,66.5313 Q1008.9527,66.5313 1007.6246,64.8906 Q1006.3121,63.2344 1006.3121,60.1094 Q1006.3121,56.9844 1007.6246,55.3281 Q1008.9527,53.6719 1011.4527,53.6719 Q1012.1558,53.6719 1012.7965,53.8281 Q1013.4527,53.9844 1014.0152,54.2813 L1014.0152,57 Q1013.3902,56.4219 1012.7965,56.1563 Q1012.2027,55.875 1011.5777,55.875 Q1010.234,55.875 1009.5465,56.9531 Q1008.859,58.0156 1008.859,60.1094 Q1008.859,62.2031 1009.5465,63.2813 Q1010.234,64.3438 1011.5777,64.3438 Q1012.2027,64.3438 1012.7965,64.0781 Q1013.3902,63.7969 1014.0152,63.2188 L1014.0152,65.9375 Z " fill="#000000"/><text fill="#000000" font-family="sans-serif" font-size="14" lengthAdjust="spacing" textLength="87.7051" x="1031.5465" y="65.1436">EBD_E_0505</text><line style="stroke:#181818;stroke-width:0.5;" x1="224.42" x2="1893.878" y1="76.2969" y2="76.2969"/><text fill="#000000" font-family="sans-serif" font-size="14" lengthAdjust="spacing" textLength="66.6436" x="243.42" y="93.292">Prozesse:</text><rect fill="none" height="6" style="stroke:#C82930;stroke-width:1;" width="6" x="231.42" y="103.2422"/><text fill="#000000" font-family="sans-serif" font-size="14" lengthAdjust="spacing" textLength="317.9668" x="243.42" y="109.5889">Sperrung und Entsperrung eines Anschlusses</text><rect fill="none" height="6" style="stroke:#C82930;stroke-width:1;" width="6" x="231.42" y="119.5391"/><text fill="#000000" font-family="sans-serif" font-size="14" lengthAdjust="spacing" textLength="180.3457" x="243.42" y="125.8857">Netznutzungsabrechnung</text><line style="stroke:#181818;stroke-width:0.5;" x1="224.42" x2="1893.878" y1="133.1875" y2="133.1875"/><text fill="#000000" font-family="sans-serif" font-size="14" lengthAdjust="spacing" textLength="1659.458" x="229.42" y="150.1826">Name: EBD Nr. E_0505 EBD zur erneuten Pr&#252;fung der Abrechnung einer sonstigen Leistung. Dies kann die Rechnung zur Beauftragung der Unterbrechung der Anschlussnutzung (Sperren) oder die Rechnung zu Verzugskosten beinhalten</text></g><!--class EBD_E_0505_msg_1--><g class="entity" data-entity="EBD_E_0505_msg_1" data-source-line="8" data-uid="ent0003" id="entity_EBD_E_0505_msg_1"><rect fill="#F1F1F1" height="145.7813" rx="2.5" ry="2.5" style="stroke:#181818;stroke-width:0.5;" width="590.3066" x="7" y="234.4869"/><ellipse cx="227.688" cy="250.4869" fill="#ADD1B2" rx="11" ry="11" style="stroke:#181818;stroke-width:1;"/><path d="M230.6567,256.1275 Q230.0786,256.4244 229.438,256.565 Q228.7974,256.7213 228.0942,256.7213 Q225.5942,256.7213 224.2661,255.0806 Q222.9536,253.4244 222.9536,250.2994 Q222.9536,247.1744 224.2661,245.5181 Q225.5942,243.8619 228.0942,243.8619 Q228.7974,243.8619 229.438,244.0181 Q230.0942,244.1744 230.6567,244.4713 L230.6567,247.19 Q230.0317,246.6119 229.438,246.3463 Q228.8442,246.065 228.2192,246.065 Q226.8755,246.065 226.188,247.1431 Q225.5005,248.2056 225.5005,250.2994 Q225.5005,252.3931 226.188,253.4713 Q226.8755,254.5338 228.2192,254.5338 Q228.8442,254.5338 229.438,254.2681 Q230.0317,253.9869 230.6567,253.4088 L230.6567,256.1275 Z " fill="#000000"/><text fill="#000000" font-family="sans-serif" font-size="14" lengthAdjust="spacing" textLength="140.4307" x="248.188" y="255.3336">EBD_E_0505_msg_1</text><line style="stroke:#181818;stroke-width:0.5;" x1="8" x2="596.3066" y1="266.4869" y2="266.4869"/><text fill="#000000" font-family="sans-serif" font-size="14" lengthAdjust="spacing" textLength="171.4932" x="13" y="283.482">Nachricht: REMADV 2.9c</text><text fill="#000000" font-family="sans-serif" font-size="14" lengthAdjust="spacing" textLength="170.3447" x="13" y="299.7789">Kontext: Segmentlayout</text><text fill="#000000" font-family="sans-serif" font-size="14" lengthAdjust="spacing" textLength="110.5439" x="13" y="316.0757">Pflichtfeld: Nein</text><text fill="#000000" font-family="sans-serif" font-size="14" lengthAdjust="spacing" textLength="282.1943" x="13" y="332.3726">Codes: EBD, ESA, LF, MGV, MSB, NB, NN</text><text fill="#000000" font-family="sans-serif" font-size="14" lengthAdjust="spacing" textLength="578.3066" x="13" y="348.6695">Prozesse: Sperrung und Entsperrung eines Anschlusses, Netznutzungsabrechnung</text><text fill="#000000" font-family="sans-serif" font-size="14" lengthAdjust="spacing" textLength="291.0811" x="13" y="364.9664">Quelle: REMADV_MIG_2.9c_20231024.pdf</text><line style="stroke:#181818;stroke-width:0.5;" x1="8" x2="596.3066" y1="372.2681" y2="372.2681"/></g><!--class EBD_E_0505_proc_1--><g class="entity" data-entity="EBD_E_0505_proc_1" data-source-line="17" data-uid="ent0005" id="entity_EBD_E_0505_proc_1"><rect fill="#F1F1F1" height="105.1563" rx="2.5" ry="2.5" style="stroke:#181818;stroke-width:0.5;" width="853.9893" x="632.16" y="254.7969"/><ellipse cx="984.1458" cy="274.9297" fill="#ADD1B2" rx="11" ry="11" style="stroke:#181818;stroke-width:1;"/><path d="M987.1146,280.5703 Q986.5365,280.8672 985.8958,281.0078 Q985.2552,281.1641 984.5521,281.1641 Q982.0521,281.1641 980.724,279.5234 Q979.4115,277.8672 979.4115,274.7422 Q979.4115,271.6172 980.724,269.9609 Q982.0521,268.3047 984.5521,268.3047 Q985.2552,268.3047 985.8958,268.4609 Q986.5521,268.6172 987.1146,268.9141 L987.1146,271.6328 Q986.4896,271.0547 985.8958,270.7891 Q985.3021,270.5078 984.6771,270.5078 Q983.3333,270.5078 982.6458,271.5859 Q981.9583,272.6484 981.9583,274.7422 Q981.9583,276.8359 982.6458,277.9141 Q983.3333,278.9766 984.6771,278.9766 Q985.3021,278.9766 985.8958,278.7109 Q986.4896,278.4297 987.1146,277.8516 L987.1146,280.5703 Z " fill="#000000"/><text fill="#000000" font-family="sans-serif" font-size="12" font-style="italic" lengthAdjust="spacing" textLength="61.0605" x="1044.8744" y="270.9355">&#171;process&#187;</text><text fill="#000000" font-family="sans-serif" font-size="14" lengthAdjust="spacing" textLength="141.5176" x="1004.6458" y="286.7607">EBD_E_0505_proc_1</text><line style="stroke:#181818;stroke-width:0.5;" x1="633.16" x2="1485.1493" y1="295.0625" y2="295.0625"/><text fill="#000000" font-family="sans-serif" font-size="14" lengthAdjust="spacing" textLength="317.9668" x="638.16" y="312.0576">Sperrung und Entsperrung eines Anschlusses</text><text fill="#000000" font-family="sans-serif" font-size="14" lengthAdjust="spacing" textLength="138.3252" x="638.16" y="328.3545">Gesetze: StromGVV</text><text fill="#000000" font-family="sans-serif" font-size="14" lengthAdjust="spacing" textLength="841.9893" x="638.16" y="344.6514">Zusammenfassung: Beschreibe den End-to-End-Prozess f&#252;r die Sperrung und Wiederherstellung eines Netzanschlusses.</text><line style="stroke:#181818;stroke-width:0.5;" x1="633.16" x2="1485.1493" y1="351.9531" y2="351.9531"/></g><!--class EBD_E_0505_proc_2--><g class="entity" data-entity="EBD_E_0505_proc_2" data-source-line="23" data-uid="ent0007" id="entity_EBD_E_0505_proc_2"><rect fill="#F1F1F1" height="105.1563" rx="2.5" ry="2.5" style="stroke:#181818;stroke-width:0.5;" width="752.6465" x="1520.83" y="254.7969"/><ellipse cx="1822.1445" cy="274.9297" fill="#ADD1B2" rx="11" ry="11" style="stroke:#181818;stroke-width:1;"/><path d="M1825.1132,280.5703 Q1824.5351,280.8672 1823.8945,281.0078 Q1823.2538,281.1641 1822.5507,281.1641 Q1820.0507,281.1641 1818.7226,279.5234 Q1817.4101,277.8672 1817.4101,274.7422 Q1817.4101,271.6172 1818.7226,269.9609 Q1820.0507,268.3047 1822.5507,268.3047 Q1823.2538,268.3047 1823.8945,268.4609 Q1824.5507,268.6172 1825.1132,268.9141 L1825.1132,271.6328 Q1824.4882,271.0547 1823.8945,270.7891 Q1823.3007,270.5078 1822.6757,270.5078 Q1821.332,270.5078 1820.6445,271.5859 Q1819.957,272.6484 1819.957,274.7422 Q1819.957,276.8359 1820.6445,277.9141 Q1821.332,278.9766 1822.6757,278.9766 Q1823.3007,278.9766 1823.8945,278.7109 Q1824.4882,278.4297 1825.1132,277.8516 L1825.1132,280.5703 Z " fill="#000000"/><text fill="#000000" font-family="sans-serif" font-size="12" font-style="italic" lengthAdjust="spacing" textLength="61.0605" x="1882.873" y="270.9355">&#171;process&#187;</text><text fill="#000000" font-family="sans-serif" font-size="14" lengthAdjust="spacing" textLength="141.5176" x="1842.6445" y="286.7607">EBD_E_0505_proc_2</text><line style="stroke:#181818;stroke-width:0.5;" x1="1521.83" x2="2272.4765" y1="295.0625" y2="295.0625"/><text fill="#000000" font-family="sans-serif" font-size="14" lengthAdjust="spacing" textLength="180.3457" x="1526.83" y="312.0576">Netznutzungsabrechnung</text><text fill="#000000" font-family="sans-serif" font-size="14" lengthAdjust="spacing" textLength="218.0938" x="1526.83" y="328.3545">Gesetze: StromNEV, StromNZV</text><text fill="#000000" font-family="sans-serif" font-size="14" lengthAdjust="spacing" textLength="740.6465" x="1526.83" y="344.6514">Zusammenfassung: Wie funktioniert die Netznutzungsabrechnung zwischen Netzbetreiber und Lieferant?</text><line style="stroke:#181818;stroke-width:0.5;" x1="1521.83" x2="2272.4765" y1="351.9531" y2="351.9531"/></g><!--link EBD_E_0505 to EBD_E_0505_msg_1--><g class="link" data-entity-1="EBD_E_0505" data-entity-2="EBD_E_0505_msg_1" data-source-line="16" data-uid="lnk4" id="link_EBD_E_0505_EBD_E_0505_msg_1"><path codeLine="16" d="M851.55,157.9669 C764.66,181.4369 668.3623,207.4518 575.9123,232.4318" fill="none" id="EBD_E_0505-to-EBD_E_0505_msg_1" style="stroke:#181818;stroke-width:1;"/><polygon fill="#181818" points="570.12,233.9969,579.8518,235.5108,574.9469,232.6926,577.765,227.7877,570.12,233.9969" style="stroke:#181818;stroke-width:1;"/><text fill="#000000" font-family="sans-serif" font-size="13" lengthAdjust="spacing" textLength="85.2363" x="727.15" y="200.5538">verwendet in</text></g><!--link EBD_E_0505 to EBD_E_0505_proc_1--><g class="link" data-entity-1="EBD_E_0505" data-entity-2="EBD_E_0505_proc_1" data-source-line="22" data-uid="lnk6" id="link_EBD_E_0505_EBD_E_0505_proc_1"><path codeLine="22" d="M1059.15,157.7669 C1059.15,187.9169 1059.15,218.9069 1059.15,248.4269" fill="none" id="EBD_E_0505-to-EBD_E_0505_proc_1" style="stroke:#181818;stroke-width:1;stroke-dasharray:7,7;"/><polygon fill="#181818" points="1059.15,254.4269,1063.15,245.4269,1059.15,249.4269,1055.15,245.4269,1059.15,254.4269" style="stroke:#181818;stroke-width:1;"/><text fill="#000000" font-family="sans-serif" font-size="13" lengthAdjust="spacing" textLength="91.6221" x="1060.15" y="200.5538">eingebettet in</text></g><!--link EBD_E_0505 to EBD_E_0505_proc_2--><g class="link" data-entity-1="EBD_E_0505" data-entity-2="EBD_E_0505_proc_2" data-source-line="28" data-uid="lnk8" id="link_EBD_E_0505_EBD_E_0505_proc_2"><path codeLine="28" d="M1288.97,157.9669 C1412.29,188.0669 1557.451,223.4845 1678.141,252.9345" fill="none" id="EBD_E_0505-to-EBD_E_0505_proc_2" style="stroke:#181818;stroke-width:1;stroke-dasharray:7,7;"/><polygon fill="#181818" points="1683.97,254.3569,1676.1748,248.3374,1679.1125,253.1716,1674.2783,256.1093,1683.97,254.3569" style="stroke:#181818;stroke-width:1;"/><text fill="#000000" font-family="sans-serif" font-size="13" lengthAdjust="spacing" textLength="91.6221" x="1479.15" y="200.5538">eingebettet in</text></g><!--SRC=[bPF1Rjf048RlFCKSMybOn6qEjI8gA2wg2bOQL2hbOYtss5vXrcXsjsbTzSrooujrrfWG2ccL0x0xkpFpV_yEHfeAOI8CAc4geQ4FqNWIHidWSd3PIpcYNI3P1U1N3o0M6mnT46BoeJjmsyOI82cqN0okwU4-jwg030b6AyAqL6wBKd50rqeRMV2z6Kfj-C27YKGDQw4KP1BXPf_WgevHsDoGAFO5log3r1PzRA5qMbPMQsLDuuAl5biaGlKQQdV-LqrO8ZMsqEjQExKhbbMAYfSCU4rrWrfZo6jWGzf2Bisg329bz7xlMFIXC-ek8KRJT3AqU4Jl_JxnCzde8hdeN4rBacbfGhY9vgF94WB_NSe7dsjc_S7X1HORLFn8FsjhdCoySlTphBAGMqed_GEpwlPnF8WM8mzc7psOJvVyjHXx4BjF_1Jn1N3USrm0NonM5UwL9_DFqyIfJu91yEPY4BprjrdE-4y6gTyVdleGmdUaErGP6c2S4xUsLATyxUhABLZ-SDXQzwBtcQ9c2WTkgDvCbqkEtLejDknjplquB-HvunH2kKAUBSKrixwf- -wdCmxoX_lTJ1qr_oQHPwr4ug6ggeC4PvmuoF2FlV3zuHdAqEKMk49Z_cL7S6B7iwzqZ1v7F1MxrUrP4nW6-1-yDh9M4icqkEUBGtCdcOwjSkSikVMEMazc4dCaeSpx_rC79zH_0000]--></g></svg>