<svg xmlns="http://www.w3.org/2000/svg" xmlns:xlink="http://www.w3.org/1999/xlink" contentStyleType="text/css" data-diagram-type="CLASS" height="387px" preserveAspectRatio="none" style="width:2022px;height:387px;background:#FFFFFF;" version="1.1" viewBox="0 0 2022 387" width="2022px" zoomAndPan="magnify"><title>Datenatlas - EBD:E_0568</title><defs/><g><g class="title" data-source-line="1"><text fill="#000000" font-family="sans-serif" font-size="14" font-weight="bold" lengthAdjust="spacing" textLength="194.4824" x="906.827" y="22.9951">Datenatlas - EBD:E_0568</text></g><!--class EBD_E_0568--><g class="entity" data-entity="EBD_E_0568" data-source-line="2" data-uid="ent0002" id="entity_EBD_E_0568"><rect fill="#F1F1F1" height="113.1875" rx="2.5" ry="2.5" style="stroke:#181818;stroke-width:0.5;" width="696.5371" x="534.54" y="44.2969"/><ellipse cx="834.706" cy="60.2969" fill="#ADD1B2" rx="11" ry="11" style="stroke:#181818;stroke-width:1;"/><path d="M837.6748,65.9375 Q837.0966,66.2344 836.456,66.375 Q835.8154,66.5313 835.1123,66.5313 Q832.6123,66.5313 831.2841,64.8906 Q829.9716,63.2344 829.9716,60.1094 Q829.9716,56.9844 831.2841,55.3281 Q832.6123,53.6719 835.1123,53.6719 Q835.8154,53.6719 836.456,53.8281 Q837.1123,53.9844 837.6748,54.2813 L837.6748,57 Q837.0498,56.4219 836.456,56.1563 Q835.8623,55.875 835.2373,55.875 Q833.8935,55.875 833.206,56.9531 Q832.5185,58.0156 832.5185,60.1094 Q832.5185,62.2031 833.206,63.2813 Q833.8935,64.3438 835.2373,64.3438 Q835.8623,64.3438 836.456,64.0781 Q837.0498,63.7969 837.6748,63.2188 L837.6748,65.9375 Z " fill="#000000"/><text fill="#000000" font-family="sans-serif" font-size="14" lengthAdjust="spacing" textLength="87.7051" x="855.206" y="65.1436">EBD_E_0568</text><line style="stroke:#181818;stroke-width:0.5;" x1="535.54" x2="1230.0771" y1="76.2969" y2="76.2969"/><text fill="#000000" font-family="sans-serif" font-size="14" lengthAdjust="spacing" textLength="670.5371" x="554.54" y="93.292">Name: EBD Nr. E_0568 erneut Rechnung Messstellenbetrieb mit iMS gegen&#252;ber dem NB pr&#252;fen</text><text fill="#000000" font-family="sans-serif" font-size="14" lengthAdjust="spacing" textLength="66.6436" x="554.54" y="109.5889">Prozesse:</text><rect fill="none" height="6" style="stroke:#C82930;stroke-width:1;" width="6" x="542.54" y="119.5391"/><text fill="#000000" font-family="sans-serif" font-size="14" lengthAdjust="spacing" textLength="223.2822" x="554.54" y="125.8857">Messstellenbetriebsabrechnung</text><rect fill="none" height="6" style="stroke:#C82930;stroke-width:1;" width="6" x="542.54" y="135.8359"/><text fill="#000000" font-family="sans-serif" font-size="14" lengthAdjust="spacing" textLength="180.3457" x="554.54" y="142.1826">Netznutzungsabrechnung</text><line style="stroke:#181818;stroke-width:0.5;" x1="535.54" x2="1230.0771" y1="149.4844" y2="149.4844"/></g><!--class EBD_E_0568_msg_1--><g class="entity" data-entity="EBD_E_0568_msg_1" data-source-line="8" data-uid="ent0003" id="entity_EBD_E_0568_msg_1"><rect fill="#F1F1F1" height="145.7813" rx="2.5" ry="2.5" style="stroke:#181818;stroke-width:0.5;" width="495.6221" x="7" y="234.4869"/><ellipse cx="180.3457" cy="250.4869" fill="#ADD1B2" rx="11" ry="11" style="stroke:#181818;stroke-width:1;"/><path d="M183.3145,256.1275 Q182.7363,256.4244 182.0957,256.565 Q181.4551,256.7213 180.752,256.7213 Q178.252,256.7213 176.9238,255.0806 Q175.6113,253.4244 175.6113,250.2994 Q175.6113,247.1744 176.9238,245.5181 Q178.252,243.8619 180.752,243.8619 Q181.4551,243.8619 182.0957,244.0181 Q182.752,244.1744 183.3145,244.4713 L183.3145,247.19 Q182.6895,246.6119 182.0957,246.3463 Q181.502,246.065 180.877,246.065 Q179.5332,246.065 178.8457,247.1431 Q178.1582,248.2056 178.1582,250.2994 Q178.1582,252.3931 178.8457,253.4713 Q179.5332,254.5338 180.877,254.5338 Q181.502,254.5338 182.0957,254.2681 Q182.6895,253.9869 183.3145,253.4088 L183.3145,256.1275 Z " fill="#000000"/><text fill="#000000" font-family="sans-serif" font-size="14" lengthAdjust="spacing" textLength="140.4307" x="200.8457" y="255.3336">EBD_E_0568_msg_1</text><line style="stroke:#181818;stroke-width:0.5;" x1="8" x2="501.6221" y1="266.4869" y2="266.4869"/><text fill="#000000" font-family="sans-serif" font-size="14" lengthAdjust="spacing" textLength="171.4932" x="13" y="283.482">Nachricht: REMADV 2.9c</text><text fill="#000000" font-family="sans-serif" font-size="14" lengthAdjust="spacing" textLength="170.3447" x="13" y="299.7789">Kontext: Segmentlayout</text><text fill="#000000" font-family="sans-serif" font-size="14" lengthAdjust="spacing" textLength="110.5439" x="13" y="316.0757">Pflichtfeld: Nein</text><text fill="#000000" font-family="sans-serif" font-size="14" lengthAdjust="spacing" textLength="282.1943" x="13" y="332.3726">Codes: EBD, ESA, LF, MGV, MSB, NB, NN</text><text fill="#000000" font-family="sans-serif" font-size="14" lengthAdjust="spacing" textLength="483.6221" x="13" y="348.6695">Prozesse: Messstellenbetriebsabrechnung, Netznutzungsabrechnung</text><text fill="#000000" font-family="sans-serif" font-size="14" lengthAdjust="spacing" textLength="291.0811" x="13" y="364.9664">Quelle: REMADV_MIG_2.9c_20231024.pdf</text><line style="stroke:#181818;stroke-width:0.5;" x1="8" x2="501.6221" y1="372.2681" y2="372.2681"/></g><!--class EBD_E_0568_proc_1--><g class="entity" data-entity="EBD_E_0568_proc_1" data-source-line="17" data-uid="ent0005" id="entity_EBD_E_0568_proc_1"><rect fill="#F1F1F1" height="105.1563" rx="2.5" ry="2.5" style="stroke:#181818;stroke-width:0.5;" width="690.2275" x="537.7" y="254.7969"/><ellipse cx="807.805" cy="274.9297" fill="#ADD1B2" rx="11" ry="11" style="stroke:#181818;stroke-width:1;"/><path d="M810.7737,280.5703 Q810.1956,280.8672 809.555,281.0078 Q808.9144,281.1641 808.2112,281.1641 Q805.7112,281.1641 804.3831,279.5234 Q803.0706,277.8672 803.0706,274.7422 Q803.0706,271.6172 804.3831,269.9609 Q805.7112,268.3047 808.2112,268.3047 Q808.9144,268.3047 809.555,268.4609 Q810.2112,268.6172 810.7737,268.9141 L810.7737,271.6328 Q810.1487,271.0547 809.555,270.7891 Q808.9612,270.5078 808.3362,270.5078 Q806.9925,270.5078 806.305,271.5859 Q805.6175,272.6484 805.6175,274.7422 Q805.6175,276.8359 806.305,277.9141 Q806.9925,278.9766 808.3362,278.9766 Q808.9612,278.9766 809.555,278.7109 Q810.1487,278.4297 810.7737,277.8516 L810.7737,280.5703 Z " fill="#000000"/><text fill="#000000" font-family="sans-serif" font-size="12" font-style="italic" lengthAdjust="spacing" textLength="61.0605" x="868.5335" y="270.9355">&#171;process&#187;</text><text fill="#000000" font-family="sans-serif" font-size="14" lengthAdjust="spacing" textLength="141.5176" x="828.305" y="286.7607">EBD_E_0568_proc_1</text><line style="stroke:#181818;stroke-width:0.5;" x1="538.7" x2="1226.9275" y1="295.0625" y2="295.0625"/><text fill="#000000" font-family="sans-serif" font-size="14" lengthAdjust="spacing" textLength="223.2822" x="543.7" y="312.0576">Messstellenbetriebsabrechnung</text><text fill="#000000" font-family="sans-serif" font-size="14" lengthAdjust="spacing" textLength="105.0957" x="543.7" y="328.3545">Gesetze: MsbG</text><text fill="#000000" font-family="sans-serif" font-size="14" lengthAdjust="spacing" textLength="678.2275" x="543.7" y="344.6514">Zusammenfassung: Beschreibe den Prozess der Abrechnung von Messstellenbetriebsleistungen.</text><line style="stroke:#181818;stroke-width:0.5;" x1="538.7" x2="1226.9275" y1="351.9531" y2="351.9531"/></g><!--class EBD_E_0568_proc_2--><g class="entity" data-entity="EBD_E_0568_proc_2" data-source-line="23" data-uid="ent0007" id="entity_EBD_E_0568_proc_2"><rect fill="#F1F1F1" height="105.1563" rx="2.5" ry="2.5" style="stroke:#181818;stroke-width:0.5;" width="752.6465" x="1262.49" y="254.7969"/><ellipse cx="1563.8045" cy="274.9297" fill="#ADD1B2" rx="11" ry="11" style="stroke:#181818;stroke-width:1;"/><path d="M1566.7732,280.5703 Q1566.1951,280.8672 1565.5545,281.0078 Q1564.9138,281.1641 1564.2107,281.1641 Q1561.7107,281.1641 1560.3826,279.5234 Q1559.0701,277.8672 1559.0701,274.7422 Q1559.0701,271.6172 1560.3826,269.9609 Q1561.7107,268.3047 1564.2107,268.3047 Q1564.9138,268.3047 1565.5545,268.4609 Q1566.2107,268.6172 1566.7732,268.9141 L1566.7732,271.6328 Q1566.1482,271.0547 1565.5545,270.7891 Q1564.9607,270.5078 1564.3357,270.5078 Q1562.992,270.5078 1562.3045,271.5859 Q1561.617,272.6484 1561.617,274.7422 Q1561.617,276.8359 1562.3045,277.9141 Q1562.992,278.9766 1564.3357,278.9766 Q1564.9607,278.9766 1565.5545,278.7109 Q1566.1482,278.4297 1566.7732,277.8516 L1566.7732,280.5703 Z " fill="#000000"/><text fill="#000000" font-family="sans-serif" font-size="12" font-style="italic" lengthAdjust="spacing" textLength="61.0605" x="1624.533" y="270.9355">&#171;process&#187;</text><text fill="#000000" font-family="sans-serif" font-size="14" lengthAdjust="spacing" textLength="141.5176" x="1584.3045" y="286.7607">EBD_E_0568_proc_2</text><line style="stroke:#181818;stroke-width:0.5;" x1="1263.49" x2="2014.1365" y1="295.0625" y2="295.0625"/><text fill="#000000" font-family="sans-serif" font-size="14" lengthAdjust="spacing" textLength="180.3457" x="1268.49" y="312.0576">Netznutzungsabrechnung</text><text fill="#000000" font-family="sans-serif" font-size="14" lengthAdjust="spacing" textLength="218.0938" x="1268.49" y="328.3545">Gesetze: StromNEV, StromNZV</text><text fill="#000000" font-family="sans-serif" font-size="14" lengthAdjust="spacing" textLength="740.6465" x="1268.49" y="344.6514">Zusammenfassung: Wie funktioniert die Netznutzungsabrechnung zwischen Netzbetreiber und Lieferant?</text><line style="stroke:#181818;stroke-width:0.5;" x1="1263.49" x2="2014.1365" y1="351.9531" y2="351.9531"/></g><!--link EBD_E_0568 to EBD_E_0568_msg_1--><g class="link" data-entity-1="EBD_E_0568" data-entity-2="EBD_E_0568_msg_1" data-source-line="16" data-uid="lnk4" id="link_EBD_E_0568_EBD_E_0568_msg_1"><path codeLine="16" d="M710.79,157.9069 C638.62,181.4069 559.4752,207.1792 482.6652,232.1892" fill="none" id="EBD_E_0568-to-EBD_E_0568_msg_1" style="stroke:#181818;stroke-width:1;"/><polygon fill="#181818" points="476.96,234.0469,486.7562,235.0638,481.7143,232.4988,484.2793,227.4569,476.96,234.0469" style="stroke:#181818;stroke-width:1;"/><text fill="#000000" font-family="sans-serif" font-size="13" lengthAdjust="spacing" textLength="85.2363" x="607.81" y="200.5538">verwendet in</text></g><!--link EBD_E_0568 to EBD_E_0568_proc_1--><g class="link" data-entity-1="EBD_E_0568" data-entity-2="EBD_E_0568_proc_1" data-source-line="22" data-uid="lnk6" id="link_EBD_E_0568_EBD_E_0568_proc_1"><path codeLine="22" d="M882.81,157.7669 C882.81,187.9169 882.81,218.9069 882.81,248.4269" fill="none" id="EBD_E_0568-to-EBD_E_0568_proc_1" style="stroke:#181818;stroke-width:1;stroke-dasharray:7,7;"/><polygon fill="#181818" points="882.81,254.4269,886.81,245.4269,882.81,249.4269,878.81,245.4269,882.81,254.4269" style="stroke:#181818;stroke-width:1;"/><text fill="#000000" font-family="sans-serif" font-size="13" lengthAdjust="spacing" textLength="91.6221" x="883.81" y="200.5538">eingebettet in</text></g><!--link EBD_E_0568 to EBD_E_0568_proc_2--><g class="link" data-entity-1="EBD_E_0568" data-entity-2="EBD_E_0568_proc_2" data-source-line="28" data-uid="lnk8" id="link_EBD_E_0568_EBD_E_0568_proc_2"><path codeLine="28" d="M1090.14,157.9669 C1201.39,188.0669 1331.8182,223.3401 1440.6882,252.7901" fill="none" id="EBD_E_0568-to-EBD_E_0568_proc_2" style="stroke:#181818;stroke-width:1;stroke-dasharray:7,7;"/><polygon fill="#181818" points="1446.48,254.3569,1438.8367,248.1456,1441.6535,253.0513,1436.7478,255.868,1446.48,254.3569" style="stroke:#181818;stroke-width:1;"/><text fill="#000000" font-family="sans-serif" font-size="13" lengthAdjust="spacing" textLength="91.6221" x="1261.81" y="200.5538">eingebettet in</text></g><!--SRC=[XP7TRfj048NlynJp01Wvz4SjYbpPDRMg1jG6oPLoW_Wvu5LXi7QNf7MLDyjTNgopYHEvmaakGBCpixFdEsELRK7Bt89ps-Q69XGjbc6KJT-z_t1IIiQuHFQGeBydH4dU8NH9IhHF-m8qOx1qWNB30pSKmnXZqRRW0bOh5DGfIofEgK43lhijeAb2Hyc2jlhkjWRBxE-wtybDX1AJQ1cFCNcXzu_iUnBO7Gzs9vd3uir8VTQP9ZlTCvGRhSgD3UaYYkVBDGN-nr8Attgs-2tf54q75al-z8DrokhMzTTegr2UL4xjvxw2kRV2eoYTUtJ-nQDujPPVkl24JBxaaEfb7kyv5A8VWxlpA3QBlwuo9pWBfi6RqsdmrjzMjH0VR6eocOtHGxg2lWPNa5NmsA2jxajfEpjpWKYTpUxTUcqBAnWHxl1CiPBpvM3oJjohPRnqXBI04R-X2iZA-T4FYJNDdmRHLS_7dcgXZ9KwsFyVqVTdHyI79Cjf8BVjIvJ1YF9Pyv_mKglxBebalm_HvVeOx4y5gWV-PLNF2jfI9OdZmsbthSGPiSJL7R3pIDF05PqhrD0vsq-lKmSZwdy0]--></g></svg>