<svg xmlns="http://www.w3.org/2000/svg" xmlns:xlink="http://www.w3.org/1999/xlink" contentStyleType="text/css" data-diagram-type="CLASS" height="370px" preserveAspectRatio="none" style="width:1159px;height:370px;background:#FFFFFF;" version="1.1" viewBox="0 0 1159 370" width="1159px" zoomAndPan="magnify"><title>Datenatlas - EBD:E_0261</title><defs/><g><g class="title" data-source-line="1"><text fill="#000000" font-family="sans-serif" font-size="14" font-weight="bold" lengthAdjust="spacing" textLength="194.4824" x="475.657" y="22.9951">Datenatlas - EBD:E_0261</text></g><!--class EBD_E_0261--><g class="entity" data-entity="EBD_E_0261" data-source-line="2" data-uid="ent0002" id="entity_EBD_E_0261"><rect fill="#F1F1F1" height="96.8906" rx="2.5" ry="2.5" style="stroke:#181818;stroke-width:0.5;" width="974.9443" x="7" y="44.2969"/><ellipse cx="446.3696" cy="60.2969" fill="#ADD1B2" rx="11" ry="11" style="stroke:#181818;stroke-width:1;"/><path d="M449.3384,65.9375 Q448.7603,66.2344 448.1196,66.375 Q447.479,66.5313 446.7759,66.5313 Q444.2759,66.5313 442.9478,64.8906 Q441.6353,63.2344 441.6353,60.1094 Q441.6353,56.9844 442.9478,55.3281 Q444.2759,53.6719 446.7759,53.6719 Q447.479,53.6719 448.1196,53.8281 Q448.7759,53.9844 449.3384,54.2813 L449.3384,57 Q448.7134,56.4219 448.1196,56.1563 Q447.5259,55.875 446.9009,55.875 Q445.5571,55.875 444.8696,56.9531 Q444.1821,58.0156 444.1821,60.1094 Q444.1821,62.2031 444.8696,63.2813 Q445.5571,64.3438 446.9009,64.3438 Q447.5259,64.3438 448.1196,64.0781 Q448.7134,63.7969 449.3384,63.2188 L449.3384,65.9375 Z " fill="#000000"/><text fill="#000000" font-family="sans-serif" font-size="14" lengthAdjust="spacing" textLength="87.7051" x="466.8696" y="65.1436">EBD_E_0261</text><line style="stroke:#181818;stroke-width:0.5;" x1="8" x2="980.9443" y1="76.2969" y2="76.2969"/><text fill="#000000" font-family="sans-serif" font-size="14" lengthAdjust="spacing" textLength="66.6436" x="27" y="93.292">Prozesse:</text><rect fill="none" height="6" style="stroke:#C82930;stroke-width:1;" width="6" x="15" y="103.2422"/><text fill="#000000" font-family="sans-serif" font-size="14" lengthAdjust="spacing" textLength="180.3457" x="27" y="109.5889">Netznutzungsabrechnung</text><line style="stroke:#181818;stroke-width:0.5;" x1="8" x2="980.9443" y1="116.8906" y2="116.8906"/><text fill="#000000" font-family="sans-serif" font-size="14" lengthAdjust="spacing" textLength="962.9443" x="13" y="133.8857">Name: EBD Nr. E_0261 Storno verarbeiten Codeliste zur Pr&#252;fung f&#252;r die Antwort auf eine Stornierung (Abrechnung von Dienstleistungen)</text></g><!--class EBD_E_0261_msg_1--><g class="entity" data-entity="EBD_E_0261_msg_1" data-source-line="7" data-uid="ent0003" id="entity_EBD_E_0261_msg_1"><rect fill="#F1F1F1" height="145.7813" rx="2.5" ry="2.5" style="stroke:#181818;stroke-width:0.5;" width="303.0811" x="61.93" y="218.1869"/><ellipse cx="139.0052" cy="234.1869" fill="#ADD1B2" rx="11" ry="11" style="stroke:#181818;stroke-width:1;"/><path d="M141.9739,239.8275 Q141.3958,240.1244 140.7552,240.265 Q140.1146,240.4213 139.4114,240.4213 Q136.9114,240.4213 135.5833,238.7806 Q134.2708,237.1244 134.2708,233.9994 Q134.2708,230.8744 135.5833,229.2181 Q136.9114,227.5619 139.4114,227.5619 Q140.1146,227.5619 140.7552,227.7181 Q141.4114,227.8744 141.9739,228.1713 L141.9739,230.89 Q141.3489,230.3119 140.7552,230.0463 Q140.1614,229.765 139.5364,229.765 Q138.1927,229.765 137.5052,230.8431 Q136.8177,231.9056 136.8177,233.9994 Q136.8177,236.0931 137.5052,237.1713 Q138.1927,238.2338 139.5364,238.2338 Q140.1614,238.2338 140.7552,237.9681 Q141.3489,237.6869 141.9739,237.1088 L141.9739,239.8275 Z " fill="#000000"/><text fill="#000000" font-family="sans-serif" font-size="14" lengthAdjust="spacing" textLength="140.4307" x="159.5052" y="239.0336">EBD_E_0261_msg_1</text><line style="stroke:#181818;stroke-width:0.5;" x1="62.93" x2="364.0111" y1="250.1869" y2="250.1869"/><text fill="#000000" font-family="sans-serif" font-size="14" lengthAdjust="spacing" textLength="171.4932" x="67.93" y="267.182">Nachricht: REMADV 2.9c</text><text fill="#000000" font-family="sans-serif" font-size="14" lengthAdjust="spacing" textLength="170.3447" x="67.93" y="283.4789">Kontext: Segmentlayout</text><text fill="#000000" font-family="sans-serif" font-size="14" lengthAdjust="spacing" textLength="110.5439" x="67.93" y="299.7757">Pflichtfeld: Nein</text><text fill="#000000" font-family="sans-serif" font-size="14" lengthAdjust="spacing" textLength="282.1943" x="67.93" y="316.0726">Codes: EBD, ESA, LF, MGV, MSB, NB, NN</text><text fill="#000000" font-family="sans-serif" font-size="14" lengthAdjust="spacing" textLength="251.4395" x="67.93" y="332.3695">Prozesse: Netznutzungsabrechnung</text><text fill="#000000" font-family="sans-serif" font-size="14" lengthAdjust="spacing" textLength="291.0811" x="67.93" y="348.6664">Quelle: REMADV_MIG_2.9c_20231024.pdf</text><line style="stroke:#181818;stroke-width:0.5;" x1="62.93" x2="364.0111" y1="355.9681" y2="355.9681"/></g><!--class EBD_E_0261_proc_1--><g class="entity" data-entity="EBD_E_0261_proc_1" data-source-line="16" data-uid="ent0005" id="entity_EBD_E_0261_proc_1"><rect fill="#F1F1F1" height="105.1563" rx="2.5" ry="2.5" style="stroke:#181818;stroke-width:0.5;" width="752.6465" x="400.15" y="238.4969"/><ellipse cx="701.4645" cy="258.6297" fill="#ADD1B2" rx="11" ry="11" style="stroke:#181818;stroke-width:1;"/><path d="M704.4332,264.2703 Q703.8551,264.5672 703.2145,264.7078 Q702.5738,264.8641 701.8707,264.8641 Q699.3707,264.8641 698.0426,263.2234 Q696.7301,261.5672 696.7301,258.4422 Q696.7301,255.3172 698.0426,253.6609 Q699.3707,252.0047 701.8707,252.0047 Q702.5738,252.0047 703.2145,252.1609 Q703.8707,252.3172 704.4332,252.6141 L704.4332,255.3328 Q703.8082,254.7547 703.2145,254.4891 Q702.6207,254.2078 701.9957,254.2078 Q700.652,254.2078 699.9645,255.2859 Q699.277,256.3484 699.277,258.4422 Q699.277,260.5359 699.9645,261.6141 Q700.652,262.6766 701.9957,262.6766 Q702.6207,262.6766 703.2145,262.4109 Q703.8082,262.1297 704.4332,261.5516 L704.4332,264.2703 Z " fill="#000000"/><text fill="#000000" font-family="sans-serif" font-size="12" font-style="italic" lengthAdjust="spacing" textLength="61.0605" x="762.193" y="254.6355">&#171;process&#187;</text><text fill="#000000" font-family="sans-serif" font-size="14" lengthAdjust="spacing" textLength="141.5176" x="721.9645" y="270.4607">EBD_E_0261_proc_1</text><line style="stroke:#181818;stroke-width:0.5;" x1="401.15" x2="1151.7965" y1="278.7625" y2="278.7625"/><text fill="#000000" font-family="sans-serif" font-size="14" lengthAdjust="spacing" textLength="180.3457" x="406.15" y="295.7576">Netznutzungsabrechnung</text><text fill="#000000" font-family="sans-serif" font-size="14" lengthAdjust="spacing" textLength="218.0938" x="406.15" y="312.0545">Gesetze: StromNEV, StromNZV</text><text fill="#000000" font-family="sans-serif" font-size="14" lengthAdjust="spacing" textLength="740.6465" x="406.15" y="328.3514">Zusammenfassung: Wie funktioniert die Netznutzungsabrechnung zwischen Netzbetreiber und Lieferant?</text><line style="stroke:#181818;stroke-width:0.5;" x1="401.15" x2="1151.7965" y1="335.6531" y2="335.6531"/></g><!--link EBD_E_0261 to EBD_E_0261_msg_1--><g class="link" data-entity-1="EBD_E_0261" data-entity-2="EBD_E_0261_msg_1" data-source-line="15" data-uid="lnk4" id="link_EBD_E_0261_EBD_E_0261_msg_1"><path codeLine="15" d="M426.09,141.5169 C393.28,164.4469 358.1786,188.9707 321.7486,214.4207" fill="none" id="EBD_E_0261-to-EBD_E_0261_msg_1" style="stroke:#181818;stroke-width:1;"/><polygon fill="#181818" points="316.83,217.8569,326.4987,215.9817,320.9289,214.9934,321.9172,209.4236,316.83,217.8569" style="stroke:#181818;stroke-width:1;"/><text fill="#000000" font-family="sans-serif" font-size="13" lengthAdjust="spacing" textLength="85.2363" x="380.47" y="184.2538">verwendet in</text></g><!--link EBD_E_0261 to EBD_E_0261_proc_1--><g class="link" data-entity-1="EBD_E_0261" data-entity-2="EBD_E_0261_proc_1" data-source-line="21" data-uid="lnk6" id="link_EBD_E_0261_EBD_E_0261_proc_1"><path codeLine="21" d="M563.1,141.5169 C605.08,170.7469 653.8761,204.7182 696.9161,234.6882" fill="none" id="EBD_E_0261-to-EBD_E_0261_proc_1" style="stroke:#181818;stroke-width:1;stroke-dasharray:7,7;"/><polygon fill="#181818" points="701.84,238.1169,696.74,229.6913,697.7368,235.2597,692.1684,236.2565,701.84,238.1169" style="stroke:#181818;stroke-width:1;"/><text fill="#000000" font-family="sans-serif" font-size="13" lengthAdjust="spacing" textLength="91.6221" x="628.47" y="184.2538">eingebettet in</text></g><!--SRC=[TLB1Qi904Btx5NDiGOEcfT0W5gsfb6gm3LZm4c8oqQN9hknEj4tfdtdpnpghjLYiXop3cydCU_E61EK8_PXGnfJ71XhWz_gU7pNTcrOjOSHO8De3y5a32E82FGj2e1tuIOIaj5ImGXth6Gfk1_SgnLmOGgXA3MEztMIbd4EstMX81K9NqbffWhZC08N4VG-1sbPTT6SQauMqyKf9w0kKXgboFuPGNZAHiLOL6eCUny340wHAbbHnWOb_VwzzdSY82ZEF3cAIXHR9WZnuyKVT_WHSvpRXn9EIXEyCXpWlKF9kFbH9TcgMs_eCyzJZaK8oPgMQtKxgu8VTEWmVwZ0QJFW9UtK8x1SSCpx75U2vn3p70vjez3Y8BAF8RRfNhQPxxIpJZ2KTUT9eT4wrUTQADSeK2PZYoGQMMYLSrcxRW2brEljrdACrGCCfvXMILaNWixHzD9rmTbgQkE0jPJo5wpruPN_PxJSIoZfAEyF_RmxLMfXamGTZypCaZMA66agPmb1WnXSbwUwlPCVf_2F6isSqHsv1EzNV]--></g></svg>