<svg xmlns="http://www.w3.org/2000/svg" xmlns:xlink="http://www.w3.org/1999/xlink" contentStyleType="text/css" data-diagram-type="CLASS" height="370px" preserveAspectRatio="none" style="width:1104px;height:370px;background:#FFFFFF;" version="1.1" viewBox="0 0 1104 370" width="1104px" zoomAndPan="magnify"><title>Datenatlas - EBD:E_0266</title><defs/><g><g class="title" data-source-line="1"><text fill="#000000" font-family="sans-serif" font-size="14" font-weight="bold" lengthAdjust="spacing" textLength="194.4824" x="448.192" y="22.9951">Datenatlas - EBD:E_0266</text></g><!--class EBD_E_0266--><g class="entity" data-entity="EBD_E_0266" data-source-line="2" data-uid="ent0002" id="entity_EBD_E_0266"><rect fill="#F1F1F1" height="96.8906" rx="2.5" ry="2.5" style="stroke:#181818;stroke-width:0.5;" width="730.0264" x="74.53" y="44.2969"/><ellipse cx="391.4406" cy="60.2969" fill="#ADD1B2" rx="11" ry="11" style="stroke:#181818;stroke-width:1;"/><path d="M394.4094,65.9375 Q393.8313,66.2344 393.1906,66.375 Q392.55,66.5313 391.8469,66.5313 Q389.3469,66.5313 388.0188,64.8906 Q386.7063,63.2344 386.7063,60.1094 Q386.7063,56.9844 388.0188,55.3281 Q389.3469,53.6719 391.8469,53.6719 Q392.55,53.6719 393.1906,53.8281 Q393.8469,53.9844 394.4094,54.2813 L394.4094,57 Q393.7844,56.4219 393.1906,56.1563 Q392.5969,55.875 391.9719,55.875 Q390.6281,55.875 389.9406,56.9531 Q389.2531,58.0156 389.2531,60.1094 Q389.2531,62.2031 389.9406,63.2813 Q390.6281,64.3438 391.9719,64.3438 Q392.5969,64.3438 393.1906,64.0781 Q393.7844,63.7969 394.4094,63.2188 L394.4094,65.9375 Z " fill="#000000"/><text fill="#000000" font-family="sans-serif" font-size="14" lengthAdjust="spacing" textLength="87.7051" x="411.9406" y="65.1436">EBD_E_0266</text><line style="stroke:#181818;stroke-width:0.5;" x1="75.53" x2="803.5564" y1="76.2969" y2="76.2969"/><text fill="#000000" font-family="sans-serif" font-size="14" lengthAdjust="spacing" textLength="704.0264" x="94.53" y="93.292">Name: EBD Nr. E_0266 zur erneuten Pr&#252;fung der Abrechnung einer f&#252;r den ESA erbrachten Leistung</text><text fill="#000000" font-family="sans-serif" font-size="14" lengthAdjust="spacing" textLength="66.6436" x="94.53" y="109.5889">Prozesse:</text><rect fill="none" height="6" style="stroke:#C82930;stroke-width:1;" width="6" x="82.53" y="119.5391"/><text fill="#000000" font-family="sans-serif" font-size="14" lengthAdjust="spacing" textLength="180.3457" x="94.53" y="125.8857">Netznutzungsabrechnung</text><line style="stroke:#181818;stroke-width:0.5;" x1="75.53" x2="803.5564" y1="133.1875" y2="133.1875"/></g><!--class EBD_E_0266_msg_1--><g class="entity" data-entity="EBD_E_0266_msg_1" data-source-line="7" data-uid="ent0003" id="entity_EBD_E_0266_msg_1"><rect fill="#F1F1F1" height="145.7813" rx="2.5" ry="2.5" style="stroke:#181818;stroke-width:0.5;" width="303.0811" x="7" y="218.1869"/><ellipse cx="84.0752" cy="234.1869" fill="#ADD1B2" rx="11" ry="11" style="stroke:#181818;stroke-width:1;"/><path d="M87.0439,239.8275 Q86.4658,240.1244 85.8252,240.265 Q85.1846,240.4213 84.4814,240.4213 Q81.9814,240.4213 80.6533,238.7806 Q79.3408,237.1244 79.3408,233.9994 Q79.3408,230.8744 80.6533,229.2181 Q81.9814,227.5619 84.4814,227.5619 Q85.1846,227.5619 85.8252,227.7181 Q86.4814,227.8744 87.0439,228.1713 L87.0439,230.89 Q86.4189,230.3119 85.8252,230.0463 Q85.2314,229.765 84.6064,229.765 Q83.2627,229.765 82.5752,230.8431 Q81.8877,231.9056 81.8877,233.9994 Q81.8877,236.0931 82.5752,237.1713 Q83.2627,238.2338 84.6064,238.2338 Q85.2314,238.2338 85.8252,237.9681 Q86.4189,237.6869 87.0439,237.1088 L87.0439,239.8275 Z " fill="#000000"/><text fill="#000000" font-family="sans-serif" font-size="14" lengthAdjust="spacing" textLength="140.4307" x="104.5752" y="239.0336">EBD_E_0266_msg_1</text><line style="stroke:#181818;stroke-width:0.5;" x1="8" x2="309.0811" y1="250.1869" y2="250.1869"/><text fill="#000000" font-family="sans-serif" font-size="14" lengthAdjust="spacing" textLength="171.4932" x="13" y="267.182">Nachricht: REMADV 2.9c</text><text fill="#000000" font-family="sans-serif" font-size="14" lengthAdjust="spacing" textLength="170.3447" x="13" y="283.4789">Kontext: Segmentlayout</text><text fill="#000000" font-family="sans-serif" font-size="14" lengthAdjust="spacing" textLength="110.5439" x="13" y="299.7757">Pflichtfeld: Nein</text><text fill="#000000" font-family="sans-serif" font-size="14" lengthAdjust="spacing" textLength="282.1943" x="13" y="316.0726">Codes: EBD, ESA, LF, MGV, MSB, NB, NN</text><text fill="#000000" font-family="sans-serif" font-size="14" lengthAdjust="spacing" textLength="251.4395" x="13" y="332.3695">Prozesse: Netznutzungsabrechnung</text><text fill="#000000" font-family="sans-serif" font-size="14" lengthAdjust="spacing" textLength="291.0811" x="13" y="348.6664">Quelle: REMADV_MIG_2.9c_20231024.pdf</text><line style="stroke:#181818;stroke-width:0.5;" x1="8" x2="309.0811" y1="355.9681" y2="355.9681"/></g><!--class EBD_E_0266_proc_1--><g class="entity" data-entity="EBD_E_0266_proc_1" data-source-line="16" data-uid="ent0005" id="entity_EBD_E_0266_proc_1"><rect fill="#F1F1F1" height="105.1563" rx="2.5" ry="2.5" style="stroke:#181818;stroke-width:0.5;" width="752.6465" x="345.22" y="238.4969"/><ellipse cx="646.5345" cy="258.6297" fill="#ADD1B2" rx="11" ry="11" style="stroke:#181818;stroke-width:1;"/><path d="M649.5032,264.2703 Q648.9251,264.5672 648.2845,264.7078 Q647.6438,264.8641 646.9407,264.8641 Q644.4407,264.8641 643.1126,263.2234 Q641.8001,261.5672 641.8001,258.4422 Q641.8001,255.3172 643.1126,253.6609 Q644.4407,252.0047 646.9407,252.0047 Q647.6438,252.0047 648.2845,252.1609 Q648.9407,252.3172 649.5032,252.6141 L649.5032,255.3328 Q648.8782,254.7547 648.2845,254.4891 Q647.6907,254.2078 647.0657,254.2078 Q645.722,254.2078 645.0345,255.2859 Q644.347,256.3484 644.347,258.4422 Q644.347,260.5359 645.0345,261.6141 Q645.722,262.6766 647.0657,262.6766 Q647.6907,262.6766 648.2845,262.4109 Q648.8782,262.1297 649.5032,261.5516 L649.5032,264.2703 Z " fill="#000000"/><text fill="#000000" font-family="sans-serif" font-size="12" font-style="italic" lengthAdjust="spacing" textLength="61.0605" x="707.263" y="254.6355">&#171;process&#187;</text><text fill="#000000" font-family="sans-serif" font-size="14" lengthAdjust="spacing" textLength="141.5176" x="667.0345" y="270.4607">EBD_E_0266_proc_1</text><line style="stroke:#181818;stroke-width:0.5;" x1="346.22" x2="1096.8665" y1="278.7625" y2="278.7625"/><text fill="#000000" font-family="sans-serif" font-size="14" lengthAdjust="spacing" textLength="180.3457" x="351.22" y="295.7576">Netznutzungsabrechnung</text><text fill="#000000" font-family="sans-serif" font-size="14" lengthAdjust="spacing" textLength="218.0938" x="351.22" y="312.0545">Gesetze: StromNEV, StromNZV</text><text fill="#000000" font-family="sans-serif" font-size="14" lengthAdjust="spacing" textLength="740.6465" x="351.22" y="328.3514">Zusammenfassung: Wie funktioniert die Netznutzungsabrechnung zwischen Netzbetreiber und Lieferant?</text><line style="stroke:#181818;stroke-width:0.5;" x1="346.22" x2="1096.8665" y1="335.6531" y2="335.6531"/></g><!--link EBD_E_0266 to EBD_E_0266_msg_1--><g class="link" data-entity-1="EBD_E_0266" data-entity-2="EBD_E_0266_msg_1" data-source-line="15" data-uid="lnk4" id="link_EBD_E_0266_EBD_E_0266_msg_1"><path codeLine="15" d="M371.16,141.5169 C338.34,164.4469 303.2486,188.9707 266.8186,214.4207" fill="none" id="EBD_E_0266-to-EBD_E_0266_msg_1" style="stroke:#181818;stroke-width:1;"/><polygon fill="#181818" points="261.9,217.8569,271.5687,215.9817,265.9989,214.9934,266.9872,209.4236,261.9,217.8569" style="stroke:#181818;stroke-width:1;"/><text fill="#000000" font-family="sans-serif" font-size="13" lengthAdjust="spacing" textLength="85.2363" x="325.54" y="184.2538">verwendet in</text></g><!--link EBD_E_0266 to EBD_E_0266_proc_1--><g class="link" data-entity-1="EBD_E_0266" data-entity-2="EBD_E_0266_proc_1" data-source-line="21" data-uid="lnk6" id="link_EBD_E_0266_EBD_E_0266_proc_1"><path codeLine="21" d="M508.16,141.5169 C550.15,170.7469 598.9461,204.7182 641.9861,234.6882" fill="none" id="EBD_E_0266-to-EBD_E_0266_proc_1" style="stroke:#181818;stroke-width:1;stroke-dasharray:7,7;"/><polygon fill="#181818" points="646.91,238.1169,641.81,229.6913,642.8068,235.2597,637.2384,236.2565,646.91,238.1169" style="stroke:#181818;stroke-width:1;"/><text fill="#000000" font-family="sans-serif" font-size="13" lengthAdjust="spacing" textLength="91.6221" x="573.54" y="184.2538">eingebettet in</text></g><!--SRC=[TLBHJi9047pdA_O3e85gI6m81gGI8pGe2IQyDANTmiNsIkwkeZN-6M_yc7E0HWCyt6LlPcztPk-CC1dJ838i8vD5cXhazmUU7pRTThiM0z4M20y0VTQ8WYXdpu8KA8UEH5KgOYMvH26QgDqsBUMI4bRKMoYELz8UMKW0wMwhm4ZofptSMQWeNjbR8nRQ80qj9ggeM6ls41Ca1MmgMPeAh8v-wzM-JWI6kLw6hQFCUAK4Idlqx8zxWncvpaqCuh6GXjy1JtcPiuJhZw8qjckQsVoKiyH3Io61tHK9wxtRkjLRfz5zdSR36RPflqw1NS5VnPUq4ZsLd6NyeoOSFmn3goXqc-vLg-bUE-iaXQK_qsuqkgVUF7fZjM6Pi258F9d0MXKnqZeT6q1IjtiOnoLPGzQWe6jgL947FgmTelaCxBpKKOuffUY2V8zU11FUzjM8GWfMXX80vujJjH4wNk5fBRzWerWiy05AcT18SCegakRslsN7wPunuzclisIKC7lNtm00]--></g></svg>