<svg xmlns="http://www.w3.org/2000/svg" xmlns:xlink="http://www.w3.org/1999/xlink" contentStyleType="text/css" data-diagram-type="CLASS" height="370px" preserveAspectRatio="none" style="width:1104px;height:370px;background:#FFFFFF;" version="1.1" viewBox="0 0 1104 370" width="1104px" zoomAndPan="magnify"><title>Datenatlas - EBD:G_0079</title><defs/><g><g class="title" data-source-line="1"><text fill="#000000" font-family="sans-serif" font-size="14" font-weight="bold" lengthAdjust="spacing" textLength="196.4102" x="447.2282" y="22.9951">Datenatlas - EBD:G_0079</text></g><!--class EBD_G_0079--><g class="entity" data-entity="EBD_G_0079" data-source-line="2" data-uid="ent0002" id="entity_EBD_G_0079"><rect fill="#F1F1F1" height="96.8906" rx="2.5" ry="2.5" style="stroke:#181818;stroke-width:0.5;" width="606.0293" x="136.53" y="44.2969"/><ellipse cx="390.4406" cy="60.2969" fill="#ADD1B2" rx="11" ry="11" style="stroke:#181818;stroke-width:1;"/><path d="M393.4094,65.9375 Q392.8313,66.2344 392.1906,66.375 Q391.55,66.5313 390.8469,66.5313 Q388.3469,66.5313 387.0188,64.8906 Q385.7063,63.2344 385.7063,60.1094 Q385.7063,56.9844 387.0188,55.3281 Q388.3469,53.6719 390.8469,53.6719 Q391.55,53.6719 392.1906,53.8281 Q392.8469,53.9844 393.4094,54.2813 L393.4094,57 Q392.7844,56.4219 392.1906,56.1563 Q391.5969,55.875 390.9719,55.875 Q389.6281,55.875 388.9406,56.9531 Q388.2531,58.0156 388.2531,60.1094 Q388.2531,62.2031 388.9406,63.2813 Q389.6281,64.3438 390.9719,64.3438 Q391.5969,64.3438 392.1906,64.0781 Q392.7844,63.7969 393.4094,63.2188 L393.4094,65.9375 Z " fill="#000000"/><text fill="#000000" font-family="sans-serif" font-size="14" lengthAdjust="spacing" textLength="89.708" x="410.9406" y="65.1436">EBD_G_0079</text><line style="stroke:#181818;stroke-width:0.5;" x1="137.53" x2="741.5593" y1="76.2969" y2="76.2969"/><text fill="#000000" font-family="sans-serif" font-size="14" lengthAdjust="spacing" textLength="580.0293" x="156.53" y="93.292">Name: Codeliste Gas Nr. G_0079 Codeliste f&#252;r die Pr&#252;fung der Kapazit&#228;tsrechnung</text><text fill="#000000" font-family="sans-serif" font-size="14" lengthAdjust="spacing" textLength="66.6436" x="156.53" y="109.5889">Prozesse:</text><rect fill="none" height="6" style="stroke:#C82930;stroke-width:1;" width="6" x="144.53" y="119.5391"/><text fill="#000000" font-family="sans-serif" font-size="14" lengthAdjust="spacing" textLength="180.3457" x="156.53" y="125.8857">Netznutzungsabrechnung</text><line style="stroke:#181818;stroke-width:0.5;" x1="137.53" x2="741.5593" y1="133.1875" y2="133.1875"/></g><!--class EBD_G_0079_msg_1--><g class="entity" data-entity="EBD_G_0079_msg_1" data-source-line="7" data-uid="ent0003" id="entity_EBD_G_0079_msg_1"><rect fill="#F1F1F1" height="145.7813" rx="2.5" ry="2.5" style="stroke:#181818;stroke-width:0.5;" width="303.0811" x="7" y="218.1869"/><ellipse cx="83.0737" cy="234.1869" fill="#ADD1B2" rx="11" ry="11" style="stroke:#181818;stroke-width:1;"/><path d="M86.0425,239.8275 Q85.4644,240.1244 84.8237,240.265 Q84.1831,240.4213 83.48,240.4213 Q80.98,240.4213 79.6519,238.7806 Q78.3394,237.1244 78.3394,233.9994 Q78.3394,230.8744 79.6519,229.2181 Q80.98,227.5619 83.48,227.5619 Q84.1831,227.5619 84.8237,227.7181 Q85.48,227.8744 86.0425,228.1713 L86.0425,230.89 Q85.4175,230.3119 84.8237,230.0463 Q84.23,229.765 83.605,229.765 Q82.2612,229.765 81.5737,230.8431 Q80.8862,231.9056 80.8862,233.9994 Q80.8862,236.0931 81.5737,237.1713 Q82.2612,238.2338 83.605,238.2338 Q84.23,238.2338 84.8237,237.9681 Q85.4175,237.6869 86.0425,237.1088 L86.0425,239.8275 Z " fill="#000000"/><text fill="#000000" font-family="sans-serif" font-size="14" lengthAdjust="spacing" textLength="142.4336" x="103.5737" y="239.0336">EBD_G_0079_msg_1</text><line style="stroke:#181818;stroke-width:0.5;" x1="8" x2="309.0811" y1="250.1869" y2="250.1869"/><text fill="#000000" font-family="sans-serif" font-size="14" lengthAdjust="spacing" textLength="171.4932" x="13" y="267.182">Nachricht: REMADV 2.9c</text><text fill="#000000" font-family="sans-serif" font-size="14" lengthAdjust="spacing" textLength="170.3447" x="13" y="283.4789">Kontext: Segmentlayout</text><text fill="#000000" font-family="sans-serif" font-size="14" lengthAdjust="spacing" textLength="110.5439" x="13" y="299.7757">Pflichtfeld: Nein</text><text fill="#000000" font-family="sans-serif" font-size="14" lengthAdjust="spacing" textLength="282.1943" x="13" y="316.0726">Codes: EBD, ESA, LF, MGV, MSB, NB, NN</text><text fill="#000000" font-family="sans-serif" font-size="14" lengthAdjust="spacing" textLength="251.4395" x="13" y="332.3695">Prozesse: Netznutzungsabrechnung</text><text fill="#000000" font-family="sans-serif" font-size="14" lengthAdjust="spacing" textLength="291.0811" x="13" y="348.6664">Quelle: REMADV_MIG_2.9c_20231024.pdf</text><line style="stroke:#181818;stroke-width:0.5;" x1="8" x2="309.0811" y1="355.9681" y2="355.9681"/></g><!--class EBD_G_0079_proc_1--><g class="entity" data-entity="EBD_G_0079_proc_1" data-source-line="16" data-uid="ent0005" id="entity_EBD_G_0079_proc_1"><rect fill="#F1F1F1" height="105.1563" rx="2.5" ry="2.5" style="stroke:#181818;stroke-width:0.5;" width="752.6465" x="345.22" y="238.4969"/><ellipse cx="645.533" cy="258.6297" fill="#ADD1B2" rx="11" ry="11" style="stroke:#181818;stroke-width:1;"/><path d="M648.5017,264.2703 Q647.9236,264.5672 647.283,264.7078 Q646.6424,264.8641 645.9392,264.8641 Q643.4392,264.8641 642.1111,263.2234 Q640.7986,261.5672 640.7986,258.4422 Q640.7986,255.3172 642.1111,253.6609 Q643.4392,252.0047 645.9392,252.0047 Q646.6424,252.0047 647.283,252.1609 Q647.9392,252.3172 648.5017,252.6141 L648.5017,255.3328 Q647.8767,254.7547 647.283,254.4891 Q646.6892,254.2078 646.0642,254.2078 Q644.7205,254.2078 644.033,255.2859 Q643.3455,256.3484 643.3455,258.4422 Q643.3455,260.5359 644.033,261.6141 Q644.7205,262.6766 646.0642,262.6766 Q646.6892,262.6766 647.283,262.4109 Q647.8767,262.1297 648.5017,261.5516 L648.5017,264.2703 Z " fill="#000000"/><text fill="#000000" font-family="sans-serif" font-size="12" font-style="italic" lengthAdjust="spacing" textLength="61.0605" x="707.263" y="254.6355">&#171;process&#187;</text><text fill="#000000" font-family="sans-serif" font-size="14" lengthAdjust="spacing" textLength="143.5205" x="666.033" y="270.4607">EBD_G_0079_proc_1</text><line style="stroke:#181818;stroke-width:0.5;" x1="346.22" x2="1096.8665" y1="278.7625" y2="278.7625"/><text fill="#000000" font-family="sans-serif" font-size="14" lengthAdjust="spacing" textLength="180.3457" x="351.22" y="295.7576">Netznutzungsabrechnung</text><text fill="#000000" font-family="sans-serif" font-size="14" lengthAdjust="spacing" textLength="218.0938" x="351.22" y="312.0545">Gesetze: StromNEV, StromNZV</text><text fill="#000000" font-family="sans-serif" font-size="14" lengthAdjust="spacing" textLength="740.6465" x="351.22" y="328.3514">Zusammenfassung: Wie funktioniert die Netznutzungsabrechnung zwischen Netzbetreiber und Lieferant?</text><line style="stroke:#181818;stroke-width:0.5;" x1="346.22" x2="1096.8665" y1="335.6531" y2="335.6531"/></g><!--link EBD_G_0079 to EBD_G_0079_msg_1--><g class="link" data-entity-1="EBD_G_0079" data-entity-2="EBD_G_0079_msg_1" data-source-line="15" data-uid="lnk4" id="link_EBD_G_0079_EBD_G_0079_msg_1"><path codeLine="15" d="M371.16,141.5169 C338.34,164.4469 303.2486,188.9707 266.8186,214.4207" fill="none" id="EBD_G_0079-to-EBD_G_0079_msg_1" style="stroke:#181818;stroke-width:1;"/><polygon fill="#181818" points="261.9,217.8569,271.5687,215.9817,265.9989,214.9934,266.9872,209.4236,261.9,217.8569" style="stroke:#181818;stroke-width:1;"/><text fill="#000000" font-family="sans-serif" font-size="13" lengthAdjust="spacing" textLength="85.2363" x="325.54" y="184.2538">verwendet in</text></g><!--link EBD_G_0079 to EBD_G_0079_proc_1--><g class="link" data-entity-1="EBD_G_0079" data-entity-2="EBD_G_0079_proc_1" data-source-line="21" data-uid="lnk6" id="link_EBD_G_0079_EBD_G_0079_proc_1"><path codeLine="21" d="M508.16,141.5169 C550.15,170.7469 598.9461,204.7182 641.9861,234.6882" fill="none" id="EBD_G_0079-to-EBD_G_0079_proc_1" style="stroke:#181818;stroke-width:1;stroke-dasharray:7,7;"/><polygon fill="#181818" points="646.91,238.1169,641.81,229.6913,642.8068,235.2597,637.2384,236.2565,646.91,238.1169" style="stroke:#181818;stroke-width:1;"/><text fill="#000000" font-family="sans-serif" font-size="13" lengthAdjust="spacing" textLength="91.6221" x="573.54" y="184.2538">eingebettet in</text></g><!--SRC=[TP5HJi9048RVESKSe3I09eODmO1WOu069S64bsPffx2ntPBTgMYDj_4Ol74nfu2A0HwwcVmpdVd-6LAK8FGaePQKI0jLw7TxmWjgjPjc9MJ5baAm5-2Z0k3B50NSPH4coXA2nt_vneL3oLyYtcuCH0fXRBQREDSBYD30GAvaeMZxHTPWkDIiSzEnoGgq5WN7m10-Kg5pAZXhvVotyFC4AKZj8gWVmCAbKU6I13prHvtU51fkC-J48DE4RonFS96YPf_lMKxbr3WfwsDC8i4ZbMQjvBUYdE10Vz9nO7ZlmCYRyZFfEk2NdtzCV8aLu3779C4Vcc3qu0KbKT2eDQxgjSQrkufYjdIqtsgrVUfDm2kQDUe82HZnP0ChauLSrcgL0IErs_jrNCBoq7AAkIPaijJlixLzD9joTfPRcVAMOfx2zGAU-O9ylHTIcLPeQ7VIyysXM2iRBb7lydCaWshEDyzr14E5CHgfwVQ_PTTjdp4ZWA-nG6v1EzVV]--></g></svg>