<svg xmlns="http://www.w3.org/2000/svg" xmlns:xlink="http://www.w3.org/1999/xlink" contentStyleType="text/css" data-diagram-type="CLASS" height="370px" preserveAspectRatio="none" style="width:1136px;height:370px;background:#FFFFFF;" version="1.1" viewBox="0 0 1136 370" width="1136px" zoomAndPan="magnify"><title>Datenatlas - EBD:E_0522</title><defs/><g><g class="title" data-source-line="1"><text fill="#000000" font-family="sans-serif" font-size="14" font-weight="bold" lengthAdjust="spacing" textLength="194.4824" x="463.792" y="22.9951">Datenatlas - EBD:E_0522</text></g><!--class EBD_E_0522--><g class="entity" data-entity="EBD_E_0522" data-source-line="2" data-uid="ent0002" id="entity_EBD_E_0522"><rect fill="#F1F1F1" height="96.8906" rx="2.5" ry="2.5" style="stroke:#181818;stroke-width:0.5;" width="927.4893" x="7" y="44.2969"/><ellipse cx="422.6421" cy="60.2969" fill="#ADD1B2" rx="11" ry="11" style="stroke:#181818;stroke-width:1;"/><path d="M425.6108,65.9375 Q425.0327,66.2344 424.3921,66.375 Q423.7515,66.5313 423.0483,66.5313 Q420.5483,66.5313 419.2202,64.8906 Q417.9077,63.2344 417.9077,60.1094 Q417.9077,56.9844 419.2202,55.3281 Q420.5483,53.6719 423.0483,53.6719 Q423.7515,53.6719 424.3921,53.8281 Q425.0483,53.9844 425.6108,54.2813 L425.6108,57 Q424.9858,56.4219 424.3921,56.1563 Q423.7983,55.875 423.1733,55.875 Q421.8296,55.875 421.1421,56.9531 Q420.4546,58.0156 420.4546,60.1094 Q420.4546,62.2031 421.1421,63.2813 Q421.8296,64.3438 423.1733,64.3438 Q423.7983,64.3438 424.3921,64.0781 Q424.9858,63.7969 425.6108,63.2188 L425.6108,65.9375 Z " fill="#000000"/><text fill="#000000" font-family="sans-serif" font-size="14" lengthAdjust="spacing" textLength="87.7051" x="443.1421" y="65.1436">EBD_E_0522</text><line style="stroke:#181818;stroke-width:0.5;" x1="8" x2="933.4893" y1="76.2969" y2="76.2969"/><text fill="#000000" font-family="sans-serif" font-size="14" lengthAdjust="spacing" textLength="66.6436" x="27" y="93.292">Prozesse:</text><rect fill="none" height="6" style="stroke:#C82930;stroke-width:1;" width="6" x="15" y="103.2422"/><text fill="#000000" font-family="sans-serif" font-size="14" lengthAdjust="spacing" textLength="180.3457" x="27" y="109.5889">Netznutzungsabrechnung</text><line style="stroke:#181818;stroke-width:0.5;" x1="8" x2="933.4893" y1="116.8906" y2="116.8906"/><text fill="#000000" font-family="sans-serif" font-size="14" lengthAdjust="spacing" textLength="915.4893" x="13" y="133.8857">Name: EBD Nr. E_0522 zur Pr&#252;fung f&#252;r die Antwort auf eine Stornierung (Abrechnung Preisblatts A des MSB zwischen MSB und LF)</text></g><!--class EBD_E_0522_msg_1--><g class="entity" data-entity="EBD_E_0522_msg_1" data-source-line="7" data-uid="ent0003" id="entity_EBD_E_0522_msg_1"><rect fill="#F1F1F1" height="145.7813" rx="2.5" ry="2.5" style="stroke:#181818;stroke-width:0.5;" width="303.0811" x="38.2" y="218.1869"/><ellipse cx="115.2752" cy="234.1869" fill="#ADD1B2" rx="11" ry="11" style="stroke:#181818;stroke-width:1;"/><path d="M118.2439,239.8275 Q117.6658,240.1244 117.0252,240.265 Q116.3846,240.4213 115.6814,240.4213 Q113.1814,240.4213 111.8533,238.7806 Q110.5408,237.1244 110.5408,233.9994 Q110.5408,230.8744 111.8533,229.2181 Q113.1814,227.5619 115.6814,227.5619 Q116.3846,227.5619 117.0252,227.7181 Q117.6814,227.8744 118.2439,228.1713 L118.2439,230.89 Q117.6189,230.3119 117.0252,230.0463 Q116.4314,229.765 115.8064,229.765 Q114.4627,229.765 113.7752,230.8431 Q113.0877,231.9056 113.0877,233.9994 Q113.0877,236.0931 113.7752,237.1713 Q114.4627,238.2338 115.8064,238.2338 Q116.4314,238.2338 117.0252,237.9681 Q117.6189,237.6869 118.2439,237.1088 L118.2439,239.8275 Z " fill="#000000"/><text fill="#000000" font-family="sans-serif" font-size="14" lengthAdjust="spacing" textLength="140.4307" x="135.7752" y="239.0336">EBD_E_0522_msg_1</text><line style="stroke:#181818;stroke-width:0.5;" x1="39.2" x2="340.2811" y1="250.1869" y2="250.1869"/><text fill="#000000" font-family="sans-serif" font-size="14" lengthAdjust="spacing" textLength="171.4932" x="44.2" y="267.182">Nachricht: REMADV 2.9c</text><text fill="#000000" font-family="sans-serif" font-size="14" lengthAdjust="spacing" textLength="170.3447" x="44.2" y="283.4789">Kontext: Segmentlayout</text><text fill="#000000" font-family="sans-serif" font-size="14" lengthAdjust="spacing" textLength="110.5439" x="44.2" y="299.7757">Pflichtfeld: Nein</text><text fill="#000000" font-family="sans-serif" font-size="14" lengthAdjust="spacing" textLength="282.1943" x="44.2" y="316.0726">Codes: EBD, ESA, LF, MGV, MSB, NB, NN</text><text fill="#000000" font-family="sans-serif" font-size="14" lengthAdjust="spacing" textLength="251.4395" x="44.2" y="332.3695">Prozesse: Netznutzungsabrechnung</text><text fill="#000000" font-family="sans-serif" font-size="14" lengthAdjust="spacing" textLength="291.0811" x="44.2" y="348.6664">Quelle: REMADV_MIG_2.9c_20231024.pdf</text><line style="stroke:#181818;stroke-width:0.5;" x1="39.2" x2="340.2811" y1="355.9681" y2="355.9681"/></g><!--class EBD_E_0522_proc_1--><g class="entity" data-entity="EBD_E_0522_proc_1" data-source-line="16" data-uid="ent0005" id="entity_EBD_E_0522_proc_1"><rect fill="#F1F1F1" height="105.1563" rx="2.5" ry="2.5" style="stroke:#181818;stroke-width:0.5;" width="752.6465" x="376.42" y="238.4969"/><ellipse cx="677.7345" cy="258.6297" fill="#ADD1B2" rx="11" ry="11" style="stroke:#181818;stroke-width:1;"/><path d="M680.7032,264.2703 Q680.1251,264.5672 679.4845,264.7078 Q678.8438,264.8641 678.1407,264.8641 Q675.6407,264.8641 674.3126,263.2234 Q673.0001,261.5672 673.0001,258.4422 Q673.0001,255.3172 674.3126,253.6609 Q675.6407,252.0047 678.1407,252.0047 Q678.8438,252.0047 679.4845,252.1609 Q680.1407,252.3172 680.7032,252.6141 L680.7032,255.3328 Q680.0782,254.7547 679.4845,254.4891 Q678.8907,254.2078 678.2657,254.2078 Q676.922,254.2078 676.2345,255.2859 Q675.547,256.3484 675.547,258.4422 Q675.547,260.5359 676.2345,261.6141 Q676.922,262.6766 678.2657,262.6766 Q678.8907,262.6766 679.4845,262.4109 Q680.0782,262.1297 680.7032,261.5516 L680.7032,264.2703 Z " fill="#000000"/><text fill="#000000" font-family="sans-serif" font-size="12" font-style="italic" lengthAdjust="spacing" textLength="61.0605" x="738.463" y="254.6355">&#171;process&#187;</text><text fill="#000000" font-family="sans-serif" font-size="14" lengthAdjust="spacing" textLength="141.5176" x="698.2345" y="270.4607">EBD_E_0522_proc_1</text><line style="stroke:#181818;stroke-width:0.5;" x1="377.42" x2="1128.0665" y1="278.7625" y2="278.7625"/><text fill="#000000" font-family="sans-serif" font-size="14" lengthAdjust="spacing" textLength="180.3457" x="382.42" y="295.7576">Netznutzungsabrechnung</text><text fill="#000000" font-family="sans-serif" font-size="14" lengthAdjust="spacing" textLength="218.0938" x="382.42" y="312.0545">Gesetze: StromNEV, StromNZV</text><text fill="#000000" font-family="sans-serif" font-size="14" lengthAdjust="spacing" textLength="740.6465" x="382.42" y="328.3514">Zusammenfassung: Wie funktioniert die Netznutzungsabrechnung zwischen Netzbetreiber und Lieferant?</text><line style="stroke:#181818;stroke-width:0.5;" x1="377.42" x2="1128.0665" y1="335.6531" y2="335.6531"/></g><!--link EBD_E_0522 to EBD_E_0522_msg_1--><g class="link" data-entity-1="EBD_E_0522" data-entity-2="EBD_E_0522_msg_1" data-source-line="15" data-uid="lnk4" id="link_EBD_E_0522_EBD_E_0522_msg_1"><path codeLine="15" d="M402.36,141.5169 C369.55,164.4469 334.4486,188.9707 298.0186,214.4207" fill="none" id="EBD_E_0522-to-EBD_E_0522_msg_1" style="stroke:#181818;stroke-width:1;"/><polygon fill="#181818" points="293.1,217.8569,302.7687,215.9817,297.1989,214.9934,298.1872,209.4236,293.1,217.8569" style="stroke:#181818;stroke-width:1;"/><text fill="#000000" font-family="sans-serif" font-size="13" lengthAdjust="spacing" textLength="85.2363" x="356.74" y="184.2538">verwendet in</text></g><!--link EBD_E_0522 to EBD_E_0522_proc_1--><g class="link" data-entity-1="EBD_E_0522" data-entity-2="EBD_E_0522_proc_1" data-source-line="21" data-uid="lnk6" id="link_EBD_E_0522_EBD_E_0522_proc_1"><path codeLine="21" d="M539.37,141.5169 C581.35,170.7469 630.1461,204.7182 673.1861,234.6882" fill="none" id="EBD_E_0522-to-EBD_E_0522_proc_1" style="stroke:#181818;stroke-width:1;stroke-dasharray:7,7;"/><polygon fill="#181818" points="678.11,238.1169,673.01,229.6913,674.0068,235.2597,668.4384,236.2565,678.11,238.1169" style="stroke:#181818;stroke-width:1;"/><text fill="#000000" font-family="sans-serif" font-size="13" lengthAdjust="spacing" textLength="91.6221" x="604.74" y="184.2538">eingebettet in</text></g><!--SRC=[TPB1IiD048RlVOevAgIXHZqOf19jBA8DrK05Bs6RJDh5P5Ts9rOZlbbllfYpRTLAzH2O_3FCVl_CaAGAOI08bQ1AMEX2V3u8uwnt70ITd1NhX6mjm5i7814rXaw4nFYmIRIDWR7vM9QDca7viJHGI8H8qK8R0j6KW58XfAIDacXSrLuqDPZFbOl71gMTLeB8GWG5MXYbvz0kfCtdg5O_ZIhWvdAV0SP6jsWjXXm30oT8hMgevKPMVFVilE_WPxMTPGSR4_dSo7nE8Tp5esWmWS0_oJbnhHNX2yifpcfKF9DNtP1xjQnSVObL4VAJKh5seHbrDGiFuZJo6D23qN3YEM8F4lSbsyJ_iGBSDbXL-4MJZQw6cIFAWbvmUD0BZlodecHBMxleTlkxta9uHhD0LI018-vCuCdedCjEJrt0IFt-UXp_OGtHSegvKZAwJcAsjeuU9fnzQAoeUKeblyBr8Tppqla47abgjsPQNS7VpN-sw_9J93w1APhrdYMMQ8IYiz-MVR__XvdGtTOCkGMjN7y2]--></g></svg>