<svg xmlns="http://www.w3.org/2000/svg" xmlns:xlink="http://www.w3.org/1999/xlink" contentStyleType="text/css" data-diagram-type="CLASS" height="370px" preserveAspectRatio="none" style="width:1114px;height:370px;background:#FFFFFF;" version="1.1" viewBox="0 0 1114 370" width="1114px" zoomAndPan="magnify"><title>Datenatlas - EBD:E_0517</title><defs/><g><g class="title" data-source-line="1"><text fill="#000000" font-family="sans-serif" font-size="14" font-weight="bold" lengthAdjust="spacing" textLength="194.4824" x="452.887" y="22.9951">Datenatlas - EBD:E_0517</text></g><!--class EBD_E_0517--><g class="entity" data-entity="EBD_E_0517" data-source-line="2" data-uid="ent0002" id="entity_EBD_E_0517"><rect fill="#F1F1F1" height="96.8906" rx="2.5" ry="2.5" style="stroke:#181818;stroke-width:0.5;" width="883.8691" x="7" y="44.2969"/><ellipse cx="400.832" cy="60.2969" fill="#ADD1B2" rx="11" ry="11" style="stroke:#181818;stroke-width:1;"/><path d="M403.8008,65.9375 Q403.2227,66.2344 402.582,66.375 Q401.9414,66.5313 401.2383,66.5313 Q398.7383,66.5313 397.4102,64.8906 Q396.0977,63.2344 396.0977,60.1094 Q396.0977,56.9844 397.4102,55.3281 Q398.7383,53.6719 401.2383,53.6719 Q401.9414,53.6719 402.582,53.8281 Q403.2383,53.9844 403.8008,54.2813 L403.8008,57 Q403.1758,56.4219 402.582,56.1563 Q401.9883,55.875 401.3633,55.875 Q400.0195,55.875 399.332,56.9531 Q398.6445,58.0156 398.6445,60.1094 Q398.6445,62.2031 399.332,63.2813 Q400.0195,64.3438 401.3633,64.3438 Q401.9883,64.3438 402.582,64.0781 Q403.1758,63.7969 403.8008,63.2188 L403.8008,65.9375 Z " fill="#000000"/><text fill="#000000" font-family="sans-serif" font-size="14" lengthAdjust="spacing" textLength="87.7051" x="421.332" y="65.1436">EBD_E_0517</text><line style="stroke:#181818;stroke-width:0.5;" x1="8" x2="889.8691" y1="76.2969" y2="76.2969"/><text fill="#000000" font-family="sans-serif" font-size="14" lengthAdjust="spacing" textLength="857.8691" x="27" y="93.292">Name: EBD Nr. E_0517 zur erneuten Pr&#252;fung der Abrechnung Leistungen des Preisblatts A des MSB zwischen MSB und NB</text><text fill="#000000" font-family="sans-serif" font-size="14" lengthAdjust="spacing" textLength="66.6436" x="27" y="109.5889">Prozesse:</text><rect fill="none" height="6" style="stroke:#C82930;stroke-width:1;" width="6" x="15" y="119.5391"/><text fill="#000000" font-family="sans-serif" font-size="14" lengthAdjust="spacing" textLength="180.3457" x="27" y="125.8857">Netznutzungsabrechnung</text><line style="stroke:#181818;stroke-width:0.5;" x1="8" x2="889.8691" y1="133.1875" y2="133.1875"/></g><!--class EBD_E_0517_msg_1--><g class="entity" data-entity="EBD_E_0517_msg_1" data-source-line="7" data-uid="ent0003" id="entity_EBD_E_0517_msg_1"><rect fill="#F1F1F1" height="145.7813" rx="2.5" ry="2.5" style="stroke:#181818;stroke-width:0.5;" width="303.0811" x="16.39" y="218.1869"/><ellipse cx="93.4652" cy="234.1869" fill="#ADD1B2" rx="11" ry="11" style="stroke:#181818;stroke-width:1;"/><path d="M96.4339,239.8275 Q95.8558,240.1244 95.2152,240.265 Q94.5746,240.4213 93.8714,240.4213 Q91.3714,240.4213 90.0433,238.7806 Q88.7308,237.1244 88.7308,233.9994 Q88.7308,230.8744 90.0433,229.2181 Q91.3714,227.5619 93.8714,227.5619 Q94.5746,227.5619 95.2152,227.7181 Q95.8714,227.8744 96.4339,228.1713 L96.4339,230.89 Q95.8089,230.3119 95.2152,230.0463 Q94.6214,229.765 93.9964,229.765 Q92.6527,229.765 91.9652,230.8431 Q91.2777,231.9056 91.2777,233.9994 Q91.2777,236.0931 91.9652,237.1713 Q92.6527,238.2338 93.9964,238.2338 Q94.6214,238.2338 95.2152,237.9681 Q95.8089,237.6869 96.4339,237.1088 L96.4339,239.8275 Z " fill="#000000"/><text fill="#000000" font-family="sans-serif" font-size="14" lengthAdjust="spacing" textLength="140.4307" x="113.9652" y="239.0336">EBD_E_0517_msg_1</text><line style="stroke:#181818;stroke-width:0.5;" x1="17.39" x2="318.4711" y1="250.1869" y2="250.1869"/><text fill="#000000" font-family="sans-serif" font-size="14" lengthAdjust="spacing" textLength="171.4932" x="22.39" y="267.182">Nachricht: REMADV 2.9c</text><text fill="#000000" font-family="sans-serif" font-size="14" lengthAdjust="spacing" textLength="170.3447" x="22.39" y="283.4789">Kontext: Segmentlayout</text><text fill="#000000" font-family="sans-serif" font-size="14" lengthAdjust="spacing" textLength="110.5439" x="22.39" y="299.7757">Pflichtfeld: Nein</text><text fill="#000000" font-family="sans-serif" font-size="14" lengthAdjust="spacing" textLength="282.1943" x="22.39" y="316.0726">Codes: EBD, ESA, LF, MGV, MSB, NB, NN</text><text fill="#000000" font-family="sans-serif" font-size="14" lengthAdjust="spacing" textLength="251.4395" x="22.39" y="332.3695">Prozesse: Netznutzungsabrechnung</text><text fill="#000000" font-family="sans-serif" font-size="14" lengthAdjust="spacing" textLength="291.0811" x="22.39" y="348.6664">Quelle: REMADV_MIG_2.9c_20231024.pdf</text><line style="stroke:#181818;stroke-width:0.5;" x1="17.39" x2="318.4711" y1="355.9681" y2="355.9681"/></g><!--class EBD_E_0517_proc_1--><g class="entity" data-entity="EBD_E_0517_proc_1" data-source-line="16" data-uid="ent0005" id="entity_EBD_E_0517_proc_1"><rect fill="#F1F1F1" height="105.1563" rx="2.5" ry="2.5" style="stroke:#181818;stroke-width:0.5;" width="752.6465" x="354.61" y="238.4969"/><ellipse cx="655.9245" cy="258.6297" fill="#ADD1B2" rx="11" ry="11" style="stroke:#181818;stroke-width:1;"/><path d="M658.8932,264.2703 Q658.3151,264.5672 657.6745,264.7078 Q657.0338,264.8641 656.3307,264.8641 Q653.8307,264.8641 652.5026,263.2234 Q651.1901,261.5672 651.1901,258.4422 Q651.1901,255.3172 652.5026,253.6609 Q653.8307,252.0047 656.3307,252.0047 Q657.0338,252.0047 657.6745,252.1609 Q658.3307,252.3172 658.8932,252.6141 L658.8932,255.3328 Q658.2682,254.7547 657.6745,254.4891 Q657.0807,254.2078 656.4557,254.2078 Q655.112,254.2078 654.4245,255.2859 Q653.737,256.3484 653.737,258.4422 Q653.737,260.5359 654.4245,261.6141 Q655.112,262.6766 656.4557,262.6766 Q657.0807,262.6766 657.6745,262.4109 Q658.2682,262.1297 658.8932,261.5516 L658.8932,264.2703 Z " fill="#000000"/><text fill="#000000" font-family="sans-serif" font-size="12" font-style="italic" lengthAdjust="spacing" textLength="61.0605" x="716.653" y="254.6355">&#171;process&#187;</text><text fill="#000000" font-family="sans-serif" font-size="14" lengthAdjust="spacing" textLength="141.5176" x="676.4245" y="270.4607">EBD_E_0517_proc_1</text><line style="stroke:#181818;stroke-width:0.5;" x1="355.61" x2="1106.2565" y1="278.7625" y2="278.7625"/><text fill="#000000" font-family="sans-serif" font-size="14" lengthAdjust="spacing" textLength="180.3457" x="360.61" y="295.7576">Netznutzungsabrechnung</text><text fill="#000000" font-family="sans-serif" font-size="14" lengthAdjust="spacing" textLength="218.0938" x="360.61" y="312.0545">Gesetze: StromNEV, StromNZV</text><text fill="#000000" font-family="sans-serif" font-size="14" lengthAdjust="spacing" textLength="740.6465" x="360.61" y="328.3514">Zusammenfassung: Wie funktioniert die Netznutzungsabrechnung zwischen Netzbetreiber und Lieferant?</text><line style="stroke:#181818;stroke-width:0.5;" x1="355.61" x2="1106.2565" y1="335.6531" y2="335.6531"/></g><!--link EBD_E_0517 to EBD_E_0517_msg_1--><g class="link" data-entity-1="EBD_E_0517" data-entity-2="EBD_E_0517_msg_1" data-source-line="15" data-uid="lnk4" id="link_EBD_E_0517_EBD_E_0517_msg_1"><path codeLine="15" d="M380.55,141.5169 C347.74,164.4469 312.6386,188.9707 276.2086,214.4207" fill="none" id="EBD_E_0517-to-EBD_E_0517_msg_1" style="stroke:#181818;stroke-width:1;"/><polygon fill="#181818" points="271.29,217.8569,280.9587,215.9817,275.3889,214.9934,276.3772,209.4236,271.29,217.8569" style="stroke:#181818;stroke-width:1;"/><text fill="#000000" font-family="sans-serif" font-size="13" lengthAdjust="spacing" textLength="85.2363" x="334.93" y="184.2538">verwendet in</text></g><!--link EBD_E_0517 to EBD_E_0517_proc_1--><g class="link" data-entity-1="EBD_E_0517" data-entity-2="EBD_E_0517_proc_1" data-source-line="21" data-uid="lnk6" id="link_EBD_E_0517_EBD_E_0517_proc_1"><path codeLine="21" d="M517.56,141.5169 C559.54,170.7469 608.3361,204.7182 651.3761,234.6882" fill="none" id="EBD_E_0517-to-EBD_E_0517_proc_1" style="stroke:#181818;stroke-width:1;stroke-dasharray:7,7;"/><polygon fill="#181818" points="656.3,238.1169,651.2,229.6913,652.1968,235.2597,646.6284,236.2565,656.3,238.1169" style="stroke:#181818;stroke-width:1;"/><text fill="#000000" font-family="sans-serif" font-size="13" lengthAdjust="spacing" textLength="91.6221" x="582.93" y="184.2538">eingebettet in</text></g><!--SRC=[TPBTJi9048NlUOfvWD80QeoDmO1KOeH69S74cwQqKzZORitkr9yQtymxNyopW7z1BvhCdfdCV6UcegHW6YN2Ef4YiTIcS3WAmhXpq3rifL2i4-ADG2yjeYWfEN0YHSQdRQAf3R7HNACHNPhtjxpMIyhOq61XE5rfzvomie809HbRbE6zA18HIuErCfqDgNbKDbsXn3rgdL4qnD1BKpLiBGU82P0HIwDhQT3D9byJMgyxo75fbt5t2vwkZ4fN4j1rE1sCvjJpZr8aBYej_0HvnikIDVRmNDNYfkQ5gy-vo0ACL1hQQGNIjN-Fmjd0eycPHzFnt7F07cZnHJ-9_sCbkggvAFYJ9fwUZsD75FSwlRrkfxVltsSvBFtOVxlTt_KMq0ERHzOP2m5nPmFtfafHTdpi0Y3r-vjr_8SrPeiKk6PYgZ8AOMqJtSwHlQrjKc9BEQQWFg0RnOHhtucgj68Zb47uk_dtSLr-mO8_O85_n9rveZXdasWv-MtPz_j_c0a8rrWoMiZQzGS0]--></g></svg>