<svg xmlns="http://www.w3.org/2000/svg" xmlns:xlink="http://www.w3.org/1999/xlink" contentStyleType="text/css" data-diagram-type="CLASS" height="370px" preserveAspectRatio="none" style="width:984px;height:370px;background:#FFFFFF;" version="1.1" viewBox="0 0 984 370" width="984px" zoomAndPan="magnify"><title>Datenatlas - FII:0180</title><defs/><g><g class="title" data-source-line="1"><text fill="#000000" font-family="sans-serif" font-size="14" font-weight="bold" lengthAdjust="spacing" textLength="166.0449" x="402.2823" y="22.9951">Datenatlas - FII:0180</text></g><!--class FII_0180--><g class="entity" data-entity="FII_0180" data-source-line="2" data-uid="ent0002" id="entity_FII_0180"><rect fill="#F1F1F1" height="96.8906" rx="2.5" ry="2.5" style="stroke:#181818;stroke-width:0.5;" width="191.457" x="310.7" y="44.2969"/><ellipse cx="372.7088" cy="60.2969" fill="#ADD1B2" rx="11" ry="11" style="stroke:#181818;stroke-width:1;"/><path d="M375.6775,65.9375 Q375.0994,66.2344 374.4588,66.375 Q373.8182,66.5313 373.115,66.5313 Q370.615,66.5313 369.2869,64.8906 Q367.9744,63.2344 367.9744,60.1094 Q367.9744,56.9844 369.2869,55.3281 Q370.615,53.6719 373.115,53.6719 Q373.8182,53.6719 374.4588,53.8281 Q375.115,53.9844 375.6775,54.2813 L375.6775,57 Q375.0525,56.4219 374.4588,56.1563 Q373.865,55.875 373.24,55.875 Q371.8963,55.875 371.2088,56.9531 Q370.5213,58.0156 370.5213,60.1094 Q370.5213,62.2031 371.2088,63.2813 Q371.8963,64.3438 373.24,64.3438 Q373.865,64.3438 374.4588,64.0781 Q375.0525,63.7969 375.6775,63.2188 L375.6775,65.9375 Z " fill="#000000"/><text fill="#000000" font-family="sans-serif" font-size="14" lengthAdjust="spacing" textLength="58.9395" x="393.2088" y="65.1436">FII_0180</text><line style="stroke:#181818;stroke-width:0.5;" x1="311.7" x2="501.157" y1="76.2969" y2="76.2969"/><text fill="#000000" font-family="sans-serif" font-size="14" lengthAdjust="spacing" textLength="165.457" x="330.7" y="93.292">Name: Bankverbindung</text><text fill="#000000" font-family="sans-serif" font-size="14" lengthAdjust="spacing" textLength="66.6436" x="330.7" y="109.5889">Prozesse:</text><rect fill="none" height="6" style="stroke:#C82930;stroke-width:1;" width="6" x="318.7" y="119.5391"/><text fill="#000000" font-family="sans-serif" font-size="14" lengthAdjust="spacing" textLength="158.0127" x="330.7" y="125.8857">Stammdaten&#228;nderung</text><line style="stroke:#181818;stroke-width:0.5;" x1="311.7" x2="501.157" y1="133.1875" y2="133.1875"/></g><!--class FII_0180_msg_1--><g class="entity" data-entity="FII_0180_msg_1" data-source-line="7" data-uid="ent0003" id="entity_FII_0180_msg_1"><rect fill="#F1F1F1" height="145.7813" rx="2.5" ry="2.5" style="stroke:#181818;stroke-width:0.5;" width="296.8604" x="7" y="218.1869"/><ellipse cx="95.3477" cy="234.1869" fill="#ADD1B2" rx="11" ry="11" style="stroke:#181818;stroke-width:1;"/><path d="M98.3164,239.8275 Q97.7383,240.1244 97.0977,240.265 Q96.457,240.4213 95.7539,240.4213 Q93.2539,240.4213 91.9258,238.7806 Q90.6133,237.1244 90.6133,233.9994 Q90.6133,230.8744 91.9258,229.2181 Q93.2539,227.5619 95.7539,227.5619 Q96.457,227.5619 97.0977,227.7181 Q97.7539,227.8744 98.3164,228.1713 L98.3164,230.89 Q97.6914,230.3119 97.0977,230.0463 Q96.5039,229.765 95.8789,229.765 Q94.5352,229.765 93.8477,230.8431 Q93.1602,231.9056 93.1602,233.9994 Q93.1602,236.0931 93.8477,237.1713 Q94.5352,238.2338 95.8789,238.2338 Q96.5039,238.2338 97.0977,237.9681 Q97.6914,237.6869 98.3164,237.1088 L98.3164,239.8275 Z " fill="#000000"/><text fill="#000000" font-family="sans-serif" font-size="14" lengthAdjust="spacing" textLength="111.665" x="115.8477" y="239.0336">FII_0180_msg_1</text><line style="stroke:#181818;stroke-width:0.5;" x1="8" x2="302.8604" y1="250.1869" y2="250.1869"/><text fill="#000000" font-family="sans-serif" font-size="14" lengthAdjust="spacing" textLength="162.7227" x="13" y="267.182">Nachricht: PARTIN 1.0e</text><text fill="#000000" font-family="sans-serif" font-size="14" lengthAdjust="spacing" textLength="204.1143" x="13" y="283.4789">Kontext: Nachrichtenstruktur</text><text fill="#000000" font-family="sans-serif" font-size="14" lengthAdjust="spacing" textLength="110.5439" x="13" y="299.7757">Pflichtfeld: Nein</text><text fill="#000000" font-family="sans-serif" font-size="14" lengthAdjust="spacing" textLength="95.3271" x="13" y="316.0726">Codes: 10, FII</text><text fill="#000000" font-family="sans-serif" font-size="14" lengthAdjust="spacing" textLength="229.1064" x="13" y="332.3695">Prozesse: Stammdaten&#228;nderung</text><text fill="#000000" font-family="sans-serif" font-size="14" lengthAdjust="spacing" textLength="284.8604" x="13" y="348.6664">Quelle: PARTIN_MIG_1_0e_20241001.pdf</text><line style="stroke:#181818;stroke-width:0.5;" x1="8" x2="302.8604" y1="355.9681" y2="355.9681"/></g><!--class FII_0180_proc_1--><g class="entity" data-entity="FII_0180_proc_1" data-source-line="16" data-uid="ent0005" id="entity_FII_0180_proc_1"><rect fill="#F1F1F1" height="88.8594" rx="2.5" ry="2.5" style="stroke:#181818;stroke-width:0.5;" width="638.3496" x="339.26" y="246.6469"/><ellipse cx="597.8088" cy="266.7797" fill="#ADD1B2" rx="11" ry="11" style="stroke:#181818;stroke-width:1;"/><path d="M600.7776,272.4203 Q600.1995,272.7172 599.5588,272.8578 Q598.9182,273.0141 598.2151,273.0141 Q595.7151,273.0141 594.387,271.3734 Q593.0745,269.7172 593.0745,266.5922 Q593.0745,263.4672 594.387,261.8109 Q595.7151,260.1547 598.2151,260.1547 Q598.9182,260.1547 599.5588,260.3109 Q600.2151,260.4672 600.7776,260.7641 L600.7776,263.4828 Q600.1526,262.9047 599.5588,262.6391 Q598.9651,262.3578 598.3401,262.3578 Q596.9963,262.3578 596.3088,263.4359 Q595.6213,264.4984 595.6213,266.5922 Q595.6213,268.6859 596.3088,269.7641 Q596.9963,270.8266 598.3401,270.8266 Q598.9651,270.8266 599.5588,270.5609 Q600.1526,270.2797 600.7776,269.7016 L600.7776,272.4203 Z " fill="#000000"/><text fill="#000000" font-family="sans-serif" font-size="12" font-style="italic" lengthAdjust="spacing" textLength="61.0605" x="644.1545" y="262.7855">&#171;process&#187;</text><text fill="#000000" font-family="sans-serif" font-size="14" lengthAdjust="spacing" textLength="112.752" x="618.3088" y="278.6107">FII_0180_proc_1</text><line style="stroke:#181818;stroke-width:0.5;" x1="340.26" x2="976.6096" y1="286.9125" y2="286.9125"/><text fill="#000000" font-family="sans-serif" font-size="14" lengthAdjust="spacing" textLength="158.0127" x="345.26" y="303.9076">Stammdaten&#228;nderung</text><text fill="#000000" font-family="sans-serif" font-size="14" lengthAdjust="spacing" textLength="626.3496" x="345.26" y="320.2045">Zusammenfassung: Wie wird eine Stammdaten&#228;nderung an einer Marktlokation, wie z.B.</text><line style="stroke:#181818;stroke-width:0.5;" x1="340.26" x2="976.6096" y1="327.5063" y2="327.5063"/></g><!--link FII_0180 to FII_0180_msg_1--><g class="link" data-entity-1="FII_0180" data-entity-2="FII_0180_msg_1" data-source-line="15" data-uid="lnk4" id="link_FII_0180_FII_0180_msg_1"><path codeLine="15" d="M345.35,141.5169 C316.04,164.4469 285.0162,188.7105 252.4762,214.1605" fill="none" id="FII_0180-to-FII_0180_msg_1" style="stroke:#181818;stroke-width:1;"/><polygon fill="#181818" points="247.75,217.8569,257.3035,215.4631,251.6885,214.7765,252.375,209.1615,247.75,217.8569" style="stroke:#181818;stroke-width:1;"/><text fill="#000000" font-family="sans-serif" font-size="13" lengthAdjust="spacing" textLength="85.2363" x="304.43" y="184.2538">verwendet in</text></g><!--link FII_0180 to FII_0180_proc_1--><g class="link" data-entity-1="FII_0180" data-entity-2="FII_0180_proc_1" data-source-line="20" data-uid="lnk6" id="link_FII_0180_FII_0180_proc_1"><path codeLine="20" d="M467.75,141.5169 C508.84,173.5269 557.777,211.6593 597.707,242.7693" fill="none" id="FII_0180-to-FII_0180_proc_1" style="stroke:#181818;stroke-width:1;stroke-dasharray:7,7;"/><polygon fill="#181818" points="602.44,246.4569,597.7988,237.7701,598.4958,243.3839,592.882,244.0809,602.44,246.4569" style="stroke:#181818;stroke-width:1;"/><text fill="#000000" font-family="sans-serif" font-size="13" lengthAdjust="spacing" textLength="91.6221" x="526.43" y="184.2538">eingebettet in</text></g><!--SRC=[RP1VQiCm3CRVUmeTe0rssSCm9R1kR8JHqls1mLwC6okjIU8KMrb7nswpc-nYayjMIjStwPFqwIUHemRXnX1wGus9C8BReb12Nef1oNbCgKufV0m0vgP51LFZwpSCI-TjxrSiBqAtmnXHSGniyKIcRMqo_Vxo5aFg-ZpnqsrSQVdhMgw3AzUaO77r-5pCGMO2kN3VUS9tbWyTw2E5lgO-fBLLaxGA6yijw3nhrvt5g42AOTfqp7QM2k2XnwR1lyrwLjnfgGNgiHXVI25ajh4Lmn_UC1hbfpSeu6ziaJq96EBapateIcwQJ5B097c-F_eypMiVMKPViGKh2buSmjO52tmUdXi2u_Ur03CJQcgwsf3h_92d47RPD3k6pxBy7vXAuojS8j6U_mS0]--></g></svg>