<svg xmlns="http://www.w3.org/2000/svg" xmlns:xlink="http://www.w3.org/1999/xlink" contentStyleType="text/css" data-diagram-type="CLASS" height="370px" preserveAspectRatio="none" style="width:1224px;height:370px;background:#FFFFFF;" version="1.1" viewBox="0 0 1224 370" width="1224px" zoomAndPan="magnify"><title>Datenatlas - FTX:00022</title><defs/><g><g class="title" data-source-line="1"><text fill="#000000" font-family="sans-serif" font-size="14" font-weight="bold" lengthAdjust="spacing" textLength="185.7119" x="512.5373" y="22.9951">Datenatlas - FTX:00022</text></g><!--class FTX_00022--><g class="entity" data-entity="FTX_00022" data-source-line="2" data-uid="ent0002" id="entity_FTX_00022"><rect fill="#F1F1F1" height="96.8906" rx="2.5" ry="2.5" style="stroke:#181818;stroke-width:0.5;" width="206.3457" x="426.29" y="44.2969"/><ellipse cx="486.3471" cy="60.2969" fill="#ADD1B2" rx="11" ry="11" style="stroke:#181818;stroke-width:1;"/><path d="M489.3159,65.9375 Q488.7378,66.2344 488.0971,66.375 Q487.4565,66.5313 486.7534,66.5313 Q484.2534,66.5313 482.9253,64.8906 Q481.6128,63.2344 481.6128,60.1094 Q481.6128,56.9844 482.9253,55.3281 Q484.2534,53.6719 486.7534,53.6719 Q487.4565,53.6719 488.0971,53.8281 Q488.7534,53.9844 489.3159,54.2813 L489.3159,57 Q488.6909,56.4219 488.0971,56.1563 Q487.5034,55.875 486.8784,55.875 Q485.5346,55.875 484.8471,56.9531 Q484.1596,58.0156 484.1596,60.1094 Q484.1596,62.2031 484.8471,63.2813 Q485.5346,64.3438 486.8784,64.3438 Q487.5034,64.3438 488.0971,64.0781 Q488.6909,63.7969 489.3159,63.2188 L489.3159,65.9375 Z " fill="#000000"/><text fill="#000000" font-family="sans-serif" font-size="14" lengthAdjust="spacing" textLength="77.7314" x="506.8471" y="65.1436">FTX_00022</text><line style="stroke:#181818;stroke-width:0.5;" x1="427.29" x2="631.6357" y1="76.2969" y2="76.2969"/><text fill="#000000" font-family="sans-serif" font-size="14" lengthAdjust="spacing" textLength="126.54" x="446.29" y="93.292">Name: Freier Text</text><text fill="#000000" font-family="sans-serif" font-size="14" lengthAdjust="spacing" textLength="66.6436" x="446.29" y="109.5889">Prozesse:</text><rect fill="none" height="6" style="stroke:#C82930;stroke-width:1;" width="6" x="434.29" y="119.5391"/><text fill="#000000" font-family="sans-serif" font-size="14" lengthAdjust="spacing" textLength="180.3457" x="446.29" y="125.8857">Netznutzungsabrechnung</text><line style="stroke:#181818;stroke-width:0.5;" x1="427.29" x2="631.6357" y1="133.1875" y2="133.1875"/></g><!--class FTX_00022_msg_1--><g class="entity" data-entity="FTX_00022_msg_1" data-source-line="7" data-uid="ent0003" id="entity_FTX_00022_msg_1"><rect fill="#F1F1F1" height="145.7813" rx="2.5" ry="2.5" style="stroke:#181818;stroke-width:0.5;" width="422.9219" x="7" y="218.1869"/><ellipse cx="148.9824" cy="234.1869" fill="#ADD1B2" rx="11" ry="11" style="stroke:#181818;stroke-width:1;"/><path d="M151.9512,239.8275 Q151.373,240.1244 150.7324,240.265 Q150.0918,240.4213 149.3887,240.4213 Q146.8887,240.4213 145.5605,238.7806 Q144.248,237.1244 144.248,233.9994 Q144.248,230.8744 145.5605,229.2181 Q146.8887,227.5619 149.3887,227.5619 Q150.0918,227.5619 150.7324,227.7181 Q151.3887,227.8744 151.9512,228.1713 L151.9512,230.89 Q151.3262,230.3119 150.7324,230.0463 Q150.1387,229.765 149.5137,229.765 Q148.1699,229.765 147.4824,230.8431 Q146.7949,231.9056 146.7949,233.9994 Q146.7949,236.0931 147.4824,237.1713 Q148.1699,238.2338 149.5137,238.2338 Q150.1387,238.2338 150.7324,237.9681 Q151.3262,237.6869 151.9512,237.1088 L151.9512,239.8275 Z " fill="#000000"/><text fill="#000000" font-family="sans-serif" font-size="14" lengthAdjust="spacing" textLength="130.457" x="169.4824" y="239.0336">FTX_00022_msg_1</text><line style="stroke:#181818;stroke-width:0.5;" x1="8" x2="428.9219" y1="250.1869" y2="250.1869"/><text fill="#000000" font-family="sans-serif" font-size="14" lengthAdjust="spacing" textLength="161.998" x="13" y="267.182">Nachricht: INSRPT 1.1a</text><text fill="#000000" font-family="sans-serif" font-size="14" lengthAdjust="spacing" textLength="398.5898" x="13" y="283.4789">Kontext: 0320   SG8   C   R   999   1   3   NAD - LOC - RFF</text><text fill="#000000" font-family="sans-serif" font-size="14" lengthAdjust="spacing" textLength="110.5439" x="13" y="299.7757">Pflichtfeld: Nein</text><text fill="#000000" font-family="sans-serif" font-size="14" lengthAdjust="spacing" textLength="263.6211" x="13" y="316.0726">Codes: 999, FTX, LOC, NAD, RFF, SG8</text><text fill="#000000" font-family="sans-serif" font-size="14" lengthAdjust="spacing" textLength="251.4395" x="13" y="332.3695">Prozesse: Netznutzungsabrechnung</text><text fill="#000000" font-family="sans-serif" font-size="14" lengthAdjust="spacing" textLength="410.9219" x="13" y="348.6664">Quelle: INSRPT_MIG_1_1a_au&#223;erordentliche_20240726.pdf</text><line style="stroke:#181818;stroke-width:0.5;" x1="8" x2="428.9219" y1="355.9681" y2="355.9681"/></g><!--class FTX_00022_proc_1--><g class="entity" data-entity="FTX_00022_proc_1" data-source-line="16" data-uid="ent0005" id="entity_FTX_00022_proc_1"><rect fill="#F1F1F1" height="105.1563" rx="2.5" ry="2.5" style="stroke:#181818;stroke-width:0.5;" width="752.6465" x="465.14" y="238.4969"/><ellipse cx="771.4413" cy="258.6297" fill="#ADD1B2" rx="11" ry="11" style="stroke:#181818;stroke-width:1;"/><path d="M774.41,264.2703 Q773.8319,264.5672 773.1913,264.7078 Q772.5506,264.8641 771.8475,264.8641 Q769.3475,264.8641 768.0194,263.2234 Q766.7069,261.5672 766.7069,258.4422 Q766.7069,255.3172 768.0194,253.6609 Q769.3475,252.0047 771.8475,252.0047 Q772.5506,252.0047 773.1913,252.1609 Q773.8475,252.3172 774.41,252.6141 L774.41,255.3328 Q773.785,254.7547 773.1913,254.4891 Q772.5975,254.2078 771.9725,254.2078 Q770.6288,254.2078 769.9413,255.2859 Q769.2538,256.3484 769.2538,258.4422 Q769.2538,260.5359 769.9413,261.6141 Q770.6288,262.6766 771.9725,262.6766 Q772.5975,262.6766 773.1913,262.4109 Q773.785,262.1297 774.41,261.5516 L774.41,264.2703 Z " fill="#000000"/><text fill="#000000" font-family="sans-serif" font-size="12" font-style="italic" lengthAdjust="spacing" textLength="61.0605" x="827.183" y="254.6355">&#171;process&#187;</text><text fill="#000000" font-family="sans-serif" font-size="14" lengthAdjust="spacing" textLength="131.5439" x="791.9413" y="270.4607">FTX_00022_proc_1</text><line style="stroke:#181818;stroke-width:0.5;" x1="466.14" x2="1216.7865" y1="278.7625" y2="278.7625"/><text fill="#000000" font-family="sans-serif" font-size="14" lengthAdjust="spacing" textLength="180.3457" x="471.14" y="295.7576">Netznutzungsabrechnung</text><text fill="#000000" font-family="sans-serif" font-size="14" lengthAdjust="spacing" textLength="218.0938" x="471.14" y="312.0545">Gesetze: StromNEV, StromNZV</text><text fill="#000000" font-family="sans-serif" font-size="14" lengthAdjust="spacing" textLength="740.6465" x="471.14" y="328.3514">Zusammenfassung: Wie funktioniert die Netznutzungsabrechnung zwischen Netzbetreiber und Lieferant?</text><line style="stroke:#181818;stroke-width:0.5;" x1="466.14" x2="1216.7865" y1="335.6531" y2="335.6531"/></g><!--link FTX_00022 to FTX_00022_msg_1--><g class="link" data-entity-1="FTX_00022" data-entity-2="FTX_00022_msg_1" data-source-line="15" data-uid="lnk4" id="link_FTX_00022_FTX_00022_msg_1"><path codeLine="15" d="M453.78,141.5169 C417.46,164.4469 378.2438,189.2043 337.9238,214.6543" fill="none" id="FTX_00022-to-FTX_00022_msg_1" style="stroke:#181818;stroke-width:1;"/><polygon fill="#181818" points="332.85,217.8569,342.5958,216.4355,337.0782,215.1881,338.3256,209.6705,332.85,217.8569" style="stroke:#181818;stroke-width:1;"/><text fill="#000000" font-family="sans-serif" font-size="13" lengthAdjust="spacing" textLength="85.2363" x="403.46" y="184.2538">verwendet in</text></g><!--link FTX_00022 to FTX_00022_proc_1--><g class="link" data-entity-1="FTX_00022" data-entity-2="FTX_00022_proc_1" data-source-line="21" data-uid="lnk6" id="link_FTX_00022_FTX_00022_proc_1"><path codeLine="21" d="M605.39,141.5169 C651.83,170.7469 706.192,204.951 753.812,234.921" fill="none" id="FTX_00022-to-FTX_00022_proc_1" style="stroke:#181818;stroke-width:1;stroke-dasharray:7,7;"/><polygon fill="#181818" points="758.89,238.1169,753.4036,229.9377,754.6583,235.4536,749.1424,236.7084,758.89,238.1169" style="stroke:#181818;stroke-width:1;"/><text fill="#000000" font-family="sans-serif" font-size="13" lengthAdjust="spacing" textLength="91.6221" x="677.46" y="184.2538">eingebettet in</text></g><!--SRC=[TLBjJkim3Fs_f_03T5DR4B1e6aA3JGWei4rmnPygQzsjearHuW8Qubbu65xidko2uFBnmvPZnyVdE95IAgP3BMoqLDfHbyRpFoeCmpZkP4WuVqutPthg42MwPaLZooLRclEZ87TXcpKxnmen0I5XMPjMrgrPEhsmdAqCmixpLy2qTiiqUeFDLhRCLgBeE9bDB-OKzIADmabZ15CKXLjn2FJPP0z-19l2-lq-V0JRWYK7XvX-UZw2dux7dbbHUT22gro1LccG6pKvE-LR0qyby0s1xmryK-0dVDRqcngYovQhYjy9fsV7apHA8vtgzlM5RMDpDkB7Sng7yNQu6-_qxl82Q_ZOQBSx_BOEHVTi7zZaB0J2NtTsPviCjmO37u3XSFXlWR-ndB132JHdOfiwEReAtgARArHlMgVhcas18RYlwBfaAbfpAsLZyCH2EH8_WzFweNIGPpRr1Gi-nGA_eZKvdPPSiDL6zl_Js-iDlqjHX8TPCW1a8_al]--></g></svg>