<svg xmlns="http://www.w3.org/2000/svg" xmlns:xlink="http://www.w3.org/1999/xlink" contentStyleType="text/css" data-diagram-type="CLASS" height="403px" preserveAspectRatio="none" style="width:4129px;height:403px;background:#FFFFFF;" version="1.1" viewBox="0 0 4129 403" width="4129px" zoomAndPan="magnify"><title>Datenatlas - FTX:00014</title><defs/><g><g class="title" data-source-line="1"><text fill="#000000" font-family="sans-serif" font-size="14" font-weight="bold" lengthAdjust="spacing" textLength="185.7119" x="1965.0487" y="22.9951">Datenatlas - FTX:00014</text></g><!--class FTX_00014--><g class="entity" data-entity="FTX_00014" data-source-line="2" data-uid="ent0002" id="entity_FTX_00014"><rect fill="#F1F1F1" height="129.4844" rx="2.5" ry="2.5" style="stroke:#181818;stroke-width:0.5;" width="459.0498" x="1291.29" y="44.2969"/><ellipse cx="1477.6992" cy="60.2969" fill="#ADD1B2" rx="11" ry="11" style="stroke:#181818;stroke-width:1;"/><path d="M1480.6679,65.9375 Q1480.0898,66.2344 1479.4492,66.375 Q1478.8086,66.5313 1478.1054,66.5313 Q1475.6054,66.5313 1474.2773,64.8906 Q1472.9648,63.2344 1472.9648,60.1094 Q1472.9648,56.9844 1474.2773,55.3281 Q1475.6054,53.6719 1478.1054,53.6719 Q1478.8086,53.6719 1479.4492,53.8281 Q1480.1054,53.9844 1480.6679,54.2813 L1480.6679,57 Q1480.0429,56.4219 1479.4492,56.1563 Q1478.8554,55.875 1478.2304,55.875 Q1476.8867,55.875 1476.1992,56.9531 Q1475.5117,58.0156 1475.5117,60.1094 Q1475.5117,62.2031 1476.1992,63.2813 Q1476.8867,64.3438 1478.2304,64.3438 Q1478.8554,64.3438 1479.4492,64.0781 Q1480.0429,63.7969 1480.6679,63.2188 L1480.6679,65.9375 Z " fill="#000000"/><text fill="#000000" font-family="sans-serif" font-size="14" lengthAdjust="spacing" textLength="77.7314" x="1498.1992" y="65.1436">FTX_00014</text><line style="stroke:#181818;stroke-width:0.5;" x1="1292.29" x2="1749.3398" y1="76.2969" y2="76.2969"/><text fill="#000000" font-family="sans-serif" font-size="14" lengthAdjust="spacing" textLength="66.6436" x="1311.29" y="93.292">Prozesse:</text><rect fill="none" height="6" style="stroke:#C82930;stroke-width:1;" width="6" x="1299.29" y="103.2422"/><text fill="#000000" font-family="sans-serif" font-size="14" lengthAdjust="spacing" textLength="180.3457" x="1311.29" y="109.5889">Netznutzungsabrechnung</text><rect fill="none" height="6" style="stroke:#C82930;stroke-width:1;" width="6" x="1299.29" y="119.5391"/><text fill="#000000" font-family="sans-serif" font-size="14" lengthAdjust="spacing" textLength="317.9668" x="1311.29" y="125.8857">Sperrung und Entsperrung eines Anschlusses</text><line style="stroke:#181818;stroke-width:0.5;" x1="1292.29" x2="1749.3398" y1="133.1875" y2="133.1875"/><text fill="#000000" font-family="sans-serif" font-size="14" lengthAdjust="spacing" textLength="433.0498" x="1311.29" y="150.1826">Name: Allgemeine Information (Feld f&#252;r allgemeine Hinweise)</text><rect fill="#F24D5C" height="6" style="stroke:#C82930;stroke-width:1;" width="6" x="1299.29" y="160.1328"/><text fill="#000000" font-family="sans-serif" font-size="14" lengthAdjust="spacing" textLength="348.2021" x="1311.29" y="166.4795">Bestellung einer technischen Konfiguration (MSB)</text></g><!--class FTX_00014_msg_1--><g class="entity" data-entity="FTX_00014_msg_1" data-source-line="9" data-uid="ent0003" id="entity_FTX_00014_msg_1"><rect fill="#F1F1F1" height="145.7813" rx="2.5" ry="2.5" style="stroke:#181818;stroke-width:0.5;" width="309.6299" x="7" y="250.7869"/><ellipse cx="92.3364" cy="266.7869" fill="#ADD1B2" rx="11" ry="11" style="stroke:#181818;stroke-width:1;"/><path d="M95.3052,272.4275 Q94.7271,272.7244 94.0864,272.865 Q93.4458,273.0213 92.7427,273.0213 Q90.2427,273.0213 88.9146,271.3806 Q87.6021,269.7244 87.6021,266.5994 Q87.6021,263.4744 88.9146,261.8181 Q90.2427,260.1619 92.7427,260.1619 Q93.4458,260.1619 94.0864,260.3181 Q94.7427,260.4744 95.3052,260.7713 L95.3052,263.49 Q94.6802,262.9119 94.0864,262.6463 Q93.4927,262.365 92.8677,262.365 Q91.5239,262.365 90.8364,263.4431 Q90.1489,264.5056 90.1489,266.5994 Q90.1489,268.6931 90.8364,269.7713 Q91.5239,270.8338 92.8677,270.8338 Q93.4927,270.8338 94.0864,270.5681 Q94.6802,270.2869 95.3052,269.7088 L95.3052,272.4275 Z " fill="#000000"/><text fill="#000000" font-family="sans-serif" font-size="14" lengthAdjust="spacing" textLength="130.457" x="112.8364" y="271.6336">FTX_00014_msg_1</text><line style="stroke:#181818;stroke-width:0.5;" x1="8" x2="315.6299" y1="282.7869" y2="282.7869"/><text fill="#000000" font-family="sans-serif" font-size="14" lengthAdjust="spacing" textLength="172.9424" x="13" y="299.782">Nachricht: COMDIS 1.0e.</text><text fill="#000000" font-family="sans-serif" font-size="14" lengthAdjust="spacing" textLength="204.1143" x="13" y="316.0789">Kontext: Nachrichtenstruktur</text><text fill="#000000" font-family="sans-serif" font-size="14" lengthAdjust="spacing" textLength="110.5439" x="13" y="332.3757">Pflichtfeld: Nein</text><text fill="#000000" font-family="sans-serif" font-size="14" lengthAdjust="spacing" textLength="105.2119" x="13" y="348.6726">Codes: 70, FTX</text><text fill="#000000" font-family="sans-serif" font-size="14" lengthAdjust="spacing" textLength="251.4395" x="13" y="364.9695">Prozesse: Netznutzungsabrechnung</text><text fill="#000000" font-family="sans-serif" font-size="14" lengthAdjust="spacing" textLength="297.6299" x="13" y="381.2664">Quelle: COMDIS_MIG_1_0e__20240619.pdf</text><line style="stroke:#181818;stroke-width:0.5;" x1="8" x2="315.6299" y1="388.5681" y2="388.5681"/></g><!--class FTX_00014_msg_2--><g class="entity" data-entity="FTX_00014_msg_2" data-source-line="18" data-uid="ent0005" id="entity_FTX_00014_msg_2"><rect fill="#F1F1F1" height="145.7813" rx="2.5" ry="2.5" style="stroke:#181818;stroke-width:0.5;" width="758.1631" x="351.73" y="250.7869"/><ellipse cx="661.333" cy="266.7869" fill="#ADD1B2" rx="11" ry="11" style="stroke:#181818;stroke-width:1;"/><path d="M664.3018,272.4275 Q663.7237,272.7244 663.083,272.865 Q662.4424,273.0213 661.7393,273.0213 Q659.2393,273.0213 657.9112,271.3806 Q656.5987,269.7244 656.5987,266.5994 Q656.5987,263.4744 657.9112,261.8181 Q659.2393,260.1619 661.7393,260.1619 Q662.4424,260.1619 663.083,260.3181 Q663.7393,260.4744 664.3018,260.7713 L664.3018,263.49 Q663.6768,262.9119 663.083,262.6463 Q662.4893,262.365 661.8643,262.365 Q660.5205,262.365 659.833,263.4431 Q659.1455,264.5056 659.1455,266.5994 Q659.1455,268.6931 659.833,269.7713 Q660.5205,270.8338 661.8643,270.8338 Q662.4893,270.8338 663.083,270.5681 Q663.6768,270.2869 664.3018,269.7088 L664.3018,272.4275 Z " fill="#000000"/><text fill="#000000" font-family="sans-serif" font-size="14" lengthAdjust="spacing" textLength="130.457" x="681.833" y="271.6336">FTX_00014_msg_2</text><line style="stroke:#181818;stroke-width:0.5;" x1="352.73" x2="1108.8931" y1="282.7869" y2="282.7869"/><text fill="#000000" font-family="sans-serif" font-size="14" lengthAdjust="spacing" textLength="161.793" x="357.73" y="299.782">Nachricht: ORDRSP 1.4</text><text fill="#000000" font-family="sans-serif" font-size="14" lengthAdjust="spacing" textLength="204.1143" x="357.73" y="316.0789">Kontext: Nachrichtenstruktur</text><text fill="#000000" font-family="sans-serif" font-size="14" lengthAdjust="spacing" textLength="110.5439" x="357.73" y="332.3757">Pflichtfeld: Nein</text><text fill="#000000" font-family="sans-serif" font-size="14" lengthAdjust="spacing" textLength="195.9863" x="357.73" y="348.6726">Codes: 99, FTX, ID, MP, SG3</text><text fill="#000000" font-family="sans-serif" font-size="14" lengthAdjust="spacing" textLength="283.9307" x="357.73" y="364.9695">Quelle: ORDRSP_MIG_1_4_20240619.pdf</text><line style="stroke:#181818;stroke-width:0.5;" x1="352.73" x2="1108.8931" y1="372.2713" y2="372.2713"/><text fill="#000000" font-family="sans-serif" font-size="14" lengthAdjust="spacing" textLength="746.1631" x="357.73" y="389.2664">Prozesse: Bestellung einer technischen Konfiguration (MSB), Sperrung und Entsperrung eines Anschlusses</text></g><!--class FTX_00014_proc_1--><g class="entity" data-entity="FTX_00014_proc_1" data-source-line="27" data-uid="ent0007" id="entity_FTX_00014_proc_1"><rect fill="#F1F1F1" height="105.1563" rx="2.5" ry="2.5" style="stroke:#181818;stroke-width:0.5;" width="752.6465" x="1144.49" y="271.0969"/><ellipse cx="1450.7913" cy="291.2297" fill="#ADD1B2" rx="11" ry="11" style="stroke:#181818;stroke-width:1;"/><path d="M1453.76,296.8703 Q1453.1819,297.1672 1452.5413,297.3078 Q1451.9006,297.4641 1451.1975,297.4641 Q1448.6975,297.4641 1447.3694,295.8234 Q1446.0569,294.1672 1446.0569,291.0422 Q1446.0569,287.9172 1447.3694,286.2609 Q1448.6975,284.6047 1451.1975,284.6047 Q1451.9006,284.6047 1452.5413,284.7609 Q1453.1975,284.9172 1453.76,285.2141 L1453.76,287.9328 Q1453.135,287.3547 1452.5413,287.0891 Q1451.9475,286.8078 1451.3225,286.8078 Q1449.9788,286.8078 1449.2913,287.8859 Q1448.6038,288.9484 1448.6038,291.0422 Q1448.6038,293.1359 1449.2913,294.2141 Q1449.9788,295.2766 1451.3225,295.2766 Q1451.9475,295.2766 1452.5413,295.0109 Q1453.135,294.7297 1453.76,294.1516 L1453.76,296.8703 Z " fill="#000000"/><text fill="#000000" font-family="sans-serif" font-size="12" font-style="italic" lengthAdjust="spacing" textLength="61.0605" x="1506.533" y="287.2355">&#171;process&#187;</text><text fill="#000000" font-family="sans-serif" font-size="14" lengthAdjust="spacing" textLength="131.5439" x="1471.2913" y="303.0607">FTX_00014_proc_1</text><line style="stroke:#181818;stroke-width:0.5;" x1="1145.49" x2="1896.1365" y1="311.3625" y2="311.3625"/><text fill="#000000" font-family="sans-serif" font-size="14" lengthAdjust="spacing" textLength="180.3457" x="1150.49" y="328.3576">Netznutzungsabrechnung</text><text fill="#000000" font-family="sans-serif" font-size="14" lengthAdjust="spacing" textLength="218.0938" x="1150.49" y="344.6545">Gesetze: StromNEV, StromNZV</text><text fill="#000000" font-family="sans-serif" font-size="14" lengthAdjust="spacing" textLength="740.6465" x="1150.49" y="360.9514">Zusammenfassung: Wie funktioniert die Netznutzungsabrechnung zwischen Netzbetreiber und Lieferant?</text><line style="stroke:#181818;stroke-width:0.5;" x1="1145.49" x2="1896.1365" y1="368.2531" y2="368.2531"/></g><!--class FTX_00014_proc_2--><g class="entity" data-entity="FTX_00014_proc_2" data-source-line="33" data-uid="ent0009" id="entity_FTX_00014_proc_2"><rect fill="#F1F1F1" height="105.1563" rx="2.5" ry="2.5" style="stroke:#181818;stroke-width:0.5;" width="1301.9961" x="1931.82" y="271.0969"/><ellipse cx="2512.7961" cy="291.2297" fill="#ADD1B2" rx="11" ry="11" style="stroke:#181818;stroke-width:1;"/><path d="M2515.7648,296.8703 Q2515.1867,297.1672 2514.5461,297.3078 Q2513.9054,297.4641 2513.2023,297.4641 Q2510.7023,297.4641 2509.3742,295.8234 Q2508.0617,294.1672 2508.0617,291.0422 Q2508.0617,287.9172 2509.3742,286.2609 Q2510.7023,284.6047 2513.2023,284.6047 Q2513.9054,284.6047 2514.5461,284.7609 Q2515.2023,284.9172 2515.7648,285.2141 L2515.7648,287.9328 Q2515.1398,287.3547 2514.5461,287.0891 Q2513.9523,286.8078 2513.3273,286.8078 Q2511.9836,286.8078 2511.2961,287.8859 Q2510.6086,288.9484 2510.6086,291.0422 Q2510.6086,293.1359 2511.2961,294.2141 Q2511.9836,295.2766 2513.3273,295.2766 Q2513.9523,295.2766 2514.5461,295.0109 Q2515.1398,294.7297 2515.7648,294.1516 L2515.7648,296.8703 Z " fill="#000000"/><text fill="#000000" font-family="sans-serif" font-size="12" font-style="italic" lengthAdjust="spacing" textLength="61.0605" x="2568.5378" y="287.2355">&#171;process&#187;</text><text fill="#000000" font-family="sans-serif" font-size="14" lengthAdjust="spacing" textLength="131.5439" x="2533.2961" y="303.0607">FTX_00014_proc_2</text><line style="stroke:#181818;stroke-width:0.5;" x1="1932.82" x2="3232.8161" y1="311.3625" y2="311.3625"/><text fill="#000000" font-family="sans-serif" font-size="14" lengthAdjust="spacing" textLength="156.4063" x="1937.82" y="328.3576">Gesetze: MsbG, EnWG</text><text fill="#000000" font-family="sans-serif" font-size="14" lengthAdjust="spacing" textLength="1289.9961" x="1937.82" y="344.6545">Zusammenfassung: Erl&#228;utere den Prozess zur Bestellung einer spezifischen technischen Konfiguration bei einem Messstellenbetreiber, beispielsweise f&#252;r ein intelligentes Messsystem.</text><line style="stroke:#181818;stroke-width:0.5;" x1="1932.82" x2="3232.8161" y1="351.9562" y2="351.9562"/><text fill="#000000" font-family="sans-serif" font-size="14" lengthAdjust="spacing" textLength="348.2021" x="1937.82" y="368.9514">Bestellung einer technischen Konfiguration (MSB)</text></g><!--class FTX_00014_proc_3--><g class="entity" data-entity="FTX_00014_proc_3" data-source-line="39" data-uid="ent0011" id="entity_FTX_00014_proc_3"><rect fill="#F1F1F1" height="105.1563" rx="2.5" ry="2.5" style="stroke:#181818;stroke-width:0.5;" width="853.9893" x="3268.82" y="271.0969"/><ellipse cx="3625.7927" cy="291.2297" fill="#ADD1B2" rx="11" ry="11" style="stroke:#181818;stroke-width:1;"/><path d="M3628.7614,296.8703 Q3628.1833,297.1672 3627.5427,297.3078 Q3626.902,297.4641 3626.1989,297.4641 Q3623.6989,297.4641 3622.3708,295.8234 Q3621.0583,294.1672 3621.0583,291.0422 Q3621.0583,287.9172 3622.3708,286.2609 Q3623.6989,284.6047 3626.1989,284.6047 Q3626.902,284.6047 3627.5427,284.7609 Q3628.1989,284.9172 3628.7614,285.2141 L3628.7614,287.9328 Q3628.1364,287.3547 3627.5427,287.0891 Q3626.9489,286.8078 3626.3239,286.8078 Q3624.9802,286.8078 3624.2927,287.8859 Q3623.6052,288.9484 3623.6052,291.0422 Q3623.6052,293.1359 3624.2927,294.2141 Q3624.9802,295.2766 3626.3239,295.2766 Q3626.9489,295.2766 3627.5427,295.0109 Q3628.1364,294.7297 3628.7614,294.1516 L3628.7614,296.8703 Z " fill="#000000"/><text fill="#000000" font-family="sans-serif" font-size="12" font-style="italic" lengthAdjust="spacing" textLength="61.0605" x="3681.5344" y="287.2355">&#171;process&#187;</text><text fill="#000000" font-family="sans-serif" font-size="14" lengthAdjust="spacing" textLength="131.5439" x="3646.2927" y="303.0607">FTX_00014_proc_3</text><line style="stroke:#181818;stroke-width:0.5;" x1="3269.82" x2="4121.8093" y1="311.3625" y2="311.3625"/><text fill="#000000" font-family="sans-serif" font-size="14" lengthAdjust="spacing" textLength="317.9668" x="3274.82" y="328.3576">Sperrung und Entsperrung eines Anschlusses</text><text fill="#000000" font-family="sans-serif" font-size="14" lengthAdjust="spacing" textLength="138.3252" x="3274.82" y="344.6545">Gesetze: StromGVV</text><text fill="#000000" font-family="sans-serif" font-size="14" lengthAdjust="spacing" textLength="841.9893" x="3274.82" y="360.9514">Zusammenfassung: Beschreibe den End-to-End-Prozess f&#252;r die Sperrung und Wiederherstellung eines Netzanschlusses.</text><line style="stroke:#181818;stroke-width:0.5;" x1="3269.82" x2="4121.8093" y1="368.2531" y2="368.2531"/></g><!--link FTX_00014 to FTX_00014_msg_1--><g class="link" data-entity-1="FTX_00014" data-entity-2="FTX_00014_msg_1" data-source-line="17" data-uid="lnk4" id="link_FTX_00014_FTX_00014_msg_1"><path codeLine="17" d="M1290.86,118.4169 C1049.13,131.5769 659.46,165.2169 333.81,250.7869 C328.18,252.2669 328.2303,252.1507 322.5103,253.8907" fill="none" id="FTX_00014-to-FTX_00014_msg_1" style="stroke:#181818;stroke-width:1;"/><polygon fill="#181818" points="316.77,255.6369,326.5445,256.8445,321.5536,254.1817,324.2163,249.1908,316.77,255.6369" style="stroke:#181818;stroke-width:1;"/><text fill="#000000" font-family="sans-serif" font-size="13" lengthAdjust="spacing" textLength="85.2363" x="525.81" y="216.8538">verwendet in</text></g><!--link FTX_00014 to FTX_00014_msg_2--><g class="link" data-entity-1="FTX_00014" data-entity-2="FTX_00014_msg_2" data-source-line="26" data-uid="lnk6" id="link_FTX_00014_FTX_00014_msg_2"><path codeLine="26" d="M1290.99,171.9069 C1199.77,196.4569 1100.0039,223.3077 1005.2839,248.7977" fill="none" id="FTX_00014-to-FTX_00014_msg_2" style="stroke:#181818;stroke-width:1;"/><polygon fill="#181818" points="999.49,250.3569,1009.2203,251.8807,1004.3182,249.0576,1007.1414,244.1555,999.49,250.3569" style="stroke:#181818;stroke-width:1;"/><text fill="#000000" font-family="sans-serif" font-size="13" lengthAdjust="spacing" textLength="85.2363" x="1150.81" y="216.8538">verwendet in</text></g><!--link FTX_00014 to FTX_00014_proc_1--><g class="link" data-entity-1="FTX_00014" data-entity-2="FTX_00014_proc_1" data-source-line="32" data-uid="lnk8" id="link_FTX_00014_FTX_00014_proc_1"><path codeLine="32" d="M1520.81,174.1269 C1520.81,205.0669 1520.81,235.6969 1520.81,264.8469" fill="none" id="FTX_00014-to-FTX_00014_proc_1" style="stroke:#181818;stroke-width:1;stroke-dasharray:7,7;"/><polygon fill="#181818" points="1520.81,270.8469,1524.81,261.8469,1520.81,265.8469,1516.81,261.8469,1520.81,270.8469" style="stroke:#181818;stroke-width:1;"/><text fill="#000000" font-family="sans-serif" font-size="13" lengthAdjust="spacing" textLength="91.6221" x="1521.81" y="216.8538">eingebettet in</text></g><!--link FTX_00014 to FTX_00014_proc_2--><g class="link" data-entity-1="FTX_00014" data-entity-2="FTX_00014_proc_2" data-source-line="38" data-uid="lnk10" id="link_FTX_00014_FTX_00014_proc_2"><path codeLine="38" d="M1750.6,156.0469 C1919.09,189.7869 2142.1468,234.449 2317.2568,269.509" fill="none" id="FTX_00014-to-FTX_00014_proc_2" style="stroke:#181818;stroke-width:1;stroke-dasharray:7,7;"/><polygon fill="#181818" points="2323.14,270.6869,2315.1004,264.9978,2318.2373,269.7053,2313.5299,272.8421,2323.14,270.6869" style="stroke:#181818;stroke-width:1;"/><text fill="#000000" font-family="sans-serif" font-size="13" lengthAdjust="spacing" textLength="91.6221" x="2052.81" y="216.8538">eingebettet in</text></g><!--link FTX_00014 to FTX_00014_proc_3--><g class="link" data-entity-1="FTX_00014" data-entity-2="FTX_00014_proc_3" data-source-line="44" data-uid="lnk12" id="link_FTX_00014_FTX_00014_proc_3"><path codeLine="44" d="M1750.52,122.9369 C2082.44,142.8869 2715.15,185.8269 3250.81,250.7869 C3297.23,256.4169 3340.2985,262.4328 3388.1285,269.7228" fill="none" id="FTX_00014-to-FTX_00014_proc_3" style="stroke:#181818;stroke-width:1;stroke-dasharray:7,7;"/><polygon fill="#181818" points="3394.06,270.6269,3385.7654,265.3165,3389.1171,269.8735,3384.5601,273.2251,3394.06,270.6269" style="stroke:#181818;stroke-width:1;"/><text fill="#000000" font-family="sans-serif" font-size="13" lengthAdjust="spacing" textLength="91.6221" x="2969.81" y="216.8538">eingebettet in</text></g><!--SRC=[fPJTRjem5CVl-nJdSfK22W5j8ggOsa8pj45PCz6fDr58JeBLn46sCxfCUviznkxwOZiE0KO3OsnNiS-d_p-VM36L8FHzXTnNYI-X0JUVFjkcQROwPm4PfDvxvHw-dG6C_HHjk4oI65Da7678eqoalc8PXrStc8GGFVyKu6yZtZ6-H2RndD8d8YjGIhHf3THiZAhWkIfo7aj_9Z2OSrfMpYkK2fE43A0B2L3QpsGmHmxlCnwnE1TLvv5xTLwbkGiKGYVbF8G1LtAzrqKaN78gaEHq27ds_QL6BvMnrwgK1dF1WhcouVfsr1-wq6gQs2GFjLRuHFPD27AfHFweSg4rHecsHSI2GgWfsQwp4AKDRqn3z_eTn6447tCIZ-lktcZeU2tFHC-pJAjZlcvrcuim8WdR2seqUZKfDdn1iKGUeW8woZwzrakzjtVzEtT2UZl_fRRRBTKQCEmRC9eOu3hj7UcdNh1nojrk0QxaL00xf-2pZk5RY2mWo1SNUa6YUhqLoqDtwg0a5vt9LI9BnuEfKQqUfkHzoAMVfiWZQaBnDjmpX2ZdZne1Gw4W9CF-ub0iAt3QFqCbaCq8gGRrWM64mkVgxOxUPhDNbs9hb35I0VK7oLPDyZ_yh1iO8pbp3BhEUsSVX858dd_a2WL2IBMgyO4Y5_McD0y5YwgkXqymGrOcf32YKcKDv1jcXlRB1SD4bW_NwaMZUCAXGrcCz9MhtA-KdJQFSRN-ackxnlMaYTyTBsUwTwW86lt8Mcd9Sy33XieQ-hD6M-hLexRJd8OnH357iSDSblFcRuznb4Mxnk8N]--></g></svg>