<svg xmlns="http://www.w3.org/2000/svg" xmlns:xlink="http://www.w3.org/1999/xlink" contentStyleType="text/css" data-diagram-type="CLASS" height="370px" preserveAspectRatio="none" style="width:1111px;height:370px;background:#FFFFFF;" version="1.1" viewBox="0 0 1111 370" width="1111px" zoomAndPan="magnify"><title>Datenatlas - FTX:00013</title><defs/><g><g class="title" data-source-line="1"><text fill="#000000" font-family="sans-serif" font-size="14" font-weight="bold" lengthAdjust="spacing" textLength="185.7119" x="455.7123" y="22.9951">Datenatlas - FTX:00013</text></g><!--class FTX_00013--><g class="entity" data-entity="FTX_00013" data-source-line="2" data-uid="ent0002" id="entity_FTX_00013"><rect fill="#F1F1F1" height="96.8906" rx="2.5" ry="2.5" style="stroke:#181818;stroke-width:0.5;" width="206.3457" x="341.64" y="44.2969"/><ellipse cx="401.6971" cy="60.2969" fill="#ADD1B2" rx="11" ry="11" style="stroke:#181818;stroke-width:1;"/><path d="M404.6659,65.9375 Q404.0878,66.2344 403.4471,66.375 Q402.8065,66.5313 402.1034,66.5313 Q399.6034,66.5313 398.2753,64.8906 Q396.9628,63.2344 396.9628,60.1094 Q396.9628,56.9844 398.2753,55.3281 Q399.6034,53.6719 402.1034,53.6719 Q402.8065,53.6719 403.4471,53.8281 Q404.1034,53.9844 404.6659,54.2813 L404.6659,57 Q404.0409,56.4219 403.4471,56.1563 Q402.8534,55.875 402.2284,55.875 Q400.8846,55.875 400.1971,56.9531 Q399.5096,58.0156 399.5096,60.1094 Q399.5096,62.2031 400.1971,63.2813 Q400.8846,64.3438 402.2284,64.3438 Q402.8534,64.3438 403.4471,64.0781 Q404.0409,63.7969 404.6659,63.2188 L404.6659,65.9375 Z " fill="#000000"/><text fill="#000000" font-family="sans-serif" font-size="14" lengthAdjust="spacing" textLength="77.7314" x="422.1971" y="65.1436">FTX_00013</text><line style="stroke:#181818;stroke-width:0.5;" x1="342.64" x2="546.9857" y1="76.2969" y2="76.2969"/><text fill="#000000" font-family="sans-serif" font-size="14" lengthAdjust="spacing" textLength="136.5957" x="361.64" y="93.292">Name: Begr&#252;ndung</text><text fill="#000000" font-family="sans-serif" font-size="14" lengthAdjust="spacing" textLength="66.6436" x="361.64" y="109.5889">Prozesse:</text><rect fill="none" height="6" style="stroke:#C82930;stroke-width:1;" width="6" x="349.64" y="119.5391"/><text fill="#000000" font-family="sans-serif" font-size="14" lengthAdjust="spacing" textLength="180.3457" x="361.64" y="125.8857">Netznutzungsabrechnung</text><line style="stroke:#181818;stroke-width:0.5;" x1="342.64" x2="546.9857" y1="133.1875" y2="133.1875"/></g><!--class FTX_00013_msg_1--><g class="entity" data-entity="FTX_00013_msg_1" data-source-line="7" data-uid="ent0003" id="entity_FTX_00013_msg_1"><rect fill="#F1F1F1" height="145.7813" rx="2.5" ry="2.5" style="stroke:#181818;stroke-width:0.5;" width="309.6299" x="7" y="218.1869"/><ellipse cx="92.3364" cy="234.1869" fill="#ADD1B2" rx="11" ry="11" style="stroke:#181818;stroke-width:1;"/><path d="M95.3052,239.8275 Q94.7271,240.1244 94.0864,240.265 Q93.4458,240.4213 92.7427,240.4213 Q90.2427,240.4213 88.9146,238.7806 Q87.6021,237.1244 87.6021,233.9994 Q87.6021,230.8744 88.9146,229.2181 Q90.2427,227.5619 92.7427,227.5619 Q93.4458,227.5619 94.0864,227.7181 Q94.7427,227.8744 95.3052,228.1713 L95.3052,230.89 Q94.6802,230.3119 94.0864,230.0463 Q93.4927,229.765 92.8677,229.765 Q91.5239,229.765 90.8364,230.8431 Q90.1489,231.9056 90.1489,233.9994 Q90.1489,236.0931 90.8364,237.1713 Q91.5239,238.2338 92.8677,238.2338 Q93.4927,238.2338 94.0864,237.9681 Q94.6802,237.6869 95.3052,237.1088 L95.3052,239.8275 Z " fill="#000000"/><text fill="#000000" font-family="sans-serif" font-size="14" lengthAdjust="spacing" textLength="130.457" x="112.8364" y="239.0336">FTX_00013_msg_1</text><line style="stroke:#181818;stroke-width:0.5;" x1="8" x2="315.6299" y1="250.1869" y2="250.1869"/><text fill="#000000" font-family="sans-serif" font-size="14" lengthAdjust="spacing" textLength="172.9424" x="13" y="267.182">Nachricht: COMDIS 1.0e.</text><text fill="#000000" font-family="sans-serif" font-size="14" lengthAdjust="spacing" textLength="204.1143" x="13" y="283.4789">Kontext: Nachrichtenstruktur</text><text fill="#000000" font-family="sans-serif" font-size="14" lengthAdjust="spacing" textLength="110.5439" x="13" y="299.7757">Pflichtfeld: Nein</text><text fill="#000000" font-family="sans-serif" font-size="14" lengthAdjust="spacing" textLength="78.4971" x="13" y="316.0726">Codes: FTX</text><text fill="#000000" font-family="sans-serif" font-size="14" lengthAdjust="spacing" textLength="251.4395" x="13" y="332.3695">Prozesse: Netznutzungsabrechnung</text><text fill="#000000" font-family="sans-serif" font-size="14" lengthAdjust="spacing" textLength="297.6299" x="13" y="348.6664">Quelle: COMDIS_MIG_1_0e__20240619.pdf</text><line style="stroke:#181818;stroke-width:0.5;" x1="8" x2="315.6299" y1="355.9681" y2="355.9681"/></g><!--class FTX_00013_proc_1--><g class="entity" data-entity="FTX_00013_proc_1" data-source-line="16" data-uid="ent0005" id="entity_FTX_00013_proc_1"><rect fill="#F1F1F1" height="105.1563" rx="2.5" ry="2.5" style="stroke:#181818;stroke-width:0.5;" width="752.6465" x="351.49" y="238.4969"/><ellipse cx="657.7913" cy="258.6297" fill="#ADD1B2" rx="11" ry="11" style="stroke:#181818;stroke-width:1;"/><path d="M660.76,264.2703 Q660.1819,264.5672 659.5413,264.7078 Q658.9006,264.8641 658.1975,264.8641 Q655.6975,264.8641 654.3694,263.2234 Q653.0569,261.5672 653.0569,258.4422 Q653.0569,255.3172 654.3694,253.6609 Q655.6975,252.0047 658.1975,252.0047 Q658.9006,252.0047 659.5413,252.1609 Q660.1975,252.3172 660.76,252.6141 L660.76,255.3328 Q660.135,254.7547 659.5413,254.4891 Q658.9475,254.2078 658.3225,254.2078 Q656.9788,254.2078 656.2913,255.2859 Q655.6038,256.3484 655.6038,258.4422 Q655.6038,260.5359 656.2913,261.6141 Q656.9788,262.6766 658.3225,262.6766 Q658.9475,262.6766 659.5413,262.4109 Q660.135,262.1297 660.76,261.5516 L660.76,264.2703 Z " fill="#000000"/><text fill="#000000" font-family="sans-serif" font-size="12" font-style="italic" lengthAdjust="spacing" textLength="61.0605" x="713.533" y="254.6355">&#171;process&#187;</text><text fill="#000000" font-family="sans-serif" font-size="14" lengthAdjust="spacing" textLength="131.5439" x="678.2913" y="270.4607">FTX_00013_proc_1</text><line style="stroke:#181818;stroke-width:0.5;" x1="352.49" x2="1103.1365" y1="278.7625" y2="278.7625"/><text fill="#000000" font-family="sans-serif" font-size="14" lengthAdjust="spacing" textLength="180.3457" x="357.49" y="295.7576">Netznutzungsabrechnung</text><text fill="#000000" font-family="sans-serif" font-size="14" lengthAdjust="spacing" textLength="218.0938" x="357.49" y="312.0545">Gesetze: StromNEV, StromNZV</text><text fill="#000000" font-family="sans-serif" font-size="14" lengthAdjust="spacing" textLength="740.6465" x="357.49" y="328.3514">Zusammenfassung: Wie funktioniert die Netznutzungsabrechnung zwischen Netzbetreiber und Lieferant?</text><line style="stroke:#181818;stroke-width:0.5;" x1="352.49" x2="1103.1365" y1="335.6531" y2="335.6531"/></g><!--link FTX_00013 to FTX_00013_msg_1--><g class="link" data-entity-1="FTX_00013" data-entity-2="FTX_00013_msg_1" data-source-line="15" data-uid="lnk4" id="link_FTX_00013_FTX_00013_msg_1"><path codeLine="15" d="M375.95,141.5169 C342.9,164.4469 307.5301,188.9871 270.8401,214.4371" fill="none" id="FTX_00013-to-FTX_00013_msg_1" style="stroke:#181818;stroke-width:1;"/><polygon fill="#181818" points="265.91,217.8569,275.5849,216.014,270.0184,215.0071,271.0253,209.4406,265.91,217.8569" style="stroke:#181818;stroke-width:1;"/><text fill="#000000" font-family="sans-serif" font-size="13" lengthAdjust="spacing" textLength="85.2363" x="329.81" y="184.2538">verwendet in</text></g><!--link FTX_00013 to FTX_00013_proc_1--><g class="link" data-entity-1="FTX_00013" data-entity-2="FTX_00013_proc_1" data-source-line="21" data-uid="lnk6" id="link_FTX_00013_FTX_00013_proc_1"><path codeLine="21" d="M513.68,141.5169 C555.81,170.7469 604.8005,204.7263 647.9905,234.6963" fill="none" id="FTX_00013-to-FTX_00013_proc_1" style="stroke:#181818;stroke-width:1;stroke-dasharray:7,7;"/><polygon fill="#181818" points="652.92,238.1169,647.8062,229.6997,648.8121,235.2664,643.2454,236.2723,652.92,238.1169" style="stroke:#181818;stroke-width:1;"/><text fill="#000000" font-family="sans-serif" font-size="13" lengthAdjust="spacing" textLength="91.6221" x="579.81" y="184.2538">eingebettet in</text></g><!--SRC=[TL1TJy9047pdL-mFaAP5O-A5r4HGGXJKOD3mSYdjjhtGNidTdfWQ_vbl_36tY5yWRxipazcP9KK5GZyYr14LaOKsN3qy2T_tW-DMp81jThdPuRK5C8vA5721cLc_wyJfZB4xKzLeBGgUWHt6IBLsL3Dhexd1EDUDy6tNK9Osay7MDiwDYdCIqBiTzOSJ23mVFMQkAqtumlYt1BKbunRaJ7CxBHeinI9X2IhDMAzAq8hcpkzmXs81t3ii2lowB4V3WGoaZr9s_Cw9VngSUSiavVW_dsYtmxqQ0fxHh50dIC0nThikJHMpgjjj1WuKXf_53uKQe6MAKqt8LENuSdgqdMPJPcVEHcM9EkKZh1Vmg11IfnUaAgtG42GC_6yEzKhPE4UzuUT81jKS3JYTm8t254sawVnFNyyBzwi8u7Tdo0QqgVm1]--></g></svg>