<svg xmlns="http://www.w3.org/2000/svg" xmlns:xlink="http://www.w3.org/1999/xlink" contentStyleType="text/css" data-diagram-type="CLASS" height="387px" preserveAspectRatio="none" style="width:2998px;height:387px;background:#FFFFFF;" version="1.1" viewBox="0 0 2998 387" width="2998px" zoomAndPan="magnify"><title>Datenatlas - FTX:00023</title><defs/><g><g class="title" data-source-line="1"><text fill="#000000" font-family="sans-serif" font-size="14" font-weight="bold" lengthAdjust="spacing" textLength="185.7119" x="1399.1821" y="22.9951">Datenatlas - FTX:00023</text></g><!--class FTX_00023--><g class="entity" data-entity="FTX_00023" data-source-line="2" data-uid="ent0002" id="entity_FTX_00023"><rect fill="#F1F1F1" height="113.1875" rx="2.5" ry="2.5" style="stroke:#181818;stroke-width:0.5;" width="632.4297" x="910.87" y="44.2969"/><ellipse cx="1183.9691" cy="60.2969" fill="#ADD1B2" rx="11" ry="11" style="stroke:#181818;stroke-width:1;"/><path d="M1186.9379,65.9375 Q1186.3597,66.2344 1185.7191,66.375 Q1185.0785,66.5313 1184.3754,66.5313 Q1181.8754,66.5313 1180.5472,64.8906 Q1179.2347,63.2344 1179.2347,60.1094 Q1179.2347,56.9844 1180.5472,55.3281 Q1181.8754,53.6719 1184.3754,53.6719 Q1185.0785,53.6719 1185.7191,53.8281 Q1186.3754,53.9844 1186.9379,54.2813 L1186.9379,57 Q1186.3129,56.4219 1185.7191,56.1563 Q1185.1254,55.875 1184.5004,55.875 Q1183.1566,55.875 1182.4691,56.9531 Q1181.7816,58.0156 1181.7816,60.1094 Q1181.7816,62.2031 1182.4691,63.2813 Q1183.1566,64.3438 1184.5004,64.3438 Q1185.1254,64.3438 1185.7191,64.0781 Q1186.3129,63.7969 1186.9379,63.2188 L1186.9379,65.9375 Z " fill="#000000"/><text fill="#000000" font-family="sans-serif" font-size="14" lengthAdjust="spacing" textLength="77.7314" x="1204.4691" y="65.1436">FTX_00023</text><line style="stroke:#181818;stroke-width:0.5;" x1="911.87" x2="1542.2997" y1="76.2969" y2="76.2969"/><text fill="#000000" font-family="sans-serif" font-size="14" lengthAdjust="spacing" textLength="66.6436" x="930.87" y="93.292">Prozesse:</text><rect fill="none" height="6" style="stroke:#C82930;stroke-width:1;" width="6" x="918.87" y="103.2422"/><text fill="#000000" font-family="sans-serif" font-size="14" lengthAdjust="spacing" textLength="317.9668" x="930.87" y="109.5889">Sperrung und Entsperrung eines Anschlusses</text><line style="stroke:#181818;stroke-width:0.5;" x1="911.87" x2="1542.2997" y1="116.8906" y2="116.8906"/><text fill="#000000" font-family="sans-serif" font-size="14" lengthAdjust="spacing" textLength="606.4297" x="930.87" y="133.8857">Name: Besondere Sachverhalte zur Sperrung (nicht pauschal im Preisblatt abgebildet)</text><rect fill="#F24D5C" height="6" style="stroke:#C82930;stroke-width:1;" width="6" x="918.87" y="143.8359"/><text fill="#000000" font-family="sans-serif" font-size="14" lengthAdjust="spacing" textLength="348.2021" x="930.87" y="150.1826">Bestellung einer technischen Konfiguration (MSB)</text></g><!--class FTX_00023_msg_1--><g class="entity" data-entity="FTX_00023_msg_1" data-source-line="8" data-uid="ent0003" id="entity_FTX_00023_msg_1"><rect fill="#F1F1F1" height="145.7813" rx="2.5" ry="2.5" style="stroke:#181818;stroke-width:0.5;" width="758.1631" x="7" y="234.4869"/><ellipse cx="316.603" cy="250.4869" fill="#ADD1B2" rx="11" ry="11" style="stroke:#181818;stroke-width:1;"/><path d="M319.5718,256.1275 Q318.9937,256.4244 318.353,256.565 Q317.7124,256.7213 317.0093,256.7213 Q314.5093,256.7213 313.1812,255.0806 Q311.8687,253.4244 311.8687,250.2994 Q311.8687,247.1744 313.1812,245.5181 Q314.5093,243.8619 317.0093,243.8619 Q317.7124,243.8619 318.353,244.0181 Q319.0093,244.1744 319.5718,244.4713 L319.5718,247.19 Q318.9468,246.6119 318.353,246.3463 Q317.7593,246.065 317.1343,246.065 Q315.7905,246.065 315.103,247.1431 Q314.4155,248.2056 314.4155,250.2994 Q314.4155,252.3931 315.103,253.4713 Q315.7905,254.5338 317.1343,254.5338 Q317.7593,254.5338 318.353,254.2681 Q318.9468,253.9869 319.5718,253.4088 L319.5718,256.1275 Z " fill="#000000"/><text fill="#000000" font-family="sans-serif" font-size="14" lengthAdjust="spacing" textLength="130.457" x="337.103" y="255.3336">FTX_00023_msg_1</text><line style="stroke:#181818;stroke-width:0.5;" x1="8" x2="764.1631" y1="266.4869" y2="266.4869"/><text fill="#000000" font-family="sans-serif" font-size="14" lengthAdjust="spacing" textLength="161.793" x="13" y="283.482">Nachricht: ORDRSP 1.4</text><text fill="#000000" font-family="sans-serif" font-size="14" lengthAdjust="spacing" textLength="204.1143" x="13" y="299.7789">Kontext: Nachrichtenstruktur</text><text fill="#000000" font-family="sans-serif" font-size="14" lengthAdjust="spacing" textLength="110.5439" x="13" y="316.0757">Pflichtfeld: Nein</text><text fill="#000000" font-family="sans-serif" font-size="14" lengthAdjust="spacing" textLength="105.2119" x="13" y="332.3726">Codes: 99, FTX</text><text fill="#000000" font-family="sans-serif" font-size="14" lengthAdjust="spacing" textLength="283.9307" x="13" y="348.6695">Quelle: ORDRSP_MIG_1_4_20240619.pdf</text><line style="stroke:#181818;stroke-width:0.5;" x1="8" x2="764.1631" y1="355.9713" y2="355.9713"/><text fill="#000000" font-family="sans-serif" font-size="14" lengthAdjust="spacing" textLength="746.1631" x="13" y="372.9664">Prozesse: Sperrung und Entsperrung eines Anschlusses, Bestellung einer technischen Konfiguration (MSB)</text></g><!--class FTX_00023_proc_1--><g class="entity" data-entity="FTX_00023_proc_1" data-source-line="17" data-uid="ent0005" id="entity_FTX_00023_proc_1"><rect fill="#F1F1F1" height="105.1563" rx="2.5" ry="2.5" style="stroke:#181818;stroke-width:0.5;" width="853.9893" x="800.09" y="254.7969"/><ellipse cx="1157.0627" cy="274.9297" fill="#ADD1B2" rx="11" ry="11" style="stroke:#181818;stroke-width:1;"/><path d="M1160.0314,280.5703 Q1159.4533,280.8672 1158.8127,281.0078 Q1158.172,281.1641 1157.4689,281.1641 Q1154.9689,281.1641 1153.6408,279.5234 Q1152.3283,277.8672 1152.3283,274.7422 Q1152.3283,271.6172 1153.6408,269.9609 Q1154.9689,268.3047 1157.4689,268.3047 Q1158.172,268.3047 1158.8127,268.4609 Q1159.4689,268.6172 1160.0314,268.9141 L1160.0314,271.6328 Q1159.4064,271.0547 1158.8127,270.7891 Q1158.2189,270.5078 1157.5939,270.5078 Q1156.2502,270.5078 1155.5627,271.5859 Q1154.8752,272.6484 1154.8752,274.7422 Q1154.8752,276.8359 1155.5627,277.9141 Q1156.2502,278.9766 1157.5939,278.9766 Q1158.2189,278.9766 1158.8127,278.7109 Q1159.4064,278.4297 1160.0314,277.8516 L1160.0314,280.5703 Z " fill="#000000"/><text fill="#000000" font-family="sans-serif" font-size="12" font-style="italic" lengthAdjust="spacing" textLength="61.0605" x="1212.8044" y="270.9355">&#171;process&#187;</text><text fill="#000000" font-family="sans-serif" font-size="14" lengthAdjust="spacing" textLength="131.5439" x="1177.5627" y="286.7607">FTX_00023_proc_1</text><line style="stroke:#181818;stroke-width:0.5;" x1="801.09" x2="1653.0793" y1="295.0625" y2="295.0625"/><text fill="#000000" font-family="sans-serif" font-size="14" lengthAdjust="spacing" textLength="317.9668" x="806.09" y="312.0576">Sperrung und Entsperrung eines Anschlusses</text><text fill="#000000" font-family="sans-serif" font-size="14" lengthAdjust="spacing" textLength="138.3252" x="806.09" y="328.3545">Gesetze: StromGVV</text><text fill="#000000" font-family="sans-serif" font-size="14" lengthAdjust="spacing" textLength="841.9893" x="806.09" y="344.6514">Zusammenfassung: Beschreibe den End-to-End-Prozess f&#252;r die Sperrung und Wiederherstellung eines Netzanschlusses.</text><line style="stroke:#181818;stroke-width:0.5;" x1="801.09" x2="1653.0793" y1="351.9531" y2="351.9531"/></g><!--class FTX_00023_proc_2--><g class="entity" data-entity="FTX_00023_proc_2" data-source-line="23" data-uid="ent0007" id="entity_FTX_00023_proc_2"><rect fill="#F1F1F1" height="105.1563" rx="2.5" ry="2.5" style="stroke:#181818;stroke-width:0.5;" width="1301.9961" x="1689.08" y="254.7969"/><ellipse cx="2270.0561" cy="274.9297" fill="#ADD1B2" rx="11" ry="11" style="stroke:#181818;stroke-width:1;"/><path d="M2273.0248,280.5703 Q2272.4467,280.8672 2271.8061,281.0078 Q2271.1654,281.1641 2270.4623,281.1641 Q2267.9623,281.1641 2266.6342,279.5234 Q2265.3217,277.8672 2265.3217,274.7422 Q2265.3217,271.6172 2266.6342,269.9609 Q2267.9623,268.3047 2270.4623,268.3047 Q2271.1654,268.3047 2271.8061,268.4609 Q2272.4623,268.6172 2273.0248,268.9141 L2273.0248,271.6328 Q2272.3998,271.0547 2271.8061,270.7891 Q2271.2123,270.5078 2270.5873,270.5078 Q2269.2436,270.5078 2268.5561,271.5859 Q2267.8686,272.6484 2267.8686,274.7422 Q2267.8686,276.8359 2268.5561,277.9141 Q2269.2436,278.9766 2270.5873,278.9766 Q2271.2123,278.9766 2271.8061,278.7109 Q2272.3998,278.4297 2273.0248,277.8516 L2273.0248,280.5703 Z " fill="#000000"/><text fill="#000000" font-family="sans-serif" font-size="12" font-style="italic" lengthAdjust="spacing" textLength="61.0605" x="2325.7978" y="270.9355">&#171;process&#187;</text><text fill="#000000" font-family="sans-serif" font-size="14" lengthAdjust="spacing" textLength="131.5439" x="2290.5561" y="286.7607">FTX_00023_proc_2</text><line style="stroke:#181818;stroke-width:0.5;" x1="1690.08" x2="2990.0761" y1="295.0625" y2="295.0625"/><text fill="#000000" font-family="sans-serif" font-size="14" lengthAdjust="spacing" textLength="156.4063" x="1695.08" y="312.0576">Gesetze: MsbG, EnWG</text><text fill="#000000" font-family="sans-serif" font-size="14" lengthAdjust="spacing" textLength="1289.9961" x="1695.08" y="328.3545">Zusammenfassung: Erl&#228;utere den Prozess zur Bestellung einer spezifischen technischen Konfiguration bei einem Messstellenbetreiber, beispielsweise f&#252;r ein intelligentes Messsystem.</text><line style="stroke:#181818;stroke-width:0.5;" x1="1690.08" x2="2990.0761" y1="335.6563" y2="335.6563"/><text fill="#000000" font-family="sans-serif" font-size="14" lengthAdjust="spacing" textLength="348.2021" x="1695.08" y="352.6514">Bestellung einer technischen Konfiguration (MSB)</text></g><!--link FTX_00023 to FTX_00023_msg_1--><g class="link" data-entity-1="FTX_00023" data-entity-2="FTX_00023_msg_1" data-source-line="16" data-uid="lnk4" id="link_FTX_00023_FTX_00023_msg_1"><path codeLine="16" d="M996.44,157.9669 C899.91,181.4369 792.3201,207.599 689.6101,232.579" fill="none" id="FTX_00023-to-FTX_00023_msg_1" style="stroke:#181818;stroke-width:1;"/><polygon fill="#181818" points="683.78,233.9969,693.4704,235.7567,688.6384,232.8153,691.5798,227.9833,683.78,233.9969" style="stroke:#181818;stroke-width:1;"/><text fill="#000000" font-family="sans-serif" font-size="13" lengthAdjust="spacing" textLength="85.2363" x="858.08" y="200.5538">verwendet in</text></g><!--link FTX_00023 to FTX_00023_proc_1--><g class="link" data-entity-1="FTX_00023" data-entity-2="FTX_00023_proc_1" data-source-line="22" data-uid="lnk6" id="link_FTX_00023_FTX_00023_proc_1"><path codeLine="22" d="M1227.08,157.7669 C1227.08,187.9169 1227.08,218.9069 1227.08,248.4269" fill="none" id="FTX_00023-to-FTX_00023_proc_1" style="stroke:#181818;stroke-width:1;stroke-dasharray:7,7;"/><polygon fill="#181818" points="1227.08,254.4269,1231.08,245.4269,1227.08,249.4269,1223.08,245.4269,1227.08,254.4269" style="stroke:#181818;stroke-width:1;"/><text fill="#000000" font-family="sans-serif" font-size="13" lengthAdjust="spacing" textLength="91.6221" x="1228.08" y="200.5538">eingebettet in</text></g><!--link FTX_00023 to FTX_00023_proc_2--><g class="link" data-entity-1="FTX_00023" data-entity-2="FTX_00023_proc_2" data-source-line="28" data-uid="lnk8" id="link_FTX_00023_FTX_00023_proc_2"><path codeLine="28" d="M1532.32,157.9669 C1696.1,188.0669 1890.7488,223.8226 2051.0288,253.2726" fill="none" id="FTX_00023-to-FTX_00023_proc_2" style="stroke:#181818;stroke-width:1;stroke-dasharray:7,7;"/><polygon fill="#181818" points="2056.93,254.3569,2048.801,248.7963,2052.0123,253.4533,2047.3553,256.6646,2056.93,254.3569" style="stroke:#181818;stroke-width:1;"/><text fill="#000000" font-family="sans-serif" font-size="13" lengthAdjust="spacing" textLength="91.6221" x="1785.08" y="200.5538">eingebettet in</text></g><!--SRC=[dPFTRjCm5CVl-nJdSfEQgWqLKgEfqiPAX52Xh6YRk8cSv2InS9p8FcOGnDlm6DpjnJZEsewkVAXSsJu-N__ViKcIGhWKX5gG4XO2UFd-DXgFn-6pGSO6wyz9VuQl0u0teiO8Bj0sEaU3i1PPzGbD9HGXTCx0kaLZd2xXHCki8cY5inbVWwnXPL3QL0aY46c9gLGvqYbdNPccGsinuZrm3xiaJkUmq6ItPvGQBPnhJgaS1zXD03T4gDJMnG1XLcd9RgZXTQCBMJeZI3OQJfRhYzF1jwVgajgMoMIZCQkCRpw2jrUNL-iLJ4PJjdCUmizitJcWjcJSHtB6YoYKjnMeSdRXDjZseidHHZ2R3NsbNvKUeN5ul3o0Tuu3SAiWMRwAaqaoJS9nE1q_dyn6RLumXCVX1i7y04O4FDexv4aJi9odn5hJPEnrTkOtB6e-x_4TDRmOBLBdSP1fwlZwccqVd1LrZRhWSXpNFpS6ZZ95o5dmGkS1DO5VDZYXkFzX89UuN_n68Z_I2iqUFSl3eKuyjZ7Q0p4QpGyrHZwINomI_OL5UC3YFmQt8xAqQJnaiJVnxvWiZBh_xiZ_GSza2y9_mOEYF85E5fkgV-uWHTa7rB3aL7qEr2ov9s-6_jws4fMzumq-C6T_nk5TPOcyseVOBnnT_vDhUC3r9m00]--></g></svg>