<svg xmlns="http://www.w3.org/2000/svg" xmlns:xlink="http://www.w3.org/1999/xlink" contentStyleType="text/css" data-diagram-type="CLASS" height="387px" preserveAspectRatio="none" style="width:2998px;height:387px;background:#FFFFFF;" version="1.1" viewBox="0 0 2998 387" width="2998px" zoomAndPan="magnify"><title>Datenatlas - GIN:00025</title><defs/><g><g class="title" data-source-line="1"><text fill="#000000" font-family="sans-serif" font-size="14" font-weight="bold" lengthAdjust="spacing" textLength="184.2217" x="1399.9288" y="22.9951">Datenatlas - GIN:00025</text></g><!--class GIN_00025--><g class="entity" data-entity="GIN_00025" data-source-line="2" data-uid="ent0002" id="entity_GIN_00025"><rect fill="#F1F1F1" height="113.1875" rx="2.5" ry="2.5" style="stroke:#181818;stroke-width:0.5;" width="374.2021" x="1263.98" y="44.2969"/><ellipse cx="1408.3379" cy="60.2969" fill="#ADD1B2" rx="11" ry="11" style="stroke:#181818;stroke-width:1;"/><path d="M1411.3067,65.9375 Q1410.7285,66.2344 1410.0879,66.375 Q1409.4473,66.5313 1408.7442,66.5313 Q1406.2442,66.5313 1404.916,64.8906 Q1403.6035,63.2344 1403.6035,60.1094 Q1403.6035,56.9844 1404.916,55.3281 Q1406.2442,53.6719 1408.7442,53.6719 Q1409.4473,53.6719 1410.0879,53.8281 Q1410.7442,53.9844 1411.3067,54.2813 L1411.3067,57 Q1410.6817,56.4219 1410.0879,56.1563 Q1409.4942,55.875 1408.8692,55.875 Q1407.5254,55.875 1406.8379,56.9531 Q1406.1504,58.0156 1406.1504,60.1094 Q1406.1504,62.2031 1406.8379,63.2813 Q1407.5254,64.3438 1408.8692,64.3438 Q1409.4942,64.3438 1410.0879,64.0781 Q1410.6817,63.7969 1411.3067,63.2188 L1411.3067,65.9375 Z " fill="#000000"/><text fill="#000000" font-family="sans-serif" font-size="14" lengthAdjust="spacing" textLength="76.9863" x="1428.8379" y="65.1436">GIN_00025</text><line style="stroke:#181818;stroke-width:0.5;" x1="1264.98" x2="1637.1821" y1="76.2969" y2="76.2969"/><text fill="#000000" font-family="sans-serif" font-size="14" lengthAdjust="spacing" textLength="178.3018" x="1283.98" y="93.292">Name: Herstellernummer</text><text fill="#000000" font-family="sans-serif" font-size="14" lengthAdjust="spacing" textLength="66.6436" x="1283.98" y="109.5889">Prozesse:</text><rect fill="none" height="6" style="stroke:#C82930;stroke-width:1;" width="6" x="1271.98" y="119.5391"/><text fill="#000000" font-family="sans-serif" font-size="14" lengthAdjust="spacing" textLength="317.9668" x="1283.98" y="125.8857">Sperrung und Entsperrung eines Anschlusses</text><line style="stroke:#181818;stroke-width:0.5;" x1="1264.98" x2="1637.1821" y1="133.1875" y2="133.1875"/><rect fill="#F24D5C" height="6" style="stroke:#C82930;stroke-width:1;" width="6" x="1271.98" y="143.8359"/><text fill="#000000" font-family="sans-serif" font-size="14" lengthAdjust="spacing" textLength="348.2021" x="1283.98" y="150.1826">Bestellung einer technischen Konfiguration (MSB)</text></g><!--class GIN_00025_msg_1--><g class="entity" data-entity="GIN_00025_msg_1" data-source-line="8" data-uid="ent0003" id="entity_GIN_00025_msg_1"><rect fill="#F1F1F1" height="145.7813" rx="2.5" ry="2.5" style="stroke:#181818;stroke-width:0.5;" width="758.1631" x="7" y="234.4869"/><ellipse cx="316.9756" cy="250.4869" fill="#ADD1B2" rx="11" ry="11" style="stroke:#181818;stroke-width:1;"/><path d="M319.9443,256.1275 Q319.3662,256.4244 318.7256,256.565 Q318.085,256.7213 317.3818,256.7213 Q314.8818,256.7213 313.5537,255.0806 Q312.2412,253.4244 312.2412,250.2994 Q312.2412,247.1744 313.5537,245.5181 Q314.8818,243.8619 317.3818,243.8619 Q318.085,243.8619 318.7256,244.0181 Q319.3818,244.1744 319.9443,244.4713 L319.9443,247.19 Q319.3193,246.6119 318.7256,246.3463 Q318.1318,246.065 317.5068,246.065 Q316.1631,246.065 315.4756,247.1431 Q314.7881,248.2056 314.7881,250.2994 Q314.7881,252.3931 315.4756,253.4713 Q316.1631,254.5338 317.5068,254.5338 Q318.1318,254.5338 318.7256,254.2681 Q319.3193,253.9869 319.9443,253.4088 L319.9443,256.1275 Z " fill="#000000"/><text fill="#000000" font-family="sans-serif" font-size="14" lengthAdjust="spacing" textLength="129.7119" x="337.4756" y="255.3336">GIN_00025_msg_1</text><line style="stroke:#181818;stroke-width:0.5;" x1="8" x2="764.1631" y1="266.4869" y2="266.4869"/><text fill="#000000" font-family="sans-serif" font-size="14" lengthAdjust="spacing" textLength="170.3584" x="13" y="283.482">Nachricht: QUOTES 1.3a</text><text fill="#000000" font-family="sans-serif" font-size="14" lengthAdjust="spacing" textLength="204.1143" x="13" y="299.7789">Kontext: Nachrichtenstruktur</text><text fill="#000000" font-family="sans-serif" font-size="14" lengthAdjust="spacing" textLength="110.5439" x="13" y="316.0757">Pflichtfeld: Nein</text><text fill="#000000" font-family="sans-serif" font-size="14" lengthAdjust="spacing" textLength="77.752" x="13" y="332.3726">Codes: GIN</text><text fill="#000000" font-family="sans-serif" font-size="14" lengthAdjust="spacing" textLength="408.3174" x="13" y="348.6695">Quelle: QUOTES_MIG_1_3a_Fehlerkorrektur_20241213.pdf</text><line style="stroke:#181818;stroke-width:0.5;" x1="8" x2="764.1631" y1="355.9713" y2="355.9713"/><text fill="#000000" font-family="sans-serif" font-size="14" lengthAdjust="spacing" textLength="746.1631" x="13" y="372.9664">Prozesse: Bestellung einer technischen Konfiguration (MSB), Sperrung und Entsperrung eines Anschlusses</text></g><!--class GIN_00025_proc_1--><g class="entity" data-entity="GIN_00025_proc_1" data-source-line="17" data-uid="ent0005" id="entity_GIN_00025_proc_1"><rect fill="#F1F1F1" height="105.1563" rx="2.5" ry="2.5" style="stroke:#181818;stroke-width:0.5;" width="1301.9961" x="800.08" y="254.7969"/><ellipse cx="1381.4286" cy="274.9297" fill="#ADD1B2" rx="11" ry="11" style="stroke:#181818;stroke-width:1;"/><path d="M1384.3974,280.5703 Q1383.8193,280.8672 1383.1786,281.0078 Q1382.538,281.1641 1381.8349,281.1641 Q1379.3349,281.1641 1378.0068,279.5234 Q1376.6943,277.8672 1376.6943,274.7422 Q1376.6943,271.6172 1378.0068,269.9609 Q1379.3349,268.3047 1381.8349,268.3047 Q1382.538,268.3047 1383.1786,268.4609 Q1383.8349,268.6172 1384.3974,268.9141 L1384.3974,271.6328 Q1383.7724,271.0547 1383.1786,270.7891 Q1382.5849,270.5078 1381.9599,270.5078 Q1380.6161,270.5078 1379.9286,271.5859 Q1379.2411,272.6484 1379.2411,274.7422 Q1379.2411,276.8359 1379.9286,277.9141 Q1380.6161,278.9766 1381.9599,278.9766 Q1382.5849,278.9766 1383.1786,278.7109 Q1383.7724,278.4297 1384.3974,277.8516 L1384.3974,280.5703 Z " fill="#000000"/><text fill="#000000" font-family="sans-serif" font-size="12" font-style="italic" lengthAdjust="spacing" textLength="61.0605" x="1436.7978" y="270.9355">&#171;process&#187;</text><text fill="#000000" font-family="sans-serif" font-size="14" lengthAdjust="spacing" textLength="130.7988" x="1401.9286" y="286.7607">GIN_00025_proc_1</text><line style="stroke:#181818;stroke-width:0.5;" x1="801.08" x2="2101.0761" y1="295.0625" y2="295.0625"/><text fill="#000000" font-family="sans-serif" font-size="14" lengthAdjust="spacing" textLength="156.4063" x="806.08" y="312.0576">Gesetze: MsbG, EnWG</text><text fill="#000000" font-family="sans-serif" font-size="14" lengthAdjust="spacing" textLength="1289.9961" x="806.08" y="328.3545">Zusammenfassung: Erl&#228;utere den Prozess zur Bestellung einer spezifischen technischen Konfiguration bei einem Messstellenbetreiber, beispielsweise f&#252;r ein intelligentes Messsystem.</text><line style="stroke:#181818;stroke-width:0.5;" x1="801.08" x2="2101.0761" y1="335.6563" y2="335.6563"/><text fill="#000000" font-family="sans-serif" font-size="14" lengthAdjust="spacing" textLength="348.2021" x="806.08" y="352.6514">Bestellung einer technischen Konfiguration (MSB)</text></g><!--class GIN_00025_proc_2--><g class="entity" data-entity="GIN_00025_proc_2" data-source-line="23" data-uid="ent0007" id="entity_GIN_00025_proc_2"><rect fill="#F1F1F1" height="105.1563" rx="2.5" ry="2.5" style="stroke:#181818;stroke-width:0.5;" width="853.9893" x="2137.09" y="254.7969"/><ellipse cx="2494.4352" cy="274.9297" fill="#ADD1B2" rx="11" ry="11" style="stroke:#181818;stroke-width:1;"/><path d="M2497.404,280.5703 Q2496.8258,280.8672 2496.1852,281.0078 Q2495.5446,281.1641 2494.8415,281.1641 Q2492.3415,281.1641 2491.0133,279.5234 Q2489.7008,277.8672 2489.7008,274.7422 Q2489.7008,271.6172 2491.0133,269.9609 Q2492.3415,268.3047 2494.8415,268.3047 Q2495.5446,268.3047 2496.1852,268.4609 Q2496.8415,268.6172 2497.404,268.9141 L2497.404,271.6328 Q2496.779,271.0547 2496.1852,270.7891 Q2495.5915,270.5078 2494.9665,270.5078 Q2493.6227,270.5078 2492.9352,271.5859 Q2492.2477,272.6484 2492.2477,274.7422 Q2492.2477,276.8359 2492.9352,277.9141 Q2493.6227,278.9766 2494.9665,278.9766 Q2495.5915,278.9766 2496.1852,278.7109 Q2496.779,278.4297 2497.404,277.8516 L2497.404,280.5703 Z " fill="#000000"/><text fill="#000000" font-family="sans-serif" font-size="12" font-style="italic" lengthAdjust="spacing" textLength="61.0605" x="2549.8044" y="270.9355">&#171;process&#187;</text><text fill="#000000" font-family="sans-serif" font-size="14" lengthAdjust="spacing" textLength="130.7988" x="2514.9352" y="286.7607">GIN_00025_proc_2</text><line style="stroke:#181818;stroke-width:0.5;" x1="2138.09" x2="2990.0793" y1="295.0625" y2="295.0625"/><text fill="#000000" font-family="sans-serif" font-size="14" lengthAdjust="spacing" textLength="317.9668" x="2143.09" y="312.0576">Sperrung und Entsperrung eines Anschlusses</text><text fill="#000000" font-family="sans-serif" font-size="14" lengthAdjust="spacing" textLength="138.3252" x="2143.09" y="328.3545">Gesetze: StromGVV</text><text fill="#000000" font-family="sans-serif" font-size="14" lengthAdjust="spacing" textLength="841.9893" x="2143.09" y="344.6514">Zusammenfassung: Beschreibe den End-to-End-Prozess f&#252;r die Sperrung und Wiederherstellung eines Netzanschlusses.</text><line style="stroke:#181818;stroke-width:0.5;" x1="2138.09" x2="2990.0793" y1="351.9531" y2="351.9531"/></g><!--link GIN_00025 to GIN_00025_msg_1--><g class="link" data-entity-1="GIN_00025" data-entity-2="GIN_00025_msg_1" data-source-line="16" data-uid="lnk4" id="link_GIN_00025_GIN_00025_msg_1"><path codeLine="16" d="M1263.74,137.8569 C1125.5,164.4069 938.6024,200.2855 768.9224,232.8655" fill="none" id="GIN_00025-to-GIN_00025_msg_1" style="stroke:#181818;stroke-width:1;"/><polygon fill="#181818" points="763.03,233.9969,772.6228,236.228,767.9403,233.0541,771.1143,228.3716,763.03,233.9969" style="stroke:#181818;stroke-width:1;"/><text fill="#000000" font-family="sans-serif" font-size="13" lengthAdjust="spacing" textLength="85.2363" x="984.08" y="200.5538">verwendet in</text></g><!--link GIN_00025 to GIN_00025_proc_1--><g class="link" data-entity-1="GIN_00025" data-entity-2="GIN_00025_proc_1" data-source-line="22" data-uid="lnk6" id="link_GIN_00025_GIN_00025_proc_1"><path codeLine="22" d="M1451.08,157.7669 C1451.08,187.9169 1451.08,218.9069 1451.08,248.4269" fill="none" id="GIN_00025-to-GIN_00025_proc_1" style="stroke:#181818;stroke-width:1;stroke-dasharray:7,7;"/><polygon fill="#181818" points="1451.08,254.4269,1455.08,245.4269,1451.08,249.4269,1447.08,245.4269,1451.08,254.4269" style="stroke:#181818;stroke-width:1;"/><text fill="#000000" font-family="sans-serif" font-size="13" lengthAdjust="spacing" textLength="91.6221" x="1452.08" y="200.5538">eingebettet in</text></g><!--link GIN_00025 to GIN_00025_proc_2--><g class="link" data-entity-1="GIN_00025" data-entity-2="GIN_00025_proc_2" data-source-line="28" data-uid="lnk8" id="link_GIN_00025_GIN_00025_proc_2"><path codeLine="28" d="M1638.63,136.3469 C1814.34,168.6269 2073.4687,216.2428 2274.9387,253.2528" fill="none" id="GIN_00025-to-GIN_00025_proc_2" style="stroke:#181818;stroke-width:1;stroke-dasharray:7,7;"/><polygon fill="#181818" points="2280.84,254.3369,2272.7108,248.7766,2275.9223,253.4335,2271.2654,256.645,2280.84,254.3369" style="stroke:#181818;stroke-width:1;"/><text fill="#000000" font-family="sans-serif" font-size="13" lengthAdjust="spacing" textLength="91.6221" x="2009.08" y="200.5538">eingebettet in</text></g><!--SRC=[dPFFRjD04CRlUOevWfH4iGCNguf48PWA9L05MecBvTYVurNjTJIxIo6eRyDZSEkBCUiw3Qtvet3oxkpCVFFzTcsLhK2lKWkTsYerDABuR1bD9fFm-I2JWF7xfDtJjm7HCgqHqHkmiQWgi7Pr3PQ3zzpiO0mYMPEqEKMRuVI6e3IOBB9IAvELqFIsqONQE4wjQZGzMQnEdtPbgosOVP7JESsrDVkzRsBeXPO6bHCTCxXvF61IcqqIT6Dc9Qkij16TVtptORwYO3nDvK2KBRv8-3u3sbXsLzQrBehAnmfKkQI8fiHUDZbCv6L-jNcqmU4nteZEdUUx7pzPdCL9a4pJv3LAmNxLCCFFd8IJy5aG1jFnDYy4oU6sHgDP3qr4dy7Nq3aiYRV7_BRSP99rSk8Nud8sQs7-nrN6CB0x6NzXrl5Gp5x64ltaJ2hFHHSYAzqYcdDr-zrPC2YNNXrSsZdkYmgjdIewrJzFi8Pg2sfQIAkxLwhNi0or1W_zkTagLEPQ5g3YzWVxVC7XKzK6yZLtjL-bkXu_W3eUp_gy8jzW0n6nV-4QzhWUzHxkYQuiDtLySV4xdW9DNhLtslASwtnacv7_xD6sVdE5X-AN2ZcuxFxgmmXBaKmFO_oJHTXZyHC0]--></g></svg>