<svg xmlns="http://www.w3.org/2000/svg" xmlns:xlink="http://www.w3.org/1999/xlink" contentStyleType="text/css" data-diagram-type="CLASS" height="370px" preserveAspectRatio="none" style="width:1104px;height:370px;background:#FFFFFF;" version="1.1" viewBox="0 0 1104 370" width="1104px" zoomAndPan="magnify"><title>Datenatlas - IDE:G_0081</title><defs/><g><g class="title" data-source-line="1"><text fill="#000000" font-family="sans-serif" font-size="14" font-weight="bold" lengthAdjust="spacing" textLength="190.9482" x="449.9591" y="22.9951">Datenatlas - IDE:G_0081</text></g><!--class IDE_G_0081--><g class="entity" data-entity="IDE_G_0081" data-source-line="2" data-uid="ent0002" id="entity_IDE_G_0081"><rect fill="#F1F1F1" height="96.8906" rx="2.5" ry="2.5" style="stroke:#181818;stroke-width:0.5;" width="778.2266" x="50.43" y="44.2969"/><ellipse cx="393.1771" cy="60.2969" fill="#ADD1B2" rx="11" ry="11" style="stroke:#181818;stroke-width:1;"/><path d="M396.1458,65.9375 Q395.5677,66.2344 394.9271,66.375 Q394.2864,66.5313 393.5833,66.5313 Q391.0833,66.5313 389.7552,64.8906 Q388.4427,63.2344 388.4427,60.1094 Q388.4427,56.9844 389.7552,55.3281 Q391.0833,53.6719 393.5833,53.6719 Q394.2864,53.6719 394.9271,53.8281 Q395.5833,53.9844 396.1458,54.2813 L396.1458,57 Q395.5208,56.4219 394.9271,56.1563 Q394.3333,55.875 393.7083,55.875 Q392.3646,55.875 391.6771,56.9531 Q390.9896,58.0156 390.9896,60.1094 Q390.9896,62.2031 391.6771,63.2813 Q392.3646,64.3438 393.7083,64.3438 Q394.3333,64.3438 394.9271,64.0781 Q395.5208,63.7969 396.1458,63.2188 L396.1458,65.9375 Z " fill="#000000"/><text fill="#000000" font-family="sans-serif" font-size="14" lengthAdjust="spacing" textLength="84.2324" x="413.6771" y="65.1436">IDE_G_0081</text><line style="stroke:#181818;stroke-width:0.5;" x1="51.43" x2="827.6566" y1="76.2969" y2="76.2969"/><text fill="#000000" font-family="sans-serif" font-size="14" lengthAdjust="spacing" textLength="66.6436" x="70.43" y="93.292">Prozesse:</text><rect fill="none" height="6" style="stroke:#C82930;stroke-width:1;" width="6" x="58.43" y="103.2422"/><text fill="#000000" font-family="sans-serif" font-size="14" lengthAdjust="spacing" textLength="180.3457" x="70.43" y="109.5889">Netznutzungsabrechnung</text><line style="stroke:#181818;stroke-width:0.5;" x1="51.43" x2="827.6566" y1="116.8906" y2="116.8906"/><text fill="#000000" font-family="sans-serif" font-size="14" lengthAdjust="spacing" textLength="766.2266" x="56.43" y="133.8857">Name: Codeliste Gas Nr. G_0081 Codeliste zur Pr&#252;fung der Netznutzungsrechnung zwischen NB und LF (Gas)</text></g><!--class IDE_G_0081_msg_1--><g class="entity" data-entity="IDE_G_0081_msg_1" data-source-line="7" data-uid="ent0003" id="entity_IDE_G_0081_msg_1"><rect fill="#F1F1F1" height="145.7813" rx="2.5" ry="2.5" style="stroke:#181818;stroke-width:0.5;" width="303.0811" x="7" y="218.1869"/><ellipse cx="85.8115" cy="234.1869" fill="#ADD1B2" rx="11" ry="11" style="stroke:#181818;stroke-width:1;"/><path d="M88.7803,239.8275 Q88.2021,240.1244 87.5615,240.265 Q86.9209,240.4213 86.2178,240.4213 Q83.7178,240.4213 82.3896,238.7806 Q81.0771,237.1244 81.0771,233.9994 Q81.0771,230.8744 82.3896,229.2181 Q83.7178,227.5619 86.2178,227.5619 Q86.9209,227.5619 87.5615,227.7181 Q88.2178,227.8744 88.7803,228.1713 L88.7803,230.89 Q88.1553,230.3119 87.5615,230.0463 Q86.9678,229.765 86.3428,229.765 Q84.999,229.765 84.3115,230.8431 Q83.624,231.9056 83.624,233.9994 Q83.624,236.0931 84.3115,237.1713 Q84.999,238.2338 86.3428,238.2338 Q86.9678,238.2338 87.5615,237.9681 Q88.1553,237.6869 88.7803,237.1088 L88.7803,239.8275 Z " fill="#000000"/><text fill="#000000" font-family="sans-serif" font-size="14" lengthAdjust="spacing" textLength="136.958" x="106.3115" y="239.0336">IDE_G_0081_msg_1</text><line style="stroke:#181818;stroke-width:0.5;" x1="8" x2="309.0811" y1="250.1869" y2="250.1869"/><text fill="#000000" font-family="sans-serif" font-size="14" lengthAdjust="spacing" textLength="171.4932" x="13" y="267.182">Nachricht: REMADV 2.9c</text><text fill="#000000" font-family="sans-serif" font-size="14" lengthAdjust="spacing" textLength="170.3447" x="13" y="283.4789">Kontext: Segmentlayout</text><text fill="#000000" font-family="sans-serif" font-size="14" lengthAdjust="spacing" textLength="91.4033" x="13" y="299.7757">Pflichtfeld: Ja</text><text fill="#000000" font-family="sans-serif" font-size="14" lengthAdjust="spacing" textLength="282.1943" x="13" y="316.0726">Codes: EBD, ESA, LF, MGV, MSB, NB, NN</text><text fill="#000000" font-family="sans-serif" font-size="14" lengthAdjust="spacing" textLength="251.4395" x="13" y="332.3695">Prozesse: Netznutzungsabrechnung</text><text fill="#000000" font-family="sans-serif" font-size="14" lengthAdjust="spacing" textLength="291.0811" x="13" y="348.6664">Quelle: REMADV_MIG_2.9c_20231024.pdf</text><line style="stroke:#181818;stroke-width:0.5;" x1="8" x2="309.0811" y1="355.9681" y2="355.9681"/></g><!--class IDE_G_0081_proc_1--><g class="entity" data-entity="IDE_G_0081_proc_1" data-source-line="16" data-uid="ent0005" id="entity_IDE_G_0081_proc_1"><rect fill="#F1F1F1" height="105.1563" rx="2.5" ry="2.5" style="stroke:#181818;stroke-width:0.5;" width="752.6465" x="345.22" y="238.4969"/><ellipse cx="648.2708" cy="258.6297" fill="#ADD1B2" rx="11" ry="11" style="stroke:#181818;stroke-width:1;"/><path d="M651.2395,264.2703 Q650.6614,264.5672 650.0208,264.7078 Q649.3802,264.8641 648.677,264.8641 Q646.177,264.8641 644.8489,263.2234 Q643.5364,261.5672 643.5364,258.4422 Q643.5364,255.3172 644.8489,253.6609 Q646.177,252.0047 648.677,252.0047 Q649.3802,252.0047 650.0208,252.1609 Q650.677,252.3172 651.2395,252.6141 L651.2395,255.3328 Q650.6145,254.7547 650.0208,254.4891 Q649.427,254.2078 648.802,254.2078 Q647.4583,254.2078 646.7708,255.2859 Q646.0833,256.3484 646.0833,258.4422 Q646.0833,260.5359 646.7708,261.6141 Q647.4583,262.6766 648.802,262.6766 Q649.427,262.6766 650.0208,262.4109 Q650.6145,262.1297 651.2395,261.5516 L651.2395,264.2703 Z " fill="#000000"/><text fill="#000000" font-family="sans-serif" font-size="12" font-style="italic" lengthAdjust="spacing" textLength="61.0605" x="707.263" y="254.6355">&#171;process&#187;</text><text fill="#000000" font-family="sans-serif" font-size="14" lengthAdjust="spacing" textLength="138.0449" x="668.7708" y="270.4607">IDE_G_0081_proc_1</text><line style="stroke:#181818;stroke-width:0.5;" x1="346.22" x2="1096.8665" y1="278.7625" y2="278.7625"/><text fill="#000000" font-family="sans-serif" font-size="14" lengthAdjust="spacing" textLength="180.3457" x="351.22" y="295.7576">Netznutzungsabrechnung</text><text fill="#000000" font-family="sans-serif" font-size="14" lengthAdjust="spacing" textLength="218.0938" x="351.22" y="312.0545">Gesetze: StromNEV, StromNZV</text><text fill="#000000" font-family="sans-serif" font-size="14" lengthAdjust="spacing" textLength="740.6465" x="351.22" y="328.3514">Zusammenfassung: Wie funktioniert die Netznutzungsabrechnung zwischen Netzbetreiber und Lieferant?</text><line style="stroke:#181818;stroke-width:0.5;" x1="346.22" x2="1096.8665" y1="335.6531" y2="335.6531"/></g><!--link IDE_G_0081 to IDE_G_0081_msg_1--><g class="link" data-entity-1="IDE_G_0081" data-entity-2="IDE_G_0081_msg_1" data-source-line="15" data-uid="lnk4" id="link_IDE_G_0081_IDE_G_0081_msg_1"><path codeLine="15" d="M371.16,141.5169 C338.34,164.4469 303.2486,188.9707 266.8186,214.4207" fill="none" id="IDE_G_0081-to-IDE_G_0081_msg_1" style="stroke:#181818;stroke-width:1;"/><polygon fill="#181818" points="261.9,217.8569,271.5687,215.9817,265.9989,214.9934,266.9872,209.4236,261.9,217.8569" style="stroke:#181818;stroke-width:1;"/><text fill="#000000" font-family="sans-serif" font-size="13" lengthAdjust="spacing" textLength="85.2363" x="325.54" y="184.2538">verwendet in</text></g><!--link IDE_G_0081 to IDE_G_0081_proc_1--><g class="link" data-entity-1="IDE_G_0081" data-entity-2="IDE_G_0081_proc_1" data-source-line="21" data-uid="lnk6" id="link_IDE_G_0081_IDE_G_0081_proc_1"><path codeLine="21" d="M508.16,141.5169 C550.15,170.7469 598.9461,204.7182 641.9861,234.6882" fill="none" id="IDE_G_0081-to-IDE_G_0081_proc_1" style="stroke:#181818;stroke-width:1;stroke-dasharray:7,7;"/><polygon fill="#181818" points="646.91,238.1169,641.81,229.6913,642.8068,235.2597,637.2384,236.2565,646.91,238.1169" style="stroke:#181818;stroke-width:1;"/><text fill="#000000" font-family="sans-serif" font-size="13" lengthAdjust="spacing" textLength="91.6221" x="573.54" y="184.2538">eingebettet in</text></g><!--SRC=[TPBFJi904CRlFCKSDO6ce0VTa1gGsg3Ie2IOS6bAEsqtjbkoE_LFZM_cpHTp2X8nmA7DzflPcTytKvAK8un2GXLI7Xhem7Za2Y-mxOjkAsB5D4Am4U2Z1U271GguBcFCfI44Zs_vseBVbBz0NMcOwk-lf58fnAZ1HwfLHJL_6urHfff0_IfDbA42VmYLYk7-1awuv2btckgoHcDGy1cORFT-kDnMQ7tkSGQ5IOCjRPHf6MKauD6T34Ppw5cN4GVkIaNunl8Cqm8LctylAsgw9dcJds0U2xWDMMai6G7kSDG6TpPeCsCR9jwSNxDXcy7vyNTvZv42F5IOvxXb2IPZBsXuWfxTE-lQlNDh5ITiQ6VadOwpxqp02-fNL34IIBNlVwNBYDFw_UR0I8wp6SOnB0yDXvXhHheiV9UjRKwBEKSNbGaBdb72NJXVm9D4uAq-aooLH4qGit2u-Cv-ERv4qYYN_2-iLoqnGHqgklflsRAS0sO4e5GfSWbQk_u1]--></g></svg>