<svg xmlns="http://www.w3.org/2000/svg" xmlns:xlink="http://www.w3.org/1999/xlink" contentStyleType="text/css" data-diagram-type="CLASS" height="370px" preserveAspectRatio="none" style="width:1104px;height:370px;background:#FFFFFF;" version="1.1" viewBox="0 0 1104 370" width="1104px" zoomAndPan="magnify"><title>Datenatlas - IDE:E_0459</title><defs/><g><g class="title" data-source-line="1"><text fill="#000000" font-family="sans-serif" font-size="14" font-weight="bold" lengthAdjust="spacing" textLength="189.0205" x="450.923" y="22.9951">Datenatlas - IDE:E_0459</text></g><!--class IDE_E_0459--><g class="entity" data-entity="IDE_E_0459" data-source-line="2" data-uid="ent0002" id="entity_IDE_E_0459"><rect fill="#F1F1F1" height="96.8906" rx="2.5" ry="2.5" style="stroke:#181818;stroke-width:0.5;" width="727.8799" x="75.6" y="44.2969"/><ellipse cx="394.1752" cy="60.2969" fill="#ADD1B2" rx="11" ry="11" style="stroke:#181818;stroke-width:1;"/><path d="M397.1439,65.9375 Q396.5658,66.2344 395.9252,66.375 Q395.2846,66.5313 394.5814,66.5313 Q392.0814,66.5313 390.7533,64.8906 Q389.4408,63.2344 389.4408,60.1094 Q389.4408,56.9844 390.7533,55.3281 Q392.0814,53.6719 394.5814,53.6719 Q395.2846,53.6719 395.9252,53.8281 Q396.5814,53.9844 397.1439,54.2813 L397.1439,57 Q396.5189,56.4219 395.9252,56.1563 Q395.3314,55.875 394.7064,55.875 Q393.3627,55.875 392.6752,56.9531 Q391.9877,58.0156 391.9877,60.1094 Q391.9877,62.2031 392.6752,63.2813 Q393.3627,64.3438 394.7064,64.3438 Q395.3314,64.3438 395.9252,64.0781 Q396.5189,63.7969 397.1439,63.2188 L397.1439,65.9375 Z " fill="#000000"/><text fill="#000000" font-family="sans-serif" font-size="14" lengthAdjust="spacing" textLength="82.2295" x="414.6752" y="65.1436">IDE_E_0459</text><line style="stroke:#181818;stroke-width:0.5;" x1="76.6" x2="802.4799" y1="76.2969" y2="76.2969"/><text fill="#000000" font-family="sans-serif" font-size="14" lengthAdjust="spacing" textLength="66.6436" x="95.6" y="93.292">Prozesse:</text><rect fill="none" height="6" style="stroke:#C82930;stroke-width:1;" width="6" x="83.6" y="103.2422"/><text fill="#000000" font-family="sans-serif" font-size="14" lengthAdjust="spacing" textLength="180.3457" x="95.6" y="109.5889">Netznutzungsabrechnung</text><line style="stroke:#181818;stroke-width:0.5;" x1="76.6" x2="802.4799" y1="116.8906" y2="116.8906"/><text fill="#000000" font-family="sans-serif" font-size="14" lengthAdjust="spacing" textLength="715.8799" x="81.6" y="133.8857">Name: EBD Nr. E_0459 EBD zur Pr&#252;fung f&#252;r die Antwort auf eine Stornierung (Netznutzungsrechnung)</text></g><!--class IDE_E_0459_msg_1--><g class="entity" data-entity="IDE_E_0459_msg_1" data-source-line="7" data-uid="ent0003" id="entity_IDE_E_0459_msg_1"><rect fill="#F1F1F1" height="145.7813" rx="2.5" ry="2.5" style="stroke:#181818;stroke-width:0.5;" width="303.0811" x="7" y="218.1869"/><ellipse cx="86.813" cy="234.1869" fill="#ADD1B2" rx="11" ry="11" style="stroke:#181818;stroke-width:1;"/><path d="M89.7817,239.8275 Q89.2036,240.1244 88.563,240.265 Q87.9224,240.4213 87.2192,240.4213 Q84.7192,240.4213 83.3911,238.7806 Q82.0786,237.1244 82.0786,233.9994 Q82.0786,230.8744 83.3911,229.2181 Q84.7192,227.5619 87.2192,227.5619 Q87.9224,227.5619 88.563,227.7181 Q89.2192,227.8744 89.7817,228.1713 L89.7817,230.89 Q89.1567,230.3119 88.563,230.0463 Q87.9692,229.765 87.3442,229.765 Q86.0005,229.765 85.313,230.8431 Q84.6255,231.9056 84.6255,233.9994 Q84.6255,236.0931 85.313,237.1713 Q86.0005,238.2338 87.3442,238.2338 Q87.9692,238.2338 88.563,237.9681 Q89.1567,237.6869 89.7817,237.1088 L89.7817,239.8275 Z " fill="#000000"/><text fill="#000000" font-family="sans-serif" font-size="14" lengthAdjust="spacing" textLength="134.9551" x="107.313" y="239.0336">IDE_E_0459_msg_1</text><line style="stroke:#181818;stroke-width:0.5;" x1="8" x2="309.0811" y1="250.1869" y2="250.1869"/><text fill="#000000" font-family="sans-serif" font-size="14" lengthAdjust="spacing" textLength="171.4932" x="13" y="267.182">Nachricht: REMADV 2.9c</text><text fill="#000000" font-family="sans-serif" font-size="14" lengthAdjust="spacing" textLength="170.3447" x="13" y="283.4789">Kontext: Segmentlayout</text><text fill="#000000" font-family="sans-serif" font-size="14" lengthAdjust="spacing" textLength="91.4033" x="13" y="299.7757">Pflichtfeld: Ja</text><text fill="#000000" font-family="sans-serif" font-size="14" lengthAdjust="spacing" textLength="282.1943" x="13" y="316.0726">Codes: EBD, ESA, LF, MGV, MSB, NB, NN</text><text fill="#000000" font-family="sans-serif" font-size="14" lengthAdjust="spacing" textLength="251.4395" x="13" y="332.3695">Prozesse: Netznutzungsabrechnung</text><text fill="#000000" font-family="sans-serif" font-size="14" lengthAdjust="spacing" textLength="291.0811" x="13" y="348.6664">Quelle: REMADV_MIG_2.9c_20231024.pdf</text><line style="stroke:#181818;stroke-width:0.5;" x1="8" x2="309.0811" y1="355.9681" y2="355.9681"/></g><!--class IDE_E_0459_proc_1--><g class="entity" data-entity="IDE_E_0459_proc_1" data-source-line="16" data-uid="ent0005" id="entity_IDE_E_0459_proc_1"><rect fill="#F1F1F1" height="105.1563" rx="2.5" ry="2.5" style="stroke:#181818;stroke-width:0.5;" width="752.6465" x="345.22" y="238.4969"/><ellipse cx="649.2722" cy="258.6297" fill="#ADD1B2" rx="11" ry="11" style="stroke:#181818;stroke-width:1;"/><path d="M652.241,264.2703 Q651.6629,264.5672 651.0222,264.7078 Q650.3816,264.8641 649.6785,264.8641 Q647.1785,264.8641 645.8504,263.2234 Q644.5379,261.5672 644.5379,258.4422 Q644.5379,255.3172 645.8504,253.6609 Q647.1785,252.0047 649.6785,252.0047 Q650.3816,252.0047 651.0222,252.1609 Q651.6785,252.3172 652.241,252.6141 L652.241,255.3328 Q651.616,254.7547 651.0222,254.4891 Q650.4285,254.2078 649.8035,254.2078 Q648.4597,254.2078 647.7722,255.2859 Q647.0847,256.3484 647.0847,258.4422 Q647.0847,260.5359 647.7722,261.6141 Q648.4597,262.6766 649.8035,262.6766 Q650.4285,262.6766 651.0222,262.4109 Q651.616,262.1297 652.241,261.5516 L652.241,264.2703 Z " fill="#000000"/><text fill="#000000" font-family="sans-serif" font-size="12" font-style="italic" lengthAdjust="spacing" textLength="61.0605" x="707.263" y="254.6355">&#171;process&#187;</text><text fill="#000000" font-family="sans-serif" font-size="14" lengthAdjust="spacing" textLength="136.042" x="669.7722" y="270.4607">IDE_E_0459_proc_1</text><line style="stroke:#181818;stroke-width:0.5;" x1="346.22" x2="1096.8665" y1="278.7625" y2="278.7625"/><text fill="#000000" font-family="sans-serif" font-size="14" lengthAdjust="spacing" textLength="180.3457" x="351.22" y="295.7576">Netznutzungsabrechnung</text><text fill="#000000" font-family="sans-serif" font-size="14" lengthAdjust="spacing" textLength="218.0938" x="351.22" y="312.0545">Gesetze: StromNEV, StromNZV</text><text fill="#000000" font-family="sans-serif" font-size="14" lengthAdjust="spacing" textLength="740.6465" x="351.22" y="328.3514">Zusammenfassung: Wie funktioniert die Netznutzungsabrechnung zwischen Netzbetreiber und Lieferant?</text><line style="stroke:#181818;stroke-width:0.5;" x1="346.22" x2="1096.8665" y1="335.6531" y2="335.6531"/></g><!--link IDE_E_0459 to IDE_E_0459_msg_1--><g class="link" data-entity-1="IDE_E_0459" data-entity-2="IDE_E_0459_msg_1" data-source-line="15" data-uid="lnk4" id="link_IDE_E_0459_IDE_E_0459_msg_1"><path codeLine="15" d="M371.16,141.5169 C338.34,164.4469 303.2486,188.9707 266.8186,214.4207" fill="none" id="IDE_E_0459-to-IDE_E_0459_msg_1" style="stroke:#181818;stroke-width:1;"/><polygon fill="#181818" points="261.9,217.8569,271.5687,215.9817,265.9989,214.9934,266.9872,209.4236,261.9,217.8569" style="stroke:#181818;stroke-width:1;"/><text fill="#000000" font-family="sans-serif" font-size="13" lengthAdjust="spacing" textLength="85.2363" x="325.54" y="184.2538">verwendet in</text></g><!--link IDE_E_0459 to IDE_E_0459_proc_1--><g class="link" data-entity-1="IDE_E_0459" data-entity-2="IDE_E_0459_proc_1" data-source-line="21" data-uid="lnk6" id="link_IDE_E_0459_IDE_E_0459_proc_1"><path codeLine="21" d="M508.16,141.5169 C550.15,170.7469 598.9461,204.7182 641.9861,234.6882" fill="none" id="IDE_E_0459-to-IDE_E_0459_proc_1" style="stroke:#181818;stroke-width:1;stroke-dasharray:7,7;"/><polygon fill="#181818" points="646.91,238.1169,641.81,229.6913,642.8068,235.2597,637.2384,236.2565,646.91,238.1169" style="stroke:#181818;stroke-width:1;"/><text fill="#000000" font-family="sans-serif" font-size="13" lengthAdjust="spacing" textLength="91.6221" x="573.54" y="184.2538">eingebettet in</text></g><!--SRC=[TLB1Ji904Btp5NFK11f4FT0O34ebAZHe4qoyD4ixXOtjBjcTYjRuPzpyCMSB91ZmqCtiUoyxxysK9EK80q6e1EN2GWlk1u4VnEsBosuZOSGw8Du0yDK024M1FWGt0mYD1rl2NQlImCJyhBDIpI7xMHj89K9VqKeR0b5cW58XHAIDacYSwYH4gbH95L-imMIXk3Zb9XEZAxGMVQw1JUthn6odR7mVM8mBEu_FjaQJXP79Wdnu3iRzmHGwNZTXub4hmW-68vmNg3Ztfox9TSrofyymJtru48pSwXHjdRO9GTHlmkYk2UFXb8_efWcX-y9zl_yv1NWgCSznvoKUtmzZvoVkj3ldP-tEXRTCCmwqD-rMgtUOp8TtD2jKAH98TPX_QNJ2igihLx2bNcypZFzi3T4onRuYChe80uwsgLwdpBwMLXGyeuoxiDw75rufB_YDf7PBf7h7nn-7QYLjia1LypCaWtA61agLmaXYXaOekluRsVDwHyBuxi-P8pz1TUfV]--></g></svg>