<svg xmlns="http://www.w3.org/2000/svg" xmlns:xlink="http://www.w3.org/1999/xlink" contentStyleType="text/css" data-diagram-type="CLASS" height="387px" preserveAspectRatio="none" style="width:2022px;height:387px;background:#FFFFFF;" version="1.1" viewBox="0 0 2022 387" width="2022px" zoomAndPan="magnify"><title>Datenatlas - IDE:E_0568</title><defs/><g><g class="title" data-source-line="1"><text fill="#000000" font-family="sans-serif" font-size="14" font-weight="bold" lengthAdjust="spacing" textLength="189.0205" x="909.558" y="22.9951">Datenatlas - IDE:E_0568</text></g><!--class IDE_E_0568--><g class="entity" data-entity="IDE_E_0568" data-source-line="2" data-uid="ent0002" id="entity_IDE_E_0568"><rect fill="#F1F1F1" height="113.1875" rx="2.5" ry="2.5" style="stroke:#181818;stroke-width:0.5;" width="696.5371" x="534.54" y="44.2969"/><ellipse cx="837.4438" cy="60.2969" fill="#ADD1B2" rx="11" ry="11" style="stroke:#181818;stroke-width:1;"/><path d="M840.4126,65.9375 Q839.8344,66.2344 839.1938,66.375 Q838.5532,66.5313 837.8501,66.5313 Q835.3501,66.5313 834.0219,64.8906 Q832.7094,63.2344 832.7094,60.1094 Q832.7094,56.9844 834.0219,55.3281 Q835.3501,53.6719 837.8501,53.6719 Q838.5532,53.6719 839.1938,53.8281 Q839.8501,53.9844 840.4126,54.2813 L840.4126,57 Q839.7876,56.4219 839.1938,56.1563 Q838.6001,55.875 837.9751,55.875 Q836.6313,55.875 835.9438,56.9531 Q835.2563,58.0156 835.2563,60.1094 Q835.2563,62.2031 835.9438,63.2813 Q836.6313,64.3438 837.9751,64.3438 Q838.6001,64.3438 839.1938,64.0781 Q839.7876,63.7969 840.4126,63.2188 L840.4126,65.9375 Z " fill="#000000"/><text fill="#000000" font-family="sans-serif" font-size="14" lengthAdjust="spacing" textLength="82.2295" x="857.9438" y="65.1436">IDE_E_0568</text><line style="stroke:#181818;stroke-width:0.5;" x1="535.54" x2="1230.0771" y1="76.2969" y2="76.2969"/><text fill="#000000" font-family="sans-serif" font-size="14" lengthAdjust="spacing" textLength="670.5371" x="554.54" y="93.292">Name: EBD Nr. E_0568 erneut Rechnung Messstellenbetrieb mit iMS gegen&#252;ber dem NB pr&#252;fen</text><text fill="#000000" font-family="sans-serif" font-size="14" lengthAdjust="spacing" textLength="66.6436" x="554.54" y="109.5889">Prozesse:</text><rect fill="none" height="6" style="stroke:#C82930;stroke-width:1;" width="6" x="542.54" y="119.5391"/><text fill="#000000" font-family="sans-serif" font-size="14" lengthAdjust="spacing" textLength="223.2822" x="554.54" y="125.8857">Messstellenbetriebsabrechnung</text><rect fill="none" height="6" style="stroke:#C82930;stroke-width:1;" width="6" x="542.54" y="135.8359"/><text fill="#000000" font-family="sans-serif" font-size="14" lengthAdjust="spacing" textLength="180.3457" x="554.54" y="142.1826">Netznutzungsabrechnung</text><line style="stroke:#181818;stroke-width:0.5;" x1="535.54" x2="1230.0771" y1="149.4844" y2="149.4844"/></g><!--class IDE_E_0568_msg_1--><g class="entity" data-entity="IDE_E_0568_msg_1" data-source-line="8" data-uid="ent0003" id="entity_IDE_E_0568_msg_1"><rect fill="#F1F1F1" height="145.7813" rx="2.5" ry="2.5" style="stroke:#181818;stroke-width:0.5;" width="495.6221" x="7" y="234.4869"/><ellipse cx="183.0835" cy="250.4869" fill="#ADD1B2" rx="11" ry="11" style="stroke:#181818;stroke-width:1;"/><path d="M186.0522,256.1275 Q185.4741,256.4244 184.8335,256.565 Q184.1929,256.7213 183.4897,256.7213 Q180.9897,256.7213 179.6616,255.0806 Q178.3491,253.4244 178.3491,250.2994 Q178.3491,247.1744 179.6616,245.5181 Q180.9897,243.8619 183.4897,243.8619 Q184.1929,243.8619 184.8335,244.0181 Q185.4897,244.1744 186.0522,244.4713 L186.0522,247.19 Q185.4272,246.6119 184.8335,246.3463 Q184.2397,246.065 183.6147,246.065 Q182.271,246.065 181.5835,247.1431 Q180.896,248.2056 180.896,250.2994 Q180.896,252.3931 181.5835,253.4713 Q182.271,254.5338 183.6147,254.5338 Q184.2397,254.5338 184.8335,254.2681 Q185.4272,253.9869 186.0522,253.4088 L186.0522,256.1275 Z " fill="#000000"/><text fill="#000000" font-family="sans-serif" font-size="14" lengthAdjust="spacing" textLength="134.9551" x="203.5835" y="255.3336">IDE_E_0568_msg_1</text><line style="stroke:#181818;stroke-width:0.5;" x1="8" x2="501.6221" y1="266.4869" y2="266.4869"/><text fill="#000000" font-family="sans-serif" font-size="14" lengthAdjust="spacing" textLength="171.4932" x="13" y="283.482">Nachricht: REMADV 2.9c</text><text fill="#000000" font-family="sans-serif" font-size="14" lengthAdjust="spacing" textLength="170.3447" x="13" y="299.7789">Kontext: Segmentlayout</text><text fill="#000000" font-family="sans-serif" font-size="14" lengthAdjust="spacing" textLength="91.4033" x="13" y="316.0757">Pflichtfeld: Ja</text><text fill="#000000" font-family="sans-serif" font-size="14" lengthAdjust="spacing" textLength="282.1943" x="13" y="332.3726">Codes: EBD, ESA, LF, MGV, MSB, NB, NN</text><text fill="#000000" font-family="sans-serif" font-size="14" lengthAdjust="spacing" textLength="483.6221" x="13" y="348.6695">Prozesse: Messstellenbetriebsabrechnung, Netznutzungsabrechnung</text><text fill="#000000" font-family="sans-serif" font-size="14" lengthAdjust="spacing" textLength="291.0811" x="13" y="364.9664">Quelle: REMADV_MIG_2.9c_20231024.pdf</text><line style="stroke:#181818;stroke-width:0.5;" x1="8" x2="501.6221" y1="372.2681" y2="372.2681"/></g><!--class IDE_E_0568_proc_1--><g class="entity" data-entity="IDE_E_0568_proc_1" data-source-line="17" data-uid="ent0005" id="entity_IDE_E_0568_proc_1"><rect fill="#F1F1F1" height="105.1563" rx="2.5" ry="2.5" style="stroke:#181818;stroke-width:0.5;" width="690.2275" x="537.7" y="254.7969"/><ellipse cx="810.5428" cy="274.9297" fill="#ADD1B2" rx="11" ry="11" style="stroke:#181818;stroke-width:1;"/><path d="M813.5115,280.5703 Q812.9334,280.8672 812.2928,281.0078 Q811.6521,281.1641 810.949,281.1641 Q808.449,281.1641 807.1209,279.5234 Q805.8084,277.8672 805.8084,274.7422 Q805.8084,271.6172 807.1209,269.9609 Q808.449,268.3047 810.949,268.3047 Q811.6521,268.3047 812.2928,268.4609 Q812.949,268.6172 813.5115,268.9141 L813.5115,271.6328 Q812.8865,271.0547 812.2928,270.7891 Q811.699,270.5078 811.074,270.5078 Q809.7303,270.5078 809.0428,271.5859 Q808.3553,272.6484 808.3553,274.7422 Q808.3553,276.8359 809.0428,277.9141 Q809.7303,278.9766 811.074,278.9766 Q811.699,278.9766 812.2928,278.7109 Q812.8865,278.4297 813.5115,277.8516 L813.5115,280.5703 Z " fill="#000000"/><text fill="#000000" font-family="sans-serif" font-size="12" font-style="italic" lengthAdjust="spacing" textLength="61.0605" x="868.5335" y="270.9355">&#171;process&#187;</text><text fill="#000000" font-family="sans-serif" font-size="14" lengthAdjust="spacing" textLength="136.042" x="831.0428" y="286.7607">IDE_E_0568_proc_1</text><line style="stroke:#181818;stroke-width:0.5;" x1="538.7" x2="1226.9275" y1="295.0625" y2="295.0625"/><text fill="#000000" font-family="sans-serif" font-size="14" lengthAdjust="spacing" textLength="223.2822" x="543.7" y="312.0576">Messstellenbetriebsabrechnung</text><text fill="#000000" font-family="sans-serif" font-size="14" lengthAdjust="spacing" textLength="105.0957" x="543.7" y="328.3545">Gesetze: MsbG</text><text fill="#000000" font-family="sans-serif" font-size="14" lengthAdjust="spacing" textLength="678.2275" x="543.7" y="344.6514">Zusammenfassung: Beschreibe den Prozess der Abrechnung von Messstellenbetriebsleistungen.</text><line style="stroke:#181818;stroke-width:0.5;" x1="538.7" x2="1226.9275" y1="351.9531" y2="351.9531"/></g><!--class IDE_E_0568_proc_2--><g class="entity" data-entity="IDE_E_0568_proc_2" data-source-line="23" data-uid="ent0007" id="entity_IDE_E_0568_proc_2"><rect fill="#F1F1F1" height="105.1563" rx="2.5" ry="2.5" style="stroke:#181818;stroke-width:0.5;" width="752.6465" x="1262.49" y="254.7969"/><ellipse cx="1566.5422" cy="274.9297" fill="#ADD1B2" rx="11" ry="11" style="stroke:#181818;stroke-width:1;"/><path d="M1569.511,280.5703 Q1568.9329,280.8672 1568.2922,281.0078 Q1567.6516,281.1641 1566.9485,281.1641 Q1564.4485,281.1641 1563.1204,279.5234 Q1561.8079,277.8672 1561.8079,274.7422 Q1561.8079,271.6172 1563.1204,269.9609 Q1564.4485,268.3047 1566.9485,268.3047 Q1567.6516,268.3047 1568.2922,268.4609 Q1568.9485,268.6172 1569.511,268.9141 L1569.511,271.6328 Q1568.886,271.0547 1568.2922,270.7891 Q1567.6985,270.5078 1567.0735,270.5078 Q1565.7297,270.5078 1565.0422,271.5859 Q1564.3547,272.6484 1564.3547,274.7422 Q1564.3547,276.8359 1565.0422,277.9141 Q1565.7297,278.9766 1567.0735,278.9766 Q1567.6985,278.9766 1568.2922,278.7109 Q1568.886,278.4297 1569.511,277.8516 L1569.511,280.5703 Z " fill="#000000"/><text fill="#000000" font-family="sans-serif" font-size="12" font-style="italic" lengthAdjust="spacing" textLength="61.0605" x="1624.533" y="270.9355">&#171;process&#187;</text><text fill="#000000" font-family="sans-serif" font-size="14" lengthAdjust="spacing" textLength="136.042" x="1587.0422" y="286.7607">IDE_E_0568_proc_2</text><line style="stroke:#181818;stroke-width:0.5;" x1="1263.49" x2="2014.1365" y1="295.0625" y2="295.0625"/><text fill="#000000" font-family="sans-serif" font-size="14" lengthAdjust="spacing" textLength="180.3457" x="1268.49" y="312.0576">Netznutzungsabrechnung</text><text fill="#000000" font-family="sans-serif" font-size="14" lengthAdjust="spacing" textLength="218.0938" x="1268.49" y="328.3545">Gesetze: StromNEV, StromNZV</text><text fill="#000000" font-family="sans-serif" font-size="14" lengthAdjust="spacing" textLength="740.6465" x="1268.49" y="344.6514">Zusammenfassung: Wie funktioniert die Netznutzungsabrechnung zwischen Netzbetreiber und Lieferant?</text><line style="stroke:#181818;stroke-width:0.5;" x1="1263.49" x2="2014.1365" y1="351.9531" y2="351.9531"/></g><!--link IDE_E_0568 to IDE_E_0568_msg_1--><g class="link" data-entity-1="IDE_E_0568" data-entity-2="IDE_E_0568_msg_1" data-source-line="16" data-uid="lnk4" id="link_IDE_E_0568_IDE_E_0568_msg_1"><path codeLine="16" d="M710.79,157.9069 C638.62,181.4069 559.4752,207.1792 482.6652,232.1892" fill="none" id="IDE_E_0568-to-IDE_E_0568_msg_1" style="stroke:#181818;stroke-width:1;"/><polygon fill="#181818" points="476.96,234.0469,486.7562,235.0638,481.7143,232.4988,484.2793,227.4569,476.96,234.0469" style="stroke:#181818;stroke-width:1;"/><text fill="#000000" font-family="sans-serif" font-size="13" lengthAdjust="spacing" textLength="85.2363" x="607.81" y="200.5538">verwendet in</text></g><!--link IDE_E_0568 to IDE_E_0568_proc_1--><g class="link" data-entity-1="IDE_E_0568" data-entity-2="IDE_E_0568_proc_1" data-source-line="22" data-uid="lnk6" id="link_IDE_E_0568_IDE_E_0568_proc_1"><path codeLine="22" d="M882.81,157.7669 C882.81,187.9169 882.81,218.9069 882.81,248.4269" fill="none" id="IDE_E_0568-to-IDE_E_0568_proc_1" style="stroke:#181818;stroke-width:1;stroke-dasharray:7,7;"/><polygon fill="#181818" points="882.81,254.4269,886.81,245.4269,882.81,249.4269,878.81,245.4269,882.81,254.4269" style="stroke:#181818;stroke-width:1;"/><text fill="#000000" font-family="sans-serif" font-size="13" lengthAdjust="spacing" textLength="91.6221" x="883.81" y="200.5538">eingebettet in</text></g><!--link IDE_E_0568 to IDE_E_0568_proc_2--><g class="link" data-entity-1="IDE_E_0568" data-entity-2="IDE_E_0568_proc_2" data-source-line="28" data-uid="lnk8" id="link_IDE_E_0568_IDE_E_0568_proc_2"><path codeLine="28" d="M1090.14,157.9669 C1201.39,188.0669 1331.8182,223.3401 1440.6882,252.7901" fill="none" id="IDE_E_0568-to-IDE_E_0568_proc_2" style="stroke:#181818;stroke-width:1;stroke-dasharray:7,7;"/><polygon fill="#181818" points="1446.48,254.3569,1438.8367,248.1456,1441.6535,253.0513,1436.7478,255.868,1446.48,254.3569" style="stroke:#181818;stroke-width:1;"/><text fill="#000000" font-family="sans-serif" font-size="13" lengthAdjust="spacing" textLength="91.6221" x="1261.81" y="200.5538">eingebettet in</text></g><!--SRC=[XP7TJjj048NlUOfv0CSAxezQ2mKbZHlHOgl5Kf2uiVnpdAnghwFTCRH1VJFkUB7EGa2f7E32rkpCxEpvph3Y1ZJF6Jhd9hSqehDv54RP-CF7JqUbPAnBP8y9kZqYIl8M8KMpEIN6frq1HgDdka2vrhrUKGnhBQDfe0kmKIYeLKmgJcc55VJzNG535LfAPhGnztSrjCp-ORgjt4GeCOcMuHYR5sRtoAud0Mzrprl9x1V_3jHdhLrbnpk6ScrKkUQGBg9uEbzIu7ykfV2zqupVaawnQg75aZzTpqvPtRZ-6aqLqhTSCb-w2lR128-YTEhH-LUFuiLIVkdC4oxvadscrscybq28VlRkpfFKB3vRP4vk5eo3TyVZuBs_gMhXtTlJQ3GPWeTq3NC3NK4MeOVsR4nNIjl9YGj4wcJouDLRErZ0Yd27Puk5dAzwcxVYNItZfIEa6Qou3LL05gwV_93OqFHv45rt-j1J3PHbgKFx_oFw_kI0-92Wf5bkyskKmO3oHVEVyL8sNPj4ij_7w6fv2FPIWUfU_sBLQGN3L4dYy73QtYXnHYnnTGViF3BKwuhE5MgONFFfszJ1WFeV]--></g></svg>