<svg xmlns="http://www.w3.org/2000/svg" xmlns:xlink="http://www.w3.org/1999/xlink" contentStyleType="text/css" data-diagram-type="CLASS" height="436px" preserveAspectRatio="none" style="width:5481px;height:436px;background:#FFFFFF;" version="1.1" viewBox="0 0 5481 436" width="5481px" zoomAndPan="magnify"><title>Datenatlas - IDE:1004</title><defs/><g><g class="title" data-source-line="1"><text fill="#000000" font-family="sans-serif" font-size="14" font-weight="bold" lengthAdjust="spacing" textLength="172.457" x="2647.5007" y="22.9951">Datenatlas - IDE:1004</text></g><!--class IDE_1004--><g class="entity" data-entity="IDE_1004" data-source-line="2" data-uid="ent0002" id="entity_IDE_1004"><rect fill="#F1F1F1" height="162.0781" rx="2.5" ry="2.5" style="stroke:#181818;stroke-width:0.5;" width="374.2021" x="2436.24" y="44.2969"/><ellipse cx="2585.8992" cy="60.2969" fill="#ADD1B2" rx="11" ry="11" style="stroke:#181818;stroke-width:1;"/><path d="M2588.8679,65.9375 Q2588.2898,66.2344 2587.6492,66.375 Q2587.0086,66.5313 2586.3054,66.5313 Q2583.8054,66.5313 2582.4773,64.8906 Q2581.1648,63.2344 2581.1648,60.1094 Q2581.1648,56.9844 2582.4773,55.3281 Q2583.8054,53.6719 2586.3054,53.6719 Q2587.0086,53.6719 2587.6492,53.8281 Q2588.3054,53.9844 2588.8679,54.2813 L2588.8679,57 Q2588.2429,56.4219 2587.6492,56.1563 Q2587.0554,55.875 2586.4304,55.875 Q2585.0867,55.875 2584.3992,56.9531 Q2583.7117,58.0156 2583.7117,60.1094 Q2583.7117,62.2031 2584.3992,63.2813 Q2585.0867,64.3438 2586.4304,64.3438 Q2587.0554,64.3438 2587.6492,64.0781 Q2588.2429,63.7969 2588.8679,63.2188 L2588.8679,65.9375 Z " fill="#000000"/><text fill="#000000" font-family="sans-serif" font-size="14" lengthAdjust="spacing" textLength="66.3838" x="2606.3992" y="65.1436">IDE_1004</text><line style="stroke:#181818;stroke-width:0.5;" x1="2437.24" x2="2809.4421" y1="76.2969" y2="76.2969"/><text fill="#000000" font-family="sans-serif" font-size="14" lengthAdjust="spacing" textLength="268.7959" x="2456.24" y="93.292">Name: Identifikator des EDI Standards</text><text fill="#000000" font-family="sans-serif" font-size="14" lengthAdjust="spacing" textLength="66.6436" x="2456.24" y="109.5889">Prozesse:</text><rect fill="none" height="6" style="stroke:#C82930;stroke-width:1;" width="6" x="2444.24" y="119.5391"/><text fill="#000000" font-family="sans-serif" font-size="14" lengthAdjust="spacing" textLength="180.3457" x="2456.24" y="125.8857">Netznutzungsabrechnung</text><rect fill="none" height="6" style="stroke:#C82930;stroke-width:1;" width="6" x="2444.24" y="135.8359"/><text fill="#000000" font-family="sans-serif" font-size="14" lengthAdjust="spacing" textLength="223.2822" x="2456.24" y="142.1826">Messstellenbetriebsabrechnung</text><rect fill="none" height="6" style="stroke:#C82930;stroke-width:1;" width="6" x="2444.24" y="152.1328"/><text fill="#000000" font-family="sans-serif" font-size="14" lengthAdjust="spacing" textLength="334.3525" x="2456.24" y="158.4795">Anforderung und &#220;bermittlung von Messwerten</text><line style="stroke:#181818;stroke-width:0.5;" x1="2437.24" x2="2809.4421" y1="165.7813" y2="165.7813"/><rect fill="#F24D5C" height="6" style="stroke:#C82930;stroke-width:1;" width="6" x="2444.24" y="176.4297"/><text fill="#000000" font-family="sans-serif" font-size="14" lengthAdjust="spacing" textLength="311.0557" x="2456.24" y="182.7764">Z&#228;hlerwechsel und Ger&#228;te&#252;bernahme (WiM)</text><rect fill="#F24D5C" height="6" style="stroke:#C82930;stroke-width:1;" width="6" x="2444.24" y="192.7266"/><text fill="#000000" font-family="sans-serif" font-size="14" lengthAdjust="spacing" textLength="348.2021" x="2456.24" y="199.0732">Bestellung einer technischen Konfiguration (MSB)</text></g><!--class IDE_1004_msg_1--><g class="entity" data-entity="IDE_1004_msg_1" data-source-line="11" data-uid="ent0003" id="entity_IDE_1004_msg_1"><rect fill="#F1F1F1" height="145.7813" rx="2.5" ry="2.5" style="stroke:#181818;stroke-width:0.5;" width="1172.6807" x="7" y="283.3769"/><ellipse cx="529.5356" cy="299.3769" fill="#ADD1B2" rx="11" ry="11" style="stroke:#181818;stroke-width:1;"/><path d="M532.5044,305.0175 Q531.9263,305.3144 531.2856,305.455 Q530.645,305.6113 529.9419,305.6113 Q527.4419,305.6113 526.1138,303.9706 Q524.8013,302.3144 524.8013,299.1894 Q524.8013,296.0644 526.1138,294.4081 Q527.4419,292.7519 529.9419,292.7519 Q530.645,292.7519 531.2856,292.9081 Q531.9419,293.0644 532.5044,293.3613 L532.5044,296.08 Q531.8794,295.5019 531.2856,295.2363 Q530.6919,294.955 530.0669,294.955 Q528.7231,294.955 528.0356,296.0331 Q527.3481,297.0956 527.3481,299.1894 Q527.3481,301.2831 528.0356,302.3613 Q528.7231,303.4238 530.0669,303.4238 Q530.6919,303.4238 531.2856,303.1581 Q531.8794,302.8769 532.5044,302.2988 L532.5044,305.0175 Z " fill="#000000"/><text fill="#000000" font-family="sans-serif" font-size="14" lengthAdjust="spacing" textLength="119.1094" x="550.0356" y="304.2236">IDE_1004_msg_1</text><line style="stroke:#181818;stroke-width:0.5;" x1="8" x2="1178.6807" y1="315.3769" y2="315.3769"/><text fill="#000000" font-family="sans-serif" font-size="14" lengthAdjust="spacing" textLength="161.1982" x="13" y="332.372">Nachricht: INVOIC 2.8d</text><text fill="#000000" font-family="sans-serif" font-size="14" lengthAdjust="spacing" textLength="651.4033" x="13" y="348.6689">Kontext: Nachberechnung im Zuge der Erstellung vorl&#228;ufiger Monatsrechnungen verwendet.</text><text fill="#000000" font-family="sans-serif" font-size="14" lengthAdjust="spacing" textLength="91.4033" x="13" y="364.9657">Pflichtfeld: Ja</text><text fill="#000000" font-family="sans-serif" font-size="14" lengthAdjust="spacing" textLength="593.8516" x="13" y="381.2626">Codes: 06, 07, 12, 30, 31, BK7, JVR, MMM, MSB, MVR, NAP, WIM, Z43, Z44, Z45, ZVR</text><text fill="#000000" font-family="sans-serif" font-size="14" lengthAdjust="spacing" textLength="396.6074" x="13" y="397.5595">Quelle: INVOIC_MIG_2.8d_Fehlerkorrektur_20250131.pdf</text><line style="stroke:#181818;stroke-width:0.5;" x1="8" x2="1178.6807" y1="404.8613" y2="404.8613"/><text fill="#000000" font-family="sans-serif" font-size="14" lengthAdjust="spacing" textLength="1160.6807" x="13" y="421.8564">Prozesse: Z&#228;hlerwechsel und Ger&#228;te&#252;bernahme (WiM), Netznutzungsabrechnung, Messstellenbetriebsabrechnung, Bestellung einer technischen Konfiguration (MSB)</text></g><!--class IDE_1004_msg_2--><g class="entity" data-entity="IDE_1004_msg_2" data-source-line="20" data-uid="ent0005" id="entity_IDE_1004_msg_2"><rect fill="#F1F1F1" height="145.7813" rx="2.5" ry="2.5" style="stroke:#181818;stroke-width:0.5;" width="432.9502" x="1214.87" y="283.3769"/><ellipse cx="1367.5404" cy="299.3769" fill="#ADD1B2" rx="11" ry="11" style="stroke:#181818;stroke-width:1;"/><path d="M1370.5092,305.0175 Q1369.931,305.3144 1369.2904,305.455 Q1368.6498,305.6113 1367.9467,305.6113 Q1365.4467,305.6113 1364.1185,303.9706 Q1362.806,302.3144 1362.806,299.1894 Q1362.806,296.0644 1364.1185,294.4081 Q1365.4467,292.7519 1367.9467,292.7519 Q1368.6498,292.7519 1369.2904,292.9081 Q1369.9467,293.0644 1370.5092,293.3613 L1370.5092,296.08 Q1369.8842,295.5019 1369.2904,295.2363 Q1368.6967,294.955 1368.0717,294.955 Q1366.7279,294.955 1366.0404,296.0331 Q1365.3529,297.0956 1365.3529,299.1894 Q1365.3529,301.2831 1366.0404,302.3613 Q1366.7279,303.4238 1368.0717,303.4238 Q1368.6967,303.4238 1369.2904,303.1581 Q1369.8842,302.8769 1370.5092,302.2988 L1370.5092,305.0175 Z " fill="#000000"/><text fill="#000000" font-family="sans-serif" font-size="14" lengthAdjust="spacing" textLength="119.1094" x="1388.0404" y="304.2236">IDE_1004_msg_2</text><line style="stroke:#181818;stroke-width:0.5;" x1="1215.87" x2="1646.8202" y1="315.3769" y2="315.3769"/><text fill="#000000" font-family="sans-serif" font-size="14" lengthAdjust="spacing" textLength="172.0264" x="1220.87" y="332.372">Nachricht: MSCONS 2.4c</text><text fill="#000000" font-family="sans-serif" font-size="14" lengthAdjust="spacing" textLength="345.3105" x="1220.87" y="348.6689">Kontext: Ersatzprofilbestimmung und Skalierung.</text><text fill="#000000" font-family="sans-serif" font-size="14" lengthAdjust="spacing" textLength="91.4033" x="1220.87" y="364.9657">Pflichtfeld: Ja</text><text fill="#000000" font-family="sans-serif" font-size="14" lengthAdjust="spacing" textLength="233.0713" x="1220.87" y="381.2626">Codes: OCR, ZQ8, ZQ9, ZR0, ZS0</text><text fill="#000000" font-family="sans-serif" font-size="14" lengthAdjust="spacing" textLength="405.4463" x="1220.87" y="397.5595">Prozesse: Anforderung und &#220;bermittlung von Messwerten</text><text fill="#000000" font-family="sans-serif" font-size="14" lengthAdjust="spacing" textLength="420.9502" x="1220.87" y="413.8564">Quelle: MSCONS_MIG_2_4c_au&#223;erordentliche_20240726.pdf</text><line style="stroke:#181818;stroke-width:0.5;" x1="1215.87" x2="1646.8202" y1="421.1581" y2="421.1581"/></g><!--class IDE_1004_proc_1--><g class="entity" data-entity="IDE_1004_proc_1" data-source-line="29" data-uid="ent0007" id="entity_IDE_1004_proc_1"><rect fill="#F1F1F1" height="105.1563" rx="2.5" ry="2.5" style="stroke:#181818;stroke-width:0.5;" width="528.5234" x="1683.08" y="303.6869"/><ellipse cx="1882.9936" cy="323.8197" fill="#ADD1B2" rx="11" ry="11" style="stroke:#181818;stroke-width:1;"/><path d="M1885.9623,329.4603 Q1885.3842,329.7572 1884.7436,329.8978 Q1884.1029,330.0541 1883.3998,330.0541 Q1880.8998,330.0541 1879.5717,328.4134 Q1878.2592,326.7572 1878.2592,323.6322 Q1878.2592,320.5072 1879.5717,318.8509 Q1880.8998,317.1947 1883.3998,317.1947 Q1884.1029,317.1947 1884.7436,317.3509 Q1885.3998,317.5072 1885.9623,317.8041 L1885.9623,320.5228 Q1885.3373,319.9447 1884.7436,319.6791 Q1884.1498,319.3978 1883.5248,319.3978 Q1882.1811,319.3978 1881.4936,320.4759 Q1880.8061,321.5384 1880.8061,323.6322 Q1880.8061,325.7259 1881.4936,326.8041 Q1882.1811,327.8666 1883.5248,327.8666 Q1884.1498,327.8666 1884.7436,327.6009 Q1885.3373,327.3197 1885.9623,326.7416 L1885.9623,329.4603 Z " fill="#000000"/><text fill="#000000" font-family="sans-serif" font-size="12" font-style="italic" lengthAdjust="spacing" textLength="61.0605" x="1933.0614" y="319.8255">&#171;process&#187;</text><text fill="#000000" font-family="sans-serif" font-size="14" lengthAdjust="spacing" textLength="120.1963" x="1903.4936" y="335.6507">IDE_1004_proc_1</text><line style="stroke:#181818;stroke-width:0.5;" x1="1684.08" x2="2210.6034" y1="343.9525" y2="343.9525"/><text fill="#000000" font-family="sans-serif" font-size="14" lengthAdjust="spacing" textLength="105.0957" x="1689.08" y="360.9476">Gesetze: MsbG</text><text fill="#000000" font-family="sans-serif" font-size="14" lengthAdjust="spacing" textLength="516.5234" x="1689.08" y="377.2445">Zusammenfassung: Erl&#228;utere den Gesch&#228;ftsprozess 'Z&#228;hlerwechsel' bzw.</text><line style="stroke:#181818;stroke-width:0.5;" x1="1684.08" x2="2210.6034" y1="384.5463" y2="384.5463"/><text fill="#000000" font-family="sans-serif" font-size="14" lengthAdjust="spacing" textLength="311.0557" x="1689.08" y="401.5414">Z&#228;hlerwechsel und Ger&#228;te&#252;bernahme (WiM)</text></g><!--class IDE_1004_proc_2--><g class="entity" data-entity="IDE_1004_proc_2" data-source-line="35" data-uid="ent0009" id="entity_IDE_1004_proc_2"><rect fill="#F1F1F1" height="105.1563" rx="2.5" ry="2.5" style="stroke:#181818;stroke-width:0.5;" width="752.6465" x="2247.02" y="303.6869"/><ellipse cx="2558.9951" cy="323.8197" fill="#ADD1B2" rx="11" ry="11" style="stroke:#181818;stroke-width:1;"/><path d="M2561.9638,329.4603 Q2561.3857,329.7572 2560.7451,329.8978 Q2560.1045,330.0541 2559.4013,330.0541 Q2556.9013,330.0541 2555.5732,328.4134 Q2554.2607,326.7572 2554.2607,323.6322 Q2554.2607,320.5072 2555.5732,318.8509 Q2556.9013,317.1947 2559.4013,317.1947 Q2560.1045,317.1947 2560.7451,317.3509 Q2561.4013,317.5072 2561.9638,317.8041 L2561.9638,320.5228 Q2561.3388,319.9447 2560.7451,319.6791 Q2560.1513,319.3978 2559.5263,319.3978 Q2558.1826,319.3978 2557.4951,320.4759 Q2556.8076,321.5384 2556.8076,323.6322 Q2556.8076,325.7259 2557.4951,326.8041 Q2558.1826,327.8666 2559.5263,327.8666 Q2560.1513,327.8666 2560.7451,327.6009 Q2561.3388,327.3197 2561.9638,326.7416 L2561.9638,329.4603 Z " fill="#000000"/><text fill="#000000" font-family="sans-serif" font-size="12" font-style="italic" lengthAdjust="spacing" textLength="61.0605" x="2609.063" y="319.8255">&#171;process&#187;</text><text fill="#000000" font-family="sans-serif" font-size="14" lengthAdjust="spacing" textLength="120.1963" x="2579.4951" y="335.6507">IDE_1004_proc_2</text><line style="stroke:#181818;stroke-width:0.5;" x1="2248.02" x2="2998.6665" y1="343.9525" y2="343.9525"/><text fill="#000000" font-family="sans-serif" font-size="14" lengthAdjust="spacing" textLength="180.3457" x="2253.02" y="360.9476">Netznutzungsabrechnung</text><text fill="#000000" font-family="sans-serif" font-size="14" lengthAdjust="spacing" textLength="218.0938" x="2253.02" y="377.2445">Gesetze: StromNEV, StromNZV</text><text fill="#000000" font-family="sans-serif" font-size="14" lengthAdjust="spacing" textLength="740.6465" x="2253.02" y="393.5414">Zusammenfassung: Wie funktioniert die Netznutzungsabrechnung zwischen Netzbetreiber und Lieferant?</text><line style="stroke:#181818;stroke-width:0.5;" x1="2248.02" x2="2998.6665" y1="400.8431" y2="400.8431"/></g><!--class IDE_1004_proc_3--><g class="entity" data-entity="IDE_1004_proc_3" data-source-line="41" data-uid="ent0011" id="entity_IDE_1004_proc_3"><rect fill="#F1F1F1" height="105.1563" rx="2.5" ry="2.5" style="stroke:#181818;stroke-width:0.5;" width="690.2275" x="3034.23" y="303.6869"/><ellipse cx="3314.9956" cy="323.8197" fill="#ADD1B2" rx="11" ry="11" style="stroke:#181818;stroke-width:1;"/><path d="M3317.9644,329.4603 Q3317.3863,329.7572 3316.7456,329.8978 Q3316.105,330.0541 3315.4019,330.0541 Q3312.9019,330.0541 3311.5738,328.4134 Q3310.2613,326.7572 3310.2613,323.6322 Q3310.2613,320.5072 3311.5738,318.8509 Q3312.9019,317.1947 3315.4019,317.1947 Q3316.105,317.1947 3316.7456,317.3509 Q3317.4019,317.5072 3317.9644,317.8041 L3317.9644,320.5228 Q3317.3394,319.9447 3316.7456,319.6791 Q3316.1519,319.3978 3315.5269,319.3978 Q3314.1831,319.3978 3313.4956,320.4759 Q3312.8081,321.5384 3312.8081,323.6322 Q3312.8081,325.7259 3313.4956,326.8041 Q3314.1831,327.8666 3315.5269,327.8666 Q3316.1519,327.8666 3316.7456,327.6009 Q3317.3394,327.3197 3317.9644,326.7416 L3317.9644,329.4603 Z " fill="#000000"/><text fill="#000000" font-family="sans-serif" font-size="12" font-style="italic" lengthAdjust="spacing" textLength="61.0605" x="3365.0635" y="319.8255">&#171;process&#187;</text><text fill="#000000" font-family="sans-serif" font-size="14" lengthAdjust="spacing" textLength="120.1963" x="3335.4956" y="335.6507">IDE_1004_proc_3</text><line style="stroke:#181818;stroke-width:0.5;" x1="3035.23" x2="3723.4575" y1="343.9525" y2="343.9525"/><text fill="#000000" font-family="sans-serif" font-size="14" lengthAdjust="spacing" textLength="223.2822" x="3040.23" y="360.9476">Messstellenbetriebsabrechnung</text><text fill="#000000" font-family="sans-serif" font-size="14" lengthAdjust="spacing" textLength="105.0957" x="3040.23" y="377.2445">Gesetze: MsbG</text><text fill="#000000" font-family="sans-serif" font-size="14" lengthAdjust="spacing" textLength="678.2275" x="3040.23" y="393.5414">Zusammenfassung: Beschreibe den Prozess der Abrechnung von Messstellenbetriebsleistungen.</text><line style="stroke:#181818;stroke-width:0.5;" x1="3035.23" x2="3723.4575" y1="400.8431" y2="400.8431"/></g><!--class IDE_1004_proc_4--><g class="entity" data-entity="IDE_1004_proc_4" data-source-line="47" data-uid="ent0013" id="entity_IDE_1004_proc_4"><rect fill="#F1F1F1" height="105.1563" rx="2.5" ry="2.5" style="stroke:#181818;stroke-width:0.5;" width="1301.9961" x="3759.34" y="303.6869"/><ellipse cx="4345.9899" cy="323.8197" fill="#ADD1B2" rx="11" ry="11" style="stroke:#181818;stroke-width:1;"/><path d="M4348.9587,329.4603 Q4348.3805,329.7572 4347.7399,329.8978 Q4347.0993,330.0541 4346.3962,330.0541 Q4343.8962,330.0541 4342.568,328.4134 Q4341.2555,326.7572 4341.2555,323.6322 Q4341.2555,320.5072 4342.568,318.8509 Q4343.8962,317.1947 4346.3962,317.1947 Q4347.0993,317.1947 4347.7399,317.3509 Q4348.3962,317.5072 4348.9587,317.8041 L4348.9587,320.5228 Q4348.3337,319.9447 4347.7399,319.6791 Q4347.1462,319.3978 4346.5212,319.3978 Q4345.1774,319.3978 4344.4899,320.4759 Q4343.8024,321.5384 4343.8024,323.6322 Q4343.8024,325.7259 4344.4899,326.8041 Q4345.1774,327.8666 4346.5212,327.8666 Q4347.1462,327.8666 4347.7399,327.6009 Q4348.3337,327.3197 4348.9587,326.7416 L4348.9587,329.4603 Z " fill="#000000"/><text fill="#000000" font-family="sans-serif" font-size="12" font-style="italic" lengthAdjust="spacing" textLength="61.0605" x="4396.0578" y="319.8255">&#171;process&#187;</text><text fill="#000000" font-family="sans-serif" font-size="14" lengthAdjust="spacing" textLength="120.1963" x="4366.4899" y="335.6507">IDE_1004_proc_4</text><line style="stroke:#181818;stroke-width:0.5;" x1="3760.34" x2="5060.3361" y1="343.9525" y2="343.9525"/><text fill="#000000" font-family="sans-serif" font-size="14" lengthAdjust="spacing" textLength="156.4063" x="3765.34" y="360.9476">Gesetze: MsbG, EnWG</text><text fill="#000000" font-family="sans-serif" font-size="14" lengthAdjust="spacing" textLength="1289.9961" x="3765.34" y="377.2445">Zusammenfassung: Erl&#228;utere den Prozess zur Bestellung einer spezifischen technischen Konfiguration bei einem Messstellenbetreiber, beispielsweise f&#252;r ein intelligentes Messsystem.</text><line style="stroke:#181818;stroke-width:0.5;" x1="3760.34" x2="5060.3361" y1="384.5463" y2="384.5463"/><text fill="#000000" font-family="sans-serif" font-size="14" lengthAdjust="spacing" textLength="348.2021" x="3765.34" y="401.5414">Bestellung einer technischen Konfiguration (MSB)</text></g><!--class IDE_1004_proc_5--><g class="entity" data-entity="IDE_1004_proc_5" data-source-line="53" data-uid="ent0015" id="entity_IDE_1004_proc_5"><rect fill="#F1F1F1" height="105.1563" rx="2.5" ry="2.5" style="stroke:#181818;stroke-width:0.5;" width="378.2285" x="5096.23" y="303.6869"/><ellipse cx="5220.9961" cy="323.8197" fill="#ADD1B2" rx="11" ry="11" style="stroke:#181818;stroke-width:1;"/><path d="M5223.9649,329.4603 Q5223.3867,329.7572 5222.7461,329.8978 Q5222.1055,330.0541 5221.4024,330.0541 Q5218.9024,330.0541 5217.5742,328.4134 Q5216.2617,326.7572 5216.2617,323.6322 Q5216.2617,320.5072 5217.5742,318.8509 Q5218.9024,317.1947 5221.4024,317.1947 Q5222.1055,317.1947 5222.7461,317.3509 Q5223.4024,317.5072 5223.9649,317.8041 L5223.9649,320.5228 Q5223.3399,319.9447 5222.7461,319.6791 Q5222.1524,319.3978 5221.5274,319.3978 Q5220.1836,319.3978 5219.4961,320.4759 Q5218.8086,321.5384 5218.8086,323.6322 Q5218.8086,325.7259 5219.4961,326.8041 Q5220.1836,327.8666 5221.5274,327.8666 Q5222.1524,327.8666 5222.7461,327.6009 Q5223.3399,327.3197 5223.9649,326.7416 L5223.9649,329.4603 Z " fill="#000000"/><text fill="#000000" font-family="sans-serif" font-size="12" font-style="italic" lengthAdjust="spacing" textLength="61.0605" x="5271.064" y="319.8255">&#171;process&#187;</text><text fill="#000000" font-family="sans-serif" font-size="14" lengthAdjust="spacing" textLength="120.1963" x="5241.4961" y="335.6507">IDE_1004_proc_5</text><line style="stroke:#181818;stroke-width:0.5;" x1="5097.23" x2="5473.4585" y1="343.9525" y2="343.9525"/><text fill="#000000" font-family="sans-serif" font-size="14" lengthAdjust="spacing" textLength="334.3525" x="5102.23" y="360.9476">Anforderung und &#220;bermittlung von Messwerten</text><text fill="#000000" font-family="sans-serif" font-size="14" lengthAdjust="spacing" textLength="105.0957" x="5102.23" y="377.2445">Gesetze: MsbG</text><line style="stroke:#181818;stroke-width:0.5;" x1="5097.23" x2="5473.4585" y1="384.5463" y2="384.5463"/><text fill="#000000" font-family="sans-serif" font-size="14" lengthAdjust="spacing" textLength="366.2285" x="5102.23" y="401.5414">Zusammenfassung: Wie kann ein Marktpartner (z.B.</text></g><!--link IDE_1004 to IDE_1004_msg_1--><g class="link" data-entity-1="IDE_1004" data-entity-2="IDE_1004_msg_1" data-source-line="19" data-uid="lnk4" id="link_IDE_1004_IDE_1004_msg_1"><path codeLine="19" d="M2435.85,146.4569 C2163.15,175.8369 1641.2,232.5169 1197.34,283.3769 C1191.57,284.0369 1191.7308,284.0218 1185.9008,284.6918" fill="none" id="IDE_1004-to-IDE_1004_msg_1" style="stroke:#181818;stroke-width:1;"/><polygon fill="#181818" points="1179.94,285.3769,1189.3378,288.3232,1184.9073,284.806,1188.4245,280.3755,1179.94,285.3769" style="stroke:#181818;stroke-width:1;"/><text fill="#000000" font-family="sans-serif" font-size="13" lengthAdjust="spacing" textLength="85.2363" x="1590.34" y="249.4438">verwendet in</text></g><!--link IDE_1004 to IDE_1004_msg_2--><g class="link" data-entity-1="IDE_1004" data-entity-2="IDE_1004_msg_2" data-source-line="28" data-uid="lnk6" id="link_IDE_1004_IDE_1004_msg_2"><path codeLine="28" d="M2435.97,149.3969 C2241.77,175.0769 1930.14,221.2969 1665.34,283.3769 C1659.65,284.7069 1659.7209,284.6517 1653.9209,286.1017" fill="none" id="IDE_1004-to-IDE_1004_msg_2" style="stroke:#181818;stroke-width:1;"/><polygon fill="#181818" points="1648.1,287.5569,1657.8014,289.2546,1652.9507,286.3442,1655.8611,281.4935,1648.1,287.5569" style="stroke:#181818;stroke-width:1;"/><text fill="#000000" font-family="sans-serif" font-size="13" lengthAdjust="spacing" textLength="85.2363" x="1874.34" y="249.4438">verwendet in</text></g><!--link IDE_1004 to IDE_1004_proc_1--><g class="link" data-entity-1="IDE_1004" data-entity-2="IDE_1004_proc_1" data-source-line="34" data-uid="lnk8" id="link_IDE_1004_IDE_1004_proc_1"><path codeLine="34" d="M2435.93,189.8069 C2330.43,225.5269 2206.0129,267.6623 2106.5929,301.3323" fill="none" id="IDE_1004-to-IDE_1004_proc_1" style="stroke:#181818;stroke-width:1;stroke-dasharray:7,7;"/><polygon fill="#181818" points="2100.91,303.2569,2110.7175,304.1586,2105.6458,301.653,2108.1513,296.5813,2100.91,303.2569" style="stroke:#181818;stroke-width:1;"/><text fill="#000000" font-family="sans-serif" font-size="13" lengthAdjust="spacing" textLength="91.6221" x="2286.34" y="249.4438">eingebettet in</text></g><!--link IDE_1004 to IDE_1004_proc_2--><g class="link" data-entity-1="IDE_1004" data-entity-2="IDE_1004_proc_2" data-source-line="40" data-uid="lnk10" id="link_IDE_1004_IDE_1004_proc_2"><path codeLine="40" d="M2623.34,206.7269 C2623.34,238.8069 2623.34,268.8169 2623.34,297.3469" fill="none" id="IDE_1004-to-IDE_1004_proc_2" style="stroke:#181818;stroke-width:1;stroke-dasharray:7,7;"/><polygon fill="#181818" points="2623.34,303.3469,2627.34,294.3469,2623.34,298.3469,2619.34,294.3469,2623.34,303.3469" style="stroke:#181818;stroke-width:1;"/><text fill="#000000" font-family="sans-serif" font-size="13" lengthAdjust="spacing" textLength="91.6221" x="2624.34" y="249.4438">eingebettet in</text></g><!--link IDE_1004 to IDE_1004_proc_3--><g class="link" data-entity-1="IDE_1004" data-entity-2="IDE_1004_proc_3" data-source-line="46" data-uid="lnk12" id="link_IDE_1004_IDE_1004_proc_3"><path codeLine="46" d="M2810.7,183.0769 C2932.16,219.8469 3083.4375,265.658 3201.6975,301.468" fill="none" id="IDE_1004-to-IDE_1004_proc_3" style="stroke:#181818;stroke-width:1;stroke-dasharray:7,7;"/><polygon fill="#181818" points="3207.44,303.2069,3199.9855,296.7702,3202.6546,301.7578,3197.667,304.4269,3207.44,303.2069" style="stroke:#181818;stroke-width:1;"/><text fill="#000000" font-family="sans-serif" font-size="13" lengthAdjust="spacing" textLength="91.6221" x="3025.34" y="249.4438">eingebettet in</text></g><!--link IDE_1004 to IDE_1004_proc_4--><g class="link" data-entity-1="IDE_1004" data-entity-2="IDE_1004_proc_4" data-source-line="52" data-uid="lnk14" id="link_IDE_1004_IDE_1004_proc_4"><path codeLine="52" d="M2810.78,150.3469 C3091.99,186.3769 3623.9386,254.5245 3997.9286,302.4345" fill="none" id="IDE_1004-to-IDE_1004_proc_4" style="stroke:#181818;stroke-width:1;stroke-dasharray:7,7;"/><polygon fill="#181818" points="4003.88,303.1969,3995.4612,298.0857,3998.9205,302.5615,3994.4447,306.0209,4003.88,303.1969" style="stroke:#181818;stroke-width:1;"/><text fill="#000000" font-family="sans-serif" font-size="13" lengthAdjust="spacing" textLength="91.6221" x="3572.34" y="249.4438">eingebettet in</text></g><!--link IDE_1004 to IDE_1004_proc_5--><g class="link" data-entity-1="IDE_1004" data-entity-2="IDE_1004_proc_5" data-source-line="58" data-uid="lnk16" id="link_IDE_1004_IDE_1004_proc_5"><path codeLine="58" d="M2810.66,131.7769 C3306.52,147.2069 4644.91,195.9369 5078.34,283.3769 C5102.77,288.3069 5122.529,293.5772 5146.929,301.4372" fill="none" id="IDE_1004-to-IDE_1004_proc_5" style="stroke:#181818;stroke-width:1;stroke-dasharray:7,7;"/><polygon fill="#181818" points="5152.64,303.2769,5145.3,296.71,5147.8808,301.7438,5142.847,304.3247,5152.64,303.2769" style="stroke:#181818;stroke-width:1;"/><text fill="#000000" font-family="sans-serif" font-size="13" lengthAdjust="spacing" textLength="91.6221" x="4881.34" y="249.4438">eingebettet in</text></g><!--SRC=[dLNDRjf04BxdAURML7AGCQH9KPKg93GYgKaR992uM8izXXNs6kskazPLtwHIBpn6RxnOPmpa1vAGvC2oFpCxyttVxDXAco2S2ejAs4GOs8FsQQjHTTtwJaXhmyk0b_1h1w0ZKcn0Eq9bPImdmcOQ8ZJGEcr3rmeL2HqPilkcimADmGRDWUuSp6VZ1FKDXcE32UGgWZFKyvd5-RyXQYN6AS9kN_hlbmuTj8NARP6haH53JNwAfij3dwus5fC4rH2jbZZSj6bYQK4RW5AX1ildqeHZL72HgLYESYsip1Ji-jtcAkwnYZCTeMO_pdB-Xz9BfRNbJTTapS5lK1DXEx_NA0fICmggIwB2iPRXs19RdTvb-mIyoc541nJQuW_QPWkwUvaro1G6-GY9JGqjVPlxTQQJ-IodR6dVpqWait8X7DTCgOhGLfZpEE60CIPH0yu5xPnaf4q3t0yEk0SEL3q7QYxzgWuqBsZZl7VbWE_xD7IRDF2oS_pDWNwRzWRr6Wzr7lPfw5tT5_OLaZfFgEayBwJp5Ws_vtpRYlJ0Rvy5J7pm1JdPIQOrJcok0y_rzjrghLgPHZ7fU5laUtj7wt8sxcW6gHwJt5kNtE-UN7Qw97azl2yvwIfiCTLPB9CXOPDfkggpxaGaiYoxPwMyF2691jyFUVX8mnN9EUYw3uHvLGdVCRR8US5OK0y3aS__ekQRbELia3chkmVUXwsSULiu8mP28lRJ9vvGBaT79O6lQX9dQAYeE6ypF6Fdt8WqHHLJ9CB9PFF3iVJ2w4qfjW_7yrbipNJ15Bnx6EyT38kRodrSbShHHiuDhiGHKhNQfw5v6z2UR6UtCBfMPscdrNEMiq7lCL1zYH3dQi8rJ-LY8QADno-7ucRvKlYSdnTAOh6azQl46BLGzlFpUBsNuQrjuDtMeRUgrsIvoenBzPRLNNR7upk8gs9U2vMWDBRia5lqhBqCNtq3tniwqmF83hHK_oLbkm9Uv7epg9bYGP_XHTIdCnYYB1tITQxAWd3ut4mb9jGJfA7wcl_JR4zii2bzUUZVB7n_adUwXTJwoqZTto3rbOrhQmtnOva8fKemlj0JEnNQCd6xHQMv1SN-1eh_]--></g></svg>