<svg xmlns="http://www.w3.org/2000/svg" xmlns:xlink="http://www.w3.org/1999/xlink" contentStyleType="text/css" data-diagram-type="CLASS" height="419px" preserveAspectRatio="none" style="width:6831px;height:419px;background:#FFFFFF;" version="1.1" viewBox="0 0 6831 419" width="6831px" zoomAndPan="magnify"><title>Datenatlas - IMD:0060</title><defs/><g><g class="title" data-source-line="1"><text fill="#000000" font-family="sans-serif" font-size="14" font-weight="bold" lengthAdjust="spacing" textLength="176.8252" x="3320.492" y="22.9951">Datenatlas - IMD:0060</text></g><!--class IMD_0060--><g class="entity" data-entity="IMD_0060" data-source-line="2" data-uid="ent0002" id="entity_IMD_0060"><rect fill="#F1F1F1" height="145.7813" rx="2.5" ry="2.5" style="stroke:#181818;stroke-width:0.5;" width="374.2021" x="2683.71" y="44.2969"/><ellipse cx="2831.7525" cy="60.2969" fill="#ADD1B2" rx="11" ry="11" style="stroke:#181818;stroke-width:1;"/><path d="M2834.7212,65.9375 Q2834.1431,66.2344 2833.5025,66.375 Q2832.8619,66.5313 2832.1587,66.5313 Q2829.6587,66.5313 2828.3306,64.8906 Q2827.0181,63.2344 2827.0181,60.1094 Q2827.0181,56.9844 2828.3306,55.3281 Q2829.6587,53.6719 2832.1587,53.6719 Q2832.8619,53.6719 2833.5025,53.8281 Q2834.1587,53.9844 2834.7212,54.2813 L2834.7212,57 Q2834.0962,56.4219 2833.5025,56.1563 Q2832.9087,55.875 2832.2837,55.875 Q2830.94,55.875 2830.2525,56.9531 Q2829.565,58.0156 2829.565,60.1094 Q2829.565,62.2031 2830.2525,63.2813 Q2830.94,64.3438 2832.2837,64.3438 Q2832.9087,64.3438 2833.5025,64.0781 Q2834.0962,63.7969 2834.7212,63.2188 L2834.7212,65.9375 Z " fill="#000000"/><text fill="#000000" font-family="sans-serif" font-size="14" lengthAdjust="spacing" textLength="69.6172" x="2852.2525" y="65.1436">IMD_0060</text><line style="stroke:#181818;stroke-width:0.5;" x1="2684.71" x2="3056.9121" y1="76.2969" y2="76.2969"/><text fill="#000000" font-family="sans-serif" font-size="14" lengthAdjust="spacing" textLength="285.4141" x="2703.71" y="93.292">Name: Produkt - /Leistungsbeschreibung</text><text fill="#000000" font-family="sans-serif" font-size="14" lengthAdjust="spacing" textLength="66.6436" x="2703.71" y="109.5889">Prozesse:</text><rect fill="none" height="6" style="stroke:#C82930;stroke-width:1;" width="6" x="2691.71" y="119.5391"/><text fill="#000000" font-family="sans-serif" font-size="14" lengthAdjust="spacing" textLength="180.3457" x="2703.71" y="125.8857">Netznutzungsabrechnung</text><rect fill="none" height="6" style="stroke:#C82930;stroke-width:1;" width="6" x="2691.71" y="135.8359"/><text fill="#000000" font-family="sans-serif" font-size="14" lengthAdjust="spacing" textLength="223.2822" x="2703.71" y="142.1826">Messstellenbetriebsabrechnung</text><rect fill="none" height="6" style="stroke:#C82930;stroke-width:1;" width="6" x="2691.71" y="152.1328"/><text fill="#000000" font-family="sans-serif" font-size="14" lengthAdjust="spacing" textLength="317.9668" x="2703.71" y="158.4795">Sperrung und Entsperrung eines Anschlusses</text><line style="stroke:#181818;stroke-width:0.5;" x1="2684.71" x2="3056.9121" y1="165.7813" y2="165.7813"/><rect fill="#F24D5C" height="6" style="stroke:#C82930;stroke-width:1;" width="6" x="2691.71" y="176.4297"/><text fill="#000000" font-family="sans-serif" font-size="14" lengthAdjust="spacing" textLength="348.2021" x="2703.71" y="182.7764">Bestellung einer technischen Konfiguration (MSB)</text></g><!--class IMD_0060_msg_1--><g class="entity" data-entity="IMD_0060_msg_1" data-source-line="10" data-uid="ent0003" id="entity_IMD_0060_msg_1"><rect fill="#F1F1F1" height="145.7813" rx="2.5" ry="2.5" style="stroke:#181818;stroke-width:0.5;" width="495.6221" x="7" y="267.0769"/><ellipse cx="189.3896" cy="283.0769" fill="#ADD1B2" rx="11" ry="11" style="stroke:#181818;stroke-width:1;"/><path d="M192.3584,288.7175 Q191.7803,289.0144 191.1396,289.155 Q190.499,289.3113 189.7959,289.3113 Q187.2959,289.3113 185.9678,287.6706 Q184.6553,286.0144 184.6553,282.8894 Q184.6553,279.7644 185.9678,278.1081 Q187.2959,276.4519 189.7959,276.4519 Q190.499,276.4519 191.1396,276.6081 Q191.7959,276.7644 192.3584,277.0613 L192.3584,279.78 Q191.7334,279.2019 191.1396,278.9363 Q190.5459,278.655 189.9209,278.655 Q188.5771,278.655 187.8896,279.7331 Q187.2021,280.7956 187.2021,282.8894 Q187.2021,284.9831 187.8896,286.0613 Q188.5771,287.1238 189.9209,287.1238 Q190.5459,287.1238 191.1396,286.8581 Q191.7334,286.5769 192.3584,285.9988 L192.3584,288.7175 Z " fill="#000000"/><text fill="#000000" font-family="sans-serif" font-size="14" lengthAdjust="spacing" textLength="122.3428" x="209.8896" y="287.9236">IMD_0060_msg_1</text><line style="stroke:#181818;stroke-width:0.5;" x1="8" x2="501.6221" y1="299.0769" y2="299.0769"/><text fill="#000000" font-family="sans-serif" font-size="14" lengthAdjust="spacing" textLength="161.1982" x="13" y="316.072">Nachricht: INVOIC 2.8d</text><text fill="#000000" font-family="sans-serif" font-size="14" lengthAdjust="spacing" textLength="204.1143" x="13" y="332.3689">Kontext: Nachrichtenstruktur</text><text fill="#000000" font-family="sans-serif" font-size="14" lengthAdjust="spacing" textLength="110.5439" x="13" y="348.6657">Pflichtfeld: Nein</text><text fill="#000000" font-family="sans-serif" font-size="14" lengthAdjust="spacing" textLength="79.29" x="13" y="364.9626">Codes: IMD</text><text fill="#000000" font-family="sans-serif" font-size="14" lengthAdjust="spacing" textLength="483.6221" x="13" y="381.2595">Prozesse: Netznutzungsabrechnung, Messstellenbetriebsabrechnung</text><text fill="#000000" font-family="sans-serif" font-size="14" lengthAdjust="spacing" textLength="396.6074" x="13" y="397.5564">Quelle: INVOIC_MIG_2.8d_Fehlerkorrektur_20250131.pdf</text><line style="stroke:#181818;stroke-width:0.5;" x1="8" x2="501.6221" y1="404.8581" y2="404.8581"/></g><!--class IMD_0060_msg_2--><g class="entity" data-entity="IMD_0060_msg_2" data-source-line="19" data-uid="ent0005" id="entity_IMD_0060_msg_2"><rect fill="#F1F1F1" height="145.7813" rx="2.5" ry="2.5" style="stroke:#181818;stroke-width:0.5;" width="495.6221" x="538" y="267.0769"/><ellipse cx="720.3896" cy="283.0769" fill="#ADD1B2" rx="11" ry="11" style="stroke:#181818;stroke-width:1;"/><path d="M723.3584,288.7175 Q722.7803,289.0144 722.1396,289.155 Q721.499,289.3113 720.7959,289.3113 Q718.2959,289.3113 716.9678,287.6706 Q715.6553,286.0144 715.6553,282.8894 Q715.6553,279.7644 716.9678,278.1081 Q718.2959,276.4519 720.7959,276.4519 Q721.499,276.4519 722.1396,276.6081 Q722.7959,276.7644 723.3584,277.0613 L723.3584,279.78 Q722.7334,279.2019 722.1396,278.9363 Q721.5459,278.655 720.9209,278.655 Q719.5771,278.655 718.8896,279.7331 Q718.2021,280.7956 718.2021,282.8894 Q718.2021,284.9831 718.8896,286.0613 Q719.5771,287.1238 720.9209,287.1238 Q721.5459,287.1238 722.1396,286.8581 Q722.7334,286.5769 723.3584,285.9988 L723.3584,288.7175 Z " fill="#000000"/><text fill="#000000" font-family="sans-serif" font-size="14" lengthAdjust="spacing" textLength="122.3428" x="740.8896" y="287.9236">IMD_0060_msg_2</text><line style="stroke:#181818;stroke-width:0.5;" x1="539" x2="1032.6221" y1="299.0769" y2="299.0769"/><text fill="#000000" font-family="sans-serif" font-size="14" lengthAdjust="spacing" textLength="165.6484" x="544" y="316.072">Nachricht: INVOIC 2.8d.</text><text fill="#000000" font-family="sans-serif" font-size="14" lengthAdjust="spacing" textLength="204.1143" x="544" y="332.3689">Kontext: Nachrichtenstruktur</text><text fill="#000000" font-family="sans-serif" font-size="14" lengthAdjust="spacing" textLength="110.5439" x="544" y="348.6657">Pflichtfeld: Nein</text><text fill="#000000" font-family="sans-serif" font-size="14" lengthAdjust="spacing" textLength="79.29" x="544" y="364.9626">Codes: IMD</text><text fill="#000000" font-family="sans-serif" font-size="14" lengthAdjust="spacing" textLength="483.6221" x="544" y="381.2595">Prozesse: Netznutzungsabrechnung, Messstellenbetriebsabrechnung</text><text fill="#000000" font-family="sans-serif" font-size="14" lengthAdjust="spacing" textLength="290.3359" x="544" y="397.5564">Quelle: INVOIC_MIG_2_8d__20240619.pdf</text><line style="stroke:#181818;stroke-width:0.5;" x1="539" x2="1032.6221" y1="404.8581" y2="404.8581"/></g><!--class IMD_0060_msg_3--><g class="entity" data-entity="IMD_0060_msg_3" data-source-line="28" data-uid="ent0007" id="entity_IMD_0060_msg_3"><rect fill="#F1F1F1" height="145.7813" rx="2.5" ry="2.5" style="stroke:#181818;stroke-width:0.5;" width="758.1631" x="1068.73" y="267.0769"/><ellipse cx="1382.3902" cy="283.0769" fill="#ADD1B2" rx="11" ry="11" style="stroke:#181818;stroke-width:1;"/><path d="M1385.3589,288.7175 Q1384.7808,289.0144 1384.1402,289.155 Q1383.4995,289.3113 1382.7964,289.3113 Q1380.2964,289.3113 1378.9683,287.6706 Q1377.6558,286.0144 1377.6558,282.8894 Q1377.6558,279.7644 1378.9683,278.1081 Q1380.2964,276.4519 1382.7964,276.4519 Q1383.4995,276.4519 1384.1402,276.6081 Q1384.7964,276.7644 1385.3589,277.0613 L1385.3589,279.78 Q1384.7339,279.2019 1384.1402,278.9363 Q1383.5464,278.655 1382.9214,278.655 Q1381.5777,278.655 1380.8902,279.7331 Q1380.2027,280.7956 1380.2027,282.8894 Q1380.2027,284.9831 1380.8902,286.0613 Q1381.5777,287.1238 1382.9214,287.1238 Q1383.5464,287.1238 1384.1402,286.8581 Q1384.7339,286.5769 1385.3589,285.9988 L1385.3589,288.7175 Z " fill="#000000"/><text fill="#000000" font-family="sans-serif" font-size="14" lengthAdjust="spacing" textLength="122.3428" x="1402.8902" y="287.9236">IMD_0060_msg_3</text><line style="stroke:#181818;stroke-width:0.5;" x1="1069.73" x2="1825.8931" y1="299.0769" y2="299.0769"/><text fill="#000000" font-family="sans-serif" font-size="14" lengthAdjust="spacing" textLength="161.793" x="1074.73" y="316.072">Nachricht: ORDRSP 1.4</text><text fill="#000000" font-family="sans-serif" font-size="14" lengthAdjust="spacing" textLength="204.1143" x="1074.73" y="332.3689">Kontext: Nachrichtenstruktur</text><text fill="#000000" font-family="sans-serif" font-size="14" lengthAdjust="spacing" textLength="110.5439" x="1074.73" y="348.6657">Pflichtfeld: Nein</text><text fill="#000000" font-family="sans-serif" font-size="14" lengthAdjust="spacing" textLength="114.9121" x="1074.73" y="364.9626">Codes: 999, IMD</text><text fill="#000000" font-family="sans-serif" font-size="14" lengthAdjust="spacing" textLength="283.9307" x="1074.73" y="381.2595">Quelle: ORDRSP_MIG_1_4_20240619.pdf</text><line style="stroke:#181818;stroke-width:0.5;" x1="1069.73" x2="1825.8931" y1="388.5613" y2="388.5613"/><text fill="#000000" font-family="sans-serif" font-size="14" lengthAdjust="spacing" textLength="746.1631" x="1074.73" y="405.5564">Prozesse: Bestellung einer technischen Konfiguration (MSB), Sperrung und Entsperrung eines Anschlusses</text></g><!--class IMD_0060_msg_4--><g class="entity" data-entity="IMD_0060_msg_4" data-source-line="37" data-uid="ent0009" id="entity_IMD_0060_msg_4"><rect fill="#F1F1F1" height="145.7813" rx="2.5" ry="2.5" style="stroke:#181818;stroke-width:0.5;" width="758.1631" x="1861.73" y="267.0769"/><ellipse cx="2175.3902" cy="283.0769" fill="#ADD1B2" rx="11" ry="11" style="stroke:#181818;stroke-width:1;"/><path d="M2178.3589,288.7175 Q2177.7808,289.0144 2177.1402,289.155 Q2176.4995,289.3113 2175.7964,289.3113 Q2173.2964,289.3113 2171.9683,287.6706 Q2170.6558,286.0144 2170.6558,282.8894 Q2170.6558,279.7644 2171.9683,278.1081 Q2173.2964,276.4519 2175.7964,276.4519 Q2176.4995,276.4519 2177.1402,276.6081 Q2177.7964,276.7644 2178.3589,277.0613 L2178.3589,279.78 Q2177.7339,279.2019 2177.1402,278.9363 Q2176.5464,278.655 2175.9214,278.655 Q2174.5777,278.655 2173.8902,279.7331 Q2173.2027,280.7956 2173.2027,282.8894 Q2173.2027,284.9831 2173.8902,286.0613 Q2174.5777,287.1238 2175.9214,287.1238 Q2176.5464,287.1238 2177.1402,286.8581 Q2177.7339,286.5769 2178.3589,285.9988 L2178.3589,288.7175 Z " fill="#000000"/><text fill="#000000" font-family="sans-serif" font-size="14" lengthAdjust="spacing" textLength="122.3428" x="2195.8902" y="287.9236">IMD_0060_msg_4</text><line style="stroke:#181818;stroke-width:0.5;" x1="1862.73" x2="2618.8931" y1="299.0769" y2="299.0769"/><text fill="#000000" font-family="sans-serif" font-size="14" lengthAdjust="spacing" textLength="170.3584" x="1867.73" y="316.072">Nachricht: QUOTES 1.3a</text><text fill="#000000" font-family="sans-serif" font-size="14" lengthAdjust="spacing" textLength="204.1143" x="1867.73" y="332.3689">Kontext: Nachrichtenstruktur</text><text fill="#000000" font-family="sans-serif" font-size="14" lengthAdjust="spacing" textLength="110.5439" x="1867.73" y="348.6657">Pflichtfeld: Nein</text><text fill="#000000" font-family="sans-serif" font-size="14" lengthAdjust="spacing" textLength="147.5674" x="1867.73" y="364.9626">Codes: 999, EDI, IMD</text><text fill="#000000" font-family="sans-serif" font-size="14" lengthAdjust="spacing" textLength="408.3174" x="1867.73" y="381.2595">Quelle: QUOTES_MIG_1_3a_Fehlerkorrektur_20241213.pdf</text><line style="stroke:#181818;stroke-width:0.5;" x1="1862.73" x2="2618.8931" y1="388.5613" y2="388.5613"/><text fill="#000000" font-family="sans-serif" font-size="14" lengthAdjust="spacing" textLength="746.1631" x="1867.73" y="405.5564">Prozesse: Bestellung einer technischen Konfiguration (MSB), Sperrung und Entsperrung eines Anschlusses</text></g><!--class IMD_0060_msg_5--><g class="entity" data-entity="IMD_0060_msg_5" data-source-line="46" data-uid="ent0011" id="entity_IMD_0060_msg_5"><rect fill="#F1F1F1" height="145.7813" rx="2.5" ry="2.5" style="stroke:#181818;stroke-width:0.5;" width="431.2959" x="2655.16" y="267.0769"/><ellipse cx="2805.3866" cy="283.0769" fill="#ADD1B2" rx="11" ry="11" style="stroke:#181818;stroke-width:1;"/><path d="M2808.3553,288.7175 Q2807.7772,289.0144 2807.1366,289.155 Q2806.4959,289.3113 2805.7928,289.3113 Q2803.2928,289.3113 2801.9647,287.6706 Q2800.6522,286.0144 2800.6522,282.8894 Q2800.6522,279.7644 2801.9647,278.1081 Q2803.2928,276.4519 2805.7928,276.4519 Q2806.4959,276.4519 2807.1366,276.6081 Q2807.7928,276.7644 2808.3553,277.0613 L2808.3553,279.78 Q2807.7303,279.2019 2807.1366,278.9363 Q2806.5428,278.655 2805.9178,278.655 Q2804.5741,278.655 2803.8866,279.7331 Q2803.1991,280.7956 2803.1991,282.8894 Q2803.1991,284.9831 2803.8866,286.0613 Q2804.5741,287.1238 2805.9178,287.1238 Q2806.5428,287.1238 2807.1366,286.8581 Q2807.7303,286.5769 2808.3553,285.9988 L2808.3553,288.7175 Z " fill="#000000"/><text fill="#000000" font-family="sans-serif" font-size="14" lengthAdjust="spacing" textLength="122.3428" x="2825.8866" y="287.9236">IMD_0060_msg_5</text><line style="stroke:#181818;stroke-width:0.5;" x1="2656.16" x2="3085.4559" y1="299.0769" y2="299.0769"/><text fill="#000000" font-family="sans-serif" font-size="14" lengthAdjust="spacing" textLength="170.1055" x="2661.16" y="316.072">Nachricht: REQOTE 1.3b</text><text fill="#000000" font-family="sans-serif" font-size="14" lengthAdjust="spacing" textLength="204.1143" x="2661.16" y="332.3689">Kontext: Nachrichtenstruktur</text><text fill="#000000" font-family="sans-serif" font-size="14" lengthAdjust="spacing" textLength="110.5439" x="2661.16" y="348.6657">Pflichtfeld: Nein</text><text fill="#000000" font-family="sans-serif" font-size="14" lengthAdjust="spacing" textLength="114.9121" x="2661.16" y="364.9626">Codes: 999, IMD</text><text fill="#000000" font-family="sans-serif" font-size="14" lengthAdjust="spacing" textLength="292.2432" x="2661.16" y="381.2595">Quelle: REQOTE_MIG_1_3b_20241001.pdf</text><line style="stroke:#181818;stroke-width:0.5;" x1="2656.16" x2="3085.4559" y1="388.5613" y2="388.5613"/><text fill="#000000" font-family="sans-serif" font-size="14" lengthAdjust="spacing" textLength="419.2959" x="2661.16" y="405.5564">Prozesse: Bestellung einer technischen Konfiguration (MSB)</text></g><!--class IMD_0060_proc_1--><g class="entity" data-entity="IMD_0060_proc_1" data-source-line="55" data-uid="ent0013" id="entity_IMD_0060_proc_1"><rect fill="#F1F1F1" height="105.1563" rx="2.5" ry="2.5" style="stroke:#181818;stroke-width:0.5;" width="752.6465" x="3121.49" y="287.3869"/><ellipse cx="3431.8484" cy="307.5197" fill="#ADD1B2" rx="11" ry="11" style="stroke:#181818;stroke-width:1;"/><path d="M3434.8171,313.1603 Q3434.239,313.4572 3433.5984,313.5978 Q3432.9578,313.7541 3432.2546,313.7541 Q3429.7546,313.7541 3428.4265,312.1134 Q3427.114,310.4572 3427.114,307.3322 Q3427.114,304.2072 3428.4265,302.5509 Q3429.7546,300.8947 3432.2546,300.8947 Q3432.9578,300.8947 3433.5984,301.0509 Q3434.2546,301.2072 3434.8171,301.5041 L3434.8171,304.2228 Q3434.1921,303.6447 3433.5984,303.3791 Q3433.0046,303.0978 3432.3796,303.0978 Q3431.0359,303.0978 3430.3484,304.1759 Q3429.6609,305.2384 3429.6609,307.3322 Q3429.6609,309.4259 3430.3484,310.5041 Q3431.0359,311.5666 3432.3796,311.5666 Q3433.0046,311.5666 3433.5984,311.3009 Q3434.1921,311.0197 3434.8171,310.4416 L3434.8171,313.1603 Z " fill="#000000"/><text fill="#000000" font-family="sans-serif" font-size="12" font-style="italic" lengthAdjust="spacing" textLength="61.0605" x="3483.533" y="303.5255">&#171;process&#187;</text><text fill="#000000" font-family="sans-serif" font-size="14" lengthAdjust="spacing" textLength="123.4297" x="3452.3484" y="319.3507">IMD_0060_proc_1</text><line style="stroke:#181818;stroke-width:0.5;" x1="3122.49" x2="3873.1365" y1="327.6525" y2="327.6525"/><text fill="#000000" font-family="sans-serif" font-size="14" lengthAdjust="spacing" textLength="180.3457" x="3127.49" y="344.6476">Netznutzungsabrechnung</text><text fill="#000000" font-family="sans-serif" font-size="14" lengthAdjust="spacing" textLength="218.0938" x="3127.49" y="360.9445">Gesetze: StromNEV, StromNZV</text><text fill="#000000" font-family="sans-serif" font-size="14" lengthAdjust="spacing" textLength="740.6465" x="3127.49" y="377.2414">Zusammenfassung: Wie funktioniert die Netznutzungsabrechnung zwischen Netzbetreiber und Lieferant?</text><line style="stroke:#181818;stroke-width:0.5;" x1="3122.49" x2="3873.1365" y1="384.5431" y2="384.5431"/></g><!--class IMD_0060_proc_2--><g class="entity" data-entity="IMD_0060_proc_2" data-source-line="61" data-uid="ent0015" id="entity_IMD_0060_proc_2"><rect fill="#F1F1F1" height="105.1563" rx="2.5" ry="2.5" style="stroke:#181818;stroke-width:0.5;" width="690.2275" x="3908.7" y="287.3869"/><ellipse cx="4187.8489" cy="307.5197" fill="#ADD1B2" rx="11" ry="11" style="stroke:#181818;stroke-width:1;"/><path d="M4190.8177,313.1603 Q4190.2396,313.4572 4189.5989,313.5978 Q4188.9583,313.7541 4188.2552,313.7541 Q4185.7552,313.7541 4184.4271,312.1134 Q4183.1146,310.4572 4183.1146,307.3322 Q4183.1146,304.2072 4184.4271,302.5509 Q4185.7552,300.8947 4188.2552,300.8947 Q4188.9583,300.8947 4189.5989,301.0509 Q4190.2552,301.2072 4190.8177,301.5041 L4190.8177,304.2228 Q4190.1927,303.6447 4189.5989,303.3791 Q4189.0052,303.0978 4188.3802,303.0978 Q4187.0364,303.0978 4186.3489,304.1759 Q4185.6614,305.2384 4185.6614,307.3322 Q4185.6614,309.4259 4186.3489,310.5041 Q4187.0364,311.5666 4188.3802,311.5666 Q4189.0052,311.5666 4189.5989,311.3009 Q4190.1927,311.0197 4190.8177,310.4416 L4190.8177,313.1603 Z " fill="#000000"/><text fill="#000000" font-family="sans-serif" font-size="12" font-style="italic" lengthAdjust="spacing" textLength="61.0605" x="4239.5335" y="303.5255">&#171;process&#187;</text><text fill="#000000" font-family="sans-serif" font-size="14" lengthAdjust="spacing" textLength="123.4297" x="4208.3489" y="319.3507">IMD_0060_proc_2</text><line style="stroke:#181818;stroke-width:0.5;" x1="3909.7" x2="4597.9275" y1="327.6525" y2="327.6525"/><text fill="#000000" font-family="sans-serif" font-size="14" lengthAdjust="spacing" textLength="223.2822" x="3914.7" y="344.6476">Messstellenbetriebsabrechnung</text><text fill="#000000" font-family="sans-serif" font-size="14" lengthAdjust="spacing" textLength="105.0957" x="3914.7" y="360.9445">Gesetze: MsbG</text><text fill="#000000" font-family="sans-serif" font-size="14" lengthAdjust="spacing" textLength="678.2275" x="3914.7" y="377.2414">Zusammenfassung: Beschreibe den Prozess der Abrechnung von Messstellenbetriebsleistungen.</text><line style="stroke:#181818;stroke-width:0.5;" x1="3909.7" x2="4597.9275" y1="384.5431" y2="384.5431"/></g><!--class IMD_0060_proc_3--><g class="entity" data-entity="IMD_0060_proc_3" data-source-line="67" data-uid="ent0017" id="entity_IMD_0060_proc_3"><rect fill="#F1F1F1" height="105.1563" rx="2.5" ry="2.5" style="stroke:#181818;stroke-width:0.5;" width="1301.9961" x="4633.81" y="287.3869"/><ellipse cx="5218.8432" cy="307.5197" fill="#ADD1B2" rx="11" ry="11" style="stroke:#181818;stroke-width:1;"/><path d="M5221.812,313.1603 Q5221.2338,313.4572 5220.5932,313.5978 Q5219.9526,313.7541 5219.2495,313.7541 Q5216.7495,313.7541 5215.4213,312.1134 Q5214.1088,310.4572 5214.1088,307.3322 Q5214.1088,304.2072 5215.4213,302.5509 Q5216.7495,300.8947 5219.2495,300.8947 Q5219.9526,300.8947 5220.5932,301.0509 Q5221.2495,301.2072 5221.812,301.5041 L5221.812,304.2228 Q5221.187,303.6447 5220.5932,303.3791 Q5219.9995,303.0978 5219.3745,303.0978 Q5218.0307,303.0978 5217.3432,304.1759 Q5216.6557,305.2384 5216.6557,307.3322 Q5216.6557,309.4259 5217.3432,310.5041 Q5218.0307,311.5666 5219.3745,311.5666 Q5219.9995,311.5666 5220.5932,311.3009 Q5221.187,311.0197 5221.812,310.4416 L5221.812,313.1603 Z " fill="#000000"/><text fill="#000000" font-family="sans-serif" font-size="12" font-style="italic" lengthAdjust="spacing" textLength="61.0605" x="5270.5278" y="303.5255">&#171;process&#187;</text><text fill="#000000" font-family="sans-serif" font-size="14" lengthAdjust="spacing" textLength="123.4297" x="5239.3432" y="319.3507">IMD_0060_proc_3</text><line style="stroke:#181818;stroke-width:0.5;" x1="4634.81" x2="5934.8061" y1="327.6525" y2="327.6525"/><text fill="#000000" font-family="sans-serif" font-size="14" lengthAdjust="spacing" textLength="156.4063" x="4639.81" y="344.6476">Gesetze: MsbG, EnWG</text><text fill="#000000" font-family="sans-serif" font-size="14" lengthAdjust="spacing" textLength="1289.9961" x="4639.81" y="360.9445">Zusammenfassung: Erl&#228;utere den Prozess zur Bestellung einer spezifischen technischen Konfiguration bei einem Messstellenbetreiber, beispielsweise f&#252;r ein intelligentes Messsystem.</text><line style="stroke:#181818;stroke-width:0.5;" x1="4634.81" x2="5934.8061" y1="368.2463" y2="368.2463"/><text fill="#000000" font-family="sans-serif" font-size="14" lengthAdjust="spacing" textLength="348.2021" x="4639.81" y="385.2414">Bestellung einer technischen Konfiguration (MSB)</text></g><!--class IMD_0060_proc_4--><g class="entity" data-entity="IMD_0060_proc_4" data-source-line="73" data-uid="ent0019" id="entity_IMD_0060_proc_4"><rect fill="#F1F1F1" height="105.1563" rx="2.5" ry="2.5" style="stroke:#181818;stroke-width:0.5;" width="853.9893" x="5970.82" y="287.3869"/><ellipse cx="6331.8498" cy="307.5197" fill="#ADD1B2" rx="11" ry="11" style="stroke:#181818;stroke-width:1;"/><path d="M6334.8185,313.1603 Q6334.2404,313.4572 6333.5998,313.5978 Q6332.9592,313.7541 6332.256,313.7541 Q6329.756,313.7541 6328.4279,312.1134 Q6327.1154,310.4572 6327.1154,307.3322 Q6327.1154,304.2072 6328.4279,302.5509 Q6329.756,300.8947 6332.256,300.8947 Q6332.9592,300.8947 6333.5998,301.0509 Q6334.256,301.2072 6334.8185,301.5041 L6334.8185,304.2228 Q6334.1935,303.6447 6333.5998,303.3791 Q6333.006,303.0978 6332.381,303.0978 Q6331.0373,303.0978 6330.3498,304.1759 Q6329.6623,305.2384 6329.6623,307.3322 Q6329.6623,309.4259 6330.3498,310.5041 Q6331.0373,311.5666 6332.381,311.5666 Q6333.006,311.5666 6333.5998,311.3009 Q6334.1935,311.0197 6334.8185,310.4416 L6334.8185,313.1603 Z " fill="#000000"/><text fill="#000000" font-family="sans-serif" font-size="12" font-style="italic" lengthAdjust="spacing" textLength="61.0605" x="6383.5344" y="303.5255">&#171;process&#187;</text><text fill="#000000" font-family="sans-serif" font-size="14" lengthAdjust="spacing" textLength="123.4297" x="6352.3498" y="319.3507">IMD_0060_proc_4</text><line style="stroke:#181818;stroke-width:0.5;" x1="5971.82" x2="6823.8093" y1="327.6525" y2="327.6525"/><text fill="#000000" font-family="sans-serif" font-size="14" lengthAdjust="spacing" textLength="317.9668" x="5976.82" y="344.6476">Sperrung und Entsperrung eines Anschlusses</text><text fill="#000000" font-family="sans-serif" font-size="14" lengthAdjust="spacing" textLength="138.3252" x="5976.82" y="360.9445">Gesetze: StromGVV</text><text fill="#000000" font-family="sans-serif" font-size="14" lengthAdjust="spacing" textLength="841.9893" x="5976.82" y="377.2414">Zusammenfassung: Beschreibe den End-to-End-Prozess f&#252;r die Sperrung und Wiederherstellung eines Netzanschlusses.</text><line style="stroke:#181818;stroke-width:0.5;" x1="5971.82" x2="6823.8093" y1="384.5431" y2="384.5431"/></g><!--link IMD_0060 to IMD_0060_msg_1--><g class="link" data-entity-1="IMD_0060" data-entity-2="IMD_0060_msg_1" data-source-line="18" data-uid="lnk4" id="link_IMD_0060_IMD_0060_msg_1"><path codeLine="18" d="M2683.52,124.9269 C2203.08,143.0369 935.62,196.2369 520.81,267.0769 C514.92,268.0869 514.8542,268.0451 508.8642,269.1851" fill="none" id="IMD_0060-to-IMD_0060_msg_1" style="stroke:#181818;stroke-width:1;"/><polygon fill="#181818" points="502.97,270.3069,512.5592,272.5537,507.8818,269.3721,511.0635,264.6948,502.97,270.3069" style="stroke:#181818;stroke-width:1;"/><text fill="#000000" font-family="sans-serif" font-size="13" lengthAdjust="spacing" textLength="85.2363" x="910.81" y="233.1438">verwendet in</text></g><!--link IMD_0060 to IMD_0060_msg_2--><g class="link" data-entity-1="IMD_0060" data-entity-2="IMD_0060_msg_2" data-source-line="27" data-uid="lnk6" id="link_IMD_0060_IMD_0060_msg_2"><path codeLine="27" d="M2683.36,122.2169 C2351.76,131.8469 1641.02,163.7769 1050.81,267.0769 C1045.29,268.0369 1045.6095,267.9205 1040.0095,269.0105" fill="none" id="IMD_0060-to-IMD_0060_msg_2" style="stroke:#181818;stroke-width:1;"/><polygon fill="#181818" points="1034.12,270.1569,1043.7184,272.3637,1039.0279,269.2016,1042.19,264.511,1034.12,270.1569" style="stroke:#181818;stroke-width:1;"/><text fill="#000000" font-family="sans-serif" font-size="13" lengthAdjust="spacing" textLength="85.2363" x="1347.81" y="233.1438">verwendet in</text></g><!--link IMD_0060 to IMD_0060_msg_3--><g class="link" data-entity-1="IMD_0060" data-entity-2="IMD_0060_msg_3" data-source-line="36" data-uid="lnk8" id="link_IMD_0060_IMD_0060_msg_3"><path codeLine="36" d="M2683.57,143.2869 C2477.47,171.3969 2136.53,219.3069 1843.81,267.0769 C1838.29,267.9769 1838.6589,267.9039 1833.0589,268.8339" fill="none" id="IMD_0060-to-IMD_0060_msg_3" style="stroke:#181818;stroke-width:1;"/><polygon fill="#181818" points="1827.14,269.8169,1836.6737,272.2884,1832.0724,268.9977,1835.3631,264.3965,1827.14,269.8169" style="stroke:#181818;stroke-width:1;"/><text fill="#000000" font-family="sans-serif" font-size="13" lengthAdjust="spacing" textLength="85.2363" x="2126.81" y="233.1438">verwendet in</text></g><!--link IMD_0060 to IMD_0060_msg_4--><g class="link" data-entity-1="IMD_0060" data-entity-2="IMD_0060_msg_4" data-source-line="45" data-uid="lnk10" id="link_IMD_0060_IMD_0060_msg_4"><path codeLine="45" d="M2683.5,183.8269 C2609.14,209.8869 2529.0224,237.9627 2452.8824,264.6427" fill="none" id="IMD_0060-to-IMD_0060_msg_4" style="stroke:#181818;stroke-width:1;"/><polygon fill="#181818" points="2447.22,266.6269,2457.0364,267.4256,2451.9387,264.9734,2454.3909,259.8757,2447.22,266.6269" style="stroke:#181818;stroke-width:1;"/><text fill="#000000" font-family="sans-serif" font-size="13" lengthAdjust="spacing" textLength="85.2363" x="2575.81" y="233.1438">verwendet in</text></g><!--link IMD_0060 to IMD_0060_msg_5--><g class="link" data-entity-1="IMD_0060" data-entity-2="IMD_0060_msg_5" data-source-line="54" data-uid="lnk12" id="link_IMD_0060_IMD_0060_msg_5"><path codeLine="54" d="M2870.81,190.4769 C2870.81,214.9969 2870.81,236.3869 2870.81,260.8869" fill="none" id="IMD_0060-to-IMD_0060_msg_5" style="stroke:#181818;stroke-width:1;"/><polygon fill="#181818" points="2870.81,266.8869,2874.81,257.8869,2870.81,261.8869,2866.81,257.8869,2870.81,266.8869" style="stroke:#181818;stroke-width:1;"/><text fill="#000000" font-family="sans-serif" font-size="13" lengthAdjust="spacing" textLength="85.2363" x="2871.81" y="233.1438">verwendet in</text></g><!--link IMD_0060 to IMD_0060_proc_1--><g class="link" data-entity-1="IMD_0060" data-entity-2="IMD_0060_proc_1" data-source-line="60" data-uid="lnk14" id="link_IMD_0060_IMD_0060_proc_1"><path codeLine="60" d="M3058.08,184.1269 C3151.45,217.0069 3257.1007,254.2039 3344.3607,284.9339" fill="none" id="IMD_0060-to-IMD_0060_proc_1" style="stroke:#181818;stroke-width:1;stroke-dasharray:7,7;"/><polygon fill="#181818" points="3350.02,286.9269,3342.8597,280.1645,3345.3039,285.266,3340.2023,287.7102,3350.02,286.9269" style="stroke:#181818;stroke-width:1;"/><text fill="#000000" font-family="sans-serif" font-size="13" lengthAdjust="spacing" textLength="91.6221" x="3204.81" y="233.1438">eingebettet in</text></g><!--link IMD_0060 to IMD_0060_proc_2--><g class="link" data-entity-1="IMD_0060" data-entity-2="IMD_0060_proc_2" data-source-line="66" data-uid="lnk16" id="link_IMD_0060_IMD_0060_proc_2"><path codeLine="66" d="M3058.04,142.5569 C3263.16,169.9469 3601.63,217.1369 3891.81,267.0769 C3927.02,273.1369 3958.157,278.8388 3994.567,285.8088" fill="none" id="IMD_0060-to-IMD_0060_proc_2" style="stroke:#181818;stroke-width:1;stroke-dasharray:7,7;"/><polygon fill="#181818" points="4000.46,286.9369,3992.3726,281.3161,3995.5492,285.9968,3990.8684,289.1734,4000.46,286.9369" style="stroke:#181818;stroke-width:1;"/><text fill="#000000" font-family="sans-serif" font-size="13" lengthAdjust="spacing" textLength="91.6221" x="3698.81" y="233.1438">eingebettet in</text></g><!--link IMD_0060 to IMD_0060_proc_3--><g class="link" data-entity-1="IMD_0060" data-entity-2="IMD_0060_proc_3" data-source-line="72" data-uid="lnk18" id="link_IMD_0060_IMD_0060_proc_3"><path codeLine="72" d="M3058.26,132.7969 C3378.12,158.0469 4049.78,212.3969 4616.81,267.0769 C4680.38,273.2069 4741.3425,279.3834 4807.2925,286.2734" fill="none" id="IMD_0060-to-IMD_0060_proc_3" style="stroke:#181818;stroke-width:1;stroke-dasharray:7,7;"/><polygon fill="#181818" points="4813.26,286.8969,4804.7243,281.9834,4808.2871,286.3773,4803.8931,289.9401,4813.26,286.8969" style="stroke:#181818;stroke-width:1;"/><text fill="#000000" font-family="sans-serif" font-size="13" lengthAdjust="spacing" textLength="91.6221" x="4284.81" y="233.1438">eingebettet in</text></g><!--link IMD_0060 to IMD_0060_proc_4--><g class="link" data-entity-1="IMD_0060" data-entity-2="IMD_0060_proc_4" data-source-line="78" data-uid="lnk20" id="link_IMD_0060_IMD_0060_proc_4"><path codeLine="78" d="M3058.11,119.9469 C3539.69,126.0469 4859.93,152.7569 5952.81,267.0769 C6002.24,272.2469 6048.587,278.3827 6099.277,286.0227" fill="none" id="IMD_0060-to-IMD_0060_proc_4" style="stroke:#181818;stroke-width:1;stroke-dasharray:7,7;"/><polygon fill="#181818" points="6105.21,286.9169,6096.9067,281.6202,6100.2658,286.1717,6095.7144,289.5309,6105.21,286.9169" style="stroke:#181818;stroke-width:1;"/><text fill="#000000" font-family="sans-serif" font-size="13" lengthAdjust="spacing" textLength="91.6221" x="5620.81" y="233.1438">eingebettet in</text></g><!--SRC=[pPNVRzem4CVV-rVuSPCWowzM8wgOsf8Xj48BR5JgIvIG2rXD76GxxSQq_sP_njxwZ-qSGbi8DEdwq3t5zfrzz_taV9PKna0wlWJcozWNf4bw_OwZwqVwmHJdGaqzDIK_3mWP-0auv9AdONOZqVV3EL0XCpOJ0OZfd0CDS8AEwB848S31CK770SWbo-HIkVe1X-cShHoLiO-UGa8S0mj0SWf1sUSKSWzS840PS2ALdM9GOEHBoY8woxWlQSh8k_xuz7snRRm0pjMcZ8N4PLAiv-eGGKuO7X1dcAWu-BKbs4l4p3CAsQYDJkVI8Rt1vA9tHapjOuW632pXEou_U00JaYESZ2iAKQpM8eX3TC6Gk7QMXY0S5UKffZs06fLiXfcohVFo-hskftBpFiCy1dwJSWug6S_KpKFTi0nj4KOezU6lDfljRSKEkGL-1om4IJ3b7LJCPwXe_oqM3x4e3hP-PBGgEPWrE5ZR72v6dT7uaXYQ_IeAhLQhKKBnqXlGU4dnFn9RISY96PvTdvTLWvUzpMluxUAhEqPUblzwO6wdzsRKLa8AQfQ_w_hPXcbObHZj6XWFjp6Et266LnY3jw-x9rHMUQsf12iAkbxTX0uhA2nuEiLETNoi1fXckxr2ik-LwO904sOqbZnD1kwaKOok9sYzpeIV9C0YZ87-3hcYGAACtIXH5BWa8IxiFfmixmeKogvw4Rw124aLppc52BZFvAUdOZMjNHBYABGpmErolrwpfBUg2px8xekWkqlewVhL1XAYXEAduvYJaqU9j_XhTuIAYxSVcFQyFhEUFgkaxnzARqCozWHsjLEuo-Fxtva4lYbycV5oK6m0IneLKVTd403DDoJRhFA2Q2YxM528nHqEiBxk_t3bZpIKAqMC4jjBllS7xauge5hreDebg2_gRviNfpkPrAWYbuLDcJRLPyqr5wikqKPml6POQNFW6y15VfFynpGgGDWb47y1]--></g></svg>