<svg xmlns="http://www.w3.org/2000/svg" xmlns:xlink="http://www.w3.org/1999/xlink" contentStyleType="text/css" data-diagram-type="CLASS" height="419px" preserveAspectRatio="none" style="width:5808px;height:419px;background:#FFFFFF;" version="1.1" viewBox="0 0 5808 419" width="5808px" zoomAndPan="magnify"><title>Datenatlas - IMD:7009</title><defs/><g><g class="title" data-source-line="1"><text fill="#000000" font-family="sans-serif" font-size="14" font-weight="bold" lengthAdjust="spacing" textLength="176.8252" x="2808.7554" y="22.9951">Datenatlas - IMD:7009</text></g><!--class IMD_7009--><g class="entity" data-entity="IMD_7009" data-source-line="2" data-uid="ent0002" id="entity_IMD_7009"><rect fill="#F1F1F1" height="145.7813" rx="2.5" ry="2.5" style="stroke:#181818;stroke-width:0.5;" width="374.2021" x="2838.24" y="44.2969"/><ellipse cx="2986.2825" cy="60.2969" fill="#ADD1B2" rx="11" ry="11" style="stroke:#181818;stroke-width:1;"/><path d="M2989.2512,65.9375 Q2988.6731,66.2344 2988.0325,66.375 Q2987.3919,66.5313 2986.6887,66.5313 Q2984.1887,66.5313 2982.8606,64.8906 Q2981.5481,63.2344 2981.5481,60.1094 Q2981.5481,56.9844 2982.8606,55.3281 Q2984.1887,53.6719 2986.6887,53.6719 Q2987.3919,53.6719 2988.0325,53.8281 Q2988.6887,53.9844 2989.2512,54.2813 L2989.2512,57 Q2988.6262,56.4219 2988.0325,56.1563 Q2987.4387,55.875 2986.8137,55.875 Q2985.47,55.875 2984.7825,56.9531 Q2984.095,58.0156 2984.095,60.1094 Q2984.095,62.2031 2984.7825,63.2813 Q2985.47,64.3438 2986.8137,64.3438 Q2987.4387,64.3438 2988.0325,64.0781 Q2988.6262,63.7969 2989.2512,63.2188 L2989.2512,65.9375 Z " fill="#000000"/><text fill="#000000" font-family="sans-serif" font-size="14" lengthAdjust="spacing" textLength="69.6172" x="3006.7825" y="65.1436">IMD_7009</text><line style="stroke:#181818;stroke-width:0.5;" x1="2839.24" x2="3211.4421" y1="76.2969" y2="76.2969"/><text fill="#000000" font-family="sans-serif" font-size="14" lengthAdjust="spacing" textLength="321.2549" x="2858.24" y="93.292">Name: Produkt-/Leistungsbeschreibung, Code</text><text fill="#000000" font-family="sans-serif" font-size="14" lengthAdjust="spacing" textLength="66.6436" x="2858.24" y="109.5889">Prozesse:</text><rect fill="none" height="6" style="stroke:#C82930;stroke-width:1;" width="6" x="2846.24" y="119.5391"/><text fill="#000000" font-family="sans-serif" font-size="14" lengthAdjust="spacing" textLength="180.3457" x="2858.24" y="125.8857">Netznutzungsabrechnung</text><rect fill="none" height="6" style="stroke:#C82930;stroke-width:1;" width="6" x="2846.24" y="135.8359"/><text fill="#000000" font-family="sans-serif" font-size="14" lengthAdjust="spacing" textLength="223.2822" x="2858.24" y="142.1826">Messstellenbetriebsabrechnung</text><line style="stroke:#181818;stroke-width:0.5;" x1="2839.24" x2="3211.4421" y1="149.4844" y2="149.4844"/><rect fill="#F24D5C" height="6" style="stroke:#C82930;stroke-width:1;" width="6" x="2846.24" y="160.1328"/><text fill="#000000" font-family="sans-serif" font-size="14" lengthAdjust="spacing" textLength="311.0557" x="2858.24" y="166.4795">Z&#228;hlerwechsel und Ger&#228;te&#252;bernahme (WiM)</text><rect fill="#F24D5C" height="6" style="stroke:#C82930;stroke-width:1;" width="6" x="2846.24" y="176.4297"/><text fill="#000000" font-family="sans-serif" font-size="14" lengthAdjust="spacing" textLength="348.2021" x="2858.24" y="182.7764">Bestellung einer technischen Konfiguration (MSB)</text></g><!--class IMD_7009_msg_1--><g class="entity" data-entity="IMD_7009_msg_1" data-source-line="10" data-uid="ent0003" id="entity_IMD_7009_msg_1"><rect fill="#F1F1F1" height="145.7813" rx="2.5" ry="2.5" style="stroke:#181818;stroke-width:0.5;" width="1172.6807" x="7" y="267.0769"/><ellipse cx="527.9189" cy="283.0769" fill="#ADD1B2" rx="11" ry="11" style="stroke:#181818;stroke-width:1;"/><path d="M530.8877,288.7175 Q530.3096,289.0144 529.6689,289.155 Q529.0283,289.3113 528.3252,289.3113 Q525.8252,289.3113 524.4971,287.6706 Q523.1846,286.0144 523.1846,282.8894 Q523.1846,279.7644 524.4971,278.1081 Q525.8252,276.4519 528.3252,276.4519 Q529.0283,276.4519 529.6689,276.6081 Q530.3252,276.7644 530.8877,277.0613 L530.8877,279.78 Q530.2627,279.2019 529.6689,278.9363 Q529.0752,278.655 528.4502,278.655 Q527.1064,278.655 526.4189,279.7331 Q525.7314,280.7956 525.7314,282.8894 Q525.7314,284.9831 526.4189,286.0613 Q527.1064,287.1238 528.4502,287.1238 Q529.0752,287.1238 529.6689,286.8581 Q530.2627,286.5769 530.8877,285.9988 L530.8877,288.7175 Z " fill="#000000"/><text fill="#000000" font-family="sans-serif" font-size="14" lengthAdjust="spacing" textLength="122.3428" x="548.4189" y="287.9236">IMD_7009_msg_1</text><line style="stroke:#181818;stroke-width:0.5;" x1="8" x2="1178.6807" y1="299.0769" y2="299.0769"/><text fill="#000000" font-family="sans-serif" font-size="14" lengthAdjust="spacing" textLength="161.1982" x="13" y="316.072">Nachricht: INVOIC 2.8d</text><text fill="#000000" font-family="sans-serif" font-size="14" lengthAdjust="spacing" textLength="170.3447" x="13" y="332.3689">Kontext: Segmentlayout</text><text fill="#000000" font-family="sans-serif" font-size="14" lengthAdjust="spacing" textLength="110.5439" x="13" y="348.6657">Pflichtfeld: Nein</text><text fill="#000000" font-family="sans-serif" font-size="14" lengthAdjust="spacing" textLength="777.9229" x="13" y="364.9626">Codes: 13, 17, ABR, ABS, IMD, JVR, KON, MMM, MSB, MVR, NAP, OCR, SOR, WIM, Z06, Z07, Z43, Z44, Z45, ZVR</text><text fill="#000000" font-family="sans-serif" font-size="14" lengthAdjust="spacing" textLength="396.6074" x="13" y="381.2595">Quelle: INVOIC_MIG_2.8d_Fehlerkorrektur_20250131.pdf</text><line style="stroke:#181818;stroke-width:0.5;" x1="8" x2="1178.6807" y1="388.5613" y2="388.5613"/><text fill="#000000" font-family="sans-serif" font-size="14" lengthAdjust="spacing" textLength="1160.6807" x="13" y="405.5564">Prozesse: Z&#228;hlerwechsel und Ger&#228;te&#252;bernahme (WiM), Netznutzungsabrechnung, Messstellenbetriebsabrechnung, Bestellung einer technischen Konfiguration (MSB)</text></g><!--class IMD_7009_msg_2--><g class="entity" data-entity="IMD_7009_msg_2" data-source-line="19" data-uid="ent0005" id="entity_IMD_7009_msg_2"><rect fill="#F1F1F1" height="145.7813" rx="2.5" ry="2.5" style="stroke:#181818;stroke-width:0.5;" width="1172.6807" x="1215" y="267.0769"/><ellipse cx="1735.9189" cy="283.0769" fill="#ADD1B2" rx="11" ry="11" style="stroke:#181818;stroke-width:1;"/><path d="M1738.8877,288.7175 Q1738.3096,289.0144 1737.6689,289.155 Q1737.0283,289.3113 1736.3252,289.3113 Q1733.8252,289.3113 1732.4971,287.6706 Q1731.1846,286.0144 1731.1846,282.8894 Q1731.1846,279.7644 1732.4971,278.1081 Q1733.8252,276.4519 1736.3252,276.4519 Q1737.0283,276.4519 1737.6689,276.6081 Q1738.3252,276.7644 1738.8877,277.0613 L1738.8877,279.78 Q1738.2627,279.2019 1737.6689,278.9363 Q1737.0752,278.655 1736.4502,278.655 Q1735.1064,278.655 1734.4189,279.7331 Q1733.7314,280.7956 1733.7314,282.8894 Q1733.7314,284.9831 1734.4189,286.0613 Q1735.1064,287.1238 1736.4502,287.1238 Q1737.0752,287.1238 1737.6689,286.8581 Q1738.2627,286.5769 1738.8877,285.9988 L1738.8877,288.7175 Z " fill="#000000"/><text fill="#000000" font-family="sans-serif" font-size="14" lengthAdjust="spacing" textLength="122.3428" x="1756.4189" y="287.9236">IMD_7009_msg_2</text><line style="stroke:#181818;stroke-width:0.5;" x1="1216" x2="2386.6807" y1="299.0769" y2="299.0769"/><text fill="#000000" font-family="sans-serif" font-size="14" lengthAdjust="spacing" textLength="165.6484" x="1221" y="316.072">Nachricht: INVOIC 2.8d.</text><text fill="#000000" font-family="sans-serif" font-size="14" lengthAdjust="spacing" textLength="170.3447" x="1221" y="332.3689">Kontext: Segmentlayout</text><text fill="#000000" font-family="sans-serif" font-size="14" lengthAdjust="spacing" textLength="110.5439" x="1221" y="348.6657">Pflichtfeld: Nein</text><text fill="#000000" font-family="sans-serif" font-size="14" lengthAdjust="spacing" textLength="810.5781" x="1221" y="364.9626">Codes: 13, 17, ABR, ABS, EDI, IMD, JVR, KON, MMM, MSB, MVR, NAP, OCR, SOR, WIM, Z06, Z07, Z43, Z44, Z45, ZVR</text><text fill="#000000" font-family="sans-serif" font-size="14" lengthAdjust="spacing" textLength="290.3359" x="1221" y="381.2595">Quelle: INVOIC_MIG_2_8d__20240619.pdf</text><line style="stroke:#181818;stroke-width:0.5;" x1="1216" x2="2386.6807" y1="388.5613" y2="388.5613"/><text fill="#000000" font-family="sans-serif" font-size="14" lengthAdjust="spacing" textLength="1160.6807" x="1221" y="405.5564">Prozesse: Z&#228;hlerwechsel und Ger&#228;te&#252;bernahme (WiM), Netznutzungsabrechnung, Messstellenbetriebsabrechnung, Bestellung einer technischen Konfiguration (MSB)</text></g><!--class IMD_7009_proc_1--><g class="entity" data-entity="IMD_7009_proc_1" data-source-line="28" data-uid="ent0007" id="entity_IMD_7009_proc_1"><rect fill="#F1F1F1" height="105.1563" rx="2.5" ry="2.5" style="stroke:#181818;stroke-width:0.5;" width="528.5234" x="2423.08" y="287.3869"/><ellipse cx="2621.3769" cy="307.5197" fill="#ADD1B2" rx="11" ry="11" style="stroke:#181818;stroke-width:1;"/><path d="M2624.3456,313.1603 Q2623.7675,313.4572 2623.1269,313.5978 Q2622.4863,313.7541 2621.7831,313.7541 Q2619.2831,313.7541 2617.955,312.1134 Q2616.6425,310.4572 2616.6425,307.3322 Q2616.6425,304.2072 2617.955,302.5509 Q2619.2831,300.8947 2621.7831,300.8947 Q2622.4863,300.8947 2623.1269,301.0509 Q2623.7831,301.2072 2624.3456,301.5041 L2624.3456,304.2228 Q2623.7206,303.6447 2623.1269,303.3791 Q2622.5331,303.0978 2621.9081,303.0978 Q2620.5644,303.0978 2619.8769,304.1759 Q2619.1894,305.2384 2619.1894,307.3322 Q2619.1894,309.4259 2619.8769,310.5041 Q2620.5644,311.5666 2621.9081,311.5666 Q2622.5331,311.5666 2623.1269,311.3009 Q2623.7206,311.0197 2624.3456,310.4416 L2624.3456,313.1603 Z " fill="#000000"/><text fill="#000000" font-family="sans-serif" font-size="12" font-style="italic" lengthAdjust="spacing" textLength="61.0605" x="2673.0614" y="303.5255">&#171;process&#187;</text><text fill="#000000" font-family="sans-serif" font-size="14" lengthAdjust="spacing" textLength="123.4297" x="2641.8769" y="319.3507">IMD_7009_proc_1</text><line style="stroke:#181818;stroke-width:0.5;" x1="2424.08" x2="2950.6034" y1="327.6525" y2="327.6525"/><text fill="#000000" font-family="sans-serif" font-size="14" lengthAdjust="spacing" textLength="105.0957" x="2429.08" y="344.6476">Gesetze: MsbG</text><text fill="#000000" font-family="sans-serif" font-size="14" lengthAdjust="spacing" textLength="516.5234" x="2429.08" y="360.9445">Zusammenfassung: Erl&#228;utere den Gesch&#228;ftsprozess 'Z&#228;hlerwechsel' bzw.</text><line style="stroke:#181818;stroke-width:0.5;" x1="2424.08" x2="2950.6034" y1="368.2463" y2="368.2463"/><text fill="#000000" font-family="sans-serif" font-size="14" lengthAdjust="spacing" textLength="311.0557" x="2429.08" y="385.2414">Z&#228;hlerwechsel und Ger&#228;te&#252;bernahme (WiM)</text></g><!--class IMD_7009_proc_2--><g class="entity" data-entity="IMD_7009_proc_2" data-source-line="34" data-uid="ent0009" id="entity_IMD_7009_proc_2"><rect fill="#F1F1F1" height="105.1563" rx="2.5" ry="2.5" style="stroke:#181818;stroke-width:0.5;" width="752.6465" x="2987.02" y="287.3869"/><ellipse cx="3297.3784" cy="307.5197" fill="#ADD1B2" rx="11" ry="11" style="stroke:#181818;stroke-width:1;"/><path d="M3300.3471,313.1603 Q3299.769,313.4572 3299.1284,313.5978 Q3298.4878,313.7541 3297.7846,313.7541 Q3295.2846,313.7541 3293.9565,312.1134 Q3292.644,310.4572 3292.644,307.3322 Q3292.644,304.2072 3293.9565,302.5509 Q3295.2846,300.8947 3297.7846,300.8947 Q3298.4878,300.8947 3299.1284,301.0509 Q3299.7846,301.2072 3300.3471,301.5041 L3300.3471,304.2228 Q3299.7221,303.6447 3299.1284,303.3791 Q3298.5346,303.0978 3297.9096,303.0978 Q3296.5659,303.0978 3295.8784,304.1759 Q3295.1909,305.2384 3295.1909,307.3322 Q3295.1909,309.4259 3295.8784,310.5041 Q3296.5659,311.5666 3297.9096,311.5666 Q3298.5346,311.5666 3299.1284,311.3009 Q3299.7221,311.0197 3300.3471,310.4416 L3300.3471,313.1603 Z " fill="#000000"/><text fill="#000000" font-family="sans-serif" font-size="12" font-style="italic" lengthAdjust="spacing" textLength="61.0605" x="3349.063" y="303.5255">&#171;process&#187;</text><text fill="#000000" font-family="sans-serif" font-size="14" lengthAdjust="spacing" textLength="123.4297" x="3317.8784" y="319.3507">IMD_7009_proc_2</text><line style="stroke:#181818;stroke-width:0.5;" x1="2988.02" x2="3738.6665" y1="327.6525" y2="327.6525"/><text fill="#000000" font-family="sans-serif" font-size="14" lengthAdjust="spacing" textLength="180.3457" x="2993.02" y="344.6476">Netznutzungsabrechnung</text><text fill="#000000" font-family="sans-serif" font-size="14" lengthAdjust="spacing" textLength="218.0938" x="2993.02" y="360.9445">Gesetze: StromNEV, StromNZV</text><text fill="#000000" font-family="sans-serif" font-size="14" lengthAdjust="spacing" textLength="740.6465" x="2993.02" y="377.2414">Zusammenfassung: Wie funktioniert die Netznutzungsabrechnung zwischen Netzbetreiber und Lieferant?</text><line style="stroke:#181818;stroke-width:0.5;" x1="2988.02" x2="3738.6665" y1="384.5431" y2="384.5431"/></g><!--class IMD_7009_proc_3--><g class="entity" data-entity="IMD_7009_proc_3" data-source-line="40" data-uid="ent0011" id="entity_IMD_7009_proc_3"><rect fill="#F1F1F1" height="105.1563" rx="2.5" ry="2.5" style="stroke:#181818;stroke-width:0.5;" width="690.2275" x="3774.23" y="287.3869"/><ellipse cx="4053.3789" cy="307.5197" fill="#ADD1B2" rx="11" ry="11" style="stroke:#181818;stroke-width:1;"/><path d="M4056.3477,313.1603 Q4055.7696,313.4572 4055.1289,313.5978 Q4054.4883,313.7541 4053.7852,313.7541 Q4051.2852,313.7541 4049.9571,312.1134 Q4048.6446,310.4572 4048.6446,307.3322 Q4048.6446,304.2072 4049.9571,302.5509 Q4051.2852,300.8947 4053.7852,300.8947 Q4054.4883,300.8947 4055.1289,301.0509 Q4055.7852,301.2072 4056.3477,301.5041 L4056.3477,304.2228 Q4055.7227,303.6447 4055.1289,303.3791 Q4054.5352,303.0978 4053.9102,303.0978 Q4052.5664,303.0978 4051.8789,304.1759 Q4051.1914,305.2384 4051.1914,307.3322 Q4051.1914,309.4259 4051.8789,310.5041 Q4052.5664,311.5666 4053.9102,311.5666 Q4054.5352,311.5666 4055.1289,311.3009 Q4055.7227,311.0197 4056.3477,310.4416 L4056.3477,313.1603 Z " fill="#000000"/><text fill="#000000" font-family="sans-serif" font-size="12" font-style="italic" lengthAdjust="spacing" textLength="61.0605" x="4105.0635" y="303.5255">&#171;process&#187;</text><text fill="#000000" font-family="sans-serif" font-size="14" lengthAdjust="spacing" textLength="123.4297" x="4073.8789" y="319.3507">IMD_7009_proc_3</text><line style="stroke:#181818;stroke-width:0.5;" x1="3775.23" x2="4463.4575" y1="327.6525" y2="327.6525"/><text fill="#000000" font-family="sans-serif" font-size="14" lengthAdjust="spacing" textLength="223.2822" x="3780.23" y="344.6476">Messstellenbetriebsabrechnung</text><text fill="#000000" font-family="sans-serif" font-size="14" lengthAdjust="spacing" textLength="105.0957" x="3780.23" y="360.9445">Gesetze: MsbG</text><text fill="#000000" font-family="sans-serif" font-size="14" lengthAdjust="spacing" textLength="678.2275" x="3780.23" y="377.2414">Zusammenfassung: Beschreibe den Prozess der Abrechnung von Messstellenbetriebsleistungen.</text><line style="stroke:#181818;stroke-width:0.5;" x1="3775.23" x2="4463.4575" y1="384.5431" y2="384.5431"/></g><!--class IMD_7009_proc_4--><g class="entity" data-entity="IMD_7009_proc_4" data-source-line="46" data-uid="ent0013" id="entity_IMD_7009_proc_4"><rect fill="#F1F1F1" height="105.1563" rx="2.5" ry="2.5" style="stroke:#181818;stroke-width:0.5;" width="1301.9961" x="4499.34" y="287.3869"/><ellipse cx="5084.3732" cy="307.5197" fill="#ADD1B2" rx="11" ry="11" style="stroke:#181818;stroke-width:1;"/><path d="M5087.342,313.1603 Q5086.7638,313.4572 5086.1232,313.5978 Q5085.4826,313.7541 5084.7795,313.7541 Q5082.2795,313.7541 5080.9513,312.1134 Q5079.6388,310.4572 5079.6388,307.3322 Q5079.6388,304.2072 5080.9513,302.5509 Q5082.2795,300.8947 5084.7795,300.8947 Q5085.4826,300.8947 5086.1232,301.0509 Q5086.7795,301.2072 5087.342,301.5041 L5087.342,304.2228 Q5086.717,303.6447 5086.1232,303.3791 Q5085.5295,303.0978 5084.9045,303.0978 Q5083.5607,303.0978 5082.8732,304.1759 Q5082.1857,305.2384 5082.1857,307.3322 Q5082.1857,309.4259 5082.8732,310.5041 Q5083.5607,311.5666 5084.9045,311.5666 Q5085.5295,311.5666 5086.1232,311.3009 Q5086.717,311.0197 5087.342,310.4416 L5087.342,313.1603 Z " fill="#000000"/><text fill="#000000" font-family="sans-serif" font-size="12" font-style="italic" lengthAdjust="spacing" textLength="61.0605" x="5136.0578" y="303.5255">&#171;process&#187;</text><text fill="#000000" font-family="sans-serif" font-size="14" lengthAdjust="spacing" textLength="123.4297" x="5104.8732" y="319.3507">IMD_7009_proc_4</text><line style="stroke:#181818;stroke-width:0.5;" x1="4500.34" x2="5800.3361" y1="327.6525" y2="327.6525"/><text fill="#000000" font-family="sans-serif" font-size="14" lengthAdjust="spacing" textLength="156.4063" x="4505.34" y="344.6476">Gesetze: MsbG, EnWG</text><text fill="#000000" font-family="sans-serif" font-size="14" lengthAdjust="spacing" textLength="1289.9961" x="4505.34" y="360.9445">Zusammenfassung: Erl&#228;utere den Prozess zur Bestellung einer spezifischen technischen Konfiguration bei einem Messstellenbetreiber, beispielsweise f&#252;r ein intelligentes Messsystem.</text><line style="stroke:#181818;stroke-width:0.5;" x1="4500.34" x2="5800.3361" y1="368.2463" y2="368.2463"/><text fill="#000000" font-family="sans-serif" font-size="14" lengthAdjust="spacing" textLength="348.2021" x="4505.34" y="385.2414">Bestellung einer technischen Konfiguration (MSB)</text></g><!--link IMD_7009 to IMD_7009_msg_1--><g class="link" data-entity-1="IMD_7009" data-entity-2="IMD_7009_msg_1" data-source-line="18" data-uid="lnk4" id="link_IMD_7009_IMD_7009_msg_1"><path codeLine="18" d="M2837.96,131.1369 C2506.67,154.5469 1795.94,207.0969 1197.34,267.0769 C1191.56,267.6569 1191.7195,267.6428 1185.8895,268.2328" fill="none" id="IMD_7009-to-IMD_7009_msg_1" style="stroke:#181818;stroke-width:1;"/><polygon fill="#181818" points="1179.92,268.8369,1189.277,271.9104,1184.8946,268.3334,1188.4715,263.951,1179.92,268.8369" style="stroke:#181818;stroke-width:1;"/><text fill="#000000" font-family="sans-serif" font-size="13" lengthAdjust="spacing" textLength="85.2363" x="1700.34" y="233.1438">verwendet in</text></g><!--link IMD_7009 to IMD_7009_msg_2--><g class="link" data-entity-1="IMD_7009" data-entity-2="IMD_7009_msg_2" data-source-line="27" data-uid="lnk6" id="link_IMD_7009_IMD_7009_msg_2"><path codeLine="27" d="M2837.78,152.0169 C2669.29,182.4069 2422.1547,226.9817 2208.2847,265.5617" fill="none" id="IMD_7009-to-IMD_7009_msg_2" style="stroke:#181818;stroke-width:1;"/><polygon fill="#181818" points="2202.38,266.6269,2211.9471,268.9656,2207.3006,265.7393,2210.5269,261.0927,2202.38,266.6269" style="stroke:#181818;stroke-width:1;"/><text fill="#000000" font-family="sans-serif" font-size="13" lengthAdjust="spacing" textLength="85.2363" x="2451.34" y="233.1438">verwendet in</text></g><!--link IMD_7009 to IMD_7009_proc_1--><g class="link" data-entity-1="IMD_7009" data-entity-2="IMD_7009_proc_1" data-source-line="33" data-uid="lnk8" id="link_IMD_7009_IMD_7009_proc_1"><path codeLine="33" d="M2914.67,190.4769 C2866.44,221.9769 2816.0131,254.9154 2771.9431,283.7054" fill="none" id="IMD_7009-to-IMD_7009_proc_1" style="stroke:#181818;stroke-width:1;stroke-dasharray:7,7;"/><polygon fill="#181818" points="2766.92,286.9869,2776.6424,285.4134,2771.1059,284.2523,2772.267,278.7159,2766.92,286.9869" style="stroke:#181818;stroke-width:1;"/><text fill="#000000" font-family="sans-serif" font-size="13" lengthAdjust="spacing" textLength="91.6221" x="2868.34" y="233.1438">eingebettet in</text></g><!--link IMD_7009 to IMD_7009_proc_2--><g class="link" data-entity-1="IMD_7009" data-entity-2="IMD_7009_proc_2" data-source-line="39" data-uid="lnk10" id="link_IMD_7009_IMD_7009_proc_2"><path codeLine="39" d="M3136.01,190.4769 C3184.24,221.9769 3234.6669,254.9154 3278.7369,283.7054" fill="none" id="IMD_7009-to-IMD_7009_proc_2" style="stroke:#181818;stroke-width:1;stroke-dasharray:7,7;"/><polygon fill="#181818" points="3283.76,286.9869,3278.413,278.7159,3279.5741,284.2523,3274.0376,285.4134,3283.76,286.9869" style="stroke:#181818;stroke-width:1;"/><text fill="#000000" font-family="sans-serif" font-size="13" lengthAdjust="spacing" textLength="91.6221" x="3206.34" y="233.1438">eingebettet in</text></g><!--link IMD_7009 to IMD_7009_proc_3--><g class="link" data-entity-1="IMD_7009" data-entity-2="IMD_7009_proc_3" data-source-line="45" data-uid="lnk12" id="link_IMD_7009_IMD_7009_proc_3"><path codeLine="45" d="M3212.78,156.0169 C3391.54,192.0869 3656.3786,245.5298 3855.4486,285.7098" fill="none" id="IMD_7009-to-IMD_7009_proc_3" style="stroke:#181818;stroke-width:1;stroke-dasharray:7,7;"/><polygon fill="#181818" points="3861.33,286.8969,3853.2993,281.1953,3856.4288,285.9076,3851.7165,289.0372,3861.33,286.8969" style="stroke:#181818;stroke-width:1;"/><text fill="#000000" font-family="sans-serif" font-size="13" lengthAdjust="spacing" textLength="91.6221" x="3606.34" y="233.1438">eingebettet in</text></g><!--link IMD_7009 to IMD_7009_proc_4--><g class="link" data-entity-1="IMD_7009" data-entity-2="IMD_7009_proc_4" data-source-line="51" data-uid="lnk14" id="link_IMD_7009_IMD_7009_proc_4"><path codeLine="51" d="M3212.82,137.0169 C3490.27,164.9669 4026.52,219.2569 4482.34,267.0769 C4542.95,273.4369 4600.6838,279.5605 4663.6838,286.2805" fill="none" id="IMD_7009-to-IMD_7009_proc_4" style="stroke:#181818;stroke-width:1;stroke-dasharray:7,7;"/><polygon fill="#181818" points="4669.65,286.9169,4661.125,281.9849,4664.6782,286.3866,4660.2765,289.9397,4669.65,286.9169" style="stroke:#181818;stroke-width:1;"/><text fill="#000000" font-family="sans-serif" font-size="13" lengthAdjust="spacing" textLength="91.6221" x="4164.34" y="233.1438">eingebettet in</text></g><!--SRC=[xLNDJjj04Bxp57C392VD7r0ib8e0ZL9mGecKIBbOTZnELh7NqUwQb5Hzcpm6jxnOPuAXW1C2LO-zZ6PtPdVc-xxnsWWJ8Pnx1gLd8az30LhEkNrKAXtl36cjUUdo4dxk0BIz66suLacGJapXqnKARL8vqZxguLYXy6bXmLaI82LJsXorHfjye8i7oyKuGZN3uLXZ1AaCe8bgkJ2ulFTHIMyS8-prXREV7MYZcSlKpBc2voiw9ydDWWvThGr64KeVZHBevtCQkCgW3K0XKO7XkA1UKS9b8aCnIfLdH29Xp-aszdT-lGBjndhabZFeX50CnyQ6LhlNQPr1fVWve03TO_07RNTn5ACa5k-Ir33-CEBy4AF09Yn2qXvJesqeLoqe7rbmshXXqxMueWNVUhIyxBGjS1o7JBT1XlVQfzSMTCx8wtR8z5iK7PGEsT0jWrgLJOtD0PdUpNFsFy2xjO5owssshOyJ3V0zvTiUoNITLjDbGjsloCrE4gLmObBbLagLWrAvMYvEWv3qUHh7Gg7-MYORRXcc3D00iRr6oieRKXR_cPONvwt_Wgu4TKbGLh1MEYmVRrMmiaN1gKg69FF92JlKVxs-alD3xqeJDJ52RJhQR_BXL7inIHrI9K9hmuMAbelKe48826kJNxRb8ZHw-i0_xBwijml-V5PyZgjOhETwjfd64HBLPZEqIWxQnXVm2KRNg2HkN_Iip1lqre7g2uGmbHCMJA0o4D36-ijXFijavZZF1ZthD01CwvN049KdpPUtyLRUXxUQmxljKT-gNkFnH_IWNlRDaA_Wz0_4MnhRDQMYx7U6SekUrVVXg-Nm_SLdzG8olIso_vwnVGG-JrM-g9xYN8HPrSqT-2XM1-BNNAq6mkAudWgCz8mScg_blU9yOeDJ1T5eK3-SlQFJyHPIQpbIVmC0]--></g></svg>