<svg xmlns="http://www.w3.org/2000/svg" xmlns:xlink="http://www.w3.org/1999/xlink" contentStyleType="text/css" data-diagram-type="CLASS" height="436px" preserveAspectRatio="none" style="width:9588px;height:436px;background:#FFFFFF;" version="1.1" viewBox="0 0 9588 436" width="9588px" zoomAndPan="magnify"><title>Datenatlas - IMD:C272</title><defs/><g><g class="title" data-source-line="1"><text fill="#000000" font-family="sans-serif" font-size="14" font-weight="bold" lengthAdjust="spacing" textLength="177.3584" x="4698.4904" y="22.9951">Datenatlas - IMD:C272</text></g><!--class IMD_C272--><g class="entity" data-entity="IMD_C272" data-source-line="2" data-uid="ent0002" id="entity_IMD_C272"><rect fill="#F1F1F1" height="162.0781" rx="2.5" ry="2.5" style="stroke:#181818;stroke-width:0.5;" width="374.2021" x="4876.24" y="44.2969"/><ellipse cx="5023.8484" cy="60.2969" fill="#ADD1B2" rx="11" ry="11" style="stroke:#181818;stroke-width:1;"/><path d="M5026.8171,65.9375 Q5026.239,66.2344 5025.5984,66.375 Q5024.9578,66.5313 5024.2546,66.5313 Q5021.7546,66.5313 5020.4265,64.8906 Q5019.114,63.2344 5019.114,60.1094 Q5019.114,56.9844 5020.4265,55.3281 Q5021.7546,53.6719 5024.2546,53.6719 Q5024.9578,53.6719 5025.5984,53.8281 Q5026.2546,53.9844 5026.8171,54.2813 L5026.8171,57 Q5026.1921,56.4219 5025.5984,56.1563 Q5025.0046,55.875 5024.3796,55.875 Q5023.0359,55.875 5022.3484,56.9531 Q5021.6609,58.0156 5021.6609,60.1094 Q5021.6609,62.2031 5022.3484,63.2813 Q5023.0359,64.3438 5024.3796,64.3438 Q5025.0046,64.3438 5025.5984,64.0781 Q5026.1921,63.7969 5026.8171,63.2188 L5026.8171,65.9375 Z " fill="#000000"/><text fill="#000000" font-family="sans-serif" font-size="14" lengthAdjust="spacing" textLength="70.4854" x="5044.3484" y="65.1436">IMD_C272</text><line style="stroke:#181818;stroke-width:0.5;" x1="4877.24" x2="5249.4421" y1="76.2969" y2="76.2969"/><text fill="#000000" font-family="sans-serif" font-size="14" lengthAdjust="spacing" textLength="169.0254" x="4896.24" y="93.292">Name: Produkt/Leistung</text><text fill="#000000" font-family="sans-serif" font-size="14" lengthAdjust="spacing" textLength="66.6436" x="4896.24" y="109.5889">Prozesse:</text><rect fill="none" height="6" style="stroke:#C82930;stroke-width:1;" width="6" x="4884.24" y="119.5391"/><text fill="#000000" font-family="sans-serif" font-size="14" lengthAdjust="spacing" textLength="180.3457" x="4896.24" y="125.8857">Netznutzungsabrechnung</text><rect fill="none" height="6" style="stroke:#C82930;stroke-width:1;" width="6" x="4884.24" y="135.8359"/><text fill="#000000" font-family="sans-serif" font-size="14" lengthAdjust="spacing" textLength="223.2822" x="4896.24" y="142.1826">Messstellenbetriebsabrechnung</text><rect fill="none" height="6" style="stroke:#C82930;stroke-width:1;" width="6" x="4884.24" y="152.1328"/><text fill="#000000" font-family="sans-serif" font-size="14" lengthAdjust="spacing" textLength="317.9668" x="4896.24" y="158.4795">Sperrung und Entsperrung eines Anschlusses</text><line style="stroke:#181818;stroke-width:0.5;" x1="4877.24" x2="5249.4421" y1="165.7813" y2="165.7813"/><rect fill="#F24D5C" height="6" style="stroke:#C82930;stroke-width:1;" width="6" x="4884.24" y="176.4297"/><text fill="#000000" font-family="sans-serif" font-size="14" lengthAdjust="spacing" textLength="311.0557" x="4896.24" y="182.7764">Z&#228;hlerwechsel und Ger&#228;te&#252;bernahme (WiM)</text><rect fill="#F24D5C" height="6" style="stroke:#C82930;stroke-width:1;" width="6" x="4884.24" y="192.7266"/><text fill="#000000" font-family="sans-serif" font-size="14" lengthAdjust="spacing" textLength="348.2021" x="4896.24" y="199.0732">Bestellung einer technischen Konfiguration (MSB)</text></g><!--class IMD_C272_msg_1--><g class="entity" data-entity="IMD_C272_msg_1" data-source-line="11" data-uid="ent0003" id="entity_IMD_C272_msg_1"><rect fill="#F1F1F1" height="145.7813" rx="2.5" ry="2.5" style="stroke:#181818;stroke-width:0.5;" width="1172.6807" x="7" y="283.3769"/><ellipse cx="527.4849" cy="299.3769" fill="#ADD1B2" rx="11" ry="11" style="stroke:#181818;stroke-width:1;"/><path d="M530.4536,305.0175 Q529.8755,305.3144 529.2349,305.455 Q528.5942,305.6113 527.8911,305.6113 Q525.3911,305.6113 524.063,303.9706 Q522.7505,302.3144 522.7505,299.1894 Q522.7505,296.0644 524.063,294.4081 Q525.3911,292.7519 527.8911,292.7519 Q528.5942,292.7519 529.2349,292.9081 Q529.8911,293.0644 530.4536,293.3613 L530.4536,296.08 Q529.8286,295.5019 529.2349,295.2363 Q528.6411,294.955 528.0161,294.955 Q526.6724,294.955 525.9849,296.0331 Q525.2974,297.0956 525.2974,299.1894 Q525.2974,301.2831 525.9849,302.3613 Q526.6724,303.4238 528.0161,303.4238 Q528.6411,303.4238 529.2349,303.1581 Q529.8286,302.8769 530.4536,302.2988 L530.4536,305.0175 Z " fill="#000000"/><text fill="#000000" font-family="sans-serif" font-size="14" lengthAdjust="spacing" textLength="123.2109" x="547.9849" y="304.2236">IMD_C272_msg_1</text><line style="stroke:#181818;stroke-width:0.5;" x1="8" x2="1178.6807" y1="315.3769" y2="315.3769"/><text fill="#000000" font-family="sans-serif" font-size="14" lengthAdjust="spacing" textLength="161.1982" x="13" y="332.372">Nachricht: INVOIC 2.8d</text><text fill="#000000" font-family="sans-serif" font-size="14" lengthAdjust="spacing" textLength="170.3447" x="13" y="348.6689">Kontext: Segmentlayout</text><text fill="#000000" font-family="sans-serif" font-size="14" lengthAdjust="spacing" textLength="110.5439" x="13" y="364.9657">Pflichtfeld: Nein</text><text fill="#000000" font-family="sans-serif" font-size="14" lengthAdjust="spacing" textLength="777.9229" x="13" y="381.2626">Codes: 13, 17, ABR, ABS, IMD, JVR, KON, MMM, MSB, MVR, NAP, OCR, SOR, WIM, Z06, Z07, Z43, Z44, Z45, ZVR</text><text fill="#000000" font-family="sans-serif" font-size="14" lengthAdjust="spacing" textLength="396.6074" x="13" y="397.5595">Quelle: INVOIC_MIG_2.8d_Fehlerkorrektur_20250131.pdf</text><line style="stroke:#181818;stroke-width:0.5;" x1="8" x2="1178.6807" y1="404.8613" y2="404.8613"/><text fill="#000000" font-family="sans-serif" font-size="14" lengthAdjust="spacing" textLength="1160.6807" x="13" y="421.8564">Prozesse: Z&#228;hlerwechsel und Ger&#228;te&#252;bernahme (WiM), Netznutzungsabrechnung, Messstellenbetriebsabrechnung, Bestellung einer technischen Konfiguration (MSB)</text></g><!--class IMD_C272_msg_2--><g class="entity" data-entity="IMD_C272_msg_2" data-source-line="20" data-uid="ent0005" id="entity_IMD_C272_msg_2"><rect fill="#F1F1F1" height="145.7813" rx="2.5" ry="2.5" style="stroke:#181818;stroke-width:0.5;" width="1172.6807" x="1215" y="283.3769"/><ellipse cx="1735.4849" cy="299.3769" fill="#ADD1B2" rx="11" ry="11" style="stroke:#181818;stroke-width:1;"/><path d="M1738.4536,305.0175 Q1737.8755,305.3144 1737.2349,305.455 Q1736.5942,305.6113 1735.8911,305.6113 Q1733.3911,305.6113 1732.063,303.9706 Q1730.7505,302.3144 1730.7505,299.1894 Q1730.7505,296.0644 1732.063,294.4081 Q1733.3911,292.7519 1735.8911,292.7519 Q1736.5942,292.7519 1737.2349,292.9081 Q1737.8911,293.0644 1738.4536,293.3613 L1738.4536,296.08 Q1737.8286,295.5019 1737.2349,295.2363 Q1736.6411,294.955 1736.0161,294.955 Q1734.6724,294.955 1733.9849,296.0331 Q1733.2974,297.0956 1733.2974,299.1894 Q1733.2974,301.2831 1733.9849,302.3613 Q1734.6724,303.4238 1736.0161,303.4238 Q1736.6411,303.4238 1737.2349,303.1581 Q1737.8286,302.8769 1738.4536,302.2988 L1738.4536,305.0175 Z " fill="#000000"/><text fill="#000000" font-family="sans-serif" font-size="14" lengthAdjust="spacing" textLength="123.2109" x="1755.9849" y="304.2236">IMD_C272_msg_2</text><line style="stroke:#181818;stroke-width:0.5;" x1="1216" x2="2386.6807" y1="315.3769" y2="315.3769"/><text fill="#000000" font-family="sans-serif" font-size="14" lengthAdjust="spacing" textLength="165.6484" x="1221" y="332.372">Nachricht: INVOIC 2.8d.</text><text fill="#000000" font-family="sans-serif" font-size="14" lengthAdjust="spacing" textLength="170.3447" x="1221" y="348.6689">Kontext: Segmentlayout</text><text fill="#000000" font-family="sans-serif" font-size="14" lengthAdjust="spacing" textLength="110.5439" x="1221" y="364.9657">Pflichtfeld: Nein</text><text fill="#000000" font-family="sans-serif" font-size="14" lengthAdjust="spacing" textLength="810.5781" x="1221" y="381.2626">Codes: 13, 17, ABR, ABS, EDI, IMD, JVR, KON, MMM, MSB, MVR, NAP, OCR, SOR, WIM, Z06, Z07, Z43, Z44, Z45, ZVR</text><text fill="#000000" font-family="sans-serif" font-size="14" lengthAdjust="spacing" textLength="290.3359" x="1221" y="397.5595">Quelle: INVOIC_MIG_2_8d__20240619.pdf</text><line style="stroke:#181818;stroke-width:0.5;" x1="1216" x2="2386.6807" y1="404.8613" y2="404.8613"/><text fill="#000000" font-family="sans-serif" font-size="14" lengthAdjust="spacing" textLength="1160.6807" x="1221" y="421.8564">Prozesse: Z&#228;hlerwechsel und Ger&#228;te&#252;bernahme (WiM), Netznutzungsabrechnung, Messstellenbetriebsabrechnung, Bestellung einer technischen Konfiguration (MSB)</text></g><!--class IMD_C272_msg_3--><g class="entity" data-entity="IMD_C272_msg_3" data-source-line="29" data-uid="ent0007" id="entity_IMD_C272_msg_3"><rect fill="#F1F1F1" height="145.7813" rx="2.5" ry="2.5" style="stroke:#181818;stroke-width:0.5;" width="758.1631" x="2422.26" y="283.3769"/><ellipse cx="2735.4861" cy="299.3769" fill="#ADD1B2" rx="11" ry="11" style="stroke:#181818;stroke-width:1;"/><path d="M2738.4548,305.0175 Q2737.8767,305.3144 2737.2361,305.455 Q2736.5954,305.6113 2735.8923,305.6113 Q2733.3923,305.6113 2732.0642,303.9706 Q2730.7517,302.3144 2730.7517,299.1894 Q2730.7517,296.0644 2732.0642,294.4081 Q2733.3923,292.7519 2735.8923,292.7519 Q2736.5954,292.7519 2737.2361,292.9081 Q2737.8923,293.0644 2738.4548,293.3613 L2738.4548,296.08 Q2737.8298,295.5019 2737.2361,295.2363 Q2736.6423,294.955 2736.0173,294.955 Q2734.6736,294.955 2733.9861,296.0331 Q2733.2986,297.0956 2733.2986,299.1894 Q2733.2986,301.2831 2733.9861,302.3613 Q2734.6736,303.4238 2736.0173,303.4238 Q2736.6423,303.4238 2737.2361,303.1581 Q2737.8298,302.8769 2738.4548,302.2988 L2738.4548,305.0175 Z " fill="#000000"/><text fill="#000000" font-family="sans-serif" font-size="14" lengthAdjust="spacing" textLength="123.2109" x="2755.9861" y="304.2236">IMD_C272_msg_3</text><line style="stroke:#181818;stroke-width:0.5;" x1="2423.26" x2="3179.4231" y1="315.3769" y2="315.3769"/><text fill="#000000" font-family="sans-serif" font-size="14" lengthAdjust="spacing" textLength="161.793" x="2428.26" y="332.372">Nachricht: ORDRSP 1.4</text><text fill="#000000" font-family="sans-serif" font-size="14" lengthAdjust="spacing" textLength="170.3447" x="2428.26" y="348.6689">Kontext: Segmentlayout</text><text fill="#000000" font-family="sans-serif" font-size="14" lengthAdjust="spacing" textLength="110.5439" x="2428.26" y="364.9657">Pflichtfeld: Nein</text><text fill="#000000" font-family="sans-serif" font-size="14" lengthAdjust="spacing" textLength="329.0957" x="2428.26" y="381.2626">Codes: 999, EDI, IMD, Z10, Z11, Z12, Z13, Z35</text><text fill="#000000" font-family="sans-serif" font-size="14" lengthAdjust="spacing" textLength="283.9307" x="2428.26" y="397.5595">Quelle: ORDRSP_MIG_1_4_20240619.pdf</text><line style="stroke:#181818;stroke-width:0.5;" x1="2423.26" x2="3179.4231" y1="404.8613" y2="404.8613"/><text fill="#000000" font-family="sans-serif" font-size="14" lengthAdjust="spacing" textLength="746.1631" x="2428.26" y="421.8564">Prozesse: Bestellung einer technischen Konfiguration (MSB), Sperrung und Entsperrung eines Anschlusses</text></g><!--class IMD_C272_msg_4--><g class="entity" data-entity="IMD_C272_msg_4" data-source-line="38" data-uid="ent0009" id="entity_IMD_C272_msg_4"><rect fill="#F1F1F1" height="145.7813" rx="2.5" ry="2.5" style="stroke:#181818;stroke-width:0.5;" width="803.0205" x="3215.83" y="283.3769"/><ellipse cx="3551.4848" cy="299.3769" fill="#ADD1B2" rx="11" ry="11" style="stroke:#181818;stroke-width:1;"/><path d="M3554.4535,305.0175 Q3553.8754,305.3144 3553.2348,305.455 Q3552.5942,305.6113 3551.891,305.6113 Q3549.391,305.6113 3548.0629,303.9706 Q3546.7504,302.3144 3546.7504,299.1894 Q3546.7504,296.0644 3548.0629,294.4081 Q3549.391,292.7519 3551.891,292.7519 Q3552.5942,292.7519 3553.2348,292.9081 Q3553.891,293.0644 3554.4535,293.3613 L3554.4535,296.08 Q3553.8285,295.5019 3553.2348,295.2363 Q3552.641,294.955 3552.016,294.955 Q3550.6723,294.955 3549.9848,296.0331 Q3549.2973,297.0956 3549.2973,299.1894 Q3549.2973,301.2831 3549.9848,302.3613 Q3550.6723,303.4238 3552.016,303.4238 Q3552.641,303.4238 3553.2348,303.1581 Q3553.8285,302.8769 3554.4535,302.2988 L3554.4535,305.0175 Z " fill="#000000"/><text fill="#000000" font-family="sans-serif" font-size="14" lengthAdjust="spacing" textLength="123.2109" x="3571.9848" y="304.2236">IMD_C272_msg_4</text><line style="stroke:#181818;stroke-width:0.5;" x1="3216.83" x2="4017.8505" y1="315.3769" y2="315.3769"/><text fill="#000000" font-family="sans-serif" font-size="14" lengthAdjust="spacing" textLength="162.2988" x="3221.83" y="332.372">Nachricht: PRICAT 2.0d</text><text fill="#000000" font-family="sans-serif" font-size="14" lengthAdjust="spacing" textLength="516.5371" x="3221.83" y="348.6689">Kontext: 1310   SG36   C   999999   R   999999   2   LIN - PIA - IMD - SG40</text><text fill="#000000" font-family="sans-serif" font-size="14" lengthAdjust="spacing" textLength="110.5439" x="3221.83" y="364.9657">Pflichtfeld: Nein</text><text fill="#000000" font-family="sans-serif" font-size="14" lengthAdjust="spacing" textLength="791.0205" x="3221.83" y="381.2626">Codes: 000, 10, 100, 130, 170, 20, 200, 31, 50, 999, IMD, LIN, OCR, PGI, PIA, POG, Z15, Z16, Z17, Z18, Z19, Z20</text><text fill="#000000" font-family="sans-serif" font-size="14" lengthAdjust="spacing" textLength="251.4395" x="3221.83" y="397.5595">Prozesse: Netznutzungsabrechnung</text><text fill="#000000" font-family="sans-serif" font-size="14" lengthAdjust="spacing" textLength="284.4365" x="3221.83" y="413.8564">Quelle: PRICAT_MIG_2_0d_20240619.pdf</text><line style="stroke:#181818;stroke-width:0.5;" x1="3216.83" x2="4017.8505" y1="421.1581" y2="421.1581"/></g><!--class IMD_C272_msg_5--><g class="entity" data-entity="IMD_C272_msg_5" data-source-line="47" data-uid="ent0011" id="entity_IMD_C272_msg_5"><rect fill="#F1F1F1" height="145.7813" rx="2.5" ry="2.5" style="stroke:#181818;stroke-width:0.5;" width="758.1631" x="4054.26" y="283.3769"/><ellipse cx="4367.4861" cy="299.3769" fill="#ADD1B2" rx="11" ry="11" style="stroke:#181818;stroke-width:1;"/><path d="M4370.4548,305.0175 Q4369.8767,305.3144 4369.2361,305.455 Q4368.5954,305.6113 4367.8923,305.6113 Q4365.3923,305.6113 4364.0642,303.9706 Q4362.7517,302.3144 4362.7517,299.1894 Q4362.7517,296.0644 4364.0642,294.4081 Q4365.3923,292.7519 4367.8923,292.7519 Q4368.5954,292.7519 4369.2361,292.9081 Q4369.8923,293.0644 4370.4548,293.3613 L4370.4548,296.08 Q4369.8298,295.5019 4369.2361,295.2363 Q4368.6423,294.955 4368.0173,294.955 Q4366.6736,294.955 4365.9861,296.0331 Q4365.2986,297.0956 4365.2986,299.1894 Q4365.2986,301.2831 4365.9861,302.3613 Q4366.6736,303.4238 4368.0173,303.4238 Q4368.6423,303.4238 4369.2361,303.1581 Q4369.8298,302.8769 4370.4548,302.2988 L4370.4548,305.0175 Z " fill="#000000"/><text fill="#000000" font-family="sans-serif" font-size="14" lengthAdjust="spacing" textLength="123.2109" x="4387.9861" y="304.2236">IMD_C272_msg_5</text><line style="stroke:#181818;stroke-width:0.5;" x1="4055.26" x2="4811.4231" y1="315.3769" y2="315.3769"/><text fill="#000000" font-family="sans-serif" font-size="14" lengthAdjust="spacing" textLength="170.3584" x="4060.26" y="332.372">Nachricht: QUOTES 1.3a</text><text fill="#000000" font-family="sans-serif" font-size="14" lengthAdjust="spacing" textLength="123.0605" x="4060.26" y="348.6689">Kontext: Beispiel:</text><text fill="#000000" font-family="sans-serif" font-size="14" lengthAdjust="spacing" textLength="110.5439" x="4060.26" y="364.9657">Pflichtfeld: Nein</text><text fill="#000000" font-family="sans-serif" font-size="14" lengthAdjust="spacing" textLength="372.1689" x="4060.26" y="381.2626">Codes: 999, IMD, OCR, Z07, Z08, Z33, Z34, Z55, Z64</text><text fill="#000000" font-family="sans-serif" font-size="14" lengthAdjust="spacing" textLength="292.4961" x="4060.26" y="397.5595">Quelle: QUOTES_MIG_1_3a_20240619.pdf</text><line style="stroke:#181818;stroke-width:0.5;" x1="4055.26" x2="4811.4231" y1="404.8613" y2="404.8613"/><text fill="#000000" font-family="sans-serif" font-size="14" lengthAdjust="spacing" textLength="746.1631" x="4060.26" y="421.8564">Prozesse: Bestellung einer technischen Konfiguration (MSB), Sperrung und Entsperrung eines Anschlusses</text></g><!--class IMD_C272_msg_6--><g class="entity" data-entity="IMD_C272_msg_6" data-source-line="56" data-uid="ent0013" id="entity_IMD_C272_msg_6"><rect fill="#F1F1F1" height="145.7813" rx="2.5" ry="2.5" style="stroke:#181818;stroke-width:0.5;" width="431.2959" x="4847.69" y="283.3769"/><ellipse cx="4997.4825" cy="299.3769" fill="#ADD1B2" rx="11" ry="11" style="stroke:#181818;stroke-width:1;"/><path d="M5000.4512,305.0175 Q4999.8731,305.3144 4999.2325,305.455 Q4998.5919,305.6113 4997.8887,305.6113 Q4995.3887,305.6113 4994.0606,303.9706 Q4992.7481,302.3144 4992.7481,299.1894 Q4992.7481,296.0644 4994.0606,294.4081 Q4995.3887,292.7519 4997.8887,292.7519 Q4998.5919,292.7519 4999.2325,292.9081 Q4999.8887,293.0644 5000.4512,293.3613 L5000.4512,296.08 Q4999.8262,295.5019 4999.2325,295.2363 Q4998.6387,294.955 4998.0137,294.955 Q4996.67,294.955 4995.9825,296.0331 Q4995.295,297.0956 4995.295,299.1894 Q4995.295,301.2831 4995.9825,302.3613 Q4996.67,303.4238 4998.0137,303.4238 Q4998.6387,303.4238 4999.2325,303.1581 Q4999.8262,302.8769 5000.4512,302.2988 L5000.4512,305.0175 Z " fill="#000000"/><text fill="#000000" font-family="sans-serif" font-size="14" lengthAdjust="spacing" textLength="123.2109" x="5017.9825" y="304.2236">IMD_C272_msg_6</text><line style="stroke:#181818;stroke-width:0.5;" x1="4848.69" x2="5277.9859" y1="315.3769" y2="315.3769"/><text fill="#000000" font-family="sans-serif" font-size="14" lengthAdjust="spacing" textLength="170.1055" x="4853.69" y="332.372">Nachricht: REQOTE 1.3b</text><text fill="#000000" font-family="sans-serif" font-size="14" lengthAdjust="spacing" textLength="170.3447" x="4853.69" y="348.6689">Kontext: Segmentlayout</text><text fill="#000000" font-family="sans-serif" font-size="14" lengthAdjust="spacing" textLength="110.5439" x="4853.69" y="364.9657">Pflichtfeld: Nein</text><text fill="#000000" font-family="sans-serif" font-size="14" lengthAdjust="spacing" textLength="259.6016" x="4853.69" y="381.2626">Codes: 999, EDI, IMD, OCR, Z55, Z64</text><text fill="#000000" font-family="sans-serif" font-size="14" lengthAdjust="spacing" textLength="292.2432" x="4853.69" y="397.5595">Quelle: REQOTE_MIG_1_3b_20241001.pdf</text><line style="stroke:#181818;stroke-width:0.5;" x1="4848.69" x2="5277.9859" y1="404.8613" y2="404.8613"/><text fill="#000000" font-family="sans-serif" font-size="14" lengthAdjust="spacing" textLength="419.2959" x="4853.69" y="421.8564">Prozesse: Bestellung einer technischen Konfiguration (MSB)</text></g><!--class IMD_C272_proc_1--><g class="entity" data-entity="IMD_C272_proc_1" data-source-line="65" data-uid="ent0015" id="entity_IMD_C272_proc_1"><rect fill="#F1F1F1" height="105.1563" rx="2.5" ry="2.5" style="stroke:#181818;stroke-width:0.5;" width="528.5234" x="5314.08" y="303.6869"/><ellipse cx="5511.9428" cy="323.8197" fill="#ADD1B2" rx="11" ry="11" style="stroke:#181818;stroke-width:1;"/><path d="M5514.9115,329.4603 Q5514.3334,329.7572 5513.6928,329.8978 Q5513.0522,330.0541 5512.349,330.0541 Q5509.849,330.0541 5508.5209,328.4134 Q5507.2084,326.7572 5507.2084,323.6322 Q5507.2084,320.5072 5508.5209,318.8509 Q5509.849,317.1947 5512.349,317.1947 Q5513.0522,317.1947 5513.6928,317.3509 Q5514.349,317.5072 5514.9115,317.8041 L5514.9115,320.5228 Q5514.2865,319.9447 5513.6928,319.6791 Q5513.099,319.3978 5512.474,319.3978 Q5511.1303,319.3978 5510.4428,320.4759 Q5509.7553,321.5384 5509.7553,323.6322 Q5509.7553,325.7259 5510.4428,326.8041 Q5511.1303,327.8666 5512.474,327.8666 Q5513.099,327.8666 5513.6928,327.6009 Q5514.2865,327.3197 5514.9115,326.7416 L5514.9115,329.4603 Z " fill="#000000"/><text fill="#000000" font-family="sans-serif" font-size="12" font-style="italic" lengthAdjust="spacing" textLength="61.0605" x="5564.0614" y="319.8255">&#171;process&#187;</text><text fill="#000000" font-family="sans-serif" font-size="14" lengthAdjust="spacing" textLength="124.2979" x="5532.4428" y="335.6507">IMD_C272_proc_1</text><line style="stroke:#181818;stroke-width:0.5;" x1="5315.08" x2="5841.6034" y1="343.9525" y2="343.9525"/><text fill="#000000" font-family="sans-serif" font-size="14" lengthAdjust="spacing" textLength="105.0957" x="5320.08" y="360.9476">Gesetze: MsbG</text><text fill="#000000" font-family="sans-serif" font-size="14" lengthAdjust="spacing" textLength="516.5234" x="5320.08" y="377.2445">Zusammenfassung: Erl&#228;utere den Gesch&#228;ftsprozess 'Z&#228;hlerwechsel' bzw.</text><line style="stroke:#181818;stroke-width:0.5;" x1="5315.08" x2="5841.6034" y1="384.5463" y2="384.5463"/><text fill="#000000" font-family="sans-serif" font-size="14" lengthAdjust="spacing" textLength="311.0557" x="5320.08" y="401.5414">Z&#228;hlerwechsel und Ger&#228;te&#252;bernahme (WiM)</text></g><!--class IMD_C272_proc_2--><g class="entity" data-entity="IMD_C272_proc_2" data-source-line="71" data-uid="ent0017" id="entity_IMD_C272_proc_2"><rect fill="#F1F1F1" height="105.1563" rx="2.5" ry="2.5" style="stroke:#181818;stroke-width:0.5;" width="752.6465" x="5878.02" y="303.6869"/><ellipse cx="6187.9443" cy="323.8197" fill="#ADD1B2" rx="11" ry="11" style="stroke:#181818;stroke-width:1;"/><path d="M6190.9131,329.4603 Q6190.3349,329.7572 6189.6943,329.8978 Q6189.0537,330.0541 6188.3506,330.0541 Q6185.8506,330.0541 6184.5224,328.4134 Q6183.2099,326.7572 6183.2099,323.6322 Q6183.2099,320.5072 6184.5224,318.8509 Q6185.8506,317.1947 6188.3506,317.1947 Q6189.0537,317.1947 6189.6943,317.3509 Q6190.3506,317.5072 6190.9131,317.8041 L6190.9131,320.5228 Q6190.2881,319.9447 6189.6943,319.6791 Q6189.1006,319.3978 6188.4756,319.3978 Q6187.1318,319.3978 6186.4443,320.4759 Q6185.7568,321.5384 6185.7568,323.6322 Q6185.7568,325.7259 6186.4443,326.8041 Q6187.1318,327.8666 6188.4756,327.8666 Q6189.1006,327.8666 6189.6943,327.6009 Q6190.2881,327.3197 6190.9131,326.7416 L6190.9131,329.4603 Z " fill="#000000"/><text fill="#000000" font-family="sans-serif" font-size="12" font-style="italic" lengthAdjust="spacing" textLength="61.0605" x="6240.063" y="319.8255">&#171;process&#187;</text><text fill="#000000" font-family="sans-serif" font-size="14" lengthAdjust="spacing" textLength="124.2979" x="6208.4443" y="335.6507">IMD_C272_proc_2</text><line style="stroke:#181818;stroke-width:0.5;" x1="5879.02" x2="6629.6665" y1="343.9525" y2="343.9525"/><text fill="#000000" font-family="sans-serif" font-size="14" lengthAdjust="spacing" textLength="180.3457" x="5884.02" y="360.9476">Netznutzungsabrechnung</text><text fill="#000000" font-family="sans-serif" font-size="14" lengthAdjust="spacing" textLength="218.0938" x="5884.02" y="377.2445">Gesetze: StromNEV, StromNZV</text><text fill="#000000" font-family="sans-serif" font-size="14" lengthAdjust="spacing" textLength="740.6465" x="5884.02" y="393.5414">Zusammenfassung: Wie funktioniert die Netznutzungsabrechnung zwischen Netzbetreiber und Lieferant?</text><line style="stroke:#181818;stroke-width:0.5;" x1="5879.02" x2="6629.6665" y1="400.8431" y2="400.8431"/></g><!--class IMD_C272_proc_3--><g class="entity" data-entity="IMD_C272_proc_3" data-source-line="77" data-uid="ent0019" id="entity_IMD_C272_proc_3"><rect fill="#F1F1F1" height="105.1563" rx="2.5" ry="2.5" style="stroke:#181818;stroke-width:0.5;" width="690.2275" x="6665.23" y="303.6869"/><ellipse cx="6943.9448" cy="323.8197" fill="#ADD1B2" rx="11" ry="11" style="stroke:#181818;stroke-width:1;"/><path d="M6946.9136,329.4603 Q6946.3355,329.7572 6945.6948,329.8978 Q6945.0542,330.0541 6944.3511,330.0541 Q6941.8511,330.0541 6940.523,328.4134 Q6939.2105,326.7572 6939.2105,323.6322 Q6939.2105,320.5072 6940.523,318.8509 Q6941.8511,317.1947 6944.3511,317.1947 Q6945.0542,317.1947 6945.6948,317.3509 Q6946.3511,317.5072 6946.9136,317.8041 L6946.9136,320.5228 Q6946.2886,319.9447 6945.6948,319.6791 Q6945.1011,319.3978 6944.4761,319.3978 Q6943.1323,319.3978 6942.4448,320.4759 Q6941.7573,321.5384 6941.7573,323.6322 Q6941.7573,325.7259 6942.4448,326.8041 Q6943.1323,327.8666 6944.4761,327.8666 Q6945.1011,327.8666 6945.6948,327.6009 Q6946.2886,327.3197 6946.9136,326.7416 L6946.9136,329.4603 Z " fill="#000000"/><text fill="#000000" font-family="sans-serif" font-size="12" font-style="italic" lengthAdjust="spacing" textLength="61.0605" x="6996.0635" y="319.8255">&#171;process&#187;</text><text fill="#000000" font-family="sans-serif" font-size="14" lengthAdjust="spacing" textLength="124.2979" x="6964.4448" y="335.6507">IMD_C272_proc_3</text><line style="stroke:#181818;stroke-width:0.5;" x1="6666.23" x2="7354.4575" y1="343.9525" y2="343.9525"/><text fill="#000000" font-family="sans-serif" font-size="14" lengthAdjust="spacing" textLength="223.2822" x="6671.23" y="360.9476">Messstellenbetriebsabrechnung</text><text fill="#000000" font-family="sans-serif" font-size="14" lengthAdjust="spacing" textLength="105.0957" x="6671.23" y="377.2445">Gesetze: MsbG</text><text fill="#000000" font-family="sans-serif" font-size="14" lengthAdjust="spacing" textLength="678.2275" x="6671.23" y="393.5414">Zusammenfassung: Beschreibe den Prozess der Abrechnung von Messstellenbetriebsleistungen.</text><line style="stroke:#181818;stroke-width:0.5;" x1="6666.23" x2="7354.4575" y1="400.8431" y2="400.8431"/></g><!--class IMD_C272_proc_4--><g class="entity" data-entity="IMD_C272_proc_4" data-source-line="83" data-uid="ent0021" id="entity_IMD_C272_proc_4"><rect fill="#F1F1F1" height="105.1563" rx="2.5" ry="2.5" style="stroke:#181818;stroke-width:0.5;" width="1301.9961" x="7390.34" y="303.6869"/><ellipse cx="7974.9391" cy="323.8197" fill="#ADD1B2" rx="11" ry="11" style="stroke:#181818;stroke-width:1;"/><path d="M7977.9079,329.4603 Q7977.3297,329.7572 7976.6891,329.8978 Q7976.0485,330.0541 7975.3454,330.0541 Q7972.8454,330.0541 7971.5172,328.4134 Q7970.2047,326.7572 7970.2047,323.6322 Q7970.2047,320.5072 7971.5172,318.8509 Q7972.8454,317.1947 7975.3454,317.1947 Q7976.0485,317.1947 7976.6891,317.3509 Q7977.3454,317.5072 7977.9079,317.8041 L7977.9079,320.5228 Q7977.2829,319.9447 7976.6891,319.6791 Q7976.0954,319.3978 7975.4704,319.3978 Q7974.1266,319.3978 7973.4391,320.4759 Q7972.7516,321.5384 7972.7516,323.6322 Q7972.7516,325.7259 7973.4391,326.8041 Q7974.1266,327.8666 7975.4704,327.8666 Q7976.0954,327.8666 7976.6891,327.6009 Q7977.2829,327.3197 7977.9079,326.7416 L7977.9079,329.4603 Z " fill="#000000"/><text fill="#000000" font-family="sans-serif" font-size="12" font-style="italic" lengthAdjust="spacing" textLength="61.0605" x="8027.0578" y="319.8255">&#171;process&#187;</text><text fill="#000000" font-family="sans-serif" font-size="14" lengthAdjust="spacing" textLength="124.2979" x="7995.4391" y="335.6507">IMD_C272_proc_4</text><line style="stroke:#181818;stroke-width:0.5;" x1="7391.34" x2="8691.3361" y1="343.9525" y2="343.9525"/><text fill="#000000" font-family="sans-serif" font-size="14" lengthAdjust="spacing" textLength="156.4063" x="7396.34" y="360.9476">Gesetze: MsbG, EnWG</text><text fill="#000000" font-family="sans-serif" font-size="14" lengthAdjust="spacing" textLength="1289.9961" x="7396.34" y="377.2445">Zusammenfassung: Erl&#228;utere den Prozess zur Bestellung einer spezifischen technischen Konfiguration bei einem Messstellenbetreiber, beispielsweise f&#252;r ein intelligentes Messsystem.</text><line style="stroke:#181818;stroke-width:0.5;" x1="7391.34" x2="8691.3361" y1="384.5463" y2="384.5463"/><text fill="#000000" font-family="sans-serif" font-size="14" lengthAdjust="spacing" textLength="348.2021" x="7396.34" y="401.5414">Bestellung einer technischen Konfiguration (MSB)</text></g><!--class IMD_C272_proc_5--><g class="entity" data-entity="IMD_C272_proc_5" data-source-line="89" data-uid="ent0023" id="entity_IMD_C272_proc_5"><rect fill="#F1F1F1" height="105.1563" rx="2.5" ry="2.5" style="stroke:#181818;stroke-width:0.5;" width="853.9893" x="8727.35" y="303.6869"/><ellipse cx="9087.9457" cy="323.8197" fill="#ADD1B2" rx="11" ry="11" style="stroke:#181818;stroke-width:1;"/><path d="M9090.9145,329.4603 Q9090.3363,329.7572 9089.6957,329.8978 Q9089.0551,330.0541 9088.352,330.0541 Q9085.852,330.0541 9084.5238,328.4134 Q9083.2113,326.7572 9083.2113,323.6322 Q9083.2113,320.5072 9084.5238,318.8509 Q9085.852,317.1947 9088.352,317.1947 Q9089.0551,317.1947 9089.6957,317.3509 Q9090.352,317.5072 9090.9145,317.8041 L9090.9145,320.5228 Q9090.2895,319.9447 9089.6957,319.6791 Q9089.102,319.3978 9088.477,319.3978 Q9087.1332,319.3978 9086.4457,320.4759 Q9085.7582,321.5384 9085.7582,323.6322 Q9085.7582,325.7259 9086.4457,326.8041 Q9087.1332,327.8666 9088.477,327.8666 Q9089.102,327.8666 9089.6957,327.6009 Q9090.2895,327.3197 9090.9145,326.7416 L9090.9145,329.4603 Z " fill="#000000"/><text fill="#000000" font-family="sans-serif" font-size="12" font-style="italic" lengthAdjust="spacing" textLength="61.0605" x="9140.0644" y="319.8255">&#171;process&#187;</text><text fill="#000000" font-family="sans-serif" font-size="14" lengthAdjust="spacing" textLength="124.2979" x="9108.4457" y="335.6507">IMD_C272_proc_5</text><line style="stroke:#181818;stroke-width:0.5;" x1="8728.35" x2="9580.3393" y1="343.9525" y2="343.9525"/><text fill="#000000" font-family="sans-serif" font-size="14" lengthAdjust="spacing" textLength="317.9668" x="8733.35" y="360.9476">Sperrung und Entsperrung eines Anschlusses</text><text fill="#000000" font-family="sans-serif" font-size="14" lengthAdjust="spacing" textLength="138.3252" x="8733.35" y="377.2445">Gesetze: StromGVV</text><text fill="#000000" font-family="sans-serif" font-size="14" lengthAdjust="spacing" textLength="841.9893" x="8733.35" y="393.5414">Zusammenfassung: Beschreibe den End-to-End-Prozess f&#252;r die Sperrung und Wiederherstellung eines Netzanschlusses.</text><line style="stroke:#181818;stroke-width:0.5;" x1="8728.35" x2="9580.3393" y1="400.8431" y2="400.8431"/></g><!--link IMD_C272 to IMD_C272_msg_1--><g class="link" data-entity-1="IMD_C272" data-entity-2="IMD_C272_msg_1" data-source-line="19" data-uid="lnk4" id="link_IMD_C272_IMD_C272_msg_1"><path codeLine="19" d="M4875.95,128.7769 C4316.32,137.1869 2608.54,170.8969 1197.34,283.3769 C1191.55,283.8369 1191.709,283.8052 1185.869,284.2952" fill="none" id="IMD_C272-to-IMD_C272_msg_1" style="stroke:#181818;stroke-width:1;"/><polygon fill="#181818" points="1179.89,284.7969,1189.1929,288.0304,1184.8725,284.3788,1188.524,280.0584,1179.89,284.7969" style="stroke:#181818;stroke-width:1;"/><text fill="#000000" font-family="sans-serif" font-size="13" lengthAdjust="spacing" textLength="85.2363" x="1830.34" y="249.4438">verwendet in</text></g><!--link IMD_C272 to IMD_C272_msg_2--><g class="link" data-entity-1="IMD_C272" data-entity-2="IMD_C272_msg_2" data-source-line="28" data-uid="lnk6" id="link_IMD_C272_IMD_C272_msg_2"><path codeLine="28" d="M4876.08,133.5469 C4441.35,151.1369 3330.17,200.9169 2404.34,283.3769 C2398.96,283.8569 2399.5257,283.8076 2394.0957,284.2976" fill="none" id="IMD_C272-to-IMD_C272_msg_2" style="stroke:#181818;stroke-width:1;"/><polygon fill="#181818" points="2388.12,284.8369,2397.4431,288.0118,2393.0998,284.3875,2396.7241,280.0442,2388.12,284.8369" style="stroke:#181818;stroke-width:1;"/><text fill="#000000" font-family="sans-serif" font-size="13" lengthAdjust="spacing" textLength="85.2363" x="2987.34" y="249.4438">verwendet in</text></g><!--link IMD_C272 to IMD_C272_msg_3--><g class="link" data-entity-1="IMD_C272" data-entity-2="IMD_C272_msg_3" data-source-line="37" data-uid="lnk8" id="link_IMD_C272_IMD_C272_msg_3"><path codeLine="37" d="M4875.75,136.2069 C4538.84,155.2669 3809.37,202.5169 3198.34,283.3769 C3192.52,284.1469 3192.6027,284.1095 3186.7127,284.9295" fill="none" id="IMD_C272-to-IMD_C272_msg_3" style="stroke:#181818;stroke-width:1;"/><polygon fill="#181818" points="3180.77,285.7569,3190.2356,288.4777,3185.7222,285.0674,3189.1325,280.5541,3180.77,285.7569" style="stroke:#181818;stroke-width:1;"/><text fill="#000000" font-family="sans-serif" font-size="13" lengthAdjust="spacing" textLength="85.2363" x="3555.34" y="249.4438">verwendet in</text></g><!--link IMD_C272 to IMD_C272_msg_4--><g class="link" data-entity-1="IMD_C272" data-entity-2="IMD_C272_msg_4" data-source-line="46" data-uid="lnk10" id="link_IMD_C272_IMD_C272_msg_4"><path codeLine="46" d="M4875.78,153.9669 C4669.76,184.5669 4329.22,235.8569 4036.34,283.3769 C4030.69,284.2869 4030.9309,284.2456 4025.2009,285.1856" fill="none" id="IMD_C272-to-IMD_C272_msg_4" style="stroke:#181818;stroke-width:1;"/><polygon fill="#181818" points="4019.28,286.1569,4028.8088,288.6471,4024.214,285.3474,4027.5137,280.7527,4019.28,286.1569" style="stroke:#181818;stroke-width:1;"/><text fill="#000000" font-family="sans-serif" font-size="13" lengthAdjust="spacing" textLength="85.2363" x="4319.34" y="249.4438">verwendet in</text></g><!--link IMD_C272 to IMD_C272_msg_5--><g class="link" data-entity-1="IMD_C272" data-entity-2="IMD_C272_msg_5" data-source-line="55" data-uid="lnk12" id="link_IMD_C272_IMD_C272_msg_5"><path codeLine="55" d="M4876.03,194.4069 C4799.31,222.2769 4716.0794,252.5282 4638.1794,280.8282" fill="none" id="IMD_C272-to-IMD_C272_msg_5" style="stroke:#181818;stroke-width:1;"/><polygon fill="#181818" points="4632.54,282.8769,4642.3649,283.5634,4637.2395,281.1696,4639.6333,276.0442,4632.54,282.8769" style="stroke:#181818;stroke-width:1;"/><text fill="#000000" font-family="sans-serif" font-size="13" lengthAdjust="spacing" textLength="85.2363" x="4749.34" y="249.4438">verwendet in</text></g><!--link IMD_C272 to IMD_C272_msg_6--><g class="link" data-entity-1="IMD_C272" data-entity-2="IMD_C272_msg_6" data-source-line="64" data-uid="lnk14" id="link_IMD_C272_IMD_C272_msg_6"><path codeLine="64" d="M5063.34,206.7269 C5063.34,231.5969 5063.34,252.8169 5063.34,277.0869" fill="none" id="IMD_C272-to-IMD_C272_msg_6" style="stroke:#181818;stroke-width:1;"/><polygon fill="#181818" points="5063.34,283.0869,5067.34,274.0869,5063.34,278.0869,5059.34,274.0869,5063.34,283.0869" style="stroke:#181818;stroke-width:1;"/><text fill="#000000" font-family="sans-serif" font-size="13" lengthAdjust="spacing" textLength="85.2363" x="5064.34" y="249.4438">verwendet in</text></g><!--link IMD_C272 to IMD_C272_proc_1--><g class="link" data-entity-1="IMD_C272" data-entity-2="IMD_C272_proc_1" data-source-line="70" data-uid="lnk16" id="link_IMD_C272_IMD_C272_proc_1"><path codeLine="70" d="M5244.19,206.7269 C5316.35,238.8069 5391.8773,272.3796 5456.0573,300.9096" fill="none" id="IMD_C272-to-IMD_C272_proc_1" style="stroke:#181818;stroke-width:1;stroke-dasharray:7,7;"/><polygon fill="#181818" points="5461.54,303.3469,5454.9408,296.0359,5456.9711,301.3159,5451.6911,303.3462,5461.54,303.3469" style="stroke:#181818;stroke-width:1;"/><text fill="#000000" font-family="sans-serif" font-size="13" lengthAdjust="spacing" textLength="91.6221" x="5337.34" y="249.4438">eingebettet in</text></g><!--link IMD_C272 to IMD_C272_proc_2--><g class="link" data-entity-1="IMD_C272" data-entity-2="IMD_C272_proc_2" data-source-line="76" data-uid="lnk18" id="link_IMD_C272_IMD_C272_proc_2"><path codeLine="76" d="M5250.74,162.3569 C5447.84,200.2469 5753.9679,259.0843 5977.7779,302.1043" fill="none" id="IMD_C272-to-IMD_C272_proc_2" style="stroke:#181818;stroke-width:1;stroke-dasharray:7,7;"/><polygon fill="#181818" points="5983.67,303.2369,5975.5868,297.6099,5978.7599,302.2931,5974.0767,305.4661,5983.67,303.2369" style="stroke:#181818;stroke-width:1;"/><text fill="#000000" font-family="sans-serif" font-size="13" lengthAdjust="spacing" textLength="91.6221" x="5696.34" y="249.4438">eingebettet in</text></g><!--link IMD_C272 to IMD_C272_proc_3--><g class="link" data-entity-1="IMD_C272" data-entity-2="IMD_C272_proc_3" data-source-line="82" data-uid="lnk20" id="link_IMD_C272_IMD_C272_proc_3"><path codeLine="82" d="M5250.73,138.9669 C5548.06,160.3469 6145.74,208.7569 6648.34,283.3769 C6686.21,288.9969 6720.2225,294.8128 6759.1625,302.1028" fill="none" id="IMD_C272-to-IMD_C272_proc_3" style="stroke:#181818;stroke-width:1;stroke-dasharray:7,7;"/><polygon fill="#181818" points="6765.06,303.2069,6756.9497,297.6191,6760.1454,302.2868,6755.4776,305.4824,6765.06,303.2069" style="stroke:#181818;stroke-width:1;"/><text fill="#000000" font-family="sans-serif" font-size="13" lengthAdjust="spacing" textLength="91.6221" x="6391.34" y="249.4438">eingebettet in</text></g><!--link IMD_C272 to IMD_C272_proc_4--><g class="link" data-entity-1="IMD_C272" data-entity-2="IMD_C272_proc_4" data-source-line="88" data-uid="lnk22" id="link_IMD_C272_IMD_C272_proc_4"><path codeLine="88" d="M5250.67,136.5669 C5644.19,158.6069 6585.5,214.2269 7373.34,283.3769 C7440.15,289.2369 7504.6815,295.4833 7573.8415,302.5933" fill="none" id="IMD_C272-to-IMD_C272_proc_4" style="stroke:#181818;stroke-width:1;stroke-dasharray:7,7;"/><polygon fill="#181818" points="7579.81,303.2069,7571.2663,298.3075,7574.8362,302.6955,7570.4481,306.2655,7579.81,303.2069" style="stroke:#181818;stroke-width:1;"/><text fill="#000000" font-family="sans-serif" font-size="13" lengthAdjust="spacing" textLength="91.6221" x="6997.34" y="249.4438">eingebettet in</text></g><!--link IMD_C272 to IMD_C272_proc_5--><g class="link" data-entity-1="IMD_C272" data-entity-2="IMD_C272_proc_5" data-source-line="94" data-uid="lnk24" id="link_IMD_C272_IMD_C272_proc_5"><path codeLine="94" d="M5250.78,126.6769 C5789.77,129.3169 7389.64,148.8169 8709.34,283.3769 C8759.26,288.4669 8806.167,294.6226 8857.317,302.3326" fill="none" id="IMD_C272-to-IMD_C272_proc_5" style="stroke:#181818;stroke-width:1;stroke-dasharray:7,7;"/><polygon fill="#181818" points="8863.25,303.2269,8854.9467,297.9301,8858.3059,302.4816,8853.7543,305.8407,8863.25,303.2269" style="stroke:#181818;stroke-width:1;"/><text fill="#000000" font-family="sans-serif" font-size="13" lengthAdjust="spacing" textLength="91.6221" x="8316.34" y="249.4438">eingebettet in</text></g><!--SRC=[xPVRRk9848RlynHzDxEIONs23DOeAo0iOYSSWcU9n0qok00hfXrrjoSxhFPjyXXpnujjLMCc748mKQIzsKWkTxkFzVrLtKH5AWPs7IZWWOe3oGgirRxswlQbVJ71kgJgYAhixml6Ei42FDOJIPZUgrzl898gvJDim4zBa18yB3ESPBXwciSW7c4obn2pb8Ui2MBrf63rOmo21_C5i8ztKVkNR407r9AdQedJoM0iS1nVpqoDRPnQAeXZu6DG8eBnOPyQw1xuWK74GJ15xP6Sp86pBmcVHhDK12fAEFlOzckRTVq74886qHORNCbDdIQHhCfnWZX5p-J5Ftj4HWiv6raPbybSH9EvybYhC-YswimkVWgn0HTMy1T-zc6s08w8loUf8c3JcFfF8GuzT3xY-AsUX20zPZa6iouDLgtroVW6hMYmFmPO_TBj6ApTRgFnQsZeMwVQCrYtZYM_Y-QkXQr3iqm6Pncw3XcNJ0dDeByjrnb26KSqCbwNntYBChSfpRQ1EMgtcYC2EleTQBFtYH1mhr8niasxP5gELNm8fwZFprWj5AxsPVBODtAJXw0Oqdv1IliLAOllfcNZklM_e5hG4GfA2hfcsQgSLD3EeQ2phs2tVzttUymgkc_KhrAfR4isj4mo5XcR34dXb7O4E9UESSuPz4noxPecQOtS_1oT71pTVOwzVgjU_OgPOEuSQfXv9fwYVjCfuwkEJqN_OQ6_NR7nkMbryBZjjQhhAuQEtgPhlaxVD16tfHyo3fbBDBP-q3YeH0dVMYQj42wJvKwlYQhXUcYwJTAAaiMYBAA475gVoE2meMtkw7Vq9jgGNyF8OjWCywDtSw0lxQE__RFxjU5Z23l1DleQthqF4SHUZlZLO3IJzG5YakkE3bqwHKe4fkp-5q6yTYuBOYV8ZxAK0sLv7sM_SOlB4Shn-nm7QwRlmM-BoNgN6oPZpGJZ__GTLpx1v44a4xm8Ft-c0cxpwae3EkkdMXCafWVkiYt7JHgSoc21zAQu4ZhhiOQ8Lq-f0W4iH5Un_sI-UffYEApPi0-xwtrWu-LZSTklOl7gOCyUKPm1NaRgk6lsWMj7K_cd6xuIoQBJ61XPQJXuoQcx2DWqvVUaLmH2iH0_l3mvMpvcAbCxtPuG8KMDzIQ2AOY0gzzUzzVEvwzpuE-ftyadrQkHN7h7Mhqidh4iMFNPnMyOjIyi5MV_3W0_eQUJpp_tmBytPDMEovYx_2vFs6uSNwRYS54ysPRHD5lr-0x64Ea1YtrMEY0CQjSdk7p40iRNweUW_aY3kaQ8KU6vgST-nz6B4r3TV51B1r3FEhXt4wSv6EI8eWOF2oefq6l3LJjBIRIpEAOPHjeSn0vmgJCfUDx62H2b0n3_0W00]--></g></svg>