<svg xmlns="http://www.w3.org/2000/svg" xmlns:xlink="http://www.w3.org/1999/xlink" contentStyleType="text/css" data-diagram-type="CLASS" height="370px" preserveAspectRatio="none" style="width:1231px;height:370px;background:#FFFFFF;" version="1.1" viewBox="0 0 1231 370" width="1231px" zoomAndPan="magnify"><title>Datenatlas - LF:G_0087</title><defs/><g><g class="title" data-source-line="1"><text fill="#000000" font-family="sans-serif" font-size="14" font-weight="bold" lengthAdjust="spacing" textLength="183.0391" x="517.1087" y="22.9951">Datenatlas - LF:G_0087</text></g><!--class LF_G_0087--><g class="entity" data-entity="LF_G_0087" data-source-line="2" data-uid="ent0002" id="entity_LF_G_0087"><rect fill="#F1F1F1" height="96.8906" rx="2.5" ry="2.5" style="stroke:#181818;stroke-width:0.5;" width="864.6807" x="102.59" y="44.2969"/><ellipse cx="492.5153" cy="60.2969" fill="#ADD1B2" rx="11" ry="11" style="stroke:#181818;stroke-width:1;"/><path d="M495.484,65.9375 Q494.9059,66.2344 494.2653,66.375 Q493.6247,66.5313 492.9215,66.5313 Q490.4215,66.5313 489.0934,64.8906 Q487.7809,63.2344 487.7809,60.1094 Q487.7809,56.9844 489.0934,55.3281 Q490.4215,53.6719 492.9215,53.6719 Q493.6247,53.6719 494.2653,53.8281 Q494.9215,53.9844 495.484,54.2813 L495.484,57 Q494.859,56.4219 494.2653,56.1563 Q493.6715,55.875 493.0465,55.875 Q491.7028,55.875 491.0153,56.9531 Q490.3278,58.0156 490.3278,60.1094 Q490.3278,62.2031 491.0153,63.2813 Q491.7028,64.3438 493.0465,64.3438 Q493.6715,64.3438 494.2653,64.0781 Q494.859,63.7969 495.484,63.2188 L495.484,65.9375 Z " fill="#000000"/><text fill="#000000" font-family="sans-serif" font-size="14" lengthAdjust="spacing" textLength="76.3301" x="513.0153" y="65.1436">LF_G_0087</text><line style="stroke:#181818;stroke-width:0.5;" x1="103.59" x2="966.2707" y1="76.2969" y2="76.2969"/><text fill="#000000" font-family="sans-serif" font-size="14" lengthAdjust="spacing" textLength="66.6436" x="122.59" y="93.292">Prozesse:</text><rect fill="none" height="6" style="stroke:#C82930;stroke-width:1;" width="6" x="110.59" y="103.2422"/><text fill="#000000" font-family="sans-serif" font-size="14" lengthAdjust="spacing" textLength="180.3457" x="122.59" y="109.5889">Netznutzungsabrechnung</text><line style="stroke:#181818;stroke-width:0.5;" x1="103.59" x2="966.2707" y1="116.8906" y2="116.8906"/><text fill="#000000" font-family="sans-serif" font-size="14" lengthAdjust="spacing" textLength="852.6807" x="108.59" y="133.8857">Name: Codeliste Gas Nr. G_0087 Codeliste zur Pr&#252;fung auf die Stornorechnung (NN-Rechnung zwischen NB und LF (Gas))</text></g><!--class LF_G_0087_msg_1--><g class="entity" data-entity="LF_G_0087_msg_1" data-source-line="7" data-uid="ent0003" id="entity_LF_G_0087_msg_1"><rect fill="#F1F1F1" height="145.7813" rx="2.5" ry="2.5" style="stroke:#181818;stroke-width:0.5;" width="429.8672" x="7" y="218.1869"/><ellipse cx="153.1558" cy="234.1869" fill="#ADD1B2" rx="11" ry="11" style="stroke:#181818;stroke-width:1;"/><path d="M156.1245,239.8275 Q155.5464,240.1244 154.9058,240.265 Q154.2651,240.4213 153.562,240.4213 Q151.062,240.4213 149.7339,238.7806 Q148.4214,237.1244 148.4214,233.9994 Q148.4214,230.8744 149.7339,229.2181 Q151.062,227.5619 153.562,227.5619 Q154.2651,227.5619 154.9058,227.7181 Q155.562,227.8744 156.1245,228.1713 L156.1245,230.89 Q155.4995,230.3119 154.9058,230.0463 Q154.312,229.765 153.687,229.765 Q152.3433,229.765 151.6558,230.8431 Q150.9683,231.9056 150.9683,233.9994 Q150.9683,236.0931 151.6558,237.1713 Q152.3433,238.2338 153.687,238.2338 Q154.312,238.2338 154.9058,237.9681 Q155.4995,237.6869 156.1245,237.1088 L156.1245,239.8275 Z " fill="#000000"/><text fill="#000000" font-family="sans-serif" font-size="14" lengthAdjust="spacing" textLength="129.0557" x="173.6558" y="239.0336">LF_G_0087_msg_1</text><line style="stroke:#181818;stroke-width:0.5;" x1="8" x2="435.8672" y1="250.1869" y2="250.1869"/><text fill="#000000" font-family="sans-serif" font-size="14" lengthAdjust="spacing" textLength="171.4932" x="13" y="267.182">Nachricht: REMADV 2.9c</text><text fill="#000000" font-family="sans-serif" font-size="14" lengthAdjust="spacing" textLength="170.3447" x="13" y="283.4789">Kontext: Segmentlayout</text><text fill="#000000" font-family="sans-serif" font-size="14" lengthAdjust="spacing" textLength="91.4033" x="13" y="299.7757">Pflichtfeld: Ja</text><text fill="#000000" font-family="sans-serif" font-size="14" lengthAdjust="spacing" textLength="345.4268" x="13" y="316.0726">Codes: EBD, ESA, ID, LF, MGV, MSB, NB, NN, OCR</text><text fill="#000000" font-family="sans-serif" font-size="14" lengthAdjust="spacing" textLength="251.4395" x="13" y="332.3695">Prozesse: Netznutzungsabrechnung</text><text fill="#000000" font-family="sans-serif" font-size="14" lengthAdjust="spacing" textLength="417.8672" x="13" y="348.6664">Quelle: REMADV_MIG_2.9c_au&#223;erordentliche_20240726.pdf</text><line style="stroke:#181818;stroke-width:0.5;" x1="8" x2="435.8672" y1="355.9681" y2="355.9681"/></g><!--class LF_G_0087_proc_1--><g class="entity" data-entity="LF_G_0087_proc_1" data-source-line="16" data-uid="ent0005" id="entity_LF_G_0087_proc_1"><rect fill="#F1F1F1" height="105.1563" rx="2.5" ry="2.5" style="stroke:#181818;stroke-width:0.5;" width="752.6465" x="471.61" y="238.4969"/><ellipse cx="778.612" cy="258.6297" fill="#ADD1B2" rx="11" ry="11" style="stroke:#181818;stroke-width:1;"/><path d="M781.5807,264.2703 Q781.0026,264.5672 780.362,264.7078 Q779.7213,264.8641 779.0182,264.8641 Q776.5182,264.8641 775.1901,263.2234 Q773.8776,261.5672 773.8776,258.4422 Q773.8776,255.3172 775.1901,253.6609 Q776.5182,252.0047 779.0182,252.0047 Q779.7213,252.0047 780.362,252.1609 Q781.0182,252.3172 781.5807,252.6141 L781.5807,255.3328 Q780.9557,254.7547 780.362,254.4891 Q779.7682,254.2078 779.1432,254.2078 Q777.7995,254.2078 777.112,255.2859 Q776.4245,256.3484 776.4245,258.4422 Q776.4245,260.5359 777.112,261.6141 Q777.7995,262.6766 779.1432,262.6766 Q779.7682,262.6766 780.362,262.4109 Q780.9557,262.1297 781.5807,261.5516 L781.5807,264.2703 Z " fill="#000000"/><text fill="#000000" font-family="sans-serif" font-size="12" font-style="italic" lengthAdjust="spacing" textLength="61.0605" x="833.653" y="254.6355">&#171;process&#187;</text><text fill="#000000" font-family="sans-serif" font-size="14" lengthAdjust="spacing" textLength="130.1426" x="799.112" y="270.4607">LF_G_0087_proc_1</text><line style="stroke:#181818;stroke-width:0.5;" x1="472.61" x2="1223.2565" y1="278.7625" y2="278.7625"/><text fill="#000000" font-family="sans-serif" font-size="14" lengthAdjust="spacing" textLength="180.3457" x="477.61" y="295.7576">Netznutzungsabrechnung</text><text fill="#000000" font-family="sans-serif" font-size="14" lengthAdjust="spacing" textLength="218.0938" x="477.61" y="312.0545">Gesetze: StromNEV, StromNZV</text><text fill="#000000" font-family="sans-serif" font-size="14" lengthAdjust="spacing" textLength="740.6465" x="477.61" y="328.3514">Zusammenfassung: Wie funktioniert die Netznutzungsabrechnung zwischen Netzbetreiber und Lieferant?</text><line style="stroke:#181818;stroke-width:0.5;" x1="472.61" x2="1223.2565" y1="335.6531" y2="335.6531"/></g><!--link LF_G_0087 to LF_G_0087_msg_1--><g class="link" data-entity-1="LF_G_0087" data-entity-2="LF_G_0087_msg_1" data-source-line="15" data-uid="lnk4" id="link_LF_G_0087_LF_G_0087_msg_1"><path codeLine="15" d="M458.77,141.5169 C422.21,164.4469 382.7231,189.219 342.1431,214.669" fill="none" id="LF_G_0087-to-LF_G_0087_msg_1" style="stroke:#181818;stroke-width:1;"/><polygon fill="#181818" points="337.06,217.8569,346.8098,216.4638,341.2959,215.2003,342.5593,209.6864,337.06,217.8569" style="stroke:#181818;stroke-width:1;"/><text fill="#000000" font-family="sans-serif" font-size="13" lengthAdjust="spacing" textLength="85.2363" x="407.93" y="184.2538">verwendet in</text></g><!--link LF_G_0087 to LF_G_0087_proc_1--><g class="link" data-entity-1="LF_G_0087" data-entity-2="LF_G_0087_proc_1" data-source-line="21" data-uid="lnk6" id="link_LF_G_0087_LF_G_0087_proc_1"><path codeLine="21" d="M611.1,141.5169 C657.7,170.7469 712.2475,204.9582 760.0175,234.9282" fill="none" id="LF_G_0087-to-LF_G_0087_proc_1" style="stroke:#181818;stroke-width:1;stroke-dasharray:7,7;"/><polygon fill="#181818" points="765.1,238.1169,759.602,229.9455,760.8645,235.4596,755.3504,236.7222,765.1,238.1169" style="stroke:#181818;stroke-width:1;"/><text fill="#000000" font-family="sans-serif" font-size="13" lengthAdjust="spacing" textLength="91.6221" x="683.93" y="184.2538">eingebettet in</text></g><!--SRC=[TPBRJiCm38RlznI-1AchneGuH6Y8iL5nM85L6X8tLTQwMqIReCJXKCIpy2BSyMAuZ8d3uAAHOplszzibHIN2G19gIQLqq8Qp8n6bdSxETYjZX-DxkhZ3KmiWbXKAE3GvbieHGiHlOXl2PyfNeFOMBkpRQ-7r3AGl85S82HchZSLihXltMXotnyjBVQzSDaSDSH-yphalh77rzNNkUc5DZSwXO1kOCKQgjQUQtpavNTPhFVz6JYitIpS-mREvLTcS18o7euF11BhXRiQ1KwC97zYTuAn2pLDuD9wQfaNPv1TOvW9E97iQTKx0i3y8O9WS173CnjbH0ADemaVI3nYUlpY0yyFnT-x_Y04kFPObBg7IqN6KDc2fz6ylQ8tD6oJcmBJRwMvsjhjRuMrUiDIllRJRlHN90kxGtgFEaK3fbRdSMfDnrjvUOp1XhxSOqd-K4JeECMP2rbJnaEKkhEi9Hw-zanNFhk0cd2_WYdVDYxyXPRH2In_B_xlujxrpV8faKKtHBdu1XGLQgMd_XzumxArA4O1Apv0Bq8VaTm00]--></g></svg>