<svg xmlns="http://www.w3.org/2000/svg" xmlns:xlink="http://www.w3.org/1999/xlink" contentStyleType="text/css" data-diagram-type="CLASS" height="387px" preserveAspectRatio="none" style="width:2998px;height:387px;background:#FFFFFF;" version="1.1" viewBox="0 0 2998 387" width="2998px" zoomAndPan="magnify"><title>Datenatlas - LIN:1070</title><defs/><g><g class="title" data-source-line="1"><text fill="#000000" font-family="sans-serif" font-size="14" font-weight="bold" lengthAdjust="spacing" textLength="171.9102" x="1406.0846" y="22.9951">Datenatlas - LIN:1070</text></g><!--class LIN_1070--><g class="entity" data-entity="LIN_1070" data-source-line="2" data-uid="ent0002" id="entity_LIN_1070"><rect fill="#F1F1F1" height="113.1875" rx="2.5" ry="2.5" style="stroke:#181818;stroke-width:0.5;" width="392.6182" x="1254.77" y="44.2969"/><ellipse cx="1414.3139" cy="60.2969" fill="#ADD1B2" rx="11" ry="11" style="stroke:#181818;stroke-width:1;"/><path d="M1417.2827,65.9375 Q1416.7046,66.2344 1416.0639,66.375 Q1415.4233,66.5313 1414.7202,66.5313 Q1412.2202,66.5313 1410.8921,64.8906 Q1409.5796,63.2344 1409.5796,60.1094 Q1409.5796,56.9844 1410.8921,55.3281 Q1412.2202,53.6719 1414.7202,53.6719 Q1415.4233,53.6719 1416.0639,53.8281 Q1416.7202,53.9844 1417.2827,54.2813 L1417.2827,57 Q1416.6577,56.4219 1416.0639,56.1563 Q1415.4702,55.875 1414.8452,55.875 Q1413.5014,55.875 1412.8139,56.9531 Q1412.1264,58.0156 1412.1264,60.1094 Q1412.1264,62.2031 1412.8139,63.2813 Q1413.5014,64.3438 1414.8452,64.3438 Q1415.4702,64.3438 1416.0639,64.0781 Q1416.6577,63.7969 1417.2827,63.2188 L1417.2827,65.9375 Z " fill="#000000"/><text fill="#000000" font-family="sans-serif" font-size="14" lengthAdjust="spacing" textLength="65.0303" x="1434.8139" y="65.1436">LIN_1070</text><line style="stroke:#181818;stroke-width:0.5;" x1="1255.77" x2="1646.3882" y1="76.2969" y2="76.2969"/><text fill="#000000" font-family="sans-serif" font-size="14" lengthAdjust="spacing" textLength="366.6182" x="1274.77" y="93.292">Name: Erforderliches Produkt Ad - hoc - Steuerkanal</text><text fill="#000000" font-family="sans-serif" font-size="14" lengthAdjust="spacing" textLength="66.6436" x="1274.77" y="109.5889">Prozesse:</text><rect fill="none" height="6" style="stroke:#C82930;stroke-width:1;" width="6" x="1262.77" y="119.5391"/><text fill="#000000" font-family="sans-serif" font-size="14" lengthAdjust="spacing" textLength="317.9668" x="1274.77" y="125.8857">Sperrung und Entsperrung eines Anschlusses</text><line style="stroke:#181818;stroke-width:0.5;" x1="1255.77" x2="1646.3882" y1="133.1875" y2="133.1875"/><rect fill="#F24D5C" height="6" style="stroke:#C82930;stroke-width:1;" width="6" x="1262.77" y="143.8359"/><text fill="#000000" font-family="sans-serif" font-size="14" lengthAdjust="spacing" textLength="348.2021" x="1274.77" y="150.1826">Bestellung einer technischen Konfiguration (MSB)</text></g><!--class LIN_1070_msg_1--><g class="entity" data-entity="LIN_1070_msg_1" data-source-line="8" data-uid="ent0003" id="entity_LIN_1070_msg_1"><rect fill="#F1F1F1" height="145.7813" rx="2.5" ry="2.5" style="stroke:#181818;stroke-width:0.5;" width="758.1631" x="7" y="234.4869"/><ellipse cx="322.9536" cy="250.4869" fill="#ADD1B2" rx="11" ry="11" style="stroke:#181818;stroke-width:1;"/><path d="M325.9224,256.1275 Q325.3442,256.4244 324.7036,256.565 Q324.063,256.7213 323.3599,256.7213 Q320.8599,256.7213 319.5317,255.0806 Q318.2192,253.4244 318.2192,250.2994 Q318.2192,247.1744 319.5317,245.5181 Q320.8599,243.8619 323.3599,243.8619 Q324.063,243.8619 324.7036,244.0181 Q325.3599,244.1744 325.9224,244.4713 L325.9224,247.19 Q325.2974,246.6119 324.7036,246.3463 Q324.1099,246.065 323.4849,246.065 Q322.1411,246.065 321.4536,247.1431 Q320.7661,248.2056 320.7661,250.2994 Q320.7661,252.3931 321.4536,253.4713 Q322.1411,254.5338 323.4849,254.5338 Q324.1099,254.5338 324.7036,254.2681 Q325.2974,253.9869 325.9224,253.4088 L325.9224,256.1275 Z " fill="#000000"/><text fill="#000000" font-family="sans-serif" font-size="14" lengthAdjust="spacing" textLength="117.7559" x="343.4536" y="255.3336">LIN_1070_msg_1</text><line style="stroke:#181818;stroke-width:0.5;" x1="8" x2="764.1631" y1="266.4869" y2="266.4869"/><text fill="#000000" font-family="sans-serif" font-size="14" lengthAdjust="spacing" textLength="170.3584" x="13" y="283.482">Nachricht: QUOTES 1.3a</text><text fill="#000000" font-family="sans-serif" font-size="14" lengthAdjust="spacing" textLength="204.1143" x="13" y="299.7789">Kontext: Nachrichtenstruktur</text><text fill="#000000" font-family="sans-serif" font-size="14" lengthAdjust="spacing" textLength="91.4033" x="13" y="316.0757">Pflichtfeld: Ja</text><text fill="#000000" font-family="sans-serif" font-size="14" lengthAdjust="spacing" textLength="74.7031" x="13" y="332.3726">Codes: LIN</text><text fill="#000000" font-family="sans-serif" font-size="14" lengthAdjust="spacing" textLength="292.4961" x="13" y="348.6695">Quelle: QUOTES_MIG_1_3a_20240619.pdf</text><line style="stroke:#181818;stroke-width:0.5;" x1="8" x2="764.1631" y1="355.9713" y2="355.9713"/><text fill="#000000" font-family="sans-serif" font-size="14" lengthAdjust="spacing" textLength="746.1631" x="13" y="372.9664">Prozesse: Bestellung einer technischen Konfiguration (MSB), Sperrung und Entsperrung eines Anschlusses</text></g><!--class LIN_1070_proc_1--><g class="entity" data-entity="LIN_1070_proc_1" data-source-line="17" data-uid="ent0005" id="entity_LIN_1070_proc_1"><rect fill="#F1F1F1" height="105.1563" rx="2.5" ry="2.5" style="stroke:#181818;stroke-width:0.5;" width="1301.9961" x="800.08" y="254.7969"/><ellipse cx="1387.4067" cy="274.9297" fill="#ADD1B2" rx="11" ry="11" style="stroke:#181818;stroke-width:1;"/><path d="M1390.3754,280.5703 Q1389.7973,280.8672 1389.1567,281.0078 Q1388.516,281.1641 1387.8129,281.1641 Q1385.3129,281.1641 1383.9848,279.5234 Q1382.6723,277.8672 1382.6723,274.7422 Q1382.6723,271.6172 1383.9848,269.9609 Q1385.3129,268.3047 1387.8129,268.3047 Q1388.516,268.3047 1389.1567,268.4609 Q1389.8129,268.6172 1390.3754,268.9141 L1390.3754,271.6328 Q1389.7504,271.0547 1389.1567,270.7891 Q1388.5629,270.5078 1387.9379,270.5078 Q1386.5942,270.5078 1385.9067,271.5859 Q1385.2192,272.6484 1385.2192,274.7422 Q1385.2192,276.8359 1385.9067,277.9141 Q1386.5942,278.9766 1387.9379,278.9766 Q1388.5629,278.9766 1389.1567,278.7109 Q1389.7504,278.4297 1390.3754,277.8516 L1390.3754,280.5703 Z " fill="#000000"/><text fill="#000000" font-family="sans-serif" font-size="12" font-style="italic" lengthAdjust="spacing" textLength="61.0605" x="1436.7978" y="270.9355">&#171;process&#187;</text><text fill="#000000" font-family="sans-serif" font-size="14" lengthAdjust="spacing" textLength="118.8428" x="1407.9067" y="286.7607">LIN_1070_proc_1</text><line style="stroke:#181818;stroke-width:0.5;" x1="801.08" x2="2101.0761" y1="295.0625" y2="295.0625"/><text fill="#000000" font-family="sans-serif" font-size="14" lengthAdjust="spacing" textLength="156.4063" x="806.08" y="312.0576">Gesetze: MsbG, EnWG</text><text fill="#000000" font-family="sans-serif" font-size="14" lengthAdjust="spacing" textLength="1289.9961" x="806.08" y="328.3545">Zusammenfassung: Erl&#228;utere den Prozess zur Bestellung einer spezifischen technischen Konfiguration bei einem Messstellenbetreiber, beispielsweise f&#252;r ein intelligentes Messsystem.</text><line style="stroke:#181818;stroke-width:0.5;" x1="801.08" x2="2101.0761" y1="335.6563" y2="335.6563"/><text fill="#000000" font-family="sans-serif" font-size="14" lengthAdjust="spacing" textLength="348.2021" x="806.08" y="352.6514">Bestellung einer technischen Konfiguration (MSB)</text></g><!--class LIN_1070_proc_2--><g class="entity" data-entity="LIN_1070_proc_2" data-source-line="23" data-uid="ent0007" id="entity_LIN_1070_proc_2"><rect fill="#F1F1F1" height="105.1563" rx="2.5" ry="2.5" style="stroke:#181818;stroke-width:0.5;" width="853.9893" x="2137.09" y="254.7969"/><ellipse cx="2500.4132" cy="274.9297" fill="#ADD1B2" rx="11" ry="11" style="stroke:#181818;stroke-width:1;"/><path d="M2503.382,280.5703 Q2502.8039,280.8672 2502.1632,281.0078 Q2501.5226,281.1641 2500.8195,281.1641 Q2498.3195,281.1641 2496.9914,279.5234 Q2495.6789,277.8672 2495.6789,274.7422 Q2495.6789,271.6172 2496.9914,269.9609 Q2498.3195,268.3047 2500.8195,268.3047 Q2501.5226,268.3047 2502.1632,268.4609 Q2502.8195,268.6172 2503.382,268.9141 L2503.382,271.6328 Q2502.757,271.0547 2502.1632,270.7891 Q2501.5695,270.5078 2500.9445,270.5078 Q2499.6007,270.5078 2498.9132,271.5859 Q2498.2257,272.6484 2498.2257,274.7422 Q2498.2257,276.8359 2498.9132,277.9141 Q2499.6007,278.9766 2500.9445,278.9766 Q2501.5695,278.9766 2502.1632,278.7109 Q2502.757,278.4297 2503.382,277.8516 L2503.382,280.5703 Z " fill="#000000"/><text fill="#000000" font-family="sans-serif" font-size="12" font-style="italic" lengthAdjust="spacing" textLength="61.0605" x="2549.8044" y="270.9355">&#171;process&#187;</text><text fill="#000000" font-family="sans-serif" font-size="14" lengthAdjust="spacing" textLength="118.8428" x="2520.9132" y="286.7607">LIN_1070_proc_2</text><line style="stroke:#181818;stroke-width:0.5;" x1="2138.09" x2="2990.0793" y1="295.0625" y2="295.0625"/><text fill="#000000" font-family="sans-serif" font-size="14" lengthAdjust="spacing" textLength="317.9668" x="2143.09" y="312.0576">Sperrung und Entsperrung eines Anschlusses</text><text fill="#000000" font-family="sans-serif" font-size="14" lengthAdjust="spacing" textLength="138.3252" x="2143.09" y="328.3545">Gesetze: StromGVV</text><text fill="#000000" font-family="sans-serif" font-size="14" lengthAdjust="spacing" textLength="841.9893" x="2143.09" y="344.6514">Zusammenfassung: Beschreibe den End-to-End-Prozess f&#252;r die Sperrung und Wiederherstellung eines Netzanschlusses.</text><line style="stroke:#181818;stroke-width:0.5;" x1="2138.09" x2="2990.0793" y1="351.9531" y2="351.9531"/></g><!--link LIN_1070 to LIN_1070_msg_1--><g class="link" data-entity-1="LIN_1070" data-entity-2="LIN_1070_msg_1" data-source-line="16" data-uid="lnk4" id="link_LIN_1070_LIN_1070_msg_1"><path codeLine="16" d="M1254.5,139.6369 C1116.94,166.0469 934.7224,201.0355 768.7424,232.9055" fill="none" id="LIN_1070-to-LIN_1070_msg_1" style="stroke:#181818;stroke-width:1;"/><polygon fill="#181818" points="762.85,234.0369,772.4428,236.268,767.7603,233.094,770.9343,228.4115,762.85,234.0369" style="stroke:#181818;stroke-width:1;"/><text fill="#000000" font-family="sans-serif" font-size="13" lengthAdjust="spacing" textLength="85.2363" x="984.08" y="200.5538">verwendet in</text></g><!--link LIN_1070 to LIN_1070_proc_1--><g class="link" data-entity-1="LIN_1070" data-entity-2="LIN_1070_proc_1" data-source-line="22" data-uid="lnk6" id="link_LIN_1070_LIN_1070_proc_1"><path codeLine="22" d="M1451.08,157.7669 C1451.08,187.9169 1451.08,218.9069 1451.08,248.4269" fill="none" id="LIN_1070-to-LIN_1070_proc_1" style="stroke:#181818;stroke-width:1;stroke-dasharray:7,7;"/><polygon fill="#181818" points="1451.08,254.4269,1455.08,245.4269,1451.08,249.4269,1447.08,245.4269,1451.08,254.4269" style="stroke:#181818;stroke-width:1;"/><text fill="#000000" font-family="sans-serif" font-size="13" lengthAdjust="spacing" textLength="91.6221" x="1452.08" y="200.5538">eingebettet in</text></g><!--link LIN_1070 to LIN_1070_proc_2--><g class="link" data-entity-1="LIN_1070" data-entity-2="LIN_1070_proc_2" data-source-line="28" data-uid="lnk8" id="link_LIN_1070_LIN_1070_proc_2"><path codeLine="28" d="M1647.82,138.0369 C1823.46,170.3069 2076.8788,216.8624 2274.8488,253.2424" fill="none" id="LIN_1070-to-LIN_1070_proc_2" style="stroke:#181818;stroke-width:1;stroke-dasharray:7,7;"/><polygon fill="#181818" points="2280.75,254.3269,2272.6212,248.7661,2275.8323,253.4232,2271.1753,256.6344,2280.75,254.3269" style="stroke:#181818;stroke-width:1;"/><text fill="#000000" font-family="sans-serif" font-size="13" lengthAdjust="spacing" textLength="91.6221" x="2009.08" y="200.5538">eingebettet in</text></g><!--SRC=[dPF1RjD048RlUOevWXHRSOf0M5Ma5gAeG0ALIojniJRUiRsglOvcPocaucru36vziSw69BG95GgNUDSx__ppV-kmuGRXhMAqYXlb888FPxCq6RmQz0hPkx3DmnPkUm0prM8AOoexqaYDAMfqy8awxQyPJhIewwwGtupH8rqhgnfHIS4IdSDKrY2df-WOcyRR2j1O960iQckSTBFmlhEbgJmfDfs5PzFizFbQbYsGA8YyrJ2sx3RxqCJ1YPK6ZHSVr_knCtpUkYfFrX6AccHmJk7yyyUBSGP9VAJaG8mPlydhRGLQnoJ9F8KGPOZB9JOwXNT1yARJwDBWyJ3ZmUdwXmG3EFVI73V3vzEpIPxaHoeV3eOl1Y-Jr_52bv9_UsrHDDh5aC9Nf1kq6XcCtKMreAwGekFZi918ez6AstzSsWGTyb9cdRhvf2_9hYRozejtgctHbk8gtSBdrDpzz8o4eANNcYGiFUsR2fgbATUkJqymHxCIj32LLgiUQEV8X6QEr0_dRc6mSJUoG2ZlVb6e5ngXr5GeJ_TR-rtKRVoGQ1oFzcYbGLwXMF3JK8TxK0-w-ItEZAbh9vUNVuCfnEJh3J5NCCTMHzn5uR7XkWgh3Juslp8e_-WQwH5m1pEnL7_6-0U8uHw8Um00]--></g></svg>