<svg xmlns="http://www.w3.org/2000/svg" xmlns:xlink="http://www.w3.org/1999/xlink" contentStyleType="text/css" data-diagram-type="CLASS" height="370px" preserveAspectRatio="none" style="width:1484px;height:370px;background:#FFFFFF;" version="1.1" viewBox="0 0 1484 370" width="1484px" zoomAndPan="magnify"><title>Datenatlas - LIN:0210</title><defs/><g><g class="title" data-source-line="1"><text fill="#000000" font-family="sans-serif" font-size="14" font-weight="bold" lengthAdjust="spacing" textLength="171.9102" x="649.3032" y="22.9951">Datenatlas - LIN:0210</text></g><!--class LIN_0210--><g class="entity" data-entity="LIN_0210" data-source-line="2" data-uid="ent0002" id="entity_LIN_0210"><rect fill="#F1F1F1" height="96.8906" rx="2.5" ry="2.5" style="stroke:#181818;stroke-width:0.5;" width="206.3457" x="621.02" y="44.2969"/><ellipse cx="687.4277" cy="60.2969" fill="#ADD1B2" rx="11" ry="11" style="stroke:#181818;stroke-width:1;"/><path d="M690.3965,65.9375 Q689.8183,66.2344 689.1777,66.375 Q688.5371,66.5313 687.834,66.5313 Q685.334,66.5313 684.0058,64.8906 Q682.6933,63.2344 682.6933,60.1094 Q682.6933,56.9844 684.0058,55.3281 Q685.334,53.6719 687.834,53.6719 Q688.5371,53.6719 689.1777,53.8281 Q689.834,53.9844 690.3965,54.2813 L690.3965,57 Q689.7715,56.4219 689.1777,56.1563 Q688.584,55.875 687.959,55.875 Q686.6152,55.875 685.9277,56.9531 Q685.2402,58.0156 685.2402,60.1094 Q685.2402,62.2031 685.9277,63.2813 Q686.6152,64.3438 687.959,64.3438 Q688.584,64.3438 689.1777,64.0781 Q689.7715,63.7969 690.3965,63.2188 L690.3965,65.9375 Z " fill="#000000"/><text fill="#000000" font-family="sans-serif" font-size="14" lengthAdjust="spacing" textLength="65.0303" x="707.9277" y="65.1436">LIN_0210</text><line style="stroke:#181818;stroke-width:0.5;" x1="622.02" x2="826.3657" y1="76.2969" y2="76.2969"/><text fill="#000000" font-family="sans-serif" font-size="14" lengthAdjust="spacing" textLength="153.2139" x="641.02" y="93.292">Name: Positionsdaten</text><text fill="#000000" font-family="sans-serif" font-size="14" lengthAdjust="spacing" textLength="66.6436" x="641.02" y="109.5889">Prozesse:</text><rect fill="none" height="6" style="stroke:#C82930;stroke-width:1;" width="6" x="629.02" y="119.5391"/><text fill="#000000" font-family="sans-serif" font-size="14" lengthAdjust="spacing" textLength="180.3457" x="641.02" y="125.8857">Netznutzungsabrechnung</text><line style="stroke:#181818;stroke-width:0.5;" x1="622.02" x2="826.3657" y1="133.1875" y2="133.1875"/></g><!--class LIN_0210_msg_1--><g class="entity" data-entity="LIN_0210_msg_1" data-source-line="7" data-uid="ent0003" id="entity_LIN_0210_msg_1"><rect fill="#F1F1F1" height="145.7813" rx="2.5" ry="2.5" style="stroke:#181818;stroke-width:0.5;" width="682.3936" x="7" y="218.1869"/><ellipse cx="285.0688" cy="234.1869" fill="#ADD1B2" rx="11" ry="11" style="stroke:#181818;stroke-width:1;"/><path d="M288.0376,239.8275 Q287.4595,240.1244 286.8188,240.265 Q286.1782,240.4213 285.4751,240.4213 Q282.9751,240.4213 281.647,238.7806 Q280.3345,237.1244 280.3345,233.9994 Q280.3345,230.8744 281.647,229.2181 Q282.9751,227.5619 285.4751,227.5619 Q286.1782,227.5619 286.8188,227.7181 Q287.4751,227.8744 288.0376,228.1713 L288.0376,230.89 Q287.4126,230.3119 286.8188,230.0463 Q286.2251,229.765 285.6001,229.765 Q284.2563,229.765 283.5688,230.8431 Q282.8813,231.9056 282.8813,233.9994 Q282.8813,236.0931 283.5688,237.1713 Q284.2563,238.2338 285.6001,238.2338 Q286.2251,238.2338 286.8188,237.9681 Q287.4126,237.6869 288.0376,237.1088 L288.0376,239.8275 Z " fill="#000000"/><text fill="#000000" font-family="sans-serif" font-size="14" lengthAdjust="spacing" textLength="117.7559" x="305.5688" y="239.0336">LIN_0210_msg_1</text><line style="stroke:#181818;stroke-width:0.5;" x1="8" x2="688.3936" y1="250.1869" y2="250.1869"/><text fill="#000000" font-family="sans-serif" font-size="14" lengthAdjust="spacing" textLength="161.998" x="13" y="267.182">Nachricht: INSRPT 1.1a</text><text fill="#000000" font-family="sans-serif" font-size="14" lengthAdjust="spacing" textLength="670.3936" x="13" y="283.4789">Kontext: 0200   SG7   C   R   999   999   2   LIN - DTM - DTM - DTM - DTM - STS - STS - FTX - SG8</text><text fill="#000000" font-family="sans-serif" font-size="14" lengthAdjust="spacing" textLength="91.4033" x="13" y="299.7757">Pflichtfeld: Ja</text><text fill="#000000" font-family="sans-serif" font-size="14" lengthAdjust="spacing" textLength="74.7031" x="13" y="316.0726">Codes: LIN</text><text fill="#000000" font-family="sans-serif" font-size="14" lengthAdjust="spacing" textLength="251.4395" x="13" y="332.3695">Prozesse: Netznutzungsabrechnung</text><text fill="#000000" font-family="sans-serif" font-size="14" lengthAdjust="spacing" textLength="410.9219" x="13" y="348.6664">Quelle: INSRPT_MIG_1_1a_au&#223;erordentliche_20240726.pdf</text><line style="stroke:#181818;stroke-width:0.5;" x1="8" x2="688.3936" y1="355.9681" y2="355.9681"/></g><!--class LIN_0210_proc_1--><g class="entity" data-entity="LIN_0210_proc_1" data-source-line="16" data-uid="ent0005" id="entity_LIN_0210_proc_1"><rect fill="#F1F1F1" height="105.1563" rx="2.5" ry="2.5" style="stroke:#181818;stroke-width:0.5;" width="752.6465" x="724.87" y="238.4969"/><ellipse cx="1037.5219" cy="258.6297" fill="#ADD1B2" rx="11" ry="11" style="stroke:#181818;stroke-width:1;"/><path d="M1040.4906,264.2703 Q1039.9125,264.5672 1039.2719,264.7078 Q1038.6312,264.8641 1037.9281,264.8641 Q1035.4281,264.8641 1034.1,263.2234 Q1032.7875,261.5672 1032.7875,258.4422 Q1032.7875,255.3172 1034.1,253.6609 Q1035.4281,252.0047 1037.9281,252.0047 Q1038.6312,252.0047 1039.2719,252.1609 Q1039.9281,252.3172 1040.4906,252.6141 L1040.4906,255.3328 Q1039.8656,254.7547 1039.2719,254.4891 Q1038.6781,254.2078 1038.0531,254.2078 Q1036.7094,254.2078 1036.0219,255.2859 Q1035.3344,256.3484 1035.3344,258.4422 Q1035.3344,260.5359 1036.0219,261.6141 Q1036.7094,262.6766 1038.0531,262.6766 Q1038.6781,262.6766 1039.2719,262.4109 Q1039.8656,262.1297 1040.4906,261.5516 L1040.4906,264.2703 Z " fill="#000000"/><text fill="#000000" font-family="sans-serif" font-size="12" font-style="italic" lengthAdjust="spacing" textLength="61.0605" x="1086.913" y="254.6355">&#171;process&#187;</text><text fill="#000000" font-family="sans-serif" font-size="14" lengthAdjust="spacing" textLength="118.8428" x="1058.0219" y="270.4607">LIN_0210_proc_1</text><line style="stroke:#181818;stroke-width:0.5;" x1="725.87" x2="1476.5165" y1="278.7625" y2="278.7625"/><text fill="#000000" font-family="sans-serif" font-size="14" lengthAdjust="spacing" textLength="180.3457" x="730.87" y="295.7576">Netznutzungsabrechnung</text><text fill="#000000" font-family="sans-serif" font-size="14" lengthAdjust="spacing" textLength="218.0938" x="730.87" y="312.0545">Gesetze: StromNEV, StromNZV</text><text fill="#000000" font-family="sans-serif" font-size="14" lengthAdjust="spacing" textLength="740.6465" x="730.87" y="328.3514">Zusammenfassung: Wie funktioniert die Netznutzungsabrechnung zwischen Netzbetreiber und Lieferant?</text><line style="stroke:#181818;stroke-width:0.5;" x1="725.87" x2="1476.5165" y1="335.6531" y2="335.6531"/></g><!--link LIN_0210 to LIN_0210_msg_1--><g class="link" data-entity-1="LIN_0210" data-entity-2="LIN_0210_msg_1" data-source-line="15" data-uid="lnk4" id="link_LIN_0210_LIN_0210_msg_1"><path codeLine="15" d="M632.7,141.5169 C588.79,164.4469 540.5586,189.6297 491.8186,215.0797" fill="none" id="LIN_0210-to-LIN_0210_msg_1" style="stroke:#181818;stroke-width:1;"/><polygon fill="#181818" points="486.5,217.8569,496.3293,217.2369,490.9322,215.5426,492.6265,210.1454,486.5,217.8569" style="stroke:#181818;stroke-width:1;"/><text fill="#000000" font-family="sans-serif" font-size="13" lengthAdjust="spacing" textLength="85.2363" x="571.2" y="184.2538">verwendet in</text></g><!--link LIN_0210 to LIN_0210_proc_1--><g class="link" data-entity-1="LIN_0210" data-entity-2="LIN_0210_proc_1" data-source-line="21" data-uid="lnk6" id="link_LIN_0210_LIN_0210_proc_1"><path codeLine="21" d="M815.94,141.5169 C872.06,170.7469 938.5688,205.3748 996.0988,235.3448" fill="none" id="LIN_0210-to-LIN_0210_proc_1" style="stroke:#181818;stroke-width:1;stroke-dasharray:7,7;"/><polygon fill="#181818" points="1001.42,238.1169,995.2862,230.4113,996.9856,235.8068,991.5901,237.5063,1001.42,238.1169" style="stroke:#181818;stroke-width:1;"/><text fill="#000000" font-family="sans-serif" font-size="13" lengthAdjust="spacing" textLength="91.6221" x="903.2" y="184.2538">eingebettet in</text></g><!--SRC=[TL5TJi9047xd57C0QTh6Y6n8VG1jK6YGDcXuQPPs2XlRBTdTYi5u5W_ZnPn590RXOIRpi_DzyyqQOKg40JSekIcvXZQCXX5pVSzjPPHhcwOsXVSMGCGhP32fjJ2YbZgtSrIUg7gBMYEZ60WYGhELZTasSgdvGc6saXIsFeuWqqelKsyFdAsKo5Q6mJ2AfvC4FCVZr7YefS4tAhk-wn9u77R8zyccPDrkz-1zCa8c-a4oFkdZ93xuk-JPnk6rNRyeBNM1PSxWthBswnmrit1_rPtJ1V3OO5dYx-xfU1YcNkhnb3TVdwXgbQCqbWDJt_KltOv_vQppWWvok6wx7HpVXS4hgWtA70q8UNoxjQepUjJhsO3M2uAVGvvRCKHDBTenDggkejlPnJwQpwWxRpIlAfG5ST1x1ay2eMZaY_rdWSf0JeNJuB3T24tQvAw_GADGB5118tCO2InGSMbk_efrdE2V40Oev19ftEpqVWC0]--></g></svg>