<svg xmlns="http://www.w3.org/2000/svg" xmlns:xlink="http://www.w3.org/1999/xlink" contentStyleType="text/css" data-diagram-type="CLASS" height="370px" preserveAspectRatio="none" style="width:844px;height:370px;background:#FFFFFF;" version="1.1" viewBox="0 0 844 370" width="844px" zoomAndPan="magnify"><title>Datenatlas - LOC:3233</title><defs/><g><g class="title" data-source-line="1"><text fill="#000000" font-family="sans-serif" font-size="14" font-weight="bold" lengthAdjust="spacing" textLength="177.1602" x="326.8392" y="22.9951">Datenatlas - LOC:3233</text></g><!--class LOC_3233--><g class="entity" data-entity="LOC_3233" data-source-line="2" data-uid="ent0002" id="entity_LOC_3233"><rect fill="#F1F1F1" height="96.8906" rx="2.5" ry="2.5" style="stroke:#181818;stroke-width:0.5;" width="360.3525" x="251.55" y="44.2969"/><ellipse cx="391.8645" cy="60.2969" fill="#ADD1B2" rx="11" ry="11" style="stroke:#181818;stroke-width:1;"/><path d="M394.8332,65.9375 Q394.2551,66.2344 393.6145,66.375 Q392.9738,66.5313 392.2707,66.5313 Q389.7707,66.5313 388.4426,64.8906 Q387.1301,63.2344 387.1301,60.1094 Q387.1301,56.9844 388.4426,55.3281 Q389.7707,53.6719 392.2707,53.6719 Q392.9738,53.6719 393.6145,53.8281 Q394.2707,53.9844 394.8332,54.2813 L394.8332,57 Q394.2082,56.4219 393.6145,56.1563 Q393.0207,55.875 392.3957,55.875 Q391.052,55.875 390.3645,56.9531 Q389.677,58.0156 389.677,60.1094 Q389.677,62.2031 390.3645,63.2813 Q391.052,64.3438 392.3957,64.3438 Q393.0207,64.3438 393.6145,64.0781 Q394.2082,63.7969 394.8332,63.2188 L394.8332,65.9375 Z " fill="#000000"/><text fill="#000000" font-family="sans-serif" font-size="14" lengthAdjust="spacing" textLength="71.2236" x="412.3645" y="65.1436">LOC_3233</text><line style="stroke:#181818;stroke-width:0.5;" x1="252.55" x2="610.9025" y1="76.2969" y2="76.2969"/><text fill="#000000" font-family="sans-serif" font-size="14" lengthAdjust="spacing" textLength="148.0664" x="271.55" y="93.292">Name: Code qualifier</text><text fill="#000000" font-family="sans-serif" font-size="14" lengthAdjust="spacing" textLength="66.6436" x="271.55" y="109.5889">Prozesse:</text><rect fill="none" height="6" style="stroke:#C82930;stroke-width:1;" width="6" x="259.55" y="119.5391"/><text fill="#000000" font-family="sans-serif" font-size="14" lengthAdjust="spacing" textLength="334.3525" x="271.55" y="125.8857">Anforderung und &#220;bermittlung von Messwerten</text><line style="stroke:#181818;stroke-width:0.5;" x1="252.55" x2="610.9025" y1="133.1875" y2="133.1875"/></g><!--class LOC_3233_msg_1--><g class="entity" data-entity="LOC_3233_msg_1" data-source-line="7" data-uid="ent0003" id="entity_LOC_3233_msg_1"><rect fill="#F1F1F1" height="145.7813" rx="2.5" ry="2.5" style="stroke:#181818;stroke-width:0.5;" width="417.4463" x="7" y="218.1869"/><ellipse cx="149.4985" cy="234.1869" fill="#ADD1B2" rx="11" ry="11" style="stroke:#181818;stroke-width:1;"/><path d="M152.4673,239.8275 Q151.8892,240.1244 151.2485,240.265 Q150.6079,240.4213 149.9048,240.4213 Q147.4048,240.4213 146.0767,238.7806 Q144.7642,237.1244 144.7642,233.9994 Q144.7642,230.8744 146.0767,229.2181 Q147.4048,227.5619 149.9048,227.5619 Q150.6079,227.5619 151.2485,227.7181 Q151.9048,227.8744 152.4673,228.1713 L152.4673,230.89 Q151.8423,230.3119 151.2485,230.0463 Q150.6548,229.765 150.0298,229.765 Q148.686,229.765 147.9985,230.8431 Q147.311,231.9056 147.311,233.9994 Q147.311,236.0931 147.9985,237.1713 Q148.686,238.2338 150.0298,238.2338 Q150.6548,238.2338 151.2485,237.9681 Q151.8423,237.6869 152.4673,237.1088 L152.4673,239.8275 Z " fill="#000000"/><text fill="#000000" font-family="sans-serif" font-size="14" lengthAdjust="spacing" textLength="123.9492" x="169.9985" y="239.0336">LOC_3233_msg_1</text><line style="stroke:#181818;stroke-width:0.5;" x1="8" x2="423.4463" y1="250.1869" y2="250.1869"/><text fill="#000000" font-family="sans-serif" font-size="14" lengthAdjust="spacing" textLength="172.0264" x="13" y="267.182">Nachricht: MSCONS 2.4c</text><text fill="#000000" font-family="sans-serif" font-size="14" lengthAdjust="spacing" textLength="272.0703" x="13" y="283.4789">Kontext: mittels Interpolation gebildet.</text><text fill="#000000" font-family="sans-serif" font-size="14" lengthAdjust="spacing" textLength="91.4033" x="13" y="299.7757">Pflichtfeld: Ja</text><text fill="#000000" font-family="sans-serif" font-size="14" lengthAdjust="spacing" textLength="187.8857" x="13" y="316.0726">Codes: EDI, ZQ9, ZR0, ZS0</text><text fill="#000000" font-family="sans-serif" font-size="14" lengthAdjust="spacing" textLength="405.4463" x="13" y="332.3695">Prozesse: Anforderung und &#220;bermittlung von Messwerten</text><text fill="#000000" font-family="sans-serif" font-size="14" lengthAdjust="spacing" textLength="294.1641" x="13" y="348.6664">Quelle: MSCONS_MIG_2_4c_20231024.pdf</text><line style="stroke:#181818;stroke-width:0.5;" x1="8" x2="423.4463" y1="355.9681" y2="355.9681"/></g><!--class LOC_3233_proc_1--><g class="entity" data-entity="LOC_3233_proc_1" data-source-line="16" data-uid="ent0005" id="entity_LOC_3233_proc_1"><rect fill="#F1F1F1" height="105.1563" rx="2.5" ry="2.5" style="stroke:#181818;stroke-width:0.5;" width="378.2285" x="459.61" y="238.4969"/><ellipse cx="581.9562" cy="258.6297" fill="#ADD1B2" rx="11" ry="11" style="stroke:#181818;stroke-width:1;"/><path d="M584.9249,264.2703 Q584.3468,264.5672 583.7062,264.7078 Q583.0656,264.8641 582.3624,264.8641 Q579.8624,264.8641 578.5343,263.2234 Q577.2218,261.5672 577.2218,258.4422 Q577.2218,255.3172 578.5343,253.6609 Q579.8624,252.0047 582.3624,252.0047 Q583.0656,252.0047 583.7062,252.1609 Q584.3624,252.3172 584.9249,252.6141 L584.9249,255.3328 Q584.2999,254.7547 583.7062,254.4891 Q583.1124,254.2078 582.4874,254.2078 Q581.1437,254.2078 580.4562,255.2859 Q579.7687,256.3484 579.7687,258.4422 Q579.7687,260.5359 580.4562,261.6141 Q581.1437,262.6766 582.4874,262.6766 Q583.1124,262.6766 583.7062,262.4109 Q584.2999,262.1297 584.9249,261.5516 L584.9249,264.2703 Z " fill="#000000"/><text fill="#000000" font-family="sans-serif" font-size="12" font-style="italic" lengthAdjust="spacing" textLength="61.0605" x="634.444" y="254.6355">&#171;process&#187;</text><text fill="#000000" font-family="sans-serif" font-size="14" lengthAdjust="spacing" textLength="125.0361" x="602.4562" y="270.4607">LOC_3233_proc_1</text><line style="stroke:#181818;stroke-width:0.5;" x1="460.61" x2="836.8385" y1="278.7625" y2="278.7625"/><text fill="#000000" font-family="sans-serif" font-size="14" lengthAdjust="spacing" textLength="334.3525" x="465.61" y="295.7576">Anforderung und &#220;bermittlung von Messwerten</text><text fill="#000000" font-family="sans-serif" font-size="14" lengthAdjust="spacing" textLength="105.0957" x="465.61" y="312.0545">Gesetze: MsbG</text><line style="stroke:#181818;stroke-width:0.5;" x1="460.61" x2="836.8385" y1="319.3563" y2="319.3563"/><text fill="#000000" font-family="sans-serif" font-size="14" lengthAdjust="spacing" textLength="366.2285" x="465.61" y="336.3514">Zusammenfassung: Wie kann ein Marktpartner (z.B.</text></g><!--link LOC_3233 to LOC_3233_msg_1--><g class="link" data-entity-1="LOC_3233" data-entity-2="LOC_3233_msg_1" data-source-line="15" data-uid="lnk4" id="link_LOC_3233_LOC_3233_msg_1"><path codeLine="15" d="M379.16,141.5169 C353.93,164.4469 327.61,188.3712 299.61,213.8212" fill="none" id="LOC_3233-to-LOC_3233_msg_1" style="stroke:#181818;stroke-width:1;"/><polygon fill="#181818" points="295.17,217.8569,304.5204,214.7634,298.87,214.4938,299.1396,208.8434,295.17,217.8569" style="stroke:#181818;stroke-width:1;"/><text fill="#000000" font-family="sans-serif" font-size="13" lengthAdjust="spacing" textLength="85.2363" x="344.72" y="184.2538">verwendet in</text></g><!--link LOC_3233 to LOC_3233_proc_1--><g class="link" data-entity-1="LOC_3233" data-entity-2="LOC_3233_proc_1" data-source-line="21" data-uid="lnk6" id="link_LOC_3233_LOC_3233_proc_1"><path codeLine="21" d="M484.53,141.5169 C516.9,170.8069 553.8906,204.2716 587.0406,234.2616" fill="none" id="LOC_3233-to-LOC_3233_proc_1" style="stroke:#181818;stroke-width:1;stroke-dasharray:7,7;"/><polygon fill="#181818" points="591.49,238.2869,587.4994,229.2827,587.7822,234.9325,582.1324,235.2152,591.49,238.2869" style="stroke:#181818;stroke-width:1;"/><text fill="#000000" font-family="sans-serif" font-size="13" lengthAdjust="spacing" textLength="91.6221" x="533.72" y="184.2538">eingebettet in</text></g><!--SRC=[bL71JW8n4Btp5NFq8CsooyM6RA9W22eWxi64IrDsPw6XsrtRBXYCV-BV-6DEZHg29owJUTEPUUzDlV8QOIGz6kcrTD25X_cG9t6IT7B2Ba0H8Bnr06QoGWx3ka1uQQLMfK9BvKTR7z0vv9G3hRWsPMqBjArPGsiA-FnOeQsKzpfKThM1ARNlqH9jv_s4I5HkBNe_TFd6gdpZEKopuNoMGSpwEJtSryRZAvN3KjGE9eHjKslf5MrVuqhf0ZqBsaeTDfIe2mvtaYf1lkDmEvfSmd9nHU4fef15nqxEym2mQ55h_DKfffEnY4K_5t4K9xqexhEcACdgtpMxtVJKCOSTsZqQ4WxAd5wbiNLEJOD1I8WvJRzFTARCCJhqXw3JhSQ4bwsJLOMc92uQuF2i4BRI6415ez9kVIEjDsZXui1ksB45nj9_ydYOe_CZVKjmyGK0]--></g></svg>