<svg xmlns="http://www.w3.org/2000/svg" xmlns:xlink="http://www.w3.org/1999/xlink" contentStyleType="text/css" data-diagram-type="CLASS" height="370px" preserveAspectRatio="none" style="width:860px;height:370px;background:#FFFFFF;" version="1.1" viewBox="0 0 860 370" width="860px" zoomAndPan="magnify"><title>Datenatlas - LOC:LOC</title><defs/><g><g class="title" data-source-line="1"><text fill="#000000" font-family="sans-serif" font-size="14" font-weight="bold" lengthAdjust="spacing" textLength="169.292" x="338.6483" y="22.9951">Datenatlas - LOC:LOC</text></g><!--class LOC_LOC--><g class="entity" data-entity="LOC_LOC" data-source-line="2" data-uid="ent0002" id="entity_LOC_LOC"><rect fill="#F1F1F1" height="96.8906" rx="2.5" ry="2.5" style="stroke:#181818;stroke-width:0.5;" width="360.3525" x="263.3" y="44.2969"/><ellipse cx="407.1315" cy="60.2969" fill="#ADD1B2" rx="11" ry="11" style="stroke:#181818;stroke-width:1;"/><path d="M410.1003,65.9375 Q409.5222,66.2344 408.8815,66.375 Q408.2409,66.5313 407.5378,66.5313 Q405.0378,66.5313 403.7097,64.8906 Q402.3972,63.2344 402.3972,60.1094 Q402.3972,56.9844 403.7097,55.3281 Q405.0378,53.6719 407.5378,53.6719 Q408.2409,53.6719 408.8815,53.8281 Q409.5378,53.9844 410.1003,54.2813 L410.1003,57 Q409.4753,56.4219 408.8815,56.1563 Q408.2878,55.875 407.6628,55.875 Q406.319,55.875 405.6315,56.9531 Q404.944,58.0156 404.944,60.1094 Q404.944,62.2031 405.6315,63.2813 Q406.319,64.3438 407.6628,64.3438 Q408.2878,64.3438 408.8815,64.0781 Q409.4753,63.7969 410.1003,63.2188 L410.1003,65.9375 Z " fill="#000000"/><text fill="#000000" font-family="sans-serif" font-size="14" lengthAdjust="spacing" textLength="64.1895" x="427.6315" y="65.1436">LOC_LOC</text><line style="stroke:#181818;stroke-width:0.5;" x1="264.3" x2="622.6525" y1="76.2969" y2="76.2969"/><text fill="#000000" font-family="sans-serif" font-size="14" lengthAdjust="spacing" textLength="200.7852" x="283.3" y="93.292">Name: Ortsangabe, Qualifier</text><text fill="#000000" font-family="sans-serif" font-size="14" lengthAdjust="spacing" textLength="66.6436" x="283.3" y="109.5889">Prozesse:</text><rect fill="none" height="6" style="stroke:#C82930;stroke-width:1;" width="6" x="271.3" y="119.5391"/><text fill="#000000" font-family="sans-serif" font-size="14" lengthAdjust="spacing" textLength="334.3525" x="283.3" y="125.8857">Anforderung und &#220;bermittlung von Messwerten</text><line style="stroke:#181818;stroke-width:0.5;" x1="264.3" x2="622.6525" y1="133.1875" y2="133.1875"/></g><!--class LOC_LOC_msg_1--><g class="entity" data-entity="LOC_LOC_msg_1" data-source-line="7" data-uid="ent0003" id="entity_LOC_LOC_msg_1"><rect fill="#F1F1F1" height="145.7813" rx="2.5" ry="2.5" style="stroke:#181818;stroke-width:0.5;" width="432.9502" x="7" y="218.1869"/><ellipse cx="160.7676" cy="234.1869" fill="#ADD1B2" rx="11" ry="11" style="stroke:#181818;stroke-width:1;"/><path d="M163.7363,239.8275 Q163.1582,240.1244 162.5176,240.265 Q161.877,240.4213 161.1738,240.4213 Q158.6738,240.4213 157.3457,238.7806 Q156.0332,237.1244 156.0332,233.9994 Q156.0332,230.8744 157.3457,229.2181 Q158.6738,227.5619 161.1738,227.5619 Q161.877,227.5619 162.5176,227.7181 Q163.1738,227.8744 163.7363,228.1713 L163.7363,230.89 Q163.1113,230.3119 162.5176,230.0463 Q161.9238,229.765 161.2988,229.765 Q159.9551,229.765 159.2676,230.8431 Q158.5801,231.9056 158.5801,233.9994 Q158.5801,236.0931 159.2676,237.1713 Q159.9551,238.2338 161.2988,238.2338 Q161.9238,238.2338 162.5176,237.9681 Q163.1113,237.6869 163.7363,237.1088 L163.7363,239.8275 Z " fill="#000000"/><text fill="#000000" font-family="sans-serif" font-size="14" lengthAdjust="spacing" textLength="116.915" x="181.2676" y="239.0336">LOC_LOC_msg_1</text><line style="stroke:#181818;stroke-width:0.5;" x1="8" x2="438.9502" y1="250.1869" y2="250.1869"/><text fill="#000000" font-family="sans-serif" font-size="14" lengthAdjust="spacing" textLength="172.0264" x="13" y="267.182">Nachricht: MSCONS 2.4c</text><text fill="#000000" font-family="sans-serif" font-size="14" lengthAdjust="spacing" textLength="123.0605" x="13" y="283.4789">Kontext: Beispiel:</text><text fill="#000000" font-family="sans-serif" font-size="14" lengthAdjust="spacing" textLength="91.4033" x="13" y="299.7757">Pflichtfeld: Ja</text><text fill="#000000" font-family="sans-serif" font-size="14" lengthAdjust="spacing" textLength="365.292" x="13" y="316.0726">Codes: 107, 172, 204, 35, LOC, OCR, SG5, SG6, Z06</text><text fill="#000000" font-family="sans-serif" font-size="14" lengthAdjust="spacing" textLength="405.4463" x="13" y="332.3695">Prozesse: Anforderung und &#220;bermittlung von Messwerten</text><text fill="#000000" font-family="sans-serif" font-size="14" lengthAdjust="spacing" textLength="420.9502" x="13" y="348.6664">Quelle: MSCONS_MIG_2_4c_au&#223;erordentliche_20240726.pdf</text><line style="stroke:#181818;stroke-width:0.5;" x1="8" x2="438.9502" y1="355.9681" y2="355.9681"/></g><!--class LOC_LOC_proc_1--><g class="entity" data-entity="LOC_LOC_proc_1" data-source-line="16" data-uid="ent0005" id="entity_LOC_LOC_proc_1"><rect fill="#F1F1F1" height="105.1563" rx="2.5" ry="2.5" style="stroke:#181818;stroke-width:0.5;" width="378.2285" x="475.36" y="238.4969"/><ellipse cx="601.2233" cy="258.6297" fill="#ADD1B2" rx="11" ry="11" style="stroke:#181818;stroke-width:1;"/><path d="M604.192,264.2703 Q603.6139,264.5672 602.9733,264.7078 Q602.3327,264.8641 601.6295,264.8641 Q599.1295,264.8641 597.8014,263.2234 Q596.4889,261.5672 596.4889,258.4422 Q596.4889,255.3172 597.8014,253.6609 Q599.1295,252.0047 601.6295,252.0047 Q602.3327,252.0047 602.9733,252.1609 Q603.6295,252.3172 604.192,252.6141 L604.192,255.3328 Q603.567,254.7547 602.9733,254.4891 Q602.3795,254.2078 601.7545,254.2078 Q600.4108,254.2078 599.7233,255.2859 Q599.0358,256.3484 599.0358,258.4422 Q599.0358,260.5359 599.7233,261.6141 Q600.4108,262.6766 601.7545,262.6766 Q602.3795,262.6766 602.9733,262.4109 Q603.567,262.1297 604.192,261.5516 L604.192,264.2703 Z " fill="#000000"/><text fill="#000000" font-family="sans-serif" font-size="12" font-style="italic" lengthAdjust="spacing" textLength="61.0605" x="650.194" y="254.6355">&#171;process&#187;</text><text fill="#000000" font-family="sans-serif" font-size="14" lengthAdjust="spacing" textLength="118.002" x="621.7233" y="270.4607">LOC_LOC_proc_1</text><line style="stroke:#181818;stroke-width:0.5;" x1="476.36" x2="852.5885" y1="278.7625" y2="278.7625"/><text fill="#000000" font-family="sans-serif" font-size="14" lengthAdjust="spacing" textLength="334.3525" x="481.36" y="295.7576">Anforderung und &#220;bermittlung von Messwerten</text><text fill="#000000" font-family="sans-serif" font-size="14" lengthAdjust="spacing" textLength="105.0957" x="481.36" y="312.0545">Gesetze: MsbG</text><line style="stroke:#181818;stroke-width:0.5;" x1="476.36" x2="852.5885" y1="319.3563" y2="319.3563"/><text fill="#000000" font-family="sans-serif" font-size="14" lengthAdjust="spacing" textLength="366.2285" x="481.36" y="336.3514">Zusammenfassung: Wie kann ein Marktpartner (z.B.</text></g><!--link LOC_LOC to LOC_LOC_msg_1--><g class="link" data-entity-1="LOC_LOC" data-entity-2="LOC_LOC_msg_1" data-source-line="15" data-uid="lnk4" id="link_LOC_LOC_LOC_LOC_msg_1"><path codeLine="15" d="M389.94,141.5169 C364.25,164.4469 337.3967,188.412 308.8767,213.862" fill="none" id="LOC_LOC-to-LOC_LOC_msg_1" style="stroke:#181818;stroke-width:1;"/><polygon fill="#181818" points="304.4,217.8569,313.7783,214.8491,308.1306,214.5278,308.4519,208.8801,304.4,217.8569" style="stroke:#181818;stroke-width:1;"/><text fill="#000000" font-family="sans-serif" font-size="13" lengthAdjust="spacing" textLength="85.2363" x="354.48" y="184.2538">verwendet in</text></g><!--link LOC_LOC to LOC_LOC_proc_1--><g class="link" data-entity-1="LOC_LOC" data-entity-2="LOC_LOC_proc_1" data-source-line="21" data-uid="lnk6" id="link_LOC_LOC_LOC_LOC_proc_1"><path codeLine="21" d="M497.26,141.5169 C530.22,170.8069 567.9343,204.3121 601.6943,234.3021" fill="none" id="LOC_LOC-to-LOC_LOC_proc_1" style="stroke:#181818;stroke-width:1;stroke-dasharray:7,7;"/><polygon fill="#181818" points="606.18,238.2869,602.108,229.3192,602.4419,234.9662,596.7949,235.3002,606.18,238.2869" style="stroke:#181818;stroke-width:1;"/><text fill="#000000" font-family="sans-serif" font-size="13" lengthAdjust="spacing" textLength="91.6221" x="547.48" y="184.2538">eingebettet in</text></g><!--SRC=[bL3BQi905Dtx5NVPHGmnzG6323M5q8V6raN1JPWaDt5mCf6PYHPB_wJGZ_77UaTQiEvSt67kypoii1BXdbjKt4fke0lFISGeEZcbncKf1Nnq0EQyHWQ9jeQhYcVemKlBfIW5QkekT7D0Ov3H7-ZEdIeRNQ1kLGMjAk3ubQ6kXRNILNQDWXcDxr4JTkVpFrnQcohj_OBcQotojMKmMqR9V0cXty-fyTGeY-zKdg8mMu7I0IzAwMPBb0M3HqwLg2dGCEW58mzwez23CEXxS3lm79O7IVJgmJ8Uk6VemIeOdakvJWIG7oWb_Z5DPmzn6gRzFENjyHkrkwIi8uXf68JzO1GE_MrHale_cxlToOK737QezwWAj23KXKrRtUGqCnwx3n6PJ4wUNSawHeFsu6YRBAPyrHfUrwXAWg851cy2OSEL0XIqolN6Rhcs2ZNS7FofVyRVzoUNv9ZRgZ13QqyIVW00]--></g></svg>