<svg xmlns="http://www.w3.org/2000/svg" xmlns:xlink="http://www.w3.org/1999/xlink" contentStyleType="text/css" data-diagram-type="CLASS" height="387px" preserveAspectRatio="none" style="width:2552px;height:387px;background:#FFFFFF;" version="1.1" viewBox="0 0 2552 387" width="2552px" zoomAndPan="magnify"><title>Datenatlas - MOA:00052</title><defs/><g><g class="title" data-source-line="1"><text fill="#000000" font-family="sans-serif" font-size="14" font-weight="bold" lengthAdjust="spacing" textLength="192.4727" x="1173.2274" y="22.9951">Datenatlas - MOA:00052</text></g><!--class MOA_00052--><g class="entity" data-entity="MOA_00052" data-source-line="2" data-uid="ent0002" id="entity_MOA_00052"><rect fill="#F1F1F1" height="113.1875" rx="2.5" ry="2.5" style="stroke:#181818;stroke-width:0.5;" width="249.2822" x="990.17" y="44.2969"/><ellipse cx="1068.4552" cy="60.2969" fill="#ADD1B2" rx="11" ry="11" style="stroke:#181818;stroke-width:1;"/><path d="M1071.4239,65.9375 Q1070.8458,66.2344 1070.2052,66.375 Q1069.5645,66.5313 1068.8614,66.5313 Q1066.3614,66.5313 1065.0333,64.8906 Q1063.7208,63.2344 1063.7208,60.1094 Q1063.7208,56.9844 1065.0333,55.3281 Q1066.3614,53.6719 1068.8614,53.6719 Q1069.5645,53.6719 1070.2052,53.8281 Q1070.8614,53.9844 1071.4239,54.2813 L1071.4239,57 Q1070.7989,56.4219 1070.2052,56.1563 Q1069.6114,55.875 1068.9864,55.875 Q1067.6427,55.875 1066.9552,56.9531 Q1066.2677,58.0156 1066.2677,60.1094 Q1066.2677,62.2031 1066.9552,63.2813 Q1067.6427,64.3438 1068.9864,64.3438 Q1069.6114,64.3438 1070.2052,64.0781 Q1070.7989,63.7969 1071.4239,63.2188 L1071.4239,65.9375 Z " fill="#000000"/><text fill="#000000" font-family="sans-serif" font-size="14" lengthAdjust="spacing" textLength="84.2119" x="1088.9552" y="65.1436">MOA_00052</text><line style="stroke:#181818;stroke-width:0.5;" x1="991.17" x2="1238.4522" y1="76.2969" y2="76.2969"/><text fill="#000000" font-family="sans-serif" font-size="14" lengthAdjust="spacing" textLength="174.3916" x="1010.17" y="93.292">Name: Rechnungsbetrag</text><text fill="#000000" font-family="sans-serif" font-size="14" lengthAdjust="spacing" textLength="66.6436" x="1010.17" y="109.5889">Prozesse:</text><rect fill="none" height="6" style="stroke:#C82930;stroke-width:1;" width="6" x="998.17" y="119.5391"/><text fill="#000000" font-family="sans-serif" font-size="14" lengthAdjust="spacing" textLength="180.3457" x="1010.17" y="125.8857">Netznutzungsabrechnung</text><rect fill="none" height="6" style="stroke:#C82930;stroke-width:1;" width="6" x="998.17" y="135.8359"/><text fill="#000000" font-family="sans-serif" font-size="14" lengthAdjust="spacing" textLength="223.2822" x="1010.17" y="142.1826">Messstellenbetriebsabrechnung</text><line style="stroke:#181818;stroke-width:0.5;" x1="991.17" x2="1238.4522" y1="149.4844" y2="149.4844"/></g><!--class MOA_00052_msg_1--><g class="entity" data-entity="MOA_00052_msg_1" data-source-line="8" data-uid="ent0003" id="entity_MOA_00052_msg_1"><rect fill="#F1F1F1" height="145.7813" rx="2.5" ry="2.5" style="stroke:#181818;stroke-width:0.5;" width="495.6221" x="7" y="234.4869"/><ellipse cx="182.0923" cy="250.4869" fill="#ADD1B2" rx="11" ry="11" style="stroke:#181818;stroke-width:1;"/><path d="M185.061,256.1275 Q184.4829,256.4244 183.8423,256.565 Q183.2017,256.7213 182.4985,256.7213 Q179.9985,256.7213 178.6704,255.0806 Q177.3579,253.4244 177.3579,250.2994 Q177.3579,247.1744 178.6704,245.5181 Q179.9985,243.8619 182.4985,243.8619 Q183.2017,243.8619 183.8423,244.0181 Q184.4985,244.1744 185.061,244.4713 L185.061,247.19 Q184.436,246.6119 183.8423,246.3463 Q183.2485,246.065 182.6235,246.065 Q181.2798,246.065 180.5923,247.1431 Q179.9048,248.2056 179.9048,250.2994 Q179.9048,252.3931 180.5923,253.4713 Q181.2798,254.5338 182.6235,254.5338 Q183.2485,254.5338 183.8423,254.2681 Q184.436,253.9869 185.061,253.4088 L185.061,256.1275 Z " fill="#000000"/><text fill="#000000" font-family="sans-serif" font-size="14" lengthAdjust="spacing" textLength="136.9375" x="202.5923" y="255.3336">MOA_00052_msg_1</text><line style="stroke:#181818;stroke-width:0.5;" x1="8" x2="501.6221" y1="266.4869" y2="266.4869"/><text fill="#000000" font-family="sans-serif" font-size="14" lengthAdjust="spacing" textLength="161.1982" x="13" y="283.482">Nachricht: INVOIC 2.8d</text><text fill="#000000" font-family="sans-serif" font-size="14" lengthAdjust="spacing" textLength="204.1143" x="13" y="299.7789">Kontext: Nachrichtenstruktur</text><text fill="#000000" font-family="sans-serif" font-size="14" lengthAdjust="spacing" textLength="91.4033" x="13" y="316.0757">Pflichtfeld: Ja</text><text fill="#000000" font-family="sans-serif" font-size="14" lengthAdjust="spacing" textLength="147.3145" x="13" y="332.3726">Codes: 100, 20, MOA</text><text fill="#000000" font-family="sans-serif" font-size="14" lengthAdjust="spacing" textLength="483.6221" x="13" y="348.6695">Prozesse: Netznutzungsabrechnung, Messstellenbetriebsabrechnung</text><text fill="#000000" font-family="sans-serif" font-size="14" lengthAdjust="spacing" textLength="396.6074" x="13" y="364.9664">Quelle: INVOIC_MIG_2.8d_Fehlerkorrektur_20250131.pdf</text><line style="stroke:#181818;stroke-width:0.5;" x1="8" x2="501.6221" y1="372.2681" y2="372.2681"/></g><!--class MOA_00052_msg_2--><g class="entity" data-entity="MOA_00052_msg_2" data-source-line="17" data-uid="ent0005" id="entity_MOA_00052_msg_2"><rect fill="#F1F1F1" height="145.7813" rx="2.5" ry="2.5" style="stroke:#181818;stroke-width:0.5;" width="495.6221" x="538" y="234.4869"/><ellipse cx="713.0923" cy="250.4869" fill="#ADD1B2" rx="11" ry="11" style="stroke:#181818;stroke-width:1;"/><path d="M716.061,256.1275 Q715.4829,256.4244 714.8423,256.565 Q714.2017,256.7213 713.4985,256.7213 Q710.9985,256.7213 709.6704,255.0806 Q708.3579,253.4244 708.3579,250.2994 Q708.3579,247.1744 709.6704,245.5181 Q710.9985,243.8619 713.4985,243.8619 Q714.2017,243.8619 714.8423,244.0181 Q715.4985,244.1744 716.061,244.4713 L716.061,247.19 Q715.436,246.6119 714.8423,246.3463 Q714.2485,246.065 713.6235,246.065 Q712.2798,246.065 711.5923,247.1431 Q710.9048,248.2056 710.9048,250.2994 Q710.9048,252.3931 711.5923,253.4713 Q712.2798,254.5338 713.6235,254.5338 Q714.2485,254.5338 714.8423,254.2681 Q715.436,253.9869 716.061,253.4088 L716.061,256.1275 Z " fill="#000000"/><text fill="#000000" font-family="sans-serif" font-size="14" lengthAdjust="spacing" textLength="136.9375" x="733.5923" y="255.3336">MOA_00052_msg_2</text><line style="stroke:#181818;stroke-width:0.5;" x1="539" x2="1032.6221" y1="266.4869" y2="266.4869"/><text fill="#000000" font-family="sans-serif" font-size="14" lengthAdjust="spacing" textLength="165.6484" x="544" y="283.482">Nachricht: INVOIC 2.8d.</text><text fill="#000000" font-family="sans-serif" font-size="14" lengthAdjust="spacing" textLength="204.1143" x="544" y="299.7789">Kontext: Nachrichtenstruktur</text><text fill="#000000" font-family="sans-serif" font-size="14" lengthAdjust="spacing" textLength="91.4033" x="544" y="316.0757">Pflichtfeld: Ja</text><text fill="#000000" font-family="sans-serif" font-size="14" lengthAdjust="spacing" textLength="147.3145" x="544" y="332.3726">Codes: 100, 20, MOA</text><text fill="#000000" font-family="sans-serif" font-size="14" lengthAdjust="spacing" textLength="483.6221" x="544" y="348.6695">Prozesse: Netznutzungsabrechnung, Messstellenbetriebsabrechnung</text><text fill="#000000" font-family="sans-serif" font-size="14" lengthAdjust="spacing" textLength="290.3359" x="544" y="364.9664">Quelle: INVOIC_MIG_2_8d__20240619.pdf</text><line style="stroke:#181818;stroke-width:0.5;" x1="539" x2="1032.6221" y1="372.2681" y2="372.2681"/></g><!--class MOA_00052_proc_1--><g class="entity" data-entity="MOA_00052_proc_1" data-source-line="26" data-uid="ent0007" id="entity_MOA_00052_proc_1"><rect fill="#F1F1F1" height="105.1563" rx="2.5" ry="2.5" style="stroke:#181818;stroke-width:0.5;" width="752.6465" x="1068.49" y="254.7969"/><ellipse cx="1371.551" cy="274.9297" fill="#ADD1B2" rx="11" ry="11" style="stroke:#181818;stroke-width:1;"/><path d="M1374.5198,280.5703 Q1373.9417,280.8672 1373.301,281.0078 Q1372.6604,281.1641 1371.9573,281.1641 Q1369.4573,281.1641 1368.1292,279.5234 Q1366.8167,277.8672 1366.8167,274.7422 Q1366.8167,271.6172 1368.1292,269.9609 Q1369.4573,268.3047 1371.9573,268.3047 Q1372.6604,268.3047 1373.301,268.4609 Q1373.9573,268.6172 1374.5198,268.9141 L1374.5198,271.6328 Q1373.8948,271.0547 1373.301,270.7891 Q1372.7073,270.5078 1372.0823,270.5078 Q1370.7385,270.5078 1370.051,271.5859 Q1369.3635,272.6484 1369.3635,274.7422 Q1369.3635,276.8359 1370.051,277.9141 Q1370.7385,278.9766 1372.0823,278.9766 Q1372.7073,278.9766 1373.301,278.7109 Q1373.8948,278.4297 1374.5198,277.8516 L1374.5198,280.5703 Z " fill="#000000"/><text fill="#000000" font-family="sans-serif" font-size="12" font-style="italic" lengthAdjust="spacing" textLength="61.0605" x="1430.533" y="270.9355">&#171;process&#187;</text><text fill="#000000" font-family="sans-serif" font-size="14" lengthAdjust="spacing" textLength="138.0244" x="1392.051" y="286.7607">MOA_00052_proc_1</text><line style="stroke:#181818;stroke-width:0.5;" x1="1069.49" x2="1820.1365" y1="295.0625" y2="295.0625"/><text fill="#000000" font-family="sans-serif" font-size="14" lengthAdjust="spacing" textLength="180.3457" x="1074.49" y="312.0576">Netznutzungsabrechnung</text><text fill="#000000" font-family="sans-serif" font-size="14" lengthAdjust="spacing" textLength="218.0938" x="1074.49" y="328.3545">Gesetze: StromNEV, StromNZV</text><text fill="#000000" font-family="sans-serif" font-size="14" lengthAdjust="spacing" textLength="740.6465" x="1074.49" y="344.6514">Zusammenfassung: Wie funktioniert die Netznutzungsabrechnung zwischen Netzbetreiber und Lieferant?</text><line style="stroke:#181818;stroke-width:0.5;" x1="1069.49" x2="1820.1365" y1="351.9531" y2="351.9531"/></g><!--class MOA_00052_proc_2--><g class="entity" data-entity="MOA_00052_proc_2" data-source-line="32" data-uid="ent0009" id="entity_MOA_00052_proc_2"><rect fill="#F1F1F1" height="105.1563" rx="2.5" ry="2.5" style="stroke:#181818;stroke-width:0.5;" width="690.2275" x="1855.7" y="254.7969"/><ellipse cx="2127.5516" cy="274.9297" fill="#ADD1B2" rx="11" ry="11" style="stroke:#181818;stroke-width:1;"/><path d="M2130.5203,280.5703 Q2129.9422,280.8672 2129.3016,281.0078 Q2128.6609,281.1641 2127.9578,281.1641 Q2125.4578,281.1641 2124.1297,279.5234 Q2122.8172,277.8672 2122.8172,274.7422 Q2122.8172,271.6172 2124.1297,269.9609 Q2125.4578,268.3047 2127.9578,268.3047 Q2128.6609,268.3047 2129.3016,268.4609 Q2129.9578,268.6172 2130.5203,268.9141 L2130.5203,271.6328 Q2129.8953,271.0547 2129.3016,270.7891 Q2128.7078,270.5078 2128.0828,270.5078 Q2126.7391,270.5078 2126.0516,271.5859 Q2125.3641,272.6484 2125.3641,274.7422 Q2125.3641,276.8359 2126.0516,277.9141 Q2126.7391,278.9766 2128.0828,278.9766 Q2128.7078,278.9766 2129.3016,278.7109 Q2129.8953,278.4297 2130.5203,277.8516 L2130.5203,280.5703 Z " fill="#000000"/><text fill="#000000" font-family="sans-serif" font-size="12" font-style="italic" lengthAdjust="spacing" textLength="61.0605" x="2186.5335" y="270.9355">&#171;process&#187;</text><text fill="#000000" font-family="sans-serif" font-size="14" lengthAdjust="spacing" textLength="138.0244" x="2148.0516" y="286.7607">MOA_00052_proc_2</text><line style="stroke:#181818;stroke-width:0.5;" x1="1856.7" x2="2544.9275" y1="295.0625" y2="295.0625"/><text fill="#000000" font-family="sans-serif" font-size="14" lengthAdjust="spacing" textLength="223.2822" x="1861.7" y="312.0576">Messstellenbetriebsabrechnung</text><text fill="#000000" font-family="sans-serif" font-size="14" lengthAdjust="spacing" textLength="105.0957" x="1861.7" y="328.3545">Gesetze: MsbG</text><text fill="#000000" font-family="sans-serif" font-size="14" lengthAdjust="spacing" textLength="678.2275" x="1861.7" y="344.6514">Zusammenfassung: Beschreibe den Prozess der Abrechnung von Messstellenbetriebsleistungen.</text><line style="stroke:#181818;stroke-width:0.5;" x1="1856.7" x2="2544.9275" y1="351.9531" y2="351.9531"/></g><!--link MOA_00052 to MOA_00052_msg_1--><g class="link" data-entity-1="MOA_00052" data-entity-2="MOA_00052_msg_1" data-source-line="16" data-uid="lnk4" id="link_MOA_00052_MOA_00052_msg_1"><path codeLine="16" d="M989.86,128.0969 C869.39,153.7669 682.13,194.6969 520.81,234.4869 C514.89,235.9469 514.7186,235.9726 508.6786,237.4926" fill="none" id="MOA_00052-to-MOA_00052_msg_1" style="stroke:#181818;stroke-width:1;"/><polygon fill="#181818" points="502.86,238.9569,512.5641,240.6395,507.7088,237.7366,510.6117,232.8814,502.86,238.9569" style="stroke:#181818;stroke-width:1;"/><text fill="#000000" font-family="sans-serif" font-size="13" lengthAdjust="spacing" textLength="85.2363" x="717.81" y="200.5538">verwendet in</text></g><!--link MOA_00052 to MOA_00052_msg_2--><g class="link" data-entity-1="MOA_00052" data-entity-2="MOA_00052_msg_2" data-source-line="25" data-uid="lnk6" id="link_MOA_00052_MOA_00052_msg_2"><path codeLine="25" d="M1024.91,157.7669 C987.05,181.2969 947.5959,205.8196 907.2759,230.8796" fill="none" id="MOA_00052-to-MOA_00052_msg_2" style="stroke:#181818;stroke-width:1;"/><polygon fill="#181818" points="902.18,234.0469,911.9354,232.6933,906.4266,231.4075,907.7124,225.8987,902.18,234.0469" style="stroke:#181818;stroke-width:1;"/><text fill="#000000" font-family="sans-serif" font-size="13" lengthAdjust="spacing" textLength="85.2363" x="971.81" y="200.5538">verwendet in</text></g><!--link MOA_00052 to MOA_00052_proc_1--><g class="link" data-entity-1="MOA_00052" data-entity-2="MOA_00052_proc_1" data-source-line="31" data-uid="lnk8" id="link_MOA_00052_MOA_00052_proc_1"><path codeLine="31" d="M1204.98,157.7669 C1253.65,187.9169 1308.2295,221.747 1355.8795,251.267" fill="none" id="MOA_00052-to-MOA_00052_proc_1" style="stroke:#181818;stroke-width:1;stroke-dasharray:7,7;"/><polygon fill="#181818" points="1360.98,254.4269,1355.4358,246.2867,1356.7296,251.7937,1351.2226,253.0874,1360.98,254.4269" style="stroke:#181818;stroke-width:1;"/><text fill="#000000" font-family="sans-serif" font-size="13" lengthAdjust="spacing" textLength="91.6221" x="1280.81" y="200.5538">eingebettet in</text></g><!--link MOA_00052 to MOA_00052_proc_2--><g class="link" data-entity-1="MOA_00052" data-entity-2="MOA_00052_proc_2" data-source-line="37" data-uid="lnk10" id="link_MOA_00052_MOA_00052_proc_2"><path codeLine="37" d="M1239.83,124.2069 C1384.23,150.1069 1628.88,194.4169 1838.81,234.4869 C1872.01,240.8269 1901.0125,246.4406 1935.4825,253.2106" fill="none" id="MOA_00052-to-MOA_00052_proc_2" style="stroke:#181818;stroke-width:1;stroke-dasharray:7,7;"/><polygon fill="#181818" points="1941.37,254.3669,1933.3096,248.7074,1936.4637,253.4033,1931.7678,256.5574,1941.37,254.3669" style="stroke:#181818;stroke-width:1;"/><text fill="#000000" font-family="sans-serif" font-size="13" lengthAdjust="spacing" textLength="91.6221" x="1661.81" y="200.5538">eingebettet in</text></g><!--SRC=[pPBTJjj048NlUOfvWCIo5wZA2gMYj8rIID8VAKZSM6jx7AzYZz7k652gldjdKnTe4qWlkR0qEsUqSxxZPSirmWV3I8Phus48q_cPZkFuM1taql3Xd6xEyEC0O6OQrF0DyuewMleCsPcbzB-uTetUevOQv9OPyfewNeSXaxb-lXUdCkaPwnefN60nUphpyz_5QUENQTAlpojdyuerJ6QB-UGSLFIs4E6Y9SPxQJzC87bstOex5-oLTUYLM1SQFXlfdBS5UWr970z0oIVRdc8y0p3OuntWQnUqF_RIwMIS1elf9wngTAlMEGoUKXMhupWvJAAReXJanvI7mz4MkePRT7T81J9OsfcFUY6VwBK7b4f08P6Z-4royX-9g7s9tBWsbznEJqCXXaQZt_4yzoh7w4KILz_PjStiusBGLzSBKQyxRve6gPGbCg_XoYAK7QtOjcJHCHJIs7qvhE-ipokaZHuIGPkXWuuAkBHOeZF4x_xYZQBHDee6jBH4kO1VG5PRoFj-nmFvr6VZNQplKUnlJ4CX5Fq3aDh1sIFbRKkxLjLeFOkE5Er3L5k8lm00]--></g></svg>