<svg xmlns="http://www.w3.org/2000/svg" xmlns:xlink="http://www.w3.org/1999/xlink" contentStyleType="text/css" data-diagram-type="CLASS" height="419px" preserveAspectRatio="none" style="width:5571px;height:419px;background:#FFFFFF;" version="1.1" viewBox="0 0 5571 419" width="5571px" zoomAndPan="magnify"><title>Datenatlas - MOA:C516</title><defs/><g><g class="title" data-source-line="1"><text fill="#000000" font-family="sans-serif" font-size="14" font-weight="bold" lengthAdjust="spacing" textLength="183.2646" x="2687.2723" y="22.9951">Datenatlas - MOA:C516</text></g><!--class MOA_C516--><g class="entity" data-entity="MOA_C516" data-source-line="2" data-uid="ent0002" id="entity_MOA_C516"><rect fill="#F1F1F1" height="145.7813" rx="2.5" ry="2.5" style="stroke:#181818;stroke-width:0.5;" width="374.2021" x="2050.71" y="44.2969"/><ellipse cx="2195.4746" cy="60.2969" fill="#ADD1B2" rx="11" ry="11" style="stroke:#181818;stroke-width:1;"/><path d="M2198.4434,65.9375 Q2197.8653,66.2344 2197.2246,66.375 Q2196.584,66.5313 2195.8809,66.5313 Q2193.3809,66.5313 2192.0528,64.8906 Q2190.7403,63.2344 2190.7403,60.1094 Q2190.7403,56.9844 2192.0528,55.3281 Q2193.3809,53.6719 2195.8809,53.6719 Q2196.584,53.6719 2197.2246,53.8281 Q2197.8809,53.9844 2198.4434,54.2813 L2198.4434,57 Q2197.8184,56.4219 2197.2246,56.1563 Q2196.6309,55.875 2196.0059,55.875 Q2194.6621,55.875 2193.9746,56.9531 Q2193.2871,58.0156 2193.2871,60.1094 Q2193.2871,62.2031 2193.9746,63.2813 Q2194.6621,64.3438 2196.0059,64.3438 Q2196.6309,64.3438 2197.2246,64.0781 Q2197.8184,63.7969 2198.4434,63.2188 L2198.4434,65.9375 Z " fill="#000000"/><text fill="#000000" font-family="sans-serif" font-size="14" lengthAdjust="spacing" textLength="76.1729" x="2215.9746" y="65.1436">MOA_C516</text><line style="stroke:#181818;stroke-width:0.5;" x1="2051.71" x2="2423.9121" y1="76.2969" y2="76.2969"/><text fill="#000000" font-family="sans-serif" font-size="14" lengthAdjust="spacing" textLength="128.9189" x="2070.71" y="93.292">Name: Geldbetrag</text><text fill="#000000" font-family="sans-serif" font-size="14" lengthAdjust="spacing" textLength="66.6436" x="2070.71" y="109.5889">Prozesse:</text><rect fill="none" height="6" style="stroke:#C82930;stroke-width:1;" width="6" x="2058.71" y="119.5391"/><text fill="#000000" font-family="sans-serif" font-size="14" lengthAdjust="spacing" textLength="180.3457" x="2070.71" y="125.8857">Netznutzungsabrechnung</text><rect fill="none" height="6" style="stroke:#C82930;stroke-width:1;" width="6" x="2058.71" y="135.8359"/><text fill="#000000" font-family="sans-serif" font-size="14" lengthAdjust="spacing" textLength="223.2822" x="2070.71" y="142.1826">Messstellenbetriebsabrechnung</text><rect fill="none" height="6" style="stroke:#C82930;stroke-width:1;" width="6" x="2058.71" y="152.1328"/><text fill="#000000" font-family="sans-serif" font-size="14" lengthAdjust="spacing" textLength="317.9668" x="2070.71" y="158.4795">Sperrung und Entsperrung eines Anschlusses</text><line style="stroke:#181818;stroke-width:0.5;" x1="2051.71" x2="2423.9121" y1="165.7813" y2="165.7813"/><rect fill="#F24D5C" height="6" style="stroke:#C82930;stroke-width:1;" width="6" x="2058.71" y="176.4297"/><text fill="#000000" font-family="sans-serif" font-size="14" lengthAdjust="spacing" textLength="348.2021" x="2070.71" y="182.7764">Bestellung einer technischen Konfiguration (MSB)</text></g><!--class MOA_C516_msg_1--><g class="entity" data-entity="MOA_C516_msg_1" data-source-line="10" data-uid="ent0003" id="entity_MOA_C516_msg_1"><rect fill="#F1F1F1" height="145.7813" rx="2.5" ry="2.5" style="stroke:#181818;stroke-width:0.5;" width="495.6221" x="7" y="267.0769"/><ellipse cx="186.1118" cy="283.0769" fill="#ADD1B2" rx="11" ry="11" style="stroke:#181818;stroke-width:1;"/><path d="M189.0806,288.7175 Q188.5024,289.0144 187.8618,289.155 Q187.2212,289.3113 186.5181,289.3113 Q184.0181,289.3113 182.6899,287.6706 Q181.3774,286.0144 181.3774,282.8894 Q181.3774,279.7644 182.6899,278.1081 Q184.0181,276.4519 186.5181,276.4519 Q187.2212,276.4519 187.8618,276.6081 Q188.5181,276.7644 189.0806,277.0613 L189.0806,279.78 Q188.4556,279.2019 187.8618,278.9363 Q187.2681,278.655 186.6431,278.655 Q185.2993,278.655 184.6118,279.7331 Q183.9243,280.7956 183.9243,282.8894 Q183.9243,284.9831 184.6118,286.0613 Q185.2993,287.1238 186.6431,287.1238 Q187.2681,287.1238 187.8618,286.8581 Q188.4556,286.5769 189.0806,285.9988 L189.0806,288.7175 Z " fill="#000000"/><text fill="#000000" font-family="sans-serif" font-size="14" lengthAdjust="spacing" textLength="128.8984" x="206.6118" y="287.9236">MOA_C516_msg_1</text><line style="stroke:#181818;stroke-width:0.5;" x1="8" x2="501.6221" y1="299.0769" y2="299.0769"/><text fill="#000000" font-family="sans-serif" font-size="14" lengthAdjust="spacing" textLength="161.1982" x="13" y="316.072">Nachricht: INVOIC 2.8d</text><text fill="#000000" font-family="sans-serif" font-size="14" lengthAdjust="spacing" textLength="170.3447" x="13" y="332.3689">Kontext: Segmentlayout</text><text fill="#000000" font-family="sans-serif" font-size="14" lengthAdjust="spacing" textLength="91.4033" x="13" y="348.6657">Pflichtfeld: Ja</text><text fill="#000000" font-family="sans-serif" font-size="14" lengthAdjust="spacing" textLength="200.7441" x="13" y="364.9626">Codes: 25, 30, 35, 536, MOA</text><text fill="#000000" font-family="sans-serif" font-size="14" lengthAdjust="spacing" textLength="483.6221" x="13" y="381.2595">Prozesse: Netznutzungsabrechnung, Messstellenbetriebsabrechnung</text><text fill="#000000" font-family="sans-serif" font-size="14" lengthAdjust="spacing" textLength="396.6074" x="13" y="397.5564">Quelle: INVOIC_MIG_2.8d_Fehlerkorrektur_20250131.pdf</text><line style="stroke:#181818;stroke-width:0.5;" x1="8" x2="501.6221" y1="404.8581" y2="404.8581"/></g><!--class MOA_C516_msg_2--><g class="entity" data-entity="MOA_C516_msg_2" data-source-line="19" data-uid="ent0005" id="entity_MOA_C516_msg_2"><rect fill="#F1F1F1" height="145.7813" rx="2.5" ry="2.5" style="stroke:#181818;stroke-width:0.5;" width="495.6221" x="538" y="267.0769"/><ellipse cx="717.1118" cy="283.0769" fill="#ADD1B2" rx="11" ry="11" style="stroke:#181818;stroke-width:1;"/><path d="M720.0806,288.7175 Q719.5024,289.0144 718.8618,289.155 Q718.2212,289.3113 717.5181,289.3113 Q715.0181,289.3113 713.6899,287.6706 Q712.3774,286.0144 712.3774,282.8894 Q712.3774,279.7644 713.6899,278.1081 Q715.0181,276.4519 717.5181,276.4519 Q718.2212,276.4519 718.8618,276.6081 Q719.5181,276.7644 720.0806,277.0613 L720.0806,279.78 Q719.4556,279.2019 718.8618,278.9363 Q718.2681,278.655 717.6431,278.655 Q716.2993,278.655 715.6118,279.7331 Q714.9243,280.7956 714.9243,282.8894 Q714.9243,284.9831 715.6118,286.0613 Q716.2993,287.1238 717.6431,287.1238 Q718.2681,287.1238 718.8618,286.8581 Q719.4556,286.5769 720.0806,285.9988 L720.0806,288.7175 Z " fill="#000000"/><text fill="#000000" font-family="sans-serif" font-size="14" lengthAdjust="spacing" textLength="128.8984" x="737.6118" y="287.9236">MOA_C516_msg_2</text><line style="stroke:#181818;stroke-width:0.5;" x1="539" x2="1032.6221" y1="299.0769" y2="299.0769"/><text fill="#000000" font-family="sans-serif" font-size="14" lengthAdjust="spacing" textLength="165.6484" x="544" y="316.072">Nachricht: INVOIC 2.8d.</text><text fill="#000000" font-family="sans-serif" font-size="14" lengthAdjust="spacing" textLength="123.0605" x="544" y="332.3689">Kontext: Beispiel:</text><text fill="#000000" font-family="sans-serif" font-size="14" lengthAdjust="spacing" textLength="91.4033" x="544" y="348.6657">Pflichtfeld: Ja</text><text fill="#000000" font-family="sans-serif" font-size="14" lengthAdjust="spacing" textLength="214.1357" x="544" y="364.9626">Codes: 30, 35, MOA, OCR, Z01</text><text fill="#000000" font-family="sans-serif" font-size="14" lengthAdjust="spacing" textLength="483.6221" x="544" y="381.2595">Prozesse: Netznutzungsabrechnung, Messstellenbetriebsabrechnung</text><text fill="#000000" font-family="sans-serif" font-size="14" lengthAdjust="spacing" textLength="290.3359" x="544" y="397.5564">Quelle: INVOIC_MIG_2_8d__20240619.pdf</text><line style="stroke:#181818;stroke-width:0.5;" x1="539" x2="1032.6221" y1="404.8581" y2="404.8581"/></g><!--class MOA_C516_msg_3--><g class="entity" data-entity="MOA_C516_msg_3" data-source-line="28" data-uid="ent0007" id="entity_MOA_C516_msg_3"><rect fill="#F1F1F1" height="145.7813" rx="2.5" ry="2.5" style="stroke:#181818;stroke-width:0.5;" width="758.1631" x="1068.73" y="267.0769"/><ellipse cx="1379.1123" cy="283.0769" fill="#ADD1B2" rx="11" ry="11" style="stroke:#181818;stroke-width:1;"/><path d="M1382.0811,288.7175 Q1381.5029,289.0144 1380.8623,289.155 Q1380.2217,289.3113 1379.5186,289.3113 Q1377.0186,289.3113 1375.6904,287.6706 Q1374.3779,286.0144 1374.3779,282.8894 Q1374.3779,279.7644 1375.6904,278.1081 Q1377.0186,276.4519 1379.5186,276.4519 Q1380.2217,276.4519 1380.8623,276.6081 Q1381.5186,276.7644 1382.0811,277.0613 L1382.0811,279.78 Q1381.4561,279.2019 1380.8623,278.9363 Q1380.2686,278.655 1379.6436,278.655 Q1378.2998,278.655 1377.6123,279.7331 Q1376.9248,280.7956 1376.9248,282.8894 Q1376.9248,284.9831 1377.6123,286.0613 Q1378.2998,287.1238 1379.6436,287.1238 Q1380.2686,287.1238 1380.8623,286.8581 Q1381.4561,286.5769 1382.0811,285.9988 L1382.0811,288.7175 Z " fill="#000000"/><text fill="#000000" font-family="sans-serif" font-size="14" lengthAdjust="spacing" textLength="128.8984" x="1399.6123" y="287.9236">MOA_C516_msg_3</text><line style="stroke:#181818;stroke-width:0.5;" x1="1069.73" x2="1825.8931" y1="299.0769" y2="299.0769"/><text fill="#000000" font-family="sans-serif" font-size="14" lengthAdjust="spacing" textLength="161.793" x="1074.73" y="316.072">Nachricht: ORDRSP 1.4</text><text fill="#000000" font-family="sans-serif" font-size="14" lengthAdjust="spacing" textLength="123.0605" x="1074.73" y="332.3689">Kontext: Beispiel:</text><text fill="#000000" font-family="sans-serif" font-size="14" lengthAdjust="spacing" textLength="110.5439" x="1074.73" y="348.6657">Pflichtfeld: Nein</text><text fill="#000000" font-family="sans-serif" font-size="14" lengthAdjust="spacing" textLength="174.7129" x="1074.73" y="364.9626">Codes: 12, 35, MOA, Z02</text><text fill="#000000" font-family="sans-serif" font-size="14" lengthAdjust="spacing" textLength="283.9307" x="1074.73" y="381.2595">Quelle: ORDRSP_MIG_1_4_20240619.pdf</text><line style="stroke:#181818;stroke-width:0.5;" x1="1069.73" x2="1825.8931" y1="388.5613" y2="388.5613"/><text fill="#000000" font-family="sans-serif" font-size="14" lengthAdjust="spacing" textLength="746.1631" x="1074.73" y="405.5564">Prozesse: Bestellung einer technischen Konfiguration (MSB), Sperrung und Entsperrung eines Anschlusses</text></g><!--class MOA_C516_proc_1--><g class="entity" data-entity="MOA_C516_proc_1" data-source-line="37" data-uid="ent0009" id="entity_MOA_C516_proc_1"><rect fill="#F1F1F1" height="105.1563" rx="2.5" ry="2.5" style="stroke:#181818;stroke-width:0.5;" width="752.6465" x="1861.49" y="287.3869"/><ellipse cx="2168.5706" cy="307.5197" fill="#ADD1B2" rx="11" ry="11" style="stroke:#181818;stroke-width:1;"/><path d="M2171.5393,313.1603 Q2170.9612,313.4572 2170.3206,313.5978 Q2169.6799,313.7541 2168.9768,313.7541 Q2166.4768,313.7541 2165.1487,312.1134 Q2163.8362,310.4572 2163.8362,307.3322 Q2163.8362,304.2072 2165.1487,302.5509 Q2166.4768,300.8947 2168.9768,300.8947 Q2169.6799,300.8947 2170.3206,301.0509 Q2170.9768,301.2072 2171.5393,301.5041 L2171.5393,304.2228 Q2170.9143,303.6447 2170.3206,303.3791 Q2169.7268,303.0978 2169.1018,303.0978 Q2167.7581,303.0978 2167.0706,304.1759 Q2166.3831,305.2384 2166.3831,307.3322 Q2166.3831,309.4259 2167.0706,310.5041 Q2167.7581,311.5666 2169.1018,311.5666 Q2169.7268,311.5666 2170.3206,311.3009 Q2170.9143,311.0197 2171.5393,310.4416 L2171.5393,313.1603 Z " fill="#000000"/><text fill="#000000" font-family="sans-serif" font-size="12" font-style="italic" lengthAdjust="spacing" textLength="61.0605" x="2223.533" y="303.5255">&#171;process&#187;</text><text fill="#000000" font-family="sans-serif" font-size="14" lengthAdjust="spacing" textLength="129.9854" x="2189.0706" y="319.3507">MOA_C516_proc_1</text><line style="stroke:#181818;stroke-width:0.5;" x1="1862.49" x2="2613.1365" y1="327.6525" y2="327.6525"/><text fill="#000000" font-family="sans-serif" font-size="14" lengthAdjust="spacing" textLength="180.3457" x="1867.49" y="344.6476">Netznutzungsabrechnung</text><text fill="#000000" font-family="sans-serif" font-size="14" lengthAdjust="spacing" textLength="218.0938" x="1867.49" y="360.9445">Gesetze: StromNEV, StromNZV</text><text fill="#000000" font-family="sans-serif" font-size="14" lengthAdjust="spacing" textLength="740.6465" x="1867.49" y="377.2414">Zusammenfassung: Wie funktioniert die Netznutzungsabrechnung zwischen Netzbetreiber und Lieferant?</text><line style="stroke:#181818;stroke-width:0.5;" x1="1862.49" x2="2613.1365" y1="384.5431" y2="384.5431"/></g><!--class MOA_C516_proc_2--><g class="entity" data-entity="MOA_C516_proc_2" data-source-line="43" data-uid="ent0011" id="entity_MOA_C516_proc_2"><rect fill="#F1F1F1" height="105.1563" rx="2.5" ry="2.5" style="stroke:#181818;stroke-width:0.5;" width="690.2275" x="2648.7" y="287.3869"/><ellipse cx="2924.5711" cy="307.5197" fill="#ADD1B2" rx="11" ry="11" style="stroke:#181818;stroke-width:1;"/><path d="M2927.5398,313.1603 Q2926.9617,313.4572 2926.3211,313.5978 Q2925.6805,313.7541 2924.9773,313.7541 Q2922.4773,313.7541 2921.1492,312.1134 Q2919.8367,310.4572 2919.8367,307.3322 Q2919.8367,304.2072 2921.1492,302.5509 Q2922.4773,300.8947 2924.9773,300.8947 Q2925.6805,300.8947 2926.3211,301.0509 Q2926.9773,301.2072 2927.5398,301.5041 L2927.5398,304.2228 Q2926.9148,303.6447 2926.3211,303.3791 Q2925.7273,303.0978 2925.1023,303.0978 Q2923.7586,303.0978 2923.0711,304.1759 Q2922.3836,305.2384 2922.3836,307.3322 Q2922.3836,309.4259 2923.0711,310.5041 Q2923.7586,311.5666 2925.1023,311.5666 Q2925.7273,311.5666 2926.3211,311.3009 Q2926.9148,311.0197 2927.5398,310.4416 L2927.5398,313.1603 Z " fill="#000000"/><text fill="#000000" font-family="sans-serif" font-size="12" font-style="italic" lengthAdjust="spacing" textLength="61.0605" x="2979.5335" y="303.5255">&#171;process&#187;</text><text fill="#000000" font-family="sans-serif" font-size="14" lengthAdjust="spacing" textLength="129.9854" x="2945.0711" y="319.3507">MOA_C516_proc_2</text><line style="stroke:#181818;stroke-width:0.5;" x1="2649.7" x2="3337.9275" y1="327.6525" y2="327.6525"/><text fill="#000000" font-family="sans-serif" font-size="14" lengthAdjust="spacing" textLength="223.2822" x="2654.7" y="344.6476">Messstellenbetriebsabrechnung</text><text fill="#000000" font-family="sans-serif" font-size="14" lengthAdjust="spacing" textLength="105.0957" x="2654.7" y="360.9445">Gesetze: MsbG</text><text fill="#000000" font-family="sans-serif" font-size="14" lengthAdjust="spacing" textLength="678.2275" x="2654.7" y="377.2414">Zusammenfassung: Beschreibe den Prozess der Abrechnung von Messstellenbetriebsleistungen.</text><line style="stroke:#181818;stroke-width:0.5;" x1="2649.7" x2="3337.9275" y1="384.5431" y2="384.5431"/></g><!--class MOA_C516_proc_3--><g class="entity" data-entity="MOA_C516_proc_3" data-source-line="49" data-uid="ent0013" id="entity_MOA_C516_proc_3"><rect fill="#F1F1F1" height="105.1563" rx="2.5" ry="2.5" style="stroke:#181818;stroke-width:0.5;" width="1301.9961" x="3373.81" y="287.3869"/><ellipse cx="3955.5654" cy="307.5197" fill="#ADD1B2" rx="11" ry="11" style="stroke:#181818;stroke-width:1;"/><path d="M3958.5341,313.1603 Q3957.956,313.4572 3957.3154,313.5978 Q3956.6747,313.7541 3955.9716,313.7541 Q3953.4716,313.7541 3952.1435,312.1134 Q3950.831,310.4572 3950.831,307.3322 Q3950.831,304.2072 3952.1435,302.5509 Q3953.4716,300.8947 3955.9716,300.8947 Q3956.6747,300.8947 3957.3154,301.0509 Q3957.9716,301.2072 3958.5341,301.5041 L3958.5341,304.2228 Q3957.9091,303.6447 3957.3154,303.3791 Q3956.7216,303.0978 3956.0966,303.0978 Q3954.7529,303.0978 3954.0654,304.1759 Q3953.3779,305.2384 3953.3779,307.3322 Q3953.3779,309.4259 3954.0654,310.5041 Q3954.7529,311.5666 3956.0966,311.5666 Q3956.7216,311.5666 3957.3154,311.3009 Q3957.9091,311.0197 3958.5341,310.4416 L3958.5341,313.1603 Z " fill="#000000"/><text fill="#000000" font-family="sans-serif" font-size="12" font-style="italic" lengthAdjust="spacing" textLength="61.0605" x="4010.5278" y="303.5255">&#171;process&#187;</text><text fill="#000000" font-family="sans-serif" font-size="14" lengthAdjust="spacing" textLength="129.9854" x="3976.0654" y="319.3507">MOA_C516_proc_3</text><line style="stroke:#181818;stroke-width:0.5;" x1="3374.81" x2="4674.8061" y1="327.6525" y2="327.6525"/><text fill="#000000" font-family="sans-serif" font-size="14" lengthAdjust="spacing" textLength="156.4063" x="3379.81" y="344.6476">Gesetze: MsbG, EnWG</text><text fill="#000000" font-family="sans-serif" font-size="14" lengthAdjust="spacing" textLength="1289.9961" x="3379.81" y="360.9445">Zusammenfassung: Erl&#228;utere den Prozess zur Bestellung einer spezifischen technischen Konfiguration bei einem Messstellenbetreiber, beispielsweise f&#252;r ein intelligentes Messsystem.</text><line style="stroke:#181818;stroke-width:0.5;" x1="3374.81" x2="4674.8061" y1="368.2463" y2="368.2463"/><text fill="#000000" font-family="sans-serif" font-size="14" lengthAdjust="spacing" textLength="348.2021" x="3379.81" y="385.2414">Bestellung einer technischen Konfiguration (MSB)</text></g><!--class MOA_C516_proc_4--><g class="entity" data-entity="MOA_C516_proc_4" data-source-line="55" data-uid="ent0015" id="entity_MOA_C516_proc_4"><rect fill="#F1F1F1" height="105.1563" rx="2.5" ry="2.5" style="stroke:#181818;stroke-width:0.5;" width="853.9893" x="4710.82" y="287.3869"/><ellipse cx="5068.572" cy="307.5197" fill="#ADD1B2" rx="11" ry="11" style="stroke:#181818;stroke-width:1;"/><path d="M5071.5407,313.1603 Q5070.9626,313.4572 5070.322,313.5978 Q5069.6813,313.7541 5068.9782,313.7541 Q5066.4782,313.7541 5065.1501,312.1134 Q5063.8376,310.4572 5063.8376,307.3322 Q5063.8376,304.2072 5065.1501,302.5509 Q5066.4782,300.8947 5068.9782,300.8947 Q5069.6813,300.8947 5070.322,301.0509 Q5070.9782,301.2072 5071.5407,301.5041 L5071.5407,304.2228 Q5070.9157,303.6447 5070.322,303.3791 Q5069.7282,303.0978 5069.1032,303.0978 Q5067.7595,303.0978 5067.072,304.1759 Q5066.3845,305.2384 5066.3845,307.3322 Q5066.3845,309.4259 5067.072,310.5041 Q5067.7595,311.5666 5069.1032,311.5666 Q5069.7282,311.5666 5070.322,311.3009 Q5070.9157,311.0197 5071.5407,310.4416 L5071.5407,313.1603 Z " fill="#000000"/><text fill="#000000" font-family="sans-serif" font-size="12" font-style="italic" lengthAdjust="spacing" textLength="61.0605" x="5123.5344" y="303.5255">&#171;process&#187;</text><text fill="#000000" font-family="sans-serif" font-size="14" lengthAdjust="spacing" textLength="129.9854" x="5089.072" y="319.3507">MOA_C516_proc_4</text><line style="stroke:#181818;stroke-width:0.5;" x1="4711.82" x2="5563.8093" y1="327.6525" y2="327.6525"/><text fill="#000000" font-family="sans-serif" font-size="14" lengthAdjust="spacing" textLength="317.9668" x="4716.82" y="344.6476">Sperrung und Entsperrung eines Anschlusses</text><text fill="#000000" font-family="sans-serif" font-size="14" lengthAdjust="spacing" textLength="138.3252" x="4716.82" y="360.9445">Gesetze: StromGVV</text><text fill="#000000" font-family="sans-serif" font-size="14" lengthAdjust="spacing" textLength="841.9893" x="4716.82" y="377.2414">Zusammenfassung: Beschreibe den End-to-End-Prozess f&#252;r die Sperrung und Wiederherstellung eines Netzanschlusses.</text><line style="stroke:#181818;stroke-width:0.5;" x1="4711.82" x2="5563.8093" y1="384.5431" y2="384.5431"/></g><!--link MOA_C516 to MOA_C516_msg_1--><g class="link" data-entity-1="MOA_C516" data-entity-2="MOA_C516_msg_1" data-source-line="18" data-uid="lnk4" id="link_MOA_C516_MOA_C516_msg_1"><path codeLine="18" d="M2050.29,123.5669 C1733.09,135.0969 1071.4,169.5969 520.81,267.0769 C514.92,268.1169 514.8669,268.0672 508.8769,269.2472" fill="none" id="MOA_C516-to-MOA_C516_msg_1" style="stroke:#181818;stroke-width:1;"/><polygon fill="#181818" points="502.99,270.4069,512.5934,272.5919,507.8957,269.4405,511.0472,264.7428,502.99,270.4069" style="stroke:#181818;stroke-width:1;"/><text fill="#000000" font-family="sans-serif" font-size="13" lengthAdjust="spacing" textLength="85.2363" x="800.81" y="233.1438">verwendet in</text></g><!--link MOA_C516 to MOA_C516_msg_2--><g class="link" data-entity-1="MOA_C516" data-entity-2="MOA_C516_msg_2" data-source-line="27" data-uid="lnk6" id="link_MOA_C516_MOA_C516_msg_2"><path codeLine="27" d="M2050.46,133.5069 C1815.43,154.5969 1400.77,198.0069 1050.81,267.0769 C1045.2,268.1869 1045.3997,268.103 1039.6897,269.313" fill="none" id="MOA_C516-to-MOA_C516_msg_2" style="stroke:#181818;stroke-width:1;"/><polygon fill="#181818" points="1033.82,270.5569,1043.4537,272.6042,1038.7114,269.5203,1041.7953,264.778,1033.82,270.5569" style="stroke:#181818;stroke-width:1;"/><text fill="#000000" font-family="sans-serif" font-size="13" lengthAdjust="spacing" textLength="85.2363" x="1310.81" y="233.1438">verwendet in</text></g><!--link MOA_C516 to MOA_C516_msg_3--><g class="link" data-entity-1="MOA_C516" data-entity-2="MOA_C516_msg_3" data-source-line="36" data-uid="lnk8" id="link_MOA_C516_MOA_C516_msg_3"><path codeLine="36" d="M2050.34,170.5769 C1947.67,199.2669 1824.6587,233.6523 1712.5287,264.9823" fill="none" id="MOA_C516-to-MOA_C516_msg_3" style="stroke:#181818;stroke-width:1;"/><polygon fill="#181818" points="1706.75,266.5969,1716.4944,268.0274,1711.5656,265.2514,1714.3416,260.3225,1706.75,266.5969" style="stroke:#181818;stroke-width:1;"/><text fill="#000000" font-family="sans-serif" font-size="13" lengthAdjust="spacing" textLength="85.2363" x="1867.81" y="233.1438">verwendet in</text></g><!--link MOA_C516 to MOA_C516_proc_1--><g class="link" data-entity-1="MOA_C516" data-entity-2="MOA_C516_proc_1" data-source-line="42" data-uid="lnk10" id="link_MOA_C516_MOA_C516_proc_1"><path codeLine="42" d="M2237.81,190.4769 C2237.81,222.0469 2237.81,252.3469 2237.81,281.1569" fill="none" id="MOA_C516-to-MOA_C516_proc_1" style="stroke:#181818;stroke-width:1;stroke-dasharray:7,7;"/><polygon fill="#181818" points="2237.81,287.1569,2241.81,278.1569,2237.81,282.1569,2233.81,278.1569,2237.81,287.1569" style="stroke:#181818;stroke-width:1;"/><text fill="#000000" font-family="sans-serif" font-size="13" lengthAdjust="spacing" textLength="91.6221" x="2238.81" y="233.1438">eingebettet in</text></g><!--link MOA_C516 to MOA_C516_proc_2--><g class="link" data-entity-1="MOA_C516" data-entity-2="MOA_C516_proc_2" data-source-line="48" data-uid="lnk12" id="link_MOA_C516_MOA_C516_proc_2"><path codeLine="48" d="M2425.17,172.9069 C2544.55,207.7669 2692.5306,250.9849 2810.0506,285.3049" fill="none" id="MOA_C516-to-MOA_C516_proc_2" style="stroke:#181818;stroke-width:1;stroke-dasharray:7,7;"/><polygon fill="#181818" points="2815.81,286.9869,2808.2922,280.6243,2811.0105,285.5852,2806.0496,288.3036,2815.81,286.9869" style="stroke:#181818;stroke-width:1;"/><text fill="#000000" font-family="sans-serif" font-size="13" lengthAdjust="spacing" textLength="91.6221" x="2639.81" y="233.1438">eingebettet in</text></g><!--link MOA_C516 to MOA_C516_proc_3--><g class="link" data-entity-1="MOA_C516" data-entity-2="MOA_C516_proc_3" data-source-line="54" data-uid="lnk14" id="link_MOA_C516_MOA_C516_proc_3"><path codeLine="54" d="M2425.25,141.3469 C2702.77,175.6269 3224.3253,240.0712 3597.5653,286.1812" fill="none" id="MOA_C516-to-MOA_C516_proc_3" style="stroke:#181818;stroke-width:1;stroke-dasharray:7,7;"/><polygon fill="#181818" points="3603.52,286.9169,3595.0783,281.8436,3598.5577,286.3038,3594.0975,289.7832,3603.52,286.9169" style="stroke:#181818;stroke-width:1;"/><text fill="#000000" font-family="sans-serif" font-size="13" lengthAdjust="spacing" textLength="91.6221" x="3186.81" y="233.1438">eingebettet in</text></g><!--link MOA_C516 to MOA_C516_proc_4--><g class="link" data-entity-1="MOA_C516" data-entity-2="MOA_C516_proc_4" data-source-line="60" data-uid="lnk16" id="link_MOA_C516_MOA_C516_proc_4"><path codeLine="60" d="M2425.07,123.1769 C2836.44,135.5469 3849.58,173.6269 4692.81,267.0769 C4741.04,272.4169 4786.0674,278.5003 4835.6274,285.9903" fill="none" id="MOA_C516-to-MOA_C516_proc_4" style="stroke:#181818;stroke-width:1;stroke-dasharray:7,7;"/><polygon fill="#181818" points="4841.56,286.8869,4833.2588,281.5869,4836.6161,286.1397,4832.0633,289.4971,4841.56,286.8869" style="stroke:#181818;stroke-width:1;"/><text fill="#000000" font-family="sans-serif" font-size="13" lengthAdjust="spacing" textLength="91.6221" x="4361.81" y="233.1438">eingebettet in</text></g><!--SRC=[jPJRRjf048RlynHpsKh6mZP4hHLH0Q4eRO4K929nOnayXXNs6kskauQgRzF7w5rUhBEE2GTphDGBvDsTMS_y7_zOCHKXtFeAkQyYNq89EhswswnQrrSJsakzzVGMVbu1TFqONMXZ58nH2NzAH_SYMQAKwD8Qw7eNrPAdQfdogVJ70YSpJiiysA5CgJ2AaEiNC1mNSngOPT018ECeGEauavCPSlYQy91DK-4hbd1urnaqtkVN1WiKGbzAUG0jhkHghryYeSxf1L5AZSghNplIl5XEFIiNE9a9Dfaf5-wwmzvT4sppGq01Agpm1nqFS1eZ9rRFIQgq_Z3I-I4nSU6BJoVD943fWbqrm2dJZvvLvzhGvJPv7I1bd8JqFTMnLODUvwxjwIQzppYBKCmJ8N2kKk7PPRjQjXpBN0GXQNxx8qkbsgvq5nvHF24FK07Z-_3OH_2OctmQoEI2OUGUOxFYGYKCw3Nx1epArd-3un4SJQDIlhO-dgHXdq73sQNHwz_s1_TWcPMpM7J9b6iQbhr1OrIsjq1SEWx69PEmvlKg8EDbUPNpQJadQ2r4CY63tTpe1IcgrLxH7VfAj55IY1eQA974tTRGo5UZ8KL7gVHZ6h-GQb2-2myC8KpvNEjdA1G4TB3_vR1yogdfk3OFiZ7nr9I-CGnH-5nzsXHhchM245TJd29TLuVrsWMzfspx9hiZn-rzGia6P3RTCGGa8VS7hGNKrn8VoGLxIaNaGqLnvEPnVVPv-fo2ld_uQ6z9DiYe3tk5jqJqyZjLABQ5BrDHB4fENx8mhtguWp6ox4AyooepXA7ZsTZA9rgGlrx-29rFD7Gg8uoAvYYx-qotunDGdVEWLWfGBnhaxS5f3uTdkAZ5Wv9AIlgnufg9rKEqLPp6Z9msGx45N6QJvA_RE06YKW3n5m00]--></g></svg>