<svg xmlns="http://www.w3.org/2000/svg" xmlns:xlink="http://www.w3.org/1999/xlink" contentStyleType="text/css" data-diagram-type="CLASS" height="387px" preserveAspectRatio="none" style="width:2552px;height:387px;background:#FFFFFF;" version="1.1" viewBox="0 0 2552 387" width="2552px" zoomAndPan="magnify"><title>Datenatlas - MOA:2270</title><defs/><g><g class="title" data-source-line="1"><text fill="#000000" font-family="sans-serif" font-size="14" font-weight="bold" lengthAdjust="spacing" textLength="182.7314" x="1178.098" y="22.9951">Datenatlas - MOA:2270</text></g><!--class MOA_2270--><g class="entity" data-entity="MOA_2270" data-source-line="2" data-uid="ent0002" id="entity_MOA_2270"><rect fill="#F1F1F1" height="113.1875" rx="2.5" ry="2.5" style="stroke:#181818;stroke-width:0.5;" width="303.4229" x="963.1" y="44.2969"/><ellipse cx="1072.9091" cy="60.2969" fill="#ADD1B2" rx="11" ry="11" style="stroke:#181818;stroke-width:1;"/><path d="M1075.8778,65.9375 Q1075.2997,66.2344 1074.6591,66.375 Q1074.0185,66.5313 1073.3153,66.5313 Q1070.8153,66.5313 1069.4872,64.8906 Q1068.1747,63.2344 1068.1747,60.1094 Q1068.1747,56.9844 1069.4872,55.3281 Q1070.8153,53.6719 1073.3153,53.6719 Q1074.0185,53.6719 1074.6591,53.8281 Q1075.3153,53.9844 1075.8778,54.2813 L1075.8778,57 Q1075.2528,56.4219 1074.6591,56.1563 Q1074.0653,55.875 1073.4403,55.875 Q1072.0966,55.875 1071.4091,56.9531 Q1070.7216,58.0156 1070.7216,60.1094 Q1070.7216,62.2031 1071.4091,63.2813 Q1072.0966,64.3438 1073.4403,64.3438 Q1074.0653,64.3438 1074.6591,64.0781 Q1075.2528,63.7969 1075.8778,63.2188 L1075.8778,65.9375 Z " fill="#000000"/><text fill="#000000" font-family="sans-serif" font-size="14" lengthAdjust="spacing" textLength="75.3047" x="1093.4091" y="65.1436">MOA_2270</text><line style="stroke:#181818;stroke-width:0.5;" x1="964.1" x2="1265.5229" y1="76.2969" y2="76.2969"/><text fill="#000000" font-family="sans-serif" font-size="14" lengthAdjust="spacing" textLength="66.6436" x="983.1" y="93.292">Prozesse:</text><rect fill="none" height="6" style="stroke:#C82930;stroke-width:1;" width="6" x="971.1" y="103.2422"/><text fill="#000000" font-family="sans-serif" font-size="14" lengthAdjust="spacing" textLength="180.3457" x="983.1" y="109.5889">Netznutzungsabrechnung</text><rect fill="none" height="6" style="stroke:#C82930;stroke-width:1;" width="6" x="971.1" y="119.5391"/><text fill="#000000" font-family="sans-serif" font-size="14" lengthAdjust="spacing" textLength="223.2822" x="983.1" y="125.8857">Messstellenbetriebsabrechnung</text><line style="stroke:#181818;stroke-width:0.5;" x1="964.1" x2="1265.5229" y1="133.1875" y2="133.1875"/><text fill="#000000" font-family="sans-serif" font-size="14" lengthAdjust="spacing" textLength="291.4229" x="969.1" y="150.1826">Name: Steuerbetrag (steuersatzbezogen)</text></g><!--class MOA_2270_msg_1--><g class="entity" data-entity="MOA_2270_msg_1" data-source-line="8" data-uid="ent0003" id="entity_MOA_2270_msg_1"><rect fill="#F1F1F1" height="145.7813" rx="2.5" ry="2.5" style="stroke:#181818;stroke-width:0.5;" width="495.6221" x="7" y="234.4869"/><ellipse cx="186.5459" cy="250.4869" fill="#ADD1B2" rx="11" ry="11" style="stroke:#181818;stroke-width:1;"/><path d="M189.5146,256.1275 Q188.9365,256.4244 188.2959,256.565 Q187.6553,256.7213 186.9521,256.7213 Q184.4521,256.7213 183.124,255.0806 Q181.8115,253.4244 181.8115,250.2994 Q181.8115,247.1744 183.124,245.5181 Q184.4521,243.8619 186.9521,243.8619 Q187.6553,243.8619 188.2959,244.0181 Q188.9521,244.1744 189.5146,244.4713 L189.5146,247.19 Q188.8896,246.6119 188.2959,246.3463 Q187.7021,246.065 187.0771,246.065 Q185.7334,246.065 185.0459,247.1431 Q184.3584,248.2056 184.3584,250.2994 Q184.3584,252.3931 185.0459,253.4713 Q185.7334,254.5338 187.0771,254.5338 Q187.7021,254.5338 188.2959,254.2681 Q188.8896,253.9869 189.5146,253.4088 L189.5146,256.1275 Z " fill="#000000"/><text fill="#000000" font-family="sans-serif" font-size="14" lengthAdjust="spacing" textLength="128.0303" x="207.0459" y="255.3336">MOA_2270_msg_1</text><line style="stroke:#181818;stroke-width:0.5;" x1="8" x2="501.6221" y1="266.4869" y2="266.4869"/><text fill="#000000" font-family="sans-serif" font-size="14" lengthAdjust="spacing" textLength="161.1982" x="13" y="283.482">Nachricht: INVOIC 2.8d</text><text fill="#000000" font-family="sans-serif" font-size="14" lengthAdjust="spacing" textLength="204.1143" x="13" y="299.7789">Kontext: Nachrichtenstruktur</text><text fill="#000000" font-family="sans-serif" font-size="14" lengthAdjust="spacing" textLength="110.5439" x="13" y="316.0757">Pflichtfeld: Nein</text><text fill="#000000" font-family="sans-serif" font-size="14" lengthAdjust="spacing" textLength="84.9775" x="13" y="332.3726">Codes: MOA</text><text fill="#000000" font-family="sans-serif" font-size="14" lengthAdjust="spacing" textLength="483.6221" x="13" y="348.6695">Prozesse: Netznutzungsabrechnung, Messstellenbetriebsabrechnung</text><text fill="#000000" font-family="sans-serif" font-size="14" lengthAdjust="spacing" textLength="396.6074" x="13" y="364.9664">Quelle: INVOIC_MIG_2.8d_Fehlerkorrektur_20250131.pdf</text><line style="stroke:#181818;stroke-width:0.5;" x1="8" x2="501.6221" y1="372.2681" y2="372.2681"/></g><!--class MOA_2270_msg_2--><g class="entity" data-entity="MOA_2270_msg_2" data-source-line="17" data-uid="ent0005" id="entity_MOA_2270_msg_2"><rect fill="#F1F1F1" height="145.7813" rx="2.5" ry="2.5" style="stroke:#181818;stroke-width:0.5;" width="495.6221" x="538" y="234.4869"/><ellipse cx="717.5459" cy="250.4869" fill="#ADD1B2" rx="11" ry="11" style="stroke:#181818;stroke-width:1;"/><path d="M720.5146,256.1275 Q719.9365,256.4244 719.2959,256.565 Q718.6553,256.7213 717.9521,256.7213 Q715.4521,256.7213 714.124,255.0806 Q712.8115,253.4244 712.8115,250.2994 Q712.8115,247.1744 714.124,245.5181 Q715.4521,243.8619 717.9521,243.8619 Q718.6553,243.8619 719.2959,244.0181 Q719.9521,244.1744 720.5146,244.4713 L720.5146,247.19 Q719.8896,246.6119 719.2959,246.3463 Q718.7021,246.065 718.0771,246.065 Q716.7334,246.065 716.0459,247.1431 Q715.3584,248.2056 715.3584,250.2994 Q715.3584,252.3931 716.0459,253.4713 Q716.7334,254.5338 718.0771,254.5338 Q718.7021,254.5338 719.2959,254.2681 Q719.8896,253.9869 720.5146,253.4088 L720.5146,256.1275 Z " fill="#000000"/><text fill="#000000" font-family="sans-serif" font-size="14" lengthAdjust="spacing" textLength="128.0303" x="738.0459" y="255.3336">MOA_2270_msg_2</text><line style="stroke:#181818;stroke-width:0.5;" x1="539" x2="1032.6221" y1="266.4869" y2="266.4869"/><text fill="#000000" font-family="sans-serif" font-size="14" lengthAdjust="spacing" textLength="165.6484" x="544" y="283.482">Nachricht: INVOIC 2.8d.</text><text fill="#000000" font-family="sans-serif" font-size="14" lengthAdjust="spacing" textLength="204.1143" x="544" y="299.7789">Kontext: Nachrichtenstruktur</text><text fill="#000000" font-family="sans-serif" font-size="14" lengthAdjust="spacing" textLength="110.5439" x="544" y="316.0757">Pflichtfeld: Nein</text><text fill="#000000" font-family="sans-serif" font-size="14" lengthAdjust="spacing" textLength="84.9775" x="544" y="332.3726">Codes: MOA</text><text fill="#000000" font-family="sans-serif" font-size="14" lengthAdjust="spacing" textLength="483.6221" x="544" y="348.6695">Prozesse: Netznutzungsabrechnung, Messstellenbetriebsabrechnung</text><text fill="#000000" font-family="sans-serif" font-size="14" lengthAdjust="spacing" textLength="290.3359" x="544" y="364.9664">Quelle: INVOIC_MIG_2_8d__20240619.pdf</text><line style="stroke:#181818;stroke-width:0.5;" x1="539" x2="1032.6221" y1="372.2681" y2="372.2681"/></g><!--class MOA_2270_proc_1--><g class="entity" data-entity="MOA_2270_proc_1" data-source-line="26" data-uid="ent0007" id="entity_MOA_2270_proc_1"><rect fill="#F1F1F1" height="105.1563" rx="2.5" ry="2.5" style="stroke:#181818;stroke-width:0.5;" width="752.6465" x="1068.49" y="254.7969"/><ellipse cx="1376.0046" cy="274.9297" fill="#ADD1B2" rx="11" ry="11" style="stroke:#181818;stroke-width:1;"/><path d="M1378.9734,280.5703 Q1378.3953,280.8672 1377.7546,281.0078 Q1377.114,281.1641 1376.4109,281.1641 Q1373.9109,281.1641 1372.5828,279.5234 Q1371.2703,277.8672 1371.2703,274.7422 Q1371.2703,271.6172 1372.5828,269.9609 Q1373.9109,268.3047 1376.4109,268.3047 Q1377.114,268.3047 1377.7546,268.4609 Q1378.4109,268.6172 1378.9734,268.9141 L1378.9734,271.6328 Q1378.3484,271.0547 1377.7546,270.7891 Q1377.1609,270.5078 1376.5359,270.5078 Q1375.1921,270.5078 1374.5046,271.5859 Q1373.8171,272.6484 1373.8171,274.7422 Q1373.8171,276.8359 1374.5046,277.9141 Q1375.1921,278.9766 1376.5359,278.9766 Q1377.1609,278.9766 1377.7546,278.7109 Q1378.3484,278.4297 1378.9734,277.8516 L1378.9734,280.5703 Z " fill="#000000"/><text fill="#000000" font-family="sans-serif" font-size="12" font-style="italic" lengthAdjust="spacing" textLength="61.0605" x="1430.533" y="270.9355">&#171;process&#187;</text><text fill="#000000" font-family="sans-serif" font-size="14" lengthAdjust="spacing" textLength="129.1172" x="1396.5046" y="286.7607">MOA_2270_proc_1</text><line style="stroke:#181818;stroke-width:0.5;" x1="1069.49" x2="1820.1365" y1="295.0625" y2="295.0625"/><text fill="#000000" font-family="sans-serif" font-size="14" lengthAdjust="spacing" textLength="180.3457" x="1074.49" y="312.0576">Netznutzungsabrechnung</text><text fill="#000000" font-family="sans-serif" font-size="14" lengthAdjust="spacing" textLength="218.0938" x="1074.49" y="328.3545">Gesetze: StromNEV, StromNZV</text><text fill="#000000" font-family="sans-serif" font-size="14" lengthAdjust="spacing" textLength="740.6465" x="1074.49" y="344.6514">Zusammenfassung: Wie funktioniert die Netznutzungsabrechnung zwischen Netzbetreiber und Lieferant?</text><line style="stroke:#181818;stroke-width:0.5;" x1="1069.49" x2="1820.1365" y1="351.9531" y2="351.9531"/></g><!--class MOA_2270_proc_2--><g class="entity" data-entity="MOA_2270_proc_2" data-source-line="32" data-uid="ent0009" id="entity_MOA_2270_proc_2"><rect fill="#F1F1F1" height="105.1563" rx="2.5" ry="2.5" style="stroke:#181818;stroke-width:0.5;" width="690.2275" x="1855.7" y="254.7969"/><ellipse cx="2132.0052" cy="274.9297" fill="#ADD1B2" rx="11" ry="11" style="stroke:#181818;stroke-width:1;"/><path d="M2134.9739,280.5703 Q2134.3958,280.8672 2133.7552,281.0078 Q2133.1146,281.1641 2132.4114,281.1641 Q2129.9114,281.1641 2128.5833,279.5234 Q2127.2708,277.8672 2127.2708,274.7422 Q2127.2708,271.6172 2128.5833,269.9609 Q2129.9114,268.3047 2132.4114,268.3047 Q2133.1146,268.3047 2133.7552,268.4609 Q2134.4114,268.6172 2134.9739,268.9141 L2134.9739,271.6328 Q2134.3489,271.0547 2133.7552,270.7891 Q2133.1614,270.5078 2132.5364,270.5078 Q2131.1927,270.5078 2130.5052,271.5859 Q2129.8177,272.6484 2129.8177,274.7422 Q2129.8177,276.8359 2130.5052,277.9141 Q2131.1927,278.9766 2132.5364,278.9766 Q2133.1614,278.9766 2133.7552,278.7109 Q2134.3489,278.4297 2134.9739,277.8516 L2134.9739,280.5703 Z " fill="#000000"/><text fill="#000000" font-family="sans-serif" font-size="12" font-style="italic" lengthAdjust="spacing" textLength="61.0605" x="2186.5335" y="270.9355">&#171;process&#187;</text><text fill="#000000" font-family="sans-serif" font-size="14" lengthAdjust="spacing" textLength="129.1172" x="2152.5052" y="286.7607">MOA_2270_proc_2</text><line style="stroke:#181818;stroke-width:0.5;" x1="1856.7" x2="2544.9275" y1="295.0625" y2="295.0625"/><text fill="#000000" font-family="sans-serif" font-size="14" lengthAdjust="spacing" textLength="223.2822" x="1861.7" y="312.0576">Messstellenbetriebsabrechnung</text><text fill="#000000" font-family="sans-serif" font-size="14" lengthAdjust="spacing" textLength="105.0957" x="1861.7" y="328.3545">Gesetze: MsbG</text><text fill="#000000" font-family="sans-serif" font-size="14" lengthAdjust="spacing" textLength="678.2275" x="1861.7" y="344.6514">Zusammenfassung: Beschreibe den Prozess der Abrechnung von Messstellenbetriebsleistungen.</text><line style="stroke:#181818;stroke-width:0.5;" x1="1856.7" x2="2544.9275" y1="351.9531" y2="351.9531"/></g><!--link MOA_2270 to MOA_2270_msg_1--><g class="link" data-entity-1="MOA_2270" data-entity-2="MOA_2270_msg_1" data-source-line="16" data-uid="lnk4" id="link_MOA_2270_MOA_2270_msg_1"><path codeLine="16" d="M962.7,133.9069 C842.44,159.6769 670.46,197.5769 520.81,234.4869 C514.89,235.9469 514.7186,235.9726 508.6786,237.4926" fill="none" id="MOA_2270-to-MOA_2270_msg_1" style="stroke:#181818;stroke-width:1;"/><polygon fill="#181818" points="502.86,238.9569,512.5641,240.6395,507.7088,237.7366,510.6117,232.8814,502.86,238.9569" style="stroke:#181818;stroke-width:1;"/><text fill="#000000" font-family="sans-serif" font-size="13" lengthAdjust="spacing" textLength="85.2363" x="717.81" y="200.5538">verwendet in</text></g><!--link MOA_2270 to MOA_2270_msg_2--><g class="link" data-entity-1="MOA_2270" data-entity-2="MOA_2270_msg_2" data-source-line="25" data-uid="lnk6" id="link_MOA_2270_MOA_2270_msg_2"><path codeLine="25" d="M1024.91,157.7669 C987.05,181.2969 947.5959,205.8196 907.2759,230.8796" fill="none" id="MOA_2270-to-MOA_2270_msg_2" style="stroke:#181818;stroke-width:1;"/><polygon fill="#181818" points="902.18,234.0469,911.9354,232.6933,906.4266,231.4075,907.7124,225.8987,902.18,234.0469" style="stroke:#181818;stroke-width:1;"/><text fill="#000000" font-family="sans-serif" font-size="13" lengthAdjust="spacing" textLength="85.2363" x="971.81" y="200.5538">verwendet in</text></g><!--link MOA_2270 to MOA_2270_proc_1--><g class="link" data-entity-1="MOA_2270" data-entity-2="MOA_2270_proc_1" data-source-line="31" data-uid="lnk8" id="link_MOA_2270_MOA_2270_proc_1"><path codeLine="31" d="M1204.98,157.7669 C1253.65,187.9169 1308.2295,221.747 1355.8795,251.267" fill="none" id="MOA_2270-to-MOA_2270_proc_1" style="stroke:#181818;stroke-width:1;stroke-dasharray:7,7;"/><polygon fill="#181818" points="1360.98,254.4269,1355.4358,246.2867,1356.7296,251.7937,1351.2226,253.0874,1360.98,254.4269" style="stroke:#181818;stroke-width:1;"/><text fill="#000000" font-family="sans-serif" font-size="13" lengthAdjust="spacing" textLength="91.6221" x="1280.81" y="200.5538">eingebettet in</text></g><!--link MOA_2270 to MOA_2270_proc_2--><g class="link" data-entity-1="MOA_2270" data-entity-2="MOA_2270_proc_2" data-source-line="37" data-uid="lnk10" id="link_MOA_2270_MOA_2270_proc_2"><path codeLine="37" d="M1266.78,129.0469 C1413.36,155.3969 1641.43,196.8169 1838.81,234.4869 C1872.01,240.8269 1901.0125,246.4406 1935.4825,253.2106" fill="none" id="MOA_2270-to-MOA_2270_proc_2" style="stroke:#181818;stroke-width:1;stroke-dasharray:7,7;"/><polygon fill="#181818" points="1941.37,254.3669,1933.3096,248.7074,1936.4637,253.4033,1931.7678,256.5574,1941.37,254.3669" style="stroke:#181818;stroke-width:1;"/><text fill="#000000" font-family="sans-serif" font-size="13" lengthAdjust="spacing" textLength="91.6221" x="1661.81" y="200.5538">eingebettet in</text></g><!--SRC=[pL9TRzim37plh-3Z1ZH6udqRHOgssu9WIxgXG0hqnP3jiot4bWk9QWSF- - -ZiYmBcgHvtHl9eyYxerXp0_ge64PnenmDQ7PzaSJnk-59BhaBQHfI-db2D5Sj4hfXUDWCR5L5BzmgSuhx37rNmRoKnc-sw-4S4eb9Xix1lV7SUrCvbLdajP5m3SwaKwOq3KmOgf5jz_nwGYHjNPMErdJoskgyveIcyyNrz8hYw7qXm9VEC7v8UTC1uzZw9NiRs9LDg9Le2cc1DbAxwWgu96pPfd-0-EaHpaJVVS3-yafdqqaQkAMVKJUmoyvQ139fF8pV34UlHj5zKOhKZTk3mVYfueGUO1zX2Z09vJsknC-u4lstjgHYI_3XzV3jwCDH7-8ZFjpRBXUppiv286p6up-c7Fg04pY1Lh_QTktyq-9q7Tqj1BtpJhKjJ2axf3-XMmqglLcoxeo6PIgai7yuzO_QvJNC2WzsG6Umv4r1NpLAM6NuV5ji58rtX2GaXwWWp_cmtdX7xx53R6JFN3RP9_GImdt5c0gHi3wzn9Ok_abywCo-LGsqOy5XekVrnJlwVWC0]--></g></svg>