<svg xmlns="http://www.w3.org/2000/svg" xmlns:xlink="http://www.w3.org/1999/xlink" contentStyleType="text/css" data-diagram-type="CLASS" height="387px" preserveAspectRatio="none" style="width:2021px;height:387px;background:#FFFFFF;" version="1.1" viewBox="0 0 2021 387" width="2021px" zoomAndPan="magnify"><title>Datenatlas - MOA:00061</title><defs/><g><g class="title" data-source-line="1"><text fill="#000000" font-family="sans-serif" font-size="14" font-weight="bold" lengthAdjust="spacing" textLength="192.4727" x="907.7274" y="22.9951">Datenatlas - MOA:00061</text></g><!--class MOA_00061--><g class="entity" data-entity="MOA_00061" data-source-line="2" data-uid="ent0002" id="entity_MOA_00061"><rect fill="#F1F1F1" height="113.1875" rx="2.5" ry="2.5" style="stroke:#181818;stroke-width:0.5;" width="379.0078" x="724.31" y="44.2969"/><ellipse cx="867.4579" cy="60.2969" fill="#ADD1B2" rx="11" ry="11" style="stroke:#181818;stroke-width:1;"/><path d="M870.4267,65.9375 Q869.8486,66.2344 869.2079,66.375 Q868.5673,66.5313 867.8642,66.5313 Q865.3642,66.5313 864.0361,64.8906 Q862.7236,63.2344 862.7236,60.1094 Q862.7236,56.9844 864.0361,55.3281 Q865.3642,53.6719 867.8642,53.6719 Q868.5673,53.6719 869.2079,53.8281 Q869.8642,53.9844 870.4267,54.2813 L870.4267,57 Q869.8017,56.4219 869.2079,56.1563 Q868.6142,55.875 867.9892,55.875 Q866.6454,55.875 865.9579,56.9531 Q865.2704,58.0156 865.2704,60.1094 Q865.2704,62.2031 865.9579,63.2813 Q866.6454,64.3438 867.9892,64.3438 Q868.6142,64.3438 869.2079,64.0781 Q869.8017,63.7969 870.4267,63.2188 L870.4267,65.9375 Z " fill="#000000"/><text fill="#000000" font-family="sans-serif" font-size="14" lengthAdjust="spacing" textLength="84.2119" x="887.9579" y="65.1436">MOA_00061</text><line style="stroke:#181818;stroke-width:0.5;" x1="725.31" x2="1102.3178" y1="76.2969" y2="76.2969"/><text fill="#000000" font-family="sans-serif" font-size="14" lengthAdjust="spacing" textLength="66.6436" x="744.31" y="93.292">Prozesse:</text><rect fill="none" height="6" style="stroke:#C82930;stroke-width:1;" width="6" x="732.31" y="103.2422"/><text fill="#000000" font-family="sans-serif" font-size="14" lengthAdjust="spacing" textLength="180.3457" x="744.31" y="109.5889">Netznutzungsabrechnung</text><rect fill="none" height="6" style="stroke:#C82930;stroke-width:1;" width="6" x="732.31" y="119.5391"/><text fill="#000000" font-family="sans-serif" font-size="14" lengthAdjust="spacing" textLength="223.2822" x="744.31" y="125.8857">Messstellenbetriebsabrechnung</text><line style="stroke:#181818;stroke-width:0.5;" x1="725.31" x2="1102.3178" y1="133.1875" y2="133.1875"/><text fill="#000000" font-family="sans-serif" font-size="14" lengthAdjust="spacing" textLength="367.0078" x="730.31" y="150.1826">Name: Besteuerungsgrundlage (steuersatzbezogen)</text></g><!--class MOA_00061_msg_1--><g class="entity" data-entity="MOA_00061_msg_1" data-source-line="8" data-uid="ent0003" id="entity_MOA_00061_msg_1"><rect fill="#F1F1F1" height="145.7813" rx="2.5" ry="2.5" style="stroke:#181818;stroke-width:0.5;" width="495.6221" x="7" y="234.4869"/><ellipse cx="182.0923" cy="250.4869" fill="#ADD1B2" rx="11" ry="11" style="stroke:#181818;stroke-width:1;"/><path d="M185.061,256.1275 Q184.4829,256.4244 183.8423,256.565 Q183.2017,256.7213 182.4985,256.7213 Q179.9985,256.7213 178.6704,255.0806 Q177.3579,253.4244 177.3579,250.2994 Q177.3579,247.1744 178.6704,245.5181 Q179.9985,243.8619 182.4985,243.8619 Q183.2017,243.8619 183.8423,244.0181 Q184.4985,244.1744 185.061,244.4713 L185.061,247.19 Q184.436,246.6119 183.8423,246.3463 Q183.2485,246.065 182.6235,246.065 Q181.2798,246.065 180.5923,247.1431 Q179.9048,248.2056 179.9048,250.2994 Q179.9048,252.3931 180.5923,253.4713 Q181.2798,254.5338 182.6235,254.5338 Q183.2485,254.5338 183.8423,254.2681 Q184.436,253.9869 185.061,253.4088 L185.061,256.1275 Z " fill="#000000"/><text fill="#000000" font-family="sans-serif" font-size="14" lengthAdjust="spacing" textLength="136.9375" x="202.5923" y="255.3336">MOA_00061_msg_1</text><line style="stroke:#181818;stroke-width:0.5;" x1="8" x2="501.6221" y1="266.4869" y2="266.4869"/><text fill="#000000" font-family="sans-serif" font-size="14" lengthAdjust="spacing" textLength="161.1982" x="13" y="283.482">Nachricht: INVOIC 2.8d</text><text fill="#000000" font-family="sans-serif" font-size="14" lengthAdjust="spacing" textLength="204.1143" x="13" y="299.7789">Kontext: Nachrichtenstruktur</text><text fill="#000000" font-family="sans-serif" font-size="14" lengthAdjust="spacing" textLength="110.5439" x="13" y="316.0757">Pflichtfeld: Nein</text><text fill="#000000" font-family="sans-serif" font-size="14" lengthAdjust="spacing" textLength="84.9775" x="13" y="332.3726">Codes: MOA</text><text fill="#000000" font-family="sans-serif" font-size="14" lengthAdjust="spacing" textLength="483.6221" x="13" y="348.6695">Prozesse: Netznutzungsabrechnung, Messstellenbetriebsabrechnung</text><text fill="#000000" font-family="sans-serif" font-size="14" lengthAdjust="spacing" textLength="396.6074" x="13" y="364.9664">Quelle: INVOIC_MIG_2.8d_Fehlerkorrektur_20250131.pdf</text><line style="stroke:#181818;stroke-width:0.5;" x1="8" x2="501.6221" y1="372.2681" y2="372.2681"/></g><!--class MOA_00061_proc_1--><g class="entity" data-entity="MOA_00061_proc_1" data-source-line="17" data-uid="ent0005" id="entity_MOA_00061_proc_1"><rect fill="#F1F1F1" height="105.1563" rx="2.5" ry="2.5" style="stroke:#181818;stroke-width:0.5;" width="752.6465" x="537.49" y="254.7969"/><ellipse cx="840.551" cy="274.9297" fill="#ADD1B2" rx="11" ry="11" style="stroke:#181818;stroke-width:1;"/><path d="M843.5198,280.5703 Q842.9417,280.8672 842.301,281.0078 Q841.6604,281.1641 840.9573,281.1641 Q838.4573,281.1641 837.1292,279.5234 Q835.8167,277.8672 835.8167,274.7422 Q835.8167,271.6172 837.1292,269.9609 Q838.4573,268.3047 840.9573,268.3047 Q841.6604,268.3047 842.301,268.4609 Q842.9573,268.6172 843.5198,268.9141 L843.5198,271.6328 Q842.8948,271.0547 842.301,270.7891 Q841.7073,270.5078 841.0823,270.5078 Q839.7385,270.5078 839.051,271.5859 Q838.3635,272.6484 838.3635,274.7422 Q838.3635,276.8359 839.051,277.9141 Q839.7385,278.9766 841.0823,278.9766 Q841.7073,278.9766 842.301,278.7109 Q842.8948,278.4297 843.5198,277.8516 L843.5198,280.5703 Z " fill="#000000"/><text fill="#000000" font-family="sans-serif" font-size="12" font-style="italic" lengthAdjust="spacing" textLength="61.0605" x="899.533" y="270.9355">&#171;process&#187;</text><text fill="#000000" font-family="sans-serif" font-size="14" lengthAdjust="spacing" textLength="138.0244" x="861.051" y="286.7607">MOA_00061_proc_1</text><line style="stroke:#181818;stroke-width:0.5;" x1="538.49" x2="1289.1365" y1="295.0625" y2="295.0625"/><text fill="#000000" font-family="sans-serif" font-size="14" lengthAdjust="spacing" textLength="180.3457" x="543.49" y="312.0576">Netznutzungsabrechnung</text><text fill="#000000" font-family="sans-serif" font-size="14" lengthAdjust="spacing" textLength="218.0938" x="543.49" y="328.3545">Gesetze: StromNEV, StromNZV</text><text fill="#000000" font-family="sans-serif" font-size="14" lengthAdjust="spacing" textLength="740.6465" x="543.49" y="344.6514">Zusammenfassung: Wie funktioniert die Netznutzungsabrechnung zwischen Netzbetreiber und Lieferant?</text><line style="stroke:#181818;stroke-width:0.5;" x1="538.49" x2="1289.1365" y1="351.9531" y2="351.9531"/></g><!--class MOA_00061_proc_2--><g class="entity" data-entity="MOA_00061_proc_2" data-source-line="23" data-uid="ent0007" id="entity_MOA_00061_proc_2"><rect fill="#F1F1F1" height="105.1563" rx="2.5" ry="2.5" style="stroke:#181818;stroke-width:0.5;" width="690.2275" x="1324.7" y="254.7969"/><ellipse cx="1596.5516" cy="274.9297" fill="#ADD1B2" rx="11" ry="11" style="stroke:#181818;stroke-width:1;"/><path d="M1599.5203,280.5703 Q1598.9422,280.8672 1598.3016,281.0078 Q1597.6609,281.1641 1596.9578,281.1641 Q1594.4578,281.1641 1593.1297,279.5234 Q1591.8172,277.8672 1591.8172,274.7422 Q1591.8172,271.6172 1593.1297,269.9609 Q1594.4578,268.3047 1596.9578,268.3047 Q1597.6609,268.3047 1598.3016,268.4609 Q1598.9578,268.6172 1599.5203,268.9141 L1599.5203,271.6328 Q1598.8953,271.0547 1598.3016,270.7891 Q1597.7078,270.5078 1597.0828,270.5078 Q1595.7391,270.5078 1595.0516,271.5859 Q1594.3641,272.6484 1594.3641,274.7422 Q1594.3641,276.8359 1595.0516,277.9141 Q1595.7391,278.9766 1597.0828,278.9766 Q1597.7078,278.9766 1598.3016,278.7109 Q1598.8953,278.4297 1599.5203,277.8516 L1599.5203,280.5703 Z " fill="#000000"/><text fill="#000000" font-family="sans-serif" font-size="12" font-style="italic" lengthAdjust="spacing" textLength="61.0605" x="1655.5335" y="270.9355">&#171;process&#187;</text><text fill="#000000" font-family="sans-serif" font-size="14" lengthAdjust="spacing" textLength="138.0244" x="1617.0516" y="286.7607">MOA_00061_proc_2</text><line style="stroke:#181818;stroke-width:0.5;" x1="1325.7" x2="2013.9275" y1="295.0625" y2="295.0625"/><text fill="#000000" font-family="sans-serif" font-size="14" lengthAdjust="spacing" textLength="223.2822" x="1330.7" y="312.0576">Messstellenbetriebsabrechnung</text><text fill="#000000" font-family="sans-serif" font-size="14" lengthAdjust="spacing" textLength="105.0957" x="1330.7" y="328.3545">Gesetze: MsbG</text><text fill="#000000" font-family="sans-serif" font-size="14" lengthAdjust="spacing" textLength="678.2275" x="1330.7" y="344.6514">Zusammenfassung: Beschreibe den Prozess der Abrechnung von Messstellenbetriebsleistungen.</text><line style="stroke:#181818;stroke-width:0.5;" x1="1325.7" x2="2013.9275" y1="351.9531" y2="351.9531"/></g><!--link MOA_00061 to MOA_00061_msg_1--><g class="link" data-entity-1="MOA_00061" data-entity-2="MOA_00061_msg_1" data-source-line="16" data-uid="lnk4" id="link_MOA_00061_MOA_00061_msg_1"><path codeLine="16" d="M733.3,157.9069 C657.56,181.4069 574.2605,207.2589 493.6505,232.2689" fill="none" id="MOA_00061-to-MOA_00061_msg_1" style="stroke:#181818;stroke-width:1;"/><polygon fill="#181818" points="487.92,234.0469,497.7011,235.2003,492.6954,232.5653,495.3305,227.5596,487.92,234.0469" style="stroke:#181818;stroke-width:1;"/><text fill="#000000" font-family="sans-serif" font-size="13" lengthAdjust="spacing" textLength="85.2363" x="624.81" y="200.5538">verwendet in</text></g><!--link MOA_00061 to MOA_00061_proc_1--><g class="link" data-entity-1="MOA_00061" data-entity-2="MOA_00061_proc_1" data-source-line="22" data-uid="lnk6" id="link_MOA_00061_MOA_00061_proc_1"><path codeLine="22" d="M913.81,157.7669 C913.81,187.9169 913.81,218.9069 913.81,248.4269" fill="none" id="MOA_00061-to-MOA_00061_proc_1" style="stroke:#181818;stroke-width:1;stroke-dasharray:7,7;"/><polygon fill="#181818" points="913.81,254.4269,917.81,245.4269,913.81,249.4269,909.81,245.4269,913.81,254.4269" style="stroke:#181818;stroke-width:1;"/><text fill="#000000" font-family="sans-serif" font-size="13" lengthAdjust="spacing" textLength="91.6221" x="914.81" y="200.5538">eingebettet in</text></g><!--link MOA_00061 to MOA_00061_proc_2--><g class="link" data-entity-1="MOA_00061" data-entity-2="MOA_00061_proc_2" data-source-line="28" data-uid="lnk8" id="link_MOA_00061_MOA_00061_proc_2"><path codeLine="28" d="M1103.61,153.2269 C1217.76,184.1069 1356.8782,221.7302 1471.5182,252.7402" fill="none" id="MOA_00061-to-MOA_00061_proc_2" style="stroke:#181818;stroke-width:1;stroke-dasharray:7,7;"/><polygon fill="#181818" points="1477.31,254.3069,1469.6667,248.0956,1472.4835,253.0013,1467.5778,255.8181,1477.31,254.3069" style="stroke:#181818;stroke-width:1;"/><text fill="#000000" font-family="sans-serif" font-size="13" lengthAdjust="spacing" textLength="91.6221" x="1292.81" y="200.5538">eingebettet in</text></g><!--SRC=[XPBTQjj048NlynHpsK8iP9MM8e9BchR6j7PQ2YxaHgoa8sdnQZViZfAYqdVFREByD7Rg6p6QCplxdTbXpGRqIJ6iOgC2JMXvVfgdQVfkUbH98iJ_ulQV_XmHhLIFd3uYC0RumRQXbMzjL0jwTPSCYiSIesjXNyk9xzwD206vn2JzL-3H3Zp6iwhqg3ehuLPSIgLqCGQs17kDycdDt-T8HH_QuXwiwhokEivfiLgVByueIzxN8dnrbl5RqWyLi87ziE71Hxp6n5m3Kqi9j9NScQiHydZDK_uNo8yFG1Fz6A9sprKi5_CYiXLVq1duZVCU4QR8qknjEdqpJIxhHhm-3duocUrupkaA_Xgs1fD0Fn_CfNULL9sSn43uPhExARqq_3c2I0BvaxthLv_NnzleOYtgnH1KtyCsSedKv_HBWvh1RbWxg-6PQadiRqxZjGvL1tkhnm51b_0aMqFVD1fuPVd3FtwJPBPh9ITvd1RIWFzZETknVEXr7fmlGpdVvrMMNHOdGbCjBhRx8B6dqqUNLyxkkyf01nOTDZbaCTknU0C0]--></g></svg>