<svg xmlns="http://www.w3.org/2000/svg" xmlns:xlink="http://www.w3.org/1999/xlink" contentStyleType="text/css" data-diagram-type="CLASS" height="419px" preserveAspectRatio="none" style="width:5910px;height:419px;background:#FFFFFF;" version="1.1" viewBox="0 0 5910 419" width="5910px" zoomAndPan="magnify"><title>Datenatlas - MOA:5025</title><defs/><g><g class="title" data-source-line="1"><text fill="#000000" font-family="sans-serif" font-size="14" font-weight="bold" lengthAdjust="spacing" textLength="182.7314" x="2857.0389" y="22.9951">Datenatlas - MOA:5025</text></g><!--class MOA_5025--><g class="entity" data-entity="MOA_5025" data-source-line="2" data-uid="ent0002" id="entity_MOA_5025"><rect fill="#F1F1F1" height="145.7813" rx="2.5" ry="2.5" style="stroke:#181818;stroke-width:0.5;" width="374.2021" x="2107.71" y="44.2969"/><ellipse cx="2252.9087" cy="60.2969" fill="#ADD1B2" rx="11" ry="11" style="stroke:#181818;stroke-width:1;"/><path d="M2255.8775,65.9375 Q2255.2994,66.2344 2254.6587,66.375 Q2254.0181,66.5313 2253.315,66.5313 Q2250.815,66.5313 2249.4869,64.8906 Q2248.1744,63.2344 2248.1744,60.1094 Q2248.1744,56.9844 2249.4869,55.3281 Q2250.815,53.6719 2253.315,53.6719 Q2254.0181,53.6719 2254.6587,53.8281 Q2255.315,53.9844 2255.8775,54.2813 L2255.8775,57 Q2255.2525,56.4219 2254.6587,56.1563 Q2254.065,55.875 2253.44,55.875 Q2252.0962,55.875 2251.4087,56.9531 Q2250.7212,58.0156 2250.7212,60.1094 Q2250.7212,62.2031 2251.4087,63.2813 Q2252.0962,64.3438 2253.44,64.3438 Q2254.065,64.3438 2254.6587,64.0781 Q2255.2525,63.7969 2255.8775,63.2188 L2255.8775,65.9375 Z " fill="#000000"/><text fill="#000000" font-family="sans-serif" font-size="14" lengthAdjust="spacing" textLength="75.3047" x="2273.4087" y="65.1436">MOA_5025</text><line style="stroke:#181818;stroke-width:0.5;" x1="2108.71" x2="2480.9121" y1="76.2969" y2="76.2969"/><text fill="#000000" font-family="sans-serif" font-size="14" lengthAdjust="spacing" textLength="197.2578" x="2127.71" y="93.292">Name: Geldbetrag, Qualifier</text><text fill="#000000" font-family="sans-serif" font-size="14" lengthAdjust="spacing" textLength="66.6436" x="2127.71" y="109.5889">Prozesse:</text><rect fill="none" height="6" style="stroke:#C82930;stroke-width:1;" width="6" x="2115.71" y="119.5391"/><text fill="#000000" font-family="sans-serif" font-size="14" lengthAdjust="spacing" textLength="180.3457" x="2127.71" y="125.8857">Netznutzungsabrechnung</text><rect fill="none" height="6" style="stroke:#C82930;stroke-width:1;" width="6" x="2115.71" y="135.8359"/><text fill="#000000" font-family="sans-serif" font-size="14" lengthAdjust="spacing" textLength="223.2822" x="2127.71" y="142.1826">Messstellenbetriebsabrechnung</text><rect fill="none" height="6" style="stroke:#C82930;stroke-width:1;" width="6" x="2115.71" y="152.1328"/><text fill="#000000" font-family="sans-serif" font-size="14" lengthAdjust="spacing" textLength="317.9668" x="2127.71" y="158.4795">Sperrung und Entsperrung eines Anschlusses</text><line style="stroke:#181818;stroke-width:0.5;" x1="2108.71" x2="2480.9121" y1="165.7813" y2="165.7813"/><rect fill="#F24D5C" height="6" style="stroke:#C82930;stroke-width:1;" width="6" x="2115.71" y="176.4297"/><text fill="#000000" font-family="sans-serif" font-size="14" lengthAdjust="spacing" textLength="348.2021" x="2127.71" y="182.7764">Bestellung einer technischen Konfiguration (MSB)</text></g><!--class MOA_5025_msg_1--><g class="entity" data-entity="MOA_5025_msg_1" data-source-line="10" data-uid="ent0003" id="entity_MOA_5025_msg_1"><rect fill="#F1F1F1" height="145.7813" rx="2.5" ry="2.5" style="stroke:#181818;stroke-width:0.5;" width="495.6221" x="7" y="267.0769"/><ellipse cx="186.5459" cy="283.0769" fill="#ADD1B2" rx="11" ry="11" style="stroke:#181818;stroke-width:1;"/><path d="M189.5146,288.7175 Q188.9365,289.0144 188.2959,289.155 Q187.6553,289.3113 186.9521,289.3113 Q184.4521,289.3113 183.124,287.6706 Q181.8115,286.0144 181.8115,282.8894 Q181.8115,279.7644 183.124,278.1081 Q184.4521,276.4519 186.9521,276.4519 Q187.6553,276.4519 188.2959,276.6081 Q188.9521,276.7644 189.5146,277.0613 L189.5146,279.78 Q188.8896,279.2019 188.2959,278.9363 Q187.7021,278.655 187.0771,278.655 Q185.7334,278.655 185.0459,279.7331 Q184.3584,280.7956 184.3584,282.8894 Q184.3584,284.9831 185.0459,286.0613 Q185.7334,287.1238 187.0771,287.1238 Q187.7021,287.1238 188.2959,286.8581 Q188.8896,286.5769 189.5146,285.9988 L189.5146,288.7175 Z " fill="#000000"/><text fill="#000000" font-family="sans-serif" font-size="14" lengthAdjust="spacing" textLength="128.0303" x="207.0459" y="287.9236">MOA_5025_msg_1</text><line style="stroke:#181818;stroke-width:0.5;" x1="8" x2="501.6221" y1="299.0769" y2="299.0769"/><text fill="#000000" font-family="sans-serif" font-size="14" lengthAdjust="spacing" textLength="161.1982" x="13" y="316.072">Nachricht: INVOIC 2.8d</text><text fill="#000000" font-family="sans-serif" font-size="14" lengthAdjust="spacing" textLength="149.3447" x="13" y="332.3689">Kontext: Bemerkung:</text><text fill="#000000" font-family="sans-serif" font-size="14" lengthAdjust="spacing" textLength="91.4033" x="13" y="348.6657">Pflichtfeld: Ja</text><text fill="#000000" font-family="sans-serif" font-size="14" lengthAdjust="spacing" textLength="213.4521" x="13" y="364.9626">Codes: 100, 35, 77, MOA, OCR</text><text fill="#000000" font-family="sans-serif" font-size="14" lengthAdjust="spacing" textLength="483.6221" x="13" y="381.2595">Prozesse: Netznutzungsabrechnung, Messstellenbetriebsabrechnung</text><text fill="#000000" font-family="sans-serif" font-size="14" lengthAdjust="spacing" textLength="396.6074" x="13" y="397.5564">Quelle: INVOIC_MIG_2.8d_Fehlerkorrektur_20250131.pdf</text><line style="stroke:#181818;stroke-width:0.5;" x1="8" x2="501.6221" y1="404.8581" y2="404.8581"/></g><!--class MOA_5025_msg_2--><g class="entity" data-entity="MOA_5025_msg_2" data-source-line="19" data-uid="ent0005" id="entity_MOA_5025_msg_2"><rect fill="#F1F1F1" height="145.7813" rx="2.5" ry="2.5" style="stroke:#181818;stroke-width:0.5;" width="495.6221" x="538" y="267.0769"/><ellipse cx="717.5459" cy="283.0769" fill="#ADD1B2" rx="11" ry="11" style="stroke:#181818;stroke-width:1;"/><path d="M720.5146,288.7175 Q719.9365,289.0144 719.2959,289.155 Q718.6553,289.3113 717.9521,289.3113 Q715.4521,289.3113 714.124,287.6706 Q712.8115,286.0144 712.8115,282.8894 Q712.8115,279.7644 714.124,278.1081 Q715.4521,276.4519 717.9521,276.4519 Q718.6553,276.4519 719.2959,276.6081 Q719.9521,276.7644 720.5146,277.0613 L720.5146,279.78 Q719.8896,279.2019 719.2959,278.9363 Q718.7021,278.655 718.0771,278.655 Q716.7334,278.655 716.0459,279.7331 Q715.3584,280.7956 715.3584,282.8894 Q715.3584,284.9831 716.0459,286.0613 Q716.7334,287.1238 718.0771,287.1238 Q718.7021,287.1238 719.2959,286.8581 Q719.8896,286.5769 720.5146,285.9988 L720.5146,288.7175 Z " fill="#000000"/><text fill="#000000" font-family="sans-serif" font-size="14" lengthAdjust="spacing" textLength="128.0303" x="738.0459" y="287.9236">MOA_5025_msg_2</text><line style="stroke:#181818;stroke-width:0.5;" x1="539" x2="1032.6221" y1="299.0769" y2="299.0769"/><text fill="#000000" font-family="sans-serif" font-size="14" lengthAdjust="spacing" textLength="165.6484" x="544" y="316.072">Nachricht: INVOIC 2.8d.</text><text fill="#000000" font-family="sans-serif" font-size="14" lengthAdjust="spacing" textLength="149.3447" x="544" y="332.3689">Kontext: Bemerkung:</text><text fill="#000000" font-family="sans-serif" font-size="14" lengthAdjust="spacing" textLength="110.5439" x="544" y="348.6657">Pflichtfeld: Nein</text><text fill="#000000" font-family="sans-serif" font-size="14" lengthAdjust="spacing" textLength="213.4521" x="544" y="364.9626">Codes: 10, 115, 35, MOA, OCR</text><text fill="#000000" font-family="sans-serif" font-size="14" lengthAdjust="spacing" textLength="483.6221" x="544" y="381.2595">Prozesse: Netznutzungsabrechnung, Messstellenbetriebsabrechnung</text><text fill="#000000" font-family="sans-serif" font-size="14" lengthAdjust="spacing" textLength="290.3359" x="544" y="397.5564">Quelle: INVOIC_MIG_2_8d__20240619.pdf</text><line style="stroke:#181818;stroke-width:0.5;" x1="539" x2="1032.6221" y1="404.8581" y2="404.8581"/></g><!--class MOA_5025_msg_3--><g class="entity" data-entity="MOA_5025_msg_3" data-source-line="28" data-uid="ent0007" id="entity_MOA_5025_msg_3"><rect fill="#F1F1F1" height="145.7813" rx="2.5" ry="2.5" style="stroke:#181818;stroke-width:0.5;" width="758.1631" x="1068.73" y="267.0769"/><ellipse cx="1379.5464" cy="283.0769" fill="#ADD1B2" rx="11" ry="11" style="stroke:#181818;stroke-width:1;"/><path d="M1382.5152,288.7175 Q1381.937,289.0144 1381.2964,289.155 Q1380.6558,289.3113 1379.9527,289.3113 Q1377.4527,289.3113 1376.1245,287.6706 Q1374.812,286.0144 1374.812,282.8894 Q1374.812,279.7644 1376.1245,278.1081 Q1377.4527,276.4519 1379.9527,276.4519 Q1380.6558,276.4519 1381.2964,276.6081 Q1381.9527,276.7644 1382.5152,277.0613 L1382.5152,279.78 Q1381.8902,279.2019 1381.2964,278.9363 Q1380.7027,278.655 1380.0777,278.655 Q1378.7339,278.655 1378.0464,279.7331 Q1377.3589,280.7956 1377.3589,282.8894 Q1377.3589,284.9831 1378.0464,286.0613 Q1378.7339,287.1238 1380.0777,287.1238 Q1380.7027,287.1238 1381.2964,286.8581 Q1381.8902,286.5769 1382.5152,285.9988 L1382.5152,288.7175 Z " fill="#000000"/><text fill="#000000" font-family="sans-serif" font-size="14" lengthAdjust="spacing" textLength="128.0303" x="1400.0464" y="287.9236">MOA_5025_msg_3</text><line style="stroke:#181818;stroke-width:0.5;" x1="1069.73" x2="1825.8931" y1="299.0769" y2="299.0769"/><text fill="#000000" font-family="sans-serif" font-size="14" lengthAdjust="spacing" textLength="161.793" x="1074.73" y="316.072">Nachricht: ORDRSP 1.4</text><text fill="#000000" font-family="sans-serif" font-size="14" lengthAdjust="spacing" textLength="123.0605" x="1074.73" y="332.3689">Kontext: Beispiel:</text><text fill="#000000" font-family="sans-serif" font-size="14" lengthAdjust="spacing" textLength="110.5439" x="1074.73" y="348.6657">Pflichtfeld: Nein</text><text fill="#000000" font-family="sans-serif" font-size="14" lengthAdjust="spacing" textLength="174.7129" x="1074.73" y="364.9626">Codes: 12, 35, MOA, Z02</text><text fill="#000000" font-family="sans-serif" font-size="14" lengthAdjust="spacing" textLength="283.9307" x="1074.73" y="381.2595">Quelle: ORDRSP_MIG_1_4_20240619.pdf</text><line style="stroke:#181818;stroke-width:0.5;" x1="1069.73" x2="1825.8931" y1="388.5613" y2="388.5613"/><text fill="#000000" font-family="sans-serif" font-size="14" lengthAdjust="spacing" textLength="746.1631" x="1074.73" y="405.5564">Prozesse: Bestellung einer technischen Konfiguration (MSB), Sperrung und Entsperrung eines Anschlusses</text></g><!--class MOA_5025_msg_4--><g class="entity" data-entity="MOA_5025_msg_4" data-source-line="37" data-uid="ent0009" id="entity_MOA_5025_msg_4"><rect fill="#F1F1F1" height="145.7813" rx="2.5" ry="2.5" style="stroke:#181818;stroke-width:0.5;" width="303.0811" x="1862.27" y="267.0769"/><ellipse cx="1945.5454" cy="283.0769" fill="#ADD1B2" rx="11" ry="11" style="stroke:#181818;stroke-width:1;"/><path d="M1948.5141,288.7175 Q1947.936,289.0144 1947.2954,289.155 Q1946.6548,289.3113 1945.9516,289.3113 Q1943.4516,289.3113 1942.1235,287.6706 Q1940.811,286.0144 1940.811,282.8894 Q1940.811,279.7644 1942.1235,278.1081 Q1943.4516,276.4519 1945.9516,276.4519 Q1946.6548,276.4519 1947.2954,276.6081 Q1947.9516,276.7644 1948.5141,277.0613 L1948.5141,279.78 Q1947.8891,279.2019 1947.2954,278.9363 Q1946.7016,278.655 1946.0766,278.655 Q1944.7329,278.655 1944.0454,279.7331 Q1943.3579,280.7956 1943.3579,282.8894 Q1943.3579,284.9831 1944.0454,286.0613 Q1944.7329,287.1238 1946.0766,287.1238 Q1946.7016,287.1238 1947.2954,286.8581 Q1947.8891,286.5769 1948.5141,285.9988 L1948.5141,288.7175 Z " fill="#000000"/><text fill="#000000" font-family="sans-serif" font-size="14" lengthAdjust="spacing" textLength="128.0303" x="1966.0454" y="287.9236">MOA_5025_msg_4</text><line style="stroke:#181818;stroke-width:0.5;" x1="1863.27" x2="2164.3511" y1="299.0769" y2="299.0769"/><text fill="#000000" font-family="sans-serif" font-size="14" lengthAdjust="spacing" textLength="171.4932" x="1868.27" y="316.072">Nachricht: REMADV 2.9c</text><text fill="#000000" font-family="sans-serif" font-size="14" lengthAdjust="spacing" textLength="170.3447" x="1868.27" y="332.3689">Kontext: Segmentlayout</text><text fill="#000000" font-family="sans-serif" font-size="14" lengthAdjust="spacing" textLength="91.4033" x="1868.27" y="348.6657">Pflichtfeld: Ja</text><text fill="#000000" font-family="sans-serif" font-size="14" lengthAdjust="spacing" textLength="250.9951" x="1868.27" y="364.9626">Codes: 13, 35, 999, MOA, OCR, SG5</text><text fill="#000000" font-family="sans-serif" font-size="14" lengthAdjust="spacing" textLength="251.4395" x="1868.27" y="381.2595">Prozesse: Netznutzungsabrechnung</text><text fill="#000000" font-family="sans-serif" font-size="14" lengthAdjust="spacing" textLength="291.0811" x="1868.27" y="397.5564">Quelle: REMADV_MIG_2.9c_20231024.pdf</text><line style="stroke:#181818;stroke-width:0.5;" x1="1863.27" x2="2164.3511" y1="404.8581" y2="404.8581"/></g><!--class MOA_5025_proc_1--><g class="entity" data-entity="MOA_5025_proc_1" data-source-line="46" data-uid="ent0011" id="entity_MOA_5025_proc_1"><rect fill="#F1F1F1" height="105.1563" rx="2.5" ry="2.5" style="stroke:#181818;stroke-width:0.5;" width="752.6465" x="2200.49" y="287.3869"/><ellipse cx="2508.0046" cy="307.5197" fill="#ADD1B2" rx="11" ry="11" style="stroke:#181818;stroke-width:1;"/><path d="M2510.9734,313.1603 Q2510.3953,313.4572 2509.7546,313.5978 Q2509.114,313.7541 2508.4109,313.7541 Q2505.9109,313.7541 2504.5828,312.1134 Q2503.2703,310.4572 2503.2703,307.3322 Q2503.2703,304.2072 2504.5828,302.5509 Q2505.9109,300.8947 2508.4109,300.8947 Q2509.114,300.8947 2509.7546,301.0509 Q2510.4109,301.2072 2510.9734,301.5041 L2510.9734,304.2228 Q2510.3484,303.6447 2509.7546,303.3791 Q2509.1609,303.0978 2508.5359,303.0978 Q2507.1921,303.0978 2506.5046,304.1759 Q2505.8171,305.2384 2505.8171,307.3322 Q2505.8171,309.4259 2506.5046,310.5041 Q2507.1921,311.5666 2508.5359,311.5666 Q2509.1609,311.5666 2509.7546,311.3009 Q2510.3484,311.0197 2510.9734,310.4416 L2510.9734,313.1603 Z " fill="#000000"/><text fill="#000000" font-family="sans-serif" font-size="12" font-style="italic" lengthAdjust="spacing" textLength="61.0605" x="2562.533" y="303.5255">&#171;process&#187;</text><text fill="#000000" font-family="sans-serif" font-size="14" lengthAdjust="spacing" textLength="129.1172" x="2528.5046" y="319.3507">MOA_5025_proc_1</text><line style="stroke:#181818;stroke-width:0.5;" x1="2201.49" x2="2952.1365" y1="327.6525" y2="327.6525"/><text fill="#000000" font-family="sans-serif" font-size="14" lengthAdjust="spacing" textLength="180.3457" x="2206.49" y="344.6476">Netznutzungsabrechnung</text><text fill="#000000" font-family="sans-serif" font-size="14" lengthAdjust="spacing" textLength="218.0938" x="2206.49" y="360.9445">Gesetze: StromNEV, StromNZV</text><text fill="#000000" font-family="sans-serif" font-size="14" lengthAdjust="spacing" textLength="740.6465" x="2206.49" y="377.2414">Zusammenfassung: Wie funktioniert die Netznutzungsabrechnung zwischen Netzbetreiber und Lieferant?</text><line style="stroke:#181818;stroke-width:0.5;" x1="2201.49" x2="2952.1365" y1="384.5431" y2="384.5431"/></g><!--class MOA_5025_proc_2--><g class="entity" data-entity="MOA_5025_proc_2" data-source-line="52" data-uid="ent0013" id="entity_MOA_5025_proc_2"><rect fill="#F1F1F1" height="105.1563" rx="2.5" ry="2.5" style="stroke:#181818;stroke-width:0.5;" width="690.2275" x="2987.7" y="287.3869"/><ellipse cx="3264.0052" cy="307.5197" fill="#ADD1B2" rx="11" ry="11" style="stroke:#181818;stroke-width:1;"/><path d="M3266.9739,313.1603 Q3266.3958,313.4572 3265.7552,313.5978 Q3265.1146,313.7541 3264.4114,313.7541 Q3261.9114,313.7541 3260.5833,312.1134 Q3259.2708,310.4572 3259.2708,307.3322 Q3259.2708,304.2072 3260.5833,302.5509 Q3261.9114,300.8947 3264.4114,300.8947 Q3265.1146,300.8947 3265.7552,301.0509 Q3266.4114,301.2072 3266.9739,301.5041 L3266.9739,304.2228 Q3266.3489,303.6447 3265.7552,303.3791 Q3265.1614,303.0978 3264.5364,303.0978 Q3263.1927,303.0978 3262.5052,304.1759 Q3261.8177,305.2384 3261.8177,307.3322 Q3261.8177,309.4259 3262.5052,310.5041 Q3263.1927,311.5666 3264.5364,311.5666 Q3265.1614,311.5666 3265.7552,311.3009 Q3266.3489,311.0197 3266.9739,310.4416 L3266.9739,313.1603 Z " fill="#000000"/><text fill="#000000" font-family="sans-serif" font-size="12" font-style="italic" lengthAdjust="spacing" textLength="61.0605" x="3318.5335" y="303.5255">&#171;process&#187;</text><text fill="#000000" font-family="sans-serif" font-size="14" lengthAdjust="spacing" textLength="129.1172" x="3284.5052" y="319.3507">MOA_5025_proc_2</text><line style="stroke:#181818;stroke-width:0.5;" x1="2988.7" x2="3676.9275" y1="327.6525" y2="327.6525"/><text fill="#000000" font-family="sans-serif" font-size="14" lengthAdjust="spacing" textLength="223.2822" x="2993.7" y="344.6476">Messstellenbetriebsabrechnung</text><text fill="#000000" font-family="sans-serif" font-size="14" lengthAdjust="spacing" textLength="105.0957" x="2993.7" y="360.9445">Gesetze: MsbG</text><text fill="#000000" font-family="sans-serif" font-size="14" lengthAdjust="spacing" textLength="678.2275" x="2993.7" y="377.2414">Zusammenfassung: Beschreibe den Prozess der Abrechnung von Messstellenbetriebsleistungen.</text><line style="stroke:#181818;stroke-width:0.5;" x1="2988.7" x2="3676.9275" y1="384.5431" y2="384.5431"/></g><!--class MOA_5025_proc_3--><g class="entity" data-entity="MOA_5025_proc_3" data-source-line="58" data-uid="ent0015" id="entity_MOA_5025_proc_3"><rect fill="#F1F1F1" height="105.1563" rx="2.5" ry="2.5" style="stroke:#181818;stroke-width:0.5;" width="1301.9961" x="3712.81" y="287.3869"/><ellipse cx="4294.9995" cy="307.5197" fill="#ADD1B2" rx="11" ry="11" style="stroke:#181818;stroke-width:1;"/><path d="M4297.9682,313.1603 Q4297.3901,313.4572 4296.7495,313.5978 Q4296.1088,313.7541 4295.4057,313.7541 Q4292.9057,313.7541 4291.5776,312.1134 Q4290.2651,310.4572 4290.2651,307.3322 Q4290.2651,304.2072 4291.5776,302.5509 Q4292.9057,300.8947 4295.4057,300.8947 Q4296.1088,300.8947 4296.7495,301.0509 Q4297.4057,301.2072 4297.9682,301.5041 L4297.9682,304.2228 Q4297.3432,303.6447 4296.7495,303.3791 Q4296.1557,303.0978 4295.5307,303.0978 Q4294.187,303.0978 4293.4995,304.1759 Q4292.812,305.2384 4292.812,307.3322 Q4292.812,309.4259 4293.4995,310.5041 Q4294.187,311.5666 4295.5307,311.5666 Q4296.1557,311.5666 4296.7495,311.3009 Q4297.3432,311.0197 4297.9682,310.4416 L4297.9682,313.1603 Z " fill="#000000"/><text fill="#000000" font-family="sans-serif" font-size="12" font-style="italic" lengthAdjust="spacing" textLength="61.0605" x="4349.5278" y="303.5255">&#171;process&#187;</text><text fill="#000000" font-family="sans-serif" font-size="14" lengthAdjust="spacing" textLength="129.1172" x="4315.4995" y="319.3507">MOA_5025_proc_3</text><line style="stroke:#181818;stroke-width:0.5;" x1="3713.81" x2="5013.8061" y1="327.6525" y2="327.6525"/><text fill="#000000" font-family="sans-serif" font-size="14" lengthAdjust="spacing" textLength="156.4063" x="3718.81" y="344.6476">Gesetze: MsbG, EnWG</text><text fill="#000000" font-family="sans-serif" font-size="14" lengthAdjust="spacing" textLength="1289.9961" x="3718.81" y="360.9445">Zusammenfassung: Erl&#228;utere den Prozess zur Bestellung einer spezifischen technischen Konfiguration bei einem Messstellenbetreiber, beispielsweise f&#252;r ein intelligentes Messsystem.</text><line style="stroke:#181818;stroke-width:0.5;" x1="3713.81" x2="5013.8061" y1="368.2463" y2="368.2463"/><text fill="#000000" font-family="sans-serif" font-size="14" lengthAdjust="spacing" textLength="348.2021" x="3718.81" y="385.2414">Bestellung einer technischen Konfiguration (MSB)</text></g><!--class MOA_5025_proc_4--><g class="entity" data-entity="MOA_5025_proc_4" data-source-line="64" data-uid="ent0017" id="entity_MOA_5025_proc_4"><rect fill="#F1F1F1" height="105.1563" rx="2.5" ry="2.5" style="stroke:#181818;stroke-width:0.5;" width="853.9893" x="5049.82" y="287.3869"/><ellipse cx="5408.006" cy="307.5197" fill="#ADD1B2" rx="11" ry="11" style="stroke:#181818;stroke-width:1;"/><path d="M5410.9748,313.1603 Q5410.3967,313.4572 5409.756,313.5978 Q5409.1154,313.7541 5408.4123,313.7541 Q5405.9123,313.7541 5404.5842,312.1134 Q5403.2717,310.4572 5403.2717,307.3322 Q5403.2717,304.2072 5404.5842,302.5509 Q5405.9123,300.8947 5408.4123,300.8947 Q5409.1154,300.8947 5409.756,301.0509 Q5410.4123,301.2072 5410.9748,301.5041 L5410.9748,304.2228 Q5410.3498,303.6447 5409.756,303.3791 Q5409.1623,303.0978 5408.5373,303.0978 Q5407.1935,303.0978 5406.506,304.1759 Q5405.8185,305.2384 5405.8185,307.3322 Q5405.8185,309.4259 5406.506,310.5041 Q5407.1935,311.5666 5408.5373,311.5666 Q5409.1623,311.5666 5409.756,311.3009 Q5410.3498,311.0197 5410.9748,310.4416 L5410.9748,313.1603 Z " fill="#000000"/><text fill="#000000" font-family="sans-serif" font-size="12" font-style="italic" lengthAdjust="spacing" textLength="61.0605" x="5462.5344" y="303.5255">&#171;process&#187;</text><text fill="#000000" font-family="sans-serif" font-size="14" lengthAdjust="spacing" textLength="129.1172" x="5428.506" y="319.3507">MOA_5025_proc_4</text><line style="stroke:#181818;stroke-width:0.5;" x1="5050.82" x2="5902.8093" y1="327.6525" y2="327.6525"/><text fill="#000000" font-family="sans-serif" font-size="14" lengthAdjust="spacing" textLength="317.9668" x="5055.82" y="344.6476">Sperrung und Entsperrung eines Anschlusses</text><text fill="#000000" font-family="sans-serif" font-size="14" lengthAdjust="spacing" textLength="138.3252" x="5055.82" y="360.9445">Gesetze: StromGVV</text><text fill="#000000" font-family="sans-serif" font-size="14" lengthAdjust="spacing" textLength="841.9893" x="5055.82" y="377.2414">Zusammenfassung: Beschreibe den End-to-End-Prozess f&#252;r die Sperrung und Wiederherstellung eines Netzanschlusses.</text><line style="stroke:#181818;stroke-width:0.5;" x1="5050.82" x2="5902.8093" y1="384.5431" y2="384.5431"/></g><!--link MOA_5025 to MOA_5025_msg_1--><g class="link" data-entity-1="MOA_5025" data-entity-2="MOA_5025_msg_1" data-source-line="18" data-uid="lnk4" id="link_MOA_5025_MOA_5025_msg_1"><path codeLine="18" d="M2107.27,122.8369 C1782.03,133.3669 1093.29,166.5369 520.81,267.0769 C514.92,268.1069 514.8602,268.0743 508.8802,269.2343" fill="none" id="MOA_5025-to-MOA_5025_msg_1" style="stroke:#181818;stroke-width:1;"/><polygon fill="#181818" points="502.99,270.3769,512.587,272.5898,507.8985,269.4247,511.0636,264.7362,502.99,270.3769" style="stroke:#181818;stroke-width:1;"/><text fill="#000000" font-family="sans-serif" font-size="13" lengthAdjust="spacing" textLength="85.2363" x="809.81" y="233.1438">verwendet in</text></g><!--link MOA_5025 to MOA_5025_msg_2--><g class="link" data-entity-1="MOA_5025" data-entity-2="MOA_5025_msg_2" data-source-line="27" data-uid="lnk6" id="link_MOA_5025_MOA_5025_msg_2"><path codeLine="27" d="M2107.24,132.0569 C1862.56,152.1169 1421.93,194.9269 1050.81,267.0769 C1045.2,268.1669 1045.3934,268.0907 1039.6934,269.2807" fill="none" id="MOA_5025-to-MOA_5025_msg_2" style="stroke:#181818;stroke-width:1;"/><polygon fill="#181818" points="1033.82,270.5069,1043.4475,272.5832,1038.7145,269.485,1041.8126,264.752,1033.82,270.5069" style="stroke:#181818;stroke-width:1;"/><text fill="#000000" font-family="sans-serif" font-size="13" lengthAdjust="spacing" textLength="85.2363" x="1322.81" y="233.1438">verwendet in</text></g><!--link MOA_5025 to MOA_5025_msg_3--><g class="link" data-entity-1="MOA_5025" data-entity-2="MOA_5025_msg_3" data-source-line="36" data-uid="lnk8" id="link_MOA_5025_MOA_5025_msg_3"><path codeLine="36" d="M2107.36,167.0469 C1995.17,196.2869 1856.306,232.4834 1731.056,265.1334" fill="none" id="MOA_5025-to-MOA_5025_msg_3" style="stroke:#181818;stroke-width:1;"/><polygon fill="#181818" points="1725.25,266.6469,1734.968,268.2473,1730.0883,265.3856,1732.95,260.506,1725.25,266.6469" style="stroke:#181818;stroke-width:1;"/><text fill="#000000" font-family="sans-serif" font-size="13" lengthAdjust="spacing" textLength="85.2363" x="1897.81" y="233.1438">verwendet in</text></g><!--link MOA_5025 to MOA_5025_msg_4--><g class="link" data-entity-1="MOA_5025" data-entity-2="MOA_5025_msg_4" data-source-line="45" data-uid="lnk10" id="link_MOA_5025_MOA_5025_msg_4"><path codeLine="45" d="M2202.8,190.4769 C2171.59,214.9969 2141.4584,238.6805 2110.2684,263.1805" fill="none" id="MOA_5025-to-MOA_5025_msg_4" style="stroke:#181818;stroke-width:1;"/><polygon fill="#181818" points="2105.55,266.8869,2115.0985,264.473,2109.482,263.7983,2110.1567,258.1818,2105.55,266.8869" style="stroke:#181818;stroke-width:1;"/><text fill="#000000" font-family="sans-serif" font-size="13" lengthAdjust="spacing" textLength="85.2363" x="2163.81" y="233.1438">verwendet in</text></g><!--link MOA_5025 to MOA_5025_proc_1--><g class="link" data-entity-1="MOA_5025" data-entity-2="MOA_5025_proc_1" data-source-line="51" data-uid="lnk12" id="link_MOA_5025_MOA_5025_proc_1"><path codeLine="51" d="M2387.15,190.4769 C2427.47,222.0469 2469.1161,254.6476 2505.9061,283.4576" fill="none" id="MOA_5025-to-MOA_5025_proc_1" style="stroke:#181818;stroke-width:1;stroke-dasharray:7,7;"/><polygon fill="#181818" points="2510.63,287.1569,2506.0103,278.4587,2506.6934,284.0742,2501.0779,284.7573,2510.63,287.1569" style="stroke:#181818;stroke-width:1;"/><text fill="#000000" font-family="sans-serif" font-size="13" lengthAdjust="spacing" textLength="91.6221" x="2445.81" y="233.1438">eingebettet in</text></g><!--link MOA_5025 to MOA_5025_proc_2--><g class="link" data-entity-1="MOA_5025" data-entity-2="MOA_5025_proc_2" data-source-line="57" data-uid="lnk14" id="link_MOA_5025_MOA_5025_proc_2"><path codeLine="57" d="M2482.18,158.0369 C2651.82,194.1169 2896.9313,246.2587 3082.3313,285.6887" fill="none" id="MOA_5025-to-MOA_5025_proc_2" style="stroke:#181818;stroke-width:1;stroke-dasharray:7,7;"/><polygon fill="#181818" points="3088.2,286.9369,3080.229,281.1522,3083.3094,285.8968,3078.5648,288.9772,3088.2,286.9369" style="stroke:#181818;stroke-width:1;"/><text fill="#000000" font-family="sans-serif" font-size="13" lengthAdjust="spacing" textLength="91.6221" x="2846.81" y="233.1438">eingebettet in</text></g><!--link MOA_5025 to MOA_5025_proc_3--><g class="link" data-entity-1="MOA_5025" data-entity-2="MOA_5025_proc_3" data-source-line="63" data-uid="lnk16" id="link_MOA_5025_MOA_5025_proc_3"><path codeLine="63" d="M2482.34,138.0369 C2751.11,166.4969 3261.37,220.6169 3695.81,267.0769 C3755.69,273.4769 3812.6143,279.5867 3874.8643,286.2667" fill="none" id="MOA_5025-to-MOA_5025_proc_3" style="stroke:#181818;stroke-width:1;stroke-dasharray:7,7;"/><polygon fill="#181818" points="3880.83,286.9069,3872.3082,281.9694,3875.8585,286.3734,3871.4546,289.9238,3880.83,286.9069" style="stroke:#181818;stroke-width:1;"/><text fill="#000000" font-family="sans-serif" font-size="13" lengthAdjust="spacing" textLength="91.6221" x="3390.81" y="233.1438">eingebettet in</text></g><!--link MOA_5025 to MOA_5025_proc_4--><g class="link" data-entity-1="MOA_5025" data-entity-2="MOA_5025_proc_4" data-source-line="69" data-uid="lnk18" id="link_MOA_5025_MOA_5025_proc_4"><path codeLine="69" d="M2482.03,121.5469 C2925.92,130.9969 4076.66,164.2369 5031.81,267.0769 C5080.64,272.3369 5126.3275,278.4297 5176.4475,286.0097" fill="none" id="MOA_5025-to-MOA_5025_proc_4" style="stroke:#181818;stroke-width:1;stroke-dasharray:7,7;"/><polygon fill="#181818" points="5182.38,286.9069,5174.0793,281.606,5177.4362,286.1592,5172.883,289.5161,5182.38,286.9069" style="stroke:#181818;stroke-width:1;"/><text fill="#000000" font-family="sans-serif" font-size="13" lengthAdjust="spacing" textLength="91.6221" x="4662.81" y="233.1438">eingebettet in</text></g><!--SRC=[jPNRRjf048RlynHpsKh6mWVQOaLK9A4eRO4492BbnZBs65QnrsXtdJHKVPi-Hk_oOfqr99nZfrAllBkpX_c_dN-jc4eGBWA5F5198A46lK7RQzJjnab8VQcxlkx2pnE0Vf2Y1rrCeWag4KmDkCw3XCKC1KMlHBP0AT6ZDj1EVLGBdgj5pgSoc0WCPvoQgs2FPag5IO9SxyLmiZ_d38iPD038E0fGEivaE4CEtp8Uisak0iKo3kzwexFtgsMZEGgX5-KyWWvNyhclDv7GvhH1abEYykJNZae_bLFVMcaDPuA5C-N1PNyyk3m7s_mKKO0ELlY3XiymHN576sl1Lt6Y9yV4neEl0OsSPn5A3wnwtG2dOS37ZuO-nu31-N2JrX5EHYcYwrp7djFpUvTTNwVeVy5PGebbGk2ToeLlax2wvLZcF8f9ySkDrcgjNU4UtADuG1wX0iOFmR5VWMDMezEdUzZaOu1bDPQC_ZiVd_Xe86xzWzKi1M9N0EBi0XaCBuQZAx1CTni7atE6IHaDUmF4RTtU0l5MFnXliSAQrr90mSlotUgqd0gqt5rQmqwlVJ6cycc6cxX6E4sHqvFqcENgLNivIs3DPdDTFYIyswXGGnkYbtciJDGCjMh78kMbgjqIrNEHXUIiqrFTe6HQhIM2OmbrKLA8CXefaQNzpjXOjMx75BtDPP0IcPZEqDw26uOGv_nEtpezmmeY6ZYyEImULhMYuzeoo2PKHReslZECKGHSVTuKQvgjFI6Uhfqfqd9rNA-zfxVCh2-oUtBIFIIKYf-AHcSC4KbONIsr1RJN4k-fzWySbP3x5CMHcw_hiwlfS_Rq_SE_QakoGVQyEIYy8vAdtxb2iIryaOlzGydV2_eTBqyzdi44MR4WtMLL58IXuyLZ9H-eGVNrz4Ve-KH3JsM4KT7hKQnzfDLf2LId6bHt3-gRdgzjutJ7umfLrE5HJMKr_NdcMeZL9jewd6n6bJP3iGLS5auArccKW73tGFm5]--></g></svg>