<svg xmlns="http://www.w3.org/2000/svg" xmlns:xlink="http://www.w3.org/1999/xlink" contentStyleType="text/css" data-diagram-type="CLASS" height="387px" preserveAspectRatio="none" style="width:2021px;height:387px;background:#FFFFFF;" version="1.1" viewBox="0 0 2021 387" width="2021px" zoomAndPan="magnify"><title>Datenatlas - NAD:00028</title><defs/><g><g class="title" data-source-line="1"><text fill="#000000" font-family="sans-serif" font-size="14" font-weight="bold" lengthAdjust="spacing" textLength="189.9775" x="908.975" y="22.9951">Datenatlas - NAD:00028</text></g><!--class NAD_00028--><g class="entity" data-entity="NAD_00028" data-source-line="2" data-uid="ent0002" id="entity_NAD_00028"><rect fill="#F1F1F1" height="113.1875" rx="2.5" ry="2.5" style="stroke:#181818;stroke-width:0.5;" width="308.9668" x="759.33" y="44.2969"/><ellipse cx="868.3803" cy="60.2969" fill="#ADD1B2" rx="11" ry="11" style="stroke:#181818;stroke-width:1;"/><path d="M871.349,65.9375 Q870.7709,66.2344 870.1303,66.375 Q869.4897,66.5313 868.7865,66.5313 Q866.2865,66.5313 864.9584,64.8906 Q863.6459,63.2344 863.6459,60.1094 Q863.6459,56.9844 864.9584,55.3281 Q866.2865,53.6719 868.7865,53.6719 Q869.4897,53.6719 870.1303,53.8281 Q870.7865,53.9844 871.349,54.2813 L871.349,57 Q870.724,56.4219 870.1303,56.1563 Q869.5365,55.875 868.9115,55.875 Q867.5678,55.875 866.8803,56.9531 Q866.1928,58.0156 866.1928,60.1094 Q866.1928,62.2031 866.8803,63.2813 Q867.5678,64.3438 868.9115,64.3438 Q869.5365,64.3438 870.1303,64.0781 Q870.724,63.7969 871.349,63.2188 L871.349,65.9375 Z " fill="#000000"/><text fill="#000000" font-family="sans-serif" font-size="14" lengthAdjust="spacing" textLength="82.3662" x="888.8803" y="65.1436">NAD_00028</text><line style="stroke:#181818;stroke-width:0.5;" x1="760.33" x2="1067.2968" y1="76.2969" y2="76.2969"/><text fill="#000000" font-family="sans-serif" font-size="14" lengthAdjust="spacing" textLength="282.9668" x="779.33" y="93.292">Name: Adresse der Leistungserbringung</text><text fill="#000000" font-family="sans-serif" font-size="14" lengthAdjust="spacing" textLength="66.6436" x="779.33" y="109.5889">Prozesse:</text><rect fill="none" height="6" style="stroke:#C82930;stroke-width:1;" width="6" x="767.33" y="119.5391"/><text fill="#000000" font-family="sans-serif" font-size="14" lengthAdjust="spacing" textLength="180.3457" x="779.33" y="125.8857">Netznutzungsabrechnung</text><rect fill="none" height="6" style="stroke:#C82930;stroke-width:1;" width="6" x="767.33" y="135.8359"/><text fill="#000000" font-family="sans-serif" font-size="14" lengthAdjust="spacing" textLength="223.2822" x="779.33" y="142.1826">Messstellenbetriebsabrechnung</text><line style="stroke:#181818;stroke-width:0.5;" x1="760.33" x2="1067.2968" y1="149.4844" y2="149.4844"/></g><!--class NAD_00028_msg_1--><g class="entity" data-entity="NAD_00028_msg_1" data-source-line="8" data-uid="ent0003" id="entity_NAD_00028_msg_1"><rect fill="#F1F1F1" height="145.7813" rx="2.5" ry="2.5" style="stroke:#181818;stroke-width:0.5;" width="495.6221" x="7" y="234.4869"/><ellipse cx="183.0151" cy="250.4869" fill="#ADD1B2" rx="11" ry="11" style="stroke:#181818;stroke-width:1;"/><path d="M185.9839,256.1275 Q185.4058,256.4244 184.7651,256.565 Q184.1245,256.7213 183.4214,256.7213 Q180.9214,256.7213 179.5933,255.0806 Q178.2808,253.4244 178.2808,250.2994 Q178.2808,247.1744 179.5933,245.5181 Q180.9214,243.8619 183.4214,243.8619 Q184.1245,243.8619 184.7651,244.0181 Q185.4214,244.1744 185.9839,244.4713 L185.9839,247.19 Q185.3589,246.6119 184.7651,246.3463 Q184.1714,246.065 183.5464,246.065 Q182.2026,246.065 181.5151,247.1431 Q180.8276,248.2056 180.8276,250.2994 Q180.8276,252.3931 181.5151,253.4713 Q182.2026,254.5338 183.5464,254.5338 Q184.1714,254.5338 184.7651,254.2681 Q185.3589,253.9869 185.9839,253.4088 L185.9839,256.1275 Z " fill="#000000"/><text fill="#000000" font-family="sans-serif" font-size="14" lengthAdjust="spacing" textLength="135.0918" x="203.5151" y="255.3336">NAD_00028_msg_1</text><line style="stroke:#181818;stroke-width:0.5;" x1="8" x2="501.6221" y1="266.4869" y2="266.4869"/><text fill="#000000" font-family="sans-serif" font-size="14" lengthAdjust="spacing" textLength="165.6484" x="13" y="283.482">Nachricht: INVOIC 2.8d.</text><text fill="#000000" font-family="sans-serif" font-size="14" lengthAdjust="spacing" textLength="204.1143" x="13" y="299.7789">Kontext: Nachrichtenstruktur</text><text fill="#000000" font-family="sans-serif" font-size="14" lengthAdjust="spacing" textLength="91.4033" x="13" y="316.0757">Pflichtfeld: Ja</text><text fill="#000000" font-family="sans-serif" font-size="14" lengthAdjust="spacing" textLength="83.1318" x="13" y="332.3726">Codes: NAD</text><text fill="#000000" font-family="sans-serif" font-size="14" lengthAdjust="spacing" textLength="483.6221" x="13" y="348.6695">Prozesse: Netznutzungsabrechnung, Messstellenbetriebsabrechnung</text><text fill="#000000" font-family="sans-serif" font-size="14" lengthAdjust="spacing" textLength="290.3359" x="13" y="364.9664">Quelle: INVOIC_MIG_2_8d__20240619.pdf</text><line style="stroke:#181818;stroke-width:0.5;" x1="8" x2="501.6221" y1="372.2681" y2="372.2681"/></g><!--class NAD_00028_proc_1--><g class="entity" data-entity="NAD_00028_proc_1" data-source-line="17" data-uid="ent0005" id="entity_NAD_00028_proc_1"><rect fill="#F1F1F1" height="105.1563" rx="2.5" ry="2.5" style="stroke:#181818;stroke-width:0.5;" width="752.6465" x="537.49" y="254.7969"/><ellipse cx="841.4739" cy="274.9297" fill="#ADD1B2" rx="11" ry="11" style="stroke:#181818;stroke-width:1;"/><path d="M844.4426,280.5703 Q843.8645,280.8672 843.2239,281.0078 Q842.5833,281.1641 841.8801,281.1641 Q839.3801,281.1641 838.052,279.5234 Q836.7395,277.8672 836.7395,274.7422 Q836.7395,271.6172 838.052,269.9609 Q839.3801,268.3047 841.8801,268.3047 Q842.5833,268.3047 843.2239,268.4609 Q843.8801,268.6172 844.4426,268.9141 L844.4426,271.6328 Q843.8176,271.0547 843.2239,270.7891 Q842.6301,270.5078 842.0051,270.5078 Q840.6614,270.5078 839.9739,271.5859 Q839.2864,272.6484 839.2864,274.7422 Q839.2864,276.8359 839.9739,277.9141 Q840.6614,278.9766 842.0051,278.9766 Q842.6301,278.9766 843.2239,278.7109 Q843.8176,278.4297 844.4426,277.8516 L844.4426,280.5703 Z " fill="#000000"/><text fill="#000000" font-family="sans-serif" font-size="12" font-style="italic" lengthAdjust="spacing" textLength="61.0605" x="899.533" y="270.9355">&#171;process&#187;</text><text fill="#000000" font-family="sans-serif" font-size="14" lengthAdjust="spacing" textLength="136.1787" x="861.9739" y="286.7607">NAD_00028_proc_1</text><line style="stroke:#181818;stroke-width:0.5;" x1="538.49" x2="1289.1365" y1="295.0625" y2="295.0625"/><text fill="#000000" font-family="sans-serif" font-size="14" lengthAdjust="spacing" textLength="180.3457" x="543.49" y="312.0576">Netznutzungsabrechnung</text><text fill="#000000" font-family="sans-serif" font-size="14" lengthAdjust="spacing" textLength="218.0938" x="543.49" y="328.3545">Gesetze: StromNEV, StromNZV</text><text fill="#000000" font-family="sans-serif" font-size="14" lengthAdjust="spacing" textLength="740.6465" x="543.49" y="344.6514">Zusammenfassung: Wie funktioniert die Netznutzungsabrechnung zwischen Netzbetreiber und Lieferant?</text><line style="stroke:#181818;stroke-width:0.5;" x1="538.49" x2="1289.1365" y1="351.9531" y2="351.9531"/></g><!--class NAD_00028_proc_2--><g class="entity" data-entity="NAD_00028_proc_2" data-source-line="23" data-uid="ent0007" id="entity_NAD_00028_proc_2"><rect fill="#F1F1F1" height="105.1563" rx="2.5" ry="2.5" style="stroke:#181818;stroke-width:0.5;" width="690.2275" x="1324.7" y="254.7969"/><ellipse cx="1597.4744" cy="274.9297" fill="#ADD1B2" rx="11" ry="11" style="stroke:#181818;stroke-width:1;"/><path d="M1600.4432,280.5703 Q1599.865,280.8672 1599.2244,281.0078 Q1598.5838,281.1641 1597.8807,281.1641 Q1595.3807,281.1641 1594.0525,279.5234 Q1592.74,277.8672 1592.74,274.7422 Q1592.74,271.6172 1594.0525,269.9609 Q1595.3807,268.3047 1597.8807,268.3047 Q1598.5838,268.3047 1599.2244,268.4609 Q1599.8807,268.6172 1600.4432,268.9141 L1600.4432,271.6328 Q1599.8182,271.0547 1599.2244,270.7891 Q1598.6307,270.5078 1598.0057,270.5078 Q1596.6619,270.5078 1595.9744,271.5859 Q1595.2869,272.6484 1595.2869,274.7422 Q1595.2869,276.8359 1595.9744,277.9141 Q1596.6619,278.9766 1598.0057,278.9766 Q1598.6307,278.9766 1599.2244,278.7109 Q1599.8182,278.4297 1600.4432,277.8516 L1600.4432,280.5703 Z " fill="#000000"/><text fill="#000000" font-family="sans-serif" font-size="12" font-style="italic" lengthAdjust="spacing" textLength="61.0605" x="1655.5335" y="270.9355">&#171;process&#187;</text><text fill="#000000" font-family="sans-serif" font-size="14" lengthAdjust="spacing" textLength="136.1787" x="1617.9744" y="286.7607">NAD_00028_proc_2</text><line style="stroke:#181818;stroke-width:0.5;" x1="1325.7" x2="2013.9275" y1="295.0625" y2="295.0625"/><text fill="#000000" font-family="sans-serif" font-size="14" lengthAdjust="spacing" textLength="223.2822" x="1330.7" y="312.0576">Messstellenbetriebsabrechnung</text><text fill="#000000" font-family="sans-serif" font-size="14" lengthAdjust="spacing" textLength="105.0957" x="1330.7" y="328.3545">Gesetze: MsbG</text><text fill="#000000" font-family="sans-serif" font-size="14" lengthAdjust="spacing" textLength="678.2275" x="1330.7" y="344.6514">Zusammenfassung: Beschreibe den Prozess der Abrechnung von Messstellenbetriebsleistungen.</text><line style="stroke:#181818;stroke-width:0.5;" x1="1325.7" x2="2013.9275" y1="351.9531" y2="351.9531"/></g><!--link NAD_00028 to NAD_00028_msg_1--><g class="link" data-entity-1="NAD_00028" data-entity-2="NAD_00028_msg_1" data-source-line="16" data-uid="lnk4" id="link_NAD_00028_NAD_00028_msg_1"><path codeLine="16" d="M758.89,149.9669 C678.13,175.0269 583.4304,204.4087 493.5204,232.3087" fill="none" id="NAD_00028-to-NAD_00028_msg_1" style="stroke:#181818;stroke-width:1;"/><polygon fill="#181818" points="487.79,234.0869,497.5711,235.2398,492.5654,232.605,495.2002,227.5993,487.79,234.0869" style="stroke:#181818;stroke-width:1;"/><text fill="#000000" font-family="sans-serif" font-size="13" lengthAdjust="spacing" textLength="85.2363" x="624.81" y="200.5538">verwendet in</text></g><!--link NAD_00028 to NAD_00028_proc_1--><g class="link" data-entity-1="NAD_00028" data-entity-2="NAD_00028_proc_1" data-source-line="22" data-uid="lnk6" id="link_NAD_00028_NAD_00028_proc_1"><path codeLine="22" d="M913.81,157.7669 C913.81,187.9169 913.81,218.9069 913.81,248.4269" fill="none" id="NAD_00028-to-NAD_00028_proc_1" style="stroke:#181818;stroke-width:1;stroke-dasharray:7,7;"/><polygon fill="#181818" points="913.81,254.4269,917.81,245.4269,913.81,249.4269,909.81,245.4269,913.81,254.4269" style="stroke:#181818;stroke-width:1;"/><text fill="#000000" font-family="sans-serif" font-size="13" lengthAdjust="spacing" textLength="91.6221" x="914.81" y="200.5538">eingebettet in</text></g><!--link NAD_00028 to NAD_00028_proc_2--><g class="link" data-entity-1="NAD_00028" data-entity-2="NAD_00028_proc_2" data-source-line="28" data-uid="lnk8" id="link_NAD_00028_NAD_00028_proc_2"><path codeLine="28" d="M1068.62,143.7669 C1186.99,175.7769 1345.0482,218.5301 1471.8082,252.8201" fill="none" id="NAD_00028-to-NAD_00028_proc_2" style="stroke:#181818;stroke-width:1;stroke-dasharray:7,7;"/><polygon fill="#181818" points="1477.6,254.3869,1469.9568,248.1755,1472.7735,253.0812,1467.8678,255.898,1477.6,254.3869" style="stroke:#181818;stroke-width:1;"/><text fill="#000000" font-family="sans-serif" font-size="13" lengthAdjust="spacing" textLength="91.6221" x="1292.81" y="200.5538">eingebettet in</text></g><!--SRC=[XLDTQzj047pFhzWV40j5bE8UmSLDYd4Rkoq55_8Y9Dt8FYAjmjqgAIxzxzrpd8zMJlssDpFipgnMugG1NHO2BgGf0ereERqqQPfcuvDAWH3V-UvDlqw8baKBGrFh4GB8mjCLN92Urm6-z8xNMghkg- -sKMAqfjWLikLUjb5Ob1xLXX-4aLoeCWYQ1bn2l4FvKlFxNoDv6zRvsTvEjV6kseYX-NBrPNv1MJAsYJAVEnRyLFn90WxY-nlfVVHNDn6hqLX3dmf5BZgBOEAKb_PVCNvwn3FHjpvoZxRonNoMP_dOvdcMPc_IjsVlabjRQxRdzOv6aq56GtVmzs0B8SU3HTpwhbBL-NairD1ayh2LrvOzGr1ANNqNtxNBZwlJVNMzKlQw3qNRWciTedf3Fnoexlb6NCSENiWgSBWvRUzTg3RW7Hyt0bVgTVHiwSgXXYzOtl-LDqacmoY6e3S4RI3_YPmD8X_x74_95w6S7Shw0Mf_PrglcXyFO7VXq-UKTnqV6jNi_m5mSYnYDeZu1m00]--></g></svg>