<svg xmlns="http://www.w3.org/2000/svg" xmlns:xlink="http://www.w3.org/1999/xlink" contentStyleType="text/css" data-diagram-type="CLASS" height="403px" preserveAspectRatio="none" style="width:4464px;height:403px;background:#FFFFFF;" version="1.1" viewBox="0 0 4464 403" width="4464px" zoomAndPan="magnify"><title>Datenatlas - NAD:0160</title><defs/><g><g class="title" data-source-line="1"><text fill="#000000" font-family="sans-serif" font-size="14" font-weight="bold" lengthAdjust="spacing" textLength="180.2363" x="2135.1716" y="22.9951">Datenatlas - NAD:0160</text></g><!--class NAD_0160--><g class="entity" data-entity="NAD_0160" data-source-line="2" data-uid="ent0002" id="entity_NAD_0160"><rect fill="#F1F1F1" height="129.4844" rx="2.5" ry="2.5" style="stroke:#181818;stroke-width:0.5;" width="374.2021" x="1640.3" y="44.2969"/><ellipse cx="1786.4216" cy="60.2969" fill="#ADD1B2" rx="11" ry="11" style="stroke:#181818;stroke-width:1;"/><path d="M1789.3903,65.9375 Q1788.8122,66.2344 1788.1716,66.375 Q1787.531,66.5313 1786.8278,66.5313 Q1784.3278,66.5313 1782.9997,64.8906 Q1781.6872,63.2344 1781.6872,60.1094 Q1781.6872,56.9844 1782.9997,55.3281 Q1784.3278,53.6719 1786.8278,53.6719 Q1787.531,53.6719 1788.1716,53.8281 Q1788.8278,53.9844 1789.3903,54.2813 L1789.3903,57 Q1788.7653,56.4219 1788.1716,56.1563 Q1787.5778,55.875 1786.9528,55.875 Q1785.6091,55.875 1784.9216,56.9531 Q1784.2341,58.0156 1784.2341,60.1094 Q1784.2341,62.2031 1784.9216,63.2813 Q1785.6091,64.3438 1786.9528,64.3438 Q1787.5778,64.3438 1788.1716,64.0781 Q1788.7653,63.7969 1789.3903,63.2188 L1789.3903,65.9375 Z " fill="#000000"/><text fill="#000000" font-family="sans-serif" font-size="14" lengthAdjust="spacing" textLength="73.459" x="1806.9216" y="65.1436">NAD_0160</text><line style="stroke:#181818;stroke-width:0.5;" x1="1641.3" x2="2013.5021" y1="76.2969" y2="76.2969"/><text fill="#000000" font-family="sans-serif" font-size="14" lengthAdjust="spacing" textLength="181.3096" x="1660.3" y="93.292">Name: MP - ID Empf&#228;nger</text><text fill="#000000" font-family="sans-serif" font-size="14" lengthAdjust="spacing" textLength="66.6436" x="1660.3" y="109.5889">Prozesse:</text><rect fill="none" height="6" style="stroke:#C82930;stroke-width:1;" width="6" x="1648.3" y="119.5391"/><text fill="#000000" font-family="sans-serif" font-size="14" lengthAdjust="spacing" textLength="317.9668" x="1660.3" y="125.8857">Sperrung und Entsperrung eines Anschlusses</text><rect fill="none" height="6" style="stroke:#C82930;stroke-width:1;" width="6" x="1648.3" y="135.8359"/><text fill="#000000" font-family="sans-serif" font-size="14" lengthAdjust="spacing" textLength="158.0127" x="1660.3" y="142.1826">Stammdaten&#228;nderung</text><line style="stroke:#181818;stroke-width:0.5;" x1="1641.3" x2="2013.5021" y1="149.4844" y2="149.4844"/><rect fill="#F24D5C" height="6" style="stroke:#C82930;stroke-width:1;" width="6" x="1648.3" y="160.1328"/><text fill="#000000" font-family="sans-serif" font-size="14" lengthAdjust="spacing" textLength="348.2021" x="1660.3" y="166.4795">Bestellung einer technischen Konfiguration (MSB)</text></g><!--class NAD_0160_msg_1--><g class="entity" data-entity="NAD_0160_msg_1" data-source-line="9" data-uid="ent0003" id="entity_NAD_0160_msg_1"><rect fill="#F1F1F1" height="129.4844" rx="2.5" ry="2.5" style="stroke:#181818;stroke-width:0.5;" width="426.8115" x="7" y="258.9369"/><ellipse cx="153.0635" cy="274.9369" fill="#ADD1B2" rx="11" ry="11" style="stroke:#181818;stroke-width:1;"/><path d="M156.0322,280.5775 Q155.4541,280.8744 154.8135,281.015 Q154.1729,281.1713 153.4697,281.1713 Q150.9697,281.1713 149.6416,279.5306 Q148.3291,277.8744 148.3291,274.7494 Q148.3291,271.6244 149.6416,269.9681 Q150.9697,268.3119 153.4697,268.3119 Q154.1729,268.3119 154.8135,268.4681 Q155.4697,268.6244 156.0322,268.9213 L156.0322,271.64 Q155.4072,271.0619 154.8135,270.7963 Q154.2197,270.515 153.5947,270.515 Q152.251,270.515 151.5635,271.5931 Q150.876,272.6556 150.876,274.7494 Q150.876,276.8431 151.5635,277.9213 Q152.251,278.9838 153.5947,278.9838 Q154.2197,278.9838 154.8135,278.7181 Q155.4072,278.4369 156.0322,277.8588 L156.0322,280.5775 Z " fill="#000000"/><text fill="#000000" font-family="sans-serif" font-size="14" lengthAdjust="spacing" textLength="126.1846" x="173.5635" y="279.7836">NAD_0160_msg_1</text><line style="stroke:#181818;stroke-width:0.5;" x1="8" x2="432.8115" y1="290.9369" y2="290.9369"/><text fill="#000000" font-family="sans-serif" font-size="14" lengthAdjust="spacing" textLength="165.8877" x="13" y="307.932">Nachricht: ORDCHG 1.1</text><text fill="#000000" font-family="sans-serif" font-size="14" lengthAdjust="spacing" textLength="204.1143" x="13" y="324.2289">Kontext: Nachrichtenstruktur</text><text fill="#000000" font-family="sans-serif" font-size="14" lengthAdjust="spacing" textLength="91.4033" x="13" y="340.5257">Pflichtfeld: Ja</text><text fill="#000000" font-family="sans-serif" font-size="14" lengthAdjust="spacing" textLength="136.3633" x="13" y="356.8226">Codes: ID, MP, NAD</text><text fill="#000000" font-family="sans-serif" font-size="14" lengthAdjust="spacing" textLength="414.8115" x="13" y="373.1195">Quelle: ORDCHG_MIG_1_1_au&#223;erordentliche_20240726.pdf</text><line style="stroke:#181818;stroke-width:0.5;" x1="8" x2="432.8115" y1="380.4213" y2="380.4213"/></g><!--class NAD_0160_msg_2--><g class="entity" data-entity="NAD_0160_msg_2" data-source-line="17" data-uid="ent0005" id="entity_NAD_0160_msg_2"><rect fill="#F1F1F1" height="145.7813" rx="2.5" ry="2.5" style="stroke:#181818;stroke-width:0.5;" width="758.1631" x="468.32" y="250.7869"/><ellipse cx="780.0593" cy="266.7869" fill="#ADD1B2" rx="11" ry="11" style="stroke:#181818;stroke-width:1;"/><path d="M783.028,272.4275 Q782.4499,272.7244 781.8093,272.865 Q781.1686,273.0213 780.4655,273.0213 Q777.9655,273.0213 776.6374,271.3806 Q775.3249,269.7244 775.3249,266.5994 Q775.3249,263.4744 776.6374,261.8181 Q777.9655,260.1619 780.4655,260.1619 Q781.1686,260.1619 781.8093,260.3181 Q782.4655,260.4744 783.028,260.7713 L783.028,263.49 Q782.403,262.9119 781.8093,262.6463 Q781.2155,262.365 780.5905,262.365 Q779.2468,262.365 778.5593,263.4431 Q777.8718,264.5056 777.8718,266.5994 Q777.8718,268.6931 778.5593,269.7713 Q779.2468,270.8338 780.5905,270.8338 Q781.2155,270.8338 781.8093,270.5681 Q782.403,270.2869 783.028,269.7088 L783.028,272.4275 Z " fill="#000000"/><text fill="#000000" font-family="sans-serif" font-size="14" lengthAdjust="spacing" textLength="126.1846" x="800.5593" y="271.6336">NAD_0160_msg_2</text><line style="stroke:#181818;stroke-width:0.5;" x1="469.32" x2="1225.4831" y1="282.7869" y2="282.7869"/><text fill="#000000" font-family="sans-serif" font-size="14" lengthAdjust="spacing" textLength="161.793" x="474.32" y="299.782">Nachricht: ORDRSP 1.4</text><text fill="#000000" font-family="sans-serif" font-size="14" lengthAdjust="spacing" textLength="204.1143" x="474.32" y="316.0789">Kontext: Nachrichtenstruktur</text><text fill="#000000" font-family="sans-serif" font-size="14" lengthAdjust="spacing" textLength="91.4033" x="474.32" y="332.3757">Pflichtfeld: Ja</text><text fill="#000000" font-family="sans-serif" font-size="14" lengthAdjust="spacing" textLength="211.4492" x="474.32" y="348.6726">Codes: ID, MP, NAD, SG1, SG6</text><text fill="#000000" font-family="sans-serif" font-size="14" lengthAdjust="spacing" textLength="283.9307" x="474.32" y="364.9695">Quelle: ORDRSP_MIG_1_4_20240619.pdf</text><line style="stroke:#181818;stroke-width:0.5;" x1="469.32" x2="1225.4831" y1="372.2713" y2="372.2713"/><text fill="#000000" font-family="sans-serif" font-size="14" lengthAdjust="spacing" textLength="746.1631" x="474.32" y="389.2664">Prozesse: Bestellung einer technischen Konfiguration (MSB), Sperrung und Entsperrung eines Anschlusses</text></g><!--class NAD_0160_msg_3--><g class="entity" data-entity="NAD_0160_msg_3" data-source-line="26" data-uid="ent0007" id="entity_NAD_0160_msg_3"><rect fill="#F1F1F1" height="145.7813" rx="2.5" ry="2.5" style="stroke:#181818;stroke-width:0.5;" width="296.8604" x="1261.98" y="250.7869"/><ellipse cx="1343.0679" cy="266.7869" fill="#ADD1B2" rx="11" ry="11" style="stroke:#181818;stroke-width:1;"/><path d="M1346.0366,272.4275 Q1345.4585,272.7244 1344.8179,272.865 Q1344.1773,273.0213 1343.4741,273.0213 Q1340.9741,273.0213 1339.646,271.3806 Q1338.3335,269.7244 1338.3335,266.5994 Q1338.3335,263.4744 1339.646,261.8181 Q1340.9741,260.1619 1343.4741,260.1619 Q1344.1773,260.1619 1344.8179,260.3181 Q1345.4741,260.4744 1346.0366,260.7713 L1346.0366,263.49 Q1345.4116,262.9119 1344.8179,262.6463 Q1344.2241,262.365 1343.5991,262.365 Q1342.2554,262.365 1341.5679,263.4431 Q1340.8804,264.5056 1340.8804,266.5994 Q1340.8804,268.6931 1341.5679,269.7713 Q1342.2554,270.8338 1343.5991,270.8338 Q1344.2241,270.8338 1344.8179,270.5681 Q1345.4116,270.2869 1346.0366,269.7088 L1346.0366,272.4275 Z " fill="#000000"/><text fill="#000000" font-family="sans-serif" font-size="14" lengthAdjust="spacing" textLength="126.1846" x="1363.5679" y="271.6336">NAD_0160_msg_3</text><line style="stroke:#181818;stroke-width:0.5;" x1="1262.98" x2="1557.8404" y1="282.7869" y2="282.7869"/><text fill="#000000" font-family="sans-serif" font-size="14" lengthAdjust="spacing" textLength="162.7227" x="1267.98" y="299.782">Nachricht: PARTIN 1.0e</text><text fill="#000000" font-family="sans-serif" font-size="14" lengthAdjust="spacing" textLength="204.1143" x="1267.98" y="316.0789">Kontext: Nachrichtenstruktur</text><text fill="#000000" font-family="sans-serif" font-size="14" lengthAdjust="spacing" textLength="91.4033" x="1267.98" y="332.3757">Pflichtfeld: Ja</text><text fill="#000000" font-family="sans-serif" font-size="14" lengthAdjust="spacing" textLength="192.8965" x="1267.98" y="348.6726">Codes: 01, 10, 67, NAD, UN</text><text fill="#000000" font-family="sans-serif" font-size="14" lengthAdjust="spacing" textLength="229.1064" x="1267.98" y="364.9695">Prozesse: Stammdaten&#228;nderung</text><text fill="#000000" font-family="sans-serif" font-size="14" lengthAdjust="spacing" textLength="284.8604" x="1267.98" y="381.2664">Quelle: PARTIN_MIG_1_0e_20241001.pdf</text><line style="stroke:#181818;stroke-width:0.5;" x1="1262.98" x2="1557.8404" y1="388.5681" y2="388.5681"/></g><!--class NAD_0160_proc_1--><g class="entity" data-entity="NAD_0160_proc_1" data-source-line="35" data-uid="ent0009" id="entity_NAD_0160_proc_1"><rect fill="#F1F1F1" height="105.1563" rx="2.5" ry="2.5" style="stroke:#181818;stroke-width:0.5;" width="1301.9961" x="1593.41" y="271.0969"/><ellipse cx="2176.5223" cy="291.2297" fill="#ADD1B2" rx="11" ry="11" style="stroke:#181818;stroke-width:1;"/><path d="M2179.4911,296.8703 Q2178.9129,297.1672 2178.2723,297.3078 Q2177.6317,297.4641 2176.9286,297.4641 Q2174.4286,297.4641 2173.1004,295.8234 Q2171.7879,294.1672 2171.7879,291.0422 Q2171.7879,287.9172 2173.1004,286.2609 Q2174.4286,284.6047 2176.9286,284.6047 Q2177.6317,284.6047 2178.2723,284.7609 Q2178.9286,284.9172 2179.4911,285.2141 L2179.4911,287.9328 Q2178.8661,287.3547 2178.2723,287.0891 Q2177.6786,286.8078 2177.0536,286.8078 Q2175.7098,286.8078 2175.0223,287.8859 Q2174.3348,288.9484 2174.3348,291.0422 Q2174.3348,293.1359 2175.0223,294.2141 Q2175.7098,295.2766 2177.0536,295.2766 Q2177.6786,295.2766 2178.2723,295.0109 Q2178.8661,294.7297 2179.4911,294.1516 L2179.4911,296.8703 Z " fill="#000000"/><text fill="#000000" font-family="sans-serif" font-size="12" font-style="italic" lengthAdjust="spacing" textLength="61.0605" x="2230.1278" y="287.2355">&#171;process&#187;</text><text fill="#000000" font-family="sans-serif" font-size="14" lengthAdjust="spacing" textLength="127.2715" x="2197.0223" y="303.0607">NAD_0160_proc_1</text><line style="stroke:#181818;stroke-width:0.5;" x1="1594.41" x2="2894.4061" y1="311.3625" y2="311.3625"/><text fill="#000000" font-family="sans-serif" font-size="14" lengthAdjust="spacing" textLength="156.4063" x="1599.41" y="328.3576">Gesetze: MsbG, EnWG</text><text fill="#000000" font-family="sans-serif" font-size="14" lengthAdjust="spacing" textLength="1289.9961" x="1599.41" y="344.6545">Zusammenfassung: Erl&#228;utere den Prozess zur Bestellung einer spezifischen technischen Konfiguration bei einem Messstellenbetreiber, beispielsweise f&#252;r ein intelligentes Messsystem.</text><line style="stroke:#181818;stroke-width:0.5;" x1="1594.41" x2="2894.4061" y1="351.9562" y2="351.9562"/><text fill="#000000" font-family="sans-serif" font-size="14" lengthAdjust="spacing" textLength="348.2021" x="1599.41" y="368.9514">Bestellung einer technischen Konfiguration (MSB)</text></g><!--class NAD_0160_proc_2--><g class="entity" data-entity="NAD_0160_proc_2" data-source-line="41" data-uid="ent0011" id="entity_NAD_0160_proc_2"><rect fill="#F1F1F1" height="105.1563" rx="2.5" ry="2.5" style="stroke:#181818;stroke-width:0.5;" width="853.9893" x="2930.41" y="271.0969"/><ellipse cx="3289.5189" cy="291.2297" fill="#ADD1B2" rx="11" ry="11" style="stroke:#181818;stroke-width:1;"/><path d="M3292.4876,296.8703 Q3291.9095,297.1672 3291.2689,297.3078 Q3290.6283,297.4641 3289.9251,297.4641 Q3287.4251,297.4641 3286.097,295.8234 Q3284.7845,294.1672 3284.7845,291.0422 Q3284.7845,287.9172 3286.097,286.2609 Q3287.4251,284.6047 3289.9251,284.6047 Q3290.6283,284.6047 3291.2689,284.7609 Q3291.9251,284.9172 3292.4876,285.2141 L3292.4876,287.9328 Q3291.8626,287.3547 3291.2689,287.0891 Q3290.6751,286.8078 3290.0501,286.8078 Q3288.7064,286.8078 3288.0189,287.8859 Q3287.3314,288.9484 3287.3314,291.0422 Q3287.3314,293.1359 3288.0189,294.2141 Q3288.7064,295.2766 3290.0501,295.2766 Q3290.6751,295.2766 3291.2689,295.0109 Q3291.8626,294.7297 3292.4876,294.1516 L3292.4876,296.8703 Z " fill="#000000"/><text fill="#000000" font-family="sans-serif" font-size="12" font-style="italic" lengthAdjust="spacing" textLength="61.0605" x="3343.1244" y="287.2355">&#171;process&#187;</text><text fill="#000000" font-family="sans-serif" font-size="14" lengthAdjust="spacing" textLength="127.2715" x="3310.0189" y="303.0607">NAD_0160_proc_2</text><line style="stroke:#181818;stroke-width:0.5;" x1="2931.41" x2="3783.3993" y1="311.3625" y2="311.3625"/><text fill="#000000" font-family="sans-serif" font-size="14" lengthAdjust="spacing" textLength="317.9668" x="2936.41" y="328.3576">Sperrung und Entsperrung eines Anschlusses</text><text fill="#000000" font-family="sans-serif" font-size="14" lengthAdjust="spacing" textLength="138.3252" x="2936.41" y="344.6545">Gesetze: StromGVV</text><text fill="#000000" font-family="sans-serif" font-size="14" lengthAdjust="spacing" textLength="841.9893" x="2936.41" y="360.9514">Zusammenfassung: Beschreibe den End-to-End-Prozess f&#252;r die Sperrung und Wiederherstellung eines Netzanschlusses.</text><line style="stroke:#181818;stroke-width:0.5;" x1="2931.41" x2="3783.3993" y1="368.2531" y2="368.2531"/></g><!--class NAD_0160_proc_3--><g class="entity" data-entity="NAD_0160_proc_3" data-source-line="47" data-uid="ent0013" id="entity_NAD_0160_proc_3"><rect fill="#F1F1F1" height="88.8594" rx="2.5" ry="2.5" style="stroke:#181818;stroke-width:0.5;" width="638.3496" x="3819.23" y="279.2469"/><ellipse cx="4070.5191" cy="299.3797" fill="#ADD1B2" rx="11" ry="11" style="stroke:#181818;stroke-width:1;"/><path d="M4073.4878,305.0203 Q4072.9097,305.3172 4072.2691,305.4578 Q4071.6284,305.6141 4070.9253,305.6141 Q4068.4253,305.6141 4067.0972,303.9734 Q4065.7847,302.3172 4065.7847,299.1922 Q4065.7847,296.0672 4067.0972,294.4109 Q4068.4253,292.7547 4070.9253,292.7547 Q4071.6284,292.7547 4072.2691,292.9109 Q4072.9253,293.0672 4073.4878,293.3641 L4073.4878,296.0828 Q4072.8628,295.5047 4072.2691,295.2391 Q4071.6753,294.9578 4071.0503,294.9578 Q4069.7066,294.9578 4069.0191,296.0359 Q4068.3316,297.0984 4068.3316,299.1922 Q4068.3316,301.2859 4069.0191,302.3641 Q4069.7066,303.4266 4071.0503,303.4266 Q4071.6753,303.4266 4072.2691,303.1609 Q4072.8628,302.8797 4073.4878,302.3016 L4073.4878,305.0203 Z " fill="#000000"/><text fill="#000000" font-family="sans-serif" font-size="12" font-style="italic" lengthAdjust="spacing" textLength="61.0605" x="4124.1245" y="295.3855">&#171;process&#187;</text><text fill="#000000" font-family="sans-serif" font-size="14" lengthAdjust="spacing" textLength="127.2715" x="4091.0191" y="311.2107">NAD_0160_proc_3</text><line style="stroke:#181818;stroke-width:0.5;" x1="3820.23" x2="4456.5796" y1="319.5125" y2="319.5125"/><text fill="#000000" font-family="sans-serif" font-size="14" lengthAdjust="spacing" textLength="158.0127" x="3825.23" y="336.5076">Stammdaten&#228;nderung</text><text fill="#000000" font-family="sans-serif" font-size="14" lengthAdjust="spacing" textLength="626.3496" x="3825.23" y="352.8045">Zusammenfassung: Wie wird eine Stammdaten&#228;nderung an einer Marktlokation, wie z.B.</text><line style="stroke:#181818;stroke-width:0.5;" x1="3820.23" x2="4456.5796" y1="360.1063" y2="360.1063"/></g><!--link NAD_0160 to NAD_0160_msg_1--><g class="link" data-entity-1="NAD_0160" data-entity-2="NAD_0160_msg_1" data-source-line="16" data-uid="lnk4" id="link_NAD_0160_NAD_0160_msg_1"><path codeLine="16" d="M1639.91,117.2669 C1373.23,130.2269 870.16,164.6469 450.41,250.7869 C439.34,253.0569 433.8727,254.1989 422.5327,257.0189" fill="none" id="NAD_0160-to-NAD_0160_msg_1" style="stroke:#181818;stroke-width:1;"/><polygon fill="#181818" points="416.71,258.4669,426.4093,260.1767,421.5622,257.2602,424.4787,252.4132,416.71,258.4669" style="stroke:#181818;stroke-width:1;"/><text fill="#000000" font-family="sans-serif" font-size="13" lengthAdjust="spacing" textLength="85.2363" x="712.41" y="216.8538">verwendet in</text></g><!--link NAD_0160 to NAD_0160_msg_2--><g class="link" data-entity-1="NAD_0160" data-entity-2="NAD_0160_msg_2" data-source-line="25" data-uid="lnk6" id="link_NAD_0160_NAD_0160_msg_2"><path codeLine="25" d="M1639.9,150.7269 C1510.15,178.8769 1339.7836,215.8446 1186.4536,249.1146" fill="none" id="NAD_0160-to-NAD_0160_msg_2" style="stroke:#181818;stroke-width:1;"/><polygon fill="#181818" points="1180.59,250.3869,1190.2335,252.3875,1185.4763,249.3266,1188.5371,244.5694,1180.59,250.3869" style="stroke:#181818;stroke-width:1;"/><text fill="#000000" font-family="sans-serif" font-size="13" lengthAdjust="spacing" textLength="85.2363" x="1368.41" y="216.8538">verwendet in</text></g><!--link NAD_0160 to NAD_0160_msg_3--><g class="link" data-entity-1="NAD_0160" data-entity-2="NAD_0160_msg_3" data-source-line="34" data-uid="lnk8" id="link_NAD_0160_NAD_0160_msg_3"><path codeLine="34" d="M1701.44,174.2769 C1654.33,198.2969 1605.8552,223.0113 1557.4152,247.7113" fill="none" id="NAD_0160-to-NAD_0160_msg_3" style="stroke:#181818;stroke-width:1;"/><polygon fill="#181818" points="1552.07,250.4369,1561.9049,249.912,1556.5243,248.1656,1558.2708,242.785,1552.07,250.4369" style="stroke:#181818;stroke-width:1;"/><text fill="#000000" font-family="sans-serif" font-size="13" lengthAdjust="spacing" textLength="85.2363" x="1633.41" y="216.8538">verwendet in</text></g><!--link NAD_0160 to NAD_0160_proc_1--><g class="link" data-entity-1="NAD_0160" data-entity-2="NAD_0160_proc_1" data-source-line="40" data-uid="lnk10" id="link_NAD_0160_NAD_0160_proc_1"><path codeLine="40" d="M1953.37,174.2769 C2013.91,205.1469 2080.175,238.9309 2137.215,268.0209" fill="none" id="NAD_0160-to-NAD_0160_proc_1" style="stroke:#181818;stroke-width:1;stroke-dasharray:7,7;"/><polygon fill="#181818" points="2142.56,270.7469,2136.3597,263.0946,2138.1058,268.4753,2132.7252,270.2213,2142.56,270.7469" style="stroke:#181818;stroke-width:1;"/><text fill="#000000" font-family="sans-serif" font-size="13" lengthAdjust="spacing" textLength="91.6221" x="2037.41" y="216.8538">eingebettet in</text></g><!--link NAD_0160 to NAD_0160_proc_2--><g class="link" data-entity-1="NAD_0160" data-entity-2="NAD_0160_proc_2" data-source-line="46" data-uid="lnk12" id="link_NAD_0160_NAD_0160_proc_2"><path codeLine="46" d="M2014.85,132.5569 C2231.33,158.9769 2598.04,205.0169 2912.41,250.7869 C2954.71,256.9469 2993.2927,262.8155 3037.1427,269.7055" fill="none" id="NAD_0160-to-NAD_0160_proc_2" style="stroke:#181818;stroke-width:1;stroke-dasharray:7,7;"/><polygon fill="#181818" points="3043.07,270.6369,3034.8,265.2884,3038.1306,269.8608,3033.5582,273.1914,3043.07,270.6369" style="stroke:#181818;stroke-width:1;"/><text fill="#000000" font-family="sans-serif" font-size="13" lengthAdjust="spacing" textLength="91.6221" x="2676.41" y="216.8538">eingebettet in</text></g><!--link NAD_0160 to NAD_0160_proc_3--><g class="link" data-entity-1="NAD_0160" data-entity-2="NAD_0160_proc_3" data-source-line="51" data-uid="lnk14" id="link_NAD_0160_NAD_0160_proc_3"><path codeLine="51" d="M2014.75,114.7369 C2366.49,125.4569 3149.1,158.4069 3801.41,250.7869 C3851.61,257.8969 3899.6316,266.9273 3949.2716,277.4973" fill="none" id="NAD_0160-to-NAD_0160_proc_3" style="stroke:#181818;stroke-width:1;stroke-dasharray:7,7;"/><polygon fill="#181818" points="3955.14,278.7469,3947.1704,272.9602,3950.2496,277.7056,3945.5043,280.7848,3955.14,278.7469" style="stroke:#181818;stroke-width:1;"/><text fill="#000000" font-family="sans-serif" font-size="13" lengthAdjust="spacing" textLength="91.6221" x="3536.41" y="216.8538">eingebettet in</text></g><!--SRC=[hPJFZjem4CRlFCKSMocW921MZLP8iA2KLb0AxQxK2mh995Wa3hATqbBrMNhPn-YD5-iu19O_MR6q5HBO4y_Cz_qyGJ4L8tGzXTnJiIUX2iDsrp6jfbdnQI_rTggtyAC2CFGIT60mecFzBlIIPRXvv14AUZGIwHgbH8VMGCyxA1N6SSOZGCPHW49_pfdqvyZXVSf35cN2Kopby6emwRmkqYPB548dPJo07bTojzT59BGv5OWpwYDt2SfBaa0R82a1whELdoVQfucCfbRXm9yBvi-L0n_6tRktBbWrY-AaIE4tYkuF89TAP0kLvUx2MCT2Z0C7tdaKkKi3b0vXC8Y7eLjHy6D6bd5NUZhekrEBFbws-OKY5G5ofUlWr3RjXdbZDslB82IvUyZLQkjKjGDVKQoGl2bWlCoPNU9iF1cHiyR_SMR0nBNqL_Fmeg- -OkEwsps0IMuAc8qjkgRrvY8w-mNewgVeHktnf_wGq9du3-nCecMP1ZHl2dwVXqVaoeRsoV1MGs7Ot0wBPPhMHSVr2uwN8lLfecvlzOAKj5gv_RzuLLsKgDRwlq3EN8Ekyi6bw9TCaY_a8NMbQWxqHBnvp1GA19hz7G1OP-AyASt2ceL5r-SLp93b2GaCg5HU0_aCbK0sGs7evtB9C9OhMY24czz2doSQ-YYBw1MaISjplrDsKZiaMgkrpcWvEZr2Qg6UXsgVGRrgrFSu9qgaYNj_NmQJYD4GQfivp1uFgYgjwfyTrznimF2u-GD36h4vYYFWv81QUayoBe2mNmQYVWwYTDRFt95AM34HvEBAai3ZnQGCFB5GSRh81yAWB8HrhND1V_rC_ny0]--></g></svg>