<svg xmlns="http://www.w3.org/2000/svg" xmlns:xlink="http://www.w3.org/1999/xlink" contentStyleType="text/css" data-diagram-type="CLASS" height="370px" preserveAspectRatio="none" style="width:1224px;height:370px;background:#FFFFFF;" version="1.1" viewBox="0 0 1224 370" width="1224px" zoomAndPan="magnify"><title>Datenatlas - NAD:9</title><defs/><g><g class="title" data-source-line="1"><text fill="#000000" font-family="sans-serif" font-size="14" font-weight="bold" lengthAdjust="spacing" textLength="151.0127" x="529.8869" y="22.9951">Datenatlas - NAD:9</text></g><!--class NAD_9--><g class="entity" data-entity="NAD_9" data-source-line="2" data-uid="ent0002" id="entity_NAD_9"><rect fill="#F1F1F1" height="96.8906" rx="2.5" ry="2.5" style="stroke:#181818;stroke-width:0.5;" width="259.6045" x="399.66" y="44.2969"/><ellipse cx="501.8436" cy="60.2969" fill="#ADD1B2" rx="11" ry="11" style="stroke:#181818;stroke-width:1;"/><path d="M504.8123,65.9375 Q504.2342,66.2344 503.5936,66.375 Q502.953,66.5313 502.2498,66.5313 Q499.7498,66.5313 498.4217,64.8906 Q497.1092,63.2344 497.1092,60.1094 Q497.1092,56.9844 498.4217,55.3281 Q499.7498,53.6719 502.2498,53.6719 Q502.953,53.6719 503.5936,53.8281 Q504.2498,53.9844 504.8123,54.2813 L504.8123,57 Q504.1873,56.4219 503.5936,56.1563 Q502.9998,55.875 502.3748,55.875 Q501.0311,55.875 500.3436,56.9531 Q499.6561,58.0156 499.6561,60.1094 Q499.6561,62.2031 500.3436,63.2813 Q501.0311,64.3438 502.3748,64.3438 Q502.9998,64.3438 503.5936,64.0781 Q504.1873,63.7969 504.8123,63.2188 L504.8123,65.9375 Z " fill="#000000"/><text fill="#000000" font-family="sans-serif" font-size="14" lengthAdjust="spacing" textLength="46.7373" x="522.3436" y="65.1436">NAD_9</text><line style="stroke:#181818;stroke-width:0.5;" x1="400.66" x2="658.2645" y1="76.2969" y2="76.2969"/><text fill="#000000" font-family="sans-serif" font-size="14" lengthAdjust="spacing" textLength="233.6045" x="419.66" y="93.292">Name: Code f&#252;r die Sparte Strom</text><text fill="#000000" font-family="sans-serif" font-size="14" lengthAdjust="spacing" textLength="66.6436" x="419.66" y="109.5889">Prozesse:</text><rect fill="none" height="6" style="stroke:#C82930;stroke-width:1;" width="6" x="407.66" y="119.5391"/><text fill="#000000" font-family="sans-serif" font-size="14" lengthAdjust="spacing" textLength="180.3457" x="419.66" y="125.8857">Netznutzungsabrechnung</text><line style="stroke:#181818;stroke-width:0.5;" x1="400.66" x2="658.2645" y1="133.1875" y2="133.1875"/></g><!--class NAD_9_msg_1--><g class="entity" data-entity="NAD_9_msg_1" data-source-line="7" data-uid="ent0003" id="entity_NAD_9_msg_1"><rect fill="#F1F1F1" height="145.7813" rx="2.5" ry="2.5" style="stroke:#181818;stroke-width:0.5;" width="422.9219" x="7" y="218.1869"/><ellipse cx="164.4795" cy="234.1869" fill="#ADD1B2" rx="11" ry="11" style="stroke:#181818;stroke-width:1;"/><path d="M167.4482,239.8275 Q166.8701,240.1244 166.2295,240.265 Q165.5889,240.4213 164.8857,240.4213 Q162.3857,240.4213 161.0576,238.7806 Q159.7451,237.1244 159.7451,233.9994 Q159.7451,230.8744 161.0576,229.2181 Q162.3857,227.5619 164.8857,227.5619 Q165.5889,227.5619 166.2295,227.7181 Q166.8857,227.8744 167.4482,228.1713 L167.4482,230.89 Q166.8232,230.3119 166.2295,230.0463 Q165.6357,229.765 165.0107,229.765 Q163.667,229.765 162.9795,230.8431 Q162.292,231.9056 162.292,233.9994 Q162.292,236.0931 162.9795,237.1713 Q163.667,238.2338 165.0107,238.2338 Q165.6357,238.2338 166.2295,237.9681 Q166.8232,237.6869 167.4482,237.1088 L167.4482,239.8275 Z " fill="#000000"/><text fill="#000000" font-family="sans-serif" font-size="14" lengthAdjust="spacing" textLength="99.4629" x="184.9795" y="239.0336">NAD_9_msg_1</text><line style="stroke:#181818;stroke-width:0.5;" x1="8" x2="428.9219" y1="250.1869" y2="250.1869"/><text fill="#000000" font-family="sans-serif" font-size="14" lengthAdjust="spacing" textLength="161.998" x="13" y="267.182">Nachricht: INSRPT 1.1a</text><text fill="#000000" font-family="sans-serif" font-size="14" lengthAdjust="spacing" textLength="123.0605" x="13" y="283.4789">Kontext: Beispiel:</text><text fill="#000000" font-family="sans-serif" font-size="14" lengthAdjust="spacing" textLength="91.4033" x="13" y="299.7757">Pflichtfeld: Ja</text><text fill="#000000" font-family="sans-serif" font-size="14" lengthAdjust="spacing" textLength="228.7646" x="13" y="316.0726">Codes: 07, 26, 293, 31, MS, NAD</text><text fill="#000000" font-family="sans-serif" font-size="14" lengthAdjust="spacing" textLength="251.4395" x="13" y="332.3695">Prozesse: Netznutzungsabrechnung</text><text fill="#000000" font-family="sans-serif" font-size="14" lengthAdjust="spacing" textLength="410.9219" x="13" y="348.6664">Quelle: INSRPT_MIG_1_1a_au&#223;erordentliche_20240726.pdf</text><line style="stroke:#181818;stroke-width:0.5;" x1="8" x2="428.9219" y1="355.9681" y2="355.9681"/></g><!--class NAD_9_proc_1--><g class="entity" data-entity="NAD_9_proc_1" data-source-line="16" data-uid="ent0005" id="entity_NAD_9_proc_1"><rect fill="#F1F1F1" height="105.1563" rx="2.5" ry="2.5" style="stroke:#181818;stroke-width:0.5;" width="752.6465" x="465.14" y="238.4969"/><ellipse cx="786.9383" cy="258.6297" fill="#ADD1B2" rx="11" ry="11" style="stroke:#181818;stroke-width:1;"/><path d="M789.9071,264.2703 Q789.329,264.5672 788.6883,264.7078 Q788.0477,264.8641 787.3446,264.8641 Q784.8446,264.8641 783.5165,263.2234 Q782.204,261.5672 782.204,258.4422 Q782.204,255.3172 783.5165,253.6609 Q784.8446,252.0047 787.3446,252.0047 Q788.0477,252.0047 788.6883,252.1609 Q789.3446,252.3172 789.9071,252.6141 L789.9071,255.3328 Q789.2821,254.7547 788.6883,254.4891 Q788.0946,254.2078 787.4696,254.2078 Q786.1258,254.2078 785.4383,255.2859 Q784.7508,256.3484 784.7508,258.4422 Q784.7508,260.5359 785.4383,261.6141 Q786.1258,262.6766 787.4696,262.6766 Q788.0946,262.6766 788.6883,262.4109 Q789.2821,262.1297 789.9071,261.5516 L789.9071,264.2703 Z " fill="#000000"/><text fill="#000000" font-family="sans-serif" font-size="12" font-style="italic" lengthAdjust="spacing" textLength="61.0605" x="827.183" y="254.6355">&#171;process&#187;</text><text fill="#000000" font-family="sans-serif" font-size="14" lengthAdjust="spacing" textLength="100.5498" x="807.4383" y="270.4607">NAD_9_proc_1</text><line style="stroke:#181818;stroke-width:0.5;" x1="466.14" x2="1216.7865" y1="278.7625" y2="278.7625"/><text fill="#000000" font-family="sans-serif" font-size="14" lengthAdjust="spacing" textLength="180.3457" x="471.14" y="295.7576">Netznutzungsabrechnung</text><text fill="#000000" font-family="sans-serif" font-size="14" lengthAdjust="spacing" textLength="218.0938" x="471.14" y="312.0545">Gesetze: StromNEV, StromNZV</text><text fill="#000000" font-family="sans-serif" font-size="14" lengthAdjust="spacing" textLength="740.6465" x="471.14" y="328.3514">Zusammenfassung: Wie funktioniert die Netznutzungsabrechnung zwischen Netzbetreiber und Lieferant?</text><line style="stroke:#181818;stroke-width:0.5;" x1="466.14" x2="1216.7865" y1="335.6531" y2="335.6531"/></g><!--link NAD_9 to NAD_9_msg_1--><g class="link" data-entity-1="NAD_9" data-entity-2="NAD_9_msg_1" data-source-line="15" data-uid="lnk4" id="link_NAD_9_NAD_9_msg_1"><path codeLine="15" d="M453.78,141.5169 C417.46,164.4469 378.2438,189.2043 337.9238,214.6543" fill="none" id="NAD_9-to-NAD_9_msg_1" style="stroke:#181818;stroke-width:1;"/><polygon fill="#181818" points="332.85,217.8569,342.5958,216.4355,337.0782,215.1881,338.3256,209.6705,332.85,217.8569" style="stroke:#181818;stroke-width:1;"/><text fill="#000000" font-family="sans-serif" font-size="13" lengthAdjust="spacing" textLength="85.2363" x="403.46" y="184.2538">verwendet in</text></g><!--link NAD_9 to NAD_9_proc_1--><g class="link" data-entity-1="NAD_9" data-entity-2="NAD_9_proc_1" data-source-line="21" data-uid="lnk6" id="link_NAD_9_NAD_9_proc_1"><path codeLine="21" d="M605.39,141.5169 C651.83,170.7469 706.192,204.951 753.812,234.921" fill="none" id="NAD_9-to-NAD_9_proc_1" style="stroke:#181818;stroke-width:1;stroke-dasharray:7,7;"/><polygon fill="#181818" points="758.89,238.1169,753.4036,229.9377,754.6583,235.4536,749.1424,236.7084,758.89,238.1169" style="stroke:#181818;stroke-width:1;"/><text fill="#000000" font-family="sans-serif" font-size="13" lengthAdjust="spacing" textLength="91.6221" x="677.46" y="184.2538">eingebettet in</text></g><!--SRC=[TL7HJi8m57tdA-u73CA6WT0GZ8eXg10KWmalIzdke77hblPE3CPlyKTyuyUy7MWWaOUcfxsdzvnpIufIX84ar99IQQ4Eawk1wDOYFbY7movyr00cCaC1DtcCaEo-3SGAOLP8GxoHoJEcJ4s-HMjHC0RN26chIzgMUcNbqc2qrWnhdyUzmyokGl-W4AsDYjOaO3IPFKsVmM_uaWltkIPyv-jhLBPGc3g1QP8wRe9fBE3EqPmtAw3PyI1ey-gsF6Zv7enddjCwDdZE6i1ZYMcAlmx2yMWO-g4lGrdklj3a9aPDJXZ3e1bSD3j1kr742MVQJwfUxv_a4l26PeCwHWAbJu8N9e-OqUivmAxw_VqKpZaRekKIMwl6FRcTUmUqc7DrKLgPPQWJ5c2-W1V-dwJKhwHohT1GzM7_DuVjHbcEfAlw4icWMgA1KiVme3118pLT_cLiDFgd4GIWqYlaXrJ5_040]--></g></svg>