<svg xmlns="http://www.w3.org/2000/svg" xmlns:xlink="http://www.w3.org/1999/xlink" contentStyleType="text/css" data-diagram-type="CLASS" height="370px" preserveAspectRatio="none" style="width:984px;height:370px;background:#FFFFFF;" version="1.1" viewBox="0 0 984 370" width="984px" zoomAndPan="magnify"><title>Datenatlas - NAD:00047</title><defs/><g><g class="title" data-source-line="1"><text fill="#000000" font-family="sans-serif" font-size="14" font-weight="bold" lengthAdjust="spacing" textLength="189.9775" x="390.316" y="22.9951">Datenatlas - NAD:00047</text></g><!--class NAD_00047--><g class="entity" data-entity="NAD_00047" data-source-line="2" data-uid="ent0002" id="entity_NAD_00047"><rect fill="#F1F1F1" height="96.8906" rx="2.5" ry="2.5" style="stroke:#181818;stroke-width:0.5;" width="215.6836" x="298.59" y="44.2969"/><ellipse cx="360.9987" cy="60.2969" fill="#ADD1B2" rx="11" ry="11" style="stroke:#181818;stroke-width:1;"/><path d="M363.9674,65.9375 Q363.3893,66.2344 362.7487,66.375 Q362.1081,66.5313 361.4049,66.5313 Q358.9049,66.5313 357.5768,64.8906 Q356.2643,63.2344 356.2643,60.1094 Q356.2643,56.9844 357.5768,55.3281 Q358.9049,53.6719 361.4049,53.6719 Q362.1081,53.6719 362.7487,53.8281 Q363.4049,53.9844 363.9674,54.2813 L363.9674,57 Q363.3424,56.4219 362.7487,56.1563 Q362.1549,55.875 361.5299,55.875 Q360.1862,55.875 359.4987,56.9531 Q358.8112,58.0156 358.8112,60.1094 Q358.8112,62.2031 359.4987,63.2813 Q360.1862,64.3438 361.5299,64.3438 Q362.1549,64.3438 362.7487,64.0781 Q363.3424,63.7969 363.9674,63.2188 L363.9674,65.9375 Z " fill="#000000"/><text fill="#000000" font-family="sans-serif" font-size="14" lengthAdjust="spacing" textLength="82.3662" x="381.4987" y="65.1436">NAD_00047</text><line style="stroke:#181818;stroke-width:0.5;" x1="299.59" x2="513.2736" y1="76.2969" y2="76.2969"/><text fill="#000000" font-family="sans-serif" font-size="14" lengthAdjust="spacing" textLength="189.6836" x="318.59" y="93.292">Name: Name und Anschrift</text><text fill="#000000" font-family="sans-serif" font-size="14" lengthAdjust="spacing" textLength="66.6436" x="318.59" y="109.5889">Prozesse:</text><rect fill="none" height="6" style="stroke:#C82930;stroke-width:1;" width="6" x="306.59" y="119.5391"/><text fill="#000000" font-family="sans-serif" font-size="14" lengthAdjust="spacing" textLength="158.0127" x="318.59" y="125.8857">Stammdaten&#228;nderung</text><line style="stroke:#181818;stroke-width:0.5;" x1="299.59" x2="513.2736" y1="133.1875" y2="133.1875"/></g><!--class NAD_00047_msg_1--><g class="entity" data-entity="NAD_00047_msg_1" data-source-line="7" data-uid="ent0003" id="entity_NAD_00047_msg_1"><rect fill="#F1F1F1" height="145.7813" rx="2.5" ry="2.5" style="stroke:#181818;stroke-width:0.5;" width="296.8604" x="7" y="218.1869"/><ellipse cx="83.6343" cy="234.1869" fill="#ADD1B2" rx="11" ry="11" style="stroke:#181818;stroke-width:1;"/><path d="M86.603,239.8275 Q86.0249,240.1244 85.3843,240.265 Q84.7437,240.4213 84.0405,240.4213 Q81.5405,240.4213 80.2124,238.7806 Q78.8999,237.1244 78.8999,233.9994 Q78.8999,230.8744 80.2124,229.2181 Q81.5405,227.5619 84.0405,227.5619 Q84.7437,227.5619 85.3843,227.7181 Q86.0405,227.8744 86.603,228.1713 L86.603,230.89 Q85.978,230.3119 85.3843,230.0463 Q84.7905,229.765 84.1655,229.765 Q82.8218,229.765 82.1343,230.8431 Q81.4468,231.9056 81.4468,233.9994 Q81.4468,236.0931 82.1343,237.1713 Q82.8218,238.2338 84.1655,238.2338 Q84.7905,238.2338 85.3843,237.9681 Q85.978,237.6869 86.603,237.1088 L86.603,239.8275 Z " fill="#000000"/><text fill="#000000" font-family="sans-serif" font-size="14" lengthAdjust="spacing" textLength="135.0918" x="104.1343" y="239.0336">NAD_00047_msg_1</text><line style="stroke:#181818;stroke-width:0.5;" x1="8" x2="302.8604" y1="250.1869" y2="250.1869"/><text fill="#000000" font-family="sans-serif" font-size="14" lengthAdjust="spacing" textLength="162.7227" x="13" y="267.182">Nachricht: PARTIN 1.0e</text><text fill="#000000" font-family="sans-serif" font-size="14" lengthAdjust="spacing" textLength="204.1143" x="13" y="283.4789">Kontext: Nachrichtenstruktur</text><text fill="#000000" font-family="sans-serif" font-size="14" lengthAdjust="spacing" textLength="91.4033" x="13" y="299.7757">Pflichtfeld: Ja</text><text fill="#000000" font-family="sans-serif" font-size="14" lengthAdjust="spacing" textLength="192.8965" x="13" y="316.0726">Codes: 01, 10, 67, NAD, UN</text><text fill="#000000" font-family="sans-serif" font-size="14" lengthAdjust="spacing" textLength="229.1064" x="13" y="332.3695">Prozesse: Stammdaten&#228;nderung</text><text fill="#000000" font-family="sans-serif" font-size="14" lengthAdjust="spacing" textLength="284.8604" x="13" y="348.6664">Quelle: PARTIN_MIG_1_0e_20241001.pdf</text><line style="stroke:#181818;stroke-width:0.5;" x1="8" x2="302.8604" y1="355.9681" y2="355.9681"/></g><!--class NAD_00047_proc_1--><g class="entity" data-entity="NAD_00047_proc_1" data-source-line="16" data-uid="ent0005" id="entity_NAD_00047_proc_1"><rect fill="#F1F1F1" height="88.8594" rx="2.5" ry="2.5" style="stroke:#181818;stroke-width:0.5;" width="638.3496" x="339.26" y="246.6469"/><ellipse cx="586.0954" cy="266.7797" fill="#ADD1B2" rx="11" ry="11" style="stroke:#181818;stroke-width:1;"/><path d="M589.0642,272.4203 Q588.4861,272.7172 587.8454,272.8578 Q587.2048,273.0141 586.5017,273.0141 Q584.0017,273.0141 582.6736,271.3734 Q581.3611,269.7172 581.3611,266.5922 Q581.3611,263.4672 582.6736,261.8109 Q584.0017,260.1547 586.5017,260.1547 Q587.2048,260.1547 587.8454,260.3109 Q588.5017,260.4672 589.0642,260.7641 L589.0642,263.4828 Q588.4392,262.9047 587.8454,262.6391 Q587.2517,262.3578 586.6267,262.3578 Q585.2829,262.3578 584.5954,263.4359 Q583.9079,264.4984 583.9079,266.5922 Q583.9079,268.6859 584.5954,269.7641 Q585.2829,270.8266 586.6267,270.8266 Q587.2517,270.8266 587.8454,270.5609 Q588.4392,270.2797 589.0642,269.7016 L589.0642,272.4203 Z " fill="#000000"/><text fill="#000000" font-family="sans-serif" font-size="12" font-style="italic" lengthAdjust="spacing" textLength="61.0605" x="644.1545" y="262.7855">&#171;process&#187;</text><text fill="#000000" font-family="sans-serif" font-size="14" lengthAdjust="spacing" textLength="136.1787" x="606.5954" y="278.6107">NAD_00047_proc_1</text><line style="stroke:#181818;stroke-width:0.5;" x1="340.26" x2="976.6096" y1="286.9125" y2="286.9125"/><text fill="#000000" font-family="sans-serif" font-size="14" lengthAdjust="spacing" textLength="158.0127" x="345.26" y="303.9076">Stammdaten&#228;nderung</text><text fill="#000000" font-family="sans-serif" font-size="14" lengthAdjust="spacing" textLength="626.3496" x="345.26" y="320.2045">Zusammenfassung: Wie wird eine Stammdaten&#228;nderung an einer Marktlokation, wie z.B.</text><line style="stroke:#181818;stroke-width:0.5;" x1="340.26" x2="976.6096" y1="327.5063" y2="327.5063"/></g><!--link NAD_00047 to NAD_00047_msg_1--><g class="link" data-entity-1="NAD_00047" data-entity-2="NAD_00047_msg_1" data-source-line="15" data-uid="lnk4" id="link_NAD_00047_NAD_00047_msg_1"><path codeLine="15" d="M345.35,141.5169 C316.04,164.4469 285.0162,188.7105 252.4762,214.1605" fill="none" id="NAD_00047-to-NAD_00047_msg_1" style="stroke:#181818;stroke-width:1;"/><polygon fill="#181818" points="247.75,217.8569,257.3035,215.4631,251.6885,214.7765,252.375,209.1615,247.75,217.8569" style="stroke:#181818;stroke-width:1;"/><text fill="#000000" font-family="sans-serif" font-size="13" lengthAdjust="spacing" textLength="85.2363" x="304.43" y="184.2538">verwendet in</text></g><!--link NAD_00047 to NAD_00047_proc_1--><g class="link" data-entity-1="NAD_00047" data-entity-2="NAD_00047_proc_1" data-source-line="20" data-uid="lnk6" id="link_NAD_00047_NAD_00047_proc_1"><path codeLine="20" d="M467.75,141.5169 C508.84,173.5269 557.777,211.6593 597.707,242.7693" fill="none" id="NAD_00047-to-NAD_00047_proc_1" style="stroke:#181818;stroke-width:1;stroke-dasharray:7,7;"/><polygon fill="#181818" points="602.44,246.4569,597.7988,237.7701,598.4958,243.3839,592.882,244.0809,602.44,246.4569" style="stroke:#181818;stroke-width:1;"/><text fill="#000000" font-family="sans-serif" font-size="13" lengthAdjust="spacing" textLength="91.6221" x="526.43" y="184.2538">eingebettet in</text></g><!--SRC=[RP1VQiCm3CRVUmeT80rsAIkO4kXM6DrewFuns8lnOgKDTPnYA-les6rsarriTjZejkR5I9-adpwPAZ88SqLe5HdbOGZvR2uOO-F9e0Y2ZxdiSdWR0EIgHj6zq5eDC-kBZQjA2gMLQmxeFOeGGm3TaQfh7T6V7rQZQ-rwyFuVAck_blmR7L75XWIiPhVtYnnuoZ0KhXjB-4hYs87MasktrBgujpHHAz5e0LSgA1UDHY-0yGGuI-1iaiI52Jpalsts6WIuQT4O_F4WbujBoIL3EMAZCMUCfpjTXZkEtp8SPYVt27X1jyT09QZioT4xrnIXQpgDGJ2JPTqFz1jwQdsGqPQ14HG1ZnN2ld8QiBBODmJATZK7I-MsP9gjeggnIPX2EAJdwH__QPgTMXCHiCPd9EfE-080]--></g></svg>