<svg xmlns="http://www.w3.org/2000/svg" xmlns:xlink="http://www.w3.org/1999/xlink" contentStyleType="text/css" data-diagram-type="CLASS" height="370px" preserveAspectRatio="none" style="width:1098px;height:370px;background:#FFFFFF;" version="1.1" viewBox="0 0 1098 370" width="1098px" zoomAndPan="magnify"><title>Datenatlas - NH:PRICAT:D:20B:UN:2.0D</title><defs/><g><g class="title" data-source-line="1"><text fill="#000000" font-family="sans-serif" font-size="14" font-weight="bold" lengthAdjust="spacing" textLength="311.1172" x="386.7146" y="22.9951">Datenatlas - NH:PRICAT:D:20B:UN:2.0D</text></g><!--class NH_PRICAT_D_20B_UN_2_0D--><g class="entity" data-entity="NH_PRICAT_D_20B_UN_2_0D" data-source-line="2" data-uid="ent0002" id="entity_NH_PRICAT_D_20B_UN_2_0D"><rect fill="#F1F1F1" height="96.8906" rx="2.5" ry="2.5" style="stroke:#181818;stroke-width:0.5;" width="232.7168" x="318.86" y="44.2969"/><ellipse cx="333.86" cy="60.2969" fill="#ADD1B2" rx="11" ry="11" style="stroke:#181818;stroke-width:1;"/><path d="M336.8288,65.9375 Q336.2506,66.2344 335.61,66.375 Q334.9694,66.5313 334.2663,66.5313 Q331.7663,66.5313 330.4381,64.8906 Q329.1256,63.2344 329.1256,60.1094 Q329.1256,56.9844 330.4381,55.3281 Q331.7663,53.6719 334.2663,53.6719 Q334.9694,53.6719 335.61,53.8281 Q336.2663,53.9844 336.8288,54.2813 L336.8288,57 Q336.2038,56.4219 335.61,56.1563 Q335.0163,55.875 334.3913,55.875 Q333.0475,55.875 332.36,56.9531 Q331.6725,58.0156 331.6725,60.1094 Q331.6725,62.2031 332.36,63.2813 Q333.0475,64.3438 334.3913,64.3438 Q335.0163,64.3438 335.61,64.0781 Q336.2038,63.7969 336.8288,63.2188 L336.8288,65.9375 Z " fill="#000000"/><text fill="#000000" font-family="sans-serif" font-size="14" lengthAdjust="spacing" textLength="200.7168" x="347.86" y="65.1436">NH_PRICAT_D_20B_UN_2_0D</text><line style="stroke:#181818;stroke-width:0.5;" x1="319.86" x2="550.5768" y1="76.2969" y2="76.2969"/><text fill="#000000" font-family="sans-serif" font-size="14" lengthAdjust="spacing" textLength="125.6377" x="338.86" y="93.292">Name: unbekannt</text><text fill="#000000" font-family="sans-serif" font-size="14" lengthAdjust="spacing" textLength="66.6436" x="338.86" y="109.5889">Prozesse:</text><rect fill="none" height="6" style="stroke:#C82930;stroke-width:1;" width="6" x="326.86" y="119.5391"/><text fill="#000000" font-family="sans-serif" font-size="14" lengthAdjust="spacing" textLength="180.3457" x="338.86" y="125.8857">Netznutzungsabrechnung</text><line style="stroke:#181818;stroke-width:0.5;" x1="319.86" x2="550.5768" y1="133.1875" y2="133.1875"/></g><!--class NH_PRICAT_D_20B_UN_2_0D_msg_1--><g class="entity" data-entity="NH_PRICAT_D_20B_UN_2_0D_msg_1" data-source-line="7" data-uid="ent0003" id="entity_NH_PRICAT_D_20B_UN_2_0D_msg_1"><rect fill="#F1F1F1" height="145.7813" rx="2.5" ry="2.5" style="stroke:#181818;stroke-width:0.5;" width="296.4365" x="7" y="218.1869"/><ellipse cx="26.9474" cy="234.1869" fill="#ADD1B2" rx="11" ry="11" style="stroke:#181818;stroke-width:1;"/><path d="M29.9161,239.8275 Q29.338,240.1244 28.6974,240.265 Q28.0567,240.4213 27.3536,240.4213 Q24.8536,240.4213 23.5255,238.7806 Q22.213,237.1244 22.213,233.9994 Q22.213,230.8744 23.5255,229.2181 Q24.8536,227.5619 27.3536,227.5619 Q28.0567,227.5619 28.6974,227.7181 Q29.3536,227.8744 29.9161,228.1713 L29.9161,230.89 Q29.2911,230.3119 28.6974,230.0463 Q28.1036,229.765 27.4786,229.765 Q26.1349,229.765 25.4474,230.8431 Q24.7599,231.9056 24.7599,233.9994 Q24.7599,236.0931 25.4474,237.1713 Q26.1349,238.2338 27.4786,238.2338 Q28.1036,238.2338 28.6974,237.9681 Q29.2911,237.6869 29.9161,237.1088 L29.9161,239.8275 Z " fill="#000000"/><text fill="#000000" font-family="sans-serif" font-size="14" lengthAdjust="spacing" textLength="253.4424" x="42.0468" y="239.0336">NH_PRICAT_D_20B_UN_2_0D_msg_1</text><line style="stroke:#181818;stroke-width:0.5;" x1="8" x2="302.4365" y1="250.1869" y2="250.1869"/><text fill="#000000" font-family="sans-serif" font-size="14" lengthAdjust="spacing" textLength="162.2988" x="13" y="267.182">Nachricht: PRICAT 2.0d</text><text fill="#000000" font-family="sans-serif" font-size="14" lengthAdjust="spacing" textLength="123.0605" x="13" y="283.4789">Kontext: Beispiel:</text><text fill="#000000" font-family="sans-serif" font-size="14" lengthAdjust="spacing" textLength="91.4033" x="13" y="299.7757">Pflichtfeld: Ja</text><text fill="#000000" font-family="sans-serif" font-size="14" lengthAdjust="spacing" textLength="183.0664" x="13" y="316.0726">Codes: 06, 19, 35, NH, UN</text><text fill="#000000" font-family="sans-serif" font-size="14" lengthAdjust="spacing" textLength="251.4395" x="13" y="332.3695">Prozesse: Netznutzungsabrechnung</text><text fill="#000000" font-family="sans-serif" font-size="14" lengthAdjust="spacing" textLength="284.4365" x="13" y="348.6664">Quelle: PRICAT_MIG_2_0d_20240619.pdf</text><line style="stroke:#181818;stroke-width:0.5;" x1="8" x2="302.4365" y1="355.9681" y2="355.9681"/></g><!--class NH_PRICAT_D_20B_UN_2_0D_proc_1--><g class="entity" data-entity="NH_PRICAT_D_20B_UN_2_0D_proc_1" data-source-line="16" data-uid="ent0005" id="entity_NH_PRICAT_D_20B_UN_2_0D_proc_1"><rect fill="#F1F1F1" height="105.1563" rx="2.5" ry="2.5" style="stroke:#181818;stroke-width:0.5;" width="752.6465" x="338.9" y="238.4969"/><ellipse cx="583.7086" cy="258.6297" fill="#ADD1B2" rx="11" ry="11" style="stroke:#181818;stroke-width:1;"/><path d="M586.6773,264.2703 Q586.0992,264.5672 585.4586,264.7078 Q584.818,264.8641 584.1148,264.8641 Q581.6148,264.8641 580.2867,263.2234 Q578.9742,261.5672 578.9742,258.4422 Q578.9742,255.3172 580.2867,253.6609 Q581.6148,252.0047 584.1148,252.0047 Q584.818,252.0047 585.4586,252.1609 Q586.1148,252.3172 586.6773,252.6141 L586.6773,255.3328 Q586.0523,254.7547 585.4586,254.4891 Q584.8648,254.2078 584.2398,254.2078 Q582.8961,254.2078 582.2086,255.2859 Q581.5211,256.3484 581.5211,258.4422 Q581.5211,260.5359 582.2086,261.6141 Q582.8961,262.6766 584.2398,262.6766 Q584.8648,262.6766 585.4586,262.4109 Q586.0523,262.1297 586.6773,261.5516 L586.6773,264.2703 Z " fill="#000000"/><text fill="#000000" font-family="sans-serif" font-size="12" font-style="italic" lengthAdjust="spacing" textLength="61.0605" x="700.943" y="254.6355">&#171;process&#187;</text><text fill="#000000" font-family="sans-serif" font-size="14" lengthAdjust="spacing" textLength="254.5293" x="604.2086" y="270.4607">NH_PRICAT_D_20B_UN_2_0D_proc_1</text><line style="stroke:#181818;stroke-width:0.5;" x1="339.9" x2="1090.5465" y1="278.7625" y2="278.7625"/><text fill="#000000" font-family="sans-serif" font-size="14" lengthAdjust="spacing" textLength="180.3457" x="344.9" y="295.7576">Netznutzungsabrechnung</text><text fill="#000000" font-family="sans-serif" font-size="14" lengthAdjust="spacing" textLength="218.0938" x="344.9" y="312.0545">Gesetze: StromNEV, StromNZV</text><text fill="#000000" font-family="sans-serif" font-size="14" lengthAdjust="spacing" textLength="740.6465" x="344.9" y="328.3514">Zusammenfassung: Wie funktioniert die Netznutzungsabrechnung zwischen Netzbetreiber und Lieferant?</text><line style="stroke:#181818;stroke-width:0.5;" x1="339.9" x2="1090.5465" y1="335.6531" y2="335.6531"/></g><!--link NH_PRICAT_D_20B_UN_2_0D to NH_PRICAT_D_20B_UN_2_0D_msg_1--><g class="link" data-entity-1="NH_PRICAT_D_20B_UN_2_0D" data-entity-2="NH_PRICAT_D_20B_UN_2_0D_msg_1" data-source-line="15" data-uid="lnk4" id="link_NH_PRICAT_D_20B_UN_2_0D_NH_PRICAT_D_20B_UN_2_0D_msg_1"><path codeLine="15" d="M367.08,141.5169 C334.38,164.4469 299.4228,188.9625 263.1228,214.4125" fill="none" id="NH_PRICAT_D_20B_UN_2_0D-to-NH_PRICAT_D_20B_UN_2_0D_msg_1" style="stroke:#181818;stroke-width:1;"/><polygon fill="#181818" points="258.21,217.8569,267.8755,215.9655,262.304,214.9865,263.283,209.415,258.21,217.8569" style="stroke:#181818;stroke-width:1;"/><text fill="#000000" font-family="sans-serif" font-size="13" lengthAdjust="spacing" textLength="85.2363" x="322.22" y="184.2538">verwendet in</text></g><!--link NH_PRICAT_D_20B_UN_2_0D to NH_PRICAT_D_20B_UN_2_0D_proc_1--><g class="link" data-entity-1="NH_PRICAT_D_20B_UN_2_0D" data-entity-2="NH_PRICAT_D_20B_UN_2_0D_proc_1" data-source-line="21" data-uid="lnk6" id="link_NH_PRICAT_D_20B_UN_2_0D_NH_PRICAT_D_20B_UN_2_0D_proc_1"><path codeLine="21" d="M503.36,141.5169 C545.12,170.8069 593.6774,204.8522 636.4474,234.8422" fill="none" id="NH_PRICAT_D_20B_UN_2_0D-to-NH_PRICAT_D_20B_UN_2_0D_proc_1" style="stroke:#181818;stroke-width:1;stroke-dasharray:7,7;"/><polygon fill="#181818" points="641.36,238.2869,636.2875,229.8447,637.2661,235.4163,631.6946,236.3949,641.36,238.2869" style="stroke:#181818;stroke-width:1;"/><text fill="#000000" font-family="sans-serif" font-size="13" lengthAdjust="spacing" textLength="91.6221" x="568.22" y="184.2538">eingebettet in</text></g><!--SRC=[XLBBRi8m4Bpp5Vi18GffYuI5KXLIKVg8w0CgSR6SP4Ci4WVPJgbIzT-x0IhrKE0scbdlp8vifIqGGc5H2Li80rs8xjZiPJg-UMCXyxqHcqVCTxsmav1iIELxbOUSL3wFkC-z4Buw094eaK6jObmBfImnCrqrQ0momj3kHjkesZQrMXaHQqnoHR3pVNevBysAzmuMIQvbabi6-qcWR2a93vMo-4dq2ANPI2nQorbMjBCP5Yc3Uq7Ck4hHCF3w3lG63bnSEMJgm3pw6_POJ83d6ei2VxtvqtJI1amfh7_fzNi3TvDcTCsnahhTuCoD33vGRr6bQ46gCxLiT9NGc-6m1PGy2FOT7Ki_GKCInN-rkYgZsuLpGCi5gSlQYB94bP4bpJDubmXPhTPMLagYjf0IyVzoQBRI93cgdHwZrIXZrFGNKdYKcA4MobwVQCPrWtDdCa2fLaZBxQwS7m00]--></g></svg>