<svg xmlns="http://www.w3.org/2000/svg" xmlns:xlink="http://www.w3.org/1999/xlink" contentStyleType="text/css" data-diagram-type="CLASS" height="387px" preserveAspectRatio="none" style="width:2021px;height:387px;background:#FFFFFF;" version="1.1" viewBox="0 0 2021 387" width="2021px" zoomAndPan="magnify"><title>Datenatlas - PCD:C501</title><defs/><g><g class="title" data-source-line="1"><text fill="#000000" font-family="sans-serif" font-size="14" font-weight="bold" lengthAdjust="spacing" textLength="178.7529" x="914.5873" y="22.9951">Datenatlas - PCD:C501</text></g><!--class PCD_C501--><g class="entity" data-entity="PCD_C501" data-source-line="2" data-uid="ent0002" id="entity_PCD_C501"><rect fill="#F1F1F1" height="113.1875" rx="2.5" ry="2.5" style="stroke:#181818;stroke-width:0.5;" width="249.2822" x="789.17" y="44.2969"/><ellipse cx="873.3136" cy="60.2969" fill="#ADD1B2" rx="11" ry="11" style="stroke:#181818;stroke-width:1;"/><path d="M876.2823,65.9375 Q875.7042,66.2344 875.0636,66.375 Q874.4229,66.5313 873.7198,66.5313 Q871.2198,66.5313 869.8917,64.8906 Q868.5792,63.2344 868.5792,60.1094 Q868.5792,56.9844 869.8917,55.3281 Q871.2198,53.6719 873.7198,53.6719 Q874.4229,53.6719 875.0636,53.8281 Q875.7198,53.9844 876.2823,54.2813 L876.2823,57 Q875.6573,56.4219 875.0636,56.1563 Q874.4698,55.875 873.8448,55.875 Q872.5011,55.875 871.8136,56.9531 Q871.1261,58.0156 871.1261,60.1094 Q871.1261,62.2031 871.8136,63.2813 Q872.5011,64.3438 873.8448,64.3438 Q874.4698,64.3438 875.0636,64.0781 Q875.6573,63.7969 876.2823,63.2188 L876.2823,65.9375 Z " fill="#000000"/><text fill="#000000" font-family="sans-serif" font-size="14" lengthAdjust="spacing" textLength="72.4951" x="893.8136" y="65.1436">PCD_C501</text><line style="stroke:#181818;stroke-width:0.5;" x1="790.17" x2="1037.4522" y1="76.2969" y2="76.2969"/><text fill="#000000" font-family="sans-serif" font-size="14" lengthAdjust="spacing" textLength="200.6074" x="809.17" y="93.292">Name: Prozentsatz, Qualifier</text><text fill="#000000" font-family="sans-serif" font-size="14" lengthAdjust="spacing" textLength="66.6436" x="809.17" y="109.5889">Prozesse:</text><rect fill="none" height="6" style="stroke:#C82930;stroke-width:1;" width="6" x="797.17" y="119.5391"/><text fill="#000000" font-family="sans-serif" font-size="14" lengthAdjust="spacing" textLength="180.3457" x="809.17" y="125.8857">Netznutzungsabrechnung</text><rect fill="none" height="6" style="stroke:#C82930;stroke-width:1;" width="6" x="797.17" y="135.8359"/><text fill="#000000" font-family="sans-serif" font-size="14" lengthAdjust="spacing" textLength="223.2822" x="809.17" y="142.1826">Messstellenbetriebsabrechnung</text><line style="stroke:#181818;stroke-width:0.5;" x1="790.17" x2="1037.4522" y1="149.4844" y2="149.4844"/></g><!--class PCD_C501_msg_1--><g class="entity" data-entity="PCD_C501_msg_1" data-source-line="8" data-uid="ent0003" id="entity_PCD_C501_msg_1"><rect fill="#F1F1F1" height="145.7813" rx="2.5" ry="2.5" style="stroke:#181818;stroke-width:0.5;" width="495.6221" x="7" y="234.4869"/><ellipse cx="187.9507" cy="250.4869" fill="#ADD1B2" rx="11" ry="11" style="stroke:#181818;stroke-width:1;"/><path d="M190.9194,256.1275 Q190.3413,256.4244 189.7007,256.565 Q189.0601,256.7213 188.3569,256.7213 Q185.8569,256.7213 184.5288,255.0806 Q183.2163,253.4244 183.2163,250.2994 Q183.2163,247.1744 184.5288,245.5181 Q185.8569,243.8619 188.3569,243.8619 Q189.0601,243.8619 189.7007,244.0181 Q190.3569,244.1744 190.9194,244.4713 L190.9194,247.19 Q190.2944,246.6119 189.7007,246.3463 Q189.1069,246.065 188.4819,246.065 Q187.1382,246.065 186.4507,247.1431 Q185.7632,248.2056 185.7632,250.2994 Q185.7632,252.3931 186.4507,253.4713 Q187.1382,254.5338 188.4819,254.5338 Q189.1069,254.5338 189.7007,254.2681 Q190.2944,253.9869 190.9194,253.4088 L190.9194,256.1275 Z " fill="#000000"/><text fill="#000000" font-family="sans-serif" font-size="14" lengthAdjust="spacing" textLength="125.2207" x="208.4507" y="255.3336">PCD_C501_msg_1</text><line style="stroke:#181818;stroke-width:0.5;" x1="8" x2="501.6221" y1="266.4869" y2="266.4869"/><text fill="#000000" font-family="sans-serif" font-size="14" lengthAdjust="spacing" textLength="161.1982" x="13" y="283.482">Nachricht: INVOIC 2.8d</text><text fill="#000000" font-family="sans-serif" font-size="14" lengthAdjust="spacing" textLength="170.3447" x="13" y="299.7789">Kontext: Segmentlayout</text><text fill="#000000" font-family="sans-serif" font-size="14" lengthAdjust="spacing" textLength="91.4033" x="13" y="316.0757">Pflichtfeld: Ja</text><text fill="#000000" font-family="sans-serif" font-size="14" lengthAdjust="spacing" textLength="134.7295" x="13" y="332.3726">Codes: 10, 30, PCD</text><text fill="#000000" font-family="sans-serif" font-size="14" lengthAdjust="spacing" textLength="483.6221" x="13" y="348.6695">Prozesse: Netznutzungsabrechnung, Messstellenbetriebsabrechnung</text><text fill="#000000" font-family="sans-serif" font-size="14" lengthAdjust="spacing" textLength="396.6074" x="13" y="364.9664">Quelle: INVOIC_MIG_2.8d_Fehlerkorrektur_20250131.pdf</text><line style="stroke:#181818;stroke-width:0.5;" x1="8" x2="501.6221" y1="372.2681" y2="372.2681"/></g><!--class PCD_C501_proc_1--><g class="entity" data-entity="PCD_C501_proc_1" data-source-line="17" data-uid="ent0005" id="entity_PCD_C501_proc_1"><rect fill="#F1F1F1" height="105.1563" rx="2.5" ry="2.5" style="stroke:#181818;stroke-width:0.5;" width="752.6465" x="537.49" y="254.7969"/><ellipse cx="846.4094" cy="274.9297" fill="#ADD1B2" rx="11" ry="11" style="stroke:#181818;stroke-width:1;"/><path d="M849.3782,280.5703 Q848.8001,280.8672 848.1594,281.0078 Q847.5188,281.1641 846.8157,281.1641 Q844.3157,281.1641 842.9876,279.5234 Q841.6751,277.8672 841.6751,274.7422 Q841.6751,271.6172 842.9876,269.9609 Q844.3157,268.3047 846.8157,268.3047 Q847.5188,268.3047 848.1594,268.4609 Q848.8157,268.6172 849.3782,268.9141 L849.3782,271.6328 Q848.7532,271.0547 848.1594,270.7891 Q847.5657,270.5078 846.9407,270.5078 Q845.5969,270.5078 844.9094,271.5859 Q844.2219,272.6484 844.2219,274.7422 Q844.2219,276.8359 844.9094,277.9141 Q845.5969,278.9766 846.9407,278.9766 Q847.5657,278.9766 848.1594,278.7109 Q848.7532,278.4297 849.3782,277.8516 L849.3782,280.5703 Z " fill="#000000"/><text fill="#000000" font-family="sans-serif" font-size="12" font-style="italic" lengthAdjust="spacing" textLength="61.0605" x="899.533" y="270.9355">&#171;process&#187;</text><text fill="#000000" font-family="sans-serif" font-size="14" lengthAdjust="spacing" textLength="126.3076" x="866.9094" y="286.7607">PCD_C501_proc_1</text><line style="stroke:#181818;stroke-width:0.5;" x1="538.49" x2="1289.1365" y1="295.0625" y2="295.0625"/><text fill="#000000" font-family="sans-serif" font-size="14" lengthAdjust="spacing" textLength="180.3457" x="543.49" y="312.0576">Netznutzungsabrechnung</text><text fill="#000000" font-family="sans-serif" font-size="14" lengthAdjust="spacing" textLength="218.0938" x="543.49" y="328.3545">Gesetze: StromNEV, StromNZV</text><text fill="#000000" font-family="sans-serif" font-size="14" lengthAdjust="spacing" textLength="740.6465" x="543.49" y="344.6514">Zusammenfassung: Wie funktioniert die Netznutzungsabrechnung zwischen Netzbetreiber und Lieferant?</text><line style="stroke:#181818;stroke-width:0.5;" x1="538.49" x2="1289.1365" y1="351.9531" y2="351.9531"/></g><!--class PCD_C501_proc_2--><g class="entity" data-entity="PCD_C501_proc_2" data-source-line="23" data-uid="ent0007" id="entity_PCD_C501_proc_2"><rect fill="#F1F1F1" height="105.1563" rx="2.5" ry="2.5" style="stroke:#181818;stroke-width:0.5;" width="690.2275" x="1324.7" y="254.7969"/><ellipse cx="1602.41" cy="274.9297" fill="#ADD1B2" rx="11" ry="11" style="stroke:#181818;stroke-width:1;"/><path d="M1605.3787,280.5703 Q1604.8006,280.8672 1604.16,281.0078 Q1603.5193,281.1641 1602.8162,281.1641 Q1600.3162,281.1641 1598.9881,279.5234 Q1597.6756,277.8672 1597.6756,274.7422 Q1597.6756,271.6172 1598.9881,269.9609 Q1600.3162,268.3047 1602.8162,268.3047 Q1603.5193,268.3047 1604.16,268.4609 Q1604.8162,268.6172 1605.3787,268.9141 L1605.3787,271.6328 Q1604.7537,271.0547 1604.16,270.7891 Q1603.5662,270.5078 1602.9412,270.5078 Q1601.5975,270.5078 1600.91,271.5859 Q1600.2225,272.6484 1600.2225,274.7422 Q1600.2225,276.8359 1600.91,277.9141 Q1601.5975,278.9766 1602.9412,278.9766 Q1603.5662,278.9766 1604.16,278.7109 Q1604.7537,278.4297 1605.3787,277.8516 L1605.3787,280.5703 Z " fill="#000000"/><text fill="#000000" font-family="sans-serif" font-size="12" font-style="italic" lengthAdjust="spacing" textLength="61.0605" x="1655.5335" y="270.9355">&#171;process&#187;</text><text fill="#000000" font-family="sans-serif" font-size="14" lengthAdjust="spacing" textLength="126.3076" x="1622.91" y="286.7607">PCD_C501_proc_2</text><line style="stroke:#181818;stroke-width:0.5;" x1="1325.7" x2="2013.9275" y1="295.0625" y2="295.0625"/><text fill="#000000" font-family="sans-serif" font-size="14" lengthAdjust="spacing" textLength="223.2822" x="1330.7" y="312.0576">Messstellenbetriebsabrechnung</text><text fill="#000000" font-family="sans-serif" font-size="14" lengthAdjust="spacing" textLength="105.0957" x="1330.7" y="328.3545">Gesetze: MsbG</text><text fill="#000000" font-family="sans-serif" font-size="14" lengthAdjust="spacing" textLength="678.2275" x="1330.7" y="344.6514">Zusammenfassung: Beschreibe den Prozess der Abrechnung von Messstellenbetriebsleistungen.</text><line style="stroke:#181818;stroke-width:0.5;" x1="1325.7" x2="2013.9275" y1="351.9531" y2="351.9531"/></g><!--link PCD_C501 to PCD_C501_msg_1--><g class="link" data-entity-1="PCD_C501" data-entity-2="PCD_C501_msg_1" data-source-line="16" data-uid="lnk4" id="link_PCD_C501_PCD_C501_msg_1"><path codeLine="16" d="M788.7,140.7169 C703.86,167.0369 594.8904,200.8485 493.5504,232.2985" fill="none" id="PCD_C501-to-PCD_C501_msg_1" style="stroke:#181818;stroke-width:1;"/><polygon fill="#181818" points="487.82,234.0769,497.6012,235.2296,492.5953,232.5949,495.23,227.589,487.82,234.0769" style="stroke:#181818;stroke-width:1;"/><text fill="#000000" font-family="sans-serif" font-size="13" lengthAdjust="spacing" textLength="85.2363" x="624.81" y="200.5538">verwendet in</text></g><!--link PCD_C501 to PCD_C501_proc_1--><g class="link" data-entity-1="PCD_C501" data-entity-2="PCD_C501_proc_1" data-source-line="22" data-uid="lnk6" id="link_PCD_C501_PCD_C501_proc_1"><path codeLine="22" d="M913.81,157.7669 C913.81,187.9169 913.81,218.9069 913.81,248.4269" fill="none" id="PCD_C501-to-PCD_C501_proc_1" style="stroke:#181818;stroke-width:1;stroke-dasharray:7,7;"/><polygon fill="#181818" points="913.81,254.4269,917.81,245.4269,913.81,249.4269,909.81,245.4269,913.81,254.4269" style="stroke:#181818;stroke-width:1;"/><text fill="#000000" font-family="sans-serif" font-size="13" lengthAdjust="spacing" textLength="91.6221" x="914.81" y="200.5538">eingebettet in</text></g><!--link PCD_C501 to PCD_C501_proc_2--><g class="link" data-entity-1="PCD_C501" data-entity-2="PCD_C501_proc_2" data-source-line="28" data-uid="lnk8" id="link_PCD_C501_PCD_C501_proc_2"><path codeLine="28" d="M1038.65,135.6569 C1157.96,167.9269 1333.7682,215.4802 1471.5882,252.7602" fill="none" id="PCD_C501-to-PCD_C501_proc_2" style="stroke:#181818;stroke-width:1;stroke-dasharray:7,7;"/><polygon fill="#181818" points="1477.38,254.3269,1469.7367,248.1156,1472.5535,253.0213,1467.6478,255.8381,1477.38,254.3269" style="stroke:#181818;stroke-width:1;"/><text fill="#000000" font-family="sans-serif" font-size="13" lengthAdjust="spacing" textLength="91.6221" x="1292.81" y="200.5538">eingebettet in</text></g><!--SRC=[XP9VQzim5CNV-odk1qXCuZ8OecHiwHQoBLb78OE-6Da-ZaLagKZNxUQnxxxhDEr2_gmFXYkTQztpEn8Rjg1hpN2QhOuqf9lfjPg-6Oql2bd7VfdrI_fzGRJK3HJT1D_1STJS3UXxgwsf38B8Mo56AAb9Zbg2EzTorxfrr7b0KJifT-92EYF3MhWS70po_Pu_1-Ep9gwpPnD57KnHiwBvSlLjFgKqULkAyCKxna_PliMw4ODM__8jzxugs_TNiAMYprfsfhv4L3GU3UXIFfcoR_-CyS4hdad2wBLdNzbYFijwRzadr1PXuqF0XjkGfQDKc2x7oNrP2UfBniFXv91OqGF28rm99kCEKxaFlf2cgwk-47EJoLD4vuAV8Oea3cyv-6RvSJNOLNShKU_Qg1j9hf8Pqg_eXm5LhTkmyKwkcAcKZTE7K_TeOb73RVK-7PWSWLfNqbU32a4xVhSFcoIJ8n15C6uD-PtFywP7lA_Tomls8kQpKw0V8DwtZgaKXDrBa3hG-t-83zwT6cLX8eiEb_oVBptY-mi0]--></g></svg>