<svg xmlns="http://www.w3.org/2000/svg" xmlns:xlink="http://www.w3.org/1999/xlink" contentStyleType="text/css" data-diagram-type="CLASS" height="370px" preserveAspectRatio="none" style="width:1330px;height:370px;background:#FFFFFF;" version="1.1" viewBox="0 0 1330 370" width="1330px" zoomAndPan="magnify"><title>Datenatlas - PGI:0600</title><defs/><g><g class="title" data-source-line="1"><text fill="#000000" font-family="sans-serif" font-size="14" font-weight="bold" lengthAdjust="spacing" textLength="173.0244" x="571.786" y="22.9951">Datenatlas - PGI:0600</text></g><!--class PGI_0600--><g class="entity" data-entity="PGI_0600" data-source-line="2" data-uid="ent0002" id="entity_PGI_0600"><rect fill="#F1F1F1" height="96.8906" rx="2.5" ry="2.5" style="stroke:#181818;stroke-width:0.5;" width="284.6035" x="466.97" y="44.2969"/><ellipse cx="571.9973" cy="60.2969" fill="#ADD1B2" rx="11" ry="11" style="stroke:#181818;stroke-width:1;"/><path d="M574.9661,65.9375 Q574.388,66.2344 573.7473,66.375 Q573.1067,66.5313 572.4036,66.5313 Q569.9036,66.5313 568.5755,64.8906 Q567.263,63.2344 567.263,60.1094 Q567.263,56.9844 568.5755,55.3281 Q569.9036,53.6719 572.4036,53.6719 Q573.1067,53.6719 573.7473,53.8281 Q574.4036,53.9844 574.9661,54.2813 L574.9661,57 Q574.3411,56.4219 573.7473,56.1563 Q573.1536,55.875 572.5286,55.875 Q571.1848,55.875 570.4973,56.9531 Q569.8098,58.0156 569.8098,60.1094 Q569.8098,62.2031 570.4973,63.2813 Q571.1848,64.3438 572.5286,64.3438 Q573.1536,64.3438 573.7473,64.0781 Q574.3411,63.7969 574.9661,63.2188 L574.9661,65.9375 Z " fill="#000000"/><text fill="#000000" font-family="sans-serif" font-size="14" lengthAdjust="spacing" textLength="66.0488" x="592.4973" y="65.1436">PGI_0600</text><line style="stroke:#181818;stroke-width:0.5;" x1="467.97" x2="750.5735" y1="76.2969" y2="76.2969"/><text fill="#000000" font-family="sans-serif" font-size="14" lengthAdjust="spacing" textLength="258.6035" x="486.97" y="93.292">Name: Produktgruppen - Information</text><text fill="#000000" font-family="sans-serif" font-size="14" lengthAdjust="spacing" textLength="66.6436" x="486.97" y="109.5889">Prozesse:</text><rect fill="none" height="6" style="stroke:#C82930;stroke-width:1;" width="6" x="474.97" y="119.5391"/><text fill="#000000" font-family="sans-serif" font-size="14" lengthAdjust="spacing" textLength="180.3457" x="486.97" y="125.8857">Netznutzungsabrechnung</text><line style="stroke:#181818;stroke-width:0.5;" x1="467.97" x2="750.5735" y1="133.1875" y2="133.1875"/></g><!--class PGI_0600_msg_1--><g class="entity" data-entity="PGI_0600_msg_1" data-source-line="7" data-uid="ent0003" id="entity_PGI_0600_msg_1"><rect fill="#F1F1F1" height="145.7813" rx="2.5" ry="2.5" style="stroke:#181818;stroke-width:0.5;" width="528.5371" x="7" y="218.1869"/><ellipse cx="207.6313" cy="234.1869" fill="#ADD1B2" rx="11" ry="11" style="stroke:#181818;stroke-width:1;"/><path d="M210.6001,239.8275 Q210.022,240.1244 209.3813,240.265 Q208.7407,240.4213 208.0376,240.4213 Q205.5376,240.4213 204.2095,238.7806 Q202.897,237.1244 202.897,233.9994 Q202.897,230.8744 204.2095,229.2181 Q205.5376,227.5619 208.0376,227.5619 Q208.7407,227.5619 209.3813,227.7181 Q210.0376,227.8744 210.6001,228.1713 L210.6001,230.89 Q209.9751,230.3119 209.3813,230.0463 Q208.7876,229.765 208.1626,229.765 Q206.8188,229.765 206.1313,230.8431 Q205.4438,231.9056 205.4438,233.9994 Q205.4438,236.0931 206.1313,237.1713 Q206.8188,238.2338 208.1626,238.2338 Q208.7876,238.2338 209.3813,237.9681 Q209.9751,237.6869 210.6001,237.1088 L210.6001,239.8275 Z " fill="#000000"/><text fill="#000000" font-family="sans-serif" font-size="14" lengthAdjust="spacing" textLength="118.7744" x="228.1313" y="239.0336">PGI_0600_msg_1</text><line style="stroke:#181818;stroke-width:0.5;" x1="8" x2="534.5371" y1="250.1869" y2="250.1869"/><text fill="#000000" font-family="sans-serif" font-size="14" lengthAdjust="spacing" textLength="162.2988" x="13" y="267.182">Nachricht: PRICAT 2.0d</text><text fill="#000000" font-family="sans-serif" font-size="14" lengthAdjust="spacing" textLength="516.5371" x="13" y="283.4789">Kontext: 1310   SG36   C   R   999999   999999   2   LIN - PIA - IMD - SG40</text><text fill="#000000" font-family="sans-serif" font-size="14" lengthAdjust="spacing" textLength="91.4033" x="13" y="299.7757">Pflichtfeld: Ja</text><text fill="#000000" font-family="sans-serif" font-size="14" lengthAdjust="spacing" textLength="173.9609" x="13" y="316.0726">Codes: IMD, LIN, PGI, PIA</text><text fill="#000000" font-family="sans-serif" font-size="14" lengthAdjust="spacing" textLength="251.4395" x="13" y="332.3695">Prozesse: Netznutzungsabrechnung</text><text fill="#000000" font-family="sans-serif" font-size="14" lengthAdjust="spacing" textLength="284.4365" x="13" y="348.6664">Quelle: PRICAT_MIG_2_0d_20240619.pdf</text><line style="stroke:#181818;stroke-width:0.5;" x1="8" x2="534.5371" y1="355.9681" y2="355.9681"/></g><!--class PGI_0600_proc_1--><g class="entity" data-entity="PGI_0600_proc_1" data-source-line="16" data-uid="ent0005" id="entity_PGI_0600_proc_1"><rect fill="#F1F1F1" height="105.1563" rx="2.5" ry="2.5" style="stroke:#181818;stroke-width:0.5;" width="752.6465" x="570.95" y="238.4969"/><ellipse cx="883.0926" cy="258.6297" fill="#ADD1B2" rx="11" ry="11" style="stroke:#181818;stroke-width:1;"/><path d="M886.0613,264.2703 Q885.4832,264.5672 884.8426,264.7078 Q884.202,264.8641 883.4988,264.8641 Q880.9988,264.8641 879.6707,263.2234 Q878.3582,261.5672 878.3582,258.4422 Q878.3582,255.3172 879.6707,253.6609 Q880.9988,252.0047 883.4988,252.0047 Q884.202,252.0047 884.8426,252.1609 Q885.4988,252.3172 886.0613,252.6141 L886.0613,255.3328 Q885.4363,254.7547 884.8426,254.4891 Q884.2488,254.2078 883.6238,254.2078 Q882.2801,254.2078 881.5926,255.2859 Q880.9051,256.3484 880.9051,258.4422 Q880.9051,260.5359 881.5926,261.6141 Q882.2801,262.6766 883.6238,262.6766 Q884.2488,262.6766 884.8426,262.4109 Q885.4363,262.1297 886.0613,261.5516 L886.0613,264.2703 Z " fill="#000000"/><text fill="#000000" font-family="sans-serif" font-size="12" font-style="italic" lengthAdjust="spacing" textLength="61.0605" x="932.993" y="254.6355">&#171;process&#187;</text><text fill="#000000" font-family="sans-serif" font-size="14" lengthAdjust="spacing" textLength="119.8613" x="903.5926" y="270.4607">PGI_0600_proc_1</text><line style="stroke:#181818;stroke-width:0.5;" x1="571.95" x2="1322.5965" y1="278.7625" y2="278.7625"/><text fill="#000000" font-family="sans-serif" font-size="14" lengthAdjust="spacing" textLength="180.3457" x="576.95" y="295.7576">Netznutzungsabrechnung</text><text fill="#000000" font-family="sans-serif" font-size="14" lengthAdjust="spacing" textLength="218.0938" x="576.95" y="312.0545">Gesetze: StromNEV, StromNZV</text><text fill="#000000" font-family="sans-serif" font-size="14" lengthAdjust="spacing" textLength="740.6465" x="576.95" y="328.3514">Zusammenfassung: Wie funktioniert die Netznutzungsabrechnung zwischen Netzbetreiber und Lieferant?</text><line style="stroke:#181818;stroke-width:0.5;" x1="571.95" x2="1322.5965" y1="335.6531" y2="335.6531"/></g><!--link PGI_0600 to PGI_0600_msg_1--><g class="link" data-entity-1="PGI_0600" data-entity-2="PGI_0600_msg_1" data-source-line="15" data-uid="lnk4" id="link_PGI_0600_PGI_0600_msg_1"><path codeLine="15" d="M527.02,141.5169 C487.54,164.4469 444.5984,189.3935 400.7784,214.8435" fill="none" id="PGI_0600-to-PGI_0600_msg_1" style="stroke:#181818;stroke-width:1;"/><polygon fill="#181818" points="395.59,217.8569,405.3815,216.7958,399.9137,215.3457,401.3637,209.8779,395.59,217.8569" style="stroke:#181818;stroke-width:1;"/><text fill="#000000" font-family="sans-serif" font-size="13" lengthAdjust="spacing" textLength="85.2363" x="472.27" y="184.2538">verwendet in</text></g><!--link PGI_0600 to PGI_0600_proc_1--><g class="link" data-entity-1="PGI_0600" data-entity-2="PGI_0600_proc_1" data-source-line="21" data-uid="lnk6" id="link_PGI_0600_PGI_0600_proc_1"><path codeLine="21" d="M691.52,141.5169 C741.84,170.7469 801.0419,205.133 852.6319,235.103" fill="none" id="PGI_0600-to-PGI_0600_proc_1" style="stroke:#181818;stroke-width:1;stroke-dasharray:7,7;"/><polygon fill="#181818" points="857.82,238.1169,852.0471,230.1373,853.4966,235.6053,848.0286,237.0548,857.82,238.1169" style="stroke:#181818;stroke-width:1;"/><text fill="#000000" font-family="sans-serif" font-size="13" lengthAdjust="spacing" textLength="91.6221" x="769.27" y="184.2538">eingebettet in</text></g><!--SRC=[TL7XQi8m4FxlKzm3Q8bL18iuH4VffkBcSE2V4fjh6spJagHpEFRkkpWtnCt2DNVttUM-xsAbBH1ctABYjk06Eh0Aeu0D66ib51iNnYw4ZnR0afSOm4fNejdRJ3TrZOfQ8fLMkkHMLegA23wYCHYG3uGkqHvLOu-DoWpVQKnoHMxhysf0N9eixfx79BcMIMvfrdCqdRo0xp51m6EbBBvJkjlhChfy7VO6T4p9dic6f-_IySdcqTB9YYQEwM96_tNOPuveMhWXAHOYW0TEcMabq0IkgktQsevSsxLUoheb2E2fmQB07zBn8WfZFsOYzfdVPuFkqAj5Ihf_LzhfZA_b1_26-e1Ae0MfhbTKwogXej78EKHcFFxUror28Hg2YD7QwgfStc_QPs-x8NJR65wMg5AQGVK1l4g4j55xzv0IjGL1YVylX-D1cYIdvtVu3gr6kKCDZH8mbvYYvihUNOhrlF4V8G6WL1bIkptf_G80]--></g></svg>