<svg xmlns="http://www.w3.org/2000/svg" xmlns:xlink="http://www.w3.org/1999/xlink" contentStyleType="text/css" data-diagram-type="CLASS" height="419px" preserveAspectRatio="none" style="width:5702px;height:419px;background:#FFFFFF;" version="1.1" viewBox="0 0 5702 419" width="5702px" zoomAndPan="magnify"><title>Datenatlas - PIA:C212</title><defs/><g><g class="title" data-source-line="1"><text fill="#000000" font-family="sans-serif" font-size="14" font-weight="bold" lengthAdjust="spacing" textLength="172.9014" x="2757.7889" y="22.9951">Datenatlas - PIA:C212</text></g><!--class PIA_C212--><g class="entity" data-entity="PIA_C212" data-source-line="2" data-uid="ent0002" id="entity_PIA_C212"><rect fill="#F1F1F1" height="145.7813" rx="2.5" ry="2.5" style="stroke:#181818;stroke-width:0.5;" width="374.2021" x="2086.39" y="44.2969"/><ellipse cx="2236.4183" cy="60.2969" fill="#ADD1B2" rx="11" ry="11" style="stroke:#181818;stroke-width:1;"/><path d="M2239.3871,65.9375 Q2238.8089,66.2344 2238.1683,66.375 Q2237.5277,66.5313 2236.8246,66.5313 Q2234.3246,66.5313 2232.9964,64.8906 Q2231.6839,63.2344 2231.6839,60.1094 Q2231.6839,56.9844 2232.9964,55.3281 Q2234.3246,53.6719 2236.8246,53.6719 Q2237.5277,53.6719 2238.1683,53.8281 Q2238.8246,53.9844 2239.3871,54.2813 L2239.3871,57 Q2238.7621,56.4219 2238.1683,56.1563 Q2237.5746,55.875 2236.9496,55.875 Q2235.6058,55.875 2234.9183,56.9531 Q2234.2308,58.0156 2234.2308,60.1094 Q2234.2308,62.2031 2234.9183,63.2813 Q2235.6058,64.3438 2236.9496,64.3438 Q2237.5746,64.3438 2238.1683,64.0781 Q2238.7621,63.7969 2239.3871,63.2188 L2239.3871,65.9375 Z " fill="#000000"/><text fill="#000000" font-family="sans-serif" font-size="14" lengthAdjust="spacing" textLength="65.6455" x="2256.9183" y="65.1436">PIA_C212</text><line style="stroke:#181818;stroke-width:0.5;" x1="2087.39" x2="2459.5921" y1="76.2969" y2="76.2969"/><text fill="#000000" font-family="sans-serif" font-size="14" lengthAdjust="spacing" textLength="333.4092" x="2106.39" y="93.292">Name: Waren-/Leistungsnummer, Identifikation</text><text fill="#000000" font-family="sans-serif" font-size="14" lengthAdjust="spacing" textLength="66.6436" x="2106.39" y="109.5889">Prozesse:</text><rect fill="none" height="6" style="stroke:#C82930;stroke-width:1;" width="6" x="2094.39" y="119.5391"/><text fill="#000000" font-family="sans-serif" font-size="14" lengthAdjust="spacing" textLength="334.3525" x="2106.39" y="125.8857">Anforderung und &#220;bermittlung von Messwerten</text><rect fill="none" height="6" style="stroke:#C82930;stroke-width:1;" width="6" x="2094.39" y="135.8359"/><text fill="#000000" font-family="sans-serif" font-size="14" lengthAdjust="spacing" textLength="180.3457" x="2106.39" y="142.1826">Netznutzungsabrechnung</text><rect fill="none" height="6" style="stroke:#C82930;stroke-width:1;" width="6" x="2094.39" y="152.1328"/><text fill="#000000" font-family="sans-serif" font-size="14" lengthAdjust="spacing" textLength="317.9668" x="2106.39" y="158.4795">Sperrung und Entsperrung eines Anschlusses</text><line style="stroke:#181818;stroke-width:0.5;" x1="2087.39" x2="2459.5921" y1="165.7813" y2="165.7813"/><rect fill="#F24D5C" height="6" style="stroke:#C82930;stroke-width:1;" width="6" x="2094.39" y="176.4297"/><text fill="#000000" font-family="sans-serif" font-size="14" lengthAdjust="spacing" textLength="348.2021" x="2106.39" y="182.7764">Bestellung einer technischen Konfiguration (MSB)</text></g><!--class PIA_C212_msg_1--><g class="entity" data-entity="PIA_C212_msg_1" data-source-line="10" data-uid="ent0003" id="entity_PIA_C212_msg_1"><rect fill="#F1F1F1" height="145.7813" rx="2.5" ry="2.5" style="stroke:#181818;stroke-width:0.5;" width="438.9727" x="7" y="267.0769"/><ellipse cx="163.0508" cy="283.0769" fill="#ADD1B2" rx="11" ry="11" style="stroke:#181818;stroke-width:1;"/><path d="M166.0195,288.7175 Q165.4414,289.0144 164.8008,289.155 Q164.1602,289.3113 163.457,289.3113 Q160.957,289.3113 159.6289,287.6706 Q158.3164,286.0144 158.3164,282.8894 Q158.3164,279.7644 159.6289,278.1081 Q160.957,276.4519 163.457,276.4519 Q164.1602,276.4519 164.8008,276.6081 Q165.457,276.7644 166.0195,277.0613 L166.0195,279.78 Q165.3945,279.2019 164.8008,278.9363 Q164.207,278.655 163.582,278.655 Q162.2383,278.655 161.5508,279.7331 Q160.8633,280.7956 160.8633,282.8894 Q160.8633,284.9831 161.5508,286.0613 Q162.2383,287.1238 163.582,287.1238 Q164.207,287.1238 164.8008,286.8581 Q165.3945,286.5769 166.0195,285.9988 L166.0195,288.7175 Z " fill="#000000"/><text fill="#000000" font-family="sans-serif" font-size="14" lengthAdjust="spacing" textLength="118.3711" x="183.5508" y="287.9236">PIA_C212_msg_1</text><line style="stroke:#181818;stroke-width:0.5;" x1="8" x2="444.9727" y1="299.0769" y2="299.0769"/><text fill="#000000" font-family="sans-serif" font-size="14" lengthAdjust="spacing" textLength="172.0264" x="13" y="316.072">Nachricht: MSCONS 2.4c</text><text fill="#000000" font-family="sans-serif" font-size="14" lengthAdjust="spacing" textLength="426.9727" x="13" y="332.3689">Kontext: Beispiel einer Produktidentifikation mittels Medium:</text><text fill="#000000" font-family="sans-serif" font-size="14" lengthAdjust="spacing" textLength="110.5439" x="13" y="348.6657">Pflichtfeld: Nein</text><text fill="#000000" font-family="sans-serif" font-size="14" lengthAdjust="spacing" textLength="422.5361" x="13" y="364.9626">Codes: 27, 35, OCR, PIA, SG, SG5, SG6, SG9, SRW, Z02, Z08</text><text fill="#000000" font-family="sans-serif" font-size="14" lengthAdjust="spacing" textLength="405.4463" x="13" y="381.2595">Prozesse: Anforderung und &#220;bermittlung von Messwerten</text><text fill="#000000" font-family="sans-serif" font-size="14" lengthAdjust="spacing" textLength="294.1641" x="13" y="397.5564">Quelle: MSCONS_MIG_2_4c_20231024.pdf</text><line style="stroke:#181818;stroke-width:0.5;" x1="8" x2="444.9727" y1="404.8581" y2="404.8581"/></g><!--class PIA_C212_msg_2--><g class="entity" data-entity="PIA_C212_msg_2" data-source-line="19" data-uid="ent0005" id="entity_PIA_C212_msg_2"><rect fill="#F1F1F1" height="145.7813" rx="2.5" ry="2.5" style="stroke:#181818;stroke-width:0.5;" width="528.5371" x="481.22" y="267.0769"/><ellipse cx="682.053" cy="283.0769" fill="#ADD1B2" rx="11" ry="11" style="stroke:#181818;stroke-width:1;"/><path d="M685.0218,288.7175 Q684.4436,289.0144 683.803,289.155 Q683.1624,289.3113 682.4593,289.3113 Q679.9593,289.3113 678.6311,287.6706 Q677.3186,286.0144 677.3186,282.8894 Q677.3186,279.7644 678.6311,278.1081 Q679.9593,276.4519 682.4593,276.4519 Q683.1624,276.4519 683.803,276.6081 Q684.4593,276.7644 685.0218,277.0613 L685.0218,279.78 Q684.3968,279.2019 683.803,278.9363 Q683.2093,278.655 682.5843,278.655 Q681.2405,278.655 680.553,279.7331 Q679.8655,280.7956 679.8655,282.8894 Q679.8655,284.9831 680.553,286.0613 Q681.2405,287.1238 682.5843,287.1238 Q683.2093,287.1238 683.803,286.8581 Q684.3968,286.5769 685.0218,285.9988 L685.0218,288.7175 Z " fill="#000000"/><text fill="#000000" font-family="sans-serif" font-size="14" lengthAdjust="spacing" textLength="118.3711" x="702.553" y="287.9236">PIA_C212_msg_2</text><line style="stroke:#181818;stroke-width:0.5;" x1="482.22" x2="1008.7571" y1="299.0769" y2="299.0769"/><text fill="#000000" font-family="sans-serif" font-size="14" lengthAdjust="spacing" textLength="162.2988" x="487.22" y="316.072">Nachricht: PRICAT 2.0d</text><text fill="#000000" font-family="sans-serif" font-size="14" lengthAdjust="spacing" textLength="516.5371" x="487.22" y="332.3689">Kontext: 1310   SG36   C   999999   R   999999   2   LIN - PIA - IMD - SG40</text><text fill="#000000" font-family="sans-serif" font-size="14" lengthAdjust="spacing" textLength="110.5439" x="487.22" y="348.6657">Pflichtfeld: Nein</text><text fill="#000000" font-family="sans-serif" font-size="14" lengthAdjust="spacing" textLength="303.1191" x="487.22" y="364.9626">Codes: 35, 99, IMD, LIN, OCR, PGI, PIA, Z06</text><text fill="#000000" font-family="sans-serif" font-size="14" lengthAdjust="spacing" textLength="251.4395" x="487.22" y="381.2595">Prozesse: Netznutzungsabrechnung</text><text fill="#000000" font-family="sans-serif" font-size="14" lengthAdjust="spacing" textLength="284.4365" x="487.22" y="397.5564">Quelle: PRICAT_MIG_2_0d_20240619.pdf</text><line style="stroke:#181818;stroke-width:0.5;" x1="482.22" x2="1008.7571" y1="404.8581" y2="404.8581"/></g><!--class PIA_C212_msg_3--><g class="entity" data-entity="PIA_C212_msg_3" data-source-line="28" data-uid="ent0007" id="entity_PIA_C212_msg_3"><rect fill="#F1F1F1" height="145.7813" rx="2.5" ry="2.5" style="stroke:#181818;stroke-width:0.5;" width="758.1631" x="1044.4" y="267.0769"/><ellipse cx="1360.046" cy="283.0769" fill="#ADD1B2" rx="11" ry="11" style="stroke:#181818;stroke-width:1;"/><path d="M1363.0147,288.7175 Q1362.4366,289.0144 1361.796,289.155 Q1361.1554,289.3113 1360.4522,289.3113 Q1357.9522,289.3113 1356.6241,287.6706 Q1355.3116,286.0144 1355.3116,282.8894 Q1355.3116,279.7644 1356.6241,278.1081 Q1357.9522,276.4519 1360.4522,276.4519 Q1361.1554,276.4519 1361.796,276.6081 Q1362.4522,276.7644 1363.0147,277.0613 L1363.0147,279.78 Q1362.3897,279.2019 1361.796,278.9363 Q1361.2022,278.655 1360.5772,278.655 Q1359.2335,278.655 1358.546,279.7331 Q1357.8585,280.7956 1357.8585,282.8894 Q1357.8585,284.9831 1358.546,286.0613 Q1359.2335,287.1238 1360.5772,287.1238 Q1361.2022,287.1238 1361.796,286.8581 Q1362.3897,286.5769 1363.0147,285.9988 L1363.0147,288.7175 Z " fill="#000000"/><text fill="#000000" font-family="sans-serif" font-size="14" lengthAdjust="spacing" textLength="118.3711" x="1380.546" y="287.9236">PIA_C212_msg_3</text><line style="stroke:#181818;stroke-width:0.5;" x1="1045.4" x2="1801.5631" y1="299.0769" y2="299.0769"/><text fill="#000000" font-family="sans-serif" font-size="14" lengthAdjust="spacing" textLength="170.3584" x="1050.4" y="316.072">Nachricht: QUOTES 1.3a</text><text fill="#000000" font-family="sans-serif" font-size="14" lengthAdjust="spacing" textLength="170.3447" x="1050.4" y="332.3689">Kontext: Segmentlayout</text><text fill="#000000" font-family="sans-serif" font-size="14" lengthAdjust="spacing" textLength="110.5439" x="1050.4" y="348.6657">Pflichtfeld: Nein</text><text fill="#000000" font-family="sans-serif" font-size="14" lengthAdjust="spacing" textLength="274.8525" x="1050.4" y="364.9626">Codes: 000, 200, 25, 35, OCR, PIA, Z11</text><text fill="#000000" font-family="sans-serif" font-size="14" lengthAdjust="spacing" textLength="408.3174" x="1050.4" y="381.2595">Quelle: QUOTES_MIG_1_3a_Fehlerkorrektur_20241213.pdf</text><line style="stroke:#181818;stroke-width:0.5;" x1="1045.4" x2="1801.5631" y1="388.5613" y2="388.5613"/><text fill="#000000" font-family="sans-serif" font-size="14" lengthAdjust="spacing" textLength="746.1631" x="1050.4" y="405.5564">Prozesse: Bestellung einer technischen Konfiguration (MSB), Sperrung und Entsperrung eines Anschlusses</text></g><!--class PIA_C212_msg_4--><g class="entity" data-entity="PIA_C212_msg_4" data-source-line="37" data-uid="ent0009" id="entity_PIA_C212_msg_4"><rect fill="#F1F1F1" height="145.7813" rx="2.5" ry="2.5" style="stroke:#181818;stroke-width:0.5;" width="431.2959" x="1837.84" y="267.0769"/><ellipse cx="1990.0524" cy="283.0769" fill="#ADD1B2" rx="11" ry="11" style="stroke:#181818;stroke-width:1;"/><path d="M1993.0212,288.7175 Q1992.443,289.0144 1991.8024,289.155 Q1991.1618,289.3113 1990.4587,289.3113 Q1987.9587,289.3113 1986.6305,287.6706 Q1985.318,286.0144 1985.318,282.8894 Q1985.318,279.7644 1986.6305,278.1081 Q1987.9587,276.4519 1990.4587,276.4519 Q1991.1618,276.4519 1991.8024,276.6081 Q1992.4587,276.7644 1993.0212,277.0613 L1993.0212,279.78 Q1992.3962,279.2019 1991.8024,278.9363 Q1991.2087,278.655 1990.5837,278.655 Q1989.2399,278.655 1988.5524,279.7331 Q1987.8649,280.7956 1987.8649,282.8894 Q1987.8649,284.9831 1988.5524,286.0613 Q1989.2399,287.1238 1990.5837,287.1238 Q1991.2087,287.1238 1991.8024,286.8581 Q1992.3962,286.5769 1993.0212,285.9988 L1993.0212,288.7175 Z " fill="#000000"/><text fill="#000000" font-family="sans-serif" font-size="14" lengthAdjust="spacing" textLength="118.3711" x="2010.5524" y="287.9236">PIA_C212_msg_4</text><line style="stroke:#181818;stroke-width:0.5;" x1="1838.84" x2="2268.1359" y1="299.0769" y2="299.0769"/><text fill="#000000" font-family="sans-serif" font-size="14" lengthAdjust="spacing" textLength="170.1055" x="1843.84" y="316.072">Nachricht: REQOTE 1.3b</text><text fill="#000000" font-family="sans-serif" font-size="14" lengthAdjust="spacing" textLength="170.3447" x="1843.84" y="332.3689">Kontext: Segmentlayout</text><text fill="#000000" font-family="sans-serif" font-size="14" lengthAdjust="spacing" textLength="110.5439" x="1843.84" y="348.6657">Pflichtfeld: Nein</text><text fill="#000000" font-family="sans-serif" font-size="14" lengthAdjust="spacing" textLength="203.6084" x="1843.84" y="364.9626">Codes: 25, 35, OCR, PIA, Z11</text><text fill="#000000" font-family="sans-serif" font-size="14" lengthAdjust="spacing" textLength="292.2432" x="1843.84" y="381.2595">Quelle: REQOTE_MIG_1_3b_20241001.pdf</text><line style="stroke:#181818;stroke-width:0.5;" x1="1838.84" x2="2268.1359" y1="388.5613" y2="388.5613"/><text fill="#000000" font-family="sans-serif" font-size="14" lengthAdjust="spacing" textLength="419.2959" x="1843.84" y="405.5564">Prozesse: Bestellung einer technischen Konfiguration (MSB)</text></g><!--class PIA_C212_proc_1--><g class="entity" data-entity="PIA_C212_proc_1" data-source-line="46" data-uid="ent0011" id="entity_PIA_C212_proc_1"><rect fill="#F1F1F1" height="105.1563" rx="2.5" ry="2.5" style="stroke:#181818;stroke-width:0.5;" width="378.2285" x="2304.37" y="287.3869"/><ellipse cx="2429.5053" cy="307.5197" fill="#ADD1B2" rx="11" ry="11" style="stroke:#181818;stroke-width:1;"/><path d="M2432.474,313.1603 Q2431.8959,313.4572 2431.2553,313.5978 Q2430.6146,313.7541 2429.9115,313.7541 Q2427.4115,313.7541 2426.0834,312.1134 Q2424.7709,310.4572 2424.7709,307.3322 Q2424.7709,304.2072 2426.0834,302.5509 Q2427.4115,300.8947 2429.9115,300.8947 Q2430.6146,300.8947 2431.2553,301.0509 Q2431.9115,301.2072 2432.474,301.5041 L2432.474,304.2228 Q2431.849,303.6447 2431.2553,303.3791 Q2430.6615,303.0978 2430.0365,303.0978 Q2428.6928,303.0978 2428.0053,304.1759 Q2427.3178,305.2384 2427.3178,307.3322 Q2427.3178,309.4259 2428.0053,310.5041 Q2428.6928,311.5666 2430.0365,311.5666 Q2430.6615,311.5666 2431.2553,311.3009 Q2431.849,311.0197 2432.474,310.4416 L2432.474,313.1603 Z " fill="#000000"/><text fill="#000000" font-family="sans-serif" font-size="12" font-style="italic" lengthAdjust="spacing" textLength="61.0605" x="2479.204" y="303.5255">&#171;process&#187;</text><text fill="#000000" font-family="sans-serif" font-size="14" lengthAdjust="spacing" textLength="119.458" x="2450.0053" y="319.3507">PIA_C212_proc_1</text><line style="stroke:#181818;stroke-width:0.5;" x1="2305.37" x2="2681.5985" y1="327.6525" y2="327.6525"/><text fill="#000000" font-family="sans-serif" font-size="14" lengthAdjust="spacing" textLength="334.3525" x="2310.37" y="344.6476">Anforderung und &#220;bermittlung von Messwerten</text><text fill="#000000" font-family="sans-serif" font-size="14" lengthAdjust="spacing" textLength="105.0957" x="2310.37" y="360.9445">Gesetze: MsbG</text><line style="stroke:#181818;stroke-width:0.5;" x1="2305.37" x2="2681.5985" y1="368.2463" y2="368.2463"/><text fill="#000000" font-family="sans-serif" font-size="14" lengthAdjust="spacing" textLength="366.2285" x="2310.37" y="385.2414">Zusammenfassung: Wie kann ein Marktpartner (z.B.</text></g><!--class PIA_C212_proc_2--><g class="entity" data-entity="PIA_C212_proc_2" data-source-line="52" data-uid="ent0013" id="entity_PIA_C212_proc_2"><rect fill="#F1F1F1" height="105.1563" rx="2.5" ry="2.5" style="stroke:#181818;stroke-width:0.5;" width="752.6465" x="2717.16" y="287.3869"/><ellipse cx="3029.5042" cy="307.5197" fill="#ADD1B2" rx="11" ry="11" style="stroke:#181818;stroke-width:1;"/><path d="M3032.473,313.1603 Q3031.8949,313.4572 3031.2542,313.5978 Q3030.6136,313.7541 3029.9105,313.7541 Q3027.4105,313.7541 3026.0824,312.1134 Q3024.7699,310.4572 3024.7699,307.3322 Q3024.7699,304.2072 3026.0824,302.5509 Q3027.4105,300.8947 3029.9105,300.8947 Q3030.6136,300.8947 3031.2542,301.0509 Q3031.9105,301.2072 3032.473,301.5041 L3032.473,304.2228 Q3031.848,303.6447 3031.2542,303.3791 Q3030.6605,303.0978 3030.0355,303.0978 Q3028.6917,303.0978 3028.0042,304.1759 Q3027.3167,305.2384 3027.3167,307.3322 Q3027.3167,309.4259 3028.0042,310.5041 Q3028.6917,311.5666 3030.0355,311.5666 Q3030.6605,311.5666 3031.2542,311.3009 Q3031.848,311.0197 3032.473,310.4416 L3032.473,313.1603 Z " fill="#000000"/><text fill="#000000" font-family="sans-serif" font-size="12" font-style="italic" lengthAdjust="spacing" textLength="61.0605" x="3079.203" y="303.5255">&#171;process&#187;</text><text fill="#000000" font-family="sans-serif" font-size="14" lengthAdjust="spacing" textLength="119.458" x="3050.0042" y="319.3507">PIA_C212_proc_2</text><line style="stroke:#181818;stroke-width:0.5;" x1="2718.16" x2="3468.8065" y1="327.6525" y2="327.6525"/><text fill="#000000" font-family="sans-serif" font-size="14" lengthAdjust="spacing" textLength="180.3457" x="2723.16" y="344.6476">Netznutzungsabrechnung</text><text fill="#000000" font-family="sans-serif" font-size="14" lengthAdjust="spacing" textLength="218.0938" x="2723.16" y="360.9445">Gesetze: StromNEV, StromNZV</text><text fill="#000000" font-family="sans-serif" font-size="14" lengthAdjust="spacing" textLength="740.6465" x="2723.16" y="377.2414">Zusammenfassung: Wie funktioniert die Netznutzungsabrechnung zwischen Netzbetreiber und Lieferant?</text><line style="stroke:#181818;stroke-width:0.5;" x1="2718.16" x2="3468.8065" y1="384.5431" y2="384.5431"/></g><!--class PIA_C212_proc_3--><g class="entity" data-entity="PIA_C212_proc_3" data-source-line="58" data-uid="ent0015" id="entity_PIA_C212_proc_3"><rect fill="#F1F1F1" height="105.1563" rx="2.5" ry="2.5" style="stroke:#181818;stroke-width:0.5;" width="1301.9961" x="3504.49" y="287.3869"/><ellipse cx="4091.509" cy="307.5197" fill="#ADD1B2" rx="11" ry="11" style="stroke:#181818;stroke-width:1;"/><path d="M4094.4778,313.1603 Q4093.8997,313.4572 4093.259,313.5978 Q4092.6184,313.7541 4091.9153,313.7541 Q4089.4153,313.7541 4088.0872,312.1134 Q4086.7747,310.4572 4086.7747,307.3322 Q4086.7747,304.2072 4088.0872,302.5509 Q4089.4153,300.8947 4091.9153,300.8947 Q4092.6184,300.8947 4093.259,301.0509 Q4093.9153,301.2072 4094.4778,301.5041 L4094.4778,304.2228 Q4093.8528,303.6447 4093.259,303.3791 Q4092.6653,303.0978 4092.0403,303.0978 Q4090.6965,303.0978 4090.009,304.1759 Q4089.3215,305.2384 4089.3215,307.3322 Q4089.3215,309.4259 4090.009,310.5041 Q4090.6965,311.5666 4092.0403,311.5666 Q4092.6653,311.5666 4093.259,311.3009 Q4093.8528,311.0197 4094.4778,310.4416 L4094.4778,313.1603 Z " fill="#000000"/><text fill="#000000" font-family="sans-serif" font-size="12" font-style="italic" lengthAdjust="spacing" textLength="61.0605" x="4141.2078" y="303.5255">&#171;process&#187;</text><text fill="#000000" font-family="sans-serif" font-size="14" lengthAdjust="spacing" textLength="119.458" x="4112.009" y="319.3507">PIA_C212_proc_3</text><line style="stroke:#181818;stroke-width:0.5;" x1="3505.49" x2="4805.4861" y1="327.6525" y2="327.6525"/><text fill="#000000" font-family="sans-serif" font-size="14" lengthAdjust="spacing" textLength="156.4063" x="3510.49" y="344.6476">Gesetze: MsbG, EnWG</text><text fill="#000000" font-family="sans-serif" font-size="14" lengthAdjust="spacing" textLength="1289.9961" x="3510.49" y="360.9445">Zusammenfassung: Erl&#228;utere den Prozess zur Bestellung einer spezifischen technischen Konfiguration bei einem Messstellenbetreiber, beispielsweise f&#252;r ein intelligentes Messsystem.</text><line style="stroke:#181818;stroke-width:0.5;" x1="3505.49" x2="4805.4861" y1="368.2463" y2="368.2463"/><text fill="#000000" font-family="sans-serif" font-size="14" lengthAdjust="spacing" textLength="348.2021" x="3510.49" y="385.2414">Bestellung einer technischen Konfiguration (MSB)</text></g><!--class PIA_C212_proc_4--><g class="entity" data-entity="PIA_C212_proc_4" data-source-line="64" data-uid="ent0017" id="entity_PIA_C212_proc_4"><rect fill="#F1F1F1" height="105.1563" rx="2.5" ry="2.5" style="stroke:#181818;stroke-width:0.5;" width="853.9893" x="4841.49" y="287.3869"/><ellipse cx="5204.5056" cy="307.5197" fill="#ADD1B2" rx="11" ry="11" style="stroke:#181818;stroke-width:1;"/><path d="M5207.4744,313.1603 Q5206.8963,313.4572 5206.2556,313.5978 Q5205.615,313.7541 5204.9119,313.7541 Q5202.4119,313.7541 5201.0838,312.1134 Q5199.7713,310.4572 5199.7713,307.3322 Q5199.7713,304.2072 5201.0838,302.5509 Q5202.4119,300.8947 5204.9119,300.8947 Q5205.615,300.8947 5206.2556,301.0509 Q5206.9119,301.2072 5207.4744,301.5041 L5207.4744,304.2228 Q5206.8494,303.6447 5206.2556,303.3791 Q5205.6619,303.0978 5205.0369,303.0978 Q5203.6931,303.0978 5203.0056,304.1759 Q5202.3181,305.2384 5202.3181,307.3322 Q5202.3181,309.4259 5203.0056,310.5041 Q5203.6931,311.5666 5205.0369,311.5666 Q5205.6619,311.5666 5206.2556,311.3009 Q5206.8494,311.0197 5207.4744,310.4416 L5207.4744,313.1603 Z " fill="#000000"/><text fill="#000000" font-family="sans-serif" font-size="12" font-style="italic" lengthAdjust="spacing" textLength="61.0605" x="5254.2044" y="303.5255">&#171;process&#187;</text><text fill="#000000" font-family="sans-serif" font-size="14" lengthAdjust="spacing" textLength="119.458" x="5225.0056" y="319.3507">PIA_C212_proc_4</text><line style="stroke:#181818;stroke-width:0.5;" x1="4842.49" x2="5694.4793" y1="327.6525" y2="327.6525"/><text fill="#000000" font-family="sans-serif" font-size="14" lengthAdjust="spacing" textLength="317.9668" x="4847.49" y="344.6476">Sperrung und Entsperrung eines Anschlusses</text><text fill="#000000" font-family="sans-serif" font-size="14" lengthAdjust="spacing" textLength="138.3252" x="4847.49" y="360.9445">Gesetze: StromGVV</text><text fill="#000000" font-family="sans-serif" font-size="14" lengthAdjust="spacing" textLength="841.9893" x="4847.49" y="377.2414">Zusammenfassung: Beschreibe den End-to-End-Prozess f&#252;r die Sperrung und Wiederherstellung eines Netzanschlusses.</text><line style="stroke:#181818;stroke-width:0.5;" x1="4842.49" x2="5694.4793" y1="384.5431" y2="384.5431"/></g><!--link PIA_C212 to PIA_C212_msg_1--><g class="link" data-entity-1="PIA_C212" data-entity-2="PIA_C212_msg_1" data-source-line="18" data-uid="lnk4" id="link_PIA_C212_PIA_C212_msg_1"><path codeLine="18" d="M2086.08,120.5369 C1755.52,127.5669 1048.48,155.6069 463.49,267.0769 C457.78,268.1669 457.887,268.0804 452.097,269.3204" fill="none" id="PIA_C212-to-PIA_C212_msg_1" style="stroke:#181818;stroke-width:1;"/><polygon fill="#181818" points="446.23,270.5769,455.8681,272.6035,451.1191,269.5298,454.1928,264.7808,446.23,270.5769" style="stroke:#181818;stroke-width:1;"/><text fill="#000000" font-family="sans-serif" font-size="13" lengthAdjust="spacing" textLength="85.2363" x="708.49" y="233.1438">verwendet in</text></g><!--link PIA_C212 to PIA_C212_msg_2--><g class="link" data-entity-1="PIA_C212" data-entity-2="PIA_C212_msg_2" data-source-line="27" data-uid="lnk6" id="link_PIA_C212_PIA_C212_msg_2"><path codeLine="27" d="M2086.14,132.8069 C1841.16,153.6969 1399.28,197.4469 1026.49,267.0769 C1021.04,268.0969 1021.4351,267.9884 1015.8951,269.0884" fill="none" id="PIA_C212-to-PIA_C212_msg_2" style="stroke:#181818;stroke-width:1;"/><polygon fill="#181818" points="1010.01,270.2569,1019.6167,272.4275,1014.9143,269.2831,1018.0587,264.5807,1010.01,270.2569" style="stroke:#181818;stroke-width:1;"/><text fill="#000000" font-family="sans-serif" font-size="13" lengthAdjust="spacing" textLength="85.2363" x="1299.49" y="233.1438">verwendet in</text></g><!--link PIA_C212 to PIA_C212_msg_3--><g class="link" data-entity-1="PIA_C212" data-entity-2="PIA_C212_msg_3" data-source-line="36" data-uid="lnk8" id="link_PIA_C212_PIA_C212_msg_3"><path codeLine="36" d="M2085.9,166.9069 C1973.21,196.1769 1833.5373,232.4587 1707.6273,265.1587" fill="none" id="PIA_C212-to-PIA_C212_msg_3" style="stroke:#181818;stroke-width:1;"/><polygon fill="#181818" points="1701.82,266.6669,1711.5365,268.2761,1706.6595,265.41,1709.5255,260.533,1701.82,266.6669" style="stroke:#181818;stroke-width:1;"/><text fill="#000000" font-family="sans-serif" font-size="13" lengthAdjust="spacing" textLength="85.2363" x="1875.49" y="233.1438">verwendet in</text></g><!--link PIA_C212 to PIA_C212_msg_4--><g class="link" data-entity-1="PIA_C212" data-entity-2="PIA_C212_msg_4" data-source-line="45" data-uid="lnk10" id="link_PIA_C212_PIA_C212_msg_4"><path codeLine="45" d="M2201.45,190.4769 C2177.01,214.9969 2153.9657,238.1373 2129.5457,262.6373" fill="none" id="PIA_C212-to-PIA_C212_msg_4" style="stroke:#181818;stroke-width:1;"/><polygon fill="#181818" points="2125.31,266.8869,2134.4966,263.3363,2128.8397,263.3456,2128.8305,257.6887,2125.31,266.8869" style="stroke:#181818;stroke-width:1;"/><text fill="#000000" font-family="sans-serif" font-size="13" lengthAdjust="spacing" textLength="85.2363" x="2171.49" y="233.1438">verwendet in</text></g><!--link PIA_C212 to PIA_C212_proc_1--><g class="link" data-entity-1="PIA_C212" data-entity-2="PIA_C212_proc_1" data-source-line="51" data-uid="lnk12" id="link_PIA_C212_PIA_C212_proc_1"><path codeLine="51" d="M2345.52,190.4769 C2376.98,222.0469 2408.9147,254.0969 2437.6247,282.9069" fill="none" id="PIA_C212-to-PIA_C212_proc_1" style="stroke:#181818;stroke-width:1;stroke-dasharray:7,7;"/><polygon fill="#181818" points="2441.86,287.1569,2438.3405,277.9584,2438.3306,283.6152,2432.6738,283.6054,2441.86,287.1569" style="stroke:#181818;stroke-width:1;"/><text fill="#000000" font-family="sans-serif" font-size="13" lengthAdjust="spacing" textLength="91.6221" x="2391.49" y="233.1438">eingebettet in</text></g><!--link PIA_C212 to PIA_C212_proc_2--><g class="link" data-entity-1="PIA_C212" data-entity-2="PIA_C212_proc_2" data-source-line="57" data-uid="lnk14" id="link_PIA_C212_PIA_C212_proc_2"><path codeLine="57" d="M2460.84,168.6269 C2592.26,204.0169 2761.6863,249.627 2894.3963,285.357" fill="none" id="PIA_C212-to-PIA_C212_proc_2" style="stroke:#181818;stroke-width:1;stroke-dasharray:7,7;"/><polygon fill="#181818" points="2900.19,286.9169,2892.5394,280.7146,2895.3619,285.617,2890.4596,288.4396,2900.19,286.9169" style="stroke:#181818;stroke-width:1;"/><text fill="#000000" font-family="sans-serif" font-size="13" lengthAdjust="spacing" textLength="91.6221" x="2709.49" y="233.1438">eingebettet in</text></g><!--link PIA_C212 to PIA_C212_proc_3--><g class="link" data-entity-1="PIA_C212" data-entity-2="PIA_C212_proc_3" data-source-line="63" data-uid="lnk16" id="link_PIA_C212_PIA_C212_proc_3"><path codeLine="63" d="M2460.82,140.1569 C2750.2,174.1069 3308.0608,239.5579 3705.7108,286.1979" fill="none" id="PIA_C212-to-PIA_C212_proc_3" style="stroke:#181818;stroke-width:1;stroke-dasharray:7,7;"/><polygon fill="#181818" points="3711.67,286.8969,3703.1972,281.8757,3706.704,286.3144,3702.2653,289.8212,3711.67,286.8969" style="stroke:#181818;stroke-width:1;"/><text fill="#000000" font-family="sans-serif" font-size="13" lengthAdjust="spacing" textLength="91.6221" x="3272.49" y="233.1438">eingebettet in</text></g><!--link PIA_C212 to PIA_C212_proc_4--><g class="link" data-entity-1="PIA_C212" data-entity-2="PIA_C212_proc_4" data-source-line="69" data-uid="lnk18" id="link_PIA_C212_PIA_C212_proc_4"><path codeLine="69" d="M2460.79,122.5969 C2883.36,133.9669 3942.68,170.4669 4823.49,267.0769 C4872.01,272.3969 4917.3675,278.4994 4967.2075,286.0394" fill="none" id="PIA_C212-to-PIA_C212_proc_4" style="stroke:#181818;stroke-width:1;stroke-dasharray:7,7;"/><polygon fill="#181818" points="4973.14,286.9369,4964.8396,281.6356,4968.1963,286.189,4963.6429,289.5456,4973.14,286.9369" style="stroke:#181818;stroke-width:1;"/><text fill="#000000" font-family="sans-serif" font-size="13" lengthAdjust="spacing" textLength="91.6221" x="4479.49" y="233.1438">eingebettet in</text></g><!--SRC=[hPNTRjem5CVl-nJdifC2orUx5LLCBMK8hL1AkbRY9Wha12mI1zbEkpBjJNQvnzXTNsp78RHybb8DASQEStpE_-TpRCLKZ70HAEI1YWC99UWqpoersx8F1ZIMUkZh8Vmy06W72LRWBX38InylaKcLyQ7aMPAWCA0P8bSiOkD0iPJJvnsHJb5Ah50VQEap7gKYH456aF4GddxtKIHCgLY_kKyvjEZp1nGKJc7IHZNbcPfgFq5Vu634gLjCdgDK6EV6o3WAK7gUoS48ENnBUSI6cSY3WSEMT_wXCFCcA9vZg7CbvsEzYAGeQO4uexZbmQyL2duYXxvLi1YC11kCL0LQNksgxO5TTWSqGOuL_g3NvmHemZ0kWYCQOJPMR8aIQFaOIr8UiYpHf3fHh9UDC0uhf9zf5BKqH5a1-vC1pf41LxMkeMCom6levqWtnxeveQPxPq3Fj7NpUN4NzkL_dH5SdClpMys6R_lkmBTDsx5CsorFmeW8FMT8gLHT1LM1UnGFo4DKG48smBHNONQwpThP3S4qmqMO5hcatVCQpZ7zrUWvoN_KwIuER7ekc-rP8bFRR5teBM-uvkjeDTOJeaVV6tg1EUH6io3TCu-NO6xDp3cscP02cnbgRAvvR9tin6Q_0PkpYktw-zLDtGEhx0IBs3mS9fHlSV2OPkfr0gPf6c3dpT5gclKiQqdylfLdx5DqBmXdedA4bky4_bSSnIZ6gH0uLfd8aLgsvUn4whm1gRkAj5k_9lSQQV-TIFy_o0Kui_3cSFep6APfxOJXxe0n4Uc0QlVqL7Sep6er9xFdwT50IHMYZm_PRz2ubyc0xWaUaIyoe6k48Om3phLmQ0LYh2Q1K9h1uRHyNbwKK2vNryAhQBiXzf7Epwqgx3KLMylsELvFYJHfrs-DejUxtHPzbF6ntXf6cY6a5viNX-b3iQ5wdW8Mo0XT3l6IOOGYuEhBwthjj-brrlI-8y6MTiwWOhtRk7zr4J_zoHGA1BhIvZaDqqoiEwLgdzATD_EwFO8-ijmWoLCfNmFvCp13p-StAcKPayJ_wQ_8iuTn_IaRKbcYdDa-adMo8ucSjq5rrw3kTPWj9rRZTcCw4J4wTxJC76QTXoMLblJVd6ikLYVPadDAGoh94Oebu3BFjE0bZ1qWt3KG_m00]--></g></svg>