<svg xmlns="http://www.w3.org/2000/svg" xmlns:xlink="http://www.w3.org/1999/xlink" contentStyleType="text/css" data-diagram-type="CLASS" height="387px" preserveAspectRatio="none" style="width:2280px;height:387px;background:#FFFFFF;" version="1.1" viewBox="0 0 2280 387" width="2280px" zoomAndPan="magnify"><title>Datenatlas - PRC:E_1009</title><defs/><g><g class="title" data-source-line="1"><text fill="#000000" font-family="sans-serif" font-size="14" font-weight="bold" lengthAdjust="spacing" textLength="193.9424" x="1036.2671" y="22.9951">Datenatlas - PRC:E_1009</text></g><!--class PRC_E_1009--><g class="entity" data-entity="PRC_E_1009" data-source-line="2" data-uid="ent0002" id="entity_PRC_E_1009"><rect fill="#F1F1F1" height="113.1875" rx="2.5" ry="2.5" style="stroke:#181818;stroke-width:0.5;" width="1613.5166" x="252.39" y="44.2969"/><ellipse cx="1011.6883" cy="60.2969" fill="#ADD1B2" rx="11" ry="11" style="stroke:#181818;stroke-width:1;"/><path d="M1014.6571,65.9375 Q1014.079,66.2344 1013.4383,66.375 Q1012.7977,66.5313 1012.0946,66.5313 Q1009.5946,66.5313 1008.2665,64.8906 Q1006.954,63.2344 1006.954,60.1094 Q1006.954,56.9844 1008.2665,55.3281 Q1009.5946,53.6719 1012.0946,53.6719 Q1012.7977,53.6719 1013.4383,53.8281 Q1014.0946,53.9844 1014.6571,54.2813 L1014.6571,57 Q1014.0321,56.4219 1013.4383,56.1563 Q1012.8446,55.875 1012.2196,55.875 Q1010.8758,55.875 1010.1883,56.9531 Q1009.5008,58.0156 1009.5008,60.1094 Q1009.5008,62.2031 1010.1883,63.2813 Q1010.8758,64.3438 1012.2196,64.3438 Q1012.8446,64.3438 1013.4383,64.0781 Q1014.0321,63.7969 1014.6571,63.2188 L1014.6571,65.9375 Z " fill="#000000"/><text fill="#000000" font-family="sans-serif" font-size="14" lengthAdjust="spacing" textLength="86.4199" x="1032.1883" y="65.1436">PRC_E_1009</text><line style="stroke:#181818;stroke-width:0.5;" x1="253.39" x2="1864.9066" y1="76.2969" y2="76.2969"/><text fill="#000000" font-family="sans-serif" font-size="14" lengthAdjust="spacing" textLength="66.6436" x="272.39" y="93.292">Prozesse:</text><rect fill="none" height="6" style="stroke:#C82930;stroke-width:1;" width="6" x="260.39" y="103.2422"/><text fill="#000000" font-family="sans-serif" font-size="14" lengthAdjust="spacing" textLength="317.9668" x="272.39" y="109.5889">Sperrung und Entsperrung eines Anschlusses</text><rect fill="none" height="6" style="stroke:#C82930;stroke-width:1;" width="6" x="260.39" y="119.5391"/><text fill="#000000" font-family="sans-serif" font-size="14" lengthAdjust="spacing" textLength="180.3457" x="272.39" y="125.8857">Netznutzungsabrechnung</text><line style="stroke:#181818;stroke-width:0.5;" x1="253.39" x2="1864.9066" y1="133.1875" y2="133.1875"/><text fill="#000000" font-family="sans-serif" font-size="14" lengthAdjust="spacing" textLength="1601.5166" x="258.39" y="150.1826">Name: EBD Nr. E_1009 erneut Rechnung einer sonstigen Leistung pr&#252;fen. Dies kann f&#252;r die Rechnung zur Beauftragung der Unterbrechung der Anschlussnutzung (Sperren) oder die Rechnung zu Verzugskosten beinhalten (Gas).</text></g><!--class PRC_E_1009_msg_1--><g class="entity" data-entity="PRC_E_1009_msg_1" data-source-line="8" data-uid="ent0003" id="entity_PRC_E_1009_msg_1"><rect fill="#F1F1F1" height="145.7813" rx="2.5" ry="2.5" style="stroke:#181818;stroke-width:0.5;" width="590.3066" x="7" y="234.4869"/><ellipse cx="228.3306" cy="250.4869" fill="#ADD1B2" rx="11" ry="11" style="stroke:#181818;stroke-width:1;"/><path d="M231.2993,256.1275 Q230.7212,256.4244 230.0806,256.565 Q229.4399,256.7213 228.7368,256.7213 Q226.2368,256.7213 224.9087,255.0806 Q223.5962,253.4244 223.5962,250.2994 Q223.5962,247.1744 224.9087,245.5181 Q226.2368,243.8619 228.7368,243.8619 Q229.4399,243.8619 230.0806,244.0181 Q230.7368,244.1744 231.2993,244.4713 L231.2993,247.19 Q230.6743,246.6119 230.0806,246.3463 Q229.4868,246.065 228.8618,246.065 Q227.5181,246.065 226.8306,247.1431 Q226.1431,248.2056 226.1431,250.2994 Q226.1431,252.3931 226.8306,253.4713 Q227.5181,254.5338 228.8618,254.5338 Q229.4868,254.5338 230.0806,254.2681 Q230.6743,253.9869 231.2993,253.4088 L231.2993,256.1275 Z " fill="#000000"/><text fill="#000000" font-family="sans-serif" font-size="14" lengthAdjust="spacing" textLength="139.1455" x="248.8306" y="255.3336">PRC_E_1009_msg_1</text><line style="stroke:#181818;stroke-width:0.5;" x1="8" x2="596.3066" y1="266.4869" y2="266.4869"/><text fill="#000000" font-family="sans-serif" font-size="14" lengthAdjust="spacing" textLength="171.4932" x="13" y="283.482">Nachricht: REMADV 2.9c</text><text fill="#000000" font-family="sans-serif" font-size="14" lengthAdjust="spacing" textLength="123.0605" x="13" y="299.7789">Kontext: Beispiel:</text><text fill="#000000" font-family="sans-serif" font-size="14" lengthAdjust="spacing" textLength="91.4033" x="13" y="316.0757">Pflichtfeld: Ja</text><text fill="#000000" font-family="sans-serif" font-size="14" lengthAdjust="spacing" textLength="282.1943" x="13" y="332.3726">Codes: EBD, ESA, LF, MGV, MSB, NB, NN</text><text fill="#000000" font-family="sans-serif" font-size="14" lengthAdjust="spacing" textLength="578.3066" x="13" y="348.6695">Prozesse: Sperrung und Entsperrung eines Anschlusses, Netznutzungsabrechnung</text><text fill="#000000" font-family="sans-serif" font-size="14" lengthAdjust="spacing" textLength="291.0811" x="13" y="364.9664">Quelle: REMADV_MIG_2.9c_20231024.pdf</text><line style="stroke:#181818;stroke-width:0.5;" x1="8" x2="596.3066" y1="372.2681" y2="372.2681"/></g><!--class PRC_E_1009_proc_1--><g class="entity" data-entity="PRC_E_1009_proc_1" data-source-line="17" data-uid="ent0005" id="entity_PRC_E_1009_proc_1"><rect fill="#F1F1F1" height="105.1563" rx="2.5" ry="2.5" style="stroke:#181818;stroke-width:0.5;" width="853.9893" x="632.16" y="254.7969"/><ellipse cx="984.7884" cy="274.9297" fill="#ADD1B2" rx="11" ry="11" style="stroke:#181818;stroke-width:1;"/><path d="M987.7572,280.5703 Q987.179,280.8672 986.5384,281.0078 Q985.8978,281.1641 985.1947,281.1641 Q982.6947,281.1641 981.3665,279.5234 Q980.054,277.8672 980.054,274.7422 Q980.054,271.6172 981.3665,269.9609 Q982.6947,268.3047 985.1947,268.3047 Q985.8978,268.3047 986.5384,268.4609 Q987.1947,268.6172 987.7572,268.9141 L987.7572,271.6328 Q987.1322,271.0547 986.5384,270.7891 Q985.9447,270.5078 985.3197,270.5078 Q983.9759,270.5078 983.2884,271.5859 Q982.6009,272.6484 982.6009,274.7422 Q982.6009,276.8359 983.2884,277.9141 Q983.9759,278.9766 985.3197,278.9766 Q985.9447,278.9766 986.5384,278.7109 Q987.1322,278.4297 987.7572,277.8516 L987.7572,280.5703 Z " fill="#000000"/><text fill="#000000" font-family="sans-serif" font-size="12" font-style="italic" lengthAdjust="spacing" textLength="61.0605" x="1044.8744" y="270.9355">&#171;process&#187;</text><text fill="#000000" font-family="sans-serif" font-size="14" lengthAdjust="spacing" textLength="140.2324" x="1005.2884" y="286.7607">PRC_E_1009_proc_1</text><line style="stroke:#181818;stroke-width:0.5;" x1="633.16" x2="1485.1493" y1="295.0625" y2="295.0625"/><text fill="#000000" font-family="sans-serif" font-size="14" lengthAdjust="spacing" textLength="317.9668" x="638.16" y="312.0576">Sperrung und Entsperrung eines Anschlusses</text><text fill="#000000" font-family="sans-serif" font-size="14" lengthAdjust="spacing" textLength="138.3252" x="638.16" y="328.3545">Gesetze: StromGVV</text><text fill="#000000" font-family="sans-serif" font-size="14" lengthAdjust="spacing" textLength="841.9893" x="638.16" y="344.6514">Zusammenfassung: Beschreibe den End-to-End-Prozess f&#252;r die Sperrung und Wiederherstellung eines Netzanschlusses.</text><line style="stroke:#181818;stroke-width:0.5;" x1="633.16" x2="1485.1493" y1="351.9531" y2="351.9531"/></g><!--class PRC_E_1009_proc_2--><g class="entity" data-entity="PRC_E_1009_proc_2" data-source-line="23" data-uid="ent0007" id="entity_PRC_E_1009_proc_2"><rect fill="#F1F1F1" height="105.1563" rx="2.5" ry="2.5" style="stroke:#181818;stroke-width:0.5;" width="752.6465" x="1520.83" y="254.7969"/><ellipse cx="1822.787" cy="274.9297" fill="#ADD1B2" rx="11" ry="11" style="stroke:#181818;stroke-width:1;"/><path d="M1825.7558,280.5703 Q1825.1777,280.8672 1824.537,281.0078 Q1823.8964,281.1641 1823.1933,281.1641 Q1820.6933,281.1641 1819.3652,279.5234 Q1818.0527,277.8672 1818.0527,274.7422 Q1818.0527,271.6172 1819.3652,269.9609 Q1820.6933,268.3047 1823.1933,268.3047 Q1823.8964,268.3047 1824.537,268.4609 Q1825.1933,268.6172 1825.7558,268.9141 L1825.7558,271.6328 Q1825.1308,271.0547 1824.537,270.7891 Q1823.9433,270.5078 1823.3183,270.5078 Q1821.9745,270.5078 1821.287,271.5859 Q1820.5995,272.6484 1820.5995,274.7422 Q1820.5995,276.8359 1821.287,277.9141 Q1821.9745,278.9766 1823.3183,278.9766 Q1823.9433,278.9766 1824.537,278.7109 Q1825.1308,278.4297 1825.7558,277.8516 L1825.7558,280.5703 Z " fill="#000000"/><text fill="#000000" font-family="sans-serif" font-size="12" font-style="italic" lengthAdjust="spacing" textLength="61.0605" x="1882.873" y="270.9355">&#171;process&#187;</text><text fill="#000000" font-family="sans-serif" font-size="14" lengthAdjust="spacing" textLength="140.2324" x="1843.287" y="286.7607">PRC_E_1009_proc_2</text><line style="stroke:#181818;stroke-width:0.5;" x1="1521.83" x2="2272.4765" y1="295.0625" y2="295.0625"/><text fill="#000000" font-family="sans-serif" font-size="14" lengthAdjust="spacing" textLength="180.3457" x="1526.83" y="312.0576">Netznutzungsabrechnung</text><text fill="#000000" font-family="sans-serif" font-size="14" lengthAdjust="spacing" textLength="218.0938" x="1526.83" y="328.3545">Gesetze: StromNEV, StromNZV</text><text fill="#000000" font-family="sans-serif" font-size="14" lengthAdjust="spacing" textLength="740.6465" x="1526.83" y="344.6514">Zusammenfassung: Wie funktioniert die Netznutzungsabrechnung zwischen Netzbetreiber und Lieferant?</text><line style="stroke:#181818;stroke-width:0.5;" x1="1521.83" x2="2272.4765" y1="351.9531" y2="351.9531"/></g><!--link PRC_E_1009 to PRC_E_1009_msg_1--><g class="link" data-entity-1="PRC_E_1009" data-entity-2="PRC_E_1009_msg_1" data-source-line="16" data-uid="lnk4" id="link_PRC_E_1009_PRC_E_1009_msg_1"><path codeLine="16" d="M851.55,157.9669 C764.66,181.4369 668.3623,207.4518 575.9123,232.4318" fill="none" id="PRC_E_1009-to-PRC_E_1009_msg_1" style="stroke:#181818;stroke-width:1;"/><polygon fill="#181818" points="570.12,233.9969,579.8518,235.5108,574.9469,232.6926,577.765,227.7877,570.12,233.9969" style="stroke:#181818;stroke-width:1;"/><text fill="#000000" font-family="sans-serif" font-size="13" lengthAdjust="spacing" textLength="85.2363" x="727.15" y="200.5538">verwendet in</text></g><!--link PRC_E_1009 to PRC_E_1009_proc_1--><g class="link" data-entity-1="PRC_E_1009" data-entity-2="PRC_E_1009_proc_1" data-source-line="22" data-uid="lnk6" id="link_PRC_E_1009_PRC_E_1009_proc_1"><path codeLine="22" d="M1059.15,157.7669 C1059.15,187.9169 1059.15,218.9069 1059.15,248.4269" fill="none" id="PRC_E_1009-to-PRC_E_1009_proc_1" style="stroke:#181818;stroke-width:1;stroke-dasharray:7,7;"/><polygon fill="#181818" points="1059.15,254.4269,1063.15,245.4269,1059.15,249.4269,1055.15,245.4269,1059.15,254.4269" style="stroke:#181818;stroke-width:1;"/><text fill="#000000" font-family="sans-serif" font-size="13" lengthAdjust="spacing" textLength="91.6221" x="1060.15" y="200.5538">eingebettet in</text></g><!--link PRC_E_1009 to PRC_E_1009_proc_2--><g class="link" data-entity-1="PRC_E_1009" data-entity-2="PRC_E_1009_proc_2" data-source-line="28" data-uid="lnk8" id="link_PRC_E_1009_PRC_E_1009_proc_2"><path codeLine="28" d="M1288.97,157.9669 C1412.29,188.0669 1557.451,223.4845 1678.141,252.9345" fill="none" id="PRC_E_1009-to-PRC_E_1009_proc_2" style="stroke:#181818;stroke-width:1;stroke-dasharray:7,7;"/><polygon fill="#181818" points="1683.97,254.3569,1676.1748,248.3374,1679.1125,253.1716,1674.2783,256.1093,1683.97,254.3569" style="stroke:#181818;stroke-width:1;"/><text fill="#000000" font-family="sans-serif" font-size="13" lengthAdjust="spacing" textLength="91.6221" x="1479.15" y="200.5538">eingebettet in</text></g><!--SRC=[bPB1Rjf048RlFCKS4maiS7k95L51S55Ri2YeLCh5MkonlM8PezrrKxdgc-MM5-ki0oBKf5KEjjSpExF_z-zOQHN2H5WaOPKmq8F5yYu8uq6_VzD9E69S87uEmAyEG2Hs640uda2aFJWaK1DM5fQO55HH3YW9DPYIZ9Kv4inG6kiIU_tqc25vC95eO2k887jwr91AF5NNbOOnYYgpMkGka7ApRsHHRpJlEKP6P992LSPGPMiNl5hjKMkaQoXT_g-Ui4PTLxdPbePnOSCQ2w7SycegpBN7R0jTrcWC1hm6zgBfvwehIY4aQux_Zi-S1A0v54HewuCQ8ngnxl3ExvQLySxayU1WQ59ecHGsW6Ku7qtMu7it2IU-b8pyayDZTcylKJbPYqovlHcgD83FWYDt36kQ6-b2k1frOVQn2_Ffcb-hSHSYzqGluTw0rNsD2E1hXKhXKNCy_pIDdUxOx_ll1dt_lRTFCmP_CJszth3jG00_K3yWfMX1KjkdlIuJtdPxwnOiVpXiJ7lJpKpHC8K3jxhSJTThZjrNHknsI1cVntNEP2xHA3V8mqNSC-tPikS-1-DEWtfs-7U9F6m5QfugfKuId77Y9CCxzyBpXXSe0rURumQj_PSTVikELs_f73qAUIgUL_SNJM0Oo2hQMbcIH6qRtClDeNwGJCTMkJnBRhpJZISpYHbgGVR3_wdz5lKV]--></g></svg>