<svg xmlns="http://www.w3.org/2000/svg" xmlns:xlink="http://www.w3.org/1999/xlink" contentStyleType="text/css" data-diagram-type="CLASS" height="370px" preserveAspectRatio="none" style="width:1159px;height:370px;background:#FFFFFF;" version="1.1" viewBox="0 0 1159 370" width="1159px" zoomAndPan="magnify"><title>Datenatlas - PRC:E_0261</title><defs/><g><g class="title" data-source-line="1"><text fill="#000000" font-family="sans-serif" font-size="14" font-weight="bold" lengthAdjust="spacing" textLength="193.9424" x="475.9271" y="22.9951">Datenatlas - PRC:E_0261</text></g><!--class PRC_E_0261--><g class="entity" data-entity="PRC_E_0261" data-source-line="2" data-uid="ent0002" id="entity_PRC_E_0261"><rect fill="#F1F1F1" height="96.8906" rx="2.5" ry="2.5" style="stroke:#181818;stroke-width:0.5;" width="974.9443" x="7" y="44.2969"/><ellipse cx="447.0122" cy="60.2969" fill="#ADD1B2" rx="11" ry="11" style="stroke:#181818;stroke-width:1;"/><path d="M449.981,65.9375 Q449.4028,66.2344 448.7622,66.375 Q448.1216,66.5313 447.4185,66.5313 Q444.9185,66.5313 443.5903,64.8906 Q442.2778,63.2344 442.2778,60.1094 Q442.2778,56.9844 443.5903,55.3281 Q444.9185,53.6719 447.4185,53.6719 Q448.1216,53.6719 448.7622,53.8281 Q449.4185,53.9844 449.981,54.2813 L449.981,57 Q449.356,56.4219 448.7622,56.1563 Q448.1685,55.875 447.5435,55.875 Q446.1997,55.875 445.5122,56.9531 Q444.8247,58.0156 444.8247,60.1094 Q444.8247,62.2031 445.5122,63.2813 Q446.1997,64.3438 447.5435,64.3438 Q448.1685,64.3438 448.7622,64.0781 Q449.356,63.7969 449.981,63.2188 L449.981,65.9375 Z " fill="#000000"/><text fill="#000000" font-family="sans-serif" font-size="14" lengthAdjust="spacing" textLength="86.4199" x="467.5122" y="65.1436">PRC_E_0261</text><line style="stroke:#181818;stroke-width:0.5;" x1="8" x2="980.9443" y1="76.2969" y2="76.2969"/><text fill="#000000" font-family="sans-serif" font-size="14" lengthAdjust="spacing" textLength="66.6436" x="27" y="93.292">Prozesse:</text><rect fill="none" height="6" style="stroke:#C82930;stroke-width:1;" width="6" x="15" y="103.2422"/><text fill="#000000" font-family="sans-serif" font-size="14" lengthAdjust="spacing" textLength="180.3457" x="27" y="109.5889">Netznutzungsabrechnung</text><line style="stroke:#181818;stroke-width:0.5;" x1="8" x2="980.9443" y1="116.8906" y2="116.8906"/><text fill="#000000" font-family="sans-serif" font-size="14" lengthAdjust="spacing" textLength="962.9443" x="13" y="133.8857">Name: EBD Nr. E_0261 Storno verarbeiten Codeliste zur Pr&#252;fung f&#252;r die Antwort auf eine Stornierung (Abrechnung von Dienstleistungen)</text></g><!--class PRC_E_0261_msg_1--><g class="entity" data-entity="PRC_E_0261_msg_1" data-source-line="7" data-uid="ent0003" id="entity_PRC_E_0261_msg_1"><rect fill="#F1F1F1" height="145.7813" rx="2.5" ry="2.5" style="stroke:#181818;stroke-width:0.5;" width="303.0811" x="61.93" y="218.1869"/><ellipse cx="139.6478" cy="234.1869" fill="#ADD1B2" rx="11" ry="11" style="stroke:#181818;stroke-width:1;"/><path d="M142.6165,239.8275 Q142.0384,240.1244 141.3978,240.265 Q140.7571,240.4213 140.054,240.4213 Q137.554,240.4213 136.2259,238.7806 Q134.9134,237.1244 134.9134,233.9994 Q134.9134,230.8744 136.2259,229.2181 Q137.554,227.5619 140.054,227.5619 Q140.7571,227.5619 141.3978,227.7181 Q142.054,227.8744 142.6165,228.1713 L142.6165,230.89 Q141.9915,230.3119 141.3978,230.0463 Q140.804,229.765 140.179,229.765 Q138.8353,229.765 138.1478,230.8431 Q137.4603,231.9056 137.4603,233.9994 Q137.4603,236.0931 138.1478,237.1713 Q138.8353,238.2338 140.179,238.2338 Q140.804,238.2338 141.3978,237.9681 Q141.9915,237.6869 142.6165,237.1088 L142.6165,239.8275 Z " fill="#000000"/><text fill="#000000" font-family="sans-serif" font-size="14" lengthAdjust="spacing" textLength="139.1455" x="160.1478" y="239.0336">PRC_E_0261_msg_1</text><line style="stroke:#181818;stroke-width:0.5;" x1="62.93" x2="364.0111" y1="250.1869" y2="250.1869"/><text fill="#000000" font-family="sans-serif" font-size="14" lengthAdjust="spacing" textLength="171.4932" x="67.93" y="267.182">Nachricht: REMADV 2.9c</text><text fill="#000000" font-family="sans-serif" font-size="14" lengthAdjust="spacing" textLength="123.0605" x="67.93" y="283.4789">Kontext: Beispiel:</text><text fill="#000000" font-family="sans-serif" font-size="14" lengthAdjust="spacing" textLength="91.4033" x="67.93" y="299.7757">Pflichtfeld: Ja</text><text fill="#000000" font-family="sans-serif" font-size="14" lengthAdjust="spacing" textLength="282.1943" x="67.93" y="316.0726">Codes: EBD, ESA, LF, MGV, MSB, NB, NN</text><text fill="#000000" font-family="sans-serif" font-size="14" lengthAdjust="spacing" textLength="251.4395" x="67.93" y="332.3695">Prozesse: Netznutzungsabrechnung</text><text fill="#000000" font-family="sans-serif" font-size="14" lengthAdjust="spacing" textLength="291.0811" x="67.93" y="348.6664">Quelle: REMADV_MIG_2.9c_20231024.pdf</text><line style="stroke:#181818;stroke-width:0.5;" x1="62.93" x2="364.0111" y1="355.9681" y2="355.9681"/></g><!--class PRC_E_0261_proc_1--><g class="entity" data-entity="PRC_E_0261_proc_1" data-source-line="16" data-uid="ent0005" id="entity_PRC_E_0261_proc_1"><rect fill="#F1F1F1" height="105.1563" rx="2.5" ry="2.5" style="stroke:#181818;stroke-width:0.5;" width="752.6465" x="400.15" y="238.4969"/><ellipse cx="702.107" cy="258.6297" fill="#ADD1B2" rx="11" ry="11" style="stroke:#181818;stroke-width:1;"/><path d="M705.0758,264.2703 Q704.4977,264.5672 703.857,264.7078 Q703.2164,264.8641 702.5133,264.8641 Q700.0133,264.8641 698.6852,263.2234 Q697.3727,261.5672 697.3727,258.4422 Q697.3727,255.3172 698.6852,253.6609 Q700.0133,252.0047 702.5133,252.0047 Q703.2164,252.0047 703.857,252.1609 Q704.5133,252.3172 705.0758,252.6141 L705.0758,255.3328 Q704.4508,254.7547 703.857,254.4891 Q703.2633,254.2078 702.6383,254.2078 Q701.2945,254.2078 700.607,255.2859 Q699.9195,256.3484 699.9195,258.4422 Q699.9195,260.5359 700.607,261.6141 Q701.2945,262.6766 702.6383,262.6766 Q703.2633,262.6766 703.857,262.4109 Q704.4508,262.1297 705.0758,261.5516 L705.0758,264.2703 Z " fill="#000000"/><text fill="#000000" font-family="sans-serif" font-size="12" font-style="italic" lengthAdjust="spacing" textLength="61.0605" x="762.193" y="254.6355">&#171;process&#187;</text><text fill="#000000" font-family="sans-serif" font-size="14" lengthAdjust="spacing" textLength="140.2324" x="722.607" y="270.4607">PRC_E_0261_proc_1</text><line style="stroke:#181818;stroke-width:0.5;" x1="401.15" x2="1151.7965" y1="278.7625" y2="278.7625"/><text fill="#000000" font-family="sans-serif" font-size="14" lengthAdjust="spacing" textLength="180.3457" x="406.15" y="295.7576">Netznutzungsabrechnung</text><text fill="#000000" font-family="sans-serif" font-size="14" lengthAdjust="spacing" textLength="218.0938" x="406.15" y="312.0545">Gesetze: StromNEV, StromNZV</text><text fill="#000000" font-family="sans-serif" font-size="14" lengthAdjust="spacing" textLength="740.6465" x="406.15" y="328.3514">Zusammenfassung: Wie funktioniert die Netznutzungsabrechnung zwischen Netzbetreiber und Lieferant?</text><line style="stroke:#181818;stroke-width:0.5;" x1="401.15" x2="1151.7965" y1="335.6531" y2="335.6531"/></g><!--link PRC_E_0261 to PRC_E_0261_msg_1--><g class="link" data-entity-1="PRC_E_0261" data-entity-2="PRC_E_0261_msg_1" data-source-line="15" data-uid="lnk4" id="link_PRC_E_0261_PRC_E_0261_msg_1"><path codeLine="15" d="M426.09,141.5169 C393.28,164.4469 358.1786,188.9707 321.7486,214.4207" fill="none" id="PRC_E_0261-to-PRC_E_0261_msg_1" style="stroke:#181818;stroke-width:1;"/><polygon fill="#181818" points="316.83,217.8569,326.4987,215.9817,320.9289,214.9934,321.9172,209.4236,316.83,217.8569" style="stroke:#181818;stroke-width:1;"/><text fill="#000000" font-family="sans-serif" font-size="13" lengthAdjust="spacing" textLength="85.2363" x="380.47" y="184.2538">verwendet in</text></g><!--link PRC_E_0261 to PRC_E_0261_proc_1--><g class="link" data-entity-1="PRC_E_0261" data-entity-2="PRC_E_0261_proc_1" data-source-line="21" data-uid="lnk6" id="link_PRC_E_0261_PRC_E_0261_proc_1"><path codeLine="21" d="M563.1,141.5169 C605.08,170.7469 653.8761,204.7182 696.9161,234.6882" fill="none" id="PRC_E_0261-to-PRC_E_0261_proc_1" style="stroke:#181818;stroke-width:1;stroke-dasharray:7,7;"/><polygon fill="#181818" points="701.84,238.1169,696.74,229.6913,697.7368,235.2597,692.1684,236.2565,701.84,238.1169" style="stroke:#181818;stroke-width:1;"/><text fill="#000000" font-family="sans-serif" font-size="13" lengthAdjust="spacing" textLength="91.6221" x="628.47" y="184.2538">eingebettet in</text></g><!--SRC=[TLB1Qjj04BtxAzwn1LiuQWbK11SxLasRM3Wnk92BM4iZUwcqQtP7SL79d-MM7ykitPGK9uTTXZUpC-_j6zPS4wQAoIYkbSS0YzlB9Cs7yVbPhn341o0_0lZJ0pBLK89qCaNc8lnDBDawOt5FJharQMc7IrjIhJqJkjPXuPuUgzPiK3qzEfIQC3QyjuwXsWga3HrxQ7AXwiDuxQZOcX3VMuEf9kE5glGJYCn78R9mjYFlAP4OGZmZxapBdHHuzUzvx-54HjxuJVuYfjWwNMmvmMqw7qzNYAClXIIkh67wBV14PkuqrM7Aegf3RKLrcU274YI8z8VVw2DTZlku_jR7VBQIQpdf8midUytrFPR0JKjrJIyyyldtMHwuvF4m_dGsZ3z7kx8ICQ_S60n6fwgIOCAUJ4aCRKwrxvmjfEpY8WH2QJGwViHxj6Ra9IMybkniawKYxHZThIHxrthLD6GgcIBr2NwAi-BpBzOsUCa7gzzkZcwlVR6LLGdvDR4ZlIQ7rfIurbJ9BXd- -h_aA1gz8IO92xGXQS47rSy0]--></g></svg>