<svg xmlns="http://www.w3.org/2000/svg" xmlns:xlink="http://www.w3.org/1999/xlink" contentStyleType="text/css" data-diagram-type="CLASS" height="370px" preserveAspectRatio="none" style="width:1220px;height:370px;background:#FFFFFF;" version="1.1" viewBox="0 0 1220 370" width="1220px" zoomAndPan="magnify"><title>Datenatlas - PRC:GS_002</title><defs/><g><g class="title" data-source-line="1"><text fill="#000000" font-family="sans-serif" font-size="14" font-weight="bold" lengthAdjust="spacing" textLength="196.2119" x="505.3373" y="22.9951">Datenatlas - PRC:GS_002</text></g><!--class PRC_GS_002--><g class="entity" data-entity="PRC_GS_002" data-source-line="2" data-uid="ent0002" id="entity_PRC_GS_002"><rect fill="#F1F1F1" height="96.8906" rx="2.5" ry="2.5" style="stroke:#181818;stroke-width:0.5;" width="1097.123" x="7" y="44.2969"/><ellipse cx="507.1104" cy="60.2969" fill="#ADD1B2" rx="11" ry="11" style="stroke:#181818;stroke-width:1;"/><path d="M510.0791,65.9375 Q509.501,66.2344 508.8604,66.375 Q508.2197,66.5313 507.5166,66.5313 Q505.0166,66.5313 503.6885,64.8906 Q502.376,63.2344 502.376,60.1094 Q502.376,56.9844 503.6885,55.3281 Q505.0166,53.6719 507.5166,53.6719 Q508.2197,53.6719 508.8604,53.8281 Q509.5166,53.9844 510.0791,54.2813 L510.0791,57 Q509.4541,56.4219 508.8604,56.1563 Q508.2666,55.875 507.6416,55.875 Q506.2979,55.875 505.6104,56.9531 Q504.9229,58.0156 504.9229,60.1094 Q504.9229,62.2031 505.6104,63.2813 Q506.2979,64.3438 507.6416,64.3438 Q508.2666,64.3438 508.8604,64.0781 Q509.4541,63.7969 510.0791,63.2188 L510.0791,65.9375 Z " fill="#000000"/><text fill="#000000" font-family="sans-serif" font-size="14" lengthAdjust="spacing" textLength="88.4023" x="527.6104" y="65.1436">PRC_GS_002</text><line style="stroke:#181818;stroke-width:0.5;" x1="8" x2="1103.123" y1="76.2969" y2="76.2969"/><text fill="#000000" font-family="sans-serif" font-size="14" lengthAdjust="spacing" textLength="66.6436" x="27" y="93.292">Prozesse:</text><rect fill="none" height="6" style="stroke:#C82930;stroke-width:1;" width="6" x="15" y="103.2422"/><text fill="#000000" font-family="sans-serif" font-size="14" lengthAdjust="spacing" textLength="180.3457" x="27" y="109.5889">Netznutzungsabrechnung</text><line style="stroke:#181818;stroke-width:0.5;" x1="8" x2="1103.123" y1="116.8906" y2="116.8906"/><text fill="#000000" font-family="sans-serif" font-size="14" lengthAdjust="spacing" textLength="1085.123" x="13" y="133.8857">Name: Codeliste Gas und Strom Nr. GS_002 Codeliste zur Pr&#252;fung der Mehr-/Mindermengenabrechnung zwischen NB und LF (entspricht dem EBD E_0801)</text></g><!--class PRC_GS_002_msg_1--><g class="entity" data-entity="PRC_GS_002_msg_1" data-source-line="7" data-uid="ent0003" id="entity_PRC_GS_002_msg_1"><rect fill="#F1F1F1" height="145.7813" rx="2.5" ry="2.5" style="stroke:#181818;stroke-width:0.5;" width="303.0811" x="123.02" y="218.1869"/><ellipse cx="199.7466" cy="234.1869" fill="#ADD1B2" rx="11" ry="11" style="stroke:#181818;stroke-width:1;"/><path d="M202.7153,239.8275 Q202.1372,240.1244 201.4966,240.265 Q200.8559,240.4213 200.1528,240.4213 Q197.6528,240.4213 196.3247,238.7806 Q195.0122,237.1244 195.0122,233.9994 Q195.0122,230.8744 196.3247,229.2181 Q197.6528,227.5619 200.1528,227.5619 Q200.8559,227.5619 201.4966,227.7181 Q202.1528,227.8744 202.7153,228.1713 L202.7153,230.89 Q202.0903,230.3119 201.4966,230.0463 Q200.9028,229.765 200.2778,229.765 Q198.9341,229.765 198.2466,230.8431 Q197.5591,231.9056 197.5591,233.9994 Q197.5591,236.0931 198.2466,237.1713 Q198.9341,238.2338 200.2778,238.2338 Q200.9028,238.2338 201.4966,237.9681 Q202.0903,237.6869 202.7153,237.1088 L202.7153,239.8275 Z " fill="#000000"/><text fill="#000000" font-family="sans-serif" font-size="14" lengthAdjust="spacing" textLength="141.1279" x="220.2466" y="239.0336">PRC_GS_002_msg_1</text><line style="stroke:#181818;stroke-width:0.5;" x1="124.02" x2="425.1011" y1="250.1869" y2="250.1869"/><text fill="#000000" font-family="sans-serif" font-size="14" lengthAdjust="spacing" textLength="171.4932" x="129.02" y="267.182">Nachricht: REMADV 2.9c</text><text fill="#000000" font-family="sans-serif" font-size="14" lengthAdjust="spacing" textLength="123.0605" x="129.02" y="283.4789">Kontext: Beispiel:</text><text fill="#000000" font-family="sans-serif" font-size="14" lengthAdjust="spacing" textLength="91.4033" x="129.02" y="299.7757">Pflichtfeld: Ja</text><text fill="#000000" font-family="sans-serif" font-size="14" lengthAdjust="spacing" textLength="282.1943" x="129.02" y="316.0726">Codes: EBD, ESA, LF, MGV, MSB, NB, NN</text><text fill="#000000" font-family="sans-serif" font-size="14" lengthAdjust="spacing" textLength="251.4395" x="129.02" y="332.3695">Prozesse: Netznutzungsabrechnung</text><text fill="#000000" font-family="sans-serif" font-size="14" lengthAdjust="spacing" textLength="291.0811" x="129.02" y="348.6664">Quelle: REMADV_MIG_2.9c_20231024.pdf</text><line style="stroke:#181818;stroke-width:0.5;" x1="124.02" x2="425.1011" y1="355.9681" y2="355.9681"/></g><!--class PRC_GS_002_proc_1--><g class="entity" data-entity="PRC_GS_002_proc_1" data-source-line="16" data-uid="ent0005" id="entity_PRC_GS_002_proc_1"><rect fill="#F1F1F1" height="105.1563" rx="2.5" ry="2.5" style="stroke:#181818;stroke-width:0.5;" width="752.6465" x="461.24" y="238.4969"/><ellipse cx="762.2058" cy="258.6297" fill="#ADD1B2" rx="11" ry="11" style="stroke:#181818;stroke-width:1;"/><path d="M765.1746,264.2703 Q764.5964,264.5672 763.9558,264.7078 Q763.3152,264.8641 762.6121,264.8641 Q760.1121,264.8641 758.7839,263.2234 Q757.4714,261.5672 757.4714,258.4422 Q757.4714,255.3172 758.7839,253.6609 Q760.1121,252.0047 762.6121,252.0047 Q763.3152,252.0047 763.9558,252.1609 Q764.6121,252.3172 765.1746,252.6141 L765.1746,255.3328 Q764.5496,254.7547 763.9558,254.4891 Q763.3621,254.2078 762.7371,254.2078 Q761.3933,254.2078 760.7058,255.2859 Q760.0183,256.3484 760.0183,258.4422 Q760.0183,260.5359 760.7058,261.6141 Q761.3933,262.6766 762.7371,262.6766 Q763.3621,262.6766 763.9558,262.4109 Q764.5496,262.1297 765.1746,261.5516 L765.1746,264.2703 Z " fill="#000000"/><text fill="#000000" font-family="sans-serif" font-size="12" font-style="italic" lengthAdjust="spacing" textLength="61.0605" x="823.283" y="254.6355">&#171;process&#187;</text><text fill="#000000" font-family="sans-serif" font-size="14" lengthAdjust="spacing" textLength="142.2148" x="782.7058" y="270.4607">PRC_GS_002_proc_1</text><line style="stroke:#181818;stroke-width:0.5;" x1="462.24" x2="1212.8865" y1="278.7625" y2="278.7625"/><text fill="#000000" font-family="sans-serif" font-size="14" lengthAdjust="spacing" textLength="180.3457" x="467.24" y="295.7576">Netznutzungsabrechnung</text><text fill="#000000" font-family="sans-serif" font-size="14" lengthAdjust="spacing" textLength="218.0938" x="467.24" y="312.0545">Gesetze: StromNEV, StromNZV</text><text fill="#000000" font-family="sans-serif" font-size="14" lengthAdjust="spacing" textLength="740.6465" x="467.24" y="328.3514">Zusammenfassung: Wie funktioniert die Netznutzungsabrechnung zwischen Netzbetreiber und Lieferant?</text><line style="stroke:#181818;stroke-width:0.5;" x1="462.24" x2="1212.8865" y1="335.6531" y2="335.6531"/></g><!--link PRC_GS_002 to PRC_GS_002_msg_1--><g class="link" data-entity-1="PRC_GS_002" data-entity-2="PRC_GS_002_msg_1" data-source-line="15" data-uid="lnk4" id="link_PRC_GS_002_PRC_GS_002_msg_1"><path codeLine="15" d="M487.18,141.5169 C454.36,164.4469 419.2686,188.9707 382.8386,214.4207" fill="none" id="PRC_GS_002-to-PRC_GS_002_msg_1" style="stroke:#181818;stroke-width:1;"/><polygon fill="#181818" points="377.92,217.8569,387.5887,215.9817,382.0189,214.9934,383.0072,209.4236,377.92,217.8569" style="stroke:#181818;stroke-width:1;"/><text fill="#000000" font-family="sans-serif" font-size="13" lengthAdjust="spacing" textLength="85.2363" x="441.56" y="184.2538">verwendet in</text></g><!--link PRC_GS_002 to PRC_GS_002_proc_1--><g class="link" data-entity-1="PRC_GS_002" data-entity-2="PRC_GS_002_proc_1" data-source-line="21" data-uid="lnk6" id="link_PRC_GS_002_PRC_GS_002_proc_1"><path codeLine="21" d="M624.19,141.5169 C666.17,170.7469 714.9661,204.7182 758.0061,234.6882" fill="none" id="PRC_GS_002-to-PRC_GS_002_proc_1" style="stroke:#181818;stroke-width:1;stroke-dasharray:7,7;"/><polygon fill="#181818" points="762.93,238.1169,757.83,229.6913,758.8268,235.2597,753.2584,236.2565,762.93,238.1169" style="stroke:#181818;stroke-width:1;"/><text fill="#000000" font-family="sans-serif" font-size="13" lengthAdjust="spacing" textLength="91.6221" x="689.56" y="184.2538">eingebettet in</text></g><!--SRC=[TLB1JkCm5BptAzwHbTgGXZs0LHLH6gBT9L6XKf6uH6doqbYRE9Nj00hQFziRFyOa1L5KE2IotnlFc_7OIbiopHFBAh5bOcX4YzjB4InZr_K6AIgcAyIx0ZqFYAAaOa6NTSQbD9OfmAb6PRIqkgueqWwzWJyWRQDfeL_-vutQKCQQGYxqw3YK2fkArGRJrvhJGdM0zb6Qj615qQmdlhwY8rRMRBLC2ulp5VcpEVcnU-gEVq3HGjSj6yC2QuA3Y6sh6jk2p7pm3luT-8ahiud7RwxIekSNTEk75_CLUSvPYiQVMbb-Gdd6qcmbbzsKHLvss9pBJD3l19NEh16Ti27vouiXL0yf35RuBMT3MC4NxMlzJYNHJSDboUywul1N47TQOi_rJiQkzzFPPZdCxCKo6aqFNGbwOFt8k69BKXrwt-ew1MmowHQGD9tkBk8xMG4RjA2h3phoOMstkb-XUz-Of4AKEQO0B-XECY7llrRMIh96RYXyJRwNEFfhjfhb6g-a3rzopZfHzlopPSUPVc5644ky9b3OtlKh]--></g></svg>