<svg xmlns="http://www.w3.org/2000/svg" xmlns:xlink="http://www.w3.org/1999/xlink" contentStyleType="text/css" data-diagram-type="CLASS" height="370px" preserveAspectRatio="none" style="width:1138px;height:370px;background:#FFFFFF;" version="1.1" viewBox="0 0 1138 370" width="1138px" zoomAndPan="magnify"><title>Datenatlas - PRC:E_0518</title><defs/><g><g class="title" data-source-line="1"><text fill="#000000" font-family="sans-serif" font-size="14" font-weight="bold" lengthAdjust="spacing" textLength="193.9424" x="465.1171" y="22.9951">Datenatlas - PRC:E_0518</text></g><!--class PRC_E_0518--><g class="entity" data-entity="PRC_E_0518" data-source-line="2" data-uid="ent0002" id="entity_PRC_E_0518"><rect fill="#F1F1F1" height="96.8906" rx="2.5" ry="2.5" style="stroke:#181818;stroke-width:0.5;" width="931.7139" x="7" y="44.2969"/><ellipse cx="425.397" cy="60.2969" fill="#ADD1B2" rx="11" ry="11" style="stroke:#181818;stroke-width:1;"/><path d="M428.3657,65.9375 Q427.7876,66.2344 427.147,66.375 Q426.5063,66.5313 425.8032,66.5313 Q423.3032,66.5313 421.9751,64.8906 Q420.6626,63.2344 420.6626,60.1094 Q420.6626,56.9844 421.9751,55.3281 Q423.3032,53.6719 425.8032,53.6719 Q426.5063,53.6719 427.147,53.8281 Q427.8032,53.9844 428.3657,54.2813 L428.3657,57 Q427.7407,56.4219 427.147,56.1563 Q426.5532,55.875 425.9282,55.875 Q424.5845,55.875 423.897,56.9531 Q423.2095,58.0156 423.2095,60.1094 Q423.2095,62.2031 423.897,63.2813 Q424.5845,64.3438 425.9282,64.3438 Q426.5532,64.3438 427.147,64.0781 Q427.7407,63.7969 428.3657,63.2188 L428.3657,65.9375 Z " fill="#000000"/><text fill="#000000" font-family="sans-serif" font-size="14" lengthAdjust="spacing" textLength="86.4199" x="445.897" y="65.1436">PRC_E_0518</text><line style="stroke:#181818;stroke-width:0.5;" x1="8" x2="937.7139" y1="76.2969" y2="76.2969"/><text fill="#000000" font-family="sans-serif" font-size="14" lengthAdjust="spacing" textLength="66.6436" x="27" y="93.292">Prozesse:</text><rect fill="none" height="6" style="stroke:#C82930;stroke-width:1;" width="6" x="15" y="103.2422"/><text fill="#000000" font-family="sans-serif" font-size="14" lengthAdjust="spacing" textLength="180.3457" x="27" y="109.5889">Netznutzungsabrechnung</text><line style="stroke:#181818;stroke-width:0.5;" x1="8" x2="937.7139" y1="116.8906" y2="116.8906"/><text fill="#000000" font-family="sans-serif" font-size="14" lengthAdjust="spacing" textLength="919.7139" x="13" y="133.8857">Name: EBD Nr. E_0518 zur Pr&#252;fung f&#252;r die Antwort auf eine Stornierung (Abrechnung Preisblatts A des MSB zwischen MSB und NB)</text></g><!--class PRC_E_0518_msg_1--><g class="entity" data-entity="PRC_E_0518_msg_1" data-source-line="7" data-uid="ent0003" id="entity_PRC_E_0518_msg_1"><rect fill="#F1F1F1" height="145.7813" rx="2.5" ry="2.5" style="stroke:#181818;stroke-width:0.5;" width="303.0811" x="40.32" y="218.1869"/><ellipse cx="118.0378" cy="234.1869" fill="#ADD1B2" rx="11" ry="11" style="stroke:#181818;stroke-width:1;"/><path d="M121.0065,239.8275 Q120.4284,240.1244 119.7878,240.265 Q119.1471,240.4213 118.444,240.4213 Q115.944,240.4213 114.6159,238.7806 Q113.3034,237.1244 113.3034,233.9994 Q113.3034,230.8744 114.6159,229.2181 Q115.944,227.5619 118.444,227.5619 Q119.1471,227.5619 119.7878,227.7181 Q120.444,227.8744 121.0065,228.1713 L121.0065,230.89 Q120.3815,230.3119 119.7878,230.0463 Q119.194,229.765 118.569,229.765 Q117.2253,229.765 116.5378,230.8431 Q115.8503,231.9056 115.8503,233.9994 Q115.8503,236.0931 116.5378,237.1713 Q117.2253,238.2338 118.569,238.2338 Q119.194,238.2338 119.7878,237.9681 Q120.3815,237.6869 121.0065,237.1088 L121.0065,239.8275 Z " fill="#000000"/><text fill="#000000" font-family="sans-serif" font-size="14" lengthAdjust="spacing" textLength="139.1455" x="138.5378" y="239.0336">PRC_E_0518_msg_1</text><line style="stroke:#181818;stroke-width:0.5;" x1="41.32" x2="342.4011" y1="250.1869" y2="250.1869"/><text fill="#000000" font-family="sans-serif" font-size="14" lengthAdjust="spacing" textLength="171.4932" x="46.32" y="267.182">Nachricht: REMADV 2.9c</text><text fill="#000000" font-family="sans-serif" font-size="14" lengthAdjust="spacing" textLength="123.0605" x="46.32" y="283.4789">Kontext: Beispiel:</text><text fill="#000000" font-family="sans-serif" font-size="14" lengthAdjust="spacing" textLength="91.4033" x="46.32" y="299.7757">Pflichtfeld: Ja</text><text fill="#000000" font-family="sans-serif" font-size="14" lengthAdjust="spacing" textLength="282.1943" x="46.32" y="316.0726">Codes: EBD, ESA, LF, MGV, MSB, NB, NN</text><text fill="#000000" font-family="sans-serif" font-size="14" lengthAdjust="spacing" textLength="251.4395" x="46.32" y="332.3695">Prozesse: Netznutzungsabrechnung</text><text fill="#000000" font-family="sans-serif" font-size="14" lengthAdjust="spacing" textLength="291.0811" x="46.32" y="348.6664">Quelle: REMADV_MIG_2.9c_20231024.pdf</text><line style="stroke:#181818;stroke-width:0.5;" x1="41.32" x2="342.4011" y1="355.9681" y2="355.9681"/></g><!--class PRC_E_0518_proc_1--><g class="entity" data-entity="PRC_E_0518_proc_1" data-source-line="16" data-uid="ent0005" id="entity_PRC_E_0518_proc_1"><rect fill="#F1F1F1" height="105.1563" rx="2.5" ry="2.5" style="stroke:#181818;stroke-width:0.5;" width="752.6465" x="378.53" y="238.4969"/><ellipse cx="680.487" cy="258.6297" fill="#ADD1B2" rx="11" ry="11" style="stroke:#181818;stroke-width:1;"/><path d="M683.4558,264.2703 Q682.8777,264.5672 682.237,264.7078 Q681.5964,264.8641 680.8933,264.8641 Q678.3933,264.8641 677.0652,263.2234 Q675.7527,261.5672 675.7527,258.4422 Q675.7527,255.3172 677.0652,253.6609 Q678.3933,252.0047 680.8933,252.0047 Q681.5964,252.0047 682.237,252.1609 Q682.8933,252.3172 683.4558,252.6141 L683.4558,255.3328 Q682.8308,254.7547 682.237,254.4891 Q681.6433,254.2078 681.0183,254.2078 Q679.6745,254.2078 678.987,255.2859 Q678.2995,256.3484 678.2995,258.4422 Q678.2995,260.5359 678.987,261.6141 Q679.6745,262.6766 681.0183,262.6766 Q681.6433,262.6766 682.237,262.4109 Q682.8308,262.1297 683.4558,261.5516 L683.4558,264.2703 Z " fill="#000000"/><text fill="#000000" font-family="sans-serif" font-size="12" font-style="italic" lengthAdjust="spacing" textLength="61.0605" x="740.573" y="254.6355">&#171;process&#187;</text><text fill="#000000" font-family="sans-serif" font-size="14" lengthAdjust="spacing" textLength="140.2324" x="700.987" y="270.4607">PRC_E_0518_proc_1</text><line style="stroke:#181818;stroke-width:0.5;" x1="379.53" x2="1130.1765" y1="278.7625" y2="278.7625"/><text fill="#000000" font-family="sans-serif" font-size="14" lengthAdjust="spacing" textLength="180.3457" x="384.53" y="295.7576">Netznutzungsabrechnung</text><text fill="#000000" font-family="sans-serif" font-size="14" lengthAdjust="spacing" textLength="218.0938" x="384.53" y="312.0545">Gesetze: StromNEV, StromNZV</text><text fill="#000000" font-family="sans-serif" font-size="14" lengthAdjust="spacing" textLength="740.6465" x="384.53" y="328.3514">Zusammenfassung: Wie funktioniert die Netznutzungsabrechnung zwischen Netzbetreiber und Lieferant?</text><line style="stroke:#181818;stroke-width:0.5;" x1="379.53" x2="1130.1765" y1="335.6531" y2="335.6531"/></g><!--link PRC_E_0518 to PRC_E_0518_msg_1--><g class="link" data-entity-1="PRC_E_0518" data-entity-2="PRC_E_0518_msg_1" data-source-line="15" data-uid="lnk4" id="link_PRC_E_0518_PRC_E_0518_msg_1"><path codeLine="15" d="M404.48,141.5169 C371.66,164.4469 336.5586,188.9707 300.1286,214.4207" fill="none" id="PRC_E_0518-to-PRC_E_0518_msg_1" style="stroke:#181818;stroke-width:1;"/><polygon fill="#181818" points="295.21,217.8569,304.8787,215.9817,299.3089,214.9934,300.2972,209.4236,295.21,217.8569" style="stroke:#181818;stroke-width:1;"/><text fill="#000000" font-family="sans-serif" font-size="13" lengthAdjust="spacing" textLength="85.2363" x="358.86" y="184.2538">verwendet in</text></g><!--link PRC_E_0518 to PRC_E_0518_proc_1--><g class="link" data-entity-1="PRC_E_0518" data-entity-2="PRC_E_0518_proc_1" data-source-line="21" data-uid="lnk6" id="link_PRC_E_0518_PRC_E_0518_proc_1"><path codeLine="21" d="M541.48,141.5169 C583.46,170.7469 632.2665,204.7177 675.2965,234.6877" fill="none" id="PRC_E_0518-to-PRC_E_0518_proc_1" style="stroke:#181818;stroke-width:1;stroke-dasharray:7,7;"/><polygon fill="#181818" points="680.22,238.1169,675.1209,229.6908,676.1171,235.2592,670.5486,236.2555,680.22,238.1169" style="stroke:#181818;stroke-width:1;"/><text fill="#000000" font-family="sans-serif" font-size="13" lengthAdjust="spacing" textLength="91.6221" x="606.86" y="184.2538">eingebettet in</text></g><!--SRC=[TPBTIiD048Nl-nHpgP26jYfea4fgO_6d8Lgeq9kmJIRjOh8fknCh4T-iTxwOiwc_j5u49cU6sU_iMPAK8mm5eHAK2mDjY1uklI3kd7HFMmahnWhnLe3N5a0e2lGW60mXr2vyDkfAGwJVDrcb5f2zRpIa4i5Nj2urWQWoGAaG9bHg9L7RgGD_hZ5PAbj76gMPvuB8W0yf6XXF1b2lfKcMg9gVIgKG3WuP8D9bZSQWnpKmS8XKgufgNcJ4zyxMsmv-N9X5tFqqaIorJ9RamKCmzeTJwBbd2JTkIqNumlA0YLOIStjAbELsDiCyzU16i79PCcHp2mu44z-1koi7ngEfOraT1kKl_Ctw7oN0VOLvZbySyVXw55kMkDVf7NKxlMDtbMPivbSAxNP_rvK7pwZNg58aa6hN-qgN2O-Tdzk2aVhzxKNyXpL2motccf0kYp1WQzjgDkNkh3AYA51bV0hFU_38SNFuJoHB6p0r-UzV_fEhxS-HEFmvwYRXEuaPQg7eugzbr-tlCUFPLxL0Na6Dwmy0]--></g></svg>