<svg xmlns="http://www.w3.org/2000/svg" xmlns:xlink="http://www.w3.org/1999/xlink" contentStyleType="text/css" data-diagram-type="CLASS" height="370px" preserveAspectRatio="none" style="width:1116px;height:370px;background:#FFFFFF;" version="1.1" viewBox="0 0 1116 370" width="1116px" zoomAndPan="magnify"><title>Datenatlas - PRC:E_0267</title><defs/><g><g class="title" data-source-line="1"><text fill="#000000" font-family="sans-serif" font-size="14" font-weight="bold" lengthAdjust="spacing" textLength="193.9424" x="454.3821" y="22.9951">Datenatlas - PRC:E_0267</text></g><!--class PRC_E_0267--><g class="entity" data-entity="PRC_E_0267" data-source-line="2" data-uid="ent0002" id="entity_PRC_E_0267"><rect fill="#F1F1F1" height="96.8906" rx="2.5" ry="2.5" style="stroke:#181818;stroke-width:0.5;" width="888.7705" x="7" y="44.2969"/><ellipse cx="403.9253" cy="60.2969" fill="#ADD1B2" rx="11" ry="11" style="stroke:#181818;stroke-width:1;"/><path d="M406.894,65.9375 Q406.3159,66.2344 405.6753,66.375 Q405.0347,66.5313 404.3315,66.5313 Q401.8315,66.5313 400.5034,64.8906 Q399.1909,63.2344 399.1909,60.1094 Q399.1909,56.9844 400.5034,55.3281 Q401.8315,53.6719 404.3315,53.6719 Q405.0347,53.6719 405.6753,53.8281 Q406.3315,53.9844 406.894,54.2813 L406.894,57 Q406.269,56.4219 405.6753,56.1563 Q405.0815,55.875 404.4565,55.875 Q403.1128,55.875 402.4253,56.9531 Q401.7378,58.0156 401.7378,60.1094 Q401.7378,62.2031 402.4253,63.2813 Q403.1128,64.3438 404.4565,64.3438 Q405.0815,64.3438 405.6753,64.0781 Q406.269,63.7969 406.894,63.2188 L406.894,65.9375 Z " fill="#000000"/><text fill="#000000" font-family="sans-serif" font-size="14" lengthAdjust="spacing" textLength="86.4199" x="424.4253" y="65.1436">PRC_E_0267</text><line style="stroke:#181818;stroke-width:0.5;" x1="8" x2="894.7705" y1="76.2969" y2="76.2969"/><text fill="#000000" font-family="sans-serif" font-size="14" lengthAdjust="spacing" textLength="66.6436" x="27" y="93.292">Prozesse:</text><rect fill="none" height="6" style="stroke:#C82930;stroke-width:1;" width="6" x="15" y="103.2422"/><text fill="#000000" font-family="sans-serif" font-size="14" lengthAdjust="spacing" textLength="180.3457" x="27" y="109.5889">Netznutzungsabrechnung</text><line style="stroke:#181818;stroke-width:0.5;" x1="8" x2="894.7705" y1="116.8906" y2="116.8906"/><text fill="#000000" font-family="sans-serif" font-size="14" lengthAdjust="spacing" textLength="876.7705" x="13" y="133.8857">Name: EBD Nr. E_0267 zur Pr&#252;fung f&#252;r die Antwort auf eine Stornierung (Abrechnung einer f&#252;r den ESA erbrachten Leistung)</text></g><!--class PRC_E_0267_msg_1--><g class="entity" data-entity="PRC_E_0267_msg_1" data-source-line="7" data-uid="ent0003" id="entity_PRC_E_0267_msg_1"><rect fill="#F1F1F1" height="145.7813" rx="2.5" ry="2.5" style="stroke:#181818;stroke-width:0.5;" width="303.0811" x="18.84" y="218.1869"/><ellipse cx="96.5578" cy="234.1869" fill="#ADD1B2" rx="11" ry="11" style="stroke:#181818;stroke-width:1;"/><path d="M99.5265,239.8275 Q98.9484,240.1244 98.3078,240.265 Q97.6671,240.4213 96.964,240.4213 Q94.464,240.4213 93.1359,238.7806 Q91.8234,237.1244 91.8234,233.9994 Q91.8234,230.8744 93.1359,229.2181 Q94.464,227.5619 96.964,227.5619 Q97.6671,227.5619 98.3078,227.7181 Q98.964,227.8744 99.5265,228.1713 L99.5265,230.89 Q98.9015,230.3119 98.3078,230.0463 Q97.714,229.765 97.089,229.765 Q95.7453,229.765 95.0578,230.8431 Q94.3703,231.9056 94.3703,233.9994 Q94.3703,236.0931 95.0578,237.1713 Q95.7453,238.2338 97.089,238.2338 Q97.714,238.2338 98.3078,237.9681 Q98.9015,237.6869 99.5265,237.1088 L99.5265,239.8275 Z " fill="#000000"/><text fill="#000000" font-family="sans-serif" font-size="14" lengthAdjust="spacing" textLength="139.1455" x="117.0578" y="239.0336">PRC_E_0267_msg_1</text><line style="stroke:#181818;stroke-width:0.5;" x1="19.84" x2="320.9211" y1="250.1869" y2="250.1869"/><text fill="#000000" font-family="sans-serif" font-size="14" lengthAdjust="spacing" textLength="171.4932" x="24.84" y="267.182">Nachricht: REMADV 2.9c</text><text fill="#000000" font-family="sans-serif" font-size="14" lengthAdjust="spacing" textLength="123.0605" x="24.84" y="283.4789">Kontext: Beispiel:</text><text fill="#000000" font-family="sans-serif" font-size="14" lengthAdjust="spacing" textLength="91.4033" x="24.84" y="299.7757">Pflichtfeld: Ja</text><text fill="#000000" font-family="sans-serif" font-size="14" lengthAdjust="spacing" textLength="282.1943" x="24.84" y="316.0726">Codes: EBD, ESA, LF, MGV, MSB, NB, NN</text><text fill="#000000" font-family="sans-serif" font-size="14" lengthAdjust="spacing" textLength="251.4395" x="24.84" y="332.3695">Prozesse: Netznutzungsabrechnung</text><text fill="#000000" font-family="sans-serif" font-size="14" lengthAdjust="spacing" textLength="291.0811" x="24.84" y="348.6664">Quelle: REMADV_MIG_2.9c_20231024.pdf</text><line style="stroke:#181818;stroke-width:0.5;" x1="19.84" x2="320.9211" y1="355.9681" y2="355.9681"/></g><!--class PRC_E_0267_proc_1--><g class="entity" data-entity="PRC_E_0267_proc_1" data-source-line="16" data-uid="ent0005" id="entity_PRC_E_0267_proc_1"><rect fill="#F1F1F1" height="105.1563" rx="2.5" ry="2.5" style="stroke:#181818;stroke-width:0.5;" width="752.6465" x="357.06" y="238.4969"/><ellipse cx="659.017" cy="258.6297" fill="#ADD1B2" rx="11" ry="11" style="stroke:#181818;stroke-width:1;"/><path d="M661.9858,264.2703 Q661.4077,264.5672 660.767,264.7078 Q660.1264,264.8641 659.4233,264.8641 Q656.9233,264.8641 655.5952,263.2234 Q654.2827,261.5672 654.2827,258.4422 Q654.2827,255.3172 655.5952,253.6609 Q656.9233,252.0047 659.4233,252.0047 Q660.1264,252.0047 660.767,252.1609 Q661.4233,252.3172 661.9858,252.6141 L661.9858,255.3328 Q661.3608,254.7547 660.767,254.4891 Q660.1733,254.2078 659.5483,254.2078 Q658.2045,254.2078 657.517,255.2859 Q656.8295,256.3484 656.8295,258.4422 Q656.8295,260.5359 657.517,261.6141 Q658.2045,262.6766 659.5483,262.6766 Q660.1733,262.6766 660.767,262.4109 Q661.3608,262.1297 661.9858,261.5516 L661.9858,264.2703 Z " fill="#000000"/><text fill="#000000" font-family="sans-serif" font-size="12" font-style="italic" lengthAdjust="spacing" textLength="61.0605" x="719.103" y="254.6355">&#171;process&#187;</text><text fill="#000000" font-family="sans-serif" font-size="14" lengthAdjust="spacing" textLength="140.2324" x="679.517" y="270.4607">PRC_E_0267_proc_1</text><line style="stroke:#181818;stroke-width:0.5;" x1="358.06" x2="1108.7065" y1="278.7625" y2="278.7625"/><text fill="#000000" font-family="sans-serif" font-size="14" lengthAdjust="spacing" textLength="180.3457" x="363.06" y="295.7576">Netznutzungsabrechnung</text><text fill="#000000" font-family="sans-serif" font-size="14" lengthAdjust="spacing" textLength="218.0938" x="363.06" y="312.0545">Gesetze: StromNEV, StromNZV</text><text fill="#000000" font-family="sans-serif" font-size="14" lengthAdjust="spacing" textLength="740.6465" x="363.06" y="328.3514">Zusammenfassung: Wie funktioniert die Netznutzungsabrechnung zwischen Netzbetreiber und Lieferant?</text><line style="stroke:#181818;stroke-width:0.5;" x1="358.06" x2="1108.7065" y1="335.6531" y2="335.6531"/></g><!--link PRC_E_0267 to PRC_E_0267_msg_1--><g class="link" data-entity-1="PRC_E_0267" data-entity-2="PRC_E_0267_msg_1" data-source-line="15" data-uid="lnk4" id="link_PRC_E_0267_PRC_E_0267_msg_1"><path codeLine="15" d="M383,141.5169 C350.19,164.4469 315.0886,188.9707 278.6586,214.4207" fill="none" id="PRC_E_0267-to-PRC_E_0267_msg_1" style="stroke:#181818;stroke-width:1;"/><polygon fill="#181818" points="273.74,217.8569,283.4087,215.9817,277.8389,214.9934,278.8272,209.4236,273.74,217.8569" style="stroke:#181818;stroke-width:1;"/><text fill="#000000" font-family="sans-serif" font-size="13" lengthAdjust="spacing" textLength="85.2363" x="337.39" y="184.2538">verwendet in</text></g><!--link PRC_E_0267 to PRC_E_0267_proc_1--><g class="link" data-entity-1="PRC_E_0267" data-entity-2="PRC_E_0267_proc_1" data-source-line="21" data-uid="lnk6" id="link_PRC_E_0267_PRC_E_0267_proc_1"><path codeLine="21" d="M520.01,141.5169 C561.99,170.7469 610.7965,204.7177 653.8265,234.6877" fill="none" id="PRC_E_0267-to-PRC_E_0267_proc_1" style="stroke:#181818;stroke-width:1;stroke-dasharray:7,7;"/><polygon fill="#181818" points="658.75,238.1169,653.6509,229.6908,654.6471,235.2592,649.0786,236.2555,658.75,238.1169" style="stroke:#181818;stroke-width:1;"/><text fill="#000000" font-family="sans-serif" font-size="13" lengthAdjust="spacing" textLength="91.6221" x="585.39" y="184.2538">eingebettet in</text></g><!--SRC=[TLB1Ji904Btp5NFK11giHcDZC22LgD2W99XuQPPs2XlRBPcTYgdnpxZvOyu26Wrws6RotkpCU_lAcdE4lc8qYdDbeGNZXwiWZDl-wLaZ4SGw8Du2yDO0Y5I10OIzFaJamOweAu8nVQopoimX-rWJf1gXQtXL4eEgCa1j42PSaj58hkkWEoDC5iRLZgJTFJGGJhg0D2ELB4GO355RbhP3sJwciaPhCP0QH6s4N9kAQw6j-XxOUD_J7XTs7X_j72GBqZ8xW8TmrErFmVVE4o7kIiFuAd1FDYurvcxBECjTRuPv6i2j4kIgJD5kdg3ff3PXUDs4qM0gdqcl2P4xqK-j_wa4kAymp_5BHpow6SHEI-ot_UEZjd_YBTDCpFo8eDNgxBiAu0LfXIP51ctslI-fJAJjui8L8gdJsJx4Vx86Q8KINHEcieX2iRQjdgR2FbLM5GMQJBP8Vm2FahKa_yowTEdo9lo_XqEzqZPPIAgEdo4JwfbaNvaKXXep96NuyhTbp-lyOIPmVyqSPGHlN7y2]--></g></svg>