<svg xmlns="http://www.w3.org/2000/svg" xmlns:xlink="http://www.w3.org/1999/xlink" contentStyleType="text/css" data-diagram-type="CLASS" height="370px" preserveAspectRatio="none" style="width:1328px;height:370px;background:#FFFFFF;" version="1.1" viewBox="0 0 1328 370" width="1328px" zoomAndPan="magnify"><title>Datenatlas - PRD:7008</title><defs/><g><g class="title" data-source-line="1"><text fill="#000000" font-family="sans-serif" font-size="14" font-weight="bold" lengthAdjust="spacing" textLength="178.7256" x="568.0104" y="22.9951">Datenatlas - PRD:7008</text></g><!--class PRD_7008--><g class="entity" data-entity="PRD_7008" data-source-line="2" data-uid="ent0002" id="entity_PRD_7008"><rect fill="#F1F1F1" height="96.8906" rx="2.5" ry="2.5" style="stroke:#181818;stroke-width:0.5;" width="340.6172" x="437.12" y="44.2969"/><ellipse cx="567.389" cy="60.2969" fill="#ADD1B2" rx="11" ry="11" style="stroke:#181818;stroke-width:1;"/><path d="M570.3578,65.9375 Q569.7797,66.2344 569.139,66.375 Q568.4984,66.5313 567.7953,66.5313 Q565.2953,66.5313 563.9672,64.8906 Q562.6547,63.2344 562.6547,60.1094 Q562.6547,56.9844 563.9672,55.3281 Q565.2953,53.6719 567.7953,53.6719 Q568.4984,53.6719 569.139,53.8281 Q569.7953,53.9844 570.3578,54.2813 L570.3578,57 Q569.7328,56.4219 569.139,56.1563 Q568.5453,55.875 567.9203,55.875 Q566.5765,55.875 565.889,56.9531 Q565.2015,58.0156 565.2015,60.1094 Q565.2015,62.2031 565.889,63.2813 Q566.5765,64.3438 567.9203,64.3438 Q568.5453,64.3438 569.139,64.0781 Q569.7328,63.7969 570.3578,63.2188 L570.3578,65.9375 Z " fill="#000000"/><text fill="#000000" font-family="sans-serif" font-size="14" lengthAdjust="spacing" textLength="71.5791" x="587.889" y="65.1436">PRD_7008</text><line style="stroke:#181818;stroke-width:0.5;" x1="438.12" x2="776.7372" y1="76.2969" y2="76.2969"/><text fill="#000000" font-family="sans-serif" font-size="14" lengthAdjust="spacing" textLength="314.6172" x="457.12" y="93.292">Name: Produkt-/&lt;br&gt;Leistungsbeschreibung</text><text fill="#000000" font-family="sans-serif" font-size="14" lengthAdjust="spacing" textLength="66.6436" x="457.12" y="109.5889">Prozesse:</text><rect fill="none" height="6" style="stroke:#C82930;stroke-width:1;" width="6" x="445.12" y="119.5391"/><text fill="#000000" font-family="sans-serif" font-size="14" lengthAdjust="spacing" textLength="180.3457" x="457.12" y="125.8857">Netznutzungsabrechnung</text><line style="stroke:#181818;stroke-width:0.5;" x1="438.12" x2="776.7372" y1="133.1875" y2="133.1875"/></g><!--class PRD_7008_msg_1--><g class="entity" data-entity="PRD_7008_msg_1" data-source-line="7" data-uid="ent0003" id="entity_PRD_7008_msg_1"><rect fill="#F1F1F1" height="145.7813" rx="2.5" ry="2.5" style="stroke:#181818;stroke-width:0.5;" width="526.8555" x="7" y="218.1869"/><ellipse cx="204.0254" cy="234.1869" fill="#ADD1B2" rx="11" ry="11" style="stroke:#181818;stroke-width:1;"/><path d="M206.9941,239.8275 Q206.416,240.1244 205.7754,240.265 Q205.1348,240.4213 204.4316,240.4213 Q201.9316,240.4213 200.6035,238.7806 Q199.291,237.1244 199.291,233.9994 Q199.291,230.8744 200.6035,229.2181 Q201.9316,227.5619 204.4316,227.5619 Q205.1348,227.5619 205.7754,227.7181 Q206.4316,227.8744 206.9941,228.1713 L206.9941,230.89 Q206.3691,230.3119 205.7754,230.0463 Q205.1816,229.765 204.5566,229.765 Q203.2129,229.765 202.5254,230.8431 Q201.8379,231.9056 201.8379,233.9994 Q201.8379,236.0931 202.5254,237.1713 Q203.2129,238.2338 204.5566,238.2338 Q205.1816,238.2338 205.7754,237.9681 Q206.3691,237.6869 206.9941,237.1088 L206.9941,239.8275 Z " fill="#000000"/><text fill="#000000" font-family="sans-serif" font-size="14" lengthAdjust="spacing" textLength="124.3047" x="224.5254" y="239.0336">PRD_7008_msg_1</text><line style="stroke:#181818;stroke-width:0.5;" x1="8" x2="532.8555" y1="250.1869" y2="250.1869"/><text fill="#000000" font-family="sans-serif" font-size="14" lengthAdjust="spacing" textLength="162.2988" x="13" y="267.182">Nachricht: PRICAT 2.0d</text><text fill="#000000" font-family="sans-serif" font-size="14" lengthAdjust="spacing" textLength="170.3447" x="13" y="283.4789">Kontext: Segmentlayout</text><text fill="#000000" font-family="sans-serif" font-size="14" lengthAdjust="spacing" textLength="91.4033" x="13" y="299.7757">Pflichtfeld: Ja</text><text fill="#000000" font-family="sans-serif" font-size="14" lengthAdjust="spacing" textLength="514.8555" x="13" y="316.0726">Codes: 000, 17, 23, 256, 31, 60, POG, Z08, Z09, Z10, Z11, Z31, Z32, Z41</text><text fill="#000000" font-family="sans-serif" font-size="14" lengthAdjust="spacing" textLength="251.4395" x="13" y="332.3695">Prozesse: Netznutzungsabrechnung</text><text fill="#000000" font-family="sans-serif" font-size="14" lengthAdjust="spacing" textLength="284.4365" x="13" y="348.6664">Quelle: PRICAT_MIG_2_0d_20240619.pdf</text><line style="stroke:#181818;stroke-width:0.5;" x1="8" x2="532.8555" y1="355.9681" y2="355.9681"/></g><!--class PRD_7008_proc_1--><g class="entity" data-entity="PRD_7008_proc_1" data-source-line="16" data-uid="ent0005" id="entity_PRD_7008_proc_1"><rect fill="#F1F1F1" height="105.1563" rx="2.5" ry="2.5" style="stroke:#181818;stroke-width:0.5;" width="752.6465" x="569.1" y="238.4969"/><ellipse cx="878.4774" cy="258.6297" fill="#ADD1B2" rx="11" ry="11" style="stroke:#181818;stroke-width:1;"/><path d="M881.4462,264.2703 Q880.8681,264.5672 880.2274,264.7078 Q879.5868,264.8641 878.8837,264.8641 Q876.3837,264.8641 875.0556,263.2234 Q873.7431,261.5672 873.7431,258.4422 Q873.7431,255.3172 875.0556,253.6609 Q876.3837,252.0047 878.8837,252.0047 Q879.5868,252.0047 880.2274,252.1609 Q880.8837,252.3172 881.4462,252.6141 L881.4462,255.3328 Q880.8212,254.7547 880.2274,254.4891 Q879.6337,254.2078 879.0087,254.2078 Q877.6649,254.2078 876.9774,255.2859 Q876.2899,256.3484 876.2899,258.4422 Q876.2899,260.5359 876.9774,261.6141 Q877.6649,262.6766 879.0087,262.6766 Q879.6337,262.6766 880.2274,262.4109 Q880.8212,262.1297 881.4462,261.5516 L881.4462,264.2703 Z " fill="#000000"/><text fill="#000000" font-family="sans-serif" font-size="12" font-style="italic" lengthAdjust="spacing" textLength="61.0605" x="931.143" y="254.6355">&#171;process&#187;</text><text fill="#000000" font-family="sans-serif" font-size="14" lengthAdjust="spacing" textLength="125.3916" x="898.9774" y="270.4607">PRD_7008_proc_1</text><line style="stroke:#181818;stroke-width:0.5;" x1="570.1" x2="1320.7465" y1="278.7625" y2="278.7625"/><text fill="#000000" font-family="sans-serif" font-size="14" lengthAdjust="spacing" textLength="180.3457" x="575.1" y="295.7576">Netznutzungsabrechnung</text><text fill="#000000" font-family="sans-serif" font-size="14" lengthAdjust="spacing" textLength="218.0938" x="575.1" y="312.0545">Gesetze: StromNEV, StromNZV</text><text fill="#000000" font-family="sans-serif" font-size="14" lengthAdjust="spacing" textLength="740.6465" x="575.1" y="328.3514">Zusammenfassung: Wie funktioniert die Netznutzungsabrechnung zwischen Netzbetreiber und Lieferant?</text><line style="stroke:#181818;stroke-width:0.5;" x1="570.1" x2="1320.7465" y1="335.6531" y2="335.6531"/></g><!--link PRD_7008 to PRD_7008_msg_1--><g class="link" data-entity-1="PRD_7008" data-entity-2="PRD_7008_msg_1" data-source-line="15" data-uid="lnk4" id="link_PRD_7008_PRD_7008_msg_1"><path codeLine="15" d="M525.42,141.5169 C486.06,164.4469 443.2545,189.3868 399.5645,214.8368" fill="none" id="PRD_7008-to-PRD_7008_msg_1" style="stroke:#181818;stroke-width:1;"/><polygon fill="#181818" points="394.38,217.8569,404.1702,216.7831,398.7004,215.3402,400.1434,209.8704,394.38,217.8569" style="stroke:#181818;stroke-width:1;"/><text fill="#000000" font-family="sans-serif" font-size="13" lengthAdjust="spacing" textLength="85.2363" x="470.43" y="184.2538">verwendet in</text></g><!--link PRD_7008 to PRD_7008_proc_1--><g class="link" data-entity-1="PRD_7008" data-entity-2="PRD_7008_proc_1" data-source-line="21" data-uid="lnk6" id="link_PRD_7008_PRD_7008_proc_1"><path codeLine="21" d="M689.68,141.5169 C740,170.7469 799.2022,205.1325 850.7822,235.1025" fill="none" id="PRD_7008-to-PRD_7008_proc_1" style="stroke:#181818;stroke-width:1;stroke-dasharray:7,7;"/><polygon fill="#181818" points="855.97,238.1169,850.1978,230.1368,851.6468,235.6049,846.1787,237.0539,855.97,238.1169" style="stroke:#181818;stroke-width:1;"/><text fill="#000000" font-family="sans-serif" font-size="13" lengthAdjust="spacing" textLength="91.6221" x="767.43" y="184.2538">eingebettet in</text></g><!--SRC=[TL7RJi9047ttA-O3MjmMHMX8ZG53y89u2IQyD6rt2XlRBTcTYcByTsSHZK5zwCbSJkVCcIL59S8m9TGfbQa57wPtm-X4YEv1phbrQU9IU3i0cAGLHZ0rjMoUo3_iPoQ-GcMfqGkReSsN1bN62LEPj45hCU8OUEm4QQCRsZXgcXdCbzeHt_Taaiekac0dnlDKlYHMl1iFpXuWR0d9ZSjQ4xvm-HuN5MhU-xLko6aMfUCNMCe8BbAk36g9DW8XX0V1YGTXcx_ZZWVjm8CE5wSt8m_cekkWnn081zoSjxSGCXm5F_tyvmJWji6onAzja-lnA0aJ8PDGX4UY4_HQArcmuU-B-dwyxpk2PpHhr189bDw_pShKEPFwVHVmCd7yUQZ_5XgXvHPlT4-chYRdCsyNpMVSdJSshVX-1MimFu97XL0q-ebKhHKQ0ic5luV3PgtukL5l-ncIUtWqq6W9LmeBDAccqvzcMwtubv48KEa5yk-qzVi1]--></g></svg>