<svg xmlns="http://www.w3.org/2000/svg" xmlns:xlink="http://www.w3.org/1999/xlink" contentStyleType="text/css" data-diagram-type="CLASS" height="387px" preserveAspectRatio="none" style="width:2353px;height:387px;background:#FFFFFF;" version="1.1" viewBox="0 0 2353 387" width="2353px" zoomAndPan="magnify"><title>Datenatlas - PRI:C509</title><defs/><g><g class="title" data-source-line="1"><text fill="#000000" font-family="sans-serif" font-size="14" font-weight="bold" lengthAdjust="spacing" textLength="172.8467" x="1083.5404" y="22.9951">Datenatlas - PRI:C509</text></g><!--class PRI_C509--><g class="entity" data-entity="PRI_C509" data-source-line="2" data-uid="ent0002" id="entity_PRI_C509"><rect fill="#F1F1F1" height="113.1875" rx="2.5" ry="2.5" style="stroke:#181818;stroke-width:0.5;" width="249.2822" x="841.17" y="44.2969"/><ellipse cx="928.6632" cy="60.2969" fill="#ADD1B2" rx="11" ry="11" style="stroke:#181818;stroke-width:1;"/><path d="M931.6319,65.9375 Q931.0538,66.2344 930.4132,66.375 Q929.7725,66.5313 929.0694,66.5313 Q926.5694,66.5313 925.2413,64.8906 Q923.9288,63.2344 923.9288,60.1094 Q923.9288,56.9844 925.2413,55.3281 Q926.5694,53.6719 929.0694,53.6719 Q929.7725,53.6719 930.4132,53.8281 Q931.0694,53.9844 931.6319,54.2813 L931.6319,57 Q931.0069,56.4219 930.4132,56.1563 Q929.8194,55.875 929.1944,55.875 Q927.8507,55.875 927.1632,56.9531 Q926.4757,58.0156 926.4757,60.1094 Q926.4757,62.2031 927.1632,63.2813 Q927.8507,64.3438 929.1944,64.3438 Q929.8194,64.3438 930.4132,64.0781 Q931.0069,63.7969 931.6319,63.2188 L931.6319,65.9375 Z " fill="#000000"/><text fill="#000000" font-family="sans-serif" font-size="14" lengthAdjust="spacing" textLength="65.7959" x="949.1632" y="65.1436">PRI_C509</text><line style="stroke:#181818;stroke-width:0.5;" x1="842.17" x2="1089.4522" y1="76.2969" y2="76.2969"/><text fill="#000000" font-family="sans-serif" font-size="14" lengthAdjust="spacing" textLength="165.5117" x="861.17" y="93.292">Name: Preisinformation</text><text fill="#000000" font-family="sans-serif" font-size="14" lengthAdjust="spacing" textLength="66.6436" x="861.17" y="109.5889">Prozesse:</text><rect fill="none" height="6" style="stroke:#C82930;stroke-width:1;" width="6" x="849.17" y="119.5391"/><text fill="#000000" font-family="sans-serif" font-size="14" lengthAdjust="spacing" textLength="180.3457" x="861.17" y="125.8857">Netznutzungsabrechnung</text><rect fill="none" height="6" style="stroke:#C82930;stroke-width:1;" width="6" x="849.17" y="135.8359"/><text fill="#000000" font-family="sans-serif" font-size="14" lengthAdjust="spacing" textLength="223.2822" x="861.17" y="142.1826">Messstellenbetriebsabrechnung</text><line style="stroke:#181818;stroke-width:0.5;" x1="842.17" x2="1089.4522" y1="149.4844" y2="149.4844"/></g><!--class PRI_C509_msg_1--><g class="entity" data-entity="PRI_C509_msg_1" data-source-line="8" data-uid="ent0003" id="entity_PRI_C509_msg_1"><rect fill="#F1F1F1" height="145.7813" rx="2.5" ry="2.5" style="stroke:#181818;stroke-width:0.5;" width="495.6221" x="7" y="234.4869"/><ellipse cx="191.3003" cy="250.4869" fill="#ADD1B2" rx="11" ry="11" style="stroke:#181818;stroke-width:1;"/><path d="M194.269,256.1275 Q193.6909,256.4244 193.0503,256.565 Q192.4097,256.7213 191.7065,256.7213 Q189.2065,256.7213 187.8784,255.0806 Q186.5659,253.4244 186.5659,250.2994 Q186.5659,247.1744 187.8784,245.5181 Q189.2065,243.8619 191.7065,243.8619 Q192.4097,243.8619 193.0503,244.0181 Q193.7065,244.1744 194.269,244.4713 L194.269,247.19 Q193.644,246.6119 193.0503,246.3463 Q192.4565,246.065 191.8315,246.065 Q190.4878,246.065 189.8003,247.1431 Q189.1128,248.2056 189.1128,250.2994 Q189.1128,252.3931 189.8003,253.4713 Q190.4878,254.5338 191.8315,254.5338 Q192.4565,254.5338 193.0503,254.2681 Q193.644,253.9869 194.269,253.4088 L194.269,256.1275 Z " fill="#000000"/><text fill="#000000" font-family="sans-serif" font-size="14" lengthAdjust="spacing" textLength="118.5215" x="211.8003" y="255.3336">PRI_C509_msg_1</text><line style="stroke:#181818;stroke-width:0.5;" x1="8" x2="501.6221" y1="266.4869" y2="266.4869"/><text fill="#000000" font-family="sans-serif" font-size="14" lengthAdjust="spacing" textLength="161.1982" x="13" y="283.482">Nachricht: INVOIC 2.8d</text><text fill="#000000" font-family="sans-serif" font-size="14" lengthAdjust="spacing" textLength="123.0605" x="13" y="299.7789">Kontext: Beispiel:</text><text fill="#000000" font-family="sans-serif" font-size="14" lengthAdjust="spacing" textLength="91.4033" x="13" y="316.0757">Pflichtfeld: Ja</text><text fill="#000000" font-family="sans-serif" font-size="14" lengthAdjust="spacing" textLength="323.21" x="13" y="332.3726">Codes: 15, 25, ANN, CAL, DAY, MON, OCR, PRI</text><text fill="#000000" font-family="sans-serif" font-size="14" lengthAdjust="spacing" textLength="483.6221" x="13" y="348.6695">Prozesse: Netznutzungsabrechnung, Messstellenbetriebsabrechnung</text><text fill="#000000" font-family="sans-serif" font-size="14" lengthAdjust="spacing" textLength="396.6074" x="13" y="364.9664">Quelle: INVOIC_MIG_2.8d_Fehlerkorrektur_20250131.pdf</text><line style="stroke:#181818;stroke-width:0.5;" x1="8" x2="501.6221" y1="372.2681" y2="372.2681"/></g><!--class PRI_C509_msg_2--><g class="entity" data-entity="PRI_C509_msg_2" data-source-line="17" data-uid="ent0005" id="entity_PRI_C509_msg_2"><rect fill="#F1F1F1" height="145.7813" rx="2.5" ry="2.5" style="stroke:#181818;stroke-width:0.5;" width="296.4365" x="537.59" y="234.4869"/><ellipse cx="622.2975" cy="250.4869" fill="#ADD1B2" rx="11" ry="11" style="stroke:#181818;stroke-width:1;"/><path d="M625.2663,256.1275 Q624.6881,256.4244 624.0475,256.565 Q623.4069,256.7213 622.7038,256.7213 Q620.2038,256.7213 618.8756,255.0806 Q617.5631,253.4244 617.5631,250.2994 Q617.5631,247.1744 618.8756,245.5181 Q620.2038,243.8619 622.7038,243.8619 Q623.4069,243.8619 624.0475,244.0181 Q624.7038,244.1744 625.2663,244.4713 L625.2663,247.19 Q624.6413,246.6119 624.0475,246.3463 Q623.4538,246.065 622.8288,246.065 Q621.485,246.065 620.7975,247.1431 Q620.11,248.2056 620.11,250.2994 Q620.11,252.3931 620.7975,253.4713 Q621.485,254.5338 622.8288,254.5338 Q623.4538,254.5338 624.0475,254.2681 Q624.6413,253.9869 625.2663,253.4088 L625.2663,256.1275 Z " fill="#000000"/><text fill="#000000" font-family="sans-serif" font-size="14" lengthAdjust="spacing" textLength="118.5215" x="642.7975" y="255.3336">PRI_C509_msg_2</text><line style="stroke:#181818;stroke-width:0.5;" x1="538.59" x2="833.0265" y1="266.4869" y2="266.4869"/><text fill="#000000" font-family="sans-serif" font-size="14" lengthAdjust="spacing" textLength="162.2988" x="543.59" y="283.482">Nachricht: PRICAT 2.0d</text><text fill="#000000" font-family="sans-serif" font-size="14" lengthAdjust="spacing" textLength="170.3447" x="543.59" y="299.7789">Kontext: Segmentlayout</text><text fill="#000000" font-family="sans-serif" font-size="14" lengthAdjust="spacing" textLength="91.4033" x="543.59" y="316.0757">Pflichtfeld: Ja</text><text fill="#000000" font-family="sans-serif" font-size="14" lengthAdjust="spacing" textLength="225.4355" x="543.59" y="332.3726">Codes: 100, 15, CAL, ID, PRI, SG</text><text fill="#000000" font-family="sans-serif" font-size="14" lengthAdjust="spacing" textLength="251.4395" x="543.59" y="348.6695">Prozesse: Netznutzungsabrechnung</text><text fill="#000000" font-family="sans-serif" font-size="14" lengthAdjust="spacing" textLength="284.4365" x="543.59" y="364.9664">Quelle: PRICAT_MIG_2_0d_20240619.pdf</text><line style="stroke:#181818;stroke-width:0.5;" x1="538.59" x2="833.0265" y1="372.2681" y2="372.2681"/></g><!--class PRI_C509_proc_1--><g class="entity" data-entity="PRI_C509_proc_1" data-source-line="26" data-uid="ent0007" id="entity_PRI_C509_proc_1"><rect fill="#F1F1F1" height="105.1563" rx="2.5" ry="2.5" style="stroke:#181818;stroke-width:0.5;" width="752.6465" x="869.49" y="254.7969"/><ellipse cx="1181.759" cy="274.9297" fill="#ADD1B2" rx="11" ry="11" style="stroke:#181818;stroke-width:1;"/><path d="M1184.7278,280.5703 Q1184.1497,280.8672 1183.509,281.0078 Q1182.8684,281.1641 1182.1653,281.1641 Q1179.6653,281.1641 1178.3372,279.5234 Q1177.0247,277.8672 1177.0247,274.7422 Q1177.0247,271.6172 1178.3372,269.9609 Q1179.6653,268.3047 1182.1653,268.3047 Q1182.8684,268.3047 1183.509,268.4609 Q1184.1653,268.6172 1184.7278,268.9141 L1184.7278,271.6328 Q1184.1028,271.0547 1183.509,270.7891 Q1182.9153,270.5078 1182.2903,270.5078 Q1180.9465,270.5078 1180.259,271.5859 Q1179.5715,272.6484 1179.5715,274.7422 Q1179.5715,276.8359 1180.259,277.9141 Q1180.9465,278.9766 1182.2903,278.9766 Q1182.9153,278.9766 1183.509,278.7109 Q1184.1028,278.4297 1184.7278,277.8516 L1184.7278,280.5703 Z " fill="#000000"/><text fill="#000000" font-family="sans-serif" font-size="12" font-style="italic" lengthAdjust="spacing" textLength="61.0605" x="1231.533" y="270.9355">&#171;process&#187;</text><text fill="#000000" font-family="sans-serif" font-size="14" lengthAdjust="spacing" textLength="119.6084" x="1202.259" y="286.7607">PRI_C509_proc_1</text><line style="stroke:#181818;stroke-width:0.5;" x1="870.49" x2="1621.1365" y1="295.0625" y2="295.0625"/><text fill="#000000" font-family="sans-serif" font-size="14" lengthAdjust="spacing" textLength="180.3457" x="875.49" y="312.0576">Netznutzungsabrechnung</text><text fill="#000000" font-family="sans-serif" font-size="14" lengthAdjust="spacing" textLength="218.0938" x="875.49" y="328.3545">Gesetze: StromNEV, StromNZV</text><text fill="#000000" font-family="sans-serif" font-size="14" lengthAdjust="spacing" textLength="740.6465" x="875.49" y="344.6514">Zusammenfassung: Wie funktioniert die Netznutzungsabrechnung zwischen Netzbetreiber und Lieferant?</text><line style="stroke:#181818;stroke-width:0.5;" x1="870.49" x2="1621.1365" y1="351.9531" y2="351.9531"/></g><!--class PRI_C509_proc_2--><g class="entity" data-entity="PRI_C509_proc_2" data-source-line="32" data-uid="ent0009" id="entity_PRI_C509_proc_2"><rect fill="#F1F1F1" height="105.1563" rx="2.5" ry="2.5" style="stroke:#181818;stroke-width:0.5;" width="690.2275" x="1656.7" y="254.7969"/><ellipse cx="1937.7596" cy="274.9297" fill="#ADD1B2" rx="11" ry="11" style="stroke:#181818;stroke-width:1;"/><path d="M1940.7283,280.5703 Q1940.1502,280.8672 1939.5096,281.0078 Q1938.8689,281.1641 1938.1658,281.1641 Q1935.6658,281.1641 1934.3377,279.5234 Q1933.0252,277.8672 1933.0252,274.7422 Q1933.0252,271.6172 1934.3377,269.9609 Q1935.6658,268.3047 1938.1658,268.3047 Q1938.8689,268.3047 1939.5096,268.4609 Q1940.1658,268.6172 1940.7283,268.9141 L1940.7283,271.6328 Q1940.1033,271.0547 1939.5096,270.7891 Q1938.9158,270.5078 1938.2908,270.5078 Q1936.9471,270.5078 1936.2596,271.5859 Q1935.5721,272.6484 1935.5721,274.7422 Q1935.5721,276.8359 1936.2596,277.9141 Q1936.9471,278.9766 1938.2908,278.9766 Q1938.9158,278.9766 1939.5096,278.7109 Q1940.1033,278.4297 1940.7283,277.8516 L1940.7283,280.5703 Z " fill="#000000"/><text fill="#000000" font-family="sans-serif" font-size="12" font-style="italic" lengthAdjust="spacing" textLength="61.0605" x="1987.5335" y="270.9355">&#171;process&#187;</text><text fill="#000000" font-family="sans-serif" font-size="14" lengthAdjust="spacing" textLength="119.6084" x="1958.2596" y="286.7607">PRI_C509_proc_2</text><line style="stroke:#181818;stroke-width:0.5;" x1="1657.7" x2="2345.9275" y1="295.0625" y2="295.0625"/><text fill="#000000" font-family="sans-serif" font-size="14" lengthAdjust="spacing" textLength="223.2822" x="1662.7" y="312.0576">Messstellenbetriebsabrechnung</text><text fill="#000000" font-family="sans-serif" font-size="14" lengthAdjust="spacing" textLength="105.0957" x="1662.7" y="328.3545">Gesetze: MsbG</text><text fill="#000000" font-family="sans-serif" font-size="14" lengthAdjust="spacing" textLength="678.2275" x="1662.7" y="344.6514">Zusammenfassung: Beschreibe den Prozess der Abrechnung von Messstellenbetriebsleistungen.</text><line style="stroke:#181818;stroke-width:0.5;" x1="1657.7" x2="2345.9275" y1="351.9531" y2="351.9531"/></g><!--link PRI_C509 to PRI_C509_msg_1--><g class="link" data-entity-1="PRI_C509" data-entity-2="PRI_C509_msg_1" data-source-line="16" data-uid="lnk4" id="link_PRI_C509_PRI_C509_msg_1"><path codeLine="16" d="M840.74,137.8569 C747.5,164.6769 622.8663,200.5185 508.7463,233.3385" fill="none" id="PRI_C509-to-PRI_C509_msg_1" style="stroke:#181818;stroke-width:1;"/><polygon fill="#181818" points="502.98,234.9969,512.735,236.3536,507.7852,233.6149,510.5239,228.6652,502.98,234.9969" style="stroke:#181818;stroke-width:1;"/><text fill="#000000" font-family="sans-serif" font-size="13" lengthAdjust="spacing" textLength="85.2363" x="654.81" y="200.5538">verwendet in</text></g><!--link PRI_C509 to PRI_C509_msg_2--><g class="link" data-entity-1="PRI_C509" data-entity-2="PRI_C509_msg_2" data-source-line="25" data-uid="lnk6" id="link_PRI_C509_PRI_C509_msg_2"><path codeLine="25" d="M889.3,157.7669 C857.08,181.2969 824.0052,205.4479 789.6952,230.5079" fill="none" id="PRI_C509-to-PRI_C509_msg_2" style="stroke:#181818;stroke-width:1;"/><polygon fill="#181818" points="784.85,234.0469,794.4771,231.9686,788.8877,231.0978,789.7585,225.5083,784.85,234.0469" style="stroke:#181818;stroke-width:1;"/><text fill="#000000" font-family="sans-serif" font-size="13" lengthAdjust="spacing" textLength="85.2363" x="843.81" y="200.5538">verwendet in</text></g><!--link PRI_C509 to PRI_C509_proc_1--><g class="link" data-entity-1="PRI_C509" data-entity-2="PRI_C509_proc_1" data-source-line="31" data-uid="lnk8" id="link_PRI_C509_PRI_C509_proc_1"><path codeLine="31" d="M1042.32,157.7669 C1083.61,187.9169 1129.4042,221.3687 1169.8342,250.8887" fill="none" id="PRI_C509-to-PRI_C509_proc_1" style="stroke:#181818;stroke-width:1;stroke-dasharray:7,7;"/><polygon fill="#181818" points="1174.68,254.4269,1169.7701,245.8891,1170.6419,251.4784,1165.0526,252.3502,1174.68,254.4269" style="stroke:#181818;stroke-width:1;"/><text fill="#000000" font-family="sans-serif" font-size="13" lengthAdjust="spacing" textLength="91.6221" x="1106.81" y="200.5538">eingebettet in</text></g><!--link PRI_C509 to PRI_C509_proc_2--><g class="link" data-entity-1="PRI_C509" data-entity-2="PRI_C509_proc_2" data-source-line="37" data-uid="lnk10" id="link_PRI_C509_PRI_C509_proc_2"><path codeLine="37" d="M1090.67,126.3869 C1225.97,152.9469 1448.23,196.6169 1639.81,234.4869 C1672.34,240.9169 1700.6244,246.5209 1734.4444,253.2209" fill="none" id="PRI_C509-to-PRI_C509_proc_2" style="stroke:#181818;stroke-width:1;stroke-dasharray:7,7;"/><polygon fill="#181818" points="1740.33,254.3869,1732.2789,248.7142,1735.4253,253.4152,1730.7243,256.5616,1740.33,254.3869" style="stroke:#181818;stroke-width:1;"/><text fill="#000000" font-family="sans-serif" font-size="13" lengthAdjust="spacing" textLength="91.6221" x="1474.81" y="200.5538">eingebettet in</text></g><!--SRC=[ZPFRRfj048RlynJp01W1hQi4HQu8RYsQ6BjnvQgvGHm6ipBiMhjB3gxwxft5Rkhw4FS2QMR_PUV_VXRDT8qmJ3NoLDUfWXvCxoC_x3jN5pdrohI9QU7d1K2SDkZ3L29JZ9T2DgbcWfCmbMADIg5FDT0XCUerR_MwvGkLPXBpYbEv5SUqKsciQ-GPQiamsztpQszmqgX5ucx7vvLaUQLzYEBv90h1ioyB4cu5r_XCopVaRCMmDZwcPMtsbbWNFdn9QIKK1IeVtBu57Zr175iG1dSM38CV5emdr4x2UykCtcKwGMET0G7usXhjZzba78qIOpZvZ5MDSYcanALkPU8vNjzntxdsgYY9_pNoNc-m7uCFZoYVa1UeWV5ZKNdxKP4Q1jyeAkUVg6QuQ93JHtyHhNupBiUnkiowgA9Xbuy5iz5_PBGJmiR69eJ4AGpqU-U3UtKMsZi3lP8YfsIkhqr1PWQ3JGAd38rGaKIEPbgA9luqjxRLmvpKXrQb3GLJqWpQxyDtXb2sV6bkEaEfeQ25uuV3-ecfl4BUwUPA8CjGGiiBk6DOeaov_hWBQzk30n0VaF45qklwDAztm7lkChvYZrKsEWPwW-IzSmm58Mm_BTKIWh-8Zu8V6rNJZwT9Hsw_pUSTyFq6]--></g></svg>