<svg xmlns="http://www.w3.org/2000/svg" xmlns:xlink="http://www.w3.org/1999/xlink" contentStyleType="text/css" data-diagram-type="CLASS" height="419px" preserveAspectRatio="none" style="width:5902px;height:419px;background:#FFFFFF;" version="1.1" viewBox="0 0 5902 419" width="5902px" zoomAndPan="magnify"><title>Datenatlas - PRI:5118</title><defs/><g><g class="title" data-source-line="1"><text fill="#000000" font-family="sans-serif" font-size="14" font-weight="bold" lengthAdjust="spacing" textLength="172.3135" x="2858.2479" y="22.9951">Datenatlas - PRI:5118</text></g><!--class PRI_5118--><g class="entity" data-entity="PRI_5118" data-source-line="2" data-uid="ent0002" id="entity_PRI_5118"><rect fill="#F1F1F1" height="145.7813" rx="2.5" ry="2.5" style="stroke:#181818;stroke-width:0.5;" width="374.2021" x="1986.71" y="44.2969"/><ellipse cx="2137.0972" cy="60.2969" fill="#ADD1B2" rx="11" ry="11" style="stroke:#181818;stroke-width:1;"/><path d="M2140.066,65.9375 Q2139.4878,66.2344 2138.8472,66.375 Q2138.2066,66.5313 2137.5035,66.5313 Q2135.0035,66.5313 2133.6753,64.8906 Q2132.3628,63.2344 2132.3628,60.1094 Q2132.3628,56.9844 2133.6753,55.3281 Q2135.0035,53.6719 2137.5035,53.6719 Q2138.2066,53.6719 2138.8472,53.8281 Q2139.5035,53.9844 2140.066,54.2813 L2140.066,57 Q2139.441,56.4219 2138.8472,56.1563 Q2138.2535,55.875 2137.6285,55.875 Q2136.2847,55.875 2135.5972,56.9531 Q2134.9097,58.0156 2134.9097,60.1094 Q2134.9097,62.2031 2135.5972,63.2813 Q2136.2847,64.3438 2137.6285,64.3438 Q2138.2535,64.3438 2138.8472,64.0781 Q2139.441,63.7969 2140.066,63.2188 L2140.066,65.9375 Z " fill="#000000"/><text fill="#000000" font-family="sans-serif" font-size="14" lengthAdjust="spacing" textLength="64.9277" x="2157.5972" y="65.1436">PRI_5118</text><line style="stroke:#181818;stroke-width:0.5;" x1="1987.71" x2="2359.9121" y1="76.2969" y2="76.2969"/><text fill="#000000" font-family="sans-serif" font-size="14" lengthAdjust="spacing" textLength="140.2939" x="2006.71" y="93.292">Name: Preis, Betrag</text><text fill="#000000" font-family="sans-serif" font-size="14" lengthAdjust="spacing" textLength="66.6436" x="2006.71" y="109.5889">Prozesse:</text><rect fill="none" height="6" style="stroke:#C82930;stroke-width:1;" width="6" x="1994.71" y="119.5391"/><text fill="#000000" font-family="sans-serif" font-size="14" lengthAdjust="spacing" textLength="180.3457" x="2006.71" y="125.8857">Netznutzungsabrechnung</text><rect fill="none" height="6" style="stroke:#C82930;stroke-width:1;" width="6" x="1994.71" y="135.8359"/><text fill="#000000" font-family="sans-serif" font-size="14" lengthAdjust="spacing" textLength="223.2822" x="2006.71" y="142.1826">Messstellenbetriebsabrechnung</text><rect fill="none" height="6" style="stroke:#C82930;stroke-width:1;" width="6" x="1994.71" y="152.1328"/><text fill="#000000" font-family="sans-serif" font-size="14" lengthAdjust="spacing" textLength="317.9668" x="2006.71" y="158.4795">Sperrung und Entsperrung eines Anschlusses</text><line style="stroke:#181818;stroke-width:0.5;" x1="1987.71" x2="2359.9121" y1="165.7813" y2="165.7813"/><rect fill="#F24D5C" height="6" style="stroke:#C82930;stroke-width:1;" width="6" x="1994.71" y="176.4297"/><text fill="#000000" font-family="sans-serif" font-size="14" lengthAdjust="spacing" textLength="348.2021" x="2006.71" y="182.7764">Bestellung einer technischen Konfiguration (MSB)</text></g><!--class PRI_5118_msg_1--><g class="entity" data-entity="PRI_5118_msg_1" data-source-line="10" data-uid="ent0003" id="entity_PRI_5118_msg_1"><rect fill="#F1F1F1" height="145.7813" rx="2.5" ry="2.5" style="stroke:#181818;stroke-width:0.5;" width="495.6221" x="7" y="267.0769"/><ellipse cx="191.7344" cy="283.0769" fill="#ADD1B2" rx="11" ry="11" style="stroke:#181818;stroke-width:1;"/><path d="M194.7031,288.7175 Q194.125,289.0144 193.4844,289.155 Q192.8438,289.3113 192.1406,289.3113 Q189.6406,289.3113 188.3125,287.6706 Q187,286.0144 187,282.8894 Q187,279.7644 188.3125,278.1081 Q189.6406,276.4519 192.1406,276.4519 Q192.8438,276.4519 193.4844,276.6081 Q194.1406,276.7644 194.7031,277.0613 L194.7031,279.78 Q194.0781,279.2019 193.4844,278.9363 Q192.8906,278.655 192.2656,278.655 Q190.9219,278.655 190.2344,279.7331 Q189.5469,280.7956 189.5469,282.8894 Q189.5469,284.9831 190.2344,286.0613 Q190.9219,287.1238 192.2656,287.1238 Q192.8906,287.1238 193.4844,286.8581 Q194.0781,286.5769 194.7031,285.9988 L194.7031,288.7175 Z " fill="#000000"/><text fill="#000000" font-family="sans-serif" font-size="14" lengthAdjust="spacing" textLength="117.6533" x="212.2344" y="287.9236">PRI_5118_msg_1</text><line style="stroke:#181818;stroke-width:0.5;" x1="8" x2="501.6221" y1="299.0769" y2="299.0769"/><text fill="#000000" font-family="sans-serif" font-size="14" lengthAdjust="spacing" textLength="161.1982" x="13" y="316.072">Nachricht: INVOIC 2.8d</text><text fill="#000000" font-family="sans-serif" font-size="14" lengthAdjust="spacing" textLength="123.0605" x="13" y="332.3689">Kontext: Beispiel:</text><text fill="#000000" font-family="sans-serif" font-size="14" lengthAdjust="spacing" textLength="91.4033" x="13" y="348.6657">Pflichtfeld: Ja</text><text fill="#000000" font-family="sans-serif" font-size="14" lengthAdjust="spacing" textLength="323.21" x="13" y="364.9626">Codes: 15, 25, ANN, CAL, DAY, MON, OCR, PRI</text><text fill="#000000" font-family="sans-serif" font-size="14" lengthAdjust="spacing" textLength="483.6221" x="13" y="381.2595">Prozesse: Netznutzungsabrechnung, Messstellenbetriebsabrechnung</text><text fill="#000000" font-family="sans-serif" font-size="14" lengthAdjust="spacing" textLength="396.6074" x="13" y="397.5564">Quelle: INVOIC_MIG_2.8d_Fehlerkorrektur_20250131.pdf</text><line style="stroke:#181818;stroke-width:0.5;" x1="8" x2="501.6221" y1="404.8581" y2="404.8581"/></g><!--class PRI_5118_msg_2--><g class="entity" data-entity="PRI_5118_msg_2" data-source-line="19" data-uid="ent0005" id="entity_PRI_5118_msg_2"><rect fill="#F1F1F1" height="145.7813" rx="2.5" ry="2.5" style="stroke:#181818;stroke-width:0.5;" width="495.6221" x="538" y="267.0769"/><ellipse cx="722.7344" cy="283.0769" fill="#ADD1B2" rx="11" ry="11" style="stroke:#181818;stroke-width:1;"/><path d="M725.7031,288.7175 Q725.125,289.0144 724.4844,289.155 Q723.8438,289.3113 723.1406,289.3113 Q720.6406,289.3113 719.3125,287.6706 Q718,286.0144 718,282.8894 Q718,279.7644 719.3125,278.1081 Q720.6406,276.4519 723.1406,276.4519 Q723.8438,276.4519 724.4844,276.6081 Q725.1406,276.7644 725.7031,277.0613 L725.7031,279.78 Q725.0781,279.2019 724.4844,278.9363 Q723.8906,278.655 723.2656,278.655 Q721.9219,278.655 721.2344,279.7331 Q720.5469,280.7956 720.5469,282.8894 Q720.5469,284.9831 721.2344,286.0613 Q721.9219,287.1238 723.2656,287.1238 Q723.8906,287.1238 724.4844,286.8581 Q725.0781,286.5769 725.7031,285.9988 L725.7031,288.7175 Z " fill="#000000"/><text fill="#000000" font-family="sans-serif" font-size="14" lengthAdjust="spacing" textLength="117.6533" x="743.2344" y="287.9236">PRI_5118_msg_2</text><line style="stroke:#181818;stroke-width:0.5;" x1="539" x2="1032.6221" y1="299.0769" y2="299.0769"/><text fill="#000000" font-family="sans-serif" font-size="14" lengthAdjust="spacing" textLength="165.6484" x="544" y="316.072">Nachricht: INVOIC 2.8d.</text><text fill="#000000" font-family="sans-serif" font-size="14" lengthAdjust="spacing" textLength="170.3447" x="544" y="332.3689">Kontext: Segmentlayout</text><text fill="#000000" font-family="sans-serif" font-size="14" lengthAdjust="spacing" textLength="91.4033" x="544" y="348.6657">Pflichtfeld: Ja</text><text fill="#000000" font-family="sans-serif" font-size="14" lengthAdjust="spacing" textLength="323.21" x="544" y="364.9626">Codes: 15, 25, ANN, CAL, DAY, MON, OCR, PRI</text><text fill="#000000" font-family="sans-serif" font-size="14" lengthAdjust="spacing" textLength="483.6221" x="544" y="381.2595">Prozesse: Netznutzungsabrechnung, Messstellenbetriebsabrechnung</text><text fill="#000000" font-family="sans-serif" font-size="14" lengthAdjust="spacing" textLength="290.3359" x="544" y="397.5564">Quelle: INVOIC_MIG_2_8d__20240619.pdf</text><line style="stroke:#181818;stroke-width:0.5;" x1="539" x2="1032.6221" y1="404.8581" y2="404.8581"/></g><!--class PRI_5118_msg_3--><g class="entity" data-entity="PRI_5118_msg_3" data-source-line="28" data-uid="ent0007" id="entity_PRI_5118_msg_3"><rect fill="#F1F1F1" height="145.7813" rx="2.5" ry="2.5" style="stroke:#181818;stroke-width:0.5;" width="296.4365" x="1068.59" y="267.0769"/><ellipse cx="1153.7316" cy="283.0769" fill="#ADD1B2" rx="11" ry="11" style="stroke:#181818;stroke-width:1;"/><path d="M1156.7004,288.7175 Q1156.1222,289.0144 1155.4816,289.155 Q1154.841,289.3113 1154.1379,289.3113 Q1151.6379,289.3113 1150.3097,287.6706 Q1148.9972,286.0144 1148.9972,282.8894 Q1148.9972,279.7644 1150.3097,278.1081 Q1151.6379,276.4519 1154.1379,276.4519 Q1154.841,276.4519 1155.4816,276.6081 Q1156.1379,276.7644 1156.7004,277.0613 L1156.7004,279.78 Q1156.0754,279.2019 1155.4816,278.9363 Q1154.8879,278.655 1154.2629,278.655 Q1152.9191,278.655 1152.2316,279.7331 Q1151.5441,280.7956 1151.5441,282.8894 Q1151.5441,284.9831 1152.2316,286.0613 Q1152.9191,287.1238 1154.2629,287.1238 Q1154.8879,287.1238 1155.4816,286.8581 Q1156.0754,286.5769 1156.7004,285.9988 L1156.7004,288.7175 Z " fill="#000000"/><text fill="#000000" font-family="sans-serif" font-size="14" lengthAdjust="spacing" textLength="117.6533" x="1174.2316" y="287.9236">PRI_5118_msg_3</text><line style="stroke:#181818;stroke-width:0.5;" x1="1069.59" x2="1364.0265" y1="299.0769" y2="299.0769"/><text fill="#000000" font-family="sans-serif" font-size="14" lengthAdjust="spacing" textLength="162.2988" x="1074.59" y="316.072">Nachricht: PRICAT 2.0d</text><text fill="#000000" font-family="sans-serif" font-size="14" lengthAdjust="spacing" textLength="149.3447" x="1074.59" y="332.3689">Kontext: Bemerkung:</text><text fill="#000000" font-family="sans-serif" font-size="14" lengthAdjust="spacing" textLength="91.4033" x="1074.59" y="348.6657">Pflichtfeld: Ja</text><text fill="#000000" font-family="sans-serif" font-size="14" lengthAdjust="spacing" textLength="255.0557" x="1074.59" y="364.9626">Codes: 100, 15, CAL, ID, PRI, SG, UN</text><text fill="#000000" font-family="sans-serif" font-size="14" lengthAdjust="spacing" textLength="251.4395" x="1074.59" y="381.2595">Prozesse: Netznutzungsabrechnung</text><text fill="#000000" font-family="sans-serif" font-size="14" lengthAdjust="spacing" textLength="284.4365" x="1074.59" y="397.5564">Quelle: PRICAT_MIG_2_0d_20240619.pdf</text><line style="stroke:#181818;stroke-width:0.5;" x1="1069.59" x2="1364.0265" y1="404.8581" y2="404.8581"/></g><!--class PRI_5118_msg_4--><g class="entity" data-entity="PRI_5118_msg_4" data-source-line="37" data-uid="ent0009" id="entity_PRI_5118_msg_4"><rect fill="#F1F1F1" height="145.7813" rx="2.5" ry="2.5" style="stroke:#181818;stroke-width:0.5;" width="758.1631" x="1399.73" y="267.0769"/><ellipse cx="1715.7349" cy="283.0769" fill="#ADD1B2" rx="11" ry="11" style="stroke:#181818;stroke-width:1;"/><path d="M1718.7036,288.7175 Q1718.1255,289.0144 1717.4849,289.155 Q1716.8443,289.3113 1716.1411,289.3113 Q1713.6411,289.3113 1712.313,287.6706 Q1711.0005,286.0144 1711.0005,282.8894 Q1711.0005,279.7644 1712.313,278.1081 Q1713.6411,276.4519 1716.1411,276.4519 Q1716.8443,276.4519 1717.4849,276.6081 Q1718.1411,276.7644 1718.7036,277.0613 L1718.7036,279.78 Q1718.0786,279.2019 1717.4849,278.9363 Q1716.8911,278.655 1716.2661,278.655 Q1714.9224,278.655 1714.2349,279.7331 Q1713.5474,280.7956 1713.5474,282.8894 Q1713.5474,284.9831 1714.2349,286.0613 Q1714.9224,287.1238 1716.2661,287.1238 Q1716.8911,287.1238 1717.4849,286.8581 Q1718.0786,286.5769 1718.7036,285.9988 L1718.7036,288.7175 Z " fill="#000000"/><text fill="#000000" font-family="sans-serif" font-size="14" lengthAdjust="spacing" textLength="117.6533" x="1736.2349" y="287.9236">PRI_5118_msg_4</text><line style="stroke:#181818;stroke-width:0.5;" x1="1400.73" x2="2156.8931" y1="299.0769" y2="299.0769"/><text fill="#000000" font-family="sans-serif" font-size="14" lengthAdjust="spacing" textLength="170.3584" x="1405.73" y="316.072">Nachricht: QUOTES 1.3a</text><text fill="#000000" font-family="sans-serif" font-size="14" lengthAdjust="spacing" textLength="170.3447" x="1405.73" y="332.3689">Kontext: Segmentlayout</text><text fill="#000000" font-family="sans-serif" font-size="14" lengthAdjust="spacing" textLength="91.4033" x="1405.73" y="348.6657">Pflichtfeld: Ja</text><text fill="#000000" font-family="sans-serif" font-size="14" lengthAdjust="spacing" textLength="350.2324" x="1405.73" y="364.9626">Codes: 15, 99, CAL, DAY, OCR, PRI, Z01, Z02, Z03</text><text fill="#000000" font-family="sans-serif" font-size="14" lengthAdjust="spacing" textLength="292.4961" x="1405.73" y="381.2595">Quelle: QUOTES_MIG_1_3a_20240619.pdf</text><line style="stroke:#181818;stroke-width:0.5;" x1="1400.73" x2="2156.8931" y1="388.5613" y2="388.5613"/><text fill="#000000" font-family="sans-serif" font-size="14" lengthAdjust="spacing" textLength="746.1631" x="1405.73" y="405.5564">Prozesse: Bestellung einer technischen Konfiguration (MSB), Sperrung und Entsperrung eines Anschlusses</text></g><!--class PRI_5118_proc_1--><g class="entity" data-entity="PRI_5118_proc_1" data-source-line="46" data-uid="ent0011" id="entity_PRI_5118_proc_1"><rect fill="#F1F1F1" height="105.1563" rx="2.5" ry="2.5" style="stroke:#181818;stroke-width:0.5;" width="752.6465" x="2192.49" y="287.3869"/><ellipse cx="2505.1931" cy="307.5197" fill="#ADD1B2" rx="11" ry="11" style="stroke:#181818;stroke-width:1;"/><path d="M2508.1619,313.1603 Q2507.5838,313.4572 2506.9431,313.5978 Q2506.3025,313.7541 2505.5994,313.7541 Q2503.0994,313.7541 2501.7713,312.1134 Q2500.4588,310.4572 2500.4588,307.3322 Q2500.4588,304.2072 2501.7713,302.5509 Q2503.0994,300.8947 2505.5994,300.8947 Q2506.3025,300.8947 2506.9431,301.0509 Q2507.5994,301.2072 2508.1619,301.5041 L2508.1619,304.2228 Q2507.5369,303.6447 2506.9431,303.3791 Q2506.3494,303.0978 2505.7244,303.0978 Q2504.3806,303.0978 2503.6931,304.1759 Q2503.0056,305.2384 2503.0056,307.3322 Q2503.0056,309.4259 2503.6931,310.5041 Q2504.3806,311.5666 2505.7244,311.5666 Q2506.3494,311.5666 2506.9431,311.3009 Q2507.5369,311.0197 2508.1619,310.4416 L2508.1619,313.1603 Z " fill="#000000"/><text fill="#000000" font-family="sans-serif" font-size="12" font-style="italic" lengthAdjust="spacing" textLength="61.0605" x="2554.533" y="303.5255">&#171;process&#187;</text><text fill="#000000" font-family="sans-serif" font-size="14" lengthAdjust="spacing" textLength="118.7402" x="2525.6931" y="319.3507">PRI_5118_proc_1</text><line style="stroke:#181818;stroke-width:0.5;" x1="2193.49" x2="2944.1365" y1="327.6525" y2="327.6525"/><text fill="#000000" font-family="sans-serif" font-size="14" lengthAdjust="spacing" textLength="180.3457" x="2198.49" y="344.6476">Netznutzungsabrechnung</text><text fill="#000000" font-family="sans-serif" font-size="14" lengthAdjust="spacing" textLength="218.0938" x="2198.49" y="360.9445">Gesetze: StromNEV, StromNZV</text><text fill="#000000" font-family="sans-serif" font-size="14" lengthAdjust="spacing" textLength="740.6465" x="2198.49" y="377.2414">Zusammenfassung: Wie funktioniert die Netznutzungsabrechnung zwischen Netzbetreiber und Lieferant?</text><line style="stroke:#181818;stroke-width:0.5;" x1="2193.49" x2="2944.1365" y1="384.5431" y2="384.5431"/></g><!--class PRI_5118_proc_2--><g class="entity" data-entity="PRI_5118_proc_2" data-source-line="52" data-uid="ent0013" id="entity_PRI_5118_proc_2"><rect fill="#F1F1F1" height="105.1563" rx="2.5" ry="2.5" style="stroke:#181818;stroke-width:0.5;" width="690.2275" x="2979.7" y="287.3869"/><ellipse cx="3261.1937" cy="307.5197" fill="#ADD1B2" rx="11" ry="11" style="stroke:#181818;stroke-width:1;"/><path d="M3264.1624,313.1603 Q3263.5843,313.4572 3262.9437,313.5978 Q3262.303,313.7541 3261.5999,313.7541 Q3259.0999,313.7541 3257.7718,312.1134 Q3256.4593,310.4572 3256.4593,307.3322 Q3256.4593,304.2072 3257.7718,302.5509 Q3259.0999,300.8947 3261.5999,300.8947 Q3262.303,300.8947 3262.9437,301.0509 Q3263.5999,301.2072 3264.1624,301.5041 L3264.1624,304.2228 Q3263.5374,303.6447 3262.9437,303.3791 Q3262.3499,303.0978 3261.7249,303.0978 Q3260.3812,303.0978 3259.6937,304.1759 Q3259.0062,305.2384 3259.0062,307.3322 Q3259.0062,309.4259 3259.6937,310.5041 Q3260.3812,311.5666 3261.7249,311.5666 Q3262.3499,311.5666 3262.9437,311.3009 Q3263.5374,311.0197 3264.1624,310.4416 L3264.1624,313.1603 Z " fill="#000000"/><text fill="#000000" font-family="sans-serif" font-size="12" font-style="italic" lengthAdjust="spacing" textLength="61.0605" x="3310.5335" y="303.5255">&#171;process&#187;</text><text fill="#000000" font-family="sans-serif" font-size="14" lengthAdjust="spacing" textLength="118.7402" x="3281.6937" y="319.3507">PRI_5118_proc_2</text><line style="stroke:#181818;stroke-width:0.5;" x1="2980.7" x2="3668.9275" y1="327.6525" y2="327.6525"/><text fill="#000000" font-family="sans-serif" font-size="14" lengthAdjust="spacing" textLength="223.2822" x="2985.7" y="344.6476">Messstellenbetriebsabrechnung</text><text fill="#000000" font-family="sans-serif" font-size="14" lengthAdjust="spacing" textLength="105.0957" x="2985.7" y="360.9445">Gesetze: MsbG</text><text fill="#000000" font-family="sans-serif" font-size="14" lengthAdjust="spacing" textLength="678.2275" x="2985.7" y="377.2414">Zusammenfassung: Beschreibe den Prozess der Abrechnung von Messstellenbetriebsleistungen.</text><line style="stroke:#181818;stroke-width:0.5;" x1="2980.7" x2="3668.9275" y1="384.5431" y2="384.5431"/></g><!--class PRI_5118_proc_3--><g class="entity" data-entity="PRI_5118_proc_3" data-source-line="58" data-uid="ent0015" id="entity_PRI_5118_proc_3"><rect fill="#F1F1F1" height="105.1563" rx="2.5" ry="2.5" style="stroke:#181818;stroke-width:0.5;" width="1301.9961" x="3704.81" y="287.3869"/><ellipse cx="4292.1879" cy="307.5197" fill="#ADD1B2" rx="11" ry="11" style="stroke:#181818;stroke-width:1;"/><path d="M4295.1567,313.1603 Q4294.5786,313.4572 4293.9379,313.5978 Q4293.2973,313.7541 4292.5942,313.7541 Q4290.0942,313.7541 4288.7661,312.1134 Q4287.4536,310.4572 4287.4536,307.3322 Q4287.4536,304.2072 4288.7661,302.5509 Q4290.0942,300.8947 4292.5942,300.8947 Q4293.2973,300.8947 4293.9379,301.0509 Q4294.5942,301.2072 4295.1567,301.5041 L4295.1567,304.2228 Q4294.5317,303.6447 4293.9379,303.3791 Q4293.3442,303.0978 4292.7192,303.0978 Q4291.3754,303.0978 4290.6879,304.1759 Q4290.0004,305.2384 4290.0004,307.3322 Q4290.0004,309.4259 4290.6879,310.5041 Q4291.3754,311.5666 4292.7192,311.5666 Q4293.3442,311.5666 4293.9379,311.3009 Q4294.5317,311.0197 4295.1567,310.4416 L4295.1567,313.1603 Z " fill="#000000"/><text fill="#000000" font-family="sans-serif" font-size="12" font-style="italic" lengthAdjust="spacing" textLength="61.0605" x="4341.5278" y="303.5255">&#171;process&#187;</text><text fill="#000000" font-family="sans-serif" font-size="14" lengthAdjust="spacing" textLength="118.7402" x="4312.6879" y="319.3507">PRI_5118_proc_3</text><line style="stroke:#181818;stroke-width:0.5;" x1="3705.81" x2="5005.8061" y1="327.6525" y2="327.6525"/><text fill="#000000" font-family="sans-serif" font-size="14" lengthAdjust="spacing" textLength="156.4063" x="3710.81" y="344.6476">Gesetze: MsbG, EnWG</text><text fill="#000000" font-family="sans-serif" font-size="14" lengthAdjust="spacing" textLength="1289.9961" x="3710.81" y="360.9445">Zusammenfassung: Erl&#228;utere den Prozess zur Bestellung einer spezifischen technischen Konfiguration bei einem Messstellenbetreiber, beispielsweise f&#252;r ein intelligentes Messsystem.</text><line style="stroke:#181818;stroke-width:0.5;" x1="3705.81" x2="5005.8061" y1="368.2463" y2="368.2463"/><text fill="#000000" font-family="sans-serif" font-size="14" lengthAdjust="spacing" textLength="348.2021" x="3710.81" y="385.2414">Bestellung einer technischen Konfiguration (MSB)</text></g><!--class PRI_5118_proc_4--><g class="entity" data-entity="PRI_5118_proc_4" data-source-line="64" data-uid="ent0017" id="entity_PRI_5118_proc_4"><rect fill="#F1F1F1" height="105.1563" rx="2.5" ry="2.5" style="stroke:#181818;stroke-width:0.5;" width="853.9893" x="5041.82" y="287.3869"/><ellipse cx="5405.1945" cy="307.5197" fill="#ADD1B2" rx="11" ry="11" style="stroke:#181818;stroke-width:1;"/><path d="M5408.1633,313.1603 Q5407.5851,313.4572 5406.9445,313.5978 Q5406.3039,313.7541 5405.6008,313.7541 Q5403.1008,313.7541 5401.7726,312.1134 Q5400.4601,310.4572 5400.4601,307.3322 Q5400.4601,304.2072 5401.7726,302.5509 Q5403.1008,300.8947 5405.6008,300.8947 Q5406.3039,300.8947 5406.9445,301.0509 Q5407.6008,301.2072 5408.1633,301.5041 L5408.1633,304.2228 Q5407.5383,303.6447 5406.9445,303.3791 Q5406.3508,303.0978 5405.7258,303.0978 Q5404.382,303.0978 5403.6945,304.1759 Q5403.007,305.2384 5403.007,307.3322 Q5403.007,309.4259 5403.6945,310.5041 Q5404.382,311.5666 5405.7258,311.5666 Q5406.3508,311.5666 5406.9445,311.3009 Q5407.5383,311.0197 5408.1633,310.4416 L5408.1633,313.1603 Z " fill="#000000"/><text fill="#000000" font-family="sans-serif" font-size="12" font-style="italic" lengthAdjust="spacing" textLength="61.0605" x="5454.5344" y="303.5255">&#171;process&#187;</text><text fill="#000000" font-family="sans-serif" font-size="14" lengthAdjust="spacing" textLength="118.7402" x="5425.6945" y="319.3507">PRI_5118_proc_4</text><line style="stroke:#181818;stroke-width:0.5;" x1="5042.82" x2="5894.8093" y1="327.6525" y2="327.6525"/><text fill="#000000" font-family="sans-serif" font-size="14" lengthAdjust="spacing" textLength="317.9668" x="5047.82" y="344.6476">Sperrung und Entsperrung eines Anschlusses</text><text fill="#000000" font-family="sans-serif" font-size="14" lengthAdjust="spacing" textLength="138.3252" x="5047.82" y="360.9445">Gesetze: StromGVV</text><text fill="#000000" font-family="sans-serif" font-size="14" lengthAdjust="spacing" textLength="841.9893" x="5047.82" y="377.2414">Zusammenfassung: Beschreibe den End-to-End-Prozess f&#252;r die Sperrung und Wiederherstellung eines Netzanschlusses.</text><line style="stroke:#181818;stroke-width:0.5;" x1="5042.82" x2="5894.8093" y1="384.5431" y2="384.5431"/></g><!--link PRI_5118 to PRI_5118_msg_1--><g class="link" data-entity-1="PRI_5118" data-entity-2="PRI_5118_msg_1" data-source-line="18" data-uid="lnk4" id="link_PRI_5118_PRI_5118_msg_1"><path codeLine="18" d="M1986.48,124.4369 C1678.53,137.0969 1046.97,173.0169 520.81,267.0769 C514.92,268.1269 514.8669,268.0872 508.8769,269.2672" fill="none" id="PRI_5118-to-PRI_5118_msg_1" style="stroke:#181818;stroke-width:1;"/><polygon fill="#181818" points="502.99,270.4269,512.5934,272.6119,507.8957,269.4605,511.0472,264.7628,502.99,270.4269" style="stroke:#181818;stroke-width:1;"/><text fill="#000000" font-family="sans-serif" font-size="13" lengthAdjust="spacing" textLength="85.2363" x="790.81" y="233.1438">verwendet in</text></g><!--link PRI_5118 to PRI_5118_msg_2--><g class="link" data-entity-1="PRI_5118" data-entity-2="PRI_5118_msg_2" data-source-line="27" data-uid="lnk6" id="link_PRI_5118_PRI_5118_msg_2"><path codeLine="27" d="M1986.27,135.3369 C1762.27,157.6069 1376.91,201.5269 1050.81,267.0769 C1045.2,268.2069 1045.4076,268.1332 1039.6976,269.3532" fill="none" id="PRI_5118-to-PRI_5118_msg_2" style="stroke:#181818;stroke-width:1;"/><polygon fill="#181818" points="1033.83,270.6069,1043.4671,272.6381,1038.7196,269.5622,1041.7956,264.8147,1033.83,270.6069" style="stroke:#181818;stroke-width:1;"/><text fill="#000000" font-family="sans-serif" font-size="13" lengthAdjust="spacing" textLength="85.2363" x="1296.81" y="233.1438">verwendet in</text></g><!--link PRI_5118 to PRI_5118_msg_3--><g class="link" data-entity-1="PRI_5118" data-entity-2="PRI_5118_msg_3" data-source-line="36" data-uid="lnk8" id="link_PRI_5118_PRI_5118_msg_3"><path codeLine="36" d="M1986.51,141.2669 C1824.19,164.1269 1584.24,204.8169 1381.81,267.0769 C1376.29,268.7769 1376.3747,268.6581 1370.7547,270.5881" fill="none" id="PRI_5118-to-PRI_5118_msg_3" style="stroke:#181818;stroke-width:1;"/><polygon fill="#181818" points="1365.08,272.5369,1374.8912,273.3968,1369.8089,270.9129,1372.2929,265.8306,1365.08,272.5369" style="stroke:#181818;stroke-width:1;"/><text fill="#000000" font-family="sans-serif" font-size="13" lengthAdjust="spacing" textLength="85.2363" x="1553.81" y="233.1438">verwendet in</text></g><!--link PRI_5118 to PRI_5118_msg_4--><g class="link" data-entity-1="PRI_5118" data-entity-2="PRI_5118_msg_4" data-source-line="45" data-uid="lnk10" id="link_PRI_5118_PRI_5118_msg_4"><path codeLine="45" d="M2044.47,190.4769 C2000.71,214.9369 1957.0979,239.3203 1913.3379,263.7703" fill="none" id="PRI_5118-to-PRI_5118_msg_4" style="stroke:#181818;stroke-width:1;"/><polygon fill="#181818" points="1908.1,266.6969,1917.9078,265.799,1912.4649,264.2581,1914.0058,258.8151,1908.1,266.6969" style="stroke:#181818;stroke-width:1;"/><text fill="#000000" font-family="sans-serif" font-size="13" lengthAdjust="spacing" textLength="85.2363" x="1989.81" y="233.1438">verwendet in</text></g><!--link PRI_5118 to PRI_5118_proc_1--><g class="link" data-entity-1="PRI_5118" data-entity-2="PRI_5118_proc_1" data-source-line="51" data-uid="lnk12" id="link_PRI_5118_PRI_5118_proc_1"><path codeLine="51" d="M2303.15,190.4769 C2359.51,221.9769 2419.0728,255.2691 2470.5728,284.0591" fill="none" id="PRI_5118-to-PRI_5118_proc_1" style="stroke:#181818;stroke-width:1;stroke-dasharray:7,7;"/><polygon fill="#181818" points="2475.81,286.9869,2469.906,279.1038,2471.4457,284.5471,2466.0024,286.0867,2475.81,286.9869" style="stroke:#181818;stroke-width:1;"/><text fill="#000000" font-family="sans-serif" font-size="13" lengthAdjust="spacing" textLength="91.6221" x="2384.81" y="233.1438">eingebettet in</text></g><!--link PRI_5118 to PRI_5118_proc_2--><g class="link" data-entity-1="PRI_5118" data-entity-2="PRI_5118_proc_2" data-source-line="57" data-uid="lnk14" id="link_PRI_5118_PRI_5118_proc_2"><path codeLine="57" d="M2361.22,153.0269 C2521.15,182.8869 2757.19,227.2569 2962.81,267.0769 C2995.68,273.4369 3024.3232,279.0468 3058.4732,285.7768" fill="none" id="PRI_5118-to-PRI_5118_proc_2" style="stroke:#181818;stroke-width:1;stroke-dasharray:7,7;"/><polygon fill="#181818" points="3064.36,286.9369,3056.3032,281.2722,3059.4544,285.9701,3054.7564,289.1212,3064.36,286.9369" style="stroke:#181818;stroke-width:1;"/><text fill="#000000" font-family="sans-serif" font-size="13" lengthAdjust="spacing" textLength="91.6221" x="2791.81" y="233.1438">eingebettet in</text></g><!--link PRI_5118 to PRI_5118_proc_3--><g class="link" data-entity-1="PRI_5118" data-entity-2="PRI_5118_proc_3" data-source-line="63" data-uid="lnk16" id="link_PRI_5118_PRI_5118_proc_3"><path codeLine="63" d="M2361.21,136.0569 C2647.31,163.4669 3210.14,217.8869 3687.81,267.0769 C3749.02,273.3769 3807.3936,279.5026 3870.9836,286.2626" fill="none" id="PRI_5118-to-PRI_5118_proc_3" style="stroke:#181818;stroke-width:1;stroke-dasharray:7,7;"/><polygon fill="#181818" points="3876.95,286.8969,3868.4233,281.9679,3871.978,286.3683,3867.5776,289.9231,3876.95,286.8969" style="stroke:#181818;stroke-width:1;"/><text fill="#000000" font-family="sans-serif" font-size="13" lengthAdjust="spacing" textLength="91.6221" x="3357.81" y="233.1438">eingebettet in</text></g><!--link PRI_5118 to PRI_5118_proc_4--><g class="link" data-entity-1="PRI_5118" data-entity-2="PRI_5118_proc_4" data-source-line="69" data-uid="lnk18" id="link_PRI_5118_PRI_5118_proc_4"><path codeLine="69" d="M2361.1,120.9769 C2817.62,129.3169 4023.68,160.4769 5023.81,267.0769 C5072.84,272.2969 5118.7473,278.4107 5169.0573,286.0107" fill="none" id="PRI_5118-to-PRI_5118_proc_4" style="stroke:#181818;stroke-width:1;stroke-dasharray:7,7;"/><polygon fill="#181818" points="5174.99,286.9069,5166.6884,281.6074,5170.0461,286.16,5165.4935,289.5177,5174.99,286.9069" style="stroke:#181818;stroke-width:1;"/><text fill="#000000" font-family="sans-serif" font-size="13" lengthAdjust="spacing" textLength="91.6221" x="4716.81" y="233.1438">eingebettet in</text></g><!--SRC=[pPNRRjf048RlynHpsKe6-K2gn8geW5146mu92L5pOnayXbNiDTfTvq3Lj-bZz2ulrbd791o3awjUO7PtzZ3_vt_MYga8uTHNo7qL-H9AqBzekuUMTNGmfhxKNKztuTS1GDUFqOM-G2ODgACI_eH6-oAPevJeKXjeXowgEK_LFEKJwOy4ZgUScdcmGpEbmYX2Fg8D68usvzGncq43W8oZ0ANZJ8wdoE57maCsIOMlMCBXKsTG_vml6ynG2BqevG4qkPABljv4GetJ1b5AYSg3tslgl5XEF2lNE9uADfug5zhTOQ_T0Bjy55203bRuGCDraZzZ66cz_J3ISqEC0XU- -pJII0AKBbY71jZqgtMx1ZHgPmQSrduQqEbHjzUuCFJHo-nsK3Fs0ZjFTMoHhDTfjpoTiFSDfn6AsqG8l5Mfy6pJFZGjnohFWf3qlxpNKgcwZi65EnJto0DKmFWsLFORgChBh0OuYP6JjHwJLFstl3pYfG5Lp2_MyLv0TW50pZeWYZPgbmJ8NFDIJ2-9CdlRJAPfP8GoCEtJZ8O1WvO1Lzq2L9PaF-UHopQ3uggT0gehwwhFhtgNpG5OPSV_i2kEZvSDiV220JUcfH-sVZWh4DvxVnZlkJfUKJwBor1QdkCNHrdPWt8caZ6LuSc9Rf2aQlMPwwvtsq998Sfee4GITvj38s_T32bwaqe_9jmXdQ6D1jSC8KpvhGR0K2W8Q63xvZ2_px7fkAudP2C2gZ6TCGnH-5nzNHPRBbStXBWQumHfkTgjrzxGkw-INsHtvAYrJIZvW9oeCuQ09EG6eRQ0sgl4ExB1bgCYkkKLnP6NtzPd5zFdREZxm6TkHR91JhtUAhmfegS_gKAnAdoUYir3oUfp5kQdxivWX2nR4A-poWnXw7ZsKPJtr21_FVqLUZxHq5CPOLHKIDdQHreTxu7g58DQsO3whafUBPpMS5Z0HKqUb5HIqdyBhfbONKGhXrEPaTEcA5Q0owoI_DSqze2eR83u1m00]--></g></svg>