<svg xmlns="http://www.w3.org/2000/svg" xmlns:xlink="http://www.w3.org/1999/xlink" contentStyleType="text/css" data-diagram-type="CLASS" height="370px" preserveAspectRatio="none" style="width:1189px;height:370px;background:#FFFFFF;" version="1.1" viewBox="0 0 1189 370" width="1189px" zoomAndPan="magnify"><title>Datenatlas - QAL:ZT8</title><defs/><g><g class="title" data-source-line="1"><text fill="#000000" font-family="sans-serif" font-size="14" font-weight="bold" lengthAdjust="spacing" textLength="168.1982" x="503.5101" y="22.9951">Datenatlas - QAL:ZT8</text></g><!--class QAL_ZT8--><g class="entity" data-entity="QAL_ZT8" data-source-line="2" data-uid="ent0002" id="entity_QAL_ZT8"><rect fill="#F1F1F1" height="96.8906" rx="2.5" ry="2.5" style="stroke:#181818;stroke-width:0.5;" width="669.8018" x="355.21" y="44.2969"/><ellipse cx="654.6377" cy="60.2969" fill="#ADD1B2" rx="11" ry="11" style="stroke:#181818;stroke-width:1;"/><path d="M657.6065,65.9375 Q657.0284,66.2344 656.3877,66.375 Q655.7471,66.5313 655.044,66.5313 Q652.544,66.5313 651.2159,64.8906 Q649.9034,63.2344 649.9034,60.1094 Q649.9034,56.9844 651.2159,55.3281 Q652.544,53.6719 655.044,53.6719 Q655.7471,53.6719 656.3877,53.8281 Q657.044,53.9844 657.6065,54.2813 L657.6065,57 Q656.9815,56.4219 656.3877,56.1563 Q655.794,55.875 655.169,55.875 Q653.8252,55.875 653.1377,56.9531 Q652.4502,58.0156 652.4502,60.1094 Q652.4502,62.2031 653.1377,63.2813 Q653.8252,64.3438 655.169,64.3438 Q655.794,64.3438 656.3877,64.0781 Q656.9815,63.7969 657.6065,63.2188 L657.6065,65.9375 Z " fill="#000000"/><text fill="#000000" font-family="sans-serif" font-size="14" lengthAdjust="spacing" textLength="62.4463" x="675.1377" y="65.1436">QAL_ZT8</text><line style="stroke:#181818;stroke-width:0.5;" x1="356.21" x2="1024.0118" y1="76.2969" y2="76.2969"/><text fill="#000000" font-family="sans-serif" font-size="14" lengthAdjust="spacing" textLength="643.8018" x="375.21" y="93.292">Name: Anforderung in die Vergangenheit, zum angeforderten Zeitpunkt liegt kein Wert vor.</text><text fill="#000000" font-family="sans-serif" font-size="14" lengthAdjust="spacing" textLength="66.6436" x="375.21" y="109.5889">Prozesse:</text><rect fill="none" height="6" style="stroke:#C82930;stroke-width:1;" width="6" x="363.21" y="119.5391"/><text fill="#000000" font-family="sans-serif" font-size="14" lengthAdjust="spacing" textLength="334.3525" x="375.21" y="125.8857">Anforderung und &#220;bermittlung von Messwerten</text><line style="stroke:#181818;stroke-width:0.5;" x1="356.21" x2="1024.0118" y1="133.1875" y2="133.1875"/></g><!--class QAL_ZT8_msg_1--><g class="entity" data-entity="QAL_ZT8_msg_1" data-source-line="7" data-uid="ent0003" id="entity_QAL_ZT8_msg_1"><rect fill="#F1F1F1" height="145.7813" rx="2.5" ry="2.5" style="stroke:#181818;stroke-width:0.5;" width="762.2168" x="7" y="218.1869"/><ellipse cx="326.2725" cy="234.1869" fill="#ADD1B2" rx="11" ry="11" style="stroke:#181818;stroke-width:1;"/><path d="M329.2412,239.8275 Q328.6631,240.1244 328.0225,240.265 Q327.3818,240.4213 326.6787,240.4213 Q324.1787,240.4213 322.8506,238.7806 Q321.5381,237.1244 321.5381,233.9994 Q321.5381,230.8744 322.8506,229.2181 Q324.1787,227.5619 326.6787,227.5619 Q327.3818,227.5619 328.0225,227.7181 Q328.6787,227.8744 329.2412,228.1713 L329.2412,230.89 Q328.6162,230.3119 328.0225,230.0463 Q327.4287,229.765 326.8037,229.765 Q325.46,229.765 324.7725,230.8431 Q324.085,231.9056 324.085,233.9994 Q324.085,236.0931 324.7725,237.1713 Q325.46,238.2338 326.8037,238.2338 Q327.4287,238.2338 328.0225,237.9681 Q328.6162,237.6869 329.2412,237.1088 L329.2412,239.8275 Z " fill="#000000"/><text fill="#000000" font-family="sans-serif" font-size="14" lengthAdjust="spacing" textLength="115.1719" x="346.7725" y="239.0336">QAL_ZT8_msg_1</text><line style="stroke:#181818;stroke-width:0.5;" x1="8" x2="768.2168" y1="250.1869" y2="250.1869"/><text fill="#000000" font-family="sans-serif" font-size="14" lengthAdjust="spacing" textLength="172.0264" x="13" y="267.182">Nachricht: MSCONS 2.4c</text><text fill="#000000" font-family="sans-serif" font-size="14" lengthAdjust="spacing" textLength="436.7549" x="13" y="283.4789">Kontext: Messger&#228;ten stehen keine Messwerte zur Verf&#252;gung.</text><text fill="#000000" font-family="sans-serif" font-size="14" lengthAdjust="spacing" textLength="110.5439" x="13" y="299.7757">Pflichtfeld: Nein</text><text fill="#000000" font-family="sans-serif" font-size="14" lengthAdjust="spacing" textLength="750.2168" x="13" y="316.0726">Codes: MSB, OCR, ZA0, ZA1, ZA3, ZA4, ZA5, ZA6, ZA7, ZB0, ZB9, ZC2, ZC4, ZR1, ZR2, ZR3, ZR4, ZS9, ZT8</text><text fill="#000000" font-family="sans-serif" font-size="14" lengthAdjust="spacing" textLength="405.4463" x="13" y="332.3695">Prozesse: Anforderung und &#220;bermittlung von Messwerten</text><text fill="#000000" font-family="sans-serif" font-size="14" lengthAdjust="spacing" textLength="294.1641" x="13" y="348.6664">Quelle: MSCONS_MIG_2_4c_20231024.pdf</text><line style="stroke:#181818;stroke-width:0.5;" x1="8" x2="768.2168" y1="355.9681" y2="355.9681"/></g><!--class QAL_ZT8_proc_1--><g class="entity" data-entity="QAL_ZT8_proc_1" data-source-line="16" data-uid="ent0005" id="entity_QAL_ZT8_proc_1"><rect fill="#F1F1F1" height="105.1563" rx="2.5" ry="2.5" style="stroke:#181818;stroke-width:0.5;" width="378.2285" x="803.99" y="238.4969"/><ellipse cx="930.7249" cy="258.6297" fill="#ADD1B2" rx="11" ry="11" style="stroke:#181818;stroke-width:1;"/><path d="M933.6936,264.2703 Q933.1155,264.5672 932.4749,264.7078 Q931.8342,264.8641 931.1311,264.8641 Q928.6311,264.8641 927.303,263.2234 Q925.9905,261.5672 925.9905,258.4422 Q925.9905,255.3172 927.303,253.6609 Q928.6311,252.0047 931.1311,252.0047 Q931.8342,252.0047 932.4749,252.1609 Q933.1311,252.3172 933.6936,252.6141 L933.6936,255.3328 Q933.0686,254.7547 932.4749,254.4891 Q931.8811,254.2078 931.2561,254.2078 Q929.9124,254.2078 929.2249,255.2859 Q928.5374,256.3484 928.5374,258.4422 Q928.5374,260.5359 929.2249,261.6141 Q929.9124,262.6766 931.2561,262.6766 Q931.8811,262.6766 932.4749,262.4109 Q933.0686,262.1297 933.6936,261.5516 L933.6936,264.2703 Z " fill="#000000"/><text fill="#000000" font-family="sans-serif" font-size="12" font-style="italic" lengthAdjust="spacing" textLength="61.0605" x="978.824" y="254.6355">&#171;process&#187;</text><text fill="#000000" font-family="sans-serif" font-size="14" lengthAdjust="spacing" textLength="116.2588" x="951.2249" y="270.4607">QAL_ZT8_proc_1</text><line style="stroke:#181818;stroke-width:0.5;" x1="804.99" x2="1181.2185" y1="278.7625" y2="278.7625"/><text fill="#000000" font-family="sans-serif" font-size="14" lengthAdjust="spacing" textLength="334.3525" x="809.99" y="295.7576">Anforderung und &#220;bermittlung von Messwerten</text><text fill="#000000" font-family="sans-serif" font-size="14" lengthAdjust="spacing" textLength="105.0957" x="809.99" y="312.0545">Gesetze: MsbG</text><line style="stroke:#181818;stroke-width:0.5;" x1="804.99" x2="1181.2185" y1="319.3563" y2="319.3563"/><text fill="#000000" font-family="sans-serif" font-size="14" lengthAdjust="spacing" textLength="366.2285" x="809.99" y="336.3514">Zusammenfassung: Wie kann ein Marktpartner (z.B.</text></g><!--link QAL_ZT8 to QAL_ZT8_msg_1--><g class="link" data-entity-1="QAL_ZT8" data-entity-2="QAL_ZT8_msg_1" data-source-line="15" data-uid="lnk4" id="link_QAL_ZT8_QAL_ZT8_msg_1"><path codeLine="15" d="M616.62,141.5169 C581.35,164.4469 543.3705,189.1367 504.2205,214.5867" fill="none" id="QAL_ZT8-to-QAL_ZT8_msg_1" style="stroke:#181818;stroke-width:1;"/><polygon fill="#181818" points="499.19,217.8569,508.9159,216.3053,503.3821,215.1317,504.5557,209.598,499.19,217.8569" style="stroke:#181818;stroke-width:1;"/><text fill="#000000" font-family="sans-serif" font-size="13" lengthAdjust="spacing" textLength="85.2363" x="568.11" y="184.2538">verwendet in</text></g><!--link QAL_ZT8 to QAL_ZT8_proc_1--><g class="link" data-entity-1="QAL_ZT8" data-entity-2="QAL_ZT8_proc_1" data-source-line="21" data-uid="lnk6" id="link_QAL_ZT8_QAL_ZT8_proc_1"><path codeLine="21" d="M763.84,141.5169 C808.95,170.7469 861.6451,204.8835 907.8851,234.8535" fill="none" id="QAL_ZT8-to-QAL_ZT8_proc_1" style="stroke:#181818;stroke-width:1;stroke-dasharray:7,7;"/><polygon fill="#181818" points="912.92,238.1169,907.5432,229.8652,908.7242,235.3974,903.192,236.5785,912.92,238.1169" style="stroke:#181818;stroke-width:1;"/><text fill="#000000" font-family="sans-serif" font-size="13" lengthAdjust="spacing" textLength="91.6221" x="834.11" y="184.2538">eingebettet in</text></g><!--SRC=[bLBDJi904Bxp57Fq00qK_6i82M12Z09QZ2HScgMTbePsItQdO32-YKSVmnilvWngH6vSljsP_MRccvcbb3A46qMe5MNAGWqUk_VUxEcg4h9fnGhOWjSAm4Zbw45NnuM9q9GwWLH3b28yeqcKJb0lCAKgRCiSnFpcSMgOiNzLwYL1bc92i4IEdF8Rh0lZSEe7KspHMlJu3YpYi4Yf8zYzpz7aAL4cddMXOSZqpJvxvUs_rY2tIT3uKHmkJ1eko8FXf3yUJS1rMY4_t1MQy4NSd2P1i_iGcPPmmOUemxy2t8-H5kFTPyBLztBZJBB6c4KUZ9ZElduHePKwlIgC-tuLPjswG4EWAT0IE1Uu4BXaw0cbTytGTmM4uak4BwOlORxu9aBXfHnCwhGP0JoMc6NuEuXWU3i8tA0L1cxTRJRgRijPHJ6FydVXjLhdQA0UhD5iK4T8lFYZcQzC4JAdtPOBb-rqzWiuKUC0BT9MHDhvWErPQLMUeuwv50TuCENVjbHQWtoWeJ9BMYb36WsSRPsUSw3VSJh7uZo9Id2EHFiMlW00]--></g></svg>