<svg xmlns="http://www.w3.org/2000/svg" xmlns:xlink="http://www.w3.org/1999/xlink" contentStyleType="text/css" data-diagram-type="CLASS" height="370px" preserveAspectRatio="none" style="width:1150px;height:370px;background:#FFFFFF;" version="1.1" viewBox="0 0 1150 370" width="1150px" zoomAndPan="magnify"><title>Datenatlas - QAL:C553</title><defs/><g><g class="title" data-source-line="1"><text fill="#000000" font-family="sans-serif" font-size="14" font-weight="bold" lengthAdjust="spacing" textLength="178.2539" x="479.2073" y="22.9951">Datenatlas - QAL:C553</text></g><!--class QAL_C553--><g class="entity" data-entity="QAL_C553" data-source-line="2" data-uid="ent0002" id="entity_QAL_C553"><rect fill="#F1F1F1" height="96.8906" rx="2.5" ry="2.5" style="stroke:#181818;stroke-width:0.5;" width="360.3525" x="481.37" y="44.2969"/><ellipse cx="621.3495" cy="60.2969" fill="#ADD1B2" rx="11" ry="11" style="stroke:#181818;stroke-width:1;"/><path d="M624.3182,65.9375 Q623.7401,66.2344 623.0995,66.375 Q622.4589,66.5313 621.7557,66.5313 Q619.2557,66.5313 617.9276,64.8906 Q616.6151,63.2344 616.6151,60.1094 Q616.6151,56.9844 617.9276,55.3281 Q619.2557,53.6719 621.7557,53.6719 Q622.4589,53.6719 623.0995,53.8281 Q623.7557,53.9844 624.3182,54.2813 L624.3182,57 Q623.6932,56.4219 623.0995,56.1563 Q622.5057,55.875 621.8807,55.875 Q620.537,55.875 619.8495,56.9531 Q619.162,58.0156 619.162,60.1094 Q619.162,62.2031 619.8495,63.2813 Q620.537,64.3438 621.8807,64.3438 Q622.5057,64.3438 623.0995,64.0781 Q623.6932,63.7969 624.3182,63.2188 L624.3182,65.9375 Z " fill="#000000"/><text fill="#000000" font-family="sans-serif" font-size="14" lengthAdjust="spacing" textLength="71.8936" x="641.8495" y="65.1436">QAL_C553</text><line style="stroke:#181818;stroke-width:0.5;" x1="482.37" x2="840.7225" y1="76.2969" y2="76.2969"/><text fill="#000000" font-family="sans-serif" font-size="14" lengthAdjust="spacing" textLength="158.3545" x="501.37" y="93.292">Name: QUALIFIKATION</text><text fill="#000000" font-family="sans-serif" font-size="14" lengthAdjust="spacing" textLength="66.6436" x="501.37" y="109.5889">Prozesse:</text><rect fill="none" height="6" style="stroke:#C82930;stroke-width:1;" width="6" x="489.37" y="119.5391"/><text fill="#000000" font-family="sans-serif" font-size="14" lengthAdjust="spacing" textLength="334.3525" x="501.37" y="125.8857">Anforderung und &#220;bermittlung von Messwerten</text><line style="stroke:#181818;stroke-width:0.5;" x1="482.37" x2="840.7225" y1="133.1875" y2="133.1875"/></g><!--class QAL_C553_msg_1--><g class="entity" data-entity="QAL_C553_msg_1" data-source-line="7" data-uid="ent0003" id="entity_QAL_C553_msg_1"><rect fill="#F1F1F1" height="145.7813" rx="2.5" ry="2.5" style="stroke:#181818;stroke-width:0.5;" width="723.1016" x="7" y="218.1869"/><ellipse cx="301.9912" cy="234.1869" fill="#ADD1B2" rx="11" ry="11" style="stroke:#181818;stroke-width:1;"/><path d="M304.96,239.8275 Q304.3818,240.1244 303.7412,240.265 Q303.1006,240.4213 302.3975,240.4213 Q299.8975,240.4213 298.5693,238.7806 Q297.2568,237.1244 297.2568,233.9994 Q297.2568,230.8744 298.5693,229.2181 Q299.8975,227.5619 302.3975,227.5619 Q303.1006,227.5619 303.7412,227.7181 Q304.3975,227.8744 304.96,228.1713 L304.96,230.89 Q304.335,230.3119 303.7412,230.0463 Q303.1475,229.765 302.5225,229.765 Q301.1787,229.765 300.4912,230.8431 Q299.8037,231.9056 299.8037,233.9994 Q299.8037,236.0931 300.4912,237.1713 Q301.1787,238.2338 302.5225,238.2338 Q303.1475,238.2338 303.7412,237.9681 Q304.335,237.6869 304.96,237.1088 L304.96,239.8275 Z " fill="#000000"/><text fill="#000000" font-family="sans-serif" font-size="14" lengthAdjust="spacing" textLength="124.6191" x="322.4912" y="239.0336">QAL_C553_msg_1</text><line style="stroke:#181818;stroke-width:0.5;" x1="8" x2="729.1016" y1="250.1869" y2="250.1869"/><text fill="#000000" font-family="sans-serif" font-size="14" lengthAdjust="spacing" textLength="172.0264" x="13" y="267.182">Nachricht: MSCONS 2.4c</text><text fill="#000000" font-family="sans-serif" font-size="14" lengthAdjust="spacing" textLength="346.9922" x="13" y="283.4789">Kontext: relevante Faktoren sind nicht verf&#252;gbar.</text><text fill="#000000" font-family="sans-serif" font-size="14" lengthAdjust="spacing" textLength="91.4033" x="13" y="299.7757">Pflichtfeld: Ja</text><text fill="#000000" font-family="sans-serif" font-size="14" lengthAdjust="spacing" textLength="711.1016" x="13" y="316.0726">Codes: OCR, Z99, ZA0, ZA1, ZA3, ZA4, ZA5, ZA6, ZA7, ZB0, ZB9, ZC2, ZC4, ZR1, ZR2, ZR3, ZR4, ZS9</text><text fill="#000000" font-family="sans-serif" font-size="14" lengthAdjust="spacing" textLength="405.4463" x="13" y="332.3695">Prozesse: Anforderung und &#220;bermittlung von Messwerten</text><text fill="#000000" font-family="sans-serif" font-size="14" lengthAdjust="spacing" textLength="420.9502" x="13" y="348.6664">Quelle: MSCONS_MIG_2_4c_au&#223;erordentliche_20240726.pdf</text><line style="stroke:#181818;stroke-width:0.5;" x1="8" x2="729.1016" y1="355.9681" y2="355.9681"/></g><!--class QAL_C553_proc_1--><g class="entity" data-entity="QAL_C553_proc_1" data-source-line="16" data-uid="ent0005" id="entity_QAL_C553_proc_1"><rect fill="#F1F1F1" height="105.1563" rx="2.5" ry="2.5" style="stroke:#181818;stroke-width:0.5;" width="378.2285" x="765.44" y="238.4969"/><ellipse cx="887.4512" cy="258.6297" fill="#ADD1B2" rx="11" ry="11" style="stroke:#181818;stroke-width:1;"/><path d="M890.42,264.2703 Q889.8419,264.5672 889.2012,264.7078 Q888.5606,264.8641 887.8575,264.8641 Q885.3575,264.8641 884.0294,263.2234 Q882.7169,261.5672 882.7169,258.4422 Q882.7169,255.3172 884.0294,253.6609 Q885.3575,252.0047 887.8575,252.0047 Q888.5606,252.0047 889.2012,252.1609 Q889.8575,252.3172 890.42,252.6141 L890.42,255.3328 Q889.795,254.7547 889.2012,254.4891 Q888.6075,254.2078 887.9825,254.2078 Q886.6387,254.2078 885.9512,255.2859 Q885.2637,256.3484 885.2637,258.4422 Q885.2637,260.5359 885.9512,261.6141 Q886.6387,262.6766 887.9825,262.6766 Q888.6075,262.6766 889.2012,262.4109 Q889.795,262.1297 890.42,261.5516 L890.42,264.2703 Z " fill="#000000"/><text fill="#000000" font-family="sans-serif" font-size="12" font-style="italic" lengthAdjust="spacing" textLength="61.0605" x="940.274" y="254.6355">&#171;process&#187;</text><text fill="#000000" font-family="sans-serif" font-size="14" lengthAdjust="spacing" textLength="125.7061" x="907.9512" y="270.4607">QAL_C553_proc_1</text><line style="stroke:#181818;stroke-width:0.5;" x1="766.44" x2="1142.6685" y1="278.7625" y2="278.7625"/><text fill="#000000" font-family="sans-serif" font-size="14" lengthAdjust="spacing" textLength="334.3525" x="771.44" y="295.7576">Anforderung und &#220;bermittlung von Messwerten</text><text fill="#000000" font-family="sans-serif" font-size="14" lengthAdjust="spacing" textLength="105.0957" x="771.44" y="312.0545">Gesetze: MsbG</text><line style="stroke:#181818;stroke-width:0.5;" x1="766.44" x2="1142.6685" y1="319.3563" y2="319.3563"/><text fill="#000000" font-family="sans-serif" font-size="14" lengthAdjust="spacing" textLength="366.2285" x="771.44" y="336.3514">Zusammenfassung: Wie kann ein Marktpartner (z.B.</text></g><!--link QAL_C553 to QAL_C553_msg_1--><g class="link" data-entity-1="QAL_C553" data-entity-2="QAL_C553_msg_1" data-source-line="15" data-uid="lnk4" id="link_QAL_C553_QAL_C553_msg_1"><path codeLine="15" d="M590.25,141.5169 C556.03,164.4469 519.2948,189.0675 481.3048,214.5175" fill="none" id="QAL_C553-to-QAL_C553_msg_1" style="stroke:#181818;stroke-width:1;"/><polygon fill="#181818" points="476.32,217.8569,486.0235,216.171,480.474,215.074,481.571,209.5246,476.32,217.8569" style="stroke:#181818;stroke-width:1;"/><text fill="#000000" font-family="sans-serif" font-size="13" lengthAdjust="spacing" textLength="85.2363" x="542.55" y="184.2538">verwendet in</text></g><!--link QAL_C553 to QAL_C553_proc_1--><g class="link" data-entity-1="QAL_C553" data-entity-2="QAL_C553_proc_1" data-source-line="21" data-uid="lnk6" id="link_QAL_C553_QAL_C553_proc_1"><path codeLine="21" d="M732.85,141.5169 C776.47,170.7469 827.3058,204.8066 872.0258,234.7766" fill="none" id="QAL_C553-to-QAL_C553_proc_1" style="stroke:#181818;stroke-width:1;stroke-dasharray:7,7;"/><polygon fill="#181818" points="877.01,238.1169,871.7605,229.7836,872.8565,235.3333,867.3068,236.4293,877.01,238.1169" style="stroke:#181818;stroke-width:1;"/><text fill="#000000" font-family="sans-serif" font-size="13" lengthAdjust="spacing" textLength="91.6221" x="800.55" y="184.2538">eingebettet in</text></g><!--SRC=[bL71Ji904Btp5NFq80tKWc5ZI4gD116GeZ7XqYpjj3QqMxAxHOFnJqpy4M_yc3D63S6JbvTzR-VjpBorkIqGBgL59MqX3JHXxj-8eDCvQyJ43TE8ARmq0AQoH07pU_zcT3KQ-tUZsPJKMrtjq1WKT0PwmLTffHFKjSgWLWditrQeozpQWfLjfM12vK-egMlZzQXFL9eiQdztYnzr7ZzQ0PD5C9ikm7Myc2x6bRBuJBB60hUI25p9jQqqAZ0vTLJiWYtgTF-HhQHsUCgqO3N58X5mBKa9gWIDW5aGdiAoroFmMmnjXZC6Zw73q6Ku9nXmoO2B0vU1Iq9sX4n3jeMiBNg7oVml4u1vZKM1Ftj7az4mSYClZcIzVqVDBodBws3ajbolTUvsdKsIKfY_tzLizeyp5Pp84we4BUJgEFUDhc8gkhZW0ytIxtzzmZy77w91k-F9pMf8V5aRMPQeKkf51W4FES9QAWMOarNgjTr8RHLgEDav0-Tm1SVf_nbFi2_35LhxjSKd]--></g></svg>