<svg xmlns="http://www.w3.org/2000/svg" xmlns:xlink="http://www.w3.org/1999/xlink" contentStyleType="text/css" data-diagram-type="CLASS" height="370px" preserveAspectRatio="none" style="width:1181px;height:370px;background:#FFFFFF;" version="1.1" viewBox="0 0 1181 370" width="1181px" zoomAndPan="magnify"><title>Datenatlas - QAL:3055</title><defs/><g><g class="title" data-source-line="1"><text fill="#000000" font-family="sans-serif" font-size="14" font-weight="bold" lengthAdjust="spacing" textLength="177.7207" x="494.7789" y="22.9951">Datenatlas - QAL:3055</text></g><!--class QAL_3055--><g class="entity" data-entity="QAL_3055" data-source-line="2" data-uid="ent0002" id="entity_QAL_3055"><rect fill="#F1F1F1" height="96.8906" rx="2.5" ry="2.5" style="stroke:#181818;stroke-width:0.5;" width="360.3525" x="503.99" y="44.2969"/><ellipse cx="644.4036" cy="60.2969" fill="#ADD1B2" rx="11" ry="11" style="stroke:#181818;stroke-width:1;"/><path d="M647.3723,65.9375 Q646.7942,66.2344 646.1536,66.375 Q645.5129,66.5313 644.8098,66.5313 Q642.3098,66.5313 640.9817,64.8906 Q639.6692,63.2344 639.6692,60.1094 Q639.6692,56.9844 640.9817,55.3281 Q642.3098,53.6719 644.8098,53.6719 Q645.5129,53.6719 646.1536,53.8281 Q646.8098,53.9844 647.3723,54.2813 L647.3723,57 Q646.7473,56.4219 646.1536,56.1563 Q645.5598,55.875 644.9348,55.875 Q643.5911,55.875 642.9036,56.9531 Q642.2161,58.0156 642.2161,60.1094 Q642.2161,62.2031 642.9036,63.2813 Q643.5911,64.3438 644.9348,64.3438 Q645.5598,64.3438 646.1536,64.0781 Q646.7473,63.7969 647.3723,63.2188 L647.3723,65.9375 Z " fill="#000000"/><text fill="#000000" font-family="sans-serif" font-size="14" lengthAdjust="spacing" textLength="71.0254" x="664.9036" y="65.1436">QAL_3055</text><line style="stroke:#181818;stroke-width:0.5;" x1="504.99" x2="863.3425" y1="76.2969" y2="76.2969"/><text fill="#000000" font-family="sans-serif" font-size="14" lengthAdjust="spacing" textLength="289.9326" x="523.99" y="93.292">Name: Code list responsible agency code</text><text fill="#000000" font-family="sans-serif" font-size="14" lengthAdjust="spacing" textLength="66.6436" x="523.99" y="109.5889">Prozesse:</text><rect fill="none" height="6" style="stroke:#C82930;stroke-width:1;" width="6" x="511.99" y="119.5391"/><text fill="#000000" font-family="sans-serif" font-size="14" lengthAdjust="spacing" textLength="334.3525" x="523.99" y="125.8857">Anforderung und &#220;bermittlung von Messwerten</text><line style="stroke:#181818;stroke-width:0.5;" x1="504.99" x2="863.3425" y1="133.1875" y2="133.1875"/></g><!--class QAL_3055_msg_1--><g class="entity" data-entity="QAL_3055_msg_1" data-source-line="7" data-uid="ent0003" id="entity_QAL_3055_msg_1"><rect fill="#F1F1F1" height="145.7813" rx="2.5" ry="2.5" style="stroke:#181818;stroke-width:0.5;" width="754.3281" x="7" y="218.1869"/><ellipse cx="318.0386" cy="234.1869" fill="#ADD1B2" rx="11" ry="11" style="stroke:#181818;stroke-width:1;"/><path d="M321.0073,239.8275 Q320.4292,240.1244 319.7886,240.265 Q319.1479,240.4213 318.4448,240.4213 Q315.9448,240.4213 314.6167,238.7806 Q313.3042,237.1244 313.3042,233.9994 Q313.3042,230.8744 314.6167,229.2181 Q315.9448,227.5619 318.4448,227.5619 Q319.1479,227.5619 319.7886,227.7181 Q320.4448,227.8744 321.0073,228.1713 L321.0073,230.89 Q320.3823,230.3119 319.7886,230.0463 Q319.1948,229.765 318.5698,229.765 Q317.2261,229.765 316.5386,230.8431 Q315.8511,231.9056 315.8511,233.9994 Q315.8511,236.0931 316.5386,237.1713 Q317.2261,238.2338 318.5698,238.2338 Q319.1948,238.2338 319.7886,237.9681 Q320.3823,237.6869 321.0073,237.1088 L321.0073,239.8275 Z " fill="#000000"/><text fill="#000000" font-family="sans-serif" font-size="14" lengthAdjust="spacing" textLength="123.751" x="338.5386" y="239.0336">QAL_3055_msg_1</text><line style="stroke:#181818;stroke-width:0.5;" x1="8" x2="760.3281" y1="250.1869" y2="250.1869"/><text fill="#000000" font-family="sans-serif" font-size="14" lengthAdjust="spacing" textLength="172.0264" x="13" y="267.182">Nachricht: MSCONS 2.4c</text><text fill="#000000" font-family="sans-serif" font-size="14" lengthAdjust="spacing" textLength="110.5439" x="13" y="283.4789">Pflichtfeld: Nein</text><text fill="#000000" font-family="sans-serif" font-size="14" lengthAdjust="spacing" textLength="742.3281" x="13" y="299.7757">Codes: MU, OCR, Z99, ZA0, ZA1, ZA3, ZA4, ZA5, ZA6, ZA7, ZB0, ZB9, ZC2, ZC4, ZR1, ZR2, ZR3, ZR4, ZS9</text><text fill="#000000" font-family="sans-serif" font-size="14" lengthAdjust="spacing" textLength="405.4463" x="13" y="316.0726">Prozesse: Anforderung und &#220;bermittlung von Messwerten</text><text fill="#000000" font-family="sans-serif" font-size="14" lengthAdjust="spacing" textLength="420.9502" x="13" y="332.3695">Quelle: MSCONS_MIG_2_4c_au&#223;erordentliche_20240726.pdf</text><line style="stroke:#181818;stroke-width:0.5;" x1="8" x2="760.3281" y1="339.6713" y2="339.6713"/><text fill="#000000" font-family="sans-serif" font-size="14" lengthAdjust="spacing" textLength="194.4619" x="13" y="356.6664">Kontext: Synchronpr&#252;fung).</text></g><!--class QAL_3055_proc_1--><g class="entity" data-entity="QAL_3055_proc_1" data-source-line="16" data-uid="ent0005" id="entity_QAL_3055_proc_1"><rect fill="#F1F1F1" height="105.1563" rx="2.5" ry="2.5" style="stroke:#181818;stroke-width:0.5;" width="378.2285" x="796.05" y="238.4969"/><ellipse cx="918.4953" cy="258.6297" fill="#ADD1B2" rx="11" ry="11" style="stroke:#181818;stroke-width:1;"/><path d="M921.4641,264.2703 Q920.8859,264.5672 920.2453,264.7078 Q919.6047,264.8641 918.9016,264.8641 Q916.4016,264.8641 915.0734,263.2234 Q913.7609,261.5672 913.7609,258.4422 Q913.7609,255.3172 915.0734,253.6609 Q916.4016,252.0047 918.9016,252.0047 Q919.6047,252.0047 920.2453,252.1609 Q920.9016,252.3172 921.4641,252.6141 L921.4641,255.3328 Q920.8391,254.7547 920.2453,254.4891 Q919.6516,254.2078 919.0266,254.2078 Q917.6828,254.2078 916.9953,255.2859 Q916.3078,256.3484 916.3078,258.4422 Q916.3078,260.5359 916.9953,261.6141 Q917.6828,262.6766 919.0266,262.6766 Q919.6516,262.6766 920.2453,262.4109 Q920.8391,262.1297 921.4641,261.5516 L921.4641,264.2703 Z " fill="#000000"/><text fill="#000000" font-family="sans-serif" font-size="12" font-style="italic" lengthAdjust="spacing" textLength="61.0605" x="970.884" y="254.6355">&#171;process&#187;</text><text fill="#000000" font-family="sans-serif" font-size="14" lengthAdjust="spacing" textLength="124.8379" x="938.9953" y="270.4607">QAL_3055_proc_1</text><line style="stroke:#181818;stroke-width:0.5;" x1="797.05" x2="1173.2785" y1="278.7625" y2="278.7625"/><text fill="#000000" font-family="sans-serif" font-size="14" lengthAdjust="spacing" textLength="334.3525" x="802.05" y="295.7576">Anforderung und &#220;bermittlung von Messwerten</text><text fill="#000000" font-family="sans-serif" font-size="14" lengthAdjust="spacing" textLength="105.0957" x="802.05" y="312.0545">Gesetze: MsbG</text><line style="stroke:#181818;stroke-width:0.5;" x1="797.05" x2="1173.2785" y1="319.3563" y2="319.3563"/><text fill="#000000" font-family="sans-serif" font-size="14" lengthAdjust="spacing" textLength="366.2285" x="802.05" y="336.3514">Zusammenfassung: Wie kann ein Marktpartner (z.B.</text></g><!--link QAL_3055 to QAL_3055_msg_1--><g class="link" data-entity-1="QAL_3055" data-entity-2="QAL_3055_msg_1" data-source-line="15" data-uid="lnk4" id="link_QAL_3055_QAL_3055_msg_1"><path codeLine="15" d="M611.16,141.5169 C576.12,164.4469 538.4205,189.1214 499.5305,214.5714" fill="none" id="QAL_3055-to-QAL_3055_msg_1" style="stroke:#181818;stroke-width:1;"/><polygon fill="#181818" points="494.51,217.8569,504.2311,216.2757,498.6938,215.119,499.8505,209.5816,494.51,217.8569" style="stroke:#181818;stroke-width:1;"/><text fill="#000000" font-family="sans-serif" font-size="13" lengthAdjust="spacing" textLength="85.2363" x="562.16" y="184.2538">verwendet in</text></g><!--link QAL_3055 to QAL_3055_proc_1--><g class="link" data-entity-1="QAL_3055" data-entity-2="QAL_3055_proc_1" data-source-line="21" data-uid="lnk6" id="link_QAL_3055_QAL_3055_proc_1"><path codeLine="21" d="M757.41,141.5169 C802.22,170.7469 854.5451,204.8681 900.4751,234.8381" fill="none" id="QAL_3055-to-QAL_3055_proc_1" style="stroke:#181818;stroke-width:1;stroke-dasharray:7,7;"/><polygon fill="#181818" points="905.5,238.1169,900.1486,229.8487,901.3126,235.3845,895.7768,236.5486,905.5,238.1169" style="stroke:#181818;stroke-width:1;"/><text fill="#000000" font-family="sans-serif" font-size="13" lengthAdjust="spacing" textLength="91.6221" x="827.16" y="184.2538">eingebettet in</text></g><!--SRC=[bL5DQy904BtxA-ROGWqQFuf11BKWfLLhf1IyX3MPQ6Wo2RiRRItz9uN-aTxyOvsHjeWzUNdipBvv- -QjJMoASACiahAfCb25MV_UQzHQhKh8jP4oa1BUAW0JbQ47mpn2I1DZGQCfSZB9aaNK2YbyXP0lcVcWynqQWnwVWLNx5ESwGbtI2agAOF-nH9qbrgRIsUG4OwPlKREJoll9sq5cLa7znq6uracujXwCvyFfP0wkqmpvuYudYo_SdhyIKt8gzFuhPl5BH-p4gGp5c4OUJ30XxiaQXcKUhs0wzAzWqUamz6i2TO66G5EW9T0Mk6OO26KWvA4h81HV9dmfVHdpfJVl70TnNWG0inBJ57_N3CQtey0Dcc6WolqdQb4YAqjXuDRSPktQRJj557DsVpzMhVPE8_HWWtgB5A453k4avaBd8PEwNJcmbrxlaFcPnaTeqEx4kLcEk5wKHcKPKinlyO07Jmd2io82_WSOA_ri2wKjeOQBdJDmZbTmdDu_UvxChN29rXws-0O0]--></g></svg>