<svg xmlns="http://www.w3.org/2000/svg" xmlns:xlink="http://www.w3.org/1999/xlink" contentStyleType="text/css" data-diagram-type="CLASS" height="370px" preserveAspectRatio="none" style="width:860px;height:370px;background:#FFFFFF;" version="1.1" viewBox="0 0 860 370" width="860px" zoomAndPan="magnify"><title>Datenatlas - QTY:00028</title><defs/><g><g class="title" data-source-line="1"><text fill="#000000" font-family="sans-serif" font-size="14" font-weight="bold" lengthAdjust="spacing" textLength="187.3936" x="329.5975" y="22.9951">Datenatlas - QTY:00028</text></g><!--class QTY_00028--><g class="entity" data-entity="QTY_00028" data-source-line="2" data-uid="ent0002" id="entity_QTY_00028"><rect fill="#F1F1F1" height="96.8906" rx="2.5" ry="2.5" style="stroke:#181818;stroke-width:0.5;" width="360.3525" x="263.3" y="44.2969"/><ellipse cx="399.3967" cy="60.2969" fill="#ADD1B2" rx="11" ry="11" style="stroke:#181818;stroke-width:1;"/><path d="M402.3654,65.9375 Q401.7873,66.2344 401.1467,66.375 Q400.5061,66.5313 399.8029,66.5313 Q397.3029,66.5313 395.9748,64.8906 Q394.6623,63.2344 394.6623,60.1094 Q394.6623,56.9844 395.9748,55.3281 Q397.3029,53.6719 399.8029,53.6719 Q400.5061,53.6719 401.1467,53.8281 Q401.8029,53.9844 402.3654,54.2813 L402.3654,57 Q401.7404,56.4219 401.1467,56.1563 Q400.5529,55.875 399.9279,55.875 Q398.5842,55.875 397.8967,56.9531 Q397.2092,58.0156 397.2092,60.1094 Q397.2092,62.2031 397.8967,63.2813 Q398.5842,64.3438 399.9279,64.3438 Q400.5529,64.3438 401.1467,64.0781 Q401.7404,63.7969 402.3654,63.2188 L402.3654,65.9375 Z " fill="#000000"/><text fill="#000000" font-family="sans-serif" font-size="14" lengthAdjust="spacing" textLength="79.6592" x="419.8967" y="65.1436">QTY_00028</text><line style="stroke:#181818;stroke-width:0.5;" x1="264.3" x2="622.6525" y1="76.2969" y2="76.2969"/><text fill="#000000" font-family="sans-serif" font-size="14" lengthAdjust="spacing" textLength="167.6992" x="283.3" y="93.292">Name: Mengenangaben</text><text fill="#000000" font-family="sans-serif" font-size="14" lengthAdjust="spacing" textLength="66.6436" x="283.3" y="109.5889">Prozesse:</text><rect fill="none" height="6" style="stroke:#C82930;stroke-width:1;" width="6" x="271.3" y="119.5391"/><text fill="#000000" font-family="sans-serif" font-size="14" lengthAdjust="spacing" textLength="334.3525" x="283.3" y="125.8857">Anforderung und &#220;bermittlung von Messwerten</text><line style="stroke:#181818;stroke-width:0.5;" x1="264.3" x2="622.6525" y1="133.1875" y2="133.1875"/></g><!--class QTY_00028_msg_1--><g class="entity" data-entity="QTY_00028_msg_1" data-source-line="7" data-uid="ent0003" id="entity_QTY_00028_msg_1"><rect fill="#F1F1F1" height="145.7813" rx="2.5" ry="2.5" style="stroke:#181818;stroke-width:0.5;" width="432.9502" x="7" y="218.1869"/><ellipse cx="153.0327" cy="234.1869" fill="#ADD1B2" rx="11" ry="11" style="stroke:#181818;stroke-width:1;"/><path d="M156.0015,239.8275 Q155.4233,240.1244 154.7827,240.265 Q154.1421,240.4213 153.439,240.4213 Q150.939,240.4213 149.6108,238.7806 Q148.2983,237.1244 148.2983,233.9994 Q148.2983,230.8744 149.6108,229.2181 Q150.939,227.5619 153.439,227.5619 Q154.1421,227.5619 154.7827,227.7181 Q155.439,227.8744 156.0015,228.1713 L156.0015,230.89 Q155.3765,230.3119 154.7827,230.0463 Q154.189,229.765 153.564,229.765 Q152.2202,229.765 151.5327,230.8431 Q150.8452,231.9056 150.8452,233.9994 Q150.8452,236.0931 151.5327,237.1713 Q152.2202,238.2338 153.564,238.2338 Q154.189,238.2338 154.7827,237.9681 Q155.3765,237.6869 156.0015,237.1088 L156.0015,239.8275 Z " fill="#000000"/><text fill="#000000" font-family="sans-serif" font-size="14" lengthAdjust="spacing" textLength="132.3848" x="173.5327" y="239.0336">QTY_00028_msg_1</text><line style="stroke:#181818;stroke-width:0.5;" x1="8" x2="438.9502" y1="250.1869" y2="250.1869"/><text fill="#000000" font-family="sans-serif" font-size="14" lengthAdjust="spacing" textLength="172.0264" x="13" y="267.182">Nachricht: MSCONS 2.4c</text><text fill="#000000" font-family="sans-serif" font-size="14" lengthAdjust="spacing" textLength="204.1143" x="13" y="283.4789">Kontext: Nachrichtenstruktur</text><text fill="#000000" font-family="sans-serif" font-size="14" lengthAdjust="spacing" textLength="91.4033" x="13" y="299.7757">Pflichtfeld: Ja</text><text fill="#000000" font-family="sans-serif" font-size="14" lengthAdjust="spacing" textLength="80.4248" x="13" y="316.0726">Codes: QTY</text><text fill="#000000" font-family="sans-serif" font-size="14" lengthAdjust="spacing" textLength="405.4463" x="13" y="332.3695">Prozesse: Anforderung und &#220;bermittlung von Messwerten</text><text fill="#000000" font-family="sans-serif" font-size="14" lengthAdjust="spacing" textLength="420.9502" x="13" y="348.6664">Quelle: MSCONS_MIG_2_4c_au&#223;erordentliche_20240726.pdf</text><line style="stroke:#181818;stroke-width:0.5;" x1="8" x2="438.9502" y1="355.9681" y2="355.9681"/></g><!--class QTY_00028_proc_1--><g class="entity" data-entity="QTY_00028_proc_1" data-source-line="16" data-uid="ent0005" id="entity_QTY_00028_proc_1"><rect fill="#F1F1F1" height="105.1563" rx="2.5" ry="2.5" style="stroke:#181818;stroke-width:0.5;" width="378.2285" x="475.36" y="238.4969"/><ellipse cx="593.4884" cy="258.6297" fill="#ADD1B2" rx="11" ry="11" style="stroke:#181818;stroke-width:1;"/><path d="M596.4572,264.2703 Q595.879,264.5672 595.2384,264.7078 Q594.5978,264.8641 593.8947,264.8641 Q591.3947,264.8641 590.0665,263.2234 Q588.754,261.5672 588.754,258.4422 Q588.754,255.3172 590.0665,253.6609 Q591.3947,252.0047 593.8947,252.0047 Q594.5978,252.0047 595.2384,252.1609 Q595.8947,252.3172 596.4572,252.6141 L596.4572,255.3328 Q595.8322,254.7547 595.2384,254.4891 Q594.6447,254.2078 594.0197,254.2078 Q592.6759,254.2078 591.9884,255.2859 Q591.3009,256.3484 591.3009,258.4422 Q591.3009,260.5359 591.9884,261.6141 Q592.6759,262.6766 594.0197,262.6766 Q594.6447,262.6766 595.2384,262.4109 Q595.8322,262.1297 596.4572,261.5516 L596.4572,264.2703 Z " fill="#000000"/><text fill="#000000" font-family="sans-serif" font-size="12" font-style="italic" lengthAdjust="spacing" textLength="61.0605" x="650.194" y="254.6355">&#171;process&#187;</text><text fill="#000000" font-family="sans-serif" font-size="14" lengthAdjust="spacing" textLength="133.4717" x="613.9884" y="270.4607">QTY_00028_proc_1</text><line style="stroke:#181818;stroke-width:0.5;" x1="476.36" x2="852.5885" y1="278.7625" y2="278.7625"/><text fill="#000000" font-family="sans-serif" font-size="14" lengthAdjust="spacing" textLength="334.3525" x="481.36" y="295.7576">Anforderung und &#220;bermittlung von Messwerten</text><text fill="#000000" font-family="sans-serif" font-size="14" lengthAdjust="spacing" textLength="105.0957" x="481.36" y="312.0545">Gesetze: MsbG</text><line style="stroke:#181818;stroke-width:0.5;" x1="476.36" x2="852.5885" y1="319.3563" y2="319.3563"/><text fill="#000000" font-family="sans-serif" font-size="14" lengthAdjust="spacing" textLength="366.2285" x="481.36" y="336.3514">Zusammenfassung: Wie kann ein Marktpartner (z.B.</text></g><!--link QTY_00028 to QTY_00028_msg_1--><g class="link" data-entity-1="QTY_00028" data-entity-2="QTY_00028_msg_1" data-source-line="15" data-uid="lnk4" id="link_QTY_00028_QTY_00028_msg_1"><path codeLine="15" d="M389.94,141.5169 C364.25,164.4469 337.3967,188.412 308.8767,213.862" fill="none" id="QTY_00028-to-QTY_00028_msg_1" style="stroke:#181818;stroke-width:1;"/><polygon fill="#181818" points="304.4,217.8569,313.7783,214.8491,308.1306,214.5278,308.4519,208.8801,304.4,217.8569" style="stroke:#181818;stroke-width:1;"/><text fill="#000000" font-family="sans-serif" font-size="13" lengthAdjust="spacing" textLength="85.2363" x="354.48" y="184.2538">verwendet in</text></g><!--link QTY_00028 to QTY_00028_proc_1--><g class="link" data-entity-1="QTY_00028" data-entity-2="QTY_00028_proc_1" data-source-line="21" data-uid="lnk6" id="link_QTY_00028_QTY_00028_proc_1"><path codeLine="21" d="M497.26,141.5169 C530.22,170.8069 567.9343,204.3121 601.6943,234.3021" fill="none" id="QTY_00028-to-QTY_00028_proc_1" style="stroke:#181818;stroke-width:1;stroke-dasharray:7,7;"/><polygon fill="#181818" points="606.18,238.2869,602.108,229.3192,602.4419,234.9662,596.7949,235.3002,606.18,238.2869" style="stroke:#181818;stroke-width:1;"/><text fill="#000000" font-family="sans-serif" font-size="13" lengthAdjust="spacing" textLength="91.6221" x="547.48" y="184.2538">eingebettet in</text></g><!--SRC=[bP3FIiD04CRlUOevUcc8eQWi9Q0LYaghfOBePTaaapGqcPJTIIiLtqJmOVfYpXR_zzJRphVppVURuOfhX4l3I8Phuw07q_j75KLHV1Pa8ZXVwrqDBm70n3IeO8nKYeDAaoA9UcVR3Jg7IjuWCywfQ6sEjgCIEifX-vQYRIhcsYkhbcI2SskqaXky_W_IZIlryMTSDhTLDcV9d0rl9pE8mtuc7pSjCJwB_Ds1vDXs2-wi1ofghnLOvmgkZIZ3DaUdVCXltiD80QOTrZL-mUZnrKZ7kfzfqstVqVf9n3uPTHp5_UWqFWcNUI4h_bonrqlsLbMmGhj6of6XehrxB6sRITTWu1-2aoIxunp8FaA7lF7mBXr9_TGvqpH8XOI9GS53XR0mH82LM8rTyD9O9hHmj0almZzRX66o3wYyiyGKcNUBV000]--></g></svg>