<svg xmlns="http://www.w3.org/2000/svg" xmlns:xlink="http://www.w3.org/1999/xlink" contentStyleType="text/css" data-diagram-type="CLASS" height="387px" preserveAspectRatio="none" style="width:2998px;height:387px;background:#FFFFFF;" version="1.1" viewBox="0 0 2998 387" width="2998px" zoomAndPan="magnify"><title>Datenatlas - QUOTES:NR</title><defs/><g><g class="title" data-source-line="1"><text fill="#000000" font-family="sans-serif" font-size="14" font-weight="bold" lengthAdjust="spacing" textLength="193.9629" x="1395.0582" y="22.9951">Datenatlas - QUOTES:NR</text></g><!--class QUOTES_NR--><g class="entity" data-entity="QUOTES_NR" data-source-line="2" data-uid="ent0002" id="entity_QUOTES_NR"><rect fill="#F1F1F1" height="113.1875" rx="2.5" ry="2.5" style="stroke:#181818;stroke-width:0.5;" width="374.2021" x="1263.98" y="44.2969"/><ellipse cx="1403.9458" cy="60.2969" fill="#ADD1B2" rx="11" ry="11" style="stroke:#181818;stroke-width:1;"/><path d="M1406.9146,65.9375 Q1406.3364,66.2344 1405.6958,66.375 Q1405.0552,66.5313 1404.3521,66.5313 Q1401.8521,66.5313 1400.5239,64.8906 Q1399.2114,63.2344 1399.2114,60.1094 Q1399.2114,56.9844 1400.5239,55.3281 Q1401.8521,53.6719 1404.3521,53.6719 Q1405.0552,53.6719 1405.6958,53.8281 Q1406.3521,53.9844 1406.9146,54.2813 L1406.9146,57 Q1406.2896,56.4219 1405.6958,56.1563 Q1405.1021,55.875 1404.4771,55.875 Q1403.1333,55.875 1402.4458,56.9531 Q1401.7583,58.0156 1401.7583,60.1094 Q1401.7583,62.2031 1402.4458,63.2813 Q1403.1333,64.3438 1404.4771,64.3438 Q1405.1021,64.3438 1405.6958,64.0781 Q1406.2896,63.7969 1406.9146,63.2188 L1406.9146,65.9375 Z " fill="#000000"/><text fill="#000000" font-family="sans-serif" font-size="14" lengthAdjust="spacing" textLength="85.7705" x="1424.4458" y="65.1436">QUOTES_NR</text><line style="stroke:#181818;stroke-width:0.5;" x1="1264.98" x2="1637.1821" y1="76.2969" y2="76.2969"/><text fill="#000000" font-family="sans-serif" font-size="14" lengthAdjust="spacing" textLength="76.0361" x="1283.98" y="93.292">Name: Bez</text><text fill="#000000" font-family="sans-serif" font-size="14" lengthAdjust="spacing" textLength="66.6436" x="1283.98" y="109.5889">Prozesse:</text><rect fill="none" height="6" style="stroke:#C82930;stroke-width:1;" width="6" x="1271.98" y="119.5391"/><text fill="#000000" font-family="sans-serif" font-size="14" lengthAdjust="spacing" textLength="317.9668" x="1283.98" y="125.8857">Sperrung und Entsperrung eines Anschlusses</text><line style="stroke:#181818;stroke-width:0.5;" x1="1264.98" x2="1637.1821" y1="133.1875" y2="133.1875"/><rect fill="#F24D5C" height="6" style="stroke:#C82930;stroke-width:1;" width="6" x="1271.98" y="143.8359"/><text fill="#000000" font-family="sans-serif" font-size="14" lengthAdjust="spacing" textLength="348.2021" x="1283.98" y="150.1826">Bestellung einer technischen Konfiguration (MSB)</text></g><!--class QUOTES_NR_msg_1--><g class="entity" data-entity="QUOTES_NR_msg_1" data-source-line="8" data-uid="ent0003" id="entity_QUOTES_NR_msg_1"><rect fill="#F1F1F1" height="145.7813" rx="2.5" ry="2.5" style="stroke:#181818;stroke-width:0.5;" width="758.1631" x="7" y="234.4869"/><ellipse cx="312.5835" cy="250.4869" fill="#ADD1B2" rx="11" ry="11" style="stroke:#181818;stroke-width:1;"/><path d="M315.5522,256.1275 Q314.9741,256.4244 314.3335,256.565 Q313.6929,256.7213 312.9897,256.7213 Q310.4897,256.7213 309.1616,255.0806 Q307.8491,253.4244 307.8491,250.2994 Q307.8491,247.1744 309.1616,245.5181 Q310.4897,243.8619 312.9897,243.8619 Q313.6929,243.8619 314.3335,244.0181 Q314.9897,244.1744 315.5522,244.4713 L315.5522,247.19 Q314.9272,246.6119 314.3335,246.3463 Q313.7397,246.065 313.1147,246.065 Q311.771,246.065 311.0835,247.1431 Q310.396,248.2056 310.396,250.2994 Q310.396,252.3931 311.0835,253.4713 Q311.771,254.5338 313.1147,254.5338 Q313.7397,254.5338 314.3335,254.2681 Q314.9272,253.9869 315.5522,253.4088 L315.5522,256.1275 Z " fill="#000000"/><text fill="#000000" font-family="sans-serif" font-size="14" lengthAdjust="spacing" textLength="138.4961" x="333.0835" y="255.3336">QUOTES_NR_msg_1</text><line style="stroke:#181818;stroke-width:0.5;" x1="8" x2="764.1631" y1="266.4869" y2="266.4869"/><text fill="#000000" font-family="sans-serif" font-size="14" lengthAdjust="spacing" textLength="170.3584" x="13" y="283.482">Nachricht: QUOTES 1.3a</text><text fill="#000000" font-family="sans-serif" font-size="14" lengthAdjust="spacing" textLength="170.3447" x="13" y="299.7789">Kontext: Segmentlayout</text><text fill="#000000" font-family="sans-serif" font-size="14" lengthAdjust="spacing" textLength="91.4033" x="13" y="316.0757">Pflichtfeld: Ja</text><text fill="#000000" font-family="sans-serif" font-size="14" lengthAdjust="spacing" textLength="79.3584" x="13" y="332.3726">Codes: MIG</text><text fill="#000000" font-family="sans-serif" font-size="14" lengthAdjust="spacing" textLength="408.3174" x="13" y="348.6695">Quelle: QUOTES_MIG_1_3a_Fehlerkorrektur_20241213.pdf</text><line style="stroke:#181818;stroke-width:0.5;" x1="8" x2="764.1631" y1="355.9713" y2="355.9713"/><text fill="#000000" font-family="sans-serif" font-size="14" lengthAdjust="spacing" textLength="746.1631" x="13" y="372.9664">Prozesse: Bestellung einer technischen Konfiguration (MSB), Sperrung und Entsperrung eines Anschlusses</text></g><!--class QUOTES_NR_proc_1--><g class="entity" data-entity="QUOTES_NR_proc_1" data-source-line="17" data-uid="ent0005" id="entity_QUOTES_NR_proc_1"><rect fill="#F1F1F1" height="105.1563" rx="2.5" ry="2.5" style="stroke:#181818;stroke-width:0.5;" width="1301.9961" x="800.08" y="254.7969"/><ellipse cx="1377.0365" cy="274.9297" fill="#ADD1B2" rx="11" ry="11" style="stroke:#181818;stroke-width:1;"/><path d="M1380.0053,280.5703 Q1379.4272,280.8672 1378.7865,281.0078 Q1378.1459,281.1641 1377.4428,281.1641 Q1374.9428,281.1641 1373.6147,279.5234 Q1372.3022,277.8672 1372.3022,274.7422 Q1372.3022,271.6172 1373.6147,269.9609 Q1374.9428,268.3047 1377.4428,268.3047 Q1378.1459,268.3047 1378.7865,268.4609 Q1379.4428,268.6172 1380.0053,268.9141 L1380.0053,271.6328 Q1379.3803,271.0547 1378.7865,270.7891 Q1378.1928,270.5078 1377.5678,270.5078 Q1376.224,270.5078 1375.5365,271.5859 Q1374.849,272.6484 1374.849,274.7422 Q1374.849,276.8359 1375.5365,277.9141 Q1376.224,278.9766 1377.5678,278.9766 Q1378.1928,278.9766 1378.7865,278.7109 Q1379.3803,278.4297 1380.0053,277.8516 L1380.0053,280.5703 Z " fill="#000000"/><text fill="#000000" font-family="sans-serif" font-size="12" font-style="italic" lengthAdjust="spacing" textLength="61.0605" x="1436.7978" y="270.9355">&#171;process&#187;</text><text fill="#000000" font-family="sans-serif" font-size="14" lengthAdjust="spacing" textLength="139.583" x="1397.5365" y="286.7607">QUOTES_NR_proc_1</text><line style="stroke:#181818;stroke-width:0.5;" x1="801.08" x2="2101.0761" y1="295.0625" y2="295.0625"/><text fill="#000000" font-family="sans-serif" font-size="14" lengthAdjust="spacing" textLength="156.4063" x="806.08" y="312.0576">Gesetze: MsbG, EnWG</text><text fill="#000000" font-family="sans-serif" font-size="14" lengthAdjust="spacing" textLength="1289.9961" x="806.08" y="328.3545">Zusammenfassung: Erl&#228;utere den Prozess zur Bestellung einer spezifischen technischen Konfiguration bei einem Messstellenbetreiber, beispielsweise f&#252;r ein intelligentes Messsystem.</text><line style="stroke:#181818;stroke-width:0.5;" x1="801.08" x2="2101.0761" y1="335.6563" y2="335.6563"/><text fill="#000000" font-family="sans-serif" font-size="14" lengthAdjust="spacing" textLength="348.2021" x="806.08" y="352.6514">Bestellung einer technischen Konfiguration (MSB)</text></g><!--class QUOTES_NR_proc_2--><g class="entity" data-entity="QUOTES_NR_proc_2" data-source-line="23" data-uid="ent0007" id="entity_QUOTES_NR_proc_2"><rect fill="#F1F1F1" height="105.1563" rx="2.5" ry="2.5" style="stroke:#181818;stroke-width:0.5;" width="853.9893" x="2137.09" y="254.7969"/><ellipse cx="2490.0431" cy="274.9297" fill="#ADD1B2" rx="11" ry="11" style="stroke:#181818;stroke-width:1;"/><path d="M2493.0119,280.5703 Q2492.4338,280.8672 2491.7931,281.0078 Q2491.1525,281.1641 2490.4494,281.1641 Q2487.9494,281.1641 2486.6213,279.5234 Q2485.3088,277.8672 2485.3088,274.7422 Q2485.3088,271.6172 2486.6213,269.9609 Q2487.9494,268.3047 2490.4494,268.3047 Q2491.1525,268.3047 2491.7931,268.4609 Q2492.4494,268.6172 2493.0119,268.9141 L2493.0119,271.6328 Q2492.3869,271.0547 2491.7931,270.7891 Q2491.1994,270.5078 2490.5744,270.5078 Q2489.2306,270.5078 2488.5431,271.5859 Q2487.8556,272.6484 2487.8556,274.7422 Q2487.8556,276.8359 2488.5431,277.9141 Q2489.2306,278.9766 2490.5744,278.9766 Q2491.1994,278.9766 2491.7931,278.7109 Q2492.3869,278.4297 2493.0119,277.8516 L2493.0119,280.5703 Z " fill="#000000"/><text fill="#000000" font-family="sans-serif" font-size="12" font-style="italic" lengthAdjust="spacing" textLength="61.0605" x="2549.8044" y="270.9355">&#171;process&#187;</text><text fill="#000000" font-family="sans-serif" font-size="14" lengthAdjust="spacing" textLength="139.583" x="2510.5431" y="286.7607">QUOTES_NR_proc_2</text><line style="stroke:#181818;stroke-width:0.5;" x1="2138.09" x2="2990.0793" y1="295.0625" y2="295.0625"/><text fill="#000000" font-family="sans-serif" font-size="14" lengthAdjust="spacing" textLength="317.9668" x="2143.09" y="312.0576">Sperrung und Entsperrung eines Anschlusses</text><text fill="#000000" font-family="sans-serif" font-size="14" lengthAdjust="spacing" textLength="138.3252" x="2143.09" y="328.3545">Gesetze: StromGVV</text><text fill="#000000" font-family="sans-serif" font-size="14" lengthAdjust="spacing" textLength="841.9893" x="2143.09" y="344.6514">Zusammenfassung: Beschreibe den End-to-End-Prozess f&#252;r die Sperrung und Wiederherstellung eines Netzanschlusses.</text><line style="stroke:#181818;stroke-width:0.5;" x1="2138.09" x2="2990.0793" y1="351.9531" y2="351.9531"/></g><!--link QUOTES_NR to QUOTES_NR_msg_1--><g class="link" data-entity-1="QUOTES_NR" data-entity-2="QUOTES_NR_msg_1" data-source-line="16" data-uid="lnk4" id="link_QUOTES_NR_QUOTES_NR_msg_1"><path codeLine="16" d="M1263.74,137.8569 C1125.5,164.4069 938.6024,200.2855 768.9224,232.8655" fill="none" id="QUOTES_NR-to-QUOTES_NR_msg_1" style="stroke:#181818;stroke-width:1;"/><polygon fill="#181818" points="763.03,233.9969,772.6228,236.228,767.9403,233.0541,771.1143,228.3716,763.03,233.9969" style="stroke:#181818;stroke-width:1;"/><text fill="#000000" font-family="sans-serif" font-size="13" lengthAdjust="spacing" textLength="85.2363" x="984.08" y="200.5538">verwendet in</text></g><!--link QUOTES_NR to QUOTES_NR_proc_1--><g class="link" data-entity-1="QUOTES_NR" data-entity-2="QUOTES_NR_proc_1" data-source-line="22" data-uid="lnk6" id="link_QUOTES_NR_QUOTES_NR_proc_1"><path codeLine="22" d="M1451.08,157.7669 C1451.08,187.9169 1451.08,218.9069 1451.08,248.4269" fill="none" id="QUOTES_NR-to-QUOTES_NR_proc_1" style="stroke:#181818;stroke-width:1;stroke-dasharray:7,7;"/><polygon fill="#181818" points="1451.08,254.4269,1455.08,245.4269,1451.08,249.4269,1447.08,245.4269,1451.08,254.4269" style="stroke:#181818;stroke-width:1;"/><text fill="#000000" font-family="sans-serif" font-size="13" lengthAdjust="spacing" textLength="91.6221" x="1452.08" y="200.5538">eingebettet in</text></g><!--link QUOTES_NR to QUOTES_NR_proc_2--><g class="link" data-entity-1="QUOTES_NR" data-entity-2="QUOTES_NR_proc_2" data-source-line="28" data-uid="lnk8" id="link_QUOTES_NR_QUOTES_NR_proc_2"><path codeLine="28" d="M1638.63,136.3469 C1814.34,168.6269 2073.4687,216.2428 2274.9387,253.2528" fill="none" id="QUOTES_NR-to-QUOTES_NR_proc_2" style="stroke:#181818;stroke-width:1;stroke-dasharray:7,7;"/><polygon fill="#181818" points="2280.84,254.3369,2272.7108,248.7766,2275.9223,253.4335,2271.2654,256.645,2280.84,254.3369" style="stroke:#181818;stroke-width:1;"/><text fill="#000000" font-family="sans-serif" font-size="13" lengthAdjust="spacing" textLength="91.6221" x="2009.08" y="200.5538">eingebettet in</text></g><!--SRC=[dPBTRjD048NlynHp2L9iOOShguf484I04cW3hSIDvTZ7zghsEffTKshKj-4nkEkBCMivb61-5AwytfqvPywtQvMjG2yI2vtOAZ7aqVc7j- -NssXpCKbbmmp_yUQ2lao8DacDY1RePFsEcmx6898rIUS2ngAgMbqGb0QJHLfgPT8IcjuqEbT5oubLZQP7w-tYyT2stOFPDRKwewMsvl3lH0mzqo9GjU9Z9dU_pXJNfeY3ORAqP9MMDXgEAV1dYHo8iyLdsTwYgA4bvctJMZT_Nhdw75KMqMjN-hp9O29Qlrhz7E_aODDJCX6TjoAEmzYnkCT1F4lYboWhy7N3Z6lRSXm-2Py6OJ3pzrakA1uknlFc8oGHVGBVG6UmfFI8svwRLAhEpjn2KixdFSJ_kC8L36mduw_DRZMLi5SEtiVM9BNGpiLMr29QSdN_jRLWK2PQ0rpgMXwR2grEvOFhdoVOGVKDDQr5gjU0ti4or0uyTUTchr2P6rc0yljlxEe5XojLXRm5kOk-zrQwQ_y8gk_FnxmY9r10JEnVk8OZhYUzXnz4jvQRUdLv-JkU0atUkqlQyrpgpBEDvpu7j7tUJE7O_4eX0vVW8-Q6DcAPF8pnJnRXYCLt]--></g></svg>