<svg xmlns="http://www.w3.org/2000/svg" xmlns:xlink="http://www.w3.org/1999/xlink" contentStyleType="text/css" data-diagram-type="CLASS" height="370px" preserveAspectRatio="none" style="width:1782px;height:370px;background:#FFFFFF;" version="1.1" viewBox="0 0 1782 370" width="1782px" zoomAndPan="magnify"><title>Datenatlas - REQOTE:1020</title><defs/><g><g class="title" data-source-line="1"><text fill="#000000" font-family="sans-serif" font-size="14" font-weight="bold" lengthAdjust="spacing" textLength="209.3232" x="779.6614" y="22.9951">Datenatlas - REQOTE:1020</text></g><!--class REQOTE_1020--><g class="entity" data-entity="REQOTE_1020" data-source-line="2" data-uid="ent0002" id="entity_REQOTE_1020"><rect fill="#F1F1F1" height="96.8906" rx="2.5" ry="2.5" style="stroke:#181818;stroke-width:0.5;" width="421.7598" x="462.77" y="44.2969"/><ellipse cx="619.0805" cy="60.2969" fill="#ADD1B2" rx="11" ry="11" style="stroke:#181818;stroke-width:1;"/><path d="M622.0493,65.9375 Q621.4712,66.2344 620.8305,66.375 Q620.1899,66.5313 619.4868,66.5313 Q616.9868,66.5313 615.6587,64.8906 Q614.3462,63.2344 614.3462,60.1094 Q614.3462,56.9844 615.6587,55.3281 Q616.9868,53.6719 619.4868,53.6719 Q620.1899,53.6719 620.8305,53.8281 Q621.4868,53.9844 622.0493,54.2813 L622.0493,57 Q621.4243,56.4219 620.8305,56.1563 Q620.2368,55.875 619.6118,55.875 Q618.268,55.875 617.5805,56.9531 Q616.893,58.0156 616.893,60.1094 Q616.893,62.2031 617.5805,63.2813 Q618.268,64.3438 619.6118,64.3438 Q620.2368,64.3438 620.8305,64.0781 Q621.4243,63.7969 622.0493,63.2188 L622.0493,65.9375 Z " fill="#000000"/><text fill="#000000" font-family="sans-serif" font-size="14" lengthAdjust="spacing" textLength="100.6387" x="639.5805" y="65.1436">REQOTE_1020</text><line style="stroke:#181818;stroke-width:0.5;" x1="463.77" x2="883.5298" y1="76.2969" y2="76.2969"/><text fill="#000000" font-family="sans-serif" font-size="14" lengthAdjust="spacing" textLength="409.7598" x="468.77" y="93.292">Name: Erforderliches Produkt Leistungskurvendefinitionen</text><text fill="#000000" font-family="sans-serif" font-size="14" lengthAdjust="spacing" textLength="66.6436" x="468.77" y="109.5889">Prozesse:</text><line style="stroke:#181818;stroke-width:0.5;" x1="463.77" x2="883.5298" y1="116.8906" y2="116.8906"/><rect fill="#F24D5C" height="6" style="stroke:#C82930;stroke-width:1;" width="6" x="470.77" y="127.5391"/><text fill="#000000" font-family="sans-serif" font-size="14" lengthAdjust="spacing" textLength="348.2021" x="482.77" y="133.8857">Bestellung einer technischen Konfiguration (MSB)</text></g><!--class REQOTE_1020_msg_1--><g class="entity" data-entity="REQOTE_1020_msg_1" data-source-line="7" data-uid="ent0003" id="entity_REQOTE_1020_msg_1"><rect fill="#F1F1F1" height="145.7813" rx="2.5" ry="2.5" style="stroke:#181818;stroke-width:0.5;" width="431.2959" x="7" y="218.1869"/><ellipse cx="141.7158" cy="234.1869" fill="#ADD1B2" rx="11" ry="11" style="stroke:#181818;stroke-width:1;"/><path d="M144.6846,239.8275 Q144.1064,240.1244 143.4658,240.265 Q142.8252,240.4213 142.1221,240.4213 Q139.6221,240.4213 138.2939,238.7806 Q136.9814,237.1244 136.9814,233.9994 Q136.9814,230.8744 138.2939,229.2181 Q139.6221,227.5619 142.1221,227.5619 Q142.8252,227.5619 143.4658,227.7181 Q144.1221,227.8744 144.6846,228.1713 L144.6846,230.89 Q144.0596,230.3119 143.4658,230.0463 Q142.8721,229.765 142.2471,229.765 Q140.9033,229.765 140.2158,230.8431 Q139.5283,231.9056 139.5283,233.9994 Q139.5283,236.0931 140.2158,237.1713 Q140.9033,238.2338 142.2471,238.2338 Q142.8721,238.2338 143.4658,237.9681 Q144.0596,237.6869 144.6846,237.1088 L144.6846,239.8275 Z " fill="#000000"/><text fill="#000000" font-family="sans-serif" font-size="14" lengthAdjust="spacing" textLength="153.3643" x="162.2158" y="239.0336">REQOTE_1020_msg_1</text><line style="stroke:#181818;stroke-width:0.5;" x1="8" x2="437.2959" y1="250.1869" y2="250.1869"/><text fill="#000000" font-family="sans-serif" font-size="14" lengthAdjust="spacing" textLength="170.1055" x="13" y="267.182">Nachricht: REQOTE 1.3b</text><text fill="#000000" font-family="sans-serif" font-size="14" lengthAdjust="spacing" textLength="204.1143" x="13" y="283.4789">Kontext: Nachrichtenstruktur</text><text fill="#000000" font-family="sans-serif" font-size="14" lengthAdjust="spacing" textLength="91.4033" x="13" y="299.7757">Pflichtfeld: Ja</text><text fill="#000000" font-family="sans-serif" font-size="14" lengthAdjust="spacing" textLength="79.3584" x="13" y="316.0726">Codes: MIG</text><text fill="#000000" font-family="sans-serif" font-size="14" lengthAdjust="spacing" textLength="292.2432" x="13" y="332.3695">Quelle: REQOTE_MIG_1_3b_20241001.pdf</text><line style="stroke:#181818;stroke-width:0.5;" x1="8" x2="437.2959" y1="339.6713" y2="339.6713"/><text fill="#000000" font-family="sans-serif" font-size="14" lengthAdjust="spacing" textLength="419.2959" x="13" y="356.6664">Prozesse: Bestellung einer technischen Konfiguration (MSB)</text></g><!--class REQOTE_1020_proc_1--><g class="entity" data-entity="REQOTE_1020_proc_1" data-source-line="16" data-uid="ent0005" id="entity_REQOTE_1020_proc_1"><rect fill="#F1F1F1" height="105.1563" rx="2.5" ry="2.5" style="stroke:#181818;stroke-width:0.5;" width="1301.9961" x="473.65" y="238.4969"/><ellipse cx="1043.1725" cy="258.6297" fill="#ADD1B2" rx="11" ry="11" style="stroke:#181818;stroke-width:1;"/><path d="M1046.1412,264.2703 Q1045.5631,264.5672 1044.9225,264.7078 Q1044.2818,264.8641 1043.5787,264.8641 Q1041.0787,264.8641 1039.7506,263.2234 Q1038.4381,261.5672 1038.4381,258.4422 Q1038.4381,255.3172 1039.7506,253.6609 Q1041.0787,252.0047 1043.5787,252.0047 Q1044.2818,252.0047 1044.9225,252.1609 Q1045.5787,252.3172 1046.1412,252.6141 L1046.1412,255.3328 Q1045.5162,254.7547 1044.9225,254.4891 Q1044.3287,254.2078 1043.7037,254.2078 Q1042.36,254.2078 1041.6725,255.2859 Q1040.985,256.3484 1040.985,258.4422 Q1040.985,260.5359 1041.6725,261.6141 Q1042.36,262.6766 1043.7037,262.6766 Q1044.3287,262.6766 1044.9225,262.4109 Q1045.5162,262.1297 1046.1412,261.5516 L1046.1412,264.2703 Z " fill="#000000"/><text fill="#000000" font-family="sans-serif" font-size="12" font-style="italic" lengthAdjust="spacing" textLength="61.0605" x="1110.3678" y="254.6355">&#171;process&#187;</text><text fill="#000000" font-family="sans-serif" font-size="14" lengthAdjust="spacing" textLength="154.4512" x="1063.6725" y="270.4607">REQOTE_1020_proc_1</text><line style="stroke:#181818;stroke-width:0.5;" x1="474.65" x2="1774.6461" y1="278.7625" y2="278.7625"/><text fill="#000000" font-family="sans-serif" font-size="14" lengthAdjust="spacing" textLength="156.4063" x="479.65" y="295.7576">Gesetze: MsbG, EnWG</text><text fill="#000000" font-family="sans-serif" font-size="14" lengthAdjust="spacing" textLength="1289.9961" x="479.65" y="312.0545">Zusammenfassung: Erl&#228;utere den Prozess zur Bestellung einer spezifischen technischen Konfiguration bei einem Messstellenbetreiber, beispielsweise f&#252;r ein intelligentes Messsystem.</text><line style="stroke:#181818;stroke-width:0.5;" x1="474.65" x2="1774.6461" y1="319.3563" y2="319.3563"/><text fill="#000000" font-family="sans-serif" font-size="14" lengthAdjust="spacing" textLength="348.2021" x="479.65" y="336.3514">Bestellung einer technischen Konfiguration (MSB)</text></g><!--link REQOTE_1020 to REQOTE_1020_msg_1--><g class="link" data-entity-1="REQOTE_1020" data-entity-2="REQOTE_1020_msg_1" data-source-line="15" data-uid="lnk4" id="link_REQOTE_1020_REQOTE_1020_msg_1"><path codeLine="15" d="M563.61,141.6469 C511.07,164.5169 452.5712,189.9816 394.2812,215.3616" fill="none" id="REQOTE_1020-to-REQOTE_1020_msg_1" style="stroke:#181818;stroke-width:1;"/><polygon fill="#181818" points="388.78,217.7569,398.6286,217.8314,393.3643,215.7608,395.4349,210.4966,388.78,217.7569" style="stroke:#181818;stroke-width:1;"/><text fill="#000000" font-family="sans-serif" font-size="13" lengthAdjust="spacing" textLength="85.2363" x="489.65" y="184.2538">verwendet in</text></g><!--link REQOTE_1020 to REQOTE_1020_proc_1--><g class="link" data-entity-1="REQOTE_1020" data-entity-2="REQOTE_1020_proc_1" data-source-line="21" data-uid="lnk6" id="link_REQOTE_1020_REQOTE_1020_proc_1"><path codeLine="21" d="M783.69,141.6469 C850.7,170.8169 930.8486,205.7122 999.5386,235.6122" fill="none" id="REQOTE_1020-to-REQOTE_1020_proc_1" style="stroke:#181818;stroke-width:1;stroke-dasharray:7,7;"/><polygon fill="#181818" points="1005.04,238.0069,998.3844,230.7472,1000.4555,236.0113,995.1914,238.0824,1005.04,238.0069" style="stroke:#181818;stroke-width:1;"/><text fill="#000000" font-family="sans-serif" font-size="13" lengthAdjust="spacing" textLength="91.6221" x="886.65" y="184.2538">eingebettet in</text></g><!--SRC=[dPBBRjj034Nt_WekMo0M9ASh8V0YgM7quRnQe40tWXvtv46aaJ7avE4WVzFFw2u_5ewh1a7ZBjgL2CxbvU65n4e7UbyAN2bToJIboyN5sTT5dgMpT59hYyTE4JjqFo4wBNlajF1cy0ryP-ircCxzq8GheS-mBC6rV1NyDLm3OvqLEpWu7LNL5ip8jIPTTWmMT9tg2TR1aw1UEyjgwUZJu8njWo_ZEBrPVJb-EtbupLJqt1RPI5QllV98FWeeImuhVL0hmQssdnLmB5w1WuzO9buX1bsJqyTIEoT30yvfzM7valhVUOakWWxWDr2XZaLM75R5B9szoz8qIpQDqRDUXZoTplSScDCr_4sCLCYwFJbi_52hxkWe5iexd-z2-G_c9HYoLUWLLyi3MhXlCORlWSk-XpEwMDtYBz0z_WW23shKQuo9ji6_NieRRAqPj_wTe8BT3VIqKgkT1rm5yR0L_45yvur5npTQWCpZJn_r6aYKsXRwvL-pTphT9tz4coJpVPdbqQI5Bf9Tkay0]--></g></svg>