<svg xmlns="http://www.w3.org/2000/svg" xmlns:xlink="http://www.w3.org/1999/xlink" contentStyleType="text/css" data-diagram-type="CLASS" height="370px" preserveAspectRatio="none" style="width:860px;height:370px;background:#FFFFFF;" version="1.1" viewBox="0 0 860 370" width="860px" zoomAndPan="magnify"><title>Datenatlas - RFF:SG2</title><defs/><g><g class="title" data-source-line="1"><text fill="#000000" font-family="sans-serif" font-size="14" font-weight="bold" lengthAdjust="spacing" textLength="168.3213" x="339.1336" y="22.9951">Datenatlas - RFF:SG2</text></g><!--class RFF_SG2--><g class="entity" data-entity="RFF_SG2" data-source-line="2" data-uid="ent0002" id="entity_RFF_SG2"><rect fill="#F1F1F1" height="96.8906" rx="2.5" ry="2.5" style="stroke:#181818;stroke-width:0.5;" width="360.3525" x="263.3" y="44.2969"/><ellipse cx="408.4885" cy="60.2969" fill="#ADD1B2" rx="11" ry="11" style="stroke:#181818;stroke-width:1;"/><path d="M411.4572,65.9375 Q410.8791,66.2344 410.2385,66.375 Q409.5979,66.5313 408.8947,66.5313 Q406.3947,66.5313 405.0666,64.8906 Q403.7541,63.2344 403.7541,60.1094 Q403.7541,56.9844 405.0666,55.3281 Q406.3947,53.6719 408.8947,53.6719 Q409.5979,53.6719 410.2385,53.8281 Q410.8947,53.9844 411.4572,54.2813 L411.4572,57 Q410.8322,56.4219 410.2385,56.1563 Q409.6447,55.875 409.0197,55.875 Q407.676,55.875 406.9885,56.9531 Q406.301,58.0156 406.301,60.1094 Q406.301,62.2031 406.9885,63.2813 Q407.676,64.3438 409.0197,64.3438 Q409.6447,64.3438 410.2385,64.0781 Q410.8322,63.7969 411.4572,63.2188 L411.4572,65.9375 Z " fill="#000000"/><text fill="#000000" font-family="sans-serif" font-size="14" lengthAdjust="spacing" textLength="61.4756" x="428.9885" y="65.1436">RFF_SG2</text><line style="stroke:#181818;stroke-width:0.5;" x1="264.3" x2="622.6525" y1="76.2969" y2="76.2969"/><text fill="#000000" font-family="sans-serif" font-size="14" lengthAdjust="spacing" textLength="170.8027" x="283.3" y="93.292">Name: MP - ID Absender</text><text fill="#000000" font-family="sans-serif" font-size="14" lengthAdjust="spacing" textLength="66.6436" x="283.3" y="109.5889">Prozesse:</text><rect fill="none" height="6" style="stroke:#C82930;stroke-width:1;" width="6" x="271.3" y="119.5391"/><text fill="#000000" font-family="sans-serif" font-size="14" lengthAdjust="spacing" textLength="334.3525" x="283.3" y="125.8857">Anforderung und &#220;bermittlung von Messwerten</text><line style="stroke:#181818;stroke-width:0.5;" x1="264.3" x2="622.6525" y1="133.1875" y2="133.1875"/></g><!--class RFF_SG2_msg_1--><g class="entity" data-entity="RFF_SG2_msg_1" data-source-line="7" data-uid="ent0003" id="entity_RFF_SG2_msg_1"><rect fill="#F1F1F1" height="145.7813" rx="2.5" ry="2.5" style="stroke:#181818;stroke-width:0.5;" width="432.9502" x="7" y="218.1869"/><ellipse cx="162.1245" cy="234.1869" fill="#ADD1B2" rx="11" ry="11" style="stroke:#181818;stroke-width:1;"/><path d="M165.0933,239.8275 Q164.5151,240.1244 163.8745,240.265 Q163.2339,240.4213 162.5308,240.4213 Q160.0308,240.4213 158.7026,238.7806 Q157.3901,237.1244 157.3901,233.9994 Q157.3901,230.8744 158.7026,229.2181 Q160.0308,227.5619 162.5308,227.5619 Q163.2339,227.5619 163.8745,227.7181 Q164.5308,227.8744 165.0933,228.1713 L165.0933,230.89 Q164.4683,230.3119 163.8745,230.0463 Q163.2808,229.765 162.6558,229.765 Q161.312,229.765 160.6245,230.8431 Q159.937,231.9056 159.937,233.9994 Q159.937,236.0931 160.6245,237.1713 Q161.312,238.2338 162.6558,238.2338 Q163.2808,238.2338 163.8745,237.9681 Q164.4683,237.6869 165.0933,237.1088 L165.0933,239.8275 Z " fill="#000000"/><text fill="#000000" font-family="sans-serif" font-size="14" lengthAdjust="spacing" textLength="114.2012" x="182.6245" y="239.0336">RFF_SG2_msg_1</text><line style="stroke:#181818;stroke-width:0.5;" x1="8" x2="438.9502" y1="250.1869" y2="250.1869"/><text fill="#000000" font-family="sans-serif" font-size="14" lengthAdjust="spacing" textLength="172.0264" x="13" y="267.182">Nachricht: MSCONS 2.4c</text><text fill="#000000" font-family="sans-serif" font-size="14" lengthAdjust="spacing" textLength="204.1143" x="13" y="283.4789">Kontext: Nachrichtenstruktur</text><text fill="#000000" font-family="sans-serif" font-size="14" lengthAdjust="spacing" textLength="91.4033" x="13" y="299.7757">Pflichtfeld: Ja</text><text fill="#000000" font-family="sans-serif" font-size="14" lengthAdjust="spacing" textLength="195.624" x="13" y="316.0726">Codes: 99, ID, MP, RFF, SG2</text><text fill="#000000" font-family="sans-serif" font-size="14" lengthAdjust="spacing" textLength="405.4463" x="13" y="332.3695">Prozesse: Anforderung und &#220;bermittlung von Messwerten</text><text fill="#000000" font-family="sans-serif" font-size="14" lengthAdjust="spacing" textLength="420.9502" x="13" y="348.6664">Quelle: MSCONS_MIG_2_4c_au&#223;erordentliche_20240726.pdf</text><line style="stroke:#181818;stroke-width:0.5;" x1="8" x2="438.9502" y1="355.9681" y2="355.9681"/></g><!--class RFF_SG2_proc_1--><g class="entity" data-entity="RFF_SG2_proc_1" data-source-line="16" data-uid="ent0005" id="entity_RFF_SG2_proc_1"><rect fill="#F1F1F1" height="105.1563" rx="2.5" ry="2.5" style="stroke:#181818;stroke-width:0.5;" width="378.2285" x="475.36" y="238.4969"/><ellipse cx="602.5802" cy="258.6297" fill="#ADD1B2" rx="11" ry="11" style="stroke:#181818;stroke-width:1;"/><path d="M605.549,264.2703 Q604.9708,264.5672 604.3302,264.7078 Q603.6896,264.8641 602.9865,264.8641 Q600.4865,264.8641 599.1583,263.2234 Q597.8458,261.5672 597.8458,258.4422 Q597.8458,255.3172 599.1583,253.6609 Q600.4865,252.0047 602.9865,252.0047 Q603.6896,252.0047 604.3302,252.1609 Q604.9865,252.3172 605.549,252.6141 L605.549,255.3328 Q604.924,254.7547 604.3302,254.4891 Q603.7365,254.2078 603.1115,254.2078 Q601.7677,254.2078 601.0802,255.2859 Q600.3927,256.3484 600.3927,258.4422 Q600.3927,260.5359 601.0802,261.6141 Q601.7677,262.6766 603.1115,262.6766 Q603.7365,262.6766 604.3302,262.4109 Q604.924,262.1297 605.549,261.5516 L605.549,264.2703 Z " fill="#000000"/><text fill="#000000" font-family="sans-serif" font-size="12" font-style="italic" lengthAdjust="spacing" textLength="61.0605" x="650.194" y="254.6355">&#171;process&#187;</text><text fill="#000000" font-family="sans-serif" font-size="14" lengthAdjust="spacing" textLength="115.2881" x="623.0802" y="270.4607">RFF_SG2_proc_1</text><line style="stroke:#181818;stroke-width:0.5;" x1="476.36" x2="852.5885" y1="278.7625" y2="278.7625"/><text fill="#000000" font-family="sans-serif" font-size="14" lengthAdjust="spacing" textLength="334.3525" x="481.36" y="295.7576">Anforderung und &#220;bermittlung von Messwerten</text><text fill="#000000" font-family="sans-serif" font-size="14" lengthAdjust="spacing" textLength="105.0957" x="481.36" y="312.0545">Gesetze: MsbG</text><line style="stroke:#181818;stroke-width:0.5;" x1="476.36" x2="852.5885" y1="319.3563" y2="319.3563"/><text fill="#000000" font-family="sans-serif" font-size="14" lengthAdjust="spacing" textLength="366.2285" x="481.36" y="336.3514">Zusammenfassung: Wie kann ein Marktpartner (z.B.</text></g><!--link RFF_SG2 to RFF_SG2_msg_1--><g class="link" data-entity-1="RFF_SG2" data-entity-2="RFF_SG2_msg_1" data-source-line="15" data-uid="lnk4" id="link_RFF_SG2_RFF_SG2_msg_1"><path codeLine="15" d="M389.94,141.5169 C364.25,164.4469 337.3967,188.412 308.8767,213.862" fill="none" id="RFF_SG2-to-RFF_SG2_msg_1" style="stroke:#181818;stroke-width:1;"/><polygon fill="#181818" points="304.4,217.8569,313.7783,214.8491,308.1306,214.5278,308.4519,208.8801,304.4,217.8569" style="stroke:#181818;stroke-width:1;"/><text fill="#000000" font-family="sans-serif" font-size="13" lengthAdjust="spacing" textLength="85.2363" x="354.48" y="184.2538">verwendet in</text></g><!--link RFF_SG2 to RFF_SG2_proc_1--><g class="link" data-entity-1="RFF_SG2" data-entity-2="RFF_SG2_proc_1" data-source-line="21" data-uid="lnk6" id="link_RFF_SG2_RFF_SG2_proc_1"><path codeLine="21" d="M497.26,141.5169 C530.22,170.8069 567.9343,204.3121 601.6943,234.3021" fill="none" id="RFF_SG2-to-RFF_SG2_proc_1" style="stroke:#181818;stroke-width:1;stroke-dasharray:7,7;"/><polygon fill="#181818" points="606.18,238.2869,602.108,229.3192,602.4419,234.9662,596.7949,235.3002,606.18,238.2869" style="stroke:#181818;stroke-width:1;"/><text fill="#000000" font-family="sans-serif" font-size="13" lengthAdjust="spacing" textLength="91.6221" x="547.48" y="184.2538">eingebettet in</text></g><!--SRC=[bP31Ji9048RlFCKSFPG66w9XGveWX0ODY78myRBPjbDes6x9xXGCnZSnyM5uCMU96kJ6RMV-cVs_VwWaZJ1IX4QHLWxQy3mUYqKIjJ8kdQyaL_3U0fYf2WLCvpmq6S4WTMXoj2pCRRr7vr3m6rWTcAAsB3Lc2Ot9uV2PegrA8kqxszh0bCTtQDcszV7VILPkAQz__BALBRCLiUbY-3XRG1HsCnOUQaFunks_2JIERBEcveXJQDyhKES2xXLtXdMEJa2l5p1vm142RnU0ptc2Vnaum5E3MkCldPnE4Xd9RYPLS_X2wtyov55GHfsesxcDRi9DNd3Ytwkss_5PRW5Rj3j_M8BId9rcO-kCP_fz_s2GE3xUwKBg11tItcExDE7wjN6ggj0KRCKB0bvAXBKo1h3aLMNNj56M35guseTtuGb_6CRdSC9lBJ55ecE4Rm00]--></g></svg>