<svg xmlns="http://www.w3.org/2000/svg" xmlns:xlink="http://www.w3.org/1999/xlink" contentStyleType="text/css" data-diagram-type="CLASS" height="403px" preserveAspectRatio="none" style="width:4003px;height:403px;background:#FFFFFF;" version="1.1" viewBox="0 0 4003 403" width="4003px" zoomAndPan="magnify"><title>Datenatlas - RFF:1056</title><defs/><g><g class="title" data-source-line="1"><text fill="#000000" font-family="sans-serif" font-size="14" font-weight="bold" lengthAdjust="spacing" textLength="175.9707" x="1906.7293" y="22.9951">Datenatlas - RFF:1056</text></g><!--class RFF_1056--><g class="entity" data-entity="RFF_1056" data-source-line="2" data-uid="ent0002" id="entity_RFF_1056"><rect fill="#F1F1F1" height="129.4844" rx="2.5" ry="2.5" style="stroke:#181818;stroke-width:0.5;" width="374.2021" x="1264.33" y="44.2969"/><ellipse cx="1412.9501" cy="60.2969" fill="#ADD1B2" rx="11" ry="11" style="stroke:#181818;stroke-width:1;"/><path d="M1415.9189,65.9375 Q1415.3407,66.2344 1414.7001,66.375 Q1414.0595,66.5313 1413.3564,66.5313 Q1410.8564,66.5313 1409.5282,64.8906 Q1408.2157,63.2344 1408.2157,60.1094 Q1408.2157,56.9844 1409.5282,55.3281 Q1410.8564,53.6719 1413.3564,53.6719 Q1414.0595,53.6719 1414.7001,53.8281 Q1415.3564,53.9844 1415.9189,54.2813 L1415.9189,57 Q1415.2939,56.4219 1414.7001,56.1563 Q1414.1064,55.875 1413.4814,55.875 Q1412.1376,55.875 1411.4501,56.9531 Q1410.7626,58.0156 1410.7626,60.1094 Q1410.7626,62.2031 1411.4501,63.2813 Q1412.1376,64.3438 1413.4814,64.3438 Q1414.1064,64.3438 1414.7001,64.0781 Q1415.2939,63.7969 1415.9189,63.2188 L1415.9189,65.9375 Z " fill="#000000"/><text fill="#000000" font-family="sans-serif" font-size="14" lengthAdjust="spacing" textLength="68.4619" x="1433.4501" y="65.1436">RFF_1056</text><line style="stroke:#181818;stroke-width:0.5;" x1="1265.33" x2="1637.5321" y1="76.2969" y2="76.2969"/><text fill="#000000" font-family="sans-serif" font-size="14" lengthAdjust="spacing" textLength="169.7227" x="1284.33" y="93.292">Name: Versionsnummer</text><text fill="#000000" font-family="sans-serif" font-size="14" lengthAdjust="spacing" textLength="66.6436" x="1284.33" y="109.5889">Prozesse:</text><rect fill="none" height="6" style="stroke:#C82930;stroke-width:1;" width="6" x="1272.33" y="119.5391"/><text fill="#000000" font-family="sans-serif" font-size="14" lengthAdjust="spacing" textLength="158.0127" x="1284.33" y="125.8857">Stammdaten&#228;nderung</text><rect fill="none" height="6" style="stroke:#C82930;stroke-width:1;" width="6" x="1272.33" y="135.8359"/><text fill="#000000" font-family="sans-serif" font-size="14" lengthAdjust="spacing" textLength="317.9668" x="1284.33" y="142.1826">Sperrung und Entsperrung eines Anschlusses</text><line style="stroke:#181818;stroke-width:0.5;" x1="1265.33" x2="1637.5321" y1="149.4844" y2="149.4844"/><rect fill="#F24D5C" height="6" style="stroke:#C82930;stroke-width:1;" width="6" x="1272.33" y="160.1328"/><text fill="#000000" font-family="sans-serif" font-size="14" lengthAdjust="spacing" textLength="348.2021" x="1284.33" y="166.4795">Bestellung einer technischen Konfiguration (MSB)</text></g><!--class RFF_1056_msg_1--><g class="entity" data-entity="RFF_1056_msg_1" data-source-line="9" data-uid="ent0003" id="entity_RFF_1056_msg_1"><rect fill="#F1F1F1" height="145.7813" rx="2.5" ry="2.5" style="stroke:#181818;stroke-width:0.5;" width="296.8604" x="7" y="250.7869"/><ellipse cx="90.5864" cy="266.7869" fill="#ADD1B2" rx="11" ry="11" style="stroke:#181818;stroke-width:1;"/><path d="M93.5552,272.4275 Q92.9771,272.7244 92.3364,272.865 Q91.6958,273.0213 90.9927,273.0213 Q88.4927,273.0213 87.1646,271.3806 Q85.8521,269.7244 85.8521,266.5994 Q85.8521,263.4744 87.1646,261.8181 Q88.4927,260.1619 90.9927,260.1619 Q91.6958,260.1619 92.3364,260.3181 Q92.9927,260.4744 93.5552,260.7713 L93.5552,263.49 Q92.9302,262.9119 92.3364,262.6463 Q91.7427,262.365 91.1177,262.365 Q89.7739,262.365 89.0864,263.4431 Q88.3989,264.5056 88.3989,266.5994 Q88.3989,268.6931 89.0864,269.7713 Q89.7739,270.8338 91.1177,270.8338 Q91.7427,270.8338 92.3364,270.5681 Q92.9302,270.2869 93.5552,269.7088 L93.5552,272.4275 Z " fill="#000000"/><text fill="#000000" font-family="sans-serif" font-size="14" lengthAdjust="spacing" textLength="121.1875" x="111.0864" y="271.6336">RFF_1056_msg_1</text><line style="stroke:#181818;stroke-width:0.5;" x1="8" x2="302.8604" y1="282.7869" y2="282.7869"/><text fill="#000000" font-family="sans-serif" font-size="14" lengthAdjust="spacing" textLength="162.7227" x="13" y="299.782">Nachricht: PARTIN 1.0e</text><text fill="#000000" font-family="sans-serif" font-size="14" lengthAdjust="spacing" textLength="170.3447" x="13" y="316.0789">Kontext: Segmentlayout</text><text fill="#000000" font-family="sans-serif" font-size="14" lengthAdjust="spacing" textLength="91.4033" x="13" y="332.3757">Pflichtfeld: Ja</text><text fill="#000000" font-family="sans-serif" font-size="14" lengthAdjust="spacing" textLength="220.3223" x="13" y="348.6726">Codes: 70, AGK, OCR, RFF, SG1</text><text fill="#000000" font-family="sans-serif" font-size="14" lengthAdjust="spacing" textLength="229.1064" x="13" y="364.9695">Prozesse: Stammdaten&#228;nderung</text><text fill="#000000" font-family="sans-serif" font-size="14" lengthAdjust="spacing" textLength="284.8604" x="13" y="381.2664">Quelle: PARTIN_MIG_1_0e_20241001.pdf</text><line style="stroke:#181818;stroke-width:0.5;" x1="8" x2="302.8604" y1="388.5681" y2="388.5681"/></g><!--class RFF_1056_msg_2--><g class="entity" data-entity="RFF_1056_msg_2" data-source-line="18" data-uid="ent0005" id="entity_RFF_1056_msg_2"><rect fill="#F1F1F1" height="145.7813" rx="2.5" ry="2.5" style="stroke:#181818;stroke-width:0.5;" width="758.1631" x="339.35" y="250.7869"/><ellipse cx="653.5878" cy="266.7869" fill="#ADD1B2" rx="11" ry="11" style="stroke:#181818;stroke-width:1;"/><path d="M656.5565,272.4275 Q655.9784,272.7244 655.3378,272.865 Q654.6972,273.0213 653.994,273.0213 Q651.494,273.0213 650.1659,271.3806 Q648.8534,269.7244 648.8534,266.5994 Q648.8534,263.4744 650.1659,261.8181 Q651.494,260.1619 653.994,260.1619 Q654.6972,260.1619 655.3378,260.3181 Q655.994,260.4744 656.5565,260.7713 L656.5565,263.49 Q655.9315,262.9119 655.3378,262.6463 Q654.744,262.365 654.119,262.365 Q652.7753,262.365 652.0878,263.4431 Q651.4003,264.5056 651.4003,266.5994 Q651.4003,268.6931 652.0878,269.7713 Q652.7753,270.8338 654.119,270.8338 Q654.744,270.8338 655.3378,270.5681 Q655.9315,270.2869 656.5565,269.7088 L656.5565,272.4275 Z " fill="#000000"/><text fill="#000000" font-family="sans-serif" font-size="14" lengthAdjust="spacing" textLength="121.1875" x="674.0878" y="271.6336">RFF_1056_msg_2</text><line style="stroke:#181818;stroke-width:0.5;" x1="340.35" x2="1096.5131" y1="282.7869" y2="282.7869"/><text fill="#000000" font-family="sans-serif" font-size="14" lengthAdjust="spacing" textLength="170.3584" x="345.35" y="299.782">Nachricht: QUOTES 1.3a</text><text fill="#000000" font-family="sans-serif" font-size="14" lengthAdjust="spacing" textLength="170.3447" x="345.35" y="316.0789">Kontext: Segmentlayout</text><text fill="#000000" font-family="sans-serif" font-size="14" lengthAdjust="spacing" textLength="91.4033" x="345.35" y="332.3757">Pflichtfeld: Ja</text><text fill="#000000" font-family="sans-serif" font-size="14" lengthAdjust="spacing" textLength="179.2451" x="345.35" y="348.6726">Codes: 70, APF, OCR, RFF</text><text fill="#000000" font-family="sans-serif" font-size="14" lengthAdjust="spacing" textLength="408.3174" x="345.35" y="364.9695">Quelle: QUOTES_MIG_1_3a_Fehlerkorrektur_20241213.pdf</text><line style="stroke:#181818;stroke-width:0.5;" x1="340.35" x2="1096.5131" y1="372.2713" y2="372.2713"/><text fill="#000000" font-family="sans-serif" font-size="14" lengthAdjust="spacing" textLength="746.1631" x="345.35" y="389.2664">Prozesse: Bestellung einer technischen Konfiguration (MSB), Sperrung und Entsperrung eines Anschlusses</text></g><!--class RFF_1056_proc_1--><g class="entity" data-entity="RFF_1056_proc_1" data-source-line="27" data-uid="ent0007" id="entity_RFF_1056_proc_1"><rect fill="#F1F1F1" height="88.8594" rx="2.5" ry="2.5" style="stroke:#181818;stroke-width:0.5;" width="638.3496" x="1132.26" y="279.2469"/><ellipse cx="1386.0476" cy="299.3797" fill="#ADD1B2" rx="11" ry="11" style="stroke:#181818;stroke-width:1;"/><path d="M1389.0163,305.0203 Q1388.4382,305.3172 1387.7976,305.4578 Q1387.157,305.6141 1386.4538,305.6141 Q1383.9538,305.6141 1382.6257,303.9734 Q1381.3132,302.3172 1381.3132,299.1922 Q1381.3132,296.0672 1382.6257,294.4109 Q1383.9538,292.7547 1386.4538,292.7547 Q1387.157,292.7547 1387.7976,292.9109 Q1388.4538,293.0672 1389.0163,293.3641 L1389.0163,296.0828 Q1388.3913,295.5047 1387.7976,295.2391 Q1387.2038,294.9578 1386.5788,294.9578 Q1385.2351,294.9578 1384.5476,296.0359 Q1383.8601,297.0984 1383.8601,299.1922 Q1383.8601,301.2859 1384.5476,302.3641 Q1385.2351,303.4266 1386.5788,303.4266 Q1387.2038,303.4266 1387.7976,303.1609 Q1388.3913,302.8797 1389.0163,302.3016 L1389.0163,305.0203 Z " fill="#000000"/><text fill="#000000" font-family="sans-serif" font-size="12" font-style="italic" lengthAdjust="spacing" textLength="61.0605" x="1437.1545" y="295.3855">&#171;process&#187;</text><text fill="#000000" font-family="sans-serif" font-size="14" lengthAdjust="spacing" textLength="122.2744" x="1406.5476" y="311.2107">RFF_1056_proc_1</text><line style="stroke:#181818;stroke-width:0.5;" x1="1133.26" x2="1769.6096" y1="319.5125" y2="319.5125"/><text fill="#000000" font-family="sans-serif" font-size="14" lengthAdjust="spacing" textLength="158.0127" x="1138.26" y="336.5076">Stammdaten&#228;nderung</text><text fill="#000000" font-family="sans-serif" font-size="14" lengthAdjust="spacing" textLength="626.3496" x="1138.26" y="352.8045">Zusammenfassung: Wie wird eine Stammdaten&#228;nderung an einer Marktlokation, wie z.B.</text><line style="stroke:#181818;stroke-width:0.5;" x1="1133.26" x2="1769.6096" y1="360.1063" y2="360.1063"/></g><!--class RFF_1056_proc_2--><g class="entity" data-entity="RFF_1056_proc_2" data-source-line="32" data-uid="ent0009" id="entity_RFF_1056_proc_2"><rect fill="#F1F1F1" height="105.1563" rx="2.5" ry="2.5" style="stroke:#181818;stroke-width:0.5;" width="1301.9961" x="1805.43" y="271.0969"/><ellipse cx="2391.0408" cy="291.2297" fill="#ADD1B2" rx="11" ry="11" style="stroke:#181818;stroke-width:1;"/><path d="M2394.0096,296.8703 Q2393.4315,297.1672 2392.7908,297.3078 Q2392.1502,297.4641 2391.4471,297.4641 Q2388.9471,297.4641 2387.619,295.8234 Q2386.3065,294.1672 2386.3065,291.0422 Q2386.3065,287.9172 2387.619,286.2609 Q2388.9471,284.6047 2391.4471,284.6047 Q2392.1502,284.6047 2392.7908,284.7609 Q2393.4471,284.9172 2394.0096,285.2141 L2394.0096,287.9328 Q2393.3846,287.3547 2392.7908,287.0891 Q2392.1971,286.8078 2391.5721,286.8078 Q2390.2283,286.8078 2389.5408,287.8859 Q2388.8533,288.9484 2388.8533,291.0422 Q2388.8533,293.1359 2389.5408,294.2141 Q2390.2283,295.2766 2391.5721,295.2766 Q2392.1971,295.2766 2392.7908,295.0109 Q2393.3846,294.7297 2394.0096,294.1516 L2394.0096,296.8703 Z " fill="#000000"/><text fill="#000000" font-family="sans-serif" font-size="12" font-style="italic" lengthAdjust="spacing" textLength="61.0605" x="2442.1478" y="287.2355">&#171;process&#187;</text><text fill="#000000" font-family="sans-serif" font-size="14" lengthAdjust="spacing" textLength="122.2744" x="2411.5408" y="303.0607">RFF_1056_proc_2</text><line style="stroke:#181818;stroke-width:0.5;" x1="1806.43" x2="3106.4261" y1="311.3625" y2="311.3625"/><text fill="#000000" font-family="sans-serif" font-size="14" lengthAdjust="spacing" textLength="156.4063" x="1811.43" y="328.3576">Gesetze: MsbG, EnWG</text><text fill="#000000" font-family="sans-serif" font-size="14" lengthAdjust="spacing" textLength="1289.9961" x="1811.43" y="344.6545">Zusammenfassung: Erl&#228;utere den Prozess zur Bestellung einer spezifischen technischen Konfiguration bei einem Messstellenbetreiber, beispielsweise f&#252;r ein intelligentes Messsystem.</text><line style="stroke:#181818;stroke-width:0.5;" x1="1806.43" x2="3106.4261" y1="351.9562" y2="351.9562"/><text fill="#000000" font-family="sans-serif" font-size="14" lengthAdjust="spacing" textLength="348.2021" x="1811.43" y="368.9514">Bestellung einer technischen Konfiguration (MSB)</text></g><!--class RFF_1056_proc_3--><g class="entity" data-entity="RFF_1056_proc_3" data-source-line="38" data-uid="ent0011" id="entity_RFF_1056_proc_3"><rect fill="#F1F1F1" height="105.1563" rx="2.5" ry="2.5" style="stroke:#181818;stroke-width:0.5;" width="853.9893" x="3142.44" y="271.0969"/><ellipse cx="3504.0474" cy="291.2297" fill="#ADD1B2" rx="11" ry="11" style="stroke:#181818;stroke-width:1;"/><path d="M3507.0162,296.8703 Q3506.438,297.1672 3505.7974,297.3078 Q3505.1568,297.4641 3504.4537,297.4641 Q3501.9537,297.4641 3500.6255,295.8234 Q3499.313,294.1672 3499.313,291.0422 Q3499.313,287.9172 3500.6255,286.2609 Q3501.9537,284.6047 3504.4537,284.6047 Q3505.1568,284.6047 3505.7974,284.7609 Q3506.4537,284.9172 3507.0162,285.2141 L3507.0162,287.9328 Q3506.3912,287.3547 3505.7974,287.0891 Q3505.2037,286.8078 3504.5787,286.8078 Q3503.2349,286.8078 3502.5474,287.8859 Q3501.8599,288.9484 3501.8599,291.0422 Q3501.8599,293.1359 3502.5474,294.2141 Q3503.2349,295.2766 3504.5787,295.2766 Q3505.2037,295.2766 3505.7974,295.0109 Q3506.3912,294.7297 3507.0162,294.1516 L3507.0162,296.8703 Z " fill="#000000"/><text fill="#000000" font-family="sans-serif" font-size="12" font-style="italic" lengthAdjust="spacing" textLength="61.0605" x="3555.1544" y="287.2355">&#171;process&#187;</text><text fill="#000000" font-family="sans-serif" font-size="14" lengthAdjust="spacing" textLength="122.2744" x="3524.5474" y="303.0607">RFF_1056_proc_3</text><line style="stroke:#181818;stroke-width:0.5;" x1="3143.44" x2="3995.4293" y1="311.3625" y2="311.3625"/><text fill="#000000" font-family="sans-serif" font-size="14" lengthAdjust="spacing" textLength="317.9668" x="3148.44" y="328.3576">Sperrung und Entsperrung eines Anschlusses</text><text fill="#000000" font-family="sans-serif" font-size="14" lengthAdjust="spacing" textLength="138.3252" x="3148.44" y="344.6545">Gesetze: StromGVV</text><text fill="#000000" font-family="sans-serif" font-size="14" lengthAdjust="spacing" textLength="841.9893" x="3148.44" y="360.9514">Zusammenfassung: Beschreibe den End-to-End-Prozess f&#252;r die Sperrung und Wiederherstellung eines Netzanschlusses.</text><line style="stroke:#181818;stroke-width:0.5;" x1="3143.44" x2="3995.4293" y1="368.2531" y2="368.2531"/></g><!--link RFF_1056 to RFF_1056_msg_1--><g class="link" data-entity-1="RFF_1056" data-entity-2="RFF_1056_msg_1" data-source-line="17" data-uid="lnk4" id="link_RFF_1056_RFF_1056_msg_1"><path codeLine="17" d="M1264.06,117.0869 C1037.3,129.3169 645.55,162.3769 321.43,250.7869 C315.67,252.3569 315.5742,252.2572 309.7342,254.1272" fill="none" id="RFF_1056-to-RFF_1056_msg_1" style="stroke:#181818;stroke-width:1;"/><polygon fill="#181818" points="304.02,255.9569,313.8111,257.0218,308.7818,254.4321,311.3715,249.4028,304.02,255.9569" style="stroke:#181818;stroke-width:1;"/><text fill="#000000" font-family="sans-serif" font-size="13" lengthAdjust="spacing" textLength="85.2363" x="504.43" y="216.8538">verwendet in</text></g><!--link RFF_1056 to RFF_1056_msg_2--><g class="link" data-entity-1="RFF_1056" data-entity-2="RFF_1056_msg_2" data-source-line="26" data-uid="lnk6" id="link_RFF_1056_RFF_1056_msg_2"><path codeLine="26" d="M1264.09,164.3869 C1174.06,190.5069 1070.6623,220.4949 973.7123,248.6249" fill="none" id="RFF_1056-to-RFF_1056_msg_2" style="stroke:#181818;stroke-width:1;"/><polygon fill="#181818" points="967.95,250.2969,977.7081,251.6305,972.752,248.9036,975.4789,243.9474,967.95,250.2969" style="stroke:#181818;stroke-width:1;"/><text fill="#000000" font-family="sans-serif" font-size="13" lengthAdjust="spacing" textLength="85.2363" x="1108.43" y="216.8538">verwendet in</text></g><!--link RFF_1056 to RFF_1056_proc_1--><g class="link" data-entity-1="RFF_1056" data-entity-2="RFF_1056_proc_1" data-source-line="31" data-uid="lnk8" id="link_RFF_1056_RFF_1056_proc_1"><path codeLine="31" d="M1451.43,174.1269 C1451.43,207.9969 1451.43,242.6969 1451.43,272.9269" fill="none" id="RFF_1056-to-RFF_1056_proc_1" style="stroke:#181818;stroke-width:1;stroke-dasharray:7,7;"/><polygon fill="#181818" points="1451.43,278.9269,1455.43,269.9269,1451.43,273.9269,1447.43,269.9269,1451.43,278.9269" style="stroke:#181818;stroke-width:1;"/><text fill="#000000" font-family="sans-serif" font-size="13" lengthAdjust="spacing" textLength="91.6221" x="1452.43" y="216.8538">eingebettet in</text></g><!--link RFF_1056 to RFF_1056_proc_2--><g class="link" data-entity-1="RFF_1056" data-entity-2="RFF_1056_proc_2" data-source-line="37" data-uid="lnk10" id="link_RFF_1056_RFF_1056_proc_2"><path codeLine="37" d="M1638.99,149.7269 C1800.31,183.8569 2028.2999,232.0949 2204.5999,269.3949" fill="none" id="RFF_1056-to-RFF_1056_proc_2" style="stroke:#181818;stroke-width:1;stroke-dasharray:7,7;"/><polygon fill="#181818" points="2210.47,270.6369,2202.4929,264.8606,2205.5783,269.6019,2200.837,272.6873,2210.47,270.6369" style="stroke:#181818;stroke-width:1;"/><text fill="#000000" font-family="sans-serif" font-size="13" lengthAdjust="spacing" textLength="91.6221" x="1955.43" y="216.8538">eingebettet in</text></g><!--link RFF_1056 to RFF_1056_proc_3--><g class="link" data-entity-1="RFF_1056" data-entity-2="RFF_1056_proc_3" data-source-line="43" data-uid="lnk12" id="link_RFF_1056_RFF_1056_proc_3"><path codeLine="43" d="M1638.83,121.1269 C1948.7,140.5169 2587.04,184.8669 3124.43,250.7869 C3170.55,256.4469 3213.2888,262.4411 3260.8288,269.7011" fill="none" id="RFF_1056-to-RFF_1056_proc_3" style="stroke:#181818;stroke-width:1;stroke-dasharray:7,7;"/><polygon fill="#181818" points="3266.76,270.6069,3258.467,265.294,3261.8173,269.8521,3257.2593,273.2024,3266.76,270.6069" style="stroke:#181818;stroke-width:1;"/><text fill="#000000" font-family="sans-serif" font-size="13" lengthAdjust="spacing" textLength="91.6221" x="2853.43" y="216.8538">eingebettet in</text></g><!--SRC=[dPJRRjf048RlUOgvR2M3RDE3P4L8a8ALHX22KoBrnZBss5vXhz7kkZH4VPiyHkzuiSuw9YGSHCaLkxCx_yp_xHZ5L8RmBL380vK54fem6GmSo_pyfH7INkgjhxVms00O1JawC4KXMS4bB_CS1ON7ebYXbEZG6aZ2Kq6UHrfq_SGZ52LFwfCUIeLPHW50nb60mZ3bJ8OfShWkUCoIKWIArE73qEjzt0WkK6WLA7a4VQxaPgz597Gv2MGbTI0RVtRwzdEP-5RTVPWA5gRAWN5tSdSr0gjb8XrGOOM_AUnXaYCd40z5gRInEDFtOymY1xu75Bai8fGEV3KDwBhN1jnSJWnTom3FjLwZE0BXjYJxk6d07rwvlkMRwDkc_SaoJQkrY6Boy4AzsUpiMd7W5uebagO2nW_PjNVjtlwukUjxPBSTlD_kUB2r-yRfkOzgdFEUMsJF9cfaxS0VO9gXc1T2u5oLuXcXRRLF8hHF85o88YJE5nTwGHOxdOhduGVzMKeA8uz9WY8Et3E49HDHvULG4WIyvZGCn5nbnRnYOr0MmghLQxrkljNgx3NcwFG4PwZKyVxjlVxVyUsvA56jYFrGpbo3NkhUFMIvBxBrKwbG84IaLKy6h4gnNvIUUiNYkkhn3cR8geGSXYHLQI0dnmBP38MXp-M2OIQNj428rt-5layqz5MMq5ZJ85Mv3vITdu1g_n_KzlvGd3F9BpWz9OhSdKuFmIHYzDrgcnNCFe-QgcZgdmtNocn4m_AcECqTpLTA_yslWKiOKSbWsyO94Eqz4Fy0]--></g></svg>