<svg xmlns="http://www.w3.org/2000/svg" xmlns:xlink="http://www.w3.org/1999/xlink" contentStyleType="text/css" data-diagram-type="CLASS" height="387px" preserveAspectRatio="none" style="width:1865px;height:387px;background:#FFFFFF;" version="1.1" viewBox="0 0 1865 387" width="1865px" zoomAndPan="magnify"><title>Datenatlas - RFF:0060</title><defs/><g><g class="title" data-source-line="1"><text fill="#000000" font-family="sans-serif" font-size="14" font-weight="bold" lengthAdjust="spacing" textLength="175.9707" x="837.8395" y="22.9951">Datenatlas - RFF:0060</text></g><!--class RFF_0060--><g class="entity" data-entity="RFF_0060" data-source-line="2" data-uid="ent0002" id="entity_RFF_0060"><rect fill="#F1F1F1" height="113.1875" rx="2.5" ry="2.5" style="stroke:#181818;stroke-width:0.5;" width="360.3525" x="629.3" y="44.2969"/><ellipse cx="770.9953" cy="60.2969" fill="#ADD1B2" rx="11" ry="11" style="stroke:#181818;stroke-width:1;"/><path d="M773.9641,65.9375 Q773.3859,66.2344 772.7453,66.375 Q772.1047,66.5313 771.4016,66.5313 Q768.9016,66.5313 767.5734,64.8906 Q766.2609,63.2344 766.2609,60.1094 Q766.2609,56.9844 767.5734,55.3281 Q768.9016,53.6719 771.4016,53.6719 Q772.1047,53.6719 772.7453,53.8281 Q773.4016,53.9844 773.9641,54.2813 L773.9641,57 Q773.3391,56.4219 772.7453,56.1563 Q772.1516,55.875 771.5266,55.875 Q770.1828,55.875 769.4953,56.9531 Q768.8078,58.0156 768.8078,60.1094 Q768.8078,62.2031 769.4953,63.2813 Q770.1828,64.3438 771.5266,64.3438 Q772.1516,64.3438 772.7453,64.0781 Q773.3391,63.7969 773.9641,63.2188 L773.9641,65.9375 Z " fill="#000000"/><text fill="#000000" font-family="sans-serif" font-size="14" lengthAdjust="spacing" textLength="68.4619" x="791.4953" y="65.1436">RFF_0060</text><line style="stroke:#181818;stroke-width:0.5;" x1="630.3" x2="988.6525" y1="76.2969" y2="76.2969"/><text fill="#000000" font-family="sans-serif" font-size="14" lengthAdjust="spacing" textLength="174.2344" x="649.3" y="93.292">Name: Referenzangaben</text><text fill="#000000" font-family="sans-serif" font-size="14" lengthAdjust="spacing" textLength="66.6436" x="649.3" y="109.5889">Prozesse:</text><rect fill="none" height="6" style="stroke:#C82930;stroke-width:1;" width="6" x="637.3" y="119.5391"/><text fill="#000000" font-family="sans-serif" font-size="14" lengthAdjust="spacing" textLength="334.3525" x="649.3" y="125.8857">Anforderung und &#220;bermittlung von Messwerten</text><rect fill="none" height="6" style="stroke:#C82930;stroke-width:1;" width="6" x="637.3" y="135.8359"/><text fill="#000000" font-family="sans-serif" font-size="14" lengthAdjust="spacing" textLength="158.0127" x="649.3" y="142.1826">Stammdaten&#228;nderung</text><line style="stroke:#181818;stroke-width:0.5;" x1="630.3" x2="988.6525" y1="149.4844" y2="149.4844"/></g><!--class RFF_0060_msg_1--><g class="entity" data-entity="RFF_0060_msg_1" data-source-line="8" data-uid="ent0003" id="entity_RFF_0060_msg_1"><rect fill="#F1F1F1" height="145.7813" rx="2.5" ry="2.5" style="stroke:#181818;stroke-width:0.5;" width="432.9502" x="7" y="234.4869"/><ellipse cx="158.6313" cy="250.4869" fill="#ADD1B2" rx="11" ry="11" style="stroke:#181818;stroke-width:1;"/><path d="M161.6001,256.1275 Q161.022,256.4244 160.3813,256.565 Q159.7407,256.7213 159.0376,256.7213 Q156.5376,256.7213 155.2095,255.0806 Q153.897,253.4244 153.897,250.2994 Q153.897,247.1744 155.2095,245.5181 Q156.5376,243.8619 159.0376,243.8619 Q159.7407,243.8619 160.3813,244.0181 Q161.0376,244.1744 161.6001,244.4713 L161.6001,247.19 Q160.9751,246.6119 160.3813,246.3463 Q159.7876,246.065 159.1626,246.065 Q157.8188,246.065 157.1313,247.1431 Q156.4438,248.2056 156.4438,250.2994 Q156.4438,252.3931 157.1313,253.4713 Q157.8188,254.5338 159.1626,254.5338 Q159.7876,254.5338 160.3813,254.2681 Q160.9751,253.9869 161.6001,253.4088 L161.6001,256.1275 Z " fill="#000000"/><text fill="#000000" font-family="sans-serif" font-size="14" lengthAdjust="spacing" textLength="121.1875" x="179.1313" y="255.3336">RFF_0060_msg_1</text><line style="stroke:#181818;stroke-width:0.5;" x1="8" x2="438.9502" y1="266.4869" y2="266.4869"/><text fill="#000000" font-family="sans-serif" font-size="14" lengthAdjust="spacing" textLength="172.0264" x="13" y="283.482">Nachricht: MSCONS 2.4c</text><text fill="#000000" font-family="sans-serif" font-size="14" lengthAdjust="spacing" textLength="204.1143" x="13" y="299.7789">Kontext: Nachrichtenstruktur</text><text fill="#000000" font-family="sans-serif" font-size="14" lengthAdjust="spacing" textLength="91.4033" x="13" y="316.0757">Pflichtfeld: Ja</text><text fill="#000000" font-family="sans-serif" font-size="14" lengthAdjust="spacing" textLength="78.1348" x="13" y="332.3726">Codes: RFF</text><text fill="#000000" font-family="sans-serif" font-size="14" lengthAdjust="spacing" textLength="405.4463" x="13" y="348.6695">Prozesse: Anforderung und &#220;bermittlung von Messwerten</text><text fill="#000000" font-family="sans-serif" font-size="14" lengthAdjust="spacing" textLength="420.9502" x="13" y="364.9664">Quelle: MSCONS_MIG_2_4c_au&#223;erordentliche_20240726.pdf</text><line style="stroke:#181818;stroke-width:0.5;" x1="8" x2="438.9502" y1="372.2681" y2="372.2681"/></g><!--class RFF_0060_msg_2--><g class="entity" data-entity="RFF_0060_msg_2" data-source-line="17" data-uid="ent0005" id="entity_RFF_0060_msg_2"><rect fill="#F1F1F1" height="145.7813" rx="2.5" ry="2.5" style="stroke:#181818;stroke-width:0.5;" width="296.8604" x="475.04" y="234.4869"/><ellipse cx="558.6264" cy="250.4869" fill="#ADD1B2" rx="11" ry="11" style="stroke:#181818;stroke-width:1;"/><path d="M561.5952,256.1275 Q561.0171,256.4244 560.3764,256.565 Q559.7358,256.7213 559.0327,256.7213 Q556.5327,256.7213 555.2046,255.0806 Q553.8921,253.4244 553.8921,250.2994 Q553.8921,247.1744 555.2046,245.5181 Q556.5327,243.8619 559.0327,243.8619 Q559.7358,243.8619 560.3764,244.0181 Q561.0327,244.1744 561.5952,244.4713 L561.5952,247.19 Q560.9702,246.6119 560.3764,246.3463 Q559.7827,246.065 559.1577,246.065 Q557.8139,246.065 557.1264,247.1431 Q556.4389,248.2056 556.4389,250.2994 Q556.4389,252.3931 557.1264,253.4713 Q557.8139,254.5338 559.1577,254.5338 Q559.7827,254.5338 560.3764,254.2681 Q560.9702,253.9869 561.5952,253.4088 L561.5952,256.1275 Z " fill="#000000"/><text fill="#000000" font-family="sans-serif" font-size="14" lengthAdjust="spacing" textLength="121.1875" x="579.1264" y="255.3336">RFF_0060_msg_2</text><line style="stroke:#181818;stroke-width:0.5;" x1="476.04" x2="770.9004" y1="266.4869" y2="266.4869"/><text fill="#000000" font-family="sans-serif" font-size="14" lengthAdjust="spacing" textLength="162.7227" x="481.04" y="283.482">Nachricht: PARTIN 1.0e</text><text fill="#000000" font-family="sans-serif" font-size="14" lengthAdjust="spacing" textLength="204.1143" x="481.04" y="299.7789">Kontext: Nachrichtenstruktur</text><text fill="#000000" font-family="sans-serif" font-size="14" lengthAdjust="spacing" textLength="91.4033" x="481.04" y="316.0757">Pflichtfeld: Ja</text><text fill="#000000" font-family="sans-serif" font-size="14" lengthAdjust="spacing" textLength="115.6777" x="481.04" y="332.3726">Codes: RFF, SG1</text><text fill="#000000" font-family="sans-serif" font-size="14" lengthAdjust="spacing" textLength="229.1064" x="481.04" y="348.6695">Prozesse: Stammdaten&#228;nderung</text><text fill="#000000" font-family="sans-serif" font-size="14" lengthAdjust="spacing" textLength="284.8604" x="481.04" y="364.9664">Quelle: PARTIN_MIG_1_0e_20241001.pdf</text><line style="stroke:#181818;stroke-width:0.5;" x1="476.04" x2="770.9004" y1="372.2681" y2="372.2681"/></g><!--class RFF_0060_proc_1--><g class="entity" data-entity="RFF_0060_proc_1" data-source-line="26" data-uid="ent0007" id="entity_RFF_0060_proc_1"><rect fill="#F1F1F1" height="105.1563" rx="2.5" ry="2.5" style="stroke:#181818;stroke-width:0.5;" width="378.2285" x="807.36" y="254.7969"/><ellipse cx="931.0871" cy="274.9297" fill="#ADD1B2" rx="11" ry="11" style="stroke:#181818;stroke-width:1;"/><path d="M934.0558,280.5703 Q933.4777,280.8672 932.8371,281.0078 Q932.1964,281.1641 931.4933,281.1641 Q928.9933,281.1641 927.6652,279.5234 Q926.3527,277.8672 926.3527,274.7422 Q926.3527,271.6172 927.6652,269.9609 Q928.9933,268.3047 931.4933,268.3047 Q932.1964,268.3047 932.8371,268.4609 Q933.4933,268.6172 934.0558,268.9141 L934.0558,271.6328 Q933.4308,271.0547 932.8371,270.7891 Q932.2433,270.5078 931.6183,270.5078 Q930.2746,270.5078 929.5871,271.5859 Q928.8996,272.6484 928.8996,274.7422 Q928.8996,276.8359 929.5871,277.9141 Q930.2746,278.9766 931.6183,278.9766 Q932.2433,278.9766 932.8371,278.7109 Q933.4308,278.4297 934.0558,277.8516 L934.0558,280.5703 Z " fill="#000000"/><text fill="#000000" font-family="sans-serif" font-size="12" font-style="italic" lengthAdjust="spacing" textLength="61.0605" x="982.194" y="270.9355">&#171;process&#187;</text><text fill="#000000" font-family="sans-serif" font-size="14" lengthAdjust="spacing" textLength="122.2744" x="951.5871" y="286.7607">RFF_0060_proc_1</text><line style="stroke:#181818;stroke-width:0.5;" x1="808.36" x2="1184.5885" y1="295.0625" y2="295.0625"/><text fill="#000000" font-family="sans-serif" font-size="14" lengthAdjust="spacing" textLength="334.3525" x="813.36" y="312.0576">Anforderung und &#220;bermittlung von Messwerten</text><text fill="#000000" font-family="sans-serif" font-size="14" lengthAdjust="spacing" textLength="105.0957" x="813.36" y="328.3545">Gesetze: MsbG</text><line style="stroke:#181818;stroke-width:0.5;" x1="808.36" x2="1184.5885" y1="335.6563" y2="335.6563"/><text fill="#000000" font-family="sans-serif" font-size="14" lengthAdjust="spacing" textLength="366.2285" x="813.36" y="352.6514">Zusammenfassung: Wie kann ein Marktpartner (z.B.</text></g><!--class RFF_0060_proc_2--><g class="entity" data-entity="RFF_0060_proc_2" data-source-line="32" data-uid="ent0009" id="entity_RFF_0060_proc_2"><rect fill="#F1F1F1" height="88.8594" rx="2.5" ry="2.5" style="stroke:#181818;stroke-width:0.5;" width="638.3496" x="1220.3" y="262.9469"/><ellipse cx="1474.0876" cy="283.0797" fill="#ADD1B2" rx="11" ry="11" style="stroke:#181818;stroke-width:1;"/><path d="M1477.0563,288.7203 Q1476.4782,289.0172 1475.8376,289.1578 Q1475.197,289.3141 1474.4938,289.3141 Q1471.9938,289.3141 1470.6657,287.6734 Q1469.3532,286.0172 1469.3532,282.8922 Q1469.3532,279.7672 1470.6657,278.1109 Q1471.9938,276.4547 1474.4938,276.4547 Q1475.197,276.4547 1475.8376,276.6109 Q1476.4938,276.7672 1477.0563,277.0641 L1477.0563,279.7828 Q1476.4313,279.2047 1475.8376,278.9391 Q1475.2438,278.6578 1474.6188,278.6578 Q1473.2751,278.6578 1472.5876,279.7359 Q1471.9001,280.7984 1471.9001,282.8922 Q1471.9001,284.9859 1472.5876,286.0641 Q1473.2751,287.1266 1474.6188,287.1266 Q1475.2438,287.1266 1475.8376,286.8609 Q1476.4313,286.5797 1477.0563,286.0016 L1477.0563,288.7203 Z " fill="#000000"/><text fill="#000000" font-family="sans-serif" font-size="12" font-style="italic" lengthAdjust="spacing" textLength="61.0605" x="1525.1945" y="279.0855">&#171;process&#187;</text><text fill="#000000" font-family="sans-serif" font-size="14" lengthAdjust="spacing" textLength="122.2744" x="1494.5876" y="294.9107">RFF_0060_proc_2</text><line style="stroke:#181818;stroke-width:0.5;" x1="1221.3" x2="1857.6496" y1="303.2125" y2="303.2125"/><text fill="#000000" font-family="sans-serif" font-size="14" lengthAdjust="spacing" textLength="158.0127" x="1226.3" y="320.2076">Stammdaten&#228;nderung</text><text fill="#000000" font-family="sans-serif" font-size="14" lengthAdjust="spacing" textLength="626.3496" x="1226.3" y="336.5045">Zusammenfassung: Wie wird eine Stammdaten&#228;nderung an einer Marktlokation, wie z.B.</text><line style="stroke:#181818;stroke-width:0.5;" x1="1221.3" x2="1857.6496" y1="343.8063" y2="343.8063"/></g><!--link RFF_0060 to RFF_0060_msg_1--><g class="link" data-entity-1="RFF_0060" data-entity-2="RFF_0060_msg_1" data-source-line="16" data-uid="lnk4" id="link_RFF_0060_RFF_0060_msg_1"><path codeLine="16" d="M648.96,157.9069 C581.61,181.4069 508.105,207.06 436.435,232.07" fill="none" id="RFF_0060-to-RFF_0060_msg_1" style="stroke:#181818;stroke-width:1;"/><polygon fill="#181818" points="430.77,234.0469,440.5854,234.8582,435.4908,232.3995,437.9496,227.3049,430.77,234.0469" style="stroke:#181818;stroke-width:1;"/><text fill="#000000" font-family="sans-serif" font-size="13" lengthAdjust="spacing" textLength="85.2363" x="553.48" y="200.5538">verwendet in</text></g><!--link RFF_0060 to RFF_0060_msg_2--><g class="link" data-entity-1="RFF_0060" data-entity-2="RFF_0060_msg_2" data-source-line="25" data-uid="lnk6" id="link_RFF_0060_RFF_0060_msg_2"><path codeLine="25" d="M758.65,157.7669 C737.25,181.2969 716.0978,204.5488 693.2978,229.6088" fill="none" id="RFF_0060-to-RFF_0060_msg_2" style="stroke:#181818;stroke-width:1;"/><polygon fill="#181818" points="689.26,234.0469,698.2754,230.0817,692.6248,230.3485,692.358,224.698,689.26,234.0469" style="stroke:#181818;stroke-width:1;"/><text fill="#000000" font-family="sans-serif" font-size="13" lengthAdjust="spacing" textLength="85.2363" x="729.48" y="200.5538">verwendet in</text></g><!--link RFF_0060 to RFF_0060_proc_1--><g class="link" data-entity-1="RFF_0060" data-entity-2="RFF_0060_proc_1" data-source-line="31" data-uid="lnk8" id="link_RFF_0060_RFF_0060_proc_1"><path codeLine="31" d="M860.57,157.7669 C888.15,187.9169 917.9205,220.4795 944.9205,249.9995" fill="none" id="RFF_0060-to-RFF_0060_proc_1" style="stroke:#181818;stroke-width:1;stroke-dasharray:7,7;"/><polygon fill="#181818" points="948.97,254.4269,945.8474,245.0861,945.5955,250.7374,939.9442,250.4854,948.97,254.4269" style="stroke:#181818;stroke-width:1;"/><text fill="#000000" font-family="sans-serif" font-size="13" lengthAdjust="spacing" textLength="91.6221" x="904.48" y="200.5538">eingebettet in</text></g><!--link RFF_0060 to RFF_0060_proc_2--><g class="link" data-entity-1="RFF_0060" data-entity-2="RFF_0060_proc_2" data-source-line="36" data-uid="lnk10" id="link_RFF_0060_RFF_0060_proc_2"><path codeLine="36" d="M989.92,152.4369 C1110.47,186.2069 1261.6724,228.5585 1376.9824,260.8585" fill="none" id="RFF_0060-to-RFF_0060_proc_2" style="stroke:#181818;stroke-width:1;stroke-dasharray:7,7;"/><polygon fill="#181818" points="1382.76,262.4769,1375.1725,256.1975,1377.9453,261.1282,1373.0147,263.901,1382.76,262.4769" style="stroke:#181818;stroke-width:1;"/><text fill="#000000" font-family="sans-serif" font-size="13" lengthAdjust="spacing" textLength="91.6221" x="1175.48" y="200.5538">eingebettet in</text></g><!--SRC=[fP7FQjj04CRlVeevzX2BbJ0fBC6GFyIanMvg5mgzB6jfv0XB8xCxYeD3twJGIz_4BzPPkKrIMyM4t7PczzlvVjzmmIN2bMKaowNrq8VfzRLMwbJrKgbzA4qeuR47CB4LQfXYZWvfOsbXvqZIltNr1hr7BMUGFyufhrs6hg45D9J1ziSSNLKmbw5pNnECvVaQ7RVo89cnhQei6Dd-efsqzttFWwdymiH_dAHthaZlMCDuTlbfCeCa6gHoyR4cnWTfFxr0ykoQ9JSkECtBqCknp3HyiDAvh3FqEinu2V9QXCyDbYN-DMF6DoEJc45gRBFzYIxyH1mceqbKCb3lazDebUL2-9Hllp_S1zLmZswD4WT3GLrX9FjXt9vFlznC88uKlYsC4vYDudyIwThGC_XkS0iU6xN3Z9MAZs8cHp1NhaubYxEpS10dms7B_ChzZD0ZRyA2_7mazRV62mrIBhD4eE5hWR2qH825IArRyiew9dJmRXDTH2yHecXuO4y7tGBdoFn_YkI0eZlJJdFhmcLX27Q9mBR6nMrhlQoNbekQJaI5SDn_Sk3_Dm00]--></g></svg>