<svg xmlns="http://www.w3.org/2000/svg" xmlns:xlink="http://www.w3.org/1999/xlink" contentStyleType="text/css" data-diagram-type="CLASS" height="370px" preserveAspectRatio="none" style="width:1131px;height:370px;background:#FFFFFF;" version="1.1" viewBox="0 0 1131 370" width="1131px" zoomAndPan="magnify"><title>Datenatlas - RFF:RFF</title><defs/><g><g class="title" data-source-line="1"><text fill="#000000" font-family="sans-serif" font-size="14" font-weight="bold" lengthAdjust="spacing" textLength="166.9131" x="475.2067" y="22.9951">Datenatlas - RFF:RFF</text></g><!--class RFF_RFF--><g class="entity" data-entity="RFF_RFF" data-source-line="2" data-uid="ent0002" id="entity_RFF_RFF"><rect fill="#F1F1F1" height="96.8906" rx="2.5" ry="2.5" style="stroke:#181818;stroke-width:0.5;" width="206.3457" x="356.83" y="44.2969"/><ellipse cx="426.4198" cy="60.2969" fill="#ADD1B2" rx="11" ry="11" style="stroke:#181818;stroke-width:1;"/><path d="M429.3886,65.9375 Q428.8105,66.2344 428.1698,66.375 Q427.5292,66.5313 426.8261,66.5313 Q424.3261,66.5313 422.998,64.8906 Q421.6855,63.2344 421.6855,60.1094 Q421.6855,56.9844 422.998,55.3281 Q424.3261,53.6719 426.8261,53.6719 Q427.5292,53.6719 428.1698,53.8281 Q428.8261,53.9844 429.3886,54.2813 L429.3886,57 Q428.7636,56.4219 428.1698,56.1563 Q427.5761,55.875 426.9511,55.875 Q425.6073,55.875 424.9198,56.9531 Q424.2323,58.0156 424.2323,60.1094 Q424.2323,62.2031 424.9198,63.2813 Q425.6073,64.3438 426.9511,64.3438 Q427.5761,64.3438 428.1698,64.0781 Q428.7636,63.7969 429.3886,63.2188 L429.3886,65.9375 Z " fill="#000000"/><text fill="#000000" font-family="sans-serif" font-size="14" lengthAdjust="spacing" textLength="58.666" x="446.9198" y="65.1436">RFF_RFF</text><line style="stroke:#181818;stroke-width:0.5;" x1="357.83" x2="562.1757" y1="76.2969" y2="76.2969"/><text fill="#000000" font-family="sans-serif" font-size="14" lengthAdjust="spacing" textLength="112.9434" x="376.83" y="93.292">Name: Referenz</text><text fill="#000000" font-family="sans-serif" font-size="14" lengthAdjust="spacing" textLength="66.6436" x="376.83" y="109.5889">Prozesse:</text><rect fill="none" height="6" style="stroke:#C82930;stroke-width:1;" width="6" x="364.83" y="119.5391"/><text fill="#000000" font-family="sans-serif" font-size="14" lengthAdjust="spacing" textLength="180.3457" x="376.83" y="125.8857">Netznutzungsabrechnung</text><line style="stroke:#181818;stroke-width:0.5;" x1="357.83" x2="562.1757" y1="133.1875" y2="133.1875"/></g><!--class RFF_RFF_msg_1--><g class="entity" data-entity="RFF_RFF_msg_1" data-source-line="7" data-uid="ent0003" id="entity_RFF_RFF_msg_1"><rect fill="#F1F1F1" height="145.7813" rx="2.5" ry="2.5" style="stroke:#181818;stroke-width:0.5;" width="330.0146" x="7" y="218.1869"/><ellipse cx="112.0615" cy="234.1869" fill="#ADD1B2" rx="11" ry="11" style="stroke:#181818;stroke-width:1;"/><path d="M115.0303,239.8275 Q114.4521,240.1244 113.8115,240.265 Q113.1709,240.4213 112.4678,240.4213 Q109.9678,240.4213 108.6396,238.7806 Q107.3271,237.1244 107.3271,233.9994 Q107.3271,230.8744 108.6396,229.2181 Q109.9678,227.5619 112.4678,227.5619 Q113.1709,227.5619 113.8115,227.7181 Q114.4678,227.8744 115.0303,228.1713 L115.0303,230.89 Q114.4053,230.3119 113.8115,230.0463 Q113.2178,229.765 112.5928,229.765 Q111.249,229.765 110.5615,230.8431 Q109.874,231.9056 109.874,233.9994 Q109.874,236.0931 110.5615,237.1713 Q111.249,238.2338 112.5928,238.2338 Q113.2178,238.2338 113.8115,237.9681 Q114.4053,237.6869 115.0303,237.1088 L115.0303,239.8275 Z " fill="#000000"/><text fill="#000000" font-family="sans-serif" font-size="14" lengthAdjust="spacing" textLength="111.3916" x="132.5615" y="239.0336">RFF_RFF_msg_1</text><line style="stroke:#181818;stroke-width:0.5;" x1="8" x2="336.0146" y1="250.1869" y2="250.1869"/><text fill="#000000" font-family="sans-serif" font-size="14" lengthAdjust="spacing" textLength="162.2988" x="13" y="267.182">Nachricht: PRICAT 2.0d</text><text fill="#000000" font-family="sans-serif" font-size="14" lengthAdjust="spacing" textLength="170.3447" x="13" y="283.4789">Kontext: Segmentlayout</text><text fill="#000000" font-family="sans-serif" font-size="14" lengthAdjust="spacing" textLength="91.4033" x="13" y="299.7757">Pflichtfeld: Ja</text><text fill="#000000" font-family="sans-serif" font-size="14" lengthAdjust="spacing" textLength="318.0146" x="13" y="316.0726">Codes: 35, 70, 99, EDI, ID, MP, RFF, SG1, Z56</text><text fill="#000000" font-family="sans-serif" font-size="14" lengthAdjust="spacing" textLength="251.4395" x="13" y="332.3695">Prozesse: Netznutzungsabrechnung</text><text fill="#000000" font-family="sans-serif" font-size="14" lengthAdjust="spacing" textLength="284.4365" x="13" y="348.6664">Quelle: PRICAT_MIG_2_0d_20240619.pdf</text><line style="stroke:#181818;stroke-width:0.5;" x1="8" x2="336.0146" y1="355.9681" y2="355.9681"/></g><!--class RFF_RFF_proc_1--><g class="entity" data-entity="RFF_RFF_proc_1" data-source-line="16" data-uid="ent0005" id="entity_RFF_RFF_proc_1"><rect fill="#F1F1F1" height="105.1563" rx="2.5" ry="2.5" style="stroke:#181818;stroke-width:0.5;" width="752.6465" x="371.68" y="238.4969"/><ellipse cx="687.514" cy="258.6297" fill="#ADD1B2" rx="11" ry="11" style="stroke:#181818;stroke-width:1;"/><path d="M690.4827,264.2703 Q689.9046,264.5672 689.264,264.7078 Q688.6234,264.8641 687.9202,264.8641 Q685.4202,264.8641 684.0921,263.2234 Q682.7796,261.5672 682.7796,258.4422 Q682.7796,255.3172 684.0921,253.6609 Q685.4202,252.0047 687.9202,252.0047 Q688.6234,252.0047 689.264,252.1609 Q689.9202,252.3172 690.4827,252.6141 L690.4827,255.3328 Q689.8577,254.7547 689.264,254.4891 Q688.6702,254.2078 688.0452,254.2078 Q686.7015,254.2078 686.014,255.2859 Q685.3265,256.3484 685.3265,258.4422 Q685.3265,260.5359 686.014,261.6141 Q686.7015,262.6766 688.0452,262.6766 Q688.6702,262.6766 689.264,262.4109 Q689.8577,262.1297 690.4827,261.5516 L690.4827,264.2703 Z " fill="#000000"/><text fill="#000000" font-family="sans-serif" font-size="12" font-style="italic" lengthAdjust="spacing" textLength="61.0605" x="733.723" y="254.6355">&#171;process&#187;</text><text fill="#000000" font-family="sans-serif" font-size="14" lengthAdjust="spacing" textLength="112.4785" x="708.014" y="270.4607">RFF_RFF_proc_1</text><line style="stroke:#181818;stroke-width:0.5;" x1="372.68" x2="1123.3265" y1="278.7625" y2="278.7625"/><text fill="#000000" font-family="sans-serif" font-size="14" lengthAdjust="spacing" textLength="180.3457" x="377.68" y="295.7576">Netznutzungsabrechnung</text><text fill="#000000" font-family="sans-serif" font-size="14" lengthAdjust="spacing" textLength="218.0938" x="377.68" y="312.0545">Gesetze: StromNEV, StromNZV</text><text fill="#000000" font-family="sans-serif" font-size="14" lengthAdjust="spacing" textLength="740.6465" x="377.68" y="328.3514">Zusammenfassung: Wie funktioniert die Netznutzungsabrechnung zwischen Netzbetreiber und Lieferant?</text><line style="stroke:#181818;stroke-width:0.5;" x1="372.68" x2="1123.3265" y1="335.6531" y2="335.6531"/></g><!--link RFF_RFF to RFF_RFF_msg_1--><g class="link" data-entity-1="RFF_RFF" data-entity-2="RFF_RFF_msg_1" data-source-line="15" data-uid="lnk4" id="link_RFF_RFF_RFF_RFF_msg_1"><path codeLine="15" d="M389.92,141.5169 C356.29,164.4469 320.2379,189.0277 282.8979,214.4777" fill="none" id="RFF_RFF-to-RFF_RFF_msg_1" style="stroke:#181818;stroke-width:1;"/><polygon fill="#181818" points="277.94,217.8569,287.6297,216.0934,282.0716,215.0409,283.1241,209.4828,277.94,217.8569" style="stroke:#181818;stroke-width:1;"/><text fill="#000000" font-family="sans-serif" font-size="13" lengthAdjust="spacing" textLength="85.2363" x="343.01" y="184.2538">verwendet in</text></g><!--link RFF_RFF to RFF_RFF_proc_1--><g class="link" data-entity-1="RFF_RFF" data-entity-2="RFF_RFF_proc_1" data-source-line="21" data-uid="lnk6" id="link_RFF_RFF_RFF_RFF_proc_1"><path codeLine="21" d="M530.09,141.5169 C572.97,170.7469 622.8725,204.7671 666.8325,234.7371" fill="none" id="RFF_RFF-to-RFF_RFF_proc_1" style="stroke:#181818;stroke-width:1;stroke-dasharray:7,7;"/><polygon fill="#181818" points="671.79,238.1169,666.6069,229.7422,667.6587,235.3004,662.1005,236.3522,671.79,238.1169" style="stroke:#181818;stroke-width:1;"/><text fill="#000000" font-family="sans-serif" font-size="13" lengthAdjust="spacing" textLength="91.6221" x="597.01" y="184.2538">eingebettet in</text></g><!--SRC=[TL7RQi9047ttA-O3rX3JQd6HbEADj5Mi5Wk-X3MP94kJZUnkUadfltTY5QpKXuKpPsxdp5ffSuIHiAY4pOM1DYmd4qwl5L5ecYYa1ryjWBaeaCCI4zIeQY8MkgpH6EI4WLhdQ6jLsRfIgH5RZL6c2BQ-_yuA2vE6dSF4ADCooYo7nJ8OtZs3vxWn9HvAPV63w1Mc1IgIzbbMjbcPv4rzWddCuLuGConZD1okkWnkN0RzFeFnA60GZ1ZC5gpPoc0rxJ3OT7kdeY_91NYgCC_ng2cS1TFG2zquz5plskrr-iukJiZLyJRjjd_cZSCRwdTKCLgGwip-JfSHrGm63I0bllzxYqjgfcWeHN9MLfV5VBnc1xHPKtPJ6L7GYH9QGVKSNYH2KgbNAqibKLk8YVX_EDJlqaGPgdr-YrQZtAA6IiNmA9j_5ihUdZXr7F_S1WUKAaLgjdkpFm00]--></g></svg>