<svg xmlns="http://www.w3.org/2000/svg" xmlns:xlink="http://www.w3.org/1999/xlink" contentStyleType="text/css" data-diagram-type="CLASS" height="403px" preserveAspectRatio="none" style="width:3622px;height:403px;background:#FFFFFF;" version="1.1" viewBox="0 0 3622 403" width="3622px" zoomAndPan="magnify"><title>Datenatlas - RFF:0510</title><defs/><g><g class="title" data-source-line="1"><text fill="#000000" font-family="sans-serif" font-size="14" font-weight="bold" lengthAdjust="spacing" textLength="175.9707" x="1716.3727" y="22.9951">Datenatlas - RFF:0510</text></g><!--class RFF_0510--><g class="entity" data-entity="RFF_0510" data-source-line="2" data-uid="ent0002" id="entity_RFF_0510"><rect fill="#F1F1F1" height="129.4844" rx="2.5" ry="2.5" style="stroke:#181818;stroke-width:0.5;" width="464.7373" x="1379.35" y="44.2969"/><ellipse cx="1573.2377" cy="60.2969" fill="#ADD1B2" rx="11" ry="11" style="stroke:#181818;stroke-width:1;"/><path d="M1576.2064,65.9375 Q1575.6283,66.2344 1574.9877,66.375 Q1574.3471,66.5313 1573.6439,66.5313 Q1571.1439,66.5313 1569.8158,64.8906 Q1568.5033,63.2344 1568.5033,60.1094 Q1568.5033,56.9844 1569.8158,55.3281 Q1571.1439,53.6719 1573.6439,53.6719 Q1574.3471,53.6719 1574.9877,53.8281 Q1575.6439,53.9844 1576.2064,54.2813 L1576.2064,57 Q1575.5814,56.4219 1574.9877,56.1563 Q1574.3939,55.875 1573.7689,55.875 Q1572.4252,55.875 1571.7377,56.9531 Q1571.0502,58.0156 1571.0502,60.1094 Q1571.0502,62.2031 1571.7377,63.2813 Q1572.4252,64.3438 1573.7689,64.3438 Q1574.3939,64.3438 1574.9877,64.0781 Q1575.5814,63.7969 1576.2064,63.2188 L1576.2064,65.9375 Z " fill="#000000"/><text fill="#000000" font-family="sans-serif" font-size="14" lengthAdjust="spacing" textLength="68.4619" x="1593.7377" y="65.1436">RFF_0510</text><line style="stroke:#181818;stroke-width:0.5;" x1="1380.35" x2="1843.0873" y1="76.2969" y2="76.2969"/><text fill="#000000" font-family="sans-serif" font-size="14" lengthAdjust="spacing" textLength="438.7373" x="1399.35" y="93.292">Name: MP - ID des NB des Vorgangs der Anmeldung nach WiM</text><text fill="#000000" font-family="sans-serif" font-size="14" lengthAdjust="spacing" textLength="66.6436" x="1399.35" y="109.5889">Prozesse:</text><rect fill="none" height="6" style="stroke:#C82930;stroke-width:1;" width="6" x="1387.35" y="119.5391"/><text fill="#000000" font-family="sans-serif" font-size="14" lengthAdjust="spacing" textLength="223.2822" x="1399.35" y="125.8857">Messstellenbetriebsabrechnung</text><line style="stroke:#181818;stroke-width:0.5;" x1="1380.35" x2="1843.0873" y1="133.1875" y2="133.1875"/><rect fill="#F24D5C" height="6" style="stroke:#C82930;stroke-width:1;" width="6" x="1387.35" y="143.8359"/><text fill="#000000" font-family="sans-serif" font-size="14" lengthAdjust="spacing" textLength="311.0557" x="1399.35" y="150.1826">Z&#228;hlerwechsel und Ger&#228;te&#252;bernahme (WiM)</text><rect fill="#F24D5C" height="6" style="stroke:#C82930;stroke-width:1;" width="6" x="1387.35" y="160.1328"/><text fill="#000000" font-family="sans-serif" font-size="14" lengthAdjust="spacing" textLength="348.2021" x="1399.35" y="166.4795">Bestellung einer technischen Konfiguration (MSB)</text></g><!--class RFF_0510_msg_1--><g class="entity" data-entity="RFF_0510_msg_1" data-source-line="9" data-uid="ent0003" id="entity_RFF_0510_msg_1"><rect fill="#F1F1F1" height="145.7813" rx="2.5" ry="2.5" style="stroke:#181818;stroke-width:0.5;" width="983.4346" x="7" y="250.7869"/><ellipse cx="433.8735" cy="266.7869" fill="#ADD1B2" rx="11" ry="11" style="stroke:#181818;stroke-width:1;"/><path d="M436.8423,272.4275 Q436.2642,272.7244 435.6235,272.865 Q434.9829,273.0213 434.2798,273.0213 Q431.7798,273.0213 430.4517,271.3806 Q429.1392,269.7244 429.1392,266.5994 Q429.1392,263.4744 430.4517,261.8181 Q431.7798,260.1619 434.2798,260.1619 Q434.9829,260.1619 435.6235,260.3181 Q436.2798,260.4744 436.8423,260.7713 L436.8423,263.49 Q436.2173,262.9119 435.6235,262.6463 Q435.0298,262.365 434.4048,262.365 Q433.061,262.365 432.3735,263.4431 Q431.686,264.5056 431.686,266.5994 Q431.686,268.6931 432.3735,269.7713 Q433.061,270.8338 434.4048,270.8338 Q435.0298,270.8338 435.6235,270.5681 Q436.2173,270.2869 436.8423,269.7088 L436.8423,272.4275 Z " fill="#000000"/><text fill="#000000" font-family="sans-serif" font-size="14" lengthAdjust="spacing" textLength="121.1875" x="454.3735" y="271.6336">RFF_0510_msg_1</text><line style="stroke:#181818;stroke-width:0.5;" x1="8" x2="989.4346" y1="282.7869" y2="282.7869"/><text fill="#000000" font-family="sans-serif" font-size="14" lengthAdjust="spacing" textLength="170.1055" x="13" y="299.782">Nachricht: REQOTE 1.3b</text><text fill="#000000" font-family="sans-serif" font-size="14" lengthAdjust="spacing" textLength="204.1143" x="13" y="316.0789">Kontext: Nachrichtenstruktur</text><text fill="#000000" font-family="sans-serif" font-size="14" lengthAdjust="spacing" textLength="91.4033" x="13" y="332.3757">Pflichtfeld: Ja</text><text fill="#000000" font-family="sans-serif" font-size="14" lengthAdjust="spacing" textLength="187.0586" x="13" y="348.6726">Codes: 99, ID, MP, NB, RFF</text><text fill="#000000" font-family="sans-serif" font-size="14" lengthAdjust="spacing" textLength="292.2432" x="13" y="364.9695">Quelle: REQOTE_MIG_1_3b_20241001.pdf</text><line style="stroke:#181818;stroke-width:0.5;" x1="8" x2="989.4346" y1="372.2713" y2="372.2713"/><text fill="#000000" font-family="sans-serif" font-size="14" lengthAdjust="spacing" textLength="971.4346" x="13" y="389.2664">Prozesse: Z&#228;hlerwechsel und Ger&#228;te&#252;bernahme (WiM), Messstellenbetriebsabrechnung, Bestellung einer technischen Konfiguration (MSB)</text></g><!--class RFF_0510_proc_1--><g class="entity" data-entity="RFF_0510_proc_1" data-source-line="18" data-uid="ent0005" id="entity_RFF_0510_proc_1"><rect fill="#F1F1F1" height="105.1563" rx="2.5" ry="2.5" style="stroke:#181818;stroke-width:0.5;" width="528.5234" x="1025.46" y="271.0969"/><ellipse cx="1224.3345" cy="291.2297" fill="#ADD1B2" rx="11" ry="11" style="stroke:#181818;stroke-width:1;"/><path d="M1227.3033,296.8703 Q1226.7251,297.1672 1226.0845,297.3078 Q1225.4439,297.4641 1224.7408,297.4641 Q1222.2408,297.4641 1220.9126,295.8234 Q1219.6001,294.1672 1219.6001,291.0422 Q1219.6001,287.9172 1220.9126,286.2609 Q1222.2408,284.6047 1224.7408,284.6047 Q1225.4439,284.6047 1226.0845,284.7609 Q1226.7408,284.9172 1227.3033,285.2141 L1227.3033,287.9328 Q1226.6783,287.3547 1226.0845,287.0891 Q1225.4908,286.8078 1224.8658,286.8078 Q1223.522,286.8078 1222.8345,287.8859 Q1222.147,288.9484 1222.147,291.0422 Q1222.147,293.1359 1222.8345,294.2141 Q1223.522,295.2766 1224.8658,295.2766 Q1225.4908,295.2766 1226.0845,295.0109 Q1226.6783,294.7297 1227.3033,294.1516 L1227.3033,296.8703 Z " fill="#000000"/><text fill="#000000" font-family="sans-serif" font-size="12" font-style="italic" lengthAdjust="spacing" textLength="61.0605" x="1275.4414" y="287.2355">&#171;process&#187;</text><text fill="#000000" font-family="sans-serif" font-size="14" lengthAdjust="spacing" textLength="122.2744" x="1244.8345" y="303.0607">RFF_0510_proc_1</text><line style="stroke:#181818;stroke-width:0.5;" x1="1026.46" x2="1552.9834" y1="311.3625" y2="311.3625"/><text fill="#000000" font-family="sans-serif" font-size="14" lengthAdjust="spacing" textLength="105.0957" x="1031.46" y="328.3576">Gesetze: MsbG</text><text fill="#000000" font-family="sans-serif" font-size="14" lengthAdjust="spacing" textLength="516.5234" x="1031.46" y="344.6545">Zusammenfassung: Erl&#228;utere den Gesch&#228;ftsprozess 'Z&#228;hlerwechsel' bzw.</text><line style="stroke:#181818;stroke-width:0.5;" x1="1026.46" x2="1552.9834" y1="351.9562" y2="351.9562"/><text fill="#000000" font-family="sans-serif" font-size="14" lengthAdjust="spacing" textLength="311.0557" x="1031.46" y="368.9514">Z&#228;hlerwechsel und Ger&#228;te&#252;bernahme (WiM)</text></g><!--class RFF_0510_proc_2--><g class="entity" data-entity="RFF_0510_proc_2" data-source-line="24" data-uid="ent0007" id="entity_RFF_0510_proc_2"><rect fill="#F1F1F1" height="105.1563" rx="2.5" ry="2.5" style="stroke:#181818;stroke-width:0.5;" width="690.2275" x="1588.6" y="271.0969"/><ellipse cx="1868.3266" cy="291.2297" fill="#ADD1B2" rx="11" ry="11" style="stroke:#181818;stroke-width:1;"/><path d="M1871.2953,296.8703 Q1870.7172,297.1672 1870.0766,297.3078 Q1869.4359,297.4641 1868.7328,297.4641 Q1866.2328,297.4641 1864.9047,295.8234 Q1863.5922,294.1672 1863.5922,291.0422 Q1863.5922,287.9172 1864.9047,286.2609 Q1866.2328,284.6047 1868.7328,284.6047 Q1869.4359,284.6047 1870.0766,284.7609 Q1870.7328,284.9172 1871.2953,285.2141 L1871.2953,287.9328 Q1870.6703,287.3547 1870.0766,287.0891 Q1869.4828,286.8078 1868.8578,286.8078 Q1867.5141,286.8078 1866.8266,287.8859 Q1866.1391,288.9484 1866.1391,291.0422 Q1866.1391,293.1359 1866.8266,294.2141 Q1867.5141,295.2766 1868.8578,295.2766 Q1869.4828,295.2766 1870.0766,295.0109 Q1870.6703,294.7297 1871.2953,294.1516 L1871.2953,296.8703 Z " fill="#000000"/><text fill="#000000" font-family="sans-serif" font-size="12" font-style="italic" lengthAdjust="spacing" textLength="61.0605" x="1919.4335" y="287.2355">&#171;process&#187;</text><text fill="#000000" font-family="sans-serif" font-size="14" lengthAdjust="spacing" textLength="122.2744" x="1888.8266" y="303.0607">RFF_0510_proc_2</text><line style="stroke:#181818;stroke-width:0.5;" x1="1589.6" x2="2277.8275" y1="311.3625" y2="311.3625"/><text fill="#000000" font-family="sans-serif" font-size="14" lengthAdjust="spacing" textLength="223.2822" x="1594.6" y="328.3576">Messstellenbetriebsabrechnung</text><text fill="#000000" font-family="sans-serif" font-size="14" lengthAdjust="spacing" textLength="105.0957" x="1594.6" y="344.6545">Gesetze: MsbG</text><text fill="#000000" font-family="sans-serif" font-size="14" lengthAdjust="spacing" textLength="678.2275" x="1594.6" y="360.9514">Zusammenfassung: Beschreibe den Prozess der Abrechnung von Messstellenbetriebsleistungen.</text><line style="stroke:#181818;stroke-width:0.5;" x1="1589.6" x2="2277.8275" y1="368.2531" y2="368.2531"/></g><!--class RFF_0510_proc_3--><g class="entity" data-entity="RFF_0510_proc_3" data-source-line="30" data-uid="ent0009" id="entity_RFF_0510_proc_3"><rect fill="#F1F1F1" height="105.1563" rx="2.5" ry="2.5" style="stroke:#181818;stroke-width:0.5;" width="1301.9961" x="2313.72" y="271.0969"/><ellipse cx="2899.3308" cy="291.2297" fill="#ADD1B2" rx="11" ry="11" style="stroke:#181818;stroke-width:1;"/><path d="M2902.2996,296.8703 Q2901.7215,297.1672 2901.0808,297.3078 Q2900.4402,297.4641 2899.7371,297.4641 Q2897.2371,297.4641 2895.909,295.8234 Q2894.5965,294.1672 2894.5965,291.0422 Q2894.5965,287.9172 2895.909,286.2609 Q2897.2371,284.6047 2899.7371,284.6047 Q2900.4402,284.6047 2901.0808,284.7609 Q2901.7371,284.9172 2902.2996,285.2141 L2902.2996,287.9328 Q2901.6746,287.3547 2901.0808,287.0891 Q2900.4871,286.8078 2899.8621,286.8078 Q2898.5183,286.8078 2897.8308,287.8859 Q2897.1433,288.9484 2897.1433,291.0422 Q2897.1433,293.1359 2897.8308,294.2141 Q2898.5183,295.2766 2899.8621,295.2766 Q2900.4871,295.2766 2901.0808,295.0109 Q2901.6746,294.7297 2902.2996,294.1516 L2902.2996,296.8703 Z " fill="#000000"/><text fill="#000000" font-family="sans-serif" font-size="12" font-style="italic" lengthAdjust="spacing" textLength="61.0605" x="2950.4378" y="287.2355">&#171;process&#187;</text><text fill="#000000" font-family="sans-serif" font-size="14" lengthAdjust="spacing" textLength="122.2744" x="2919.8308" y="303.0607">RFF_0510_proc_3</text><line style="stroke:#181818;stroke-width:0.5;" x1="2314.72" x2="3614.7161" y1="311.3625" y2="311.3625"/><text fill="#000000" font-family="sans-serif" font-size="14" lengthAdjust="spacing" textLength="156.4063" x="2319.72" y="328.3576">Gesetze: MsbG, EnWG</text><text fill="#000000" font-family="sans-serif" font-size="14" lengthAdjust="spacing" textLength="1289.9961" x="2319.72" y="344.6545">Zusammenfassung: Erl&#228;utere den Prozess zur Bestellung einer spezifischen technischen Konfiguration bei einem Messstellenbetreiber, beispielsweise f&#252;r ein intelligentes Messsystem.</text><line style="stroke:#181818;stroke-width:0.5;" x1="2314.72" x2="3614.7161" y1="351.9562" y2="351.9562"/><text fill="#000000" font-family="sans-serif" font-size="14" lengthAdjust="spacing" textLength="348.2021" x="2319.72" y="368.9514">Bestellung einer technischen Konfiguration (MSB)</text></g><!--link RFF_0510 to RFF_0510_msg_1--><g class="link" data-entity-1="RFF_0510" data-entity-2="RFF_0510_msg_1" data-source-line="17" data-uid="lnk4" id="link_RFF_0510_RFF_0510_msg_1"><path codeLine="17" d="M1379.07,154.4869 C1234.02,182.1969 1049.8334,217.391 883.4234,249.181" fill="none" id="RFF_0510-to-RFF_0510_msg_1" style="stroke:#181818;stroke-width:1;"/><polygon fill="#181818" points="877.53,250.3069,887.1207,252.5471,882.4412,249.3687,885.6196,244.6892,877.53,250.3069" style="stroke:#181818;stroke-width:1;"/><text fill="#000000" font-family="sans-serif" font-size="13" lengthAdjust="spacing" textLength="85.2363" x="1089.72" y="216.8538">verwendet in</text></g><!--link RFF_0510 to RFF_0510_proc_1--><g class="link" data-entity-1="RFF_0510" data-entity-2="RFF_0510_proc_1" data-source-line="23" data-uid="lnk6" id="link_RFF_0510_RFF_0510_proc_1"><path codeLine="23" d="M1514.67,174.1269 C1467.91,205.0069 1417.5666,238.2502 1373.4766,267.3702" fill="none" id="RFF_0510-to-RFF_0510_proc_1" style="stroke:#181818;stroke-width:1;stroke-dasharray:7,7;"/><polygon fill="#181818" points="1368.47,270.6769,1378.1843,269.0546,1372.6422,267.9213,1373.7754,262.3791,1368.47,270.6769" style="stroke:#181818;stroke-width:1;"/><text fill="#000000" font-family="sans-serif" font-size="13" lengthAdjust="spacing" textLength="91.6221" x="1461.72" y="216.8538">eingebettet in</text></g><!--link RFF_0510 to RFF_0510_proc_2--><g class="link" data-entity-1="RFF_0510" data-entity-2="RFF_0510_proc_2" data-source-line="29" data-uid="lnk8" id="link_RFF_0510_RFF_0510_proc_2"><path codeLine="29" d="M1708.76,174.1269 C1755.52,205.0069 1805.8631,238.2507 1849.9631,267.3707" fill="none" id="RFF_0510-to-RFF_0510_proc_2" style="stroke:#181818;stroke-width:1;stroke-dasharray:7,7;"/><polygon fill="#181818" points="1854.97,270.6769,1849.6637,262.3797,1850.7976,267.9217,1845.2555,269.0556,1854.97,270.6769" style="stroke:#181818;stroke-width:1;"/><text fill="#000000" font-family="sans-serif" font-size="13" lengthAdjust="spacing" textLength="91.6221" x="1773.72" y="216.8538">eingebettet in</text></g><!--link RFF_0510 to RFF_0510_proc_3--><g class="link" data-entity-1="RFF_0510" data-entity-2="RFF_0510_proc_3" data-source-line="35" data-uid="lnk10" id="link_RFF_0510_RFF_0510_proc_3"><path codeLine="35" d="M1844.31,146.5969 C2061.81,180.7769 2383.0028,231.2553 2627.7028,269.7153" fill="none" id="RFF_0510-to-RFF_0510_proc_3" style="stroke:#181818;stroke-width:1;stroke-dasharray:7,7;"/><polygon fill="#181818" points="2633.63,270.6469,2625.3602,265.298,2628.6906,269.8705,2624.1181,273.201,2633.63,270.6469" style="stroke:#181818;stroke-width:1;"/><text fill="#000000" font-family="sans-serif" font-size="13" lengthAdjust="spacing" textLength="91.6221" x="2289.72" y="216.8538">eingebettet in</text></g><!--SRC=[dPJ1Rfj048RlVegv9P4m0hiz14MMwiQnqiffabQDr0jQy02hBWlQNUAMgc_ZnyYD5-ii9bPYcZhkYTsT-NVc_nWmt0Y4SsPGCYEOXY7SNbm4tblV6yIqrtORsYty6W1SiHm3M5nJskKvB573rRHzV2rKocIgQQFWdSnHB2kPWcHn1dTyGT9hLTIeDGQq1j9_QzQPGBN2EDCee99BcADgrWQRXmYLP5cES4pQaqwm8BKsA0JA28tY66aMAP9BgjJbJB7DiAMHIsh5s3ZNSOOIFXOouMcbcE65XEF5v-d9uFUEop3NQUXtNkDCyJWp0TpERZvzcO7lZYCAq3q6Vz3nDWEbDghwRYfbZIR2dYM4880FZ4xU5uGeWDDJXwWvXCyXR8wj-PJB0KISVyDm3kS0S5FPsnwzXelBUUY7uoWSUQCtlkVvRhbC2DTs78R3oIwr0Evj-tA91hZS9Lkg8gQaipExeFOdanRpGNCmHuscjYEeexaLLvhbESg4Af7P06PADElAe4AQH6dpuwnP9qQN6ynmzBpU4KJrodtgotKdlPu3Ip558crUjZRgMTitiNlTJ6tx2dcqSTEDokORsru4z_GM_r9A8DU6uYZt-1kzpj-uv-y_fkoPPGTcykurh_7HU5sfVb5TOisJhkhB7KJ8Mq6-oyhYLOwDwvAZq2jQ82JDWxBvHCEcSi9ew3_NQd-IEjy3TTo3-WS0]--></g></svg>