<svg xmlns="http://www.w3.org/2000/svg" xmlns:xlink="http://www.w3.org/1999/xlink" contentStyleType="text/css" data-diagram-type="CLASS" height="387px" preserveAspectRatio="none" style="width:2552px;height:387px;background:#FFFFFF;" version="1.1" viewBox="0 0 2552 387" width="2552px" zoomAndPan="magnify"><title>Datenatlas - RFF:0130</title><defs/><g><g class="title" data-source-line="1"><text fill="#000000" font-family="sans-serif" font-size="14" font-weight="bold" lengthAdjust="spacing" textLength="175.9707" x="1181.4784" y="22.9951">Datenatlas - RFF:0130</text></g><!--class RFF_0130--><g class="entity" data-entity="RFF_0130" data-source-line="2" data-uid="ent0002" id="entity_RFF_0130"><rect fill="#F1F1F1" height="113.1875" rx="2.5" ry="2.5" style="stroke:#181818;stroke-width:0.5;" width="375.2207" x="927.2" y="44.2969"/><ellipse cx="1076.3294" cy="60.2969" fill="#ADD1B2" rx="11" ry="11" style="stroke:#181818;stroke-width:1;"/><path d="M1079.2981,65.9375 Q1078.72,66.2344 1078.0794,66.375 Q1077.4388,66.5313 1076.7356,66.5313 Q1074.2356,66.5313 1072.9075,64.8906 Q1071.595,63.2344 1071.595,60.1094 Q1071.595,56.9844 1072.9075,55.3281 Q1074.2356,53.6719 1076.7356,53.6719 Q1077.4388,53.6719 1078.0794,53.8281 Q1078.7356,53.9844 1079.2981,54.2813 L1079.2981,57 Q1078.6731,56.4219 1078.0794,56.1563 Q1077.4856,55.875 1076.8606,55.875 Q1075.5169,55.875 1074.8294,56.9531 Q1074.1419,58.0156 1074.1419,60.1094 Q1074.1419,62.2031 1074.8294,63.2813 Q1075.5169,64.3438 1076.8606,64.3438 Q1077.4856,64.3438 1078.0794,64.0781 Q1078.6731,63.7969 1079.2981,63.2188 L1079.2981,65.9375 Z " fill="#000000"/><text fill="#000000" font-family="sans-serif" font-size="14" lengthAdjust="spacing" textLength="68.4619" x="1096.8294" y="65.1436">RFF_0130</text><line style="stroke:#181818;stroke-width:0.5;" x1="928.2" x2="1301.4207" y1="76.2969" y2="76.2969"/><text fill="#000000" font-family="sans-serif" font-size="14" lengthAdjust="spacing" textLength="349.2207" x="947.2" y="93.292">Name: Referenz auf Ursprungsrechnungsnummer</text><text fill="#000000" font-family="sans-serif" font-size="14" lengthAdjust="spacing" textLength="66.6436" x="947.2" y="109.5889">Prozesse:</text><rect fill="none" height="6" style="stroke:#C82930;stroke-width:1;" width="6" x="935.2" y="119.5391"/><text fill="#000000" font-family="sans-serif" font-size="14" lengthAdjust="spacing" textLength="180.3457" x="947.2" y="125.8857">Netznutzungsabrechnung</text><rect fill="none" height="6" style="stroke:#C82930;stroke-width:1;" width="6" x="935.2" y="135.8359"/><text fill="#000000" font-family="sans-serif" font-size="14" lengthAdjust="spacing" textLength="223.2822" x="947.2" y="142.1826">Messstellenbetriebsabrechnung</text><line style="stroke:#181818;stroke-width:0.5;" x1="928.2" x2="1301.4207" y1="149.4844" y2="149.4844"/></g><!--class RFF_0130_msg_1--><g class="entity" data-entity="RFF_0130_msg_1" data-source-line="8" data-uid="ent0003" id="entity_RFF_0130_msg_1"><rect fill="#F1F1F1" height="145.7813" rx="2.5" ry="2.5" style="stroke:#181818;stroke-width:0.5;" width="495.6221" x="7" y="234.4869"/><ellipse cx="189.9673" cy="250.4869" fill="#ADD1B2" rx="11" ry="11" style="stroke:#181818;stroke-width:1;"/><path d="M192.936,256.1275 Q192.3579,256.4244 191.7173,256.565 Q191.0767,256.7213 190.3735,256.7213 Q187.8735,256.7213 186.5454,255.0806 Q185.2329,253.4244 185.2329,250.2994 Q185.2329,247.1744 186.5454,245.5181 Q187.8735,243.8619 190.3735,243.8619 Q191.0767,243.8619 191.7173,244.0181 Q192.3735,244.1744 192.936,244.4713 L192.936,247.19 Q192.311,246.6119 191.7173,246.3463 Q191.1235,246.065 190.4985,246.065 Q189.1548,246.065 188.4673,247.1431 Q187.7798,248.2056 187.7798,250.2994 Q187.7798,252.3931 188.4673,253.4713 Q189.1548,254.5338 190.4985,254.5338 Q191.1235,254.5338 191.7173,254.2681 Q192.311,253.9869 192.936,253.4088 L192.936,256.1275 Z " fill="#000000"/><text fill="#000000" font-family="sans-serif" font-size="14" lengthAdjust="spacing" textLength="121.1875" x="210.4673" y="255.3336">RFF_0130_msg_1</text><line style="stroke:#181818;stroke-width:0.5;" x1="8" x2="501.6221" y1="266.4869" y2="266.4869"/><text fill="#000000" font-family="sans-serif" font-size="14" lengthAdjust="spacing" textLength="161.1982" x="13" y="283.482">Nachricht: INVOIC 2.8d</text><text fill="#000000" font-family="sans-serif" font-size="14" lengthAdjust="spacing" textLength="204.1143" x="13" y="299.7789">Kontext: Nachrichtenstruktur</text><text fill="#000000" font-family="sans-serif" font-size="14" lengthAdjust="spacing" textLength="91.4033" x="13" y="316.0757">Pflichtfeld: Ja</text><text fill="#000000" font-family="sans-serif" font-size="14" lengthAdjust="spacing" textLength="78.1348" x="13" y="332.3726">Codes: RFF</text><text fill="#000000" font-family="sans-serif" font-size="14" lengthAdjust="spacing" textLength="483.6221" x="13" y="348.6695">Prozesse: Netznutzungsabrechnung, Messstellenbetriebsabrechnung</text><text fill="#000000" font-family="sans-serif" font-size="14" lengthAdjust="spacing" textLength="396.6074" x="13" y="364.9664">Quelle: INVOIC_MIG_2.8d_Fehlerkorrektur_20250131.pdf</text><line style="stroke:#181818;stroke-width:0.5;" x1="8" x2="501.6221" y1="372.2681" y2="372.2681"/></g><!--class RFF_0130_msg_2--><g class="entity" data-entity="RFF_0130_msg_2" data-source-line="17" data-uid="ent0005" id="entity_RFF_0130_msg_2"><rect fill="#F1F1F1" height="145.7813" rx="2.5" ry="2.5" style="stroke:#181818;stroke-width:0.5;" width="495.6221" x="538" y="234.4869"/><ellipse cx="720.9673" cy="250.4869" fill="#ADD1B2" rx="11" ry="11" style="stroke:#181818;stroke-width:1;"/><path d="M723.936,256.1275 Q723.3579,256.4244 722.7173,256.565 Q722.0767,256.7213 721.3735,256.7213 Q718.8735,256.7213 717.5454,255.0806 Q716.2329,253.4244 716.2329,250.2994 Q716.2329,247.1744 717.5454,245.5181 Q718.8735,243.8619 721.3735,243.8619 Q722.0767,243.8619 722.7173,244.0181 Q723.3735,244.1744 723.936,244.4713 L723.936,247.19 Q723.311,246.6119 722.7173,246.3463 Q722.1235,246.065 721.4985,246.065 Q720.1548,246.065 719.4673,247.1431 Q718.7798,248.2056 718.7798,250.2994 Q718.7798,252.3931 719.4673,253.4713 Q720.1548,254.5338 721.4985,254.5338 Q722.1235,254.5338 722.7173,254.2681 Q723.311,253.9869 723.936,253.4088 L723.936,256.1275 Z " fill="#000000"/><text fill="#000000" font-family="sans-serif" font-size="14" lengthAdjust="spacing" textLength="121.1875" x="741.4673" y="255.3336">RFF_0130_msg_2</text><line style="stroke:#181818;stroke-width:0.5;" x1="539" x2="1032.6221" y1="266.4869" y2="266.4869"/><text fill="#000000" font-family="sans-serif" font-size="14" lengthAdjust="spacing" textLength="165.6484" x="544" y="283.482">Nachricht: INVOIC 2.8d.</text><text fill="#000000" font-family="sans-serif" font-size="14" lengthAdjust="spacing" textLength="204.1143" x="544" y="299.7789">Kontext: Nachrichtenstruktur</text><text fill="#000000" font-family="sans-serif" font-size="14" lengthAdjust="spacing" textLength="91.4033" x="544" y="316.0757">Pflichtfeld: Ja</text><text fill="#000000" font-family="sans-serif" font-size="14" lengthAdjust="spacing" textLength="78.1348" x="544" y="332.3726">Codes: RFF</text><text fill="#000000" font-family="sans-serif" font-size="14" lengthAdjust="spacing" textLength="483.6221" x="544" y="348.6695">Prozesse: Netznutzungsabrechnung, Messstellenbetriebsabrechnung</text><text fill="#000000" font-family="sans-serif" font-size="14" lengthAdjust="spacing" textLength="290.3359" x="544" y="364.9664">Quelle: INVOIC_MIG_2_8d__20240619.pdf</text><line style="stroke:#181818;stroke-width:0.5;" x1="539" x2="1032.6221" y1="372.2681" y2="372.2681"/></g><!--class RFF_0130_proc_1--><g class="entity" data-entity="RFF_0130_proc_1" data-source-line="26" data-uid="ent0007" id="entity_RFF_0130_proc_1"><rect fill="#F1F1F1" height="105.1563" rx="2.5" ry="2.5" style="stroke:#181818;stroke-width:0.5;" width="752.6465" x="1068.49" y="254.7969"/><ellipse cx="1379.426" cy="274.9297" fill="#ADD1B2" rx="11" ry="11" style="stroke:#181818;stroke-width:1;"/><path d="M1382.3948,280.5703 Q1381.8167,280.8672 1381.176,281.0078 Q1380.5354,281.1641 1379.8323,281.1641 Q1377.3323,281.1641 1376.0042,279.5234 Q1374.6917,277.8672 1374.6917,274.7422 Q1374.6917,271.6172 1376.0042,269.9609 Q1377.3323,268.3047 1379.8323,268.3047 Q1380.5354,268.3047 1381.176,268.4609 Q1381.8323,268.6172 1382.3948,268.9141 L1382.3948,271.6328 Q1381.7698,271.0547 1381.176,270.7891 Q1380.5823,270.5078 1379.9573,270.5078 Q1378.6135,270.5078 1377.926,271.5859 Q1377.2385,272.6484 1377.2385,274.7422 Q1377.2385,276.8359 1377.926,277.9141 Q1378.6135,278.9766 1379.9573,278.9766 Q1380.5823,278.9766 1381.176,278.7109 Q1381.7698,278.4297 1382.3948,277.8516 L1382.3948,280.5703 Z " fill="#000000"/><text fill="#000000" font-family="sans-serif" font-size="12" font-style="italic" lengthAdjust="spacing" textLength="61.0605" x="1430.533" y="270.9355">&#171;process&#187;</text><text fill="#000000" font-family="sans-serif" font-size="14" lengthAdjust="spacing" textLength="122.2744" x="1399.926" y="286.7607">RFF_0130_proc_1</text><line style="stroke:#181818;stroke-width:0.5;" x1="1069.49" x2="1820.1365" y1="295.0625" y2="295.0625"/><text fill="#000000" font-family="sans-serif" font-size="14" lengthAdjust="spacing" textLength="180.3457" x="1074.49" y="312.0576">Netznutzungsabrechnung</text><text fill="#000000" font-family="sans-serif" font-size="14" lengthAdjust="spacing" textLength="218.0938" x="1074.49" y="328.3545">Gesetze: StromNEV, StromNZV</text><text fill="#000000" font-family="sans-serif" font-size="14" lengthAdjust="spacing" textLength="740.6465" x="1074.49" y="344.6514">Zusammenfassung: Wie funktioniert die Netznutzungsabrechnung zwischen Netzbetreiber und Lieferant?</text><line style="stroke:#181818;stroke-width:0.5;" x1="1069.49" x2="1820.1365" y1="351.9531" y2="351.9531"/></g><!--class RFF_0130_proc_2--><g class="entity" data-entity="RFF_0130_proc_2" data-source-line="32" data-uid="ent0009" id="entity_RFF_0130_proc_2"><rect fill="#F1F1F1" height="105.1563" rx="2.5" ry="2.5" style="stroke:#181818;stroke-width:0.5;" width="690.2275" x="1855.7" y="254.7969"/><ellipse cx="2135.4266" cy="274.9297" fill="#ADD1B2" rx="11" ry="11" style="stroke:#181818;stroke-width:1;"/><path d="M2138.3953,280.5703 Q2137.8172,280.8672 2137.1766,281.0078 Q2136.5359,281.1641 2135.8328,281.1641 Q2133.3328,281.1641 2132.0047,279.5234 Q2130.6922,277.8672 2130.6922,274.7422 Q2130.6922,271.6172 2132.0047,269.9609 Q2133.3328,268.3047 2135.8328,268.3047 Q2136.5359,268.3047 2137.1766,268.4609 Q2137.8328,268.6172 2138.3953,268.9141 L2138.3953,271.6328 Q2137.7703,271.0547 2137.1766,270.7891 Q2136.5828,270.5078 2135.9578,270.5078 Q2134.6141,270.5078 2133.9266,271.5859 Q2133.2391,272.6484 2133.2391,274.7422 Q2133.2391,276.8359 2133.9266,277.9141 Q2134.6141,278.9766 2135.9578,278.9766 Q2136.5828,278.9766 2137.1766,278.7109 Q2137.7703,278.4297 2138.3953,277.8516 L2138.3953,280.5703 Z " fill="#000000"/><text fill="#000000" font-family="sans-serif" font-size="12" font-style="italic" lengthAdjust="spacing" textLength="61.0605" x="2186.5335" y="270.9355">&#171;process&#187;</text><text fill="#000000" font-family="sans-serif" font-size="14" lengthAdjust="spacing" textLength="122.2744" x="2155.9266" y="286.7607">RFF_0130_proc_2</text><line style="stroke:#181818;stroke-width:0.5;" x1="1856.7" x2="2544.9275" y1="295.0625" y2="295.0625"/><text fill="#000000" font-family="sans-serif" font-size="14" lengthAdjust="spacing" textLength="223.2822" x="1861.7" y="312.0576">Messstellenbetriebsabrechnung</text><text fill="#000000" font-family="sans-serif" font-size="14" lengthAdjust="spacing" textLength="105.0957" x="1861.7" y="328.3545">Gesetze: MsbG</text><text fill="#000000" font-family="sans-serif" font-size="14" lengthAdjust="spacing" textLength="678.2275" x="1861.7" y="344.6514">Zusammenfassung: Beschreibe den Prozess der Abrechnung von Messstellenbetriebsleistungen.</text><line style="stroke:#181818;stroke-width:0.5;" x1="1856.7" x2="2544.9275" y1="351.9531" y2="351.9531"/></g><!--link RFF_0130 to RFF_0130_msg_1--><g class="link" data-entity-1="RFF_0130" data-entity-2="RFF_0130_msg_1" data-source-line="16" data-uid="lnk4" id="link_RFF_0130_RFF_0130_msg_1"><path codeLine="16" d="M926.71,141.6469 C809.63,166.9469 656.1,201.1169 520.81,234.4869 C514.89,235.9469 514.7186,235.9726 508.6786,237.4926" fill="none" id="RFF_0130-to-RFF_0130_msg_1" style="stroke:#181818;stroke-width:1;"/><polygon fill="#181818" points="502.86,238.9569,512.5641,240.6395,507.7088,237.7366,510.6117,232.8814,502.86,238.9569" style="stroke:#181818;stroke-width:1;"/><text fill="#000000" font-family="sans-serif" font-size="13" lengthAdjust="spacing" textLength="85.2363" x="717.81" y="200.5538">verwendet in</text></g><!--link RFF_0130 to RFF_0130_msg_2--><g class="link" data-entity-1="RFF_0130" data-entity-2="RFF_0130_msg_2" data-source-line="25" data-uid="lnk6" id="link_RFF_0130_RFF_0130_msg_2"><path codeLine="25" d="M1024.91,157.7669 C987.05,181.2969 947.5959,205.8196 907.2759,230.8796" fill="none" id="RFF_0130-to-RFF_0130_msg_2" style="stroke:#181818;stroke-width:1;"/><polygon fill="#181818" points="902.18,234.0469,911.9354,232.6933,906.4266,231.4075,907.7124,225.8987,902.18,234.0469" style="stroke:#181818;stroke-width:1;"/><text fill="#000000" font-family="sans-serif" font-size="13" lengthAdjust="spacing" textLength="85.2363" x="971.81" y="200.5538">verwendet in</text></g><!--link RFF_0130 to RFF_0130_proc_1--><g class="link" data-entity-1="RFF_0130" data-entity-2="RFF_0130_proc_1" data-source-line="31" data-uid="lnk8" id="link_RFF_0130_RFF_0130_proc_1"><path codeLine="31" d="M1204.98,157.7669 C1253.65,187.9169 1308.2295,221.747 1355.8795,251.267" fill="none" id="RFF_0130-to-RFF_0130_proc_1" style="stroke:#181818;stroke-width:1;stroke-dasharray:7,7;"/><polygon fill="#181818" points="1360.98,254.4269,1355.4358,246.2867,1356.7296,251.7937,1351.2226,253.0874,1360.98,254.4269" style="stroke:#181818;stroke-width:1;"/><text fill="#000000" font-family="sans-serif" font-size="13" lengthAdjust="spacing" textLength="91.6221" x="1280.81" y="200.5538">eingebettet in</text></g><!--link RFF_0130 to RFF_0130_proc_2--><g class="link" data-entity-1="RFF_0130" data-entity-2="RFF_0130_proc_2" data-source-line="37" data-uid="lnk10" id="link_RFF_0130_RFF_0130_proc_2"><path codeLine="37" d="M1302.84,135.5369 C1449.07,161.8869 1656.96,199.7769 1838.81,234.4869 C1872.01,240.8269 1901.0125,246.4406 1935.4825,253.2106" fill="none" id="RFF_0130-to-RFF_0130_proc_2" style="stroke:#181818;stroke-width:1;stroke-dasharray:7,7;"/><polygon fill="#181818" points="1941.37,254.3669,1933.3096,248.7074,1936.4637,253.4033,1931.7678,256.5574,1941.37,254.3669" style="stroke:#181818;stroke-width:1;"/><text fill="#000000" font-family="sans-serif" font-size="13" lengthAdjust="spacing" textLength="91.6221" x="1661.81" y="200.5538">eingebettet in</text></g><!--SRC=[pLDTRzf047pFhzWV42nmFzHQ4LMR5aHRQ9EgLCgBTRRN-8IzHdjxIUMe_xrxX50K8BpsRNTdV3ipTnOhDS978qX6QkEW1zUZKT8VlEYVvTgxqAQXXVipW9bfC85hB96HEZ2-X9_iLknfuHZpYa91lccGbVsTsmwTmqHhq9DdA1rvwGB9P8_y3JXLfXEiQwGCXIrckvm_JzIaZLkaWuscl6ARLvB0P3R_Dhc4E7fJAF2b9S7VEjuoa9omNufVgolhC2knBXBuR7HosHReah1ZL_mHsUSd50DS-O0zgagdat4QbAKZh6haPSkCGKeQz-DNwcaGhOfIZMu3x_M6J_qcS8jyXrIWWAL3cSJFP1Bzfw6a6af8uMN_zU3joHJY4ocikCqrgekBKAYQuV0XacEFRunE8PNqGxXjPf_cvvlgPgxeZNT6dpELkaFv2Voo2AMdfTYMBB90eOF3XqDtPrrU8Qtn40VQ31ay5V3LXf_8aBpRDHj5mpqZ2Q2b1UhdSjnllEVtr4LiRKzTDZvaz0EgzhLYADJ2vkgrPdZ_p-9jIuTMrMYTA8uKFUyltlFt5m00]--></g></svg>