<svg xmlns="http://www.w3.org/2000/svg" xmlns:xlink="http://www.w3.org/1999/xlink" contentStyleType="text/css" data-diagram-type="CLASS" height="370px" preserveAspectRatio="none" style="width:984px;height:370px;background:#FFFFFF;" version="1.1" viewBox="0 0 984 370" width="984px" zoomAndPan="magnify"><title>Datenatlas - RFF:0070</title><defs/><g><g class="title" data-source-line="1"><text fill="#000000" font-family="sans-serif" font-size="14" font-weight="bold" lengthAdjust="spacing" textLength="175.9707" x="397.3195" y="22.9951">Datenatlas - RFF:0070</text></g><!--class RFF_0070--><g class="entity" data-entity="RFF_0070" data-source-line="2" data-uid="ent0002" id="entity_RFF_0070"><rect fill="#F1F1F1" height="96.8906" rx="2.5" ry="2.5" style="stroke:#181818;stroke-width:0.5;" width="201.2393" x="305.81" y="44.2969"/><ellipse cx="367.9487" cy="60.2969" fill="#ADD1B2" rx="11" ry="11" style="stroke:#181818;stroke-width:1;"/><path d="M370.9174,65.9375 Q370.3393,66.2344 369.6987,66.375 Q369.058,66.5313 368.3549,66.5313 Q365.8549,66.5313 364.5268,64.8906 Q363.2143,63.2344 363.2143,60.1094 Q363.2143,56.9844 364.5268,55.3281 Q365.8549,53.6719 368.3549,53.6719 Q369.058,53.6719 369.6987,53.8281 Q370.3549,53.9844 370.9174,54.2813 L370.9174,57 Q370.2924,56.4219 369.6987,56.1563 Q369.1049,55.875 368.4799,55.875 Q367.1362,55.875 366.4487,56.9531 Q365.7612,58.0156 365.7612,60.1094 Q365.7612,62.2031 366.4487,63.2813 Q367.1362,64.3438 368.4799,64.3438 Q369.1049,64.3438 369.6987,64.0781 Q370.2924,63.7969 370.9174,63.2188 L370.9174,65.9375 Z " fill="#000000"/><text fill="#000000" font-family="sans-serif" font-size="14" lengthAdjust="spacing" textLength="68.4619" x="388.4487" y="65.1436">RFF_0070</text><line style="stroke:#181818;stroke-width:0.5;" x1="306.81" x2="506.0493" y1="76.2969" y2="76.2969"/><text fill="#000000" font-family="sans-serif" font-size="14" lengthAdjust="spacing" textLength="175.2393" x="325.81" y="93.292">Name: Vorg&#228;ngerversion</text><text fill="#000000" font-family="sans-serif" font-size="14" lengthAdjust="spacing" textLength="66.6436" x="325.81" y="109.5889">Prozesse:</text><rect fill="none" height="6" style="stroke:#C82930;stroke-width:1;" width="6" x="313.81" y="119.5391"/><text fill="#000000" font-family="sans-serif" font-size="14" lengthAdjust="spacing" textLength="158.0127" x="325.81" y="125.8857">Stammdaten&#228;nderung</text><line style="stroke:#181818;stroke-width:0.5;" x1="306.81" x2="506.0493" y1="133.1875" y2="133.1875"/></g><!--class RFF_0070_msg_1--><g class="entity" data-entity="RFF_0070_msg_1" data-source-line="7" data-uid="ent0003" id="entity_RFF_0070_msg_1"><rect fill="#F1F1F1" height="145.7813" rx="2.5" ry="2.5" style="stroke:#181818;stroke-width:0.5;" width="296.8604" x="7" y="218.1869"/><ellipse cx="90.5864" cy="234.1869" fill="#ADD1B2" rx="11" ry="11" style="stroke:#181818;stroke-width:1;"/><path d="M93.5552,239.8275 Q92.9771,240.1244 92.3364,240.265 Q91.6958,240.4213 90.9927,240.4213 Q88.4927,240.4213 87.1646,238.7806 Q85.8521,237.1244 85.8521,233.9994 Q85.8521,230.8744 87.1646,229.2181 Q88.4927,227.5619 90.9927,227.5619 Q91.6958,227.5619 92.3364,227.7181 Q92.9927,227.8744 93.5552,228.1713 L93.5552,230.89 Q92.9302,230.3119 92.3364,230.0463 Q91.7427,229.765 91.1177,229.765 Q89.7739,229.765 89.0864,230.8431 Q88.3989,231.9056 88.3989,233.9994 Q88.3989,236.0931 89.0864,237.1713 Q89.7739,238.2338 91.1177,238.2338 Q91.7427,238.2338 92.3364,237.9681 Q92.9302,237.6869 93.5552,237.1088 L93.5552,239.8275 Z " fill="#000000"/><text fill="#000000" font-family="sans-serif" font-size="14" lengthAdjust="spacing" textLength="121.1875" x="111.0864" y="239.0336">RFF_0070_msg_1</text><line style="stroke:#181818;stroke-width:0.5;" x1="8" x2="302.8604" y1="250.1869" y2="250.1869"/><text fill="#000000" font-family="sans-serif" font-size="14" lengthAdjust="spacing" textLength="162.7227" x="13" y="267.182">Nachricht: PARTIN 1.0e</text><text fill="#000000" font-family="sans-serif" font-size="14" lengthAdjust="spacing" textLength="204.1143" x="13" y="283.4789">Kontext: Nachrichtenstruktur</text><text fill="#000000" font-family="sans-serif" font-size="14" lengthAdjust="spacing" textLength="91.4033" x="13" y="299.7757">Pflichtfeld: Ja</text><text fill="#000000" font-family="sans-serif" font-size="14" lengthAdjust="spacing" textLength="168.9092" x="13" y="316.0726">Codes: ID, MP, RFF, SG2</text><text fill="#000000" font-family="sans-serif" font-size="14" lengthAdjust="spacing" textLength="229.1064" x="13" y="332.3695">Prozesse: Stammdaten&#228;nderung</text><text fill="#000000" font-family="sans-serif" font-size="14" lengthAdjust="spacing" textLength="284.8604" x="13" y="348.6664">Quelle: PARTIN_MIG_1_0e_20241001.pdf</text><line style="stroke:#181818;stroke-width:0.5;" x1="8" x2="302.8604" y1="355.9681" y2="355.9681"/></g><!--class RFF_0070_proc_1--><g class="entity" data-entity="RFF_0070_proc_1" data-source-line="16" data-uid="ent0005" id="entity_RFF_0070_proc_1"><rect fill="#F1F1F1" height="88.8594" rx="2.5" ry="2.5" style="stroke:#181818;stroke-width:0.5;" width="638.3496" x="339.26" y="246.6469"/><ellipse cx="593.0476" cy="266.7797" fill="#ADD1B2" rx="11" ry="11" style="stroke:#181818;stroke-width:1;"/><path d="M596.0163,272.4203 Q595.4382,272.7172 594.7976,272.8578 Q594.157,273.0141 593.4538,273.0141 Q590.9538,273.0141 589.6257,271.3734 Q588.3132,269.7172 588.3132,266.5922 Q588.3132,263.4672 589.6257,261.8109 Q590.9538,260.1547 593.4538,260.1547 Q594.157,260.1547 594.7976,260.3109 Q595.4538,260.4672 596.0163,260.7641 L596.0163,263.4828 Q595.3913,262.9047 594.7976,262.6391 Q594.2038,262.3578 593.5788,262.3578 Q592.2351,262.3578 591.5476,263.4359 Q590.8601,264.4984 590.8601,266.5922 Q590.8601,268.6859 591.5476,269.7641 Q592.2351,270.8266 593.5788,270.8266 Q594.2038,270.8266 594.7976,270.5609 Q595.3913,270.2797 596.0163,269.7016 L596.0163,272.4203 Z " fill="#000000"/><text fill="#000000" font-family="sans-serif" font-size="12" font-style="italic" lengthAdjust="spacing" textLength="61.0605" x="644.1545" y="262.7855">&#171;process&#187;</text><text fill="#000000" font-family="sans-serif" font-size="14" lengthAdjust="spacing" textLength="122.2744" x="613.5476" y="278.6107">RFF_0070_proc_1</text><line style="stroke:#181818;stroke-width:0.5;" x1="340.26" x2="976.6096" y1="286.9125" y2="286.9125"/><text fill="#000000" font-family="sans-serif" font-size="14" lengthAdjust="spacing" textLength="158.0127" x="345.26" y="303.9076">Stammdaten&#228;nderung</text><text fill="#000000" font-family="sans-serif" font-size="14" lengthAdjust="spacing" textLength="626.3496" x="345.26" y="320.2045">Zusammenfassung: Wie wird eine Stammdaten&#228;nderung an einer Marktlokation, wie z.B.</text><line style="stroke:#181818;stroke-width:0.5;" x1="340.26" x2="976.6096" y1="327.5063" y2="327.5063"/></g><!--link RFF_0070 to RFF_0070_msg_1--><g class="link" data-entity-1="RFF_0070" data-entity-2="RFF_0070_msg_1" data-source-line="15" data-uid="lnk4" id="link_RFF_0070_RFF_0070_msg_1"><path codeLine="15" d="M345.35,141.5169 C316.04,164.4469 285.0162,188.7105 252.4762,214.1605" fill="none" id="RFF_0070-to-RFF_0070_msg_1" style="stroke:#181818;stroke-width:1;"/><polygon fill="#181818" points="247.75,217.8569,257.3035,215.4631,251.6885,214.7765,252.375,209.1615,247.75,217.8569" style="stroke:#181818;stroke-width:1;"/><text fill="#000000" font-family="sans-serif" font-size="13" lengthAdjust="spacing" textLength="85.2363" x="304.43" y="184.2538">verwendet in</text></g><!--link RFF_0070 to RFF_0070_proc_1--><g class="link" data-entity-1="RFF_0070" data-entity-2="RFF_0070_proc_1" data-source-line="20" data-uid="lnk6" id="link_RFF_0070_RFF_0070_proc_1"><path codeLine="20" d="M467.75,141.5169 C508.84,173.5269 557.777,211.6593 597.707,242.7693" fill="none" id="RFF_0070-to-RFF_0070_proc_1" style="stroke:#181818;stroke-width:1;stroke-dasharray:7,7;"/><polygon fill="#181818" points="602.44,246.4569,597.7988,237.7701,598.4958,243.3839,592.882,244.0809,602.44,246.4569" style="stroke:#181818;stroke-width:1;"/><text fill="#000000" font-family="sans-serif" font-size="13" lengthAdjust="spacing" textLength="91.6221" x="526.43" y="184.2538">eingebettet in</text></g><!--SRC=[RP5HIWCn48RVUuevm7R95a48PK4jBLLQQXK5NqBSdTqkpIObcRLIyJRUn8ivALfAxLlcdvb_lfbGGmPXf0cj9gC3z64v7aiXBaMlu3Z4KCKGFde0SzsYX2Vdw-ylMwD_GnyQPpcpy6w78Q3aDx3B0-csBQClLvReErltFayiLHjgbVqQ5olV52kIiBXQFaxdaAK2EN7dBE4xouSAj85yjwREnx6LYLg5ffHmgrcvSIK62TDH0hD54cSby30P72EUXGEuxz0O_0DGi-b4PKgW6eZ1HIP4bcxAYdSu7AJVpqzNaS0NsI9x4ZJsTDsDTmKN3OVnmIHvlj_zFCrB5rX6Mx45AnAU6uHjuql0nkAv9j1sd_CmqtvDngqryUSat8MmIw_JO_WqpV-1oTXUuoiIxVb_0000]--></g></svg>