<svg xmlns="http://www.w3.org/2000/svg" xmlns:xlink="http://www.w3.org/1999/xlink" contentStyleType="text/css" data-diagram-type="CLASS" height="370px" preserveAspectRatio="none" style="width:1098px;height:370px;background:#FFFFFF;" version="1.1" viewBox="0 0 1098 370" width="1098px" zoomAndPan="magnify"><title>Datenatlas - RNG:C280</title><defs/><g><g class="title" data-source-line="1"><text fill="#000000" font-family="sans-serif" font-size="14" font-weight="bold" lengthAdjust="spacing" textLength="180.585" x="451.9808" y="22.9951">Datenatlas - RNG:C280</text></g><!--class RNG_C280--><g class="entity" data-entity="RNG_C280" data-source-line="2" data-uid="ent0002" id="entity_RNG_C280"><rect fill="#F1F1F1" height="96.8906" rx="2.5" ry="2.5" style="stroke:#181818;stroke-width:0.5;" width="206.3457" x="332.05" y="44.2969"/><ellipse cx="393.6999" cy="60.2969" fill="#ADD1B2" rx="11" ry="11" style="stroke:#181818;stroke-width:1;"/><path d="M396.6687,65.9375 Q396.0905,66.2344 395.4499,66.375 Q394.8093,66.5313 394.1062,66.5313 Q391.6062,66.5313 390.278,64.8906 Q388.9655,63.2344 388.9655,60.1094 Q388.9655,56.9844 390.278,55.3281 Q391.6062,53.6719 394.1062,53.6719 Q394.8093,53.6719 395.4499,53.8281 Q396.1062,53.9844 396.6687,54.2813 L396.6687,57 Q396.0437,56.4219 395.4499,56.1563 Q394.8562,55.875 394.2312,55.875 Q392.8874,55.875 392.1999,56.9531 Q391.5124,58.0156 391.5124,60.1094 Q391.5124,62.2031 392.1999,63.2813 Q392.8874,64.3438 394.2312,64.3438 Q394.8562,64.3438 395.4499,64.0781 Q396.0437,63.7969 396.6687,63.2188 L396.6687,65.9375 Z " fill="#000000"/><text fill="#000000" font-family="sans-serif" font-size="14" lengthAdjust="spacing" textLength="74.5459" x="414.1999" y="65.1436">RNG_C280</text><line style="stroke:#181818;stroke-width:0.5;" x1="333.05" x2="537.3957" y1="76.2969" y2="76.2969"/><text fill="#000000" font-family="sans-serif" font-size="14" lengthAdjust="spacing" textLength="145.1133" x="352.05" y="93.292">Name: Wertebereich</text><text fill="#000000" font-family="sans-serif" font-size="14" lengthAdjust="spacing" textLength="66.6436" x="352.05" y="109.5889">Prozesse:</text><rect fill="none" height="6" style="stroke:#C82930;stroke-width:1;" width="6" x="340.05" y="119.5391"/><text fill="#000000" font-family="sans-serif" font-size="14" lengthAdjust="spacing" textLength="180.3457" x="352.05" y="125.8857">Netznutzungsabrechnung</text><line style="stroke:#181818;stroke-width:0.5;" x1="333.05" x2="537.3957" y1="133.1875" y2="133.1875"/></g><!--class RNG_C280_msg_1--><g class="entity" data-entity="RNG_C280_msg_1" data-source-line="7" data-uid="ent0003" id="entity_RNG_C280_msg_1"><rect fill="#F1F1F1" height="145.7813" rx="2.5" ry="2.5" style="stroke:#181818;stroke-width:0.5;" width="296.4365" x="7" y="218.1869"/><ellipse cx="87.3325" cy="234.1869" fill="#ADD1B2" rx="11" ry="11" style="stroke:#181818;stroke-width:1;"/><path d="M90.3013,239.8275 Q89.7231,240.1244 89.0825,240.265 Q88.4419,240.4213 87.7388,240.4213 Q85.2388,240.4213 83.9106,238.7806 Q82.5981,237.1244 82.5981,233.9994 Q82.5981,230.8744 83.9106,229.2181 Q85.2388,227.5619 87.7388,227.5619 Q88.4419,227.5619 89.0825,227.7181 Q89.7388,227.8744 90.3013,228.1713 L90.3013,230.89 Q89.6763,230.3119 89.0825,230.0463 Q88.4888,229.765 87.8638,229.765 Q86.52,229.765 85.8325,230.8431 Q85.145,231.9056 85.145,233.9994 Q85.145,236.0931 85.8325,237.1713 Q86.52,238.2338 87.8638,238.2338 Q88.4888,238.2338 89.0825,237.9681 Q89.6763,237.6869 90.3013,237.1088 L90.3013,239.8275 Z " fill="#000000"/><text fill="#000000" font-family="sans-serif" font-size="14" lengthAdjust="spacing" textLength="127.2715" x="107.8325" y="239.0336">RNG_C280_msg_1</text><line style="stroke:#181818;stroke-width:0.5;" x1="8" x2="302.4365" y1="250.1869" y2="250.1869"/><text fill="#000000" font-family="sans-serif" font-size="14" lengthAdjust="spacing" textLength="162.2988" x="13" y="267.182">Nachricht: PRICAT 2.0d</text><text fill="#000000" font-family="sans-serif" font-size="14" lengthAdjust="spacing" textLength="170.3447" x="13" y="283.4789">Kontext: Segmentlayout</text><text fill="#000000" font-family="sans-serif" font-size="14" lengthAdjust="spacing" textLength="110.5439" x="13" y="299.7757">Pflichtfeld: Nein</text><text fill="#000000" font-family="sans-serif" font-size="14" lengthAdjust="spacing" textLength="238.6631" x="13" y="316.0726">Codes: 10, 100, 18, ID, KWH, RNG</text><text fill="#000000" font-family="sans-serif" font-size="14" lengthAdjust="spacing" textLength="251.4395" x="13" y="332.3695">Prozesse: Netznutzungsabrechnung</text><text fill="#000000" font-family="sans-serif" font-size="14" lengthAdjust="spacing" textLength="284.4365" x="13" y="348.6664">Quelle: PRICAT_MIG_2_0d_20240619.pdf</text><line style="stroke:#181818;stroke-width:0.5;" x1="8" x2="302.4365" y1="355.9681" y2="355.9681"/></g><!--class RNG_C280_proc_1--><g class="entity" data-entity="RNG_C280_proc_1" data-source-line="16" data-uid="ent0005" id="entity_RNG_C280_proc_1"><rect fill="#F1F1F1" height="105.1563" rx="2.5" ry="2.5" style="stroke:#181818;stroke-width:0.5;" width="752.6465" x="338.9" y="238.4969"/><ellipse cx="646.794" cy="258.6297" fill="#ADD1B2" rx="11" ry="11" style="stroke:#181818;stroke-width:1;"/><path d="M649.7628,264.2703 Q649.1847,264.5672 648.544,264.7078 Q647.9034,264.8641 647.2003,264.8641 Q644.7003,264.8641 643.3722,263.2234 Q642.0597,261.5672 642.0597,258.4422 Q642.0597,255.3172 643.3722,253.6609 Q644.7003,252.0047 647.2003,252.0047 Q647.9034,252.0047 648.544,252.1609 Q649.2003,252.3172 649.7628,252.6141 L649.7628,255.3328 Q649.1378,254.7547 648.544,254.4891 Q647.9503,254.2078 647.3253,254.2078 Q645.9815,254.2078 645.294,255.2859 Q644.6065,256.3484 644.6065,258.4422 Q644.6065,260.5359 645.294,261.6141 Q645.9815,262.6766 647.3253,262.6766 Q647.9503,262.6766 648.544,262.4109 Q649.1378,262.1297 649.7628,261.5516 L649.7628,264.2703 Z " fill="#000000"/><text fill="#000000" font-family="sans-serif" font-size="12" font-style="italic" lengthAdjust="spacing" textLength="61.0605" x="700.943" y="254.6355">&#171;process&#187;</text><text fill="#000000" font-family="sans-serif" font-size="14" lengthAdjust="spacing" textLength="128.3584" x="667.294" y="270.4607">RNG_C280_proc_1</text><line style="stroke:#181818;stroke-width:0.5;" x1="339.9" x2="1090.5465" y1="278.7625" y2="278.7625"/><text fill="#000000" font-family="sans-serif" font-size="14" lengthAdjust="spacing" textLength="180.3457" x="344.9" y="295.7576">Netznutzungsabrechnung</text><text fill="#000000" font-family="sans-serif" font-size="14" lengthAdjust="spacing" textLength="218.0938" x="344.9" y="312.0545">Gesetze: StromNEV, StromNZV</text><text fill="#000000" font-family="sans-serif" font-size="14" lengthAdjust="spacing" textLength="740.6465" x="344.9" y="328.3514">Zusammenfassung: Wie funktioniert die Netznutzungsabrechnung zwischen Netzbetreiber und Lieferant?</text><line style="stroke:#181818;stroke-width:0.5;" x1="339.9" x2="1090.5465" y1="335.6531" y2="335.6531"/></g><!--link RNG_C280 to RNG_C280_msg_1--><g class="link" data-entity-1="RNG_C280" data-entity-2="RNG_C280_msg_1" data-source-line="15" data-uid="lnk4" id="link_RNG_C280_RNG_C280_msg_1"><path codeLine="15" d="M367.08,141.5169 C334.38,164.4469 299.4228,188.9625 263.1228,214.4125" fill="none" id="RNG_C280-to-RNG_C280_msg_1" style="stroke:#181818;stroke-width:1;"/><polygon fill="#181818" points="258.21,217.8569,267.8755,215.9655,262.304,214.9865,263.283,209.415,258.21,217.8569" style="stroke:#181818;stroke-width:1;"/><text fill="#000000" font-family="sans-serif" font-size="13" lengthAdjust="spacing" textLength="85.2363" x="322.22" y="184.2538">verwendet in</text></g><!--link RNG_C280 to RNG_C280_proc_1--><g class="link" data-entity-1="RNG_C280" data-entity-2="RNG_C280_proc_1" data-source-line="21" data-uid="lnk6" id="link_RNG_C280_RNG_C280_proc_1"><path codeLine="21" d="M503.36,141.5169 C545.12,170.8069 593.6774,204.8522 636.4474,234.8422" fill="none" id="RNG_C280-to-RNG_C280_proc_1" style="stroke:#181818;stroke-width:1;stroke-dasharray:7,7;"/><polygon fill="#181818" points="641.36,238.2869,636.2875,229.8447,637.2661,235.4163,631.6946,236.3949,641.36,238.2869" style="stroke:#181818;stroke-width:1;"/><text fill="#000000" font-family="sans-serif" font-size="13" lengthAdjust="spacing" textLength="91.6221" x="568.22" y="184.2538">eingebettet in</text></g><!--SRC=[TLBRQi9047ttA-O3OeYX5Bj8Ij5YnJPO5GLVGinEagN9HdOdjKtfltTYRH5R7xBCZNEP2Iag44OneOwfY2rqOHwEnT3lUvs4SzkcKPl2HmSWZ4iKi4P3k4M3AicvE3DLWzQYu1WO84HgT4rDhJCRRmqckUQmyta669KsYtf7s2Gt34O2PlF9y6u9lkj9RamhJVZ6vGLc9MfM-5xLr7AcHJkVOY454ohDjM4bqGheUGv_xTDtO39oOBf-S5hMKwcNH08yrrWK-2CaUfgC8p_oPEHx_fLttRjnTp9bBxzhwNQ3Sqi2Nj7iKKiaO6LdjdUcIdXeC6W35XC4tpku96YCbbkiQ46cAiFxbNECDYlkRceRbxoQb3bude-Z4D9Qlv2gjE93WUJ2_-3Gx9LDSjI7_XQ9ByfdXLfBU5IOeeartPwQTTtWZn41lFwC_mUYWzyl]--></g></svg>