<svg xmlns="http://www.w3.org/2000/svg" xmlns:xlink="http://www.w3.org/1999/xlink" contentStyleType="text/css" data-diagram-type="CLASS" height="370px" preserveAspectRatio="none" style="width:844px;height:370px;background:#FFFFFF;" version="1.1" viewBox="0 0 844 370" width="844px" zoomAndPan="magnify"><title>Datenatlas - S005:0026</title><defs/><g><g class="title" data-source-line="1"><text fill="#000000" font-family="sans-serif" font-size="14" font-weight="bold" lengthAdjust="spacing" textLength="185.3701" x="322.7342" y="22.9951">Datenatlas - S005:0026</text></g><!--class S005_0026--><g class="entity" data-entity="S005_0026" data-source-line="2" data-uid="ent0002" id="entity_S005_0026"><rect fill="#F1F1F1" height="96.8906" rx="2.5" ry="2.5" style="stroke:#181818;stroke-width:0.5;" width="360.3525" x="251.55" y="44.2969"/><ellipse cx="388.3576" cy="60.2969" fill="#ADD1B2" rx="11" ry="11" style="stroke:#181818;stroke-width:1;"/><path d="M391.3264,65.9375 Q390.7482,66.2344 390.1076,66.375 Q389.467,66.5313 388.7639,66.5313 Q386.2639,66.5313 384.9357,64.8906 Q383.6232,63.2344 383.6232,60.1094 Q383.6232,56.9844 384.9357,55.3281 Q386.2639,53.6719 388.7639,53.6719 Q389.467,53.6719 390.1076,53.8281 Q390.7639,53.9844 391.3264,54.2813 L391.3264,57 Q390.7014,56.4219 390.1076,56.1563 Q389.5139,55.875 388.8889,55.875 Q387.5451,55.875 386.8576,56.9531 Q386.1701,58.0156 386.1701,60.1094 Q386.1701,62.2031 386.8576,63.2813 Q387.5451,64.3438 388.8889,64.3438 Q389.5139,64.3438 390.1076,64.0781 Q390.7014,63.7969 391.3264,63.2188 L391.3264,65.9375 Z " fill="#000000"/><text fill="#000000" font-family="sans-serif" font-size="14" lengthAdjust="spacing" textLength="78.2373" x="408.8576" y="65.1436">S005_0026</text><line style="stroke:#181818;stroke-width:0.5;" x1="252.55" x2="610.9025" y1="76.2969" y2="76.2969"/><text fill="#000000" font-family="sans-serif" font-size="14" lengthAdjust="spacing" textLength="199.1719" x="271.55" y="93.292">Name: Anwendungsreferenz</text><text fill="#000000" font-family="sans-serif" font-size="14" lengthAdjust="spacing" textLength="66.6436" x="271.55" y="109.5889">Prozesse:</text><rect fill="none" height="6" style="stroke:#C82930;stroke-width:1;" width="6" x="259.55" y="119.5391"/><text fill="#000000" font-family="sans-serif" font-size="14" lengthAdjust="spacing" textLength="334.3525" x="271.55" y="125.8857">Anforderung und &#220;bermittlung von Messwerten</text><line style="stroke:#181818;stroke-width:0.5;" x1="252.55" x2="610.9025" y1="133.1875" y2="133.1875"/></g><!--class S005_0026_msg_1--><g class="entity" data-entity="S005_0026_msg_1" data-source-line="7" data-uid="ent0003" id="entity_S005_0026_msg_1"><rect fill="#F1F1F1" height="145.7813" rx="2.5" ry="2.5" style="stroke:#181818;stroke-width:0.5;" width="417.4463" x="7" y="218.1869"/><ellipse cx="145.9917" cy="234.1869" fill="#ADD1B2" rx="11" ry="11" style="stroke:#181818;stroke-width:1;"/><path d="M148.9604,239.8275 Q148.3823,240.1244 147.7417,240.265 Q147.1011,240.4213 146.3979,240.4213 Q143.8979,240.4213 142.5698,238.7806 Q141.2573,237.1244 141.2573,233.9994 Q141.2573,230.8744 142.5698,229.2181 Q143.8979,227.5619 146.3979,227.5619 Q147.1011,227.5619 147.7417,227.7181 Q148.3979,227.8744 148.9604,228.1713 L148.9604,230.89 Q148.3354,230.3119 147.7417,230.0463 Q147.1479,229.765 146.5229,229.765 Q145.1792,229.765 144.4917,230.8431 Q143.8042,231.9056 143.8042,233.9994 Q143.8042,236.0931 144.4917,237.1713 Q145.1792,238.2338 146.5229,238.2338 Q147.1479,238.2338 147.7417,237.9681 Q148.3354,237.6869 148.9604,237.1088 L148.9604,239.8275 Z " fill="#000000"/><text fill="#000000" font-family="sans-serif" font-size="14" lengthAdjust="spacing" textLength="130.9629" x="166.4917" y="239.0336">S005_0026_msg_1</text><line style="stroke:#181818;stroke-width:0.5;" x1="8" x2="423.4463" y1="250.1869" y2="250.1869"/><text fill="#000000" font-family="sans-serif" font-size="14" lengthAdjust="spacing" textLength="172.0264" x="13" y="267.182">Nachricht: MSCONS 2.4c</text><text fill="#000000" font-family="sans-serif" font-size="14" lengthAdjust="spacing" textLength="373.0576" x="13" y="283.4789">Kontext: &#220;bertragungsdatei, vergeben vom   Sender.</text><text fill="#000000" font-family="sans-serif" font-size="14" lengthAdjust="spacing" textLength="110.5439" x="13" y="299.7757">Pflichtfeld: Nein</text><text fill="#000000" font-family="sans-serif" font-size="14" lengthAdjust="spacing" textLength="178.1855" x="13" y="316.0726">Codes: 14, 35, EM, TL, VL</text><text fill="#000000" font-family="sans-serif" font-size="14" lengthAdjust="spacing" textLength="405.4463" x="13" y="332.3695">Prozesse: Anforderung und &#220;bermittlung von Messwerten</text><text fill="#000000" font-family="sans-serif" font-size="14" lengthAdjust="spacing" textLength="294.1641" x="13" y="348.6664">Quelle: MSCONS_MIG_2_4c_20231024.pdf</text><line style="stroke:#181818;stroke-width:0.5;" x1="8" x2="423.4463" y1="355.9681" y2="355.9681"/></g><!--class S005_0026_proc_1--><g class="entity" data-entity="S005_0026_proc_1" data-source-line="16" data-uid="ent0005" id="entity_S005_0026_proc_1"><rect fill="#F1F1F1" height="105.1563" rx="2.5" ry="2.5" style="stroke:#181818;stroke-width:0.5;" width="378.2285" x="459.61" y="238.4969"/><ellipse cx="578.4494" cy="258.6297" fill="#ADD1B2" rx="11" ry="11" style="stroke:#181818;stroke-width:1;"/><path d="M581.4181,264.2703 Q580.84,264.5672 580.1994,264.7078 Q579.5587,264.8641 578.8556,264.8641 Q576.3556,264.8641 575.0275,263.2234 Q573.715,261.5672 573.715,258.4422 Q573.715,255.3172 575.0275,253.6609 Q576.3556,252.0047 578.8556,252.0047 Q579.5587,252.0047 580.1994,252.1609 Q580.8556,252.3172 581.4181,252.6141 L581.4181,255.3328 Q580.7931,254.7547 580.1994,254.4891 Q579.6056,254.2078 578.9806,254.2078 Q577.6369,254.2078 576.9494,255.2859 Q576.2619,256.3484 576.2619,258.4422 Q576.2619,260.5359 576.9494,261.6141 Q577.6369,262.6766 578.9806,262.6766 Q579.6056,262.6766 580.1994,262.4109 Q580.7931,262.1297 581.4181,261.5516 L581.4181,264.2703 Z " fill="#000000"/><text fill="#000000" font-family="sans-serif" font-size="12" font-style="italic" lengthAdjust="spacing" textLength="61.0605" x="634.444" y="254.6355">&#171;process&#187;</text><text fill="#000000" font-family="sans-serif" font-size="14" lengthAdjust="spacing" textLength="132.0498" x="598.9494" y="270.4607">S005_0026_proc_1</text><line style="stroke:#181818;stroke-width:0.5;" x1="460.61" x2="836.8385" y1="278.7625" y2="278.7625"/><text fill="#000000" font-family="sans-serif" font-size="14" lengthAdjust="spacing" textLength="334.3525" x="465.61" y="295.7576">Anforderung und &#220;bermittlung von Messwerten</text><text fill="#000000" font-family="sans-serif" font-size="14" lengthAdjust="spacing" textLength="105.0957" x="465.61" y="312.0545">Gesetze: MsbG</text><line style="stroke:#181818;stroke-width:0.5;" x1="460.61" x2="836.8385" y1="319.3563" y2="319.3563"/><text fill="#000000" font-family="sans-serif" font-size="14" lengthAdjust="spacing" textLength="366.2285" x="465.61" y="336.3514">Zusammenfassung: Wie kann ein Marktpartner (z.B.</text></g><!--link S005_0026 to S005_0026_msg_1--><g class="link" data-entity-1="S005_0026" data-entity-2="S005_0026_msg_1" data-source-line="15" data-uid="lnk4" id="link_S005_0026_S005_0026_msg_1"><path codeLine="15" d="M379.16,141.5169 C353.93,164.4469 327.61,188.3712 299.61,213.8212" fill="none" id="S005_0026-to-S005_0026_msg_1" style="stroke:#181818;stroke-width:1;"/><polygon fill="#181818" points="295.17,217.8569,304.5204,214.7634,298.87,214.4938,299.1396,208.8434,295.17,217.8569" style="stroke:#181818;stroke-width:1;"/><text fill="#000000" font-family="sans-serif" font-size="13" lengthAdjust="spacing" textLength="85.2363" x="344.72" y="184.2538">verwendet in</text></g><!--link S005_0026 to S005_0026_proc_1--><g class="link" data-entity-1="S005_0026" data-entity-2="S005_0026_proc_1" data-source-line="21" data-uid="lnk6" id="link_S005_0026_S005_0026_proc_1"><path codeLine="21" d="M484.53,141.5169 C516.9,170.8069 553.8906,204.2716 587.0406,234.2616" fill="none" id="S005_0026-to-S005_0026_proc_1" style="stroke:#181818;stroke-width:1;stroke-dasharray:7,7;"/><polygon fill="#181818" points="591.49,238.2869,587.4994,229.2827,587.7822,234.9325,582.1324,235.2152,591.49,238.2869" style="stroke:#181818;stroke-width:1;"/><text fill="#000000" font-family="sans-serif" font-size="13" lengthAdjust="spacing" textLength="91.6221" x="533.72" y="184.2538">eingebettet in</text></g><!--SRC=[bP71JeD048RlVOevUg24KkfXOqXgDOsnL0r64oza2mCbXQNP7Lg3yKry6r_CMQ9HsrDlExEpyt__lrHIXN0b2PMaIXeOGknv4-5v_laWvORfwyJMy3O0MCeQ1KpL7bNMgi9ep56ZwlZgNZST6eE2py2BfYflT8QQnw1L6Nn-h53N9L5bExj6GSJZUzGiFdW_L4jgKoIZRyrqhSjqJGAYU7QtZC5tWvGlRXj5-ChjVZLfMLYaZDsK3knG5xX2nKeryyGCZDgrd7bbb-LOPGAMM2hkpPeCZO1HuC1uui1rvC3Zme6dnLzVfpa2U6Yngl07EebkvecV16dYU_vuvFc1kyroDluRy70O7WKWh16RDX8mwc5AMzsaF7LnOGyi7ePzP2UIpj4WTHRLhEPSlxH6rZMgdCNuWO3d4c4ZbGAE2oAfDxILcXHgEElSI_UV2zSDZm65VMd_WwWtyWK0]--></g></svg>