<svg xmlns="http://www.w3.org/2000/svg" xmlns:xlink="http://www.w3.org/1999/xlink" contentStyleType="text/css" data-diagram-type="CLASS" height="370px" preserveAspectRatio="none" style="width:1042px;height:370px;background:#FFFFFF;" version="1.1" viewBox="0 0 1042 370" width="1042px" zoomAndPan="magnify"><title>Datenatlas - SEGMENTNAME:RFF</title><defs/><g><g class="title" data-source-line="1"><text fill="#000000" font-family="sans-serif" font-size="14" font-weight="bold" lengthAdjust="spacing" textLength="258.9521" x="385.0132" y="22.9951">Datenatlas - SEGMENTNAME:RFF</text></g><!--class SEGMENTNAME_RFF--><g class="entity" data-entity="SEGMENTNAME_RFF" data-source-line="2" data-uid="ent0002" id="entity_SEGMENTNAME_RFF"><rect fill="#F1F1F1" height="96.8906" rx="2.5" ry="2.5" style="stroke:#181818;stroke-width:0.5;" width="360.3525" x="400.69" y="44.2969"/><ellipse cx="505.4473" cy="60.2969" fill="#ADD1B2" rx="11" ry="11" style="stroke:#181818;stroke-width:1;"/><path d="M508.4161,65.9375 Q507.8379,66.2344 507.1973,66.375 Q506.5567,66.5313 505.8536,66.5313 Q503.3536,66.5313 502.0254,64.8906 Q500.7129,63.2344 500.7129,60.1094 Q500.7129,56.9844 502.0254,55.3281 Q503.3536,53.6719 505.8536,53.6719 Q506.5567,53.6719 507.1973,53.8281 Q507.8536,53.9844 508.4161,54.2813 L508.4161,57 Q507.7911,56.4219 507.1973,56.1563 Q506.6036,55.875 505.9786,55.875 Q504.6348,55.875 503.9473,56.9531 Q503.2598,58.0156 503.2598,60.1094 Q503.2598,62.2031 503.9473,63.2813 Q504.6348,64.3438 505.9786,64.3438 Q506.6036,64.3438 507.1973,64.0781 Q507.7911,63.7969 508.4161,63.2188 L508.4161,65.9375 Z " fill="#000000"/><text fill="#000000" font-family="sans-serif" font-size="14" lengthAdjust="spacing" textLength="142.3379" x="525.9473" y="65.1436">SEGMENTNAME_RFF</text><line style="stroke:#181818;stroke-width:0.5;" x1="401.69" x2="760.0425" y1="76.2969" y2="76.2969"/><text fill="#000000" font-family="sans-serif" font-size="14" lengthAdjust="spacing" textLength="157.7598" x="420.69" y="93.292">Name: Ger&#228;tenummer</text><text fill="#000000" font-family="sans-serif" font-size="14" lengthAdjust="spacing" textLength="66.6436" x="420.69" y="109.5889">Prozesse:</text><rect fill="none" height="6" style="stroke:#C82930;stroke-width:1;" width="6" x="408.69" y="119.5391"/><text fill="#000000" font-family="sans-serif" font-size="14" lengthAdjust="spacing" textLength="334.3525" x="420.69" y="125.8857">Anforderung und &#220;bermittlung von Messwerten</text><line style="stroke:#181818;stroke-width:0.5;" x1="401.69" x2="760.0425" y1="133.1875" y2="133.1875"/></g><!--class SEGMENTNAME_RFF_msg_1--><g class="entity" data-entity="SEGMENTNAME_RFF_msg_1" data-source-line="7" data-uid="ent0003" id="entity_SEGMENTNAME_RFF_msg_1"><rect fill="#F1F1F1" height="145.7813" rx="2.5" ry="2.5" style="stroke:#181818;stroke-width:0.5;" width="615.7295" x="7" y="218.1869"/><ellipse cx="213.083" cy="234.1869" fill="#ADD1B2" rx="11" ry="11" style="stroke:#181818;stroke-width:1;"/><path d="M216.0518,239.8275 Q215.4736,240.1244 214.833,240.265 Q214.1924,240.4213 213.4893,240.4213 Q210.9893,240.4213 209.6611,238.7806 Q208.3486,237.1244 208.3486,233.9994 Q208.3486,230.8744 209.6611,229.2181 Q210.9893,227.5619 213.4893,227.5619 Q214.1924,227.5619 214.833,227.7181 Q215.4893,227.8744 216.0518,228.1713 L216.0518,230.89 Q215.4268,230.3119 214.833,230.0463 Q214.2393,229.765 213.6143,229.765 Q212.2705,229.765 211.583,230.8431 Q210.8955,231.9056 210.8955,233.9994 Q210.8955,236.0931 211.583,237.1713 Q212.2705,238.2338 213.6143,238.2338 Q214.2393,238.2338 214.833,237.9681 Q215.4268,237.6869 216.0518,237.1088 L216.0518,239.8275 Z " fill="#000000"/><text fill="#000000" font-family="sans-serif" font-size="14" lengthAdjust="spacing" textLength="195.0635" x="233.583" y="239.0336">SEGMENTNAME_RFF_msg_1</text><line style="stroke:#181818;stroke-width:0.5;" x1="8" x2="621.7295" y1="250.1869" y2="250.1869"/><text fill="#000000" font-family="sans-serif" font-size="14" lengthAdjust="spacing" textLength="172.0264" x="13" y="267.182">Nachricht: MSCONS 2.4c</text><text fill="#000000" font-family="sans-serif" font-size="14" lengthAdjust="spacing" textLength="204.1143" x="13" y="283.4789">Kontext: Nachrichtenstruktur</text><text fill="#000000" font-family="sans-serif" font-size="14" lengthAdjust="spacing" textLength="110.5439" x="13" y="299.7757">Pflichtfeld: Nein</text><text fill="#000000" font-family="sans-serif" font-size="14" lengthAdjust="spacing" textLength="603.7295" x="13" y="316.0726">Codes: 000, 100, 20, 21, 22, 23, 24, 25, 26, 99, CCI, DTM, ID, LIN, RFF, SG7, SG8, SG9</text><text fill="#000000" font-family="sans-serif" font-size="14" lengthAdjust="spacing" textLength="405.4463" x="13" y="332.3695">Prozesse: Anforderung und &#220;bermittlung von Messwerten</text><text fill="#000000" font-family="sans-serif" font-size="14" lengthAdjust="spacing" textLength="294.1641" x="13" y="348.6664">Quelle: MSCONS_MIG_2_4c_20231024.pdf</text><line style="stroke:#181818;stroke-width:0.5;" x1="8" x2="621.7295" y1="355.9681" y2="355.9681"/></g><!--class SEGMENTNAME_RFF_proc_1--><g class="entity" data-entity="SEGMENTNAME_RFF_proc_1" data-source-line="16" data-uid="ent0005" id="entity_SEGMENTNAME_RFF_proc_1"><rect fill="#F1F1F1" height="105.1563" rx="2.5" ry="2.5" style="stroke:#181818;stroke-width:0.5;" width="378.2285" x="657.75" y="238.4969"/><ellipse cx="744.5391" cy="258.6297" fill="#ADD1B2" rx="11" ry="11" style="stroke:#181818;stroke-width:1;"/><path d="M747.5078,264.2703 Q746.9297,264.5672 746.2891,264.7078 Q745.6484,264.8641 744.9453,264.8641 Q742.4453,264.8641 741.1172,263.2234 Q739.8047,261.5672 739.8047,258.4422 Q739.8047,255.3172 741.1172,253.6609 Q742.4453,252.0047 744.9453,252.0047 Q745.6484,252.0047 746.2891,252.1609 Q746.9453,252.3172 747.5078,252.6141 L747.5078,255.3328 Q746.8828,254.7547 746.2891,254.4891 Q745.6953,254.2078 745.0703,254.2078 Q743.7266,254.2078 743.0391,255.2859 Q742.3516,256.3484 742.3516,258.4422 Q742.3516,260.5359 743.0391,261.6141 Q743.7266,262.6766 745.0703,262.6766 Q745.6953,262.6766 746.2891,262.4109 Q746.8828,262.1297 747.5078,261.5516 L747.5078,264.2703 Z " fill="#000000"/><text fill="#000000" font-family="sans-serif" font-size="12" font-style="italic" lengthAdjust="spacing" textLength="61.0605" x="832.584" y="254.6355">&#171;process&#187;</text><text fill="#000000" font-family="sans-serif" font-size="14" lengthAdjust="spacing" textLength="196.1504" x="765.0391" y="270.4607">SEGMENTNAME_RFF_proc_1</text><line style="stroke:#181818;stroke-width:0.5;" x1="658.75" x2="1034.9785" y1="278.7625" y2="278.7625"/><text fill="#000000" font-family="sans-serif" font-size="14" lengthAdjust="spacing" textLength="334.3525" x="663.75" y="295.7576">Anforderung und &#220;bermittlung von Messwerten</text><text fill="#000000" font-family="sans-serif" font-size="14" lengthAdjust="spacing" textLength="105.0957" x="663.75" y="312.0545">Gesetze: MsbG</text><line style="stroke:#181818;stroke-width:0.5;" x1="658.75" x2="1034.9785" y1="319.3563" y2="319.3563"/><text fill="#000000" font-family="sans-serif" font-size="14" lengthAdjust="spacing" textLength="366.2285" x="663.75" y="336.3514">Zusammenfassung: Wie kann ein Marktpartner (z.B.</text></g><!--link SEGMENTNAME_RFF to SEGMENTNAME_RFF_msg_1--><g class="link" data-entity-1="SEGMENTNAME_RFF" data-entity-2="SEGMENTNAME_RFF_msg_1" data-source-line="15" data-uid="lnk4" id="link_SEGMENTNAME_RFF_SEGMENTNAME_RFF_msg_1"><path codeLine="15" d="M516.13,141.5169 C485.07,164.4469 452.0179,188.8444 417.5279,214.2944" fill="none" id="SEGMENTNAME_RFF-to-SEGMENTNAME_RFF_msg_1" style="stroke:#181818;stroke-width:1;"/><polygon fill="#181818" points="412.7,217.8569,422.3169,215.7317,416.7233,214.8881,417.5669,209.2945,412.7,217.8569" style="stroke:#181818;stroke-width:1;"/><text fill="#000000" font-family="sans-serif" font-size="13" lengthAdjust="spacing" textLength="85.2363" x="472.86" y="184.2538">verwendet in</text></g><!--link SEGMENTNAME_RFF to SEGMENTNAME_RFF_proc_1--><g class="link" data-entity-1="SEGMENTNAME_RFF" data-entity-2="SEGMENTNAME_RFF_proc_1" data-source-line="21" data-uid="lnk6" id="link_SEGMENTNAME_RFF_SEGMENTNAME_RFF_proc_1"><path codeLine="21" d="M645.6,141.5169 C685.27,170.8069 731.2426,204.7337 771.8726,234.7237" fill="none" id="SEGMENTNAME_RFF-to-SEGMENTNAME_RFF_proc_1" style="stroke:#181818;stroke-width:1;stroke-dasharray:7,7;"/><polygon fill="#181818" points="776.7,238.2869,771.8344,229.7238,772.6772,235.3175,767.0835,236.1603,776.7,238.2869" style="stroke:#181818;stroke-width:1;"/><text fill="#000000" font-family="sans-serif" font-size="13" lengthAdjust="spacing" textLength="91.6221" x="707.86" y="184.2538">eingebettet in</text></g><!--SRC=[bL9DRu904BtxA-RO0n90-Y4n91QLa1RwWKcJNWZ2e4HOpEwYZKt_IO_z9_wnpfgsCOqUFBp9yfYTUU-1B6M5C4ebibHMgO0kn6C_74VJQ1YEdUV9f9CHBGxPX5Xuxm14QOqE-CXtNtI_hMlan3xoPej2e4Dde7b3LZGyHzwoERGiXztd37bTIbafPjqm2AbzWvncT3wEhqjgCK_CdwNPWfVPGZeGnjv358Ebsnczk6kOn3UY_pgG2SdRfMptiefASGLMERLWoOZpcXo50uPXQ62gOYcO18lG8zY4IyAL1ls-1fuNQ32QXXe48mtkWqW3KgT1x5-hSgDA_p23yzm3FBLOLVXhBGa3Fx4IEqiim-gPXcNhgxoWaFv_ZMxNFH6P0sla6sGvIY3FnzDTyIQZti507KYEw-wZFbExZmBbLeaNCv-UNrkHqZ_12bf95nnuAH6MAMD0wKEOygLSfLmov72nrM_r8xvqtJqbrb5JvZX3AVVMlW40]--></g></svg>