<svg xmlns="http://www.w3.org/2000/svg" xmlns:xlink="http://www.w3.org/1999/xlink" contentStyleType="text/css" data-diagram-type="CLASS" height="370px" preserveAspectRatio="none" style="width:1263px;height:370px;background:#FFFFFF;" version="1.1" viewBox="0 0 1263 370" width="1263px" zoomAndPan="magnify"><title>Datenatlas - SEGMENTGRUPPE 5:0570</title><defs/><g><g class="title" data-source-line="1"><text fill="#000000" font-family="sans-serif" font-size="14" font-weight="bold" lengthAdjust="spacing" textLength="300.3027" x="474.4219" y="22.9951">Datenatlas - SEGMENTGRUPPE 5:0570</text></g><!--class SEGMENTGRUPPE_5_0570--><g class="entity" data-entity="SEGMENTGRUPPE_5_0570" data-source-line="2" data-uid="ent0002" id="entity_SEGMENTGRUPPE_5_0570"><rect fill="#F1F1F1" height="96.8906" rx="2.5" ry="2.5" style="stroke:#181818;stroke-width:0.5;" width="390.8818" x="363.38" y="44.2969"/><ellipse cx="462.7609" cy="60.2969" fill="#ADD1B2" rx="11" ry="11" style="stroke:#181818;stroke-width:1;"/><path d="M465.7296,65.9375 Q465.1515,66.2344 464.5109,66.375 Q463.8702,66.5313 463.1671,66.5313 Q460.6671,66.5313 459.339,64.8906 Q458.0265,63.2344 458.0265,60.1094 Q458.0265,56.9844 459.339,55.3281 Q460.6671,53.6719 463.1671,53.6719 Q463.8702,53.6719 464.5109,53.8281 Q465.1671,53.9844 465.7296,54.2813 L465.7296,57 Q465.1046,56.4219 464.5109,56.1563 Q463.9171,55.875 463.2921,55.875 Q461.9484,55.875 461.2609,56.9531 Q460.5734,58.0156 460.5734,60.1094 Q460.5734,62.2031 461.2609,63.2813 Q461.9484,64.3438 463.2921,64.3438 Q463.9171,64.3438 464.5109,64.0781 Q465.1046,63.7969 465.7296,63.2188 L465.7296,65.9375 Z " fill="#000000"/><text fill="#000000" font-family="sans-serif" font-size="14" lengthAdjust="spacing" textLength="183.6201" x="483.2609" y="65.1436">SEGMENTGRUPPE_5_0570</text><line style="stroke:#181818;stroke-width:0.5;" x1="364.38" x2="753.2618" y1="76.2969" y2="76.2969"/><text fill="#000000" font-family="sans-serif" font-size="14" lengthAdjust="spacing" textLength="364.8818" x="383.38" y="93.292">Name: UNS Trennung von Positions - u. Summenteil</text><text fill="#000000" font-family="sans-serif" font-size="14" lengthAdjust="spacing" textLength="66.6436" x="383.38" y="109.5889">Prozesse:</text><rect fill="none" height="6" style="stroke:#C82930;stroke-width:1;" width="6" x="371.38" y="119.5391"/><text fill="#000000" font-family="sans-serif" font-size="14" lengthAdjust="spacing" textLength="180.3457" x="383.38" y="125.8857">Netznutzungsabrechnung</text><line style="stroke:#181818;stroke-width:0.5;" x1="364.38" x2="753.2618" y1="133.1875" y2="133.1875"/></g><!--class SEGMENTGRUPPE_5_0570_msg_1--><g class="entity" data-entity="SEGMENTGRUPPE_5_0570_msg_1" data-source-line="7" data-uid="ent0003" id="entity_SEGMENTGRUPPE_5_0570_msg_1"><rect fill="#F1F1F1" height="145.7813" rx="2.5" ry="2.5" style="stroke:#181818;stroke-width:0.5;" width="461.6475" x="7" y="218.1869"/><ellipse cx="115.4009" cy="234.1869" fill="#ADD1B2" rx="11" ry="11" style="stroke:#181818;stroke-width:1;"/><path d="M118.3696,239.8275 Q117.7915,240.1244 117.1509,240.265 Q116.5103,240.4213 115.8071,240.4213 Q113.3071,240.4213 111.979,238.7806 Q110.6665,237.1244 110.6665,233.9994 Q110.6665,230.8744 111.979,229.2181 Q113.3071,227.5619 115.8071,227.5619 Q116.5103,227.5619 117.1509,227.7181 Q117.8071,227.8744 118.3696,228.1713 L118.3696,230.89 Q117.7446,230.3119 117.1509,230.0463 Q116.5571,229.765 115.9321,229.765 Q114.5884,229.765 113.9009,230.8431 Q113.2134,231.9056 113.2134,233.9994 Q113.2134,236.0931 113.9009,237.1713 Q114.5884,238.2338 115.9321,238.2338 Q116.5571,238.2338 117.1509,237.9681 Q117.7446,237.6869 118.3696,237.1088 L118.3696,239.8275 Z " fill="#000000"/><text fill="#000000" font-family="sans-serif" font-size="14" lengthAdjust="spacing" textLength="236.3457" x="135.9009" y="239.0336">SEGMENTGRUPPE_5_0570_msg_1</text><line style="stroke:#181818;stroke-width:0.5;" x1="8" x2="467.6475" y1="250.1869" y2="250.1869"/><text fill="#000000" font-family="sans-serif" font-size="14" lengthAdjust="spacing" textLength="171.4932" x="13" y="267.182">Nachricht: REMADV 2.9c</text><text fill="#000000" font-family="sans-serif" font-size="14" lengthAdjust="spacing" textLength="204.1143" x="13" y="283.4789">Kontext: Nachrichtenstruktur</text><text fill="#000000" font-family="sans-serif" font-size="14" lengthAdjust="spacing" textLength="91.4033" x="13" y="299.7757">Pflichtfeld: Ja</text><text fill="#000000" font-family="sans-serif" font-size="14" lengthAdjust="spacing" textLength="449.6475" x="13" y="316.0726">Codes: 23, 24, 25, 26, 27, 28, 99, AJT, FTX, MOA, RFF, UNS, UNT</text><text fill="#000000" font-family="sans-serif" font-size="14" lengthAdjust="spacing" textLength="251.4395" x="13" y="332.3695">Prozesse: Netznutzungsabrechnung</text><text fill="#000000" font-family="sans-serif" font-size="14" lengthAdjust="spacing" textLength="291.0811" x="13" y="348.6664">Quelle: REMADV_MIG_2.9c_20231024.pdf</text><line style="stroke:#181818;stroke-width:0.5;" x1="8" x2="467.6475" y1="355.9681" y2="355.9681"/></g><!--class SEGMENTGRUPPE_5_0570_proc_1--><g class="entity" data-entity="SEGMENTGRUPPE_5_0570_proc_1" data-source-line="16" data-uid="ent0005" id="entity_SEGMENTGRUPPE_5_0570_proc_1"><rect fill="#F1F1F1" height="105.1563" rx="2.5" ry="2.5" style="stroke:#181818;stroke-width:0.5;" width="752.6465" x="503.5" y="238.4969"/><ellipse cx="756.8569" cy="258.6297" fill="#ADD1B2" rx="11" ry="11" style="stroke:#181818;stroke-width:1;"/><path d="M759.8257,264.2703 Q759.2476,264.5672 758.6069,264.7078 Q757.9663,264.8641 757.2632,264.8641 Q754.7632,264.8641 753.4351,263.2234 Q752.1226,261.5672 752.1226,258.4422 Q752.1226,255.3172 753.4351,253.6609 Q754.7632,252.0047 757.2632,252.0047 Q757.9663,252.0047 758.6069,252.1609 Q759.2632,252.3172 759.8257,252.6141 L759.8257,255.3328 Q759.2007,254.7547 758.6069,254.4891 Q758.0132,254.2078 757.3882,254.2078 Q756.0444,254.2078 755.3569,255.2859 Q754.6694,256.3484 754.6694,258.4422 Q754.6694,260.5359 755.3569,261.6141 Q756.0444,262.6766 757.3882,262.6766 Q758.0132,262.6766 758.6069,262.4109 Q759.2007,262.1297 759.8257,261.5516 L759.8257,264.2703 Z " fill="#000000"/><text fill="#000000" font-family="sans-serif" font-size="12" font-style="italic" lengthAdjust="spacing" textLength="61.0605" x="865.543" y="254.6355">&#171;process&#187;</text><text fill="#000000" font-family="sans-serif" font-size="14" lengthAdjust="spacing" textLength="237.4326" x="777.3569" y="270.4607">SEGMENTGRUPPE_5_0570_proc_1</text><line style="stroke:#181818;stroke-width:0.5;" x1="504.5" x2="1255.1465" y1="278.7625" y2="278.7625"/><text fill="#000000" font-family="sans-serif" font-size="14" lengthAdjust="spacing" textLength="180.3457" x="509.5" y="295.7576">Netznutzungsabrechnung</text><text fill="#000000" font-family="sans-serif" font-size="14" lengthAdjust="spacing" textLength="218.0938" x="509.5" y="312.0545">Gesetze: StromNEV, StromNZV</text><text fill="#000000" font-family="sans-serif" font-size="14" lengthAdjust="spacing" textLength="740.6465" x="509.5" y="328.3514">Zusammenfassung: Wie funktioniert die Netznutzungsabrechnung zwischen Netzbetreiber und Lieferant?</text><line style="stroke:#181818;stroke-width:0.5;" x1="504.5" x2="1255.1465" y1="335.6531" y2="335.6531"/></g><!--link SEGMENTGRUPPE_5_0570 to SEGMENTGRUPPE_5_0570_msg_1--><g class="link" data-entity-1="SEGMENTGRUPPE_5_0570" data-entity-2="SEGMENTGRUPPE_5_0570_msg_1" data-source-line="15" data-uid="lnk4" id="link_SEGMENTGRUPPE_5_0570_SEGMENTGRUPPE_5_0570_msg_1"><path codeLine="15" d="M480.71,141.5169 C443.22,164.4469 402.6288,189.2768 361.0088,214.7268" fill="none" id="SEGMENTGRUPPE_5_0570-to-SEGMENTGRUPPE_5_0570_msg_1" style="stroke:#181818;stroke-width:1;"/><polygon fill="#181818" points="355.89,217.8569,365.655,216.5743,360.1557,215.2485,361.4815,209.7492,355.89,217.8569" style="stroke:#181818;stroke-width:1;"/><text fill="#000000" font-family="sans-serif" font-size="13" lengthAdjust="spacing" textLength="85.2363" x="428.82" y="184.2538">verwendet in</text></g><!--link SEGMENTGRUPPE_5_0570 to SEGMENTGRUPPE_5_0570_proc_1--><g class="link" data-entity-1="SEGMENTGRUPPE_5_0570" data-entity-2="SEGMENTGRUPPE_5_0570_proc_1" data-source-line="21" data-uid="lnk6" id="link_SEGMENTGRUPPE_5_0570_SEGMENTGRUPPE_5_0570_proc_1"><path codeLine="21" d="M636.94,141.5169 C684.73,170.7469 740.7618,205.0158 789.7518,234.9858" fill="none" id="SEGMENTGRUPPE_5_0570-to-SEGMENTGRUPPE_5_0570_proc_1" style="stroke:#181818;stroke-width:1;stroke-dasharray:7,7;"/><polygon fill="#181818" points="794.87,238.1169,789.2801,230.0081,790.6048,235.5076,785.1053,236.8324,794.87,238.1169" style="stroke:#181818;stroke-width:1;"/><text fill="#000000" font-family="sans-serif" font-size="13" lengthAdjust="spacing" textLength="91.6221" x="710.82" y="184.2538">eingebettet in</text></g><!--SRC=[VLBRJkCm47tlLvmFIACIwBArK5VLabR0DfGs5CHBb2QJrY9na2-0YlXtnbnMknBjmrYZEPwPSuvjfQq9fxabbTiwD-XY4K-cSP9EvjUpMOo-wFMFUvs2CVC_bFKp3-6b0oHvGmBNoGAf9gMSMkEnLPYrHbhPAZ_MXLYufY5bITRSCjFjbemXmJaOJyXkbRDRxZNvIbEnyMCwhtjMPurPPmUV18gDbiN62ipZwUXqYIWS50nSjBpmcSj_Rv0oLhjxwxHdKTM-Lb5T2fpdNFdTbcG4eiC0qH57d-C7np77pm23GO3HUHfWdDu6c5wE0ip7uy1hzqVwhx9Tce0hHtLDNropwTaaytopg1ST7lIYe_2Xh5ZwjtvtkyDzRWWyaduYLPA5LFlSUz1jmGqd9pvXmiFXXvMxI4_8CCIi5rQtJH8lWy_iRidedJEvVzwAz_5zWHj9g9owznz0ahOekV3zS6oVf2asfDxn5LbDSaKQJfNu8waYdIlxQvSXOJZSAr20f5eJZxNldhm1]--></g></svg>