<svg xmlns="http://www.w3.org/2000/svg" xmlns:xlink="http://www.w3.org/1999/xlink" contentStyleType="text/css" data-diagram-type="CLASS" height="370px" preserveAspectRatio="none" style="width:1231px;height:370px;background:#FFFFFF;" version="1.1" viewBox="0 0 1231 370" width="1231px" zoomAndPan="magnify"><title>Datenatlas - SEGMENTNAME:R0024</title><defs/><g><g class="title" data-source-line="1"><text fill="#000000" font-family="sans-serif" font-size="14" font-weight="bold" lengthAdjust="spacing" textLength="278.79" x="469.2332" y="22.9951">Datenatlas - SEGMENTNAME:R0024</text></g><!--class SEGMENTNAME_R0024--><g class="entity" data-entity="SEGMENTNAME_R0024" data-source-line="2" data-uid="ent0002" id="entity_SEGMENTNAME_R0024"><rect fill="#F1F1F1" height="96.8906" rx="2.5" ry="2.5" style="stroke:#181818;stroke-width:0.5;" width="483.8164" x="293.03" y="44.2969"/><ellipse cx="449.7575" cy="60.2969" fill="#ADD1B2" rx="11" ry="11" style="stroke:#181818;stroke-width:1;"/><path d="M452.7263,65.9375 Q452.1482,66.2344 451.5075,66.375 Q450.8669,66.5313 450.1638,66.5313 Q447.6638,66.5313 446.3357,64.8906 Q445.0232,63.2344 445.0232,60.1094 Q445.0232,56.9844 446.3357,55.3281 Q447.6638,53.6719 450.1638,53.6719 Q450.8669,53.6719 451.5075,53.8281 Q452.1638,53.9844 452.7263,54.2813 L452.7263,57 Q452.1013,56.4219 451.5075,56.1563 Q450.9138,55.875 450.2888,55.875 Q448.945,55.875 448.2575,56.9531 Q447.57,58.0156 447.57,60.1094 Q447.57,62.2031 448.2575,63.2813 Q448.945,64.3438 450.2888,64.3438 Q450.9138,64.3438 451.5075,64.0781 Q452.1013,63.7969 452.7263,63.2188 L452.7263,65.9375 Z " fill="#000000"/><text fill="#000000" font-family="sans-serif" font-size="14" lengthAdjust="spacing" textLength="161.8613" x="470.2575" y="65.1436">SEGMENTNAME_R0024</text><line style="stroke:#181818;stroke-width:0.5;" x1="294.03" x2="775.8464" y1="76.2969" y2="76.2969"/><text fill="#000000" font-family="sans-serif" font-size="14" lengthAdjust="spacing" textLength="457.8164" x="313.03" y="93.292">Name: Zugeh&#246;rige Rechnung oder Bestellung auf Positionsebene</text><text fill="#000000" font-family="sans-serif" font-size="14" lengthAdjust="spacing" textLength="66.6436" x="313.03" y="109.5889">Prozesse:</text><rect fill="none" height="6" style="stroke:#C82930;stroke-width:1;" width="6" x="301.03" y="119.5391"/><text fill="#000000" font-family="sans-serif" font-size="14" lengthAdjust="spacing" textLength="180.3457" x="313.03" y="125.8857">Netznutzungsabrechnung</text><line style="stroke:#181818;stroke-width:0.5;" x1="294.03" x2="775.8464" y1="133.1875" y2="133.1875"/></g><!--class SEGMENTNAME_R0024_msg_1--><g class="entity" data-entity="SEGMENTNAME_R0024_msg_1" data-source-line="7" data-uid="ent0003" id="entity_SEGMENTNAME_R0024_msg_1"><rect fill="#F1F1F1" height="145.7813" rx="2.5" ry="2.5" style="stroke:#181818;stroke-width:0.5;" width="429.8672" x="7" y="218.1869"/><ellipse cx="110.3901" cy="234.1869" fill="#ADD1B2" rx="11" ry="11" style="stroke:#181818;stroke-width:1;"/><path d="M113.3589,239.8275 Q112.7808,240.1244 112.1401,240.265 Q111.4995,240.4213 110.7964,240.4213 Q108.2964,240.4213 106.9683,238.7806 Q105.6558,237.1244 105.6558,233.9994 Q105.6558,230.8744 106.9683,229.2181 Q108.2964,227.5619 110.7964,227.5619 Q111.4995,227.5619 112.1401,227.7181 Q112.7964,227.8744 113.3589,228.1713 L113.3589,230.89 Q112.7339,230.3119 112.1401,230.0463 Q111.5464,229.765 110.9214,229.765 Q109.5776,229.765 108.8901,230.8431 Q108.2026,231.9056 108.2026,233.9994 Q108.2026,236.0931 108.8901,237.1713 Q109.5776,238.2338 110.9214,238.2338 Q111.5464,238.2338 112.1401,237.9681 Q112.7339,237.6869 113.3589,237.1088 L113.3589,239.8275 Z " fill="#000000"/><text fill="#000000" font-family="sans-serif" font-size="14" lengthAdjust="spacing" textLength="214.5869" x="130.8901" y="239.0336">SEGMENTNAME_R0024_msg_1</text><line style="stroke:#181818;stroke-width:0.5;" x1="8" x2="435.8672" y1="250.1869" y2="250.1869"/><text fill="#000000" font-family="sans-serif" font-size="14" lengthAdjust="spacing" textLength="171.4932" x="13" y="267.182">Nachricht: REMADV 2.9c</text><text fill="#000000" font-family="sans-serif" font-size="14" lengthAdjust="spacing" textLength="204.1143" x="13" y="283.4789">Kontext: Nachrichtenstruktur</text><text fill="#000000" font-family="sans-serif" font-size="14" lengthAdjust="spacing" textLength="91.4033" x="13" y="299.7757">Pflichtfeld: Ja</text><text fill="#000000" font-family="sans-serif" font-size="14" lengthAdjust="spacing" textLength="347.6826" x="13" y="316.0726">Codes: 10, 99, AJT, DLI, FTX, MOA, RFF, UNS, UNT</text><text fill="#000000" font-family="sans-serif" font-size="14" lengthAdjust="spacing" textLength="251.4395" x="13" y="332.3695">Prozesse: Netznutzungsabrechnung</text><text fill="#000000" font-family="sans-serif" font-size="14" lengthAdjust="spacing" textLength="417.8672" x="13" y="348.6664">Quelle: REMADV_MIG_2.9c_au&#223;erordentliche_20240726.pdf</text><line style="stroke:#181818;stroke-width:0.5;" x1="8" x2="435.8672" y1="355.9681" y2="355.9681"/></g><!--class SEGMENTNAME_R0024_proc_1--><g class="entity" data-entity="SEGMENTNAME_R0024_proc_1" data-source-line="16" data-uid="ent0005" id="entity_SEGMENTNAME_R0024_proc_1"><rect fill="#F1F1F1" height="105.1563" rx="2.5" ry="2.5" style="stroke:#181818;stroke-width:0.5;" width="752.6465" x="471.61" y="238.4969"/><ellipse cx="735.8463" cy="258.6297" fill="#ADD1B2" rx="11" ry="11" style="stroke:#181818;stroke-width:1;"/><path d="M738.8151,264.2703 Q738.237,264.5672 737.5963,264.7078 Q736.9557,264.8641 736.2526,264.8641 Q733.7526,264.8641 732.4245,263.2234 Q731.112,261.5672 731.112,258.4422 Q731.112,255.3172 732.4245,253.6609 Q733.7526,252.0047 736.2526,252.0047 Q736.9557,252.0047 737.5963,252.1609 Q738.2526,252.3172 738.8151,252.6141 L738.8151,255.3328 Q738.1901,254.7547 737.5963,254.4891 Q737.0026,254.2078 736.3776,254.2078 Q735.0338,254.2078 734.3463,255.2859 Q733.6588,256.3484 733.6588,258.4422 Q733.6588,260.5359 734.3463,261.6141 Q735.0338,262.6766 736.3776,262.6766 Q737.0026,262.6766 737.5963,262.4109 Q738.1901,262.1297 738.8151,261.5516 L738.8151,264.2703 Z " fill="#000000"/><text fill="#000000" font-family="sans-serif" font-size="12" font-style="italic" lengthAdjust="spacing" textLength="61.0605" x="833.653" y="254.6355">&#171;process&#187;</text><text fill="#000000" font-family="sans-serif" font-size="14" lengthAdjust="spacing" textLength="215.6738" x="756.3463" y="270.4607">SEGMENTNAME_R0024_proc_1</text><line style="stroke:#181818;stroke-width:0.5;" x1="472.61" x2="1223.2565" y1="278.7625" y2="278.7625"/><text fill="#000000" font-family="sans-serif" font-size="14" lengthAdjust="spacing" textLength="180.3457" x="477.61" y="295.7576">Netznutzungsabrechnung</text><text fill="#000000" font-family="sans-serif" font-size="14" lengthAdjust="spacing" textLength="218.0938" x="477.61" y="312.0545">Gesetze: StromNEV, StromNZV</text><text fill="#000000" font-family="sans-serif" font-size="14" lengthAdjust="spacing" textLength="740.6465" x="477.61" y="328.3514">Zusammenfassung: Wie funktioniert die Netznutzungsabrechnung zwischen Netzbetreiber und Lieferant?</text><line style="stroke:#181818;stroke-width:0.5;" x1="472.61" x2="1223.2565" y1="335.6531" y2="335.6531"/></g><!--link SEGMENTNAME_R0024 to SEGMENTNAME_R0024_msg_1--><g class="link" data-entity-1="SEGMENTNAME_R0024" data-entity-2="SEGMENTNAME_R0024_msg_1" data-source-line="15" data-uid="lnk4" id="link_SEGMENTNAME_R0024_SEGMENTNAME_R0024_msg_1"><path codeLine="15" d="M458.77,141.5169 C422.21,164.4469 382.7231,189.219 342.1431,214.669" fill="none" id="SEGMENTNAME_R0024-to-SEGMENTNAME_R0024_msg_1" style="stroke:#181818;stroke-width:1;"/><polygon fill="#181818" points="337.06,217.8569,346.8098,216.4638,341.2959,215.2003,342.5593,209.6864,337.06,217.8569" style="stroke:#181818;stroke-width:1;"/><text fill="#000000" font-family="sans-serif" font-size="13" lengthAdjust="spacing" textLength="85.2363" x="407.93" y="184.2538">verwendet in</text></g><!--link SEGMENTNAME_R0024 to SEGMENTNAME_R0024_proc_1--><g class="link" data-entity-1="SEGMENTNAME_R0024" data-entity-2="SEGMENTNAME_R0024_proc_1" data-source-line="21" data-uid="lnk6" id="link_SEGMENTNAME_R0024_SEGMENTNAME_R0024_proc_1"><path codeLine="21" d="M611.1,141.5169 C657.7,170.7469 712.2475,204.9582 760.0175,234.9282" fill="none" id="SEGMENTNAME_R0024-to-SEGMENTNAME_R0024_proc_1" style="stroke:#181818;stroke-width:1;stroke-dasharray:7,7;"/><polygon fill="#181818" points="765.1,238.1169,759.602,229.9455,760.8645,235.4596,755.3504,236.7222,765.1,238.1169" style="stroke:#181818;stroke-width:1;"/><text fill="#000000" font-family="sans-serif" font-size="13" lengthAdjust="spacing" textLength="91.6221" x="683.93" y="184.2538">eingebettet in</text></g><!--SRC=[TP9HRjf048RVESKSm222gbQi8YfQ32ADtHG8YNYn5djiLjZZQ7UsgOXwbjuY5yZ5CYOqYfJunHh_Cxlx_Vyk6ouH9fgHD9VQGHUMuImAurKyZaArwFS7dpgfDDnRFJdgyD01Y7M52ZQ-mDtJepK5mWBJ7NageCxGmZTqZ6NP_6kVmrNj39kQ76wHKDPVsVg0pg6I6kJq6Fb0dW-omEcjFUtL-Ti6aLIkICvEAEdEcdJ72XPXD9wiOT0RfjBuKHFZ7v5V9v0SMxzdRnk4l6oq7CjCmOKMvRkWEmLd_G26mm365wi09fVp0AQhsm2Yd-C05jDf0DVnilcitlfeSm3moqiG-1ykYUQpf05Cj7_wXxQs6H8t99WCn5Z_o-1pxoxBnVhxvBlTKMiK2dwZlKVAaC5GQsvtjavb-loyAOHyD7e9iOr-XavQWhzaMrTnk0vErMOjtOrtkggGSZbCvXNS68JSqxwvR8EM8HFXuytXS6-SsAPZVujiqMpbwNZAuD9WZbOJV_qmXrvlr6vD0HegvA4n7wDu1W00]--></g></svg>