<svg xmlns="http://www.w3.org/2000/svg" xmlns:xlink="http://www.w3.org/1999/xlink" contentStyleType="text/css" data-diagram-type="CLASS" height="370px" preserveAspectRatio="none" style="width:860px;height:370px;background:#FFFFFF;" version="1.1" viewBox="0 0 860 370" width="860px" zoomAndPan="magnify"><title>Datenatlas - STS:0380</title><defs/><g><g class="title" data-source-line="1"><text fill="#000000" font-family="sans-serif" font-size="14" font-weight="bold" lengthAdjust="spacing" textLength="175.7793" x="335.4046" y="22.9951">Datenatlas - STS:0380</text></g><!--class STS_0380--><g class="entity" data-entity="STS_0380" data-source-line="2" data-uid="ent0002" id="entity_STS_0380"><rect fill="#F1F1F1" height="96.8906" rx="2.5" ry="2.5" style="stroke:#181818;stroke-width:0.5;" width="360.3525" x="263.3" y="44.2969"/><ellipse cx="404.7492" cy="60.2969" fill="#ADD1B2" rx="11" ry="11" style="stroke:#181818;stroke-width:1;"/><path d="M407.718,65.9375 Q407.1398,66.2344 406.4992,66.375 Q405.8586,66.5313 405.1555,66.5313 Q402.6555,66.5313 401.3273,64.8906 Q400.0148,63.2344 400.0148,60.1094 Q400.0148,56.9844 401.3273,55.3281 Q402.6555,53.6719 405.1555,53.6719 Q405.8586,53.6719 406.4992,53.8281 Q407.1555,53.9844 407.718,54.2813 L407.718,57 Q407.093,56.4219 406.4992,56.1563 Q405.9055,55.875 405.2805,55.875 Q403.9367,55.875 403.2492,56.9531 Q402.5617,58.0156 402.5617,60.1094 Q402.5617,62.2031 403.2492,63.2813 Q403.9367,64.3438 405.2805,64.3438 Q405.9055,64.3438 406.4992,64.0781 Q407.093,63.7969 407.718,63.2188 L407.718,65.9375 Z " fill="#000000"/><text fill="#000000" font-family="sans-serif" font-size="14" lengthAdjust="spacing" textLength="68.9541" x="425.2492" y="65.1436">STS_0380</text><line style="stroke:#181818;stroke-width:0.5;" x1="264.3" x2="622.6525" y1="76.2969" y2="76.2969"/><text fill="#000000" font-family="sans-serif" font-size="14" lengthAdjust="spacing" textLength="157.8418" x="283.3" y="93.292">Name: Korrekturgrund</text><text fill="#000000" font-family="sans-serif" font-size="14" lengthAdjust="spacing" textLength="66.6436" x="283.3" y="109.5889">Prozesse:</text><rect fill="none" height="6" style="stroke:#C82930;stroke-width:1;" width="6" x="271.3" y="119.5391"/><text fill="#000000" font-family="sans-serif" font-size="14" lengthAdjust="spacing" textLength="334.3525" x="283.3" y="125.8857">Anforderung und &#220;bermittlung von Messwerten</text><line style="stroke:#181818;stroke-width:0.5;" x1="264.3" x2="622.6525" y1="133.1875" y2="133.1875"/></g><!--class STS_0380_msg_1--><g class="entity" data-entity="STS_0380_msg_1" data-source-line="7" data-uid="ent0003" id="entity_STS_0380_msg_1"><rect fill="#F1F1F1" height="145.7813" rx="2.5" ry="2.5" style="stroke:#181818;stroke-width:0.5;" width="432.9502" x="7" y="218.1869"/><ellipse cx="158.3853" cy="234.1869" fill="#ADD1B2" rx="11" ry="11" style="stroke:#181818;stroke-width:1;"/><path d="M161.354,239.8275 Q160.7759,240.1244 160.1353,240.265 Q159.4946,240.4213 158.7915,240.4213 Q156.2915,240.4213 154.9634,238.7806 Q153.6509,237.1244 153.6509,233.9994 Q153.6509,230.8744 154.9634,229.2181 Q156.2915,227.5619 158.7915,227.5619 Q159.4946,227.5619 160.1353,227.7181 Q160.7915,227.8744 161.354,228.1713 L161.354,230.89 Q160.729,230.3119 160.1353,230.0463 Q159.5415,229.765 158.9165,229.765 Q157.5728,229.765 156.8853,230.8431 Q156.1978,231.9056 156.1978,233.9994 Q156.1978,236.0931 156.8853,237.1713 Q157.5728,238.2338 158.9165,238.2338 Q159.5415,238.2338 160.1353,237.9681 Q160.729,237.6869 161.354,237.1088 L161.354,239.8275 Z " fill="#000000"/><text fill="#000000" font-family="sans-serif" font-size="14" lengthAdjust="spacing" textLength="121.6797" x="178.8853" y="239.0336">STS_0380_msg_1</text><line style="stroke:#181818;stroke-width:0.5;" x1="8" x2="438.9502" y1="250.1869" y2="250.1869"/><text fill="#000000" font-family="sans-serif" font-size="14" lengthAdjust="spacing" textLength="172.0264" x="13" y="267.182">Nachricht: MSCONS 2.4c</text><text fill="#000000" font-family="sans-serif" font-size="14" lengthAdjust="spacing" textLength="204.1143" x="13" y="283.4789">Kontext: Nachrichtenstruktur</text><text fill="#000000" font-family="sans-serif" font-size="14" lengthAdjust="spacing" textLength="110.5439" x="13" y="299.7757">Pflichtfeld: Nein</text><text fill="#000000" font-family="sans-serif" font-size="14" lengthAdjust="spacing" textLength="78.627" x="13" y="316.0726">Codes: STS</text><text fill="#000000" font-family="sans-serif" font-size="14" lengthAdjust="spacing" textLength="405.4463" x="13" y="332.3695">Prozesse: Anforderung und &#220;bermittlung von Messwerten</text><text fill="#000000" font-family="sans-serif" font-size="14" lengthAdjust="spacing" textLength="420.9502" x="13" y="348.6664">Quelle: MSCONS_MIG_2_4c_au&#223;erordentliche_20240726.pdf</text><line style="stroke:#181818;stroke-width:0.5;" x1="8" x2="438.9502" y1="355.9681" y2="355.9681"/></g><!--class STS_0380_proc_1--><g class="entity" data-entity="STS_0380_proc_1" data-source-line="16" data-uid="ent0005" id="entity_STS_0380_proc_1"><rect fill="#F1F1F1" height="105.1563" rx="2.5" ry="2.5" style="stroke:#181818;stroke-width:0.5;" width="378.2285" x="475.36" y="238.4969"/><ellipse cx="598.841" cy="258.6297" fill="#ADD1B2" rx="11" ry="11" style="stroke:#181818;stroke-width:1;"/><path d="M601.8097,264.2703 Q601.2316,264.5672 600.591,264.7078 Q599.9503,264.8641 599.2472,264.8641 Q596.7472,264.8641 595.4191,263.2234 Q594.1066,261.5672 594.1066,258.4422 Q594.1066,255.3172 595.4191,253.6609 Q596.7472,252.0047 599.2472,252.0047 Q599.9503,252.0047 600.591,252.1609 Q601.2472,252.3172 601.8097,252.6141 L601.8097,255.3328 Q601.1847,254.7547 600.591,254.4891 Q599.9972,254.2078 599.3722,254.2078 Q598.0285,254.2078 597.341,255.2859 Q596.6535,256.3484 596.6535,258.4422 Q596.6535,260.5359 597.341,261.6141 Q598.0285,262.6766 599.3722,262.6766 Q599.9972,262.6766 600.591,262.4109 Q601.1847,262.1297 601.8097,261.5516 L601.8097,264.2703 Z " fill="#000000"/><text fill="#000000" font-family="sans-serif" font-size="12" font-style="italic" lengthAdjust="spacing" textLength="61.0605" x="650.194" y="254.6355">&#171;process&#187;</text><text fill="#000000" font-family="sans-serif" font-size="14" lengthAdjust="spacing" textLength="122.7666" x="619.341" y="270.4607">STS_0380_proc_1</text><line style="stroke:#181818;stroke-width:0.5;" x1="476.36" x2="852.5885" y1="278.7625" y2="278.7625"/><text fill="#000000" font-family="sans-serif" font-size="14" lengthAdjust="spacing" textLength="334.3525" x="481.36" y="295.7576">Anforderung und &#220;bermittlung von Messwerten</text><text fill="#000000" font-family="sans-serif" font-size="14" lengthAdjust="spacing" textLength="105.0957" x="481.36" y="312.0545">Gesetze: MsbG</text><line style="stroke:#181818;stroke-width:0.5;" x1="476.36" x2="852.5885" y1="319.3563" y2="319.3563"/><text fill="#000000" font-family="sans-serif" font-size="14" lengthAdjust="spacing" textLength="366.2285" x="481.36" y="336.3514">Zusammenfassung: Wie kann ein Marktpartner (z.B.</text></g><!--link STS_0380 to STS_0380_msg_1--><g class="link" data-entity-1="STS_0380" data-entity-2="STS_0380_msg_1" data-source-line="15" data-uid="lnk4" id="link_STS_0380_STS_0380_msg_1"><path codeLine="15" d="M389.94,141.5169 C364.25,164.4469 337.3967,188.412 308.8767,213.862" fill="none" id="STS_0380-to-STS_0380_msg_1" style="stroke:#181818;stroke-width:1;"/><polygon fill="#181818" points="304.4,217.8569,313.7783,214.8491,308.1306,214.5278,308.4519,208.8801,304.4,217.8569" style="stroke:#181818;stroke-width:1;"/><text fill="#000000" font-family="sans-serif" font-size="13" lengthAdjust="spacing" textLength="85.2363" x="354.48" y="184.2538">verwendet in</text></g><!--link STS_0380 to STS_0380_proc_1--><g class="link" data-entity-1="STS_0380" data-entity-2="STS_0380_proc_1" data-source-line="21" data-uid="lnk6" id="link_STS_0380_STS_0380_proc_1"><path codeLine="21" d="M497.26,141.5169 C530.22,170.8069 567.9343,204.3121 601.6943,234.3021" fill="none" id="STS_0380-to-STS_0380_proc_1" style="stroke:#181818;stroke-width:1;stroke-dasharray:7,7;"/><polygon fill="#181818" points="606.18,238.2869,602.108,229.3192,602.4419,234.9662,596.7949,235.3002,606.18,238.2869" style="stroke:#181818;stroke-width:1;"/><text fill="#000000" font-family="sans-serif" font-size="13" lengthAdjust="spacing" textLength="91.6221" x="547.48" y="184.2538">eingebettet in</text></g><!--SRC=[bP31IiD048RlVOevUcc8iQWi9Q0LYfHK9OBGox9D9cbeiYcparOgledWm_J5d2rQIZtrjlFFF_j_CrnnZV1W6AtXsZZeG_gQgl3gDknbKZjVQb_2HmzWQXfKC6c9SCaTbTJPNEHdQhVe72fvWtnnPukMSfHk2UA0tTSSgQcOQw-iMmk9s3T84jlxF0dIZIlrvMzSjg0gMx2291qzJLE8Wa4cZKbh6Tz5FZZGEgREGtcUelPQWNKk5goiQACsHwTyoZ7mUQW0BntMDVxXwEHnh2CzoBJfTjz8_YVBFXjr54Q3y2Qw3bPv8JiUpjZlnwUhAbWZRT3co22i9-TOKPk9QJZq3s69u_rjpWGVeqFUUd8t7qizwvnf6hI5PCc0WhSAOMci1JaN98QMl3B45Wakji5zSBn24CJ_y9IVAt6EpFijVW00]--></g></svg>