<svg xmlns="http://www.w3.org/2000/svg" xmlns:xlink="http://www.w3.org/1999/xlink" contentStyleType="text/css" data-diagram-type="CLASS" height="403px" preserveAspectRatio="none" style="width:4163px;height:403px;background:#FFFFFF;" version="1.1" viewBox="0 0 4163 403" width="4163px" zoomAndPan="magnify"><title>Datenatlas - UNH:S016</title><defs/><g><g class="title" data-source-line="1"><text fill="#000000" font-family="sans-serif" font-size="14" font-weight="bold" lengthAdjust="spacing" textLength="181.207" x="1984.0457" y="22.9951">Datenatlas - UNH:S016</text></g><!--class UNH_S016--><g class="entity" data-entity="UNH_S016" data-source-line="2" data-uid="ent0002" id="entity_UNH_S016"><rect fill="#F1F1F1" height="129.4844" rx="2.5" ry="2.5" style="stroke:#181818;stroke-width:0.5;" width="360.3525" x="1603.01" y="44.2969"/><ellipse cx="1742.0085" cy="60.2969" fill="#ADD1B2" rx="11" ry="11" style="stroke:#181818;stroke-width:1;"/><path d="M1744.9773,65.9375 Q1744.3992,66.2344 1743.7585,66.375 Q1743.1179,66.5313 1742.4148,66.5313 Q1739.9148,66.5313 1738.5867,64.8906 Q1737.2742,63.2344 1737.2742,60.1094 Q1737.2742,56.9844 1738.5867,55.3281 Q1739.9148,53.6719 1742.4148,53.6719 Q1743.1179,53.6719 1743.7585,53.8281 Q1744.4148,53.9844 1744.9773,54.2813 L1744.9773,57 Q1744.3523,56.4219 1743.7585,56.1563 Q1743.1648,55.875 1742.5398,55.875 Q1741.196,55.875 1740.5085,56.9531 Q1739.821,58.0156 1739.821,60.1094 Q1739.821,62.2031 1740.5085,63.2813 Q1741.196,64.3438 1742.5398,64.3438 Q1743.1648,64.3438 1743.7585,64.0781 Q1744.3523,63.7969 1744.9773,63.2188 L1744.9773,65.9375 Z " fill="#000000"/><text fill="#000000" font-family="sans-serif" font-size="14" lengthAdjust="spacing" textLength="73.8555" x="1762.5085" y="65.1436">UNH_S016</text><line style="stroke:#181818;stroke-width:0.5;" x1="1604.01" x2="1962.3625" y1="76.2969" y2="76.2969"/><text fill="#000000" font-family="sans-serif" font-size="14" lengthAdjust="spacing" textLength="226.96" x="1623.01" y="93.292">Name: Empf&#228;nger der Nachricht</text><text fill="#000000" font-family="sans-serif" font-size="14" lengthAdjust="spacing" textLength="66.6436" x="1623.01" y="109.5889">Prozesse:</text><rect fill="none" height="6" style="stroke:#C82930;stroke-width:1;" width="6" x="1611.01" y="119.5391"/><text fill="#000000" font-family="sans-serif" font-size="14" lengthAdjust="spacing" textLength="180.3457" x="1623.01" y="125.8857">Netznutzungsabrechnung</text><rect fill="none" height="6" style="stroke:#C82930;stroke-width:1;" width="6" x="1611.01" y="135.8359"/><text fill="#000000" font-family="sans-serif" font-size="14" lengthAdjust="spacing" textLength="223.2822" x="1623.01" y="142.1826">Messstellenbetriebsabrechnung</text><rect fill="none" height="6" style="stroke:#C82930;stroke-width:1;" width="6" x="1611.01" y="152.1328"/><text fill="#000000" font-family="sans-serif" font-size="14" lengthAdjust="spacing" textLength="334.3525" x="1623.01" y="158.4795">Anforderung und &#220;bermittlung von Messwerten</text><line style="stroke:#181818;stroke-width:0.5;" x1="1604.01" x2="1962.3625" y1="165.7813" y2="165.7813"/></g><!--class UNH_S016_msg_1--><g class="entity" data-entity="UNH_S016_msg_1" data-source-line="9" data-uid="ent0003" id="entity_UNH_S016_msg_1"><rect fill="#F1F1F1" height="129.4844" rx="2.5" ry="2.5" style="stroke:#181818;stroke-width:0.5;" width="430.3662" x="7" y="258.9369"/><ellipse cx="154.6426" cy="274.9369" fill="#ADD1B2" rx="11" ry="11" style="stroke:#181818;stroke-width:1;"/><path d="M157.6113,280.5775 Q157.0332,280.8744 156.3926,281.015 Q155.752,281.1713 155.0488,281.1713 Q152.5488,281.1713 151.2207,279.5306 Q149.9082,277.8744 149.9082,274.7494 Q149.9082,271.6244 151.2207,269.9681 Q152.5488,268.3119 155.0488,268.3119 Q155.752,268.3119 156.3926,268.4681 Q157.0488,268.6244 157.6113,268.9213 L157.6113,271.64 Q156.9863,271.0619 156.3926,270.7963 Q155.7988,270.515 155.1738,270.515 Q153.8301,270.515 153.1426,271.5931 Q152.4551,272.6556 152.4551,274.7494 Q152.4551,276.8431 153.1426,277.9213 Q153.8301,278.9838 155.1738,278.9838 Q155.7988,278.9838 156.3926,278.7181 Q156.9863,278.4369 157.6113,277.8588 L157.6113,280.5775 Z " fill="#000000"/><text fill="#000000" font-family="sans-serif" font-size="14" lengthAdjust="spacing" textLength="126.5811" x="175.1426" y="279.7836">UNH_S016_msg_1</text><line style="stroke:#181818;stroke-width:0.5;" x1="8" x2="436.3662" y1="290.9369" y2="290.9369"/><text fill="#000000" font-family="sans-serif" font-size="14" lengthAdjust="spacing" textLength="169.4424" x="13" y="307.932">Nachricht: CONTRL 2.0b</text><text fill="#000000" font-family="sans-serif" font-size="14" lengthAdjust="spacing" textLength="91.4033" x="13" y="324.2289">Pflichtfeld: Ja</text><text fill="#000000" font-family="sans-serif" font-size="14" lengthAdjust="spacing" textLength="150.0625" x="13" y="340.5257">Codes: 23, 25, ID, MP</text><text fill="#000000" font-family="sans-serif" font-size="14" lengthAdjust="spacing" textLength="418.3662" x="13" y="356.8226">Quelle: CONTRL_MIG_2_0b_au&#223;erordentliche_20240726.pdf</text><line style="stroke:#181818;stroke-width:0.5;" x1="8" x2="436.3662" y1="364.1244" y2="364.1244"/><text fill="#000000" font-family="sans-serif" font-size="14" lengthAdjust="spacing" textLength="277.5664" x="13" y="381.1195">Kontext: bei Empf&#228;nger nicht bekannt).</text></g><!--class UNH_S016_msg_2--><g class="entity" data-entity="UNH_S016_msg_2" data-source-line="17" data-uid="ent0005" id="entity_UNH_S016_msg_2"><rect fill="#F1F1F1" height="145.7813" rx="2.5" ry="2.5" style="stroke:#181818;stroke-width:0.5;" width="296.1357" x="472.12" y="250.7869"/><ellipse cx="552.6473" cy="266.7869" fill="#ADD1B2" rx="11" ry="11" style="stroke:#181818;stroke-width:1;"/><path d="M555.6161,272.4275 Q555.038,272.7244 554.3973,272.865 Q553.7567,273.0213 553.0536,273.0213 Q550.5536,273.0213 549.2255,271.3806 Q547.913,269.7244 547.913,266.5994 Q547.913,263.4744 549.2255,261.8181 Q550.5536,260.1619 553.0536,260.1619 Q553.7567,260.1619 554.3973,260.3181 Q555.0536,260.4744 555.6161,260.7713 L555.6161,263.49 Q554.9911,262.9119 554.3973,262.6463 Q553.8036,262.365 553.1786,262.365 Q551.8348,262.365 551.1473,263.4431 Q550.4598,264.5056 550.4598,266.5994 Q550.4598,268.6931 551.1473,269.7713 Q551.8348,270.8338 553.1786,270.8338 Q553.8036,270.8338 554.3973,270.5681 Q554.9911,270.2869 555.6161,269.7088 L555.6161,272.4275 Z " fill="#000000"/><text fill="#000000" font-family="sans-serif" font-size="14" lengthAdjust="spacing" textLength="126.5811" x="573.1473" y="271.6336">UNH_S016_msg_2</text><line style="stroke:#181818;stroke-width:0.5;" x1="473.12" x2="767.2557" y1="282.7869" y2="282.7869"/><text fill="#000000" font-family="sans-serif" font-size="14" lengthAdjust="spacing" textLength="161.998" x="478.12" y="299.782">Nachricht: INSRPT 1.1a</text><text fill="#000000" font-family="sans-serif" font-size="14" lengthAdjust="spacing" textLength="122.917" x="478.12" y="316.0789">Kontext: Hinweis:</text><text fill="#000000" font-family="sans-serif" font-size="14" lengthAdjust="spacing" textLength="91.4033" x="478.12" y="332.3757">Pflichtfeld: Ja</text><text fill="#000000" font-family="sans-serif" font-size="14" lengthAdjust="spacing" textLength="83.5488" x="478.12" y="348.6726">Codes: UNH</text><text fill="#000000" font-family="sans-serif" font-size="14" lengthAdjust="spacing" textLength="251.4395" x="478.12" y="364.9695">Prozesse: Netznutzungsabrechnung</text><text fill="#000000" font-family="sans-serif" font-size="14" lengthAdjust="spacing" textLength="284.1357" x="478.12" y="381.2664">Quelle: INSRPT_MIG_1_1a_20211001.pdf</text><line style="stroke:#181818;stroke-width:0.5;" x1="473.12" x2="767.2557" y1="388.5681" y2="388.5681"/></g><!--class UNH_S016_msg_3--><g class="entity" data-entity="UNH_S016_msg_3" data-source-line="26" data-uid="ent0007" id="entity_UNH_S016_msg_3"><rect fill="#F1F1F1" height="145.7813" rx="2.5" ry="2.5" style="stroke:#181818;stroke-width:0.5;" width="495.6221" x="803.37" y="250.7869"/><ellipse cx="983.6405" cy="266.7869" fill="#ADD1B2" rx="11" ry="11" style="stroke:#181818;stroke-width:1;"/><path d="M986.6093,272.4275 Q986.0311,272.7244 985.3905,272.865 Q984.7499,273.0213 984.0468,273.0213 Q981.5468,273.0213 980.2186,271.3806 Q978.9061,269.7244 978.9061,266.5994 Q978.9061,263.4744 980.2186,261.8181 Q981.5468,260.1619 984.0468,260.1619 Q984.7499,260.1619 985.3905,260.3181 Q986.0468,260.4744 986.6093,260.7713 L986.6093,263.49 Q985.9843,262.9119 985.3905,262.6463 Q984.7968,262.365 984.1718,262.365 Q982.828,262.365 982.1405,263.4431 Q981.453,264.5056 981.453,266.5994 Q981.453,268.6931 982.1405,269.7713 Q982.828,270.8338 984.1718,270.8338 Q984.7968,270.8338 985.3905,270.5681 Q985.9843,270.2869 986.6093,269.7088 L986.6093,272.4275 Z " fill="#000000"/><text fill="#000000" font-family="sans-serif" font-size="14" lengthAdjust="spacing" textLength="126.5811" x="1004.1405" y="271.6336">UNH_S016_msg_3</text><line style="stroke:#181818;stroke-width:0.5;" x1="804.37" x2="1297.9921" y1="282.7869" y2="282.7869"/><text fill="#000000" font-family="sans-serif" font-size="14" lengthAdjust="spacing" textLength="161.1982" x="809.37" y="299.782">Nachricht: INVOIC 2.8d</text><text fill="#000000" font-family="sans-serif" font-size="14" lengthAdjust="spacing" textLength="204.1143" x="809.37" y="316.0789">Kontext: Nachrichtenstruktur</text><text fill="#000000" font-family="sans-serif" font-size="14" lengthAdjust="spacing" textLength="91.4033" x="809.37" y="332.3757">Pflichtfeld: Ja</text><text fill="#000000" font-family="sans-serif" font-size="14" lengthAdjust="spacing" textLength="149.4336" x="809.37" y="348.6726">Codes: 99, COM, SG2</text><text fill="#000000" font-family="sans-serif" font-size="14" lengthAdjust="spacing" textLength="483.6221" x="809.37" y="364.9695">Prozesse: Netznutzungsabrechnung, Messstellenbetriebsabrechnung</text><text fill="#000000" font-family="sans-serif" font-size="14" lengthAdjust="spacing" textLength="396.6074" x="809.37" y="381.2664">Quelle: INVOIC_MIG_2.8d_Fehlerkorrektur_20250131.pdf</text><line style="stroke:#181818;stroke-width:0.5;" x1="804.37" x2="1297.9921" y1="388.5681" y2="388.5681"/></g><!--class UNH_S016_msg_4--><g class="entity" data-entity="UNH_S016_msg_4" data-source-line="35" data-uid="ent0009" id="entity_UNH_S016_msg_4"><rect fill="#F1F1F1" height="145.7813" rx="2.5" ry="2.5" style="stroke:#181818;stroke-width:0.5;" width="432.9502" x="1333.71" y="250.7869"/><ellipse cx="1482.6446" cy="266.7869" fill="#ADD1B2" rx="11" ry="11" style="stroke:#181818;stroke-width:1;"/><path d="M1485.6133,272.4275 Q1485.0352,272.7244 1484.3946,272.865 Q1483.7539,273.0213 1483.0508,273.0213 Q1480.5508,273.0213 1479.2227,271.3806 Q1477.9102,269.7244 1477.9102,266.5994 Q1477.9102,263.4744 1479.2227,261.8181 Q1480.5508,260.1619 1483.0508,260.1619 Q1483.7539,260.1619 1484.3946,260.3181 Q1485.0508,260.4744 1485.6133,260.7713 L1485.6133,263.49 Q1484.9883,262.9119 1484.3946,262.6463 Q1483.8008,262.365 1483.1758,262.365 Q1481.8321,262.365 1481.1446,263.4431 Q1480.4571,264.5056 1480.4571,266.5994 Q1480.4571,268.6931 1481.1446,269.7713 Q1481.8321,270.8338 1483.1758,270.8338 Q1483.8008,270.8338 1484.3946,270.5681 Q1484.9883,270.2869 1485.6133,269.7088 L1485.6133,272.4275 Z " fill="#000000"/><text fill="#000000" font-family="sans-serif" font-size="14" lengthAdjust="spacing" textLength="126.5811" x="1503.1446" y="271.6336">UNH_S016_msg_4</text><line style="stroke:#181818;stroke-width:0.5;" x1="1334.71" x2="1765.6602" y1="282.7869" y2="282.7869"/><text fill="#000000" font-family="sans-serif" font-size="14" lengthAdjust="spacing" textLength="172.0264" x="1339.71" y="299.782">Nachricht: MSCONS 2.4c</text><text fill="#000000" font-family="sans-serif" font-size="14" lengthAdjust="spacing" textLength="122.917" x="1339.71" y="316.0789">Kontext: Hinweis:</text><text fill="#000000" font-family="sans-serif" font-size="14" lengthAdjust="spacing" textLength="91.4033" x="1339.71" y="332.3757">Pflichtfeld: Ja</text><text fill="#000000" font-family="sans-serif" font-size="14" lengthAdjust="spacing" textLength="113.1689" x="1339.71" y="348.6726">Codes: UN, UNH</text><text fill="#000000" font-family="sans-serif" font-size="14" lengthAdjust="spacing" textLength="405.4463" x="1339.71" y="364.9695">Prozesse: Anforderung und &#220;bermittlung von Messwerten</text><text fill="#000000" font-family="sans-serif" font-size="14" lengthAdjust="spacing" textLength="420.9502" x="1339.71" y="381.2664">Quelle: MSCONS_MIG_2_4c_au&#223;erordentliche_20240726.pdf</text><line style="stroke:#181818;stroke-width:0.5;" x1="1334.71" x2="1765.6602" y1="388.5681" y2="388.5681"/></g><!--class UNH_S016_msg_5--><g class="entity" data-entity="UNH_S016_msg_5" data-source-line="44" data-uid="ent0011" id="entity_UNH_S016_msg_5"><rect fill="#F1F1F1" height="129.4844" rx="2.5" ry="2.5" style="stroke:#181818;stroke-width:0.5;" width="429.8672" x="1801.25" y="258.9369"/><ellipse cx="1948.6431" cy="274.9369" fill="#ADD1B2" rx="11" ry="11" style="stroke:#181818;stroke-width:1;"/><path d="M1951.6118,280.5775 Q1951.0337,280.8744 1950.3931,281.015 Q1949.7524,281.1713 1949.0493,281.1713 Q1946.5493,281.1713 1945.2212,279.5306 Q1943.9087,277.8744 1943.9087,274.7494 Q1943.9087,271.6244 1945.2212,269.9681 Q1946.5493,268.3119 1949.0493,268.3119 Q1949.7524,268.3119 1950.3931,268.4681 Q1951.0493,268.6244 1951.6118,268.9213 L1951.6118,271.64 Q1950.9868,271.0619 1950.3931,270.7963 Q1949.7993,270.515 1949.1743,270.515 Q1947.8306,270.515 1947.1431,271.5931 Q1946.4556,272.6556 1946.4556,274.7494 Q1946.4556,276.8431 1947.1431,277.9213 Q1947.8306,278.9838 1949.1743,278.9838 Q1949.7993,278.9838 1950.3931,278.7181 Q1950.9868,278.4369 1951.6118,277.8588 L1951.6118,280.5775 Z " fill="#000000"/><text fill="#000000" font-family="sans-serif" font-size="14" lengthAdjust="spacing" textLength="126.5811" x="1969.1431" y="279.7836">UNH_S016_msg_5</text><line style="stroke:#181818;stroke-width:0.5;" x1="1802.25" x2="2230.1172" y1="290.9369" y2="290.9369"/><text fill="#000000" font-family="sans-serif" font-size="14" lengthAdjust="spacing" textLength="171.4932" x="1807.25" y="307.932">Nachricht: REMADV 2.9c</text><text fill="#000000" font-family="sans-serif" font-size="14" lengthAdjust="spacing" textLength="149.3447" x="1807.25" y="324.2289">Kontext: Bemerkung:</text><text fill="#000000" font-family="sans-serif" font-size="14" lengthAdjust="spacing" textLength="91.4033" x="1807.25" y="340.5257">Pflichtfeld: Ja</text><text fill="#000000" font-family="sans-serif" font-size="14" lengthAdjust="spacing" textLength="251.4395" x="1807.25" y="356.8226">Prozesse: Netznutzungsabrechnung</text><text fill="#000000" font-family="sans-serif" font-size="14" lengthAdjust="spacing" textLength="417.8672" x="1807.25" y="373.1195">Quelle: REMADV_MIG_2.9c_au&#223;erordentliche_20240726.pdf</text><line style="stroke:#181818;stroke-width:0.5;" x1="1802.25" x2="2230.1172" y1="380.4213" y2="380.4213"/></g><!--class UNH_S016_proc_1--><g class="entity" data-entity="UNH_S016_proc_1" data-source-line="52" data-uid="ent0013" id="entity_UNH_S016_proc_1"><rect fill="#F1F1F1" height="105.1563" rx="2.5" ry="2.5" style="stroke:#181818;stroke-width:0.5;" width="752.6465" x="2265.86" y="271.0969"/><ellipse cx="2574.0993" cy="291.2297" fill="#ADD1B2" rx="11" ry="11" style="stroke:#181818;stroke-width:1;"/><path d="M2577.068,296.8703 Q2576.4899,297.1672 2575.8493,297.3078 Q2575.2086,297.4641 2574.5055,297.4641 Q2572.0055,297.4641 2570.6774,295.8234 Q2569.3649,294.1672 2569.3649,291.0422 Q2569.3649,287.9172 2570.6774,286.2609 Q2572.0055,284.6047 2574.5055,284.6047 Q2575.2086,284.6047 2575.8493,284.7609 Q2576.5055,284.9172 2577.068,285.2141 L2577.068,287.9328 Q2576.443,287.3547 2575.8493,287.0891 Q2575.2555,286.8078 2574.6305,286.8078 Q2573.2868,286.8078 2572.5993,287.8859 Q2571.9118,288.9484 2571.9118,291.0422 Q2571.9118,293.1359 2572.5993,294.2141 Q2573.2868,295.2766 2574.6305,295.2766 Q2575.2555,295.2766 2575.8493,295.0109 Q2576.443,294.7297 2577.068,294.1516 L2577.068,296.8703 Z " fill="#000000"/><text fill="#000000" font-family="sans-serif" font-size="12" font-style="italic" lengthAdjust="spacing" textLength="61.0605" x="2627.903" y="287.2355">&#171;process&#187;</text><text fill="#000000" font-family="sans-serif" font-size="14" lengthAdjust="spacing" textLength="127.668" x="2594.5993" y="303.0607">UNH_S016_proc_1</text><line style="stroke:#181818;stroke-width:0.5;" x1="2266.86" x2="3017.5065" y1="311.3625" y2="311.3625"/><text fill="#000000" font-family="sans-serif" font-size="14" lengthAdjust="spacing" textLength="180.3457" x="2271.86" y="328.3576">Netznutzungsabrechnung</text><text fill="#000000" font-family="sans-serif" font-size="14" lengthAdjust="spacing" textLength="218.0938" x="2271.86" y="344.6545">Gesetze: StromNEV, StromNZV</text><text fill="#000000" font-family="sans-serif" font-size="14" lengthAdjust="spacing" textLength="740.6465" x="2271.86" y="360.9514">Zusammenfassung: Wie funktioniert die Netznutzungsabrechnung zwischen Netzbetreiber und Lieferant?</text><line style="stroke:#181818;stroke-width:0.5;" x1="2266.86" x2="3017.5065" y1="368.2531" y2="368.2531"/></g><!--class UNH_S016_proc_2--><g class="entity" data-entity="UNH_S016_proc_2" data-source-line="58" data-uid="ent0015" id="entity_UNH_S016_proc_2"><rect fill="#F1F1F1" height="105.1563" rx="2.5" ry="2.5" style="stroke:#181818;stroke-width:0.5;" width="690.2275" x="3053.07" y="271.0969"/><ellipse cx="3330.0998" cy="291.2297" fill="#ADD1B2" rx="11" ry="11" style="stroke:#181818;stroke-width:1;"/><path d="M3333.0685,296.8703 Q3332.4904,297.1672 3331.8498,297.3078 Q3331.2092,297.4641 3330.506,297.4641 Q3328.006,297.4641 3326.6779,295.8234 Q3325.3654,294.1672 3325.3654,291.0422 Q3325.3654,287.9172 3326.6779,286.2609 Q3328.006,284.6047 3330.506,284.6047 Q3331.2092,284.6047 3331.8498,284.7609 Q3332.506,284.9172 3333.0685,285.2141 L3333.0685,287.9328 Q3332.4435,287.3547 3331.8498,287.0891 Q3331.256,286.8078 3330.631,286.8078 Q3329.2873,286.8078 3328.5998,287.8859 Q3327.9123,288.9484 3327.9123,291.0422 Q3327.9123,293.1359 3328.5998,294.2141 Q3329.2873,295.2766 3330.631,295.2766 Q3331.256,295.2766 3331.8498,295.0109 Q3332.4435,294.7297 3333.0685,294.1516 L3333.0685,296.8703 Z " fill="#000000"/><text fill="#000000" font-family="sans-serif" font-size="12" font-style="italic" lengthAdjust="spacing" textLength="61.0605" x="3383.9035" y="287.2355">&#171;process&#187;</text><text fill="#000000" font-family="sans-serif" font-size="14" lengthAdjust="spacing" textLength="127.668" x="3350.5998" y="303.0607">UNH_S016_proc_2</text><line style="stroke:#181818;stroke-width:0.5;" x1="3054.07" x2="3742.2975" y1="311.3625" y2="311.3625"/><text fill="#000000" font-family="sans-serif" font-size="14" lengthAdjust="spacing" textLength="223.2822" x="3059.07" y="328.3576">Messstellenbetriebsabrechnung</text><text fill="#000000" font-family="sans-serif" font-size="14" lengthAdjust="spacing" textLength="105.0957" x="3059.07" y="344.6545">Gesetze: MsbG</text><text fill="#000000" font-family="sans-serif" font-size="14" lengthAdjust="spacing" textLength="678.2275" x="3059.07" y="360.9514">Zusammenfassung: Beschreibe den Prozess der Abrechnung von Messstellenbetriebsleistungen.</text><line style="stroke:#181818;stroke-width:0.5;" x1="3054.07" x2="3742.2975" y1="368.2531" y2="368.2531"/></g><!--class UNH_S016_proc_3--><g class="entity" data-entity="UNH_S016_proc_3" data-source-line="64" data-uid="ent0017" id="entity_UNH_S016_proc_3"><rect fill="#F1F1F1" height="105.1563" rx="2.5" ry="2.5" style="stroke:#181818;stroke-width:0.5;" width="378.2285" x="3778.07" y="271.0969"/><ellipse cx="3899.1003" cy="291.2297" fill="#ADD1B2" rx="11" ry="11" style="stroke:#181818;stroke-width:1;"/><path d="M3902.069,296.8703 Q3901.4909,297.1672 3900.8503,297.3078 Q3900.2096,297.4641 3899.5065,297.4641 Q3897.0065,297.4641 3895.6784,295.8234 Q3894.3659,294.1672 3894.3659,291.0422 Q3894.3659,287.9172 3895.6784,286.2609 Q3897.0065,284.6047 3899.5065,284.6047 Q3900.2096,284.6047 3900.8503,284.7609 Q3901.5065,284.9172 3902.069,285.2141 L3902.069,287.9328 Q3901.444,287.3547 3900.8503,287.0891 Q3900.2565,286.8078 3899.6315,286.8078 Q3898.2878,286.8078 3897.6003,287.8859 Q3896.9128,288.9484 3896.9128,291.0422 Q3896.9128,293.1359 3897.6003,294.2141 Q3898.2878,295.2766 3899.6315,295.2766 Q3900.2565,295.2766 3900.8503,295.0109 Q3901.444,294.7297 3902.069,294.1516 L3902.069,296.8703 Z " fill="#000000"/><text fill="#000000" font-family="sans-serif" font-size="12" font-style="italic" lengthAdjust="spacing" textLength="61.0605" x="3952.904" y="287.2355">&#171;process&#187;</text><text fill="#000000" font-family="sans-serif" font-size="14" lengthAdjust="spacing" textLength="127.668" x="3919.6003" y="303.0607">UNH_S016_proc_3</text><line style="stroke:#181818;stroke-width:0.5;" x1="3779.07" x2="4155.2985" y1="311.3625" y2="311.3625"/><text fill="#000000" font-family="sans-serif" font-size="14" lengthAdjust="spacing" textLength="334.3525" x="3784.07" y="328.3576">Anforderung und &#220;bermittlung von Messwerten</text><text fill="#000000" font-family="sans-serif" font-size="14" lengthAdjust="spacing" textLength="105.0957" x="3784.07" y="344.6545">Gesetze: MsbG</text><line style="stroke:#181818;stroke-width:0.5;" x1="3779.07" x2="4155.2985" y1="351.9562" y2="351.9562"/><text fill="#000000" font-family="sans-serif" font-size="14" lengthAdjust="spacing" textLength="366.2285" x="3784.07" y="368.9514">Zusammenfassung: Wie kann ein Marktpartner (z.B.</text></g><!--link UNH_S016 to UNH_S016_msg_1--><g class="link" data-entity-1="UNH_S016" data-entity-2="UNH_S016_msg_1" data-source-line="16" data-uid="lnk4" id="link_UNH_S016_UNH_S016_msg_1"><path codeLine="16" d="M1602.54,116.8269 C1345.04,129.2769 858.8,163.0969 454.18,250.7869 C443.47,253.1069 438.3558,254.2218 427.3558,257.0118" fill="none" id="UNH_S016-to-UNH_S016_msg_1" style="stroke:#181818;stroke-width:1;"/><polygon fill="#181818" points="421.54,258.4869,431.2472,260.1514,426.3865,257.2576,429.2804,252.397,421.54,258.4869" style="stroke:#181818;stroke-width:1;"/><text fill="#000000" font-family="sans-serif" font-size="13" lengthAdjust="spacing" textLength="85.2363" x="707.18" y="216.8538">verwendet in</text></g><!--link UNH_S016 to UNH_S016_msg_2--><g class="link" data-entity-1="UNH_S016" data-entity-2="UNH_S016_msg_2" data-source-line="25" data-uid="lnk6" id="link_UNH_S016_UNH_S016_msg_2"><path codeLine="25" d="M1602.8,120.9069 C1400.78,136.4169 1065.08,172.2569 786.18,250.7869 C780.29,252.4469 780.0316,252.3981 774.0516,254.3581" fill="none" id="UNH_S016-to-UNH_S016_msg_2" style="stroke:#181818;stroke-width:1;"/><polygon fill="#181818" points="768.35,256.2269,778.1482,257.2248,773.1013,254.6696,775.6565,249.6227,768.35,256.2269" style="stroke:#181818;stroke-width:1;"/><text fill="#000000" font-family="sans-serif" font-size="13" lengthAdjust="spacing" textLength="85.2363" x="974.18" y="216.8538">verwendet in</text></g><!--link UNH_S016 to UNH_S016_msg_3--><g class="link" data-entity-1="UNH_S016" data-entity-2="UNH_S016_msg_3" data-source-line="34" data-uid="lnk8" id="link_UNH_S016_UNH_S016_msg_3"><path codeLine="34" d="M1602.71,162.4669 C1511.27,189.0269 1404.5819,220.0232 1305.1219,248.9132" fill="none" id="UNH_S016-to-UNH_S016_msg_3" style="stroke:#181818;stroke-width:1;"/><polygon fill="#181818" points="1299.36,250.5869,1309.1185,251.9177,1304.1615,249.1922,1306.887,244.2352,1299.36,250.5869" style="stroke:#181818;stroke-width:1;"/><text fill="#000000" font-family="sans-serif" font-size="13" lengthAdjust="spacing" textLength="85.2363" x="1440.18" y="216.8538">verwendet in</text></g><!--link UNH_S016 to UNH_S016_msg_4--><g class="link" data-entity-1="UNH_S016" data-entity-2="UNH_S016_msg_4" data-source-line="43" data-uid="lnk10" id="link_UNH_S016_UNH_S016_msg_4"><path codeLine="43" d="M1712.96,174.1269 C1686.56,198.2169 1660.8117,221.7121 1633.6617,246.4921" fill="none" id="UNH_S016-to-UNH_S016_msg_4" style="stroke:#181818;stroke-width:1;"/><polygon fill="#181818" points="1629.23,250.5369,1638.574,247.4241,1632.923,247.1662,1633.1809,241.5152,1629.23,250.5369" style="stroke:#181818;stroke-width:1;"/><text fill="#000000" font-family="sans-serif" font-size="13" lengthAdjust="spacing" textLength="85.2363" x="1675.18" y="216.8538">verwendet in</text></g><!--link UNH_S016 to UNH_S016_msg_5--><g class="link" data-entity-1="UNH_S016" data-entity-2="UNH_S016_msg_5" data-source-line="51" data-uid="lnk12" id="link_UNH_S016_UNH_S016_msg_5"><path codeLine="51" d="M1853.41,174.1269 C1882.75,200.9069 1912.3384,227.912 1941.6684,254.682" fill="none" id="UNH_S016-to-UNH_S016_msg_5" style="stroke:#181818;stroke-width:1;"/><polygon fill="#181818" points="1946.1,258.7269,1942.1491,249.7052,1942.407,255.3562,1936.756,255.6141,1946.1,258.7269" style="stroke:#181818;stroke-width:1;"/><text fill="#000000" font-family="sans-serif" font-size="13" lengthAdjust="spacing" textLength="85.2363" x="1901.18" y="216.8538">verwendet in</text></g><!--link UNH_S016 to UNH_S016_proc_1--><g class="link" data-entity-1="UNH_S016" data-entity-2="UNH_S016_proc_1" data-source-line="57" data-uid="lnk14" id="link_UNH_S016_UNH_S016_proc_1"><path codeLine="57" d="M1963.78,154.7469 C2100.46,188.5769 2282.6658,233.6851 2426.1158,269.1951" fill="none" id="UNH_S016-to-UNH_S016_proc_1" style="stroke:#181818;stroke-width:1;stroke-dasharray:7,7;"/><polygon fill="#181818" points="2431.94,270.6369,2424.1648,264.5915,2427.0865,269.4354,2422.2425,272.3571,2431.94,270.6369" style="stroke:#181818;stroke-width:1;"/><text fill="#000000" font-family="sans-serif" font-size="13" lengthAdjust="spacing" textLength="91.6221" x="2214.18" y="216.8538">eingebettet in</text></g><!--link UNH_S016 to UNH_S016_proc_2--><g class="link" data-entity-1="UNH_S016" data-entity-2="UNH_S016_proc_2" data-source-line="63" data-uid="lnk16" id="link_UNH_S016_UNH_S016_proc_2"><path codeLine="63" d="M1963.82,125.5169 C2207.91,147.5269 2656.28,191.8369 3036.18,250.7869 C3073.38,256.5569 3106.6738,262.3557 3144.9838,269.5757" fill="none" id="UNH_S016-to-UNH_S016_proc_2" style="stroke:#181818;stroke-width:1;stroke-dasharray:7,7;"/><polygon fill="#181818" points="3150.88,270.6869,3142.7765,265.0893,3145.9665,269.7609,3141.2949,272.9509,3150.88,270.6869" style="stroke:#181818;stroke-width:1;"/><text fill="#000000" font-family="sans-serif" font-size="13" lengthAdjust="spacing" textLength="91.6221" x="2799.18" y="216.8538">eingebettet in</text></g><!--link UNH_S016 to UNH_S016_proc_3--><g class="link" data-entity-1="UNH_S016" data-entity-2="UNH_S016_proc_3" data-source-line="69" data-uid="lnk18" id="link_UNH_S016_UNH_S016_proc_3"><path codeLine="69" d="M1963.85,116.7769 C2384.69,133.4669 3420.43,180.5069 3761.18,250.7869 C3785.3,255.7569 3804.7415,260.9893 3828.8415,268.7893" fill="none" id="UNH_S016-to-UNH_S016_proc_3" style="stroke:#181818;stroke-width:1;stroke-dasharray:7,7;"/><polygon fill="#181818" points="3834.55,270.6369,3827.219,264.0599,3829.7929,269.0972,3824.7556,271.6712,3834.55,270.6369" style="stroke:#181818;stroke-width:1;"/><text fill="#000000" font-family="sans-serif" font-size="13" lengthAdjust="spacing" textLength="91.6221" x="3564.18" y="216.8538">eingebettet in</text></g><!--SRC=[fPNTRjem5CVl-nJdSfFIA0dGZQXYwjSeQvDsfMDIRo8dEIaMYOCSfqnCUvD9kzcRzCLsp4VB26r0lK2oZutF__S_nx7YAaKuPGe5KoahO1- - -UTktx8FzYAQ5teQw2dyt0FmMOOkd6NZvF6lk4S9CVry5WqbZuQADbpBV8f5WIwDWGxpKKr5gQQbk2zOA34Q2Xek5ZtQMIXCKnGXAianhEuv4aakAGj5e1GnFFuEKMPSgLH77d8nEsM2aWZsVgrf3hBYFh0NoXSYNJYvyczlBi4nhP0MBdAXy0U5G-IhP49lfk282Q7UcvejINKimJHsuGkZo4aUO-62qp30QHdGEpN0kwRurr93BJC5NgyRE84L1gny_8DIymYbpyB0iPoczS4vCCTnGlAVpDxVxwnJkF20Se8YHWLSR29rrabxVl_c-XPiqsQhfETSJ90NxcjCTF1gELykv99rdcl6QWSsqsIsRLbsBPcp1LcZIZQuwfrG3J_6gsHFEr0KIfOZLShN8DjjWsha6T3lEblG6hKT-so6bZSlF4aCFkCmHJdAfKIjIPlJikn6lJcDBSnfhflZzQdn-cHECzgzx4Qbz3jTmMSFvYeMpT-CtjBypIrSQAsxS7Fc7PqEo8NsVouSOqQL8EMRVTYXu-S95aLklmcmLGCubdb4du33GpqWUPtEdFObYLqiQ8aqzfNCC_ziO2n6TmDQlIiBbcKe4igXZO3l724fnKZnN72g8yGKs7muJ2Uy83OnMzUN03crmwmnBZacA9bGdrPXJRDJ0N41ENrbwU_gPLwdmbjt_PwmlIBiRW8zHj8-KqmlbrWMU_QA7JqZBbjwBLLAbqVHEWhpTJvdExv6XM_7crQBg-kgto-j1ZmcHshCf194-svg7jTGD2eK_m00]--></g></svg>