<svg xmlns="http://www.w3.org/2000/svg" xmlns:xlink="http://www.w3.org/1999/xlink" contentStyleType="text/css" data-diagram-type="CLASS" height="403px" preserveAspectRatio="none" style="width:3683px;height:403px;background:#FFFFFF;" version="1.1" viewBox="0 0 3683 403" width="3683px" zoomAndPan="magnify"><title>Datenatlas - UNH:0068</title><defs/><g><g class="title" data-source-line="1"><text fill="#000000" font-family="sans-serif" font-size="14" font-weight="bold" lengthAdjust="spacing" textLength="180.8652" x="1744.3566" y="22.9951">Datenatlas - UNH:0068</text></g><!--class UNH_0068--><g class="entity" data-entity="UNH_0068" data-source-line="2" data-uid="ent0002" id="entity_UNH_0068"><rect fill="#F1F1F1" height="129.4844" rx="2.5" ry="2.5" style="stroke:#181818;stroke-width:0.5;" width="360.3525" x="1419.28" y="44.2969"/><ellipse cx="1558.2683" cy="60.2969" fill="#ADD1B2" rx="11" ry="11" style="stroke:#181818;stroke-width:1;"/><path d="M1561.237,65.9375 Q1560.6589,66.2344 1560.0183,66.375 Q1559.3777,66.5313 1558.6745,66.5313 Q1556.1745,66.5313 1554.8464,64.8906 Q1553.5339,63.2344 1553.5339,60.1094 Q1553.5339,56.9844 1554.8464,55.3281 Q1556.1745,53.6719 1558.6745,53.6719 Q1559.3777,53.6719 1560.0183,53.8281 Q1560.6745,53.9844 1561.237,54.2813 L1561.237,57 Q1560.612,56.4219 1560.0183,56.1563 Q1559.4245,55.875 1558.7995,55.875 Q1557.4558,55.875 1556.7683,56.9531 Q1556.0808,58.0156 1556.0808,60.1094 Q1556.0808,62.2031 1556.7683,63.2813 Q1557.4558,64.3438 1558.7995,64.3438 Q1559.4245,64.3438 1560.0183,64.0781 Q1560.612,63.7969 1561.237,63.2188 L1561.237,65.9375 Z " fill="#000000"/><text fill="#000000" font-family="sans-serif" font-size="14" lengthAdjust="spacing" textLength="73.876" x="1578.7683" y="65.1436">UNH_0068</text><line style="stroke:#181818;stroke-width:0.5;" x1="1420.28" x2="1778.6325" y1="76.2969" y2="76.2969"/><text fill="#000000" font-family="sans-serif" font-size="14" lengthAdjust="spacing" textLength="290.3291" x="1439.28" y="93.292">Name: Referenznummer des Empf&#228;ngers</text><text fill="#000000" font-family="sans-serif" font-size="14" lengthAdjust="spacing" textLength="66.6436" x="1439.28" y="109.5889">Prozesse:</text><rect fill="none" height="6" style="stroke:#C82930;stroke-width:1;" width="6" x="1427.28" y="119.5391"/><text fill="#000000" font-family="sans-serif" font-size="14" lengthAdjust="spacing" textLength="180.3457" x="1439.28" y="125.8857">Netznutzungsabrechnung</text><rect fill="none" height="6" style="stroke:#C82930;stroke-width:1;" width="6" x="1427.28" y="135.8359"/><text fill="#000000" font-family="sans-serif" font-size="14" lengthAdjust="spacing" textLength="223.2822" x="1439.28" y="142.1826">Messstellenbetriebsabrechnung</text><rect fill="none" height="6" style="stroke:#C82930;stroke-width:1;" width="6" x="1427.28" y="152.1328"/><text fill="#000000" font-family="sans-serif" font-size="14" lengthAdjust="spacing" textLength="334.3525" x="1439.28" y="158.4795">Anforderung und &#220;bermittlung von Messwerten</text><line style="stroke:#181818;stroke-width:0.5;" x1="1420.28" x2="1778.6325" y1="165.7813" y2="165.7813"/></g><!--class UNH_0068_msg_1--><g class="entity" data-entity="UNH_0068_msg_1" data-source-line="9" data-uid="ent0003" id="entity_UNH_0068_msg_1"><rect fill="#F1F1F1" height="145.7813" rx="2.5" ry="2.5" style="stroke:#181818;stroke-width:0.5;" width="422.9219" x="7" y="250.7869"/><ellipse cx="150.9102" cy="266.7869" fill="#ADD1B2" rx="11" ry="11" style="stroke:#181818;stroke-width:1;"/><path d="M153.8789,272.4275 Q153.3008,272.7244 152.6602,272.865 Q152.0195,273.0213 151.3164,273.0213 Q148.8164,273.0213 147.4883,271.3806 Q146.1758,269.7244 146.1758,266.5994 Q146.1758,263.4744 147.4883,261.8181 Q148.8164,260.1619 151.3164,260.1619 Q152.0195,260.1619 152.6602,260.3181 Q153.3164,260.4744 153.8789,260.7713 L153.8789,263.49 Q153.2539,262.9119 152.6602,262.6463 Q152.0664,262.365 151.4414,262.365 Q150.0977,262.365 149.4102,263.4431 Q148.7227,264.5056 148.7227,266.5994 Q148.7227,268.6931 149.4102,269.7713 Q150.0977,270.8338 151.4414,270.8338 Q152.0664,270.8338 152.6602,270.5681 Q153.2539,270.2869 153.8789,269.7088 L153.8789,272.4275 Z " fill="#000000"/><text fill="#000000" font-family="sans-serif" font-size="14" lengthAdjust="spacing" textLength="126.6016" x="171.4102" y="271.6336">UNH_0068_msg_1</text><line style="stroke:#181818;stroke-width:0.5;" x1="8" x2="428.9219" y1="282.7869" y2="282.7869"/><text fill="#000000" font-family="sans-serif" font-size="14" lengthAdjust="spacing" textLength="161.998" x="13" y="299.782">Nachricht: INSRPT 1.1a</text><text fill="#000000" font-family="sans-serif" font-size="14" lengthAdjust="spacing" textLength="122.917" x="13" y="316.0789">Kontext: Hinweis:</text><text fill="#000000" font-family="sans-serif" font-size="14" lengthAdjust="spacing" textLength="91.4033" x="13" y="332.3757">Pflichtfeld: Ja</text><text fill="#000000" font-family="sans-serif" font-size="14" lengthAdjust="spacing" textLength="113.1689" x="13" y="348.6726">Codes: UN, UNH</text><text fill="#000000" font-family="sans-serif" font-size="14" lengthAdjust="spacing" textLength="251.4395" x="13" y="364.9695">Prozesse: Netznutzungsabrechnung</text><text fill="#000000" font-family="sans-serif" font-size="14" lengthAdjust="spacing" textLength="410.9219" x="13" y="381.2664">Quelle: INSRPT_MIG_1_1a_au&#223;erordentliche_20240726.pdf</text><line style="stroke:#181818;stroke-width:0.5;" x1="8" x2="428.9219" y1="388.5681" y2="388.5681"/></g><!--class UNH_0068_msg_2--><g class="entity" data-entity="UNH_0068_msg_2" data-source-line="18" data-uid="ent0005" id="entity_UNH_0068_msg_2"><rect fill="#F1F1F1" height="145.7813" rx="2.5" ry="2.5" style="stroke:#181818;stroke-width:0.5;" width="495.6221" x="464.65" y="250.7869"/><ellipse cx="644.9103" cy="266.7869" fill="#ADD1B2" rx="11" ry="11" style="stroke:#181818;stroke-width:1;"/><path d="M647.879,272.4275 Q647.3009,272.7244 646.6603,272.865 Q646.0196,273.0213 645.3165,273.0213 Q642.8165,273.0213 641.4884,271.3806 Q640.1759,269.7244 640.1759,266.5994 Q640.1759,263.4744 641.4884,261.8181 Q642.8165,260.1619 645.3165,260.1619 Q646.0196,260.1619 646.6603,260.3181 Q647.3165,260.4744 647.879,260.7713 L647.879,263.49 Q647.254,262.9119 646.6603,262.6463 Q646.0665,262.365 645.4415,262.365 Q644.0978,262.365 643.4103,263.4431 Q642.7228,264.5056 642.7228,266.5994 Q642.7228,268.6931 643.4103,269.7713 Q644.0978,270.8338 645.4415,270.8338 Q646.0665,270.8338 646.6603,270.5681 Q647.254,270.2869 647.879,269.7088 L647.879,272.4275 Z " fill="#000000"/><text fill="#000000" font-family="sans-serif" font-size="14" lengthAdjust="spacing" textLength="126.6016" x="665.4103" y="271.6336">UNH_0068_msg_2</text><line style="stroke:#181818;stroke-width:0.5;" x1="465.65" x2="959.2721" y1="282.7869" y2="282.7869"/><text fill="#000000" font-family="sans-serif" font-size="14" lengthAdjust="spacing" textLength="161.1982" x="470.65" y="299.782">Nachricht: INVOIC 2.8d</text><text fill="#000000" font-family="sans-serif" font-size="14" lengthAdjust="spacing" textLength="122.917" x="470.65" y="316.0789">Kontext: Hinweis:</text><text fill="#000000" font-family="sans-serif" font-size="14" lengthAdjust="spacing" textLength="91.4033" x="470.65" y="332.3757">Pflichtfeld: Ja</text><text fill="#000000" font-family="sans-serif" font-size="14" lengthAdjust="spacing" textLength="113.1689" x="470.65" y="348.6726">Codes: UN, UNH</text><text fill="#000000" font-family="sans-serif" font-size="14" lengthAdjust="spacing" textLength="483.6221" x="470.65" y="364.9695">Prozesse: Netznutzungsabrechnung, Messstellenbetriebsabrechnung</text><text fill="#000000" font-family="sans-serif" font-size="14" lengthAdjust="spacing" textLength="396.6074" x="470.65" y="381.2664">Quelle: INVOIC_MIG_2.8d_Fehlerkorrektur_20250131.pdf</text><line style="stroke:#181818;stroke-width:0.5;" x1="465.65" x2="959.2721" y1="388.5681" y2="388.5681"/></g><!--class UNH_0068_msg_3--><g class="entity" data-entity="UNH_0068_msg_3" data-source-line="27" data-uid="ent0007" id="entity_UNH_0068_msg_3"><rect fill="#F1F1F1" height="145.7813" rx="2.5" ry="2.5" style="stroke:#181818;stroke-width:0.5;" width="417.4463" x="995.74" y="250.7869"/><ellipse cx="1136.9124" cy="266.7869" fill="#ADD1B2" rx="11" ry="11" style="stroke:#181818;stroke-width:1;"/><path d="M1139.8811,272.4275 Q1139.303,272.7244 1138.6624,272.865 Q1138.0217,273.0213 1137.3186,273.0213 Q1134.8186,273.0213 1133.4905,271.3806 Q1132.178,269.7244 1132.178,266.5994 Q1132.178,263.4744 1133.4905,261.8181 Q1134.8186,260.1619 1137.3186,260.1619 Q1138.0217,260.1619 1138.6624,260.3181 Q1139.3186,260.4744 1139.8811,260.7713 L1139.8811,263.49 Q1139.2561,262.9119 1138.6624,262.6463 Q1138.0686,262.365 1137.4436,262.365 Q1136.0999,262.365 1135.4124,263.4431 Q1134.7249,264.5056 1134.7249,266.5994 Q1134.7249,268.6931 1135.4124,269.7713 Q1136.0999,270.8338 1137.4436,270.8338 Q1138.0686,270.8338 1138.6624,270.5681 Q1139.2561,270.2869 1139.8811,269.7088 L1139.8811,272.4275 Z " fill="#000000"/><text fill="#000000" font-family="sans-serif" font-size="14" lengthAdjust="spacing" textLength="126.6016" x="1157.4124" y="271.6336">UNH_0068_msg_3</text><line style="stroke:#181818;stroke-width:0.5;" x1="996.74" x2="1412.1863" y1="282.7869" y2="282.7869"/><text fill="#000000" font-family="sans-serif" font-size="14" lengthAdjust="spacing" textLength="172.0264" x="1001.74" y="299.782">Nachricht: MSCONS 2.4c</text><text fill="#000000" font-family="sans-serif" font-size="14" lengthAdjust="spacing" textLength="122.917" x="1001.74" y="316.0789">Kontext: Hinweis:</text><text fill="#000000" font-family="sans-serif" font-size="14" lengthAdjust="spacing" textLength="110.5439" x="1001.74" y="332.3757">Pflichtfeld: Nein</text><text fill="#000000" font-family="sans-serif" font-size="14" lengthAdjust="spacing" textLength="110.2637" x="1001.74" y="348.6726">Codes: 68, UNH</text><text fill="#000000" font-family="sans-serif" font-size="14" lengthAdjust="spacing" textLength="405.4463" x="1001.74" y="364.9695">Prozesse: Anforderung und &#220;bermittlung von Messwerten</text><text fill="#000000" font-family="sans-serif" font-size="14" lengthAdjust="spacing" textLength="294.1641" x="1001.74" y="381.2664">Quelle: MSCONS_MIG_2_4c_20231024.pdf</text><line style="stroke:#181818;stroke-width:0.5;" x1="996.74" x2="1412.1863" y1="388.5681" y2="388.5681"/></g><!--class UNH_0068_msg_4--><g class="entity" data-entity="UNH_0068_msg_4" data-source-line="36" data-uid="ent0009" id="entity_UNH_0068_msg_4"><rect fill="#F1F1F1" height="129.4844" rx="2.5" ry="2.5" style="stroke:#181818;stroke-width:0.5;" width="303.0811" x="1447.92" y="258.9369"/><ellipse cx="1531.9097" cy="274.9369" fill="#ADD1B2" rx="11" ry="11" style="stroke:#181818;stroke-width:1;"/><path d="M1534.8785,280.5775 Q1534.3004,280.8744 1533.6597,281.015 Q1533.0191,281.1713 1532.316,281.1713 Q1529.816,281.1713 1528.4879,279.5306 Q1527.1754,277.8744 1527.1754,274.7494 Q1527.1754,271.6244 1528.4879,269.9681 Q1529.816,268.3119 1532.316,268.3119 Q1533.0191,268.3119 1533.6597,268.4681 Q1534.316,268.6244 1534.8785,268.9213 L1534.8785,271.64 Q1534.2535,271.0619 1533.6597,270.7963 Q1533.066,270.515 1532.441,270.515 Q1531.0972,270.515 1530.4097,271.5931 Q1529.7222,272.6556 1529.7222,274.7494 Q1529.7222,276.8431 1530.4097,277.9213 Q1531.0972,278.9838 1532.441,278.9838 Q1533.066,278.9838 1533.6597,278.7181 Q1534.2535,278.4369 1534.8785,277.8588 L1534.8785,280.5775 Z " fill="#000000"/><text fill="#000000" font-family="sans-serif" font-size="14" lengthAdjust="spacing" textLength="126.6016" x="1552.4097" y="279.7836">UNH_0068_msg_4</text><line style="stroke:#181818;stroke-width:0.5;" x1="1448.92" x2="1750.0011" y1="290.9369" y2="290.9369"/><text fill="#000000" font-family="sans-serif" font-size="14" lengthAdjust="spacing" textLength="171.4932" x="1453.92" y="307.932">Nachricht: REMADV 2.9c</text><text fill="#000000" font-family="sans-serif" font-size="14" lengthAdjust="spacing" textLength="149.3447" x="1453.92" y="324.2289">Kontext: Bemerkung:</text><text fill="#000000" font-family="sans-serif" font-size="14" lengthAdjust="spacing" textLength="91.4033" x="1453.92" y="340.5257">Pflichtfeld: Ja</text><text fill="#000000" font-family="sans-serif" font-size="14" lengthAdjust="spacing" textLength="251.4395" x="1453.92" y="356.8226">Prozesse: Netznutzungsabrechnung</text><text fill="#000000" font-family="sans-serif" font-size="14" lengthAdjust="spacing" textLength="291.0811" x="1453.92" y="373.1195">Quelle: REMADV_MIG_2.9c_20231024.pdf</text><line style="stroke:#181818;stroke-width:0.5;" x1="1448.92" x2="1750.0011" y1="380.4213" y2="380.4213"/></g><!--class UNH_0068_proc_1--><g class="entity" data-entity="UNH_0068_proc_1" data-source-line="44" data-uid="ent0011" id="entity_UNH_0068_proc_1"><rect fill="#F1F1F1" height="105.1563" rx="2.5" ry="2.5" style="stroke:#181818;stroke-width:0.5;" width="752.6465" x="1786.14" y="271.0969"/><ellipse cx="2094.369" cy="291.2297" fill="#ADD1B2" rx="11" ry="11" style="stroke:#181818;stroke-width:1;"/><path d="M2097.3378,296.8703 Q2096.7596,297.1672 2096.119,297.3078 Q2095.4784,297.4641 2094.7753,297.4641 Q2092.2753,297.4641 2090.9471,295.8234 Q2089.6346,294.1672 2089.6346,291.0422 Q2089.6346,287.9172 2090.9471,286.2609 Q2092.2753,284.6047 2094.7753,284.6047 Q2095.4784,284.6047 2096.119,284.7609 Q2096.7753,284.9172 2097.3378,285.2141 L2097.3378,287.9328 Q2096.7128,287.3547 2096.119,287.0891 Q2095.5253,286.8078 2094.9003,286.8078 Q2093.5565,286.8078 2092.869,287.8859 Q2092.1815,288.9484 2092.1815,291.0422 Q2092.1815,293.1359 2092.869,294.2141 Q2093.5565,295.2766 2094.9003,295.2766 Q2095.5253,295.2766 2096.119,295.0109 Q2096.7128,294.7297 2097.3378,294.1516 L2097.3378,296.8703 Z " fill="#000000"/><text fill="#000000" font-family="sans-serif" font-size="12" font-style="italic" lengthAdjust="spacing" textLength="61.0605" x="2148.183" y="287.2355">&#171;process&#187;</text><text fill="#000000" font-family="sans-serif" font-size="14" lengthAdjust="spacing" textLength="127.6885" x="2114.869" y="303.0607">UNH_0068_proc_1</text><line style="stroke:#181818;stroke-width:0.5;" x1="1787.14" x2="2537.7865" y1="311.3625" y2="311.3625"/><text fill="#000000" font-family="sans-serif" font-size="14" lengthAdjust="spacing" textLength="180.3457" x="1792.14" y="328.3576">Netznutzungsabrechnung</text><text fill="#000000" font-family="sans-serif" font-size="14" lengthAdjust="spacing" textLength="218.0938" x="1792.14" y="344.6545">Gesetze: StromNEV, StromNZV</text><text fill="#000000" font-family="sans-serif" font-size="14" lengthAdjust="spacing" textLength="740.6465" x="1792.14" y="360.9514">Zusammenfassung: Wie funktioniert die Netznutzungsabrechnung zwischen Netzbetreiber und Lieferant?</text><line style="stroke:#181818;stroke-width:0.5;" x1="1787.14" x2="2537.7865" y1="368.2531" y2="368.2531"/></g><!--class UNH_0068_proc_2--><g class="entity" data-entity="UNH_0068_proc_2" data-source-line="50" data-uid="ent0013" id="entity_UNH_0068_proc_2"><rect fill="#F1F1F1" height="105.1563" rx="2.5" ry="2.5" style="stroke:#181818;stroke-width:0.5;" width="690.2275" x="2573.35" y="271.0969"/><ellipse cx="2850.3695" cy="291.2297" fill="#ADD1B2" rx="11" ry="11" style="stroke:#181818;stroke-width:1;"/><path d="M2853.3383,296.8703 Q2852.7602,297.1672 2852.1195,297.3078 Q2851.4789,297.4641 2850.7758,297.4641 Q2848.2758,297.4641 2846.9477,295.8234 Q2845.6352,294.1672 2845.6352,291.0422 Q2845.6352,287.9172 2846.9477,286.2609 Q2848.2758,284.6047 2850.7758,284.6047 Q2851.4789,284.6047 2852.1195,284.7609 Q2852.7758,284.9172 2853.3383,285.2141 L2853.3383,287.9328 Q2852.7133,287.3547 2852.1195,287.0891 Q2851.5258,286.8078 2850.9008,286.8078 Q2849.557,286.8078 2848.8695,287.8859 Q2848.182,288.9484 2848.182,291.0422 Q2848.182,293.1359 2848.8695,294.2141 Q2849.557,295.2766 2850.9008,295.2766 Q2851.5258,295.2766 2852.1195,295.0109 Q2852.7133,294.7297 2853.3383,294.1516 L2853.3383,296.8703 Z " fill="#000000"/><text fill="#000000" font-family="sans-serif" font-size="12" font-style="italic" lengthAdjust="spacing" textLength="61.0605" x="2904.1835" y="287.2355">&#171;process&#187;</text><text fill="#000000" font-family="sans-serif" font-size="14" lengthAdjust="spacing" textLength="127.6885" x="2870.8695" y="303.0607">UNH_0068_proc_2</text><line style="stroke:#181818;stroke-width:0.5;" x1="2574.35" x2="3262.5775" y1="311.3625" y2="311.3625"/><text fill="#000000" font-family="sans-serif" font-size="14" lengthAdjust="spacing" textLength="223.2822" x="2579.35" y="328.3576">Messstellenbetriebsabrechnung</text><text fill="#000000" font-family="sans-serif" font-size="14" lengthAdjust="spacing" textLength="105.0957" x="2579.35" y="344.6545">Gesetze: MsbG</text><text fill="#000000" font-family="sans-serif" font-size="14" lengthAdjust="spacing" textLength="678.2275" x="2579.35" y="360.9514">Zusammenfassung: Beschreibe den Prozess der Abrechnung von Messstellenbetriebsleistungen.</text><line style="stroke:#181818;stroke-width:0.5;" x1="2574.35" x2="3262.5775" y1="368.2531" y2="368.2531"/></g><!--class UNH_0068_proc_3--><g class="entity" data-entity="UNH_0068_proc_3" data-source-line="56" data-uid="ent0015" id="entity_UNH_0068_proc_3"><rect fill="#F1F1F1" height="105.1563" rx="2.5" ry="2.5" style="stroke:#181818;stroke-width:0.5;" width="378.2285" x="3298.35" y="271.0969"/><ellipse cx="3419.37" cy="291.2297" fill="#ADD1B2" rx="11" ry="11" style="stroke:#181818;stroke-width:1;"/><path d="M3422.3388,296.8703 Q3421.7606,297.1672 3421.12,297.3078 Q3420.4794,297.4641 3419.7763,297.4641 Q3417.2763,297.4641 3415.9481,295.8234 Q3414.6356,294.1672 3414.6356,291.0422 Q3414.6356,287.9172 3415.9481,286.2609 Q3417.2763,284.6047 3419.7763,284.6047 Q3420.4794,284.6047 3421.12,284.7609 Q3421.7763,284.9172 3422.3388,285.2141 L3422.3388,287.9328 Q3421.7138,287.3547 3421.12,287.0891 Q3420.5263,286.8078 3419.9013,286.8078 Q3418.5575,286.8078 3417.87,287.8859 Q3417.1825,288.9484 3417.1825,291.0422 Q3417.1825,293.1359 3417.87,294.2141 Q3418.5575,295.2766 3419.9013,295.2766 Q3420.5263,295.2766 3421.12,295.0109 Q3421.7138,294.7297 3422.3388,294.1516 L3422.3388,296.8703 Z " fill="#000000"/><text fill="#000000" font-family="sans-serif" font-size="12" font-style="italic" lengthAdjust="spacing" textLength="61.0605" x="3473.184" y="287.2355">&#171;process&#187;</text><text fill="#000000" font-family="sans-serif" font-size="14" lengthAdjust="spacing" textLength="127.6885" x="3439.87" y="303.0607">UNH_0068_proc_3</text><line style="stroke:#181818;stroke-width:0.5;" x1="3299.35" x2="3675.5785" y1="311.3625" y2="311.3625"/><text fill="#000000" font-family="sans-serif" font-size="14" lengthAdjust="spacing" textLength="334.3525" x="3304.35" y="328.3576">Anforderung und &#220;bermittlung von Messwerten</text><text fill="#000000" font-family="sans-serif" font-size="14" lengthAdjust="spacing" textLength="105.0957" x="3304.35" y="344.6545">Gesetze: MsbG</text><line style="stroke:#181818;stroke-width:0.5;" x1="3299.35" x2="3675.5785" y1="351.9562" y2="351.9562"/><text fill="#000000" font-family="sans-serif" font-size="14" lengthAdjust="spacing" textLength="366.2285" x="3304.35" y="368.9514">Zusammenfassung: Wie kann ein Marktpartner (z.B.</text></g><!--link UNH_0068 to UNH_0068_msg_1--><g class="link" data-entity-1="UNH_0068" data-entity-2="UNH_0068_msg_1" data-source-line="17" data-uid="lnk4" id="link_UNH_0068_UNH_0068_msg_1"><path codeLine="17" d="M1419.17,121.8369 C1190.96,139.0869 786.69,177.4569 447.46,250.7869 C441.76,252.0169 441.8376,251.9403 436.0276,253.3203" fill="none" id="UNH_0068-to-UNH_0068_msg_1" style="stroke:#181818;stroke-width:1;"/><polygon fill="#181818" points="430.19,254.7069,439.8708,256.5188,435.0547,253.5514,438.022,248.7353,430.19,254.7069" style="stroke:#181818;stroke-width:1;"/><text fill="#000000" font-family="sans-serif" font-size="13" lengthAdjust="spacing" textLength="85.2363" x="698.46" y="216.8538">verwendet in</text></g><!--link UNH_0068 to UNH_0068_msg_2--><g class="link" data-entity-1="UNH_0068" data-entity-2="UNH_0068_msg_2" data-source-line="26" data-uid="lnk6" id="link_UNH_0068_UNH_0068_msg_2"><path codeLine="26" d="M1418.97,148.8969 C1294.79,176.1269 1126.25,214.0869 978.46,250.7869 C972.54,252.2569 972.3663,252.2835 966.3263,253.8135" fill="none" id="UNH_0068-to-UNH_0068_msg_2" style="stroke:#181818;stroke-width:1;"/><polygon fill="#181818" points="960.51,255.2869,970.2167,256.9544,965.3569,254.0591,968.2522,249.1993,960.51,255.2869" style="stroke:#181818;stroke-width:1;"/><text fill="#000000" font-family="sans-serif" font-size="13" lengthAdjust="spacing" textLength="85.2363" x="1167.46" y="216.8538">verwendet in</text></g><!--link UNH_0068 to UNH_0068_msg_3--><g class="link" data-entity-1="UNH_0068" data-entity-2="UNH_0068_msg_3" data-source-line="35" data-uid="lnk8" id="link_UNH_0068_UNH_0068_msg_3"><path codeLine="35" d="M1480.14,174.2769 C1435.52,198.2969 1389.823,222.8927 1343.943,247.5927" fill="none" id="UNH_0068-to-UNH_0068_msg_3" style="stroke:#181818;stroke-width:1;"/><polygon fill="#181818" points="1338.66,250.4369,1348.4807,249.6926,1343.0625,248.0667,1344.6884,242.6486,1338.66,250.4369" style="stroke:#181818;stroke-width:1;"/><text fill="#000000" font-family="sans-serif" font-size="13" lengthAdjust="spacing" textLength="85.2363" x="1415.46" y="216.8538">verwendet in</text></g><!--link UNH_0068 to UNH_0068_msg_4--><g class="link" data-entity-1="UNH_0068" data-entity-2="UNH_0068_msg_4" data-source-line="43" data-uid="lnk10" id="link_UNH_0068_UNH_0068_msg_4"><path codeLine="43" d="M1599.46,174.1269 C1599.46,200.9069 1599.46,225.9569 1599.46,252.7269" fill="none" id="UNH_0068-to-UNH_0068_msg_4" style="stroke:#181818;stroke-width:1;"/><polygon fill="#181818" points="1599.46,258.7269,1603.46,249.7269,1599.46,253.7269,1595.46,249.7269,1599.46,258.7269" style="stroke:#181818;stroke-width:1;"/><text fill="#000000" font-family="sans-serif" font-size="13" lengthAdjust="spacing" textLength="85.2363" x="1600.46" y="216.8538">verwendet in</text></g><!--link UNH_0068 to UNH_0068_proc_1--><g class="link" data-entity-1="UNH_0068" data-entity-2="UNH_0068_proc_1" data-source-line="49" data-uid="lnk12" id="link_UNH_0068_UNH_0068_proc_1"><path codeLine="49" d="M1769.53,174.2769 C1851.26,205.1469 1942.3372,239.5364 2019.3372,268.6264" fill="none" id="UNH_0068-to-UNH_0068_proc_1" style="stroke:#181818;stroke-width:1;stroke-dasharray:7,7;"/><polygon fill="#181818" points="2024.95,270.7469,2017.9444,263.8243,2020.2727,268.9798,2015.1171,271.308,2024.95,270.7469" style="stroke:#181818;stroke-width:1;"/><text fill="#000000" font-family="sans-serif" font-size="13" lengthAdjust="spacing" textLength="91.6221" x="1882.46" y="216.8538">eingebettet in</text></g><!--link UNH_0068 to UNH_0068_proc_2--><g class="link" data-entity-1="UNH_0068" data-entity-2="UNH_0068_proc_2" data-source-line="55" data-uid="lnk14" id="link_UNH_0068_UNH_0068_proc_2"><path codeLine="55" d="M1779.8,133.8269 C1972.5,159.8769 2286.72,204.1969 2556.46,250.7869 C2591.66,256.8669 2622.8074,262.5769 2659.2074,269.5569" fill="none" id="UNH_0068-to-UNH_0068_proc_2" style="stroke:#181818;stroke-width:1;stroke-dasharray:7,7;"/><polygon fill="#181818" points="2665.1,270.6869,2657.0144,265.0635,2660.1895,269.7452,2655.5077,272.9204,2665.1,270.6869" style="stroke:#181818;stroke-width:1;"/><text fill="#000000" font-family="sans-serif" font-size="13" lengthAdjust="spacing" textLength="91.6221" x="2375.46" y="216.8538">eingebettet in</text></g><!--link UNH_0068 to UNH_0068_proc_3--><g class="link" data-entity-1="UNH_0068" data-entity-2="UNH_0068_proc_3" data-source-line="61" data-uid="lnk16" id="link_UNH_0068_UNH_0068_proc_3"><path codeLine="61" d="M1779.93,110.3069 C2090.26,114.0569 2743.51,136.3369 3281.46,250.7869 C3305.27,255.8469 3324.3918,261.0484 3348.2318,268.7684" fill="none" id="UNH_0068-to-UNH_0068_proc_3" style="stroke:#181818;stroke-width:1;stroke-dasharray:7,7;"/><polygon fill="#181818" points="3353.94,270.6169,3346.61,264.0387,3349.1832,269.0765,3344.1454,271.6496,3353.94,270.6169" style="stroke:#181818;stroke-width:1;"/><text fill="#000000" font-family="sans-serif" font-size="13" lengthAdjust="spacing" textLength="91.6221" x="3103.46" y="216.8538">eingebettet in</text></g><!--SRC=[jPJ1Rjf048RlUOevzX0iR6YQM14LIMYIjZXfQAcKYxNOOrXXZz7kEbHKVPDAlVHDycAT1K9I33KSUjlT6S_-tp-pDjAa21V280cJ2Wqr-19S-VNwqV51n7jjjw7TmlS3W41awCCT9gYGPbHa6Ig8KKCdcoIFlsc8IdFQhSfdg3Nwl0Ok6Q3XP3ChQAZ5G64q8bukWrtEr0RJ56c0HaaSb7FQbEGgHiKdK50CZpy7g39fJ6fF7dAQLvcYOew37slAmqmFGtUfFnef6OsC3zT1x-xsCxYEApZm8IU3t_ZuIj8KfRRARvFKfYQOnZwyjrddERFwNFZG5dy9kXtnKs7HdkuBkzUNeHkw8XJ5uozKbegClGT3h-urws-y8sSI9monChvMQwsp-F20QeeKem59ctYzCc__vleSFESu_d-yXvNTVBR3ofdROIM5xt2KeXhdIk7O5CgQyRhkDjnACxmTp6Yicz7jdTy4FJQZ6UrYHe1STsN7qN7PZhq6zDc5XOw52s4pijGDbyUWahgn0tLpdVgkqsrVz9dwv2_gC-HNF6QTcuTWZnbVNB1iwiaUECqAd8dA8nxxqrExO36jre9jcw1Br1nYHJsZyYpez0-Ng_i-H-yBBVZFHGdVOR7XgqH82XeRcPFa7a7C1vkBmsmgDRzMciVjYAFaLi-R_b7Q7wCWy_ObhEEqIY0-y4GDaJytstcz4c_LurfXT_NWSXFe6RBskMB-QzDJQtcjeFsC-3IkQrUb_3GCnv6SV_Dvk_4rIdnxlg9ANDlNiI2oQg0hrDXCX3B4jAzcpba5HQD4yGS0]--></g></svg>