<svg xmlns="http://www.w3.org/2000/svg" xmlns:xlink="http://www.w3.org/1999/xlink" contentStyleType="text/css" data-diagram-type="CLASS" height="419px" preserveAspectRatio="none" style="width:6242px;height:419px;background:#FFFFFF;" version="1.1" viewBox="0 0 6242 419" width="6242px" zoomAndPan="magnify"><title>Datenatlas - UNH:S010</title><defs/><g><g class="title" data-source-line="1"><text fill="#000000" font-family="sans-serif" font-size="14" font-weight="bold" lengthAdjust="spacing" textLength="181.207" x="3023.8913" y="22.9951">Datenatlas - UNH:S010</text></g><!--class UNH_S010--><g class="entity" data-entity="UNH_S010" data-source-line="2" data-uid="ent0002" id="entity_UNH_S010"><rect fill="#F1F1F1" height="145.7813" rx="2.5" ry="2.5" style="stroke:#181818;stroke-width:0.5;" width="360.3525" x="2638.64" y="44.2969"/><ellipse cx="2777.6385" cy="60.2969" fill="#ADD1B2" rx="11" ry="11" style="stroke:#181818;stroke-width:1;"/><path d="M2780.6073,65.9375 Q2780.0292,66.2344 2779.3885,66.375 Q2778.7479,66.5313 2778.0448,66.5313 Q2775.5448,66.5313 2774.2167,64.8906 Q2772.9042,63.2344 2772.9042,60.1094 Q2772.9042,56.9844 2774.2167,55.3281 Q2775.5448,53.6719 2778.0448,53.6719 Q2778.7479,53.6719 2779.3885,53.8281 Q2780.0448,53.9844 2780.6073,54.2813 L2780.6073,57 Q2779.9823,56.4219 2779.3885,56.1563 Q2778.7948,55.875 2778.1698,55.875 Q2776.826,55.875 2776.1385,56.9531 Q2775.451,58.0156 2775.451,60.1094 Q2775.451,62.2031 2776.1385,63.2813 Q2776.826,64.3438 2778.1698,64.3438 Q2778.7948,64.3438 2779.3885,64.0781 Q2779.9823,63.7969 2780.6073,63.2188 L2780.6073,65.9375 Z " fill="#000000"/><text fill="#000000" font-family="sans-serif" font-size="14" lengthAdjust="spacing" textLength="73.8555" x="2798.1385" y="65.1436">UNH_S010</text><line style="stroke:#181818;stroke-width:0.5;" x1="2639.64" x2="2997.9925" y1="76.2969" y2="76.2969"/><text fill="#000000" font-family="sans-serif" font-size="14" lengthAdjust="spacing" textLength="269.3838" x="2658.64" y="93.292">Name: Gemeinsame Referenznummer</text><text fill="#000000" font-family="sans-serif" font-size="14" lengthAdjust="spacing" textLength="66.6436" x="2658.64" y="109.5889">Prozesse:</text><rect fill="none" height="6" style="stroke:#C82930;stroke-width:1;" width="6" x="2646.64" y="119.5391"/><text fill="#000000" font-family="sans-serif" font-size="14" lengthAdjust="spacing" textLength="180.3457" x="2658.64" y="125.8857">Netznutzungsabrechnung</text><rect fill="none" height="6" style="stroke:#C82930;stroke-width:1;" width="6" x="2646.64" y="135.8359"/><text fill="#000000" font-family="sans-serif" font-size="14" lengthAdjust="spacing" textLength="223.2822" x="2658.64" y="142.1826">Messstellenbetriebsabrechnung</text><rect fill="none" height="6" style="stroke:#C82930;stroke-width:1;" width="6" x="2646.64" y="152.1328"/><text fill="#000000" font-family="sans-serif" font-size="14" lengthAdjust="spacing" textLength="334.3525" x="2658.64" y="158.4795">Anforderung und &#220;bermittlung von Messwerten</text><rect fill="none" height="6" style="stroke:#C82930;stroke-width:1;" width="6" x="2646.64" y="168.4297"/><text fill="#000000" font-family="sans-serif" font-size="14" lengthAdjust="spacing" textLength="158.0127" x="2658.64" y="174.7764">Stammdaten&#228;nderung</text><line style="stroke:#181818;stroke-width:0.5;" x1="2639.64" x2="2997.9925" y1="182.0781" y2="182.0781"/></g><!--class UNH_S010_msg_1--><g class="entity" data-entity="UNH_S010_msg_1" data-source-line="10" data-uid="ent0003" id="entity_UNH_S010_msg_1"><rect fill="#F1F1F1" height="145.7813" rx="2.5" ry="2.5" style="stroke:#181818;stroke-width:0.5;" width="309.6299" x="7" y="267.0769"/><ellipse cx="94.2744" cy="283.0769" fill="#ADD1B2" rx="11" ry="11" style="stroke:#181818;stroke-width:1;"/><path d="M97.2432,288.7175 Q96.665,289.0144 96.0244,289.155 Q95.3838,289.3113 94.6807,289.3113 Q92.1807,289.3113 90.8525,287.6706 Q89.54,286.0144 89.54,282.8894 Q89.54,279.7644 90.8525,278.1081 Q92.1807,276.4519 94.6807,276.4519 Q95.3838,276.4519 96.0244,276.6081 Q96.6807,276.7644 97.2432,277.0613 L97.2432,279.78 Q96.6182,279.2019 96.0244,278.9363 Q95.4307,278.655 94.8057,278.655 Q93.4619,278.655 92.7744,279.7331 Q92.0869,280.7956 92.0869,282.8894 Q92.0869,284.9831 92.7744,286.0613 Q93.4619,287.1238 94.8057,287.1238 Q95.4307,287.1238 96.0244,286.8581 Q96.6182,286.5769 97.2432,285.9988 L97.2432,288.7175 Z " fill="#000000"/><text fill="#000000" font-family="sans-serif" font-size="14" lengthAdjust="spacing" textLength="126.5811" x="114.7744" y="287.9236">UNH_S010_msg_1</text><line style="stroke:#181818;stroke-width:0.5;" x1="8" x2="315.6299" y1="299.0769" y2="299.0769"/><text fill="#000000" font-family="sans-serif" font-size="14" lengthAdjust="spacing" textLength="172.9424" x="13" y="316.072">Nachricht: COMDIS 1.0e.</text><text fill="#000000" font-family="sans-serif" font-size="14" lengthAdjust="spacing" textLength="123.0605" x="13" y="332.3689">Kontext: Beispiel:</text><text fill="#000000" font-family="sans-serif" font-size="14" lengthAdjust="spacing" textLength="91.4033" x="13" y="348.6657">Pflichtfeld: Ja</text><text fill="#000000" font-family="sans-serif" font-size="14" lengthAdjust="spacing" textLength="193.3135" x="13" y="364.9626">Codes: 06, 19, 22, UN, UNH</text><text fill="#000000" font-family="sans-serif" font-size="14" lengthAdjust="spacing" textLength="251.4395" x="13" y="381.2595">Prozesse: Netznutzungsabrechnung</text><text fill="#000000" font-family="sans-serif" font-size="14" lengthAdjust="spacing" textLength="297.6299" x="13" y="397.5564">Quelle: COMDIS_MIG_1_0e__20240619.pdf</text><line style="stroke:#181818;stroke-width:0.5;" x1="8" x2="315.6299" y1="404.8581" y2="404.8581"/></g><!--class UNH_S010_msg_2--><g class="entity" data-entity="UNH_S010_msg_2" data-source-line="19" data-uid="ent0005" id="entity_UNH_S010_msg_2"><rect fill="#F1F1F1" height="129.4844" rx="2.5" ry="2.5" style="stroke:#181818;stroke-width:0.5;" width="438.0908" x="351.77" y="275.2269"/><ellipse cx="503.2749" cy="291.2269" fill="#ADD1B2" rx="11" ry="11" style="stroke:#181818;stroke-width:1;"/><path d="M506.2436,296.8675 Q505.6655,297.1644 505.0249,297.305 Q504.3843,297.4613 503.6811,297.4613 Q501.1811,297.4613 499.853,295.8206 Q498.5405,294.1644 498.5405,291.0394 Q498.5405,287.9144 499.853,286.2581 Q501.1811,284.6019 503.6811,284.6019 Q504.3843,284.6019 505.0249,284.7581 Q505.6811,284.9144 506.2436,285.2113 L506.2436,287.93 Q505.6186,287.3519 505.0249,287.0863 Q504.4311,286.805 503.8061,286.805 Q502.4624,286.805 501.7749,287.8831 Q501.0874,288.9456 501.0874,291.0394 Q501.0874,293.1331 501.7749,294.2113 Q502.4624,295.2738 503.8061,295.2738 Q504.4311,295.2738 505.0249,295.0081 Q505.6186,294.7269 506.2436,294.1488 L506.2436,296.8675 Z " fill="#000000"/><text fill="#000000" font-family="sans-serif" font-size="14" lengthAdjust="spacing" textLength="126.5811" x="523.7749" y="296.0736">UNH_S010_msg_2</text><line style="stroke:#181818;stroke-width:0.5;" x1="352.77" x2="788.8608" y1="307.2269" y2="307.2269"/><text fill="#000000" font-family="sans-serif" font-size="14" lengthAdjust="spacing" textLength="169.4424" x="357.77" y="324.222">Nachricht: CONTRL 2.0b</text><text fill="#000000" font-family="sans-serif" font-size="14" lengthAdjust="spacing" textLength="426.0908" x="357.77" y="340.5189">Kontext: Nachricht Syntax -   und Servicebericht ist CONTRL.</text><text fill="#000000" font-family="sans-serif" font-size="14" lengthAdjust="spacing" textLength="91.4033" x="357.77" y="356.8157">Pflichtfeld: Ja</text><text fill="#000000" font-family="sans-serif" font-size="14" lengthAdjust="spacing" textLength="73.0215" x="357.77" y="373.1126">Codes: UN</text><text fill="#000000" font-family="sans-serif" font-size="14" lengthAdjust="spacing" textLength="418.3662" x="357.77" y="389.4095">Quelle: CONTRL_MIG_2_0b_au&#223;erordentliche_20240726.pdf</text><line style="stroke:#181818;stroke-width:0.5;" x1="352.77" x2="788.8608" y1="396.7113" y2="396.7113"/></g><!--class UNH_S010_msg_3--><g class="entity" data-entity="UNH_S010_msg_3" data-source-line="27" data-uid="ent0007" id="entity_UNH_S010_msg_3"><rect fill="#F1F1F1" height="145.7813" rx="2.5" ry="2.5" style="stroke:#181818;stroke-width:0.5;" width="296.1357" x="824.75" y="267.0769"/><ellipse cx="905.2773" cy="283.0769" fill="#ADD1B2" rx="11" ry="11" style="stroke:#181818;stroke-width:1;"/><path d="M908.2461,288.7175 Q907.668,289.0144 907.0273,289.155 Q906.3867,289.3113 905.6836,289.3113 Q903.1836,289.3113 901.8555,287.6706 Q900.543,286.0144 900.543,282.8894 Q900.543,279.7644 901.8555,278.1081 Q903.1836,276.4519 905.6836,276.4519 Q906.3867,276.4519 907.0273,276.6081 Q907.6836,276.7644 908.2461,277.0613 L908.2461,279.78 Q907.6211,279.2019 907.0273,278.9363 Q906.4336,278.655 905.8086,278.655 Q904.4648,278.655 903.7773,279.7331 Q903.0898,280.7956 903.0898,282.8894 Q903.0898,284.9831 903.7773,286.0613 Q904.4648,287.1238 905.8086,287.1238 Q906.4336,287.1238 907.0273,286.8581 Q907.6211,286.5769 908.2461,285.9988 L908.2461,288.7175 Z " fill="#000000"/><text fill="#000000" font-family="sans-serif" font-size="14" lengthAdjust="spacing" textLength="126.5811" x="925.7773" y="287.9236">UNH_S010_msg_3</text><line style="stroke:#181818;stroke-width:0.5;" x1="825.75" x2="1119.8857" y1="299.0769" y2="299.0769"/><text fill="#000000" font-family="sans-serif" font-size="14" lengthAdjust="spacing" textLength="161.998" x="830.75" y="316.072">Nachricht: INSRPT 1.1a</text><text fill="#000000" font-family="sans-serif" font-size="14" lengthAdjust="spacing" textLength="122.917" x="830.75" y="332.3689">Kontext: Hinweis:</text><text fill="#000000" font-family="sans-serif" font-size="14" lengthAdjust="spacing" textLength="91.4033" x="830.75" y="348.6657">Pflichtfeld: Ja</text><text fill="#000000" font-family="sans-serif" font-size="14" lengthAdjust="spacing" textLength="83.5488" x="830.75" y="364.9626">Codes: UNH</text><text fill="#000000" font-family="sans-serif" font-size="14" lengthAdjust="spacing" textLength="251.4395" x="830.75" y="381.2595">Prozesse: Netznutzungsabrechnung</text><text fill="#000000" font-family="sans-serif" font-size="14" lengthAdjust="spacing" textLength="284.1357" x="830.75" y="397.5564">Quelle: INSRPT_MIG_1_1a_20211001.pdf</text><line style="stroke:#181818;stroke-width:0.5;" x1="825.75" x2="1119.8857" y1="404.8581" y2="404.8581"/></g><!--class UNH_S010_msg_4--><g class="entity" data-entity="UNH_S010_msg_4" data-source-line="36" data-uid="ent0009" id="entity_UNH_S010_msg_4"><rect fill="#F1F1F1" height="145.7813" rx="2.5" ry="2.5" style="stroke:#181818;stroke-width:0.5;" width="495.6221" x="1156" y="267.0769"/><ellipse cx="1336.2705" cy="283.0769" fill="#ADD1B2" rx="11" ry="11" style="stroke:#181818;stroke-width:1;"/><path d="M1339.2393,288.7175 Q1338.6611,289.0144 1338.0205,289.155 Q1337.3799,289.3113 1336.6768,289.3113 Q1334.1768,289.3113 1332.8486,287.6706 Q1331.5361,286.0144 1331.5361,282.8894 Q1331.5361,279.7644 1332.8486,278.1081 Q1334.1768,276.4519 1336.6768,276.4519 Q1337.3799,276.4519 1338.0205,276.6081 Q1338.6768,276.7644 1339.2393,277.0613 L1339.2393,279.78 Q1338.6143,279.2019 1338.0205,278.9363 Q1337.4268,278.655 1336.8018,278.655 Q1335.458,278.655 1334.7705,279.7331 Q1334.083,280.7956 1334.083,282.8894 Q1334.083,284.9831 1334.7705,286.0613 Q1335.458,287.1238 1336.8018,287.1238 Q1337.4268,287.1238 1338.0205,286.8581 Q1338.6143,286.5769 1339.2393,285.9988 L1339.2393,288.7175 Z " fill="#000000"/><text fill="#000000" font-family="sans-serif" font-size="14" lengthAdjust="spacing" textLength="126.5811" x="1356.7705" y="287.9236">UNH_S010_msg_4</text><line style="stroke:#181818;stroke-width:0.5;" x1="1157" x2="1650.6221" y1="299.0769" y2="299.0769"/><text fill="#000000" font-family="sans-serif" font-size="14" lengthAdjust="spacing" textLength="161.1982" x="1162" y="316.072">Nachricht: INVOIC 2.8d</text><text fill="#000000" font-family="sans-serif" font-size="14" lengthAdjust="spacing" textLength="122.917" x="1162" y="332.3689">Kontext: Hinweis:</text><text fill="#000000" font-family="sans-serif" font-size="14" lengthAdjust="spacing" textLength="91.4033" x="1162" y="348.6657">Pflichtfeld: Ja</text><text fill="#000000" font-family="sans-serif" font-size="14" lengthAdjust="spacing" textLength="113.1689" x="1162" y="364.9626">Codes: UN, UNH</text><text fill="#000000" font-family="sans-serif" font-size="14" lengthAdjust="spacing" textLength="483.6221" x="1162" y="381.2595">Prozesse: Netznutzungsabrechnung, Messstellenbetriebsabrechnung</text><text fill="#000000" font-family="sans-serif" font-size="14" lengthAdjust="spacing" textLength="396.6074" x="1162" y="397.5564">Quelle: INVOIC_MIG_2.8d_Fehlerkorrektur_20250131.pdf</text><line style="stroke:#181818;stroke-width:0.5;" x1="1157" x2="1650.6221" y1="404.8581" y2="404.8581"/></g><!--class UNH_S010_msg_5--><g class="entity" data-entity="UNH_S010_msg_5" data-source-line="45" data-uid="ent0011" id="entity_UNH_S010_msg_5"><rect fill="#F1F1F1" height="145.7813" rx="2.5" ry="2.5" style="stroke:#181818;stroke-width:0.5;" width="495.6221" x="1687" y="267.0769"/><ellipse cx="1867.2705" cy="283.0769" fill="#ADD1B2" rx="11" ry="11" style="stroke:#181818;stroke-width:1;"/><path d="M1870.2393,288.7175 Q1869.6611,289.0144 1869.0205,289.155 Q1868.3799,289.3113 1867.6768,289.3113 Q1865.1768,289.3113 1863.8486,287.6706 Q1862.5361,286.0144 1862.5361,282.8894 Q1862.5361,279.7644 1863.8486,278.1081 Q1865.1768,276.4519 1867.6768,276.4519 Q1868.3799,276.4519 1869.0205,276.6081 Q1869.6768,276.7644 1870.2393,277.0613 L1870.2393,279.78 Q1869.6143,279.2019 1869.0205,278.9363 Q1868.4268,278.655 1867.8018,278.655 Q1866.458,278.655 1865.7705,279.7331 Q1865.083,280.7956 1865.083,282.8894 Q1865.083,284.9831 1865.7705,286.0613 Q1866.458,287.1238 1867.8018,287.1238 Q1868.4268,287.1238 1869.0205,286.8581 Q1869.6143,286.5769 1870.2393,285.9988 L1870.2393,288.7175 Z " fill="#000000"/><text fill="#000000" font-family="sans-serif" font-size="14" lengthAdjust="spacing" textLength="126.5811" x="1887.7705" y="287.9236">UNH_S010_msg_5</text><line style="stroke:#181818;stroke-width:0.5;" x1="1688" x2="2181.6221" y1="299.0769" y2="299.0769"/><text fill="#000000" font-family="sans-serif" font-size="14" lengthAdjust="spacing" textLength="165.6484" x="1693" y="316.072">Nachricht: INVOIC 2.8d.</text><text fill="#000000" font-family="sans-serif" font-size="14" lengthAdjust="spacing" textLength="122.917" x="1693" y="332.3689">Kontext: Hinweis:</text><text fill="#000000" font-family="sans-serif" font-size="14" lengthAdjust="spacing" textLength="91.4033" x="1693" y="348.6657">Pflichtfeld: Ja</text><text fill="#000000" font-family="sans-serif" font-size="14" lengthAdjust="spacing" textLength="83.5488" x="1693" y="364.9626">Codes: UNH</text><text fill="#000000" font-family="sans-serif" font-size="14" lengthAdjust="spacing" textLength="483.6221" x="1693" y="381.2595">Prozesse: Netznutzungsabrechnung, Messstellenbetriebsabrechnung</text><text fill="#000000" font-family="sans-serif" font-size="14" lengthAdjust="spacing" textLength="290.3359" x="1693" y="397.5564">Quelle: INVOIC_MIG_2_8d__20240619.pdf</text><line style="stroke:#181818;stroke-width:0.5;" x1="1688" x2="2181.6221" y1="404.8581" y2="404.8581"/></g><!--class UNH_S010_msg_6--><g class="entity" data-entity="UNH_S010_msg_6" data-source-line="54" data-uid="ent0013" id="entity_UNH_S010_msg_6"><rect fill="#F1F1F1" height="145.7813" rx="2.5" ry="2.5" style="stroke:#181818;stroke-width:0.5;" width="417.4463" x="2218.09" y="267.0769"/><ellipse cx="2359.2726" cy="283.0769" fill="#ADD1B2" rx="11" ry="11" style="stroke:#181818;stroke-width:1;"/><path d="M2362.2414,288.7175 Q2361.6632,289.0144 2361.0226,289.155 Q2360.382,289.3113 2359.6789,289.3113 Q2357.1789,289.3113 2355.8507,287.6706 Q2354.5382,286.0144 2354.5382,282.8894 Q2354.5382,279.7644 2355.8507,278.1081 Q2357.1789,276.4519 2359.6789,276.4519 Q2360.382,276.4519 2361.0226,276.6081 Q2361.6789,276.7644 2362.2414,277.0613 L2362.2414,279.78 Q2361.6164,279.2019 2361.0226,278.9363 Q2360.4289,278.655 2359.8039,278.655 Q2358.4601,278.655 2357.7726,279.7331 Q2357.0851,280.7956 2357.0851,282.8894 Q2357.0851,284.9831 2357.7726,286.0613 Q2358.4601,287.1238 2359.8039,287.1238 Q2360.4289,287.1238 2361.0226,286.8581 Q2361.6164,286.5769 2362.2414,285.9988 L2362.2414,288.7175 Z " fill="#000000"/><text fill="#000000" font-family="sans-serif" font-size="14" lengthAdjust="spacing" textLength="126.5811" x="2379.7726" y="287.9236">UNH_S010_msg_6</text><line style="stroke:#181818;stroke-width:0.5;" x1="2219.09" x2="2634.5363" y1="299.0769" y2="299.0769"/><text fill="#000000" font-family="sans-serif" font-size="14" lengthAdjust="spacing" textLength="172.0264" x="2224.09" y="316.072">Nachricht: MSCONS 2.4c</text><text fill="#000000" font-family="sans-serif" font-size="14" lengthAdjust="spacing" textLength="122.917" x="2224.09" y="332.3689">Kontext: Hinweis:</text><text fill="#000000" font-family="sans-serif" font-size="14" lengthAdjust="spacing" textLength="110.5439" x="2224.09" y="348.6657">Pflichtfeld: Nein</text><text fill="#000000" font-family="sans-serif" font-size="14" lengthAdjust="spacing" textLength="110.2637" x="2224.09" y="364.9626">Codes: 68, UNH</text><text fill="#000000" font-family="sans-serif" font-size="14" lengthAdjust="spacing" textLength="405.4463" x="2224.09" y="381.2595">Prozesse: Anforderung und &#220;bermittlung von Messwerten</text><text fill="#000000" font-family="sans-serif" font-size="14" lengthAdjust="spacing" textLength="294.1641" x="2224.09" y="397.5564">Quelle: MSCONS_MIG_2_4c_20231024.pdf</text><line style="stroke:#181818;stroke-width:0.5;" x1="2219.09" x2="2634.5363" y1="404.8581" y2="404.8581"/></g><!--class UNH_S010_msg_7--><g class="entity" data-entity="UNH_S010_msg_7" data-source-line="63" data-uid="ent0015" id="entity_UNH_S010_msg_7"><rect fill="#F1F1F1" height="145.7813" rx="2.5" ry="2.5" style="stroke:#181818;stroke-width:0.5;" width="296.8604" x="2670.38" y="267.0769"/><ellipse cx="2751.2696" cy="283.0769" fill="#ADD1B2" rx="11" ry="11" style="stroke:#181818;stroke-width:1;"/><path d="M2754.2384,288.7175 Q2753.6603,289.0144 2753.0196,289.155 Q2752.379,289.3113 2751.6759,289.3113 Q2749.1759,289.3113 2747.8478,287.6706 Q2746.5353,286.0144 2746.5353,282.8894 Q2746.5353,279.7644 2747.8478,278.1081 Q2749.1759,276.4519 2751.6759,276.4519 Q2752.379,276.4519 2753.0196,276.6081 Q2753.6759,276.7644 2754.2384,277.0613 L2754.2384,279.78 Q2753.6134,279.2019 2753.0196,278.9363 Q2752.4259,278.655 2751.8009,278.655 Q2750.4571,278.655 2749.7696,279.7331 Q2749.0821,280.7956 2749.0821,282.8894 Q2749.0821,284.9831 2749.7696,286.0613 Q2750.4571,287.1238 2751.8009,287.1238 Q2752.4259,287.1238 2753.0196,286.8581 Q2753.6134,286.5769 2754.2384,285.9988 L2754.2384,288.7175 Z " fill="#000000"/><text fill="#000000" font-family="sans-serif" font-size="14" lengthAdjust="spacing" textLength="126.5811" x="2771.7696" y="287.9236">UNH_S010_msg_7</text><line style="stroke:#181818;stroke-width:0.5;" x1="2671.38" x2="2966.2404" y1="299.0769" y2="299.0769"/><text fill="#000000" font-family="sans-serif" font-size="14" lengthAdjust="spacing" textLength="162.7227" x="2676.38" y="316.072">Nachricht: PARTIN 1.0e</text><text fill="#000000" font-family="sans-serif" font-size="14" lengthAdjust="spacing" textLength="123.0605" x="2676.38" y="332.3689">Kontext: Beispiel:</text><text fill="#000000" font-family="sans-serif" font-size="14" lengthAdjust="spacing" textLength="91.4033" x="2676.38" y="348.6657">Pflichtfeld: Ja</text><text fill="#000000" font-family="sans-serif" font-size="14" lengthAdjust="spacing" textLength="193.3135" x="2676.38" y="364.9626">Codes: 01, 10, 67, UN, UNH</text><text fill="#000000" font-family="sans-serif" font-size="14" lengthAdjust="spacing" textLength="229.1064" x="2676.38" y="381.2595">Prozesse: Stammdaten&#228;nderung</text><text fill="#000000" font-family="sans-serif" font-size="14" lengthAdjust="spacing" textLength="284.8604" x="2676.38" y="397.5564">Quelle: PARTIN_MIG_1_0e_20241001.pdf</text><line style="stroke:#181818;stroke-width:0.5;" x1="2671.38" x2="2966.2404" y1="404.8581" y2="404.8581"/></g><!--class UNH_S010_msg_8--><g class="entity" data-entity="UNH_S010_msg_8" data-source-line="72" data-uid="ent0017" id="entity_UNH_S010_msg_8"><rect fill="#F1F1F1" height="145.7813" rx="2.5" ry="2.5" style="stroke:#181818;stroke-width:0.5;" width="296.4365" x="3002.6" y="267.0769"/><ellipse cx="3083.2777" cy="283.0769" fill="#ADD1B2" rx="11" ry="11" style="stroke:#181818;stroke-width:1;"/><path d="M3086.2465,288.7175 Q3085.6684,289.0144 3085.0277,289.155 Q3084.3871,289.3113 3083.684,289.3113 Q3081.184,289.3113 3079.8559,287.6706 Q3078.5434,286.0144 3078.5434,282.8894 Q3078.5434,279.7644 3079.8559,278.1081 Q3081.184,276.4519 3083.684,276.4519 Q3084.3871,276.4519 3085.0277,276.6081 Q3085.684,276.7644 3086.2465,277.0613 L3086.2465,279.78 Q3085.6215,279.2019 3085.0277,278.9363 Q3084.434,278.655 3083.809,278.655 Q3082.4652,278.655 3081.7777,279.7331 Q3081.0902,280.7956 3081.0902,282.8894 Q3081.0902,284.9831 3081.7777,286.0613 Q3082.4652,287.1238 3083.809,287.1238 Q3084.434,287.1238 3085.0277,286.8581 Q3085.6215,286.5769 3086.2465,285.9988 L3086.2465,288.7175 Z " fill="#000000"/><text fill="#000000" font-family="sans-serif" font-size="14" lengthAdjust="spacing" textLength="126.5811" x="3103.7777" y="287.9236">UNH_S010_msg_8</text><line style="stroke:#181818;stroke-width:0.5;" x1="3003.6" x2="3298.0365" y1="299.0769" y2="299.0769"/><text fill="#000000" font-family="sans-serif" font-size="14" lengthAdjust="spacing" textLength="162.2988" x="3008.6" y="316.072">Nachricht: PRICAT 2.0d</text><text fill="#000000" font-family="sans-serif" font-size="14" lengthAdjust="spacing" textLength="122.917" x="3008.6" y="332.3689">Kontext: Hinweis:</text><text fill="#000000" font-family="sans-serif" font-size="14" lengthAdjust="spacing" textLength="91.4033" x="3008.6" y="348.6657">Pflichtfeld: Ja</text><text fill="#000000" font-family="sans-serif" font-size="14" lengthAdjust="spacing" textLength="83.5488" x="3008.6" y="364.9626">Codes: UNH</text><text fill="#000000" font-family="sans-serif" font-size="14" lengthAdjust="spacing" textLength="251.4395" x="3008.6" y="381.2595">Prozesse: Netznutzungsabrechnung</text><text fill="#000000" font-family="sans-serif" font-size="14" lengthAdjust="spacing" textLength="284.4365" x="3008.6" y="397.5564">Quelle: PRICAT_MIG_2_0d_20240619.pdf</text><line style="stroke:#181818;stroke-width:0.5;" x1="3003.6" x2="3298.0365" y1="404.8581" y2="404.8581"/></g><!--class UNH_S010_msg_9--><g class="entity" data-entity="UNH_S010_msg_9" data-source-line="81" data-uid="ent0019" id="entity_UNH_S010_msg_9"><rect fill="#F1F1F1" height="145.7813" rx="2.5" ry="2.5" style="stroke:#181818;stroke-width:0.5;" width="303.0811" x="3334.27" y="267.0769"/><ellipse cx="3418.27" cy="283.0769" fill="#ADD1B2" rx="11" ry="11" style="stroke:#181818;stroke-width:1;"/><path d="M3421.2388,288.7175 Q3420.6606,289.0144 3420.02,289.155 Q3419.3794,289.3113 3418.6763,289.3113 Q3416.1763,289.3113 3414.8481,287.6706 Q3413.5356,286.0144 3413.5356,282.8894 Q3413.5356,279.7644 3414.8481,278.1081 Q3416.1763,276.4519 3418.6763,276.4519 Q3419.3794,276.4519 3420.02,276.6081 Q3420.6763,276.7644 3421.2388,277.0613 L3421.2388,279.78 Q3420.6138,279.2019 3420.02,278.9363 Q3419.4263,278.655 3418.8013,278.655 Q3417.4575,278.655 3416.77,279.7331 Q3416.0825,280.7956 3416.0825,282.8894 Q3416.0825,284.9831 3416.77,286.0613 Q3417.4575,287.1238 3418.8013,287.1238 Q3419.4263,287.1238 3420.02,286.8581 Q3420.6138,286.5769 3421.2388,285.9988 L3421.2388,288.7175 Z " fill="#000000"/><text fill="#000000" font-family="sans-serif" font-size="14" lengthAdjust="spacing" textLength="126.5811" x="3438.77" y="287.9236">UNH_S010_msg_9</text><line style="stroke:#181818;stroke-width:0.5;" x1="3335.27" x2="3636.3511" y1="299.0769" y2="299.0769"/><text fill="#000000" font-family="sans-serif" font-size="14" lengthAdjust="spacing" textLength="171.4932" x="3340.27" y="316.072">Nachricht: REMADV 2.9c</text><text fill="#000000" font-family="sans-serif" font-size="14" lengthAdjust="spacing" textLength="149.3447" x="3340.27" y="332.3689">Kontext: Bemerkung:</text><text fill="#000000" font-family="sans-serif" font-size="14" lengthAdjust="spacing" textLength="91.4033" x="3340.27" y="348.6657">Pflichtfeld: Ja</text><text fill="#000000" font-family="sans-serif" font-size="14" lengthAdjust="spacing" textLength="83.5488" x="3340.27" y="364.9626">Codes: UNH</text><text fill="#000000" font-family="sans-serif" font-size="14" lengthAdjust="spacing" textLength="251.4395" x="3340.27" y="381.2595">Prozesse: Netznutzungsabrechnung</text><text fill="#000000" font-family="sans-serif" font-size="14" lengthAdjust="spacing" textLength="291.0811" x="3340.27" y="397.5564">Quelle: REMADV_MIG_2.9c_20231024.pdf</text><line style="stroke:#181818;stroke-width:0.5;" x1="3335.27" x2="3636.3511" y1="404.8581" y2="404.8581"/></g><!--class UNH_S010_proc_1--><g class="entity" data-entity="UNH_S010_proc_1" data-source-line="90" data-uid="ent0021" id="entity_UNH_S010_proc_1"><rect fill="#F1F1F1" height="105.1563" rx="2.5" ry="2.5" style="stroke:#181818;stroke-width:0.5;" width="752.6465" x="3672.49" y="287.3869"/><ellipse cx="3980.7293" cy="307.5197" fill="#ADD1B2" rx="11" ry="11" style="stroke:#181818;stroke-width:1;"/><path d="M3983.698,313.1603 Q3983.1199,313.4572 3982.4793,313.5978 Q3981.8386,313.7541 3981.1355,313.7541 Q3978.6355,313.7541 3977.3074,312.1134 Q3975.9949,310.4572 3975.9949,307.3322 Q3975.9949,304.2072 3977.3074,302.5509 Q3978.6355,300.8947 3981.1355,300.8947 Q3981.8386,300.8947 3982.4793,301.0509 Q3983.1355,301.2072 3983.698,301.5041 L3983.698,304.2228 Q3983.073,303.6447 3982.4793,303.3791 Q3981.8855,303.0978 3981.2605,303.0978 Q3979.9168,303.0978 3979.2293,304.1759 Q3978.5418,305.2384 3978.5418,307.3322 Q3978.5418,309.4259 3979.2293,310.5041 Q3979.9168,311.5666 3981.2605,311.5666 Q3981.8855,311.5666 3982.4793,311.3009 Q3983.073,311.0197 3983.698,310.4416 L3983.698,313.1603 Z " fill="#000000"/><text fill="#000000" font-family="sans-serif" font-size="12" font-style="italic" lengthAdjust="spacing" textLength="61.0605" x="4034.533" y="303.5255">&#171;process&#187;</text><text fill="#000000" font-family="sans-serif" font-size="14" lengthAdjust="spacing" textLength="127.668" x="4001.2293" y="319.3507">UNH_S010_proc_1</text><line style="stroke:#181818;stroke-width:0.5;" x1="3673.49" x2="4424.1365" y1="327.6525" y2="327.6525"/><text fill="#000000" font-family="sans-serif" font-size="14" lengthAdjust="spacing" textLength="180.3457" x="3678.49" y="344.6476">Netznutzungsabrechnung</text><text fill="#000000" font-family="sans-serif" font-size="14" lengthAdjust="spacing" textLength="218.0938" x="3678.49" y="360.9445">Gesetze: StromNEV, StromNZV</text><text fill="#000000" font-family="sans-serif" font-size="14" lengthAdjust="spacing" textLength="740.6465" x="3678.49" y="377.2414">Zusammenfassung: Wie funktioniert die Netznutzungsabrechnung zwischen Netzbetreiber und Lieferant?</text><line style="stroke:#181818;stroke-width:0.5;" x1="3673.49" x2="4424.1365" y1="384.5431" y2="384.5431"/></g><!--class UNH_S010_proc_2--><g class="entity" data-entity="UNH_S010_proc_2" data-source-line="96" data-uid="ent0023" id="entity_UNH_S010_proc_2"><rect fill="#F1F1F1" height="105.1563" rx="2.5" ry="2.5" style="stroke:#181818;stroke-width:0.5;" width="690.2275" x="4459.7" y="287.3869"/><ellipse cx="4736.7298" cy="307.5197" fill="#ADD1B2" rx="11" ry="11" style="stroke:#181818;stroke-width:1;"/><path d="M4739.6985,313.1603 Q4739.1204,313.4572 4738.4798,313.5978 Q4737.8392,313.7541 4737.136,313.7541 Q4734.636,313.7541 4733.3079,312.1134 Q4731.9954,310.4572 4731.9954,307.3322 Q4731.9954,304.2072 4733.3079,302.5509 Q4734.636,300.8947 4737.136,300.8947 Q4737.8392,300.8947 4738.4798,301.0509 Q4739.136,301.2072 4739.6985,301.5041 L4739.6985,304.2228 Q4739.0735,303.6447 4738.4798,303.3791 Q4737.886,303.0978 4737.261,303.0978 Q4735.9173,303.0978 4735.2298,304.1759 Q4734.5423,305.2384 4734.5423,307.3322 Q4734.5423,309.4259 4735.2298,310.5041 Q4735.9173,311.5666 4737.261,311.5666 Q4737.886,311.5666 4738.4798,311.3009 Q4739.0735,311.0197 4739.6985,310.4416 L4739.6985,313.1603 Z " fill="#000000"/><text fill="#000000" font-family="sans-serif" font-size="12" font-style="italic" lengthAdjust="spacing" textLength="61.0605" x="4790.5335" y="303.5255">&#171;process&#187;</text><text fill="#000000" font-family="sans-serif" font-size="14" lengthAdjust="spacing" textLength="127.668" x="4757.2298" y="319.3507">UNH_S010_proc_2</text><line style="stroke:#181818;stroke-width:0.5;" x1="4460.7" x2="5148.9275" y1="327.6525" y2="327.6525"/><text fill="#000000" font-family="sans-serif" font-size="14" lengthAdjust="spacing" textLength="223.2822" x="4465.7" y="344.6476">Messstellenbetriebsabrechnung</text><text fill="#000000" font-family="sans-serif" font-size="14" lengthAdjust="spacing" textLength="105.0957" x="4465.7" y="360.9445">Gesetze: MsbG</text><text fill="#000000" font-family="sans-serif" font-size="14" lengthAdjust="spacing" textLength="678.2275" x="4465.7" y="377.2414">Zusammenfassung: Beschreibe den Prozess der Abrechnung von Messstellenbetriebsleistungen.</text><line style="stroke:#181818;stroke-width:0.5;" x1="4460.7" x2="5148.9275" y1="384.5431" y2="384.5431"/></g><!--class UNH_S010_proc_3--><g class="entity" data-entity="UNH_S010_proc_3" data-source-line="102" data-uid="ent0025" id="entity_UNH_S010_proc_3"><rect fill="#F1F1F1" height="105.1563" rx="2.5" ry="2.5" style="stroke:#181818;stroke-width:0.5;" width="378.2285" x="5184.7" y="287.3869"/><ellipse cx="5305.7303" cy="307.5197" fill="#ADD1B2" rx="11" ry="11" style="stroke:#181818;stroke-width:1;"/><path d="M5308.699,313.1603 Q5308.1209,313.4572 5307.4803,313.5978 Q5306.8396,313.7541 5306.1365,313.7541 Q5303.6365,313.7541 5302.3084,312.1134 Q5300.9959,310.4572 5300.9959,307.3322 Q5300.9959,304.2072 5302.3084,302.5509 Q5303.6365,300.8947 5306.1365,300.8947 Q5306.8396,300.8947 5307.4803,301.0509 Q5308.1365,301.2072 5308.699,301.5041 L5308.699,304.2228 Q5308.074,303.6447 5307.4803,303.3791 Q5306.8865,303.0978 5306.2615,303.0978 Q5304.9178,303.0978 5304.2303,304.1759 Q5303.5428,305.2384 5303.5428,307.3322 Q5303.5428,309.4259 5304.2303,310.5041 Q5304.9178,311.5666 5306.2615,311.5666 Q5306.8865,311.5666 5307.4803,311.3009 Q5308.074,311.0197 5308.699,310.4416 L5308.699,313.1603 Z " fill="#000000"/><text fill="#000000" font-family="sans-serif" font-size="12" font-style="italic" lengthAdjust="spacing" textLength="61.0605" x="5359.534" y="303.5255">&#171;process&#187;</text><text fill="#000000" font-family="sans-serif" font-size="14" lengthAdjust="spacing" textLength="127.668" x="5326.2303" y="319.3507">UNH_S010_proc_3</text><line style="stroke:#181818;stroke-width:0.5;" x1="5185.7" x2="5561.9285" y1="327.6525" y2="327.6525"/><text fill="#000000" font-family="sans-serif" font-size="14" lengthAdjust="spacing" textLength="334.3525" x="5190.7" y="344.6476">Anforderung und &#220;bermittlung von Messwerten</text><text fill="#000000" font-family="sans-serif" font-size="14" lengthAdjust="spacing" textLength="105.0957" x="5190.7" y="360.9445">Gesetze: MsbG</text><line style="stroke:#181818;stroke-width:0.5;" x1="5185.7" x2="5561.9285" y1="368.2463" y2="368.2463"/><text fill="#000000" font-family="sans-serif" font-size="14" lengthAdjust="spacing" textLength="366.2285" x="5190.7" y="385.2414">Zusammenfassung: Wie kann ein Marktpartner (z.B.</text></g><!--class UNH_S010_proc_4--><g class="entity" data-entity="UNH_S010_proc_4" data-source-line="108" data-uid="ent0027" id="entity_UNH_S010_proc_4"><rect fill="#F1F1F1" height="88.8594" rx="2.5" ry="2.5" style="stroke:#181818;stroke-width:0.5;" width="638.3496" x="5597.64" y="295.5369"/><ellipse cx="5848.7308" cy="315.6697" fill="#ADD1B2" rx="11" ry="11" style="stroke:#181818;stroke-width:1;"/><path d="M5851.6996,321.3103 Q5851.1214,321.6072 5850.4808,321.7478 Q5849.8402,321.9041 5849.1371,321.9041 Q5846.6371,321.9041 5845.3089,320.2634 Q5843.9964,318.6072 5843.9964,315.4822 Q5843.9964,312.3572 5845.3089,310.7009 Q5846.6371,309.0447 5849.1371,309.0447 Q5849.8402,309.0447 5850.4808,309.2009 Q5851.1371,309.3572 5851.6996,309.6541 L5851.6996,312.3728 Q5851.0746,311.7947 5850.4808,311.5291 Q5849.8871,311.2478 5849.2621,311.2478 Q5847.9183,311.2478 5847.2308,312.3259 Q5846.5433,313.3884 5846.5433,315.4822 Q5846.5433,317.5759 5847.2308,318.6541 Q5847.9183,319.7166 5849.2621,319.7166 Q5849.8871,319.7166 5850.4808,319.4509 Q5851.0746,319.1697 5851.6996,318.5916 L5851.6996,321.3103 Z " fill="#000000"/><text fill="#000000" font-family="sans-serif" font-size="12" font-style="italic" lengthAdjust="spacing" textLength="61.0605" x="5902.5345" y="311.6755">&#171;process&#187;</text><text fill="#000000" font-family="sans-serif" font-size="14" lengthAdjust="spacing" textLength="127.668" x="5869.2308" y="327.5007">UNH_S010_proc_4</text><line style="stroke:#181818;stroke-width:0.5;" x1="5598.64" x2="6234.9896" y1="335.8025" y2="335.8025"/><text fill="#000000" font-family="sans-serif" font-size="14" lengthAdjust="spacing" textLength="158.0127" x="5603.64" y="352.7976">Stammdaten&#228;nderung</text><text fill="#000000" font-family="sans-serif" font-size="14" lengthAdjust="spacing" textLength="626.3496" x="5603.64" y="369.0945">Zusammenfassung: Wie wird eine Stammdaten&#228;nderung an einer Marktlokation, wie z.B.</text><line style="stroke:#181818;stroke-width:0.5;" x1="5598.64" x2="6234.9896" y1="376.3963" y2="376.3963"/></g><!--link UNH_S010 to UNH_S010_msg_1--><g class="link" data-entity-1="UNH_S010" data-entity-2="UNH_S010_msg_1" data-source-line="18" data-uid="lnk4" id="link_UNH_S010_UNH_S010_msg_1"><path codeLine="18" d="M2638.23,125.9869 C2298.08,141.0969 1539.16,176.6769 900.81,220.0769 C648.53,237.2269 579.47,207.1369 333.81,267.0769 C328.16,268.4569 328.1976,268.3088 322.4676,269.9888" fill="none" id="UNH_S010-to-UNH_S010_msg_1" style="stroke:#181818;stroke-width:1;"/><polygon fill="#181818" points="316.71,271.6769,326.4718,272.9831,321.508,270.2701,324.221,265.3063,316.71,271.6769" style="stroke:#181818;stroke-width:1;"/><text fill="#000000" font-family="sans-serif" font-size="13" lengthAdjust="spacing" textLength="85.2363" x="901.81" y="233.1438">verwendet in</text></g><!--link UNH_S010 to UNH_S010_msg_2--><g class="link" data-entity-1="UNH_S010" data-entity-2="UNH_S010_msg_2" data-source-line="26" data-uid="lnk6" id="link_UNH_S010_UNH_S010_msg_2"><path codeLine="26" d="M2638.25,126.5769 C2340.78,141.0969 1729.17,173.8369 1212.81,220.0769 C1031.89,236.2769 984.64,230.0169 806.81,267.0769 C795.81,269.3669 790.4063,270.5135 779.1063,273.2935" fill="none" id="UNH_S010-to-UNH_S010_msg_2" style="stroke:#181818;stroke-width:1;"/><polygon fill="#181818" points="773.28,274.7269,782.975,276.461,778.1352,273.5324,781.0638,268.6926,773.28,274.7269" style="stroke:#181818;stroke-width:1;"/><text fill="#000000" font-family="sans-serif" font-size="13" lengthAdjust="spacing" textLength="85.2363" x="1213.81" y="233.1438">verwendet in</text></g><!--link UNH_S010 to UNH_S010_msg_3--><g class="link" data-entity-1="UNH_S010" data-entity-2="UNH_S010_msg_3" data-source-line="35" data-uid="lnk8" id="link_UNH_S010_UNH_S010_msg_3"><path codeLine="35" d="M2638.21,126.8869 C2264.68,146.0769 1418.72,196.0369 1138.81,267.0769 C1133.03,268.5469 1132.9274,268.4313 1127.0774,270.2213" fill="none" id="UNH_S010-to-UNH_S010_msg_3" style="stroke:#181818;stroke-width:1;"/><polygon fill="#181818" points="1121.34,271.9769,1131.1165,273.1685,1126.1212,270.5139,1128.7758,265.5186,1121.34,271.9769" style="stroke:#181818;stroke-width:1;"/><text fill="#000000" font-family="sans-serif" font-size="13" lengthAdjust="spacing" textLength="85.2363" x="1415.81" y="233.1438">verwendet in</text></g><!--link UNH_S010 to UNH_S010_msg_4--><g class="link" data-entity-1="UNH_S010" data-entity-2="UNH_S010_msg_4" data-source-line="44" data-uid="lnk10" id="link_UNH_S010_UNH_S010_msg_4"><path codeLine="44" d="M2638.47,133.9469 C2411.17,155.5569 2009.14,199.5569 1669.81,267.0769 C1663.95,268.2469 1663.8883,268.2164 1657.9283,269.4864" fill="none" id="UNH_S010-to-UNH_S010_msg_4" style="stroke:#181818;stroke-width:1;"/><polygon fill="#181818" points="1652.06,270.7369,1661.696,272.7734,1656.9502,269.6948,1660.0287,264.949,1652.06,270.7369" style="stroke:#181818;stroke-width:1;"/><text fill="#000000" font-family="sans-serif" font-size="13" lengthAdjust="spacing" textLength="85.2363" x="1920.81" y="233.1438">verwendet in</text></g><!--link UNH_S010 to UNH_S010_msg_5--><g class="link" data-entity-1="UNH_S010" data-entity-2="UNH_S010_msg_5" data-source-line="53" data-uid="lnk12" id="link_UNH_S010_UNH_S010_msg_5"><path codeLine="53" d="M2638.32,160.2869 C2514.91,189.4169 2347.7,229.5369 2200.81,267.0769 C2194.91,268.5869 2194.7388,268.6241 2188.7088,270.1841" fill="none" id="UNH_S010-to-UNH_S010_msg_5" style="stroke:#181818;stroke-width:1;"/><polygon fill="#181818" points="2182.9,271.6869,2192.615,273.3052,2187.7406,270.4346,2190.6113,265.5602,2182.9,271.6869" style="stroke:#181818;stroke-width:1;"/><text fill="#000000" font-family="sans-serif" font-size="13" lengthAdjust="spacing" textLength="85.2363" x="2388.81" y="233.1438">verwendet in</text></g><!--link UNH_S010 to UNH_S010_msg_6--><g class="link" data-entity-1="UNH_S010" data-entity-2="UNH_S010_msg_6" data-source-line="62" data-uid="lnk14" id="link_UNH_S010_UNH_S010_msg_6"><path codeLine="62" d="M2690.46,190.4769 C2647.03,214.9369 2603.7784,239.3034 2560.3484,263.7534" fill="none" id="UNH_S010-to-UNH_S010_msg_6" style="stroke:#181818;stroke-width:1;"/><polygon fill="#181818" points="2555.12,266.6969,2564.9249,265.7673,2559.477,264.244,2561.0003,258.7961,2555.12,266.6969" style="stroke:#181818;stroke-width:1;"/><text fill="#000000" font-family="sans-serif" font-size="13" lengthAdjust="spacing" textLength="85.2363" x="2635.81" y="233.1438">verwendet in</text></g><!--link UNH_S010 to UNH_S010_msg_7--><g class="link" data-entity-1="UNH_S010" data-entity-2="UNH_S010_msg_7" data-source-line="71" data-uid="lnk16" id="link_UNH_S010_UNH_S010_msg_7"><path codeLine="71" d="M2818.81,190.4769 C2818.81,214.9969 2818.81,236.3869 2818.81,260.8869" fill="none" id="UNH_S010-to-UNH_S010_msg_7" style="stroke:#181818;stroke-width:1;"/><polygon fill="#181818" points="2818.81,266.8869,2822.81,257.8869,2818.81,261.8869,2814.81,257.8869,2818.81,266.8869" style="stroke:#181818;stroke-width:1;"/><text fill="#000000" font-family="sans-serif" font-size="13" lengthAdjust="spacing" textLength="85.2363" x="2819.81" y="233.1438">verwendet in</text></g><!--link UNH_S010 to UNH_S010_msg_8--><g class="link" data-entity-1="UNH_S010" data-entity-2="UNH_S010_msg_8" data-source-line="80" data-uid="lnk18" id="link_UNH_S010_UNH_S010_msg_8"><path codeLine="80" d="M2927.52,190.4769 C2964.31,214.9369 3000.3733,238.9253 3037.1533,263.3753" fill="none" id="UNH_S010-to-UNH_S010_msg_8" style="stroke:#181818;stroke-width:1;"/><polygon fill="#181818" points="3042.15,266.6969,3036.8694,258.3833,3037.9861,263.9289,3032.4406,265.0456,3042.15,266.6969" style="stroke:#181818;stroke-width:1;"/><text fill="#000000" font-family="sans-serif" font-size="13" lengthAdjust="spacing" textLength="85.2363" x="2995.81" y="233.1438">verwendet in</text></g><!--link UNH_S010 to UNH_S010_msg_9--><g class="link" data-entity-1="UNH_S010" data-entity-2="UNH_S010_msg_9" data-source-line="89" data-uid="lnk20" id="link_UNH_S010_UNH_S010_msg_9"><path codeLine="89" d="M2999.32,166.8969 C3094.58,193.9169 3212.94,229.5869 3316.81,267.0769 C3322.51,269.1369 3322.694,269.1385 3328.514,271.3585" fill="none" id="UNH_S010-to-UNH_S010_msg_9" style="stroke:#181818;stroke-width:1;"/><polygon fill="#181818" points="3334.12,273.4969,3327.1366,266.552,3329.4483,271.7149,3324.2854,274.0267,3334.12,273.4969" style="stroke:#181818;stroke-width:1;"/><text fill="#000000" font-family="sans-serif" font-size="13" lengthAdjust="spacing" textLength="85.2363" x="3223.81" y="233.1438">verwendet in</text></g><!--link UNH_S010 to UNH_S010_proc_1--><g class="link" data-entity-1="UNH_S010" data-entity-2="UNH_S010_proc_1" data-source-line="95" data-uid="lnk22" id="link_UNH_S010_UNH_S010_proc_1"><path codeLine="95" d="M2999.46,150.1269 C3168.81,180.1369 3429.03,226.3669 3654.81,267.0769 C3690.23,273.4569 3721.517,279.1224 3758.327,285.8224" fill="none" id="UNH_S010-to-UNH_S010_proc_1" style="stroke:#181818;stroke-width:1;stroke-dasharray:7,7;"/><polygon fill="#181818" points="3764.23,286.8969,3756.0918,281.3499,3759.3108,286.0015,3754.6592,289.2206,3764.23,286.8969" style="stroke:#181818;stroke-width:1;"/><text fill="#000000" font-family="sans-serif" font-size="13" lengthAdjust="spacing" textLength="91.6221" x="3472.81" y="233.1438">eingebettet in</text></g><!--link UNH_S010 to UNH_S010_proc_2--><g class="link" data-entity-1="UNH_S010" data-entity-2="UNH_S010_proc_2" data-source-line="101" data-uid="lnk24" id="link_UNH_S010_UNH_S010_proc_2"><path codeLine="101" d="M2999.47,128.5569 C3300.08,147.1969 3921.45,191.6169 4442.81,267.0769 C4481.18,272.6269 4515.7322,278.4639 4555.1422,285.8339" fill="none" id="UNH_S010-to-UNH_S010_proc_2" style="stroke:#181818;stroke-width:1;stroke-dasharray:7,7;"/><polygon fill="#181818" points="4561.04,286.9369,4552.9287,281.3506,4556.1252,286.0178,4551.4581,289.2143,4561.04,286.9369" style="stroke:#181818;stroke-width:1;"/><text fill="#000000" font-family="sans-serif" font-size="13" lengthAdjust="spacing" textLength="91.6221" x="4179.81" y="233.1438">eingebettet in</text></g><!--link UNH_S010 to UNH_S010_proc_3--><g class="link" data-entity-1="UNH_S010" data-entity-2="UNH_S010_proc_3" data-source-line="107" data-uid="lnk26" id="link_UNH_S010_UNH_S010_proc_3"><path codeLine="107" d="M2999.35,123.2769 C3474.84,137.6869 4753.52,183.2969 5167.81,267.0769 C5192.13,271.9969 5211.7817,277.249 5236.0617,285.109" fill="none" id="UNH_S010-to-UNH_S010_proc_3" style="stroke:#181818;stroke-width:1;stroke-dasharray:7,7;"/><polygon fill="#181818" points="5241.77,286.9569,5234.4394,280.3794,5237.013,285.4169,5231.9755,287.9906,5241.77,286.9569" style="stroke:#181818;stroke-width:1;"/><text fill="#000000" font-family="sans-serif" font-size="13" lengthAdjust="spacing" textLength="91.6221" x="4932.81" y="233.1438">eingebettet in</text></g><!--link UNH_S010 to UNH_S010_proc_4--><g class="link" data-entity-1="UNH_S010" data-entity-2="UNH_S010_proc_4" data-source-line="112" data-uid="lnk28" id="link_UNH_S010_UNH_S010_proc_4"><path codeLine="112" d="M2999.39,124.0769 C3377.1,136.9269 4278.11,170.3669 5032.81,220.0769 C5276.74,236.1469 5339.04,230.9869 5580.81,267.0769 C5630.08,274.4269 5677.0816,283.3873 5725.9716,293.7973" fill="none" id="UNH_S010-to-UNH_S010_proc_4" style="stroke:#181818;stroke-width:1;stroke-dasharray:7,7;"/><polygon fill="#181818" points="5731.84,295.0469,5723.8704,289.2603,5726.9496,294.0056,5722.2043,297.0848,5731.84,295.0469" style="stroke:#181818;stroke-width:1;"/><text fill="#000000" font-family="sans-serif" font-size="13" lengthAdjust="spacing" textLength="91.6221" x="5317.81" y="233.1438">eingebettet in</text></g><!--SRC=[jPRVRzem4CVV-rVSunveb0HAIrGnqHzhsKhAW7PINoAJ7Ar5ubIEAHtJ_fD9Uzb_qdzivmHAIoW9q_eGoV7PlllSsLzRSHKYd325WgcG9R0BL-wvqpSjSyUd_qJ_UleNVkm0k2n21yumGYuIQaCFHoXHpCGaYb3IYAwCPvWaw50RQ3KN5HdLR29k4pQKwDy9QiwD7HgPA0n354DKakCmFwObHh4CK58FJ4G0Jx-6A2EkLAXx7cAHhZ95IGZpANt5eYZGJ4z_H3Prv-SAZXSbjvurX_Bl9FVlb0F7bvsJTXyimqI3B5zYeV2H-e-G9_SSGqtL7OLwy0Z3m87FZ7gEum0J1ynw1Qn61MoxGcxqT_uo8M-dukj4fs3XtUkqpppBCz7pRDEkcNMhOTm78o9uBiNkRdCLn847b5CaN0LSh8Eryx3ke7S1jc4ENx8-Zu3-Tw7O8oKKqiptKJvm7odzgPKdQhw4iIahL-uhGZq-9RGzS-YnoTDlbBg-Gkdvc27ls_L2PBi4SdKLkUtsUzq1rTTYBv7FkPXIXPtD75jMC_CrhwR5D9bbcQPLI5OjGLRBarrVje-fc0V1zcHbzsgbyCGkuNKuMQ4f9EyJteKenx6KE5OJgPEnPrhLucJKIYHZRqCoZFUfyxzbmgDCb3_KUoNGwwledJwTiJwXr_mov2u9-PAzVf3V2Llgxm8xYsEENVCrTTKYyaBgUWdg_LNgRgitQBkfRcylsnR9jbc1-lvwsLvtcomvCyzBpTRLBNNAzqjm7kGuU-tZra1BTl3k-fNvMcXrK7xV7fGWQwoIzKuxhPDh8cluhoj8puen1VP_sJ9lStbgRB4x6mLizpBswJO-FDGD2gRPp43V2kWC4pAbkqp6aNjwNPctRgx9UZEXHrQ4OaG-T0xW6qSOJSHOyLXmEd8GKCVwnM4svGdTg2ArQub2JYStFSCNN3_Rc50VNy8QHZC7uW09n2tT-KgzpMldU8l4yHcxampFre4U8SMUHWpqDbYKbjeIMal4XVgik0hfB2Yoep0syzdb-AevlYr5iH1NrtNCXD3HG8V9iRfdKWcY_J0pZWeegkKeQZcAzSgsDhWfbu5sWkic0Ki3fsZJqCDupFG6hT0iXEBuQxdu_m80]--></g></svg>