<svg xmlns="http://www.w3.org/2000/svg" xmlns:xlink="http://www.w3.org/1999/xlink" contentStyleType="text/css" data-diagram-type="CLASS" height="370px" preserveAspectRatio="none" style="width:1097px;height:370px;background:#FFFFFF;" version="1.1" viewBox="0 0 1097 370" width="1097px" zoomAndPan="magnify"><title>Datenatlas - UNH:0020</title><defs/><g><g class="title" data-source-line="1"><text fill="#000000" font-family="sans-serif" font-size="14" font-weight="bold" lengthAdjust="spacing" textLength="180.8652" x="451.2606" y="22.9951">Datenatlas - UNH:0020</text></g><!--class UNH_0020--><g class="entity" data-entity="UNH_0020" data-source-line="2" data-uid="ent0002" id="entity_UNH_0020"><rect fill="#F1F1F1" height="96.8906" rx="2.5" ry="2.5" style="stroke:#181818;stroke-width:0.5;" width="224.5635" x="321.79" y="44.2969"/><ellipse cx="392.8838" cy="60.2969" fill="#ADD1B2" rx="11" ry="11" style="stroke:#181818;stroke-width:1;"/><path d="M395.8525,65.9375 Q395.2744,66.2344 394.6338,66.375 Q393.9931,66.5313 393.29,66.5313 Q390.79,66.5313 389.4619,64.8906 Q388.1494,63.2344 388.1494,60.1094 Q388.1494,56.9844 389.4619,55.3281 Q390.79,53.6719 393.29,53.6719 Q393.9931,53.6719 394.6338,53.8281 Q395.29,53.9844 395.8525,54.2813 L395.8525,57 Q395.2275,56.4219 394.6338,56.1563 Q394.04,55.875 393.415,55.875 Q392.0713,55.875 391.3838,56.9531 Q390.6963,58.0156 390.6963,60.1094 Q390.6963,62.2031 391.3838,63.2813 Q392.0713,64.3438 393.415,64.3438 Q394.04,64.3438 394.6338,64.0781 Q395.2275,63.7969 395.8525,63.2188 L395.8525,65.9375 Z " fill="#000000"/><text fill="#000000" font-family="sans-serif" font-size="14" lengthAdjust="spacing" textLength="73.876" x="413.3838" y="65.1436">UNH_0020</text><line style="stroke:#181818;stroke-width:0.5;" x1="322.79" x2="545.3535" y1="76.2969" y2="76.2969"/><text fill="#000000" font-family="sans-serif" font-size="14" lengthAdjust="spacing" textLength="198.5635" x="341.79" y="93.292">Name: Kontrollvereinbarung</text><text fill="#000000" font-family="sans-serif" font-size="14" lengthAdjust="spacing" textLength="66.6436" x="341.79" y="109.5889">Prozesse:</text><rect fill="none" height="6" style="stroke:#C82930;stroke-width:1;" width="6" x="329.79" y="119.5391"/><text fill="#000000" font-family="sans-serif" font-size="14" lengthAdjust="spacing" textLength="180.3457" x="341.79" y="125.8857">Netznutzungsabrechnung</text><line style="stroke:#181818;stroke-width:0.5;" x1="322.79" x2="545.3535" y1="133.1875" y2="133.1875"/></g><!--class UNH_0020_msg_1--><g class="entity" data-entity="UNH_0020_msg_1" data-source-line="7" data-uid="ent0003" id="entity_UNH_0020_msg_1"><rect fill="#F1F1F1" height="145.7813" rx="2.5" ry="2.5" style="stroke:#181818;stroke-width:0.5;" width="296.1357" x="7" y="218.1869"/><ellipse cx="87.5171" cy="234.1869" fill="#ADD1B2" rx="11" ry="11" style="stroke:#181818;stroke-width:1;"/><path d="M90.4858,239.8275 Q89.9077,240.1244 89.2671,240.265 Q88.6265,240.4213 87.9233,240.4213 Q85.4233,240.4213 84.0952,238.7806 Q82.7827,237.1244 82.7827,233.9994 Q82.7827,230.8744 84.0952,229.2181 Q85.4233,227.5619 87.9233,227.5619 Q88.6265,227.5619 89.2671,227.7181 Q89.9233,227.8744 90.4858,228.1713 L90.4858,230.89 Q89.8608,230.3119 89.2671,230.0463 Q88.6733,229.765 88.0483,229.765 Q86.7046,229.765 86.0171,230.8431 Q85.3296,231.9056 85.3296,233.9994 Q85.3296,236.0931 86.0171,237.1713 Q86.7046,238.2338 88.0483,238.2338 Q88.6733,238.2338 89.2671,237.9681 Q89.8608,237.6869 90.4858,237.1088 L90.4858,239.8275 Z " fill="#000000"/><text fill="#000000" font-family="sans-serif" font-size="14" lengthAdjust="spacing" textLength="126.6016" x="108.0171" y="239.0336">UNH_0020_msg_1</text><line style="stroke:#181818;stroke-width:0.5;" x1="8" x2="302.1357" y1="250.1869" y2="250.1869"/><text fill="#000000" font-family="sans-serif" font-size="14" lengthAdjust="spacing" textLength="161.998" x="13" y="267.182">Nachricht: INSRPT 1.1a</text><text fill="#000000" font-family="sans-serif" font-size="14" lengthAdjust="spacing" textLength="122.917" x="13" y="283.4789">Kontext: Hinweis:</text><text fill="#000000" font-family="sans-serif" font-size="14" lengthAdjust="spacing" textLength="91.4033" x="13" y="299.7757">Pflichtfeld: Ja</text><text fill="#000000" font-family="sans-serif" font-size="14" lengthAdjust="spacing" textLength="113.1689" x="13" y="316.0726">Codes: UN, UNH</text><text fill="#000000" font-family="sans-serif" font-size="14" lengthAdjust="spacing" textLength="251.4395" x="13" y="332.3695">Prozesse: Netznutzungsabrechnung</text><text fill="#000000" font-family="sans-serif" font-size="14" lengthAdjust="spacing" textLength="284.1357" x="13" y="348.6664">Quelle: INSRPT_MIG_1_1a_20211001.pdf</text><line style="stroke:#181818;stroke-width:0.5;" x1="8" x2="302.1357" y1="355.9681" y2="355.9681"/></g><!--class UNH_0020_proc_1--><g class="entity" data-entity="UNH_0020_proc_1" data-source-line="16" data-uid="ent0005" id="entity_UNH_0020_proc_1"><rect fill="#F1F1F1" height="105.1563" rx="2.5" ry="2.5" style="stroke:#181818;stroke-width:0.5;" width="752.6465" x="337.74" y="238.4969"/><ellipse cx="645.969" cy="258.6297" fill="#ADD1B2" rx="11" ry="11" style="stroke:#181818;stroke-width:1;"/><path d="M648.9378,264.2703 Q648.3596,264.5672 647.719,264.7078 Q647.0784,264.8641 646.3753,264.8641 Q643.8753,264.8641 642.5471,263.2234 Q641.2346,261.5672 641.2346,258.4422 Q641.2346,255.3172 642.5471,253.6609 Q643.8753,252.0047 646.3753,252.0047 Q647.0784,252.0047 647.719,252.1609 Q648.3753,252.3172 648.9378,252.6141 L648.9378,255.3328 Q648.3128,254.7547 647.719,254.4891 Q647.1253,254.2078 646.5003,254.2078 Q645.1565,254.2078 644.469,255.2859 Q643.7815,256.3484 643.7815,258.4422 Q643.7815,260.5359 644.469,261.6141 Q645.1565,262.6766 646.5003,262.6766 Q647.1253,262.6766 647.719,262.4109 Q648.3128,262.1297 648.9378,261.5516 L648.9378,264.2703 Z " fill="#000000"/><text fill="#000000" font-family="sans-serif" font-size="12" font-style="italic" lengthAdjust="spacing" textLength="61.0605" x="699.783" y="254.6355">&#171;process&#187;</text><text fill="#000000" font-family="sans-serif" font-size="14" lengthAdjust="spacing" textLength="127.6885" x="666.469" y="270.4607">UNH_0020_proc_1</text><line style="stroke:#181818;stroke-width:0.5;" x1="338.74" x2="1089.3865" y1="278.7625" y2="278.7625"/><text fill="#000000" font-family="sans-serif" font-size="14" lengthAdjust="spacing" textLength="180.3457" x="343.74" y="295.7576">Netznutzungsabrechnung</text><text fill="#000000" font-family="sans-serif" font-size="14" lengthAdjust="spacing" textLength="218.0938" x="343.74" y="312.0545">Gesetze: StromNEV, StromNZV</text><text fill="#000000" font-family="sans-serif" font-size="14" lengthAdjust="spacing" textLength="740.6465" x="343.74" y="328.3514">Zusammenfassung: Wie funktioniert die Netznutzungsabrechnung zwischen Netzbetreiber und Lieferant?</text><line style="stroke:#181818;stroke-width:0.5;" x1="338.74" x2="1089.3865" y1="335.6531" y2="335.6531"/></g><!--link UNH_0020 to UNH_0020_msg_1--><g class="link" data-entity-1="UNH_0020" data-entity-2="UNH_0020_msg_1" data-source-line="15" data-uid="lnk4" id="link_UNH_0020_UNH_0020_msg_1"><path codeLine="15" d="M366.17,141.5169 C333.59,164.4469 298.767,188.9542 262.597,214.4042" fill="none" id="UNH_0020-to-UNH_0020_msg_1" style="stroke:#181818;stroke-width:1;"/><polygon fill="#181818" points="257.69,217.8569,267.3523,215.9492,261.7792,214.9796,262.7487,209.4065,257.69,217.8569" style="stroke:#181818;stroke-width:1;"/><text fill="#000000" font-family="sans-serif" font-size="13" lengthAdjust="spacing" textLength="85.2363" x="321.07" y="184.2538">verwendet in</text></g><!--link UNH_0020 to UNH_0020_proc_1--><g class="link" data-entity-1="UNH_0020" data-entity-2="UNH_0020_proc_1" data-source-line="21" data-uid="lnk6" id="link_UNH_0020_UNH_0020_proc_1"><path codeLine="21" d="M502.21,141.5169 C543.97,170.8069 592.5274,204.8522 635.2974,234.8422" fill="none" id="UNH_0020-to-UNH_0020_proc_1" style="stroke:#181818;stroke-width:1;stroke-dasharray:7,7;"/><polygon fill="#181818" points="640.21,238.2869,635.1375,229.8447,636.1161,235.4163,630.5446,236.3949,640.21,238.2869" style="stroke:#181818;stroke-width:1;"/><text fill="#000000" font-family="sans-serif" font-size="13" lengthAdjust="spacing" textLength="91.6221" x="567.07" y="184.2538">eingebettet in</text></g><!--SRC=[TL7BJiCm4BptA_O3sYZkqQh20L1R7b6XKAHU8YVPD1REfh8TYeBuTzQbeAhGswvdF3kpwxKt25VA8oblb8CHFASp6SVZU51mxqARXHO-1W2fQb32RKlUjiQyeKLDkR8TRHXSsBP7vr1o3IoKek-fypsZJkKMYve2yVD4E6lS9XC7-QAskgYzX7cwV5myWOY4OY1Cn7T-dcdQeNPXnA8oWLgXAINS1DPbMwAJB3mCuiUEpda1UEZG6FoPbztFfvd8XCh6yLY8E1RHjgpOykyMHgFarBa4NiGEgKGFcaxJRMrRC6ao2GMRIPBlgESCJT4nn8wMlECclLuD3zLwnUYwSwffa2gUmNm9BngXwkZLwvOqMWybF_ml3lrEkw96skCvUhvUZXOwAk5EOuLMaRyu3Xj5oPyW4lZc6-JlVf_t2m00]--></g></svg>