<svg xmlns="http://www.w3.org/2000/svg" xmlns:xlink="http://www.w3.org/1999/xlink" contentStyleType="text/css" data-diagram-type="CLASS" height="370px" preserveAspectRatio="none" style="width:1231px;height:370px;background:#FFFFFF;" version="1.1" viewBox="0 0 1231 370" width="1231px" zoomAndPan="magnify"><title>Datenatlas - UNH:0001</title><defs/><g><g class="title" data-source-line="1"><text fill="#000000" font-family="sans-serif" font-size="14" font-weight="bold" lengthAdjust="spacing" textLength="180.8652" x="518.1956" y="22.9951">Datenatlas - UNH:0001</text></g><!--class UNH_0001--><g class="entity" data-entity="UNH_0001" data-source-line="2" data-uid="ent0002" id="entity_UNH_0001"><rect fill="#F1F1F1" height="96.8906" rx="2.5" ry="2.5" style="stroke:#181818;stroke-width:0.5;" width="206.3457" x="431.76" y="44.2969"/><ellipse cx="493.7449" cy="60.2969" fill="#ADD1B2" rx="11" ry="11" style="stroke:#181818;stroke-width:1;"/><path d="M496.7136,65.9375 Q496.1355,66.2344 495.4949,66.375 Q494.8542,66.5313 494.1511,66.5313 Q491.6511,66.5313 490.323,64.8906 Q489.0105,63.2344 489.0105,60.1094 Q489.0105,56.9844 490.323,55.3281 Q491.6511,53.6719 494.1511,53.6719 Q494.8542,53.6719 495.4949,53.8281 Q496.1511,53.9844 496.7136,54.2813 L496.7136,57 Q496.0886,56.4219 495.4949,56.1563 Q494.9011,55.875 494.2761,55.875 Q492.9324,55.875 492.2449,56.9531 Q491.5574,58.0156 491.5574,60.1094 Q491.5574,62.2031 492.2449,63.2813 Q492.9324,64.3438 494.2761,64.3438 Q494.9011,64.3438 495.4949,64.0781 Q496.0886,63.7969 496.7136,63.2188 L496.7136,65.9375 Z " fill="#000000"/><text fill="#000000" font-family="sans-serif" font-size="14" lengthAdjust="spacing" textLength="73.876" x="514.2449" y="65.1436">UNH_0001</text><line style="stroke:#181818;stroke-width:0.5;" x1="432.76" x2="637.1057" y1="76.2969" y2="76.2969"/><text fill="#000000" font-family="sans-serif" font-size="14" lengthAdjust="spacing" textLength="174.5693" x="451.76" y="93.292">Name: Segmentkennung</text><text fill="#000000" font-family="sans-serif" font-size="14" lengthAdjust="spacing" textLength="66.6436" x="451.76" y="109.5889">Prozesse:</text><rect fill="none" height="6" style="stroke:#C82930;stroke-width:1;" width="6" x="439.76" y="119.5391"/><text fill="#000000" font-family="sans-serif" font-size="14" lengthAdjust="spacing" textLength="180.3457" x="451.76" y="125.8857">Netznutzungsabrechnung</text><line style="stroke:#181818;stroke-width:0.5;" x1="432.76" x2="637.1057" y1="133.1875" y2="133.1875"/></g><!--class UNH_0001_msg_1--><g class="entity" data-entity="UNH_0001_msg_1" data-source-line="7" data-uid="ent0003" id="entity_UNH_0001_msg_1"><rect fill="#F1F1F1" height="145.7813" rx="2.5" ry="2.5" style="stroke:#181818;stroke-width:0.5;" width="429.8672" x="7" y="218.1869"/><ellipse cx="154.3828" cy="234.1869" fill="#ADD1B2" rx="11" ry="11" style="stroke:#181818;stroke-width:1;"/><path d="M157.3516,239.8275 Q156.7734,240.1244 156.1328,240.265 Q155.4922,240.4213 154.7891,240.4213 Q152.2891,240.4213 150.9609,238.7806 Q149.6484,237.1244 149.6484,233.9994 Q149.6484,230.8744 150.9609,229.2181 Q152.2891,227.5619 154.7891,227.5619 Q155.4922,227.5619 156.1328,227.7181 Q156.7891,227.8744 157.3516,228.1713 L157.3516,230.89 Q156.7266,230.3119 156.1328,230.0463 Q155.5391,229.765 154.9141,229.765 Q153.5703,229.765 152.8828,230.8431 Q152.1953,231.9056 152.1953,233.9994 Q152.1953,236.0931 152.8828,237.1713 Q153.5703,238.2338 154.9141,238.2338 Q155.5391,238.2338 156.1328,237.9681 Q156.7266,237.6869 157.3516,237.1088 L157.3516,239.8275 Z " fill="#000000"/><text fill="#000000" font-family="sans-serif" font-size="14" lengthAdjust="spacing" textLength="126.6016" x="174.8828" y="239.0336">UNH_0001_msg_1</text><line style="stroke:#181818;stroke-width:0.5;" x1="8" x2="435.8672" y1="250.1869" y2="250.1869"/><text fill="#000000" font-family="sans-serif" font-size="14" lengthAdjust="spacing" textLength="171.4932" x="13" y="267.182">Nachricht: REMADV 2.9c</text><text fill="#000000" font-family="sans-serif" font-size="14" lengthAdjust="spacing" textLength="123.0605" x="13" y="283.4789">Kontext: Beispiel:</text><text fill="#000000" font-family="sans-serif" font-size="14" lengthAdjust="spacing" textLength="91.4033" x="13" y="299.7757">Pflichtfeld: Ja</text><text fill="#000000" font-family="sans-serif" font-size="14" lengthAdjust="spacing" textLength="193.3135" x="13" y="316.0726">Codes: 07, 26, 34, UN, UNH</text><text fill="#000000" font-family="sans-serif" font-size="14" lengthAdjust="spacing" textLength="251.4395" x="13" y="332.3695">Prozesse: Netznutzungsabrechnung</text><text fill="#000000" font-family="sans-serif" font-size="14" lengthAdjust="spacing" textLength="417.8672" x="13" y="348.6664">Quelle: REMADV_MIG_2.9c_au&#223;erordentliche_20240726.pdf</text><line style="stroke:#181818;stroke-width:0.5;" x1="8" x2="435.8672" y1="355.9681" y2="355.9681"/></g><!--class UNH_0001_proc_1--><g class="entity" data-entity="UNH_0001_proc_1" data-source-line="16" data-uid="ent0005" id="entity_UNH_0001_proc_1"><rect fill="#F1F1F1" height="105.1563" rx="2.5" ry="2.5" style="stroke:#181818;stroke-width:0.5;" width="752.6465" x="471.61" y="238.4969"/><ellipse cx="779.839" cy="258.6297" fill="#ADD1B2" rx="11" ry="11" style="stroke:#181818;stroke-width:1;"/><path d="M782.8078,264.2703 Q782.2296,264.5672 781.589,264.7078 Q780.9484,264.8641 780.2453,264.8641 Q777.7453,264.8641 776.4171,263.2234 Q775.1046,261.5672 775.1046,258.4422 Q775.1046,255.3172 776.4171,253.6609 Q777.7453,252.0047 780.2453,252.0047 Q780.9484,252.0047 781.589,252.1609 Q782.2453,252.3172 782.8078,252.6141 L782.8078,255.3328 Q782.1828,254.7547 781.589,254.4891 Q780.9953,254.2078 780.3703,254.2078 Q779.0265,254.2078 778.339,255.2859 Q777.6515,256.3484 777.6515,258.4422 Q777.6515,260.5359 778.339,261.6141 Q779.0265,262.6766 780.3703,262.6766 Q780.9953,262.6766 781.589,262.4109 Q782.1828,262.1297 782.8078,261.5516 L782.8078,264.2703 Z " fill="#000000"/><text fill="#000000" font-family="sans-serif" font-size="12" font-style="italic" lengthAdjust="spacing" textLength="61.0605" x="833.653" y="254.6355">&#171;process&#187;</text><text fill="#000000" font-family="sans-serif" font-size="14" lengthAdjust="spacing" textLength="127.6885" x="800.339" y="270.4607">UNH_0001_proc_1</text><line style="stroke:#181818;stroke-width:0.5;" x1="472.61" x2="1223.2565" y1="278.7625" y2="278.7625"/><text fill="#000000" font-family="sans-serif" font-size="14" lengthAdjust="spacing" textLength="180.3457" x="477.61" y="295.7576">Netznutzungsabrechnung</text><text fill="#000000" font-family="sans-serif" font-size="14" lengthAdjust="spacing" textLength="218.0938" x="477.61" y="312.0545">Gesetze: StromNEV, StromNZV</text><text fill="#000000" font-family="sans-serif" font-size="14" lengthAdjust="spacing" textLength="740.6465" x="477.61" y="328.3514">Zusammenfassung: Wie funktioniert die Netznutzungsabrechnung zwischen Netzbetreiber und Lieferant?</text><line style="stroke:#181818;stroke-width:0.5;" x1="472.61" x2="1223.2565" y1="335.6531" y2="335.6531"/></g><!--link UNH_0001 to UNH_0001_msg_1--><g class="link" data-entity-1="UNH_0001" data-entity-2="UNH_0001_msg_1" data-source-line="15" data-uid="lnk4" id="link_UNH_0001_UNH_0001_msg_1"><path codeLine="15" d="M458.77,141.5169 C422.21,164.4469 382.7231,189.219 342.1431,214.669" fill="none" id="UNH_0001-to-UNH_0001_msg_1" style="stroke:#181818;stroke-width:1;"/><polygon fill="#181818" points="337.06,217.8569,346.8098,216.4638,341.2959,215.2003,342.5593,209.6864,337.06,217.8569" style="stroke:#181818;stroke-width:1;"/><text fill="#000000" font-family="sans-serif" font-size="13" lengthAdjust="spacing" textLength="85.2363" x="407.93" y="184.2538">verwendet in</text></g><!--link UNH_0001 to UNH_0001_proc_1--><g class="link" data-entity-1="UNH_0001" data-entity-2="UNH_0001_proc_1" data-source-line="21" data-uid="lnk6" id="link_UNH_0001_UNH_0001_proc_1"><path codeLine="21" d="M611.1,141.5169 C657.7,170.7469 712.2475,204.9582 760.0175,234.9282" fill="none" id="UNH_0001-to-UNH_0001_proc_1" style="stroke:#181818;stroke-width:1;stroke-dasharray:7,7;"/><polygon fill="#181818" points="765.1,238.1169,759.602,229.9455,760.8645,235.4596,755.3504,236.7222,765.1,238.1169" style="stroke:#181818;stroke-width:1;"/><text fill="#000000" font-family="sans-serif" font-size="13" lengthAdjust="spacing" textLength="91.6221" x="683.93" y="184.2538">eingebettet in</text></g><!--SRC=[TL5TJi9047xd57C0Q6eb43S4eqB07nhKY0alpT9EouPsItQdOceyYuVnOiwY68Boq6HclkdtCqkASeI19DIISccX1K_XMFY-VzA8kRUkZLmBRms0K1Oeu16p0ZMjKEjAPpoUch96Qr5m3KmH8jMweffHAnS6u-LsyVs0CYfi5ks8uwLHyP84F0md5uCP1DvPpC1jgGbVUNo9oguLvavZckPkDyKy4N0ZUN9L9cW5-Dqc19qcdBQRhEA-yRwzOyO0xYlCSzo9HvFhKUGCHBBw_41JceJpEasC0Zze-zsWuwsJb1FzdgVLwXy64_22PeCwGGAb3yElJHdpKg_d2hRNxtzVufZ54Lg6tFd9b4Kud3L_glcCqNbbPS6lah86xmjuLWXffLUaIgtG42Gy-9ySwesod4rlyGMIGRL00vLEu4vXYaPgEjyFwtdzFq44eD8Pyk-qpVi5]--></g></svg>