<svg xmlns="http://www.w3.org/2000/svg" xmlns:xlink="http://www.w3.org/1999/xlink" contentStyleType="text/css" data-diagram-type="CLASS" height="387px" preserveAspectRatio="none" style="width:2998px;height:387px;background:#FFFFFF;" version="1.1" viewBox="0 0 2998 387" width="2998px" zoomAndPan="magnify"><title>Datenatlas - UNKNOWN:S_0093</title><defs/><g><g class="title" data-source-line="1"><text fill="#000000" font-family="sans-serif" font-size="14" font-weight="bold" lengthAdjust="spacing" textLength="247.8574" x="1368.1109" y="22.9951">Datenatlas - UNKNOWN:S_0093</text></g><!--class UNKNOWN_S_0093--><g class="entity" data-entity="UNKNOWN_S_0093" data-source-line="2" data-uid="ent0002" id="entity_UNKNOWN_S_0093"><rect fill="#F1F1F1" height="113.1875" rx="2.5" ry="2.5" style="stroke:#181818;stroke-width:0.5;" width="374.2021" x="1263.98" y="44.2969"/><ellipse cx="1379.7193" cy="60.2969" fill="#ADD1B2" rx="11" ry="11" style="stroke:#181818;stroke-width:1;"/><path d="M1382.688,65.9375 Q1382.1099,66.2344 1381.4693,66.375 Q1380.8286,66.5313 1380.1255,66.5313 Q1377.6255,66.5313 1376.2974,64.8906 Q1374.9849,63.2344 1374.9849,60.1094 Q1374.9849,56.9844 1376.2974,55.3281 Q1377.6255,53.6719 1380.1255,53.6719 Q1380.8286,53.6719 1381.4693,53.8281 Q1382.1255,53.9844 1382.688,54.2813 L1382.688,57 Q1382.063,56.4219 1381.4693,56.1563 Q1380.8755,55.875 1380.2505,55.875 Q1378.9068,55.875 1378.2193,56.9531 Q1377.5318,58.0156 1377.5318,60.1094 Q1377.5318,62.2031 1378.2193,63.2813 Q1378.9068,64.3438 1380.2505,64.3438 Q1380.8755,64.3438 1381.4693,64.0781 Q1382.063,63.7969 1382.688,63.2188 L1382.688,65.9375 Z " fill="#000000"/><text fill="#000000" font-family="sans-serif" font-size="14" lengthAdjust="spacing" textLength="134.2236" x="1400.2193" y="65.1436">UNKNOWN_S_0093</text><line style="stroke:#181818;stroke-width:0.5;" x1="1264.98" x2="1637.1821" y1="76.2969" y2="76.2969"/><text fill="#000000" font-family="sans-serif" font-size="14" lengthAdjust="spacing" textLength="243.3662" x="1283.98" y="93.292">Name: Codeliste Strom Nr. S_0093</text><text fill="#000000" font-family="sans-serif" font-size="14" lengthAdjust="spacing" textLength="66.6436" x="1283.98" y="109.5889">Prozesse:</text><rect fill="none" height="6" style="stroke:#C82930;stroke-width:1;" width="6" x="1271.98" y="119.5391"/><text fill="#000000" font-family="sans-serif" font-size="14" lengthAdjust="spacing" textLength="317.9668" x="1283.98" y="125.8857">Sperrung und Entsperrung eines Anschlusses</text><line style="stroke:#181818;stroke-width:0.5;" x1="1264.98" x2="1637.1821" y1="133.1875" y2="133.1875"/><rect fill="#F24D5C" height="6" style="stroke:#C82930;stroke-width:1;" width="6" x="1271.98" y="143.8359"/><text fill="#000000" font-family="sans-serif" font-size="14" lengthAdjust="spacing" textLength="348.2021" x="1283.98" y="150.1826">Bestellung einer technischen Konfiguration (MSB)</text></g><!--class UNKNOWN_S_0093_msg_1--><g class="entity" data-entity="UNKNOWN_S_0093_msg_1" data-source-line="8" data-uid="ent0003" id="entity_UNKNOWN_S_0093_msg_1"><rect fill="#F1F1F1" height="145.7813" rx="2.5" ry="2.5" style="stroke:#181818;stroke-width:0.5;" width="758.1631" x="7" y="234.4869"/><ellipse cx="288.3569" cy="250.4869" fill="#ADD1B2" rx="11" ry="11" style="stroke:#181818;stroke-width:1;"/><path d="M291.3257,256.1275 Q290.7476,256.4244 290.1069,256.565 Q289.4663,256.7213 288.7632,256.7213 Q286.2632,256.7213 284.9351,255.0806 Q283.6226,253.4244 283.6226,250.2994 Q283.6226,247.1744 284.9351,245.5181 Q286.2632,243.8619 288.7632,243.8619 Q289.4663,243.8619 290.1069,244.0181 Q290.7632,244.1744 291.3257,244.4713 L291.3257,247.19 Q290.7007,246.6119 290.1069,246.3463 Q289.5132,246.065 288.8882,246.065 Q287.5444,246.065 286.8569,247.1431 Q286.1694,248.2056 286.1694,250.2994 Q286.1694,252.3931 286.8569,253.4713 Q287.5444,254.5338 288.8882,254.5338 Q289.5132,254.5338 290.1069,254.2681 Q290.7007,253.9869 291.3257,253.4088 L291.3257,256.1275 Z " fill="#000000"/><text fill="#000000" font-family="sans-serif" font-size="14" lengthAdjust="spacing" textLength="186.9492" x="308.8569" y="255.3336">UNKNOWN_S_0093_msg_1</text><line style="stroke:#181818;stroke-width:0.5;" x1="8" x2="764.1631" y1="266.4869" y2="266.4869"/><text fill="#000000" font-family="sans-serif" font-size="14" lengthAdjust="spacing" textLength="161.793" x="13" y="283.482">Nachricht: ORDRSP 1.4</text><text fill="#000000" font-family="sans-serif" font-size="14" lengthAdjust="spacing" textLength="170.3447" x="13" y="299.7789">Kontext: Segmentlayout</text><text fill="#000000" font-family="sans-serif" font-size="14" lengthAdjust="spacing" textLength="110.5439" x="13" y="316.0757">Pflichtfeld: Nein</text><text fill="#000000" font-family="sans-serif" font-size="14" lengthAdjust="spacing" textLength="82.8242" x="13" y="332.3726">Codes: OCR</text><text fill="#000000" font-family="sans-serif" font-size="14" lengthAdjust="spacing" textLength="283.9307" x="13" y="348.6695">Quelle: ORDRSP_MIG_1_4_20240619.pdf</text><line style="stroke:#181818;stroke-width:0.5;" x1="8" x2="764.1631" y1="355.9713" y2="355.9713"/><text fill="#000000" font-family="sans-serif" font-size="14" lengthAdjust="spacing" textLength="746.1631" x="13" y="372.9664">Prozesse: Bestellung einer technischen Konfiguration (MSB), Sperrung und Entsperrung eines Anschlusses</text></g><!--class UNKNOWN_S_0093_proc_1--><g class="entity" data-entity="UNKNOWN_S_0093_proc_1" data-source-line="17" data-uid="ent0005" id="entity_UNKNOWN_S_0093_proc_1"><rect fill="#F1F1F1" height="105.1563" rx="2.5" ry="2.5" style="stroke:#181818;stroke-width:0.5;" width="1301.9961" x="800.08" y="254.7969"/><ellipse cx="1352.81" cy="274.9297" fill="#ADD1B2" rx="11" ry="11" style="stroke:#181818;stroke-width:1;"/><path d="M1355.7787,280.5703 Q1355.2006,280.8672 1354.56,281.0078 Q1353.9194,281.1641 1353.2162,281.1641 Q1350.7162,281.1641 1349.3881,279.5234 Q1348.0756,277.8672 1348.0756,274.7422 Q1348.0756,271.6172 1349.3881,269.9609 Q1350.7162,268.3047 1353.2162,268.3047 Q1353.9194,268.3047 1354.56,268.4609 Q1355.2162,268.6172 1355.7787,268.9141 L1355.7787,271.6328 Q1355.1537,271.0547 1354.56,270.7891 Q1353.9662,270.5078 1353.3412,270.5078 Q1351.9975,270.5078 1351.31,271.5859 Q1350.6225,272.6484 1350.6225,274.7422 Q1350.6225,276.8359 1351.31,277.9141 Q1351.9975,278.9766 1353.3412,278.9766 Q1353.9662,278.9766 1354.56,278.7109 Q1355.1537,278.4297 1355.7787,277.8516 L1355.7787,280.5703 Z " fill="#000000"/><text fill="#000000" font-family="sans-serif" font-size="12" font-style="italic" lengthAdjust="spacing" textLength="61.0605" x="1436.7978" y="270.9355">&#171;process&#187;</text><text fill="#000000" font-family="sans-serif" font-size="14" lengthAdjust="spacing" textLength="188.0361" x="1373.31" y="286.7607">UNKNOWN_S_0093_proc_1</text><line style="stroke:#181818;stroke-width:0.5;" x1="801.08" x2="2101.0761" y1="295.0625" y2="295.0625"/><text fill="#000000" font-family="sans-serif" font-size="14" lengthAdjust="spacing" textLength="156.4063" x="806.08" y="312.0576">Gesetze: MsbG, EnWG</text><text fill="#000000" font-family="sans-serif" font-size="14" lengthAdjust="spacing" textLength="1289.9961" x="806.08" y="328.3545">Zusammenfassung: Erl&#228;utere den Prozess zur Bestellung einer spezifischen technischen Konfiguration bei einem Messstellenbetreiber, beispielsweise f&#252;r ein intelligentes Messsystem.</text><line style="stroke:#181818;stroke-width:0.5;" x1="801.08" x2="2101.0761" y1="335.6563" y2="335.6563"/><text fill="#000000" font-family="sans-serif" font-size="14" lengthAdjust="spacing" textLength="348.2021" x="806.08" y="352.6514">Bestellung einer technischen Konfiguration (MSB)</text></g><!--class UNKNOWN_S_0093_proc_2--><g class="entity" data-entity="UNKNOWN_S_0093_proc_2" data-source-line="23" data-uid="ent0007" id="entity_UNKNOWN_S_0093_proc_2"><rect fill="#F1F1F1" height="105.1563" rx="2.5" ry="2.5" style="stroke:#181818;stroke-width:0.5;" width="853.9893" x="2137.09" y="254.7969"/><ellipse cx="2465.8166" cy="274.9297" fill="#ADD1B2" rx="11" ry="11" style="stroke:#181818;stroke-width:1;"/><path d="M2468.7853,280.5703 Q2468.2072,280.8672 2467.5666,281.0078 Q2466.9259,281.1641 2466.2228,281.1641 Q2463.7228,281.1641 2462.3947,279.5234 Q2461.0822,277.8672 2461.0822,274.7422 Q2461.0822,271.6172 2462.3947,269.9609 Q2463.7228,268.3047 2466.2228,268.3047 Q2466.9259,268.3047 2467.5666,268.4609 Q2468.2228,268.6172 2468.7853,268.9141 L2468.7853,271.6328 Q2468.1603,271.0547 2467.5666,270.7891 Q2466.9728,270.5078 2466.3478,270.5078 Q2465.0041,270.5078 2464.3166,271.5859 Q2463.6291,272.6484 2463.6291,274.7422 Q2463.6291,276.8359 2464.3166,277.9141 Q2465.0041,278.9766 2466.3478,278.9766 Q2466.9728,278.9766 2467.5666,278.7109 Q2468.1603,278.4297 2468.7853,277.8516 L2468.7853,280.5703 Z " fill="#000000"/><text fill="#000000" font-family="sans-serif" font-size="12" font-style="italic" lengthAdjust="spacing" textLength="61.0605" x="2549.8044" y="270.9355">&#171;process&#187;</text><text fill="#000000" font-family="sans-serif" font-size="14" lengthAdjust="spacing" textLength="188.0361" x="2486.3166" y="286.7607">UNKNOWN_S_0093_proc_2</text><line style="stroke:#181818;stroke-width:0.5;" x1="2138.09" x2="2990.0793" y1="295.0625" y2="295.0625"/><text fill="#000000" font-family="sans-serif" font-size="14" lengthAdjust="spacing" textLength="317.9668" x="2143.09" y="312.0576">Sperrung und Entsperrung eines Anschlusses</text><text fill="#000000" font-family="sans-serif" font-size="14" lengthAdjust="spacing" textLength="138.3252" x="2143.09" y="328.3545">Gesetze: StromGVV</text><text fill="#000000" font-family="sans-serif" font-size="14" lengthAdjust="spacing" textLength="841.9893" x="2143.09" y="344.6514">Zusammenfassung: Beschreibe den End-to-End-Prozess f&#252;r die Sperrung und Wiederherstellung eines Netzanschlusses.</text><line style="stroke:#181818;stroke-width:0.5;" x1="2138.09" x2="2990.0793" y1="351.9531" y2="351.9531"/></g><!--link UNKNOWN_S_0093 to UNKNOWN_S_0093_msg_1--><g class="link" data-entity-1="UNKNOWN_S_0093" data-entity-2="UNKNOWN_S_0093_msg_1" data-source-line="16" data-uid="lnk4" id="link_UNKNOWN_S_0093_UNKNOWN_S_0093_msg_1"><path codeLine="16" d="M1263.74,137.8569 C1125.5,164.4069 938.6024,200.2855 768.9224,232.8655" fill="none" id="UNKNOWN_S_0093-to-UNKNOWN_S_0093_msg_1" style="stroke:#181818;stroke-width:1;"/><polygon fill="#181818" points="763.03,233.9969,772.6228,236.228,767.9403,233.0541,771.1143,228.3716,763.03,233.9969" style="stroke:#181818;stroke-width:1;"/><text fill="#000000" font-family="sans-serif" font-size="13" lengthAdjust="spacing" textLength="85.2363" x="984.08" y="200.5538">verwendet in</text></g><!--link UNKNOWN_S_0093 to UNKNOWN_S_0093_proc_1--><g class="link" data-entity-1="UNKNOWN_S_0093" data-entity-2="UNKNOWN_S_0093_proc_1" data-source-line="22" data-uid="lnk6" id="link_UNKNOWN_S_0093_UNKNOWN_S_0093_proc_1"><path codeLine="22" d="M1451.08,157.7669 C1451.08,187.9169 1451.08,218.9069 1451.08,248.4269" fill="none" id="UNKNOWN_S_0093-to-UNKNOWN_S_0093_proc_1" style="stroke:#181818;stroke-width:1;stroke-dasharray:7,7;"/><polygon fill="#181818" points="1451.08,254.4269,1455.08,245.4269,1451.08,249.4269,1447.08,245.4269,1451.08,254.4269" style="stroke:#181818;stroke-width:1;"/><text fill="#000000" font-family="sans-serif" font-size="13" lengthAdjust="spacing" textLength="91.6221" x="1452.08" y="200.5538">eingebettet in</text></g><!--link UNKNOWN_S_0093 to UNKNOWN_S_0093_proc_2--><g class="link" data-entity-1="UNKNOWN_S_0093" data-entity-2="UNKNOWN_S_0093_proc_2" data-source-line="28" data-uid="lnk8" id="link_UNKNOWN_S_0093_UNKNOWN_S_0093_proc_2"><path codeLine="28" d="M1638.63,136.3469 C1814.34,168.6269 2073.4687,216.2428 2274.9387,253.2528" fill="none" id="UNKNOWN_S_0093-to-UNKNOWN_S_0093_proc_2" style="stroke:#181818;stroke-width:1;stroke-dasharray:7,7;"/><polygon fill="#181818" points="2280.84,254.3369,2272.7108,248.7766,2275.9223,253.4335,2271.2654,256.645,2280.84,254.3369" style="stroke:#181818;stroke-width:1;"/><text fill="#000000" font-family="sans-serif" font-size="13" lengthAdjust="spacing" textLength="91.6221" x="2009.08" y="200.5538">eingebettet in</text></g><!--SRC=[dPF1Qjj048RlVeevjc09spM5Y61e4YDAi99QD8PUXAmTIGkhbTcTRHgLlaqV8xUyM6TLkMrgX-AUj1hD_3F_DokIf12kSaATayej1F0nkKvkDacKPfF9sPjHmL6x3sO_W_1r193a3KPmsGfKqX92IgPj834X39K0jwRjq5gC-0miVO6Sg9JJ5Q3KQ82mgBMqHOqQhbjToigPd6IhuTKglNWzbAKxDCONEIrWgSdktxs8XNUQ1PJZFdRqxUYyMMEhR3fCNTH65ZL5SBE-MgUtC0td7EVkX5yuccBLe6OM3wqZxw5KFhr49I98k2F7l6dB0fVhFqsUR6zyYZE03ux5SJztjdeVPzDidiqci_daxVGit8cI_V-rgI1O78SHmMSqzwW54h2fezXsfYquzVpS7zZZOj4p_8yrncYHEXv-PRVncArkOev-SZPlc7R9lLajWgLHJzyTeK4Gh3MWXSwPmwRCgfFbqFNb2ROe-u86LYpLQw3U8XcKMpHZ_ztk92fxpmU4ykdH-7ncubDbnNU1Dz7NFd1r4nuo3iF52-GYBrKXjwD_OPuTO3xfSlm2tF-6yTtTCRpCa6-_DzxZNMeHK1lunvvqRrz8VDvy8r6WgT4yMu7btu6w_FSO9w2P7Q3v0G00]--></g></svg>