<svg xmlns="http://www.w3.org/2000/svg" xmlns:xlink="http://www.w3.org/1999/xlink" contentStyleType="text/css" data-diagram-type="CLASS" height="370px" preserveAspectRatio="none" style="width:1782px;height:370px;background:#FFFFFF;" version="1.1" viewBox="0 0 1782 370" width="1782px" zoomAndPan="magnify"><title>Datenatlas - UNS:00038</title><defs/><g><g class="title" data-source-line="1"><text fill="#000000" font-family="sans-serif" font-size="14" font-weight="bold" lengthAdjust="spacing" textLength="188.9727" x="789.8367" y="22.9951">Datenatlas - UNS:00038</text></g><!--class UNS_00038--><g class="entity" data-entity="UNS_00038" data-source-line="2" data-uid="ent0002" id="entity_UNS_00038"><rect fill="#F1F1F1" height="96.8906" rx="2.5" ry="2.5" style="stroke:#181818;stroke-width:0.5;" width="374.2021" x="486.55" y="44.2969"/><ellipse cx="628.8298" cy="60.2969" fill="#ADD1B2" rx="11" ry="11" style="stroke:#181818;stroke-width:1;"/><path d="M631.7985,65.9375 Q631.2204,66.2344 630.5798,66.375 Q629.9392,66.5313 629.236,66.5313 Q626.736,66.5313 625.4079,64.8906 Q624.0954,63.2344 624.0954,60.1094 Q624.0954,56.9844 625.4079,55.3281 Q626.736,53.6719 629.236,53.6719 Q629.9392,53.6719 630.5798,53.8281 Q631.236,53.9844 631.7985,54.2813 L631.7985,57 Q631.1735,56.4219 630.5798,56.1563 Q629.986,55.875 629.361,55.875 Q628.0173,55.875 627.3298,56.9531 Q626.6423,58.0156 626.6423,60.1094 Q626.6423,62.2031 627.3298,63.2813 Q628.0173,64.3438 629.361,64.3438 Q629.986,64.3438 630.5798,64.0781 Q631.1735,63.7969 631.7985,63.2188 L631.7985,65.9375 Z " fill="#000000"/><text fill="#000000" font-family="sans-serif" font-size="14" lengthAdjust="spacing" textLength="81.1426" x="649.3298" y="65.1436">UNS_00038</text><line style="stroke:#181818;stroke-width:0.5;" x1="487.55" x2="859.7521" y1="76.2969" y2="76.2969"/><text fill="#000000" font-family="sans-serif" font-size="14" lengthAdjust="spacing" textLength="253.4014" x="492.55" y="93.292">Name: Abschnitts - Kontrollsegment</text><text fill="#000000" font-family="sans-serif" font-size="14" lengthAdjust="spacing" textLength="66.6436" x="492.55" y="109.5889">Prozesse:</text><line style="stroke:#181818;stroke-width:0.5;" x1="487.55" x2="859.7521" y1="116.8906" y2="116.8906"/><rect fill="#F24D5C" height="6" style="stroke:#C82930;stroke-width:1;" width="6" x="494.55" y="127.5391"/><text fill="#000000" font-family="sans-serif" font-size="14" lengthAdjust="spacing" textLength="348.2021" x="506.55" y="133.8857">Bestellung einer technischen Konfiguration (MSB)</text></g><!--class UNS_00038_msg_1--><g class="entity" data-entity="UNS_00038_msg_1" data-source-line="7" data-uid="ent0003" id="entity_UNS_00038_msg_1"><rect fill="#F1F1F1" height="145.7813" rx="2.5" ry="2.5" style="stroke:#181818;stroke-width:0.5;" width="431.2959" x="7" y="218.1869"/><ellipse cx="151.4639" cy="234.1869" fill="#ADD1B2" rx="11" ry="11" style="stroke:#181818;stroke-width:1;"/><path d="M154.4326,239.8275 Q153.8545,240.1244 153.2139,240.265 Q152.5732,240.4213 151.8701,240.4213 Q149.3701,240.4213 148.042,238.7806 Q146.7295,237.1244 146.7295,233.9994 Q146.7295,230.8744 148.042,229.2181 Q149.3701,227.5619 151.8701,227.5619 Q152.5732,227.5619 153.2139,227.7181 Q153.8701,227.8744 154.4326,228.1713 L154.4326,230.89 Q153.8076,230.3119 153.2139,230.0463 Q152.6201,229.765 151.9951,229.765 Q150.6514,229.765 149.9639,230.8431 Q149.2764,231.9056 149.2764,233.9994 Q149.2764,236.0931 149.9639,237.1713 Q150.6514,238.2338 151.9951,238.2338 Q152.6201,238.2338 153.2139,237.9681 Q153.8076,237.6869 154.4326,237.1088 L154.4326,239.8275 Z " fill="#000000"/><text fill="#000000" font-family="sans-serif" font-size="14" lengthAdjust="spacing" textLength="133.8682" x="171.9639" y="239.0336">UNS_00038_msg_1</text><line style="stroke:#181818;stroke-width:0.5;" x1="8" x2="437.2959" y1="250.1869" y2="250.1869"/><text fill="#000000" font-family="sans-serif" font-size="14" lengthAdjust="spacing" textLength="170.1055" x="13" y="267.182">Nachricht: REQOTE 1.3b</text><text fill="#000000" font-family="sans-serif" font-size="14" lengthAdjust="spacing" textLength="204.1143" x="13" y="283.4789">Kontext: Nachrichtenstruktur</text><text fill="#000000" font-family="sans-serif" font-size="14" lengthAdjust="spacing" textLength="91.4033" x="13" y="299.7757">Pflichtfeld: Ja</text><text fill="#000000" font-family="sans-serif" font-size="14" lengthAdjust="spacing" textLength="81.9082" x="13" y="316.0726">Codes: UNS</text><text fill="#000000" font-family="sans-serif" font-size="14" lengthAdjust="spacing" textLength="292.2432" x="13" y="332.3695">Quelle: REQOTE_MIG_1_3b_20241001.pdf</text><line style="stroke:#181818;stroke-width:0.5;" x1="8" x2="437.2959" y1="339.6713" y2="339.6713"/><text fill="#000000" font-family="sans-serif" font-size="14" lengthAdjust="spacing" textLength="419.2959" x="13" y="356.6664">Prozesse: Bestellung einer technischen Konfiguration (MSB)</text></g><!--class UNS_00038_proc_1--><g class="entity" data-entity="UNS_00038_proc_1" data-source-line="16" data-uid="ent0005" id="entity_UNS_00038_proc_1"><rect fill="#F1F1F1" height="105.1563" rx="2.5" ry="2.5" style="stroke:#181818;stroke-width:0.5;" width="1301.9961" x="473.65" y="238.4969"/><ellipse cx="1052.9205" cy="258.6297" fill="#ADD1B2" rx="11" ry="11" style="stroke:#181818;stroke-width:1;"/><path d="M1055.8893,264.2703 Q1055.3111,264.5672 1054.6705,264.7078 Q1054.0299,264.8641 1053.3268,264.8641 Q1050.8268,264.8641 1049.4986,263.2234 Q1048.1861,261.5672 1048.1861,258.4422 Q1048.1861,255.3172 1049.4986,253.6609 Q1050.8268,252.0047 1053.3268,252.0047 Q1054.0299,252.0047 1054.6705,252.1609 Q1055.3268,252.3172 1055.8893,252.6141 L1055.8893,255.3328 Q1055.2643,254.7547 1054.6705,254.4891 Q1054.0768,254.2078 1053.4518,254.2078 Q1052.108,254.2078 1051.4205,255.2859 Q1050.733,256.3484 1050.733,258.4422 Q1050.733,260.5359 1051.4205,261.6141 Q1052.108,262.6766 1053.4518,262.6766 Q1054.0768,262.6766 1054.6705,262.4109 Q1055.2643,262.1297 1055.8893,261.5516 L1055.8893,264.2703 Z " fill="#000000"/><text fill="#000000" font-family="sans-serif" font-size="12" font-style="italic" lengthAdjust="spacing" textLength="61.0605" x="1110.3678" y="254.6355">&#171;process&#187;</text><text fill="#000000" font-family="sans-serif" font-size="14" lengthAdjust="spacing" textLength="134.9551" x="1073.4205" y="270.4607">UNS_00038_proc_1</text><line style="stroke:#181818;stroke-width:0.5;" x1="474.65" x2="1774.6461" y1="278.7625" y2="278.7625"/><text fill="#000000" font-family="sans-serif" font-size="14" lengthAdjust="spacing" textLength="156.4063" x="479.65" y="295.7576">Gesetze: MsbG, EnWG</text><text fill="#000000" font-family="sans-serif" font-size="14" lengthAdjust="spacing" textLength="1289.9961" x="479.65" y="312.0545">Zusammenfassung: Erl&#228;utere den Prozess zur Bestellung einer spezifischen technischen Konfiguration bei einem Messstellenbetreiber, beispielsweise f&#252;r ein intelligentes Messsystem.</text><line style="stroke:#181818;stroke-width:0.5;" x1="474.65" x2="1774.6461" y1="319.3563" y2="319.3563"/><text fill="#000000" font-family="sans-serif" font-size="14" lengthAdjust="spacing" textLength="348.2021" x="479.65" y="336.3514">Bestellung einer technischen Konfiguration (MSB)</text></g><!--link UNS_00038 to UNS_00038_msg_1--><g class="link" data-entity-1="UNS_00038" data-entity-2="UNS_00038_msg_1" data-source-line="15" data-uid="lnk4" id="link_UNS_00038_UNS_00038_msg_1"><path codeLine="15" d="M563.61,141.6469 C511.07,164.5169 452.5712,189.9816 394.2812,215.3616" fill="none" id="UNS_00038-to-UNS_00038_msg_1" style="stroke:#181818;stroke-width:1;"/><polygon fill="#181818" points="388.78,217.7569,398.6286,217.8314,393.3643,215.7608,395.4349,210.4966,388.78,217.7569" style="stroke:#181818;stroke-width:1;"/><text fill="#000000" font-family="sans-serif" font-size="13" lengthAdjust="spacing" textLength="85.2363" x="489.65" y="184.2538">verwendet in</text></g><!--link UNS_00038 to UNS_00038_proc_1--><g class="link" data-entity-1="UNS_00038" data-entity-2="UNS_00038_proc_1" data-source-line="21" data-uid="lnk6" id="link_UNS_00038_UNS_00038_proc_1"><path codeLine="21" d="M783.69,141.6469 C850.7,170.8169 930.8486,205.7122 999.5386,235.6122" fill="none" id="UNS_00038-to-UNS_00038_proc_1" style="stroke:#181818;stroke-width:1;stroke-dasharray:7,7;"/><polygon fill="#181818" points="1005.04,238.0069,998.3844,230.7472,1000.4555,236.0113,995.1914,238.0824,1005.04,238.0069" style="stroke:#181818;stroke-width:1;"/><text fill="#000000" font-family="sans-serif" font-size="13" lengthAdjust="spacing" textLength="91.6221" x="886.65" y="184.2538">eingebettet in</text></g><!--SRC=[dLBBRjD05DtdA-uIfCQo6nPeL4Lg8Oe0fL3QgX8RouzZPyHu7CszfZI8l-bdTDSVwnqtFACkO7VdpddDiSMA0xqk1BuGLp1DwVBqtAHfEdivgNJ1yPoFP_es8JejEXWwBhbQUoiI2UzwBw5tZj5syAAW3w7VWXb6PrB42LZWtE1RWlK898XqrO2FzCQsGoZ4zfwUhSvFda- -_-sTTzpcsIv1jGwsMekXZukpznSBof9PgHSn1xxg-YS2dYKCdsK8CLJZugw1gmszBNJpgg_19fhydldVqnAT3Kh0Zq3vwiqop_9PcH-cXo-oDCsIJTteetvLEPtEznvdw0l2DNmD8Ult6jY4lbBKqL4SDEbyFjRn7scNOCXMuwwuN1xGmbyjTVjfuABJ3zYehQePMWHtVpi80gXMhLr1j1t2lYbliBNDplNf12NiIEXefLAZ1dm92R0bma6yvus5usiTGCtzNOXuhID2RQk_5_YHUwFiBlcZr2IPx_Tbea0BDP6nrmS0]--></g></svg>