<svg xmlns="http://www.w3.org/2000/svg" xmlns:xlink="http://www.w3.org/1999/xlink" contentStyleType="text/css" data-diagram-type="CLASS" height="370px" preserveAspectRatio="none" style="width:1788px;height:370px;background:#FFFFFF;" version="1.1" viewBox="0 0 1788 370" width="1788px" zoomAndPan="magnify"><title>Datenatlas - UNT:00026</title><defs/><g><g class="title" data-source-line="1"><text fill="#000000" font-family="sans-serif" font-size="14" font-weight="bold" lengthAdjust="spacing" textLength="188.4395" x="793.1735" y="22.9951">Datenatlas - UNT:00026</text></g><!--class UNT_00026--><g class="entity" data-entity="UNT_00026" data-source-line="2" data-uid="ent0002" id="entity_UNT_00026"><rect fill="#F1F1F1" height="96.8906" rx="2.5" ry="2.5" style="stroke:#181818;stroke-width:0.5;" width="271.8613" x="593.53" y="44.2969"/><ellipse cx="684.8069" cy="60.2969" fill="#ADD1B2" rx="11" ry="11" style="stroke:#181818;stroke-width:1;"/><path d="M687.7756,65.9375 Q687.1975,66.2344 686.5569,66.375 Q685.9162,66.5313 685.2131,66.5313 Q682.7131,66.5313 681.385,64.8906 Q680.0725,63.2344 680.0725,60.1094 Q680.0725,56.9844 681.385,55.3281 Q682.7131,53.6719 685.2131,53.6719 Q685.9162,53.6719 686.5569,53.8281 Q687.2131,53.9844 687.7756,54.2813 L687.7756,57 Q687.1506,56.4219 686.5569,56.1563 Q685.9631,55.875 685.3381,55.875 Q683.9944,55.875 683.3069,56.9531 Q682.6194,58.0156 682.6194,60.1094 Q682.6194,62.2031 683.3069,63.2813 Q683.9944,64.3438 685.3381,64.3438 Q685.9631,64.3438 686.5569,64.0781 Q687.1506,63.7969 687.7756,63.2188 L687.7756,65.9375 Z " fill="#000000"/><text fill="#000000" font-family="sans-serif" font-size="14" lengthAdjust="spacing" textLength="80.8076" x="705.3069" y="65.1436">UNT_00026</text><line style="stroke:#181818;stroke-width:0.5;" x1="594.53" x2="864.3913" y1="76.2969" y2="76.2969"/><text fill="#000000" font-family="sans-serif" font-size="14" lengthAdjust="spacing" textLength="245.8613" x="613.53" y="93.292">Name: Nachrichten - Endesegment</text><text fill="#000000" font-family="sans-serif" font-size="14" lengthAdjust="spacing" textLength="66.6436" x="613.53" y="109.5889">Prozesse:</text><rect fill="none" height="6" style="stroke:#C82930;stroke-width:1;" width="6" x="601.53" y="119.5391"/><text fill="#000000" font-family="sans-serif" font-size="14" lengthAdjust="spacing" textLength="180.3457" x="613.53" y="125.8857">Netznutzungsabrechnung</text><line style="stroke:#181818;stroke-width:0.5;" x1="594.53" x2="864.3913" y1="133.1875" y2="133.1875"/></g><!--class UNT_00026_msg_1--><g class="entity" data-entity="UNT_00026_msg_1" data-source-line="7" data-uid="ent0003" id="entity_UNT_00026_msg_1"><rect fill="#F1F1F1" height="145.7813" rx="2.5" ry="2.5" style="stroke:#181818;stroke-width:0.5;" width="422.9219" x="7" y="218.1869"/><ellipse cx="147.4443" cy="234.1869" fill="#ADD1B2" rx="11" ry="11" style="stroke:#181818;stroke-width:1;"/><path d="M150.4131,239.8275 Q149.835,240.1244 149.1943,240.265 Q148.5537,240.4213 147.8506,240.4213 Q145.3506,240.4213 144.0225,238.7806 Q142.71,237.1244 142.71,233.9994 Q142.71,230.8744 144.0225,229.2181 Q145.3506,227.5619 147.8506,227.5619 Q148.5537,227.5619 149.1943,227.7181 Q149.8506,227.8744 150.4131,228.1713 L150.4131,230.89 Q149.7881,230.3119 149.1943,230.0463 Q148.6006,229.765 147.9756,229.765 Q146.6318,229.765 145.9443,230.8431 Q145.2568,231.9056 145.2568,233.9994 Q145.2568,236.0931 145.9443,237.1713 Q146.6318,238.2338 147.9756,238.2338 Q148.6006,238.2338 149.1943,237.9681 Q149.7881,237.6869 150.4131,237.1088 L150.4131,239.8275 Z " fill="#000000"/><text fill="#000000" font-family="sans-serif" font-size="14" lengthAdjust="spacing" textLength="133.5332" x="167.9443" y="239.0336">UNT_00026_msg_1</text><line style="stroke:#181818;stroke-width:0.5;" x1="8" x2="428.9219" y1="250.1869" y2="250.1869"/><text fill="#000000" font-family="sans-serif" font-size="14" lengthAdjust="spacing" textLength="161.998" x="13" y="267.182">Nachricht: INSRPT 1.1a</text><text fill="#000000" font-family="sans-serif" font-size="14" lengthAdjust="spacing" textLength="398.5898" x="13" y="283.4789">Kontext: 0320   SG8   C   R   999   1   3   NAD - LOC - RFF</text><text fill="#000000" font-family="sans-serif" font-size="14" lengthAdjust="spacing" textLength="91.4033" x="13" y="299.7757">Pflichtfeld: Ja</text><text fill="#000000" font-family="sans-serif" font-size="14" lengthAdjust="spacing" textLength="191.3379" x="13" y="316.0726">Codes: 07, 26, 31, UN, UNT</text><text fill="#000000" font-family="sans-serif" font-size="14" lengthAdjust="spacing" textLength="251.4395" x="13" y="332.3695">Prozesse: Netznutzungsabrechnung</text><text fill="#000000" font-family="sans-serif" font-size="14" lengthAdjust="spacing" textLength="410.9219" x="13" y="348.6664">Quelle: INSRPT_MIG_1_1a_au&#223;erordentliche_20240726.pdf</text><line style="stroke:#181818;stroke-width:0.5;" x1="8" x2="428.9219" y1="355.9681" y2="355.9681"/></g><!--class UNT_00026_msg_2--><g class="entity" data-entity="UNT_00026_msg_2" data-source-line="16" data-uid="ent0005" id="entity_UNT_00026_msg_2"><rect fill="#F1F1F1" height="145.7813" rx="2.5" ry="2.5" style="stroke:#181818;stroke-width:0.5;" width="528.5371" x="465.19" y="218.1869"/><ellipse cx="658.442" cy="234.1869" fill="#ADD1B2" rx="11" ry="11" style="stroke:#181818;stroke-width:1;"/><path d="M661.4107,239.8275 Q660.8326,240.1244 660.192,240.265 Q659.5513,240.4213 658.8482,240.4213 Q656.3482,240.4213 655.0201,238.7806 Q653.7076,237.1244 653.7076,233.9994 Q653.7076,230.8744 655.0201,229.2181 Q656.3482,227.5619 658.8482,227.5619 Q659.5513,227.5619 660.192,227.7181 Q660.8482,227.8744 661.4107,228.1713 L661.4107,230.89 Q660.7857,230.3119 660.192,230.0463 Q659.5982,229.765 658.9732,229.765 Q657.6295,229.765 656.942,230.8431 Q656.2545,231.9056 656.2545,233.9994 Q656.2545,236.0931 656.942,237.1713 Q657.6295,238.2338 658.9732,238.2338 Q659.5982,238.2338 660.192,237.9681 Q660.7857,237.6869 661.4107,237.1088 L661.4107,239.8275 Z " fill="#000000"/><text fill="#000000" font-family="sans-serif" font-size="14" lengthAdjust="spacing" textLength="133.5332" x="678.942" y="239.0336">UNT_00026_msg_2</text><line style="stroke:#181818;stroke-width:0.5;" x1="466.19" x2="992.7271" y1="250.1869" y2="250.1869"/><text fill="#000000" font-family="sans-serif" font-size="14" lengthAdjust="spacing" textLength="162.2988" x="471.19" y="267.182">Nachricht: PRICAT 2.0d</text><text fill="#000000" font-family="sans-serif" font-size="14" lengthAdjust="spacing" textLength="516.5371" x="471.19" y="283.4789">Kontext: 1310   SG36   C   R   999999   999999   2   LIN - PIA - IMD - SG40</text><text fill="#000000" font-family="sans-serif" font-size="14" lengthAdjust="spacing" textLength="91.4033" x="471.19" y="299.7757">Pflichtfeld: Ja</text><text fill="#000000" font-family="sans-serif" font-size="14" lengthAdjust="spacing" textLength="191.3379" x="471.19" y="316.0726">Codes: 06, 19, 35, UN, UNT</text><text fill="#000000" font-family="sans-serif" font-size="14" lengthAdjust="spacing" textLength="251.4395" x="471.19" y="332.3695">Prozesse: Netznutzungsabrechnung</text><text fill="#000000" font-family="sans-serif" font-size="14" lengthAdjust="spacing" textLength="284.4365" x="471.19" y="348.6664">Quelle: PRICAT_MIG_2_0d_20240619.pdf</text><line style="stroke:#181818;stroke-width:0.5;" x1="466.19" x2="992.7271" y1="355.9681" y2="355.9681"/></g><!--class UNT_00026_proc_1--><g class="entity" data-entity="UNT_00026_proc_1" data-source-line="25" data-uid="ent0007" id="entity_UNT_00026_proc_1"><rect fill="#F1F1F1" height="105.1563" rx="2.5" ry="2.5" style="stroke:#181818;stroke-width:0.5;" width="752.6465" x="1029.14" y="238.4969"/><ellipse cx="1333.9032" cy="258.6297" fill="#ADD1B2" rx="11" ry="11" style="stroke:#181818;stroke-width:1;"/><path d="M1336.8719,264.2703 Q1336.2938,264.5672 1335.6532,264.7078 Q1335.0126,264.8641 1334.3094,264.8641 Q1331.8094,264.8641 1330.4813,263.2234 Q1329.1688,261.5672 1329.1688,258.4422 Q1329.1688,255.3172 1330.4813,253.6609 Q1331.8094,252.0047 1334.3094,252.0047 Q1335.0126,252.0047 1335.6532,252.1609 Q1336.3094,252.3172 1336.8719,252.6141 L1336.8719,255.3328 Q1336.2469,254.7547 1335.6532,254.4891 Q1335.0594,254.2078 1334.4344,254.2078 Q1333.0907,254.2078 1332.4032,255.2859 Q1331.7157,256.3484 1331.7157,258.4422 Q1331.7157,260.5359 1332.4032,261.6141 Q1333.0907,262.6766 1334.4344,262.6766 Q1335.0594,262.6766 1335.6532,262.4109 Q1336.2469,262.1297 1336.8719,261.5516 L1336.8719,264.2703 Z " fill="#000000"/><text fill="#000000" font-family="sans-serif" font-size="12" font-style="italic" lengthAdjust="spacing" textLength="61.0605" x="1391.183" y="254.6355">&#171;process&#187;</text><text fill="#000000" font-family="sans-serif" font-size="14" lengthAdjust="spacing" textLength="134.6201" x="1354.4032" y="270.4607">UNT_00026_proc_1</text><line style="stroke:#181818;stroke-width:0.5;" x1="1030.14" x2="1780.7865" y1="278.7625" y2="278.7625"/><text fill="#000000" font-family="sans-serif" font-size="14" lengthAdjust="spacing" textLength="180.3457" x="1035.14" y="295.7576">Netznutzungsabrechnung</text><text fill="#000000" font-family="sans-serif" font-size="14" lengthAdjust="spacing" textLength="218.0938" x="1035.14" y="312.0545">Gesetze: StromNEV, StromNZV</text><text fill="#000000" font-family="sans-serif" font-size="14" lengthAdjust="spacing" textLength="740.6465" x="1035.14" y="328.3514">Zusammenfassung: Wie funktioniert die Netznutzungsabrechnung zwischen Netzbetreiber und Lieferant?</text><line style="stroke:#181818;stroke-width:0.5;" x1="1030.14" x2="1780.7865" y1="335.6531" y2="335.6531"/></g><!--link UNT_00026 to UNT_00026_msg_1--><g class="link" data-entity-1="UNT_00026" data-entity-2="UNT_00026_msg_1" data-source-line="15" data-uid="lnk4" id="link_UNT_00026_UNT_00026_msg_1"><path codeLine="15" d="M604.78,141.6469 C545.25,164.5169 478.3408,190.2248 412.2908,215.6048" fill="none" id="UNT_00026-to-UNT_00026_msg_1" style="stroke:#181818;stroke-width:1;"/><polygon fill="#181818" points="406.69,217.7569,416.5259,218.2625,411.3573,215.9634,413.6564,210.7949,406.69,217.7569" style="stroke:#181818;stroke-width:1;"/><text fill="#000000" font-family="sans-serif" font-size="13" lengthAdjust="spacing" textLength="85.2363" x="521.46" y="184.2538">verwendet in</text></g><!--link UNT_00026 to UNT_00026_msg_2--><g class="link" data-entity-1="UNT_00026" data-entity-2="UNT_00026_msg_2" data-source-line="24" data-uid="lnk6" id="link_UNT_00026_UNT_00026_msg_2"><path codeLine="24" d="M729.46,141.5169 C729.46,164.4469 729.46,186.4069 729.46,211.8569" fill="none" id="UNT_00026-to-UNT_00026_msg_2" style="stroke:#181818;stroke-width:1;"/><polygon fill="#181818" points="729.46,217.8569,733.46,208.8569,729.46,212.8569,725.46,208.8569,729.46,217.8569" style="stroke:#181818;stroke-width:1;"/><text fill="#000000" font-family="sans-serif" font-size="13" lengthAdjust="spacing" textLength="85.2363" x="730.46" y="184.2538">verwendet in</text></g><!--link UNT_00026 to UNT_00026_proc_1--><g class="link" data-entity-1="UNT_00026" data-entity-2="UNT_00026_proc_1" data-source-line="30" data-uid="lnk8" id="link_UNT_00026_UNT_00026_proc_1"><path codeLine="30" d="M865.85,133.3569 C969.6,163.4869 1107.518,203.5436 1220.538,236.3636" fill="none" id="UNT_00026-to-UNT_00026_proc_1" style="stroke:#181818;stroke-width:1;stroke-dasharray:7,7;"/><polygon fill="#181818" points="1226.3,238.0369,1218.7725,231.6857,1221.4984,236.6425,1216.5416,239.3684,1226.3,238.0369" style="stroke:#181818;stroke-width:1;"/><text fill="#000000" font-family="sans-serif" font-size="13" lengthAdjust="spacing" textLength="91.6221" x="1048.46" y="184.2538">eingebettet in</text></g><!--SRC=[dPBTRjD048NlynJp08dbNHSNMrLGbBQH8JLf4ehK6yknnuc5lQxMQugCU1OUXXVhSHoWlu2ucD7itvapdzRafc0wZGshs1HnJIFw4AvzsxQbEqYmKNVhQB-chmEYC2xPHqvsEazsU8ONPohbchSbAuCR2rsrNDVieoQSXcnQrPYsKTiwtcXETWhbuDjZ-QYijv4uD3d8-nI4g-LYJS8ICGxULShm5spRZhIXlfgzHfuYbWZFyv05ma64arDqdx-V8Y_FppjdMT69PboaFhtjzAOLd4FjU4ZI7P8ZXl3JnVh-82-DG7JPS57mJvVHHJ2BH2JYA6v-V6TTwHH8kfuSILiUsSVIjMxI3BF_XZeQZPymyEapwri6LaEvUXQKV0ngiGocapL9oqxlWnAEw44vxaDIFQnVXKJCWn2i5i44ERZewArcH_OVmG6Qy03krN-2wrtlmSd8JdjChl3-0PFy6wORNIM0UNBI5V0p7lVCNl8qmoSsBKojZAxAyEngUAYkht1wtTHnYI-UeGdk-_GnPyeQzSdabSfP6qgnyRmujRTvZL-WzkSRDfhp3MjgL4hpd3FMiJ9l7inhMUEde_Z4kTeo1Cn-v3i0]--></g></svg>