<svg xmlns="http://www.w3.org/2000/svg" xmlns:xlink="http://www.w3.org/1999/xlink" contentStyleType="text/css" data-diagram-type="CLASS" height="370px" preserveAspectRatio="none" style="width:984px;height:370px;background:#FFFFFF;" version="1.1" viewBox="0 0 984 370" width="984px" zoomAndPan="magnify"><title>Datenatlas - UNT:00059</title><defs/><g><g class="title" data-source-line="1"><text fill="#000000" font-family="sans-serif" font-size="14" font-weight="bold" lengthAdjust="spacing" textLength="188.4395" x="391.0851" y="22.9951">Datenatlas - UNT:00059</text></g><!--class UNT_00059--><g class="entity" data-entity="UNT_00059" data-source-line="2" data-uid="ent0002" id="entity_UNT_00059"><rect fill="#F1F1F1" height="96.8906" rx="2.5" ry="2.5" style="stroke:#181818;stroke-width:0.5;" width="271.8613" x="270.5" y="44.2969"/><ellipse cx="361.7769" cy="60.2969" fill="#ADD1B2" rx="11" ry="11" style="stroke:#181818;stroke-width:1;"/><path d="M364.7456,65.9375 Q364.1675,66.2344 363.5269,66.375 Q362.8862,66.5313 362.1831,66.5313 Q359.6831,66.5313 358.355,64.8906 Q357.0425,63.2344 357.0425,60.1094 Q357.0425,56.9844 358.355,55.3281 Q359.6831,53.6719 362.1831,53.6719 Q362.8862,53.6719 363.5269,53.8281 Q364.1831,53.9844 364.7456,54.2813 L364.7456,57 Q364.1206,56.4219 363.5269,56.1563 Q362.9331,55.875 362.3081,55.875 Q360.9644,55.875 360.2769,56.9531 Q359.5894,58.0156 359.5894,60.1094 Q359.5894,62.2031 360.2769,63.2813 Q360.9644,64.3438 362.3081,64.3438 Q362.9331,64.3438 363.5269,64.0781 Q364.1206,63.7969 364.7456,63.2188 L364.7456,65.9375 Z " fill="#000000"/><text fill="#000000" font-family="sans-serif" font-size="14" lengthAdjust="spacing" textLength="80.8076" x="382.2769" y="65.1436">UNT_00059</text><line style="stroke:#181818;stroke-width:0.5;" x1="271.5" x2="541.3613" y1="76.2969" y2="76.2969"/><text fill="#000000" font-family="sans-serif" font-size="14" lengthAdjust="spacing" textLength="245.8613" x="290.5" y="93.292">Name: Nachrichten - Endesegment</text><text fill="#000000" font-family="sans-serif" font-size="14" lengthAdjust="spacing" textLength="66.6436" x="290.5" y="109.5889">Prozesse:</text><rect fill="none" height="6" style="stroke:#C82930;stroke-width:1;" width="6" x="278.5" y="119.5391"/><text fill="#000000" font-family="sans-serif" font-size="14" lengthAdjust="spacing" textLength="158.0127" x="290.5" y="125.8857">Stammdaten&#228;nderung</text><line style="stroke:#181818;stroke-width:0.5;" x1="271.5" x2="541.3613" y1="133.1875" y2="133.1875"/></g><!--class UNT_00059_msg_1--><g class="entity" data-entity="UNT_00059_msg_1" data-source-line="7" data-uid="ent0003" id="entity_UNT_00059_msg_1"><rect fill="#F1F1F1" height="145.7813" rx="2.5" ry="2.5" style="stroke:#181818;stroke-width:0.5;" width="296.8604" x="7" y="218.1869"/><ellipse cx="84.4136" cy="234.1869" fill="#ADD1B2" rx="11" ry="11" style="stroke:#181818;stroke-width:1;"/><path d="M87.3823,239.8275 Q86.8042,240.1244 86.1636,240.265 Q85.5229,240.4213 84.8198,240.4213 Q82.3198,240.4213 80.9917,238.7806 Q79.6792,237.1244 79.6792,233.9994 Q79.6792,230.8744 80.9917,229.2181 Q82.3198,227.5619 84.8198,227.5619 Q85.5229,227.5619 86.1636,227.7181 Q86.8198,227.8744 87.3823,228.1713 L87.3823,230.89 Q86.7573,230.3119 86.1636,230.0463 Q85.5698,229.765 84.9448,229.765 Q83.6011,229.765 82.9136,230.8431 Q82.2261,231.9056 82.2261,233.9994 Q82.2261,236.0931 82.9136,237.1713 Q83.6011,238.2338 84.9448,238.2338 Q85.5698,238.2338 86.1636,237.9681 Q86.7573,237.6869 87.3823,237.1088 L87.3823,239.8275 Z " fill="#000000"/><text fill="#000000" font-family="sans-serif" font-size="14" lengthAdjust="spacing" textLength="133.5332" x="104.9136" y="239.0336">UNT_00059_msg_1</text><line style="stroke:#181818;stroke-width:0.5;" x1="8" x2="302.8604" y1="250.1869" y2="250.1869"/><text fill="#000000" font-family="sans-serif" font-size="14" lengthAdjust="spacing" textLength="162.7227" x="13" y="267.182">Nachricht: PARTIN 1.0e</text><text fill="#000000" font-family="sans-serif" font-size="14" lengthAdjust="spacing" textLength="204.1143" x="13" y="283.4789">Kontext: Nachrichtenstruktur</text><text fill="#000000" font-family="sans-serif" font-size="14" lengthAdjust="spacing" textLength="91.4033" x="13" y="299.7757">Pflichtfeld: Ja</text><text fill="#000000" font-family="sans-serif" font-size="14" lengthAdjust="spacing" textLength="191.3379" x="13" y="316.0726">Codes: 01, 10, 67, UN, UNT</text><text fill="#000000" font-family="sans-serif" font-size="14" lengthAdjust="spacing" textLength="229.1064" x="13" y="332.3695">Prozesse: Stammdaten&#228;nderung</text><text fill="#000000" font-family="sans-serif" font-size="14" lengthAdjust="spacing" textLength="284.8604" x="13" y="348.6664">Quelle: PARTIN_MIG_1_0e_20241001.pdf</text><line style="stroke:#181818;stroke-width:0.5;" x1="8" x2="302.8604" y1="355.9681" y2="355.9681"/></g><!--class UNT_00059_proc_1--><g class="entity" data-entity="UNT_00059_proc_1" data-source-line="16" data-uid="ent0005" id="entity_UNT_00059_proc_1"><rect fill="#F1F1F1" height="88.8594" rx="2.5" ry="2.5" style="stroke:#181818;stroke-width:0.5;" width="638.3496" x="339.26" y="246.6469"/><ellipse cx="586.8747" cy="266.7797" fill="#ADD1B2" rx="11" ry="11" style="stroke:#181818;stroke-width:1;"/><path d="M589.8435,272.4203 Q589.2654,272.7172 588.6247,272.8578 Q587.9841,273.0141 587.281,273.0141 Q584.781,273.0141 583.4529,271.3734 Q582.1404,269.7172 582.1404,266.5922 Q582.1404,263.4672 583.4529,261.8109 Q584.781,260.1547 587.281,260.1547 Q587.9841,260.1547 588.6247,260.3109 Q589.281,260.4672 589.8435,260.7641 L589.8435,263.4828 Q589.2185,262.9047 588.6247,262.6391 Q588.031,262.3578 587.406,262.3578 Q586.0622,262.3578 585.3747,263.4359 Q584.6872,264.4984 584.6872,266.5922 Q584.6872,268.6859 585.3747,269.7641 Q586.0622,270.8266 587.406,270.8266 Q588.031,270.8266 588.6247,270.5609 Q589.2185,270.2797 589.8435,269.7016 L589.8435,272.4203 Z " fill="#000000"/><text fill="#000000" font-family="sans-serif" font-size="12" font-style="italic" lengthAdjust="spacing" textLength="61.0605" x="644.1545" y="262.7855">&#171;process&#187;</text><text fill="#000000" font-family="sans-serif" font-size="14" lengthAdjust="spacing" textLength="134.6201" x="607.3747" y="278.6107">UNT_00059_proc_1</text><line style="stroke:#181818;stroke-width:0.5;" x1="340.26" x2="976.6096" y1="286.9125" y2="286.9125"/><text fill="#000000" font-family="sans-serif" font-size="14" lengthAdjust="spacing" textLength="158.0127" x="345.26" y="303.9076">Stammdaten&#228;nderung</text><text fill="#000000" font-family="sans-serif" font-size="14" lengthAdjust="spacing" textLength="626.3496" x="345.26" y="320.2045">Zusammenfassung: Wie wird eine Stammdaten&#228;nderung an einer Marktlokation, wie z.B.</text><line style="stroke:#181818;stroke-width:0.5;" x1="340.26" x2="976.6096" y1="327.5063" y2="327.5063"/></g><!--link UNT_00059 to UNT_00059_msg_1--><g class="link" data-entity-1="UNT_00059" data-entity-2="UNT_00059_msg_1" data-source-line="15" data-uid="lnk4" id="link_UNT_00059_UNT_00059_msg_1"><path codeLine="15" d="M345.35,141.5169 C316.04,164.4469 285.0162,188.7105 252.4762,214.1605" fill="none" id="UNT_00059-to-UNT_00059_msg_1" style="stroke:#181818;stroke-width:1;"/><polygon fill="#181818" points="247.75,217.8569,257.3035,215.4631,251.6885,214.7765,252.375,209.1615,247.75,217.8569" style="stroke:#181818;stroke-width:1;"/><text fill="#000000" font-family="sans-serif" font-size="13" lengthAdjust="spacing" textLength="85.2363" x="304.43" y="184.2538">verwendet in</text></g><!--link UNT_00059 to UNT_00059_proc_1--><g class="link" data-entity-1="UNT_00059" data-entity-2="UNT_00059_proc_1" data-source-line="20" data-uid="lnk6" id="link_UNT_00059_UNT_00059_proc_1"><path codeLine="20" d="M467.75,141.5169 C508.84,173.5269 557.777,211.6593 597.707,242.7693" fill="none" id="UNT_00059-to-UNT_00059_proc_1" style="stroke:#181818;stroke-width:1;stroke-dasharray:7,7;"/><polygon fill="#181818" points="602.44,246.4569,597.7988,237.7701,598.4958,243.3839,592.882,244.0809,602.44,246.4569" style="stroke:#181818;stroke-width:1;"/><text fill="#000000" font-family="sans-serif" font-size="13" lengthAdjust="spacing" textLength="91.6221" x="526.43" y="184.2538">eingebettet in</text></g><!--SRC=[RL3RJiCm37tVL_W3kYgPk8XegiHDQA1D0uQGU8b2wtRLqdHAN8Q6-1l-X1-RMmt1s1uIsSVsESUcaYp2bI5qXgm9q8UdoKm98OxFUYa3eSrrbyD73s1YAbJyftDVfdCUuubhbs70ea97t37rzHf3GCKnSFMHJ5LbhSBt5pVwnXMzp__SkWg5bbk5BRU2wVd3R3G16Glambtj2DzfHpsGRnRK-5OtjosMeyqKt1f6BclsfK382AI8uEGqOi7spVxQF6WGuBv1Q_77WnwFRhJK0lL038wa439UPZdlyNkTVZ_PsqV16_eLCYj1wVQMNlewvQxXi0tOJ99q5pXiwAK93AFBcOCH1Sybmghq6M3fyD0G6DVLF8oDNv2j5uRAsaKyXR2EB-8T_t6Sx5jJBK61hqZKhR01]--></g></svg>