<svg xmlns="http://www.w3.org/2000/svg" xmlns:xlink="http://www.w3.org/1999/xlink" contentStyleType="text/css" data-diagram-type="CLASS" height="370px" preserveAspectRatio="none" style="width:1111px;height:370px;background:#FFFFFF;" version="1.1" viewBox="0 0 1111 370" width="1111px" zoomAndPan="magnify"><title>Datenatlas - UNT:0080</title><defs/><g><g class="title" data-source-line="1"><text fill="#000000" font-family="sans-serif" font-size="14" font-weight="bold" lengthAdjust="spacing" textLength="178.6982" x="459.2191" y="22.9951">Datenatlas - UNT:0080</text></g><!--class UNT_0080--><g class="entity" data-entity="UNT_0080" data-source-line="2" data-uid="ent0002" id="entity_UNT_0080"><rect fill="#F1F1F1" height="96.8906" rx="2.5" ry="2.5" style="stroke:#181818;stroke-width:0.5;" width="367.6943" x="260.97" y="44.2969"/><ellipse cx="404.617" cy="60.2969" fill="#ADD1B2" rx="11" ry="11" style="stroke:#181818;stroke-width:1;"/><path d="M407.5857,65.9375 Q407.0076,66.2344 406.367,66.375 Q405.7263,66.5313 405.0232,66.5313 Q402.5232,66.5313 401.1951,64.8906 Q399.8826,63.2344 399.8826,60.1094 Q399.8826,56.9844 401.1951,55.3281 Q402.5232,53.6719 405.0232,53.6719 Q405.7263,53.6719 406.367,53.8281 Q407.0232,53.9844 407.5857,54.2813 L407.5857,57 Q406.9607,56.4219 406.367,56.1563 Q405.7732,55.875 405.1482,55.875 Q403.8045,55.875 403.117,56.9531 Q402.4295,58.0156 402.4295,60.1094 Q402.4295,62.2031 403.117,63.2813 Q403.8045,64.3438 405.1482,64.3438 Q405.7732,64.3438 406.367,64.0781 Q406.9607,63.7969 407.5857,63.2188 L407.5857,65.9375 Z " fill="#000000"/><text fill="#000000" font-family="sans-serif" font-size="14" lengthAdjust="spacing" textLength="71.9004" x="425.117" y="65.1436">UNT_0080</text><line style="stroke:#181818;stroke-width:0.5;" x1="261.97" x2="627.6643" y1="76.2969" y2="76.2969"/><text fill="#000000" font-family="sans-serif" font-size="14" lengthAdjust="spacing" textLength="341.6943" x="280.97" y="93.292">Name: Anzahl der Segmente im Datenaustausch</text><text fill="#000000" font-family="sans-serif" font-size="14" lengthAdjust="spacing" textLength="66.6436" x="280.97" y="109.5889">Prozesse:</text><rect fill="none" height="6" style="stroke:#C82930;stroke-width:1;" width="6" x="268.97" y="119.5391"/><text fill="#000000" font-family="sans-serif" font-size="14" lengthAdjust="spacing" textLength="180.3457" x="280.97" y="125.8857">Netznutzungsabrechnung</text><line style="stroke:#181818;stroke-width:0.5;" x1="261.97" x2="627.6643" y1="133.1875" y2="133.1875"/></g><!--class UNT_0080_msg_1--><g class="entity" data-entity="UNT_0080_msg_1" data-source-line="7" data-uid="ent0003" id="entity_UNT_0080_msg_1"><rect fill="#F1F1F1" height="145.7813" rx="2.5" ry="2.5" style="stroke:#181818;stroke-width:0.5;" width="309.6299" x="7" y="218.1869"/><ellipse cx="95.252" cy="234.1869" fill="#ADD1B2" rx="11" ry="11" style="stroke:#181818;stroke-width:1;"/><path d="M98.2207,239.8275 Q97.6426,240.1244 97.002,240.265 Q96.3613,240.4213 95.6582,240.4213 Q93.1582,240.4213 91.8301,238.7806 Q90.5176,237.1244 90.5176,233.9994 Q90.5176,230.8744 91.8301,229.2181 Q93.1582,227.5619 95.6582,227.5619 Q96.3613,227.5619 97.002,227.7181 Q97.6582,227.8744 98.2207,228.1713 L98.2207,230.89 Q97.5957,230.3119 97.002,230.0463 Q96.4082,229.765 95.7832,229.765 Q94.4395,229.765 93.752,230.8431 Q93.0645,231.9056 93.0645,233.9994 Q93.0645,236.0931 93.752,237.1713 Q94.4395,238.2338 95.7832,238.2338 Q96.4082,238.2338 97.002,237.9681 Q97.5957,237.6869 98.2207,237.1088 L98.2207,239.8275 Z " fill="#000000"/><text fill="#000000" font-family="sans-serif" font-size="14" lengthAdjust="spacing" textLength="124.626" x="115.752" y="239.0336">UNT_0080_msg_1</text><line style="stroke:#181818;stroke-width:0.5;" x1="8" x2="315.6299" y1="250.1869" y2="250.1869"/><text fill="#000000" font-family="sans-serif" font-size="14" lengthAdjust="spacing" textLength="172.9424" x="13" y="267.182">Nachricht: COMDIS 1.0e.</text><text fill="#000000" font-family="sans-serif" font-size="14" lengthAdjust="spacing" textLength="204.1143" x="13" y="283.4789">Kontext: Nachrichtenstruktur</text><text fill="#000000" font-family="sans-serif" font-size="14" lengthAdjust="spacing" textLength="91.4033" x="13" y="299.7757">Pflichtfeld: Ja</text><text fill="#000000" font-family="sans-serif" font-size="14" lengthAdjust="spacing" textLength="191.3379" x="13" y="316.0726">Codes: 06, 19, 22, UN, UNT</text><text fill="#000000" font-family="sans-serif" font-size="14" lengthAdjust="spacing" textLength="251.4395" x="13" y="332.3695">Prozesse: Netznutzungsabrechnung</text><text fill="#000000" font-family="sans-serif" font-size="14" lengthAdjust="spacing" textLength="297.6299" x="13" y="348.6664">Quelle: COMDIS_MIG_1_0e__20240619.pdf</text><line style="stroke:#181818;stroke-width:0.5;" x1="8" x2="315.6299" y1="355.9681" y2="355.9681"/></g><!--class UNT_0080_proc_1--><g class="entity" data-entity="UNT_0080_proc_1" data-source-line="16" data-uid="ent0005" id="entity_UNT_0080_proc_1"><rect fill="#F1F1F1" height="105.1563" rx="2.5" ry="2.5" style="stroke:#181818;stroke-width:0.5;" width="752.6465" x="351.49" y="238.4969"/><ellipse cx="660.7068" cy="258.6297" fill="#ADD1B2" rx="11" ry="11" style="stroke:#181818;stroke-width:1;"/><path d="M663.6755,264.2703 Q663.0974,264.5672 662.4568,264.7078 Q661.8162,264.8641 661.113,264.8641 Q658.613,264.8641 657.2849,263.2234 Q655.9724,261.5672 655.9724,258.4422 Q655.9724,255.3172 657.2849,253.6609 Q658.613,252.0047 661.113,252.0047 Q661.8162,252.0047 662.4568,252.1609 Q663.113,252.3172 663.6755,252.6141 L663.6755,255.3328 Q663.0505,254.7547 662.4568,254.4891 Q661.863,254.2078 661.238,254.2078 Q659.8943,254.2078 659.2068,255.2859 Q658.5193,256.3484 658.5193,258.4422 Q658.5193,260.5359 659.2068,261.6141 Q659.8943,262.6766 661.238,262.6766 Q661.863,262.6766 662.4568,262.4109 Q663.0505,262.1297 663.6755,261.5516 L663.6755,264.2703 Z " fill="#000000"/><text fill="#000000" font-family="sans-serif" font-size="12" font-style="italic" lengthAdjust="spacing" textLength="61.0605" x="713.533" y="254.6355">&#171;process&#187;</text><text fill="#000000" font-family="sans-serif" font-size="14" lengthAdjust="spacing" textLength="125.7129" x="681.2068" y="270.4607">UNT_0080_proc_1</text><line style="stroke:#181818;stroke-width:0.5;" x1="352.49" x2="1103.1365" y1="278.7625" y2="278.7625"/><text fill="#000000" font-family="sans-serif" font-size="14" lengthAdjust="spacing" textLength="180.3457" x="357.49" y="295.7576">Netznutzungsabrechnung</text><text fill="#000000" font-family="sans-serif" font-size="14" lengthAdjust="spacing" textLength="218.0938" x="357.49" y="312.0545">Gesetze: StromNEV, StromNZV</text><text fill="#000000" font-family="sans-serif" font-size="14" lengthAdjust="spacing" textLength="740.6465" x="357.49" y="328.3514">Zusammenfassung: Wie funktioniert die Netznutzungsabrechnung zwischen Netzbetreiber und Lieferant?</text><line style="stroke:#181818;stroke-width:0.5;" x1="352.49" x2="1103.1365" y1="335.6531" y2="335.6531"/></g><!--link UNT_0080 to UNT_0080_msg_1--><g class="link" data-entity-1="UNT_0080" data-entity-2="UNT_0080_msg_1" data-source-line="15" data-uid="lnk4" id="link_UNT_0080_UNT_0080_msg_1"><path codeLine="15" d="M375.95,141.5169 C342.9,164.4469 307.5301,188.9871 270.8401,214.4371" fill="none" id="UNT_0080-to-UNT_0080_msg_1" style="stroke:#181818;stroke-width:1;"/><polygon fill="#181818" points="265.91,217.8569,275.5849,216.014,270.0184,215.0071,271.0253,209.4406,265.91,217.8569" style="stroke:#181818;stroke-width:1;"/><text fill="#000000" font-family="sans-serif" font-size="13" lengthAdjust="spacing" textLength="85.2363" x="329.81" y="184.2538">verwendet in</text></g><!--link UNT_0080 to UNT_0080_proc_1--><g class="link" data-entity-1="UNT_0080" data-entity-2="UNT_0080_proc_1" data-source-line="21" data-uid="lnk6" id="link_UNT_0080_UNT_0080_proc_1"><path codeLine="21" d="M513.68,141.5169 C555.81,170.7469 604.8005,204.7263 647.9905,234.6963" fill="none" id="UNT_0080-to-UNT_0080_proc_1" style="stroke:#181818;stroke-width:1;stroke-dasharray:7,7;"/><polygon fill="#181818" points="652.92,238.1169,647.8062,229.6997,648.8121,235.2664,643.2454,236.2723,652.92,238.1169" style="stroke:#181818;stroke-width:1;"/><text fill="#000000" font-family="sans-serif" font-size="13" lengthAdjust="spacing" textLength="91.6221" x="579.81" y="184.2538">eingebettet in</text></g><!--SRC=[TL5XQy903FtkhyWFqDBAa7c8O-WGjzbjw1pufPnjsXwsLxdBpT6n_xxKEH4tFnmaBxcyzn9IL22C9Q6ML4WB7NWD5yBth_rMpBbjqgX9uRC54CeI1TpgMkO596XWZbc9cX1KUPZYBF6BS-v-DbMDrgBW67XoY5HhHxNJcPLhWt6kEMnzdJ55fSsYuC0NvqR5EGaOFSt6qpa4deyULnugPlrW_DY2sf9n6tAceKwB1aknI0JSIqP6LO9MWDzhGz1lGxVRPiBcBKwLNj88yEAmAF1NHpIRJg8WyZ6Akdxtoky5VM-RfEpbkAzEPtXkIS0xcXtg10cKFhUzDLNCJOD14x2QuV1d1vSKJT1oYINDoLHbUBTi7wBLagihPsN9jqcPW_i5l2c4rEaDgKehD0G90_yFXtgd-8Iez_Kraa6rvcixdS2ZmXIDr7HpQjRpXd-C242bC-JljFVx3G00]--></g></svg>