<svg xmlns="http://www.w3.org/2000/svg" xmlns:xlink="http://www.w3.org/1999/xlink" contentStyleType="text/css" data-diagram-type="CLASS" height="387px" preserveAspectRatio="none" style="width:2552px;height:387px;background:#FFFFFF;" version="1.1" viewBox="0 0 2552 387" width="2552px" zoomAndPan="magnify"><title>Datenatlas - UNT:00063</title><defs/><g><g class="title" data-source-line="1"><text fill="#000000" font-family="sans-serif" font-size="14" font-weight="bold" lengthAdjust="spacing" textLength="188.4395" x="1175.244" y="22.9951">Datenatlas - UNT:00063</text></g><!--class UNT_00063--><g class="entity" data-entity="UNT_00063" data-source-line="2" data-uid="ent0002" id="entity_UNT_00063"><rect fill="#F1F1F1" height="113.1875" rx="2.5" ry="2.5" style="stroke:#181818;stroke-width:0.5;" width="249.2822" x="990.17" y="44.2969"/><ellipse cx="1070.1573" cy="60.2969" fill="#ADD1B2" rx="11" ry="11" style="stroke:#181818;stroke-width:1;"/><path d="M1073.1261,65.9375 Q1072.5479,66.2344 1071.9073,66.375 Q1071.2667,66.5313 1070.5636,66.5313 Q1068.0636,66.5313 1066.7354,64.8906 Q1065.4229,63.2344 1065.4229,60.1094 Q1065.4229,56.9844 1066.7354,55.3281 Q1068.0636,53.6719 1070.5636,53.6719 Q1071.2667,53.6719 1071.9073,53.8281 Q1072.5636,53.9844 1073.1261,54.2813 L1073.1261,57 Q1072.5011,56.4219 1071.9073,56.1563 Q1071.3136,55.875 1070.6886,55.875 Q1069.3448,55.875 1068.6573,56.9531 Q1067.9698,58.0156 1067.9698,60.1094 Q1067.9698,62.2031 1068.6573,63.2813 Q1069.3448,64.3438 1070.6886,64.3438 Q1071.3136,64.3438 1071.9073,64.0781 Q1072.5011,63.7969 1073.1261,63.2188 L1073.1261,65.9375 Z " fill="#000000"/><text fill="#000000" font-family="sans-serif" font-size="14" lengthAdjust="spacing" textLength="80.8076" x="1090.6573" y="65.1436">UNT_00063</text><line style="stroke:#181818;stroke-width:0.5;" x1="991.17" x2="1238.4522" y1="76.2969" y2="76.2969"/><text fill="#000000" font-family="sans-serif" font-size="14" lengthAdjust="spacing" textLength="170.2695" x="1010.17" y="93.292">Name: Nachrichtenende</text><text fill="#000000" font-family="sans-serif" font-size="14" lengthAdjust="spacing" textLength="66.6436" x="1010.17" y="109.5889">Prozesse:</text><rect fill="none" height="6" style="stroke:#C82930;stroke-width:1;" width="6" x="998.17" y="119.5391"/><text fill="#000000" font-family="sans-serif" font-size="14" lengthAdjust="spacing" textLength="180.3457" x="1010.17" y="125.8857">Netznutzungsabrechnung</text><rect fill="none" height="6" style="stroke:#C82930;stroke-width:1;" width="6" x="998.17" y="135.8359"/><text fill="#000000" font-family="sans-serif" font-size="14" lengthAdjust="spacing" textLength="223.2822" x="1010.17" y="142.1826">Messstellenbetriebsabrechnung</text><line style="stroke:#181818;stroke-width:0.5;" x1="991.17" x2="1238.4522" y1="149.4844" y2="149.4844"/></g><!--class UNT_00063_msg_1--><g class="entity" data-entity="UNT_00063_msg_1" data-source-line="8" data-uid="ent0003" id="entity_UNT_00063_msg_1"><rect fill="#F1F1F1" height="145.7813" rx="2.5" ry="2.5" style="stroke:#181818;stroke-width:0.5;" width="495.6221" x="7" y="234.4869"/><ellipse cx="183.7944" cy="250.4869" fill="#ADD1B2" rx="11" ry="11" style="stroke:#181818;stroke-width:1;"/><path d="M186.7632,256.1275 Q186.1851,256.4244 185.5444,256.565 Q184.9038,256.7213 184.2007,256.7213 Q181.7007,256.7213 180.3726,255.0806 Q179.0601,253.4244 179.0601,250.2994 Q179.0601,247.1744 180.3726,245.5181 Q181.7007,243.8619 184.2007,243.8619 Q184.9038,243.8619 185.5444,244.0181 Q186.2007,244.1744 186.7632,244.4713 L186.7632,247.19 Q186.1382,246.6119 185.5444,246.3463 Q184.9507,246.065 184.3257,246.065 Q182.9819,246.065 182.2944,247.1431 Q181.6069,248.2056 181.6069,250.2994 Q181.6069,252.3931 182.2944,253.4713 Q182.9819,254.5338 184.3257,254.5338 Q184.9507,254.5338 185.5444,254.2681 Q186.1382,253.9869 186.7632,253.4088 L186.7632,256.1275 Z " fill="#000000"/><text fill="#000000" font-family="sans-serif" font-size="14" lengthAdjust="spacing" textLength="133.5332" x="204.2944" y="255.3336">UNT_00063_msg_1</text><line style="stroke:#181818;stroke-width:0.5;" x1="8" x2="501.6221" y1="266.4869" y2="266.4869"/><text fill="#000000" font-family="sans-serif" font-size="14" lengthAdjust="spacing" textLength="161.1982" x="13" y="283.482">Nachricht: INVOIC 2.8d</text><text fill="#000000" font-family="sans-serif" font-size="14" lengthAdjust="spacing" textLength="204.1143" x="13" y="299.7789">Kontext: Nachrichtenstruktur</text><text fill="#000000" font-family="sans-serif" font-size="14" lengthAdjust="spacing" textLength="91.4033" x="13" y="316.0757">Pflichtfeld: Ja</text><text fill="#000000" font-family="sans-serif" font-size="14" lengthAdjust="spacing" textLength="191.3379" x="13" y="332.3726">Codes: 01, 31, 72, UN, UNT</text><text fill="#000000" font-family="sans-serif" font-size="14" lengthAdjust="spacing" textLength="483.6221" x="13" y="348.6695">Prozesse: Netznutzungsabrechnung, Messstellenbetriebsabrechnung</text><text fill="#000000" font-family="sans-serif" font-size="14" lengthAdjust="spacing" textLength="396.6074" x="13" y="364.9664">Quelle: INVOIC_MIG_2.8d_Fehlerkorrektur_20250131.pdf</text><line style="stroke:#181818;stroke-width:0.5;" x1="8" x2="501.6221" y1="372.2681" y2="372.2681"/></g><!--class UNT_00063_msg_2--><g class="entity" data-entity="UNT_00063_msg_2" data-source-line="17" data-uid="ent0005" id="entity_UNT_00063_msg_2"><rect fill="#F1F1F1" height="145.7813" rx="2.5" ry="2.5" style="stroke:#181818;stroke-width:0.5;" width="495.6221" x="538" y="234.4869"/><ellipse cx="714.7944" cy="250.4869" fill="#ADD1B2" rx="11" ry="11" style="stroke:#181818;stroke-width:1;"/><path d="M717.7632,256.1275 Q717.1851,256.4244 716.5444,256.565 Q715.9038,256.7213 715.2007,256.7213 Q712.7007,256.7213 711.3726,255.0806 Q710.0601,253.4244 710.0601,250.2994 Q710.0601,247.1744 711.3726,245.5181 Q712.7007,243.8619 715.2007,243.8619 Q715.9038,243.8619 716.5444,244.0181 Q717.2007,244.1744 717.7632,244.4713 L717.7632,247.19 Q717.1382,246.6119 716.5444,246.3463 Q715.9507,246.065 715.3257,246.065 Q713.9819,246.065 713.2944,247.1431 Q712.6069,248.2056 712.6069,250.2994 Q712.6069,252.3931 713.2944,253.4713 Q713.9819,254.5338 715.3257,254.5338 Q715.9507,254.5338 716.5444,254.2681 Q717.1382,253.9869 717.7632,253.4088 L717.7632,256.1275 Z " fill="#000000"/><text fill="#000000" font-family="sans-serif" font-size="14" lengthAdjust="spacing" textLength="133.5332" x="735.2944" y="255.3336">UNT_00063_msg_2</text><line style="stroke:#181818;stroke-width:0.5;" x1="539" x2="1032.6221" y1="266.4869" y2="266.4869"/><text fill="#000000" font-family="sans-serif" font-size="14" lengthAdjust="spacing" textLength="165.6484" x="544" y="283.482">Nachricht: INVOIC 2.8d.</text><text fill="#000000" font-family="sans-serif" font-size="14" lengthAdjust="spacing" textLength="204.1143" x="544" y="299.7789">Kontext: Nachrichtenstruktur</text><text fill="#000000" font-family="sans-serif" font-size="14" lengthAdjust="spacing" textLength="91.4033" x="544" y="316.0757">Pflichtfeld: Ja</text><text fill="#000000" font-family="sans-serif" font-size="14" lengthAdjust="spacing" textLength="191.3379" x="544" y="332.3726">Codes: 06, 19, 73, UN, UNT</text><text fill="#000000" font-family="sans-serif" font-size="14" lengthAdjust="spacing" textLength="483.6221" x="544" y="348.6695">Prozesse: Netznutzungsabrechnung, Messstellenbetriebsabrechnung</text><text fill="#000000" font-family="sans-serif" font-size="14" lengthAdjust="spacing" textLength="290.3359" x="544" y="364.9664">Quelle: INVOIC_MIG_2_8d__20240619.pdf</text><line style="stroke:#181818;stroke-width:0.5;" x1="539" x2="1032.6221" y1="372.2681" y2="372.2681"/></g><!--class UNT_00063_proc_1--><g class="entity" data-entity="UNT_00063_proc_1" data-source-line="26" data-uid="ent0007" id="entity_UNT_00063_proc_1"><rect fill="#F1F1F1" height="105.1563" rx="2.5" ry="2.5" style="stroke:#181818;stroke-width:0.5;" width="752.6465" x="1068.49" y="254.7969"/><ellipse cx="1373.2532" cy="274.9297" fill="#ADD1B2" rx="11" ry="11" style="stroke:#181818;stroke-width:1;"/><path d="M1376.2219,280.5703 Q1375.6438,280.8672 1375.0032,281.0078 Q1374.3626,281.1641 1373.6594,281.1641 Q1371.1594,281.1641 1369.8313,279.5234 Q1368.5188,277.8672 1368.5188,274.7422 Q1368.5188,271.6172 1369.8313,269.9609 Q1371.1594,268.3047 1373.6594,268.3047 Q1374.3626,268.3047 1375.0032,268.4609 Q1375.6594,268.6172 1376.2219,268.9141 L1376.2219,271.6328 Q1375.5969,271.0547 1375.0032,270.7891 Q1374.4094,270.5078 1373.7844,270.5078 Q1372.4407,270.5078 1371.7532,271.5859 Q1371.0657,272.6484 1371.0657,274.7422 Q1371.0657,276.8359 1371.7532,277.9141 Q1372.4407,278.9766 1373.7844,278.9766 Q1374.4094,278.9766 1375.0032,278.7109 Q1375.5969,278.4297 1376.2219,277.8516 L1376.2219,280.5703 Z " fill="#000000"/><text fill="#000000" font-family="sans-serif" font-size="12" font-style="italic" lengthAdjust="spacing" textLength="61.0605" x="1430.533" y="270.9355">&#171;process&#187;</text><text fill="#000000" font-family="sans-serif" font-size="14" lengthAdjust="spacing" textLength="134.6201" x="1393.7532" y="286.7607">UNT_00063_proc_1</text><line style="stroke:#181818;stroke-width:0.5;" x1="1069.49" x2="1820.1365" y1="295.0625" y2="295.0625"/><text fill="#000000" font-family="sans-serif" font-size="14" lengthAdjust="spacing" textLength="180.3457" x="1074.49" y="312.0576">Netznutzungsabrechnung</text><text fill="#000000" font-family="sans-serif" font-size="14" lengthAdjust="spacing" textLength="218.0938" x="1074.49" y="328.3545">Gesetze: StromNEV, StromNZV</text><text fill="#000000" font-family="sans-serif" font-size="14" lengthAdjust="spacing" textLength="740.6465" x="1074.49" y="344.6514">Zusammenfassung: Wie funktioniert die Netznutzungsabrechnung zwischen Netzbetreiber und Lieferant?</text><line style="stroke:#181818;stroke-width:0.5;" x1="1069.49" x2="1820.1365" y1="351.9531" y2="351.9531"/></g><!--class UNT_00063_proc_2--><g class="entity" data-entity="UNT_00063_proc_2" data-source-line="32" data-uid="ent0009" id="entity_UNT_00063_proc_2"><rect fill="#F1F1F1" height="105.1563" rx="2.5" ry="2.5" style="stroke:#181818;stroke-width:0.5;" width="690.2275" x="1855.7" y="254.7969"/><ellipse cx="2129.2537" cy="274.9297" fill="#ADD1B2" rx="11" ry="11" style="stroke:#181818;stroke-width:1;"/><path d="M2132.2225,280.5703 Q2131.6443,280.8672 2131.0037,281.0078 Q2130.3631,281.1641 2129.66,281.1641 Q2127.16,281.1641 2125.8318,279.5234 Q2124.5193,277.8672 2124.5193,274.7422 Q2124.5193,271.6172 2125.8318,269.9609 Q2127.16,268.3047 2129.66,268.3047 Q2130.3631,268.3047 2131.0037,268.4609 Q2131.66,268.6172 2132.2225,268.9141 L2132.2225,271.6328 Q2131.5975,271.0547 2131.0037,270.7891 Q2130.41,270.5078 2129.785,270.5078 Q2128.4412,270.5078 2127.7537,271.5859 Q2127.0662,272.6484 2127.0662,274.7422 Q2127.0662,276.8359 2127.7537,277.9141 Q2128.4412,278.9766 2129.785,278.9766 Q2130.41,278.9766 2131.0037,278.7109 Q2131.5975,278.4297 2132.2225,277.8516 L2132.2225,280.5703 Z " fill="#000000"/><text fill="#000000" font-family="sans-serif" font-size="12" font-style="italic" lengthAdjust="spacing" textLength="61.0605" x="2186.5335" y="270.9355">&#171;process&#187;</text><text fill="#000000" font-family="sans-serif" font-size="14" lengthAdjust="spacing" textLength="134.6201" x="2149.7537" y="286.7607">UNT_00063_proc_2</text><line style="stroke:#181818;stroke-width:0.5;" x1="1856.7" x2="2544.9275" y1="295.0625" y2="295.0625"/><text fill="#000000" font-family="sans-serif" font-size="14" lengthAdjust="spacing" textLength="223.2822" x="1861.7" y="312.0576">Messstellenbetriebsabrechnung</text><text fill="#000000" font-family="sans-serif" font-size="14" lengthAdjust="spacing" textLength="105.0957" x="1861.7" y="328.3545">Gesetze: MsbG</text><text fill="#000000" font-family="sans-serif" font-size="14" lengthAdjust="spacing" textLength="678.2275" x="1861.7" y="344.6514">Zusammenfassung: Beschreibe den Prozess der Abrechnung von Messstellenbetriebsleistungen.</text><line style="stroke:#181818;stroke-width:0.5;" x1="1856.7" x2="2544.9275" y1="351.9531" y2="351.9531"/></g><!--link UNT_00063 to UNT_00063_msg_1--><g class="link" data-entity-1="UNT_00063" data-entity-2="UNT_00063_msg_1" data-source-line="16" data-uid="lnk4" id="link_UNT_00063_UNT_00063_msg_1"><path codeLine="16" d="M989.86,128.0969 C869.39,153.7669 682.13,194.6969 520.81,234.4869 C514.89,235.9469 514.7186,235.9726 508.6786,237.4926" fill="none" id="UNT_00063-to-UNT_00063_msg_1" style="stroke:#181818;stroke-width:1;"/><polygon fill="#181818" points="502.86,238.9569,512.5641,240.6395,507.7088,237.7366,510.6117,232.8814,502.86,238.9569" style="stroke:#181818;stroke-width:1;"/><text fill="#000000" font-family="sans-serif" font-size="13" lengthAdjust="spacing" textLength="85.2363" x="717.81" y="200.5538">verwendet in</text></g><!--link UNT_00063 to UNT_00063_msg_2--><g class="link" data-entity-1="UNT_00063" data-entity-2="UNT_00063_msg_2" data-source-line="25" data-uid="lnk6" id="link_UNT_00063_UNT_00063_msg_2"><path codeLine="25" d="M1024.91,157.7669 C987.05,181.2969 947.5959,205.8196 907.2759,230.8796" fill="none" id="UNT_00063-to-UNT_00063_msg_2" style="stroke:#181818;stroke-width:1;"/><polygon fill="#181818" points="902.18,234.0469,911.9354,232.6933,906.4266,231.4075,907.7124,225.8987,902.18,234.0469" style="stroke:#181818;stroke-width:1;"/><text fill="#000000" font-family="sans-serif" font-size="13" lengthAdjust="spacing" textLength="85.2363" x="971.81" y="200.5538">verwendet in</text></g><!--link UNT_00063 to UNT_00063_proc_1--><g class="link" data-entity-1="UNT_00063" data-entity-2="UNT_00063_proc_1" data-source-line="31" data-uid="lnk8" id="link_UNT_00063_UNT_00063_proc_1"><path codeLine="31" d="M1204.98,157.7669 C1253.65,187.9169 1308.2295,221.747 1355.8795,251.267" fill="none" id="UNT_00063-to-UNT_00063_proc_1" style="stroke:#181818;stroke-width:1;stroke-dasharray:7,7;"/><polygon fill="#181818" points="1360.98,254.4269,1355.4358,246.2867,1356.7296,251.7937,1351.2226,253.0874,1360.98,254.4269" style="stroke:#181818;stroke-width:1;"/><text fill="#000000" font-family="sans-serif" font-size="13" lengthAdjust="spacing" textLength="91.6221" x="1280.81" y="200.5538">eingebettet in</text></g><!--link UNT_00063 to UNT_00063_proc_2--><g class="link" data-entity-1="UNT_00063" data-entity-2="UNT_00063_proc_2" data-source-line="37" data-uid="lnk10" id="link_UNT_00063_UNT_00063_proc_2"><path codeLine="37" d="M1239.83,124.2069 C1384.23,150.1069 1628.88,194.4169 1838.81,234.4869 C1872.01,240.8269 1901.0125,246.4406 1935.4825,253.2106" fill="none" id="UNT_00063-to-UNT_00063_proc_2" style="stroke:#181818;stroke-width:1;stroke-dasharray:7,7;"/><polygon fill="#181818" points="1941.37,254.3669,1933.3096,248.7074,1936.4637,253.4033,1931.7678,256.5574,1941.37,254.3669" style="stroke:#181818;stroke-width:1;"/><text fill="#000000" font-family="sans-serif" font-size="13" lengthAdjust="spacing" textLength="91.6221" x="1661.81" y="200.5538">eingebettet in</text></g><!--SRC=[jPBTJjj048NlUOfv0CUodJQK5KhLqZOAD6vH8PMuiVmpZbUnnsXt35MgldjdWyjF4mWIuiBMx9prpZcVbpNN29zIHagvJYqCu3m-Kq4GZ8PxkJIiMoVhDVpU0uZJ1fMyyyhel9BFa0gK_dVJhj1QL5A3d18ZhwZZLKSBcsO6yugaxCMPxBICTOsK8HkDsVqzV_uVd3HsaOJz-7wmWcay_pOzWiX_LuXmqXBZBtvWpRBfbjmPPw-iNQ_4kb1md4hdg2tGAWX23uRox4UU37JFsVqqZ-JmTaG0EEsSzizbCfjE4kSq-O9LZMRP6eFEMX85qTiW78R-PL5AyZlOWy5uWu22ApJNZZY3fgsOeYSm-I_XDF8WF11EmzVdb0Wd1-PDC0eFdW4csWNcqhIvu3iyT8KO6ezlA3rsHoTeHH9NFzYqJVnvxlNLnLpKYywcJODKoX3Ph-2dHYWxMh9kIQDXAAIn_N1ONMkRLqXhtH51dQ61ZWhugh54anA_Vv3NzyURKHIWfWNA0Vn4v6WZygxVSPjyPhF9jgmVKUolJKCXAVeB8BM13tSfhrhQDgf6RLbq97zNn6WZuby0]--></g></svg>