<svg xmlns="http://www.w3.org/2000/svg" xmlns:xlink="http://www.w3.org/1999/xlink" contentStyleType="text/css" data-diagram-type="CLASS" height="370px" preserveAspectRatio="none" style="width:860px;height:370px;background:#FFFFFF;" version="1.1" viewBox="0 0 860 370" width="860px" zoomAndPan="magnify"><title>Datenatlas - UNZ:00042</title><defs/><g><g class="title" data-source-line="1"><text fill="#000000" font-family="sans-serif" font-size="14" font-weight="bold" lengthAdjust="spacing" textLength="189.041" x="328.7738" y="22.9951">Datenatlas - UNZ:00042</text></g><!--class UNZ_00042--><g class="entity" data-entity="UNZ_00042" data-source-line="2" data-uid="ent0002" id="entity_UNZ_00042"><rect fill="#F1F1F1" height="96.8906" rx="2.5" ry="2.5" style="stroke:#181818;stroke-width:0.5;" width="360.3525" x="263.3" y="44.2969"/><ellipse cx="398.3029" cy="60.2969" fill="#ADD1B2" rx="11" ry="11" style="stroke:#181818;stroke-width:1;"/><path d="M401.2717,65.9375 Q400.6936,66.2344 400.0529,66.375 Q399.4123,66.5313 398.7092,66.5313 Q396.2092,66.5313 394.8811,64.8906 Q393.5686,63.2344 393.5686,60.1094 Q393.5686,56.9844 394.8811,55.3281 Q396.2092,53.6719 398.7092,53.6719 Q399.4123,53.6719 400.0529,53.8281 Q400.7092,53.9844 401.2717,54.2813 L401.2717,57 Q400.6467,56.4219 400.0529,56.1563 Q399.4592,55.875 398.8342,55.875 Q397.4904,55.875 396.8029,56.9531 Q396.1154,58.0156 396.1154,60.1094 Q396.1154,62.2031 396.8029,63.2813 Q397.4904,64.3438 398.8342,64.3438 Q399.4592,64.3438 400.0529,64.0781 Q400.6467,63.7969 401.2717,63.2188 L401.2717,65.9375 Z " fill="#000000"/><text fill="#000000" font-family="sans-serif" font-size="14" lengthAdjust="spacing" textLength="81.8467" x="418.8029" y="65.1436">UNZ_00042</text><line style="stroke:#181818;stroke-width:0.5;" x1="264.3" x2="622.6525" y1="76.2969" y2="76.2969"/><text fill="#000000" font-family="sans-serif" font-size="14" lengthAdjust="spacing" textLength="233.6729" x="283.3" y="93.292">Name: Nutzdaten - Endesegment</text><text fill="#000000" font-family="sans-serif" font-size="14" lengthAdjust="spacing" textLength="66.6436" x="283.3" y="109.5889">Prozesse:</text><rect fill="none" height="6" style="stroke:#C82930;stroke-width:1;" width="6" x="271.3" y="119.5391"/><text fill="#000000" font-family="sans-serif" font-size="14" lengthAdjust="spacing" textLength="334.3525" x="283.3" y="125.8857">Anforderung und &#220;bermittlung von Messwerten</text><line style="stroke:#181818;stroke-width:0.5;" x1="264.3" x2="622.6525" y1="133.1875" y2="133.1875"/></g><!--class UNZ_00042_msg_1--><g class="entity" data-entity="UNZ_00042_msg_1" data-source-line="7" data-uid="ent0003" id="entity_UNZ_00042_msg_1"><rect fill="#F1F1F1" height="145.7813" rx="2.5" ry="2.5" style="stroke:#181818;stroke-width:0.5;" width="432.9502" x="7" y="218.1869"/><ellipse cx="151.939" cy="234.1869" fill="#ADD1B2" rx="11" ry="11" style="stroke:#181818;stroke-width:1;"/><path d="M154.9077,239.8275 Q154.3296,240.1244 153.689,240.265 Q153.0483,240.4213 152.3452,240.4213 Q149.8452,240.4213 148.5171,238.7806 Q147.2046,237.1244 147.2046,233.9994 Q147.2046,230.8744 148.5171,229.2181 Q149.8452,227.5619 152.3452,227.5619 Q153.0483,227.5619 153.689,227.7181 Q154.3452,227.8744 154.9077,228.1713 L154.9077,230.89 Q154.2827,230.3119 153.689,230.0463 Q153.0952,229.765 152.4702,229.765 Q151.1265,229.765 150.439,230.8431 Q149.7515,231.9056 149.7515,233.9994 Q149.7515,236.0931 150.439,237.1713 Q151.1265,238.2338 152.4702,238.2338 Q153.0952,238.2338 153.689,237.9681 Q154.2827,237.6869 154.9077,237.1088 L154.9077,239.8275 Z " fill="#000000"/><text fill="#000000" font-family="sans-serif" font-size="14" lengthAdjust="spacing" textLength="134.5723" x="172.439" y="239.0336">UNZ_00042_msg_1</text><line style="stroke:#181818;stroke-width:0.5;" x1="8" x2="438.9502" y1="250.1869" y2="250.1869"/><text fill="#000000" font-family="sans-serif" font-size="14" lengthAdjust="spacing" textLength="172.0264" x="13" y="267.182">Nachricht: MSCONS 2.4c</text><text fill="#000000" font-family="sans-serif" font-size="14" lengthAdjust="spacing" textLength="204.1143" x="13" y="283.4789">Kontext: Nachrichtenstruktur</text><text fill="#000000" font-family="sans-serif" font-size="14" lengthAdjust="spacing" textLength="91.4033" x="13" y="299.7757">Pflichtfeld: Ja</text><text fill="#000000" font-family="sans-serif" font-size="14" lengthAdjust="spacing" textLength="192.377" x="13" y="316.0726">Codes: 07, 26, 53, UN, UNZ</text><text fill="#000000" font-family="sans-serif" font-size="14" lengthAdjust="spacing" textLength="405.4463" x="13" y="332.3695">Prozesse: Anforderung und &#220;bermittlung von Messwerten</text><text fill="#000000" font-family="sans-serif" font-size="14" lengthAdjust="spacing" textLength="420.9502" x="13" y="348.6664">Quelle: MSCONS_MIG_2_4c_au&#223;erordentliche_20240726.pdf</text><line style="stroke:#181818;stroke-width:0.5;" x1="8" x2="438.9502" y1="355.9681" y2="355.9681"/></g><!--class UNZ_00042_proc_1--><g class="entity" data-entity="UNZ_00042_proc_1" data-source-line="16" data-uid="ent0005" id="entity_UNZ_00042_proc_1"><rect fill="#F1F1F1" height="105.1563" rx="2.5" ry="2.5" style="stroke:#181818;stroke-width:0.5;" width="378.2285" x="475.36" y="238.4969"/><ellipse cx="592.3947" cy="258.6297" fill="#ADD1B2" rx="11" ry="11" style="stroke:#181818;stroke-width:1;"/><path d="M595.3634,264.2703 Q594.7853,264.5672 594.1447,264.7078 Q593.504,264.8641 592.8009,264.8641 Q590.3009,264.8641 588.9728,263.2234 Q587.6603,261.5672 587.6603,258.4422 Q587.6603,255.3172 588.9728,253.6609 Q590.3009,252.0047 592.8009,252.0047 Q593.504,252.0047 594.1447,252.1609 Q594.8009,252.3172 595.3634,252.6141 L595.3634,255.3328 Q594.7384,254.7547 594.1447,254.4891 Q593.5509,254.2078 592.9259,254.2078 Q591.5822,254.2078 590.8947,255.2859 Q590.2072,256.3484 590.2072,258.4422 Q590.2072,260.5359 590.8947,261.6141 Q591.5822,262.6766 592.9259,262.6766 Q593.5509,262.6766 594.1447,262.4109 Q594.7384,262.1297 595.3634,261.5516 L595.3634,264.2703 Z " fill="#000000"/><text fill="#000000" font-family="sans-serif" font-size="12" font-style="italic" lengthAdjust="spacing" textLength="61.0605" x="650.194" y="254.6355">&#171;process&#187;</text><text fill="#000000" font-family="sans-serif" font-size="14" lengthAdjust="spacing" textLength="135.6592" x="612.8947" y="270.4607">UNZ_00042_proc_1</text><line style="stroke:#181818;stroke-width:0.5;" x1="476.36" x2="852.5885" y1="278.7625" y2="278.7625"/><text fill="#000000" font-family="sans-serif" font-size="14" lengthAdjust="spacing" textLength="334.3525" x="481.36" y="295.7576">Anforderung und &#220;bermittlung von Messwerten</text><text fill="#000000" font-family="sans-serif" font-size="14" lengthAdjust="spacing" textLength="105.0957" x="481.36" y="312.0545">Gesetze: MsbG</text><line style="stroke:#181818;stroke-width:0.5;" x1="476.36" x2="852.5885" y1="319.3563" y2="319.3563"/><text fill="#000000" font-family="sans-serif" font-size="14" lengthAdjust="spacing" textLength="366.2285" x="481.36" y="336.3514">Zusammenfassung: Wie kann ein Marktpartner (z.B.</text></g><!--link UNZ_00042 to UNZ_00042_msg_1--><g class="link" data-entity-1="UNZ_00042" data-entity-2="UNZ_00042_msg_1" data-source-line="15" data-uid="lnk4" id="link_UNZ_00042_UNZ_00042_msg_1"><path codeLine="15" d="M389.94,141.5169 C364.25,164.4469 337.3967,188.412 308.8767,213.862" fill="none" id="UNZ_00042-to-UNZ_00042_msg_1" style="stroke:#181818;stroke-width:1;"/><polygon fill="#181818" points="304.4,217.8569,313.7783,214.8491,308.1306,214.5278,308.4519,208.8801,304.4,217.8569" style="stroke:#181818;stroke-width:1;"/><text fill="#000000" font-family="sans-serif" font-size="13" lengthAdjust="spacing" textLength="85.2363" x="354.48" y="184.2538">verwendet in</text></g><!--link UNZ_00042 to UNZ_00042_proc_1--><g class="link" data-entity-1="UNZ_00042" data-entity-2="UNZ_00042_proc_1" data-source-line="21" data-uid="lnk6" id="link_UNZ_00042_UNZ_00042_proc_1"><path codeLine="21" d="M497.26,141.5169 C530.22,170.8069 567.9343,204.3121 601.6943,234.3021" fill="none" id="UNZ_00042-to-UNZ_00042_proc_1" style="stroke:#181818;stroke-width:1;stroke-dasharray:7,7;"/><polygon fill="#181818" points="606.18,238.2869,602.108,229.3192,602.4419,234.9662,596.7949,235.3002,606.18,238.2869" style="stroke:#181818;stroke-width:1;"/><text fill="#000000" font-family="sans-serif" font-size="13" lengthAdjust="spacing" textLength="91.6221" x="547.48" y="184.2538">eingebettet in</text></g><!--SRC=[bP7DIiD04CVlVOevUcX3ZB72KW9QfQWqAaM4NfPjCab3aqtPdMsbufi8FanVpDdYTqyzBCpyv-itirHHZN2f2BMYMbdemMCw5M4Onb4dOy5wN-vyUEa0fAf10QcZJUwBEFzAvsYnR50Jn-zDkq5hKR0D73tNHMjoD4wNu7GEsxSPcgOYghsoQZMCENsDXfjrNl-Fb8qjvV7du6nkgcnE0iQJuLqwWIY8CmxSjfhmcUNl3DIMZ5kGCnwegBrMO9qBk56i35i65X2UTI7gT-7qfCi3_Pl-vZ-C7E31OLtZ5vmSNuza9EDCAhTzH-CxQV8aAACmYiEpg1yiyu9N_hblhvVihIvWXMQDV6E2Ik_TPsdQZBC60symJfBiZdKW-uW_a3OUtiv6x4-TLGr_QC73k430KuMmK5e3Lbogp8AMof160qURu2BuiqKG9Fk0mbUME4EYtI8V]--></g></svg>