<svg xmlns="http://www.w3.org/2000/svg" xmlns:xlink="http://www.w3.org/1999/xlink" contentStyleType="text/css" data-diagram-type="CLASS" height="370px" preserveAspectRatio="none" style="width:1251px;height:370px;background:#FFFFFF;" version="1.1" viewBox="0 0 1251 370" width="1251px" zoomAndPan="magnify"><title>Datenatlas - XXX:GS_002</title><defs/><g><g class="title" data-source-line="1"><text fill="#000000" font-family="sans-serif" font-size="14" font-weight="bold" lengthAdjust="spacing" textLength="197.2783" x="520.3041" y="22.9951">Datenatlas - XXX:GS_002</text></g><!--class XXX_GS_002--><g class="entity" data-entity="XXX_GS_002" data-source-line="2" data-uid="ent0002" id="entity_XXX_GS_002"><rect fill="#F1F1F1" height="96.8906" rx="2.5" ry="2.5" style="stroke:#181818;stroke-width:0.5;" width="1097.123" x="7" y="44.2969"/><ellipse cx="506.6968" cy="60.2969" fill="#ADD1B2" rx="11" ry="11" style="stroke:#181818;stroke-width:1;"/><path d="M509.6655,65.9375 Q509.0874,66.2344 508.4468,66.375 Q507.8062,66.5313 507.103,66.5313 Q504.603,66.5313 503.2749,64.8906 Q501.9624,63.2344 501.9624,60.1094 Q501.9624,56.9844 503.2749,55.3281 Q504.603,53.6719 507.103,53.6719 Q507.8062,53.6719 508.4468,53.8281 Q509.103,53.9844 509.6655,54.2813 L509.6655,57 Q509.0405,56.4219 508.4468,56.1563 Q507.853,55.875 507.228,55.875 Q505.8843,55.875 505.1968,56.9531 Q504.5093,58.0156 504.5093,60.1094 Q504.5093,62.2031 505.1968,63.2813 Q505.8843,64.3438 507.228,64.3438 Q507.853,64.3438 508.4468,64.0781 Q509.0405,63.7969 509.6655,63.2188 L509.6655,65.9375 Z " fill="#000000"/><text fill="#000000" font-family="sans-serif" font-size="14" lengthAdjust="spacing" textLength="89.2295" x="527.1968" y="65.1436">XXX_GS_002</text><line style="stroke:#181818;stroke-width:0.5;" x1="8" x2="1103.123" y1="76.2969" y2="76.2969"/><text fill="#000000" font-family="sans-serif" font-size="14" lengthAdjust="spacing" textLength="66.6436" x="27" y="93.292">Prozesse:</text><rect fill="none" height="6" style="stroke:#C82930;stroke-width:1;" width="6" x="15" y="103.2422"/><text fill="#000000" font-family="sans-serif" font-size="14" lengthAdjust="spacing" textLength="180.3457" x="27" y="109.5889">Netznutzungsabrechnung</text><line style="stroke:#181818;stroke-width:0.5;" x1="8" x2="1103.123" y1="116.8906" y2="116.8906"/><text fill="#000000" font-family="sans-serif" font-size="14" lengthAdjust="spacing" textLength="1085.123" x="13" y="133.8857">Name: Codeliste Gas und Strom Nr. GS_002 Codeliste zur Pr&#252;fung der Mehr-/Mindermengenabrechnung zwischen NB und LF (entspricht dem EBD E_0801)</text></g><!--class XXX_GS_002_msg_1--><g class="entity" data-entity="XXX_GS_002_msg_1" data-source-line="7" data-uid="ent0003" id="entity_XXX_GS_002_msg_1"><rect fill="#F1F1F1" height="145.7813" rx="2.5" ry="2.5" style="stroke:#181818;stroke-width:0.5;" width="429.8672" x="27.63" y="218.1869"/><ellipse cx="167.3361" cy="234.1869" fill="#ADD1B2" rx="11" ry="11" style="stroke:#181818;stroke-width:1;"/><path d="M170.3048,239.8275 Q169.7267,240.1244 169.0861,240.265 Q168.4454,240.4213 167.7423,240.4213 Q165.2423,240.4213 163.9142,238.7806 Q162.6017,237.1244 162.6017,233.9994 Q162.6017,230.8744 163.9142,229.2181 Q165.2423,227.5619 167.7423,227.5619 Q168.4454,227.5619 169.0861,227.7181 Q169.7423,227.8744 170.3048,228.1713 L170.3048,230.89 Q169.6798,230.3119 169.0861,230.0463 Q168.4923,229.765 167.8673,229.765 Q166.5236,229.765 165.8361,230.8431 Q165.1486,231.9056 165.1486,233.9994 Q165.1486,236.0931 165.8361,237.1713 Q166.5236,238.2338 167.8673,238.2338 Q168.4923,238.2338 169.0861,237.9681 Q169.6798,237.6869 170.3048,237.1088 L170.3048,239.8275 Z " fill="#000000"/><text fill="#000000" font-family="sans-serif" font-size="14" lengthAdjust="spacing" textLength="141.9551" x="187.8361" y="239.0336">XXX_GS_002_msg_1</text><line style="stroke:#181818;stroke-width:0.5;" x1="28.63" x2="456.4972" y1="250.1869" y2="250.1869"/><text fill="#000000" font-family="sans-serif" font-size="14" lengthAdjust="spacing" textLength="171.4932" x="33.63" y="267.182">Nachricht: REMADV 2.9c</text><text fill="#000000" font-family="sans-serif" font-size="14" lengthAdjust="spacing" textLength="123.0605" x="33.63" y="283.4789">Kontext: Beispiel:</text><text fill="#000000" font-family="sans-serif" font-size="14" lengthAdjust="spacing" textLength="91.4033" x="33.63" y="299.7757">Pflichtfeld: Ja</text><text fill="#000000" font-family="sans-serif" font-size="14" lengthAdjust="spacing" textLength="321.6172" x="33.63" y="316.0726">Codes: EBD, ESA, LF, MGV, MSB, NB, NN, OCR</text><text fill="#000000" font-family="sans-serif" font-size="14" lengthAdjust="spacing" textLength="251.4395" x="33.63" y="332.3695">Prozesse: Netznutzungsabrechnung</text><text fill="#000000" font-family="sans-serif" font-size="14" lengthAdjust="spacing" textLength="417.8672" x="33.63" y="348.6664">Quelle: REMADV_MIG_2.9c_au&#223;erordentliche_20240726.pdf</text><line style="stroke:#181818;stroke-width:0.5;" x1="28.63" x2="456.4972" y1="355.9681" y2="355.9681"/></g><!--class XXX_GS_002_proc_1--><g class="entity" data-entity="XXX_GS_002_proc_1" data-source-line="16" data-uid="ent0005" id="entity_XXX_GS_002_proc_1"><rect fill="#F1F1F1" height="105.1563" rx="2.5" ry="2.5" style="stroke:#181818;stroke-width:0.5;" width="752.6465" x="492.24" y="238.4969"/><ellipse cx="792.7922" cy="258.6297" fill="#ADD1B2" rx="11" ry="11" style="stroke:#181818;stroke-width:1;"/><path d="M795.761,264.2703 Q795.1829,264.5672 794.5422,264.7078 Q793.9016,264.8641 793.1985,264.8641 Q790.6985,264.8641 789.3704,263.2234 Q788.0579,261.5672 788.0579,258.4422 Q788.0579,255.3172 789.3704,253.6609 Q790.6985,252.0047 793.1985,252.0047 Q793.9016,252.0047 794.5422,252.1609 Q795.1985,252.3172 795.761,252.6141 L795.761,255.3328 Q795.136,254.7547 794.5422,254.4891 Q793.9485,254.2078 793.3235,254.2078 Q791.9797,254.2078 791.2922,255.2859 Q790.6047,256.3484 790.6047,258.4422 Q790.6047,260.5359 791.2922,261.6141 Q791.9797,262.6766 793.3235,262.6766 Q793.9485,262.6766 794.5422,262.4109 Q795.136,262.1297 795.761,261.5516 L795.761,264.2703 Z " fill="#000000"/><text fill="#000000" font-family="sans-serif" font-size="12" font-style="italic" lengthAdjust="spacing" textLength="61.0605" x="854.283" y="254.6355">&#171;process&#187;</text><text fill="#000000" font-family="sans-serif" font-size="14" lengthAdjust="spacing" textLength="143.042" x="813.2922" y="270.4607">XXX_GS_002_proc_1</text><line style="stroke:#181818;stroke-width:0.5;" x1="493.24" x2="1243.8865" y1="278.7625" y2="278.7625"/><text fill="#000000" font-family="sans-serif" font-size="14" lengthAdjust="spacing" textLength="180.3457" x="498.24" y="295.7576">Netznutzungsabrechnung</text><text fill="#000000" font-family="sans-serif" font-size="14" lengthAdjust="spacing" textLength="218.0938" x="498.24" y="312.0545">Gesetze: StromNEV, StromNZV</text><text fill="#000000" font-family="sans-serif" font-size="14" lengthAdjust="spacing" textLength="740.6465" x="498.24" y="328.3514">Zusammenfassung: Wie funktioniert die Netznutzungsabrechnung zwischen Netzbetreiber und Lieferant?</text><line style="stroke:#181818;stroke-width:0.5;" x1="493.24" x2="1243.8865" y1="335.6531" y2="335.6531"/></g><!--link XXX_GS_002 to XXX_GS_002_msg_1--><g class="link" data-entity-1="XXX_GS_002" data-entity-2="XXX_GS_002_msg_1" data-source-line="15" data-uid="lnk4" id="link_XXX_GS_002_XXX_GS_002_msg_1"><path codeLine="15" d="M479.39,141.5169 C442.84,164.4469 403.3531,189.219 362.7731,214.669" fill="none" id="XXX_GS_002-to-XXX_GS_002_msg_1" style="stroke:#181818;stroke-width:1;"/><polygon fill="#181818" points="357.69,217.8569,367.4398,216.4638,361.9259,215.2003,363.1893,209.6864,357.69,217.8569" style="stroke:#181818;stroke-width:1;"/><text fill="#000000" font-family="sans-serif" font-size="13" lengthAdjust="spacing" textLength="85.2363" x="428.56" y="184.2538">verwendet in</text></g><!--link XXX_GS_002 to XXX_GS_002_proc_1--><g class="link" data-entity-1="XXX_GS_002" data-entity-2="XXX_GS_002_proc_1" data-source-line="21" data-uid="lnk6" id="link_XXX_GS_002_XXX_GS_002_proc_1"><path codeLine="21" d="M631.73,141.5169 C678.33,170.7469 732.8778,204.9577 780.6378,234.9277" fill="none" id="XXX_GS_002-to-XXX_GS_002_proc_1" style="stroke:#181818;stroke-width:1;stroke-dasharray:7,7;"/><polygon fill="#181818" points="785.72,238.1169,780.2228,229.945,781.4848,235.4592,775.9705,236.7213,785.72,238.1169" style="stroke:#181818;stroke-width:1;"/><text fill="#000000" font-family="sans-serif" font-size="13" lengthAdjust="spacing" textLength="91.6221" x="704.56" y="184.2538">eingebettet in</text></g><!--SRC=[TLBRRfj047ttLynZAs5AKDNBAd8LnnJr0dLZoRNoii8mc5LXiNQN9gBgj_H7-fOVwm6dYYid3w3TcRDdpfaPfrpDjCWSwypLcQKfRJOR4Qza48IJ714x1EGXG3ydH6dMiA3Bjk1QMSSKurMd2revqpQK6f_kmG-GlZEqD7T_oaxlg6132LTc-Y9H6fU6zGxLjuRpIW-0_aRPl69DwNma_loUdh5sTczKNZcyRoYQBoYImPlWx3aKBKtRixKiS2OuIDdrkdCzoEm3x-JNYH_Ps9qyktULLoE_eAiekLYiAVJVvaXyQhNZMuJdhEnUSJrKMPRrW2svBWHzp10Pp5en2FCeMbruKErH4g_nMyqzMC6NUlJbykfOy5DIYRvsNDVyJunCFiHo42IpxkutczOKwCYWWMKOX2-3r-4hVr-Ky7WqhUbqTcfMq0ysDupEErBwj2Lxq-Q0dPyF1uYSpGxzUKfep1OfA1tddqPmV3XThv6zxcpMOC8bgW0lw9jYmXfyTwhLYWt6YS3Zv4UBWFoMdM6rnVACEw6uP9Dfz-v_oxu_UyIC85POCb2uqVLV]--></g></svg>