<svg xmlns="http://www.w3.org/2000/svg" xmlns:xlink="http://www.w3.org/1999/xlink" contentStyleType="text/css" data-diagram-type="CLASS" height="387px" preserveAspectRatio="none" style="width:2022px;height:387px;background:#FFFFFF;" version="1.1" viewBox="0 0 2022 387" width="2022px" zoomAndPan="magnify"><title>Datenatlas - XXX:E_0243</title><defs/><g><g class="title" data-source-line="1"><text fill="#000000" font-family="sans-serif" font-size="14" font-weight="bold" lengthAdjust="spacing" textLength="195.0088" x="906.5638" y="22.9951">Datenatlas - XXX:E_0243</text></g><!--class XXX_E_0243--><g class="entity" data-entity="XXX_E_0243" data-source-line="2" data-uid="ent0002" id="entity_XXX_E_0243"><rect fill="#F1F1F1" height="113.1875" rx="2.5" ry="2.5" style="stroke:#181818;stroke-width:0.5;" width="1097.5059" x="334.06" y="44.2969"/><ellipse cx="834.9394" cy="60.2969" fill="#ADD1B2" rx="11" ry="11" style="stroke:#181818;stroke-width:1;"/><path d="M837.9081,65.9375 Q837.33,66.2344 836.6894,66.375 Q836.0488,66.5313 835.3456,66.5313 Q832.8456,66.5313 831.5175,64.8906 Q830.205,63.2344 830.205,60.1094 Q830.205,56.9844 831.5175,55.3281 Q832.8456,53.6719 835.3456,53.6719 Q836.0488,53.6719 836.6894,53.8281 Q837.3456,53.9844 837.9081,54.2813 L837.9081,57 Q837.2831,56.4219 836.6894,56.1563 Q836.0956,55.875 835.4706,55.875 Q834.1269,55.875 833.4394,56.9531 Q832.7519,58.0156 832.7519,60.1094 Q832.7519,62.2031 833.4394,63.2813 Q834.1269,64.3438 835.4706,64.3438 Q836.0956,64.3438 836.6894,64.0781 Q837.2831,63.7969 837.9081,63.2188 L837.9081,65.9375 Z " fill="#000000"/><text fill="#000000" font-family="sans-serif" font-size="14" lengthAdjust="spacing" textLength="87.2471" x="855.4394" y="65.1436">XXX_E_0243</text><line style="stroke:#181818;stroke-width:0.5;" x1="335.06" x2="1430.5659" y1="76.2969" y2="76.2969"/><text fill="#000000" font-family="sans-serif" font-size="14" lengthAdjust="spacing" textLength="66.6436" x="354.06" y="93.292">Prozesse:</text><rect fill="none" height="6" style="stroke:#C82930;stroke-width:1;" width="6" x="342.06" y="103.2422"/><text fill="#000000" font-family="sans-serif" font-size="14" lengthAdjust="spacing" textLength="223.2822" x="354.06" y="109.5889">Messstellenbetriebsabrechnung</text><rect fill="none" height="6" style="stroke:#C82930;stroke-width:1;" width="6" x="342.06" y="119.5391"/><text fill="#000000" font-family="sans-serif" font-size="14" lengthAdjust="spacing" textLength="180.3457" x="354.06" y="125.8857">Netznutzungsabrechnung</text><line style="stroke:#181818;stroke-width:0.5;" x1="335.06" x2="1430.5659" y1="133.1875" y2="133.1875"/><text fill="#000000" font-family="sans-serif" font-size="14" lengthAdjust="spacing" textLength="1085.5059" x="340.06" y="150.1826">Name: EBD Nr. E_0243_Storno verarbeiten Codeliste zur Pr&#252;fung f&#252;r die Antwort auf eine Stornierung (Abrechnung Messstellenbetrieb gegen&#252;ber dem LF)</text></g><!--class XXX_E_0243_msg_1--><g class="entity" data-entity="XXX_E_0243_msg_1" data-source-line="8" data-uid="ent0003" id="entity_XXX_E_0243_msg_1"><rect fill="#F1F1F1" height="145.7813" rx="2.5" ry="2.5" style="stroke:#181818;stroke-width:0.5;" width="495.6221" x="7" y="234.4869"/><ellipse cx="180.5747" cy="250.4869" fill="#ADD1B2" rx="11" ry="11" style="stroke:#181818;stroke-width:1;"/><path d="M183.5435,256.1275 Q182.9653,256.4244 182.3247,256.565 Q181.6841,256.7213 180.981,256.7213 Q178.481,256.7213 177.1528,255.0806 Q175.8403,253.4244 175.8403,250.2994 Q175.8403,247.1744 177.1528,245.5181 Q178.481,243.8619 180.981,243.8619 Q181.6841,243.8619 182.3247,244.0181 Q182.981,244.1744 183.5435,244.4713 L183.5435,247.19 Q182.9185,246.6119 182.3247,246.3463 Q181.731,246.065 181.106,246.065 Q179.7622,246.065 179.0747,247.1431 Q178.3872,248.2056 178.3872,250.2994 Q178.3872,252.3931 179.0747,253.4713 Q179.7622,254.5338 181.106,254.5338 Q181.731,254.5338 182.3247,254.2681 Q182.9185,253.9869 183.5435,253.4088 L183.5435,256.1275 Z " fill="#000000"/><text fill="#000000" font-family="sans-serif" font-size="14" lengthAdjust="spacing" textLength="139.9727" x="201.0747" y="255.3336">XXX_E_0243_msg_1</text><line style="stroke:#181818;stroke-width:0.5;" x1="8" x2="501.6221" y1="266.4869" y2="266.4869"/><text fill="#000000" font-family="sans-serif" font-size="14" lengthAdjust="spacing" textLength="171.4932" x="13" y="283.482">Nachricht: REMADV 2.9c</text><text fill="#000000" font-family="sans-serif" font-size="14" lengthAdjust="spacing" textLength="123.0605" x="13" y="299.7789">Kontext: Beispiel:</text><text fill="#000000" font-family="sans-serif" font-size="14" lengthAdjust="spacing" textLength="91.4033" x="13" y="316.0757">Pflichtfeld: Ja</text><text fill="#000000" font-family="sans-serif" font-size="14" lengthAdjust="spacing" textLength="321.6172" x="13" y="332.3726">Codes: EBD, ESA, LF, MGV, MSB, NB, NN, OCR</text><text fill="#000000" font-family="sans-serif" font-size="14" lengthAdjust="spacing" textLength="483.6221" x="13" y="348.6695">Prozesse: Messstellenbetriebsabrechnung, Netznutzungsabrechnung</text><text fill="#000000" font-family="sans-serif" font-size="14" lengthAdjust="spacing" textLength="417.8672" x="13" y="364.9664">Quelle: REMADV_MIG_2.9c_au&#223;erordentliche_20240726.pdf</text><line style="stroke:#181818;stroke-width:0.5;" x1="8" x2="501.6221" y1="372.2681" y2="372.2681"/></g><!--class XXX_E_0243_proc_1--><g class="entity" data-entity="XXX_E_0243_proc_1" data-source-line="17" data-uid="ent0005" id="entity_XXX_E_0243_proc_1"><rect fill="#F1F1F1" height="105.1563" rx="2.5" ry="2.5" style="stroke:#181818;stroke-width:0.5;" width="690.2275" x="537.7" y="254.7969"/><ellipse cx="808.034" cy="274.9297" fill="#ADD1B2" rx="11" ry="11" style="stroke:#181818;stroke-width:1;"/><path d="M811.0027,280.5703 Q810.4246,280.8672 809.784,281.0078 Q809.1434,281.1641 808.4402,281.1641 Q805.9402,281.1641 804.6121,279.5234 Q803.2996,277.8672 803.2996,274.7422 Q803.2996,271.6172 804.6121,269.9609 Q805.9402,268.3047 808.4402,268.3047 Q809.1434,268.3047 809.784,268.4609 Q810.4402,268.6172 811.0027,268.9141 L811.0027,271.6328 Q810.3777,271.0547 809.784,270.7891 Q809.1902,270.5078 808.5652,270.5078 Q807.2215,270.5078 806.534,271.5859 Q805.8465,272.6484 805.8465,274.7422 Q805.8465,276.8359 806.534,277.9141 Q807.2215,278.9766 808.5652,278.9766 Q809.1902,278.9766 809.784,278.7109 Q810.3777,278.4297 811.0027,277.8516 L811.0027,280.5703 Z " fill="#000000"/><text fill="#000000" font-family="sans-serif" font-size="12" font-style="italic" lengthAdjust="spacing" textLength="61.0605" x="868.5335" y="270.9355">&#171;process&#187;</text><text fill="#000000" font-family="sans-serif" font-size="14" lengthAdjust="spacing" textLength="141.0596" x="828.534" y="286.7607">XXX_E_0243_proc_1</text><line style="stroke:#181818;stroke-width:0.5;" x1="538.7" x2="1226.9275" y1="295.0625" y2="295.0625"/><text fill="#000000" font-family="sans-serif" font-size="14" lengthAdjust="spacing" textLength="223.2822" x="543.7" y="312.0576">Messstellenbetriebsabrechnung</text><text fill="#000000" font-family="sans-serif" font-size="14" lengthAdjust="spacing" textLength="105.0957" x="543.7" y="328.3545">Gesetze: MsbG</text><text fill="#000000" font-family="sans-serif" font-size="14" lengthAdjust="spacing" textLength="678.2275" x="543.7" y="344.6514">Zusammenfassung: Beschreibe den Prozess der Abrechnung von Messstellenbetriebsleistungen.</text><line style="stroke:#181818;stroke-width:0.5;" x1="538.7" x2="1226.9275" y1="351.9531" y2="351.9531"/></g><!--class XXX_E_0243_proc_2--><g class="entity" data-entity="XXX_E_0243_proc_2" data-source-line="23" data-uid="ent0007" id="entity_XXX_E_0243_proc_2"><rect fill="#F1F1F1" height="105.1563" rx="2.5" ry="2.5" style="stroke:#181818;stroke-width:0.5;" width="752.6465" x="1262.49" y="254.7969"/><ellipse cx="1564.0335" cy="274.9297" fill="#ADD1B2" rx="11" ry="11" style="stroke:#181818;stroke-width:1;"/><path d="M1567.0022,280.5703 Q1566.4241,280.8672 1565.7835,281.0078 Q1565.1428,281.1641 1564.4397,281.1641 Q1561.9397,281.1641 1560.6116,279.5234 Q1559.2991,277.8672 1559.2991,274.7422 Q1559.2991,271.6172 1560.6116,269.9609 Q1561.9397,268.3047 1564.4397,268.3047 Q1565.1428,268.3047 1565.7835,268.4609 Q1566.4397,268.6172 1567.0022,268.9141 L1567.0022,271.6328 Q1566.3772,271.0547 1565.7835,270.7891 Q1565.1897,270.5078 1564.5647,270.5078 Q1563.221,270.5078 1562.5335,271.5859 Q1561.846,272.6484 1561.846,274.7422 Q1561.846,276.8359 1562.5335,277.9141 Q1563.221,278.9766 1564.5647,278.9766 Q1565.1897,278.9766 1565.7835,278.7109 Q1566.3772,278.4297 1567.0022,277.8516 L1567.0022,280.5703 Z " fill="#000000"/><text fill="#000000" font-family="sans-serif" font-size="12" font-style="italic" lengthAdjust="spacing" textLength="61.0605" x="1624.533" y="270.9355">&#171;process&#187;</text><text fill="#000000" font-family="sans-serif" font-size="14" lengthAdjust="spacing" textLength="141.0596" x="1584.5335" y="286.7607">XXX_E_0243_proc_2</text><line style="stroke:#181818;stroke-width:0.5;" x1="1263.49" x2="2014.1365" y1="295.0625" y2="295.0625"/><text fill="#000000" font-family="sans-serif" font-size="14" lengthAdjust="spacing" textLength="180.3457" x="1268.49" y="312.0576">Netznutzungsabrechnung</text><text fill="#000000" font-family="sans-serif" font-size="14" lengthAdjust="spacing" textLength="218.0938" x="1268.49" y="328.3545">Gesetze: StromNEV, StromNZV</text><text fill="#000000" font-family="sans-serif" font-size="14" lengthAdjust="spacing" textLength="740.6465" x="1268.49" y="344.6514">Zusammenfassung: Wie funktioniert die Netznutzungsabrechnung zwischen Netzbetreiber und Lieferant?</text><line style="stroke:#181818;stroke-width:0.5;" x1="1263.49" x2="2014.1365" y1="351.9531" y2="351.9531"/></g><!--link XXX_E_0243 to XXX_E_0243_msg_1--><g class="link" data-entity-1="XXX_E_0243" data-entity-2="XXX_E_0243_msg_1" data-source-line="16" data-uid="lnk4" id="link_XXX_E_0243_XXX_E_0243_msg_1"><path codeLine="16" d="M710.79,157.9069 C638.62,181.4069 559.4752,207.1792 482.6652,232.1892" fill="none" id="XXX_E_0243-to-XXX_E_0243_msg_1" style="stroke:#181818;stroke-width:1;"/><polygon fill="#181818" points="476.96,234.0469,486.7562,235.0638,481.7143,232.4988,484.2793,227.4569,476.96,234.0469" style="stroke:#181818;stroke-width:1;"/><text fill="#000000" font-family="sans-serif" font-size="13" lengthAdjust="spacing" textLength="85.2363" x="607.81" y="200.5538">verwendet in</text></g><!--link XXX_E_0243 to XXX_E_0243_proc_1--><g class="link" data-entity-1="XXX_E_0243" data-entity-2="XXX_E_0243_proc_1" data-source-line="22" data-uid="lnk6" id="link_XXX_E_0243_XXX_E_0243_proc_1"><path codeLine="22" d="M882.81,157.7669 C882.81,187.9169 882.81,218.9069 882.81,248.4269" fill="none" id="XXX_E_0243-to-XXX_E_0243_proc_1" style="stroke:#181818;stroke-width:1;stroke-dasharray:7,7;"/><polygon fill="#181818" points="882.81,254.4269,886.81,245.4269,882.81,249.4269,878.81,245.4269,882.81,254.4269" style="stroke:#181818;stroke-width:1;"/><text fill="#000000" font-family="sans-serif" font-size="13" lengthAdjust="spacing" textLength="91.6221" x="883.81" y="200.5538">eingebettet in</text></g><!--link XXX_E_0243 to XXX_E_0243_proc_2--><g class="link" data-entity-1="XXX_E_0243" data-entity-2="XXX_E_0243_proc_2" data-source-line="28" data-uid="lnk8" id="link_XXX_E_0243_XXX_E_0243_proc_2"><path codeLine="28" d="M1090.14,157.9669 C1201.39,188.0669 1331.8182,223.3401 1440.6882,252.7901" fill="none" id="XXX_E_0243-to-XXX_E_0243_proc_2" style="stroke:#181818;stroke-width:1;stroke-dasharray:7,7;"/><polygon fill="#181818" points="1446.48,254.3569,1438.8367,248.1456,1441.6535,253.0513,1436.7478,255.868,1446.48,254.3569" style="stroke:#181818;stroke-width:1;"/><text fill="#000000" font-family="sans-serif" font-size="13" lengthAdjust="spacing" textLength="91.6221" x="1261.81" y="200.5538">eingebettet in</text></g><!--SRC=[XLFDRfj04BxdAUROIXYbf6fL5BcoOsgrZQaRIwwL2rfWmAl2hhKxn15HdgKlufjVhBDs4Zd2IGwWOMPs-7vsI5A5C1A4Ib0bBFHWiLY4KN8QV3mxoJXZNIBP9-3k120MDOOG3KSG6n_sXMH6sYWDDsY4IL7oEBZGELRI4aBR69YQxQPeL0d5TcCWbmW3HMjj24HJ04g5i9iXqRYkTuFKOBPKBfwWjJocgb2bI4PY2YMMgBQR57aKrd3vxJq3cnhTSYk670CJwPwpucdgGq-CrAg6MiuS5kyxr9FQbic71m6ofP7PaaAuYYQ3qHm2_ql6XPzQ4TvoUeZIhYHM3icqg5nlWLKUmW_16IUCtIdeGJGRU0pVWybupg_Pq8FOFR47lowk3aczJiTxYGd0xyQTUSIQJBwF4uSt4Sts7nfjSbJa868ICD7Jpy4dVvKNBC61xxrUlwj5wEnUeygHGAgkOYkZCsuxFtS1W-_tT_AzPSiOBLDnX6qwvk_hnegwHbNmUEvmwbes06MARBvwL8XZ0mUtvaQhOx-gs1hYEYh_EKNVxny17xghMIAVfjTO1XsMBzhnH6z6HjTnnBRle-lvCR9_U5DuR_wIr6utQBSwnuT3kvQi34lYwewmqyX0etAub5ZmRYhw-ZRheCFwFm00]--></g></svg>